solid OpenSCAD_Model
  facet normal 0.994522 0.104526 0
    outer loop
      vertex 10 0 7.5
      vertex 9.78148 2.07912 -7.5
      vertex 9.78148 2.07912 7.5
    endloop
  endfacet
  facet normal 0.994522 0.104526 0
    outer loop
      vertex 9.78148 2.07912 -7.5
      vertex 10 0 7.5
      vertex 10 0 -7.5
    endloop
  endfacet
  facet normal 0.951055 0.309021 0
    outer loop
      vertex 9.78148 2.07912 7.5
      vertex 9.13545 4.06737 -7.5
      vertex 9.13545 4.06737 7.5
    endloop
  endfacet
  facet normal 0.951055 0.309021 0
    outer loop
      vertex 9.13545 4.06737 -7.5
      vertex 9.78148 2.07912 7.5
      vertex 9.78148 2.07912 -7.5
    endloop
  endfacet
  facet normal 0.866026 0.5 0
    outer loop
      vertex 9.13545 4.06737 7.5
      vertex 8.09017 5.87785 -7.5
      vertex 8.09017 5.87785 7.5
    endloop
  endfacet
  facet normal 0.866026 0.5 0
    outer loop
      vertex 8.09017 5.87785 -7.5
      vertex 9.13545 4.06737 7.5
      vertex 9.13545 4.06737 -7.5
    endloop
  endfacet
  facet normal 0.743147 0.669129 0
    outer loop
      vertex 8.09017 5.87785 7.5
      vertex 6.69131 7.43145 -7.5
      vertex 6.69131 7.43145 7.5
    endloop
  endfacet
  facet normal 0.743147 0.669129 0
    outer loop
      vertex 6.69131 7.43145 -7.5
      vertex 8.09017 5.87785 7.5
      vertex 8.09017 5.87785 -7.5
    endloop
  endfacet
  facet normal 0.587783 0.809019 -0
    outer loop
      vertex 6.69131 7.43145 -7.5
      vertex 5 8.66025 7.5
      vertex 6.69131 7.43145 7.5
    endloop
  endfacet
  facet normal 0.587783 0.809019 0
    outer loop
      vertex 5 8.66025 7.5
      vertex 6.69131 7.43145 -7.5
      vertex 5 8.66025 -7.5
    endloop
  endfacet
  facet normal 0.406736 0.913546 -0
    outer loop
      vertex 5 8.66025 -7.5
      vertex 3.09017 9.51056 7.5
      vertex 5 8.66025 7.5
    endloop
  endfacet
  facet normal 0.406736 0.913546 0
    outer loop
      vertex 3.09017 9.51056 7.5
      vertex 5 8.66025 -7.5
      vertex 3.09017 9.51056 -7.5
    endloop
  endfacet
  facet normal 0.207914 0.978147 -0
    outer loop
      vertex 3.09017 9.51056 -7.5
      vertex 1.04528 9.94522 7.5
      vertex 3.09017 9.51056 7.5
    endloop
  endfacet
  facet normal 0.207914 0.978147 0
    outer loop
      vertex 1.04528 9.94522 7.5
      vertex 3.09017 9.51056 -7.5
      vertex 1.04528 9.94522 -7.5
    endloop
  endfacet
  facet normal 0 1 -0
    outer loop
      vertex 1.04528 9.94522 -7.5
      vertex -1.04528 9.94522 7.5
      vertex 1.04528 9.94522 7.5
    endloop
  endfacet
  facet normal 0 1 0
    outer loop
      vertex -1.04528 9.94522 7.5
      vertex 1.04528 9.94522 -7.5
      vertex -1.04528 9.94522 -7.5
    endloop
  endfacet
  facet normal -0.207914 0.978147 0
    outer loop
      vertex -1.04528 9.94522 -7.5
      vertex -3.09017 9.51056 7.5
      vertex -1.04528 9.94522 7.5
    endloop
  endfacet
  facet normal -0.207914 0.978147 0
    outer loop
      vertex -3.09017 9.51056 7.5
      vertex -1.04528 9.94522 -7.5
      vertex -3.09017 9.51056 -7.5
    endloop
  endfacet
  facet normal -0.406736 0.913546 0
    outer loop
      vertex -3.09017 9.51056 -7.5
      vertex -5 8.66025 7.5
      vertex -3.09017 9.51056 7.5
    endloop
  endfacet
  facet normal -0.406736 0.913546 0
    outer loop
      vertex -5 8.66025 7.5
      vertex -3.09017 9.51056 -7.5
      vertex -5 8.66025 -7.5
    endloop
  endfacet
  facet normal -0.587783 0.809019 0
    outer loop
      vertex -5 8.66025 -7.5
      vertex -6.69131 7.43145 7.5
      vertex -5 8.66025 7.5
    endloop
  endfacet
  facet normal -0.587783 0.809019 0
    outer loop
      vertex -6.69131 7.43145 7.5
      vertex -5 8.66025 -7.5
      vertex -6.69131 7.43145 -7.5
    endloop
  endfacet
  facet normal -0.743147 0.669129 0
    outer loop
      vertex -8.09017 5.87785 -7.5
      vertex -6.69131 7.43145 7.5
      vertex -6.69131 7.43145 -7.5
    endloop
  endfacet
  facet normal -0.743147 0.669129 0
    outer loop
      vertex -6.69131 7.43145 7.5
      vertex -8.09017 5.87785 -7.5
      vertex -8.09017 5.87785 7.5
    endloop
  endfacet
  facet normal -0.866026 0.5 0
    outer loop
      vertex -9.13545 4.06737 -7.5
      vertex -8.09017 5.87785 7.5
      vertex -8.09017 5.87785 -7.5
    endloop
  endfacet
  facet normal -0.866026 0.5 0
    outer loop
      vertex -8.09017 5.87785 7.5
      vertex -9.13545 4.06737 -7.5
      vertex -9.13545 4.06737 7.5
    endloop
  endfacet
  facet normal -0.951055 0.309021 0
    outer loop
      vertex -9.78148 2.07912 -7.5
      vertex -9.13545 4.06737 7.5
      vertex -9.13545 4.06737 -7.5
    endloop
  endfacet
  facet normal -0.951055 0.309021 0
    outer loop
      vertex -9.13545 4.06737 7.5
      vertex -9.78148 2.07912 -7.5
      vertex -9.78148 2.07912 7.5
    endloop
  endfacet
  facet normal -0.994522 0.104526 0
    outer loop
      vertex -10 -0 -7.5
      vertex -9.78148 2.07912 7.5
      vertex -9.78148 2.07912 -7.5
    endloop
  endfacet
  facet normal -0.994522 0.104526 0
    outer loop
      vertex -9.78148 2.07912 7.5
      vertex -10 -0 -7.5
      vertex -10 -0 7.5
    endloop
  endfacet
  facet normal -0.994522 -0.104526 0
    outer loop
      vertex -9.78148 -2.07912 -7.5
      vertex -10 -0 7.5
      vertex -10 -0 -7.5
    endloop
  endfacet
  facet normal -0.994522 -0.104526 0
    outer loop
      vertex -10 -0 7.5
      vertex -9.78148 -2.07912 -7.5
      vertex -9.78148 -2.07912 7.5
    endloop
  endfacet
  facet normal -0.951055 -0.309021 0
    outer loop
      vertex -9.13545 -4.06737 -7.5
      vertex -9.78148 -2.07912 7.5
      vertex -9.78148 -2.07912 -7.5
    endloop
  endfacet
  facet normal -0.951055 -0.309021 0
    outer loop
      vertex -9.78148 -2.07912 7.5
      vertex -9.13545 -4.06737 -7.5
      vertex -9.13545 -4.06737 7.5
    endloop
  endfacet
  facet normal -0.866026 -0.5 0
    outer loop
      vertex -8.09017 -5.87785 -7.5
      vertex -9.13545 -4.06737 7.5
      vertex -9.13545 -4.06737 -7.5
    endloop
  endfacet
  facet normal -0.866026 -0.5 0
    outer loop
      vertex -9.13545 -4.06737 7.5
      vertex -8.09017 -5.87785 -7.5
      vertex -8.09017 -5.87785 7.5
    endloop
  endfacet
  facet normal -0.743147 -0.669129 0
    outer loop
      vertex -6.69131 -7.43145 -7.5
      vertex -8.09017 -5.87785 7.5
      vertex -8.09017 -5.87785 -7.5
    endloop
  endfacet
  facet normal -0.743147 -0.669129 0
    outer loop
      vertex -8.09017 -5.87785 7.5
      vertex -6.69131 -7.43145 -7.5
      vertex -6.69131 -7.43145 7.5
    endloop
  endfacet
  facet normal -0.587783 -0.809019 0
    outer loop
      vertex -6.69131 -7.43145 -7.5
      vertex -5 -8.66025 7.5
      vertex -6.69131 -7.43145 7.5
    endloop
  endfacet
  facet normal -0.587783 -0.809019 -0
    outer loop
      vertex -5 -8.66025 7.5
      vertex -6.69131 -7.43145 -7.5
      vertex -5 -8.66025 -7.5
    endloop
  endfacet
  facet normal -0.406736 -0.913546 0
    outer loop
      vertex -5 -8.66025 -7.5
      vertex -3.09017 -9.51056 7.5
      vertex -5 -8.66025 7.5
    endloop
  endfacet
  facet normal -0.406736 -0.913546 -0
    outer loop
      vertex -3.09017 -9.51056 7.5
      vertex -5 -8.66025 -7.5
      vertex -3.09017 -9.51056 -7.5
    endloop
  endfacet
  facet normal -0.207914 -0.978147 0
    outer loop
      vertex -3.09017 -9.51056 -7.5
      vertex -1.04528 -9.94522 7.5
      vertex -3.09017 -9.51056 7.5
    endloop
  endfacet
  facet normal -0.207914 -0.978147 -0
    outer loop
      vertex -1.04528 -9.94522 7.5
      vertex -3.09017 -9.51056 -7.5
      vertex -1.04528 -9.94522 -7.5
    endloop
  endfacet
  facet normal 0 -1 0
    outer loop
      vertex -1.04528 -9.94522 -7.5
      vertex 1.04528 -9.94522 7.5
      vertex -1.04528 -9.94522 7.5
    endloop
  endfacet
  facet normal 0 -1 -0
    outer loop
      vertex 1.04528 -9.94522 7.5
      vertex -1.04528 -9.94522 -7.5
      vertex 1.04528 -9.94522 -7.5
    endloop
  endfacet
  facet normal 0.207914 -0.978147 0
    outer loop
      vertex 1.04528 -9.94522 -7.5
      vertex 3.09017 -9.51056 7.5
      vertex 1.04528 -9.94522 7.5
    endloop
  endfacet
  facet normal 0.207914 -0.978147 0
    outer loop
      vertex 3.09017 -9.51056 7.5
      vertex 1.04528 -9.94522 -7.5
      vertex 3.09017 -9.51056 -7.5
    endloop
  endfacet
  facet normal 0.406736 -0.913546 0
    outer loop
      vertex 3.09017 -9.51056 -7.5
      vertex 5 -8.66025 7.5
      vertex 3.09017 -9.51056 7.5
    endloop
  endfacet
  facet normal 0.406736 -0.913546 0
    outer loop
      vertex 5 -8.66025 7.5
      vertex 3.09017 -9.51056 -7.5
      vertex 5 -8.66025 -7.5
    endloop
  endfacet
  facet normal 0.587783 -0.809019 0
    outer loop
      vertex 5 -8.66025 -7.5
      vertex 6.69131 -7.43145 7.5
      vertex 5 -8.66025 7.5
    endloop
  endfacet
  facet normal 0.587783 -0.809019 0
    outer loop
      vertex 6.69131 -7.43145 7.5
      vertex 5 -8.66025 -7.5
      vertex 6.69131 -7.43145 -7.5
    endloop
  endfacet
  facet normal 0.743147 -0.669129 0
    outer loop
      vertex 6.69131 -7.43145 7.5
      vertex 8.09017 -5.87785 -7.5
      vertex 8.09017 -5.87785 7.5
    endloop
  endfacet
  facet normal 0.743147 -0.669129 0
    outer loop
      vertex 8.09017 -5.87785 -7.5
      vertex 6.69131 -7.43145 7.5
      vertex 6.69131 -7.43145 -7.5
    endloop
  endfacet
  facet normal 0.866026 -0.5 0
    outer loop
      vertex 8.09017 -5.87785 7.5
      vertex 9.13545 -4.06737 -7.5
      vertex 9.13545 -4.06737 7.5
    endloop
  endfacet
  facet normal 0.866026 -0.5 0
    outer loop
      vertex 9.13545 -4.06737 -7.5
      vertex 8.09017 -5.87785 7.5
      vertex 8.09017 -5.87785 -7.5
    endloop
  endfacet
  facet normal 0.951055 -0.309021 0
    outer loop
      vertex 9.13545 -4.06737 7.5
      vertex 9.78148 -2.07912 -7.5
      vertex 9.78148 -2.07912 7.5
    endloop
  endfacet
  facet normal 0.951055 -0.309021 0
    outer loop
      vertex 9.78148 -2.07912 -7.5
      vertex 9.13545 -4.06737 7.5
      vertex 9.13545 -4.06737 -7.5
    endloop
  endfacet
  facet normal 0.994522 -0.104526 0
    outer loop
      vertex 9.78148 -2.07912 7.5
      vertex 10 0 -7.5
      vertex 10 0 7.5
    endloop
  endfacet
  facet normal 0.994522 -0.104526 0
    outer loop
      vertex 10 0 -7.5
      vertex 9.78148 -2.07912 7.5
      vertex 9.78148 -2.07912 -7.5
    endloop
  endfacet
  facet normal 0 0 -1
    outer loop
      vertex 9.78148 -2.07912 -7.5
      vertex 9.78148 2.07912 -7.5
      vertex 10 0 -7.5
    endloop
  endfacet
  facet normal 0 0 -1
    outer loop
      vertex 9.13545 -4.06737 -7.5
      vertex 9.78148 2.07912 -7.5
      vertex 9.78148 -2.07912 -7.5
    endloop
  endfacet
  facet normal 0 0 -1
    outer loop
      vertex 9.13545 -4.06737 -7.5
      vertex 9.13545 4.06737 -7.5
      vertex 9.78148 2.07912 -7.5
    endloop
  endfacet
  facet normal 0 0 -1
    outer loop
      vertex 8.09017 -5.87785 -7.5
      vertex 9.13545 4.06737 -7.5
      vertex 9.13545 -4.06737 -7.5
    endloop
  endfacet
  facet normal 0 0 -1
    outer loop
      vertex 8.09017 -5.87785 -7.5
      vertex 8.09017 5.87785 -7.5
      vertex 9.13545 4.06737 -7.5
    endloop
  endfacet
  facet normal 0 0 -1
    outer loop
      vertex 6.69131 -7.43145 -7.5
      vertex 8.09017 5.87785 -7.5
      vertex 8.09017 -5.87785 -7.5
    endloop
  endfacet
  facet normal 0 0 -1
    outer loop
      vertex 6.69131 -7.43145 -7.5
      vertex 6.69131 7.43145 -7.5
      vertex 8.09017 5.87785 -7.5
    endloop
  endfacet
  facet normal 0 0 -1
    outer loop
      vertex 5 -8.66025 -7.5
      vertex 6.69131 7.43145 -7.5
      vertex 6.69131 -7.43145 -7.5
    endloop
  endfacet
  facet normal 0 0 -1
    outer loop
      vertex 5 -8.66025 -7.5
      vertex 5 8.66025 -7.5
      vertex 6.69131 7.43145 -7.5
    endloop
  endfacet
  facet normal 0 0 -1
    outer loop
      vertex 3.09017 -9.51056 -7.5
      vertex 5 8.66025 -7.5
      vertex 5 -8.66025 -7.5
    endloop
  endfacet
  facet normal 0 0 -1
    outer loop
      vertex 3.09017 -9.51056 -7.5
      vertex 3.09017 9.51056 -7.5
      vertex 5 8.66025 -7.5
    endloop
  endfacet
  facet normal 0 0 -1
    outer loop
      vertex 1.04528 -9.94522 -7.5
      vertex 3.09017 9.51056 -7.5
      vertex 3.09017 -9.51056 -7.5
    endloop
  endfacet
  facet normal 0 0 -1
    outer loop
      vertex 1.04528 -9.94522 -7.5
      vertex 1.04528 9.94522 -7.5
      vertex 3.09017 9.51056 -7.5
    endloop
  endfacet
  facet normal 0 0 -1
    outer loop
      vertex -1.04528 -9.94522 -7.5
      vertex 1.04528 9.94522 -7.5
      vertex 1.04528 -9.94522 -7.5
    endloop
  endfacet
  facet normal 0 0 -1
    outer loop
      vertex -1.04528 -9.94522 -7.5
      vertex -1.04528 9.94522 -7.5
      vertex 1.04528 9.94522 -7.5
    endloop
  endfacet
  facet normal 0 0 -1
    outer loop
      vertex -3.09017 -9.51056 -7.5
      vertex -1.04528 9.94522 -7.5
      vertex -1.04528 -9.94522 -7.5
    endloop
  endfacet
  facet normal 0 0 -1
    outer loop
      vertex -3.09017 -9.51056 -7.5
      vertex -3.09017 9.51056 -7.5
      vertex -1.04528 9.94522 -7.5
    endloop
  endfacet
  facet normal 0 0 -1
    outer loop
      vertex -5 -8.66025 -7.5
      vertex -3.09017 9.51056 -7.5
      vertex -3.09017 -9.51056 -7.5
    endloop
  endfacet
  facet normal 0 0 -1
    outer loop
      vertex -5 -8.66025 -7.5
      vertex -5 8.66025 -7.5
      vertex -3.09017 9.51056 -7.5
    endloop
  endfacet
  facet normal 0 0 -1
    outer loop
      vertex -6.69131 -7.43145 -7.5
      vertex -5 8.66025 -7.5
      vertex -5 -8.66025 -7.5
    endloop
  endfacet
  facet normal 0 0 -1
    outer loop
      vertex -6.69131 -7.43145 -7.5
      vertex -6.69131 7.43145 -7.5
      vertex -5 8.66025 -7.5
    endloop
  endfacet
  facet normal 0 0 -1
    outer loop
      vertex -8.09017 -5.87785 -7.5
      vertex -6.69131 7.43145 -7.5
      vertex -6.69131 -7.43145 -7.5
    endloop
  endfacet
  facet normal 0 0 -1
    outer loop
      vertex -8.09017 -5.87785 -7.5
      vertex -8.09017 5.87785 -7.5
      vertex -6.69131 7.43145 -7.5
    endloop
  endfacet
  facet normal 0 0 -1
    outer loop
      vertex -9.13545 -4.06737 -7.5
      vertex -8.09017 5.87785 -7.5
      vertex -8.09017 -5.87785 -7.5
    endloop
  endfacet
  facet normal 0 0 -1
    outer loop
      vertex -9.13545 -4.06737 -7.5
      vertex -9.13545 4.06737 -7.5
      vertex -8.09017 5.87785 -7.5
    endloop
  endfacet
  facet normal 0 0 -1
    outer loop
      vertex -9.78148 -2.07912 -7.5
      vertex -9.13545 4.06737 -7.5
      vertex -9.13545 -4.06737 -7.5
    endloop
  endfacet
  facet normal 0 0 -1
    outer loop
      vertex -9.78148 -2.07912 -7.5
      vertex -9.78148 2.07912 -7.5
      vertex -9.13545 4.06737 -7.5
    endloop
  endfacet
  facet normal 0 -0 -1
    outer loop
      vertex -9.78148 2.07912 -7.5
      vertex -9.78148 -2.07912 -7.5
      vertex -10 -0 -7.5
    endloop
  endfacet
  facet normal 0 0 1
    outer loop
      vertex 9.78148 2.07912 7.5
      vertex 9.78148 -2.07912 7.5
      vertex 10 0 7.5
    endloop
  endfacet
  facet normal 0 0 1
    outer loop
      vertex 9.13545 4.06737 7.5
      vertex 9.78148 -2.07912 7.5
      vertex 9.78148 2.07912 7.5
    endloop
  endfacet
  facet normal 0 0 1
    outer loop
      vertex 9.13545 4.06737 7.5
      vertex 9.13545 -4.06737 7.5
      vertex 9.78148 -2.07912 7.5
    endloop
  endfacet
  facet normal 0 0 1
    outer loop
      vertex 8.09017 5.87785 7.5
      vertex 9.13545 -4.06737 7.5
      vertex 9.13545 4.06737 7.5
    endloop
  endfacet
  facet normal 0 0 1
    outer loop
      vertex 8.09017 5.87785 7.5
      vertex 8.09017 -5.87785 7.5
      vertex 9.13545 -4.06737 7.5
    endloop
  endfacet
  facet normal 0 0 1
    outer loop
      vertex 6.69131 7.43145 7.5
      vertex 8.09017 -5.87785 7.5
      vertex 8.09017 5.87785 7.5
    endloop
  endfacet
  facet normal 0 0 1
    outer loop
      vertex 6.69131 7.43145 7.5
      vertex 6.69131 -7.43145 7.5
      vertex 8.09017 -5.87785 7.5
    endloop
  endfacet
  facet normal 0 0 1
    outer loop
      vertex 5 8.66025 7.5
      vertex 6.69131 -7.43145 7.5
      vertex 6.69131 7.43145 7.5
    endloop
  endfacet
  facet normal 0 0 1
    outer loop
      vertex 5 8.66025 7.5
      vertex 5 -8.66025 7.5
      vertex 6.69131 -7.43145 7.5
    endloop
  endfacet
  facet normal 0 0 1
    outer loop
      vertex 3.09017 9.51056 7.5
      vertex 5 -8.66025 7.5
      vertex 5 8.66025 7.5
    endloop
  endfacet
  facet normal 0 0 1
    outer loop
      vertex 3.09017 9.51056 7.5
      vertex 3.09017 -9.51056 7.5
      vertex 5 -8.66025 7.5
    endloop
  endfacet
  facet normal 0 0 1
    outer loop
      vertex 1.04528 9.94522 7.5
      vertex 3.09017 -9.51056 7.5
      vertex 3.09017 9.51056 7.5
    endloop
  endfacet
  facet normal 0 0 1
    outer loop
      vertex 1.04528 9.94522 7.5
      vertex 1.04528 -9.94522 7.5
      vertex 3.09017 -9.51056 7.5
    endloop
  endfacet
  facet normal -0 0 1
    outer loop
      vertex -1.04528 9.94522 7.5
      vertex 1.04528 -9.94522 7.5
      vertex 1.04528 9.94522 7.5
    endloop
  endfacet
  facet normal 0 0 1
    outer loop
      vertex -1.04528 9.94522 7.5
      vertex -1.04528 -9.94522 7.5
      vertex 1.04528 -9.94522 7.5
    endloop
  endfacet
  facet normal -0 0 1
    outer loop
      vertex -3.09017 9.51056 7.5
      vertex -1.04528 -9.94522 7.5
      vertex -1.04528 9.94522 7.5
    endloop
  endfacet
  facet normal 0 0 1
    outer loop
      vertex -3.09017 9.51056 7.5
      vertex -3.09017 -9.51056 7.5
      vertex -1.04528 -9.94522 7.5
    endloop
  endfacet
  facet normal -0 0 1
    outer loop
      vertex -5 8.66025 7.5
      vertex -3.09017 -9.51056 7.5
      vertex -3.09017 9.51056 7.5
    endloop
  endfacet
  facet normal 0 0 1
    outer loop
      vertex -5 8.66025 7.5
      vertex -5 -8.66025 7.5
      vertex -3.09017 -9.51056 7.5
    endloop
  endfacet
  facet normal -0 0 1
    outer loop
      vertex -6.69131 7.43145 7.5
      vertex -5 -8.66025 7.5
      vertex -5 8.66025 7.5
    endloop
  endfacet
  facet normal 0 0 1
    outer loop
      vertex -6.69131 7.43145 7.5
      vertex -6.69131 -7.43145 7.5
      vertex -5 -8.66025 7.5
    endloop
  endfacet
  facet normal -0 0 1
    outer loop
      vertex -8.09017 5.87785 7.5
      vertex -6.69131 -7.43145 7.5
      vertex -6.69131 7.43145 7.5
    endloop
  endfacet
  facet normal 0 0 1
    outer loop
      vertex -8.09017 5.87785 7.5
      vertex -8.09017 -5.87785 7.5
      vertex -6.69131 -7.43145 7.5
    endloop
  endfacet
  facet normal -0 0 1
    outer loop
      vertex -9.13545 4.06737 7.5
      vertex -8.09017 -5.87785 7.5
      vertex -8.09017 5.87785 7.5
    endloop
  endfacet
  facet normal 0 0 1
    outer loop
      vertex -9.13545 4.06737 7.5
      vertex -9.13545 -4.06737 7.5
      vertex -8.09017 -5.87785 7.5
    endloop
  endfacet
  facet normal -0 0 1
    outer loop
      vertex -9.78148 2.07912 7.5
      vertex -9.13545 -4.06737 7.5
      vertex -9.13545 4.06737 7.5
    endloop
  endfacet
  facet normal 0 0 1
    outer loop
      vertex -9.78148 2.07912 7.5
      vertex -9.78148 -2.07912 7.5
      vertex -9.13545 -4.06737 7.5
    endloop
  endfacet
  facet normal 0 -0 1
    outer loop
      vertex -9.78148 -2.07912 7.5
      vertex -9.78148 2.07912 7.5
      vertex -10 -0 7.5
    endloop
  endfacet
endsolid OpenSCAD_Model
