solid OpenSCAD_Model
  facet normal 0.57735 0.57735 0.57735
    outer loop
      vertex 0 20 0
      vertex 0 0 20
      vertex 20 0 0
    endloop
  endfacet
  facet normal -0.57735 0.57735 0.57735
    outer loop
      vertex -20 -0 0
      vertex 0 0 20
      vertex 0 20 0
    endloop
  endfacet
  facet normal -0.57735 -0.57735 0.57735
    outer loop
      vertex -0 -20 0
      vertex 0 0 20
      vertex -20 -0 0
    endloop
  endfacet
  facet normal 0.57735 -0.57735 0.57735
    outer loop
      vertex 20 0 0
      vertex 0 0 20
      vertex -0 -20 0
    endloop
  endfacet
  facet normal 0 0 -1
    outer loop
      vertex -0 -20 0
      vertex 0 20 0
      vertex 20 0 0
    endloop
  endfacet
  facet normal 0 0 -1
    outer loop
      vertex 0 20 0
      vertex -0 -20 0
      vertex -20 -0 0
    endloop
  endfacet
endsolid OpenSCAD_Model
