solid 2b2fe092-cdd8-494f-9e39-9b41462e9e2e-ascii.stl
facet normal -0.000168 0.000000 -0.000000
  outer loop
    vertex 0.002500 0.062500 0.029456
    vertex 0.002500 0.062500 -0.029456
    vertex 0.002500 0.059656 0.026974
  endloop
endfacet
facet normal -0.000153 0.000000 0.000000
  outer loop
    vertex 0.002500 0.059656 0.026974
    vertex 0.002500 0.062500 -0.029456
    vertex 0.002500 0.059656 -0.026974
  endloop
endfacet
facet normal -0.000140 0.000000 -0.000000
  outer loop
    vertex 0.002500 0.059656 0.026974
    vertex 0.002500 0.059656 -0.026974
    vertex 0.002500 0.057061 0.024708
  endloop
endfacet
facet normal -0.000128 0.000000 0.000000
  outer loop
    vertex 0.002500 0.057061 0.024708
    vertex 0.002500 0.059656 -0.026974
    vertex 0.002500 0.057061 -0.024708
  endloop
endfacet
facet normal -0.000225 0.000000 -0.000000
  outer loop
    vertex 0.002500 0.057061 0.024708
    vertex 0.002500 0.057061 -0.024708
    vertex 0.002500 0.052500 0.020719
  endloop
endfacet
facet normal -0.000189 0.000000 0.000000
  outer loop
    vertex 0.002500 0.052500 0.020719
    vertex 0.002500 0.057061 -0.024708
    vertex 0.002500 0.052500 -0.020719
  endloop
endfacet
facet normal 0.000189 -0.000000 0.000000
  outer loop
    vertex -0.002500 0.052500 0.020719
    vertex -0.002500 0.052500 -0.020719
    vertex -0.002500 0.057061 0.024708
  endloop
endfacet
facet normal 0.000225 0.000000 0.000000
  outer loop
    vertex -0.002500 0.057061 0.024708
    vertex -0.002500 0.052500 -0.020719
    vertex -0.002500 0.057061 -0.024708
  endloop
endfacet
facet normal 0.000128 -0.000000 0.000000
  outer loop
    vertex -0.002500 0.057061 0.024708
    vertex -0.002500 0.057061 -0.024708
    vertex -0.002500 0.059656 0.026974
  endloop
endfacet
facet normal 0.000140 0.000000 0.000000
  outer loop
    vertex -0.002500 0.059656 0.026974
    vertex -0.002500 0.057061 -0.024708
    vertex -0.002500 0.059656 -0.026974
  endloop
endfacet
facet normal 0.000153 -0.000000 0.000000
  outer loop
    vertex -0.002500 0.059656 0.026974
    vertex -0.002500 0.059656 -0.026974
    vertex -0.002500 0.062500 0.029456
  endloop
endfacet
facet normal 0.000168 0.000000 0.000000
  outer loop
    vertex -0.002500 0.062500 0.029456
    vertex -0.002500 0.059656 -0.026974
    vertex -0.002500 0.062500 -0.029456
  endloop
endfacet
facet normal 0.000000 0.000069 0.000000
  outer loop
    vertex 0.002500 0.052500 0.020719
    vertex 0.002500 0.052500 -0.020719
    vertex 0.000835 0.052500 0.020853
  endloop
endfacet
facet normal 0.000000 0.000069 0.000000
  outer loop
    vertex 0.000835 0.052500 0.020853
    vertex 0.002500 0.052500 -0.020719
    vertex 0.000835 0.052500 -0.020853
  endloop
endfacet
facet normal 0.000000 0.000070 0.000000
  outer loop
    vertex 0.000835 0.052500 0.020853
    vertex 0.000835 0.052500 -0.020853
    vertex -0.000835 0.052500 0.020853
  endloop
endfacet
facet normal 0.000000 0.000070 0.000000
  outer loop
    vertex -0.000835 0.052500 0.020853
    vertex 0.000835 0.052500 -0.020853
    vertex -0.000835 0.052500 -0.020853
  endloop
endfacet
facet normal 0.000000 0.000069 0.000000
  outer loop
    vertex -0.000835 0.052500 0.020853
    vertex -0.000835 0.052500 -0.020853
    vertex -0.002500 0.052500 0.020719
  endloop
endfacet
facet normal 0.000000 0.000069 0.000000
  outer loop
    vertex -0.002500 0.052500 0.020719
    vertex -0.000835 0.052500 -0.020853
    vertex -0.002500 0.052500 -0.020719
  endloop
endfacet
facet normal 0.000055 -0.000049 -0.000007
  outer loop
    vertex 0.019372 0.051500 -0.004974
    vertex 0.029417 0.062500 -0.002924
    vertex 0.020000 0.051500 0.000000
  endloop
endfacet
facet normal 0.000064 -0.000055 0.000000
  outer loop
    vertex 0.020000 0.051500 0.000000
    vertex 0.029417 0.062500 -0.002924
    vertex 0.029417 0.062500 0.002924
  endloop
endfacet
facet normal 0.000055 -0.000049 0.000007
  outer loop
    vertex 0.020000 0.051500 0.000000
    vertex 0.029417 0.062500 0.002924
    vertex 0.019372 0.051500 0.004974
  endloop
endfacet
facet normal 0.000063 -0.000055 0.000013
  outer loop
    vertex 0.019372 0.051500 0.004974
    vertex 0.029417 0.062500 0.002924
    vertex 0.028266 0.062500 0.008658
  endloop
endfacet
facet normal 0.000051 -0.000048 0.000020
  outer loop
    vertex 0.019372 0.051500 0.004974
    vertex 0.028266 0.062500 0.008658
    vertex 0.017526 0.051500 0.009635
  endloop
endfacet
facet normal 0.000059 -0.000056 0.000025
  outer loop
    vertex 0.017526 0.051500 0.009635
    vertex 0.028266 0.062500 0.008658
    vertex 0.026008 0.062500 0.014053
  endloop
endfacet
facet normal 0.000053 -0.000056 0.000036
  outer loop
    vertex 0.017526 0.051500 0.009635
    vertex 0.026008 0.062500 0.014053
    vertex 0.022733 0.062500 0.018898
  endloop
endfacet
facet normal 0.000063 -0.000055 -0.000013
  outer loop
    vertex 0.029417 0.062500 -0.002924
    vertex 0.019372 0.051500 -0.004974
    vertex 0.028266 0.062500 -0.008658
  endloop
endfacet
facet normal 0.000051 -0.000048 -0.000020
  outer loop
    vertex 0.028266 0.062500 -0.008658
    vertex 0.019372 0.051500 -0.004974
    vertex 0.017526 0.051500 -0.009635
  endloop
endfacet
facet normal 0.000059 -0.000056 -0.000025
  outer loop
    vertex 0.028266 0.062500 -0.008658
    vertex 0.017526 0.051500 -0.009635
    vertex 0.026008 0.062500 -0.014053
  endloop
endfacet
facet normal 0.000053 -0.000056 -0.000036
  outer loop
    vertex 0.026008 0.062500 -0.014053
    vertex 0.017526 0.051500 -0.009635
    vertex 0.022733 0.062500 -0.018898
  endloop
endfacet
facet normal 0.000045 -0.000048 -0.000032
  outer loop
    vertex 0.022733 0.062500 -0.018898
    vertex 0.017526 0.051500 -0.009635
    vertex 0.014579 0.051500 -0.013691
  endloop
endfacet
facet normal 0.000045 -0.000055 -0.000046
  outer loop
    vertex 0.022733 0.062500 -0.018898
    vertex 0.014579 0.051500 -0.013691
    vertex 0.018568 0.062500 -0.023003
  endloop
endfacet
facet normal 0.000035 -0.000049 -0.000042
  outer loop
    vertex 0.018568 0.062500 -0.023003
    vertex 0.014579 0.051500 -0.013691
    vertex 0.010717 0.051500 -0.016887
  endloop
endfacet
facet normal 0.000035 -0.000055 -0.000054
  outer loop
    vertex 0.018568 0.062500 -0.023003
    vertex 0.010717 0.051500 -0.016887
    vertex 0.013677 0.062500 -0.026208
  endloop
endfacet
facet normal 0.000023 -0.000049 -0.000050
  outer loop
    vertex 0.013677 0.062500 -0.026208
    vertex 0.010717 0.051500 -0.016887
    vertex 0.006180 0.051500 -0.019021
  endloop
endfacet
facet normal 0.000024 -0.000055 -0.000060
  outer loop
    vertex 0.013677 0.062500 -0.026208
    vertex 0.006180 0.051500 -0.019021
    vertex 0.008250 0.062500 -0.028388
  endloop
endfacet
facet normal 0.000009 -0.000038 -0.000043
  outer loop
    vertex 0.008250 0.062500 -0.028388
    vertex 0.006180 0.051500 -0.019021
    vertex 0.002500 0.052500 -0.020719
  endloop
endfacet
facet normal 0.000011 -0.000050 -0.000057
  outer loop
    vertex 0.008250 0.062500 -0.028388
    vertex 0.002500 0.052500 -0.020719
    vertex 0.002500 0.062500 -0.029456
  endloop
endfacet
facet normal 0.000000 0.000000 0.000000
  outer loop
    vertex 0.002500 0.062500 -0.029456
    vertex 0.002500 0.052500 -0.020719
    vertex 0.002500 0.057061 -0.024708
  endloop
endfacet
facet normal 0.000000 0.000000 0.000000
  outer loop
    vertex 0.002500 0.062500 -0.029456
    vertex 0.002500 0.057061 -0.024708
    vertex 0.002500 0.059656 -0.026974
  endloop
endfacet
facet normal 0.000001 -0.000005 -0.000005
  outer loop
    vertex 0.006180 0.051500 -0.019021
    vertex 0.001256 0.051500 -0.019961
    vertex 0.002500 0.052500 -0.020719
  endloop
endfacet
facet normal 0.000000 -0.000001 -0.000002
  outer loop
    vertex 0.002500 0.052500 -0.020719
    vertex 0.001256 0.051500 -0.019961
    vertex 0.000835 0.052500 -0.020853
  endloop
endfacet
facet normal -0.000000 -0.000001 -0.000002
  outer loop
    vertex 0.000835 0.052500 -0.020853
    vertex 0.001256 0.051500 -0.019961
    vertex -0.000835 0.052500 -0.020853
  endloop
endfacet
facet normal -0.000000 -0.000005 -0.000005
  outer loop
    vertex -0.000835 0.052500 -0.020853
    vertex 0.001256 0.051500 -0.019961
    vertex -0.003748 0.051500 -0.019646
  endloop
endfacet
facet normal -0.000000 -0.000002 -0.000002
  outer loop
    vertex -0.000835 0.052500 -0.020853
    vertex -0.003748 0.051500 -0.019646
    vertex -0.002500 0.052500 -0.020719
  endloop
endfacet
facet normal -0.000002 -0.000011 -0.000012
  outer loop
    vertex -0.002500 0.052500 -0.020719
    vertex -0.003748 0.051500 -0.019646
    vertex -0.002500 0.062500 -0.029456
  endloop
endfacet
facet normal -0.000000 0.000000 0.000000
  outer loop
    vertex -0.002500 0.052500 -0.020719
    vertex -0.002500 0.062500 -0.029456
    vertex -0.002500 0.057061 -0.024708
  endloop
endfacet
facet normal -0.000000 0.000000 0.000000
  outer loop
    vertex -0.002500 0.057061 -0.024708
    vertex -0.002500 0.062500 -0.029456
    vertex -0.002500 0.059656 -0.026974
  endloop
endfacet
facet normal -0.000012 -0.000055 -0.000063
  outer loop
    vertex -0.002500 0.062500 -0.029456
    vertex -0.003748 0.051500 -0.019646
    vertex -0.008250 0.062500 -0.028388
  endloop
endfacet
facet normal -0.000017 -0.000049 -0.000052
  outer loop
    vertex -0.008250 0.062500 -0.028388
    vertex -0.003748 0.051500 -0.019646
    vertex -0.008516 0.051500 -0.018097
  endloop
endfacet
facet normal -0.000024 -0.000055 -0.000060
  outer loop
    vertex -0.008250 0.062500 -0.028388
    vertex -0.008516 0.051500 -0.018097
    vertex -0.013677 0.062500 -0.026208
  endloop
endfacet
facet normal -0.000030 -0.000048 -0.000047
  outer loop
    vertex -0.013677 0.062500 -0.026208
    vertex -0.008516 0.051500 -0.018097
    vertex -0.012748 0.051500 -0.015410
  endloop
endfacet
facet normal -0.000035 -0.000056 -0.000054
  outer loop
    vertex -0.013677 0.062500 -0.026208
    vertex -0.012748 0.051500 -0.015410
    vertex -0.018568 0.062500 -0.023003
  endloop
endfacet
facet normal -0.000045 -0.000056 -0.000046
  outer loop
    vertex -0.018568 0.062500 -0.023003
    vertex -0.012748 0.051500 -0.015410
    vertex -0.022733 0.062500 -0.018898
  endloop
endfacet
facet normal -0.000040 -0.000048 -0.000038
  outer loop
    vertex -0.022733 0.062500 -0.018898
    vertex -0.012748 0.051500 -0.015410
    vertex -0.016180 0.051500 -0.011756
  endloop
endfacet
facet normal -0.000053 -0.000055 -0.000036
  outer loop
    vertex -0.022733 0.062500 -0.018898
    vertex -0.016180 0.051500 -0.011756
    vertex -0.026008 0.062500 -0.014053
  endloop
endfacet
facet normal -0.000048 -0.000049 -0.000027
  outer loop
    vertex -0.026008 0.062500 -0.014053
    vertex -0.016180 0.051500 -0.011756
    vertex -0.018596 0.051500 -0.007362
  endloop
endfacet
facet normal -0.000059 -0.000055 -0.000025
  outer loop
    vertex -0.026008 0.062500 -0.014053
    vertex -0.018596 0.051500 -0.007362
    vertex -0.028266 0.062500 -0.008658
  endloop
endfacet
facet normal -0.000053 -0.000049 -0.000014
  outer loop
    vertex -0.028266 0.062500 -0.008658
    vertex -0.018596 0.051500 -0.007362
    vertex -0.019842 0.051500 -0.002507
  endloop
endfacet
facet normal -0.000063 -0.000055 -0.000013
  outer loop
    vertex -0.028266 0.062500 -0.008658
    vertex -0.019842 0.051500 -0.002507
    vertex -0.029417 0.062500 -0.002924
  endloop
endfacet
facet normal -0.000055 -0.000048 0.000000
  outer loop
    vertex -0.029417 0.062500 -0.002924
    vertex -0.019842 0.051500 -0.002507
    vertex -0.019842 0.051500 0.002507
  endloop
endfacet
facet normal -0.000064 -0.000056 0.000000
  outer loop
    vertex -0.029417 0.062500 -0.002924
    vertex -0.019842 0.051500 0.002507
    vertex -0.029417 0.062500 0.002924
  endloop
endfacet
facet normal -0.000063 -0.000055 0.000013
  outer loop
    vertex -0.029417 0.062500 0.002924
    vertex -0.019842 0.051500 0.002507
    vertex -0.028266 0.062500 0.008658
  endloop
endfacet
facet normal -0.000053 -0.000049 0.000014
  outer loop
    vertex -0.028266 0.062500 0.008658
    vertex -0.019842 0.051500 0.002507
    vertex -0.018596 0.051500 0.007362
  endloop
endfacet
facet normal -0.000059 -0.000055 0.000025
  outer loop
    vertex -0.028266 0.062500 0.008658
    vertex -0.018596 0.051500 0.007362
    vertex -0.026008 0.062500 0.014053
  endloop
endfacet
facet normal -0.000048 -0.000049 0.000027
  outer loop
    vertex -0.026008 0.062500 0.014053
    vertex -0.018596 0.051500 0.007362
    vertex -0.016180 0.051500 0.011756
  endloop
endfacet
facet normal -0.000053 -0.000055 0.000036
  outer loop
    vertex -0.026008 0.062500 0.014053
    vertex -0.016180 0.051500 0.011756
    vertex -0.022733 0.062500 0.018898
  endloop
endfacet
facet normal -0.000040 -0.000048 0.000038
  outer loop
    vertex -0.022733 0.062500 0.018898
    vertex -0.016180 0.051500 0.011756
    vertex -0.012748 0.051500 0.015410
  endloop
endfacet
facet normal -0.000045 -0.000056 0.000046
  outer loop
    vertex -0.022733 0.062500 0.018898
    vertex -0.012748 0.051500 0.015410
    vertex -0.018568 0.062500 0.023003
  endloop
endfacet
facet normal -0.000035 -0.000056 0.000054
  outer loop
    vertex -0.018568 0.062500 0.023003
    vertex -0.012748 0.051500 0.015410
    vertex -0.013677 0.062500 0.026208
  endloop
endfacet
facet normal -0.000030 -0.000048 0.000047
  outer loop
    vertex -0.013677 0.062500 0.026208
    vertex -0.012748 0.051500 0.015410
    vertex -0.008516 0.051500 0.018097
  endloop
endfacet
facet normal -0.000024 -0.000055 0.000060
  outer loop
    vertex -0.013677 0.062500 0.026208
    vertex -0.008516 0.051500 0.018097
    vertex -0.008250 0.062500 0.028388
  endloop
endfacet
facet normal -0.000017 -0.000049 0.000052
  outer loop
    vertex -0.008250 0.062500 0.028388
    vertex -0.008516 0.051500 0.018097
    vertex -0.003748 0.051500 0.019646
  endloop
endfacet
facet normal -0.000012 -0.000055 0.000063
  outer loop
    vertex -0.008250 0.062500 0.028388
    vertex -0.003748 0.051500 0.019646
    vertex -0.002500 0.062500 0.029456
  endloop
endfacet
facet normal -0.000002 -0.000011 0.000012
  outer loop
    vertex -0.002500 0.062500 0.029456
    vertex -0.003748 0.051500 0.019646
    vertex -0.002500 0.052500 0.020719
  endloop
endfacet
facet normal -0.000000 0.000000 0.000000
  outer loop
    vertex -0.002500 0.062500 0.029456
    vertex -0.002500 0.052500 0.020719
    vertex -0.002500 0.057061 0.024708
  endloop
endfacet
facet normal -0.000000 -0.000002 0.000002
  outer loop
    vertex -0.002500 0.052500 0.020719
    vertex -0.003748 0.051500 0.019646
    vertex -0.000835 0.052500 0.020853
  endloop
endfacet
facet normal -0.000000 -0.000005 0.000005
  outer loop
    vertex -0.000835 0.052500 0.020853
    vertex -0.003748 0.051500 0.019646
    vertex 0.001256 0.051500 0.019961
  endloop
endfacet
facet normal 0.000000 -0.000001 0.000002
  outer loop
    vertex -0.000835 0.052500 0.020853
    vertex 0.001256 0.051500 0.019961
    vertex 0.000835 0.052500 0.020853
  endloop
endfacet
facet normal 0.000000 -0.000001 0.000002
  outer loop
    vertex 0.000835 0.052500 0.020853
    vertex 0.001256 0.051500 0.019961
    vertex 0.002500 0.052500 0.020719
  endloop
endfacet
facet normal 0.000001 -0.000005 0.000005
  outer loop
    vertex 0.002500 0.052500 0.020719
    vertex 0.001256 0.051500 0.019961
    vertex 0.006180 0.051500 0.019021
  endloop
endfacet
facet normal 0.000009 -0.000038 0.000043
  outer loop
    vertex 0.002500 0.052500 0.020719
    vertex 0.006180 0.051500 0.019021
    vertex 0.008250 0.062500 0.028388
  endloop
endfacet
facet normal 0.000024 -0.000055 0.000060
  outer loop
    vertex 0.008250 0.062500 0.028388
    vertex 0.006180 0.051500 0.019021
    vertex 0.013677 0.062500 0.026208
  endloop
endfacet
facet normal 0.000023 -0.000049 0.000050
  outer loop
    vertex 0.013677 0.062500 0.026208
    vertex 0.006180 0.051500 0.019021
    vertex 0.010717 0.051500 0.016887
  endloop
endfacet
facet normal 0.000035 -0.000055 0.000054
  outer loop
    vertex 0.013677 0.062500 0.026208
    vertex 0.010717 0.051500 0.016887
    vertex 0.018568 0.062500 0.023003
  endloop
endfacet
facet normal 0.000035 -0.000049 0.000042
  outer loop
    vertex 0.018568 0.062500 0.023003
    vertex 0.010717 0.051500 0.016887
    vertex 0.014579 0.051500 0.013691
  endloop
endfacet
facet normal 0.000045 -0.000055 0.000046
  outer loop
    vertex 0.018568 0.062500 0.023003
    vertex 0.014579 0.051500 0.013691
    vertex 0.022733 0.062500 0.018898
  endloop
endfacet
facet normal 0.000045 -0.000048 0.000032
  outer loop
    vertex 0.022733 0.062500 0.018898
    vertex 0.014579 0.051500 0.013691
    vertex 0.017526 0.051500 0.009635
  endloop
endfacet
facet normal 0.000000 -0.000000 0.000000
  outer loop
    vertex 0.002500 0.059656 0.026974
    vertex 0.002500 0.057061 0.024708
    vertex 0.002500 0.062500 0.029456
  endloop
endfacet
facet normal 0.000000 0.000000 0.000000
  outer loop
    vertex 0.002500 0.062500 0.029456
    vertex 0.002500 0.057061 0.024708
    vertex 0.002500 0.052500 0.020719
  endloop
endfacet
facet normal 0.000011 -0.000050 0.000057
  outer loop
    vertex 0.002500 0.062500 0.029456
    vertex 0.002500 0.052500 0.020719
    vertex 0.008250 0.062500 0.028388
  endloop
endfacet
facet normal -0.000000 0.000000 0.000000
  outer loop
    vertex -0.002500 0.057061 0.024708
    vertex -0.002500 0.059656 0.026974
    vertex -0.002500 0.062500 0.029456
  endloop
endfacet
facet normal 0.000000 0.000339 0.000000
  outer loop
    vertex -0.002500 0.062500 0.029456
    vertex -0.002500 0.062500 -0.029456
    vertex -0.008250 0.062500 0.028388
  endloop
endfacet
facet normal 0.000000 0.000326 0.000000
  outer loop
    vertex -0.008250 0.062500 0.028388
    vertex -0.002500 0.062500 -0.029456
    vertex -0.008250 0.062500 -0.028388
  endloop
endfacet
facet normal 0.000000 0.000308 0.000000
  outer loop
    vertex -0.008250 0.062500 0.028388
    vertex -0.008250 0.062500 -0.028388
    vertex -0.013677 0.062500 0.026208
  endloop
endfacet
facet normal 0.000000 0.000284 0.000000
  outer loop
    vertex -0.013677 0.062500 0.026208
    vertex -0.008250 0.062500 -0.028388
    vertex -0.013677 0.062500 -0.026208
  endloop
endfacet
facet normal 0.000000 0.000256 0.000000
  outer loop
    vertex -0.013677 0.062500 0.026208
    vertex -0.013677 0.062500 -0.026208
    vertex -0.018568 0.062500 0.023003
  endloop
endfacet
facet normal 0.000000 0.000225 0.000000
  outer loop
    vertex -0.018568 0.062500 0.023003
    vertex -0.013677 0.062500 -0.026208
    vertex -0.018568 0.062500 -0.023003
  endloop
endfacet
facet normal 0.000000 0.000192 0.000000
  outer loop
    vertex -0.018568 0.062500 0.023003
    vertex -0.018568 0.062500 -0.023003
    vertex -0.022733 0.062500 0.018898
  endloop
endfacet
facet normal 0.000000 0.000157 0.000000
  outer loop
    vertex -0.022733 0.062500 0.018898
    vertex -0.018568 0.062500 -0.023003
    vertex -0.022733 0.062500 -0.018898
  endloop
endfacet
facet normal 0.000000 0.000124 0.000000
  outer loop
    vertex -0.022733 0.062500 0.018898
    vertex -0.022733 0.062500 -0.018898
    vertex -0.026008 0.062500 0.014053
  endloop
endfacet
facet normal 0.000000 0.000092 0.000000
  outer loop
    vertex -0.026008 0.062500 0.014053
    vertex -0.022733 0.062500 -0.018898
    vertex -0.026008 0.062500 -0.014053
  endloop
endfacet
facet normal 0.000000 0.000063 0.000000
  outer loop
    vertex -0.026008 0.062500 0.014053
    vertex -0.026008 0.062500 -0.014053
    vertex -0.028266 0.062500 0.008658
  endloop
endfacet
facet normal 0.000000 0.000039 0.000000
  outer loop
    vertex -0.028266 0.062500 0.008658
    vertex -0.026008 0.062500 -0.014053
    vertex -0.028266 0.062500 -0.008658
  endloop
endfacet
facet normal 0.000000 0.000020 0.000000
  outer loop
    vertex -0.028266 0.062500 0.008658
    vertex -0.028266 0.062500 -0.008658
    vertex -0.029417 0.062500 0.002924
  endloop
endfacet
facet normal 0.000000 0.000007 0.000000
  outer loop
    vertex -0.029417 0.062500 0.002924
    vertex -0.028266 0.062500 -0.008658
    vertex -0.029417 0.062500 -0.002924
  endloop
endfacet
facet normal 0.000000 -0.000006 0.000000
  outer loop
    vertex 0.020000 0.000000 0.000000
    vertex 0.019372 0.000000 0.004974
    vertex 0.019372 0.000000 -0.004974
  endloop
endfacet
facet normal -0.000000 -0.000018 0.000000
  outer loop
    vertex 0.019372 0.000000 -0.004974
    vertex 0.019372 0.000000 0.004974
    vertex 0.017526 0.000000 -0.009635
  endloop
endfacet
facet normal 0.000000 -0.000036 0.000000
  outer loop
    vertex 0.017526 0.000000 -0.009635
    vertex 0.019372 0.000000 0.004974
    vertex 0.017526 0.000000 0.009635
  endloop
endfacet
facet normal -0.000000 -0.000057 0.000000
  outer loop
    vertex 0.017526 0.000000 -0.009635
    vertex 0.017526 0.000000 0.009635
    vertex 0.014579 0.000000 -0.013691
  endloop
endfacet
facet normal 0.000000 -0.000081 0.000000
  outer loop
    vertex 0.014579 0.000000 -0.013691
    vertex 0.017526 0.000000 0.009635
    vertex 0.014579 0.000000 0.013691
  endloop
endfacet
facet normal -0.000000 -0.000106 0.000000
  outer loop
    vertex 0.014579 0.000000 -0.013691
    vertex 0.014579 0.000000 0.013691
    vertex 0.010717 0.000000 -0.016887
  endloop
endfacet
facet normal 0.000000 -0.000130 0.000000
  outer loop
    vertex 0.010717 0.000000 -0.016887
    vertex 0.014579 0.000000 0.013691
    vertex 0.010717 0.000000 0.016887
  endloop
endfacet
facet normal -0.000000 -0.000153 0.000000
  outer loop
    vertex 0.010717 0.000000 -0.016887
    vertex 0.010717 0.000000 0.016887
    vertex 0.006180 0.000000 -0.019021
  endloop
endfacet
facet normal 0.000000 -0.000173 0.000000
  outer loop
    vertex 0.006180 0.000000 -0.019021
    vertex 0.010717 0.000000 0.016887
    vertex 0.006180 0.000000 0.019021
  endloop
endfacet
facet normal -0.000000 -0.000187 0.000000
  outer loop
    vertex 0.006180 0.000000 -0.019021
    vertex 0.006180 0.000000 0.019021
    vertex 0.001256 0.000000 -0.019961
  endloop
endfacet
facet normal 0.000000 -0.000197 0.000000
  outer loop
    vertex 0.001256 0.000000 -0.019961
    vertex 0.006180 0.000000 0.019021
    vertex 0.001256 0.000000 0.019961
  endloop
endfacet
facet normal 0.000000 -0.000200 0.000000
  outer loop
    vertex 0.001256 0.000000 -0.019961
    vertex 0.001256 0.000000 0.019961
    vertex -0.003748 0.000000 -0.019646
  endloop
endfacet
facet normal 0.000000 -0.000197 0.000000
  outer loop
    vertex -0.003748 0.000000 -0.019646
    vertex 0.001256 0.000000 0.019961
    vertex -0.003748 0.000000 0.019646
  endloop
endfacet
facet normal 0.000000 -0.000187 0.000000
  outer loop
    vertex -0.003748 0.000000 -0.019646
    vertex -0.003748 0.000000 0.019646
    vertex -0.008516 0.000000 -0.018097
  endloop
endfacet
facet normal 0.000000 -0.000173 0.000000
  outer loop
    vertex -0.008516 0.000000 -0.018097
    vertex -0.003748 0.000000 0.019646
    vertex -0.008516 0.000000 0.018097
  endloop
endfacet
facet normal 0.000000 -0.000153 0.000000
  outer loop
    vertex -0.008516 0.000000 -0.018097
    vertex -0.008516 0.000000 0.018097
    vertex -0.012748 0.000000 -0.015410
  endloop
endfacet
facet normal 0.000000 -0.000130 0.000000
  outer loop
    vertex -0.012748 0.000000 -0.015410
    vertex -0.008516 0.000000 0.018097
    vertex -0.012748 0.000000 0.015410
  endloop
endfacet
facet normal 0.000000 -0.000106 0.000000
  outer loop
    vertex -0.012748 0.000000 -0.015410
    vertex -0.012748 0.000000 0.015410
    vertex -0.016180 0.000000 -0.011756
  endloop
endfacet
facet normal 0.000000 -0.000081 0.000000
  outer loop
    vertex -0.016180 0.000000 -0.011756
    vertex -0.012748 0.000000 0.015410
    vertex -0.016180 0.000000 0.011756
  endloop
endfacet
facet normal 0.000000 -0.000057 0.000000
  outer loop
    vertex -0.016180 0.000000 -0.011756
    vertex -0.016180 0.000000 0.011756
    vertex -0.018596 0.000000 -0.007362
  endloop
endfacet
facet normal 0.000000 -0.000036 0.000000
  outer loop
    vertex -0.018596 0.000000 -0.007362
    vertex -0.016180 0.000000 0.011756
    vertex -0.018596 0.000000 0.007362
  endloop
endfacet
facet normal 0.000000 -0.000018 0.000000
  outer loop
    vertex -0.018596 0.000000 -0.007362
    vertex -0.018596 0.000000 0.007362
    vertex -0.019842 0.000000 -0.002507
  endloop
endfacet
facet normal 0.000000 -0.000006 0.000000
  outer loop
    vertex -0.019842 0.000000 -0.002507
    vertex -0.018596 0.000000 0.007362
    vertex -0.019842 0.000000 0.002507
  endloop
endfacet
facet normal 0.000000 0.000339 0.000000
  outer loop
    vertex 0.002500 0.062500 -0.029456
    vertex 0.002500 0.062500 0.029456
    vertex 0.008250 0.062500 -0.028388
  endloop
endfacet
facet normal 0.000000 0.000326 -0.000000
  outer loop
    vertex 0.008250 0.062500 -0.028388
    vertex 0.002500 0.062500 0.029456
    vertex 0.008250 0.062500 0.028388
  endloop
endfacet
facet normal 0.000000 0.000308 0.000000
  outer loop
    vertex 0.008250 0.062500 -0.028388
    vertex 0.008250 0.062500 0.028388
    vertex 0.013677 0.062500 -0.026208
  endloop
endfacet
facet normal 0.000000 0.000284 -0.000000
  outer loop
    vertex 0.013677 0.062500 -0.026208
    vertex 0.008250 0.062500 0.028388
    vertex 0.013677 0.062500 0.026208
  endloop
endfacet
facet normal 0.000000 0.000256 0.000000
  outer loop
    vertex 0.013677 0.062500 -0.026208
    vertex 0.013677 0.062500 0.026208
    vertex 0.018568 0.062500 -0.023003
  endloop
endfacet
facet normal 0.000000 0.000225 -0.000000
  outer loop
    vertex 0.018568 0.062500 -0.023003
    vertex 0.013677 0.062500 0.026208
    vertex 0.018568 0.062500 0.023003
  endloop
endfacet
facet normal 0.000000 0.000192 0.000000
  outer loop
    vertex 0.018568 0.062500 -0.023003
    vertex 0.018568 0.062500 0.023003
    vertex 0.022733 0.062500 -0.018898
  endloop
endfacet
facet normal 0.000000 0.000157 -0.000000
  outer loop
    vertex 0.022733 0.062500 -0.018898
    vertex 0.018568 0.062500 0.023003
    vertex 0.022733 0.062500 0.018898
  endloop
endfacet
facet normal 0.000000 0.000124 0.000000
  outer loop
    vertex 0.022733 0.062500 -0.018898
    vertex 0.022733 0.062500 0.018898
    vertex 0.026008 0.062500 -0.014053
  endloop
endfacet
facet normal 0.000000 0.000092 -0.000000
  outer loop
    vertex 0.026008 0.062500 -0.014053
    vertex 0.022733 0.062500 0.018898
    vertex 0.026008 0.062500 0.014053
  endloop
endfacet
facet normal 0.000000 0.000063 0.000000
  outer loop
    vertex 0.026008 0.062500 -0.014053
    vertex 0.026008 0.062500 0.014053
    vertex 0.028266 0.062500 -0.008658
  endloop
endfacet
facet normal 0.000000 0.000039 -0.000000
  outer loop
    vertex 0.028266 0.062500 -0.008658
    vertex 0.026008 0.062500 0.014053
    vertex 0.028266 0.062500 0.008658
  endloop
endfacet
facet normal 0.000000 0.000020 0.000000
  outer loop
    vertex 0.028266 0.062500 -0.008658
    vertex 0.028266 0.062500 0.008658
    vertex 0.029417 0.062500 -0.002924
  endloop
endfacet
facet normal 0.000000 0.000007 -0.000000
  outer loop
    vertex 0.029417 0.062500 -0.002924
    vertex 0.028266 0.062500 0.008658
    vertex 0.029417 0.062500 0.002924
  endloop
endfacet
facet normal 0.000256 0.000000 0.000032
  outer loop
    vertex 0.019372 0.051500 0.004974
    vertex 0.020000 0.000000 0.000000
    vertex 0.020000 0.051500 0.000000
  endloop
endfacet
facet normal 0.000256 0.000000 -0.000032
  outer loop
    vertex 0.020000 0.051500 0.000000
    vertex 0.020000 0.000000 0.000000
    vertex 0.019372 0.000000 -0.004974
  endloop
endfacet
facet normal 0.000256 0.000000 -0.000032
  outer loop
    vertex 0.020000 0.051500 0.000000
    vertex 0.019372 0.000000 -0.004974
    vertex 0.019372 0.051500 -0.004974
  endloop
endfacet
facet normal 0.000240 0.000000 -0.000095
  outer loop
    vertex 0.019372 0.051500 -0.004974
    vertex 0.019372 0.000000 -0.004974
    vertex 0.017526 0.000000 -0.009635
  endloop
endfacet
facet normal 0.000240 0.000000 -0.000095
  outer loop
    vertex 0.019372 0.051500 -0.004974
    vertex 0.017526 0.000000 -0.009635
    vertex 0.017526 0.051500 -0.009635
  endloop
endfacet
facet normal 0.000209 0.000000 -0.000152
  outer loop
    vertex 0.017526 0.051500 -0.009635
    vertex 0.017526 0.000000 -0.009635
    vertex 0.014579 0.000000 -0.013691
  endloop
endfacet
facet normal 0.000209 0.000000 -0.000152
  outer loop
    vertex 0.017526 0.051500 -0.009635
    vertex 0.014579 0.000000 -0.013691
    vertex 0.014579 0.051500 -0.013691
  endloop
endfacet
facet normal 0.000165 0.000000 -0.000199
  outer loop
    vertex 0.014579 0.051500 -0.013691
    vertex 0.014579 0.000000 -0.013691
    vertex 0.010717 0.000000 -0.016887
  endloop
endfacet
facet normal 0.000165 0.000000 -0.000199
  outer loop
    vertex 0.014579 0.051500 -0.013691
    vertex 0.010717 0.000000 -0.016887
    vertex 0.010717 0.051500 -0.016887
  endloop
endfacet
facet normal 0.000110 0.000000 -0.000234
  outer loop
    vertex 0.010717 0.051500 -0.016887
    vertex 0.010717 0.000000 -0.016887
    vertex 0.006180 0.000000 -0.019021
  endloop
endfacet
facet normal 0.000110 0.000000 -0.000234
  outer loop
    vertex 0.010717 0.051500 -0.016887
    vertex 0.006180 0.000000 -0.019021
    vertex 0.006180 0.051500 -0.019021
  endloop
endfacet
facet normal 0.000048 0.000000 -0.000254
  outer loop
    vertex 0.006180 0.051500 -0.019021
    vertex 0.006180 0.000000 -0.019021
    vertex 0.001256 0.000000 -0.019961
  endloop
endfacet
facet normal 0.000048 0.000000 -0.000254
  outer loop
    vertex 0.006180 0.051500 -0.019021
    vertex 0.001256 0.000000 -0.019961
    vertex 0.001256 0.051500 -0.019961
  endloop
endfacet
facet normal -0.000016 -0.000000 -0.000258
  outer loop
    vertex 0.001256 0.051500 -0.019961
    vertex 0.001256 0.000000 -0.019961
    vertex -0.003748 0.000000 -0.019646
  endloop
endfacet
facet normal -0.000016 0.000000 -0.000258
  outer loop
    vertex 0.001256 0.051500 -0.019961
    vertex -0.003748 0.000000 -0.019646
    vertex -0.003748 0.051500 -0.019646
  endloop
endfacet
facet normal -0.000080 -0.000000 -0.000246
  outer loop
    vertex -0.003748 0.051500 -0.019646
    vertex -0.003748 0.000000 -0.019646
    vertex -0.008516 0.000000 -0.018097
  endloop
endfacet
facet normal -0.000080 0.000000 -0.000246
  outer loop
    vertex -0.003748 0.051500 -0.019646
    vertex -0.008516 0.000000 -0.018097
    vertex -0.008516 0.051500 -0.018097
  endloop
endfacet
facet normal -0.000138 -0.000000 -0.000218
  outer loop
    vertex -0.008516 0.051500 -0.018097
    vertex -0.008516 0.000000 -0.018097
    vertex -0.012748 0.000000 -0.015410
  endloop
endfacet
facet normal -0.000138 0.000000 -0.000218
  outer loop
    vertex -0.008516 0.051500 -0.018097
    vertex -0.012748 0.000000 -0.015410
    vertex -0.012748 0.051500 -0.015410
  endloop
endfacet
facet normal -0.000188 -0.000000 -0.000177
  outer loop
    vertex -0.012748 0.051500 -0.015410
    vertex -0.012748 0.000000 -0.015410
    vertex -0.016180 0.000000 -0.011756
  endloop
endfacet
facet normal -0.000188 0.000000 -0.000177
  outer loop
    vertex -0.012748 0.051500 -0.015410
    vertex -0.016180 0.000000 -0.011756
    vertex -0.016180 0.051500 -0.011756
  endloop
endfacet
facet normal -0.000226 -0.000000 -0.000124
  outer loop
    vertex -0.016180 0.051500 -0.011756
    vertex -0.016180 0.000000 -0.011756
    vertex -0.018596 0.000000 -0.007362
  endloop
endfacet
facet normal -0.000226 0.000000 -0.000124
  outer loop
    vertex -0.016180 0.051500 -0.011756
    vertex -0.018596 0.000000 -0.007362
    vertex -0.018596 0.051500 -0.007362
  endloop
endfacet
facet normal -0.000250 -0.000000 -0.000064
  outer loop
    vertex -0.018596 0.051500 -0.007362
    vertex -0.018596 0.000000 -0.007362
    vertex -0.019842 0.000000 -0.002507
  endloop
endfacet
facet normal -0.000250 0.000000 -0.000064
  outer loop
    vertex -0.018596 0.051500 -0.007362
    vertex -0.019842 0.000000 -0.002507
    vertex -0.019842 0.051500 -0.002507
  endloop
endfacet
facet normal -0.000258 0.000000 0.000000
  outer loop
    vertex -0.019842 0.051500 -0.002507
    vertex -0.019842 0.000000 -0.002507
    vertex -0.019842 0.000000 0.002507
  endloop
endfacet
facet normal -0.000258 0.000000 0.000000
  outer loop
    vertex -0.019842 0.051500 -0.002507
    vertex -0.019842 0.000000 0.002507
    vertex -0.019842 0.051500 0.002507
  endloop
endfacet
facet normal -0.000250 0.000000 0.000064
  outer loop
    vertex -0.019842 0.051500 0.002507
    vertex -0.019842 0.000000 0.002507
    vertex -0.018596 0.000000 0.007362
  endloop
endfacet
facet normal -0.000250 0.000000 0.000064
  outer loop
    vertex -0.019842 0.051500 0.002507
    vertex -0.018596 0.000000 0.007362
    vertex -0.018596 0.051500 0.007362
  endloop
endfacet
facet normal -0.000226 0.000000 0.000124
  outer loop
    vertex -0.018596 0.051500 0.007362
    vertex -0.018596 0.000000 0.007362
    vertex -0.016180 0.000000 0.011756
  endloop
endfacet
facet normal -0.000226 0.000000 0.000124
  outer loop
    vertex -0.018596 0.051500 0.007362
    vertex -0.016180 0.000000 0.011756
    vertex -0.016180 0.051500 0.011756
  endloop
endfacet
facet normal -0.000188 0.000000 0.000177
  outer loop
    vertex -0.016180 0.051500 0.011756
    vertex -0.016180 0.000000 0.011756
    vertex -0.012748 0.000000 0.015410
  endloop
endfacet
facet normal -0.000188 0.000000 0.000177
  outer loop
    vertex -0.016180 0.051500 0.011756
    vertex -0.012748 0.000000 0.015410
    vertex -0.012748 0.051500 0.015410
  endloop
endfacet
facet normal -0.000138 0.000000 0.000218
  outer loop
    vertex -0.012748 0.051500 0.015410
    vertex -0.012748 0.000000 0.015410
    vertex -0.008516 0.000000 0.018097
  endloop
endfacet
facet normal -0.000138 0.000000 0.000218
  outer loop
    vertex -0.012748 0.051500 0.015410
    vertex -0.008516 0.000000 0.018097
    vertex -0.008516 0.051500 0.018097
  endloop
endfacet
facet normal -0.000080 0.000000 0.000246
  outer loop
    vertex -0.008516 0.051500 0.018097
    vertex -0.008516 0.000000 0.018097
    vertex -0.003748 0.000000 0.019646
  endloop
endfacet
facet normal -0.000080 0.000000 0.000246
  outer loop
    vertex -0.008516 0.051500 0.018097
    vertex -0.003748 0.000000 0.019646
    vertex -0.003748 0.051500 0.019646
  endloop
endfacet
facet normal -0.000016 0.000000 0.000258
  outer loop
    vertex -0.003748 0.051500 0.019646
    vertex -0.003748 0.000000 0.019646
    vertex 0.001256 0.000000 0.019961
  endloop
endfacet
facet normal -0.000016 0.000000 0.000258
  outer loop
    vertex -0.003748 0.051500 0.019646
    vertex 0.001256 0.000000 0.019961
    vertex 0.001256 0.051500 0.019961
  endloop
endfacet
facet normal 0.000048 0.000000 0.000254
  outer loop
    vertex 0.001256 0.051500 0.019961
    vertex 0.001256 0.000000 0.019961
    vertex 0.006180 0.000000 0.019021
  endloop
endfacet
facet normal 0.000048 0.000000 0.000254
  outer loop
    vertex 0.001256 0.051500 0.019961
    vertex 0.006180 0.000000 0.019021
    vertex 0.006180 0.051500 0.019021
  endloop
endfacet
facet normal 0.000110 0.000000 0.000234
  outer loop
    vertex 0.006180 0.051500 0.019021
    vertex 0.006180 0.000000 0.019021
    vertex 0.010717 0.000000 0.016887
  endloop
endfacet
facet normal 0.000110 0.000000 0.000234
  outer loop
    vertex 0.006180 0.051500 0.019021
    vertex 0.010717 0.000000 0.016887
    vertex 0.010717 0.051500 0.016887
  endloop
endfacet
facet normal 0.000165 0.000000 0.000199
  outer loop
    vertex 0.010717 0.051500 0.016887
    vertex 0.010717 0.000000 0.016887
    vertex 0.014579 0.000000 0.013691
  endloop
endfacet
facet normal 0.000165 0.000000 0.000199
  outer loop
    vertex 0.010717 0.051500 0.016887
    vertex 0.014579 0.000000 0.013691
    vertex 0.014579 0.051500 0.013691
  endloop
endfacet
facet normal 0.000209 0.000000 0.000152
  outer loop
    vertex 0.014579 0.051500 0.013691
    vertex 0.014579 0.000000 0.013691
    vertex 0.017526 0.000000 0.009635
  endloop
endfacet
facet normal 0.000209 0.000000 0.000152
  outer loop
    vertex 0.014579 0.051500 0.013691
    vertex 0.017526 0.000000 0.009635
    vertex 0.017526 0.051500 0.009635
  endloop
endfacet
facet normal 0.000240 0.000000 0.000095
  outer loop
    vertex 0.017526 0.051500 0.009635
    vertex 0.017526 0.000000 0.009635
    vertex 0.019372 0.000000 0.004974
  endloop
endfacet
facet normal 0.000240 0.000000 0.000095
  outer loop
    vertex 0.017526 0.051500 0.009635
    vertex 0.019372 0.000000 0.004974
    vertex 0.019372 0.051500 0.004974
  endloop
endfacet
facet normal 0.000256 0.000000 0.000032
  outer loop
    vertex 0.019372 0.051500 0.004974
    vertex 0.019372 0.000000 0.004974
    vertex 0.020000 0.000000 0.000000
  endloop
endfacet
endsolid 2b2fe092-cdd8-494f-9e39-9b41462e9e2e-ascii.stl
