solid 41e9f57f-2d7d-41bd-9241-fb74fbd1e8c4-ascii.stl
facet normal -0.001262 0.000000 0.000000
  outer loop
    vertex 0.013250 0.134500 -0.105169
    vertex 0.013250 0.134500 0.105169
    vertex 0.013250 0.140500 -0.105169
  endloop
endfacet
facet normal -0.001262 0.000000 0.000000
  outer loop
    vertex 0.013250 0.140500 -0.105169
    vertex 0.013250 0.134500 0.105169
    vertex 0.013250 0.140500 0.105169
  endloop
endfacet
facet normal -0.002178 0.000000 0.000000
  outer loop
    vertex 0.013250 0.140500 -0.105169
    vertex 0.013250 0.140500 0.105169
    vertex 0.013250 0.150857 -0.114237
  endloop
endfacet
facet normal -0.002366 0.000000 0.000000
  outer loop
    vertex 0.013250 0.150857 -0.114237
    vertex 0.013250 0.140500 0.105169
    vertex 0.013250 0.150857 0.114237
  endloop
endfacet
facet normal -0.002561 0.000000 0.000000
  outer loop
    vertex 0.013250 0.150857 -0.114237
    vertex 0.013250 0.150857 0.114237
    vertex 0.013250 0.162067 -0.124042
  endloop
endfacet
facet normal -0.002781 0.000000 0.000000
  outer loop
    vertex 0.013250 0.162067 -0.124042
    vertex 0.013250 0.150857 0.114237
    vertex 0.013250 0.162067 0.124042
  endloop
endfacet
facet normal -0.001478 0.000000 0.000000
  outer loop
    vertex 0.013250 0.162067 -0.124042
    vertex 0.013250 0.162067 0.124042
    vertex 0.013250 0.168025 -0.129250
  endloop
endfacet
facet normal -0.001540 0.000000 0.000000
  outer loop
    vertex 0.013250 0.168025 -0.129250
    vertex 0.013250 0.162067 0.124042
    vertex 0.013250 0.168025 0.129250
  endloop
endfacet
facet normal -0.001606 0.000000 0.000000
  outer loop
    vertex 0.013250 0.168025 -0.129250
    vertex 0.013250 0.168025 0.129250
    vertex 0.013250 0.174239 -0.134678
  endloop
endfacet
facet normal -0.001674 0.000000 0.000000
  outer loop
    vertex 0.013250 0.174239 -0.134678
    vertex 0.013250 0.168025 0.129250
    vertex 0.013250 0.174239 0.134678
  endloop
endfacet
facet normal -0.001747 0.000000 0.000000
  outer loop
    vertex 0.013250 0.174239 -0.134678
    vertex 0.013250 0.174239 0.134678
    vertex 0.013250 0.180724 -0.140342
  endloop
endfacet
facet normal -0.001820 0.000000 0.000000
  outer loop
    vertex 0.013250 0.180724 -0.140342
    vertex 0.013250 0.174239 0.134678
    vertex 0.013250 0.180724 0.140342
  endloop
endfacet
facet normal -0.001902 0.000000 0.000000
  outer loop
    vertex 0.013250 0.180724 -0.140342
    vertex 0.013250 0.180724 0.140342
    vertex 0.013250 0.187500 -0.146258
  endloop
endfacet
facet normal -0.001982 0.000000 0.000000
  outer loop
    vertex 0.013250 0.187500 -0.146258
    vertex 0.013250 0.180724 0.140342
    vertex 0.013250 0.187500 0.146258
  endloop
endfacet
facet normal 0.001262 -0.000000 0.000000
  outer loop
    vertex -0.013250 0.134500 0.105169
    vertex -0.013250 0.134500 -0.105169
    vertex -0.013250 0.140500 0.105169
  endloop
endfacet
facet normal 0.001262 0.000000 0.000000
  outer loop
    vertex -0.013250 0.140500 0.105169
    vertex -0.013250 0.134500 -0.105169
    vertex -0.013250 0.140500 -0.105169
  endloop
endfacet
facet normal 0.002178 -0.000000 0.000000
  outer loop
    vertex -0.013250 0.140500 0.105169
    vertex -0.013250 0.140500 -0.105169
    vertex -0.013250 0.150857 0.114237
  endloop
endfacet
facet normal 0.002366 0.000000 0.000000
  outer loop
    vertex -0.013250 0.150857 0.114237
    vertex -0.013250 0.140500 -0.105169
    vertex -0.013250 0.150857 -0.114237
  endloop
endfacet
facet normal 0.002561 -0.000000 0.000000
  outer loop
    vertex -0.013250 0.150857 0.114237
    vertex -0.013250 0.150857 -0.114237
    vertex -0.013250 0.162067 0.124042
  endloop
endfacet
facet normal 0.002781 0.000000 0.000000
  outer loop
    vertex -0.013250 0.162067 0.124042
    vertex -0.013250 0.150857 -0.114237
    vertex -0.013250 0.162067 -0.124042
  endloop
endfacet
facet normal 0.001478 -0.000000 0.000000
  outer loop
    vertex -0.013250 0.162067 0.124042
    vertex -0.013250 0.162067 -0.124042
    vertex -0.013250 0.168025 0.129250
  endloop
endfacet
facet normal 0.001540 0.000000 0.000000
  outer loop
    vertex -0.013250 0.168025 0.129250
    vertex -0.013250 0.162067 -0.124042
    vertex -0.013250 0.168025 -0.129250
  endloop
endfacet
facet normal 0.001606 -0.000000 0.000000
  outer loop
    vertex -0.013250 0.168025 0.129250
    vertex -0.013250 0.168025 -0.129250
    vertex -0.013250 0.174239 0.134678
  endloop
endfacet
facet normal 0.001674 0.000000 0.000000
  outer loop
    vertex -0.013250 0.174239 0.134678
    vertex -0.013250 0.168025 -0.129250
    vertex -0.013250 0.174239 -0.134678
  endloop
endfacet
facet normal 0.001747 -0.000000 0.000000
  outer loop
    vertex -0.013250 0.174239 0.134678
    vertex -0.013250 0.174239 -0.134678
    vertex -0.013250 0.180724 0.140342
  endloop
endfacet
facet normal 0.001820 0.000000 0.000000
  outer loop
    vertex -0.013250 0.180724 0.140342
    vertex -0.013250 0.174239 -0.134678
    vertex -0.013250 0.180724 -0.140342
  endloop
endfacet
facet normal 0.001902 -0.000000 0.000000
  outer loop
    vertex -0.013250 0.180724 0.140342
    vertex -0.013250 0.180724 -0.140342
    vertex -0.013250 0.187500 0.146258
  endloop
endfacet
facet normal 0.001982 0.000000 0.000000
  outer loop
    vertex -0.013250 0.187500 0.146258
    vertex -0.013250 0.180724 -0.140342
    vertex -0.013250 0.187500 -0.146258
  endloop
endfacet
facet normal 0.000000 0.001856 0.000000
  outer loop
    vertex 0.013250 0.134500 0.105169
    vertex 0.013250 0.134500 -0.105169
    vertex 0.004427 0.134500 0.105908
  endloop
endfacet
facet normal 0.000000 0.001869 0.000000
  outer loop
    vertex 0.004427 0.134500 0.105908
    vertex 0.013250 0.134500 -0.105169
    vertex 0.004427 0.134500 -0.105908
  endloop
endfacet
facet normal 0.000000 0.001875 0.000000
  outer loop
    vertex 0.004427 0.134500 0.105908
    vertex 0.004427 0.134500 -0.105908
    vertex -0.004427 0.134500 0.105908
  endloop
endfacet
facet normal 0.000000 0.001875 0.000000
  outer loop
    vertex -0.004427 0.134500 0.105908
    vertex 0.004427 0.134500 -0.105908
    vertex -0.004427 0.134500 -0.105908
  endloop
endfacet
facet normal 0.000000 0.001869 0.000000
  outer loop
    vertex -0.004427 0.134500 0.105908
    vertex -0.004427 0.134500 -0.105908
    vertex -0.013250 0.134500 0.105169
  endloop
endfacet
facet normal 0.000000 0.001856 0.000000
  outer loop
    vertex -0.013250 0.134500 0.105169
    vertex -0.004427 0.134500 -0.105908
    vertex -0.013250 0.134500 -0.105169
  endloop
endfacet
facet normal 0.001610 -0.000002 -0.000087
  outer loop
    vertex 0.105379 0.000000 -0.011461
    vertex 0.105848 0.140500 -0.005672
    vertex 0.106000 0.000000 0.000000
  endloop
endfacet
facet normal 0.001594 0.000002 0.000000
  outer loop
    vertex 0.106000 0.000000 0.000000
    vertex 0.105848 0.140500 -0.005672
    vertex 0.105848 0.140500 0.005672
  endloop
endfacet
facet normal 0.001610 -0.000002 0.000087
  outer loop
    vertex 0.106000 0.000000 0.000000
    vertex 0.105848 0.140500 0.005672
    vertex 0.105379 0.000000 0.011461
  endloop
endfacet
facet normal 0.001585 0.000002 0.000170
  outer loop
    vertex 0.105379 0.000000 0.011461
    vertex 0.105848 0.140500 0.005672
    vertex 0.104636 0.140500 0.016951
  endloop
endfacet
facet normal 0.001591 -0.000002 0.000261
  outer loop
    vertex 0.105379 0.000000 0.011461
    vertex 0.104636 0.140500 0.016951
    vertex 0.103522 0.000000 0.022787
  endloop
endfacet
facet normal 0.001557 0.000002 0.000339
  outer loop
    vertex 0.103522 0.000000 0.022787
    vertex 0.104636 0.140500 0.016951
    vertex 0.102225 0.140500 0.028036
  endloop
endfacet
facet normal 0.001554 -0.000002 0.000431
  outer loop
    vertex 0.103522 0.000000 0.022787
    vertex 0.102225 0.140500 0.028036
    vertex 0.100451 0.000000 0.033846
  endloop
endfacet
facet normal 0.001512 0.000002 0.000503
  outer loop
    vertex 0.100451 0.000000 0.033846
    vertex 0.102225 0.140500 0.028036
    vertex 0.098643 0.140500 0.038800
  endloop
endfacet
facet normal 0.001498 -0.000002 0.000597
  outer loop
    vertex 0.100451 0.000000 0.033846
    vertex 0.098643 0.140500 0.038800
    vertex 0.096203 0.000000 0.044508
  endloop
endfacet
facet normal 0.001450 0.000002 0.000662
  outer loop
    vertex 0.096203 0.000000 0.044508
    vertex 0.098643 0.140500 0.038800
    vertex 0.093932 0.140500 0.049120
  endloop
endfacet
facet normal 0.001425 -0.000002 0.000755
  outer loop
    vertex 0.096203 0.000000 0.044508
    vertex 0.093932 0.140500 0.049120
    vertex 0.090827 0.000000 0.054649
  endloop
endfacet
facet normal 0.001371 0.000002 0.000813
  outer loop
    vertex 0.090827 0.000000 0.054649
    vertex 0.093932 0.140500 0.049120
    vertex 0.088145 0.140500 0.058877
  endloop
endfacet
facet normal 0.001335 -0.000002 0.000905
  outer loop
    vertex 0.090827 0.000000 0.054649
    vertex 0.088145 0.140500 0.058877
    vertex 0.084386 0.000000 0.064148
  endloop
endfacet
facet normal 0.001276 0.000002 0.000955
  outer loop
    vertex 0.084386 0.000000 0.064148
    vertex 0.088145 0.140500 0.058877
    vertex 0.081348 0.140500 0.067959
  endloop
endfacet
facet normal 0.001229 -0.000002 0.001044
  outer loop
    vertex 0.084386 0.000000 0.064148
    vertex 0.081348 0.140500 0.067959
    vertex 0.076956 0.000000 0.072896
  endloop
endfacet
facet normal 0.001167 0.000002 0.001086
  outer loop
    vertex 0.076956 0.000000 0.072896
    vertex 0.081348 0.140500 0.067959
    vertex 0.073620 0.140500 0.076264
  endloop
endfacet
facet normal 0.001109 -0.000002 0.001171
  outer loop
    vertex 0.076956 0.000000 0.072896
    vertex 0.073620 0.140500 0.076264
    vertex 0.068623 0.000000 0.080789
  endloop
endfacet
facet normal 0.001044 0.000002 0.001204
  outer loop
    vertex 0.068623 0.000000 0.080789
    vertex 0.073620 0.140500 0.076264
    vertex 0.065048 0.140500 0.083695
  endloop
endfacet
facet normal 0.000976 -0.000002 0.001284
  outer loop
    vertex 0.068623 0.000000 0.080789
    vertex 0.065048 0.140500 0.083695
    vertex 0.059486 0.000000 0.087735
  endloop
endfacet
facet normal 0.000909 0.000002 0.001309
  outer loop
    vertex 0.059486 0.000000 0.087735
    vertex 0.065048 0.140500 0.083695
    vertex 0.055731 0.140500 0.090167
  endloop
endfacet
facet normal 0.000831 -0.000002 0.001382
  outer loop
    vertex 0.059486 0.000000 0.087735
    vertex 0.055731 0.140500 0.090167
    vertex 0.049651 0.000000 0.093652
  endloop
endfacet
facet normal 0.000764 0.000002 0.001399
  outer loop
    vertex 0.049651 0.000000 0.093652
    vertex 0.055731 0.140500 0.090167
    vertex 0.045776 0.140500 0.095606
  endloop
endfacet
facet normal 0.000677 -0.000002 0.001464
  outer loop
    vertex 0.049651 0.000000 0.093652
    vertex 0.045776 0.140500 0.095606
    vertex 0.039235 0.000000 0.098472
  endloop
endfacet
facet normal 0.000610 0.000002 0.001472
  outer loop
    vertex 0.039235 0.000000 0.098472
    vertex 0.045776 0.140500 0.095606
    vertex 0.035297 0.140500 0.099951
  endloop
endfacet
facet normal 0.000515 -0.000002 0.001528
  outer loop
    vertex 0.039235 0.000000 0.098472
    vertex 0.035297 0.140500 0.099951
    vertex 0.028358 0.000000 0.102136
  endloop
endfacet
facet normal 0.000450 0.000002 0.001529
  outer loop
    vertex 0.028358 0.000000 0.102136
    vertex 0.035297 0.140500 0.099951
    vertex 0.024413 0.140500 0.103150
  endloop
endfacet
facet normal 0.000347 -0.000002 0.001575
  outer loop
    vertex 0.028358 0.000000 0.102136
    vertex 0.024413 0.140500 0.103150
    vertex 0.017149 0.000000 0.104604
  endloop
endfacet
facet normal 0.000284 0.000002 0.001568
  outer loop
    vertex 0.017149 0.000000 0.104604
    vertex 0.024413 0.140500 0.103150
    vertex 0.013250 0.140500 0.105169
  endloop
endfacet
facet normal 0.000003 0.000000 0.000023
  outer loop
    vertex 0.017149 0.000000 0.104604
    vertex 0.013250 0.140500 0.105169
    vertex 0.013250 0.134500 0.105169
  endloop
endfacet
facet normal 0.001585 0.000002 -0.000170
  outer loop
    vertex 0.105848 0.140500 -0.005672
    vertex 0.105379 0.000000 -0.011461
    vertex 0.104636 0.140500 -0.016951
  endloop
endfacet
facet normal 0.001591 -0.000002 -0.000261
  outer loop
    vertex 0.104636 0.140500 -0.016951
    vertex 0.105379 0.000000 -0.011461
    vertex 0.103522 0.000000 -0.022787
  endloop
endfacet
facet normal 0.001557 0.000002 -0.000339
  outer loop
    vertex 0.104636 0.140500 -0.016951
    vertex 0.103522 0.000000 -0.022787
    vertex 0.102225 0.140500 -0.028036
  endloop
endfacet
facet normal 0.001554 -0.000002 -0.000431
  outer loop
    vertex 0.102225 0.140500 -0.028036
    vertex 0.103522 0.000000 -0.022787
    vertex 0.100451 0.000000 -0.033846
  endloop
endfacet
facet normal 0.001512 0.000002 -0.000503
  outer loop
    vertex 0.102225 0.140500 -0.028036
    vertex 0.100451 0.000000 -0.033846
    vertex 0.098643 0.140500 -0.038800
  endloop
endfacet
facet normal 0.001498 -0.000002 -0.000597
  outer loop
    vertex 0.098643 0.140500 -0.038800
    vertex 0.100451 0.000000 -0.033846
    vertex 0.096203 0.000000 -0.044508
  endloop
endfacet
facet normal 0.001450 0.000002 -0.000662
  outer loop
    vertex 0.098643 0.140500 -0.038800
    vertex 0.096203 0.000000 -0.044508
    vertex 0.093932 0.140500 -0.049120
  endloop
endfacet
facet normal 0.001425 -0.000002 -0.000755
  outer loop
    vertex 0.093932 0.140500 -0.049120
    vertex 0.096203 0.000000 -0.044508
    vertex 0.090827 0.000000 -0.054649
  endloop
endfacet
facet normal 0.001371 0.000002 -0.000813
  outer loop
    vertex 0.093932 0.140500 -0.049120
    vertex 0.090827 0.000000 -0.054649
    vertex 0.088145 0.140500 -0.058877
  endloop
endfacet
facet normal 0.001335 -0.000002 -0.000905
  outer loop
    vertex 0.088145 0.140500 -0.058877
    vertex 0.090827 0.000000 -0.054649
    vertex 0.084386 0.000000 -0.064148
  endloop
endfacet
facet normal 0.001276 0.000002 -0.000955
  outer loop
    vertex 0.088145 0.140500 -0.058877
    vertex 0.084386 0.000000 -0.064148
    vertex 0.081348 0.140500 -0.067959
  endloop
endfacet
facet normal 0.001229 -0.000002 -0.001044
  outer loop
    vertex 0.081348 0.140500 -0.067959
    vertex 0.084386 0.000000 -0.064148
    vertex 0.076956 0.000000 -0.072896
  endloop
endfacet
facet normal 0.001167 0.000002 -0.001086
  outer loop
    vertex 0.081348 0.140500 -0.067959
    vertex 0.076956 0.000000 -0.072896
    vertex 0.073620 0.140500 -0.076264
  endloop
endfacet
facet normal 0.001109 -0.000002 -0.001171
  outer loop
    vertex 0.073620 0.140500 -0.076264
    vertex 0.076956 0.000000 -0.072896
    vertex 0.068623 0.000000 -0.080789
  endloop
endfacet
facet normal 0.001044 0.000002 -0.001204
  outer loop
    vertex 0.073620 0.140500 -0.076264
    vertex 0.068623 0.000000 -0.080789
    vertex 0.065048 0.140500 -0.083695
  endloop
endfacet
facet normal 0.000976 -0.000002 -0.001284
  outer loop
    vertex 0.065048 0.140500 -0.083695
    vertex 0.068623 0.000000 -0.080789
    vertex 0.059486 0.000000 -0.087735
  endloop
endfacet
facet normal 0.000909 0.000002 -0.001309
  outer loop
    vertex 0.065048 0.140500 -0.083695
    vertex 0.059486 0.000000 -0.087735
    vertex 0.055731 0.140500 -0.090167
  endloop
endfacet
facet normal 0.000831 -0.000002 -0.001382
  outer loop
    vertex 0.055731 0.140500 -0.090167
    vertex 0.059486 0.000000 -0.087735
    vertex 0.049651 0.000000 -0.093652
  endloop
endfacet
facet normal 0.000764 0.000002 -0.001399
  outer loop
    vertex 0.055731 0.140500 -0.090167
    vertex 0.049651 0.000000 -0.093652
    vertex 0.045776 0.140500 -0.095606
  endloop
endfacet
facet normal 0.000677 -0.000002 -0.001464
  outer loop
    vertex 0.045776 0.140500 -0.095606
    vertex 0.049651 0.000000 -0.093652
    vertex 0.039235 0.000000 -0.098472
  endloop
endfacet
facet normal 0.000610 0.000002 -0.001472
  outer loop
    vertex 0.045776 0.140500 -0.095606
    vertex 0.039235 0.000000 -0.098472
    vertex 0.035297 0.140500 -0.099951
  endloop
endfacet
facet normal 0.000515 -0.000002 -0.001528
  outer loop
    vertex 0.035297 0.140500 -0.099951
    vertex 0.039235 0.000000 -0.098472
    vertex 0.028358 0.000000 -0.102136
  endloop
endfacet
facet normal 0.000450 0.000002 -0.001529
  outer loop
    vertex 0.035297 0.140500 -0.099951
    vertex 0.028358 0.000000 -0.102136
    vertex 0.024413 0.140500 -0.103150
  endloop
endfacet
facet normal 0.000347 -0.000002 -0.001575
  outer loop
    vertex 0.024413 0.140500 -0.103150
    vertex 0.028358 0.000000 -0.102136
    vertex 0.017149 0.000000 -0.104604
  endloop
endfacet
facet normal 0.000284 0.000002 -0.001568
  outer loop
    vertex 0.024413 0.140500 -0.103150
    vertex 0.017149 0.000000 -0.104604
    vertex 0.013250 0.140500 -0.105169
  endloop
endfacet
facet normal 0.000003 0.000000 -0.000023
  outer loop
    vertex 0.013250 0.140500 -0.105169
    vertex 0.017149 0.000000 -0.104604
    vertex 0.013250 0.134500 -0.105169
  endloop
endfacet
facet normal 0.000167 -0.000002 -0.001535
  outer loop
    vertex 0.013250 0.134500 -0.105169
    vertex 0.017149 0.000000 -0.104604
    vertex 0.005739 0.000000 -0.105845
  endloop
endfacet
facet normal 0.000099 0.000000 -0.001187
  outer loop
    vertex 0.013250 0.134500 -0.105169
    vertex 0.005739 0.000000 -0.105845
    vertex 0.004427 0.134500 -0.105908
  endloop
endfacet
facet normal 0.000000 -0.000001 -0.001544
  outer loop
    vertex 0.004427 0.134500 -0.105908
    vertex 0.005739 0.000000 -0.105845
    vertex -0.005739 0.000000 -0.105845
  endloop
endfacet
facet normal -0.000000 -0.000001 -0.001191
  outer loop
    vertex 0.004427 0.134500 -0.105908
    vertex -0.005739 0.000000 -0.105845
    vertex -0.004427 0.134500 -0.105908
  endloop
endfacet
facet normal -0.000099 0.000000 -0.001187
  outer loop
    vertex -0.004427 0.134500 -0.105908
    vertex -0.005739 0.000000 -0.105845
    vertex -0.013250 0.134500 -0.105169
  endloop
endfacet
facet normal -0.000167 -0.000002 -0.001535
  outer loop
    vertex -0.013250 0.134500 -0.105169
    vertex -0.005739 0.000000 -0.105845
    vertex -0.017149 0.000000 -0.104604
  endloop
endfacet
facet normal -0.000003 0.000000 -0.000023
  outer loop
    vertex -0.013250 0.134500 -0.105169
    vertex -0.017149 0.000000 -0.104604
    vertex -0.013250 0.140500 -0.105169
  endloop
endfacet
facet normal -0.000284 0.000002 -0.001568
  outer loop
    vertex -0.013250 0.140500 -0.105169
    vertex -0.017149 0.000000 -0.104604
    vertex -0.024413 0.140500 -0.103150
  endloop
endfacet
facet normal -0.000347 -0.000002 -0.001575
  outer loop
    vertex -0.024413 0.140500 -0.103150
    vertex -0.017149 0.000000 -0.104604
    vertex -0.028358 0.000000 -0.102136
  endloop
endfacet
facet normal -0.000450 0.000002 -0.001529
  outer loop
    vertex -0.024413 0.140500 -0.103150
    vertex -0.028358 0.000000 -0.102136
    vertex -0.035297 0.140500 -0.099951
  endloop
endfacet
facet normal -0.000515 -0.000002 -0.001528
  outer loop
    vertex -0.035297 0.140500 -0.099951
    vertex -0.028358 0.000000 -0.102136
    vertex -0.039235 0.000000 -0.098472
  endloop
endfacet
facet normal -0.000610 0.000002 -0.001472
  outer loop
    vertex -0.035297 0.140500 -0.099951
    vertex -0.039235 0.000000 -0.098472
    vertex -0.045776 0.140500 -0.095606
  endloop
endfacet
facet normal -0.000677 -0.000002 -0.001464
  outer loop
    vertex -0.045776 0.140500 -0.095606
    vertex -0.039235 0.000000 -0.098472
    vertex -0.049651 0.000000 -0.093652
  endloop
endfacet
facet normal -0.000764 0.000002 -0.001399
  outer loop
    vertex -0.045776 0.140500 -0.095606
    vertex -0.049651 0.000000 -0.093652
    vertex -0.055731 0.140500 -0.090167
  endloop
endfacet
facet normal -0.000831 -0.000002 -0.001382
  outer loop
    vertex -0.055731 0.140500 -0.090167
    vertex -0.049651 0.000000 -0.093652
    vertex -0.059486 0.000000 -0.087735
  endloop
endfacet
facet normal -0.000909 0.000002 -0.001309
  outer loop
    vertex -0.055731 0.140500 -0.090167
    vertex -0.059486 0.000000 -0.087735
    vertex -0.065048 0.140500 -0.083695
  endloop
endfacet
facet normal -0.000976 -0.000002 -0.001284
  outer loop
    vertex -0.065048 0.140500 -0.083695
    vertex -0.059486 0.000000 -0.087735
    vertex -0.068623 0.000000 -0.080789
  endloop
endfacet
facet normal -0.001044 0.000002 -0.001204
  outer loop
    vertex -0.065048 0.140500 -0.083695
    vertex -0.068623 0.000000 -0.080789
    vertex -0.073620 0.140500 -0.076264
  endloop
endfacet
facet normal -0.001109 -0.000002 -0.001171
  outer loop
    vertex -0.073620 0.140500 -0.076264
    vertex -0.068623 0.000000 -0.080789
    vertex -0.076956 0.000000 -0.072896
  endloop
endfacet
facet normal -0.001167 0.000002 -0.001086
  outer loop
    vertex -0.073620 0.140500 -0.076264
    vertex -0.076956 0.000000 -0.072896
    vertex -0.081348 0.140500 -0.067959
  endloop
endfacet
facet normal -0.001229 -0.000002 -0.001044
  outer loop
    vertex -0.081348 0.140500 -0.067959
    vertex -0.076956 0.000000 -0.072896
    vertex -0.084386 0.000000 -0.064148
  endloop
endfacet
facet normal -0.001276 0.000002 -0.000955
  outer loop
    vertex -0.081348 0.140500 -0.067959
    vertex -0.084386 0.000000 -0.064148
    vertex -0.088145 0.140500 -0.058877
  endloop
endfacet
facet normal -0.001335 -0.000002 -0.000905
  outer loop
    vertex -0.088145 0.140500 -0.058877
    vertex -0.084386 0.000000 -0.064148
    vertex -0.090827 0.000000 -0.054649
  endloop
endfacet
facet normal -0.001371 0.000002 -0.000813
  outer loop
    vertex -0.088145 0.140500 -0.058877
    vertex -0.090827 0.000000 -0.054649
    vertex -0.093932 0.140500 -0.049120
  endloop
endfacet
facet normal -0.001425 -0.000002 -0.000755
  outer loop
    vertex -0.093932 0.140500 -0.049120
    vertex -0.090827 0.000000 -0.054649
    vertex -0.096203 0.000000 -0.044508
  endloop
endfacet
facet normal -0.001450 0.000002 -0.000662
  outer loop
    vertex -0.093932 0.140500 -0.049120
    vertex -0.096203 0.000000 -0.044508
    vertex -0.098643 0.140500 -0.038800
  endloop
endfacet
facet normal -0.001498 -0.000002 -0.000597
  outer loop
    vertex -0.098643 0.140500 -0.038800
    vertex -0.096203 0.000000 -0.044508
    vertex -0.100451 0.000000 -0.033846
  endloop
endfacet
facet normal -0.001512 0.000002 -0.000503
  outer loop
    vertex -0.098643 0.140500 -0.038800
    vertex -0.100451 0.000000 -0.033846
    vertex -0.102225 0.140500 -0.028036
  endloop
endfacet
facet normal -0.001554 -0.000002 -0.000431
  outer loop
    vertex -0.102225 0.140500 -0.028036
    vertex -0.100451 0.000000 -0.033846
    vertex -0.103522 0.000000 -0.022787
  endloop
endfacet
facet normal -0.001557 0.000002 -0.000339
  outer loop
    vertex -0.102225 0.140500 -0.028036
    vertex -0.103522 0.000000 -0.022787
    vertex -0.104636 0.140500 -0.016951
  endloop
endfacet
facet normal -0.001591 -0.000002 -0.000261
  outer loop
    vertex -0.104636 0.140500 -0.016951
    vertex -0.103522 0.000000 -0.022787
    vertex -0.105379 0.000000 -0.011461
  endloop
endfacet
facet normal -0.001585 0.000002 -0.000170
  outer loop
    vertex -0.104636 0.140500 -0.016951
    vertex -0.105379 0.000000 -0.011461
    vertex -0.105848 0.140500 -0.005672
  endloop
endfacet
facet normal -0.001610 -0.000002 -0.000087
  outer loop
    vertex -0.105848 0.140500 -0.005672
    vertex -0.105379 0.000000 -0.011461
    vertex -0.106000 0.000000 0.000000
  endloop
endfacet
facet normal -0.001594 0.000002 0.000000
  outer loop
    vertex -0.105848 0.140500 -0.005672
    vertex -0.106000 0.000000 0.000000
    vertex -0.105848 0.140500 0.005672
  endloop
endfacet
facet normal -0.001610 -0.000002 0.000087
  outer loop
    vertex -0.105848 0.140500 0.005672
    vertex -0.106000 0.000000 0.000000
    vertex -0.105379 0.000000 0.011461
  endloop
endfacet
facet normal -0.001585 0.000002 0.000170
  outer loop
    vertex -0.105848 0.140500 0.005672
    vertex -0.105379 0.000000 0.011461
    vertex -0.104636 0.140500 0.016951
  endloop
endfacet
facet normal -0.001591 -0.000002 0.000261
  outer loop
    vertex -0.104636 0.140500 0.016951
    vertex -0.105379 0.000000 0.011461
    vertex -0.103522 0.000000 0.022787
  endloop
endfacet
facet normal -0.001557 0.000002 0.000339
  outer loop
    vertex -0.104636 0.140500 0.016951
    vertex -0.103522 0.000000 0.022787
    vertex -0.102225 0.140500 0.028036
  endloop
endfacet
facet normal -0.001554 -0.000002 0.000431
  outer loop
    vertex -0.102225 0.140500 0.028036
    vertex -0.103522 0.000000 0.022787
    vertex -0.100451 0.000000 0.033846
  endloop
endfacet
facet normal -0.001512 0.000002 0.000503
  outer loop
    vertex -0.102225 0.140500 0.028036
    vertex -0.100451 0.000000 0.033846
    vertex -0.098643 0.140500 0.038800
  endloop
endfacet
facet normal -0.001498 -0.000002 0.000597
  outer loop
    vertex -0.098643 0.140500 0.038800
    vertex -0.100451 0.000000 0.033846
    vertex -0.096203 0.000000 0.044508
  endloop
endfacet
facet normal -0.001450 0.000002 0.000662
  outer loop
    vertex -0.098643 0.140500 0.038800
    vertex -0.096203 0.000000 0.044508
    vertex -0.093932 0.140500 0.049120
  endloop
endfacet
facet normal -0.001425 -0.000002 0.000755
  outer loop
    vertex -0.093932 0.140500 0.049120
    vertex -0.096203 0.000000 0.044508
    vertex -0.090827 0.000000 0.054649
  endloop
endfacet
facet normal -0.001371 0.000002 0.000813
  outer loop
    vertex -0.093932 0.140500 0.049120
    vertex -0.090827 0.000000 0.054649
    vertex -0.088145 0.140500 0.058877
  endloop
endfacet
facet normal -0.001335 -0.000002 0.000905
  outer loop
    vertex -0.088145 0.140500 0.058877
    vertex -0.090827 0.000000 0.054649
    vertex -0.084386 0.000000 0.064148
  endloop
endfacet
facet normal -0.001276 0.000002 0.000955
  outer loop
    vertex -0.088145 0.140500 0.058877
    vertex -0.084386 0.000000 0.064148
    vertex -0.081348 0.140500 0.067959
  endloop
endfacet
facet normal -0.001229 -0.000002 0.001044
  outer loop
    vertex -0.081348 0.140500 0.067959
    vertex -0.084386 0.000000 0.064148
    vertex -0.076956 0.000000 0.072896
  endloop
endfacet
facet normal -0.001167 0.000002 0.001086
  outer loop
    vertex -0.081348 0.140500 0.067959
    vertex -0.076956 0.000000 0.072896
    vertex -0.073620 0.140500 0.076264
  endloop
endfacet
facet normal -0.001109 -0.000002 0.001171
  outer loop
    vertex -0.073620 0.140500 0.076264
    vertex -0.076956 0.000000 0.072896
    vertex -0.068623 0.000000 0.080789
  endloop
endfacet
facet normal -0.001044 0.000002 0.001204
  outer loop
    vertex -0.073620 0.140500 0.076264
    vertex -0.068623 0.000000 0.080789
    vertex -0.065048 0.140500 0.083695
  endloop
endfacet
facet normal -0.000976 -0.000002 0.001284
  outer loop
    vertex -0.065048 0.140500 0.083695
    vertex -0.068623 0.000000 0.080789
    vertex -0.059486 0.000000 0.087735
  endloop
endfacet
facet normal -0.000909 0.000002 0.001309
  outer loop
    vertex -0.065048 0.140500 0.083695
    vertex -0.059486 0.000000 0.087735
    vertex -0.055731 0.140500 0.090167
  endloop
endfacet
facet normal -0.000831 -0.000002 0.001382
  outer loop
    vertex -0.055731 0.140500 0.090167
    vertex -0.059486 0.000000 0.087735
    vertex -0.049651 0.000000 0.093652
  endloop
endfacet
facet normal -0.000764 0.000002 0.001399
  outer loop
    vertex -0.055731 0.140500 0.090167
    vertex -0.049651 0.000000 0.093652
    vertex -0.045776 0.140500 0.095606
  endloop
endfacet
facet normal -0.000677 -0.000002 0.001464
  outer loop
    vertex -0.045776 0.140500 0.095606
    vertex -0.049651 0.000000 0.093652
    vertex -0.039235 0.000000 0.098472
  endloop
endfacet
facet normal -0.000610 0.000002 0.001472
  outer loop
    vertex -0.045776 0.140500 0.095606
    vertex -0.039235 0.000000 0.098472
    vertex -0.035297 0.140500 0.099951
  endloop
endfacet
facet normal -0.000515 -0.000002 0.001528
  outer loop
    vertex -0.035297 0.140500 0.099951
    vertex -0.039235 0.000000 0.098472
    vertex -0.028358 0.000000 0.102136
  endloop
endfacet
facet normal -0.000450 0.000002 0.001529
  outer loop
    vertex -0.035297 0.140500 0.099951
    vertex -0.028358 0.000000 0.102136
    vertex -0.024413 0.140500 0.103150
  endloop
endfacet
facet normal -0.000347 -0.000002 0.001575
  outer loop
    vertex -0.024413 0.140500 0.103150
    vertex -0.028358 0.000000 0.102136
    vertex -0.017149 0.000000 0.104604
  endloop
endfacet
facet normal -0.000284 0.000002 0.001568
  outer loop
    vertex -0.024413 0.140500 0.103150
    vertex -0.017149 0.000000 0.104604
    vertex -0.013250 0.140500 0.105169
  endloop
endfacet
facet normal -0.000003 0.000000 0.000023
  outer loop
    vertex -0.013250 0.140500 0.105169
    vertex -0.017149 0.000000 0.104604
    vertex -0.013250 0.134500 0.105169
  endloop
endfacet
facet normal -0.000167 -0.000002 0.001535
  outer loop
    vertex -0.013250 0.134500 0.105169
    vertex -0.017149 0.000000 0.104604
    vertex -0.005739 0.000000 0.105845
  endloop
endfacet
facet normal -0.000099 0.000000 0.001187
  outer loop
    vertex -0.013250 0.134500 0.105169
    vertex -0.005739 0.000000 0.105845
    vertex -0.004427 0.134500 0.105908
  endloop
endfacet
facet normal 0.000000 -0.000001 0.001544
  outer loop
    vertex -0.004427 0.134500 0.105908
    vertex -0.005739 0.000000 0.105845
    vertex 0.005739 0.000000 0.105845
  endloop
endfacet
facet normal 0.000000 -0.000001 0.001191
  outer loop
    vertex -0.004427 0.134500 0.105908
    vertex 0.005739 0.000000 0.105845
    vertex 0.004427 0.134500 0.105908
  endloop
endfacet
facet normal 0.000099 0.000000 0.001187
  outer loop
    vertex 0.004427 0.134500 0.105908
    vertex 0.005739 0.000000 0.105845
    vertex 0.013250 0.134500 0.105169
  endloop
endfacet
facet normal 0.000167 -0.000002 0.001535
  outer loop
    vertex 0.013250 0.134500 0.105169
    vertex 0.005739 0.000000 0.105845
    vertex 0.017149 0.000000 0.104604
  endloop
endfacet
facet normal -0.000013 -0.000080 -0.000091
  outer loop
    vertex -0.013250 0.187500 -0.146258
    vertex -0.013250 0.180724 -0.140342
    vertex -0.026707 0.187500 -0.144408
  endloop
endfacet
facet normal -0.000012 -0.000076 -0.000087
  outer loop
    vertex -0.026707 0.187500 -0.144408
    vertex -0.013250 0.180724 -0.140342
    vertex -0.013250 0.174239 -0.134678
  endloop
endfacet
facet normal -0.000012 -0.000073 -0.000084
  outer loop
    vertex -0.026707 0.187500 -0.144408
    vertex -0.013250 0.174239 -0.134678
    vertex -0.013250 0.168025 -0.129250
  endloop
endfacet
facet normal -0.000011 -0.000070 -0.000080
  outer loop
    vertex -0.013250 0.168025 -0.129250
    vertex -0.013250 0.162067 -0.124042
    vertex -0.026707 0.187500 -0.144408
  endloop
endfacet
facet normal -0.000021 -0.000132 -0.000151
  outer loop
    vertex -0.026707 0.187500 -0.144408
    vertex -0.013250 0.162067 -0.124042
    vertex -0.013250 0.150857 -0.114237
  endloop
endfacet
facet normal -0.000020 -0.000122 -0.000139
  outer loop
    vertex -0.026707 0.187500 -0.144408
    vertex -0.013250 0.150857 -0.114237
    vertex -0.013250 0.140500 -0.105169
  endloop
endfacet
facet normal -0.000095 -0.000465 -0.000525
  outer loop
    vertex -0.013250 0.140500 -0.105169
    vertex -0.024413 0.140500 -0.103150
    vertex -0.026707 0.187500 -0.144408
  endloop
endfacet
facet normal -0.000145 -0.000553 -0.000622
  outer loop
    vertex -0.026707 0.187500 -0.144408
    vertex -0.024413 0.140500 -0.103150
    vertex -0.039935 0.187500 -0.141322
  endloop
endfacet
facet normal -0.000150 -0.000465 -0.000512
  outer loop
    vertex -0.039935 0.187500 -0.141322
    vertex -0.024413 0.140500 -0.103150
    vertex -0.035297 0.140500 -0.099951
  endloop
endfacet
facet normal -0.000202 -0.000553 -0.000606
  outer loop
    vertex -0.039935 0.187500 -0.141322
    vertex -0.035297 0.140500 -0.099951
    vertex -0.052822 0.187500 -0.137028
  endloop
endfacet
facet normal -0.000204 -0.000465 -0.000493
  outer loop
    vertex -0.052822 0.187500 -0.137028
    vertex -0.035297 0.140500 -0.099951
    vertex -0.045776 0.140500 -0.095606
  endloop
endfacet
facet normal -0.000257 -0.000554 -0.000584
  outer loop
    vertex -0.052822 0.187500 -0.137028
    vertex -0.045776 0.140500 -0.095606
    vertex -0.065257 0.187500 -0.131561
  endloop
endfacet
facet normal -0.000256 -0.000464 -0.000468
  outer loop
    vertex -0.065257 0.187500 -0.131561
    vertex -0.045776 0.140500 -0.095606
    vertex -0.055731 0.140500 -0.090167
  endloop
endfacet
facet normal -0.000310 -0.000554 -0.000558
  outer loop
    vertex -0.065257 0.187500 -0.131561
    vertex -0.055731 0.140500 -0.090167
    vertex -0.077134 0.187500 -0.124969
  endloop
endfacet
facet normal -0.000360 -0.000554 -0.000527
  outer loop
    vertex -0.077134 0.187500 -0.124969
    vertex -0.055731 0.140500 -0.090167
    vertex -0.088350 0.187500 -0.117307
  endloop
endfacet
facet normal -0.000304 -0.000464 -0.000438
  outer loop
    vertex -0.088350 0.187500 -0.117307
    vertex -0.055731 0.140500 -0.090167
    vertex -0.065048 0.140500 -0.083695
  endloop
endfacet
facet normal -0.000407 -0.000554 -0.000492
  outer loop
    vertex -0.088350 0.187500 -0.117307
    vertex -0.065048 0.140500 -0.083695
    vertex -0.098811 0.187500 -0.108642
  endloop
endfacet
facet normal -0.000349 -0.000465 -0.000403
  outer loop
    vertex -0.098811 0.187500 -0.108642
    vertex -0.065048 0.140500 -0.083695
    vertex -0.073620 0.140500 -0.076264
  endloop
endfacet
facet normal -0.000451 -0.000553 -0.000452
  outer loop
    vertex -0.098811 0.187500 -0.108642
    vertex -0.073620 0.140500 -0.076264
    vertex -0.108427 0.187500 -0.099048
  endloop
endfacet
facet normal -0.000390 -0.000465 -0.000363
  outer loop
    vertex -0.108427 0.187500 -0.099048
    vertex -0.073620 0.140500 -0.076264
    vertex -0.081348 0.140500 -0.067959
  endloop
endfacet
facet normal -0.000491 -0.000553 -0.000408
  outer loop
    vertex -0.108427 0.187500 -0.099048
    vertex -0.081348 0.140500 -0.067959
    vertex -0.117114 0.187500 -0.088606
  endloop
endfacet
facet normal -0.000427 -0.000465 -0.000319
  outer loop
    vertex -0.117114 0.187500 -0.088606
    vertex -0.081348 0.140500 -0.067959
    vertex -0.088145 0.140500 -0.058877
  endloop
endfacet
facet normal -0.000526 -0.000553 -0.000361
  outer loop
    vertex -0.117114 0.187500 -0.088606
    vertex -0.088145 0.140500 -0.058877
    vertex -0.124800 0.187500 -0.077406
  endloop
endfacet
facet normal -0.000459 -0.000465 -0.000272
  outer loop
    vertex -0.124800 0.187500 -0.077406
    vertex -0.088145 0.140500 -0.058877
    vertex -0.093932 0.140500 -0.049120
  endloop
endfacet
facet normal -0.000558 -0.000553 -0.000311
  outer loop
    vertex -0.124800 0.187500 -0.077406
    vertex -0.093932 0.140500 -0.049120
    vertex -0.131419 0.187500 -0.065544
  endloop
endfacet
facet normal -0.000485 -0.000464 -0.000221
  outer loop
    vertex -0.131419 0.187500 -0.065544
    vertex -0.093932 0.140500 -0.049120
    vertex -0.098643 0.140500 -0.038800
  endloop
endfacet
facet normal -0.000584 -0.000554 -0.000258
  outer loop
    vertex -0.131419 0.187500 -0.065544
    vertex -0.098643 0.140500 -0.038800
    vertex -0.136912 0.187500 -0.053121
  endloop
endfacet
facet normal -0.000605 -0.000555 -0.000203
  outer loop
    vertex -0.136912 0.187500 -0.053121
    vertex -0.098643 0.140500 -0.038800
    vertex -0.141235 0.187500 -0.040244
  endloop
endfacet
facet normal -0.000506 -0.000464 -0.000168
  outer loop
    vertex -0.141235 0.187500 -0.040244
    vertex -0.098643 0.140500 -0.038800
    vertex -0.102225 0.140500 -0.028036
  endloop
endfacet
facet normal -0.000621 -0.000554 -0.000146
  outer loop
    vertex -0.141235 0.187500 -0.040244
    vertex -0.102225 0.140500 -0.028036
    vertex -0.144349 0.187500 -0.027022
  endloop
endfacet
facet normal -0.000521 -0.000465 -0.000113
  outer loop
    vertex -0.144349 0.187500 -0.027022
    vertex -0.102225 0.140500 -0.028036
    vertex -0.104636 0.140500 -0.016951
  endloop
endfacet
facet normal -0.000632 -0.000553 -0.000088
  outer loop
    vertex -0.144349 0.187500 -0.027022
    vertex -0.104636 0.140500 -0.016951
    vertex -0.146228 0.187500 -0.013569
  endloop
endfacet
facet normal -0.000530 -0.000465 -0.000057
  outer loop
    vertex -0.146228 0.187500 -0.013569
    vertex -0.104636 0.140500 -0.016951
    vertex -0.105848 0.140500 -0.005672
  endloop
endfacet
facet normal -0.000638 -0.000553 -0.000030
  outer loop
    vertex -0.146228 0.187500 -0.013569
    vertex -0.105848 0.140500 -0.005672
    vertex -0.146856 0.187500 0.000000
  endloop
endfacet
facet normal -0.000533 -0.000465 0.000000
  outer loop
    vertex -0.146856 0.187500 0.000000
    vertex -0.105848 0.140500 -0.005672
    vertex -0.105848 0.140500 0.005672
  endloop
endfacet
facet normal -0.000638 -0.000553 0.000030
  outer loop
    vertex -0.146856 0.187500 0.000000
    vertex -0.105848 0.140500 0.005672
    vertex -0.146228 0.187500 0.013569
  endloop
endfacet
facet normal -0.000530 -0.000465 0.000057
  outer loop
    vertex -0.146228 0.187500 0.013569
    vertex -0.105848 0.140500 0.005672
    vertex -0.104636 0.140500 0.016951
  endloop
endfacet
facet normal -0.000632 -0.000553 0.000088
  outer loop
    vertex -0.146228 0.187500 0.013569
    vertex -0.104636 0.140500 0.016951
    vertex -0.144349 0.187500 0.027022
  endloop
endfacet
facet normal -0.000521 -0.000465 0.000113
  outer loop
    vertex -0.144349 0.187500 0.027022
    vertex -0.104636 0.140500 0.016951
    vertex -0.102225 0.140500 0.028036
  endloop
endfacet
facet normal -0.000621 -0.000554 0.000146
  outer loop
    vertex -0.144349 0.187500 0.027022
    vertex -0.102225 0.140500 0.028036
    vertex -0.141235 0.187500 0.040244
  endloop
endfacet
facet normal -0.000506 -0.000464 0.000168
  outer loop
    vertex -0.141235 0.187500 0.040244
    vertex -0.102225 0.140500 0.028036
    vertex -0.098643 0.140500 0.038800
  endloop
endfacet
facet normal -0.000605 -0.000555 0.000203
  outer loop
    vertex -0.141235 0.187500 0.040244
    vertex -0.098643 0.140500 0.038800
    vertex -0.136912 0.187500 0.053121
  endloop
endfacet
facet normal -0.000584 -0.000554 0.000258
  outer loop
    vertex -0.136912 0.187500 0.053121
    vertex -0.098643 0.140500 0.038800
    vertex -0.131419 0.187500 0.065544
  endloop
endfacet
facet normal -0.000485 -0.000464 0.000221
  outer loop
    vertex -0.131419 0.187500 0.065544
    vertex -0.098643 0.140500 0.038800
    vertex -0.093932 0.140500 0.049120
  endloop
endfacet
facet normal -0.000558 -0.000553 0.000311
  outer loop
    vertex -0.131419 0.187500 0.065544
    vertex -0.093932 0.140500 0.049120
    vertex -0.124800 0.187500 0.077406
  endloop
endfacet
facet normal -0.000459 -0.000465 0.000272
  outer loop
    vertex -0.124800 0.187500 0.077406
    vertex -0.093932 0.140500 0.049120
    vertex -0.088145 0.140500 0.058877
  endloop
endfacet
facet normal -0.000526 -0.000553 0.000361
  outer loop
    vertex -0.124800 0.187500 0.077406
    vertex -0.088145 0.140500 0.058877
    vertex -0.117114 0.187500 0.088606
  endloop
endfacet
facet normal -0.000427 -0.000465 0.000319
  outer loop
    vertex -0.117114 0.187500 0.088606
    vertex -0.088145 0.140500 0.058877
    vertex -0.081348 0.140500 0.067959
  endloop
endfacet
facet normal -0.000491 -0.000553 0.000408
  outer loop
    vertex -0.117114 0.187500 0.088606
    vertex -0.081348 0.140500 0.067959
    vertex -0.108427 0.187500 0.099048
  endloop
endfacet
facet normal -0.000390 -0.000465 0.000363
  outer loop
    vertex -0.108427 0.187500 0.099048
    vertex -0.081348 0.140500 0.067959
    vertex -0.073620 0.140500 0.076264
  endloop
endfacet
facet normal -0.000451 -0.000553 0.000452
  outer loop
    vertex -0.108427 0.187500 0.099048
    vertex -0.073620 0.140500 0.076264
    vertex -0.098811 0.187500 0.108642
  endloop
endfacet
facet normal -0.000349 -0.000465 0.000403
  outer loop
    vertex -0.098811 0.187500 0.108642
    vertex -0.073620 0.140500 0.076264
    vertex -0.065048 0.140500 0.083695
  endloop
endfacet
facet normal -0.000407 -0.000554 0.000492
  outer loop
    vertex -0.098811 0.187500 0.108642
    vertex -0.065048 0.140500 0.083695
    vertex -0.088350 0.187500 0.117307
  endloop
endfacet
facet normal -0.000304 -0.000464 0.000438
  outer loop
    vertex -0.088350 0.187500 0.117307
    vertex -0.065048 0.140500 0.083695
    vertex -0.055731 0.140500 0.090167
  endloop
endfacet
facet normal -0.000360 -0.000554 0.000527
  outer loop
    vertex -0.088350 0.187500 0.117307
    vertex -0.055731 0.140500 0.090167
    vertex -0.077134 0.187500 0.124969
  endloop
endfacet
facet normal -0.000310 -0.000554 0.000558
  outer loop
    vertex -0.077134 0.187500 0.124969
    vertex -0.055731 0.140500 0.090167
    vertex -0.065257 0.187500 0.131561
  endloop
endfacet
facet normal -0.000256 -0.000464 0.000468
  outer loop
    vertex -0.065257 0.187500 0.131561
    vertex -0.055731 0.140500 0.090167
    vertex -0.045776 0.140500 0.095606
  endloop
endfacet
facet normal -0.000257 -0.000554 0.000584
  outer loop
    vertex -0.065257 0.187500 0.131561
    vertex -0.045776 0.140500 0.095606
    vertex -0.052822 0.187500 0.137028
  endloop
endfacet
facet normal -0.000204 -0.000465 0.000493
  outer loop
    vertex -0.052822 0.187500 0.137028
    vertex -0.045776 0.140500 0.095606
    vertex -0.035297 0.140500 0.099951
  endloop
endfacet
facet normal -0.000202 -0.000553 0.000606
  outer loop
    vertex -0.052822 0.187500 0.137028
    vertex -0.035297 0.140500 0.099951
    vertex -0.039935 0.187500 0.141322
  endloop
endfacet
facet normal -0.000150 -0.000465 0.000512
  outer loop
    vertex -0.039935 0.187500 0.141322
    vertex -0.035297 0.140500 0.099951
    vertex -0.024413 0.140500 0.103150
  endloop
endfacet
facet normal -0.000145 -0.000553 0.000622
  outer loop
    vertex -0.039935 0.187500 0.141322
    vertex -0.024413 0.140500 0.103150
    vertex -0.026707 0.187500 0.144408
  endloop
endfacet
facet normal -0.000095 -0.000465 0.000525
  outer loop
    vertex -0.026707 0.187500 0.144408
    vertex -0.024413 0.140500 0.103150
    vertex -0.013250 0.140500 0.105169
  endloop
endfacet
facet normal -0.000020 -0.000122 0.000139
  outer loop
    vertex -0.026707 0.187500 0.144408
    vertex -0.013250 0.140500 0.105169
    vertex -0.013250 0.150857 0.114237
  endloop
endfacet
facet normal -0.000021 -0.000132 0.000151
  outer loop
    vertex -0.013250 0.150857 0.114237
    vertex -0.013250 0.162067 0.124042
    vertex -0.026707 0.187500 0.144408
  endloop
endfacet
facet normal -0.000011 -0.000070 0.000080
  outer loop
    vertex -0.026707 0.187500 0.144408
    vertex -0.013250 0.162067 0.124042
    vertex -0.013250 0.168025 0.129250
  endloop
endfacet
facet normal -0.000012 -0.000073 0.000084
  outer loop
    vertex -0.026707 0.187500 0.144408
    vertex -0.013250 0.168025 0.129250
    vertex -0.013250 0.174239 0.134678
  endloop
endfacet
facet normal -0.000012 -0.000076 0.000087
  outer loop
    vertex -0.013250 0.174239 0.134678
    vertex -0.013250 0.180724 0.140342
    vertex -0.026707 0.187500 0.144408
  endloop
endfacet
facet normal -0.000013 -0.000080 0.000091
  outer loop
    vertex -0.026707 0.187500 0.144408
    vertex -0.013250 0.180724 0.140342
    vertex -0.013250 0.187500 0.146258
  endloop
endfacet
facet normal 0.000000 0.003936 0.000000
  outer loop
    vertex -0.013250 0.187500 0.146258
    vertex -0.013250 0.187500 -0.146258
    vertex -0.026707 0.187500 0.144408
  endloop
endfacet
facet normal 0.000000 0.003887 0.000000
  outer loop
    vertex -0.026707 0.187500 0.144408
    vertex -0.013250 0.187500 -0.146258
    vertex -0.026707 0.187500 -0.144408
  endloop
endfacet
facet normal 0.000000 0.003821 0.000000
  outer loop
    vertex -0.026707 0.187500 0.144408
    vertex -0.026707 0.187500 -0.144408
    vertex -0.039935 0.187500 0.141322
  endloop
endfacet
facet normal 0.000000 0.003739 0.000000
  outer loop
    vertex -0.039935 0.187500 0.141322
    vertex -0.026707 0.187500 -0.144408
    vertex -0.039935 0.187500 -0.141322
  endloop
endfacet
facet normal 0.000000 0.003642 0.000000
  outer loop
    vertex -0.039935 0.187500 0.141322
    vertex -0.039935 0.187500 -0.141322
    vertex -0.052822 0.187500 0.137028
  endloop
endfacet
facet normal 0.000000 0.003532 0.000000
  outer loop
    vertex -0.052822 0.187500 0.137028
    vertex -0.039935 0.187500 -0.141322
    vertex -0.052822 0.187500 -0.137028
  endloop
endfacet
facet normal 0.000000 0.003408 0.000000
  outer loop
    vertex -0.052822 0.187500 0.137028
    vertex -0.052822 0.187500 -0.137028
    vertex -0.065257 0.187500 0.131561
  endloop
endfacet
facet normal 0.000000 0.003272 0.000000
  outer loop
    vertex -0.065257 0.187500 0.131561
    vertex -0.052822 0.187500 -0.137028
    vertex -0.065257 0.187500 -0.131561
  endloop
endfacet
facet normal 0.000000 0.003125 0.000000
  outer loop
    vertex -0.065257 0.187500 0.131561
    vertex -0.065257 0.187500 -0.131561
    vertex -0.077134 0.187500 0.124969
  endloop
endfacet
facet normal 0.000000 0.002968 0.000000
  outer loop
    vertex -0.077134 0.187500 0.124969
    vertex -0.065257 0.187500 -0.131561
    vertex -0.077134 0.187500 -0.124969
  endloop
endfacet
facet normal 0.000000 0.002803 0.000000
  outer loop
    vertex -0.077134 0.187500 0.124969
    vertex -0.077134 0.187500 -0.124969
    vertex -0.088350 0.187500 0.117307
  endloop
endfacet
facet normal 0.000000 0.002632 0.000000
  outer loop
    vertex -0.088350 0.187500 0.117307
    vertex -0.077134 0.187500 -0.124969
    vertex -0.088350 0.187500 -0.117307
  endloop
endfacet
facet normal 0.000000 0.002454 0.000000
  outer loop
    vertex -0.088350 0.187500 0.117307
    vertex -0.088350 0.187500 -0.117307
    vertex -0.098811 0.187500 0.108642
  endloop
endfacet
facet normal 0.000000 0.002273 0.000000
  outer loop
    vertex -0.098811 0.187500 0.108642
    vertex -0.088350 0.187500 -0.117307
    vertex -0.098811 0.187500 -0.108642
  endloop
endfacet
facet normal 0.000000 0.002089 0.000000
  outer loop
    vertex -0.098811 0.187500 0.108642
    vertex -0.098811 0.187500 -0.108642
    vertex -0.108427 0.187500 0.099048
  endloop
endfacet
facet normal 0.000000 0.001905 0.000000
  outer loop
    vertex -0.108427 0.187500 0.099048
    vertex -0.098811 0.187500 -0.108642
    vertex -0.108427 0.187500 -0.099048
  endloop
endfacet
facet normal 0.000000 0.001721 0.000000
  outer loop
    vertex -0.108427 0.187500 0.099048
    vertex -0.108427 0.187500 -0.099048
    vertex -0.117114 0.187500 0.088606
  endloop
endfacet
facet normal 0.000000 0.001540 0.000000
  outer loop
    vertex -0.117114 0.187500 0.088606
    vertex -0.108427 0.187500 -0.099048
    vertex -0.117114 0.187500 -0.088606
  endloop
endfacet
facet normal 0.000000 0.001362 0.000000
  outer loop
    vertex -0.117114 0.187500 0.088606
    vertex -0.117114 0.187500 -0.088606
    vertex -0.124800 0.187500 0.077406
  endloop
endfacet
facet normal 0.000000 0.001190 0.000000
  outer loop
    vertex -0.124800 0.187500 0.077406
    vertex -0.117114 0.187500 -0.088606
    vertex -0.124800 0.187500 -0.077406
  endloop
endfacet
facet normal 0.000000 0.001025 0.000000
  outer loop
    vertex -0.124800 0.187500 0.077406
    vertex -0.124800 0.187500 -0.077406
    vertex -0.131419 0.187500 0.065544
  endloop
endfacet
facet normal 0.000000 0.000868 0.000000
  outer loop
    vertex -0.131419 0.187500 0.065544
    vertex -0.124800 0.187500 -0.077406
    vertex -0.131419 0.187500 -0.065544
  endloop
endfacet
facet normal 0.000000 0.000720 0.000000
  outer loop
    vertex -0.131419 0.187500 0.065544
    vertex -0.131419 0.187500 -0.065544
    vertex -0.136912 0.187500 0.053121
  endloop
endfacet
facet normal 0.000000 0.000584 0.000000
  outer loop
    vertex -0.136912 0.187500 0.053121
    vertex -0.131419 0.187500 -0.065544
    vertex -0.136912 0.187500 -0.053121
  endloop
endfacet
facet normal 0.000000 0.000459 0.000000
  outer loop
    vertex -0.136912 0.187500 0.053121
    vertex -0.136912 0.187500 -0.053121
    vertex -0.141235 0.187500 0.040244
  endloop
endfacet
facet normal 0.000000 0.000348 0.000000
  outer loop
    vertex -0.141235 0.187500 0.040244
    vertex -0.136912 0.187500 -0.053121
    vertex -0.141235 0.187500 -0.040244
  endloop
endfacet
facet normal 0.000000 0.000251 0.000000
  outer loop
    vertex -0.141235 0.187500 0.040244
    vertex -0.141235 0.187500 -0.040244
    vertex -0.144349 0.187500 0.027022
  endloop
endfacet
facet normal 0.000000 0.000168 0.000000
  outer loop
    vertex -0.144349 0.187500 0.027022
    vertex -0.141235 0.187500 -0.040244
    vertex -0.144349 0.187500 -0.027022
  endloop
endfacet
facet normal 0.000000 0.000102 0.000000
  outer loop
    vertex -0.144349 0.187500 0.027022
    vertex -0.144349 0.187500 -0.027022
    vertex -0.146228 0.187500 0.013569
  endloop
endfacet
facet normal 0.000000 0.000051 0.000000
  outer loop
    vertex -0.146228 0.187500 0.013569
    vertex -0.144349 0.187500 -0.027022
    vertex -0.146228 0.187500 -0.013569
  endloop
endfacet
facet normal 0.000000 0.000017 0.000000
  outer loop
    vertex -0.146228 0.187500 0.013569
    vertex -0.146228 0.187500 -0.013569
    vertex -0.146856 0.187500 0.000000
  endloop
endfacet
facet normal -0.000000 -0.000014 0.000000
  outer loop
    vertex 0.106000 0.000000 0.000000
    vertex 0.105379 0.000000 0.011461
    vertex 0.105379 0.000000 -0.011461
  endloop
endfacet
facet normal -0.000000 -0.000043 0.000000
  outer loop
    vertex 0.105379 0.000000 -0.011461
    vertex 0.105379 0.000000 0.011461
    vertex 0.103522 0.000000 -0.022787
  endloop
endfacet
facet normal 0.000000 -0.000085 0.000000
  outer loop
    vertex 0.103522 0.000000 -0.022787
    vertex 0.105379 0.000000 0.011461
    vertex 0.103522 0.000000 0.022787
  endloop
endfacet
facet normal -0.000000 -0.000140 0.000000
  outer loop
    vertex 0.103522 0.000000 -0.022787
    vertex 0.103522 0.000000 0.022787
    vertex 0.100451 0.000000 -0.033846
  endloop
endfacet
facet normal 0.000000 -0.000208 0.000000
  outer loop
    vertex 0.100451 0.000000 -0.033846
    vertex 0.103522 0.000000 0.022787
    vertex 0.100451 0.000000 0.033846
  endloop
endfacet
facet normal -0.000000 -0.000288 0.000000
  outer loop
    vertex 0.100451 0.000000 -0.033846
    vertex 0.100451 0.000000 0.033846
    vertex 0.096203 0.000000 -0.044508
  endloop
endfacet
facet normal 0.000000 -0.000378 0.000000
  outer loop
    vertex 0.096203 0.000000 -0.044508
    vertex 0.100451 0.000000 0.033846
    vertex 0.096203 0.000000 0.044508
  endloop
endfacet
facet normal -0.000000 -0.000479 0.000000
  outer loop
    vertex 0.096203 0.000000 -0.044508
    vertex 0.096203 0.000000 0.044508
    vertex 0.090827 0.000000 -0.054649
  endloop
endfacet
facet normal 0.000000 -0.000588 0.000000
  outer loop
    vertex 0.090827 0.000000 -0.054649
    vertex 0.096203 0.000000 0.044508
    vertex 0.090827 0.000000 0.054649
  endloop
endfacet
facet normal -0.000000 -0.000704 0.000000
  outer loop
    vertex 0.090827 0.000000 -0.054649
    vertex 0.090827 0.000000 0.054649
    vertex 0.084386 0.000000 -0.064148
  endloop
endfacet
facet normal 0.000000 -0.000826 0.000000
  outer loop
    vertex 0.084386 0.000000 -0.064148
    vertex 0.090827 0.000000 0.054649
    vertex 0.084386 0.000000 0.064148
  endloop
endfacet
facet normal -0.000000 -0.000953 0.000000
  outer loop
    vertex 0.084386 0.000000 -0.064148
    vertex 0.084386 0.000000 0.064148
    vertex 0.076956 0.000000 -0.072896
  endloop
endfacet
facet normal 0.000000 -0.001083 0.000000
  outer loop
    vertex 0.076956 0.000000 -0.072896
    vertex 0.084386 0.000000 0.064148
    vertex 0.076956 0.000000 0.072896
  endloop
endfacet
facet normal -0.000000 -0.001215 0.000000
  outer loop
    vertex 0.076956 0.000000 -0.072896
    vertex 0.076956 0.000000 0.072896
    vertex 0.068623 0.000000 -0.080789
  endloop
endfacet
facet normal 0.000000 -0.001346 0.000000
  outer loop
    vertex 0.068623 0.000000 -0.080789
    vertex 0.076956 0.000000 0.072896
    vertex 0.068623 0.000000 0.080789
  endloop
endfacet
facet normal -0.000000 -0.001476 0.000000
  outer loop
    vertex 0.068623 0.000000 -0.080789
    vertex 0.068623 0.000000 0.080789
    vertex 0.059486 0.000000 -0.087735
  endloop
endfacet
facet normal 0.000000 -0.001603 0.000000
  outer loop
    vertex 0.059486 0.000000 -0.087735
    vertex 0.068623 0.000000 0.080789
    vertex 0.059486 0.000000 0.087735
  endloop
endfacet
facet normal -0.000000 -0.001726 0.000000
  outer loop
    vertex 0.059486 0.000000 -0.087735
    vertex 0.059486 0.000000 0.087735
    vertex 0.049651 0.000000 -0.093652
  endloop
endfacet
facet normal 0.000000 -0.001842 0.000000
  outer loop
    vertex 0.049651 0.000000 -0.093652
    vertex 0.059486 0.000000 0.087735
    vertex 0.049651 0.000000 0.093652
  endloop
endfacet
facet normal -0.000000 -0.001951 0.000000
  outer loop
    vertex 0.049651 0.000000 -0.093652
    vertex 0.049651 0.000000 0.093652
    vertex 0.039235 0.000000 -0.098472
  endloop
endfacet
facet normal 0.000000 -0.002051 0.000000
  outer loop
    vertex 0.039235 0.000000 -0.098472
    vertex 0.049651 0.000000 0.093652
    vertex 0.039235 0.000000 0.098472
  endloop
endfacet
facet normal -0.000000 -0.002142 0.000000
  outer loop
    vertex 0.039235 0.000000 -0.098472
    vertex 0.039235 0.000000 0.098472
    vertex 0.028358 0.000000 -0.102136
  endloop
endfacet
facet normal 0.000000 -0.002222 0.000000
  outer loop
    vertex 0.028358 0.000000 -0.102136
    vertex 0.039235 0.000000 0.098472
    vertex 0.028358 0.000000 0.102136
  endloop
endfacet
facet normal -0.000000 -0.002290 0.000000
  outer loop
    vertex 0.028358 0.000000 -0.102136
    vertex 0.028358 0.000000 0.102136
    vertex 0.017149 0.000000 -0.104604
  endloop
endfacet
facet normal 0.000000 -0.002345 0.000000
  outer loop
    vertex 0.017149 0.000000 -0.104604
    vertex 0.028358 0.000000 0.102136
    vertex 0.017149 0.000000 0.104604
  endloop
endfacet
facet normal -0.000000 -0.002387 0.000000
  outer loop
    vertex 0.017149 0.000000 -0.104604
    vertex 0.017149 0.000000 0.104604
    vertex 0.005739 0.000000 -0.105845
  endloop
endfacet
facet normal 0.000000 -0.002415 0.000000
  outer loop
    vertex 0.005739 0.000000 -0.105845
    vertex 0.017149 0.000000 0.104604
    vertex 0.005739 0.000000 0.105845
  endloop
endfacet
facet normal 0.000000 -0.002430 0.000000
  outer loop
    vertex 0.005739 0.000000 -0.105845
    vertex 0.005739 0.000000 0.105845
    vertex -0.005739 0.000000 -0.105845
  endloop
endfacet
facet normal 0.000000 -0.002430 0.000000
  outer loop
    vertex -0.005739 0.000000 -0.105845
    vertex 0.005739 0.000000 0.105845
    vertex -0.005739 0.000000 0.105845
  endloop
endfacet
facet normal 0.000000 -0.002415 0.000000
  outer loop
    vertex -0.005739 0.000000 -0.105845
    vertex -0.005739 0.000000 0.105845
    vertex -0.017149 0.000000 -0.104604
  endloop
endfacet
facet normal 0.000000 -0.002387 0.000000
  outer loop
    vertex -0.017149 0.000000 -0.104604
    vertex -0.005739 0.000000 0.105845
    vertex -0.017149 0.000000 0.104604
  endloop
endfacet
facet normal 0.000000 -0.002345 0.000000
  outer loop
    vertex -0.017149 0.000000 -0.104604
    vertex -0.017149 0.000000 0.104604
    vertex -0.028358 0.000000 -0.102136
  endloop
endfacet
facet normal 0.000000 -0.002290 0.000000
  outer loop
    vertex -0.028358 0.000000 -0.102136
    vertex -0.017149 0.000000 0.104604
    vertex -0.028358 0.000000 0.102136
  endloop
endfacet
facet normal 0.000000 -0.002222 0.000000
  outer loop
    vertex -0.028358 0.000000 -0.102136
    vertex -0.028358 0.000000 0.102136
    vertex -0.039235 0.000000 -0.098472
  endloop
endfacet
facet normal 0.000000 -0.002142 0.000000
  outer loop
    vertex -0.039235 0.000000 -0.098472
    vertex -0.028358 0.000000 0.102136
    vertex -0.039235 0.000000 0.098472
  endloop
endfacet
facet normal 0.000000 -0.002051 0.000000
  outer loop
    vertex -0.039235 0.000000 -0.098472
    vertex -0.039235 0.000000 0.098472
    vertex -0.049651 0.000000 -0.093652
  endloop
endfacet
facet normal 0.000000 -0.001951 0.000000
  outer loop
    vertex -0.049651 0.000000 -0.093652
    vertex -0.039235 0.000000 0.098472
    vertex -0.049651 0.000000 0.093652
  endloop
endfacet
facet normal 0.000000 -0.001842 0.000000
  outer loop
    vertex -0.049651 0.000000 -0.093652
    vertex -0.049651 0.000000 0.093652
    vertex -0.059486 0.000000 -0.087735
  endloop
endfacet
facet normal 0.000000 -0.001726 0.000000
  outer loop
    vertex -0.059486 0.000000 -0.087735
    vertex -0.049651 0.000000 0.093652
    vertex -0.059486 0.000000 0.087735
  endloop
endfacet
facet normal 0.000000 -0.001603 0.000000
  outer loop
    vertex -0.059486 0.000000 -0.087735
    vertex -0.059486 0.000000 0.087735
    vertex -0.068623 0.000000 -0.080789
  endloop
endfacet
facet normal 0.000000 -0.001476 0.000000
  outer loop
    vertex -0.068623 0.000000 -0.080789
    vertex -0.059486 0.000000 0.087735
    vertex -0.068623 0.000000 0.080789
  endloop
endfacet
facet normal 0.000000 -0.001346 0.000000
  outer loop
    vertex -0.068623 0.000000 -0.080789
    vertex -0.068623 0.000000 0.080789
    vertex -0.076956 0.000000 -0.072896
  endloop
endfacet
facet normal 0.000000 -0.001215 0.000000
  outer loop
    vertex -0.076956 0.000000 -0.072896
    vertex -0.068623 0.000000 0.080789
    vertex -0.076956 0.000000 0.072896
  endloop
endfacet
facet normal 0.000000 -0.001083 0.000000
  outer loop
    vertex -0.076956 0.000000 -0.072896
    vertex -0.076956 0.000000 0.072896
    vertex -0.084386 0.000000 -0.064148
  endloop
endfacet
facet normal 0.000000 -0.000953 0.000000
  outer loop
    vertex -0.084386 0.000000 -0.064148
    vertex -0.076956 0.000000 0.072896
    vertex -0.084386 0.000000 0.064148
  endloop
endfacet
facet normal 0.000000 -0.000826 0.000000
  outer loop
    vertex -0.084386 0.000000 -0.064148
    vertex -0.084386 0.000000 0.064148
    vertex -0.090827 0.000000 -0.054649
  endloop
endfacet
facet normal 0.000000 -0.000704 0.000000
  outer loop
    vertex -0.090827 0.000000 -0.054649
    vertex -0.084386 0.000000 0.064148
    vertex -0.090827 0.000000 0.054649
  endloop
endfacet
facet normal 0.000000 -0.000588 0.000000
  outer loop
    vertex -0.090827 0.000000 -0.054649
    vertex -0.090827 0.000000 0.054649
    vertex -0.096203 0.000000 -0.044508
  endloop
endfacet
facet normal 0.000000 -0.000479 0.000000
  outer loop
    vertex -0.096203 0.000000 -0.044508
    vertex -0.090827 0.000000 0.054649
    vertex -0.096203 0.000000 0.044508
  endloop
endfacet
facet normal 0.000000 -0.000378 0.000000
  outer loop
    vertex -0.096203 0.000000 -0.044508
    vertex -0.096203 0.000000 0.044508
    vertex -0.100451 0.000000 -0.033846
  endloop
endfacet
facet normal 0.000000 -0.000288 0.000000
  outer loop
    vertex -0.100451 0.000000 -0.033846
    vertex -0.096203 0.000000 0.044508
    vertex -0.100451 0.000000 0.033846
  endloop
endfacet
facet normal 0.000000 -0.000208 0.000000
  outer loop
    vertex -0.100451 0.000000 -0.033846
    vertex -0.100451 0.000000 0.033846
    vertex -0.103522 0.000000 -0.022787
  endloop
endfacet
facet normal 0.000000 -0.000140 0.000000
  outer loop
    vertex -0.103522 0.000000 -0.022787
    vertex -0.100451 0.000000 0.033846
    vertex -0.103522 0.000000 0.022787
  endloop
endfacet
facet normal 0.000000 -0.000085 0.000000
  outer loop
    vertex -0.103522 0.000000 -0.022787
    vertex -0.103522 0.000000 0.022787
    vertex -0.105379 0.000000 -0.011461
  endloop
endfacet
facet normal 0.000000 -0.000043 0.000000
  outer loop
    vertex -0.105379 0.000000 -0.011461
    vertex -0.103522 0.000000 0.022787
    vertex -0.105379 0.000000 0.011461
  endloop
endfacet
facet normal 0.000000 -0.000014 0.000000
  outer loop
    vertex -0.105379 0.000000 -0.011461
    vertex -0.105379 0.000000 0.011461
    vertex -0.106000 0.000000 0.000000
  endloop
endfacet
facet normal 0.000000 0.003936 0.000000
  outer loop
    vertex 0.013250 0.187500 -0.146258
    vertex 0.013250 0.187500 0.146258
    vertex 0.026707 0.187500 -0.144408
  endloop
endfacet
facet normal 0.000000 0.003887 -0.000000
  outer loop
    vertex 0.026707 0.187500 -0.144408
    vertex 0.013250 0.187500 0.146258
    vertex 0.026707 0.187500 0.144408
  endloop
endfacet
facet normal 0.000000 0.003821 0.000000
  outer loop
    vertex 0.026707 0.187500 -0.144408
    vertex 0.026707 0.187500 0.144408
    vertex 0.039935 0.187500 -0.141322
  endloop
endfacet
facet normal 0.000000 0.003739 -0.000000
  outer loop
    vertex 0.039935 0.187500 -0.141322
    vertex 0.026707 0.187500 0.144408
    vertex 0.039935 0.187500 0.141322
  endloop
endfacet
facet normal 0.000000 0.003642 0.000000
  outer loop
    vertex 0.039935 0.187500 -0.141322
    vertex 0.039935 0.187500 0.141322
    vertex 0.052822 0.187500 -0.137028
  endloop
endfacet
facet normal 0.000000 0.003532 -0.000000
  outer loop
    vertex 0.052822 0.187500 -0.137028
    vertex 0.039935 0.187500 0.141322
    vertex 0.052822 0.187500 0.137028
  endloop
endfacet
facet normal 0.000000 0.003408 0.000000
  outer loop
    vertex 0.052822 0.187500 -0.137028
    vertex 0.052822 0.187500 0.137028
    vertex 0.065257 0.187500 -0.131561
  endloop
endfacet
facet normal 0.000000 0.003272 -0.000000
  outer loop
    vertex 0.065257 0.187500 -0.131561
    vertex 0.052822 0.187500 0.137028
    vertex 0.065257 0.187500 0.131561
  endloop
endfacet
facet normal 0.000000 0.003125 0.000000
  outer loop
    vertex 0.065257 0.187500 -0.131561
    vertex 0.065257 0.187500 0.131561
    vertex 0.077134 0.187500 -0.124969
  endloop
endfacet
facet normal 0.000000 0.002968 -0.000000
  outer loop
    vertex 0.077134 0.187500 -0.124969
    vertex 0.065257 0.187500 0.131561
    vertex 0.077134 0.187500 0.124969
  endloop
endfacet
facet normal 0.000000 0.002803 0.000000
  outer loop
    vertex 0.077134 0.187500 -0.124969
    vertex 0.077134 0.187500 0.124969
    vertex 0.088350 0.187500 -0.117307
  endloop
endfacet
facet normal 0.000000 0.002632 -0.000000
  outer loop
    vertex 0.088350 0.187500 -0.117307
    vertex 0.077134 0.187500 0.124969
    vertex 0.088350 0.187500 0.117307
  endloop
endfacet
facet normal 0.000000 0.002454 0.000000
  outer loop
    vertex 0.088350 0.187500 -0.117307
    vertex 0.088350 0.187500 0.117307
    vertex 0.098811 0.187500 -0.108642
  endloop
endfacet
facet normal 0.000000 0.002273 -0.000000
  outer loop
    vertex 0.098811 0.187500 -0.108642
    vertex 0.088350 0.187500 0.117307
    vertex 0.098811 0.187500 0.108642
  endloop
endfacet
facet normal 0.000000 0.002089 0.000000
  outer loop
    vertex 0.098811 0.187500 -0.108642
    vertex 0.098811 0.187500 0.108642
    vertex 0.108427 0.187500 -0.099048
  endloop
endfacet
facet normal 0.000000 0.001905 -0.000000
  outer loop
    vertex 0.108427 0.187500 -0.099048
    vertex 0.098811 0.187500 0.108642
    vertex 0.108427 0.187500 0.099048
  endloop
endfacet
facet normal 0.000000 0.001721 0.000000
  outer loop
    vertex 0.108427 0.187500 -0.099048
    vertex 0.108427 0.187500 0.099048
    vertex 0.117114 0.187500 -0.088606
  endloop
endfacet
facet normal 0.000000 0.001540 -0.000000
  outer loop
    vertex 0.117114 0.187500 -0.088606
    vertex 0.108427 0.187500 0.099048
    vertex 0.117114 0.187500 0.088606
  endloop
endfacet
facet normal 0.000000 0.001362 0.000000
  outer loop
    vertex 0.117114 0.187500 -0.088606
    vertex 0.117114 0.187500 0.088606
    vertex 0.124800 0.187500 -0.077406
  endloop
endfacet
facet normal 0.000000 0.001190 -0.000000
  outer loop
    vertex 0.124800 0.187500 -0.077406
    vertex 0.117114 0.187500 0.088606
    vertex 0.124800 0.187500 0.077406
  endloop
endfacet
facet normal 0.000000 0.001025 0.000000
  outer loop
    vertex 0.124800 0.187500 -0.077406
    vertex 0.124800 0.187500 0.077406
    vertex 0.131419 0.187500 -0.065544
  endloop
endfacet
facet normal 0.000000 0.000868 -0.000000
  outer loop
    vertex 0.131419 0.187500 -0.065544
    vertex 0.124800 0.187500 0.077406
    vertex 0.131419 0.187500 0.065544
  endloop
endfacet
facet normal 0.000000 0.000720 0.000000
  outer loop
    vertex 0.131419 0.187500 -0.065544
    vertex 0.131419 0.187500 0.065544
    vertex 0.136912 0.187500 -0.053121
  endloop
endfacet
facet normal 0.000000 0.000584 -0.000000
  outer loop
    vertex 0.136912 0.187500 -0.053121
    vertex 0.131419 0.187500 0.065544
    vertex 0.136912 0.187500 0.053121
  endloop
endfacet
facet normal 0.000000 0.000459 0.000000
  outer loop
    vertex 0.136912 0.187500 -0.053121
    vertex 0.136912 0.187500 0.053121
    vertex 0.141235 0.187500 -0.040244
  endloop
endfacet
facet normal 0.000000 0.000348 -0.000000
  outer loop
    vertex 0.141235 0.187500 -0.040244
    vertex 0.136912 0.187500 0.053121
    vertex 0.141235 0.187500 0.040244
  endloop
endfacet
facet normal 0.000000 0.000251 0.000000
  outer loop
    vertex 0.141235 0.187500 -0.040244
    vertex 0.141235 0.187500 0.040244
    vertex 0.144349 0.187500 -0.027022
  endloop
endfacet
facet normal 0.000000 0.000168 -0.000000
  outer loop
    vertex 0.144349 0.187500 -0.027022
    vertex 0.141235 0.187500 0.040244
    vertex 0.144349 0.187500 0.027022
  endloop
endfacet
facet normal 0.000000 0.000102 0.000000
  outer loop
    vertex 0.144349 0.187500 -0.027022
    vertex 0.144349 0.187500 0.027022
    vertex 0.146228 0.187500 -0.013569
  endloop
endfacet
facet normal 0.000000 0.000051 -0.000000
  outer loop
    vertex 0.146228 0.187500 -0.013569
    vertex 0.144349 0.187500 0.027022
    vertex 0.146228 0.187500 0.013569
  endloop
endfacet
facet normal 0.000000 0.000017 0.000000
  outer loop
    vertex 0.146228 0.187500 -0.013569
    vertex 0.146228 0.187500 0.013569
    vertex 0.146856 0.187500 0.000000
  endloop
endfacet
facet normal 0.000013 -0.000080 0.000091
  outer loop
    vertex 0.013250 0.187500 0.146258
    vertex 0.013250 0.180724 0.140342
    vertex 0.026707 0.187500 0.144408
  endloop
endfacet
facet normal 0.000012 -0.000076 0.000087
  outer loop
    vertex 0.026707 0.187500 0.144408
    vertex 0.013250 0.180724 0.140342
    vertex 0.013250 0.174239 0.134678
  endloop
endfacet
facet normal 0.000012 -0.000073 0.000084
  outer loop
    vertex 0.026707 0.187500 0.144408
    vertex 0.013250 0.174239 0.134678
    vertex 0.013250 0.168025 0.129250
  endloop
endfacet
facet normal 0.000011 -0.000070 0.000080
  outer loop
    vertex 0.013250 0.168025 0.129250
    vertex 0.013250 0.162067 0.124042
    vertex 0.026707 0.187500 0.144408
  endloop
endfacet
facet normal 0.000021 -0.000132 0.000151
  outer loop
    vertex 0.026707 0.187500 0.144408
    vertex 0.013250 0.162067 0.124042
    vertex 0.013250 0.150857 0.114237
  endloop
endfacet
facet normal 0.000020 -0.000122 0.000139
  outer loop
    vertex 0.026707 0.187500 0.144408
    vertex 0.013250 0.150857 0.114237
    vertex 0.013250 0.140500 0.105169
  endloop
endfacet
facet normal 0.000095 -0.000465 0.000525
  outer loop
    vertex 0.013250 0.140500 0.105169
    vertex 0.024413 0.140500 0.103150
    vertex 0.026707 0.187500 0.144408
  endloop
endfacet
facet normal 0.000145 -0.000553 0.000622
  outer loop
    vertex 0.026707 0.187500 0.144408
    vertex 0.024413 0.140500 0.103150
    vertex 0.039935 0.187500 0.141322
  endloop
endfacet
facet normal 0.000150 -0.000465 0.000512
  outer loop
    vertex 0.039935 0.187500 0.141322
    vertex 0.024413 0.140500 0.103150
    vertex 0.035297 0.140500 0.099951
  endloop
endfacet
facet normal 0.000202 -0.000553 0.000606
  outer loop
    vertex 0.039935 0.187500 0.141322
    vertex 0.035297 0.140500 0.099951
    vertex 0.052822 0.187500 0.137028
  endloop
endfacet
facet normal 0.000204 -0.000465 0.000493
  outer loop
    vertex 0.052822 0.187500 0.137028
    vertex 0.035297 0.140500 0.099951
    vertex 0.045776 0.140500 0.095606
  endloop
endfacet
facet normal 0.000257 -0.000554 0.000584
  outer loop
    vertex 0.052822 0.187500 0.137028
    vertex 0.045776 0.140500 0.095606
    vertex 0.065257 0.187500 0.131561
  endloop
endfacet
facet normal 0.000256 -0.000464 0.000468
  outer loop
    vertex 0.065257 0.187500 0.131561
    vertex 0.045776 0.140500 0.095606
    vertex 0.055731 0.140500 0.090167
  endloop
endfacet
facet normal 0.000310 -0.000554 0.000558
  outer loop
    vertex 0.065257 0.187500 0.131561
    vertex 0.055731 0.140500 0.090167
    vertex 0.077134 0.187500 0.124969
  endloop
endfacet
facet normal 0.000360 -0.000554 0.000527
  outer loop
    vertex 0.077134 0.187500 0.124969
    vertex 0.055731 0.140500 0.090167
    vertex 0.088350 0.187500 0.117307
  endloop
endfacet
facet normal 0.000304 -0.000464 0.000438
  outer loop
    vertex 0.088350 0.187500 0.117307
    vertex 0.055731 0.140500 0.090167
    vertex 0.065048 0.140500 0.083695
  endloop
endfacet
facet normal 0.000407 -0.000554 0.000492
  outer loop
    vertex 0.088350 0.187500 0.117307
    vertex 0.065048 0.140500 0.083695
    vertex 0.098811 0.187500 0.108642
  endloop
endfacet
facet normal 0.000349 -0.000465 0.000403
  outer loop
    vertex 0.098811 0.187500 0.108642
    vertex 0.065048 0.140500 0.083695
    vertex 0.073620 0.140500 0.076264
  endloop
endfacet
facet normal 0.000451 -0.000553 0.000452
  outer loop
    vertex 0.098811 0.187500 0.108642
    vertex 0.073620 0.140500 0.076264
    vertex 0.108427 0.187500 0.099048
  endloop
endfacet
facet normal 0.000390 -0.000465 0.000363
  outer loop
    vertex 0.108427 0.187500 0.099048
    vertex 0.073620 0.140500 0.076264
    vertex 0.081348 0.140500 0.067959
  endloop
endfacet
facet normal 0.000491 -0.000553 0.000408
  outer loop
    vertex 0.108427 0.187500 0.099048
    vertex 0.081348 0.140500 0.067959
    vertex 0.117114 0.187500 0.088606
  endloop
endfacet
facet normal 0.000427 -0.000465 0.000319
  outer loop
    vertex 0.117114 0.187500 0.088606
    vertex 0.081348 0.140500 0.067959
    vertex 0.088145 0.140500 0.058877
  endloop
endfacet
facet normal 0.000526 -0.000553 0.000361
  outer loop
    vertex 0.117114 0.187500 0.088606
    vertex 0.088145 0.140500 0.058877
    vertex 0.124800 0.187500 0.077406
  endloop
endfacet
facet normal 0.000459 -0.000465 0.000272
  outer loop
    vertex 0.124800 0.187500 0.077406
    vertex 0.088145 0.140500 0.058877
    vertex 0.093932 0.140500 0.049120
  endloop
endfacet
facet normal 0.000558 -0.000553 0.000311
  outer loop
    vertex 0.124800 0.187500 0.077406
    vertex 0.093932 0.140500 0.049120
    vertex 0.131419 0.187500 0.065544
  endloop
endfacet
facet normal 0.000485 -0.000464 0.000221
  outer loop
    vertex 0.131419 0.187500 0.065544
    vertex 0.093932 0.140500 0.049120
    vertex 0.098643 0.140500 0.038800
  endloop
endfacet
facet normal 0.000584 -0.000554 0.000258
  outer loop
    vertex 0.131419 0.187500 0.065544
    vertex 0.098643 0.140500 0.038800
    vertex 0.136912 0.187500 0.053121
  endloop
endfacet
facet normal 0.000605 -0.000555 0.000203
  outer loop
    vertex 0.136912 0.187500 0.053121
    vertex 0.098643 0.140500 0.038800
    vertex 0.141235 0.187500 0.040244
  endloop
endfacet
facet normal 0.000506 -0.000464 0.000168
  outer loop
    vertex 0.141235 0.187500 0.040244
    vertex 0.098643 0.140500 0.038800
    vertex 0.102225 0.140500 0.028036
  endloop
endfacet
facet normal 0.000621 -0.000554 0.000146
  outer loop
    vertex 0.141235 0.187500 0.040244
    vertex 0.102225 0.140500 0.028036
    vertex 0.144349 0.187500 0.027022
  endloop
endfacet
facet normal 0.000521 -0.000465 0.000113
  outer loop
    vertex 0.144349 0.187500 0.027022
    vertex 0.102225 0.140500 0.028036
    vertex 0.104636 0.140500 0.016951
  endloop
endfacet
facet normal 0.000632 -0.000553 0.000088
  outer loop
    vertex 0.144349 0.187500 0.027022
    vertex 0.104636 0.140500 0.016951
    vertex 0.146228 0.187500 0.013569
  endloop
endfacet
facet normal 0.000530 -0.000465 0.000057
  outer loop
    vertex 0.146228 0.187500 0.013569
    vertex 0.104636 0.140500 0.016951
    vertex 0.105848 0.140500 0.005672
  endloop
endfacet
facet normal 0.000638 -0.000553 0.000030
  outer loop
    vertex 0.146228 0.187500 0.013569
    vertex 0.105848 0.140500 0.005672
    vertex 0.146856 0.187500 0.000000
  endloop
endfacet
facet normal 0.000533 -0.000465 0.000000
  outer loop
    vertex 0.146856 0.187500 0.000000
    vertex 0.105848 0.140500 0.005672
    vertex 0.105848 0.140500 -0.005672
  endloop
endfacet
facet normal 0.000638 -0.000553 -0.000030
  outer loop
    vertex 0.146856 0.187500 0.000000
    vertex 0.105848 0.140500 -0.005672
    vertex 0.146228 0.187500 -0.013569
  endloop
endfacet
facet normal 0.000530 -0.000465 -0.000057
  outer loop
    vertex 0.146228 0.187500 -0.013569
    vertex 0.105848 0.140500 -0.005672
    vertex 0.104636 0.140500 -0.016951
  endloop
endfacet
facet normal 0.000632 -0.000553 -0.000088
  outer loop
    vertex 0.146228 0.187500 -0.013569
    vertex 0.104636 0.140500 -0.016951
    vertex 0.144349 0.187500 -0.027022
  endloop
endfacet
facet normal 0.000521 -0.000465 -0.000113
  outer loop
    vertex 0.144349 0.187500 -0.027022
    vertex 0.104636 0.140500 -0.016951
    vertex 0.102225 0.140500 -0.028036
  endloop
endfacet
facet normal 0.000621 -0.000554 -0.000146
  outer loop
    vertex 0.144349 0.187500 -0.027022
    vertex 0.102225 0.140500 -0.028036
    vertex 0.141235 0.187500 -0.040244
  endloop
endfacet
facet normal 0.000506 -0.000464 -0.000168
  outer loop
    vertex 0.141235 0.187500 -0.040244
    vertex 0.102225 0.140500 -0.028036
    vertex 0.098643 0.140500 -0.038800
  endloop
endfacet
facet normal 0.000605 -0.000555 -0.000203
  outer loop
    vertex 0.141235 0.187500 -0.040244
    vertex 0.098643 0.140500 -0.038800
    vertex 0.136912 0.187500 -0.053121
  endloop
endfacet
facet normal 0.000584 -0.000554 -0.000258
  outer loop
    vertex 0.136912 0.187500 -0.053121
    vertex 0.098643 0.140500 -0.038800
    vertex 0.131419 0.187500 -0.065544
  endloop
endfacet
facet normal 0.000485 -0.000464 -0.000221
  outer loop
    vertex 0.131419 0.187500 -0.065544
    vertex 0.098643 0.140500 -0.038800
    vertex 0.093932 0.140500 -0.049120
  endloop
endfacet
facet normal 0.000558 -0.000553 -0.000311
  outer loop
    vertex 0.131419 0.187500 -0.065544
    vertex 0.093932 0.140500 -0.049120
    vertex 0.124800 0.187500 -0.077406
  endloop
endfacet
facet normal 0.000459 -0.000465 -0.000272
  outer loop
    vertex 0.124800 0.187500 -0.077406
    vertex 0.093932 0.140500 -0.049120
    vertex 0.088145 0.140500 -0.058877
  endloop
endfacet
facet normal 0.000526 -0.000553 -0.000361
  outer loop
    vertex 0.124800 0.187500 -0.077406
    vertex 0.088145 0.140500 -0.058877
    vertex 0.117114 0.187500 -0.088606
  endloop
endfacet
facet normal 0.000427 -0.000465 -0.000319
  outer loop
    vertex 0.117114 0.187500 -0.088606
    vertex 0.088145 0.140500 -0.058877
    vertex 0.081348 0.140500 -0.067959
  endloop
endfacet
facet normal 0.000491 -0.000553 -0.000408
  outer loop
    vertex 0.117114 0.187500 -0.088606
    vertex 0.081348 0.140500 -0.067959
    vertex 0.108427 0.187500 -0.099048
  endloop
endfacet
facet normal 0.000390 -0.000465 -0.000363
  outer loop
    vertex 0.108427 0.187500 -0.099048
    vertex 0.081348 0.140500 -0.067959
    vertex 0.073620 0.140500 -0.076264
  endloop
endfacet
facet normal 0.000451 -0.000553 -0.000452
  outer loop
    vertex 0.108427 0.187500 -0.099048
    vertex 0.073620 0.140500 -0.076264
    vertex 0.098811 0.187500 -0.108642
  endloop
endfacet
facet normal 0.000349 -0.000465 -0.000403
  outer loop
    vertex 0.098811 0.187500 -0.108642
    vertex 0.073620 0.140500 -0.076264
    vertex 0.065048 0.140500 -0.083695
  endloop
endfacet
facet normal 0.000407 -0.000554 -0.000492
  outer loop
    vertex 0.098811 0.187500 -0.108642
    vertex 0.065048 0.140500 -0.083695
    vertex 0.088350 0.187500 -0.117307
  endloop
endfacet
facet normal 0.000304 -0.000464 -0.000438
  outer loop
    vertex 0.088350 0.187500 -0.117307
    vertex 0.065048 0.140500 -0.083695
    vertex 0.055731 0.140500 -0.090167
  endloop
endfacet
facet normal 0.000360 -0.000554 -0.000527
  outer loop
    vertex 0.088350 0.187500 -0.117307
    vertex 0.055731 0.140500 -0.090167
    vertex 0.077134 0.187500 -0.124969
  endloop
endfacet
facet normal 0.000310 -0.000554 -0.000558
  outer loop
    vertex 0.077134 0.187500 -0.124969
    vertex 0.055731 0.140500 -0.090167
    vertex 0.065257 0.187500 -0.131561
  endloop
endfacet
facet normal 0.000256 -0.000464 -0.000468
  outer loop
    vertex 0.065257 0.187500 -0.131561
    vertex 0.055731 0.140500 -0.090167
    vertex 0.045776 0.140500 -0.095606
  endloop
endfacet
facet normal 0.000257 -0.000554 -0.000584
  outer loop
    vertex 0.065257 0.187500 -0.131561
    vertex 0.045776 0.140500 -0.095606
    vertex 0.052822 0.187500 -0.137028
  endloop
endfacet
facet normal 0.000204 -0.000465 -0.000493
  outer loop
    vertex 0.052822 0.187500 -0.137028
    vertex 0.045776 0.140500 -0.095606
    vertex 0.035297 0.140500 -0.099951
  endloop
endfacet
facet normal 0.000202 -0.000553 -0.000606
  outer loop
    vertex 0.052822 0.187500 -0.137028
    vertex 0.035297 0.140500 -0.099951
    vertex 0.039935 0.187500 -0.141322
  endloop
endfacet
facet normal 0.000150 -0.000465 -0.000512
  outer loop
    vertex 0.039935 0.187500 -0.141322
    vertex 0.035297 0.140500 -0.099951
    vertex 0.024413 0.140500 -0.103150
  endloop
endfacet
facet normal 0.000145 -0.000553 -0.000622
  outer loop
    vertex 0.039935 0.187500 -0.141322
    vertex 0.024413 0.140500 -0.103150
    vertex 0.026707 0.187500 -0.144408
  endloop
endfacet
facet normal 0.000095 -0.000465 -0.000525
  outer loop
    vertex 0.026707 0.187500 -0.144408
    vertex 0.024413 0.140500 -0.103150
    vertex 0.013250 0.140500 -0.105169
  endloop
endfacet
facet normal 0.000020 -0.000122 -0.000139
  outer loop
    vertex 0.026707 0.187500 -0.144408
    vertex 0.013250 0.140500 -0.105169
    vertex 0.013250 0.150857 -0.114237
  endloop
endfacet
facet normal 0.000021 -0.000132 -0.000151
  outer loop
    vertex 0.013250 0.150857 -0.114237
    vertex 0.013250 0.162067 -0.124042
    vertex 0.026707 0.187500 -0.144408
  endloop
endfacet
facet normal 0.000011 -0.000070 -0.000080
  outer loop
    vertex 0.026707 0.187500 -0.144408
    vertex 0.013250 0.162067 -0.124042
    vertex 0.013250 0.168025 -0.129250
  endloop
endfacet
facet normal 0.000012 -0.000073 -0.000084
  outer loop
    vertex 0.026707 0.187500 -0.144408
    vertex 0.013250 0.168025 -0.129250
    vertex 0.013250 0.174239 -0.134678
  endloop
endfacet
facet normal 0.000012 -0.000076 -0.000087
  outer loop
    vertex 0.013250 0.174239 -0.134678
    vertex 0.013250 0.180724 -0.140342
    vertex 0.026707 0.187500 -0.144408
  endloop
endfacet
facet normal 0.000013 -0.000080 -0.000091
  outer loop
    vertex 0.026707 0.187500 -0.144408
    vertex 0.013250 0.180724 -0.140342
    vertex 0.013250 0.187500 -0.146258
  endloop
endfacet
endsolid 41e9f57f-2d7d-41bd-9241-fb74fbd1e8c4-ascii.stl
