solid 51041488-681d-4026-845c-560fee684338-ascii.stl
facet normal -0.001461 0.000000 -0.000000
  outer loop
    vertex 0.010125 0.312500 0.124924
    vertex 0.010125 0.312500 -0.124924
    vertex 0.010125 0.306654 0.119824
  endloop
endfacet
facet normal -0.001401 0.000000 0.000000
  outer loop
    vertex 0.010125 0.306654 0.119824
    vertex 0.010125 0.312500 -0.124924
    vertex 0.010125 0.306654 -0.119824
  endloop
endfacet
facet normal -0.001340 0.000000 -0.000000
  outer loop
    vertex 0.010125 0.306654 0.119824
    vertex 0.010125 0.306654 -0.119824
    vertex 0.010125 0.301060 0.114944
  endloop
endfacet
facet normal -0.001286 0.000000 0.000000
  outer loop
    vertex 0.010125 0.301060 0.114944
    vertex 0.010125 0.306654 -0.119824
    vertex 0.010125 0.301060 -0.114944
  endloop
endfacet
facet normal -0.002412 0.000000 -0.000000
  outer loop
    vertex 0.010125 0.301060 0.114944
    vertex 0.010125 0.301060 -0.114944
    vertex 0.010125 0.290569 0.105786
  endloop
endfacet
facet normal -0.002220 0.000000 0.000000
  outer loop
    vertex 0.010125 0.290569 0.105786
    vertex 0.010125 0.301060 -0.114944
    vertex 0.010125 0.290569 -0.105786
  endloop
endfacet
facet normal -0.002043 0.000000 -0.000000
  outer loop
    vertex 0.010125 0.290569 0.105786
    vertex 0.010125 0.290569 -0.105786
    vertex 0.010125 0.280914 0.097351
  endloop
endfacet
facet normal -0.001880 0.000000 0.000000
  outer loop
    vertex 0.010125 0.280914 0.097351
    vertex 0.010125 0.290569 -0.105786
    vertex 0.010125 0.280914 -0.097351
  endloop
endfacet
facet normal -0.001736 0.000000 -0.000000
  outer loop
    vertex 0.010125 0.280914 0.097351
    vertex 0.010125 0.280914 -0.097351
    vertex 0.010125 0.272000 0.089557
  endloop
endfacet
facet normal -0.001597 0.000000 0.000000
  outer loop
    vertex 0.010125 0.272000 0.089557
    vertex 0.010125 0.280914 -0.097351
    vertex 0.010125 0.272000 -0.089557
  endloop
endfacet
facet normal 0.001597 -0.000000 0.000000
  outer loop
    vertex -0.010125 0.272000 0.089557
    vertex -0.010125 0.272000 -0.089557
    vertex -0.010125 0.280914 0.097351
  endloop
endfacet
facet normal 0.001736 0.000000 0.000000
  outer loop
    vertex -0.010125 0.280914 0.097351
    vertex -0.010125 0.272000 -0.089557
    vertex -0.010125 0.280914 -0.097351
  endloop
endfacet
facet normal 0.001880 -0.000000 0.000000
  outer loop
    vertex -0.010125 0.280914 0.097351
    vertex -0.010125 0.280914 -0.097351
    vertex -0.010125 0.290569 0.105786
  endloop
endfacet
facet normal 0.002043 0.000000 0.000000
  outer loop
    vertex -0.010125 0.290569 0.105786
    vertex -0.010125 0.280914 -0.097351
    vertex -0.010125 0.290569 -0.105786
  endloop
endfacet
facet normal 0.002220 -0.000000 0.000000
  outer loop
    vertex -0.010125 0.290569 0.105786
    vertex -0.010125 0.290569 -0.105786
    vertex -0.010125 0.301060 0.114944
  endloop
endfacet
facet normal 0.002412 0.000000 0.000000
  outer loop
    vertex -0.010125 0.301060 0.114944
    vertex -0.010125 0.290569 -0.105786
    vertex -0.010125 0.301060 -0.114944
  endloop
endfacet
facet normal 0.001286 -0.000000 0.000000
  outer loop
    vertex -0.010125 0.301060 0.114944
    vertex -0.010125 0.301060 -0.114944
    vertex -0.010125 0.306654 0.119824
  endloop
endfacet
facet normal 0.001340 0.000000 0.000000
  outer loop
    vertex -0.010125 0.306654 0.119824
    vertex -0.010125 0.301060 -0.114944
    vertex -0.010125 0.306654 -0.119824
  endloop
endfacet
facet normal 0.001401 -0.000000 0.000000
  outer loop
    vertex -0.010125 0.306654 0.119824
    vertex -0.010125 0.306654 -0.119824
    vertex -0.010125 0.312500 0.124924
  endloop
endfacet
facet normal 0.001461 0.000000 0.000000
  outer loop
    vertex -0.010125 0.312500 0.124924
    vertex -0.010125 0.306654 -0.119824
    vertex -0.010125 0.312500 -0.124924
  endloop
endfacet
facet normal 0.000000 0.001208 0.000000
  outer loop
    vertex 0.010125 0.272000 0.089557
    vertex 0.010125 0.272000 -0.089557
    vertex 0.003381 0.272000 0.090064
  endloop
endfacet
facet normal 0.000000 0.001215 0.000000
  outer loop
    vertex 0.003381 0.272000 0.090064
    vertex 0.010125 0.272000 -0.089557
    vertex 0.003381 0.272000 -0.090064
  endloop
endfacet
facet normal 0.000000 0.001218 0.000000
  outer loop
    vertex 0.003381 0.272000 0.090064
    vertex 0.003381 0.272000 -0.090064
    vertex -0.003381 0.272000 0.090064
  endloop
endfacet
facet normal 0.000000 0.001218 0.000000
  outer loop
    vertex -0.003381 0.272000 0.090064
    vertex 0.003381 0.272000 -0.090064
    vertex -0.003381 0.272000 -0.090064
  endloop
endfacet
facet normal 0.000000 0.001215 0.000000
  outer loop
    vertex -0.003381 0.272000 0.090064
    vertex -0.003381 0.272000 -0.090064
    vertex -0.010125 0.272000 0.089557
  endloop
endfacet
facet normal 0.000000 0.001208 0.000000
  outer loop
    vertex -0.010125 0.272000 0.089557
    vertex -0.003381 0.272000 -0.090064
    vertex -0.010125 0.272000 -0.089557
  endloop
endfacet
facet normal 0.000508 -0.000443 -0.000031
  outer loop
    vertex 0.080386 0.261500 -0.009954
    vertex 0.124716 0.312500 -0.012429
    vertex 0.081000 0.261500 0.000000
  endloop
endfacet
facet normal 0.000634 -0.000551 -0.000032
  outer loop
    vertex 0.081000 0.261500 0.000000
    vertex 0.124716 0.312500 -0.012429
    vertex 0.125334 0.312500 0.000000
  endloop
endfacet
facet normal 0.000634 -0.000551 0.000032
  outer loop
    vertex 0.081000 0.261500 0.000000
    vertex 0.125334 0.312500 0.000000
    vertex 0.124716 0.312500 0.012429
  endloop
endfacet
facet normal 0.000628 -0.000550 -0.000094
  outer loop
    vertex 0.124716 0.312500 -0.012429
    vertex 0.080386 0.261500 -0.009954
    vertex 0.122869 0.312500 -0.024735
  endloop
endfacet
facet normal 0.000500 -0.000444 -0.000093
  outer loop
    vertex 0.122869 0.312500 -0.024735
    vertex 0.080386 0.261500 -0.009954
    vertex 0.078554 0.261500 -0.019757
  endloop
endfacet
facet normal 0.000615 -0.000550 -0.000156
  outer loop
    vertex 0.122869 0.312500 -0.024735
    vertex 0.078554 0.261500 -0.019757
    vertex 0.119810 0.312500 -0.036797
  endloop
endfacet
facet normal 0.000485 -0.000444 -0.000154
  outer loop
    vertex 0.119810 0.312500 -0.036797
    vertex 0.078554 0.261500 -0.019757
    vertex 0.075530 0.261500 -0.029261
  endloop
endfacet
facet normal 0.000597 -0.000550 -0.000216
  outer loop
    vertex 0.119810 0.312500 -0.036797
    vertex 0.075530 0.261500 -0.029261
    vertex 0.115571 0.312500 -0.048497
  endloop
endfacet
facet normal 0.000462 -0.000443 -0.000213
  outer loop
    vertex 0.115571 0.312500 -0.048497
    vertex 0.075530 0.261500 -0.029261
    vertex 0.071362 0.261500 -0.038321
  endloop
endfacet
facet normal 0.000572 -0.000551 -0.000274
  outer loop
    vertex 0.115571 0.312500 -0.048497
    vertex 0.071362 0.261500 -0.038321
    vertex 0.110192 0.312500 -0.059718
  endloop
endfacet
facet normal 0.000542 -0.000551 -0.000330
  outer loop
    vertex 0.110192 0.312500 -0.059718
    vertex 0.071362 0.261500 -0.038321
    vertex 0.103727 0.312500 -0.070351
  endloop
endfacet
facet normal 0.000432 -0.000443 -0.000268
  outer loop
    vertex 0.103727 0.312500 -0.070351
    vertex 0.071362 0.261500 -0.038321
    vertex 0.066112 0.261500 -0.046800
  endloop
endfacet
facet normal 0.000507 -0.000550 -0.000382
  outer loop
    vertex 0.103727 0.312500 -0.070351
    vertex 0.066112 0.261500 -0.046800
    vertex 0.096239 0.312500 -0.080290
  endloop
endfacet
facet normal 0.000396 -0.000443 -0.000319
  outer loop
    vertex 0.096239 0.312500 -0.080290
    vertex 0.066112 0.261500 -0.046800
    vertex 0.059860 0.261500 -0.054569
  endloop
endfacet
facet normal 0.000467 -0.000550 -0.000430
  outer loop
    vertex 0.096239 0.312500 -0.080290
    vertex 0.059860 0.261500 -0.054569
    vertex 0.087803 0.312500 -0.089438
  endloop
endfacet
facet normal 0.000354 -0.000444 -0.000365
  outer loop
    vertex 0.087803 0.312500 -0.089438
    vertex 0.059860 0.261500 -0.054569
    vertex 0.052700 0.261500 -0.061512
  endloop
endfacet
facet normal 0.000422 -0.000550 -0.000474
  outer loop
    vertex 0.087803 0.312500 -0.089438
    vertex 0.052700 0.261500 -0.061512
    vertex 0.078501 0.312500 -0.097704
  endloop
endfacet
facet normal 0.000307 -0.000443 -0.000406
  outer loop
    vertex 0.078501 0.312500 -0.097704
    vertex 0.052700 0.261500 -0.061512
    vertex 0.044742 0.261500 -0.067522
  endloop
endfacet
facet normal 0.000372 -0.000551 -0.000514
  outer loop
    vertex 0.078501 0.312500 -0.097704
    vertex 0.044742 0.261500 -0.067522
    vertex 0.068425 0.312500 -0.105007
  endloop
endfacet
facet normal 0.000320 -0.000551 -0.000548
  outer loop
    vertex 0.068425 0.312500 -0.105007
    vertex 0.044742 0.261500 -0.067522
    vertex 0.057675 0.312500 -0.111275
  endloop
endfacet
facet normal 0.000254 -0.000442 -0.000440
  outer loop
    vertex 0.057675 0.312500 -0.111275
    vertex 0.044742 0.261500 -0.067522
    vertex 0.036105 0.261500 -0.072508
  endloop
endfacet
facet normal 0.000264 -0.000550 -0.000577
  outer loop
    vertex 0.057675 0.312500 -0.111275
    vertex 0.036105 0.261500 -0.072508
    vertex 0.046356 0.312500 -0.116446
  endloop
endfacet
facet normal 0.000198 -0.000443 -0.000468
  outer loop
    vertex 0.046356 0.312500 -0.116446
    vertex 0.036105 0.261500 -0.072508
    vertex 0.026921 0.261500 -0.076396
  endloop
endfacet
facet normal 0.000205 -0.000550 -0.000601
  outer loop
    vertex 0.046356 0.312500 -0.116446
    vertex 0.026921 0.261500 -0.076396
    vertex 0.034580 0.312500 -0.120469
  endloop
endfacet
facet normal 0.000139 -0.000444 -0.000489
  outer loop
    vertex 0.034580 0.312500 -0.120469
    vertex 0.026921 0.261500 -0.076396
    vertex 0.017329 0.261500 -0.079125
  endloop
endfacet
facet normal 0.000145 -0.000550 -0.000618
  outer loop
    vertex 0.034580 0.312500 -0.120469
    vertex 0.017329 0.261500 -0.079125
    vertex 0.022463 0.312500 -0.123304
  endloop
endfacet
facet normal 0.000068 -0.000372 -0.000421
  outer loop
    vertex 0.022463 0.312500 -0.123304
    vertex 0.017329 0.261500 -0.079125
    vertex 0.010125 0.272000 -0.089557
  endloop
endfacet
facet normal 0.000066 -0.000436 -0.000500
  outer loop
    vertex 0.022463 0.312500 -0.123304
    vertex 0.010125 0.272000 -0.089557
    vertex 0.010125 0.312500 -0.124924
  endloop
endfacet
facet normal 0.000000 0.000000 0.000000
  outer loop
    vertex 0.010125 0.312500 -0.124924
    vertex 0.010125 0.272000 -0.089557
    vertex 0.010125 0.280914 -0.097351
  endloop
endfacet
facet normal 0.000000 0.000000 0.000000
  outer loop
    vertex 0.010125 0.312500 -0.124924
    vertex 0.010125 0.280914 -0.097351
    vertex 0.010125 0.290569 -0.105786
  endloop
endfacet
facet normal 0.000016 -0.000092 -0.000103
  outer loop
    vertex 0.017329 0.261500 -0.079125
    vertex 0.007474 0.261500 -0.080654
    vertex 0.010125 0.272000 -0.089557
  endloop
endfacet
facet normal 0.000005 -0.000061 -0.000071
  outer loop
    vertex 0.010125 0.272000 -0.089557
    vertex 0.007474 0.261500 -0.080654
    vertex 0.003381 0.272000 -0.090064
  endloop
endfacet
facet normal 0.000003 -0.000093 -0.000105
  outer loop
    vertex 0.003381 0.272000 -0.090064
    vertex 0.007474 0.261500 -0.080654
    vertex -0.002494 0.261500 -0.080962
  endloop
endfacet
facet normal -0.000000 -0.000062 -0.000071
  outer loop
    vertex 0.003381 0.272000 -0.090064
    vertex -0.002494 0.261500 -0.080962
    vertex -0.003381 0.272000 -0.090064
  endloop
endfacet
facet normal -0.000005 -0.000062 -0.000071
  outer loop
    vertex -0.003381 0.272000 -0.090064
    vertex -0.002494 0.261500 -0.080962
    vertex -0.010125 0.272000 -0.089557
  endloop
endfacet
facet normal -0.000010 -0.000092 -0.000104
  outer loop
    vertex -0.010125 0.272000 -0.089557
    vertex -0.002494 0.261500 -0.080962
    vertex -0.012425 0.261500 -0.080041
  endloop
endfacet
facet normal -0.000031 -0.000195 -0.000223
  outer loop
    vertex -0.010125 0.272000 -0.089557
    vertex -0.012425 0.261500 -0.080041
    vertex -0.022463 0.312500 -0.123304
  endloop
endfacet
facet normal -0.000109 -0.000443 -0.000497
  outer loop
    vertex -0.022463 0.312500 -0.123304
    vertex -0.012425 0.261500 -0.080041
    vertex -0.022167 0.261500 -0.077908
  endloop
endfacet
facet normal -0.000145 -0.000551 -0.000618
  outer loop
    vertex -0.022463 0.312500 -0.123304
    vertex -0.022167 0.261500 -0.077908
    vertex -0.034580 0.312500 -0.120469
  endloop
endfacet
facet normal -0.000205 -0.000551 -0.000601
  outer loop
    vertex -0.034580 0.312500 -0.120469
    vertex -0.022167 0.261500 -0.077908
    vertex -0.046356 0.312500 -0.116446
  endloop
endfacet
facet normal -0.000169 -0.000443 -0.000480
  outer loop
    vertex -0.046356 0.312500 -0.116446
    vertex -0.022167 0.261500 -0.077908
    vertex -0.031573 0.261500 -0.074593
  endloop
endfacet
facet normal -0.000264 -0.000550 -0.000577
  outer loop
    vertex -0.046356 0.312500 -0.116446
    vertex -0.031573 0.261500 -0.074593
    vertex -0.057675 0.312500 -0.111275
  endloop
endfacet
facet normal -0.000227 -0.000444 -0.000455
  outer loop
    vertex -0.057675 0.312500 -0.111275
    vertex -0.031573 0.261500 -0.074593
    vertex -0.040500 0.261500 -0.070148
  endloop
endfacet
facet normal -0.000320 -0.000550 -0.000548
  outer loop
    vertex -0.057675 0.312500 -0.111275
    vertex -0.040500 0.261500 -0.070148
    vertex -0.068425 0.312500 -0.105007
  endloop
endfacet
facet normal -0.000281 -0.000444 -0.000424
  outer loop
    vertex -0.068425 0.312500 -0.105007
    vertex -0.040500 0.261500 -0.070148
    vertex -0.048813 0.261500 -0.064639
  endloop
endfacet
facet normal -0.000372 -0.000550 -0.000514
  outer loop
    vertex -0.068425 0.312500 -0.105007
    vertex -0.048813 0.261500 -0.064639
    vertex -0.078501 0.312500 -0.097704
  endloop
endfacet
facet normal -0.000331 -0.000443 -0.000386
  outer loop
    vertex -0.078501 0.312500 -0.097704
    vertex -0.048813 0.261500 -0.064639
    vertex -0.056387 0.261500 -0.058151
  endloop
endfacet
facet normal -0.000422 -0.000551 -0.000474
  outer loop
    vertex -0.078501 0.312500 -0.097704
    vertex -0.056387 0.261500 -0.058151
    vertex -0.087803 0.312500 -0.089438
  endloop
endfacet
facet normal -0.000467 -0.000551 -0.000430
  outer loop
    vertex -0.087803 0.312500 -0.089438
    vertex -0.056387 0.261500 -0.058151
    vertex -0.096239 0.312500 -0.080290
  endloop
endfacet
facet normal -0.000376 -0.000442 -0.000343
  outer loop
    vertex -0.096239 0.312500 -0.080290
    vertex -0.056387 0.261500 -0.058151
    vertex -0.063106 0.261500 -0.050781
  endloop
endfacet
facet normal -0.000507 -0.000550 -0.000382
  outer loop
    vertex -0.096239 0.312500 -0.080290
    vertex -0.063106 0.261500 -0.050781
    vertex -0.103727 0.312500 -0.070351
  endloop
endfacet
facet normal -0.000415 -0.000443 -0.000294
  outer loop
    vertex -0.103727 0.312500 -0.070351
    vertex -0.063106 0.261500 -0.050781
    vertex -0.068868 0.261500 -0.042641
  endloop
endfacet
facet normal -0.000542 -0.000550 -0.000330
  outer loop
    vertex -0.103727 0.312500 -0.070351
    vertex -0.068868 0.261500 -0.042641
    vertex -0.110192 0.312500 -0.059718
  endloop
endfacet
facet normal -0.000448 -0.000444 -0.000241
  outer loop
    vertex -0.110192 0.312500 -0.059718
    vertex -0.068868 0.261500 -0.042641
    vertex -0.073586 0.261500 -0.033855
  endloop
endfacet
facet normal -0.000572 -0.000550 -0.000274
  outer loop
    vertex -0.110192 0.312500 -0.059718
    vertex -0.073586 0.261500 -0.033855
    vertex -0.115571 0.312500 -0.048497
  endloop
endfacet
facet normal -0.000474 -0.000443 -0.000184
  outer loop
    vertex -0.115571 0.312500 -0.048497
    vertex -0.073586 0.261500 -0.033855
    vertex -0.077188 0.261500 -0.024555
  endloop
endfacet
facet normal -0.000597 -0.000551 -0.000216
  outer loop
    vertex -0.115571 0.312500 -0.048497
    vertex -0.077188 0.261500 -0.024555
    vertex -0.119810 0.312500 -0.036797
  endloop
endfacet
facet normal -0.000615 -0.000552 -0.000156
  outer loop
    vertex -0.119810 0.312500 -0.036797
    vertex -0.077188 0.261500 -0.024555
    vertex -0.122869 0.312500 -0.024735
  endloop
endfacet
facet normal -0.000493 -0.000442 -0.000124
  outer loop
    vertex -0.122869 0.312500 -0.024735
    vertex -0.077188 0.261500 -0.024555
    vertex -0.079621 0.261500 -0.014884
  endloop
endfacet
facet normal -0.000628 -0.000550 -0.000094
  outer loop
    vertex -0.122869 0.312500 -0.024735
    vertex -0.079621 0.261500 -0.014884
    vertex -0.124716 0.312500 -0.012429
  endloop
endfacet
facet normal -0.000505 -0.000443 -0.000063
  outer loop
    vertex -0.124716 0.312500 -0.012429
    vertex -0.079621 0.261500 -0.014884
    vertex -0.080846 0.261500 -0.004986
  endloop
endfacet
facet normal -0.000634 -0.000550 -0.000032
  outer loop
    vertex -0.124716 0.312500 -0.012429
    vertex -0.080846 0.261500 -0.004986
    vertex -0.125334 0.312500 0.000000
  endloop
endfacet
facet normal -0.000509 -0.000444 0.000000
  outer loop
    vertex -0.125334 0.312500 0.000000
    vertex -0.080846 0.261500 -0.004986
    vertex -0.080846 0.261500 0.004986
  endloop
endfacet
facet normal -0.000634 -0.000550 0.000032
  outer loop
    vertex -0.125334 0.312500 0.000000
    vertex -0.080846 0.261500 0.004986
    vertex -0.124716 0.312500 0.012429
  endloop
endfacet
facet normal -0.000505 -0.000443 0.000063
  outer loop
    vertex -0.124716 0.312500 0.012429
    vertex -0.080846 0.261500 0.004986
    vertex -0.079621 0.261500 0.014884
  endloop
endfacet
facet normal -0.000628 -0.000550 0.000094
  outer loop
    vertex -0.124716 0.312500 0.012429
    vertex -0.079621 0.261500 0.014884
    vertex -0.122869 0.312500 0.024735
  endloop
endfacet
facet normal -0.000493 -0.000442 0.000124
  outer loop
    vertex -0.122869 0.312500 0.024735
    vertex -0.079621 0.261500 0.014884
    vertex -0.077188 0.261500 0.024555
  endloop
endfacet
facet normal -0.000615 -0.000552 0.000156
  outer loop
    vertex -0.122869 0.312500 0.024735
    vertex -0.077188 0.261500 0.024555
    vertex -0.119810 0.312500 0.036797
  endloop
endfacet
facet normal -0.000597 -0.000551 0.000216
  outer loop
    vertex -0.119810 0.312500 0.036797
    vertex -0.077188 0.261500 0.024555
    vertex -0.115571 0.312500 0.048497
  endloop
endfacet
facet normal -0.000474 -0.000443 0.000184
  outer loop
    vertex -0.115571 0.312500 0.048497
    vertex -0.077188 0.261500 0.024555
    vertex -0.073586 0.261500 0.033855
  endloop
endfacet
facet normal -0.000572 -0.000550 0.000274
  outer loop
    vertex -0.115571 0.312500 0.048497
    vertex -0.073586 0.261500 0.033855
    vertex -0.110192 0.312500 0.059718
  endloop
endfacet
facet normal -0.000448 -0.000444 0.000241
  outer loop
    vertex -0.110192 0.312500 0.059718
    vertex -0.073586 0.261500 0.033855
    vertex -0.068868 0.261500 0.042641
  endloop
endfacet
facet normal -0.000542 -0.000550 0.000330
  outer loop
    vertex -0.110192 0.312500 0.059718
    vertex -0.068868 0.261500 0.042641
    vertex -0.103727 0.312500 0.070351
  endloop
endfacet
facet normal -0.000415 -0.000443 0.000294
  outer loop
    vertex -0.103727 0.312500 0.070351
    vertex -0.068868 0.261500 0.042641
    vertex -0.063106 0.261500 0.050781
  endloop
endfacet
facet normal -0.000507 -0.000550 0.000382
  outer loop
    vertex -0.103727 0.312500 0.070351
    vertex -0.063106 0.261500 0.050781
    vertex -0.096239 0.312500 0.080290
  endloop
endfacet
facet normal -0.000376 -0.000442 0.000343
  outer loop
    vertex -0.096239 0.312500 0.080290
    vertex -0.063106 0.261500 0.050781
    vertex -0.056387 0.261500 0.058151
  endloop
endfacet
facet normal -0.000467 -0.000551 0.000430
  outer loop
    vertex -0.096239 0.312500 0.080290
    vertex -0.056387 0.261500 0.058151
    vertex -0.087803 0.312500 0.089438
  endloop
endfacet
facet normal -0.000422 -0.000551 0.000474
  outer loop
    vertex -0.087803 0.312500 0.089438
    vertex -0.056387 0.261500 0.058151
    vertex -0.078501 0.312500 0.097704
  endloop
endfacet
facet normal -0.000331 -0.000443 0.000386
  outer loop
    vertex -0.078501 0.312500 0.097704
    vertex -0.056387 0.261500 0.058151
    vertex -0.048813 0.261500 0.064639
  endloop
endfacet
facet normal -0.000372 -0.000550 0.000514
  outer loop
    vertex -0.078501 0.312500 0.097704
    vertex -0.048813 0.261500 0.064639
    vertex -0.068425 0.312500 0.105007
  endloop
endfacet
facet normal -0.000281 -0.000444 0.000424
  outer loop
    vertex -0.068425 0.312500 0.105007
    vertex -0.048813 0.261500 0.064639
    vertex -0.040500 0.261500 0.070148
  endloop
endfacet
facet normal -0.000320 -0.000550 0.000548
  outer loop
    vertex -0.068425 0.312500 0.105007
    vertex -0.040500 0.261500 0.070148
    vertex -0.057675 0.312500 0.111275
  endloop
endfacet
facet normal -0.000227 -0.000444 0.000455
  outer loop
    vertex -0.057675 0.312500 0.111275
    vertex -0.040500 0.261500 0.070148
    vertex -0.031573 0.261500 0.074593
  endloop
endfacet
facet normal -0.000264 -0.000550 0.000577
  outer loop
    vertex -0.057675 0.312500 0.111275
    vertex -0.031573 0.261500 0.074593
    vertex -0.046356 0.312500 0.116446
  endloop
endfacet
facet normal -0.000169 -0.000443 0.000480
  outer loop
    vertex -0.046356 0.312500 0.116446
    vertex -0.031573 0.261500 0.074593
    vertex -0.022167 0.261500 0.077908
  endloop
endfacet
facet normal -0.000205 -0.000551 0.000601
  outer loop
    vertex -0.046356 0.312500 0.116446
    vertex -0.022167 0.261500 0.077908
    vertex -0.034580 0.312500 0.120469
  endloop
endfacet
facet normal -0.000145 -0.000551 0.000618
  outer loop
    vertex -0.034580 0.312500 0.120469
    vertex -0.022167 0.261500 0.077908
    vertex -0.022463 0.312500 0.123304
  endloop
endfacet
facet normal -0.000109 -0.000443 0.000497
  outer loop
    vertex -0.022463 0.312500 0.123304
    vertex -0.022167 0.261500 0.077908
    vertex -0.012425 0.261500 0.080041
  endloop
endfacet
facet normal -0.000031 -0.000195 0.000223
  outer loop
    vertex -0.022463 0.312500 0.123304
    vertex -0.012425 0.261500 0.080041
    vertex -0.010125 0.272000 0.089557
  endloop
endfacet
facet normal -0.000010 -0.000092 0.000104
  outer loop
    vertex -0.010125 0.272000 0.089557
    vertex -0.012425 0.261500 0.080041
    vertex -0.002494 0.261500 0.080962
  endloop
endfacet
facet normal -0.000005 -0.000062 0.000071
  outer loop
    vertex -0.010125 0.272000 0.089557
    vertex -0.002494 0.261500 0.080962
    vertex -0.003381 0.272000 0.090064
  endloop
endfacet
facet normal 0.000000 -0.000062 0.000071
  outer loop
    vertex -0.003381 0.272000 0.090064
    vertex -0.002494 0.261500 0.080962
    vertex 0.003381 0.272000 0.090064
  endloop
endfacet
facet normal 0.000003 -0.000093 0.000105
  outer loop
    vertex 0.003381 0.272000 0.090064
    vertex -0.002494 0.261500 0.080962
    vertex 0.007474 0.261500 0.080654
  endloop
endfacet
facet normal 0.000005 -0.000061 0.000071
  outer loop
    vertex 0.003381 0.272000 0.090064
    vertex 0.007474 0.261500 0.080654
    vertex 0.010125 0.272000 0.089557
  endloop
endfacet
facet normal 0.000016 -0.000092 0.000103
  outer loop
    vertex 0.010125 0.272000 0.089557
    vertex 0.007474 0.261500 0.080654
    vertex 0.017329 0.261500 0.079125
  endloop
endfacet
facet normal 0.000068 -0.000372 0.000421
  outer loop
    vertex 0.010125 0.272000 0.089557
    vertex 0.017329 0.261500 0.079125
    vertex 0.022463 0.312500 0.123304
  endloop
endfacet
facet normal 0.000145 -0.000550 0.000618
  outer loop
    vertex 0.022463 0.312500 0.123304
    vertex 0.017329 0.261500 0.079125
    vertex 0.034580 0.312500 0.120469
  endloop
endfacet
facet normal 0.000139 -0.000444 0.000489
  outer loop
    vertex 0.034580 0.312500 0.120469
    vertex 0.017329 0.261500 0.079125
    vertex 0.026921 0.261500 0.076396
  endloop
endfacet
facet normal 0.000205 -0.000550 0.000601
  outer loop
    vertex 0.034580 0.312500 0.120469
    vertex 0.026921 0.261500 0.076396
    vertex 0.046356 0.312500 0.116446
  endloop
endfacet
facet normal 0.000198 -0.000443 0.000468
  outer loop
    vertex 0.046356 0.312500 0.116446
    vertex 0.026921 0.261500 0.076396
    vertex 0.036105 0.261500 0.072508
  endloop
endfacet
facet normal 0.000264 -0.000550 0.000577
  outer loop
    vertex 0.046356 0.312500 0.116446
    vertex 0.036105 0.261500 0.072508
    vertex 0.057675 0.312500 0.111275
  endloop
endfacet
facet normal 0.000254 -0.000442 0.000440
  outer loop
    vertex 0.057675 0.312500 0.111275
    vertex 0.036105 0.261500 0.072508
    vertex 0.044742 0.261500 0.067522
  endloop
endfacet
facet normal 0.000320 -0.000551 0.000548
  outer loop
    vertex 0.057675 0.312500 0.111275
    vertex 0.044742 0.261500 0.067522
    vertex 0.068425 0.312500 0.105007
  endloop
endfacet
facet normal 0.000372 -0.000551 0.000514
  outer loop
    vertex 0.068425 0.312500 0.105007
    vertex 0.044742 0.261500 0.067522
    vertex 0.078501 0.312500 0.097704
  endloop
endfacet
facet normal 0.000307 -0.000443 0.000406
  outer loop
    vertex 0.078501 0.312500 0.097704
    vertex 0.044742 0.261500 0.067522
    vertex 0.052700 0.261500 0.061512
  endloop
endfacet
facet normal 0.000422 -0.000550 0.000474
  outer loop
    vertex 0.078501 0.312500 0.097704
    vertex 0.052700 0.261500 0.061512
    vertex 0.087803 0.312500 0.089438
  endloop
endfacet
facet normal 0.000354 -0.000444 0.000365
  outer loop
    vertex 0.087803 0.312500 0.089438
    vertex 0.052700 0.261500 0.061512
    vertex 0.059860 0.261500 0.054569
  endloop
endfacet
facet normal 0.000467 -0.000550 0.000430
  outer loop
    vertex 0.087803 0.312500 0.089438
    vertex 0.059860 0.261500 0.054569
    vertex 0.096239 0.312500 0.080290
  endloop
endfacet
facet normal 0.000396 -0.000443 0.000319
  outer loop
    vertex 0.096239 0.312500 0.080290
    vertex 0.059860 0.261500 0.054569
    vertex 0.066112 0.261500 0.046800
  endloop
endfacet
facet normal 0.000507 -0.000550 0.000382
  outer loop
    vertex 0.096239 0.312500 0.080290
    vertex 0.066112 0.261500 0.046800
    vertex 0.103727 0.312500 0.070351
  endloop
endfacet
facet normal 0.000432 -0.000443 0.000268
  outer loop
    vertex 0.103727 0.312500 0.070351
    vertex 0.066112 0.261500 0.046800
    vertex 0.071362 0.261500 0.038321
  endloop
endfacet
facet normal 0.000542 -0.000551 0.000330
  outer loop
    vertex 0.103727 0.312500 0.070351
    vertex 0.071362 0.261500 0.038321
    vertex 0.110192 0.312500 0.059718
  endloop
endfacet
facet normal 0.000572 -0.000551 0.000274
  outer loop
    vertex 0.110192 0.312500 0.059718
    vertex 0.071362 0.261500 0.038321
    vertex 0.115571 0.312500 0.048497
  endloop
endfacet
facet normal 0.000462 -0.000443 0.000213
  outer loop
    vertex 0.115571 0.312500 0.048497
    vertex 0.071362 0.261500 0.038321
    vertex 0.075530 0.261500 0.029261
  endloop
endfacet
facet normal 0.000597 -0.000550 0.000216
  outer loop
    vertex 0.115571 0.312500 0.048497
    vertex 0.075530 0.261500 0.029261
    vertex 0.119810 0.312500 0.036797
  endloop
endfacet
facet normal 0.000485 -0.000444 0.000154
  outer loop
    vertex 0.119810 0.312500 0.036797
    vertex 0.075530 0.261500 0.029261
    vertex 0.078554 0.261500 0.019757
  endloop
endfacet
facet normal 0.000615 -0.000550 0.000156
  outer loop
    vertex 0.119810 0.312500 0.036797
    vertex 0.078554 0.261500 0.019757
    vertex 0.122869 0.312500 0.024735
  endloop
endfacet
facet normal 0.000500 -0.000444 0.000093
  outer loop
    vertex 0.122869 0.312500 0.024735
    vertex 0.078554 0.261500 0.019757
    vertex 0.080386 0.261500 0.009954
  endloop
endfacet
facet normal 0.000628 -0.000550 0.000094
  outer loop
    vertex 0.122869 0.312500 0.024735
    vertex 0.080386 0.261500 0.009954
    vertex 0.124716 0.312500 0.012429
  endloop
endfacet
facet normal 0.000508 -0.000443 0.000031
  outer loop
    vertex 0.124716 0.312500 0.012429
    vertex 0.080386 0.261500 0.009954
    vertex 0.081000 0.261500 0.000000
  endloop
endfacet
facet normal 0.000000 -0.000000 0.000000
  outer loop
    vertex 0.010125 0.306654 0.119824
    vertex 0.010125 0.301060 0.114944
    vertex 0.010125 0.312500 0.124924
  endloop
endfacet
facet normal 0.000000 0.000000 0.000000
  outer loop
    vertex 0.010125 0.312500 0.124924
    vertex 0.010125 0.301060 0.114944
    vertex 0.010125 0.290569 0.105786
  endloop
endfacet
facet normal 0.000000 0.000000 0.000000
  outer loop
    vertex 0.010125 0.312500 0.124924
    vertex 0.010125 0.290569 0.105786
    vertex 0.010125 0.280914 0.097351
  endloop
endfacet
facet normal 0.000000 -0.000000 0.000000
  outer loop
    vertex 0.010125 0.280914 0.097351
    vertex 0.010125 0.272000 0.089557
    vertex 0.010125 0.312500 0.124924
  endloop
endfacet
facet normal 0.000066 -0.000436 0.000500
  outer loop
    vertex 0.010125 0.312500 0.124924
    vertex 0.010125 0.272000 0.089557
    vertex 0.022463 0.312500 0.123304
  endloop
endfacet
facet normal -0.000066 -0.000436 0.000500
  outer loop
    vertex -0.022463 0.312500 0.123304
    vertex -0.010125 0.272000 0.089557
    vertex -0.010125 0.312500 0.124924
  endloop
endfacet
facet normal -0.000000 0.000000 0.000000
  outer loop
    vertex -0.010125 0.312500 0.124924
    vertex -0.010125 0.272000 0.089557
    vertex -0.010125 0.280914 0.097351
  endloop
endfacet
facet normal -0.000000 0.000000 0.000000
  outer loop
    vertex -0.010125 0.312500 0.124924
    vertex -0.010125 0.280914 0.097351
    vertex -0.010125 0.290569 0.105786
  endloop
endfacet
facet normal -0.000000 0.000000 0.000000
  outer loop
    vertex -0.010125 0.290569 0.105786
    vertex -0.010125 0.301060 0.114944
    vertex -0.010125 0.312500 0.124924
  endloop
endfacet
facet normal -0.000000 0.000000 0.000000
  outer loop
    vertex -0.010125 0.312500 0.124924
    vertex -0.010125 0.301060 0.114944
    vertex -0.010125 0.306654 0.119824
  endloop
endfacet
facet normal -0.000066 -0.000436 -0.000500
  outer loop
    vertex -0.022463 0.312500 -0.123304
    vertex -0.010125 0.312500 -0.124924
    vertex -0.010125 0.272000 -0.089557
  endloop
endfacet
facet normal -0.000000 0.000000 0.000000
  outer loop
    vertex -0.010125 0.272000 -0.089557
    vertex -0.010125 0.312500 -0.124924
    vertex -0.010125 0.280914 -0.097351
  endloop
endfacet
facet normal -0.000000 0.000000 0.000000
  outer loop
    vertex -0.010125 0.280914 -0.097351
    vertex -0.010125 0.312500 -0.124924
    vertex -0.010125 0.290569 -0.105786
  endloop
endfacet
facet normal -0.000000 0.000000 0.000000
  outer loop
    vertex -0.010125 0.290569 -0.105786
    vertex -0.010125 0.312500 -0.124924
    vertex -0.010125 0.301060 -0.114944
  endloop
endfacet
facet normal -0.000000 0.000000 0.000000
  outer loop
    vertex -0.010125 0.301060 -0.114944
    vertex -0.010125 0.312500 -0.124924
    vertex -0.010125 0.306654 -0.119824
  endloop
endfacet
facet normal 0.000000 0.000000 0.000000
  outer loop
    vertex 0.010125 0.290569 -0.105786
    vertex 0.010125 0.301060 -0.114944
    vertex 0.010125 0.312500 -0.124924
  endloop
endfacet
facet normal 0.000000 0.000000 0.000000
  outer loop
    vertex 0.010125 0.312500 -0.124924
    vertex 0.010125 0.301060 -0.114944
    vertex 0.010125 0.306654 -0.119824
  endloop
endfacet
facet normal 0.000000 0.003083 0.000000
  outer loop
    vertex -0.010125 0.312500 0.124924
    vertex -0.010125 0.312500 -0.124924
    vertex -0.022463 0.312500 0.123304
  endloop
endfacet
facet normal 0.000000 0.003043 0.000000
  outer loop
    vertex -0.022463 0.312500 0.123304
    vertex -0.010125 0.312500 -0.124924
    vertex -0.022463 0.312500 -0.123304
  endloop
endfacet
facet normal 0.000000 0.002988 0.000000
  outer loop
    vertex -0.022463 0.312500 0.123304
    vertex -0.022463 0.312500 -0.123304
    vertex -0.034580 0.312500 0.120469
  endloop
endfacet
facet normal 0.000000 0.002919 0.000000
  outer loop
    vertex -0.034580 0.312500 0.120469
    vertex -0.022463 0.312500 -0.123304
    vertex -0.034580 0.312500 -0.120469
  endloop
endfacet
facet normal 0.000000 0.002837 0.000000
  outer loop
    vertex -0.034580 0.312500 0.120469
    vertex -0.034580 0.312500 -0.120469
    vertex -0.046356 0.312500 0.116446
  endloop
endfacet
facet normal 0.000000 0.002743 0.000000
  outer loop
    vertex -0.046356 0.312500 0.116446
    vertex -0.034580 0.312500 -0.120469
    vertex -0.046356 0.312500 -0.116446
  endloop
endfacet
facet normal 0.000000 0.002636 0.000000
  outer loop
    vertex -0.046356 0.312500 0.116446
    vertex -0.046356 0.312500 -0.116446
    vertex -0.057675 0.312500 0.111275
  endloop
endfacet
facet normal 0.000000 0.002519 0.000000
  outer loop
    vertex -0.057675 0.312500 0.111275
    vertex -0.046356 0.312500 -0.116446
    vertex -0.057675 0.312500 -0.111275
  endloop
endfacet
facet normal 0.000000 0.002392 0.000000
  outer loop
    vertex -0.057675 0.312500 0.111275
    vertex -0.057675 0.312500 -0.111275
    vertex -0.068425 0.312500 0.105007
  endloop
endfacet
facet normal 0.000000 0.002258 0.000000
  outer loop
    vertex -0.068425 0.312500 0.105007
    vertex -0.057675 0.312500 -0.111275
    vertex -0.068425 0.312500 -0.105007
  endloop
endfacet
facet normal 0.000000 0.002116 0.000000
  outer loop
    vertex -0.068425 0.312500 0.105007
    vertex -0.068425 0.312500 -0.105007
    vertex -0.078501 0.312500 0.097704
  endloop
endfacet
facet normal 0.000000 0.001969 0.000000
  outer loop
    vertex -0.078501 0.312500 0.097704
    vertex -0.068425 0.312500 -0.105007
    vertex -0.078501 0.312500 -0.097704
  endloop
endfacet
facet normal 0.000000 0.001818 0.000000
  outer loop
    vertex -0.078501 0.312500 0.097704
    vertex -0.078501 0.312500 -0.097704
    vertex -0.087803 0.312500 0.089438
  endloop
endfacet
facet normal 0.000000 0.001664 0.000000
  outer loop
    vertex -0.087803 0.312500 0.089438
    vertex -0.078501 0.312500 -0.097704
    vertex -0.087803 0.312500 -0.089438
  endloop
endfacet
facet normal 0.000000 0.001509 0.000000
  outer loop
    vertex -0.087803 0.312500 0.089438
    vertex -0.087803 0.312500 -0.089438
    vertex -0.096239 0.312500 0.080290
  endloop
endfacet
facet normal 0.000000 0.001355 0.000000
  outer loop
    vertex -0.096239 0.312500 0.080290
    vertex -0.087803 0.312500 -0.089438
    vertex -0.096239 0.312500 -0.080290
  endloop
endfacet
facet normal 0.000000 0.001202 0.000000
  outer loop
    vertex -0.096239 0.312500 0.080290
    vertex -0.096239 0.312500 -0.080290
    vertex -0.103727 0.312500 0.070351
  endloop
endfacet
facet normal 0.000000 0.001054 0.000000
  outer loop
    vertex -0.103727 0.312500 0.070351
    vertex -0.096239 0.312500 -0.080290
    vertex -0.103727 0.312500 -0.070351
  endloop
endfacet
facet normal 0.000000 0.000910 0.000000
  outer loop
    vertex -0.103727 0.312500 0.070351
    vertex -0.103727 0.312500 -0.070351
    vertex -0.110192 0.312500 0.059718
  endloop
endfacet
facet normal 0.000000 0.000772 0.000000
  outer loop
    vertex -0.110192 0.312500 0.059718
    vertex -0.103727 0.312500 -0.070351
    vertex -0.110192 0.312500 -0.059718
  endloop
endfacet
facet normal 0.000000 0.000642 0.000000
  outer loop
    vertex -0.110192 0.312500 0.059718
    vertex -0.110192 0.312500 -0.059718
    vertex -0.115571 0.312500 0.048497
  endloop
endfacet
facet normal 0.000000 0.000522 0.000000
  outer loop
    vertex -0.115571 0.312500 0.048497
    vertex -0.110192 0.312500 -0.059718
    vertex -0.115571 0.312500 -0.048497
  endloop
endfacet
facet normal 0.000000 0.000411 0.000000
  outer loop
    vertex -0.115571 0.312500 0.048497
    vertex -0.115571 0.312500 -0.048497
    vertex -0.119810 0.312500 0.036797
  endloop
endfacet
facet normal 0.000000 0.000312 0.000000
  outer loop
    vertex -0.119810 0.312500 0.036797
    vertex -0.115571 0.312500 -0.048497
    vertex -0.119810 0.312500 -0.036797
  endloop
endfacet
facet normal 0.000000 0.000225 0.000000
  outer loop
    vertex -0.119810 0.312500 0.036797
    vertex -0.119810 0.312500 -0.036797
    vertex -0.122869 0.312500 0.024735
  endloop
endfacet
facet normal 0.000000 0.000151 0.000000
  outer loop
    vertex -0.122869 0.312500 0.024735
    vertex -0.119810 0.312500 -0.036797
    vertex -0.122869 0.312500 -0.024735
  endloop
endfacet
facet normal 0.000000 0.000091 0.000000
  outer loop
    vertex -0.122869 0.312500 0.024735
    vertex -0.122869 0.312500 -0.024735
    vertex -0.124716 0.312500 0.012429
  endloop
endfacet
facet normal 0.000000 0.000046 0.000000
  outer loop
    vertex -0.124716 0.312500 0.012429
    vertex -0.122869 0.312500 -0.024735
    vertex -0.124716 0.312500 -0.012429
  endloop
endfacet
facet normal 0.000000 0.000015 0.000000
  outer loop
    vertex -0.124716 0.312500 0.012429
    vertex -0.124716 0.312500 -0.012429
    vertex -0.125334 0.312500 0.000000
  endloop
endfacet
facet normal 0.000000 -0.000012 0.000000
  outer loop
    vertex 0.081000 0.000000 0.000000
    vertex 0.080386 0.000000 0.009954
    vertex 0.080386 0.000000 -0.009954
  endloop
endfacet
facet normal -0.000000 -0.000036 0.000000
  outer loop
    vertex 0.080386 0.000000 -0.009954
    vertex 0.080386 0.000000 0.009954
    vertex 0.078554 0.000000 -0.019757
  endloop
endfacet
facet normal 0.000000 -0.000072 0.000000
  outer loop
    vertex 0.078554 0.000000 -0.019757
    vertex 0.080386 0.000000 0.009954
    vertex 0.078554 0.000000 0.019757
  endloop
endfacet
facet normal -0.000000 -0.000119 0.000000
  outer loop
    vertex 0.078554 0.000000 -0.019757
    vertex 0.078554 0.000000 0.019757
    vertex 0.075530 0.000000 -0.029261
  endloop
endfacet
facet normal 0.000000 -0.000177 0.000000
  outer loop
    vertex 0.075530 0.000000 -0.029261
    vertex 0.078554 0.000000 0.019757
    vertex 0.075530 0.000000 0.029261
  endloop
endfacet
facet normal -0.000000 -0.000244 0.000000
  outer loop
    vertex 0.075530 0.000000 -0.029261
    vertex 0.075530 0.000000 0.029261
    vertex 0.071362 0.000000 -0.038321
  endloop
endfacet
facet normal 0.000000 -0.000319 0.000000
  outer loop
    vertex 0.071362 0.000000 -0.038321
    vertex 0.075530 0.000000 0.029261
    vertex 0.071362 0.000000 0.038321
  endloop
endfacet
facet normal -0.000000 -0.000402 0.000000
  outer loop
    vertex 0.071362 0.000000 -0.038321
    vertex 0.071362 0.000000 0.038321
    vertex 0.066112 0.000000 -0.046800
  endloop
endfacet
facet normal 0.000000 -0.000491 0.000000
  outer loop
    vertex 0.066112 0.000000 -0.046800
    vertex 0.071362 0.000000 0.038321
    vertex 0.066112 0.000000 0.046800
  endloop
endfacet
facet normal -0.000000 -0.000585 0.000000
  outer loop
    vertex 0.066112 0.000000 -0.046800
    vertex 0.066112 0.000000 0.046800
    vertex 0.059860 0.000000 -0.054569
  endloop
endfacet
facet normal 0.000000 -0.000682 0.000000
  outer loop
    vertex 0.059860 0.000000 -0.054569
    vertex 0.066112 0.000000 0.046800
    vertex 0.059860 0.000000 0.054569
  endloop
endfacet
facet normal -0.000000 -0.000781 0.000000
  outer loop
    vertex 0.059860 0.000000 -0.054569
    vertex 0.059860 0.000000 0.054569
    vertex 0.052700 0.000000 -0.061512
  endloop
endfacet
facet normal 0.000000 -0.000881 0.000000
  outer loop
    vertex 0.052700 0.000000 -0.061512
    vertex 0.059860 0.000000 0.054569
    vertex 0.052700 0.000000 0.061512
  endloop
endfacet
facet normal -0.000000 -0.000979 0.000000
  outer loop
    vertex 0.052700 0.000000 -0.061512
    vertex 0.052700 0.000000 0.061512
    vertex 0.044742 0.000000 -0.067522
  endloop
endfacet
facet normal 0.000000 -0.001075 0.000000
  outer loop
    vertex 0.044742 0.000000 -0.067522
    vertex 0.052700 0.000000 0.061512
    vertex 0.044742 0.000000 0.067522
  endloop
endfacet
facet normal -0.000000 -0.001166 0.000000
  outer loop
    vertex 0.044742 0.000000 -0.067522
    vertex 0.044742 0.000000 0.067522
    vertex 0.036105 0.000000 -0.072508
  endloop
endfacet
facet normal 0.000000 -0.001252 0.000000
  outer loop
    vertex 0.036105 0.000000 -0.072508
    vertex 0.044742 0.000000 0.067522
    vertex 0.036105 0.000000 0.072508
  endloop
endfacet
facet normal -0.000000 -0.001332 0.000000
  outer loop
    vertex 0.036105 0.000000 -0.072508
    vertex 0.036105 0.000000 0.072508
    vertex 0.026921 0.000000 -0.076396
  endloop
endfacet
facet normal 0.000000 -0.001403 0.000000
  outer loop
    vertex 0.026921 0.000000 -0.076396
    vertex 0.036105 0.000000 0.072508
    vertex 0.026921 0.000000 0.076396
  endloop
endfacet
facet normal -0.000000 -0.001466 0.000000
  outer loop
    vertex 0.026921 0.000000 -0.076396
    vertex 0.026921 0.000000 0.076396
    vertex 0.017329 0.000000 -0.079125
  endloop
endfacet
facet normal 0.000000 -0.001518 0.000000
  outer loop
    vertex 0.017329 0.000000 -0.079125
    vertex 0.026921 0.000000 0.076396
    vertex 0.017329 0.000000 0.079125
  endloop
endfacet
facet normal -0.000000 -0.001560 0.000000
  outer loop
    vertex 0.017329 0.000000 -0.079125
    vertex 0.017329 0.000000 0.079125
    vertex 0.007474 0.000000 -0.080654
  endloop
endfacet
facet normal 0.000000 -0.001590 0.000000
  outer loop
    vertex 0.007474 0.000000 -0.080654
    vertex 0.017329 0.000000 0.079125
    vertex 0.007474 0.000000 0.080654
  endloop
endfacet
facet normal -0.000000 -0.001608 0.000000
  outer loop
    vertex 0.007474 0.000000 -0.080654
    vertex 0.007474 0.000000 0.080654
    vertex -0.002494 0.000000 -0.080962
  endloop
endfacet
facet normal 0.000000 -0.001614 0.000000
  outer loop
    vertex -0.002494 0.000000 -0.080962
    vertex 0.007474 0.000000 0.080654
    vertex -0.002494 0.000000 0.080962
  endloop
endfacet
facet normal 0.000000 -0.001608 0.000000
  outer loop
    vertex -0.002494 0.000000 -0.080962
    vertex -0.002494 0.000000 0.080962
    vertex -0.012425 0.000000 -0.080041
  endloop
endfacet
facet normal 0.000000 -0.001590 0.000000
  outer loop
    vertex -0.012425 0.000000 -0.080041
    vertex -0.002494 0.000000 0.080962
    vertex -0.012425 0.000000 0.080041
  endloop
endfacet
facet normal 0.000000 -0.001560 0.000000
  outer loop
    vertex -0.012425 0.000000 -0.080041
    vertex -0.012425 0.000000 0.080041
    vertex -0.022167 0.000000 -0.077908
  endloop
endfacet
facet normal 0.000000 -0.001518 0.000000
  outer loop
    vertex -0.022167 0.000000 -0.077908
    vertex -0.012425 0.000000 0.080041
    vertex -0.022167 0.000000 0.077908
  endloop
endfacet
facet normal 0.000000 -0.001466 0.000000
  outer loop
    vertex -0.022167 0.000000 -0.077908
    vertex -0.022167 0.000000 0.077908
    vertex -0.031573 0.000000 -0.074593
  endloop
endfacet
facet normal 0.000000 -0.001403 0.000000
  outer loop
    vertex -0.031573 0.000000 -0.074593
    vertex -0.022167 0.000000 0.077908
    vertex -0.031573 0.000000 0.074593
  endloop
endfacet
facet normal 0.000000 -0.001332 0.000000
  outer loop
    vertex -0.031573 0.000000 -0.074593
    vertex -0.031573 0.000000 0.074593
    vertex -0.040500 0.000000 -0.070148
  endloop
endfacet
facet normal 0.000000 -0.001252 0.000000
  outer loop
    vertex -0.040500 0.000000 -0.070148
    vertex -0.031573 0.000000 0.074593
    vertex -0.040500 0.000000 0.070148
  endloop
endfacet
facet normal 0.000000 -0.001166 0.000000
  outer loop
    vertex -0.040500 0.000000 -0.070148
    vertex -0.040500 0.000000 0.070148
    vertex -0.048813 0.000000 -0.064639
  endloop
endfacet
facet normal 0.000000 -0.001075 0.000000
  outer loop
    vertex -0.048813 0.000000 -0.064639
    vertex -0.040500 0.000000 0.070148
    vertex -0.048813 0.000000 0.064639
  endloop
endfacet
facet normal 0.000000 -0.000979 0.000000
  outer loop
    vertex -0.048813 0.000000 -0.064639
    vertex -0.048813 0.000000 0.064639
    vertex -0.056387 0.000000 -0.058151
  endloop
endfacet
facet normal 0.000000 -0.000881 0.000000
  outer loop
    vertex -0.056387 0.000000 -0.058151
    vertex -0.048813 0.000000 0.064639
    vertex -0.056387 0.000000 0.058151
  endloop
endfacet
facet normal 0.000000 -0.000781 0.000000
  outer loop
    vertex -0.056387 0.000000 -0.058151
    vertex -0.056387 0.000000 0.058151
    vertex -0.063106 0.000000 -0.050781
  endloop
endfacet
facet normal 0.000000 -0.000682 0.000000
  outer loop
    vertex -0.063106 0.000000 -0.050781
    vertex -0.056387 0.000000 0.058151
    vertex -0.063106 0.000000 0.050781
  endloop
endfacet
facet normal 0.000000 -0.000585 0.000000
  outer loop
    vertex -0.063106 0.000000 -0.050781
    vertex -0.063106 0.000000 0.050781
    vertex -0.068868 0.000000 -0.042641
  endloop
endfacet
facet normal 0.000000 -0.000491 0.000000
  outer loop
    vertex -0.068868 0.000000 -0.042641
    vertex -0.063106 0.000000 0.050781
    vertex -0.068868 0.000000 0.042641
  endloop
endfacet
facet normal 0.000000 -0.000402 0.000000
  outer loop
    vertex -0.068868 0.000000 -0.042641
    vertex -0.068868 0.000000 0.042641
    vertex -0.073586 0.000000 -0.033855
  endloop
endfacet
facet normal 0.000000 -0.000319 0.000000
  outer loop
    vertex -0.073586 0.000000 -0.033855
    vertex -0.068868 0.000000 0.042641
    vertex -0.073586 0.000000 0.033855
  endloop
endfacet
facet normal 0.000000 -0.000244 0.000000
  outer loop
    vertex -0.073586 0.000000 -0.033855
    vertex -0.073586 0.000000 0.033855
    vertex -0.077188 0.000000 -0.024555
  endloop
endfacet
facet normal 0.000000 -0.000177 0.000000
  outer loop
    vertex -0.077188 0.000000 -0.024555
    vertex -0.073586 0.000000 0.033855
    vertex -0.077188 0.000000 0.024555
  endloop
endfacet
facet normal 0.000000 -0.000119 0.000000
  outer loop
    vertex -0.077188 0.000000 -0.024555
    vertex -0.077188 0.000000 0.024555
    vertex -0.079621 0.000000 -0.014884
  endloop
endfacet
facet normal 0.000000 -0.000072 0.000000
  outer loop
    vertex -0.079621 0.000000 -0.014884
    vertex -0.077188 0.000000 0.024555
    vertex -0.079621 0.000000 0.014884
  endloop
endfacet
facet normal 0.000000 -0.000036 0.000000
  outer loop
    vertex -0.079621 0.000000 -0.014884
    vertex -0.079621 0.000000 0.014884
    vertex -0.080846 0.000000 -0.004986
  endloop
endfacet
facet normal 0.000000 -0.000012 0.000000
  outer loop
    vertex -0.080846 0.000000 -0.004986
    vertex -0.079621 0.000000 0.014884
    vertex -0.080846 0.000000 0.004986
  endloop
endfacet
facet normal 0.000000 0.003083 0.000000
  outer loop
    vertex 0.010125 0.312500 -0.124924
    vertex 0.010125 0.312500 0.124924
    vertex 0.022463 0.312500 -0.123304
  endloop
endfacet
facet normal 0.000000 0.003043 -0.000000
  outer loop
    vertex 0.022463 0.312500 -0.123304
    vertex 0.010125 0.312500 0.124924
    vertex 0.022463 0.312500 0.123304
  endloop
endfacet
facet normal 0.000000 0.002988 0.000000
  outer loop
    vertex 0.022463 0.312500 -0.123304
    vertex 0.022463 0.312500 0.123304
    vertex 0.034580 0.312500 -0.120469
  endloop
endfacet
facet normal 0.000000 0.002919 -0.000000
  outer loop
    vertex 0.034580 0.312500 -0.120469
    vertex 0.022463 0.312500 0.123304
    vertex 0.034580 0.312500 0.120469
  endloop
endfacet
facet normal 0.000000 0.002837 0.000000
  outer loop
    vertex 0.034580 0.312500 -0.120469
    vertex 0.034580 0.312500 0.120469
    vertex 0.046356 0.312500 -0.116446
  endloop
endfacet
facet normal 0.000000 0.002743 -0.000000
  outer loop
    vertex 0.046356 0.312500 -0.116446
    vertex 0.034580 0.312500 0.120469
    vertex 0.046356 0.312500 0.116446
  endloop
endfacet
facet normal 0.000000 0.002636 0.000000
  outer loop
    vertex 0.046356 0.312500 -0.116446
    vertex 0.046356 0.312500 0.116446
    vertex 0.057675 0.312500 -0.111275
  endloop
endfacet
facet normal 0.000000 0.002519 -0.000000
  outer loop
    vertex 0.057675 0.312500 -0.111275
    vertex 0.046356 0.312500 0.116446
    vertex 0.057675 0.312500 0.111275
  endloop
endfacet
facet normal 0.000000 0.002392 0.000000
  outer loop
    vertex 0.057675 0.312500 -0.111275
    vertex 0.057675 0.312500 0.111275
    vertex 0.068425 0.312500 -0.105007
  endloop
endfacet
facet normal 0.000000 0.002258 -0.000000
  outer loop
    vertex 0.068425 0.312500 -0.105007
    vertex 0.057675 0.312500 0.111275
    vertex 0.068425 0.312500 0.105007
  endloop
endfacet
facet normal 0.000000 0.002116 0.000000
  outer loop
    vertex 0.068425 0.312500 -0.105007
    vertex 0.068425 0.312500 0.105007
    vertex 0.078501 0.312500 -0.097704
  endloop
endfacet
facet normal 0.000000 0.001969 -0.000000
  outer loop
    vertex 0.078501 0.312500 -0.097704
    vertex 0.068425 0.312500 0.105007
    vertex 0.078501 0.312500 0.097704
  endloop
endfacet
facet normal 0.000000 0.001818 0.000000
  outer loop
    vertex 0.078501 0.312500 -0.097704
    vertex 0.078501 0.312500 0.097704
    vertex 0.087803 0.312500 -0.089438
  endloop
endfacet
facet normal 0.000000 0.001664 -0.000000
  outer loop
    vertex 0.087803 0.312500 -0.089438
    vertex 0.078501 0.312500 0.097704
    vertex 0.087803 0.312500 0.089438
  endloop
endfacet
facet normal 0.000000 0.001509 0.000000
  outer loop
    vertex 0.087803 0.312500 -0.089438
    vertex 0.087803 0.312500 0.089438
    vertex 0.096239 0.312500 -0.080290
  endloop
endfacet
facet normal 0.000000 0.001355 -0.000000
  outer loop
    vertex 0.096239 0.312500 -0.080290
    vertex 0.087803 0.312500 0.089438
    vertex 0.096239 0.312500 0.080290
  endloop
endfacet
facet normal 0.000000 0.001202 0.000000
  outer loop
    vertex 0.096239 0.312500 -0.080290
    vertex 0.096239 0.312500 0.080290
    vertex 0.103727 0.312500 -0.070351
  endloop
endfacet
facet normal 0.000000 0.001054 -0.000000
  outer loop
    vertex 0.103727 0.312500 -0.070351
    vertex 0.096239 0.312500 0.080290
    vertex 0.103727 0.312500 0.070351
  endloop
endfacet
facet normal 0.000000 0.000910 0.000000
  outer loop
    vertex 0.103727 0.312500 -0.070351
    vertex 0.103727 0.312500 0.070351
    vertex 0.110192 0.312500 -0.059718
  endloop
endfacet
facet normal 0.000000 0.000772 -0.000000
  outer loop
    vertex 0.110192 0.312500 -0.059718
    vertex 0.103727 0.312500 0.070351
    vertex 0.110192 0.312500 0.059718
  endloop
endfacet
facet normal 0.000000 0.000642 0.000000
  outer loop
    vertex 0.110192 0.312500 -0.059718
    vertex 0.110192 0.312500 0.059718
    vertex 0.115571 0.312500 -0.048497
  endloop
endfacet
facet normal 0.000000 0.000522 -0.000000
  outer loop
    vertex 0.115571 0.312500 -0.048497
    vertex 0.110192 0.312500 0.059718
    vertex 0.115571 0.312500 0.048497
  endloop
endfacet
facet normal 0.000000 0.000411 0.000000
  outer loop
    vertex 0.115571 0.312500 -0.048497
    vertex 0.115571 0.312500 0.048497
    vertex 0.119810 0.312500 -0.036797
  endloop
endfacet
facet normal 0.000000 0.000312 -0.000000
  outer loop
    vertex 0.119810 0.312500 -0.036797
    vertex 0.115571 0.312500 0.048497
    vertex 0.119810 0.312500 0.036797
  endloop
endfacet
facet normal 0.000000 0.000225 0.000000
  outer loop
    vertex 0.119810 0.312500 -0.036797
    vertex 0.119810 0.312500 0.036797
    vertex 0.122869 0.312500 -0.024735
  endloop
endfacet
facet normal 0.000000 0.000151 -0.000000
  outer loop
    vertex 0.122869 0.312500 -0.024735
    vertex 0.119810 0.312500 0.036797
    vertex 0.122869 0.312500 0.024735
  endloop
endfacet
facet normal 0.000000 0.000091 0.000000
  outer loop
    vertex 0.122869 0.312500 -0.024735
    vertex 0.122869 0.312500 0.024735
    vertex 0.124716 0.312500 -0.012429
  endloop
endfacet
facet normal 0.000000 0.000046 -0.000000
  outer loop
    vertex 0.124716 0.312500 -0.012429
    vertex 0.122869 0.312500 0.024735
    vertex 0.124716 0.312500 0.012429
  endloop
endfacet
facet normal 0.000000 0.000015 0.000000
  outer loop
    vertex 0.124716 0.312500 -0.012429
    vertex 0.124716 0.312500 0.012429
    vertex 0.125334 0.312500 0.000000
  endloop
endfacet
facet normal 0.001301 0.000002 0.000080
  outer loop
    vertex 0.080386 0.261500 0.009954
    vertex 0.080846 0.130750 0.004986
    vertex 0.081000 0.261500 0.000000
  endloop
endfacet
facet normal 0.001304 -0.000002 0.000000
  outer loop
    vertex 0.081000 0.261500 0.000000
    vertex 0.080846 0.130750 0.004986
    vertex 0.080846 0.130750 -0.004986
  endloop
endfacet
facet normal 0.001301 0.000002 -0.000080
  outer loop
    vertex 0.081000 0.261500 0.000000
    vertex 0.080846 0.130750 -0.004986
    vertex 0.080386 0.261500 -0.009954
  endloop
endfacet
facet normal 0.001294 -0.000002 -0.000160
  outer loop
    vertex 0.080386 0.261500 -0.009954
    vertex 0.080846 0.130750 -0.004986
    vertex 0.079621 0.130750 -0.014884
  endloop
endfacet
facet normal 0.001282 0.000002 -0.000240
  outer loop
    vertex 0.080386 0.261500 -0.009954
    vertex 0.079621 0.130750 -0.014884
    vertex 0.078554 0.261500 -0.019757
  endloop
endfacet
facet normal 0.001265 -0.000002 -0.000318
  outer loop
    vertex 0.078554 0.261500 -0.019757
    vertex 0.079621 0.130750 -0.014884
    vertex 0.077188 0.130750 -0.024555
  endloop
endfacet
facet normal 0.001243 0.000002 -0.000395
  outer loop
    vertex 0.078554 0.261500 -0.019757
    vertex 0.077188 0.130750 -0.024555
    vertex 0.075530 0.261500 -0.029261
  endloop
endfacet
facet normal 0.001216 -0.000002 -0.000471
  outer loop
    vertex 0.075530 0.261500 -0.029261
    vertex 0.077188 0.130750 -0.024555
    vertex 0.073586 0.130750 -0.033855
  endloop
endfacet
facet normal 0.001185 0.000002 -0.000545
  outer loop
    vertex 0.075530 0.261500 -0.029261
    vertex 0.073586 0.130750 -0.033855
    vertex 0.071362 0.261500 -0.038321
  endloop
endfacet
facet normal 0.001149 -0.000002 -0.000617
  outer loop
    vertex 0.071362 0.261500 -0.038321
    vertex 0.073586 0.130750 -0.033855
    vertex 0.068868 0.130750 -0.042641
  endloop
endfacet
facet normal 0.001109 0.000002 -0.000686
  outer loop
    vertex 0.071362 0.261500 -0.038321
    vertex 0.068868 0.130750 -0.042641
    vertex 0.066112 0.261500 -0.046800
  endloop
endfacet
facet normal 0.001064 -0.000002 -0.000753
  outer loop
    vertex 0.066112 0.261500 -0.046800
    vertex 0.068868 0.130750 -0.042641
    vertex 0.063106 0.130750 -0.050781
  endloop
endfacet
facet normal 0.001016 0.000002 -0.000817
  outer loop
    vertex 0.066112 0.261500 -0.046800
    vertex 0.063106 0.130750 -0.050781
    vertex 0.059860 0.261500 -0.054569
  endloop
endfacet
facet normal 0.000964 -0.000002 -0.000878
  outer loop
    vertex 0.059860 0.261500 -0.054569
    vertex 0.063106 0.130750 -0.050781
    vertex 0.056387 0.130750 -0.058151
  endloop
endfacet
facet normal 0.000908 0.000002 -0.000936
  outer loop
    vertex 0.059860 0.261500 -0.054569
    vertex 0.056387 0.130750 -0.058151
    vertex 0.052700 0.261500 -0.061512
  endloop
endfacet
facet normal 0.000848 -0.000002 -0.000990
  outer loop
    vertex 0.052700 0.261500 -0.061512
    vertex 0.056387 0.130750 -0.058151
    vertex 0.048813 0.130750 -0.064639
  endloop
endfacet
facet normal 0.000786 0.000002 -0.001041
  outer loop
    vertex 0.052700 0.261500 -0.061512
    vertex 0.048813 0.130750 -0.064639
    vertex 0.044742 0.261500 -0.067522
  endloop
endfacet
facet normal 0.000720 -0.000002 -0.001087
  outer loop
    vertex 0.044742 0.261500 -0.067522
    vertex 0.048813 0.130750 -0.064639
    vertex 0.040500 0.130750 -0.070148
  endloop
endfacet
facet normal 0.000652 0.000002 -0.001129
  outer loop
    vertex 0.044742 0.261500 -0.067522
    vertex 0.040500 0.130750 -0.070148
    vertex 0.036105 0.261500 -0.072508
  endloop
endfacet
facet normal 0.000581 -0.000002 -0.001167
  outer loop
    vertex 0.036105 0.261500 -0.072508
    vertex 0.040500 0.130750 -0.070148
    vertex 0.031573 0.130750 -0.074593
  endloop
endfacet
facet normal 0.000508 0.000002 -0.001201
  outer loop
    vertex 0.036105 0.261500 -0.072508
    vertex 0.031573 0.130750 -0.074593
    vertex 0.026921 0.261500 -0.076396
  endloop
endfacet
facet normal 0.000433 -0.000002 -0.001230
  outer loop
    vertex 0.026921 0.261500 -0.076396
    vertex 0.031573 0.130750 -0.074593
    vertex 0.022167 0.130750 -0.077908
  endloop
endfacet
facet normal 0.000357 0.000002 -0.001254
  outer loop
    vertex 0.026921 0.261500 -0.076396
    vertex 0.022167 0.130750 -0.077908
    vertex 0.017329 0.261500 -0.079125
  endloop
endfacet
facet normal 0.000279 -0.000002 -0.001274
  outer loop
    vertex 0.017329 0.261500 -0.079125
    vertex 0.022167 0.130750 -0.077908
    vertex 0.012425 0.130750 -0.080041
  endloop
endfacet
facet normal 0.000200 0.000002 -0.001289
  outer loop
    vertex 0.017329 0.261500 -0.079125
    vertex 0.012425 0.130750 -0.080041
    vertex 0.007474 0.261500 -0.080654
  endloop
endfacet
facet normal 0.000120 -0.000002 -0.001298
  outer loop
    vertex 0.007474 0.261500 -0.080654
    vertex 0.012425 0.130750 -0.080041
    vertex 0.002494 0.130750 -0.080962
  endloop
endfacet
facet normal 0.000040 0.000002 -0.001303
  outer loop
    vertex 0.007474 0.261500 -0.080654
    vertex 0.002494 0.130750 -0.080962
    vertex -0.002494 0.261500 -0.080962
  endloop
endfacet
facet normal -0.000040 -0.000002 -0.001303
  outer loop
    vertex -0.002494 0.261500 -0.080962
    vertex 0.002494 0.130750 -0.080962
    vertex -0.007474 0.130750 -0.080654
  endloop
endfacet
facet normal -0.000120 0.000002 -0.001298
  outer loop
    vertex -0.002494 0.261500 -0.080962
    vertex -0.007474 0.130750 -0.080654
    vertex -0.012425 0.261500 -0.080041
  endloop
endfacet
facet normal -0.000200 -0.000002 -0.001289
  outer loop
    vertex -0.012425 0.261500 -0.080041
    vertex -0.007474 0.130750 -0.080654
    vertex -0.017329 0.130750 -0.079125
  endloop
endfacet
facet normal -0.000279 0.000002 -0.001274
  outer loop
    vertex -0.012425 0.261500 -0.080041
    vertex -0.017329 0.130750 -0.079125
    vertex -0.022167 0.261500 -0.077908
  endloop
endfacet
facet normal -0.000357 -0.000002 -0.001254
  outer loop
    vertex -0.022167 0.261500 -0.077908
    vertex -0.017329 0.130750 -0.079125
    vertex -0.026921 0.130750 -0.076396
  endloop
endfacet
facet normal -0.000433 0.000002 -0.001230
  outer loop
    vertex -0.022167 0.261500 -0.077908
    vertex -0.026921 0.130750 -0.076396
    vertex -0.031573 0.261500 -0.074593
  endloop
endfacet
facet normal -0.000508 -0.000002 -0.001201
  outer loop
    vertex -0.031573 0.261500 -0.074593
    vertex -0.026921 0.130750 -0.076396
    vertex -0.036105 0.130750 -0.072508
  endloop
endfacet
facet normal -0.000581 0.000002 -0.001167
  outer loop
    vertex -0.031573 0.261500 -0.074593
    vertex -0.036105 0.130750 -0.072508
    vertex -0.040500 0.261500 -0.070148
  endloop
endfacet
facet normal -0.000652 -0.000002 -0.001129
  outer loop
    vertex -0.040500 0.261500 -0.070148
    vertex -0.036105 0.130750 -0.072508
    vertex -0.044742 0.130750 -0.067522
  endloop
endfacet
facet normal -0.000720 0.000002 -0.001087
  outer loop
    vertex -0.040500 0.261500 -0.070148
    vertex -0.044742 0.130750 -0.067522
    vertex -0.048813 0.261500 -0.064639
  endloop
endfacet
facet normal -0.000786 -0.000002 -0.001041
  outer loop
    vertex -0.048813 0.261500 -0.064639
    vertex -0.044742 0.130750 -0.067522
    vertex -0.052700 0.130750 -0.061512
  endloop
endfacet
facet normal -0.000848 0.000002 -0.000990
  outer loop
    vertex -0.048813 0.261500 -0.064639
    vertex -0.052700 0.130750 -0.061512
    vertex -0.056387 0.261500 -0.058151
  endloop
endfacet
facet normal -0.000908 -0.000002 -0.000936
  outer loop
    vertex -0.056387 0.261500 -0.058151
    vertex -0.052700 0.130750 -0.061512
    vertex -0.059860 0.130750 -0.054569
  endloop
endfacet
facet normal -0.000964 0.000002 -0.000878
  outer loop
    vertex -0.056387 0.261500 -0.058151
    vertex -0.059860 0.130750 -0.054569
    vertex -0.063106 0.261500 -0.050781
  endloop
endfacet
facet normal -0.001016 -0.000002 -0.000817
  outer loop
    vertex -0.063106 0.261500 -0.050781
    vertex -0.059860 0.130750 -0.054569
    vertex -0.066112 0.130750 -0.046800
  endloop
endfacet
facet normal -0.001064 0.000002 -0.000753
  outer loop
    vertex -0.063106 0.261500 -0.050781
    vertex -0.066112 0.130750 -0.046800
    vertex -0.068868 0.261500 -0.042641
  endloop
endfacet
facet normal -0.001109 -0.000002 -0.000686
  outer loop
    vertex -0.068868 0.261500 -0.042641
    vertex -0.066112 0.130750 -0.046800
    vertex -0.071362 0.130750 -0.038321
  endloop
endfacet
facet normal -0.001149 0.000002 -0.000617
  outer loop
    vertex -0.068868 0.261500 -0.042641
    vertex -0.071362 0.130750 -0.038321
    vertex -0.073586 0.261500 -0.033855
  endloop
endfacet
facet normal -0.001185 -0.000002 -0.000545
  outer loop
    vertex -0.073586 0.261500 -0.033855
    vertex -0.071362 0.130750 -0.038321
    vertex -0.075530 0.130750 -0.029261
  endloop
endfacet
facet normal -0.001216 0.000002 -0.000471
  outer loop
    vertex -0.073586 0.261500 -0.033855
    vertex -0.075530 0.130750 -0.029261
    vertex -0.077188 0.261500 -0.024555
  endloop
endfacet
facet normal -0.001243 -0.000002 -0.000395
  outer loop
    vertex -0.077188 0.261500 -0.024555
    vertex -0.075530 0.130750 -0.029261
    vertex -0.078554 0.130750 -0.019757
  endloop
endfacet
facet normal -0.001265 0.000002 -0.000318
  outer loop
    vertex -0.077188 0.261500 -0.024555
    vertex -0.078554 0.130750 -0.019757
    vertex -0.079621 0.261500 -0.014884
  endloop
endfacet
facet normal -0.001282 -0.000002 -0.000240
  outer loop
    vertex -0.079621 0.261500 -0.014884
    vertex -0.078554 0.130750 -0.019757
    vertex -0.080386 0.130750 -0.009954
  endloop
endfacet
facet normal -0.001294 0.000002 -0.000160
  outer loop
    vertex -0.079621 0.261500 -0.014884
    vertex -0.080386 0.130750 -0.009954
    vertex -0.080846 0.261500 -0.004986
  endloop
endfacet
facet normal -0.001301 -0.000002 -0.000080
  outer loop
    vertex -0.080846 0.261500 -0.004986
    vertex -0.080386 0.130750 -0.009954
    vertex -0.081000 0.130750 0.000000
  endloop
endfacet
facet normal -0.001304 0.000002 0.000000
  outer loop
    vertex -0.080846 0.261500 -0.004986
    vertex -0.081000 0.130750 0.000000
    vertex -0.080846 0.261500 0.004986
  endloop
endfacet
facet normal -0.001301 -0.000002 0.000080
  outer loop
    vertex -0.080846 0.261500 0.004986
    vertex -0.081000 0.130750 0.000000
    vertex -0.080386 0.130750 0.009954
  endloop
endfacet
facet normal -0.001294 0.000002 0.000160
  outer loop
    vertex -0.080846 0.261500 0.004986
    vertex -0.080386 0.130750 0.009954
    vertex -0.079621 0.261500 0.014884
  endloop
endfacet
facet normal -0.001282 -0.000002 0.000240
  outer loop
    vertex -0.079621 0.261500 0.014884
    vertex -0.080386 0.130750 0.009954
    vertex -0.078554 0.130750 0.019757
  endloop
endfacet
facet normal -0.001265 0.000002 0.000318
  outer loop
    vertex -0.079621 0.261500 0.014884
    vertex -0.078554 0.130750 0.019757
    vertex -0.077188 0.261500 0.024555
  endloop
endfacet
facet normal -0.001243 -0.000002 0.000395
  outer loop
    vertex -0.077188 0.261500 0.024555
    vertex -0.078554 0.130750 0.019757
    vertex -0.075530 0.130750 0.029261
  endloop
endfacet
facet normal -0.001216 0.000002 0.000471
  outer loop
    vertex -0.077188 0.261500 0.024555
    vertex -0.075530 0.130750 0.029261
    vertex -0.073586 0.261500 0.033855
  endloop
endfacet
facet normal -0.001185 -0.000002 0.000545
  outer loop
    vertex -0.073586 0.261500 0.033855
    vertex -0.075530 0.130750 0.029261
    vertex -0.071362 0.130750 0.038321
  endloop
endfacet
facet normal -0.001149 0.000002 0.000617
  outer loop
    vertex -0.073586 0.261500 0.033855
    vertex -0.071362 0.130750 0.038321
    vertex -0.068868 0.261500 0.042641
  endloop
endfacet
facet normal -0.001109 -0.000002 0.000686
  outer loop
    vertex -0.068868 0.261500 0.042641
    vertex -0.071362 0.130750 0.038321
    vertex -0.066112 0.130750 0.046800
  endloop
endfacet
facet normal -0.001064 0.000002 0.000753
  outer loop
    vertex -0.068868 0.261500 0.042641
    vertex -0.066112 0.130750 0.046800
    vertex -0.063106 0.261500 0.050781
  endloop
endfacet
facet normal -0.001016 -0.000002 0.000817
  outer loop
    vertex -0.063106 0.261500 0.050781
    vertex -0.066112 0.130750 0.046800
    vertex -0.059860 0.130750 0.054569
  endloop
endfacet
facet normal -0.000964 0.000002 0.000878
  outer loop
    vertex -0.063106 0.261500 0.050781
    vertex -0.059860 0.130750 0.054569
    vertex -0.056387 0.261500 0.058151
  endloop
endfacet
facet normal -0.000908 -0.000002 0.000936
  outer loop
    vertex -0.056387 0.261500 0.058151
    vertex -0.059860 0.130750 0.054569
    vertex -0.052700 0.130750 0.061512
  endloop
endfacet
facet normal -0.000848 0.000002 0.000990
  outer loop
    vertex -0.056387 0.261500 0.058151
    vertex -0.052700 0.130750 0.061512
    vertex -0.048813 0.261500 0.064639
  endloop
endfacet
facet normal -0.000786 -0.000002 0.001041
  outer loop
    vertex -0.048813 0.261500 0.064639
    vertex -0.052700 0.130750 0.061512
    vertex -0.044742 0.130750 0.067522
  endloop
endfacet
facet normal -0.000720 0.000002 0.001087
  outer loop
    vertex -0.048813 0.261500 0.064639
    vertex -0.044742 0.130750 0.067522
    vertex -0.040500 0.261500 0.070148
  endloop
endfacet
facet normal -0.000652 -0.000002 0.001129
  outer loop
    vertex -0.040500 0.261500 0.070148
    vertex -0.044742 0.130750 0.067522
    vertex -0.036105 0.130750 0.072508
  endloop
endfacet
facet normal -0.000581 0.000002 0.001167
  outer loop
    vertex -0.040500 0.261500 0.070148
    vertex -0.036105 0.130750 0.072508
    vertex -0.031573 0.261500 0.074593
  endloop
endfacet
facet normal -0.000508 -0.000002 0.001201
  outer loop
    vertex -0.031573 0.261500 0.074593
    vertex -0.036105 0.130750 0.072508
    vertex -0.026921 0.130750 0.076396
  endloop
endfacet
facet normal -0.000433 0.000002 0.001230
  outer loop
    vertex -0.031573 0.261500 0.074593
    vertex -0.026921 0.130750 0.076396
    vertex -0.022167 0.261500 0.077908
  endloop
endfacet
facet normal -0.000357 -0.000002 0.001254
  outer loop
    vertex -0.022167 0.261500 0.077908
    vertex -0.026921 0.130750 0.076396
    vertex -0.017329 0.130750 0.079125
  endloop
endfacet
facet normal -0.000279 0.000002 0.001274
  outer loop
    vertex -0.022167 0.261500 0.077908
    vertex -0.017329 0.130750 0.079125
    vertex -0.012425 0.261500 0.080041
  endloop
endfacet
facet normal -0.000200 -0.000002 0.001289
  outer loop
    vertex -0.012425 0.261500 0.080041
    vertex -0.017329 0.130750 0.079125
    vertex -0.007474 0.130750 0.080654
  endloop
endfacet
facet normal -0.000120 0.000002 0.001298
  outer loop
    vertex -0.012425 0.261500 0.080041
    vertex -0.007474 0.130750 0.080654
    vertex -0.002494 0.261500 0.080962
  endloop
endfacet
facet normal -0.000040 -0.000002 0.001303
  outer loop
    vertex -0.002494 0.261500 0.080962
    vertex -0.007474 0.130750 0.080654
    vertex 0.002494 0.130750 0.080962
  endloop
endfacet
facet normal 0.000040 0.000002 0.001303
  outer loop
    vertex -0.002494 0.261500 0.080962
    vertex 0.002494 0.130750 0.080962
    vertex 0.007474 0.261500 0.080654
  endloop
endfacet
facet normal 0.000120 -0.000002 0.001298
  outer loop
    vertex 0.007474 0.261500 0.080654
    vertex 0.002494 0.130750 0.080962
    vertex 0.012425 0.130750 0.080041
  endloop
endfacet
facet normal 0.000200 0.000002 0.001289
  outer loop
    vertex 0.007474 0.261500 0.080654
    vertex 0.012425 0.130750 0.080041
    vertex 0.017329 0.261500 0.079125
  endloop
endfacet
facet normal 0.000279 -0.000002 0.001274
  outer loop
    vertex 0.017329 0.261500 0.079125
    vertex 0.012425 0.130750 0.080041
    vertex 0.022167 0.130750 0.077908
  endloop
endfacet
facet normal 0.000357 0.000002 0.001254
  outer loop
    vertex 0.017329 0.261500 0.079125
    vertex 0.022167 0.130750 0.077908
    vertex 0.026921 0.261500 0.076396
  endloop
endfacet
facet normal 0.000433 -0.000002 0.001230
  outer loop
    vertex 0.026921 0.261500 0.076396
    vertex 0.022167 0.130750 0.077908
    vertex 0.031573 0.130750 0.074593
  endloop
endfacet
facet normal 0.000508 0.000002 0.001201
  outer loop
    vertex 0.026921 0.261500 0.076396
    vertex 0.031573 0.130750 0.074593
    vertex 0.036105 0.261500 0.072508
  endloop
endfacet
facet normal 0.000581 -0.000002 0.001167
  outer loop
    vertex 0.036105 0.261500 0.072508
    vertex 0.031573 0.130750 0.074593
    vertex 0.040500 0.130750 0.070148
  endloop
endfacet
facet normal 0.000652 0.000002 0.001129
  outer loop
    vertex 0.036105 0.261500 0.072508
    vertex 0.040500 0.130750 0.070148
    vertex 0.044742 0.261500 0.067522
  endloop
endfacet
facet normal 0.000720 -0.000002 0.001087
  outer loop
    vertex 0.044742 0.261500 0.067522
    vertex 0.040500 0.130750 0.070148
    vertex 0.048813 0.130750 0.064639
  endloop
endfacet
facet normal 0.000786 0.000002 0.001041
  outer loop
    vertex 0.044742 0.261500 0.067522
    vertex 0.048813 0.130750 0.064639
    vertex 0.052700 0.261500 0.061512
  endloop
endfacet
facet normal 0.000848 -0.000002 0.000990
  outer loop
    vertex 0.052700 0.261500 0.061512
    vertex 0.048813 0.130750 0.064639
    vertex 0.056387 0.130750 0.058151
  endloop
endfacet
facet normal 0.000908 0.000002 0.000936
  outer loop
    vertex 0.052700 0.261500 0.061512
    vertex 0.056387 0.130750 0.058151
    vertex 0.059860 0.261500 0.054569
  endloop
endfacet
facet normal 0.000964 -0.000002 0.000878
  outer loop
    vertex 0.059860 0.261500 0.054569
    vertex 0.056387 0.130750 0.058151
    vertex 0.063106 0.130750 0.050781
  endloop
endfacet
facet normal 0.001016 0.000002 0.000817
  outer loop
    vertex 0.059860 0.261500 0.054569
    vertex 0.063106 0.130750 0.050781
    vertex 0.066112 0.261500 0.046800
  endloop
endfacet
facet normal 0.001064 -0.000002 0.000753
  outer loop
    vertex 0.066112 0.261500 0.046800
    vertex 0.063106 0.130750 0.050781
    vertex 0.068868 0.130750 0.042641
  endloop
endfacet
facet normal 0.001109 0.000002 0.000686
  outer loop
    vertex 0.066112 0.261500 0.046800
    vertex 0.068868 0.130750 0.042641
    vertex 0.071362 0.261500 0.038321
  endloop
endfacet
facet normal 0.001149 -0.000002 0.000617
  outer loop
    vertex 0.071362 0.261500 0.038321
    vertex 0.068868 0.130750 0.042641
    vertex 0.073586 0.130750 0.033855
  endloop
endfacet
facet normal 0.001185 0.000002 0.000545
  outer loop
    vertex 0.071362 0.261500 0.038321
    vertex 0.073586 0.130750 0.033855
    vertex 0.075530 0.261500 0.029261
  endloop
endfacet
facet normal 0.001216 -0.000002 0.000471
  outer loop
    vertex 0.075530 0.261500 0.029261
    vertex 0.073586 0.130750 0.033855
    vertex 0.077188 0.130750 0.024555
  endloop
endfacet
facet normal 0.001243 0.000002 0.000395
  outer loop
    vertex 0.075530 0.261500 0.029261
    vertex 0.077188 0.130750 0.024555
    vertex 0.078554 0.261500 0.019757
  endloop
endfacet
facet normal 0.001265 -0.000002 0.000318
  outer loop
    vertex 0.078554 0.261500 0.019757
    vertex 0.077188 0.130750 0.024555
    vertex 0.079621 0.130750 0.014884
  endloop
endfacet
facet normal 0.001282 0.000002 0.000240
  outer loop
    vertex 0.078554 0.261500 0.019757
    vertex 0.079621 0.130750 0.014884
    vertex 0.080386 0.261500 0.009954
  endloop
endfacet
facet normal 0.001294 -0.000002 0.000160
  outer loop
    vertex 0.080386 0.261500 0.009954
    vertex 0.079621 0.130750 0.014884
    vertex 0.080846 0.130750 0.004986
  endloop
endfacet
facet normal 0.001301 -0.000002 -0.000080
  outer loop
    vertex 0.080386 0.000000 -0.009954
    vertex 0.080846 0.130750 -0.004986
    vertex 0.081000 0.000000 0.000000
  endloop
endfacet
facet normal 0.001304 0.000002 0.000000
  outer loop
    vertex 0.081000 0.000000 0.000000
    vertex 0.080846 0.130750 -0.004986
    vertex 0.080846 0.130750 0.004986
  endloop
endfacet
facet normal 0.001301 -0.000002 0.000080
  outer loop
    vertex 0.081000 0.000000 0.000000
    vertex 0.080846 0.130750 0.004986
    vertex 0.080386 0.000000 0.009954
  endloop
endfacet
facet normal 0.001294 0.000002 0.000160
  outer loop
    vertex 0.080386 0.000000 0.009954
    vertex 0.080846 0.130750 0.004986
    vertex 0.079621 0.130750 0.014884
  endloop
endfacet
facet normal 0.001282 -0.000002 0.000240
  outer loop
    vertex 0.080386 0.000000 0.009954
    vertex 0.079621 0.130750 0.014884
    vertex 0.078554 0.000000 0.019757
  endloop
endfacet
facet normal 0.001265 0.000002 0.000318
  outer loop
    vertex 0.078554 0.000000 0.019757
    vertex 0.079621 0.130750 0.014884
    vertex 0.077188 0.130750 0.024555
  endloop
endfacet
facet normal 0.001243 -0.000002 0.000395
  outer loop
    vertex 0.078554 0.000000 0.019757
    vertex 0.077188 0.130750 0.024555
    vertex 0.075530 0.000000 0.029261
  endloop
endfacet
facet normal 0.001216 0.000002 0.000471
  outer loop
    vertex 0.075530 0.000000 0.029261
    vertex 0.077188 0.130750 0.024555
    vertex 0.073586 0.130750 0.033855
  endloop
endfacet
facet normal 0.001185 -0.000002 0.000545
  outer loop
    vertex 0.075530 0.000000 0.029261
    vertex 0.073586 0.130750 0.033855
    vertex 0.071362 0.000000 0.038321
  endloop
endfacet
facet normal 0.001149 0.000002 0.000617
  outer loop
    vertex 0.071362 0.000000 0.038321
    vertex 0.073586 0.130750 0.033855
    vertex 0.068868 0.130750 0.042641
  endloop
endfacet
facet normal 0.001109 -0.000002 0.000686
  outer loop
    vertex 0.071362 0.000000 0.038321
    vertex 0.068868 0.130750 0.042641
    vertex 0.066112 0.000000 0.046800
  endloop
endfacet
facet normal 0.001064 0.000002 0.000753
  outer loop
    vertex 0.066112 0.000000 0.046800
    vertex 0.068868 0.130750 0.042641
    vertex 0.063106 0.130750 0.050781
  endloop
endfacet
facet normal 0.001016 -0.000002 0.000817
  outer loop
    vertex 0.066112 0.000000 0.046800
    vertex 0.063106 0.130750 0.050781
    vertex 0.059860 0.000000 0.054569
  endloop
endfacet
facet normal 0.000964 0.000002 0.000878
  outer loop
    vertex 0.059860 0.000000 0.054569
    vertex 0.063106 0.130750 0.050781
    vertex 0.056387 0.130750 0.058151
  endloop
endfacet
facet normal 0.000908 -0.000002 0.000936
  outer loop
    vertex 0.059860 0.000000 0.054569
    vertex 0.056387 0.130750 0.058151
    vertex 0.052700 0.000000 0.061512
  endloop
endfacet
facet normal 0.000848 0.000002 0.000990
  outer loop
    vertex 0.052700 0.000000 0.061512
    vertex 0.056387 0.130750 0.058151
    vertex 0.048813 0.130750 0.064639
  endloop
endfacet
facet normal 0.000786 -0.000002 0.001041
  outer loop
    vertex 0.052700 0.000000 0.061512
    vertex 0.048813 0.130750 0.064639
    vertex 0.044742 0.000000 0.067522
  endloop
endfacet
facet normal 0.000720 0.000002 0.001087
  outer loop
    vertex 0.044742 0.000000 0.067522
    vertex 0.048813 0.130750 0.064639
    vertex 0.040500 0.130750 0.070148
  endloop
endfacet
facet normal 0.000652 -0.000002 0.001129
  outer loop
    vertex 0.044742 0.000000 0.067522
    vertex 0.040500 0.130750 0.070148
    vertex 0.036105 0.000000 0.072508
  endloop
endfacet
facet normal 0.000581 0.000002 0.001167
  outer loop
    vertex 0.036105 0.000000 0.072508
    vertex 0.040500 0.130750 0.070148
    vertex 0.031573 0.130750 0.074593
  endloop
endfacet
facet normal 0.000508 -0.000002 0.001201
  outer loop
    vertex 0.036105 0.000000 0.072508
    vertex 0.031573 0.130750 0.074593
    vertex 0.026921 0.000000 0.076396
  endloop
endfacet
facet normal 0.000433 0.000002 0.001230
  outer loop
    vertex 0.026921 0.000000 0.076396
    vertex 0.031573 0.130750 0.074593
    vertex 0.022167 0.130750 0.077908
  endloop
endfacet
facet normal 0.000357 -0.000002 0.001254
  outer loop
    vertex 0.026921 0.000000 0.076396
    vertex 0.022167 0.130750 0.077908
    vertex 0.017329 0.000000 0.079125
  endloop
endfacet
facet normal 0.000279 0.000002 0.001274
  outer loop
    vertex 0.017329 0.000000 0.079125
    vertex 0.022167 0.130750 0.077908
    vertex 0.012425 0.130750 0.080041
  endloop
endfacet
facet normal 0.000200 -0.000002 0.001289
  outer loop
    vertex 0.017329 0.000000 0.079125
    vertex 0.012425 0.130750 0.080041
    vertex 0.007474 0.000000 0.080654
  endloop
endfacet
facet normal 0.000120 0.000002 0.001298
  outer loop
    vertex 0.007474 0.000000 0.080654
    vertex 0.012425 0.130750 0.080041
    vertex 0.002494 0.130750 0.080962
  endloop
endfacet
facet normal 0.000040 -0.000002 0.001303
  outer loop
    vertex 0.007474 0.000000 0.080654
    vertex 0.002494 0.130750 0.080962
    vertex -0.002494 0.000000 0.080962
  endloop
endfacet
facet normal -0.000040 0.000002 0.001303
  outer loop
    vertex -0.002494 0.000000 0.080962
    vertex 0.002494 0.130750 0.080962
    vertex -0.007474 0.130750 0.080654
  endloop
endfacet
facet normal -0.000120 -0.000002 0.001298
  outer loop
    vertex -0.002494 0.000000 0.080962
    vertex -0.007474 0.130750 0.080654
    vertex -0.012425 0.000000 0.080041
  endloop
endfacet
facet normal -0.000200 0.000002 0.001289
  outer loop
    vertex -0.012425 0.000000 0.080041
    vertex -0.007474 0.130750 0.080654
    vertex -0.017329 0.130750 0.079125
  endloop
endfacet
facet normal -0.000279 -0.000002 0.001274
  outer loop
    vertex -0.012425 0.000000 0.080041
    vertex -0.017329 0.130750 0.079125
    vertex -0.022167 0.000000 0.077908
  endloop
endfacet
facet normal -0.000357 0.000002 0.001254
  outer loop
    vertex -0.022167 0.000000 0.077908
    vertex -0.017329 0.130750 0.079125
    vertex -0.026921 0.130750 0.076396
  endloop
endfacet
facet normal -0.000433 -0.000002 0.001230
  outer loop
    vertex -0.022167 0.000000 0.077908
    vertex -0.026921 0.130750 0.076396
    vertex -0.031573 0.000000 0.074593
  endloop
endfacet
facet normal -0.000508 0.000002 0.001201
  outer loop
    vertex -0.031573 0.000000 0.074593
    vertex -0.026921 0.130750 0.076396
    vertex -0.036105 0.130750 0.072508
  endloop
endfacet
facet normal -0.000581 -0.000002 0.001167
  outer loop
    vertex -0.031573 0.000000 0.074593
    vertex -0.036105 0.130750 0.072508
    vertex -0.040500 0.000000 0.070148
  endloop
endfacet
facet normal -0.000652 0.000002 0.001129
  outer loop
    vertex -0.040500 0.000000 0.070148
    vertex -0.036105 0.130750 0.072508
    vertex -0.044742 0.130750 0.067522
  endloop
endfacet
facet normal -0.000720 -0.000002 0.001087
  outer loop
    vertex -0.040500 0.000000 0.070148
    vertex -0.044742 0.130750 0.067522
    vertex -0.048813 0.000000 0.064639
  endloop
endfacet
facet normal -0.000786 0.000002 0.001041
  outer loop
    vertex -0.048813 0.000000 0.064639
    vertex -0.044742 0.130750 0.067522
    vertex -0.052700 0.130750 0.061512
  endloop
endfacet
facet normal -0.000848 -0.000002 0.000990
  outer loop
    vertex -0.048813 0.000000 0.064639
    vertex -0.052700 0.130750 0.061512
    vertex -0.056387 0.000000 0.058151
  endloop
endfacet
facet normal -0.000908 0.000002 0.000936
  outer loop
    vertex -0.056387 0.000000 0.058151
    vertex -0.052700 0.130750 0.061512
    vertex -0.059860 0.130750 0.054569
  endloop
endfacet
facet normal -0.000964 -0.000002 0.000878
  outer loop
    vertex -0.056387 0.000000 0.058151
    vertex -0.059860 0.130750 0.054569
    vertex -0.063106 0.000000 0.050781
  endloop
endfacet
facet normal -0.001016 0.000002 0.000817
  outer loop
    vertex -0.063106 0.000000 0.050781
    vertex -0.059860 0.130750 0.054569
    vertex -0.066112 0.130750 0.046800
  endloop
endfacet
facet normal -0.001064 -0.000002 0.000753
  outer loop
    vertex -0.063106 0.000000 0.050781
    vertex -0.066112 0.130750 0.046800
    vertex -0.068868 0.000000 0.042641
  endloop
endfacet
facet normal -0.001109 0.000002 0.000686
  outer loop
    vertex -0.068868 0.000000 0.042641
    vertex -0.066112 0.130750 0.046800
    vertex -0.071362 0.130750 0.038321
  endloop
endfacet
facet normal -0.001149 -0.000002 0.000617
  outer loop
    vertex -0.068868 0.000000 0.042641
    vertex -0.071362 0.130750 0.038321
    vertex -0.073586 0.000000 0.033855
  endloop
endfacet
facet normal -0.001185 0.000002 0.000545
  outer loop
    vertex -0.073586 0.000000 0.033855
    vertex -0.071362 0.130750 0.038321
    vertex -0.075530 0.130750 0.029261
  endloop
endfacet
facet normal -0.001216 -0.000002 0.000471
  outer loop
    vertex -0.073586 0.000000 0.033855
    vertex -0.075530 0.130750 0.029261
    vertex -0.077188 0.000000 0.024555
  endloop
endfacet
facet normal -0.001243 0.000002 0.000395
  outer loop
    vertex -0.077188 0.000000 0.024555
    vertex -0.075530 0.130750 0.029261
    vertex -0.078554 0.130750 0.019757
  endloop
endfacet
facet normal -0.001265 -0.000002 0.000318
  outer loop
    vertex -0.077188 0.000000 0.024555
    vertex -0.078554 0.130750 0.019757
    vertex -0.079621 0.000000 0.014884
  endloop
endfacet
facet normal -0.001282 0.000002 0.000240
  outer loop
    vertex -0.079621 0.000000 0.014884
    vertex -0.078554 0.130750 0.019757
    vertex -0.080386 0.130750 0.009954
  endloop
endfacet
facet normal -0.001294 -0.000002 0.000160
  outer loop
    vertex -0.079621 0.000000 0.014884
    vertex -0.080386 0.130750 0.009954
    vertex -0.080846 0.000000 0.004986
  endloop
endfacet
facet normal -0.001301 0.000002 0.000080
  outer loop
    vertex -0.080846 0.000000 0.004986
    vertex -0.080386 0.130750 0.009954
    vertex -0.081000 0.130750 0.000000
  endloop
endfacet
facet normal -0.001304 -0.000002 -0.000000
  outer loop
    vertex -0.080846 0.000000 0.004986
    vertex -0.081000 0.130750 0.000000
    vertex -0.080846 0.000000 -0.004986
  endloop
endfacet
facet normal -0.001301 0.000002 -0.000080
  outer loop
    vertex -0.080846 0.000000 -0.004986
    vertex -0.081000 0.130750 0.000000
    vertex -0.080386 0.130750 -0.009954
  endloop
endfacet
facet normal -0.001294 -0.000002 -0.000160
  outer loop
    vertex -0.080846 0.000000 -0.004986
    vertex -0.080386 0.130750 -0.009954
    vertex -0.079621 0.000000 -0.014884
  endloop
endfacet
facet normal -0.001282 0.000002 -0.000240
  outer loop
    vertex -0.079621 0.000000 -0.014884
    vertex -0.080386 0.130750 -0.009954
    vertex -0.078554 0.130750 -0.019757
  endloop
endfacet
facet normal -0.001265 -0.000002 -0.000318
  outer loop
    vertex -0.079621 0.000000 -0.014884
    vertex -0.078554 0.130750 -0.019757
    vertex -0.077188 0.000000 -0.024555
  endloop
endfacet
facet normal -0.001243 0.000002 -0.000395
  outer loop
    vertex -0.077188 0.000000 -0.024555
    vertex -0.078554 0.130750 -0.019757
    vertex -0.075530 0.130750 -0.029261
  endloop
endfacet
facet normal -0.001216 -0.000002 -0.000471
  outer loop
    vertex -0.077188 0.000000 -0.024555
    vertex -0.075530 0.130750 -0.029261
    vertex -0.073586 0.000000 -0.033855
  endloop
endfacet
facet normal -0.001185 0.000002 -0.000545
  outer loop
    vertex -0.073586 0.000000 -0.033855
    vertex -0.075530 0.130750 -0.029261
    vertex -0.071362 0.130750 -0.038321
  endloop
endfacet
facet normal -0.001149 -0.000002 -0.000617
  outer loop
    vertex -0.073586 0.000000 -0.033855
    vertex -0.071362 0.130750 -0.038321
    vertex -0.068868 0.000000 -0.042641
  endloop
endfacet
facet normal -0.001109 0.000002 -0.000686
  outer loop
    vertex -0.068868 0.000000 -0.042641
    vertex -0.071362 0.130750 -0.038321
    vertex -0.066112 0.130750 -0.046800
  endloop
endfacet
facet normal -0.001064 -0.000002 -0.000753
  outer loop
    vertex -0.068868 0.000000 -0.042641
    vertex -0.066112 0.130750 -0.046800
    vertex -0.063106 0.000000 -0.050781
  endloop
endfacet
facet normal -0.001016 0.000002 -0.000817
  outer loop
    vertex -0.063106 0.000000 -0.050781
    vertex -0.066112 0.130750 -0.046800
    vertex -0.059860 0.130750 -0.054569
  endloop
endfacet
facet normal -0.000964 -0.000002 -0.000878
  outer loop
    vertex -0.063106 0.000000 -0.050781
    vertex -0.059860 0.130750 -0.054569
    vertex -0.056387 0.000000 -0.058151
  endloop
endfacet
facet normal -0.000908 0.000002 -0.000936
  outer loop
    vertex -0.056387 0.000000 -0.058151
    vertex -0.059860 0.130750 -0.054569
    vertex -0.052700 0.130750 -0.061512
  endloop
endfacet
facet normal -0.000848 -0.000002 -0.000990
  outer loop
    vertex -0.056387 0.000000 -0.058151
    vertex -0.052700 0.130750 -0.061512
    vertex -0.048813 0.000000 -0.064639
  endloop
endfacet
facet normal -0.000786 0.000002 -0.001041
  outer loop
    vertex -0.048813 0.000000 -0.064639
    vertex -0.052700 0.130750 -0.061512
    vertex -0.044742 0.130750 -0.067522
  endloop
endfacet
facet normal -0.000720 -0.000002 -0.001087
  outer loop
    vertex -0.048813 0.000000 -0.064639
    vertex -0.044742 0.130750 -0.067522
    vertex -0.040500 0.000000 -0.070148
  endloop
endfacet
facet normal -0.000652 0.000002 -0.001129
  outer loop
    vertex -0.040500 0.000000 -0.070148
    vertex -0.044742 0.130750 -0.067522
    vertex -0.036105 0.130750 -0.072508
  endloop
endfacet
facet normal -0.000581 -0.000002 -0.001167
  outer loop
    vertex -0.040500 0.000000 -0.070148
    vertex -0.036105 0.130750 -0.072508
    vertex -0.031573 0.000000 -0.074593
  endloop
endfacet
facet normal -0.000508 0.000002 -0.001201
  outer loop
    vertex -0.031573 0.000000 -0.074593
    vertex -0.036105 0.130750 -0.072508
    vertex -0.026921 0.130750 -0.076396
  endloop
endfacet
facet normal -0.000433 -0.000002 -0.001230
  outer loop
    vertex -0.031573 0.000000 -0.074593
    vertex -0.026921 0.130750 -0.076396
    vertex -0.022167 0.000000 -0.077908
  endloop
endfacet
facet normal -0.000357 0.000002 -0.001254
  outer loop
    vertex -0.022167 0.000000 -0.077908
    vertex -0.026921 0.130750 -0.076396
    vertex -0.017329 0.130750 -0.079125
  endloop
endfacet
facet normal -0.000279 -0.000002 -0.001274
  outer loop
    vertex -0.022167 0.000000 -0.077908
    vertex -0.017329 0.130750 -0.079125
    vertex -0.012425 0.000000 -0.080041
  endloop
endfacet
facet normal -0.000200 0.000002 -0.001289
  outer loop
    vertex -0.012425 0.000000 -0.080041
    vertex -0.017329 0.130750 -0.079125
    vertex -0.007474 0.130750 -0.080654
  endloop
endfacet
facet normal -0.000120 -0.000002 -0.001298
  outer loop
    vertex -0.012425 0.000000 -0.080041
    vertex -0.007474 0.130750 -0.080654
    vertex -0.002494 0.000000 -0.080962
  endloop
endfacet
facet normal -0.000040 0.000002 -0.001303
  outer loop
    vertex -0.002494 0.000000 -0.080962
    vertex -0.007474 0.130750 -0.080654
    vertex 0.002494 0.130750 -0.080962
  endloop
endfacet
facet normal 0.000040 -0.000002 -0.001303
  outer loop
    vertex -0.002494 0.000000 -0.080962
    vertex 0.002494 0.130750 -0.080962
    vertex 0.007474 0.000000 -0.080654
  endloop
endfacet
facet normal 0.000120 0.000002 -0.001298
  outer loop
    vertex 0.007474 0.000000 -0.080654
    vertex 0.002494 0.130750 -0.080962
    vertex 0.012425 0.130750 -0.080041
  endloop
endfacet
facet normal 0.000200 -0.000002 -0.001289
  outer loop
    vertex 0.007474 0.000000 -0.080654
    vertex 0.012425 0.130750 -0.080041
    vertex 0.017329 0.000000 -0.079125
  endloop
endfacet
facet normal 0.000279 0.000002 -0.001274
  outer loop
    vertex 0.017329 0.000000 -0.079125
    vertex 0.012425 0.130750 -0.080041
    vertex 0.022167 0.130750 -0.077908
  endloop
endfacet
facet normal 0.000357 -0.000002 -0.001254
  outer loop
    vertex 0.017329 0.000000 -0.079125
    vertex 0.022167 0.130750 -0.077908
    vertex 0.026921 0.000000 -0.076396
  endloop
endfacet
facet normal 0.000433 0.000002 -0.001230
  outer loop
    vertex 0.026921 0.000000 -0.076396
    vertex 0.022167 0.130750 -0.077908
    vertex 0.031573 0.130750 -0.074593
  endloop
endfacet
facet normal 0.000508 -0.000002 -0.001201
  outer loop
    vertex 0.026921 0.000000 -0.076396
    vertex 0.031573 0.130750 -0.074593
    vertex 0.036105 0.000000 -0.072508
  endloop
endfacet
facet normal 0.000581 0.000002 -0.001167
  outer loop
    vertex 0.036105 0.000000 -0.072508
    vertex 0.031573 0.130750 -0.074593
    vertex 0.040500 0.130750 -0.070148
  endloop
endfacet
facet normal 0.000652 -0.000002 -0.001129
  outer loop
    vertex 0.036105 0.000000 -0.072508
    vertex 0.040500 0.130750 -0.070148
    vertex 0.044742 0.000000 -0.067522
  endloop
endfacet
facet normal 0.000720 0.000002 -0.001087
  outer loop
    vertex 0.044742 0.000000 -0.067522
    vertex 0.040500 0.130750 -0.070148
    vertex 0.048813 0.130750 -0.064639
  endloop
endfacet
facet normal 0.000786 -0.000002 -0.001041
  outer loop
    vertex 0.044742 0.000000 -0.067522
    vertex 0.048813 0.130750 -0.064639
    vertex 0.052700 0.000000 -0.061512
  endloop
endfacet
facet normal 0.000848 0.000002 -0.000990
  outer loop
    vertex 0.052700 0.000000 -0.061512
    vertex 0.048813 0.130750 -0.064639
    vertex 0.056387 0.130750 -0.058151
  endloop
endfacet
facet normal 0.000908 -0.000002 -0.000936
  outer loop
    vertex 0.052700 0.000000 -0.061512
    vertex 0.056387 0.130750 -0.058151
    vertex 0.059860 0.000000 -0.054569
  endloop
endfacet
facet normal 0.000964 0.000002 -0.000878
  outer loop
    vertex 0.059860 0.000000 -0.054569
    vertex 0.056387 0.130750 -0.058151
    vertex 0.063106 0.130750 -0.050781
  endloop
endfacet
facet normal 0.001016 -0.000002 -0.000817
  outer loop
    vertex 0.059860 0.000000 -0.054569
    vertex 0.063106 0.130750 -0.050781
    vertex 0.066112 0.000000 -0.046800
  endloop
endfacet
facet normal 0.001064 0.000002 -0.000753
  outer loop
    vertex 0.066112 0.000000 -0.046800
    vertex 0.063106 0.130750 -0.050781
    vertex 0.068868 0.130750 -0.042641
  endloop
endfacet
facet normal 0.001109 -0.000002 -0.000686
  outer loop
    vertex 0.066112 0.000000 -0.046800
    vertex 0.068868 0.130750 -0.042641
    vertex 0.071362 0.000000 -0.038321
  endloop
endfacet
facet normal 0.001149 0.000002 -0.000617
  outer loop
    vertex 0.071362 0.000000 -0.038321
    vertex 0.068868 0.130750 -0.042641
    vertex 0.073586 0.130750 -0.033855
  endloop
endfacet
facet normal 0.001185 -0.000002 -0.000545
  outer loop
    vertex 0.071362 0.000000 -0.038321
    vertex 0.073586 0.130750 -0.033855
    vertex 0.075530 0.000000 -0.029261
  endloop
endfacet
facet normal 0.001216 0.000002 -0.000471
  outer loop
    vertex 0.075530 0.000000 -0.029261
    vertex 0.073586 0.130750 -0.033855
    vertex 0.077188 0.130750 -0.024555
  endloop
endfacet
facet normal 0.001243 -0.000002 -0.000395
  outer loop
    vertex 0.075530 0.000000 -0.029261
    vertex 0.077188 0.130750 -0.024555
    vertex 0.078554 0.000000 -0.019757
  endloop
endfacet
facet normal 0.001265 0.000002 -0.000318
  outer loop
    vertex 0.078554 0.000000 -0.019757
    vertex 0.077188 0.130750 -0.024555
    vertex 0.079621 0.130750 -0.014884
  endloop
endfacet
facet normal 0.001282 -0.000002 -0.000240
  outer loop
    vertex 0.078554 0.000000 -0.019757
    vertex 0.079621 0.130750 -0.014884
    vertex 0.080386 0.000000 -0.009954
  endloop
endfacet
facet normal 0.001294 0.000002 -0.000160
  outer loop
    vertex 0.080386 0.000000 -0.009954
    vertex 0.079621 0.130750 -0.014884
    vertex 0.080846 0.130750 -0.004986
  endloop
endfacet
endsolid 51041488-681d-4026-845c-560fee684338-ascii.stl
