solid 87ef23e9-855c-4dbd-9114-2752a0fba3cf-ascii.stl
facet normal -0.000862 0.000000 -0.000000
  outer loop
    vertex 0.005563 0.093750 0.068615
    vertex 0.005563 0.093750 -0.068615
    vertex 0.005563 0.087465 0.063132
  endloop
endfacet
facet normal -0.000794 0.000000 0.000000
  outer loop
    vertex 0.005563 0.087465 0.063132
    vertex 0.005563 0.093750 -0.068615
    vertex 0.005563 0.087465 -0.063132
  endloop
endfacet
facet normal -0.000728 0.000000 -0.000000
  outer loop
    vertex 0.005563 0.087465 0.063132
    vertex 0.005563 0.087465 -0.063132
    vertex 0.005563 0.081701 0.058101
  endloop
endfacet
facet normal -0.000670 0.000000 0.000000
  outer loop
    vertex 0.005563 0.081701 0.058101
    vertex 0.005563 0.087465 -0.063132
    vertex 0.005563 0.081701 -0.058101
  endloop
endfacet
facet normal -0.000616 0.000000 -0.000000
  outer loop
    vertex 0.005563 0.081701 0.058101
    vertex 0.005563 0.081701 -0.058101
    vertex 0.005563 0.076397 0.053467
  endloop
endfacet
facet normal -0.000567 0.000000 0.000000
  outer loop
    vertex 0.005563 0.076397 0.053467
    vertex 0.005563 0.081701 -0.058101
    vertex 0.005563 0.076397 -0.053467
  endloop
endfacet
facet normal -0.000524 0.000000 -0.000000
  outer loop
    vertex 0.005563 0.076397 0.053467
    vertex 0.005563 0.076397 -0.053467
    vertex 0.005563 0.071500 0.049185
  endloop
endfacet
facet normal -0.000482 0.000000 0.000000
  outer loop
    vertex 0.005563 0.071500 0.049185
    vertex 0.005563 0.076397 -0.053467
    vertex 0.005563 0.071500 -0.049185
  endloop
endfacet
facet normal 0.000482 -0.000000 0.000000
  outer loop
    vertex -0.005563 0.071500 0.049185
    vertex -0.005563 0.071500 -0.049185
    vertex -0.005563 0.076397 0.053467
  endloop
endfacet
facet normal 0.000524 0.000000 0.000000
  outer loop
    vertex -0.005563 0.076397 0.053467
    vertex -0.005563 0.071500 -0.049185
    vertex -0.005563 0.076397 -0.053467
  endloop
endfacet
facet normal 0.000567 -0.000000 0.000000
  outer loop
    vertex -0.005563 0.076397 0.053467
    vertex -0.005563 0.076397 -0.053467
    vertex -0.005563 0.081701 0.058101
  endloop
endfacet
facet normal 0.000616 0.000000 0.000000
  outer loop
    vertex -0.005563 0.081701 0.058101
    vertex -0.005563 0.076397 -0.053467
    vertex -0.005563 0.081701 -0.058101
  endloop
endfacet
facet normal 0.000670 -0.000000 0.000000
  outer loop
    vertex -0.005563 0.081701 0.058101
    vertex -0.005563 0.081701 -0.058101
    vertex -0.005563 0.087465 0.063132
  endloop
endfacet
facet normal 0.000728 0.000000 0.000000
  outer loop
    vertex -0.005563 0.087465 0.063132
    vertex -0.005563 0.081701 -0.058101
    vertex -0.005563 0.087465 -0.063132
  endloop
endfacet
facet normal 0.000794 -0.000000 0.000000
  outer loop
    vertex -0.005563 0.087465 0.063132
    vertex -0.005563 0.087465 -0.063132
    vertex -0.005563 0.093750 0.068615
  endloop
endfacet
facet normal 0.000862 0.000000 0.000000
  outer loop
    vertex -0.005563 0.093750 0.068615
    vertex -0.005563 0.087465 -0.063132
    vertex -0.005563 0.093750 -0.068615
  endloop
endfacet
facet normal 0.000000 0.000364 0.000000
  outer loop
    vertex 0.005563 0.071500 0.049185
    vertex 0.005563 0.071500 -0.049185
    vertex 0.001858 0.071500 0.049464
  endloop
endfacet
facet normal 0.000000 0.000367 0.000000
  outer loop
    vertex 0.001858 0.071500 0.049464
    vertex 0.005563 0.071500 -0.049185
    vertex 0.001858 0.071500 -0.049464
  endloop
endfacet
facet normal 0.000000 0.000368 0.000000
  outer loop
    vertex 0.001858 0.071500 0.049464
    vertex 0.001858 0.071500 -0.049464
    vertex -0.001858 0.071500 0.049464
  endloop
endfacet
facet normal 0.000000 0.000368 0.000000
  outer loop
    vertex -0.001858 0.071500 0.049464
    vertex 0.001858 0.071500 -0.049464
    vertex -0.001858 0.071500 -0.049464
  endloop
endfacet
facet normal 0.000000 0.000367 0.000000
  outer loop
    vertex -0.001858 0.071500 0.049464
    vertex -0.001858 0.071500 -0.049464
    vertex -0.005563 0.071500 0.049185
  endloop
endfacet
facet normal 0.000000 0.000364 0.000000
  outer loop
    vertex -0.005563 0.071500 0.049185
    vertex -0.001858 0.071500 -0.049464
    vertex -0.005563 0.071500 -0.049185
  endloop
endfacet
facet normal 0.000205 -0.000179 -0.000017
  outer loop
    vertex 0.043893 0.065750 -0.007324
    vertex 0.068210 0.093750 -0.009296
    vertex 0.044500 0.065750 0.000000
  endloop
endfacet
facet normal 0.000260 -0.000226 -0.000018
  outer loop
    vertex 0.044500 0.065750 0.000000
    vertex 0.068210 0.093750 -0.009296
    vertex 0.068840 0.093750 0.000000
  endloop
endfacet
facet normal 0.000260 -0.000226 0.000018
  outer loop
    vertex 0.044500 0.065750 0.000000
    vertex 0.068840 0.093750 0.000000
    vertex 0.068210 0.093750 0.009296
  endloop
endfacet
facet normal 0.000256 -0.000226 -0.000053
  outer loop
    vertex 0.068210 0.093750 -0.009296
    vertex 0.043893 0.065750 -0.007324
    vertex 0.066330 0.093750 -0.018421
  endloop
endfacet
facet normal 0.000199 -0.000180 -0.000051
  outer loop
    vertex 0.066330 0.093750 -0.018421
    vertex 0.043893 0.065750 -0.007324
    vertex 0.042089 0.065750 -0.014449
  endloop
endfacet
facet normal 0.000246 -0.000225 -0.000087
  outer loop
    vertex 0.066330 0.093750 -0.018421
    vertex 0.042089 0.065750 -0.014449
    vertex 0.063235 0.093750 -0.027209
  endloop
endfacet
facet normal 0.000188 -0.000180 -0.000083
  outer loop
    vertex 0.063235 0.093750 -0.027209
    vertex 0.042089 0.065750 -0.014449
    vertex 0.039137 0.065750 -0.021180
  endloop
endfacet
facet normal 0.000232 -0.000225 -0.000119
  outer loop
    vertex 0.063235 0.093750 -0.027209
    vertex 0.039137 0.065750 -0.021180
    vertex 0.058981 0.093750 -0.035498
  endloop
endfacet
facet normal 0.000172 -0.000180 -0.000113
  outer loop
    vertex 0.058981 0.093750 -0.035498
    vertex 0.039137 0.065750 -0.021180
    vertex 0.035117 0.065750 -0.027332
  endloop
endfacet
facet normal 0.000214 -0.000226 -0.000149
  outer loop
    vertex 0.058981 0.093750 -0.035498
    vertex 0.035117 0.065750 -0.027332
    vertex 0.053648 0.093750 -0.043138
  endloop
endfacet
facet normal 0.000151 -0.000179 -0.000139
  outer loop
    vertex 0.053648 0.093750 -0.043138
    vertex 0.035117 0.065750 -0.027332
    vertex 0.030139 0.065750 -0.032740
  endloop
endfacet
facet normal 0.000192 -0.000227 -0.000177
  outer loop
    vertex 0.053648 0.093750 -0.043138
    vertex 0.030139 0.065750 -0.032740
    vertex 0.047332 0.093750 -0.049987
  endloop
endfacet
facet normal 0.000166 -0.000226 -0.000201
  outer loop
    vertex 0.047332 0.093750 -0.049987
    vertex 0.030139 0.065750 -0.032740
    vertex 0.040148 0.093750 -0.055920
  endloop
endfacet
facet normal 0.000126 -0.000180 -0.000162
  outer loop
    vertex 0.040148 0.093750 -0.055920
    vertex 0.030139 0.065750 -0.032740
    vertex 0.024339 0.065750 -0.037254
  endloop
endfacet
facet normal 0.000137 -0.000225 -0.000222
  outer loop
    vertex 0.040148 0.093750 -0.055920
    vertex 0.024339 0.065750 -0.037254
    vertex 0.032229 0.093750 -0.060829
  endloop
endfacet
facet normal 0.000098 -0.000180 -0.000181
  outer loop
    vertex 0.032229 0.093750 -0.060829
    vertex 0.024339 0.065750 -0.037254
    vertex 0.017875 0.065750 -0.040752
  endloop
endfacet
facet normal 0.000106 -0.000225 -0.000238
  outer loop
    vertex 0.032229 0.093750 -0.060829
    vertex 0.017875 0.065750 -0.040752
    vertex 0.023720 0.093750 -0.064624
  endloop
endfacet
facet normal 0.000067 -0.000180 -0.000195
  outer loop
    vertex 0.023720 0.093750 -0.064624
    vertex 0.017875 0.065750 -0.040752
    vertex 0.010924 0.065750 -0.043138
  endloop
endfacet
facet normal 0.000073 -0.000226 -0.000250
  outer loop
    vertex 0.023720 0.093750 -0.064624
    vertex 0.010924 0.065750 -0.043138
    vertex 0.014777 0.093750 -0.067235
  endloop
endfacet
facet normal 0.000031 -0.000152 -0.000172
  outer loop
    vertex 0.014777 0.093750 -0.067235
    vertex 0.010924 0.065750 -0.043138
    vertex 0.005563 0.071500 -0.049185
  endloop
endfacet
facet normal 0.000031 -0.000179 -0.000205
  outer loop
    vertex 0.014777 0.093750 -0.067235
    vertex 0.005563 0.071500 -0.049185
    vertex 0.005563 0.093750 -0.068615
  endloop
endfacet
facet normal 0.000000 0.000000 0.000000
  outer loop
    vertex 0.005563 0.093750 -0.068615
    vertex 0.005563 0.071500 -0.049185
    vertex 0.005563 0.076397 -0.053467
  endloop
endfacet
facet normal 0.000000 0.000000 0.000000
  outer loop
    vertex 0.005563 0.093750 -0.068615
    vertex 0.005563 0.076397 -0.053467
    vertex 0.005563 0.081701 -0.058101
  endloop
endfacet
facet normal 0.000007 -0.000037 -0.000042
  outer loop
    vertex 0.010924 0.065750 -0.043138
    vertex 0.003675 0.065750 -0.044348
    vertex 0.005563 0.071500 -0.049185
  endloop
endfacet
facet normal 0.000002 -0.000018 -0.000021
  outer loop
    vertex 0.005563 0.071500 -0.049185
    vertex 0.003675 0.065750 -0.044348
    vertex 0.001858 0.071500 -0.049464
  endloop
endfacet
facet normal 0.000000 -0.000038 -0.000042
  outer loop
    vertex 0.001858 0.071500 -0.049464
    vertex 0.003675 0.065750 -0.044348
    vertex -0.003675 0.065750 -0.044348
  endloop
endfacet
facet normal -0.000000 -0.000019 -0.000021
  outer loop
    vertex 0.001858 0.071500 -0.049464
    vertex -0.003675 0.065750 -0.044348
    vertex -0.001858 0.071500 -0.049464
  endloop
endfacet
facet normal -0.000002 -0.000018 -0.000021
  outer loop
    vertex -0.001858 0.071500 -0.049464
    vertex -0.003675 0.065750 -0.044348
    vertex -0.005563 0.071500 -0.049185
  endloop
endfacet
facet normal -0.000007 -0.000037 -0.000042
  outer loop
    vertex -0.005563 0.071500 -0.049185
    vertex -0.003675 0.065750 -0.044348
    vertex -0.010924 0.065750 -0.043138
  endloop
endfacet
facet normal -0.000031 -0.000152 -0.000172
  outer loop
    vertex -0.005563 0.071500 -0.049185
    vertex -0.010924 0.065750 -0.043138
    vertex -0.014777 0.093750 -0.067235
  endloop
endfacet
facet normal -0.000073 -0.000226 -0.000250
  outer loop
    vertex -0.014777 0.093750 -0.067235
    vertex -0.010924 0.065750 -0.043138
    vertex -0.023720 0.093750 -0.064624
  endloop
endfacet
facet normal -0.000067 -0.000180 -0.000195
  outer loop
    vertex -0.023720 0.093750 -0.064624
    vertex -0.010924 0.065750 -0.043138
    vertex -0.017875 0.065750 -0.040752
  endloop
endfacet
facet normal -0.000106 -0.000225 -0.000238
  outer loop
    vertex -0.023720 0.093750 -0.064624
    vertex -0.017875 0.065750 -0.040752
    vertex -0.032229 0.093750 -0.060829
  endloop
endfacet
facet normal -0.000098 -0.000180 -0.000181
  outer loop
    vertex -0.032229 0.093750 -0.060829
    vertex -0.017875 0.065750 -0.040752
    vertex -0.024339 0.065750 -0.037254
  endloop
endfacet
facet normal -0.000137 -0.000225 -0.000222
  outer loop
    vertex -0.032229 0.093750 -0.060829
    vertex -0.024339 0.065750 -0.037254
    vertex -0.040148 0.093750 -0.055920
  endloop
endfacet
facet normal -0.000126 -0.000180 -0.000162
  outer loop
    vertex -0.040148 0.093750 -0.055920
    vertex -0.024339 0.065750 -0.037254
    vertex -0.030139 0.065750 -0.032740
  endloop
endfacet
facet normal -0.000166 -0.000226 -0.000201
  outer loop
    vertex -0.040148 0.093750 -0.055920
    vertex -0.030139 0.065750 -0.032740
    vertex -0.047332 0.093750 -0.049987
  endloop
endfacet
facet normal -0.000192 -0.000227 -0.000177
  outer loop
    vertex -0.047332 0.093750 -0.049987
    vertex -0.030139 0.065750 -0.032740
    vertex -0.053648 0.093750 -0.043138
  endloop
endfacet
facet normal -0.000151 -0.000179 -0.000139
  outer loop
    vertex -0.053648 0.093750 -0.043138
    vertex -0.030139 0.065750 -0.032740
    vertex -0.035117 0.065750 -0.027332
  endloop
endfacet
facet normal -0.000214 -0.000226 -0.000149
  outer loop
    vertex -0.053648 0.093750 -0.043138
    vertex -0.035117 0.065750 -0.027332
    vertex -0.058981 0.093750 -0.035498
  endloop
endfacet
facet normal -0.000172 -0.000180 -0.000113
  outer loop
    vertex -0.058981 0.093750 -0.035498
    vertex -0.035117 0.065750 -0.027332
    vertex -0.039137 0.065750 -0.021180
  endloop
endfacet
facet normal -0.000232 -0.000225 -0.000119
  outer loop
    vertex -0.058981 0.093750 -0.035498
    vertex -0.039137 0.065750 -0.021180
    vertex -0.063235 0.093750 -0.027209
  endloop
endfacet
facet normal -0.000188 -0.000180 -0.000083
  outer loop
    vertex -0.063235 0.093750 -0.027209
    vertex -0.039137 0.065750 -0.021180
    vertex -0.042089 0.065750 -0.014449
  endloop
endfacet
facet normal -0.000246 -0.000225 -0.000087
  outer loop
    vertex -0.063235 0.093750 -0.027209
    vertex -0.042089 0.065750 -0.014449
    vertex -0.066330 0.093750 -0.018421
  endloop
endfacet
facet normal -0.000199 -0.000180 -0.000051
  outer loop
    vertex -0.066330 0.093750 -0.018421
    vertex -0.042089 0.065750 -0.014449
    vertex -0.043893 0.065750 -0.007324
  endloop
endfacet
facet normal -0.000256 -0.000226 -0.000053
  outer loop
    vertex -0.066330 0.093750 -0.018421
    vertex -0.043893 0.065750 -0.007324
    vertex -0.068210 0.093750 -0.009296
  endloop
endfacet
facet normal -0.000205 -0.000179 -0.000017
  outer loop
    vertex -0.068210 0.093750 -0.009296
    vertex -0.043893 0.065750 -0.007324
    vertex -0.044500 0.065750 0.000000
  endloop
endfacet
facet normal -0.000260 -0.000226 -0.000018
  outer loop
    vertex -0.068210 0.093750 -0.009296
    vertex -0.044500 0.065750 0.000000
    vertex -0.068840 0.093750 0.000000
  endloop
endfacet
facet normal -0.000260 -0.000226 0.000018
  outer loop
    vertex -0.068840 0.093750 0.000000
    vertex -0.044500 0.065750 0.000000
    vertex -0.068210 0.093750 0.009296
  endloop
endfacet
facet normal -0.000205 -0.000179 0.000017
  outer loop
    vertex -0.068210 0.093750 0.009296
    vertex -0.044500 0.065750 0.000000
    vertex -0.043893 0.065750 0.007324
  endloop
endfacet
facet normal -0.000256 -0.000226 0.000053
  outer loop
    vertex -0.068210 0.093750 0.009296
    vertex -0.043893 0.065750 0.007324
    vertex -0.066330 0.093750 0.018421
  endloop
endfacet
facet normal -0.000199 -0.000180 0.000051
  outer loop
    vertex -0.066330 0.093750 0.018421
    vertex -0.043893 0.065750 0.007324
    vertex -0.042089 0.065750 0.014449
  endloop
endfacet
facet normal -0.000246 -0.000225 0.000087
  outer loop
    vertex -0.066330 0.093750 0.018421
    vertex -0.042089 0.065750 0.014449
    vertex -0.063235 0.093750 0.027209
  endloop
endfacet
facet normal -0.000188 -0.000180 0.000083
  outer loop
    vertex -0.063235 0.093750 0.027209
    vertex -0.042089 0.065750 0.014449
    vertex -0.039137 0.065750 0.021180
  endloop
endfacet
facet normal -0.000232 -0.000225 0.000119
  outer loop
    vertex -0.063235 0.093750 0.027209
    vertex -0.039137 0.065750 0.021180
    vertex -0.058981 0.093750 0.035498
  endloop
endfacet
facet normal -0.000172 -0.000180 0.000113
  outer loop
    vertex -0.058981 0.093750 0.035498
    vertex -0.039137 0.065750 0.021180
    vertex -0.035117 0.065750 0.027332
  endloop
endfacet
facet normal -0.000214 -0.000226 0.000149
  outer loop
    vertex -0.058981 0.093750 0.035498
    vertex -0.035117 0.065750 0.027332
    vertex -0.053648 0.093750 0.043138
  endloop
endfacet
facet normal -0.000151 -0.000179 0.000139
  outer loop
    vertex -0.053648 0.093750 0.043138
    vertex -0.035117 0.065750 0.027332
    vertex -0.030139 0.065750 0.032740
  endloop
endfacet
facet normal -0.000192 -0.000227 0.000177
  outer loop
    vertex -0.053648 0.093750 0.043138
    vertex -0.030139 0.065750 0.032740
    vertex -0.047332 0.093750 0.049987
  endloop
endfacet
facet normal -0.000166 -0.000226 0.000201
  outer loop
    vertex -0.047332 0.093750 0.049987
    vertex -0.030139 0.065750 0.032740
    vertex -0.040148 0.093750 0.055920
  endloop
endfacet
facet normal -0.000126 -0.000180 0.000162
  outer loop
    vertex -0.040148 0.093750 0.055920
    vertex -0.030139 0.065750 0.032740
    vertex -0.024339 0.065750 0.037254
  endloop
endfacet
facet normal -0.000137 -0.000225 0.000222
  outer loop
    vertex -0.040148 0.093750 0.055920
    vertex -0.024339 0.065750 0.037254
    vertex -0.032229 0.093750 0.060829
  endloop
endfacet
facet normal -0.000098 -0.000180 0.000181
  outer loop
    vertex -0.032229 0.093750 0.060829
    vertex -0.024339 0.065750 0.037254
    vertex -0.017875 0.065750 0.040752
  endloop
endfacet
facet normal -0.000106 -0.000225 0.000238
  outer loop
    vertex -0.032229 0.093750 0.060829
    vertex -0.017875 0.065750 0.040752
    vertex -0.023720 0.093750 0.064624
  endloop
endfacet
facet normal -0.000067 -0.000180 0.000195
  outer loop
    vertex -0.023720 0.093750 0.064624
    vertex -0.017875 0.065750 0.040752
    vertex -0.010924 0.065750 0.043138
  endloop
endfacet
facet normal -0.000073 -0.000226 0.000250
  outer loop
    vertex -0.023720 0.093750 0.064624
    vertex -0.010924 0.065750 0.043138
    vertex -0.014777 0.093750 0.067235
  endloop
endfacet
facet normal -0.000031 -0.000152 0.000172
  outer loop
    vertex -0.014777 0.093750 0.067235
    vertex -0.010924 0.065750 0.043138
    vertex -0.005563 0.071500 0.049185
  endloop
endfacet
facet normal -0.000007 -0.000039 0.000045
  outer loop
    vertex -0.014777 0.093750 0.067235
    vertex -0.005563 0.071500 0.049185
    vertex -0.005563 0.076397 0.053467
  endloop
endfacet
facet normal -0.000007 -0.000037 0.000042
  outer loop
    vertex -0.010924 0.065750 0.043138
    vertex -0.003675 0.065750 0.044348
    vertex -0.005563 0.071500 0.049185
  endloop
endfacet
facet normal -0.000002 -0.000018 0.000021
  outer loop
    vertex -0.005563 0.071500 0.049185
    vertex -0.003675 0.065750 0.044348
    vertex -0.001858 0.071500 0.049464
  endloop
endfacet
facet normal 0.000000 -0.000038 0.000042
  outer loop
    vertex -0.001858 0.071500 0.049464
    vertex -0.003675 0.065750 0.044348
    vertex 0.003675 0.065750 0.044348
  endloop
endfacet
facet normal 0.000000 -0.000019 0.000021
  outer loop
    vertex -0.001858 0.071500 0.049464
    vertex 0.003675 0.065750 0.044348
    vertex 0.001858 0.071500 0.049464
  endloop
endfacet
facet normal 0.000002 -0.000018 0.000021
  outer loop
    vertex 0.001858 0.071500 0.049464
    vertex 0.003675 0.065750 0.044348
    vertex 0.005563 0.071500 0.049185
  endloop
endfacet
facet normal 0.000007 -0.000037 0.000042
  outer loop
    vertex 0.005563 0.071500 0.049185
    vertex 0.003675 0.065750 0.044348
    vertex 0.010924 0.065750 0.043138
  endloop
endfacet
facet normal 0.000031 -0.000152 0.000172
  outer loop
    vertex 0.005563 0.071500 0.049185
    vertex 0.010924 0.065750 0.043138
    vertex 0.014777 0.093750 0.067235
  endloop
endfacet
facet normal 0.000073 -0.000226 0.000250
  outer loop
    vertex 0.014777 0.093750 0.067235
    vertex 0.010924 0.065750 0.043138
    vertex 0.023720 0.093750 0.064624
  endloop
endfacet
facet normal 0.000067 -0.000180 0.000195
  outer loop
    vertex 0.023720 0.093750 0.064624
    vertex 0.010924 0.065750 0.043138
    vertex 0.017875 0.065750 0.040752
  endloop
endfacet
facet normal 0.000106 -0.000225 0.000238
  outer loop
    vertex 0.023720 0.093750 0.064624
    vertex 0.017875 0.065750 0.040752
    vertex 0.032229 0.093750 0.060829
  endloop
endfacet
facet normal 0.000098 -0.000180 0.000181
  outer loop
    vertex 0.032229 0.093750 0.060829
    vertex 0.017875 0.065750 0.040752
    vertex 0.024339 0.065750 0.037254
  endloop
endfacet
facet normal 0.000137 -0.000225 0.000222
  outer loop
    vertex 0.032229 0.093750 0.060829
    vertex 0.024339 0.065750 0.037254
    vertex 0.040148 0.093750 0.055920
  endloop
endfacet
facet normal 0.000126 -0.000180 0.000162
  outer loop
    vertex 0.040148 0.093750 0.055920
    vertex 0.024339 0.065750 0.037254
    vertex 0.030139 0.065750 0.032740
  endloop
endfacet
facet normal 0.000166 -0.000226 0.000201
  outer loop
    vertex 0.040148 0.093750 0.055920
    vertex 0.030139 0.065750 0.032740
    vertex 0.047332 0.093750 0.049987
  endloop
endfacet
facet normal 0.000192 -0.000227 0.000177
  outer loop
    vertex 0.047332 0.093750 0.049987
    vertex 0.030139 0.065750 0.032740
    vertex 0.053648 0.093750 0.043138
  endloop
endfacet
facet normal 0.000151 -0.000179 0.000139
  outer loop
    vertex 0.053648 0.093750 0.043138
    vertex 0.030139 0.065750 0.032740
    vertex 0.035117 0.065750 0.027332
  endloop
endfacet
facet normal 0.000214 -0.000226 0.000149
  outer loop
    vertex 0.053648 0.093750 0.043138
    vertex 0.035117 0.065750 0.027332
    vertex 0.058981 0.093750 0.035498
  endloop
endfacet
facet normal 0.000172 -0.000180 0.000113
  outer loop
    vertex 0.058981 0.093750 0.035498
    vertex 0.035117 0.065750 0.027332
    vertex 0.039137 0.065750 0.021180
  endloop
endfacet
facet normal 0.000232 -0.000225 0.000119
  outer loop
    vertex 0.058981 0.093750 0.035498
    vertex 0.039137 0.065750 0.021180
    vertex 0.063235 0.093750 0.027209
  endloop
endfacet
facet normal 0.000188 -0.000180 0.000083
  outer loop
    vertex 0.063235 0.093750 0.027209
    vertex 0.039137 0.065750 0.021180
    vertex 0.042089 0.065750 0.014449
  endloop
endfacet
facet normal 0.000246 -0.000225 0.000087
  outer loop
    vertex 0.063235 0.093750 0.027209
    vertex 0.042089 0.065750 0.014449
    vertex 0.066330 0.093750 0.018421
  endloop
endfacet
facet normal 0.000199 -0.000180 0.000051
  outer loop
    vertex 0.066330 0.093750 0.018421
    vertex 0.042089 0.065750 0.014449
    vertex 0.043893 0.065750 0.007324
  endloop
endfacet
facet normal 0.000256 -0.000226 0.000053
  outer loop
    vertex 0.066330 0.093750 0.018421
    vertex 0.043893 0.065750 0.007324
    vertex 0.068210 0.093750 0.009296
  endloop
endfacet
facet normal 0.000205 -0.000179 0.000017
  outer loop
    vertex 0.068210 0.093750 0.009296
    vertex 0.043893 0.065750 0.007324
    vertex 0.044500 0.065750 0.000000
  endloop
endfacet
facet normal 0.000000 -0.000000 0.000000
  outer loop
    vertex 0.005563 0.087465 0.063132
    vertex 0.005563 0.081701 0.058101
    vertex 0.005563 0.093750 0.068615
  endloop
endfacet
facet normal 0.000000 0.000000 0.000000
  outer loop
    vertex 0.005563 0.093750 0.068615
    vertex 0.005563 0.081701 0.058101
    vertex 0.005563 0.076397 0.053467
  endloop
endfacet
facet normal 0.000000 0.000000 0.000000
  outer loop
    vertex 0.005563 0.093750 0.068615
    vertex 0.005563 0.076397 0.053467
    vertex 0.005563 0.071500 0.049185
  endloop
endfacet
facet normal -0.000007 -0.000043 0.000049
  outer loop
    vertex -0.005563 0.076397 0.053467
    vertex -0.005563 0.081701 0.058101
    vertex -0.014777 0.093750 0.067235
  endloop
endfacet
facet normal -0.000017 -0.000097 0.000111
  outer loop
    vertex -0.014777 0.093750 0.067235
    vertex -0.005563 0.081701 0.058101
    vertex -0.005563 0.093750 0.068615
  endloop
endfacet
facet normal -0.000000 0.000000 0.000000
  outer loop
    vertex -0.005563 0.093750 0.068615
    vertex -0.005563 0.081701 0.058101
    vertex -0.005563 0.087465 0.063132
  endloop
endfacet
facet normal -0.000007 -0.000039 -0.000045
  outer loop
    vertex -0.005563 0.071500 -0.049185
    vertex -0.014777 0.093750 -0.067235
    vertex -0.005563 0.076397 -0.053467
  endloop
endfacet
facet normal -0.000024 -0.000140 -0.000160
  outer loop
    vertex -0.005563 0.076397 -0.053467
    vertex -0.014777 0.093750 -0.067235
    vertex -0.005563 0.093750 -0.068615
  endloop
endfacet
facet normal -0.000000 0.000000 0.000000
  outer loop
    vertex -0.005563 0.076397 -0.053467
    vertex -0.005563 0.093750 -0.068615
    vertex -0.005563 0.081701 -0.058101
  endloop
endfacet
facet normal -0.000000 0.000000 0.000000
  outer loop
    vertex -0.005563 0.081701 -0.058101
    vertex -0.005563 0.093750 -0.068615
    vertex -0.005563 0.087465 -0.063132
  endloop
endfacet
facet normal 0.000000 0.000000 0.000000
  outer loop
    vertex 0.005563 0.081701 -0.058101
    vertex 0.005563 0.087465 -0.063132
    vertex 0.005563 0.093750 -0.068615
  endloop
endfacet
facet normal 0.000031 -0.000179 0.000205
  outer loop
    vertex 0.014777 0.093750 0.067235
    vertex 0.005563 0.093750 0.068615
    vertex 0.005563 0.071500 0.049185
  endloop
endfacet
facet normal 0.000000 0.001264 0.000000
  outer loop
    vertex -0.005563 0.093750 0.068615
    vertex -0.005563 0.093750 -0.068615
    vertex -0.014777 0.093750 0.067235
  endloop
endfacet
facet normal 0.000000 0.001239 0.000000
  outer loop
    vertex -0.014777 0.093750 0.067235
    vertex -0.005563 0.093750 -0.068615
    vertex -0.014777 0.093750 -0.067235
  endloop
endfacet
facet normal 0.000000 0.001203 0.000000
  outer loop
    vertex -0.014777 0.093750 0.067235
    vertex -0.014777 0.093750 -0.067235
    vertex -0.023720 0.093750 0.064624
  endloop
endfacet
facet normal 0.000000 0.001156 0.000000
  outer loop
    vertex -0.023720 0.093750 0.064624
    vertex -0.014777 0.093750 -0.067235
    vertex -0.023720 0.093750 -0.064624
  endloop
endfacet
facet normal 0.000000 0.001100 0.000000
  outer loop
    vertex -0.023720 0.093750 0.064624
    vertex -0.023720 0.093750 -0.064624
    vertex -0.032229 0.093750 0.060829
  endloop
endfacet
facet normal 0.000000 0.001035 0.000000
  outer loop
    vertex -0.032229 0.093750 0.060829
    vertex -0.023720 0.093750 -0.064624
    vertex -0.032229 0.093750 -0.060829
  endloop
endfacet
facet normal 0.000000 0.000963 0.000000
  outer loop
    vertex -0.032229 0.093750 0.060829
    vertex -0.032229 0.093750 -0.060829
    vertex -0.040148 0.093750 0.055920
  endloop
endfacet
facet normal 0.000000 0.000886 0.000000
  outer loop
    vertex -0.040148 0.093750 0.055920
    vertex -0.032229 0.093750 -0.060829
    vertex -0.040148 0.093750 -0.055920
  endloop
endfacet
facet normal 0.000000 0.000803 0.000000
  outer loop
    vertex -0.040148 0.093750 0.055920
    vertex -0.040148 0.093750 -0.055920
    vertex -0.047332 0.093750 0.049987
  endloop
endfacet
facet normal 0.000000 0.000718 0.000000
  outer loop
    vertex -0.047332 0.093750 0.049987
    vertex -0.040148 0.093750 -0.055920
    vertex -0.047332 0.093750 -0.049987
  endloop
endfacet
facet normal 0.000000 0.000631 0.000000
  outer loop
    vertex -0.047332 0.093750 0.049987
    vertex -0.047332 0.093750 -0.049987
    vertex -0.053648 0.093750 0.043138
  endloop
endfacet
facet normal 0.000000 0.000545 0.000000
  outer loop
    vertex -0.053648 0.093750 0.043138
    vertex -0.047332 0.093750 -0.049987
    vertex -0.053648 0.093750 -0.043138
  endloop
endfacet
facet normal 0.000000 0.000460 0.000000
  outer loop
    vertex -0.053648 0.093750 0.043138
    vertex -0.053648 0.093750 -0.043138
    vertex -0.058981 0.093750 0.035498
  endloop
endfacet
facet normal 0.000000 0.000379 0.000000
  outer loop
    vertex -0.058981 0.093750 0.035498
    vertex -0.053648 0.093750 -0.043138
    vertex -0.058981 0.093750 -0.035498
  endloop
endfacet
facet normal 0.000000 0.000302 0.000000
  outer loop
    vertex -0.058981 0.093750 0.035498
    vertex -0.058981 0.093750 -0.035498
    vertex -0.063235 0.093750 0.027209
  endloop
endfacet
facet normal 0.000000 0.000231 0.000000
  outer loop
    vertex -0.063235 0.093750 0.027209
    vertex -0.058981 0.093750 -0.035498
    vertex -0.063235 0.093750 -0.027209
  endloop
endfacet
facet normal 0.000000 0.000168 0.000000
  outer loop
    vertex -0.063235 0.093750 0.027209
    vertex -0.063235 0.093750 -0.027209
    vertex -0.066330 0.093750 0.018421
  endloop
endfacet
facet normal 0.000000 0.000114 0.000000
  outer loop
    vertex -0.066330 0.093750 0.018421
    vertex -0.063235 0.093750 -0.027209
    vertex -0.066330 0.093750 -0.018421
  endloop
endfacet
facet normal 0.000000 0.000069 0.000000
  outer loop
    vertex -0.066330 0.093750 0.018421
    vertex -0.066330 0.093750 -0.018421
    vertex -0.068210 0.093750 0.009296
  endloop
endfacet
facet normal 0.000000 0.000035 0.000000
  outer loop
    vertex -0.068210 0.093750 0.009296
    vertex -0.066330 0.093750 -0.018421
    vertex -0.068210 0.093750 -0.009296
  endloop
endfacet
facet normal 0.000000 0.000012 0.000000
  outer loop
    vertex -0.068210 0.093750 0.009296
    vertex -0.068210 0.093750 -0.009296
    vertex -0.068840 0.093750 0.000000
  endloop
endfacet
facet normal 0.000000 -0.000009 0.000000
  outer loop
    vertex 0.044500 0.000000 0.000000
    vertex 0.043893 0.000000 0.007324
    vertex 0.043893 0.000000 -0.007324
  endloop
endfacet
facet normal -0.000000 -0.000026 0.000000
  outer loop
    vertex 0.043893 0.000000 -0.007324
    vertex 0.043893 0.000000 0.007324
    vertex 0.042089 0.000000 -0.014449
  endloop
endfacet
facet normal 0.000000 -0.000052 0.000000
  outer loop
    vertex 0.042089 0.000000 -0.014449
    vertex 0.043893 0.000000 0.007324
    vertex 0.042089 0.000000 0.014449
  endloop
endfacet
facet normal -0.000000 -0.000085 0.000000
  outer loop
    vertex 0.042089 0.000000 -0.014449
    vertex 0.042089 0.000000 0.014449
    vertex 0.039137 0.000000 -0.021180
  endloop
endfacet
facet normal 0.000000 -0.000125 0.000000
  outer loop
    vertex 0.039137 0.000000 -0.021180
    vertex 0.042089 0.000000 0.014449
    vertex 0.039137 0.000000 0.021180
  endloop
endfacet
facet normal -0.000000 -0.000170 0.000000
  outer loop
    vertex 0.039137 0.000000 -0.021180
    vertex 0.039137 0.000000 0.021180
    vertex 0.035117 0.000000 -0.027332
  endloop
endfacet
facet normal 0.000000 -0.000220 0.000000
  outer loop
    vertex 0.035117 0.000000 -0.027332
    vertex 0.039137 0.000000 0.021180
    vertex 0.035117 0.000000 0.027332
  endloop
endfacet
facet normal -0.000000 -0.000272 0.000000
  outer loop
    vertex 0.035117 0.000000 -0.027332
    vertex 0.035117 0.000000 0.027332
    vertex 0.030139 0.000000 -0.032740
  endloop
endfacet
facet normal 0.000000 -0.000326 0.000000
  outer loop
    vertex 0.030139 0.000000 -0.032740
    vertex 0.035117 0.000000 0.027332
    vertex 0.030139 0.000000 0.032740
  endloop
endfacet
facet normal -0.000000 -0.000380 0.000000
  outer loop
    vertex 0.030139 0.000000 -0.032740
    vertex 0.030139 0.000000 0.032740
    vertex 0.024339 0.000000 -0.037254
  endloop
endfacet
facet normal 0.000000 -0.000432 0.000000
  outer loop
    vertex 0.024339 0.000000 -0.037254
    vertex 0.030139 0.000000 0.032740
    vertex 0.024339 0.000000 0.037254
  endloop
endfacet
facet normal -0.000000 -0.000482 0.000000
  outer loop
    vertex 0.024339 0.000000 -0.037254
    vertex 0.024339 0.000000 0.037254
    vertex 0.017875 0.000000 -0.040752
  endloop
endfacet
facet normal 0.000000 -0.000527 0.000000
  outer loop
    vertex 0.017875 0.000000 -0.040752
    vertex 0.024339 0.000000 0.037254
    vertex 0.017875 0.000000 0.040752
  endloop
endfacet
facet normal -0.000000 -0.000567 0.000000
  outer loop
    vertex 0.017875 0.000000 -0.040752
    vertex 0.017875 0.000000 0.040752
    vertex 0.010924 0.000000 -0.043138
  endloop
endfacet
facet normal 0.000000 -0.000600 0.000000
  outer loop
    vertex 0.010924 0.000000 -0.043138
    vertex 0.017875 0.000000 0.040752
    vertex 0.010924 0.000000 0.043138
  endloop
endfacet
facet normal -0.000000 -0.000625 0.000000
  outer loop
    vertex 0.010924 0.000000 -0.043138
    vertex 0.010924 0.000000 0.043138
    vertex 0.003675 0.000000 -0.044348
  endloop
endfacet
facet normal 0.000000 -0.000643 0.000000
  outer loop
    vertex 0.003675 0.000000 -0.044348
    vertex 0.010924 0.000000 0.043138
    vertex 0.003675 0.000000 0.044348
  endloop
endfacet
facet normal 0.000000 -0.000652 0.000000
  outer loop
    vertex 0.003675 0.000000 -0.044348
    vertex 0.003675 0.000000 0.044348
    vertex -0.003675 0.000000 -0.044348
  endloop
endfacet
facet normal 0.000000 -0.000652 0.000000
  outer loop
    vertex -0.003675 0.000000 -0.044348
    vertex 0.003675 0.000000 0.044348
    vertex -0.003675 0.000000 0.044348
  endloop
endfacet
facet normal 0.000000 -0.000643 0.000000
  outer loop
    vertex -0.003675 0.000000 -0.044348
    vertex -0.003675 0.000000 0.044348
    vertex -0.010924 0.000000 -0.043138
  endloop
endfacet
facet normal 0.000000 -0.000625 0.000000
  outer loop
    vertex -0.010924 0.000000 -0.043138
    vertex -0.003675 0.000000 0.044348
    vertex -0.010924 0.000000 0.043138
  endloop
endfacet
facet normal 0.000000 -0.000600 0.000000
  outer loop
    vertex -0.010924 0.000000 -0.043138
    vertex -0.010924 0.000000 0.043138
    vertex -0.017875 0.000000 -0.040752
  endloop
endfacet
facet normal 0.000000 -0.000567 0.000000
  outer loop
    vertex -0.017875 0.000000 -0.040752
    vertex -0.010924 0.000000 0.043138
    vertex -0.017875 0.000000 0.040752
  endloop
endfacet
facet normal 0.000000 -0.000527 0.000000
  outer loop
    vertex -0.017875 0.000000 -0.040752
    vertex -0.017875 0.000000 0.040752
    vertex -0.024339 0.000000 -0.037254
  endloop
endfacet
facet normal 0.000000 -0.000482 0.000000
  outer loop
    vertex -0.024339 0.000000 -0.037254
    vertex -0.017875 0.000000 0.040752
    vertex -0.024339 0.000000 0.037254
  endloop
endfacet
facet normal 0.000000 -0.000432 0.000000
  outer loop
    vertex -0.024339 0.000000 -0.037254
    vertex -0.024339 0.000000 0.037254
    vertex -0.030139 0.000000 -0.032740
  endloop
endfacet
facet normal 0.000000 -0.000380 0.000000
  outer loop
    vertex -0.030139 0.000000 -0.032740
    vertex -0.024339 0.000000 0.037254
    vertex -0.030139 0.000000 0.032740
  endloop
endfacet
facet normal 0.000000 -0.000326 0.000000
  outer loop
    vertex -0.030139 0.000000 -0.032740
    vertex -0.030139 0.000000 0.032740
    vertex -0.035117 0.000000 -0.027332
  endloop
endfacet
facet normal 0.000000 -0.000272 0.000000
  outer loop
    vertex -0.035117 0.000000 -0.027332
    vertex -0.030139 0.000000 0.032740
    vertex -0.035117 0.000000 0.027332
  endloop
endfacet
facet normal 0.000000 -0.000220 0.000000
  outer loop
    vertex -0.035117 0.000000 -0.027332
    vertex -0.035117 0.000000 0.027332
    vertex -0.039137 0.000000 -0.021180
  endloop
endfacet
facet normal 0.000000 -0.000170 0.000000
  outer loop
    vertex -0.039137 0.000000 -0.021180
    vertex -0.035117 0.000000 0.027332
    vertex -0.039137 0.000000 0.021180
  endloop
endfacet
facet normal 0.000000 -0.000125 0.000000
  outer loop
    vertex -0.039137 0.000000 -0.021180
    vertex -0.039137 0.000000 0.021180
    vertex -0.042089 0.000000 -0.014449
  endloop
endfacet
facet normal 0.000000 -0.000085 0.000000
  outer loop
    vertex -0.042089 0.000000 -0.014449
    vertex -0.039137 0.000000 0.021180
    vertex -0.042089 0.000000 0.014449
  endloop
endfacet
facet normal 0.000000 -0.000052 0.000000
  outer loop
    vertex -0.042089 0.000000 -0.014449
    vertex -0.042089 0.000000 0.014449
    vertex -0.043893 0.000000 -0.007324
  endloop
endfacet
facet normal 0.000000 -0.000026 0.000000
  outer loop
    vertex -0.043893 0.000000 -0.007324
    vertex -0.042089 0.000000 0.014449
    vertex -0.043893 0.000000 0.007324
  endloop
endfacet
facet normal 0.000000 -0.000009 0.000000
  outer loop
    vertex -0.043893 0.000000 -0.007324
    vertex -0.043893 0.000000 0.007324
    vertex -0.044500 0.000000 0.000000
  endloop
endfacet
facet normal 0.000000 0.001264 0.000000
  outer loop
    vertex 0.005563 0.093750 -0.068615
    vertex 0.005563 0.093750 0.068615
    vertex 0.014777 0.093750 -0.067235
  endloop
endfacet
facet normal 0.000000 0.001239 -0.000000
  outer loop
    vertex 0.014777 0.093750 -0.067235
    vertex 0.005563 0.093750 0.068615
    vertex 0.014777 0.093750 0.067235
  endloop
endfacet
facet normal 0.000000 0.001203 0.000000
  outer loop
    vertex 0.014777 0.093750 -0.067235
    vertex 0.014777 0.093750 0.067235
    vertex 0.023720 0.093750 -0.064624
  endloop
endfacet
facet normal 0.000000 0.001156 -0.000000
  outer loop
    vertex 0.023720 0.093750 -0.064624
    vertex 0.014777 0.093750 0.067235
    vertex 0.023720 0.093750 0.064624
  endloop
endfacet
facet normal 0.000000 0.001100 0.000000
  outer loop
    vertex 0.023720 0.093750 -0.064624
    vertex 0.023720 0.093750 0.064624
    vertex 0.032229 0.093750 -0.060829
  endloop
endfacet
facet normal 0.000000 0.001035 -0.000000
  outer loop
    vertex 0.032229 0.093750 -0.060829
    vertex 0.023720 0.093750 0.064624
    vertex 0.032229 0.093750 0.060829
  endloop
endfacet
facet normal 0.000000 0.000963 0.000000
  outer loop
    vertex 0.032229 0.093750 -0.060829
    vertex 0.032229 0.093750 0.060829
    vertex 0.040148 0.093750 -0.055920
  endloop
endfacet
facet normal 0.000000 0.000886 -0.000000
  outer loop
    vertex 0.040148 0.093750 -0.055920
    vertex 0.032229 0.093750 0.060829
    vertex 0.040148 0.093750 0.055920
  endloop
endfacet
facet normal 0.000000 0.000803 0.000000
  outer loop
    vertex 0.040148 0.093750 -0.055920
    vertex 0.040148 0.093750 0.055920
    vertex 0.047332 0.093750 -0.049987
  endloop
endfacet
facet normal 0.000000 0.000718 -0.000000
  outer loop
    vertex 0.047332 0.093750 -0.049987
    vertex 0.040148 0.093750 0.055920
    vertex 0.047332 0.093750 0.049987
  endloop
endfacet
facet normal 0.000000 0.000631 0.000000
  outer loop
    vertex 0.047332 0.093750 -0.049987
    vertex 0.047332 0.093750 0.049987
    vertex 0.053648 0.093750 -0.043138
  endloop
endfacet
facet normal 0.000000 0.000545 -0.000000
  outer loop
    vertex 0.053648 0.093750 -0.043138
    vertex 0.047332 0.093750 0.049987
    vertex 0.053648 0.093750 0.043138
  endloop
endfacet
facet normal 0.000000 0.000460 0.000000
  outer loop
    vertex 0.053648 0.093750 -0.043138
    vertex 0.053648 0.093750 0.043138
    vertex 0.058981 0.093750 -0.035498
  endloop
endfacet
facet normal 0.000000 0.000379 -0.000000
  outer loop
    vertex 0.058981 0.093750 -0.035498
    vertex 0.053648 0.093750 0.043138
    vertex 0.058981 0.093750 0.035498
  endloop
endfacet
facet normal 0.000000 0.000302 0.000000
  outer loop
    vertex 0.058981 0.093750 -0.035498
    vertex 0.058981 0.093750 0.035498
    vertex 0.063235 0.093750 -0.027209
  endloop
endfacet
facet normal 0.000000 0.000231 -0.000000
  outer loop
    vertex 0.063235 0.093750 -0.027209
    vertex 0.058981 0.093750 0.035498
    vertex 0.063235 0.093750 0.027209
  endloop
endfacet
facet normal 0.000000 0.000168 0.000000
  outer loop
    vertex 0.063235 0.093750 -0.027209
    vertex 0.063235 0.093750 0.027209
    vertex 0.066330 0.093750 -0.018421
  endloop
endfacet
facet normal 0.000000 0.000114 -0.000000
  outer loop
    vertex 0.066330 0.093750 -0.018421
    vertex 0.063235 0.093750 0.027209
    vertex 0.066330 0.093750 0.018421
  endloop
endfacet
facet normal 0.000000 0.000069 0.000000
  outer loop
    vertex 0.066330 0.093750 -0.018421
    vertex 0.066330 0.093750 0.018421
    vertex 0.068210 0.093750 -0.009296
  endloop
endfacet
facet normal 0.000000 0.000035 -0.000000
  outer loop
    vertex 0.068210 0.093750 -0.009296
    vertex 0.066330 0.093750 0.018421
    vertex 0.068210 0.093750 0.009296
  endloop
endfacet
facet normal 0.000000 0.000012 0.000000
  outer loop
    vertex 0.068210 0.093750 -0.009296
    vertex 0.068210 0.093750 0.009296
    vertex 0.068840 0.093750 0.000000
  endloop
endfacet
facet normal 0.000482 0.000000 0.000040
  outer loop
    vertex 0.043893 0.065750 0.007324
    vertex 0.043893 0.000000 0.007324
    vertex 0.044500 0.065750 0.000000
  endloop
endfacet
facet normal 0.000482 0.000000 0.000040
  outer loop
    vertex 0.044500 0.065750 0.000000
    vertex 0.043893 0.000000 0.007324
    vertex 0.044500 0.000000 0.000000
  endloop
endfacet
facet normal 0.000482 0.000000 -0.000040
  outer loop
    vertex 0.044500 0.065750 0.000000
    vertex 0.044500 0.000000 0.000000
    vertex 0.043893 0.065750 -0.007324
  endloop
endfacet
facet normal 0.000482 0.000000 -0.000040
  outer loop
    vertex 0.043893 0.065750 -0.007324
    vertex 0.044500 0.000000 0.000000
    vertex 0.043893 0.000000 -0.007324
  endloop
endfacet
facet normal 0.000468 0.000000 -0.000119
  outer loop
    vertex 0.043893 0.065750 -0.007324
    vertex 0.043893 0.000000 -0.007324
    vertex 0.042089 0.065750 -0.014449
  endloop
endfacet
facet normal 0.000468 0.000000 -0.000119
  outer loop
    vertex 0.042089 0.065750 -0.014449
    vertex 0.043893 0.000000 -0.007324
    vertex 0.042089 0.000000 -0.014449
  endloop
endfacet
facet normal 0.000443 0.000000 -0.000194
  outer loop
    vertex 0.042089 0.065750 -0.014449
    vertex 0.042089 0.000000 -0.014449
    vertex 0.039137 0.065750 -0.021180
  endloop
endfacet
facet normal 0.000443 0.000000 -0.000194
  outer loop
    vertex 0.039137 0.065750 -0.021180
    vertex 0.042089 0.000000 -0.014449
    vertex 0.039137 0.000000 -0.021180
  endloop
endfacet
facet normal 0.000405 0.000000 -0.000264
  outer loop
    vertex 0.039137 0.065750 -0.021180
    vertex 0.039137 0.000000 -0.021180
    vertex 0.035117 0.065750 -0.027332
  endloop
endfacet
facet normal 0.000405 0.000000 -0.000264
  outer loop
    vertex 0.035117 0.065750 -0.027332
    vertex 0.039137 0.000000 -0.021180
    vertex 0.035117 0.000000 -0.027332
  endloop
endfacet
facet normal 0.000356 0.000000 -0.000327
  outer loop
    vertex 0.035117 0.065750 -0.027332
    vertex 0.035117 0.000000 -0.027332
    vertex 0.030139 0.065750 -0.032740
  endloop
endfacet
facet normal 0.000356 0.000000 -0.000327
  outer loop
    vertex 0.030139 0.065750 -0.032740
    vertex 0.035117 0.000000 -0.027332
    vertex 0.030139 0.000000 -0.032740
  endloop
endfacet
facet normal 0.000297 0.000000 -0.000381
  outer loop
    vertex 0.030139 0.065750 -0.032740
    vertex 0.030139 0.000000 -0.032740
    vertex 0.024339 0.065750 -0.037254
  endloop
endfacet
facet normal 0.000297 0.000000 -0.000381
  outer loop
    vertex 0.024339 0.065750 -0.037254
    vertex 0.030139 0.000000 -0.032740
    vertex 0.024339 0.000000 -0.037254
  endloop
endfacet
facet normal 0.000230 0.000000 -0.000425
  outer loop
    vertex 0.024339 0.065750 -0.037254
    vertex 0.024339 0.000000 -0.037254
    vertex 0.017875 0.065750 -0.040752
  endloop
endfacet
facet normal 0.000230 0.000000 -0.000425
  outer loop
    vertex 0.017875 0.065750 -0.040752
    vertex 0.024339 0.000000 -0.037254
    vertex 0.017875 0.000000 -0.040752
  endloop
endfacet
facet normal 0.000157 0.000000 -0.000457
  outer loop
    vertex 0.017875 0.065750 -0.040752
    vertex 0.017875 0.000000 -0.040752
    vertex 0.010924 0.065750 -0.043138
  endloop
endfacet
facet normal 0.000157 0.000000 -0.000457
  outer loop
    vertex 0.010924 0.065750 -0.043138
    vertex 0.017875 0.000000 -0.040752
    vertex 0.010924 0.000000 -0.043138
  endloop
endfacet
facet normal 0.000080 0.000000 -0.000477
  outer loop
    vertex 0.010924 0.065750 -0.043138
    vertex 0.010924 0.000000 -0.043138
    vertex 0.003675 0.065750 -0.044348
  endloop
endfacet
facet normal 0.000080 0.000000 -0.000477
  outer loop
    vertex 0.003675 0.065750 -0.044348
    vertex 0.010924 0.000000 -0.043138
    vertex 0.003675 0.000000 -0.044348
  endloop
endfacet
facet normal -0.000000 -0.000000 -0.000483
  outer loop
    vertex 0.003675 0.065750 -0.044348
    vertex 0.003675 0.000000 -0.044348
    vertex -0.003675 0.065750 -0.044348
  endloop
endfacet
facet normal 0.000000 0.000000 -0.000483
  outer loop
    vertex -0.003675 0.065750 -0.044348
    vertex 0.003675 0.000000 -0.044348
    vertex -0.003675 0.000000 -0.044348
  endloop
endfacet
facet normal -0.000080 -0.000000 -0.000477
  outer loop
    vertex -0.003675 0.065750 -0.044348
    vertex -0.003675 0.000000 -0.044348
    vertex -0.010924 0.065750 -0.043138
  endloop
endfacet
facet normal -0.000080 -0.000000 -0.000477
  outer loop
    vertex -0.010924 0.065750 -0.043138
    vertex -0.003675 0.000000 -0.044348
    vertex -0.010924 0.000000 -0.043138
  endloop
endfacet
facet normal -0.000157 -0.000000 -0.000457
  outer loop
    vertex -0.010924 0.065750 -0.043138
    vertex -0.010924 0.000000 -0.043138
    vertex -0.017875 0.065750 -0.040752
  endloop
endfacet
facet normal -0.000157 -0.000000 -0.000457
  outer loop
    vertex -0.017875 0.065750 -0.040752
    vertex -0.010924 0.000000 -0.043138
    vertex -0.017875 0.000000 -0.040752
  endloop
endfacet
facet normal -0.000230 -0.000000 -0.000425
  outer loop
    vertex -0.017875 0.065750 -0.040752
    vertex -0.017875 0.000000 -0.040752
    vertex -0.024339 0.065750 -0.037254
  endloop
endfacet
facet normal -0.000230 -0.000000 -0.000425
  outer loop
    vertex -0.024339 0.065750 -0.037254
    vertex -0.017875 0.000000 -0.040752
    vertex -0.024339 0.000000 -0.037254
  endloop
endfacet
facet normal -0.000297 -0.000000 -0.000381
  outer loop
    vertex -0.024339 0.065750 -0.037254
    vertex -0.024339 0.000000 -0.037254
    vertex -0.030139 0.065750 -0.032740
  endloop
endfacet
facet normal -0.000297 -0.000000 -0.000381
  outer loop
    vertex -0.030139 0.065750 -0.032740
    vertex -0.024339 0.000000 -0.037254
    vertex -0.030139 0.000000 -0.032740
  endloop
endfacet
facet normal -0.000356 -0.000000 -0.000327
  outer loop
    vertex -0.030139 0.065750 -0.032740
    vertex -0.030139 0.000000 -0.032740
    vertex -0.035117 0.065750 -0.027332
  endloop
endfacet
facet normal -0.000356 -0.000000 -0.000327
  outer loop
    vertex -0.035117 0.065750 -0.027332
    vertex -0.030139 0.000000 -0.032740
    vertex -0.035117 0.000000 -0.027332
  endloop
endfacet
facet normal -0.000405 -0.000000 -0.000264
  outer loop
    vertex -0.035117 0.065750 -0.027332
    vertex -0.035117 0.000000 -0.027332
    vertex -0.039137 0.065750 -0.021180
  endloop
endfacet
facet normal -0.000405 -0.000000 -0.000264
  outer loop
    vertex -0.039137 0.065750 -0.021180
    vertex -0.035117 0.000000 -0.027332
    vertex -0.039137 0.000000 -0.021180
  endloop
endfacet
facet normal -0.000443 -0.000000 -0.000194
  outer loop
    vertex -0.039137 0.065750 -0.021180
    vertex -0.039137 0.000000 -0.021180
    vertex -0.042089 0.065750 -0.014449
  endloop
endfacet
facet normal -0.000443 -0.000000 -0.000194
  outer loop
    vertex -0.042089 0.065750 -0.014449
    vertex -0.039137 0.000000 -0.021180
    vertex -0.042089 0.000000 -0.014449
  endloop
endfacet
facet normal -0.000468 -0.000000 -0.000119
  outer loop
    vertex -0.042089 0.065750 -0.014449
    vertex -0.042089 0.000000 -0.014449
    vertex -0.043893 0.065750 -0.007324
  endloop
endfacet
facet normal -0.000468 -0.000000 -0.000119
  outer loop
    vertex -0.043893 0.065750 -0.007324
    vertex -0.042089 0.000000 -0.014449
    vertex -0.043893 0.000000 -0.007324
  endloop
endfacet
facet normal -0.000482 -0.000000 -0.000040
  outer loop
    vertex -0.043893 0.065750 -0.007324
    vertex -0.043893 0.000000 -0.007324
    vertex -0.044500 0.065750 0.000000
  endloop
endfacet
facet normal -0.000482 -0.000000 -0.000040
  outer loop
    vertex -0.044500 0.065750 0.000000
    vertex -0.043893 0.000000 -0.007324
    vertex -0.044500 0.000000 0.000000
  endloop
endfacet
facet normal -0.000482 0.000000 0.000040
  outer loop
    vertex -0.044500 0.065750 0.000000
    vertex -0.044500 0.000000 0.000000
    vertex -0.043893 0.065750 0.007324
  endloop
endfacet
facet normal -0.000482 0.000000 0.000040
  outer loop
    vertex -0.043893 0.065750 0.007324
    vertex -0.044500 0.000000 0.000000
    vertex -0.043893 0.000000 0.007324
  endloop
endfacet
facet normal -0.000468 0.000000 0.000119
  outer loop
    vertex -0.043893 0.065750 0.007324
    vertex -0.043893 0.000000 0.007324
    vertex -0.042089 0.065750 0.014449
  endloop
endfacet
facet normal -0.000468 0.000000 0.000119
  outer loop
    vertex -0.042089 0.065750 0.014449
    vertex -0.043893 0.000000 0.007324
    vertex -0.042089 0.000000 0.014449
  endloop
endfacet
facet normal -0.000443 0.000000 0.000194
  outer loop
    vertex -0.042089 0.065750 0.014449
    vertex -0.042089 0.000000 0.014449
    vertex -0.039137 0.065750 0.021180
  endloop
endfacet
facet normal -0.000443 0.000000 0.000194
  outer loop
    vertex -0.039137 0.065750 0.021180
    vertex -0.042089 0.000000 0.014449
    vertex -0.039137 0.000000 0.021180
  endloop
endfacet
facet normal -0.000405 0.000000 0.000264
  outer loop
    vertex -0.039137 0.065750 0.021180
    vertex -0.039137 0.000000 0.021180
    vertex -0.035117 0.065750 0.027332
  endloop
endfacet
facet normal -0.000405 0.000000 0.000264
  outer loop
    vertex -0.035117 0.065750 0.027332
    vertex -0.039137 0.000000 0.021180
    vertex -0.035117 0.000000 0.027332
  endloop
endfacet
facet normal -0.000356 0.000000 0.000327
  outer loop
    vertex -0.035117 0.065750 0.027332
    vertex -0.035117 0.000000 0.027332
    vertex -0.030139 0.065750 0.032740
  endloop
endfacet
facet normal -0.000356 0.000000 0.000327
  outer loop
    vertex -0.030139 0.065750 0.032740
    vertex -0.035117 0.000000 0.027332
    vertex -0.030139 0.000000 0.032740
  endloop
endfacet
facet normal -0.000297 0.000000 0.000381
  outer loop
    vertex -0.030139 0.065750 0.032740
    vertex -0.030139 0.000000 0.032740
    vertex -0.024339 0.065750 0.037254
  endloop
endfacet
facet normal -0.000297 0.000000 0.000381
  outer loop
    vertex -0.024339 0.065750 0.037254
    vertex -0.030139 0.000000 0.032740
    vertex -0.024339 0.000000 0.037254
  endloop
endfacet
facet normal -0.000230 0.000000 0.000425
  outer loop
    vertex -0.024339 0.065750 0.037254
    vertex -0.024339 0.000000 0.037254
    vertex -0.017875 0.065750 0.040752
  endloop
endfacet
facet normal -0.000230 0.000000 0.000425
  outer loop
    vertex -0.017875 0.065750 0.040752
    vertex -0.024339 0.000000 0.037254
    vertex -0.017875 0.000000 0.040752
  endloop
endfacet
facet normal -0.000157 0.000000 0.000457
  outer loop
    vertex -0.017875 0.065750 0.040752
    vertex -0.017875 0.000000 0.040752
    vertex -0.010924 0.065750 0.043138
  endloop
endfacet
facet normal -0.000157 0.000000 0.000457
  outer loop
    vertex -0.010924 0.065750 0.043138
    vertex -0.017875 0.000000 0.040752
    vertex -0.010924 0.000000 0.043138
  endloop
endfacet
facet normal -0.000080 0.000000 0.000477
  outer loop
    vertex -0.010924 0.065750 0.043138
    vertex -0.010924 0.000000 0.043138
    vertex -0.003675 0.065750 0.044348
  endloop
endfacet
facet normal -0.000080 0.000000 0.000477
  outer loop
    vertex -0.003675 0.065750 0.044348
    vertex -0.010924 0.000000 0.043138
    vertex -0.003675 0.000000 0.044348
  endloop
endfacet
facet normal -0.000000 0.000000 0.000483
  outer loop
    vertex -0.003675 0.065750 0.044348
    vertex -0.003675 0.000000 0.044348
    vertex 0.003675 0.065750 0.044348
  endloop
endfacet
facet normal 0.000000 0.000000 0.000483
  outer loop
    vertex 0.003675 0.065750 0.044348
    vertex -0.003675 0.000000 0.044348
    vertex 0.003675 0.000000 0.044348
  endloop
endfacet
facet normal 0.000080 0.000000 0.000477
  outer loop
    vertex 0.003675 0.065750 0.044348
    vertex 0.003675 0.000000 0.044348
    vertex 0.010924 0.065750 0.043138
  endloop
endfacet
facet normal 0.000080 0.000000 0.000477
  outer loop
    vertex 0.010924 0.065750 0.043138
    vertex 0.003675 0.000000 0.044348
    vertex 0.010924 0.000000 0.043138
  endloop
endfacet
facet normal 0.000157 0.000000 0.000457
  outer loop
    vertex 0.010924 0.065750 0.043138
    vertex 0.010924 0.000000 0.043138
    vertex 0.017875 0.065750 0.040752
  endloop
endfacet
facet normal 0.000157 0.000000 0.000457
  outer loop
    vertex 0.017875 0.065750 0.040752
    vertex 0.010924 0.000000 0.043138
    vertex 0.017875 0.000000 0.040752
  endloop
endfacet
facet normal 0.000230 0.000000 0.000425
  outer loop
    vertex 0.017875 0.065750 0.040752
    vertex 0.017875 0.000000 0.040752
    vertex 0.024339 0.065750 0.037254
  endloop
endfacet
facet normal 0.000230 0.000000 0.000425
  outer loop
    vertex 0.024339 0.065750 0.037254
    vertex 0.017875 0.000000 0.040752
    vertex 0.024339 0.000000 0.037254
  endloop
endfacet
facet normal 0.000297 0.000000 0.000381
  outer loop
    vertex 0.024339 0.065750 0.037254
    vertex 0.024339 0.000000 0.037254
    vertex 0.030139 0.065750 0.032740
  endloop
endfacet
facet normal 0.000297 0.000000 0.000381
  outer loop
    vertex 0.030139 0.065750 0.032740
    vertex 0.024339 0.000000 0.037254
    vertex 0.030139 0.000000 0.032740
  endloop
endfacet
facet normal 0.000356 0.000000 0.000327
  outer loop
    vertex 0.030139 0.065750 0.032740
    vertex 0.030139 0.000000 0.032740
    vertex 0.035117 0.065750 0.027332
  endloop
endfacet
facet normal 0.000356 0.000000 0.000327
  outer loop
    vertex 0.035117 0.065750 0.027332
    vertex 0.030139 0.000000 0.032740
    vertex 0.035117 0.000000 0.027332
  endloop
endfacet
facet normal 0.000405 0.000000 0.000264
  outer loop
    vertex 0.035117 0.065750 0.027332
    vertex 0.035117 0.000000 0.027332
    vertex 0.039137 0.065750 0.021180
  endloop
endfacet
facet normal 0.000405 0.000000 0.000264
  outer loop
    vertex 0.039137 0.065750 0.021180
    vertex 0.035117 0.000000 0.027332
    vertex 0.039137 0.000000 0.021180
  endloop
endfacet
facet normal 0.000443 0.000000 0.000194
  outer loop
    vertex 0.039137 0.065750 0.021180
    vertex 0.039137 0.000000 0.021180
    vertex 0.042089 0.065750 0.014449
  endloop
endfacet
facet normal 0.000443 0.000000 0.000194
  outer loop
    vertex 0.042089 0.065750 0.014449
    vertex 0.039137 0.000000 0.021180
    vertex 0.042089 0.000000 0.014449
  endloop
endfacet
facet normal 0.000468 0.000000 0.000119
  outer loop
    vertex 0.042089 0.065750 0.014449
    vertex 0.042089 0.000000 0.014449
    vertex 0.043893 0.065750 0.007324
  endloop
endfacet
facet normal 0.000468 0.000000 0.000119
  outer loop
    vertex 0.043893 0.065750 0.007324
    vertex 0.042089 0.000000 0.014449
    vertex 0.043893 0.000000 0.007324
  endloop
endfacet
endsolid 87ef23e9-855c-4dbd-9114-2752a0fba3cf-ascii.stl
