solid 9192b72a-a648-4da7-a5bf-cfd3e23b213b-ascii.stl
facet normal -0.000442 0.000000 0.000000
  outer loop
    vertex 0.008562 0.090750 -0.067963
    vertex 0.008562 0.090750 0.067963
    vertex 0.008562 0.094000 -0.067963
  endloop
endfacet
facet normal -0.000442 0.000000 0.000000
  outer loop
    vertex 0.008562 0.094000 -0.067963
    vertex 0.008562 0.090750 0.067963
    vertex 0.008562 0.094000 0.067963
  endloop
endfacet
facet normal -0.000926 0.000000 0.000000
  outer loop
    vertex 0.008562 0.094000 -0.067963
    vertex 0.008562 0.094000 0.067963
    vertex 0.008562 0.100816 -0.073931
  endloop
endfacet
facet normal -0.001008 0.000000 0.000000
  outer loop
    vertex 0.008562 0.100816 -0.073931
    vertex 0.008562 0.094000 0.067963
    vertex 0.008562 0.100816 0.073931
  endloop
endfacet
facet normal -0.001092 0.000000 0.000000
  outer loop
    vertex 0.008562 0.100816 -0.073931
    vertex 0.008562 0.100816 0.073931
    vertex 0.008562 0.108203 -0.080392
  endloop
endfacet
facet normal -0.001188 0.000000 0.000000
  outer loop
    vertex 0.008562 0.108203 -0.080392
    vertex 0.008562 0.100816 0.073931
    vertex 0.008562 0.108203 0.080392
  endloop
endfacet
facet normal -0.001291 0.000000 0.000000
  outer loop
    vertex 0.008562 0.108203 -0.080392
    vertex 0.008562 0.108203 0.080392
    vertex 0.008562 0.116235 -0.087410
  endloop
endfacet
facet normal -0.001404 0.000000 0.000000
  outer loop
    vertex 0.008562 0.116235 -0.087410
    vertex 0.008562 0.108203 0.080392
    vertex 0.008562 0.116235 0.087410
  endloop
endfacet
facet normal -0.001532 0.000000 0.000000
  outer loop
    vertex 0.008562 0.116235 -0.087410
    vertex 0.008562 0.116235 0.087410
    vertex 0.008562 0.125000 -0.095063
  endloop
endfacet
facet normal -0.001666 0.000000 0.000000
  outer loop
    vertex 0.008562 0.125000 -0.095063
    vertex 0.008562 0.116235 0.087410
    vertex 0.008562 0.125000 0.095063
  endloop
endfacet
facet normal 0.000442 -0.000000 0.000000
  outer loop
    vertex -0.008562 0.090750 0.067963
    vertex -0.008562 0.090750 -0.067963
    vertex -0.008562 0.094000 0.067963
  endloop
endfacet
facet normal 0.000442 0.000000 0.000000
  outer loop
    vertex -0.008562 0.094000 0.067963
    vertex -0.008562 0.090750 -0.067963
    vertex -0.008562 0.094000 -0.067963
  endloop
endfacet
facet normal 0.000926 -0.000000 0.000000
  outer loop
    vertex -0.008562 0.094000 0.067963
    vertex -0.008562 0.094000 -0.067963
    vertex -0.008562 0.100816 0.073931
  endloop
endfacet
facet normal 0.001008 0.000000 0.000000
  outer loop
    vertex -0.008562 0.100816 0.073931
    vertex -0.008562 0.094000 -0.067963
    vertex -0.008562 0.100816 -0.073931
  endloop
endfacet
facet normal 0.001092 -0.000000 0.000000
  outer loop
    vertex -0.008562 0.100816 0.073931
    vertex -0.008562 0.100816 -0.073931
    vertex -0.008562 0.108203 0.080392
  endloop
endfacet
facet normal 0.001188 0.000000 0.000000
  outer loop
    vertex -0.008562 0.108203 0.080392
    vertex -0.008562 0.100816 -0.073931
    vertex -0.008562 0.108203 -0.080392
  endloop
endfacet
facet normal 0.001291 -0.000000 0.000000
  outer loop
    vertex -0.008562 0.108203 0.080392
    vertex -0.008562 0.108203 -0.080392
    vertex -0.008562 0.116235 0.087410
  endloop
endfacet
facet normal 0.001404 0.000000 0.000000
  outer loop
    vertex -0.008562 0.116235 0.087410
    vertex -0.008562 0.108203 -0.080392
    vertex -0.008562 0.116235 -0.087410
  endloop
endfacet
facet normal 0.001532 -0.000000 0.000000
  outer loop
    vertex -0.008562 0.116235 0.087410
    vertex -0.008562 0.116235 -0.087410
    vertex -0.008562 0.125000 0.095063
  endloop
endfacet
facet normal 0.001666 0.000000 0.000000
  outer loop
    vertex -0.008562 0.125000 0.095063
    vertex -0.008562 0.116235 -0.087410
    vertex -0.008562 0.125000 -0.095063
  endloop
endfacet
facet normal 0.000000 0.000775 0.000000
  outer loop
    vertex 0.008562 0.090750 0.067963
    vertex 0.008562 0.090750 -0.067963
    vertex 0.002861 0.090750 0.068440
  endloop
endfacet
facet normal 0.000000 0.000780 0.000000
  outer loop
    vertex 0.002861 0.090750 0.068440
    vertex 0.008562 0.090750 -0.067963
    vertex 0.002861 0.090750 -0.068440
  endloop
endfacet
facet normal 0.000000 0.000783 0.000000
  outer loop
    vertex 0.002861 0.090750 0.068440
    vertex 0.002861 0.090750 -0.068440
    vertex -0.002861 0.090750 0.068440
  endloop
endfacet
facet normal 0.000000 0.000783 0.000000
  outer loop
    vertex -0.002861 0.090750 0.068440
    vertex 0.002861 0.090750 -0.068440
    vertex -0.002861 0.090750 -0.068440
  endloop
endfacet
facet normal 0.000000 0.000780 0.000000
  outer loop
    vertex -0.002861 0.090750 0.068440
    vertex -0.002861 0.090750 -0.068440
    vertex -0.008562 0.090750 0.067963
  endloop
endfacet
facet normal 0.000000 0.000775 0.000000
  outer loop
    vertex -0.008562 0.090750 0.067963
    vertex -0.002861 0.090750 -0.068440
    vertex -0.008562 0.090750 -0.067963
  endloop
endfacet
facet normal 0.000858 -0.000000 -0.000057
  outer loop
    vertex 0.067889 0.000000 -0.009130
    vertex 0.067909 0.094000 -0.008975
    vertex 0.068500 0.000000 0.000000
  endloop
endfacet
facet normal 0.000844 0.000000 -0.000056
  outer loop
    vertex 0.068500 0.000000 0.000000
    vertex 0.067909 0.094000 -0.008975
    vertex 0.068500 0.094000 0.000000
  endloop
endfacet
facet normal 0.000844 -0.000000 0.000056
  outer loop
    vertex 0.068500 0.000000 0.000000
    vertex 0.068500 0.094000 0.000000
    vertex 0.067909 0.094000 0.008975
  endloop
endfacet
facet normal 0.000829 0.000000 -0.000166
  outer loop
    vertex 0.067909 0.094000 -0.008975
    vertex 0.067889 0.000000 -0.009130
    vertex 0.066148 0.094000 -0.017796
  endloop
endfacet
facet normal 0.000843 -0.000000 -0.000171
  outer loop
    vertex 0.066148 0.094000 -0.017796
    vertex 0.067889 0.000000 -0.009130
    vertex 0.066066 0.000000 -0.018097
  endloop
endfacet
facet normal 0.000800 0.000000 -0.000273
  outer loop
    vertex 0.066148 0.094000 -0.017796
    vertex 0.066066 0.000000 -0.018097
    vertex 0.063246 0.094000 -0.026310
  endloop
endfacet
facet normal 0.000813 -0.000000 -0.000282
  outer loop
    vertex 0.063246 0.094000 -0.026310
    vertex 0.066066 0.000000 -0.018097
    vertex 0.063065 0.000000 -0.026742
  endloop
endfacet
facet normal 0.000758 0.000000 -0.000375
  outer loop
    vertex 0.063246 0.094000 -0.026310
    vertex 0.063065 0.000000 -0.026742
    vertex 0.059253 0.094000 -0.034370
  endloop
endfacet
facet normal 0.000768 -0.000000 -0.000388
  outer loop
    vertex 0.059253 0.094000 -0.034370
    vertex 0.063065 0.000000 -0.026742
    vertex 0.058938 0.000000 -0.034909
  endloop
endfacet
facet normal 0.000702 0.000000 -0.000471
  outer loop
    vertex 0.059253 0.094000 -0.034370
    vertex 0.058938 0.000000 -0.034909
    vertex 0.054239 0.094000 -0.041838
  endloop
endfacet
facet normal 0.000709 -0.000000 -0.000487
  outer loop
    vertex 0.054239 0.094000 -0.041838
    vertex 0.058938 0.000000 -0.034909
    vertex 0.053759 0.000000 -0.042453
  endloop
endfacet
facet normal 0.000634 0.000000 -0.000559
  outer loop
    vertex 0.054239 0.094000 -0.041838
    vertex 0.053759 0.000000 -0.042453
    vertex 0.048289 0.094000 -0.048584
  endloop
endfacet
facet normal 0.000638 -0.000001 -0.000577
  outer loop
    vertex 0.048289 0.094000 -0.048584
    vertex 0.053759 0.000000 -0.042453
    vertex 0.047621 0.000000 -0.049239
  endloop
endfacet
facet normal 0.000555 0.000000 -0.000638
  outer loop
    vertex 0.048289 0.094000 -0.048584
    vertex 0.047621 0.000000 -0.049239
    vertex 0.041507 0.094000 -0.054492
  endloop
endfacet
facet normal 0.000555 -0.000001 -0.000657
  outer loop
    vertex 0.041507 0.094000 -0.054492
    vertex 0.047621 0.000000 -0.049239
    vertex 0.040633 0.000000 -0.055147
  endloop
endfacet
facet normal 0.000467 0.000001 -0.000705
  outer loop
    vertex 0.041507 0.094000 -0.054492
    vertex 0.040633 0.000000 -0.055147
    vertex 0.034009 0.094000 -0.059461
  endloop
endfacet
facet normal 0.000463 -0.000001 -0.000725
  outer loop
    vertex 0.034009 0.094000 -0.059461
    vertex 0.040633 0.000000 -0.055147
    vertex 0.032920 0.000000 -0.060071
  endloop
endfacet
facet normal 0.000371 0.000001 -0.000760
  outer loop
    vertex 0.034009 0.094000 -0.059461
    vertex 0.032920 0.000000 -0.060071
    vertex 0.025925 0.094000 -0.063405
  endloop
endfacet
facet normal 0.000362 -0.000001 -0.000780
  outer loop
    vertex 0.025925 0.094000 -0.063405
    vertex 0.032920 0.000000 -0.060071
    vertex 0.024619 0.000000 -0.063923
  endloop
endfacet
facet normal 0.000268 0.000001 -0.000802
  outer loop
    vertex 0.025925 0.094000 -0.063405
    vertex 0.024619 0.000000 -0.063923
    vertex 0.017394 0.094000 -0.066255
  endloop
endfacet
facet normal 0.000255 -0.000001 -0.000822
  outer loop
    vertex 0.017394 0.094000 -0.066255
    vertex 0.024619 0.000000 -0.063923
    vertex 0.015880 0.000000 -0.066634
  endloop
endfacet
facet normal 0.000159 0.000001 -0.000825
  outer loop
    vertex 0.017394 0.094000 -0.066255
    vertex 0.015880 0.000000 -0.066634
    vertex 0.008562 0.090750 -0.067963
  endloop
endfacet
facet normal 0.000138 -0.000001 -0.000819
  outer loop
    vertex 0.008562 0.090750 -0.067963
    vertex 0.015880 0.000000 -0.066634
    vertex 0.006857 0.000000 -0.068156
  endloop
endfacet
facet normal 0.000043 0.000000 -0.000517
  outer loop
    vertex 0.008562 0.090750 -0.067963
    vertex 0.006857 0.000000 -0.068156
    vertex 0.002861 0.090750 -0.068440
  endloop
endfacet
facet normal 0.000028 -0.000001 -0.000830
  outer loop
    vertex 0.002861 0.090750 -0.068440
    vertex 0.006857 0.000000 -0.068156
    vertex -0.002289 0.000000 -0.068462
  endloop
endfacet
facet normal 0.000000 0.000000 -0.000519
  outer loop
    vertex 0.002861 0.090750 -0.068440
    vertex -0.002289 0.000000 -0.068462
    vertex -0.002861 0.090750 -0.068440
  endloop
endfacet
facet normal -0.000043 -0.000000 -0.000517
  outer loop
    vertex -0.002861 0.090750 -0.068440
    vertex -0.002289 0.000000 -0.068462
    vertex -0.008562 0.090750 -0.067963
  endloop
endfacet
facet normal -0.000083 -0.000001 -0.000826
  outer loop
    vertex -0.008562 0.090750 -0.067963
    vertex -0.002289 0.000000 -0.068462
    vertex -0.011394 0.000000 -0.067546
  endloop
endfacet
facet normal -0.000001 0.000000 -0.000009
  outer loop
    vertex -0.008562 0.090750 -0.067963
    vertex -0.011394 0.000000 -0.067546
    vertex -0.008562 0.094000 -0.067963
  endloop
endfacet
facet normal -0.000161 0.000001 -0.000830
  outer loop
    vertex -0.008562 0.094000 -0.067963
    vertex -0.011394 0.000000 -0.067546
    vertex -0.017394 0.094000 -0.066255
  endloop
endfacet
facet normal -0.000199 -0.000001 -0.000837
  outer loop
    vertex -0.017394 0.094000 -0.066255
    vertex -0.011394 0.000000 -0.067546
    vertex -0.020295 0.000000 -0.065425
  endloop
endfacet
facet normal -0.000268 0.000001 -0.000802
  outer loop
    vertex -0.017394 0.094000 -0.066255
    vertex -0.020295 0.000000 -0.065425
    vertex -0.025925 0.094000 -0.063405
  endloop
endfacet
facet normal -0.000309 -0.000001 -0.000803
  outer loop
    vertex -0.025925 0.094000 -0.063405
    vertex -0.020295 0.000000 -0.065425
    vertex -0.028834 0.000000 -0.062136
  endloop
endfacet
facet normal -0.000371 0.000001 -0.000760
  outer loop
    vertex -0.025925 0.094000 -0.063405
    vertex -0.028834 0.000000 -0.062136
    vertex -0.034009 0.094000 -0.059461
  endloop
endfacet
facet normal -0.000413 -0.000001 -0.000754
  outer loop
    vertex -0.034009 0.094000 -0.059461
    vertex -0.028834 0.000000 -0.062136
    vertex -0.036859 0.000000 -0.057738
  endloop
endfacet
facet normal -0.000467 0.000001 -0.000705
  outer loop
    vertex -0.034009 0.094000 -0.059461
    vertex -0.036859 0.000000 -0.057738
    vertex -0.041507 0.094000 -0.054492
  endloop
endfacet
facet normal -0.000510 -0.000001 -0.000692
  outer loop
    vertex -0.041507 0.094000 -0.054492
    vertex -0.036859 0.000000 -0.057738
    vertex -0.044226 0.000000 -0.052310
  endloop
endfacet
facet normal -0.000555 0.000001 -0.000638
  outer loop
    vertex -0.041507 0.094000 -0.054492
    vertex -0.044226 0.000000 -0.052310
    vertex -0.048289 0.094000 -0.048584
  endloop
endfacet
facet normal -0.000598 -0.000001 -0.000618
  outer loop
    vertex -0.048289 0.094000 -0.048584
    vertex -0.044226 0.000000 -0.052310
    vertex -0.050803 0.000000 -0.045949
  endloop
endfacet
facet normal -0.000634 0.000001 -0.000559
  outer loop
    vertex -0.048289 0.094000 -0.048584
    vertex -0.050803 0.000000 -0.045949
    vertex -0.054239 0.094000 -0.041838
  endloop
endfacet
facet normal -0.000675 -0.000001 -0.000533
  outer loop
    vertex -0.054239 0.094000 -0.041838
    vertex -0.050803 0.000000 -0.045949
    vertex -0.056474 0.000000 -0.038767
  endloop
endfacet
facet normal -0.000702 0.000001 -0.000471
  outer loop
    vertex -0.054239 0.094000 -0.041838
    vertex -0.056474 0.000000 -0.038767
    vertex -0.059253 0.094000 -0.034370
  endloop
endfacet
facet normal -0.000740 -0.000001 -0.000438
  outer loop
    vertex -0.059253 0.094000 -0.034370
    vertex -0.056474 0.000000 -0.038767
    vertex -0.061138 0.000000 -0.030894
  endloop
endfacet
facet normal -0.000758 0.000001 -0.000375
  outer loop
    vertex -0.059253 0.094000 -0.034370
    vertex -0.061138 0.000000 -0.030894
    vertex -0.063246 0.094000 -0.026310
  endloop
endfacet
facet normal -0.000792 -0.000001 -0.000336
  outer loop
    vertex -0.063246 0.094000 -0.026310
    vertex -0.061138 0.000000 -0.030894
    vertex -0.064710 0.000000 -0.022470
  endloop
endfacet
facet normal -0.000800 0.000001 -0.000273
  outer loop
    vertex -0.063246 0.094000 -0.026310
    vertex -0.064710 0.000000 -0.022470
    vertex -0.066148 0.094000 -0.017796
  endloop
endfacet
facet normal -0.000830 -0.000001 -0.000227
  outer loop
    vertex -0.066148 0.094000 -0.017796
    vertex -0.064710 0.000000 -0.022470
    vertex -0.067127 0.000000 -0.013644
  endloop
endfacet
facet normal -0.000829 0.000001 -0.000166
  outer loop
    vertex -0.066148 0.094000 -0.017796
    vertex -0.067127 0.000000 -0.013644
    vertex -0.067909 0.094000 -0.008975
  endloop
endfacet
facet normal -0.000852 -0.000001 -0.000115
  outer loop
    vertex -0.067909 0.094000 -0.008975
    vertex -0.067127 0.000000 -0.013644
    vertex -0.068347 0.000000 -0.004575
  endloop
endfacet
facet normal -0.000844 0.000001 -0.000056
  outer loop
    vertex -0.067909 0.094000 -0.008975
    vertex -0.068347 0.000000 -0.004575
    vertex -0.068500 0.094000 0.000000
  endloop
endfacet
facet normal -0.000860 -0.000001 0.000000
  outer loop
    vertex -0.068500 0.094000 0.000000
    vertex -0.068347 0.000000 -0.004575
    vertex -0.068347 0.000000 0.004575
  endloop
endfacet
facet normal -0.000844 0.000001 0.000056
  outer loop
    vertex -0.068500 0.094000 0.000000
    vertex -0.068347 0.000000 0.004575
    vertex -0.067909 0.094000 0.008975
  endloop
endfacet
facet normal -0.000852 -0.000001 0.000115
  outer loop
    vertex -0.067909 0.094000 0.008975
    vertex -0.068347 0.000000 0.004575
    vertex -0.067127 0.000000 0.013644
  endloop
endfacet
facet normal -0.000829 0.000001 0.000166
  outer loop
    vertex -0.067909 0.094000 0.008975
    vertex -0.067127 0.000000 0.013644
    vertex -0.066148 0.094000 0.017796
  endloop
endfacet
facet normal -0.000830 -0.000001 0.000227
  outer loop
    vertex -0.066148 0.094000 0.017796
    vertex -0.067127 0.000000 0.013644
    vertex -0.064710 0.000000 0.022470
  endloop
endfacet
facet normal -0.000800 0.000001 0.000273
  outer loop
    vertex -0.066148 0.094000 0.017796
    vertex -0.064710 0.000000 0.022470
    vertex -0.063246 0.094000 0.026310
  endloop
endfacet
facet normal -0.000792 -0.000001 0.000336
  outer loop
    vertex -0.063246 0.094000 0.026310
    vertex -0.064710 0.000000 0.022470
    vertex -0.061138 0.000000 0.030894
  endloop
endfacet
facet normal -0.000758 0.000001 0.000375
  outer loop
    vertex -0.063246 0.094000 0.026310
    vertex -0.061138 0.000000 0.030894
    vertex -0.059253 0.094000 0.034370
  endloop
endfacet
facet normal -0.000740 -0.000001 0.000438
  outer loop
    vertex -0.059253 0.094000 0.034370
    vertex -0.061138 0.000000 0.030894
    vertex -0.056474 0.000000 0.038767
  endloop
endfacet
facet normal -0.000702 0.000001 0.000471
  outer loop
    vertex -0.059253 0.094000 0.034370
    vertex -0.056474 0.000000 0.038767
    vertex -0.054239 0.094000 0.041838
  endloop
endfacet
facet normal -0.000675 -0.000001 0.000533
  outer loop
    vertex -0.054239 0.094000 0.041838
    vertex -0.056474 0.000000 0.038767
    vertex -0.050803 0.000000 0.045949
  endloop
endfacet
facet normal -0.000634 0.000001 0.000559
  outer loop
    vertex -0.054239 0.094000 0.041838
    vertex -0.050803 0.000000 0.045949
    vertex -0.048289 0.094000 0.048584
  endloop
endfacet
facet normal -0.000598 -0.000001 0.000618
  outer loop
    vertex -0.048289 0.094000 0.048584
    vertex -0.050803 0.000000 0.045949
    vertex -0.044226 0.000000 0.052310
  endloop
endfacet
facet normal -0.000555 0.000001 0.000638
  outer loop
    vertex -0.048289 0.094000 0.048584
    vertex -0.044226 0.000000 0.052310
    vertex -0.041507 0.094000 0.054492
  endloop
endfacet
facet normal -0.000510 -0.000001 0.000692
  outer loop
    vertex -0.041507 0.094000 0.054492
    vertex -0.044226 0.000000 0.052310
    vertex -0.036859 0.000000 0.057738
  endloop
endfacet
facet normal -0.000467 0.000001 0.000705
  outer loop
    vertex -0.041507 0.094000 0.054492
    vertex -0.036859 0.000000 0.057738
    vertex -0.034009 0.094000 0.059461
  endloop
endfacet
facet normal -0.000413 -0.000001 0.000754
  outer loop
    vertex -0.034009 0.094000 0.059461
    vertex -0.036859 0.000000 0.057738
    vertex -0.028834 0.000000 0.062136
  endloop
endfacet
facet normal -0.000371 0.000001 0.000760
  outer loop
    vertex -0.034009 0.094000 0.059461
    vertex -0.028834 0.000000 0.062136
    vertex -0.025925 0.094000 0.063405
  endloop
endfacet
facet normal -0.000309 -0.000001 0.000803
  outer loop
    vertex -0.025925 0.094000 0.063405
    vertex -0.028834 0.000000 0.062136
    vertex -0.020295 0.000000 0.065425
  endloop
endfacet
facet normal -0.000268 0.000001 0.000802
  outer loop
    vertex -0.025925 0.094000 0.063405
    vertex -0.020295 0.000000 0.065425
    vertex -0.017394 0.094000 0.066255
  endloop
endfacet
facet normal -0.000199 -0.000001 0.000837
  outer loop
    vertex -0.017394 0.094000 0.066255
    vertex -0.020295 0.000000 0.065425
    vertex -0.011394 0.000000 0.067546
  endloop
endfacet
facet normal -0.000161 0.000001 0.000830
  outer loop
    vertex -0.017394 0.094000 0.066255
    vertex -0.011394 0.000000 0.067546
    vertex -0.008562 0.094000 0.067963
  endloop
endfacet
facet normal -0.000001 0.000000 0.000009
  outer loop
    vertex -0.008562 0.094000 0.067963
    vertex -0.011394 0.000000 0.067546
    vertex -0.008562 0.090750 0.067963
  endloop
endfacet
facet normal -0.000083 -0.000001 0.000826
  outer loop
    vertex -0.008562 0.090750 0.067963
    vertex -0.011394 0.000000 0.067546
    vertex -0.002289 0.000000 0.068462
  endloop
endfacet
facet normal -0.000043 -0.000000 0.000517
  outer loop
    vertex -0.008562 0.090750 0.067963
    vertex -0.002289 0.000000 0.068462
    vertex -0.002861 0.090750 0.068440
  endloop
endfacet
facet normal -0.000000 0.000000 0.000519
  outer loop
    vertex -0.002861 0.090750 0.068440
    vertex -0.002289 0.000000 0.068462
    vertex 0.002861 0.090750 0.068440
  endloop
endfacet
facet normal 0.000028 -0.000001 0.000830
  outer loop
    vertex 0.002861 0.090750 0.068440
    vertex -0.002289 0.000000 0.068462
    vertex 0.006857 0.000000 0.068156
  endloop
endfacet
facet normal 0.000043 0.000000 0.000517
  outer loop
    vertex 0.002861 0.090750 0.068440
    vertex 0.006857 0.000000 0.068156
    vertex 0.008562 0.090750 0.067963
  endloop
endfacet
facet normal 0.000138 -0.000001 0.000819
  outer loop
    vertex 0.008562 0.090750 0.067963
    vertex 0.006857 0.000000 0.068156
    vertex 0.015880 0.000000 0.066634
  endloop
endfacet
facet normal 0.000004 -0.000000 0.000024
  outer loop
    vertex 0.008562 0.090750 0.067963
    vertex 0.015880 0.000000 0.066634
    vertex 0.008562 0.094000 0.067963
  endloop
endfacet
facet normal 0.000161 0.000001 0.000830
  outer loop
    vertex 0.008562 0.094000 0.067963
    vertex 0.015880 0.000000 0.066634
    vertex 0.017394 0.094000 0.066255
  endloop
endfacet
facet normal 0.000255 -0.000001 0.000822
  outer loop
    vertex 0.017394 0.094000 0.066255
    vertex 0.015880 0.000000 0.066634
    vertex 0.024619 0.000000 0.063923
  endloop
endfacet
facet normal 0.000268 0.000001 0.000802
  outer loop
    vertex 0.017394 0.094000 0.066255
    vertex 0.024619 0.000000 0.063923
    vertex 0.025925 0.094000 0.063405
  endloop
endfacet
facet normal 0.000362 -0.000001 0.000780
  outer loop
    vertex 0.025925 0.094000 0.063405
    vertex 0.024619 0.000000 0.063923
    vertex 0.032920 0.000000 0.060071
  endloop
endfacet
facet normal 0.000371 0.000001 0.000760
  outer loop
    vertex 0.025925 0.094000 0.063405
    vertex 0.032920 0.000000 0.060071
    vertex 0.034009 0.094000 0.059461
  endloop
endfacet
facet normal 0.000463 -0.000001 0.000725
  outer loop
    vertex 0.034009 0.094000 0.059461
    vertex 0.032920 0.000000 0.060071
    vertex 0.040633 0.000000 0.055147
  endloop
endfacet
facet normal 0.000467 0.000001 0.000705
  outer loop
    vertex 0.034009 0.094000 0.059461
    vertex 0.040633 0.000000 0.055147
    vertex 0.041507 0.094000 0.054492
  endloop
endfacet
facet normal 0.000555 -0.000001 0.000657
  outer loop
    vertex 0.041507 0.094000 0.054492
    vertex 0.040633 0.000000 0.055147
    vertex 0.047621 0.000000 0.049239
  endloop
endfacet
facet normal 0.000555 0.000000 0.000638
  outer loop
    vertex 0.041507 0.094000 0.054492
    vertex 0.047621 0.000000 0.049239
    vertex 0.048289 0.094000 0.048584
  endloop
endfacet
facet normal 0.000638 -0.000001 0.000577
  outer loop
    vertex 0.048289 0.094000 0.048584
    vertex 0.047621 0.000000 0.049239
    vertex 0.053759 0.000000 0.042453
  endloop
endfacet
facet normal 0.000634 0.000000 0.000559
  outer loop
    vertex 0.048289 0.094000 0.048584
    vertex 0.053759 0.000000 0.042453
    vertex 0.054239 0.094000 0.041838
  endloop
endfacet
facet normal 0.000709 -0.000000 0.000487
  outer loop
    vertex 0.054239 0.094000 0.041838
    vertex 0.053759 0.000000 0.042453
    vertex 0.058938 0.000000 0.034909
  endloop
endfacet
facet normal 0.000702 0.000000 0.000471
  outer loop
    vertex 0.054239 0.094000 0.041838
    vertex 0.058938 0.000000 0.034909
    vertex 0.059253 0.094000 0.034370
  endloop
endfacet
facet normal 0.000768 -0.000000 0.000388
  outer loop
    vertex 0.059253 0.094000 0.034370
    vertex 0.058938 0.000000 0.034909
    vertex 0.063065 0.000000 0.026742
  endloop
endfacet
facet normal 0.000758 0.000000 0.000375
  outer loop
    vertex 0.059253 0.094000 0.034370
    vertex 0.063065 0.000000 0.026742
    vertex 0.063246 0.094000 0.026310
  endloop
endfacet
facet normal 0.000813 -0.000000 0.000282
  outer loop
    vertex 0.063246 0.094000 0.026310
    vertex 0.063065 0.000000 0.026742
    vertex 0.066066 0.000000 0.018097
  endloop
endfacet
facet normal 0.000800 0.000000 0.000273
  outer loop
    vertex 0.063246 0.094000 0.026310
    vertex 0.066066 0.000000 0.018097
    vertex 0.066148 0.094000 0.017796
  endloop
endfacet
facet normal 0.000843 -0.000000 0.000171
  outer loop
    vertex 0.066148 0.094000 0.017796
    vertex 0.066066 0.000000 0.018097
    vertex 0.067889 0.000000 0.009130
  endloop
endfacet
facet normal 0.000829 0.000000 0.000166
  outer loop
    vertex 0.066148 0.094000 0.017796
    vertex 0.067889 0.000000 0.009130
    vertex 0.067909 0.094000 0.008975
  endloop
endfacet
facet normal 0.000858 -0.000000 0.000057
  outer loop
    vertex 0.067909 0.094000 0.008975
    vertex 0.067889 0.000000 0.009130
    vertex 0.068500 0.000000 0.000000
  endloop
endfacet
facet normal 0.000006 0.000000 -0.000029
  outer loop
    vertex 0.008562 0.090750 -0.067963
    vertex 0.008562 0.094000 -0.067963
    vertex 0.017394 0.094000 -0.066255
  endloop
endfacet
facet normal -0.000000 0.000000 0.000000
  outer loop
    vertex -0.008562 0.116235 -0.087410
    vertex -0.008562 0.108203 -0.080392
    vertex -0.008562 0.125000 -0.095063
  endloop
endfacet
facet normal -0.000000 0.000000 0.000000
  outer loop
    vertex -0.008562 0.125000 -0.095063
    vertex -0.008562 0.108203 -0.080392
    vertex -0.008562 0.100816 -0.073931
  endloop
endfacet
facet normal -0.000000 0.000000 0.000000
  outer loop
    vertex -0.008562 0.125000 -0.095063
    vertex -0.008562 0.100816 -0.073931
    vertex -0.008562 0.094000 -0.067963
  endloop
endfacet
facet normal -0.000049 -0.000291 -0.000333
  outer loop
    vertex -0.008562 0.125000 -0.095063
    vertex -0.008562 0.094000 -0.067963
    vertex -0.019313 0.125000 -0.093474
  endloop
endfacet
facet normal -0.000053 -0.000244 -0.000274
  outer loop
    vertex -0.019313 0.125000 -0.093474
    vertex -0.008562 0.094000 -0.067963
    vertex -0.017394 0.094000 -0.066255
  endloop
endfacet
facet normal -0.000087 -0.000291 -0.000326
  outer loop
    vertex -0.019313 0.125000 -0.093474
    vertex -0.017394 0.094000 -0.066255
    vertex -0.029814 0.125000 -0.090672
  endloop
endfacet
facet normal -0.000088 -0.000244 -0.000264
  outer loop
    vertex -0.029814 0.125000 -0.090672
    vertex -0.017394 0.094000 -0.066255
    vertex -0.025925 0.094000 -0.063405
  endloop
endfacet
facet normal -0.000123 -0.000291 -0.000314
  outer loop
    vertex -0.029814 0.125000 -0.090672
    vertex -0.025925 0.094000 -0.063405
    vertex -0.039927 0.125000 -0.086695
  endloop
endfacet
facet normal -0.000122 -0.000244 -0.000251
  outer loop
    vertex -0.039927 0.125000 -0.086695
    vertex -0.025925 0.094000 -0.063405
    vertex -0.034009 0.094000 -0.059461
  endloop
endfacet
facet normal -0.000158 -0.000292 -0.000297
  outer loop
    vertex -0.039927 0.125000 -0.086695
    vertex -0.034009 0.094000 -0.059461
    vertex -0.049524 0.125000 -0.081595
  endloop
endfacet
facet normal -0.000154 -0.000243 -0.000232
  outer loop
    vertex -0.049524 0.125000 -0.081595
    vertex -0.034009 0.094000 -0.059461
    vertex -0.041507 0.094000 -0.054492
  endloop
endfacet
facet normal -0.000191 -0.000292 -0.000278
  outer loop
    vertex -0.049524 0.125000 -0.081595
    vertex -0.041507 0.094000 -0.054492
    vertex -0.058478 0.125000 -0.075436
  endloop
endfacet
facet normal -0.000221 -0.000293 -0.000254
  outer loop
    vertex -0.058478 0.125000 -0.075436
    vertex -0.041507 0.094000 -0.054492
    vertex -0.066674 0.125000 -0.068300
  endloop
endfacet
facet normal -0.000183 -0.000242 -0.000210
  outer loop
    vertex -0.066674 0.125000 -0.068300
    vertex -0.041507 0.094000 -0.054492
    vertex -0.048289 0.094000 -0.048584
  endloop
endfacet
facet normal -0.000249 -0.000292 -0.000227
  outer loop
    vertex -0.066674 0.125000 -0.068300
    vertex -0.048289 0.094000 -0.048584
    vertex -0.074006 0.125000 -0.060278
  endloop
endfacet
facet normal -0.000209 -0.000243 -0.000184
  outer loop
    vertex -0.074006 0.125000 -0.060278
    vertex -0.048289 0.094000 -0.048584
    vertex -0.054239 0.094000 -0.041838
  endloop
endfacet
facet normal -0.000273 -0.000292 -0.000198
  outer loop
    vertex -0.074006 0.125000 -0.060278
    vertex -0.054239 0.094000 -0.041838
    vertex -0.080378 0.125000 -0.051475
  endloop
endfacet
facet normal -0.000231 -0.000244 -0.000155
  outer loop
    vertex -0.080378 0.125000 -0.051475
    vertex -0.054239 0.094000 -0.041838
    vertex -0.059253 0.094000 -0.034370
  endloop
endfacet
facet normal -0.000294 -0.000291 -0.000165
  outer loop
    vertex -0.080378 0.125000 -0.051475
    vertex -0.059253 0.094000 -0.034370
    vertex -0.085708 0.125000 -0.042004
  endloop
endfacet
facet normal -0.000250 -0.000244 -0.000124
  outer loop
    vertex -0.085708 0.125000 -0.042004
    vertex -0.059253 0.094000 -0.034370
    vertex -0.063246 0.094000 -0.026310
  endloop
endfacet
facet normal -0.000310 -0.000291 -0.000131
  outer loop
    vertex -0.085708 0.125000 -0.042004
    vertex -0.063246 0.094000 -0.026310
    vertex -0.089928 0.125000 -0.031989
  endloop
endfacet
facet normal -0.000264 -0.000244 -0.000090
  outer loop
    vertex -0.089928 0.125000 -0.031989
    vertex -0.063246 0.094000 -0.026310
    vertex -0.066148 0.094000 -0.017796
  endloop
endfacet
facet normal -0.000323 -0.000291 -0.000095
  outer loop
    vertex -0.089928 0.125000 -0.031989
    vertex -0.066148 0.094000 -0.017796
    vertex -0.092981 0.125000 -0.021559
  endloop
endfacet
facet normal -0.000273 -0.000243 -0.000055
  outer loop
    vertex -0.092981 0.125000 -0.021559
    vertex -0.066148 0.094000 -0.017796
    vertex -0.067909 0.094000 -0.008975
  endloop
endfacet
facet normal -0.000332 -0.000292 -0.000057
  outer loop
    vertex -0.092981 0.125000 -0.021559
    vertex -0.067909 0.094000 -0.008975
    vertex -0.094829 0.125000 -0.010850
  endloop
endfacet
facet normal -0.000278 -0.000243 -0.000018
  outer loop
    vertex -0.094829 0.125000 -0.010850
    vertex -0.067909 0.094000 -0.008975
    vertex -0.068500 0.094000 0.000000
  endloop
endfacet
facet normal -0.000336 -0.000292 -0.000019
  outer loop
    vertex -0.094829 0.125000 -0.010850
    vertex -0.068500 0.094000 0.000000
    vertex -0.095448 0.125000 0.000000
  endloop
endfacet
facet normal -0.000336 -0.000292 0.000019
  outer loop
    vertex -0.095448 0.125000 0.000000
    vertex -0.068500 0.094000 0.000000
    vertex -0.094829 0.125000 0.010850
  endloop
endfacet
facet normal -0.000278 -0.000243 0.000018
  outer loop
    vertex -0.094829 0.125000 0.010850
    vertex -0.068500 0.094000 0.000000
    vertex -0.067909 0.094000 0.008975
  endloop
endfacet
facet normal -0.000332 -0.000292 0.000057
  outer loop
    vertex -0.094829 0.125000 0.010850
    vertex -0.067909 0.094000 0.008975
    vertex -0.092981 0.125000 0.021559
  endloop
endfacet
facet normal -0.000273 -0.000243 0.000055
  outer loop
    vertex -0.092981 0.125000 0.021559
    vertex -0.067909 0.094000 0.008975
    vertex -0.066148 0.094000 0.017796
  endloop
endfacet
facet normal -0.000323 -0.000291 0.000095
  outer loop
    vertex -0.092981 0.125000 0.021559
    vertex -0.066148 0.094000 0.017796
    vertex -0.089928 0.125000 0.031989
  endloop
endfacet
facet normal -0.000264 -0.000244 0.000090
  outer loop
    vertex -0.089928 0.125000 0.031989
    vertex -0.066148 0.094000 0.017796
    vertex -0.063246 0.094000 0.026310
  endloop
endfacet
facet normal -0.000310 -0.000291 0.000131
  outer loop
    vertex -0.089928 0.125000 0.031989
    vertex -0.063246 0.094000 0.026310
    vertex -0.085708 0.125000 0.042004
  endloop
endfacet
facet normal -0.000250 -0.000244 0.000124
  outer loop
    vertex -0.085708 0.125000 0.042004
    vertex -0.063246 0.094000 0.026310
    vertex -0.059253 0.094000 0.034370
  endloop
endfacet
facet normal -0.000294 -0.000291 0.000165
  outer loop
    vertex -0.085708 0.125000 0.042004
    vertex -0.059253 0.094000 0.034370
    vertex -0.080378 0.125000 0.051475
  endloop
endfacet
facet normal -0.000231 -0.000244 0.000155
  outer loop
    vertex -0.080378 0.125000 0.051475
    vertex -0.059253 0.094000 0.034370
    vertex -0.054239 0.094000 0.041838
  endloop
endfacet
facet normal -0.000273 -0.000292 0.000198
  outer loop
    vertex -0.080378 0.125000 0.051475
    vertex -0.054239 0.094000 0.041838
    vertex -0.074006 0.125000 0.060278
  endloop
endfacet
facet normal -0.000209 -0.000243 0.000184
  outer loop
    vertex -0.074006 0.125000 0.060278
    vertex -0.054239 0.094000 0.041838
    vertex -0.048289 0.094000 0.048584
  endloop
endfacet
facet normal -0.000249 -0.000292 0.000227
  outer loop
    vertex -0.074006 0.125000 0.060278
    vertex -0.048289 0.094000 0.048584
    vertex -0.066674 0.125000 0.068300
  endloop
endfacet
facet normal -0.000183 -0.000242 0.000210
  outer loop
    vertex -0.066674 0.125000 0.068300
    vertex -0.048289 0.094000 0.048584
    vertex -0.041507 0.094000 0.054492
  endloop
endfacet
facet normal -0.000221 -0.000293 0.000254
  outer loop
    vertex -0.066674 0.125000 0.068300
    vertex -0.041507 0.094000 0.054492
    vertex -0.058478 0.125000 0.075436
  endloop
endfacet
facet normal -0.000191 -0.000292 0.000278
  outer loop
    vertex -0.058478 0.125000 0.075436
    vertex -0.041507 0.094000 0.054492
    vertex -0.049524 0.125000 0.081595
  endloop
endfacet
facet normal -0.000154 -0.000243 0.000232
  outer loop
    vertex -0.049524 0.125000 0.081595
    vertex -0.041507 0.094000 0.054492
    vertex -0.034009 0.094000 0.059461
  endloop
endfacet
facet normal -0.000158 -0.000292 0.000297
  outer loop
    vertex -0.049524 0.125000 0.081595
    vertex -0.034009 0.094000 0.059461
    vertex -0.039927 0.125000 0.086695
  endloop
endfacet
facet normal -0.000122 -0.000244 0.000251
  outer loop
    vertex -0.039927 0.125000 0.086695
    vertex -0.034009 0.094000 0.059461
    vertex -0.025925 0.094000 0.063405
  endloop
endfacet
facet normal -0.000123 -0.000291 0.000314
  outer loop
    vertex -0.039927 0.125000 0.086695
    vertex -0.025925 0.094000 0.063405
    vertex -0.029814 0.125000 0.090672
  endloop
endfacet
facet normal -0.000088 -0.000244 0.000264
  outer loop
    vertex -0.029814 0.125000 0.090672
    vertex -0.025925 0.094000 0.063405
    vertex -0.017394 0.094000 0.066255
  endloop
endfacet
facet normal -0.000087 -0.000291 0.000326
  outer loop
    vertex -0.029814 0.125000 0.090672
    vertex -0.017394 0.094000 0.066255
    vertex -0.019313 0.125000 0.093474
  endloop
endfacet
facet normal -0.000053 -0.000244 0.000274
  outer loop
    vertex -0.019313 0.125000 0.093474
    vertex -0.017394 0.094000 0.066255
    vertex -0.008562 0.094000 0.067963
  endloop
endfacet
facet normal -0.000049 -0.000291 0.000333
  outer loop
    vertex -0.019313 0.125000 0.093474
    vertex -0.008562 0.094000 0.067963
    vertex -0.008562 0.125000 0.095063
  endloop
endfacet
facet normal -0.000000 0.000000 0.000000
  outer loop
    vertex -0.008562 0.125000 0.095063
    vertex -0.008562 0.094000 0.067963
    vertex -0.008562 0.100816 0.073931
  endloop
endfacet
facet normal -0.000000 0.000000 0.000000
  outer loop
    vertex -0.008562 0.125000 0.095063
    vertex -0.008562 0.100816 0.073931
    vertex -0.008562 0.108203 0.080392
  endloop
endfacet
facet normal -0.000000 0.000000 0.000000
  outer loop
    vertex -0.008562 0.108203 0.080392
    vertex -0.008562 0.116235 0.087410
    vertex -0.008562 0.125000 0.095063
  endloop
endfacet
facet normal 0.000000 0.002044 0.000000
  outer loop
    vertex -0.008562 0.125000 0.095063
    vertex -0.008562 0.125000 -0.095063
    vertex -0.019313 0.125000 0.093474
  endloop
endfacet
facet normal 0.000000 0.002010 0.000000
  outer loop
    vertex -0.019313 0.125000 0.093474
    vertex -0.008562 0.125000 -0.095063
    vertex -0.019313 0.125000 -0.093474
  endloop
endfacet
facet normal 0.000000 0.001963 0.000000
  outer loop
    vertex -0.019313 0.125000 0.093474
    vertex -0.019313 0.125000 -0.093474
    vertex -0.029814 0.125000 0.090672
  endloop
endfacet
facet normal 0.000000 0.001904 0.000000
  outer loop
    vertex -0.029814 0.125000 0.090672
    vertex -0.019313 0.125000 -0.093474
    vertex -0.029814 0.125000 -0.090672
  endloop
endfacet
facet normal 0.000000 0.001834 0.000000
  outer loop
    vertex -0.029814 0.125000 0.090672
    vertex -0.029814 0.125000 -0.090672
    vertex -0.039927 0.125000 0.086695
  endloop
endfacet
facet normal 0.000000 0.001754 0.000000
  outer loop
    vertex -0.039927 0.125000 0.086695
    vertex -0.029814 0.125000 -0.090672
    vertex -0.039927 0.125000 -0.086695
  endloop
endfacet
facet normal 0.000000 0.001664 0.000000
  outer loop
    vertex -0.039927 0.125000 0.086695
    vertex -0.039927 0.125000 -0.086695
    vertex -0.049524 0.125000 0.081595
  endloop
endfacet
facet normal 0.000000 0.001566 0.000000
  outer loop
    vertex -0.049524 0.125000 0.081595
    vertex -0.039927 0.125000 -0.086695
    vertex -0.049524 0.125000 -0.081595
  endloop
endfacet
facet normal 0.000000 0.001461 0.000000
  outer loop
    vertex -0.049524 0.125000 0.081595
    vertex -0.049524 0.125000 -0.081595
    vertex -0.058478 0.125000 0.075436
  endloop
endfacet
facet normal 0.000000 0.001351 0.000000
  outer loop
    vertex -0.058478 0.125000 0.075436
    vertex -0.049524 0.125000 -0.081595
    vertex -0.058478 0.125000 -0.075436
  endloop
endfacet
facet normal 0.000000 0.001237 0.000000
  outer loop
    vertex -0.058478 0.125000 0.075436
    vertex -0.058478 0.125000 -0.075436
    vertex -0.066674 0.125000 0.068300
  endloop
endfacet
facet normal 0.000000 0.001120 0.000000
  outer loop
    vertex -0.066674 0.125000 0.068300
    vertex -0.058478 0.125000 -0.075436
    vertex -0.066674 0.125000 -0.068300
  endloop
endfacet
facet normal 0.000000 0.001002 0.000000
  outer loop
    vertex -0.066674 0.125000 0.068300
    vertex -0.066674 0.125000 -0.068300
    vertex -0.074006 0.125000 0.060278
  endloop
endfacet
facet normal 0.000000 0.000884 0.000000
  outer loop
    vertex -0.074006 0.125000 0.060278
    vertex -0.066674 0.125000 -0.068300
    vertex -0.074006 0.125000 -0.060278
  endloop
endfacet
facet normal 0.000000 0.000768 0.000000
  outer loop
    vertex -0.074006 0.125000 0.060278
    vertex -0.074006 0.125000 -0.060278
    vertex -0.080378 0.125000 0.051475
  endloop
endfacet
facet normal 0.000000 0.000656 0.000000
  outer loop
    vertex -0.080378 0.125000 0.051475
    vertex -0.074006 0.125000 -0.060278
    vertex -0.080378 0.125000 -0.051475
  endloop
endfacet
facet normal 0.000000 0.000549 0.000000
  outer loop
    vertex -0.080378 0.125000 0.051475
    vertex -0.080378 0.125000 -0.051475
    vertex -0.085708 0.125000 0.042004
  endloop
endfacet
facet normal 0.000000 0.000448 0.000000
  outer loop
    vertex -0.085708 0.125000 0.042004
    vertex -0.080378 0.125000 -0.051475
    vertex -0.085708 0.125000 -0.042004
  endloop
endfacet
facet normal 0.000000 0.000354 0.000000
  outer loop
    vertex -0.085708 0.125000 0.042004
    vertex -0.085708 0.125000 -0.042004
    vertex -0.089928 0.125000 0.031989
  endloop
endfacet
facet normal 0.000000 0.000270 0.000000
  outer loop
    vertex -0.089928 0.125000 0.031989
    vertex -0.085708 0.125000 -0.042004
    vertex -0.089928 0.125000 -0.031989
  endloop
endfacet
facet normal 0.000000 0.000195 0.000000
  outer loop
    vertex -0.089928 0.125000 0.031989
    vertex -0.089928 0.125000 -0.031989
    vertex -0.092981 0.125000 0.021559
  endloop
endfacet
facet normal 0.000000 0.000132 0.000000
  outer loop
    vertex -0.092981 0.125000 0.021559
    vertex -0.089928 0.125000 -0.031989
    vertex -0.092981 0.125000 -0.021559
  endloop
endfacet
facet normal 0.000000 0.000080 0.000000
  outer loop
    vertex -0.092981 0.125000 0.021559
    vertex -0.092981 0.125000 -0.021559
    vertex -0.094829 0.125000 0.010850
  endloop
endfacet
facet normal 0.000000 0.000040 0.000000
  outer loop
    vertex -0.094829 0.125000 0.010850
    vertex -0.092981 0.125000 -0.021559
    vertex -0.094829 0.125000 -0.010850
  endloop
endfacet
facet normal 0.000000 0.000013 0.000000
  outer loop
    vertex -0.094829 0.125000 0.010850
    vertex -0.094829 0.125000 -0.010850
    vertex -0.095448 0.125000 0.000000
  endloop
endfacet
facet normal -0.000000 -0.000011 0.000000
  outer loop
    vertex 0.068500 0.000000 0.000000
    vertex 0.067889 0.000000 0.009130
    vertex 0.067889 0.000000 -0.009130
  endloop
endfacet
facet normal -0.000000 -0.000033 0.000000
  outer loop
    vertex 0.067889 0.000000 -0.009130
    vertex 0.067889 0.000000 0.009130
    vertex 0.066066 0.000000 -0.018097
  endloop
endfacet
facet normal 0.000000 -0.000066 0.000000
  outer loop
    vertex 0.066066 0.000000 -0.018097
    vertex 0.067889 0.000000 0.009130
    vertex 0.066066 0.000000 0.018097
  endloop
endfacet
facet normal -0.000000 -0.000109 0.000000
  outer loop
    vertex 0.066066 0.000000 -0.018097
    vertex 0.066066 0.000000 0.018097
    vertex 0.063065 0.000000 -0.026742
  endloop
endfacet
facet normal 0.000000 -0.000161 0.000000
  outer loop
    vertex 0.063065 0.000000 -0.026742
    vertex 0.066066 0.000000 0.018097
    vertex 0.063065 0.000000 0.026742
  endloop
endfacet
facet normal -0.000000 -0.000221 0.000000
  outer loop
    vertex 0.063065 0.000000 -0.026742
    vertex 0.063065 0.000000 0.026742
    vertex 0.058938 0.000000 -0.034909
  endloop
endfacet
facet normal 0.000000 -0.000288 0.000000
  outer loop
    vertex 0.058938 0.000000 -0.034909
    vertex 0.063065 0.000000 0.026742
    vertex 0.058938 0.000000 0.034909
  endloop
endfacet
facet normal -0.000000 -0.000362 0.000000
  outer loop
    vertex 0.058938 0.000000 -0.034909
    vertex 0.058938 0.000000 0.034909
    vertex 0.053759 0.000000 -0.042453
  endloop
endfacet
facet normal 0.000000 -0.000440 0.000000
  outer loop
    vertex 0.053759 0.000000 -0.042453
    vertex 0.058938 0.000000 0.034909
    vertex 0.053759 0.000000 0.042453
  endloop
endfacet
facet normal -0.000000 -0.000521 0.000000
  outer loop
    vertex 0.053759 0.000000 -0.042453
    vertex 0.053759 0.000000 0.042453
    vertex 0.047621 0.000000 -0.049239
  endloop
endfacet
facet normal 0.000000 -0.000604 0.000000
  outer loop
    vertex 0.047621 0.000000 -0.049239
    vertex 0.053759 0.000000 0.042453
    vertex 0.047621 0.000000 0.049239
  endloop
endfacet
facet normal -0.000000 -0.000688 0.000000
  outer loop
    vertex 0.047621 0.000000 -0.049239
    vertex 0.047621 0.000000 0.049239
    vertex 0.040633 0.000000 -0.055147
  endloop
endfacet
facet normal 0.000000 -0.000771 0.000000
  outer loop
    vertex 0.040633 0.000000 -0.055147
    vertex 0.047621 0.000000 0.049239
    vertex 0.040633 0.000000 0.055147
  endloop
endfacet
facet normal -0.000000 -0.000851 0.000000
  outer loop
    vertex 0.040633 0.000000 -0.055147
    vertex 0.040633 0.000000 0.055147
    vertex 0.032920 0.000000 -0.060071
  endloop
endfacet
facet normal 0.000000 -0.000927 0.000000
  outer loop
    vertex 0.032920 0.000000 -0.060071
    vertex 0.040633 0.000000 0.055147
    vertex 0.032920 0.000000 0.060071
  endloop
endfacet
facet normal -0.000000 -0.000997 0.000000
  outer loop
    vertex 0.032920 0.000000 -0.060071
    vertex 0.032920 0.000000 0.060071
    vertex 0.024619 0.000000 -0.063923
  endloop
endfacet
facet normal 0.000000 -0.001061 0.000000
  outer loop
    vertex 0.024619 0.000000 -0.063923
    vertex 0.032920 0.000000 0.060071
    vertex 0.024619 0.000000 0.063923
  endloop
endfacet
facet normal -0.000000 -0.001117 0.000000
  outer loop
    vertex 0.024619 0.000000 -0.063923
    vertex 0.024619 0.000000 0.063923
    vertex 0.015880 0.000000 -0.066634
  endloop
endfacet
facet normal 0.000000 -0.001165 0.000000
  outer loop
    vertex 0.015880 0.000000 -0.066634
    vertex 0.024619 0.000000 0.063923
    vertex 0.015880 0.000000 0.066634
  endloop
endfacet
facet normal -0.000000 -0.001202 0.000000
  outer loop
    vertex 0.015880 0.000000 -0.066634
    vertex 0.015880 0.000000 0.066634
    vertex 0.006857 0.000000 -0.068156
  endloop
endfacet
facet normal 0.000000 -0.001230 0.000000
  outer loop
    vertex 0.006857 0.000000 -0.068156
    vertex 0.015880 0.000000 0.066634
    vertex 0.006857 0.000000 0.068156
  endloop
endfacet
facet normal -0.000000 -0.001247 0.000000
  outer loop
    vertex 0.006857 0.000000 -0.068156
    vertex 0.006857 0.000000 0.068156
    vertex -0.002289 0.000000 -0.068462
  endloop
endfacet
facet normal 0.000000 -0.001252 0.000000
  outer loop
    vertex -0.002289 0.000000 -0.068462
    vertex 0.006857 0.000000 0.068156
    vertex -0.002289 0.000000 0.068462
  endloop
endfacet
facet normal 0.000000 -0.001247 0.000000
  outer loop
    vertex -0.002289 0.000000 -0.068462
    vertex -0.002289 0.000000 0.068462
    vertex -0.011394 0.000000 -0.067546
  endloop
endfacet
facet normal 0.000000 -0.001230 0.000000
  outer loop
    vertex -0.011394 0.000000 -0.067546
    vertex -0.002289 0.000000 0.068462
    vertex -0.011394 0.000000 0.067546
  endloop
endfacet
facet normal 0.000000 -0.001202 0.000000
  outer loop
    vertex -0.011394 0.000000 -0.067546
    vertex -0.011394 0.000000 0.067546
    vertex -0.020295 0.000000 -0.065425
  endloop
endfacet
facet normal 0.000000 -0.001165 0.000000
  outer loop
    vertex -0.020295 0.000000 -0.065425
    vertex -0.011394 0.000000 0.067546
    vertex -0.020295 0.000000 0.065425
  endloop
endfacet
facet normal 0.000000 -0.001117 0.000000
  outer loop
    vertex -0.020295 0.000000 -0.065425
    vertex -0.020295 0.000000 0.065425
    vertex -0.028834 0.000000 -0.062136
  endloop
endfacet
facet normal 0.000000 -0.001061 0.000000
  outer loop
    vertex -0.028834 0.000000 -0.062136
    vertex -0.020295 0.000000 0.065425
    vertex -0.028834 0.000000 0.062136
  endloop
endfacet
facet normal 0.000000 -0.000997 0.000000
  outer loop
    vertex -0.028834 0.000000 -0.062136
    vertex -0.028834 0.000000 0.062136
    vertex -0.036859 0.000000 -0.057738
  endloop
endfacet
facet normal 0.000000 -0.000927 0.000000
  outer loop
    vertex -0.036859 0.000000 -0.057738
    vertex -0.028834 0.000000 0.062136
    vertex -0.036859 0.000000 0.057738
  endloop
endfacet
facet normal 0.000000 -0.000851 0.000000
  outer loop
    vertex -0.036859 0.000000 -0.057738
    vertex -0.036859 0.000000 0.057738
    vertex -0.044226 0.000000 -0.052310
  endloop
endfacet
facet normal 0.000000 -0.000771 0.000000
  outer loop
    vertex -0.044226 0.000000 -0.052310
    vertex -0.036859 0.000000 0.057738
    vertex -0.044226 0.000000 0.052310
  endloop
endfacet
facet normal 0.000000 -0.000688 0.000000
  outer loop
    vertex -0.044226 0.000000 -0.052310
    vertex -0.044226 0.000000 0.052310
    vertex -0.050803 0.000000 -0.045949
  endloop
endfacet
facet normal 0.000000 -0.000604 0.000000
  outer loop
    vertex -0.050803 0.000000 -0.045949
    vertex -0.044226 0.000000 0.052310
    vertex -0.050803 0.000000 0.045949
  endloop
endfacet
facet normal 0.000000 -0.000521 0.000000
  outer loop
    vertex -0.050803 0.000000 -0.045949
    vertex -0.050803 0.000000 0.045949
    vertex -0.056474 0.000000 -0.038767
  endloop
endfacet
facet normal 0.000000 -0.000440 0.000000
  outer loop
    vertex -0.056474 0.000000 -0.038767
    vertex -0.050803 0.000000 0.045949
    vertex -0.056474 0.000000 0.038767
  endloop
endfacet
facet normal 0.000000 -0.000362 0.000000
  outer loop
    vertex -0.056474 0.000000 -0.038767
    vertex -0.056474 0.000000 0.038767
    vertex -0.061138 0.000000 -0.030894
  endloop
endfacet
facet normal 0.000000 -0.000288 0.000000
  outer loop
    vertex -0.061138 0.000000 -0.030894
    vertex -0.056474 0.000000 0.038767
    vertex -0.061138 0.000000 0.030894
  endloop
endfacet
facet normal 0.000000 -0.000221 0.000000
  outer loop
    vertex -0.061138 0.000000 -0.030894
    vertex -0.061138 0.000000 0.030894
    vertex -0.064710 0.000000 -0.022470
  endloop
endfacet
facet normal 0.000000 -0.000161 0.000000
  outer loop
    vertex -0.064710 0.000000 -0.022470
    vertex -0.061138 0.000000 0.030894
    vertex -0.064710 0.000000 0.022470
  endloop
endfacet
facet normal 0.000000 -0.000109 0.000000
  outer loop
    vertex -0.064710 0.000000 -0.022470
    vertex -0.064710 0.000000 0.022470
    vertex -0.067127 0.000000 -0.013644
  endloop
endfacet
facet normal 0.000000 -0.000066 0.000000
  outer loop
    vertex -0.067127 0.000000 -0.013644
    vertex -0.064710 0.000000 0.022470
    vertex -0.067127 0.000000 0.013644
  endloop
endfacet
facet normal 0.000000 -0.000033 0.000000
  outer loop
    vertex -0.067127 0.000000 -0.013644
    vertex -0.067127 0.000000 0.013644
    vertex -0.068347 0.000000 -0.004575
  endloop
endfacet
facet normal 0.000000 -0.000011 0.000000
  outer loop
    vertex -0.068347 0.000000 -0.004575
    vertex -0.067127 0.000000 0.013644
    vertex -0.068347 0.000000 0.004575
  endloop
endfacet
facet normal 0.000000 0.002044 0.000000
  outer loop
    vertex 0.008562 0.125000 -0.095063
    vertex 0.008562 0.125000 0.095063
    vertex 0.019313 0.125000 -0.093474
  endloop
endfacet
facet normal 0.000000 0.002010 -0.000000
  outer loop
    vertex 0.019313 0.125000 -0.093474
    vertex 0.008562 0.125000 0.095063
    vertex 0.019313 0.125000 0.093474
  endloop
endfacet
facet normal 0.000000 0.001963 0.000000
  outer loop
    vertex 0.019313 0.125000 -0.093474
    vertex 0.019313 0.125000 0.093474
    vertex 0.029814 0.125000 -0.090672
  endloop
endfacet
facet normal 0.000000 0.001904 -0.000000
  outer loop
    vertex 0.029814 0.125000 -0.090672
    vertex 0.019313 0.125000 0.093474
    vertex 0.029814 0.125000 0.090672
  endloop
endfacet
facet normal 0.000000 0.001834 0.000000
  outer loop
    vertex 0.029814 0.125000 -0.090672
    vertex 0.029814 0.125000 0.090672
    vertex 0.039927 0.125000 -0.086695
  endloop
endfacet
facet normal 0.000000 0.001754 -0.000000
  outer loop
    vertex 0.039927 0.125000 -0.086695
    vertex 0.029814 0.125000 0.090672
    vertex 0.039927 0.125000 0.086695
  endloop
endfacet
facet normal 0.000000 0.001664 0.000000
  outer loop
    vertex 0.039927 0.125000 -0.086695
    vertex 0.039927 0.125000 0.086695
    vertex 0.049524 0.125000 -0.081595
  endloop
endfacet
facet normal 0.000000 0.001566 -0.000000
  outer loop
    vertex 0.049524 0.125000 -0.081595
    vertex 0.039927 0.125000 0.086695
    vertex 0.049524 0.125000 0.081595
  endloop
endfacet
facet normal 0.000000 0.001461 0.000000
  outer loop
    vertex 0.049524 0.125000 -0.081595
    vertex 0.049524 0.125000 0.081595
    vertex 0.058478 0.125000 -0.075436
  endloop
endfacet
facet normal 0.000000 0.001351 -0.000000
  outer loop
    vertex 0.058478 0.125000 -0.075436
    vertex 0.049524 0.125000 0.081595
    vertex 0.058478 0.125000 0.075436
  endloop
endfacet
facet normal 0.000000 0.001237 0.000000
  outer loop
    vertex 0.058478 0.125000 -0.075436
    vertex 0.058478 0.125000 0.075436
    vertex 0.066674 0.125000 -0.068300
  endloop
endfacet
facet normal 0.000000 0.001120 -0.000000
  outer loop
    vertex 0.066674 0.125000 -0.068300
    vertex 0.058478 0.125000 0.075436
    vertex 0.066674 0.125000 0.068300
  endloop
endfacet
facet normal 0.000000 0.001002 0.000000
  outer loop
    vertex 0.066674 0.125000 -0.068300
    vertex 0.066674 0.125000 0.068300
    vertex 0.074006 0.125000 -0.060278
  endloop
endfacet
facet normal 0.000000 0.000884 -0.000000
  outer loop
    vertex 0.074006 0.125000 -0.060278
    vertex 0.066674 0.125000 0.068300
    vertex 0.074006 0.125000 0.060278
  endloop
endfacet
facet normal 0.000000 0.000768 0.000000
  outer loop
    vertex 0.074006 0.125000 -0.060278
    vertex 0.074006 0.125000 0.060278
    vertex 0.080378 0.125000 -0.051475
  endloop
endfacet
facet normal 0.000000 0.000656 -0.000000
  outer loop
    vertex 0.080378 0.125000 -0.051475
    vertex 0.074006 0.125000 0.060278
    vertex 0.080378 0.125000 0.051475
  endloop
endfacet
facet normal 0.000000 0.000549 0.000000
  outer loop
    vertex 0.080378 0.125000 -0.051475
    vertex 0.080378 0.125000 0.051475
    vertex 0.085708 0.125000 -0.042004
  endloop
endfacet
facet normal 0.000000 0.000448 -0.000000
  outer loop
    vertex 0.085708 0.125000 -0.042004
    vertex 0.080378 0.125000 0.051475
    vertex 0.085708 0.125000 0.042004
  endloop
endfacet
facet normal 0.000000 0.000354 0.000000
  outer loop
    vertex 0.085708 0.125000 -0.042004
    vertex 0.085708 0.125000 0.042004
    vertex 0.089928 0.125000 -0.031989
  endloop
endfacet
facet normal 0.000000 0.000270 -0.000000
  outer loop
    vertex 0.089928 0.125000 -0.031989
    vertex 0.085708 0.125000 0.042004
    vertex 0.089928 0.125000 0.031989
  endloop
endfacet
facet normal 0.000000 0.000195 0.000000
  outer loop
    vertex 0.089928 0.125000 -0.031989
    vertex 0.089928 0.125000 0.031989
    vertex 0.092981 0.125000 -0.021559
  endloop
endfacet
facet normal 0.000000 0.000132 -0.000000
  outer loop
    vertex 0.092981 0.125000 -0.021559
    vertex 0.089928 0.125000 0.031989
    vertex 0.092981 0.125000 0.021559
  endloop
endfacet
facet normal 0.000000 0.000080 0.000000
  outer loop
    vertex 0.092981 0.125000 -0.021559
    vertex 0.092981 0.125000 0.021559
    vertex 0.094829 0.125000 -0.010850
  endloop
endfacet
facet normal 0.000000 0.000040 -0.000000
  outer loop
    vertex 0.094829 0.125000 -0.010850
    vertex 0.092981 0.125000 0.021559
    vertex 0.094829 0.125000 0.010850
  endloop
endfacet
facet normal 0.000000 0.000013 0.000000
  outer loop
    vertex 0.094829 0.125000 -0.010850
    vertex 0.094829 0.125000 0.010850
    vertex 0.095448 0.125000 0.000000
  endloop
endfacet
facet normal 0.000000 -0.000000 0.000000
  outer loop
    vertex 0.008562 0.116235 0.087410
    vertex 0.008562 0.108203 0.080392
    vertex 0.008562 0.125000 0.095063
  endloop
endfacet
facet normal 0.000000 0.000000 0.000000
  outer loop
    vertex 0.008562 0.125000 0.095063
    vertex 0.008562 0.108203 0.080392
    vertex 0.008562 0.100816 0.073931
  endloop
endfacet
facet normal 0.000000 0.000000 0.000000
  outer loop
    vertex 0.008562 0.125000 0.095063
    vertex 0.008562 0.100816 0.073931
    vertex 0.008562 0.094000 0.067963
  endloop
endfacet
facet normal 0.000049 -0.000291 0.000333
  outer loop
    vertex 0.008562 0.125000 0.095063
    vertex 0.008562 0.094000 0.067963
    vertex 0.019313 0.125000 0.093474
  endloop
endfacet
facet normal 0.000053 -0.000244 0.000274
  outer loop
    vertex 0.019313 0.125000 0.093474
    vertex 0.008562 0.094000 0.067963
    vertex 0.017394 0.094000 0.066255
  endloop
endfacet
facet normal 0.000087 -0.000291 0.000326
  outer loop
    vertex 0.019313 0.125000 0.093474
    vertex 0.017394 0.094000 0.066255
    vertex 0.029814 0.125000 0.090672
  endloop
endfacet
facet normal 0.000088 -0.000244 0.000264
  outer loop
    vertex 0.029814 0.125000 0.090672
    vertex 0.017394 0.094000 0.066255
    vertex 0.025925 0.094000 0.063405
  endloop
endfacet
facet normal 0.000123 -0.000291 0.000314
  outer loop
    vertex 0.029814 0.125000 0.090672
    vertex 0.025925 0.094000 0.063405
    vertex 0.039927 0.125000 0.086695
  endloop
endfacet
facet normal 0.000122 -0.000244 0.000251
  outer loop
    vertex 0.039927 0.125000 0.086695
    vertex 0.025925 0.094000 0.063405
    vertex 0.034009 0.094000 0.059461
  endloop
endfacet
facet normal 0.000158 -0.000292 0.000297
  outer loop
    vertex 0.039927 0.125000 0.086695
    vertex 0.034009 0.094000 0.059461
    vertex 0.049524 0.125000 0.081595
  endloop
endfacet
facet normal 0.000154 -0.000243 0.000232
  outer loop
    vertex 0.049524 0.125000 0.081595
    vertex 0.034009 0.094000 0.059461
    vertex 0.041507 0.094000 0.054492
  endloop
endfacet
facet normal 0.000191 -0.000292 0.000278
  outer loop
    vertex 0.049524 0.125000 0.081595
    vertex 0.041507 0.094000 0.054492
    vertex 0.058478 0.125000 0.075436
  endloop
endfacet
facet normal 0.000221 -0.000293 0.000254
  outer loop
    vertex 0.058478 0.125000 0.075436
    vertex 0.041507 0.094000 0.054492
    vertex 0.066674 0.125000 0.068300
  endloop
endfacet
facet normal 0.000183 -0.000242 0.000210
  outer loop
    vertex 0.066674 0.125000 0.068300
    vertex 0.041507 0.094000 0.054492
    vertex 0.048289 0.094000 0.048584
  endloop
endfacet
facet normal 0.000249 -0.000292 0.000227
  outer loop
    vertex 0.066674 0.125000 0.068300
    vertex 0.048289 0.094000 0.048584
    vertex 0.074006 0.125000 0.060278
  endloop
endfacet
facet normal 0.000209 -0.000243 0.000184
  outer loop
    vertex 0.074006 0.125000 0.060278
    vertex 0.048289 0.094000 0.048584
    vertex 0.054239 0.094000 0.041838
  endloop
endfacet
facet normal 0.000273 -0.000292 0.000198
  outer loop
    vertex 0.074006 0.125000 0.060278
    vertex 0.054239 0.094000 0.041838
    vertex 0.080378 0.125000 0.051475
  endloop
endfacet
facet normal 0.000231 -0.000244 0.000155
  outer loop
    vertex 0.080378 0.125000 0.051475
    vertex 0.054239 0.094000 0.041838
    vertex 0.059253 0.094000 0.034370
  endloop
endfacet
facet normal 0.000294 -0.000291 0.000165
  outer loop
    vertex 0.080378 0.125000 0.051475
    vertex 0.059253 0.094000 0.034370
    vertex 0.085708 0.125000 0.042004
  endloop
endfacet
facet normal 0.000250 -0.000244 0.000124
  outer loop
    vertex 0.085708 0.125000 0.042004
    vertex 0.059253 0.094000 0.034370
    vertex 0.063246 0.094000 0.026310
  endloop
endfacet
facet normal 0.000310 -0.000291 0.000131
  outer loop
    vertex 0.085708 0.125000 0.042004
    vertex 0.063246 0.094000 0.026310
    vertex 0.089928 0.125000 0.031989
  endloop
endfacet
facet normal 0.000264 -0.000244 0.000090
  outer loop
    vertex 0.089928 0.125000 0.031989
    vertex 0.063246 0.094000 0.026310
    vertex 0.066148 0.094000 0.017796
  endloop
endfacet
facet normal 0.000323 -0.000291 0.000095
  outer loop
    vertex 0.089928 0.125000 0.031989
    vertex 0.066148 0.094000 0.017796
    vertex 0.092981 0.125000 0.021559
  endloop
endfacet
facet normal 0.000273 -0.000243 0.000055
  outer loop
    vertex 0.092981 0.125000 0.021559
    vertex 0.066148 0.094000 0.017796
    vertex 0.067909 0.094000 0.008975
  endloop
endfacet
facet normal 0.000332 -0.000292 0.000057
  outer loop
    vertex 0.092981 0.125000 0.021559
    vertex 0.067909 0.094000 0.008975
    vertex 0.094829 0.125000 0.010850
  endloop
endfacet
facet normal 0.000278 -0.000243 0.000018
  outer loop
    vertex 0.094829 0.125000 0.010850
    vertex 0.067909 0.094000 0.008975
    vertex 0.068500 0.094000 0.000000
  endloop
endfacet
facet normal 0.000336 -0.000292 0.000019
  outer loop
    vertex 0.094829 0.125000 0.010850
    vertex 0.068500 0.094000 0.000000
    vertex 0.095448 0.125000 0.000000
  endloop
endfacet
facet normal 0.000336 -0.000292 -0.000019
  outer loop
    vertex 0.095448 0.125000 0.000000
    vertex 0.068500 0.094000 0.000000
    vertex 0.094829 0.125000 -0.010850
  endloop
endfacet
facet normal 0.000278 -0.000243 -0.000018
  outer loop
    vertex 0.094829 0.125000 -0.010850
    vertex 0.068500 0.094000 0.000000
    vertex 0.067909 0.094000 -0.008975
  endloop
endfacet
facet normal 0.000332 -0.000292 -0.000057
  outer loop
    vertex 0.094829 0.125000 -0.010850
    vertex 0.067909 0.094000 -0.008975
    vertex 0.092981 0.125000 -0.021559
  endloop
endfacet
facet normal 0.000273 -0.000243 -0.000055
  outer loop
    vertex 0.092981 0.125000 -0.021559
    vertex 0.067909 0.094000 -0.008975
    vertex 0.066148 0.094000 -0.017796
  endloop
endfacet
facet normal 0.000323 -0.000291 -0.000095
  outer loop
    vertex 0.092981 0.125000 -0.021559
    vertex 0.066148 0.094000 -0.017796
    vertex 0.089928 0.125000 -0.031989
  endloop
endfacet
facet normal 0.000264 -0.000244 -0.000090
  outer loop
    vertex 0.089928 0.125000 -0.031989
    vertex 0.066148 0.094000 -0.017796
    vertex 0.063246 0.094000 -0.026310
  endloop
endfacet
facet normal 0.000310 -0.000291 -0.000131
  outer loop
    vertex 0.089928 0.125000 -0.031989
    vertex 0.063246 0.094000 -0.026310
    vertex 0.085708 0.125000 -0.042004
  endloop
endfacet
facet normal 0.000250 -0.000244 -0.000124
  outer loop
    vertex 0.085708 0.125000 -0.042004
    vertex 0.063246 0.094000 -0.026310
    vertex 0.059253 0.094000 -0.034370
  endloop
endfacet
facet normal 0.000294 -0.000291 -0.000165
  outer loop
    vertex 0.085708 0.125000 -0.042004
    vertex 0.059253 0.094000 -0.034370
    vertex 0.080378 0.125000 -0.051475
  endloop
endfacet
facet normal 0.000231 -0.000244 -0.000155
  outer loop
    vertex 0.080378 0.125000 -0.051475
    vertex 0.059253 0.094000 -0.034370
    vertex 0.054239 0.094000 -0.041838
  endloop
endfacet
facet normal 0.000273 -0.000292 -0.000198
  outer loop
    vertex 0.080378 0.125000 -0.051475
    vertex 0.054239 0.094000 -0.041838
    vertex 0.074006 0.125000 -0.060278
  endloop
endfacet
facet normal 0.000209 -0.000243 -0.000184
  outer loop
    vertex 0.074006 0.125000 -0.060278
    vertex 0.054239 0.094000 -0.041838
    vertex 0.048289 0.094000 -0.048584
  endloop
endfacet
facet normal 0.000249 -0.000292 -0.000227
  outer loop
    vertex 0.074006 0.125000 -0.060278
    vertex 0.048289 0.094000 -0.048584
    vertex 0.066674 0.125000 -0.068300
  endloop
endfacet
facet normal 0.000183 -0.000242 -0.000210
  outer loop
    vertex 0.066674 0.125000 -0.068300
    vertex 0.048289 0.094000 -0.048584
    vertex 0.041507 0.094000 -0.054492
  endloop
endfacet
facet normal 0.000221 -0.000293 -0.000254
  outer loop
    vertex 0.066674 0.125000 -0.068300
    vertex 0.041507 0.094000 -0.054492
    vertex 0.058478 0.125000 -0.075436
  endloop
endfacet
facet normal 0.000191 -0.000292 -0.000278
  outer loop
    vertex 0.058478 0.125000 -0.075436
    vertex 0.041507 0.094000 -0.054492
    vertex 0.049524 0.125000 -0.081595
  endloop
endfacet
facet normal 0.000154 -0.000243 -0.000232
  outer loop
    vertex 0.049524 0.125000 -0.081595
    vertex 0.041507 0.094000 -0.054492
    vertex 0.034009 0.094000 -0.059461
  endloop
endfacet
facet normal 0.000158 -0.000292 -0.000297
  outer loop
    vertex 0.049524 0.125000 -0.081595
    vertex 0.034009 0.094000 -0.059461
    vertex 0.039927 0.125000 -0.086695
  endloop
endfacet
facet normal 0.000122 -0.000244 -0.000251
  outer loop
    vertex 0.039927 0.125000 -0.086695
    vertex 0.034009 0.094000 -0.059461
    vertex 0.025925 0.094000 -0.063405
  endloop
endfacet
facet normal 0.000123 -0.000291 -0.000314
  outer loop
    vertex 0.039927 0.125000 -0.086695
    vertex 0.025925 0.094000 -0.063405
    vertex 0.029814 0.125000 -0.090672
  endloop
endfacet
facet normal 0.000088 -0.000244 -0.000264
  outer loop
    vertex 0.029814 0.125000 -0.090672
    vertex 0.025925 0.094000 -0.063405
    vertex 0.017394 0.094000 -0.066255
  endloop
endfacet
facet normal 0.000087 -0.000291 -0.000326
  outer loop
    vertex 0.029814 0.125000 -0.090672
    vertex 0.017394 0.094000 -0.066255
    vertex 0.019313 0.125000 -0.093474
  endloop
endfacet
facet normal 0.000053 -0.000244 -0.000274
  outer loop
    vertex 0.019313 0.125000 -0.093474
    vertex 0.017394 0.094000 -0.066255
    vertex 0.008562 0.094000 -0.067963
  endloop
endfacet
facet normal 0.000049 -0.000291 -0.000333
  outer loop
    vertex 0.019313 0.125000 -0.093474
    vertex 0.008562 0.094000 -0.067963
    vertex 0.008562 0.125000 -0.095063
  endloop
endfacet
facet normal 0.000000 0.000000 0.000000
  outer loop
    vertex 0.008562 0.125000 -0.095063
    vertex 0.008562 0.094000 -0.067963
    vertex 0.008562 0.100816 -0.073931
  endloop
endfacet
facet normal 0.000000 0.000000 0.000000
  outer loop
    vertex 0.008562 0.125000 -0.095063
    vertex 0.008562 0.100816 -0.073931
    vertex 0.008562 0.108203 -0.080392
  endloop
endfacet
facet normal 0.000000 0.000000 0.000000
  outer loop
    vertex 0.008562 0.108203 -0.080392
    vertex 0.008562 0.116235 -0.087410
    vertex 0.008562 0.125000 -0.095063
  endloop
endfacet
endsolid 9192b72a-a648-4da7-a5bf-cfd3e23b213b-ascii.stl
