solid fc1791ee-9d70-4a40-ba8e-e9dd0ea1b821-ascii.stl
facet normal -0.001363 0.000000 -0.000000
  outer loop
    vertex 0.007000 0.500000 0.086141
    vertex 0.007000 0.500000 -0.086141
    vertex 0.007000 0.492088 0.079239
  endloop
endfacet
facet normal -0.001254 0.000000 0.000000
  outer loop
    vertex 0.007000 0.492088 0.079239
    vertex 0.007000 0.500000 -0.086141
    vertex 0.007000 0.492088 -0.079239
  endloop
endfacet
facet normal -0.001150 0.000000 -0.000000
  outer loop
    vertex 0.007000 0.492088 0.079239
    vertex 0.007000 0.492088 -0.079239
    vertex 0.007000 0.484834 0.072906
  endloop
endfacet
facet normal -0.001058 0.000000 0.000000
  outer loop
    vertex 0.007000 0.484834 0.072906
    vertex 0.007000 0.492088 -0.079239
    vertex 0.007000 0.484834 -0.072906
  endloop
endfacet
facet normal -0.000973 0.000000 -0.000000
  outer loop
    vertex 0.007000 0.484834 0.072906
    vertex 0.007000 0.484834 -0.072906
    vertex 0.007000 0.478160 0.067076
  endloop
endfacet
facet normal -0.000895 0.000000 0.000000
  outer loop
    vertex 0.007000 0.478160 0.067076
    vertex 0.007000 0.484834 -0.072906
    vertex 0.007000 0.478160 -0.067076
  endloop
endfacet
facet normal -0.000826 0.000000 -0.000000
  outer loop
    vertex 0.007000 0.478160 0.067076
    vertex 0.007000 0.478160 -0.067076
    vertex 0.007000 0.472000 0.061689
  endloop
endfacet
facet normal -0.000760 0.000000 0.000000
  outer loop
    vertex 0.007000 0.472000 0.061689
    vertex 0.007000 0.478160 -0.067076
    vertex 0.007000 0.472000 -0.061689
  endloop
endfacet
facet normal 0.000760 -0.000000 0.000000
  outer loop
    vertex -0.007000 0.472000 0.061689
    vertex -0.007000 0.472000 -0.061689
    vertex -0.007000 0.478160 0.067076
  endloop
endfacet
facet normal 0.000826 0.000000 0.000000
  outer loop
    vertex -0.007000 0.478160 0.067076
    vertex -0.007000 0.472000 -0.061689
    vertex -0.007000 0.478160 -0.067076
  endloop
endfacet
facet normal 0.000895 -0.000000 0.000000
  outer loop
    vertex -0.007000 0.478160 0.067076
    vertex -0.007000 0.478160 -0.067076
    vertex -0.007000 0.484834 0.072906
  endloop
endfacet
facet normal 0.000973 0.000000 0.000000
  outer loop
    vertex -0.007000 0.484834 0.072906
    vertex -0.007000 0.478160 -0.067076
    vertex -0.007000 0.484834 -0.072906
  endloop
endfacet
facet normal 0.001058 -0.000000 0.000000
  outer loop
    vertex -0.007000 0.484834 0.072906
    vertex -0.007000 0.484834 -0.072906
    vertex -0.007000 0.492088 0.079239
  endloop
endfacet
facet normal 0.001150 0.000000 0.000000
  outer loop
    vertex -0.007000 0.492088 0.079239
    vertex -0.007000 0.484834 -0.072906
    vertex -0.007000 0.492088 -0.079239
  endloop
endfacet
facet normal 0.001254 -0.000000 0.000000
  outer loop
    vertex -0.007000 0.492088 0.079239
    vertex -0.007000 0.492088 -0.079239
    vertex -0.007000 0.500000 0.086141
  endloop
endfacet
facet normal 0.001363 0.000000 0.000000
  outer loop
    vertex -0.007000 0.500000 0.086141
    vertex -0.007000 0.492088 -0.079239
    vertex -0.007000 0.500000 -0.086141
  endloop
endfacet
facet normal 0.000000 0.000575 0.000000
  outer loop
    vertex 0.007000 0.472000 0.061689
    vertex 0.007000 0.472000 -0.061689
    vertex 0.002338 0.472000 0.062041
  endloop
endfacet
facet normal 0.000000 0.000579 0.000000
  outer loop
    vertex 0.002338 0.472000 0.062041
    vertex 0.007000 0.472000 -0.061689
    vertex 0.002338 0.472000 -0.062041
  endloop
endfacet
facet normal 0.000000 0.000580 0.000000
  outer loop
    vertex 0.002338 0.472000 0.062041
    vertex 0.002338 0.472000 -0.062041
    vertex -0.002338 0.472000 0.062041
  endloop
endfacet
facet normal 0.000000 0.000580 0.000000
  outer loop
    vertex -0.002338 0.472000 0.062041
    vertex 0.002338 0.472000 -0.062041
    vertex -0.002338 0.472000 -0.062041
  endloop
endfacet
facet normal 0.000000 0.000579 0.000000
  outer loop
    vertex -0.002338 0.472000 0.062041
    vertex -0.002338 0.472000 -0.062041
    vertex -0.007000 0.472000 0.061689
  endloop
endfacet
facet normal 0.000000 0.000575 0.000000
  outer loop
    vertex -0.007000 0.472000 0.061689
    vertex -0.002338 0.472000 -0.062041
    vertex -0.007000 0.472000 -0.061689
  endloop
endfacet
facet normal 0.000292 -0.000256 -0.000022
  outer loop
    vertex 0.055375 0.465000 -0.008346
    vertex 0.086272 0.500000 -0.005147
    vertex 0.056000 0.465000 0.000000
  endloop
endfacet
facet normal 0.000360 -0.000312 0.000000
  outer loop
    vertex 0.056000 0.465000 0.000000
    vertex 0.086272 0.500000 -0.005147
    vertex 0.086272 0.500000 0.005147
  endloop
endfacet
facet normal 0.000292 -0.000256 0.000022
  outer loop
    vertex 0.056000 0.465000 0.000000
    vertex 0.086272 0.500000 0.005147
    vertex 0.055375 0.465000 0.008346
  endloop
endfacet
facet normal 0.000358 -0.000312 0.000043
  outer loop
    vertex 0.055375 0.465000 0.008346
    vertex 0.086272 0.500000 0.005147
    vertex 0.085048 0.500000 0.015368
  endloop
endfacet
facet normal 0.000286 -0.000255 0.000065
  outer loop
    vertex 0.055375 0.465000 0.008346
    vertex 0.085048 0.500000 0.015368
    vertex 0.053512 0.465000 0.016506
  endloop
endfacet
facet normal 0.000350 -0.000313 0.000085
  outer loop
    vertex 0.053512 0.465000 0.016506
    vertex 0.085048 0.500000 0.015368
    vertex 0.082617 0.500000 0.025370
  endloop
endfacet
facet normal 0.000337 -0.000313 0.000126
  outer loop
    vertex 0.053512 0.465000 0.016506
    vertex 0.082617 0.500000 0.025370
    vertex 0.079015 0.500000 0.035013
  endloop
endfacet
facet normal 0.000358 -0.000312 -0.000043
  outer loop
    vertex 0.086272 0.500000 -0.005147
    vertex 0.055375 0.465000 -0.008346
    vertex 0.085048 0.500000 -0.015368
  endloop
endfacet
facet normal 0.000286 -0.000255 -0.000065
  outer loop
    vertex 0.085048 0.500000 -0.015368
    vertex 0.055375 0.465000 -0.008346
    vertex 0.053512 0.465000 -0.016506
  endloop
endfacet
facet normal 0.000350 -0.000313 -0.000085
  outer loop
    vertex 0.085048 0.500000 -0.015368
    vertex 0.053512 0.465000 -0.016506
    vertex 0.082617 0.500000 -0.025370
  endloop
endfacet
facet normal 0.000337 -0.000313 -0.000126
  outer loop
    vertex 0.082617 0.500000 -0.025370
    vertex 0.053512 0.465000 -0.016506
    vertex 0.079015 0.500000 -0.035013
  endloop
endfacet
facet normal 0.000273 -0.000255 -0.000107
  outer loop
    vertex 0.079015 0.500000 -0.035013
    vertex 0.053512 0.465000 -0.016506
    vertex 0.050454 0.465000 -0.024297
  endloop
endfacet
facet normal 0.000320 -0.000312 -0.000165
  outer loop
    vertex 0.079015 0.500000 -0.035013
    vertex 0.050454 0.465000 -0.024297
    vertex 0.074292 0.500000 -0.044159
  endloop
endfacet
facet normal 0.000254 -0.000256 -0.000146
  outer loop
    vertex 0.074292 0.500000 -0.044159
    vertex 0.050454 0.465000 -0.024297
    vertex 0.046269 0.465000 -0.031546
  endloop
endfacet
facet normal 0.000298 -0.000312 -0.000202
  outer loop
    vertex 0.074292 0.500000 -0.044159
    vertex 0.046269 0.465000 -0.031546
    vertex 0.068514 0.500000 -0.052679
  endloop
endfacet
facet normal 0.000229 -0.000256 -0.000183
  outer loop
    vertex 0.068514 0.500000 -0.052679
    vertex 0.046269 0.465000 -0.031546
    vertex 0.041051 0.465000 -0.038090
  endloop
endfacet
facet normal 0.000272 -0.000312 -0.000236
  outer loop
    vertex 0.068514 0.500000 -0.052679
    vertex 0.041051 0.465000 -0.038090
    vertex 0.061765 0.500000 -0.060451
  endloop
endfacet
facet normal 0.000199 -0.000255 -0.000215
  outer loop
    vertex 0.061765 0.500000 -0.060451
    vertex 0.041051 0.465000 -0.038090
    vertex 0.034915 0.465000 -0.043783
  endloop
endfacet
facet normal 0.000242 -0.000313 -0.000267
  outer loop
    vertex 0.061765 0.500000 -0.060451
    vertex 0.034915 0.465000 -0.043783
    vertex 0.054140 0.500000 -0.067366
  endloop
endfacet
facet normal 0.000209 -0.000313 -0.000294
  outer loop
    vertex 0.054140 0.500000 -0.067366
    vertex 0.034915 0.465000 -0.043783
    vertex 0.045746 0.500000 -0.073325
  endloop
endfacet
facet normal 0.000165 -0.000255 -0.000242
  outer loop
    vertex 0.045746 0.500000 -0.073325
    vertex 0.034915 0.465000 -0.043783
    vertex 0.028000 0.465000 -0.048497
  endloop
endfacet
facet normal 0.000172 -0.000312 -0.000316
  outer loop
    vertex 0.045746 0.500000 -0.073325
    vertex 0.028000 0.465000 -0.048497
    vertex 0.036703 0.500000 -0.078244
  endloop
endfacet
facet normal 0.000127 -0.000256 -0.000264
  outer loop
    vertex 0.036703 0.500000 -0.078244
    vertex 0.028000 0.465000 -0.048497
    vertex 0.020459 0.465000 -0.052129
  endloop
endfacet
facet normal 0.000133 -0.000312 -0.000335
  outer loop
    vertex 0.036703 0.500000 -0.078244
    vertex 0.020459 0.465000 -0.052129
    vertex 0.027140 0.500000 -0.082053
  endloop
endfacet
facet normal 0.000086 -0.000256 -0.000280
  outer loop
    vertex 0.027140 0.500000 -0.082053
    vertex 0.020459 0.465000 -0.052129
    vertex 0.012461 0.465000 -0.054596
  endloop
endfacet
facet normal 0.000093 -0.000312 -0.000348
  outer loop
    vertex 0.027140 0.500000 -0.082053
    vertex 0.012461 0.465000 -0.054596
    vertex 0.017192 0.500000 -0.084698
  endloop
endfacet
facet normal 0.000038 -0.000198 -0.000224
  outer loop
    vertex 0.017192 0.500000 -0.084698
    vertex 0.012461 0.465000 -0.054596
    vertex 0.007000 0.472000 -0.061689
  endloop
endfacet
facet normal 0.000040 -0.000249 -0.000285
  outer loop
    vertex 0.017192 0.500000 -0.084698
    vertex 0.007000 0.472000 -0.061689
    vertex 0.007000 0.500000 -0.086141
  endloop
endfacet
facet normal 0.000000 0.000000 0.000000
  outer loop
    vertex 0.007000 0.500000 -0.086141
    vertex 0.007000 0.472000 -0.061689
    vertex 0.007000 0.478160 -0.067076
  endloop
endfacet
facet normal 0.000000 0.000000 0.000000
  outer loop
    vertex 0.007000 0.500000 -0.086141
    vertex 0.007000 0.478160 -0.067076
    vertex 0.007000 0.484834 -0.072906
  endloop
endfacet
facet normal 0.000009 -0.000052 -0.000058
  outer loop
    vertex 0.012461 0.465000 -0.054596
    vertex 0.004185 0.465000 -0.055843
    vertex 0.007000 0.472000 -0.061689
  endloop
endfacet
facet normal 0.000002 -0.000028 -0.000033
  outer loop
    vertex 0.007000 0.472000 -0.061689
    vertex 0.004185 0.465000 -0.055843
    vertex 0.002338 0.472000 -0.062041
  endloop
endfacet
facet normal 0.000000 -0.000052 -0.000059
  outer loop
    vertex 0.002338 0.472000 -0.062041
    vertex 0.004185 0.465000 -0.055843
    vertex -0.004185 0.465000 -0.055843
  endloop
endfacet
facet normal -0.000000 -0.000029 -0.000033
  outer loop
    vertex 0.002338 0.472000 -0.062041
    vertex -0.004185 0.465000 -0.055843
    vertex -0.002338 0.472000 -0.062041
  endloop
endfacet
facet normal -0.000002 -0.000028 -0.000033
  outer loop
    vertex -0.002338 0.472000 -0.062041
    vertex -0.004185 0.465000 -0.055843
    vertex -0.007000 0.472000 -0.061689
  endloop
endfacet
facet normal -0.000009 -0.000052 -0.000058
  outer loop
    vertex -0.007000 0.472000 -0.061689
    vertex -0.004185 0.465000 -0.055843
    vertex -0.012461 0.465000 -0.054596
  endloop
endfacet
facet normal -0.000038 -0.000198 -0.000224
  outer loop
    vertex -0.007000 0.472000 -0.061689
    vertex -0.012461 0.465000 -0.054596
    vertex -0.017192 0.500000 -0.084698
  endloop
endfacet
facet normal -0.000093 -0.000312 -0.000348
  outer loop
    vertex -0.017192 0.500000 -0.084698
    vertex -0.012461 0.465000 -0.054596
    vertex -0.027140 0.500000 -0.082053
  endloop
endfacet
facet normal -0.000086 -0.000256 -0.000280
  outer loop
    vertex -0.027140 0.500000 -0.082053
    vertex -0.012461 0.465000 -0.054596
    vertex -0.020459 0.465000 -0.052129
  endloop
endfacet
facet normal -0.000133 -0.000312 -0.000335
  outer loop
    vertex -0.027140 0.500000 -0.082053
    vertex -0.020459 0.465000 -0.052129
    vertex -0.036703 0.500000 -0.078244
  endloop
endfacet
facet normal -0.000127 -0.000256 -0.000264
  outer loop
    vertex -0.036703 0.500000 -0.078244
    vertex -0.020459 0.465000 -0.052129
    vertex -0.028000 0.465000 -0.048497
  endloop
endfacet
facet normal -0.000172 -0.000312 -0.000316
  outer loop
    vertex -0.036703 0.500000 -0.078244
    vertex -0.028000 0.465000 -0.048497
    vertex -0.045746 0.500000 -0.073325
  endloop
endfacet
facet normal -0.000165 -0.000255 -0.000242
  outer loop
    vertex -0.045746 0.500000 -0.073325
    vertex -0.028000 0.465000 -0.048497
    vertex -0.034915 0.465000 -0.043783
  endloop
endfacet
facet normal -0.000209 -0.000313 -0.000294
  outer loop
    vertex -0.045746 0.500000 -0.073325
    vertex -0.034915 0.465000 -0.043783
    vertex -0.054140 0.500000 -0.067366
  endloop
endfacet
facet normal -0.000242 -0.000313 -0.000267
  outer loop
    vertex -0.054140 0.500000 -0.067366
    vertex -0.034915 0.465000 -0.043783
    vertex -0.061765 0.500000 -0.060451
  endloop
endfacet
facet normal -0.000199 -0.000255 -0.000215
  outer loop
    vertex -0.061765 0.500000 -0.060451
    vertex -0.034915 0.465000 -0.043783
    vertex -0.041051 0.465000 -0.038090
  endloop
endfacet
facet normal -0.000272 -0.000312 -0.000236
  outer loop
    vertex -0.061765 0.500000 -0.060451
    vertex -0.041051 0.465000 -0.038090
    vertex -0.068514 0.500000 -0.052679
  endloop
endfacet
facet normal -0.000229 -0.000256 -0.000183
  outer loop
    vertex -0.068514 0.500000 -0.052679
    vertex -0.041051 0.465000 -0.038090
    vertex -0.046269 0.465000 -0.031546
  endloop
endfacet
facet normal -0.000298 -0.000312 -0.000202
  outer loop
    vertex -0.068514 0.500000 -0.052679
    vertex -0.046269 0.465000 -0.031546
    vertex -0.074292 0.500000 -0.044159
  endloop
endfacet
facet normal -0.000254 -0.000256 -0.000146
  outer loop
    vertex -0.074292 0.500000 -0.044159
    vertex -0.046269 0.465000 -0.031546
    vertex -0.050454 0.465000 -0.024297
  endloop
endfacet
facet normal -0.000320 -0.000312 -0.000165
  outer loop
    vertex -0.074292 0.500000 -0.044159
    vertex -0.050454 0.465000 -0.024297
    vertex -0.079015 0.500000 -0.035013
  endloop
endfacet
facet normal -0.000273 -0.000255 -0.000107
  outer loop
    vertex -0.079015 0.500000 -0.035013
    vertex -0.050454 0.465000 -0.024297
    vertex -0.053512 0.465000 -0.016506
  endloop
endfacet
facet normal -0.000337 -0.000313 -0.000126
  outer loop
    vertex -0.079015 0.500000 -0.035013
    vertex -0.053512 0.465000 -0.016506
    vertex -0.082617 0.500000 -0.025370
  endloop
endfacet
facet normal -0.000350 -0.000313 -0.000085
  outer loop
    vertex -0.082617 0.500000 -0.025370
    vertex -0.053512 0.465000 -0.016506
    vertex -0.085048 0.500000 -0.015368
  endloop
endfacet
facet normal -0.000286 -0.000255 -0.000065
  outer loop
    vertex -0.085048 0.500000 -0.015368
    vertex -0.053512 0.465000 -0.016506
    vertex -0.055375 0.465000 -0.008346
  endloop
endfacet
facet normal -0.000358 -0.000312 -0.000043
  outer loop
    vertex -0.085048 0.500000 -0.015368
    vertex -0.055375 0.465000 -0.008346
    vertex -0.086272 0.500000 -0.005147
  endloop
endfacet
facet normal -0.000292 -0.000256 -0.000022
  outer loop
    vertex -0.086272 0.500000 -0.005147
    vertex -0.055375 0.465000 -0.008346
    vertex -0.056000 0.465000 0.000000
  endloop
endfacet
facet normal -0.000360 -0.000312 0.000000
  outer loop
    vertex -0.086272 0.500000 -0.005147
    vertex -0.056000 0.465000 0.000000
    vertex -0.086272 0.500000 0.005147
  endloop
endfacet
facet normal -0.000292 -0.000256 0.000022
  outer loop
    vertex -0.086272 0.500000 0.005147
    vertex -0.056000 0.465000 0.000000
    vertex -0.055375 0.465000 0.008346
  endloop
endfacet
facet normal -0.000358 -0.000312 0.000043
  outer loop
    vertex -0.086272 0.500000 0.005147
    vertex -0.055375 0.465000 0.008346
    vertex -0.085048 0.500000 0.015368
  endloop
endfacet
facet normal -0.000286 -0.000255 0.000065
  outer loop
    vertex -0.085048 0.500000 0.015368
    vertex -0.055375 0.465000 0.008346
    vertex -0.053512 0.465000 0.016506
  endloop
endfacet
facet normal -0.000350 -0.000313 0.000085
  outer loop
    vertex -0.085048 0.500000 0.015368
    vertex -0.053512 0.465000 0.016506
    vertex -0.082617 0.500000 0.025370
  endloop
endfacet
facet normal -0.000337 -0.000313 0.000126
  outer loop
    vertex -0.082617 0.500000 0.025370
    vertex -0.053512 0.465000 0.016506
    vertex -0.079015 0.500000 0.035013
  endloop
endfacet
facet normal -0.000273 -0.000255 0.000107
  outer loop
    vertex -0.079015 0.500000 0.035013
    vertex -0.053512 0.465000 0.016506
    vertex -0.050454 0.465000 0.024297
  endloop
endfacet
facet normal -0.000320 -0.000312 0.000165
  outer loop
    vertex -0.079015 0.500000 0.035013
    vertex -0.050454 0.465000 0.024297
    vertex -0.074292 0.500000 0.044159
  endloop
endfacet
facet normal -0.000254 -0.000256 0.000146
  outer loop
    vertex -0.074292 0.500000 0.044159
    vertex -0.050454 0.465000 0.024297
    vertex -0.046269 0.465000 0.031546
  endloop
endfacet
facet normal -0.000298 -0.000312 0.000202
  outer loop
    vertex -0.074292 0.500000 0.044159
    vertex -0.046269 0.465000 0.031546
    vertex -0.068514 0.500000 0.052679
  endloop
endfacet
facet normal -0.000229 -0.000256 0.000183
  outer loop
    vertex -0.068514 0.500000 0.052679
    vertex -0.046269 0.465000 0.031546
    vertex -0.041051 0.465000 0.038090
  endloop
endfacet
facet normal -0.000272 -0.000312 0.000236
  outer loop
    vertex -0.068514 0.500000 0.052679
    vertex -0.041051 0.465000 0.038090
    vertex -0.061765 0.500000 0.060451
  endloop
endfacet
facet normal -0.000199 -0.000255 0.000215
  outer loop
    vertex -0.061765 0.500000 0.060451
    vertex -0.041051 0.465000 0.038090
    vertex -0.034915 0.465000 0.043783
  endloop
endfacet
facet normal -0.000242 -0.000313 0.000267
  outer loop
    vertex -0.061765 0.500000 0.060451
    vertex -0.034915 0.465000 0.043783
    vertex -0.054140 0.500000 0.067366
  endloop
endfacet
facet normal -0.000209 -0.000313 0.000294
  outer loop
    vertex -0.054140 0.500000 0.067366
    vertex -0.034915 0.465000 0.043783
    vertex -0.045746 0.500000 0.073325
  endloop
endfacet
facet normal -0.000165 -0.000255 0.000242
  outer loop
    vertex -0.045746 0.500000 0.073325
    vertex -0.034915 0.465000 0.043783
    vertex -0.028000 0.465000 0.048497
  endloop
endfacet
facet normal -0.000172 -0.000312 0.000316
  outer loop
    vertex -0.045746 0.500000 0.073325
    vertex -0.028000 0.465000 0.048497
    vertex -0.036703 0.500000 0.078244
  endloop
endfacet
facet normal -0.000127 -0.000256 0.000264
  outer loop
    vertex -0.036703 0.500000 0.078244
    vertex -0.028000 0.465000 0.048497
    vertex -0.020459 0.465000 0.052129
  endloop
endfacet
facet normal -0.000133 -0.000312 0.000335
  outer loop
    vertex -0.036703 0.500000 0.078244
    vertex -0.020459 0.465000 0.052129
    vertex -0.027140 0.500000 0.082053
  endloop
endfacet
facet normal -0.000086 -0.000256 0.000280
  outer loop
    vertex -0.027140 0.500000 0.082053
    vertex -0.020459 0.465000 0.052129
    vertex -0.012461 0.465000 0.054596
  endloop
endfacet
facet normal -0.000093 -0.000312 0.000348
  outer loop
    vertex -0.027140 0.500000 0.082053
    vertex -0.012461 0.465000 0.054596
    vertex -0.017192 0.500000 0.084698
  endloop
endfacet
facet normal -0.000038 -0.000198 0.000224
  outer loop
    vertex -0.017192 0.500000 0.084698
    vertex -0.012461 0.465000 0.054596
    vertex -0.007000 0.472000 0.061689
  endloop
endfacet
facet normal -0.000040 -0.000249 0.000285
  outer loop
    vertex -0.017192 0.500000 0.084698
    vertex -0.007000 0.472000 0.061689
    vertex -0.007000 0.500000 0.086141
  endloop
endfacet
facet normal -0.000000 0.000000 0.000000
  outer loop
    vertex -0.007000 0.500000 0.086141
    vertex -0.007000 0.472000 0.061689
    vertex -0.007000 0.478160 0.067076
  endloop
endfacet
facet normal -0.000000 0.000000 0.000000
  outer loop
    vertex -0.007000 0.500000 0.086141
    vertex -0.007000 0.478160 0.067076
    vertex -0.007000 0.484834 0.072906
  endloop
endfacet
facet normal -0.000009 -0.000052 0.000058
  outer loop
    vertex -0.012461 0.465000 0.054596
    vertex -0.004185 0.465000 0.055843
    vertex -0.007000 0.472000 0.061689
  endloop
endfacet
facet normal -0.000002 -0.000028 0.000033
  outer loop
    vertex -0.007000 0.472000 0.061689
    vertex -0.004185 0.465000 0.055843
    vertex -0.002338 0.472000 0.062041
  endloop
endfacet
facet normal 0.000000 -0.000052 0.000059
  outer loop
    vertex -0.002338 0.472000 0.062041
    vertex -0.004185 0.465000 0.055843
    vertex 0.004185 0.465000 0.055843
  endloop
endfacet
facet normal 0.000000 -0.000029 0.000033
  outer loop
    vertex -0.002338 0.472000 0.062041
    vertex 0.004185 0.465000 0.055843
    vertex 0.002338 0.472000 0.062041
  endloop
endfacet
facet normal 0.000002 -0.000028 0.000033
  outer loop
    vertex 0.002338 0.472000 0.062041
    vertex 0.004185 0.465000 0.055843
    vertex 0.007000 0.472000 0.061689
  endloop
endfacet
facet normal 0.000009 -0.000052 0.000058
  outer loop
    vertex 0.007000 0.472000 0.061689
    vertex 0.004185 0.465000 0.055843
    vertex 0.012461 0.465000 0.054596
  endloop
endfacet
facet normal 0.000038 -0.000198 0.000224
  outer loop
    vertex 0.007000 0.472000 0.061689
    vertex 0.012461 0.465000 0.054596
    vertex 0.017192 0.500000 0.084698
  endloop
endfacet
facet normal 0.000093 -0.000312 0.000348
  outer loop
    vertex 0.017192 0.500000 0.084698
    vertex 0.012461 0.465000 0.054596
    vertex 0.027140 0.500000 0.082053
  endloop
endfacet
facet normal 0.000086 -0.000256 0.000280
  outer loop
    vertex 0.027140 0.500000 0.082053
    vertex 0.012461 0.465000 0.054596
    vertex 0.020459 0.465000 0.052129
  endloop
endfacet
facet normal 0.000133 -0.000312 0.000335
  outer loop
    vertex 0.027140 0.500000 0.082053
    vertex 0.020459 0.465000 0.052129
    vertex 0.036703 0.500000 0.078244
  endloop
endfacet
facet normal 0.000127 -0.000256 0.000264
  outer loop
    vertex 0.036703 0.500000 0.078244
    vertex 0.020459 0.465000 0.052129
    vertex 0.028000 0.465000 0.048497
  endloop
endfacet
facet normal 0.000172 -0.000312 0.000316
  outer loop
    vertex 0.036703 0.500000 0.078244
    vertex 0.028000 0.465000 0.048497
    vertex 0.045746 0.500000 0.073325
  endloop
endfacet
facet normal 0.000165 -0.000255 0.000242
  outer loop
    vertex 0.045746 0.500000 0.073325
    vertex 0.028000 0.465000 0.048497
    vertex 0.034915 0.465000 0.043783
  endloop
endfacet
facet normal 0.000209 -0.000313 0.000294
  outer loop
    vertex 0.045746 0.500000 0.073325
    vertex 0.034915 0.465000 0.043783
    vertex 0.054140 0.500000 0.067366
  endloop
endfacet
facet normal 0.000242 -0.000313 0.000267
  outer loop
    vertex 0.054140 0.500000 0.067366
    vertex 0.034915 0.465000 0.043783
    vertex 0.061765 0.500000 0.060451
  endloop
endfacet
facet normal 0.000199 -0.000255 0.000215
  outer loop
    vertex 0.061765 0.500000 0.060451
    vertex 0.034915 0.465000 0.043783
    vertex 0.041051 0.465000 0.038090
  endloop
endfacet
facet normal 0.000272 -0.000312 0.000236
  outer loop
    vertex 0.061765 0.500000 0.060451
    vertex 0.041051 0.465000 0.038090
    vertex 0.068514 0.500000 0.052679
  endloop
endfacet
facet normal 0.000229 -0.000256 0.000183
  outer loop
    vertex 0.068514 0.500000 0.052679
    vertex 0.041051 0.465000 0.038090
    vertex 0.046269 0.465000 0.031546
  endloop
endfacet
facet normal 0.000298 -0.000312 0.000202
  outer loop
    vertex 0.068514 0.500000 0.052679
    vertex 0.046269 0.465000 0.031546
    vertex 0.074292 0.500000 0.044159
  endloop
endfacet
facet normal 0.000254 -0.000256 0.000146
  outer loop
    vertex 0.074292 0.500000 0.044159
    vertex 0.046269 0.465000 0.031546
    vertex 0.050454 0.465000 0.024297
  endloop
endfacet
facet normal 0.000320 -0.000312 0.000165
  outer loop
    vertex 0.074292 0.500000 0.044159
    vertex 0.050454 0.465000 0.024297
    vertex 0.079015 0.500000 0.035013
  endloop
endfacet
facet normal 0.000273 -0.000255 0.000107
  outer loop
    vertex 0.079015 0.500000 0.035013
    vertex 0.050454 0.465000 0.024297
    vertex 0.053512 0.465000 0.016506
  endloop
endfacet
facet normal 0.000000 -0.000000 0.000000
  outer loop
    vertex 0.007000 0.492088 0.079239
    vertex 0.007000 0.484834 0.072906
    vertex 0.007000 0.500000 0.086141
  endloop
endfacet
facet normal 0.000000 0.000000 0.000000
  outer loop
    vertex 0.007000 0.500000 0.086141
    vertex 0.007000 0.484834 0.072906
    vertex 0.007000 0.478160 0.067076
  endloop
endfacet
facet normal 0.000000 0.000000 0.000000
  outer loop
    vertex 0.007000 0.500000 0.086141
    vertex 0.007000 0.478160 0.067076
    vertex 0.007000 0.472000 0.061689
  endloop
endfacet
facet normal -0.000000 0.000000 0.000000
  outer loop
    vertex -0.007000 0.484834 0.072906
    vertex -0.007000 0.492088 0.079239
    vertex -0.007000 0.500000 0.086141
  endloop
endfacet
facet normal -0.000040 -0.000249 -0.000285
  outer loop
    vertex -0.017192 0.500000 -0.084698
    vertex -0.007000 0.500000 -0.086141
    vertex -0.007000 0.472000 -0.061689
  endloop
endfacet
facet normal -0.000000 0.000000 0.000000
  outer loop
    vertex -0.007000 0.472000 -0.061689
    vertex -0.007000 0.500000 -0.086141
    vertex -0.007000 0.478160 -0.067076
  endloop
endfacet
facet normal -0.000000 0.000000 0.000000
  outer loop
    vertex -0.007000 0.478160 -0.067076
    vertex -0.007000 0.500000 -0.086141
    vertex -0.007000 0.484834 -0.072906
  endloop
endfacet
facet normal -0.000000 0.000000 0.000000
  outer loop
    vertex -0.007000 0.484834 -0.072906
    vertex -0.007000 0.500000 -0.086141
    vertex -0.007000 0.492088 -0.079239
  endloop
endfacet
facet normal 0.000000 0.000000 0.000000
  outer loop
    vertex 0.007000 0.484834 -0.072906
    vertex 0.007000 0.492088 -0.079239
    vertex 0.007000 0.500000 -0.086141
  endloop
endfacet
facet normal 0.000040 -0.000249 0.000285
  outer loop
    vertex 0.017192 0.500000 0.084698
    vertex 0.007000 0.500000 0.086141
    vertex 0.007000 0.472000 0.061689
  endloop
endfacet
facet normal 0.000000 0.001756 0.000000
  outer loop
    vertex -0.007000 0.500000 0.086141
    vertex -0.007000 0.500000 -0.086141
    vertex -0.017192 0.500000 0.084698
  endloop
endfacet
facet normal 0.000000 0.001726 0.000000
  outer loop
    vertex -0.017192 0.500000 0.084698
    vertex -0.007000 0.500000 -0.086141
    vertex -0.017192 0.500000 -0.084698
  endloop
endfacet
facet normal 0.000000 0.001685 0.000000
  outer loop
    vertex -0.017192 0.500000 0.084698
    vertex -0.017192 0.500000 -0.084698
    vertex -0.027140 0.500000 0.082053
  endloop
endfacet
facet normal 0.000000 0.001633 0.000000
  outer loop
    vertex -0.027140 0.500000 0.082053
    vertex -0.017192 0.500000 -0.084698
    vertex -0.027140 0.500000 -0.082053
  endloop
endfacet
facet normal 0.000000 0.001569 0.000000
  outer loop
    vertex -0.027140 0.500000 0.082053
    vertex -0.027140 0.500000 -0.082053
    vertex -0.036703 0.500000 0.078244
  endloop
endfacet
facet normal 0.000000 0.001497 0.000000
  outer loop
    vertex -0.036703 0.500000 0.078244
    vertex -0.027140 0.500000 -0.082053
    vertex -0.036703 0.500000 -0.078244
  endloop
endfacet
facet normal 0.000000 0.001415 0.000000
  outer loop
    vertex -0.036703 0.500000 0.078244
    vertex -0.036703 0.500000 -0.078244
    vertex -0.045746 0.500000 0.073325
  endloop
endfacet
facet normal 0.000000 0.001326 0.000000
  outer loop
    vertex -0.045746 0.500000 0.073325
    vertex -0.036703 0.500000 -0.078244
    vertex -0.045746 0.500000 -0.073325
  endloop
endfacet
facet normal 0.000000 0.001231 0.000000
  outer loop
    vertex -0.045746 0.500000 0.073325
    vertex -0.045746 0.500000 -0.073325
    vertex -0.054140 0.500000 0.067366
  endloop
endfacet
facet normal 0.000000 0.001131 0.000000
  outer loop
    vertex -0.054140 0.500000 0.067366
    vertex -0.045746 0.500000 -0.073325
    vertex -0.054140 0.500000 -0.067366
  endloop
endfacet
facet normal 0.000000 0.001027 0.000000
  outer loop
    vertex -0.054140 0.500000 0.067366
    vertex -0.054140 0.500000 -0.067366
    vertex -0.061765 0.500000 0.060451
  endloop
endfacet
facet normal 0.000000 0.000922 0.000000
  outer loop
    vertex -0.061765 0.500000 0.060451
    vertex -0.054140 0.500000 -0.067366
    vertex -0.061765 0.500000 -0.060451
  endloop
endfacet
facet normal 0.000000 0.000816 0.000000
  outer loop
    vertex -0.061765 0.500000 0.060451
    vertex -0.061765 0.500000 -0.060451
    vertex -0.068514 0.500000 0.052679
  endloop
endfacet
facet normal 0.000000 0.000711 0.000000
  outer loop
    vertex -0.068514 0.500000 0.052679
    vertex -0.061765 0.500000 -0.060451
    vertex -0.068514 0.500000 -0.052679
  endloop
endfacet
facet normal 0.000000 0.000609 0.000000
  outer loop
    vertex -0.068514 0.500000 0.052679
    vertex -0.068514 0.500000 -0.052679
    vertex -0.074292 0.500000 0.044159
  endloop
endfacet
facet normal 0.000000 0.000510 0.000000
  outer loop
    vertex -0.074292 0.500000 0.044159
    vertex -0.068514 0.500000 -0.052679
    vertex -0.074292 0.500000 -0.044159
  endloop
endfacet
facet normal 0.000000 0.000417 0.000000
  outer loop
    vertex -0.074292 0.500000 0.044159
    vertex -0.074292 0.500000 -0.044159
    vertex -0.079015 0.500000 0.035013
  endloop
endfacet
facet normal 0.000000 0.000331 0.000000
  outer loop
    vertex -0.079015 0.500000 0.035013
    vertex -0.074292 0.500000 -0.044159
    vertex -0.079015 0.500000 -0.035013
  endloop
endfacet
facet normal 0.000000 0.000252 0.000000
  outer loop
    vertex -0.079015 0.500000 0.035013
    vertex -0.079015 0.500000 -0.035013
    vertex -0.082617 0.500000 0.025370
  endloop
endfacet
facet normal 0.000000 0.000183 0.000000
  outer loop
    vertex -0.082617 0.500000 0.025370
    vertex -0.079015 0.500000 -0.035013
    vertex -0.082617 0.500000 -0.025370
  endloop
endfacet
facet normal 0.000000 0.000123 0.000000
  outer loop
    vertex -0.082617 0.500000 0.025370
    vertex -0.082617 0.500000 -0.025370
    vertex -0.085048 0.500000 0.015368
  endloop
endfacet
facet normal 0.000000 0.000075 0.000000
  outer loop
    vertex -0.085048 0.500000 0.015368
    vertex -0.082617 0.500000 -0.025370
    vertex -0.085048 0.500000 -0.015368
  endloop
endfacet
facet normal 0.000000 0.000038 0.000000
  outer loop
    vertex -0.085048 0.500000 0.015368
    vertex -0.085048 0.500000 -0.015368
    vertex -0.086272 0.500000 0.005147
  endloop
endfacet
facet normal 0.000000 0.000013 0.000000
  outer loop
    vertex -0.086272 0.500000 0.005147
    vertex -0.085048 0.500000 -0.015368
    vertex -0.086272 0.500000 -0.005147
  endloop
endfacet
facet normal 0.000000 -0.000010 0.000000
  outer loop
    vertex 0.056000 0.000000 0.000000
    vertex 0.055375 0.000000 0.008346
    vertex 0.055375 0.000000 -0.008346
  endloop
endfacet
facet normal -0.000000 -0.000031 0.000000
  outer loop
    vertex 0.055375 0.000000 -0.008346
    vertex 0.055375 0.000000 0.008346
    vertex 0.053512 0.000000 -0.016506
  endloop
endfacet
facet normal 0.000000 -0.000061 0.000000
  outer loop
    vertex 0.053512 0.000000 -0.016506
    vertex 0.055375 0.000000 0.008346
    vertex 0.053512 0.000000 0.016506
  endloop
endfacet
facet normal -0.000000 -0.000101 0.000000
  outer loop
    vertex 0.053512 0.000000 -0.016506
    vertex 0.053512 0.000000 0.016506
    vertex 0.050454 0.000000 -0.024297
  endloop
endfacet
facet normal 0.000000 -0.000149 0.000000
  outer loop
    vertex 0.050454 0.000000 -0.024297
    vertex 0.053512 0.000000 0.016506
    vertex 0.050454 0.000000 0.024297
  endloop
endfacet
facet normal -0.000000 -0.000203 0.000000
  outer loop
    vertex 0.050454 0.000000 -0.024297
    vertex 0.050454 0.000000 0.024297
    vertex 0.046269 0.000000 -0.031546
  endloop
endfacet
facet normal 0.000000 -0.000264 0.000000
  outer loop
    vertex 0.046269 0.000000 -0.031546
    vertex 0.050454 0.000000 0.024297
    vertex 0.046269 0.000000 0.031546
  endloop
endfacet
facet normal -0.000000 -0.000329 0.000000
  outer loop
    vertex 0.046269 0.000000 -0.031546
    vertex 0.046269 0.000000 0.031546
    vertex 0.041051 0.000000 -0.038090
  endloop
endfacet
facet normal 0.000000 -0.000398 0.000000
  outer loop
    vertex 0.041051 0.000000 -0.038090
    vertex 0.046269 0.000000 0.031546
    vertex 0.041051 0.000000 0.038090
  endloop
endfacet
facet normal -0.000000 -0.000467 0.000000
  outer loop
    vertex 0.041051 0.000000 -0.038090
    vertex 0.041051 0.000000 0.038090
    vertex 0.034915 0.000000 -0.043783
  endloop
endfacet
facet normal 0.000000 -0.000537 0.000000
  outer loop
    vertex 0.034915 0.000000 -0.043783
    vertex 0.041051 0.000000 0.038090
    vertex 0.034915 0.000000 0.043783
  endloop
endfacet
facet normal -0.000000 -0.000606 0.000000
  outer loop
    vertex 0.034915 0.000000 -0.043783
    vertex 0.034915 0.000000 0.043783
    vertex 0.028000 0.000000 -0.048497
  endloop
endfacet
facet normal 0.000000 -0.000671 0.000000
  outer loop
    vertex 0.028000 0.000000 -0.048497
    vertex 0.034915 0.000000 0.043783
    vertex 0.028000 0.000000 0.048497
  endloop
endfacet
facet normal -0.000000 -0.000731 0.000000
  outer loop
    vertex 0.028000 0.000000 -0.048497
    vertex 0.028000 0.000000 0.048497
    vertex 0.020459 0.000000 -0.052129
  endloop
endfacet
facet normal 0.000000 -0.000786 0.000000
  outer loop
    vertex 0.020459 0.000000 -0.052129
    vertex 0.028000 0.000000 0.048497
    vertex 0.020459 0.000000 0.052129
  endloop
endfacet
facet normal -0.000000 -0.000834 0.000000
  outer loop
    vertex 0.020459 0.000000 -0.052129
    vertex 0.020459 0.000000 0.052129
    vertex 0.012461 0.000000 -0.054596
  endloop
endfacet
facet normal 0.000000 -0.000873 0.000000
  outer loop
    vertex 0.012461 0.000000 -0.054596
    vertex 0.020459 0.000000 0.052129
    vertex 0.012461 0.000000 0.054596
  endloop
endfacet
facet normal -0.000000 -0.000904 0.000000
  outer loop
    vertex 0.012461 0.000000 -0.054596
    vertex 0.012461 0.000000 0.054596
    vertex 0.004185 0.000000 -0.055843
  endloop
endfacet
facet normal 0.000000 -0.000924 0.000000
  outer loop
    vertex 0.004185 0.000000 -0.055843
    vertex 0.012461 0.000000 0.054596
    vertex 0.004185 0.000000 0.055843
  endloop
endfacet
facet normal 0.000000 -0.000935 0.000000
  outer loop
    vertex 0.004185 0.000000 -0.055843
    vertex 0.004185 0.000000 0.055843
    vertex -0.004185 0.000000 -0.055843
  endloop
endfacet
facet normal 0.000000 -0.000935 0.000000
  outer loop
    vertex -0.004185 0.000000 -0.055843
    vertex 0.004185 0.000000 0.055843
    vertex -0.004185 0.000000 0.055843
  endloop
endfacet
facet normal 0.000000 -0.000924 0.000000
  outer loop
    vertex -0.004185 0.000000 -0.055843
    vertex -0.004185 0.000000 0.055843
    vertex -0.012461 0.000000 -0.054596
  endloop
endfacet
facet normal 0.000000 -0.000904 0.000000
  outer loop
    vertex -0.012461 0.000000 -0.054596
    vertex -0.004185 0.000000 0.055843
    vertex -0.012461 0.000000 0.054596
  endloop
endfacet
facet normal 0.000000 -0.000873 0.000000
  outer loop
    vertex -0.012461 0.000000 -0.054596
    vertex -0.012461 0.000000 0.054596
    vertex -0.020459 0.000000 -0.052129
  endloop
endfacet
facet normal 0.000000 -0.000834 0.000000
  outer loop
    vertex -0.020459 0.000000 -0.052129
    vertex -0.012461 0.000000 0.054596
    vertex -0.020459 0.000000 0.052129
  endloop
endfacet
facet normal 0.000000 -0.000786 0.000000
  outer loop
    vertex -0.020459 0.000000 -0.052129
    vertex -0.020459 0.000000 0.052129
    vertex -0.028000 0.000000 -0.048497
  endloop
endfacet
facet normal 0.000000 -0.000731 0.000000
  outer loop
    vertex -0.028000 0.000000 -0.048497
    vertex -0.020459 0.000000 0.052129
    vertex -0.028000 0.000000 0.048497
  endloop
endfacet
facet normal 0.000000 -0.000671 0.000000
  outer loop
    vertex -0.028000 0.000000 -0.048497
    vertex -0.028000 0.000000 0.048497
    vertex -0.034915 0.000000 -0.043783
  endloop
endfacet
facet normal 0.000000 -0.000606 0.000000
  outer loop
    vertex -0.034915 0.000000 -0.043783
    vertex -0.028000 0.000000 0.048497
    vertex -0.034915 0.000000 0.043783
  endloop
endfacet
facet normal 0.000000 -0.000537 0.000000
  outer loop
    vertex -0.034915 0.000000 -0.043783
    vertex -0.034915 0.000000 0.043783
    vertex -0.041051 0.000000 -0.038090
  endloop
endfacet
facet normal 0.000000 -0.000467 0.000000
  outer loop
    vertex -0.041051 0.000000 -0.038090
    vertex -0.034915 0.000000 0.043783
    vertex -0.041051 0.000000 0.038090
  endloop
endfacet
facet normal 0.000000 -0.000398 0.000000
  outer loop
    vertex -0.041051 0.000000 -0.038090
    vertex -0.041051 0.000000 0.038090
    vertex -0.046269 0.000000 -0.031546
  endloop
endfacet
facet normal 0.000000 -0.000329 0.000000
  outer loop
    vertex -0.046269 0.000000 -0.031546
    vertex -0.041051 0.000000 0.038090
    vertex -0.046269 0.000000 0.031546
  endloop
endfacet
facet normal 0.000000 -0.000264 0.000000
  outer loop
    vertex -0.046269 0.000000 -0.031546
    vertex -0.046269 0.000000 0.031546
    vertex -0.050454 0.000000 -0.024297
  endloop
endfacet
facet normal 0.000000 -0.000203 0.000000
  outer loop
    vertex -0.050454 0.000000 -0.024297
    vertex -0.046269 0.000000 0.031546
    vertex -0.050454 0.000000 0.024297
  endloop
endfacet
facet normal 0.000000 -0.000149 0.000000
  outer loop
    vertex -0.050454 0.000000 -0.024297
    vertex -0.050454 0.000000 0.024297
    vertex -0.053512 0.000000 -0.016506
  endloop
endfacet
facet normal 0.000000 -0.000101 0.000000
  outer loop
    vertex -0.053512 0.000000 -0.016506
    vertex -0.050454 0.000000 0.024297
    vertex -0.053512 0.000000 0.016506
  endloop
endfacet
facet normal 0.000000 -0.000061 0.000000
  outer loop
    vertex -0.053512 0.000000 -0.016506
    vertex -0.053512 0.000000 0.016506
    vertex -0.055375 0.000000 -0.008346
  endloop
endfacet
facet normal 0.000000 -0.000031 0.000000
  outer loop
    vertex -0.055375 0.000000 -0.008346
    vertex -0.053512 0.000000 0.016506
    vertex -0.055375 0.000000 0.008346
  endloop
endfacet
facet normal 0.000000 -0.000010 0.000000
  outer loop
    vertex -0.055375 0.000000 -0.008346
    vertex -0.055375 0.000000 0.008346
    vertex -0.056000 0.000000 0.000000
  endloop
endfacet
facet normal 0.000000 0.001756 0.000000
  outer loop
    vertex 0.007000 0.500000 -0.086141
    vertex 0.007000 0.500000 0.086141
    vertex 0.017192 0.500000 -0.084698
  endloop
endfacet
facet normal 0.000000 0.001726 -0.000000
  outer loop
    vertex 0.017192 0.500000 -0.084698
    vertex 0.007000 0.500000 0.086141
    vertex 0.017192 0.500000 0.084698
  endloop
endfacet
facet normal 0.000000 0.001685 0.000000
  outer loop
    vertex 0.017192 0.500000 -0.084698
    vertex 0.017192 0.500000 0.084698
    vertex 0.027140 0.500000 -0.082053
  endloop
endfacet
facet normal 0.000000 0.001633 -0.000000
  outer loop
    vertex 0.027140 0.500000 -0.082053
    vertex 0.017192 0.500000 0.084698
    vertex 0.027140 0.500000 0.082053
  endloop
endfacet
facet normal 0.000000 0.001569 0.000000
  outer loop
    vertex 0.027140 0.500000 -0.082053
    vertex 0.027140 0.500000 0.082053
    vertex 0.036703 0.500000 -0.078244
  endloop
endfacet
facet normal 0.000000 0.001497 -0.000000
  outer loop
    vertex 0.036703 0.500000 -0.078244
    vertex 0.027140 0.500000 0.082053
    vertex 0.036703 0.500000 0.078244
  endloop
endfacet
facet normal 0.000000 0.001415 0.000000
  outer loop
    vertex 0.036703 0.500000 -0.078244
    vertex 0.036703 0.500000 0.078244
    vertex 0.045746 0.500000 -0.073325
  endloop
endfacet
facet normal 0.000000 0.001326 -0.000000
  outer loop
    vertex 0.045746 0.500000 -0.073325
    vertex 0.036703 0.500000 0.078244
    vertex 0.045746 0.500000 0.073325
  endloop
endfacet
facet normal 0.000000 0.001231 0.000000
  outer loop
    vertex 0.045746 0.500000 -0.073325
    vertex 0.045746 0.500000 0.073325
    vertex 0.054140 0.500000 -0.067366
  endloop
endfacet
facet normal 0.000000 0.001131 -0.000000
  outer loop
    vertex 0.054140 0.500000 -0.067366
    vertex 0.045746 0.500000 0.073325
    vertex 0.054140 0.500000 0.067366
  endloop
endfacet
facet normal 0.000000 0.001027 0.000000
  outer loop
    vertex 0.054140 0.500000 -0.067366
    vertex 0.054140 0.500000 0.067366
    vertex 0.061765 0.500000 -0.060451
  endloop
endfacet
facet normal 0.000000 0.000922 -0.000000
  outer loop
    vertex 0.061765 0.500000 -0.060451
    vertex 0.054140 0.500000 0.067366
    vertex 0.061765 0.500000 0.060451
  endloop
endfacet
facet normal 0.000000 0.000816 0.000000
  outer loop
    vertex 0.061765 0.500000 -0.060451
    vertex 0.061765 0.500000 0.060451
    vertex 0.068514 0.500000 -0.052679
  endloop
endfacet
facet normal 0.000000 0.000711 -0.000000
  outer loop
    vertex 0.068514 0.500000 -0.052679
    vertex 0.061765 0.500000 0.060451
    vertex 0.068514 0.500000 0.052679
  endloop
endfacet
facet normal 0.000000 0.000609 0.000000
  outer loop
    vertex 0.068514 0.500000 -0.052679
    vertex 0.068514 0.500000 0.052679
    vertex 0.074292 0.500000 -0.044159
  endloop
endfacet
facet normal 0.000000 0.000510 -0.000000
  outer loop
    vertex 0.074292 0.500000 -0.044159
    vertex 0.068514 0.500000 0.052679
    vertex 0.074292 0.500000 0.044159
  endloop
endfacet
facet normal 0.000000 0.000417 0.000000
  outer loop
    vertex 0.074292 0.500000 -0.044159
    vertex 0.074292 0.500000 0.044159
    vertex 0.079015 0.500000 -0.035013
  endloop
endfacet
facet normal 0.000000 0.000331 -0.000000
  outer loop
    vertex 0.079015 0.500000 -0.035013
    vertex 0.074292 0.500000 0.044159
    vertex 0.079015 0.500000 0.035013
  endloop
endfacet
facet normal 0.000000 0.000252 0.000000
  outer loop
    vertex 0.079015 0.500000 -0.035013
    vertex 0.079015 0.500000 0.035013
    vertex 0.082617 0.500000 -0.025370
  endloop
endfacet
facet normal 0.000000 0.000183 -0.000000
  outer loop
    vertex 0.082617 0.500000 -0.025370
    vertex 0.079015 0.500000 0.035013
    vertex 0.082617 0.500000 0.025370
  endloop
endfacet
facet normal 0.000000 0.000123 0.000000
  outer loop
    vertex 0.082617 0.500000 -0.025370
    vertex 0.082617 0.500000 0.025370
    vertex 0.085048 0.500000 -0.015368
  endloop
endfacet
facet normal 0.000000 0.000075 -0.000000
  outer loop
    vertex 0.085048 0.500000 -0.015368
    vertex 0.082617 0.500000 0.025370
    vertex 0.085048 0.500000 0.015368
  endloop
endfacet
facet normal 0.000000 0.000038 0.000000
  outer loop
    vertex 0.085048 0.500000 -0.015368
    vertex 0.085048 0.500000 0.015368
    vertex 0.086272 0.500000 -0.005147
  endloop
endfacet
facet normal 0.000000 0.000013 -0.000000
  outer loop
    vertex 0.086272 0.500000 -0.005147
    vertex 0.085048 0.500000 0.015368
    vertex 0.086272 0.500000 0.005147
  endloop
endfacet
facet normal 0.001294 0.000000 0.000097
  outer loop
    vertex 0.055375 0.465000 0.008346
    vertex 0.055375 0.310000 0.008346
    vertex 0.056000 0.465000 0.000000
  endloop
endfacet
facet normal 0.001294 0.000000 0.000097
  outer loop
    vertex 0.056000 0.465000 0.000000
    vertex 0.055375 0.310000 0.008346
    vertex 0.056000 0.310000 0.000000
  endloop
endfacet
facet normal 0.001294 0.000000 -0.000097
  outer loop
    vertex 0.056000 0.465000 0.000000
    vertex 0.056000 0.310000 0.000000
    vertex 0.055375 0.465000 -0.008346
  endloop
endfacet
facet normal 0.001294 0.000000 -0.000097
  outer loop
    vertex 0.055375 0.465000 -0.008346
    vertex 0.056000 0.310000 0.000000
    vertex 0.055375 0.310000 -0.008346
  endloop
endfacet
facet normal 0.001265 0.000000 -0.000289
  outer loop
    vertex 0.055375 0.465000 -0.008346
    vertex 0.055375 0.310000 -0.008346
    vertex 0.053512 0.465000 -0.016506
  endloop
endfacet
facet normal 0.001265 0.000000 -0.000289
  outer loop
    vertex 0.053512 0.465000 -0.016506
    vertex 0.055375 0.310000 -0.008346
    vertex 0.053512 0.310000 -0.016506
  endloop
endfacet
facet normal 0.001208 0.000000 -0.000474
  outer loop
    vertex 0.053512 0.465000 -0.016506
    vertex 0.053512 0.310000 -0.016506
    vertex 0.050454 0.465000 -0.024297
  endloop
endfacet
facet normal 0.001208 0.000000 -0.000474
  outer loop
    vertex 0.050454 0.465000 -0.024297
    vertex 0.053512 0.310000 -0.016506
    vertex 0.050454 0.310000 -0.024297
  endloop
endfacet
facet normal 0.001124 0.000000 -0.000649
  outer loop
    vertex 0.050454 0.465000 -0.024297
    vertex 0.050454 0.310000 -0.024297
    vertex 0.046269 0.465000 -0.031546
  endloop
endfacet
facet normal 0.001124 0.000000 -0.000649
  outer loop
    vertex 0.046269 0.465000 -0.031546
    vertex 0.050454 0.310000 -0.024297
    vertex 0.046269 0.310000 -0.031546
  endloop
endfacet
facet normal 0.001014 0.000000 -0.000809
  outer loop
    vertex 0.046269 0.465000 -0.031546
    vertex 0.046269 0.310000 -0.031546
    vertex 0.041051 0.465000 -0.038090
  endloop
endfacet
facet normal 0.001014 0.000000 -0.000809
  outer loop
    vertex 0.041051 0.465000 -0.038090
    vertex 0.046269 0.310000 -0.031546
    vertex 0.041051 0.310000 -0.038090
  endloop
endfacet
facet normal 0.000882 0.000000 -0.000951
  outer loop
    vertex 0.041051 0.465000 -0.038090
    vertex 0.041051 0.310000 -0.038090
    vertex 0.034915 0.465000 -0.043783
  endloop
endfacet
facet normal 0.000882 0.000000 -0.000951
  outer loop
    vertex 0.034915 0.465000 -0.043783
    vertex 0.041051 0.310000 -0.038090
    vertex 0.034915 0.310000 -0.043783
  endloop
endfacet
facet normal 0.000731 0.000000 -0.001072
  outer loop
    vertex 0.034915 0.465000 -0.043783
    vertex 0.034915 0.310000 -0.043783
    vertex 0.028000 0.465000 -0.048497
  endloop
endfacet
facet normal 0.000731 0.000000 -0.001072
  outer loop
    vertex 0.028000 0.465000 -0.048497
    vertex 0.034915 0.310000 -0.043783
    vertex 0.028000 0.310000 -0.048497
  endloop
endfacet
facet normal 0.000563 0.000000 -0.001169
  outer loop
    vertex 0.028000 0.465000 -0.048497
    vertex 0.028000 0.310000 -0.048497
    vertex 0.020459 0.465000 -0.052129
  endloop
endfacet
facet normal 0.000563 0.000000 -0.001169
  outer loop
    vertex 0.020459 0.465000 -0.052129
    vertex 0.028000 0.310000 -0.048497
    vertex 0.020459 0.310000 -0.052129
  endloop
endfacet
facet normal 0.000382 0.000000 -0.001240
  outer loop
    vertex 0.020459 0.465000 -0.052129
    vertex 0.020459 0.310000 -0.052129
    vertex 0.012461 0.465000 -0.054596
  endloop
endfacet
facet normal 0.000382 0.000000 -0.001240
  outer loop
    vertex 0.012461 0.465000 -0.054596
    vertex 0.020459 0.310000 -0.052129
    vertex 0.012461 0.310000 -0.054596
  endloop
endfacet
facet normal 0.000193 0.000000 -0.001283
  outer loop
    vertex 0.012461 0.465000 -0.054596
    vertex 0.012461 0.310000 -0.054596
    vertex 0.004185 0.465000 -0.055843
  endloop
endfacet
facet normal 0.000193 0.000000 -0.001283
  outer loop
    vertex 0.004185 0.465000 -0.055843
    vertex 0.012461 0.310000 -0.054596
    vertex 0.004185 0.310000 -0.055843
  endloop
endfacet
facet normal -0.000000 -0.000000 -0.001297
  outer loop
    vertex 0.004185 0.465000 -0.055843
    vertex 0.004185 0.310000 -0.055843
    vertex -0.004185 0.465000 -0.055843
  endloop
endfacet
facet normal 0.000000 0.000000 -0.001297
  outer loop
    vertex -0.004185 0.465000 -0.055843
    vertex 0.004185 0.310000 -0.055843
    vertex -0.004185 0.310000 -0.055843
  endloop
endfacet
facet normal -0.000193 -0.000000 -0.001283
  outer loop
    vertex -0.004185 0.465000 -0.055843
    vertex -0.004185 0.310000 -0.055843
    vertex -0.012461 0.465000 -0.054596
  endloop
endfacet
facet normal -0.000193 -0.000000 -0.001283
  outer loop
    vertex -0.012461 0.465000 -0.054596
    vertex -0.004185 0.310000 -0.055843
    vertex -0.012461 0.310000 -0.054596
  endloop
endfacet
facet normal -0.000382 -0.000000 -0.001240
  outer loop
    vertex -0.012461 0.465000 -0.054596
    vertex -0.012461 0.310000 -0.054596
    vertex -0.020459 0.465000 -0.052129
  endloop
endfacet
facet normal -0.000382 -0.000000 -0.001240
  outer loop
    vertex -0.020459 0.465000 -0.052129
    vertex -0.012461 0.310000 -0.054596
    vertex -0.020459 0.310000 -0.052129
  endloop
endfacet
facet normal -0.000563 -0.000000 -0.001169
  outer loop
    vertex -0.020459 0.465000 -0.052129
    vertex -0.020459 0.310000 -0.052129
    vertex -0.028000 0.465000 -0.048497
  endloop
endfacet
facet normal -0.000563 -0.000000 -0.001169
  outer loop
    vertex -0.028000 0.465000 -0.048497
    vertex -0.020459 0.310000 -0.052129
    vertex -0.028000 0.310000 -0.048497
  endloop
endfacet
facet normal -0.000731 -0.000000 -0.001072
  outer loop
    vertex -0.028000 0.465000 -0.048497
    vertex -0.028000 0.310000 -0.048497
    vertex -0.034915 0.465000 -0.043783
  endloop
endfacet
facet normal -0.000731 -0.000000 -0.001072
  outer loop
    vertex -0.034915 0.465000 -0.043783
    vertex -0.028000 0.310000 -0.048497
    vertex -0.034915 0.310000 -0.043783
  endloop
endfacet
facet normal -0.000882 -0.000000 -0.000951
  outer loop
    vertex -0.034915 0.465000 -0.043783
    vertex -0.034915 0.310000 -0.043783
    vertex -0.041051 0.465000 -0.038090
  endloop
endfacet
facet normal -0.000882 -0.000000 -0.000951
  outer loop
    vertex -0.041051 0.465000 -0.038090
    vertex -0.034915 0.310000 -0.043783
    vertex -0.041051 0.310000 -0.038090
  endloop
endfacet
facet normal -0.001014 -0.000000 -0.000809
  outer loop
    vertex -0.041051 0.465000 -0.038090
    vertex -0.041051 0.310000 -0.038090
    vertex -0.046269 0.465000 -0.031546
  endloop
endfacet
facet normal -0.001014 -0.000000 -0.000809
  outer loop
    vertex -0.046269 0.465000 -0.031546
    vertex -0.041051 0.310000 -0.038090
    vertex -0.046269 0.310000 -0.031546
  endloop
endfacet
facet normal -0.001124 -0.000000 -0.000649
  outer loop
    vertex -0.046269 0.465000 -0.031546
    vertex -0.046269 0.310000 -0.031546
    vertex -0.050454 0.465000 -0.024297
  endloop
endfacet
facet normal -0.001124 -0.000000 -0.000649
  outer loop
    vertex -0.050454 0.465000 -0.024297
    vertex -0.046269 0.310000 -0.031546
    vertex -0.050454 0.310000 -0.024297
  endloop
endfacet
facet normal -0.001208 -0.000000 -0.000474
  outer loop
    vertex -0.050454 0.465000 -0.024297
    vertex -0.050454 0.310000 -0.024297
    vertex -0.053512 0.465000 -0.016506
  endloop
endfacet
facet normal -0.001208 -0.000000 -0.000474
  outer loop
    vertex -0.053512 0.465000 -0.016506
    vertex -0.050454 0.310000 -0.024297
    vertex -0.053512 0.310000 -0.016506
  endloop
endfacet
facet normal -0.001265 -0.000000 -0.000289
  outer loop
    vertex -0.053512 0.465000 -0.016506
    vertex -0.053512 0.310000 -0.016506
    vertex -0.055375 0.465000 -0.008346
  endloop
endfacet
facet normal -0.001265 -0.000000 -0.000289
  outer loop
    vertex -0.055375 0.465000 -0.008346
    vertex -0.053512 0.310000 -0.016506
    vertex -0.055375 0.310000 -0.008346
  endloop
endfacet
facet normal -0.001294 -0.000000 -0.000097
  outer loop
    vertex -0.055375 0.465000 -0.008346
    vertex -0.055375 0.310000 -0.008346
    vertex -0.056000 0.465000 0.000000
  endloop
endfacet
facet normal -0.001294 -0.000000 -0.000097
  outer loop
    vertex -0.056000 0.465000 0.000000
    vertex -0.055375 0.310000 -0.008346
    vertex -0.056000 0.310000 0.000000
  endloop
endfacet
facet normal -0.001294 0.000000 0.000097
  outer loop
    vertex -0.056000 0.465000 0.000000
    vertex -0.056000 0.310000 0.000000
    vertex -0.055375 0.465000 0.008346
  endloop
endfacet
facet normal -0.001294 0.000000 0.000097
  outer loop
    vertex -0.055375 0.465000 0.008346
    vertex -0.056000 0.310000 0.000000
    vertex -0.055375 0.310000 0.008346
  endloop
endfacet
facet normal -0.001265 0.000000 0.000289
  outer loop
    vertex -0.055375 0.465000 0.008346
    vertex -0.055375 0.310000 0.008346
    vertex -0.053512 0.465000 0.016506
  endloop
endfacet
facet normal -0.001265 0.000000 0.000289
  outer loop
    vertex -0.053512 0.465000 0.016506
    vertex -0.055375 0.310000 0.008346
    vertex -0.053512 0.310000 0.016506
  endloop
endfacet
facet normal -0.001208 0.000000 0.000474
  outer loop
    vertex -0.053512 0.465000 0.016506
    vertex -0.053512 0.310000 0.016506
    vertex -0.050454 0.465000 0.024297
  endloop
endfacet
facet normal -0.001208 0.000000 0.000474
  outer loop
    vertex -0.050454 0.465000 0.024297
    vertex -0.053512 0.310000 0.016506
    vertex -0.050454 0.310000 0.024297
  endloop
endfacet
facet normal -0.001124 0.000000 0.000649
  outer loop
    vertex -0.050454 0.465000 0.024297
    vertex -0.050454 0.310000 0.024297
    vertex -0.046269 0.465000 0.031546
  endloop
endfacet
facet normal -0.001124 0.000000 0.000649
  outer loop
    vertex -0.046269 0.465000 0.031546
    vertex -0.050454 0.310000 0.024297
    vertex -0.046269 0.310000 0.031546
  endloop
endfacet
facet normal -0.001014 0.000000 0.000809
  outer loop
    vertex -0.046269 0.465000 0.031546
    vertex -0.046269 0.310000 0.031546
    vertex -0.041051 0.465000 0.038090
  endloop
endfacet
facet normal -0.001014 0.000000 0.000809
  outer loop
    vertex -0.041051 0.465000 0.038090
    vertex -0.046269 0.310000 0.031546
    vertex -0.041051 0.310000 0.038090
  endloop
endfacet
facet normal -0.000882 0.000000 0.000951
  outer loop
    vertex -0.041051 0.465000 0.038090
    vertex -0.041051 0.310000 0.038090
    vertex -0.034915 0.465000 0.043783
  endloop
endfacet
facet normal -0.000882 0.000000 0.000951
  outer loop
    vertex -0.034915 0.465000 0.043783
    vertex -0.041051 0.310000 0.038090
    vertex -0.034915 0.310000 0.043783
  endloop
endfacet
facet normal -0.000731 0.000000 0.001072
  outer loop
    vertex -0.034915 0.465000 0.043783
    vertex -0.034915 0.310000 0.043783
    vertex -0.028000 0.465000 0.048497
  endloop
endfacet
facet normal -0.000731 0.000000 0.001072
  outer loop
    vertex -0.028000 0.465000 0.048497
    vertex -0.034915 0.310000 0.043783
    vertex -0.028000 0.310000 0.048497
  endloop
endfacet
facet normal -0.000563 0.000000 0.001169
  outer loop
    vertex -0.028000 0.465000 0.048497
    vertex -0.028000 0.310000 0.048497
    vertex -0.020459 0.465000 0.052129
  endloop
endfacet
facet normal -0.000563 0.000000 0.001169
  outer loop
    vertex -0.020459 0.465000 0.052129
    vertex -0.028000 0.310000 0.048497
    vertex -0.020459 0.310000 0.052129
  endloop
endfacet
facet normal -0.000382 0.000000 0.001240
  outer loop
    vertex -0.020459 0.465000 0.052129
    vertex -0.020459 0.310000 0.052129
    vertex -0.012461 0.465000 0.054596
  endloop
endfacet
facet normal -0.000382 0.000000 0.001240
  outer loop
    vertex -0.012461 0.465000 0.054596
    vertex -0.020459 0.310000 0.052129
    vertex -0.012461 0.310000 0.054596
  endloop
endfacet
facet normal -0.000193 0.000000 0.001283
  outer loop
    vertex -0.012461 0.465000 0.054596
    vertex -0.012461 0.310000 0.054596
    vertex -0.004185 0.465000 0.055843
  endloop
endfacet
facet normal -0.000193 0.000000 0.001283
  outer loop
    vertex -0.004185 0.465000 0.055843
    vertex -0.012461 0.310000 0.054596
    vertex -0.004185 0.310000 0.055843
  endloop
endfacet
facet normal -0.000000 0.000000 0.001297
  outer loop
    vertex -0.004185 0.465000 0.055843
    vertex -0.004185 0.310000 0.055843
    vertex 0.004185 0.465000 0.055843
  endloop
endfacet
facet normal 0.000000 0.000000 0.001297
  outer loop
    vertex 0.004185 0.465000 0.055843
    vertex -0.004185 0.310000 0.055843
    vertex 0.004185 0.310000 0.055843
  endloop
endfacet
facet normal 0.000193 0.000000 0.001283
  outer loop
    vertex 0.004185 0.465000 0.055843
    vertex 0.004185 0.310000 0.055843
    vertex 0.012461 0.465000 0.054596
  endloop
endfacet
facet normal 0.000193 0.000000 0.001283
  outer loop
    vertex 0.012461 0.465000 0.054596
    vertex 0.004185 0.310000 0.055843
    vertex 0.012461 0.310000 0.054596
  endloop
endfacet
facet normal 0.000382 0.000000 0.001240
  outer loop
    vertex 0.012461 0.465000 0.054596
    vertex 0.012461 0.310000 0.054596
    vertex 0.020459 0.465000 0.052129
  endloop
endfacet
facet normal 0.000382 0.000000 0.001240
  outer loop
    vertex 0.020459 0.465000 0.052129
    vertex 0.012461 0.310000 0.054596
    vertex 0.020459 0.310000 0.052129
  endloop
endfacet
facet normal 0.000563 0.000000 0.001169
  outer loop
    vertex 0.020459 0.465000 0.052129
    vertex 0.020459 0.310000 0.052129
    vertex 0.028000 0.465000 0.048497
  endloop
endfacet
facet normal 0.000563 0.000000 0.001169
  outer loop
    vertex 0.028000 0.465000 0.048497
    vertex 0.020459 0.310000 0.052129
    vertex 0.028000 0.310000 0.048497
  endloop
endfacet
facet normal 0.000731 0.000000 0.001072
  outer loop
    vertex 0.028000 0.465000 0.048497
    vertex 0.028000 0.310000 0.048497
    vertex 0.034915 0.465000 0.043783
  endloop
endfacet
facet normal 0.000731 0.000000 0.001072
  outer loop
    vertex 0.034915 0.465000 0.043783
    vertex 0.028000 0.310000 0.048497
    vertex 0.034915 0.310000 0.043783
  endloop
endfacet
facet normal 0.000882 0.000000 0.000951
  outer loop
    vertex 0.034915 0.465000 0.043783
    vertex 0.034915 0.310000 0.043783
    vertex 0.041051 0.465000 0.038090
  endloop
endfacet
facet normal 0.000882 0.000000 0.000951
  outer loop
    vertex 0.041051 0.465000 0.038090
    vertex 0.034915 0.310000 0.043783
    vertex 0.041051 0.310000 0.038090
  endloop
endfacet
facet normal 0.001014 0.000000 0.000809
  outer loop
    vertex 0.041051 0.465000 0.038090
    vertex 0.041051 0.310000 0.038090
    vertex 0.046269 0.465000 0.031546
  endloop
endfacet
facet normal 0.001014 0.000000 0.000809
  outer loop
    vertex 0.046269 0.465000 0.031546
    vertex 0.041051 0.310000 0.038090
    vertex 0.046269 0.310000 0.031546
  endloop
endfacet
facet normal 0.001124 0.000000 0.000649
  outer loop
    vertex 0.046269 0.465000 0.031546
    vertex 0.046269 0.310000 0.031546
    vertex 0.050454 0.465000 0.024297
  endloop
endfacet
facet normal 0.001124 0.000000 0.000649
  outer loop
    vertex 0.050454 0.465000 0.024297
    vertex 0.046269 0.310000 0.031546
    vertex 0.050454 0.310000 0.024297
  endloop
endfacet
facet normal 0.001208 0.000000 0.000474
  outer loop
    vertex 0.050454 0.465000 0.024297
    vertex 0.050454 0.310000 0.024297
    vertex 0.053512 0.465000 0.016506
  endloop
endfacet
facet normal 0.001208 0.000000 0.000474
  outer loop
    vertex 0.053512 0.465000 0.016506
    vertex 0.050454 0.310000 0.024297
    vertex 0.053512 0.310000 0.016506
  endloop
endfacet
facet normal 0.001265 0.000000 0.000289
  outer loop
    vertex 0.053512 0.465000 0.016506
    vertex 0.053512 0.310000 0.016506
    vertex 0.055375 0.465000 0.008346
  endloop
endfacet
facet normal 0.001265 0.000000 0.000289
  outer loop
    vertex 0.055375 0.465000 0.008346
    vertex 0.053512 0.310000 0.016506
    vertex 0.055375 0.310000 0.008346
  endloop
endfacet
facet normal 0.001294 0.000000 -0.000097
  outer loop
    vertex 0.055375 0.000000 -0.008346
    vertex 0.055375 0.155000 -0.008346
    vertex 0.056000 0.000000 0.000000
  endloop
endfacet
facet normal 0.001294 0.000000 -0.000097
  outer loop
    vertex 0.056000 0.000000 0.000000
    vertex 0.055375 0.155000 -0.008346
    vertex 0.056000 0.155000 0.000000
  endloop
endfacet
facet normal 0.001294 -0.000000 0.000097
  outer loop
    vertex 0.056000 0.000000 0.000000
    vertex 0.056000 0.155000 0.000000
    vertex 0.055375 0.000000 0.008346
  endloop
endfacet
facet normal 0.001294 -0.000000 0.000097
  outer loop
    vertex 0.055375 0.000000 0.008346
    vertex 0.056000 0.155000 0.000000
    vertex 0.055375 0.155000 0.008346
  endloop
endfacet
facet normal 0.001265 -0.000000 0.000289
  outer loop
    vertex 0.055375 0.000000 0.008346
    vertex 0.055375 0.155000 0.008346
    vertex 0.053512 0.000000 0.016506
  endloop
endfacet
facet normal 0.001265 -0.000000 0.000289
  outer loop
    vertex 0.053512 0.000000 0.016506
    vertex 0.055375 0.155000 0.008346
    vertex 0.053512 0.155000 0.016506
  endloop
endfacet
facet normal 0.001208 -0.000000 0.000474
  outer loop
    vertex 0.053512 0.000000 0.016506
    vertex 0.053512 0.155000 0.016506
    vertex 0.050454 0.000000 0.024297
  endloop
endfacet
facet normal 0.001208 -0.000000 0.000474
  outer loop
    vertex 0.050454 0.000000 0.024297
    vertex 0.053512 0.155000 0.016506
    vertex 0.050454 0.155000 0.024297
  endloop
endfacet
facet normal 0.001124 -0.000000 0.000649
  outer loop
    vertex 0.050454 0.000000 0.024297
    vertex 0.050454 0.155000 0.024297
    vertex 0.046269 0.000000 0.031546
  endloop
endfacet
facet normal 0.001124 -0.000000 0.000649
  outer loop
    vertex 0.046269 0.000000 0.031546
    vertex 0.050454 0.155000 0.024297
    vertex 0.046269 0.155000 0.031546
  endloop
endfacet
facet normal 0.001014 -0.000000 0.000809
  outer loop
    vertex 0.046269 0.000000 0.031546
    vertex 0.046269 0.155000 0.031546
    vertex 0.041051 0.000000 0.038090
  endloop
endfacet
facet normal 0.001014 -0.000000 0.000809
  outer loop
    vertex 0.041051 0.000000 0.038090
    vertex 0.046269 0.155000 0.031546
    vertex 0.041051 0.155000 0.038090
  endloop
endfacet
facet normal 0.000882 -0.000000 0.000951
  outer loop
    vertex 0.041051 0.000000 0.038090
    vertex 0.041051 0.155000 0.038090
    vertex 0.034915 0.000000 0.043783
  endloop
endfacet
facet normal 0.000882 -0.000000 0.000951
  outer loop
    vertex 0.034915 0.000000 0.043783
    vertex 0.041051 0.155000 0.038090
    vertex 0.034915 0.155000 0.043783
  endloop
endfacet
facet normal 0.000731 -0.000000 0.001072
  outer loop
    vertex 0.034915 0.000000 0.043783
    vertex 0.034915 0.155000 0.043783
    vertex 0.028000 0.000000 0.048497
  endloop
endfacet
facet normal 0.000731 -0.000000 0.001072
  outer loop
    vertex 0.028000 0.000000 0.048497
    vertex 0.034915 0.155000 0.043783
    vertex 0.028000 0.155000 0.048497
  endloop
endfacet
facet normal 0.000563 -0.000000 0.001169
  outer loop
    vertex 0.028000 0.000000 0.048497
    vertex 0.028000 0.155000 0.048497
    vertex 0.020459 0.000000 0.052129
  endloop
endfacet
facet normal 0.000563 -0.000000 0.001169
  outer loop
    vertex 0.020459 0.000000 0.052129
    vertex 0.028000 0.155000 0.048497
    vertex 0.020459 0.155000 0.052129
  endloop
endfacet
facet normal 0.000382 -0.000000 0.001240
  outer loop
    vertex 0.020459 0.000000 0.052129
    vertex 0.020459 0.155000 0.052129
    vertex 0.012461 0.000000 0.054596
  endloop
endfacet
facet normal 0.000382 -0.000000 0.001240
  outer loop
    vertex 0.012461 0.000000 0.054596
    vertex 0.020459 0.155000 0.052129
    vertex 0.012461 0.155000 0.054596
  endloop
endfacet
facet normal 0.000193 -0.000000 0.001283
  outer loop
    vertex 0.012461 0.000000 0.054596
    vertex 0.012461 0.155000 0.054596
    vertex 0.004185 0.000000 0.055843
  endloop
endfacet
facet normal 0.000193 -0.000000 0.001283
  outer loop
    vertex 0.004185 0.000000 0.055843
    vertex 0.012461 0.155000 0.054596
    vertex 0.004185 0.155000 0.055843
  endloop
endfacet
facet normal 0.000000 -0.000000 0.001297
  outer loop
    vertex 0.004185 0.000000 0.055843
    vertex 0.004185 0.155000 0.055843
    vertex -0.004185 0.000000 0.055843
  endloop
endfacet
facet normal 0.000000 0.000000 0.001297
  outer loop
    vertex -0.004185 0.000000 0.055843
    vertex 0.004185 0.155000 0.055843
    vertex -0.004185 0.155000 0.055843
  endloop
endfacet
facet normal -0.000193 0.000000 0.001283
  outer loop
    vertex -0.004185 0.000000 0.055843
    vertex -0.004185 0.155000 0.055843
    vertex -0.012461 0.000000 0.054596
  endloop
endfacet
facet normal -0.000193 0.000000 0.001283
  outer loop
    vertex -0.012461 0.000000 0.054596
    vertex -0.004185 0.155000 0.055843
    vertex -0.012461 0.155000 0.054596
  endloop
endfacet
facet normal -0.000382 0.000000 0.001240
  outer loop
    vertex -0.012461 0.000000 0.054596
    vertex -0.012461 0.155000 0.054596
    vertex -0.020459 0.000000 0.052129
  endloop
endfacet
facet normal -0.000382 0.000000 0.001240
  outer loop
    vertex -0.020459 0.000000 0.052129
    vertex -0.012461 0.155000 0.054596
    vertex -0.020459 0.155000 0.052129
  endloop
endfacet
facet normal -0.000563 0.000000 0.001169
  outer loop
    vertex -0.020459 0.000000 0.052129
    vertex -0.020459 0.155000 0.052129
    vertex -0.028000 0.000000 0.048497
  endloop
endfacet
facet normal -0.000563 0.000000 0.001169
  outer loop
    vertex -0.028000 0.000000 0.048497
    vertex -0.020459 0.155000 0.052129
    vertex -0.028000 0.155000 0.048497
  endloop
endfacet
facet normal -0.000731 0.000000 0.001072
  outer loop
    vertex -0.028000 0.000000 0.048497
    vertex -0.028000 0.155000 0.048497
    vertex -0.034915 0.000000 0.043783
  endloop
endfacet
facet normal -0.000731 0.000000 0.001072
  outer loop
    vertex -0.034915 0.000000 0.043783
    vertex -0.028000 0.155000 0.048497
    vertex -0.034915 0.155000 0.043783
  endloop
endfacet
facet normal -0.000882 0.000000 0.000951
  outer loop
    vertex -0.034915 0.000000 0.043783
    vertex -0.034915 0.155000 0.043783
    vertex -0.041051 0.000000 0.038090
  endloop
endfacet
facet normal -0.000882 0.000000 0.000951
  outer loop
    vertex -0.041051 0.000000 0.038090
    vertex -0.034915 0.155000 0.043783
    vertex -0.041051 0.155000 0.038090
  endloop
endfacet
facet normal -0.001014 0.000000 0.000809
  outer loop
    vertex -0.041051 0.000000 0.038090
    vertex -0.041051 0.155000 0.038090
    vertex -0.046269 0.000000 0.031546
  endloop
endfacet
facet normal -0.001014 0.000000 0.000809
  outer loop
    vertex -0.046269 0.000000 0.031546
    vertex -0.041051 0.155000 0.038090
    vertex -0.046269 0.155000 0.031546
  endloop
endfacet
facet normal -0.001124 0.000000 0.000649
  outer loop
    vertex -0.046269 0.000000 0.031546
    vertex -0.046269 0.155000 0.031546
    vertex -0.050454 0.000000 0.024297
  endloop
endfacet
facet normal -0.001124 0.000000 0.000649
  outer loop
    vertex -0.050454 0.000000 0.024297
    vertex -0.046269 0.155000 0.031546
    vertex -0.050454 0.155000 0.024297
  endloop
endfacet
facet normal -0.001208 0.000000 0.000474
  outer loop
    vertex -0.050454 0.000000 0.024297
    vertex -0.050454 0.155000 0.024297
    vertex -0.053512 0.000000 0.016506
  endloop
endfacet
facet normal -0.001208 0.000000 0.000474
  outer loop
    vertex -0.053512 0.000000 0.016506
    vertex -0.050454 0.155000 0.024297
    vertex -0.053512 0.155000 0.016506
  endloop
endfacet
facet normal -0.001265 0.000000 0.000289
  outer loop
    vertex -0.053512 0.000000 0.016506
    vertex -0.053512 0.155000 0.016506
    vertex -0.055375 0.000000 0.008346
  endloop
endfacet
facet normal -0.001265 0.000000 0.000289
  outer loop
    vertex -0.055375 0.000000 0.008346
    vertex -0.053512 0.155000 0.016506
    vertex -0.055375 0.155000 0.008346
  endloop
endfacet
facet normal -0.001294 0.000000 0.000097
  outer loop
    vertex -0.055375 0.000000 0.008346
    vertex -0.055375 0.155000 0.008346
    vertex -0.056000 0.000000 0.000000
  endloop
endfacet
facet normal -0.001294 0.000000 0.000097
  outer loop
    vertex -0.056000 0.000000 0.000000
    vertex -0.055375 0.155000 0.008346
    vertex -0.056000 0.155000 0.000000
  endloop
endfacet
facet normal -0.001294 0.000000 -0.000097
  outer loop
    vertex -0.056000 0.000000 0.000000
    vertex -0.056000 0.155000 0.000000
    vertex -0.055375 0.000000 -0.008346
  endloop
endfacet
facet normal -0.001294 0.000000 -0.000097
  outer loop
    vertex -0.055375 0.000000 -0.008346
    vertex -0.056000 0.155000 0.000000
    vertex -0.055375 0.155000 -0.008346
  endloop
endfacet
facet normal -0.001265 0.000000 -0.000289
  outer loop
    vertex -0.055375 0.000000 -0.008346
    vertex -0.055375 0.155000 -0.008346
    vertex -0.053512 0.000000 -0.016506
  endloop
endfacet
facet normal -0.001265 0.000000 -0.000289
  outer loop
    vertex -0.053512 0.000000 -0.016506
    vertex -0.055375 0.155000 -0.008346
    vertex -0.053512 0.155000 -0.016506
  endloop
endfacet
facet normal -0.001208 0.000000 -0.000474
  outer loop
    vertex -0.053512 0.000000 -0.016506
    vertex -0.053512 0.155000 -0.016506
    vertex -0.050454 0.000000 -0.024297
  endloop
endfacet
facet normal -0.001208 0.000000 -0.000474
  outer loop
    vertex -0.050454 0.000000 -0.024297
    vertex -0.053512 0.155000 -0.016506
    vertex -0.050454 0.155000 -0.024297
  endloop
endfacet
facet normal -0.001124 0.000000 -0.000649
  outer loop
    vertex -0.050454 0.000000 -0.024297
    vertex -0.050454 0.155000 -0.024297
    vertex -0.046269 0.000000 -0.031546
  endloop
endfacet
facet normal -0.001124 0.000000 -0.000649
  outer loop
    vertex -0.046269 0.000000 -0.031546
    vertex -0.050454 0.155000 -0.024297
    vertex -0.046269 0.155000 -0.031546
  endloop
endfacet
facet normal -0.001014 0.000000 -0.000809
  outer loop
    vertex -0.046269 0.000000 -0.031546
    vertex -0.046269 0.155000 -0.031546
    vertex -0.041051 0.000000 -0.038090
  endloop
endfacet
facet normal -0.001014 0.000000 -0.000809
  outer loop
    vertex -0.041051 0.000000 -0.038090
    vertex -0.046269 0.155000 -0.031546
    vertex -0.041051 0.155000 -0.038090
  endloop
endfacet
facet normal -0.000882 0.000000 -0.000951
  outer loop
    vertex -0.041051 0.000000 -0.038090
    vertex -0.041051 0.155000 -0.038090
    vertex -0.034915 0.000000 -0.043783
  endloop
endfacet
facet normal -0.000882 0.000000 -0.000951
  outer loop
    vertex -0.034915 0.000000 -0.043783
    vertex -0.041051 0.155000 -0.038090
    vertex -0.034915 0.155000 -0.043783
  endloop
endfacet
facet normal -0.000731 0.000000 -0.001072
  outer loop
    vertex -0.034915 0.000000 -0.043783
    vertex -0.034915 0.155000 -0.043783
    vertex -0.028000 0.000000 -0.048497
  endloop
endfacet
facet normal -0.000731 0.000000 -0.001072
  outer loop
    vertex -0.028000 0.000000 -0.048497
    vertex -0.034915 0.155000 -0.043783
    vertex -0.028000 0.155000 -0.048497
  endloop
endfacet
facet normal -0.000563 0.000000 -0.001169
  outer loop
    vertex -0.028000 0.000000 -0.048497
    vertex -0.028000 0.155000 -0.048497
    vertex -0.020459 0.000000 -0.052129
  endloop
endfacet
facet normal -0.000563 0.000000 -0.001169
  outer loop
    vertex -0.020459 0.000000 -0.052129
    vertex -0.028000 0.155000 -0.048497
    vertex -0.020459 0.155000 -0.052129
  endloop
endfacet
facet normal -0.000382 0.000000 -0.001240
  outer loop
    vertex -0.020459 0.000000 -0.052129
    vertex -0.020459 0.155000 -0.052129
    vertex -0.012461 0.000000 -0.054596
  endloop
endfacet
facet normal -0.000382 0.000000 -0.001240
  outer loop
    vertex -0.012461 0.000000 -0.054596
    vertex -0.020459 0.155000 -0.052129
    vertex -0.012461 0.155000 -0.054596
  endloop
endfacet
facet normal -0.000193 0.000000 -0.001283
  outer loop
    vertex -0.012461 0.000000 -0.054596
    vertex -0.012461 0.155000 -0.054596
    vertex -0.004185 0.000000 -0.055843
  endloop
endfacet
facet normal -0.000193 0.000000 -0.001283
  outer loop
    vertex -0.004185 0.000000 -0.055843
    vertex -0.012461 0.155000 -0.054596
    vertex -0.004185 0.155000 -0.055843
  endloop
endfacet
facet normal 0.000000 0.000000 -0.001297
  outer loop
    vertex -0.004185 0.000000 -0.055843
    vertex -0.004185 0.155000 -0.055843
    vertex 0.004185 0.000000 -0.055843
  endloop
endfacet
facet normal 0.000000 0.000000 -0.001297
  outer loop
    vertex 0.004185 0.000000 -0.055843
    vertex -0.004185 0.155000 -0.055843
    vertex 0.004185 0.155000 -0.055843
  endloop
endfacet
facet normal 0.000193 0.000000 -0.001283
  outer loop
    vertex 0.004185 0.000000 -0.055843
    vertex 0.004185 0.155000 -0.055843
    vertex 0.012461 0.000000 -0.054596
  endloop
endfacet
facet normal 0.000193 0.000000 -0.001283
  outer loop
    vertex 0.012461 0.000000 -0.054596
    vertex 0.004185 0.155000 -0.055843
    vertex 0.012461 0.155000 -0.054596
  endloop
endfacet
facet normal 0.000382 0.000000 -0.001240
  outer loop
    vertex 0.012461 0.000000 -0.054596
    vertex 0.012461 0.155000 -0.054596
    vertex 0.020459 0.000000 -0.052129
  endloop
endfacet
facet normal 0.000382 0.000000 -0.001240
  outer loop
    vertex 0.020459 0.000000 -0.052129
    vertex 0.012461 0.155000 -0.054596
    vertex 0.020459 0.155000 -0.052129
  endloop
endfacet
facet normal 0.000563 0.000000 -0.001169
  outer loop
    vertex 0.020459 0.000000 -0.052129
    vertex 0.020459 0.155000 -0.052129
    vertex 0.028000 0.000000 -0.048497
  endloop
endfacet
facet normal 0.000563 0.000000 -0.001169
  outer loop
    vertex 0.028000 0.000000 -0.048497
    vertex 0.020459 0.155000 -0.052129
    vertex 0.028000 0.155000 -0.048497
  endloop
endfacet
facet normal 0.000731 0.000000 -0.001072
  outer loop
    vertex 0.028000 0.000000 -0.048497
    vertex 0.028000 0.155000 -0.048497
    vertex 0.034915 0.000000 -0.043783
  endloop
endfacet
facet normal 0.000731 0.000000 -0.001072
  outer loop
    vertex 0.034915 0.000000 -0.043783
    vertex 0.028000 0.155000 -0.048497
    vertex 0.034915 0.155000 -0.043783
  endloop
endfacet
facet normal 0.000882 0.000000 -0.000951
  outer loop
    vertex 0.034915 0.000000 -0.043783
    vertex 0.034915 0.155000 -0.043783
    vertex 0.041051 0.000000 -0.038090
  endloop
endfacet
facet normal 0.000882 0.000000 -0.000951
  outer loop
    vertex 0.041051 0.000000 -0.038090
    vertex 0.034915 0.155000 -0.043783
    vertex 0.041051 0.155000 -0.038090
  endloop
endfacet
facet normal 0.001014 0.000000 -0.000809
  outer loop
    vertex 0.041051 0.000000 -0.038090
    vertex 0.041051 0.155000 -0.038090
    vertex 0.046269 0.000000 -0.031546
  endloop
endfacet
facet normal 0.001014 0.000000 -0.000809
  outer loop
    vertex 0.046269 0.000000 -0.031546
    vertex 0.041051 0.155000 -0.038090
    vertex 0.046269 0.155000 -0.031546
  endloop
endfacet
facet normal 0.001124 0.000000 -0.000649
  outer loop
    vertex 0.046269 0.000000 -0.031546
    vertex 0.046269 0.155000 -0.031546
    vertex 0.050454 0.000000 -0.024297
  endloop
endfacet
facet normal 0.001124 0.000000 -0.000649
  outer loop
    vertex 0.050454 0.000000 -0.024297
    vertex 0.046269 0.155000 -0.031546
    vertex 0.050454 0.155000 -0.024297
  endloop
endfacet
facet normal 0.001208 0.000000 -0.000474
  outer loop
    vertex 0.050454 0.000000 -0.024297
    vertex 0.050454 0.155000 -0.024297
    vertex 0.053512 0.000000 -0.016506
  endloop
endfacet
facet normal 0.001208 0.000000 -0.000474
  outer loop
    vertex 0.053512 0.000000 -0.016506
    vertex 0.050454 0.155000 -0.024297
    vertex 0.053512 0.155000 -0.016506
  endloop
endfacet
facet normal 0.001265 0.000000 -0.000289
  outer loop
    vertex 0.053512 0.000000 -0.016506
    vertex 0.053512 0.155000 -0.016506
    vertex 0.055375 0.000000 -0.008346
  endloop
endfacet
facet normal 0.001265 0.000000 -0.000289
  outer loop
    vertex 0.055375 0.000000 -0.008346
    vertex 0.053512 0.155000 -0.016506
    vertex 0.055375 0.155000 -0.008346
  endloop
endfacet
facet normal -0.001294 0.000000 0.000097
  outer loop
    vertex -0.056000 0.310000 0.000000
    vertex -0.056000 0.155000 0.000000
    vertex -0.055375 0.310000 0.008346
  endloop
endfacet
facet normal -0.001294 0.000000 0.000097
  outer loop
    vertex -0.055375 0.310000 0.008346
    vertex -0.056000 0.155000 0.000000
    vertex -0.055375 0.155000 0.008346
  endloop
endfacet
facet normal -0.001265 0.000000 0.000289
  outer loop
    vertex -0.055375 0.310000 0.008346
    vertex -0.055375 0.155000 0.008346
    vertex -0.053512 0.310000 0.016506
  endloop
endfacet
facet normal -0.001265 0.000000 0.000289
  outer loop
    vertex -0.053512 0.310000 0.016506
    vertex -0.055375 0.155000 0.008346
    vertex -0.053512 0.155000 0.016506
  endloop
endfacet
facet normal -0.001208 0.000000 0.000474
  outer loop
    vertex -0.053512 0.310000 0.016506
    vertex -0.053512 0.155000 0.016506
    vertex -0.050454 0.310000 0.024297
  endloop
endfacet
facet normal -0.001208 0.000000 0.000474
  outer loop
    vertex -0.050454 0.310000 0.024297
    vertex -0.053512 0.155000 0.016506
    vertex -0.050454 0.155000 0.024297
  endloop
endfacet
facet normal -0.001124 0.000000 0.000649
  outer loop
    vertex -0.050454 0.310000 0.024297
    vertex -0.050454 0.155000 0.024297
    vertex -0.046269 0.310000 0.031546
  endloop
endfacet
facet normal -0.001124 0.000000 0.000649
  outer loop
    vertex -0.046269 0.310000 0.031546
    vertex -0.050454 0.155000 0.024297
    vertex -0.046269 0.155000 0.031546
  endloop
endfacet
facet normal -0.001014 0.000000 0.000809
  outer loop
    vertex -0.046269 0.310000 0.031546
    vertex -0.046269 0.155000 0.031546
    vertex -0.041051 0.310000 0.038090
  endloop
endfacet
facet normal -0.001014 0.000000 0.000809
  outer loop
    vertex -0.041051 0.310000 0.038090
    vertex -0.046269 0.155000 0.031546
    vertex -0.041051 0.155000 0.038090
  endloop
endfacet
facet normal -0.000882 0.000000 0.000951
  outer loop
    vertex -0.041051 0.310000 0.038090
    vertex -0.041051 0.155000 0.038090
    vertex -0.034915 0.310000 0.043783
  endloop
endfacet
facet normal -0.000882 0.000000 0.000951
  outer loop
    vertex -0.034915 0.310000 0.043783
    vertex -0.041051 0.155000 0.038090
    vertex -0.034915 0.155000 0.043783
  endloop
endfacet
facet normal -0.000731 0.000000 0.001072
  outer loop
    vertex -0.034915 0.310000 0.043783
    vertex -0.034915 0.155000 0.043783
    vertex -0.028000 0.310000 0.048497
  endloop
endfacet
facet normal -0.000731 0.000000 0.001072
  outer loop
    vertex -0.028000 0.310000 0.048497
    vertex -0.034915 0.155000 0.043783
    vertex -0.028000 0.155000 0.048497
  endloop
endfacet
facet normal -0.000563 0.000000 0.001169
  outer loop
    vertex -0.028000 0.310000 0.048497
    vertex -0.028000 0.155000 0.048497
    vertex -0.020459 0.310000 0.052129
  endloop
endfacet
facet normal -0.000563 0.000000 0.001169
  outer loop
    vertex -0.020459 0.310000 0.052129
    vertex -0.028000 0.155000 0.048497
    vertex -0.020459 0.155000 0.052129
  endloop
endfacet
facet normal -0.000382 0.000000 0.001240
  outer loop
    vertex -0.020459 0.310000 0.052129
    vertex -0.020459 0.155000 0.052129
    vertex -0.012461 0.310000 0.054596
  endloop
endfacet
facet normal -0.000382 0.000000 0.001240
  outer loop
    vertex -0.012461 0.310000 0.054596
    vertex -0.020459 0.155000 0.052129
    vertex -0.012461 0.155000 0.054596
  endloop
endfacet
facet normal -0.000193 0.000000 0.001283
  outer loop
    vertex -0.012461 0.310000 0.054596
    vertex -0.012461 0.155000 0.054596
    vertex -0.004185 0.310000 0.055843
  endloop
endfacet
facet normal -0.000193 0.000000 0.001283
  outer loop
    vertex -0.004185 0.310000 0.055843
    vertex -0.012461 0.155000 0.054596
    vertex -0.004185 0.155000 0.055843
  endloop
endfacet
facet normal -0.000000 0.000000 0.001297
  outer loop
    vertex -0.004185 0.310000 0.055843
    vertex -0.004185 0.155000 0.055843
    vertex 0.004185 0.310000 0.055843
  endloop
endfacet
facet normal 0.000000 0.000000 0.001297
  outer loop
    vertex 0.004185 0.310000 0.055843
    vertex -0.004185 0.155000 0.055843
    vertex 0.004185 0.155000 0.055843
  endloop
endfacet
facet normal 0.000193 0.000000 0.001283
  outer loop
    vertex 0.004185 0.310000 0.055843
    vertex 0.004185 0.155000 0.055843
    vertex 0.012461 0.310000 0.054596
  endloop
endfacet
facet normal 0.000193 0.000000 0.001283
  outer loop
    vertex 0.012461 0.310000 0.054596
    vertex 0.004185 0.155000 0.055843
    vertex 0.012461 0.155000 0.054596
  endloop
endfacet
facet normal 0.000382 0.000000 0.001240
  outer loop
    vertex 0.012461 0.310000 0.054596
    vertex 0.012461 0.155000 0.054596
    vertex 0.020459 0.310000 0.052129
  endloop
endfacet
facet normal 0.000382 0.000000 0.001240
  outer loop
    vertex 0.020459 0.310000 0.052129
    vertex 0.012461 0.155000 0.054596
    vertex 0.020459 0.155000 0.052129
  endloop
endfacet
facet normal 0.000563 0.000000 0.001169
  outer loop
    vertex 0.020459 0.310000 0.052129
    vertex 0.020459 0.155000 0.052129
    vertex 0.028000 0.310000 0.048497
  endloop
endfacet
facet normal 0.000563 0.000000 0.001169
  outer loop
    vertex 0.028000 0.310000 0.048497
    vertex 0.020459 0.155000 0.052129
    vertex 0.028000 0.155000 0.048497
  endloop
endfacet
facet normal 0.000731 0.000000 0.001072
  outer loop
    vertex 0.028000 0.310000 0.048497
    vertex 0.028000 0.155000 0.048497
    vertex 0.034915 0.310000 0.043783
  endloop
endfacet
facet normal 0.000731 0.000000 0.001072
  outer loop
    vertex 0.034915 0.310000 0.043783
    vertex 0.028000 0.155000 0.048497
    vertex 0.034915 0.155000 0.043783
  endloop
endfacet
facet normal 0.000882 0.000000 0.000951
  outer loop
    vertex 0.034915 0.310000 0.043783
    vertex 0.034915 0.155000 0.043783
    vertex 0.041051 0.310000 0.038090
  endloop
endfacet
facet normal 0.000882 0.000000 0.000951
  outer loop
    vertex 0.041051 0.310000 0.038090
    vertex 0.034915 0.155000 0.043783
    vertex 0.041051 0.155000 0.038090
  endloop
endfacet
facet normal 0.001014 0.000000 0.000809
  outer loop
    vertex 0.041051 0.310000 0.038090
    vertex 0.041051 0.155000 0.038090
    vertex 0.046269 0.310000 0.031546
  endloop
endfacet
facet normal 0.001014 0.000000 0.000809
  outer loop
    vertex 0.046269 0.310000 0.031546
    vertex 0.041051 0.155000 0.038090
    vertex 0.046269 0.155000 0.031546
  endloop
endfacet
facet normal 0.001124 0.000000 0.000649
  outer loop
    vertex 0.046269 0.310000 0.031546
    vertex 0.046269 0.155000 0.031546
    vertex 0.050454 0.310000 0.024297
  endloop
endfacet
facet normal 0.001124 0.000000 0.000649
  outer loop
    vertex 0.050454 0.310000 0.024297
    vertex 0.046269 0.155000 0.031546
    vertex 0.050454 0.155000 0.024297
  endloop
endfacet
facet normal 0.001208 0.000000 0.000474
  outer loop
    vertex 0.050454 0.310000 0.024297
    vertex 0.050454 0.155000 0.024297
    vertex 0.053512 0.310000 0.016506
  endloop
endfacet
facet normal 0.001208 0.000000 0.000474
  outer loop
    vertex 0.053512 0.310000 0.016506
    vertex 0.050454 0.155000 0.024297
    vertex 0.053512 0.155000 0.016506
  endloop
endfacet
facet normal 0.001265 0.000000 0.000289
  outer loop
    vertex 0.053512 0.310000 0.016506
    vertex 0.053512 0.155000 0.016506
    vertex 0.055375 0.310000 0.008346
  endloop
endfacet
facet normal 0.001265 0.000000 0.000289
  outer loop
    vertex 0.055375 0.310000 0.008346
    vertex 0.053512 0.155000 0.016506
    vertex 0.055375 0.155000 0.008346
  endloop
endfacet
facet normal 0.001294 0.000000 0.000097
  outer loop
    vertex 0.055375 0.310000 0.008346
    vertex 0.055375 0.155000 0.008346
    vertex 0.056000 0.310000 0.000000
  endloop
endfacet
facet normal 0.001294 0.000000 0.000097
  outer loop
    vertex 0.056000 0.310000 0.000000
    vertex 0.055375 0.155000 0.008346
    vertex 0.056000 0.155000 0.000000
  endloop
endfacet
facet normal 0.001294 0.000000 -0.000097
  outer loop
    vertex 0.056000 0.310000 0.000000
    vertex 0.056000 0.155000 0.000000
    vertex 0.055375 0.310000 -0.008346
  endloop
endfacet
facet normal 0.001294 0.000000 -0.000097
  outer loop
    vertex 0.055375 0.310000 -0.008346
    vertex 0.056000 0.155000 0.000000
    vertex 0.055375 0.155000 -0.008346
  endloop
endfacet
facet normal 0.001265 0.000000 -0.000289
  outer loop
    vertex 0.055375 0.310000 -0.008346
    vertex 0.055375 0.155000 -0.008346
    vertex 0.053512 0.310000 -0.016506
  endloop
endfacet
facet normal 0.001265 0.000000 -0.000289
  outer loop
    vertex 0.053512 0.310000 -0.016506
    vertex 0.055375 0.155000 -0.008346
    vertex 0.053512 0.155000 -0.016506
  endloop
endfacet
facet normal 0.001208 0.000000 -0.000474
  outer loop
    vertex 0.053512 0.310000 -0.016506
    vertex 0.053512 0.155000 -0.016506
    vertex 0.050454 0.310000 -0.024297
  endloop
endfacet
facet normal 0.001208 0.000000 -0.000474
  outer loop
    vertex 0.050454 0.310000 -0.024297
    vertex 0.053512 0.155000 -0.016506
    vertex 0.050454 0.155000 -0.024297
  endloop
endfacet
facet normal 0.001124 0.000000 -0.000649
  outer loop
    vertex 0.050454 0.310000 -0.024297
    vertex 0.050454 0.155000 -0.024297
    vertex 0.046269 0.310000 -0.031546
  endloop
endfacet
facet normal 0.001124 0.000000 -0.000649
  outer loop
    vertex 0.046269 0.310000 -0.031546
    vertex 0.050454 0.155000 -0.024297
    vertex 0.046269 0.155000 -0.031546
  endloop
endfacet
facet normal 0.001014 0.000000 -0.000809
  outer loop
    vertex 0.046269 0.310000 -0.031546
    vertex 0.046269 0.155000 -0.031546
    vertex 0.041051 0.310000 -0.038090
  endloop
endfacet
facet normal 0.001014 0.000000 -0.000809
  outer loop
    vertex 0.041051 0.310000 -0.038090
    vertex 0.046269 0.155000 -0.031546
    vertex 0.041051 0.155000 -0.038090
  endloop
endfacet
facet normal 0.000882 0.000000 -0.000951
  outer loop
    vertex 0.041051 0.310000 -0.038090
    vertex 0.041051 0.155000 -0.038090
    vertex 0.034915 0.310000 -0.043783
  endloop
endfacet
facet normal 0.000882 0.000000 -0.000951
  outer loop
    vertex 0.034915 0.310000 -0.043783
    vertex 0.041051 0.155000 -0.038090
    vertex 0.034915 0.155000 -0.043783
  endloop
endfacet
facet normal 0.000731 0.000000 -0.001072
  outer loop
    vertex 0.034915 0.310000 -0.043783
    vertex 0.034915 0.155000 -0.043783
    vertex 0.028000 0.310000 -0.048497
  endloop
endfacet
facet normal 0.000731 0.000000 -0.001072
  outer loop
    vertex 0.028000 0.310000 -0.048497
    vertex 0.034915 0.155000 -0.043783
    vertex 0.028000 0.155000 -0.048497
  endloop
endfacet
facet normal 0.000563 0.000000 -0.001169
  outer loop
    vertex 0.028000 0.310000 -0.048497
    vertex 0.028000 0.155000 -0.048497
    vertex 0.020459 0.310000 -0.052129
  endloop
endfacet
facet normal 0.000563 0.000000 -0.001169
  outer loop
    vertex 0.020459 0.310000 -0.052129
    vertex 0.028000 0.155000 -0.048497
    vertex 0.020459 0.155000 -0.052129
  endloop
endfacet
facet normal 0.000382 0.000000 -0.001240
  outer loop
    vertex 0.020459 0.310000 -0.052129
    vertex 0.020459 0.155000 -0.052129
    vertex 0.012461 0.310000 -0.054596
  endloop
endfacet
facet normal 0.000382 0.000000 -0.001240
  outer loop
    vertex 0.012461 0.310000 -0.054596
    vertex 0.020459 0.155000 -0.052129
    vertex 0.012461 0.155000 -0.054596
  endloop
endfacet
facet normal 0.000193 0.000000 -0.001283
  outer loop
    vertex 0.012461 0.310000 -0.054596
    vertex 0.012461 0.155000 -0.054596
    vertex 0.004185 0.310000 -0.055843
  endloop
endfacet
facet normal 0.000193 0.000000 -0.001283
  outer loop
    vertex 0.004185 0.310000 -0.055843
    vertex 0.012461 0.155000 -0.054596
    vertex 0.004185 0.155000 -0.055843
  endloop
endfacet
facet normal -0.000000 -0.000000 -0.001297
  outer loop
    vertex 0.004185 0.310000 -0.055843
    vertex 0.004185 0.155000 -0.055843
    vertex -0.004185 0.310000 -0.055843
  endloop
endfacet
facet normal 0.000000 0.000000 -0.001297
  outer loop
    vertex -0.004185 0.310000 -0.055843
    vertex 0.004185 0.155000 -0.055843
    vertex -0.004185 0.155000 -0.055843
  endloop
endfacet
facet normal -0.000193 -0.000000 -0.001283
  outer loop
    vertex -0.004185 0.310000 -0.055843
    vertex -0.004185 0.155000 -0.055843
    vertex -0.012461 0.310000 -0.054596
  endloop
endfacet
facet normal -0.000193 -0.000000 -0.001283
  outer loop
    vertex -0.012461 0.310000 -0.054596
    vertex -0.004185 0.155000 -0.055843
    vertex -0.012461 0.155000 -0.054596
  endloop
endfacet
facet normal -0.000382 -0.000000 -0.001240
  outer loop
    vertex -0.012461 0.310000 -0.054596
    vertex -0.012461 0.155000 -0.054596
    vertex -0.020459 0.310000 -0.052129
  endloop
endfacet
facet normal -0.000382 -0.000000 -0.001240
  outer loop
    vertex -0.020459 0.310000 -0.052129
    vertex -0.012461 0.155000 -0.054596
    vertex -0.020459 0.155000 -0.052129
  endloop
endfacet
facet normal -0.000563 -0.000000 -0.001169
  outer loop
    vertex -0.020459 0.310000 -0.052129
    vertex -0.020459 0.155000 -0.052129
    vertex -0.028000 0.310000 -0.048497
  endloop
endfacet
facet normal -0.000563 -0.000000 -0.001169
  outer loop
    vertex -0.028000 0.310000 -0.048497
    vertex -0.020459 0.155000 -0.052129
    vertex -0.028000 0.155000 -0.048497
  endloop
endfacet
facet normal -0.000731 -0.000000 -0.001072
  outer loop
    vertex -0.028000 0.310000 -0.048497
    vertex -0.028000 0.155000 -0.048497
    vertex -0.034915 0.310000 -0.043783
  endloop
endfacet
facet normal -0.000731 -0.000000 -0.001072
  outer loop
    vertex -0.034915 0.310000 -0.043783
    vertex -0.028000 0.155000 -0.048497
    vertex -0.034915 0.155000 -0.043783
  endloop
endfacet
facet normal -0.000882 -0.000000 -0.000951
  outer loop
    vertex -0.034915 0.310000 -0.043783
    vertex -0.034915 0.155000 -0.043783
    vertex -0.041051 0.310000 -0.038090
  endloop
endfacet
facet normal -0.000882 -0.000000 -0.000951
  outer loop
    vertex -0.041051 0.310000 -0.038090
    vertex -0.034915 0.155000 -0.043783
    vertex -0.041051 0.155000 -0.038090
  endloop
endfacet
facet normal -0.001014 -0.000000 -0.000809
  outer loop
    vertex -0.041051 0.310000 -0.038090
    vertex -0.041051 0.155000 -0.038090
    vertex -0.046269 0.310000 -0.031546
  endloop
endfacet
facet normal -0.001014 -0.000000 -0.000809
  outer loop
    vertex -0.046269 0.310000 -0.031546
    vertex -0.041051 0.155000 -0.038090
    vertex -0.046269 0.155000 -0.031546
  endloop
endfacet
facet normal -0.001124 -0.000000 -0.000649
  outer loop
    vertex -0.046269 0.310000 -0.031546
    vertex -0.046269 0.155000 -0.031546
    vertex -0.050454 0.310000 -0.024297
  endloop
endfacet
facet normal -0.001124 -0.000000 -0.000649
  outer loop
    vertex -0.050454 0.310000 -0.024297
    vertex -0.046269 0.155000 -0.031546
    vertex -0.050454 0.155000 -0.024297
  endloop
endfacet
facet normal -0.001208 -0.000000 -0.000474
  outer loop
    vertex -0.050454 0.310000 -0.024297
    vertex -0.050454 0.155000 -0.024297
    vertex -0.053512 0.310000 -0.016506
  endloop
endfacet
facet normal -0.001208 -0.000000 -0.000474
  outer loop
    vertex -0.053512 0.310000 -0.016506
    vertex -0.050454 0.155000 -0.024297
    vertex -0.053512 0.155000 -0.016506
  endloop
endfacet
facet normal -0.001265 -0.000000 -0.000289
  outer loop
    vertex -0.053512 0.310000 -0.016506
    vertex -0.053512 0.155000 -0.016506
    vertex -0.055375 0.310000 -0.008346
  endloop
endfacet
facet normal -0.001265 -0.000000 -0.000289
  outer loop
    vertex -0.055375 0.310000 -0.008346
    vertex -0.053512 0.155000 -0.016506
    vertex -0.055375 0.155000 -0.008346
  endloop
endfacet
facet normal -0.001294 -0.000000 -0.000097
  outer loop
    vertex -0.055375 0.310000 -0.008346
    vertex -0.055375 0.155000 -0.008346
    vertex -0.056000 0.310000 0.000000
  endloop
endfacet
facet normal -0.001294 -0.000000 -0.000097
  outer loop
    vertex -0.056000 0.310000 0.000000
    vertex -0.055375 0.155000 -0.008346
    vertex -0.056000 0.155000 0.000000
  endloop
endfacet
endsolid fc1791ee-9d70-4a40-ba8e-e9dd0ea1b821-ascii.stl
