solid 02542d30-0d60-4690-97b0-c7a2d7c0c55c-ascii.stl
facet normal 0.000332 0.000000 -0.000020
  outer loop
    vertex -0.085373 0.032000 0.010366
    vertex -0.085373 0.000000 0.010366
    vertex -0.086000 0.032000 0.000000
  endloop
endfacet
facet normal 0.000332 0.000000 -0.000020
  outer loop
    vertex -0.086000 0.032000 0.000000
    vertex -0.085373 0.000000 0.010366
    vertex -0.086000 0.000000 0.000000
  endloop
endfacet
facet normal 0.000332 0.000000 0.000020
  outer loop
    vertex -0.086000 0.032000 0.000000
    vertex -0.086000 0.000000 0.000000
    vertex -0.085373 0.032000 -0.010366
  endloop
endfacet
facet normal 0.000332 0.000000 0.000020
  outer loop
    vertex -0.085373 0.032000 -0.010366
    vertex -0.086000 0.000000 0.000000
    vertex -0.085373 0.000000 -0.010366
  endloop
endfacet
facet normal 0.000327 0.000000 0.000060
  outer loop
    vertex -0.085373 0.032000 -0.010366
    vertex -0.085373 0.000000 -0.010366
    vertex -0.083501 0.032000 -0.020581
  endloop
endfacet
facet normal 0.000327 0.000000 0.000060
  outer loop
    vertex -0.083501 0.032000 -0.020581
    vertex -0.085373 0.000000 -0.010366
    vertex -0.083501 0.000000 -0.020581
  endloop
endfacet
facet normal 0.000317 0.000000 0.000099
  outer loop
    vertex -0.083501 0.032000 -0.020581
    vertex -0.083501 0.000000 -0.020581
    vertex -0.080411 0.032000 -0.030496
  endloop
endfacet
facet normal 0.000317 0.000000 0.000099
  outer loop
    vertex -0.080411 0.032000 -0.030496
    vertex -0.083501 0.000000 -0.020581
    vertex -0.080411 0.000000 -0.030496
  endloop
endfacet
facet normal 0.000303 0.000000 0.000136
  outer loop
    vertex -0.080411 0.032000 -0.030496
    vertex -0.080411 0.000000 -0.030496
    vertex -0.076149 0.032000 -0.039966
  endloop
endfacet
facet normal 0.000303 0.000000 0.000136
  outer loop
    vertex -0.076149 0.032000 -0.039966
    vertex -0.080411 0.000000 -0.030496
    vertex -0.076149 0.000000 -0.039966
  endloop
endfacet
facet normal 0.000284 0.000000 0.000172
  outer loop
    vertex -0.076149 0.032000 -0.039966
    vertex -0.076149 0.000000 -0.039966
    vertex -0.070777 0.032000 -0.048854
  endloop
endfacet
facet normal 0.000284 0.000000 0.000172
  outer loop
    vertex -0.070777 0.032000 -0.048854
    vertex -0.076149 0.000000 -0.039966
    vertex -0.070777 0.000000 -0.048854
  endloop
endfacet
facet normal 0.000262 0.000000 0.000205
  outer loop
    vertex -0.070777 0.032000 -0.048854
    vertex -0.070777 0.000000 -0.048854
    vertex -0.064372 0.032000 -0.057029
  endloop
endfacet
facet normal 0.000262 0.000000 0.000205
  outer loop
    vertex -0.064372 0.032000 -0.057029
    vertex -0.070777 0.000000 -0.048854
    vertex -0.064372 0.000000 -0.057029
  endloop
endfacet
facet normal 0.000235 0.000000 0.000235
  outer loop
    vertex -0.064372 0.032000 -0.057029
    vertex -0.064372 0.000000 -0.057029
    vertex -0.057029 0.032000 -0.064372
  endloop
endfacet
facet normal 0.000235 0.000000 0.000235
  outer loop
    vertex -0.057029 0.032000 -0.064372
    vertex -0.064372 0.000000 -0.057029
    vertex -0.057029 0.000000 -0.064372
  endloop
endfacet
facet normal 0.000205 0.000000 0.000262
  outer loop
    vertex -0.057029 0.032000 -0.064372
    vertex -0.057029 0.000000 -0.064372
    vertex -0.048854 0.032000 -0.070777
  endloop
endfacet
facet normal 0.000205 0.000000 0.000262
  outer loop
    vertex -0.048854 0.032000 -0.070777
    vertex -0.057029 0.000000 -0.064372
    vertex -0.048854 0.000000 -0.070777
  endloop
endfacet
facet normal 0.000172 0.000000 0.000284
  outer loop
    vertex -0.048854 0.032000 -0.070777
    vertex -0.048854 0.000000 -0.070777
    vertex -0.039966 0.032000 -0.076149
  endloop
endfacet
facet normal 0.000172 0.000000 0.000284
  outer loop
    vertex -0.039966 0.032000 -0.076149
    vertex -0.048854 0.000000 -0.070777
    vertex -0.039966 0.000000 -0.076149
  endloop
endfacet
facet normal 0.000136 0.000000 0.000303
  outer loop
    vertex -0.039966 0.032000 -0.076149
    vertex -0.039966 0.000000 -0.076149
    vertex -0.030496 0.032000 -0.080411
  endloop
endfacet
facet normal 0.000136 0.000000 0.000303
  outer loop
    vertex -0.030496 0.032000 -0.080411
    vertex -0.039966 0.000000 -0.076149
    vertex -0.030496 0.000000 -0.080411
  endloop
endfacet
facet normal 0.000099 0.000000 0.000317
  outer loop
    vertex -0.030496 0.032000 -0.080411
    vertex -0.030496 0.000000 -0.080411
    vertex -0.020581 0.032000 -0.083501
  endloop
endfacet
facet normal 0.000099 0.000000 0.000317
  outer loop
    vertex -0.020581 0.032000 -0.083501
    vertex -0.030496 0.000000 -0.080411
    vertex -0.020581 0.000000 -0.083501
  endloop
endfacet
facet normal 0.000060 0.000000 0.000327
  outer loop
    vertex -0.020581 0.032000 -0.083501
    vertex -0.020581 0.000000 -0.083501
    vertex -0.010366 0.032000 -0.085373
  endloop
endfacet
facet normal 0.000060 0.000000 0.000327
  outer loop
    vertex -0.010366 0.032000 -0.085373
    vertex -0.020581 0.000000 -0.083501
    vertex -0.010366 0.000000 -0.085373
  endloop
endfacet
facet normal 0.000020 0.000000 0.000332
  outer loop
    vertex -0.010366 0.032000 -0.085373
    vertex -0.010366 0.000000 -0.085373
    vertex 0.000000 0.032000 -0.086000
  endloop
endfacet
facet normal 0.000020 0.000000 0.000332
  outer loop
    vertex 0.000000 0.032000 -0.086000
    vertex -0.010366 0.000000 -0.085373
    vertex 0.000000 0.000000 -0.086000
  endloop
endfacet
facet normal -0.000020 0.000000 0.000332
  outer loop
    vertex 0.000000 0.032000 -0.086000
    vertex 0.000000 0.000000 -0.086000
    vertex 0.010366 0.032000 -0.085373
  endloop
endfacet
facet normal -0.000020 0.000000 0.000332
  outer loop
    vertex 0.010366 0.032000 -0.085373
    vertex 0.000000 0.000000 -0.086000
    vertex 0.010366 0.000000 -0.085373
  endloop
endfacet
facet normal -0.000060 0.000000 0.000327
  outer loop
    vertex 0.010366 0.032000 -0.085373
    vertex 0.010366 0.000000 -0.085373
    vertex 0.020581 0.032000 -0.083501
  endloop
endfacet
facet normal -0.000060 0.000000 0.000327
  outer loop
    vertex 0.020581 0.032000 -0.083501
    vertex 0.010366 0.000000 -0.085373
    vertex 0.020581 0.000000 -0.083501
  endloop
endfacet
facet normal -0.000099 0.000000 0.000317
  outer loop
    vertex 0.020581 0.032000 -0.083501
    vertex 0.020581 0.000000 -0.083501
    vertex 0.030496 0.032000 -0.080411
  endloop
endfacet
facet normal -0.000099 0.000000 0.000317
  outer loop
    vertex 0.030496 0.032000 -0.080411
    vertex 0.020581 0.000000 -0.083501
    vertex 0.030496 0.000000 -0.080411
  endloop
endfacet
facet normal -0.000136 0.000000 0.000303
  outer loop
    vertex 0.030496 0.032000 -0.080411
    vertex 0.030496 0.000000 -0.080411
    vertex 0.039966 0.032000 -0.076149
  endloop
endfacet
facet normal -0.000136 0.000000 0.000303
  outer loop
    vertex 0.039966 0.032000 -0.076149
    vertex 0.030496 0.000000 -0.080411
    vertex 0.039966 0.000000 -0.076149
  endloop
endfacet
facet normal -0.000172 0.000000 0.000284
  outer loop
    vertex 0.039966 0.032000 -0.076149
    vertex 0.039966 0.000000 -0.076149
    vertex 0.048854 0.032000 -0.070777
  endloop
endfacet
facet normal -0.000172 0.000000 0.000284
  outer loop
    vertex 0.048854 0.032000 -0.070777
    vertex 0.039966 0.000000 -0.076149
    vertex 0.048854 0.000000 -0.070777
  endloop
endfacet
facet normal -0.000205 0.000000 0.000262
  outer loop
    vertex 0.048854 0.032000 -0.070777
    vertex 0.048854 0.000000 -0.070777
    vertex 0.057029 0.032000 -0.064372
  endloop
endfacet
facet normal -0.000205 0.000000 0.000262
  outer loop
    vertex 0.057029 0.032000 -0.064372
    vertex 0.048854 0.000000 -0.070777
    vertex 0.057029 0.000000 -0.064372
  endloop
endfacet
facet normal -0.000235 0.000000 0.000235
  outer loop
    vertex 0.057029 0.032000 -0.064372
    vertex 0.057029 0.000000 -0.064372
    vertex 0.064372 0.032000 -0.057029
  endloop
endfacet
facet normal -0.000235 0.000000 0.000235
  outer loop
    vertex 0.064372 0.032000 -0.057029
    vertex 0.057029 0.000000 -0.064372
    vertex 0.064372 0.000000 -0.057029
  endloop
endfacet
facet normal -0.000262 0.000000 0.000205
  outer loop
    vertex 0.064372 0.032000 -0.057029
    vertex 0.064372 0.000000 -0.057029
    vertex 0.070777 0.032000 -0.048854
  endloop
endfacet
facet normal -0.000262 0.000000 0.000205
  outer loop
    vertex 0.070777 0.032000 -0.048854
    vertex 0.064372 0.000000 -0.057029
    vertex 0.070777 0.000000 -0.048854
  endloop
endfacet
facet normal -0.000284 0.000000 0.000172
  outer loop
    vertex 0.070777 0.032000 -0.048854
    vertex 0.070777 0.000000 -0.048854
    vertex 0.076149 0.032000 -0.039966
  endloop
endfacet
facet normal -0.000284 0.000000 0.000172
  outer loop
    vertex 0.076149 0.032000 -0.039966
    vertex 0.070777 0.000000 -0.048854
    vertex 0.076149 0.000000 -0.039966
  endloop
endfacet
facet normal -0.000303 0.000000 0.000136
  outer loop
    vertex 0.076149 0.032000 -0.039966
    vertex 0.076149 0.000000 -0.039966
    vertex 0.080411 0.032000 -0.030496
  endloop
endfacet
facet normal -0.000303 0.000000 0.000136
  outer loop
    vertex 0.080411 0.032000 -0.030496
    vertex 0.076149 0.000000 -0.039966
    vertex 0.080411 0.000000 -0.030496
  endloop
endfacet
facet normal -0.000317 0.000000 0.000099
  outer loop
    vertex 0.080411 0.032000 -0.030496
    vertex 0.080411 0.000000 -0.030496
    vertex 0.083501 0.032000 -0.020581
  endloop
endfacet
facet normal -0.000317 0.000000 0.000099
  outer loop
    vertex 0.083501 0.032000 -0.020581
    vertex 0.080411 0.000000 -0.030496
    vertex 0.083501 0.000000 -0.020581
  endloop
endfacet
facet normal -0.000327 0.000000 0.000060
  outer loop
    vertex 0.083501 0.032000 -0.020581
    vertex 0.083501 0.000000 -0.020581
    vertex 0.085373 0.032000 -0.010366
  endloop
endfacet
facet normal -0.000327 0.000000 0.000060
  outer loop
    vertex 0.085373 0.032000 -0.010366
    vertex 0.083501 0.000000 -0.020581
    vertex 0.085373 0.000000 -0.010366
  endloop
endfacet
facet normal -0.000332 0.000000 0.000020
  outer loop
    vertex 0.085373 0.032000 -0.010366
    vertex 0.085373 0.000000 -0.010366
    vertex 0.086000 0.032000 0.000000
  endloop
endfacet
facet normal -0.000332 0.000000 0.000020
  outer loop
    vertex 0.086000 0.032000 0.000000
    vertex 0.085373 0.000000 -0.010366
    vertex 0.086000 0.000000 0.000000
  endloop
endfacet
facet normal -0.000332 -0.000000 -0.000020
  outer loop
    vertex 0.086000 0.032000 0.000000
    vertex 0.086000 0.000000 0.000000
    vertex 0.085373 0.032000 0.010366
  endloop
endfacet
facet normal -0.000332 -0.000000 -0.000020
  outer loop
    vertex 0.085373 0.032000 0.010366
    vertex 0.086000 0.000000 0.000000
    vertex 0.085373 0.000000 0.010366
  endloop
endfacet
facet normal -0.000327 -0.000000 -0.000060
  outer loop
    vertex 0.085373 0.032000 0.010366
    vertex 0.085373 0.000000 0.010366
    vertex 0.083501 0.032000 0.020581
  endloop
endfacet
facet normal -0.000327 -0.000000 -0.000060
  outer loop
    vertex 0.083501 0.032000 0.020581
    vertex 0.085373 0.000000 0.010366
    vertex 0.083501 0.000000 0.020581
  endloop
endfacet
facet normal -0.000317 -0.000000 -0.000099
  outer loop
    vertex 0.083501 0.032000 0.020581
    vertex 0.083501 0.000000 0.020581
    vertex 0.080411 0.032000 0.030496
  endloop
endfacet
facet normal -0.000317 -0.000000 -0.000099
  outer loop
    vertex 0.080411 0.032000 0.030496
    vertex 0.083501 0.000000 0.020581
    vertex 0.080411 0.000000 0.030496
  endloop
endfacet
facet normal -0.000303 -0.000000 -0.000136
  outer loop
    vertex 0.080411 0.032000 0.030496
    vertex 0.080411 0.000000 0.030496
    vertex 0.076149 0.032000 0.039966
  endloop
endfacet
facet normal -0.000303 -0.000000 -0.000136
  outer loop
    vertex 0.076149 0.032000 0.039966
    vertex 0.080411 0.000000 0.030496
    vertex 0.076149 0.000000 0.039966
  endloop
endfacet
facet normal -0.000284 -0.000000 -0.000172
  outer loop
    vertex 0.076149 0.032000 0.039966
    vertex 0.076149 0.000000 0.039966
    vertex 0.070777 0.032000 0.048854
  endloop
endfacet
facet normal -0.000284 -0.000000 -0.000172
  outer loop
    vertex 0.070777 0.032000 0.048854
    vertex 0.076149 0.000000 0.039966
    vertex 0.070777 0.000000 0.048854
  endloop
endfacet
facet normal -0.000262 -0.000000 -0.000205
  outer loop
    vertex 0.070777 0.032000 0.048854
    vertex 0.070777 0.000000 0.048854
    vertex 0.064372 0.032000 0.057029
  endloop
endfacet
facet normal -0.000262 -0.000000 -0.000205
  outer loop
    vertex 0.064372 0.032000 0.057029
    vertex 0.070777 0.000000 0.048854
    vertex 0.064372 0.000000 0.057029
  endloop
endfacet
facet normal -0.000235 -0.000000 -0.000235
  outer loop
    vertex 0.064372 0.032000 0.057029
    vertex 0.064372 0.000000 0.057029
    vertex 0.057029 0.032000 0.064372
  endloop
endfacet
facet normal -0.000235 -0.000000 -0.000235
  outer loop
    vertex 0.057029 0.032000 0.064372
    vertex 0.064372 0.000000 0.057029
    vertex 0.057029 0.000000 0.064372
  endloop
endfacet
facet normal -0.000205 -0.000000 -0.000262
  outer loop
    vertex 0.057029 0.032000 0.064372
    vertex 0.057029 0.000000 0.064372
    vertex 0.048854 0.032000 0.070777
  endloop
endfacet
facet normal -0.000205 -0.000000 -0.000262
  outer loop
    vertex 0.048854 0.032000 0.070777
    vertex 0.057029 0.000000 0.064372
    vertex 0.048854 0.000000 0.070777
  endloop
endfacet
facet normal -0.000172 -0.000000 -0.000284
  outer loop
    vertex 0.048854 0.032000 0.070777
    vertex 0.048854 0.000000 0.070777
    vertex 0.039966 0.032000 0.076149
  endloop
endfacet
facet normal -0.000172 -0.000000 -0.000284
  outer loop
    vertex 0.039966 0.032000 0.076149
    vertex 0.048854 0.000000 0.070777
    vertex 0.039966 0.000000 0.076149
  endloop
endfacet
facet normal -0.000136 -0.000000 -0.000303
  outer loop
    vertex 0.039966 0.032000 0.076149
    vertex 0.039966 0.000000 0.076149
    vertex 0.030496 0.032000 0.080411
  endloop
endfacet
facet normal -0.000136 -0.000000 -0.000303
  outer loop
    vertex 0.030496 0.032000 0.080411
    vertex 0.039966 0.000000 0.076149
    vertex 0.030496 0.000000 0.080411
  endloop
endfacet
facet normal -0.000099 -0.000000 -0.000317
  outer loop
    vertex 0.030496 0.032000 0.080411
    vertex 0.030496 0.000000 0.080411
    vertex 0.020581 0.032000 0.083501
  endloop
endfacet
facet normal -0.000099 -0.000000 -0.000317
  outer loop
    vertex 0.020581 0.032000 0.083501
    vertex 0.030496 0.000000 0.080411
    vertex 0.020581 0.000000 0.083501
  endloop
endfacet
facet normal -0.000060 -0.000000 -0.000327
  outer loop
    vertex 0.020581 0.032000 0.083501
    vertex 0.020581 0.000000 0.083501
    vertex 0.010366 0.032000 0.085373
  endloop
endfacet
facet normal -0.000060 -0.000000 -0.000327
  outer loop
    vertex 0.010366 0.032000 0.085373
    vertex 0.020581 0.000000 0.083501
    vertex 0.010366 0.000000 0.085373
  endloop
endfacet
facet normal -0.000020 -0.000000 -0.000332
  outer loop
    vertex 0.010366 0.032000 0.085373
    vertex 0.010366 0.000000 0.085373
    vertex 0.000000 0.032000 0.086000
  endloop
endfacet
facet normal -0.000020 -0.000000 -0.000332
  outer loop
    vertex 0.000000 0.032000 0.086000
    vertex 0.010366 0.000000 0.085373
    vertex 0.000000 0.000000 0.086000
  endloop
endfacet
facet normal 0.000020 0.000000 -0.000332
  outer loop
    vertex 0.000000 0.032000 0.086000
    vertex 0.000000 0.000000 0.086000
    vertex -0.010366 0.032000 0.085373
  endloop
endfacet
facet normal 0.000020 0.000000 -0.000332
  outer loop
    vertex -0.010366 0.032000 0.085373
    vertex 0.000000 0.000000 0.086000
    vertex -0.010366 0.000000 0.085373
  endloop
endfacet
facet normal 0.000060 0.000000 -0.000327
  outer loop
    vertex -0.010366 0.032000 0.085373
    vertex -0.010366 0.000000 0.085373
    vertex -0.020581 0.032000 0.083501
  endloop
endfacet
facet normal 0.000060 0.000000 -0.000327
  outer loop
    vertex -0.020581 0.032000 0.083501
    vertex -0.010366 0.000000 0.085373
    vertex -0.020581 0.000000 0.083501
  endloop
endfacet
facet normal 0.000099 0.000000 -0.000317
  outer loop
    vertex -0.020581 0.032000 0.083501
    vertex -0.020581 0.000000 0.083501
    vertex -0.030496 0.032000 0.080411
  endloop
endfacet
facet normal 0.000099 0.000000 -0.000317
  outer loop
    vertex -0.030496 0.032000 0.080411
    vertex -0.020581 0.000000 0.083501
    vertex -0.030496 0.000000 0.080411
  endloop
endfacet
facet normal 0.000136 0.000000 -0.000303
  outer loop
    vertex -0.030496 0.032000 0.080411
    vertex -0.030496 0.000000 0.080411
    vertex -0.039966 0.032000 0.076149
  endloop
endfacet
facet normal 0.000136 0.000000 -0.000303
  outer loop
    vertex -0.039966 0.032000 0.076149
    vertex -0.030496 0.000000 0.080411
    vertex -0.039966 0.000000 0.076149
  endloop
endfacet
facet normal 0.000172 0.000000 -0.000284
  outer loop
    vertex -0.039966 0.032000 0.076149
    vertex -0.039966 0.000000 0.076149
    vertex -0.048854 0.032000 0.070777
  endloop
endfacet
facet normal 0.000172 0.000000 -0.000284
  outer loop
    vertex -0.048854 0.032000 0.070777
    vertex -0.039966 0.000000 0.076149
    vertex -0.048854 0.000000 0.070777
  endloop
endfacet
facet normal 0.000205 0.000000 -0.000262
  outer loop
    vertex -0.048854 0.032000 0.070777
    vertex -0.048854 0.000000 0.070777
    vertex -0.057029 0.032000 0.064372
  endloop
endfacet
facet normal 0.000205 0.000000 -0.000262
  outer loop
    vertex -0.057029 0.032000 0.064372
    vertex -0.048854 0.000000 0.070777
    vertex -0.057029 0.000000 0.064372
  endloop
endfacet
facet normal 0.000235 0.000000 -0.000235
  outer loop
    vertex -0.057029 0.032000 0.064372
    vertex -0.057029 0.000000 0.064372
    vertex -0.064372 0.032000 0.057029
  endloop
endfacet
facet normal 0.000235 0.000000 -0.000235
  outer loop
    vertex -0.064372 0.032000 0.057029
    vertex -0.057029 0.000000 0.064372
    vertex -0.064372 0.000000 0.057029
  endloop
endfacet
facet normal 0.000262 0.000000 -0.000205
  outer loop
    vertex -0.064372 0.032000 0.057029
    vertex -0.064372 0.000000 0.057029
    vertex -0.070777 0.032000 0.048854
  endloop
endfacet
facet normal 0.000262 0.000000 -0.000205
  outer loop
    vertex -0.070777 0.032000 0.048854
    vertex -0.064372 0.000000 0.057029
    vertex -0.070777 0.000000 0.048854
  endloop
endfacet
facet normal 0.000284 0.000000 -0.000172
  outer loop
    vertex -0.070777 0.032000 0.048854
    vertex -0.070777 0.000000 0.048854
    vertex -0.076149 0.032000 0.039966
  endloop
endfacet
facet normal 0.000284 0.000000 -0.000172
  outer loop
    vertex -0.076149 0.032000 0.039966
    vertex -0.070777 0.000000 0.048854
    vertex -0.076149 0.000000 0.039966
  endloop
endfacet
facet normal 0.000303 0.000000 -0.000136
  outer loop
    vertex -0.076149 0.032000 0.039966
    vertex -0.076149 0.000000 0.039966
    vertex -0.080411 0.032000 0.030496
  endloop
endfacet
facet normal 0.000303 0.000000 -0.000136
  outer loop
    vertex -0.080411 0.032000 0.030496
    vertex -0.076149 0.000000 0.039966
    vertex -0.080411 0.000000 0.030496
  endloop
endfacet
facet normal 0.000317 0.000000 -0.000099
  outer loop
    vertex -0.080411 0.032000 0.030496
    vertex -0.080411 0.000000 0.030496
    vertex -0.083501 0.032000 0.020581
  endloop
endfacet
facet normal 0.000317 0.000000 -0.000099
  outer loop
    vertex -0.083501 0.032000 0.020581
    vertex -0.080411 0.000000 0.030496
    vertex -0.083501 0.000000 0.020581
  endloop
endfacet
facet normal 0.000327 0.000000 -0.000060
  outer loop
    vertex -0.083501 0.032000 0.020581
    vertex -0.083501 0.000000 0.020581
    vertex -0.085373 0.032000 0.010366
  endloop
endfacet
facet normal 0.000327 0.000000 -0.000060
  outer loop
    vertex -0.085373 0.032000 0.010366
    vertex -0.083501 0.000000 0.020581
    vertex -0.085373 0.000000 0.010366
  endloop
endfacet
facet normal -0.000489 -0.000000 -0.000020
  outer loop
    vertex -0.186876 0.032000 -0.015283
    vertex -0.186876 0.000000 -0.015283
    vertex -0.187500 0.032000 0.000000
  endloop
endfacet
facet normal -0.000489 -0.000000 -0.000020
  outer loop
    vertex -0.187500 0.032000 0.000000
    vertex -0.186876 0.000000 -0.015283
    vertex -0.187500 0.000000 0.000000
  endloop
endfacet
facet normal -0.000489 0.000000 0.000020
  outer loop
    vertex -0.187500 0.032000 0.000000
    vertex -0.187500 0.000000 0.000000
    vertex -0.186876 0.032000 0.015283
  endloop
endfacet
facet normal -0.000489 0.000000 0.000020
  outer loop
    vertex -0.186876 0.032000 0.015283
    vertex -0.187500 0.000000 0.000000
    vertex -0.186876 0.000000 0.015283
  endloop
endfacet
facet normal -0.000486 0.000000 0.000060
  outer loop
    vertex -0.186876 0.032000 0.015283
    vertex -0.186876 0.000000 0.015283
    vertex -0.185009 0.032000 0.030464
  endloop
endfacet
facet normal -0.000486 0.000000 0.000060
  outer loop
    vertex -0.185009 0.032000 0.030464
    vertex -0.186876 0.000000 0.015283
    vertex -0.185009 0.000000 0.030464
  endloop
endfacet
facet normal -0.000479 0.000000 0.000099
  outer loop
    vertex -0.185009 0.032000 0.030464
    vertex -0.185009 0.000000 0.030464
    vertex -0.181910 0.032000 0.045443
  endloop
endfacet
facet normal -0.000479 0.000000 0.000099
  outer loop
    vertex -0.181910 0.032000 0.045443
    vertex -0.185009 0.000000 0.030464
    vertex -0.181910 0.000000 0.045443
  endloop
endfacet
facet normal -0.000470 0.000000 0.000138
  outer loop
    vertex -0.181910 0.032000 0.045443
    vertex -0.181910 0.000000 0.045443
    vertex -0.177601 0.032000 0.060119
  endloop
endfacet
facet normal -0.000470 0.000000 0.000138
  outer loop
    vertex -0.177601 0.032000 0.060119
    vertex -0.181910 0.000000 0.045443
    vertex -0.177601 0.000000 0.060119
  endloop
endfacet
facet normal -0.000457 0.000000 0.000176
  outer loop
    vertex -0.177601 0.032000 0.060119
    vertex -0.177601 0.000000 0.060119
    vertex -0.172109 0.032000 0.074395
  endloop
endfacet
facet normal -0.000457 0.000000 0.000176
  outer loop
    vertex -0.172109 0.032000 0.074395
    vertex -0.177601 0.000000 0.060119
    vertex -0.172109 0.000000 0.074395
  endloop
endfacet
facet normal -0.000441 0.000000 0.000212
  outer loop
    vertex -0.172109 0.032000 0.074395
    vertex -0.172109 0.000000 0.074395
    vertex -0.165473 0.032000 0.088176
  endloop
endfacet
facet normal -0.000441 0.000000 0.000212
  outer loop
    vertex -0.165473 0.032000 0.088176
    vertex -0.172109 0.000000 0.074395
    vertex -0.165473 0.000000 0.088176
  endloop
endfacet
facet normal -0.000422 0.000000 0.000248
  outer loop
    vertex -0.165473 0.032000 0.088176
    vertex -0.165473 0.000000 0.088176
    vertex -0.157735 0.032000 0.101370
  endloop
endfacet
facet normal -0.000422 0.000000 0.000248
  outer loop
    vertex -0.157735 0.032000 0.101370
    vertex -0.165473 0.000000 0.088176
    vertex -0.157735 0.000000 0.101370
  endloop
endfacet
facet normal -0.000401 0.000000 0.000281
  outer loop
    vertex -0.157735 0.032000 0.101370
    vertex -0.157735 0.000000 0.101370
    vertex -0.148948 0.032000 0.113890
  endloop
endfacet
facet normal -0.000401 0.000000 0.000281
  outer loop
    vertex -0.148948 0.032000 0.113890
    vertex -0.157735 0.000000 0.101370
    vertex -0.148948 0.000000 0.113890
  endloop
endfacet
facet normal -0.000376 0.000000 0.000313
  outer loop
    vertex -0.148948 0.032000 0.113890
    vertex -0.148948 0.000000 0.113890
    vertex -0.139169 0.032000 0.125651
  endloop
endfacet
facet normal -0.000376 0.000000 0.000313
  outer loop
    vertex -0.139169 0.032000 0.125651
    vertex -0.148948 0.000000 0.113890
    vertex -0.139169 0.000000 0.125651
  endloop
endfacet
facet normal -0.000350 0.000000 0.000343
  outer loop
    vertex -0.139169 0.032000 0.125651
    vertex -0.139169 0.000000 0.125651
    vertex -0.128464 0.032000 0.136577
  endloop
endfacet
facet normal -0.000350 0.000000 0.000343
  outer loop
    vertex -0.128464 0.032000 0.136577
    vertex -0.139169 0.000000 0.125651
    vertex -0.128464 0.000000 0.136577
  endloop
endfacet
facet normal -0.000321 0.000000 0.000370
  outer loop
    vertex -0.128464 0.032000 0.136577
    vertex -0.128464 0.000000 0.136577
    vertex -0.116904 0.032000 0.146593
  endloop
endfacet
facet normal -0.000321 0.000000 0.000370
  outer loop
    vertex -0.116904 0.032000 0.146593
    vertex -0.128464 0.000000 0.136577
    vertex -0.116904 0.000000 0.146593
  endloop
endfacet
facet normal -0.000289 0.000000 0.000395
  outer loop
    vertex -0.116904 0.032000 0.146593
    vertex -0.116904 0.000000 0.146593
    vertex -0.104567 0.032000 0.155634
  endloop
endfacet
facet normal -0.000289 0.000000 0.000395
  outer loop
    vertex -0.104567 0.032000 0.155634
    vertex -0.116904 0.000000 0.146593
    vertex -0.104567 0.000000 0.155634
  endloop
endfacet
facet normal -0.000256 0.000000 0.000417
  outer loop
    vertex -0.104567 0.032000 0.155634
    vertex -0.104567 0.000000 0.155634
    vertex -0.091533 0.032000 0.163640
  endloop
endfacet
facet normal -0.000256 0.000000 0.000417
  outer loop
    vertex -0.091533 0.032000 0.163640
    vertex -0.104567 0.000000 0.155634
    vertex -0.091533 0.000000 0.163640
  endloop
endfacet
facet normal -0.000221 0.000000 0.000437
  outer loop
    vertex -0.091533 0.032000 0.163640
    vertex -0.091533 0.000000 0.163640
    vertex -0.077890 0.032000 0.170556
  endloop
endfacet
facet normal -0.000221 0.000000 0.000437
  outer loop
    vertex -0.077890 0.032000 0.170556
    vertex -0.091533 0.000000 0.163640
    vertex -0.077890 0.000000 0.170556
  endloop
endfacet
facet normal -0.000185 0.000000 0.000453
  outer loop
    vertex -0.077890 0.032000 0.170556
    vertex -0.077890 0.000000 0.170556
    vertex -0.063729 0.032000 0.176337
  endloop
endfacet
facet normal -0.000185 0.000000 0.000453
  outer loop
    vertex -0.063729 0.032000 0.176337
    vertex -0.077890 0.000000 0.170556
    vertex -0.063729 0.000000 0.176337
  endloop
endfacet
facet normal -0.000147 0.000000 0.000467
  outer loop
    vertex -0.063729 0.032000 0.176337
    vertex -0.063729 0.000000 0.176337
    vertex -0.049144 0.032000 0.180945
  endloop
endfacet
facet normal -0.000147 0.000000 0.000467
  outer loop
    vertex -0.049144 0.032000 0.180945
    vertex -0.063729 0.000000 0.176337
    vertex -0.049144 0.000000 0.180945
  endloop
endfacet
facet normal -0.000109 0.000000 0.000477
  outer loop
    vertex -0.049144 0.032000 0.180945
    vertex -0.049144 0.000000 0.180945
    vertex -0.034232 0.032000 0.184349
  endloop
endfacet
facet normal -0.000109 0.000000 0.000477
  outer loop
    vertex -0.034232 0.032000 0.184349
    vertex -0.049144 0.000000 0.180945
    vertex -0.034232 0.000000 0.184349
  endloop
endfacet
facet normal -0.000070 0.000000 0.000484
  outer loop
    vertex -0.034232 0.032000 0.184349
    vertex -0.034232 0.000000 0.184349
    vertex -0.019092 0.032000 0.186525
  endloop
endfacet
facet normal -0.000070 0.000000 0.000484
  outer loop
    vertex -0.019092 0.032000 0.186525
    vertex -0.034232 0.000000 0.184349
    vertex -0.019092 0.000000 0.186525
  endloop
endfacet
facet normal -0.000030 0.000000 0.000489
  outer loop
    vertex -0.019092 0.032000 0.186525
    vertex -0.019092 0.000000 0.186525
    vertex -0.003825 0.032000 0.187461
  endloop
endfacet
facet normal -0.000030 0.000000 0.000489
  outer loop
    vertex -0.003825 0.032000 0.187461
    vertex -0.019092 0.000000 0.186525
    vertex -0.003825 0.000000 0.187461
  endloop
endfacet
facet normal 0.000010 0.000000 0.000489
  outer loop
    vertex -0.003825 0.032000 0.187461
    vertex -0.003825 0.000000 0.187461
    vertex 0.011468 0.032000 0.187149
  endloop
endfacet
facet normal 0.000010 0.000000 0.000489
  outer loop
    vertex 0.011468 0.032000 0.187149
    vertex -0.003825 0.000000 0.187461
    vertex 0.011468 0.000000 0.187149
  endloop
endfacet
facet normal 0.000050 0.000000 0.000487
  outer loop
    vertex 0.011468 0.032000 0.187149
    vertex 0.011468 0.000000 0.187149
    vertex 0.026684 0.032000 0.185592
  endloop
endfacet
facet normal 0.000050 0.000000 0.000487
  outer loop
    vertex 0.026684 0.032000 0.185592
    vertex 0.011468 0.000000 0.187149
    vertex 0.026684 0.000000 0.185592
  endloop
endfacet
facet normal 0.000089 0.000000 0.000481
  outer loop
    vertex 0.026684 0.032000 0.185592
    vertex 0.026684 0.000000 0.185592
    vertex 0.041723 0.032000 0.182799
  endloop
endfacet
facet normal 0.000089 0.000000 0.000481
  outer loop
    vertex 0.041723 0.032000 0.182799
    vertex 0.026684 0.000000 0.185592
    vertex 0.041723 0.000000 0.182799
  endloop
endfacet
facet normal 0.000128 0.000000 0.000472
  outer loop
    vertex 0.041723 0.032000 0.182799
    vertex 0.041723 0.000000 0.182799
    vertex 0.056484 0.032000 0.178790
  endloop
endfacet
facet normal 0.000128 0.000000 0.000472
  outer loop
    vertex 0.056484 0.032000 0.178790
    vertex 0.041723 0.000000 0.182799
    vertex 0.056484 0.000000 0.178790
  endloop
endfacet
facet normal 0.000166 0.000000 0.000460
  outer loop
    vertex 0.056484 0.032000 0.178790
    vertex 0.056484 0.000000 0.178790
    vertex 0.070869 0.032000 0.173591
  endloop
endfacet
facet normal 0.000166 0.000000 0.000460
  outer loop
    vertex 0.070869 0.032000 0.173591
    vertex 0.056484 0.000000 0.178790
    vertex 0.070869 0.000000 0.173591
  endloop
endfacet
facet normal 0.000203 0.000000 0.000445
  outer loop
    vertex 0.070869 0.032000 0.173591
    vertex 0.070869 0.000000 0.173591
    vertex 0.084782 0.032000 0.167237
  endloop
endfacet
facet normal 0.000203 0.000000 0.000445
  outer loop
    vertex 0.084782 0.032000 0.167237
    vertex 0.070869 0.000000 0.173591
    vertex 0.084782 0.000000 0.167237
  endloop
endfacet
facet normal 0.000239 0.000000 0.000427
  outer loop
    vertex 0.084782 0.032000 0.167237
    vertex 0.084782 0.000000 0.167237
    vertex 0.098132 0.032000 0.159770
  endloop
endfacet
facet normal 0.000239 0.000000 0.000427
  outer loop
    vertex 0.098132 0.032000 0.159770
    vertex 0.084782 0.000000 0.167237
    vertex 0.098132 0.000000 0.159770
  endloop
endfacet
facet normal 0.000273 0.000000 0.000406
  outer loop
    vertex 0.098132 0.032000 0.159770
    vertex 0.098132 0.000000 0.159770
    vertex 0.110828 0.032000 0.151240
  endloop
endfacet
facet normal 0.000273 0.000000 0.000406
  outer loop
    vertex 0.110828 0.032000 0.151240
    vertex 0.098132 0.000000 0.159770
    vertex 0.110828 0.000000 0.151240
  endloop
endfacet
facet normal 0.000305 0.000000 0.000383
  outer loop
    vertex 0.110828 0.032000 0.151240
    vertex 0.110828 0.000000 0.151240
    vertex 0.122786 0.032000 0.141703
  endloop
endfacet
facet normal 0.000305 0.000000 0.000383
  outer loop
    vertex 0.122786 0.032000 0.141703
    vertex 0.110828 0.000000 0.151240
    vertex 0.122786 0.000000 0.141703
  endloop
endfacet
facet normal 0.000335 0.000000 0.000357
  outer loop
    vertex 0.122786 0.032000 0.141703
    vertex 0.122786 0.000000 0.141703
    vertex 0.133928 0.032000 0.131223
  endloop
endfacet
facet normal 0.000335 0.000000 0.000357
  outer loop
    vertex 0.133928 0.032000 0.131223
    vertex 0.122786 0.000000 0.141703
    vertex 0.133928 0.000000 0.131223
  endloop
endfacet
facet normal 0.000363 0.000000 0.000328
  outer loop
    vertex 0.133928 0.032000 0.131223
    vertex 0.133928 0.000000 0.131223
    vertex 0.144178 0.032000 0.119870
  endloop
endfacet
facet normal 0.000363 0.000000 0.000328
  outer loop
    vertex 0.144178 0.032000 0.119870
    vertex 0.133928 0.000000 0.131223
    vertex 0.144178 0.000000 0.119870
  endloop
endfacet
facet normal 0.000389 0.000000 0.000297
  outer loop
    vertex 0.144178 0.032000 0.119870
    vertex 0.144178 0.000000 0.119870
    vertex 0.153469 0.032000 0.107720
  endloop
endfacet
facet normal 0.000389 0.000000 0.000297
  outer loop
    vertex 0.153469 0.032000 0.107720
    vertex 0.144178 0.000000 0.119870
    vertex 0.153469 0.000000 0.107720
  endloop
endfacet
facet normal 0.000412 0.000000 0.000265
  outer loop
    vertex 0.153469 0.032000 0.107720
    vertex 0.153469 0.000000 0.107720
    vertex 0.161739 0.032000 0.094852
  endloop
endfacet
facet normal 0.000412 0.000000 0.000265
  outer loop
    vertex 0.161739 0.032000 0.094852
    vertex 0.153469 0.000000 0.107720
    vertex 0.161739 0.000000 0.094852
  endloop
endfacet
facet normal 0.000432 0.000000 0.000230
  outer loop
    vertex 0.161739 0.032000 0.094852
    vertex 0.161739 0.000000 0.094852
    vertex 0.168932 0.032000 0.081353
  endloop
endfacet
facet normal 0.000432 0.000000 0.000230
  outer loop
    vertex 0.168932 0.032000 0.081353
    vertex 0.161739 0.000000 0.094852
    vertex 0.168932 0.000000 0.081353
  endloop
endfacet
facet normal 0.000449 0.000000 0.000194
  outer loop
    vertex 0.168932 0.032000 0.081353
    vertex 0.168932 0.000000 0.081353
    vertex 0.175001 0.032000 0.067313
  endloop
endfacet
facet normal 0.000449 0.000000 0.000194
  outer loop
    vertex 0.175001 0.032000 0.067313
    vertex 0.168932 0.000000 0.081353
    vertex 0.175001 0.000000 0.067313
  endloop
endfacet
facet normal 0.000464 0.000000 0.000157
  outer loop
    vertex 0.175001 0.032000 0.067313
    vertex 0.175001 0.000000 0.067313
    vertex 0.179905 0.032000 0.052825
  endloop
endfacet
facet normal 0.000464 0.000000 0.000157
  outer loop
    vertex 0.179905 0.032000 0.052825
    vertex 0.175001 0.000000 0.067313
    vertex 0.179905 0.000000 0.052825
  endloop
endfacet
facet normal 0.000475 0.000000 0.000119
  outer loop
    vertex 0.179905 0.032000 0.052825
    vertex 0.179905 0.000000 0.052825
    vertex 0.183612 0.032000 0.037985
  endloop
endfacet
facet normal 0.000475 0.000000 0.000119
  outer loop
    vertex 0.183612 0.032000 0.037985
    vertex 0.179905 0.000000 0.052825
    vertex 0.183612 0.000000 0.037985
  endloop
endfacet
facet normal 0.000483 0.000000 0.000080
  outer loop
    vertex 0.183612 0.032000 0.037985
    vertex 0.183612 0.000000 0.037985
    vertex 0.186097 0.032000 0.022893
  endloop
endfacet
facet normal 0.000483 0.000000 0.000080
  outer loop
    vertex 0.186097 0.032000 0.022893
    vertex 0.183612 0.000000 0.037985
    vertex 0.186097 0.000000 0.022893
  endloop
endfacet
facet normal 0.000488 0.000000 0.000040
  outer loop
    vertex 0.186097 0.032000 0.022893
    vertex 0.186097 0.000000 0.022893
    vertex 0.187344 0.032000 0.007648
  endloop
endfacet
facet normal 0.000488 0.000000 0.000040
  outer loop
    vertex 0.187344 0.032000 0.007648
    vertex 0.186097 0.000000 0.022893
    vertex 0.187344 0.000000 0.007648
  endloop
endfacet
facet normal 0.000489 0.000000 0.000000
  outer loop
    vertex 0.187344 0.032000 0.007648
    vertex 0.187344 0.000000 0.007648
    vertex 0.187344 0.032000 -0.007648
  endloop
endfacet
facet normal 0.000489 0.000000 0.000000
  outer loop
    vertex 0.187344 0.032000 -0.007648
    vertex 0.187344 0.000000 0.007648
    vertex 0.187344 0.000000 -0.007648
  endloop
endfacet
facet normal 0.000488 0.000000 -0.000040
  outer loop
    vertex 0.187344 0.032000 -0.007648
    vertex 0.187344 0.000000 -0.007648
    vertex 0.186097 0.032000 -0.022893
  endloop
endfacet
facet normal 0.000488 0.000000 -0.000040
  outer loop
    vertex 0.186097 0.032000 -0.022893
    vertex 0.187344 0.000000 -0.007648
    vertex 0.186097 0.000000 -0.022893
  endloop
endfacet
facet normal 0.000483 0.000000 -0.000080
  outer loop
    vertex 0.186097 0.032000 -0.022893
    vertex 0.186097 0.000000 -0.022893
    vertex 0.183612 0.032000 -0.037985
  endloop
endfacet
facet normal 0.000483 0.000000 -0.000080
  outer loop
    vertex 0.183612 0.032000 -0.037985
    vertex 0.186097 0.000000 -0.022893
    vertex 0.183612 0.000000 -0.037985
  endloop
endfacet
facet normal 0.000475 0.000000 -0.000119
  outer loop
    vertex 0.183612 0.032000 -0.037985
    vertex 0.183612 0.000000 -0.037985
    vertex 0.179905 0.032000 -0.052825
  endloop
endfacet
facet normal 0.000475 0.000000 -0.000119
  outer loop
    vertex 0.179905 0.032000 -0.052825
    vertex 0.183612 0.000000 -0.037985
    vertex 0.179905 0.000000 -0.052825
  endloop
endfacet
facet normal 0.000464 0.000000 -0.000157
  outer loop
    vertex 0.179905 0.032000 -0.052825
    vertex 0.179905 0.000000 -0.052825
    vertex 0.175001 0.032000 -0.067313
  endloop
endfacet
facet normal 0.000464 0.000000 -0.000157
  outer loop
    vertex 0.175001 0.032000 -0.067313
    vertex 0.179905 0.000000 -0.052825
    vertex 0.175001 0.000000 -0.067313
  endloop
endfacet
facet normal 0.000449 0.000000 -0.000194
  outer loop
    vertex 0.175001 0.032000 -0.067313
    vertex 0.175001 0.000000 -0.067313
    vertex 0.168932 0.032000 -0.081353
  endloop
endfacet
facet normal 0.000449 0.000000 -0.000194
  outer loop
    vertex 0.168932 0.032000 -0.081353
    vertex 0.175001 0.000000 -0.067313
    vertex 0.168932 0.000000 -0.081353
  endloop
endfacet
facet normal 0.000432 0.000000 -0.000230
  outer loop
    vertex 0.168932 0.032000 -0.081353
    vertex 0.168932 0.000000 -0.081353
    vertex 0.161739 0.032000 -0.094852
  endloop
endfacet
facet normal 0.000432 0.000000 -0.000230
  outer loop
    vertex 0.161739 0.032000 -0.094852
    vertex 0.168932 0.000000 -0.081353
    vertex 0.161739 0.000000 -0.094852
  endloop
endfacet
facet normal 0.000412 0.000000 -0.000265
  outer loop
    vertex 0.161739 0.032000 -0.094852
    vertex 0.161739 0.000000 -0.094852
    vertex 0.153469 0.032000 -0.107720
  endloop
endfacet
facet normal 0.000412 0.000000 -0.000265
  outer loop
    vertex 0.153469 0.032000 -0.107720
    vertex 0.161739 0.000000 -0.094852
    vertex 0.153469 0.000000 -0.107720
  endloop
endfacet
facet normal 0.000389 0.000000 -0.000297
  outer loop
    vertex 0.153469 0.032000 -0.107720
    vertex 0.153469 0.000000 -0.107720
    vertex 0.144178 0.032000 -0.119870
  endloop
endfacet
facet normal 0.000389 0.000000 -0.000297
  outer loop
    vertex 0.144178 0.032000 -0.119870
    vertex 0.153469 0.000000 -0.107720
    vertex 0.144178 0.000000 -0.119870
  endloop
endfacet
facet normal 0.000363 0.000000 -0.000328
  outer loop
    vertex 0.144178 0.032000 -0.119870
    vertex 0.144178 0.000000 -0.119870
    vertex 0.133928 0.032000 -0.131223
  endloop
endfacet
facet normal 0.000363 0.000000 -0.000328
  outer loop
    vertex 0.133928 0.032000 -0.131223
    vertex 0.144178 0.000000 -0.119870
    vertex 0.133928 0.000000 -0.131223
  endloop
endfacet
facet normal 0.000335 0.000000 -0.000357
  outer loop
    vertex 0.133928 0.032000 -0.131223
    vertex 0.133928 0.000000 -0.131223
    vertex 0.122786 0.032000 -0.141703
  endloop
endfacet
facet normal 0.000335 0.000000 -0.000357
  outer loop
    vertex 0.122786 0.032000 -0.141703
    vertex 0.133928 0.000000 -0.131223
    vertex 0.122786 0.000000 -0.141703
  endloop
endfacet
facet normal 0.000305 0.000000 -0.000383
  outer loop
    vertex 0.122786 0.032000 -0.141703
    vertex 0.122786 0.000000 -0.141703
    vertex 0.110828 0.032000 -0.151240
  endloop
endfacet
facet normal 0.000305 0.000000 -0.000383
  outer loop
    vertex 0.110828 0.032000 -0.151240
    vertex 0.122786 0.000000 -0.141703
    vertex 0.110828 0.000000 -0.151240
  endloop
endfacet
facet normal 0.000273 0.000000 -0.000406
  outer loop
    vertex 0.110828 0.032000 -0.151240
    vertex 0.110828 0.000000 -0.151240
    vertex 0.098132 0.032000 -0.159770
  endloop
endfacet
facet normal 0.000273 0.000000 -0.000406
  outer loop
    vertex 0.098132 0.032000 -0.159770
    vertex 0.110828 0.000000 -0.151240
    vertex 0.098132 0.000000 -0.159770
  endloop
endfacet
facet normal 0.000239 0.000000 -0.000427
  outer loop
    vertex 0.098132 0.032000 -0.159770
    vertex 0.098132 0.000000 -0.159770
    vertex 0.084782 0.032000 -0.167237
  endloop
endfacet
facet normal 0.000239 0.000000 -0.000427
  outer loop
    vertex 0.084782 0.032000 -0.167237
    vertex 0.098132 0.000000 -0.159770
    vertex 0.084782 0.000000 -0.167237
  endloop
endfacet
facet normal 0.000203 0.000000 -0.000445
  outer loop
    vertex 0.084782 0.032000 -0.167237
    vertex 0.084782 0.000000 -0.167237
    vertex 0.070869 0.032000 -0.173591
  endloop
endfacet
facet normal 0.000203 0.000000 -0.000445
  outer loop
    vertex 0.070869 0.032000 -0.173591
    vertex 0.084782 0.000000 -0.167237
    vertex 0.070869 0.000000 -0.173591
  endloop
endfacet
facet normal 0.000166 0.000000 -0.000460
  outer loop
    vertex 0.070869 0.032000 -0.173591
    vertex 0.070869 0.000000 -0.173591
    vertex 0.056484 0.032000 -0.178790
  endloop
endfacet
facet normal 0.000166 0.000000 -0.000460
  outer loop
    vertex 0.056484 0.032000 -0.178790
    vertex 0.070869 0.000000 -0.173591
    vertex 0.056484 0.000000 -0.178790
  endloop
endfacet
facet normal 0.000128 0.000000 -0.000472
  outer loop
    vertex 0.056484 0.032000 -0.178790
    vertex 0.056484 0.000000 -0.178790
    vertex 0.041723 0.032000 -0.182799
  endloop
endfacet
facet normal 0.000128 0.000000 -0.000472
  outer loop
    vertex 0.041723 0.032000 -0.182799
    vertex 0.056484 0.000000 -0.178790
    vertex 0.041723 0.000000 -0.182799
  endloop
endfacet
facet normal 0.000089 0.000000 -0.000481
  outer loop
    vertex 0.041723 0.032000 -0.182799
    vertex 0.041723 0.000000 -0.182799
    vertex 0.026684 0.032000 -0.185592
  endloop
endfacet
facet normal 0.000089 0.000000 -0.000481
  outer loop
    vertex 0.026684 0.032000 -0.185592
    vertex 0.041723 0.000000 -0.182799
    vertex 0.026684 0.000000 -0.185592
  endloop
endfacet
facet normal 0.000050 0.000000 -0.000487
  outer loop
    vertex 0.026684 0.032000 -0.185592
    vertex 0.026684 0.000000 -0.185592
    vertex 0.011468 0.032000 -0.187149
  endloop
endfacet
facet normal 0.000050 0.000000 -0.000487
  outer loop
    vertex 0.011468 0.032000 -0.187149
    vertex 0.026684 0.000000 -0.185592
    vertex 0.011468 0.000000 -0.187149
  endloop
endfacet
facet normal 0.000010 0.000000 -0.000489
  outer loop
    vertex 0.011468 0.032000 -0.187149
    vertex 0.011468 0.000000 -0.187149
    vertex -0.003825 0.032000 -0.187461
  endloop
endfacet
facet normal 0.000010 0.000000 -0.000489
  outer loop
    vertex -0.003825 0.032000 -0.187461
    vertex 0.011468 0.000000 -0.187149
    vertex -0.003825 0.000000 -0.187461
  endloop
endfacet
facet normal -0.000030 -0.000000 -0.000489
  outer loop
    vertex -0.003825 0.032000 -0.187461
    vertex -0.003825 0.000000 -0.187461
    vertex -0.019092 0.032000 -0.186525
  endloop
endfacet
facet normal -0.000030 -0.000000 -0.000489
  outer loop
    vertex -0.019092 0.032000 -0.186525
    vertex -0.003825 0.000000 -0.187461
    vertex -0.019092 0.000000 -0.186525
  endloop
endfacet
facet normal -0.000070 -0.000000 -0.000484
  outer loop
    vertex -0.019092 0.032000 -0.186525
    vertex -0.019092 0.000000 -0.186525
    vertex -0.034232 0.032000 -0.184349
  endloop
endfacet
facet normal -0.000070 -0.000000 -0.000484
  outer loop
    vertex -0.034232 0.032000 -0.184349
    vertex -0.019092 0.000000 -0.186525
    vertex -0.034232 0.000000 -0.184349
  endloop
endfacet
facet normal -0.000109 -0.000000 -0.000477
  outer loop
    vertex -0.034232 0.032000 -0.184349
    vertex -0.034232 0.000000 -0.184349
    vertex -0.049144 0.032000 -0.180945
  endloop
endfacet
facet normal -0.000109 -0.000000 -0.000477
  outer loop
    vertex -0.049144 0.032000 -0.180945
    vertex -0.034232 0.000000 -0.184349
    vertex -0.049144 0.000000 -0.180945
  endloop
endfacet
facet normal -0.000147 -0.000000 -0.000467
  outer loop
    vertex -0.049144 0.032000 -0.180945
    vertex -0.049144 0.000000 -0.180945
    vertex -0.063729 0.032000 -0.176337
  endloop
endfacet
facet normal -0.000147 -0.000000 -0.000467
  outer loop
    vertex -0.063729 0.032000 -0.176337
    vertex -0.049144 0.000000 -0.180945
    vertex -0.063729 0.000000 -0.176337
  endloop
endfacet
facet normal -0.000185 -0.000000 -0.000453
  outer loop
    vertex -0.063729 0.032000 -0.176337
    vertex -0.063729 0.000000 -0.176337
    vertex -0.077890 0.032000 -0.170556
  endloop
endfacet
facet normal -0.000185 -0.000000 -0.000453
  outer loop
    vertex -0.077890 0.032000 -0.170556
    vertex -0.063729 0.000000 -0.176337
    vertex -0.077890 0.000000 -0.170556
  endloop
endfacet
facet normal -0.000221 -0.000000 -0.000437
  outer loop
    vertex -0.077890 0.032000 -0.170556
    vertex -0.077890 0.000000 -0.170556
    vertex -0.091533 0.032000 -0.163640
  endloop
endfacet
facet normal -0.000221 -0.000000 -0.000437
  outer loop
    vertex -0.091533 0.032000 -0.163640
    vertex -0.077890 0.000000 -0.170556
    vertex -0.091533 0.000000 -0.163640
  endloop
endfacet
facet normal -0.000256 -0.000000 -0.000417
  outer loop
    vertex -0.091533 0.032000 -0.163640
    vertex -0.091533 0.000000 -0.163640
    vertex -0.104567 0.032000 -0.155634
  endloop
endfacet
facet normal -0.000256 -0.000000 -0.000417
  outer loop
    vertex -0.104567 0.032000 -0.155634
    vertex -0.091533 0.000000 -0.163640
    vertex -0.104567 0.000000 -0.155634
  endloop
endfacet
facet normal -0.000289 -0.000000 -0.000395
  outer loop
    vertex -0.104567 0.032000 -0.155634
    vertex -0.104567 0.000000 -0.155634
    vertex -0.116904 0.032000 -0.146593
  endloop
endfacet
facet normal -0.000289 -0.000000 -0.000395
  outer loop
    vertex -0.116904 0.032000 -0.146593
    vertex -0.104567 0.000000 -0.155634
    vertex -0.116904 0.000000 -0.146593
  endloop
endfacet
facet normal -0.000321 -0.000000 -0.000370
  outer loop
    vertex -0.116904 0.032000 -0.146593
    vertex -0.116904 0.000000 -0.146593
    vertex -0.128464 0.032000 -0.136577
  endloop
endfacet
facet normal -0.000321 -0.000000 -0.000370
  outer loop
    vertex -0.128464 0.032000 -0.136577
    vertex -0.116904 0.000000 -0.146593
    vertex -0.128464 0.000000 -0.136577
  endloop
endfacet
facet normal -0.000350 -0.000000 -0.000343
  outer loop
    vertex -0.128464 0.032000 -0.136577
    vertex -0.128464 0.000000 -0.136577
    vertex -0.139169 0.032000 -0.125651
  endloop
endfacet
facet normal -0.000350 -0.000000 -0.000343
  outer loop
    vertex -0.139169 0.032000 -0.125651
    vertex -0.128464 0.000000 -0.136577
    vertex -0.139169 0.000000 -0.125651
  endloop
endfacet
facet normal -0.000376 -0.000000 -0.000313
  outer loop
    vertex -0.139169 0.032000 -0.125651
    vertex -0.139169 0.000000 -0.125651
    vertex -0.148948 0.032000 -0.113890
  endloop
endfacet
facet normal -0.000376 -0.000000 -0.000313
  outer loop
    vertex -0.148948 0.032000 -0.113890
    vertex -0.139169 0.000000 -0.125651
    vertex -0.148948 0.000000 -0.113890
  endloop
endfacet
facet normal -0.000401 -0.000000 -0.000281
  outer loop
    vertex -0.148948 0.032000 -0.113890
    vertex -0.148948 0.000000 -0.113890
    vertex -0.157735 0.032000 -0.101370
  endloop
endfacet
facet normal -0.000401 -0.000000 -0.000281
  outer loop
    vertex -0.157735 0.032000 -0.101370
    vertex -0.148948 0.000000 -0.113890
    vertex -0.157735 0.000000 -0.101370
  endloop
endfacet
facet normal -0.000422 -0.000000 -0.000248
  outer loop
    vertex -0.157735 0.032000 -0.101370
    vertex -0.157735 0.000000 -0.101370
    vertex -0.165473 0.032000 -0.088176
  endloop
endfacet
facet normal -0.000422 -0.000000 -0.000248
  outer loop
    vertex -0.165473 0.032000 -0.088176
    vertex -0.157735 0.000000 -0.101370
    vertex -0.165473 0.000000 -0.088176
  endloop
endfacet
facet normal -0.000441 -0.000000 -0.000212
  outer loop
    vertex -0.165473 0.032000 -0.088176
    vertex -0.165473 0.000000 -0.088176
    vertex -0.172109 0.032000 -0.074395
  endloop
endfacet
facet normal -0.000441 -0.000000 -0.000212
  outer loop
    vertex -0.172109 0.032000 -0.074395
    vertex -0.165473 0.000000 -0.088176
    vertex -0.172109 0.000000 -0.074395
  endloop
endfacet
facet normal -0.000457 -0.000000 -0.000176
  outer loop
    vertex -0.172109 0.032000 -0.074395
    vertex -0.172109 0.000000 -0.074395
    vertex -0.177601 0.032000 -0.060119
  endloop
endfacet
facet normal -0.000457 -0.000000 -0.000176
  outer loop
    vertex -0.177601 0.032000 -0.060119
    vertex -0.172109 0.000000 -0.074395
    vertex -0.177601 0.000000 -0.060119
  endloop
endfacet
facet normal -0.000470 -0.000000 -0.000138
  outer loop
    vertex -0.177601 0.032000 -0.060119
    vertex -0.177601 0.000000 -0.060119
    vertex -0.181910 0.032000 -0.045443
  endloop
endfacet
facet normal -0.000470 -0.000000 -0.000138
  outer loop
    vertex -0.181910 0.032000 -0.045443
    vertex -0.177601 0.000000 -0.060119
    vertex -0.181910 0.000000 -0.045443
  endloop
endfacet
facet normal -0.000479 -0.000000 -0.000099
  outer loop
    vertex -0.181910 0.032000 -0.045443
    vertex -0.181910 0.000000 -0.045443
    vertex -0.185009 0.032000 -0.030464
  endloop
endfacet
facet normal -0.000479 -0.000000 -0.000099
  outer loop
    vertex -0.185009 0.032000 -0.030464
    vertex -0.181910 0.000000 -0.045443
    vertex -0.185009 0.000000 -0.030464
  endloop
endfacet
facet normal -0.000486 -0.000000 -0.000060
  outer loop
    vertex -0.185009 0.032000 -0.030464
    vertex -0.185009 0.000000 -0.030464
    vertex -0.186876 0.032000 -0.015283
  endloop
endfacet
facet normal -0.000486 -0.000000 -0.000060
  outer loop
    vertex -0.186876 0.032000 -0.015283
    vertex -0.185009 0.000000 -0.030464
    vertex -0.186876 0.000000 -0.015283
  endloop
endfacet
facet normal 0.000000 0.001055 0.000000
  outer loop
    vertex -0.085373 0.032000 -0.010366
    vertex -0.186876 0.032000 -0.015283
    vertex -0.086000 0.032000 0.000000
  endloop
endfacet
facet normal 0.000000 0.001551 0.000000
  outer loop
    vertex -0.086000 0.032000 0.000000
    vertex -0.186876 0.032000 -0.015283
    vertex -0.187500 0.032000 0.000000
  endloop
endfacet
facet normal 0.000000 0.001551 0.000000
  outer loop
    vertex -0.086000 0.032000 0.000000
    vertex -0.187500 0.032000 0.000000
    vertex -0.186876 0.032000 0.015283
  endloop
endfacet
facet normal -0.000000 0.001550 0.000000
  outer loop
    vertex -0.186876 0.032000 -0.015283
    vertex -0.085373 0.032000 -0.010366
    vertex -0.185009 0.032000 -0.030464
  endloop
endfacet
facet normal 0.000000 0.001055 0.000000
  outer loop
    vertex -0.185009 0.032000 -0.030464
    vertex -0.085373 0.032000 -0.010366
    vertex -0.083501 0.032000 -0.020581
  endloop
endfacet
facet normal -0.000000 0.001551 0.000000
  outer loop
    vertex -0.185009 0.032000 -0.030464
    vertex -0.083501 0.032000 -0.020581
    vertex -0.181910 0.032000 -0.045443
  endloop
endfacet
facet normal -0.000000 0.001551 0.000000
  outer loop
    vertex -0.181910 0.032000 -0.045443
    vertex -0.083501 0.032000 -0.020581
    vertex -0.177601 0.032000 -0.060119
  endloop
endfacet
facet normal 0.000000 0.001055 0.000000
  outer loop
    vertex -0.177601 0.032000 -0.060119
    vertex -0.083501 0.032000 -0.020581
    vertex -0.080411 0.032000 -0.030496
  endloop
endfacet
facet normal -0.000000 0.001550 0.000000
  outer loop
    vertex -0.177601 0.032000 -0.060119
    vertex -0.080411 0.032000 -0.030496
    vertex -0.172109 0.032000 -0.074395
  endloop
endfacet
facet normal 0.000000 0.001056 0.000000
  outer loop
    vertex -0.172109 0.032000 -0.074395
    vertex -0.080411 0.032000 -0.030496
    vertex -0.076149 0.032000 -0.039966
  endloop
endfacet
facet normal -0.000000 0.001551 0.000000
  outer loop
    vertex -0.172109 0.032000 -0.074395
    vertex -0.076149 0.032000 -0.039966
    vertex -0.165473 0.032000 -0.088176
  endloop
endfacet
facet normal -0.000000 0.001552 0.000000
  outer loop
    vertex -0.165473 0.032000 -0.088176
    vertex -0.076149 0.032000 -0.039966
    vertex -0.157735 0.032000 -0.101370
  endloop
endfacet
facet normal 0.000000 0.001055 0.000000
  outer loop
    vertex -0.157735 0.032000 -0.101370
    vertex -0.076149 0.032000 -0.039966
    vertex -0.070777 0.032000 -0.048854
  endloop
endfacet
facet normal -0.000000 0.001550 0.000000
  outer loop
    vertex -0.157735 0.032000 -0.101370
    vertex -0.070777 0.032000 -0.048854
    vertex -0.148948 0.032000 -0.113890
  endloop
endfacet
facet normal 0.000000 0.001056 0.000000
  outer loop
    vertex -0.148948 0.032000 -0.113890
    vertex -0.070777 0.032000 -0.048854
    vertex -0.064372 0.032000 -0.057029
  endloop
endfacet
facet normal -0.000000 0.001551 0.000000
  outer loop
    vertex -0.148948 0.032000 -0.113890
    vertex -0.064372 0.032000 -0.057029
    vertex -0.139169 0.032000 -0.125651
  endloop
endfacet
facet normal -0.000000 0.001552 0.000000
  outer loop
    vertex -0.139169 0.032000 -0.125651
    vertex -0.064372 0.032000 -0.057029
    vertex -0.128464 0.032000 -0.136577
  endloop
endfacet
facet normal 0.000000 0.001055 0.000000
  outer loop
    vertex -0.128464 0.032000 -0.136577
    vertex -0.064372 0.032000 -0.057029
    vertex -0.057029 0.032000 -0.064372
  endloop
endfacet
facet normal -0.000000 0.001550 0.000000
  outer loop
    vertex -0.128464 0.032000 -0.136577
    vertex -0.057029 0.032000 -0.064372
    vertex -0.116904 0.032000 -0.146593
  endloop
endfacet
facet normal 0.000000 0.001056 0.000000
  outer loop
    vertex -0.116904 0.032000 -0.146593
    vertex -0.057029 0.032000 -0.064372
    vertex -0.048854 0.032000 -0.070777
  endloop
endfacet
facet normal -0.000000 0.001551 0.000000
  outer loop
    vertex -0.116904 0.032000 -0.146593
    vertex -0.048854 0.032000 -0.070777
    vertex -0.104567 0.032000 -0.155634
  endloop
endfacet
facet normal -0.000000 0.001552 0.000000
  outer loop
    vertex -0.104567 0.032000 -0.155634
    vertex -0.048854 0.032000 -0.070777
    vertex -0.091533 0.032000 -0.163640
  endloop
endfacet
facet normal 0.000000 0.001055 0.000000
  outer loop
    vertex -0.091533 0.032000 -0.163640
    vertex -0.048854 0.032000 -0.070777
    vertex -0.039966 0.032000 -0.076149
  endloop
endfacet
facet normal -0.000000 0.001550 0.000000
  outer loop
    vertex -0.091533 0.032000 -0.163640
    vertex -0.039966 0.032000 -0.076149
    vertex -0.077890 0.032000 -0.170556
  endloop
endfacet
facet normal 0.000000 0.001056 0.000000
  outer loop
    vertex -0.077890 0.032000 -0.170556
    vertex -0.039966 0.032000 -0.076149
    vertex -0.030496 0.032000 -0.080411
  endloop
endfacet
facet normal -0.000000 0.001551 0.000000
  outer loop
    vertex -0.077890 0.032000 -0.170556
    vertex -0.030496 0.032000 -0.080411
    vertex -0.063729 0.032000 -0.176337
  endloop
endfacet
facet normal -0.000000 0.001552 0.000000
  outer loop
    vertex -0.063729 0.032000 -0.176337
    vertex -0.030496 0.032000 -0.080411
    vertex -0.049144 0.032000 -0.180945
  endloop
endfacet
facet normal 0.000000 0.001054 0.000000
  outer loop
    vertex -0.049144 0.032000 -0.180945
    vertex -0.030496 0.032000 -0.080411
    vertex -0.020581 0.032000 -0.083501
  endloop
endfacet
facet normal -0.000000 0.001550 0.000000
  outer loop
    vertex -0.049144 0.032000 -0.180945
    vertex -0.020581 0.032000 -0.083501
    vertex -0.034232 0.032000 -0.184349
  endloop
endfacet
facet normal 0.000000 0.001056 0.000000
  outer loop
    vertex -0.034232 0.032000 -0.184349
    vertex -0.020581 0.032000 -0.083501
    vertex -0.010366 0.032000 -0.085373
  endloop
endfacet
facet normal -0.000000 0.001550 0.000000
  outer loop
    vertex -0.034232 0.032000 -0.184349
    vertex -0.010366 0.032000 -0.085373
    vertex -0.019092 0.032000 -0.186525
  endloop
endfacet
facet normal -0.000000 0.001552 0.000000
  outer loop
    vertex -0.019092 0.032000 -0.186525
    vertex -0.010366 0.032000 -0.085373
    vertex -0.003825 0.032000 -0.187461
  endloop
endfacet
facet normal 0.000000 0.001054 -0.000000
  outer loop
    vertex -0.003825 0.032000 -0.187461
    vertex -0.010366 0.032000 -0.085373
    vertex 0.000000 0.032000 -0.086000
  endloop
endfacet
facet normal 0.000000 0.001550 0.000000
  outer loop
    vertex -0.003825 0.032000 -0.187461
    vertex 0.000000 0.032000 -0.086000
    vertex 0.011468 0.032000 -0.187149
  endloop
endfacet
facet normal 0.000000 0.001056 0.000000
  outer loop
    vertex 0.011468 0.032000 -0.187149
    vertex 0.000000 0.032000 -0.086000
    vertex 0.010366 0.032000 -0.085373
  endloop
endfacet
facet normal 0.000000 0.001550 -0.000000
  outer loop
    vertex 0.011468 0.032000 -0.187149
    vertex 0.010366 0.032000 -0.085373
    vertex 0.026684 0.032000 -0.185592
  endloop
endfacet
facet normal 0.000000 0.001054 0.000000
  outer loop
    vertex 0.026684 0.032000 -0.185592
    vertex 0.010366 0.032000 -0.085373
    vertex 0.020581 0.032000 -0.083501
  endloop
endfacet
facet normal 0.000000 0.001552 -0.000000
  outer loop
    vertex 0.026684 0.032000 -0.185592
    vertex 0.020581 0.032000 -0.083501
    vertex 0.041723 0.032000 -0.182799
  endloop
endfacet
facet normal 0.000000 0.001550 -0.000000
  outer loop
    vertex 0.041723 0.032000 -0.182799
    vertex 0.020581 0.032000 -0.083501
    vertex 0.056484 0.032000 -0.178790
  endloop
endfacet
facet normal 0.000000 0.001056 0.000000
  outer loop
    vertex 0.056484 0.032000 -0.178790
    vertex 0.020581 0.032000 -0.083501
    vertex 0.030496 0.032000 -0.080411
  endloop
endfacet
facet normal 0.000000 0.001550 -0.000000
  outer loop
    vertex 0.056484 0.032000 -0.178790
    vertex 0.030496 0.032000 -0.080411
    vertex 0.070869 0.032000 -0.173591
  endloop
endfacet
facet normal 0.000000 0.001055 0.000000
  outer loop
    vertex 0.070869 0.032000 -0.173591
    vertex 0.030496 0.032000 -0.080411
    vertex 0.039966 0.032000 -0.076149
  endloop
endfacet
facet normal 0.000000 0.001552 -0.000000
  outer loop
    vertex 0.070869 0.032000 -0.173591
    vertex 0.039966 0.032000 -0.076149
    vertex 0.084782 0.032000 -0.167237
  endloop
endfacet
facet normal 0.000000 0.001551 -0.000000
  outer loop
    vertex 0.084782 0.032000 -0.167237
    vertex 0.039966 0.032000 -0.076149
    vertex 0.098132 0.032000 -0.159770
  endloop
endfacet
facet normal 0.000000 0.001056 0.000000
  outer loop
    vertex 0.098132 0.032000 -0.159770
    vertex 0.039966 0.032000 -0.076149
    vertex 0.048854 0.032000 -0.070777
  endloop
endfacet
facet normal 0.000000 0.001550 -0.000000
  outer loop
    vertex 0.098132 0.032000 -0.159770
    vertex 0.048854 0.032000 -0.070777
    vertex 0.110828 0.032000 -0.151240
  endloop
endfacet
facet normal 0.000000 0.001055 0.000000
  outer loop
    vertex 0.110828 0.032000 -0.151240
    vertex 0.048854 0.032000 -0.070777
    vertex 0.057029 0.032000 -0.064372
  endloop
endfacet
facet normal 0.000000 0.001552 -0.000000
  outer loop
    vertex 0.110828 0.032000 -0.151240
    vertex 0.057029 0.032000 -0.064372
    vertex 0.122786 0.032000 -0.141703
  endloop
endfacet
facet normal 0.000000 0.001551 -0.000000
  outer loop
    vertex 0.122786 0.032000 -0.141703
    vertex 0.057029 0.032000 -0.064372
    vertex 0.133928 0.032000 -0.131223
  endloop
endfacet
facet normal 0.000000 0.001056 0.000000
  outer loop
    vertex 0.133928 0.032000 -0.131223
    vertex 0.057029 0.032000 -0.064372
    vertex 0.064372 0.032000 -0.057029
  endloop
endfacet
facet normal 0.000000 0.001550 -0.000000
  outer loop
    vertex 0.133928 0.032000 -0.131223
    vertex 0.064372 0.032000 -0.057029
    vertex 0.144178 0.032000 -0.119870
  endloop
endfacet
facet normal 0.000000 0.001055 0.000000
  outer loop
    vertex 0.144178 0.032000 -0.119870
    vertex 0.064372 0.032000 -0.057029
    vertex 0.070777 0.032000 -0.048854
  endloop
endfacet
facet normal 0.000000 0.001552 -0.000000
  outer loop
    vertex 0.144178 0.032000 -0.119870
    vertex 0.070777 0.032000 -0.048854
    vertex 0.153469 0.032000 -0.107720
  endloop
endfacet
facet normal 0.000000 0.001551 -0.000000
  outer loop
    vertex 0.153469 0.032000 -0.107720
    vertex 0.070777 0.032000 -0.048854
    vertex 0.161739 0.032000 -0.094852
  endloop
endfacet
facet normal 0.000000 0.001056 0.000000
  outer loop
    vertex 0.161739 0.032000 -0.094852
    vertex 0.070777 0.032000 -0.048854
    vertex 0.076149 0.032000 -0.039966
  endloop
endfacet
facet normal 0.000000 0.001550 -0.000000
  outer loop
    vertex 0.161739 0.032000 -0.094852
    vertex 0.076149 0.032000 -0.039966
    vertex 0.168932 0.032000 -0.081353
  endloop
endfacet
facet normal 0.000000 0.001055 0.000000
  outer loop
    vertex 0.168932 0.032000 -0.081353
    vertex 0.076149 0.032000 -0.039966
    vertex 0.080411 0.032000 -0.030496
  endloop
endfacet
facet normal 0.000000 0.001551 -0.000000
  outer loop
    vertex 0.168932 0.032000 -0.081353
    vertex 0.080411 0.032000 -0.030496
    vertex 0.175001 0.032000 -0.067313
  endloop
endfacet
facet normal 0.000000 0.001551 -0.000000
  outer loop
    vertex 0.175001 0.032000 -0.067313
    vertex 0.080411 0.032000 -0.030496
    vertex 0.179905 0.032000 -0.052825
  endloop
endfacet
facet normal 0.000000 0.001055 0.000000
  outer loop
    vertex 0.179905 0.032000 -0.052825
    vertex 0.080411 0.032000 -0.030496
    vertex 0.083501 0.032000 -0.020581
  endloop
endfacet
facet normal 0.000000 0.001550 -0.000000
  outer loop
    vertex 0.179905 0.032000 -0.052825
    vertex 0.083501 0.032000 -0.020581
    vertex 0.183612 0.032000 -0.037985
  endloop
endfacet
facet normal 0.000000 0.001055 0.000000
  outer loop
    vertex 0.183612 0.032000 -0.037985
    vertex 0.083501 0.032000 -0.020581
    vertex 0.085373 0.032000 -0.010366
  endloop
endfacet
facet normal 0.000000 0.001551 -0.000000
  outer loop
    vertex 0.183612 0.032000 -0.037985
    vertex 0.085373 0.032000 -0.010366
    vertex 0.186097 0.032000 -0.022893
  endloop
endfacet
facet normal 0.000000 0.001551 -0.000000
  outer loop
    vertex 0.186097 0.032000 -0.022893
    vertex 0.085373 0.032000 -0.010366
    vertex 0.187344 0.032000 -0.007648
  endloop
endfacet
facet normal 0.000000 0.001055 0.000000
  outer loop
    vertex 0.187344 0.032000 -0.007648
    vertex 0.085373 0.032000 -0.010366
    vertex 0.086000 0.032000 0.000000
  endloop
endfacet
facet normal 0.000000 0.001550 -0.000000
  outer loop
    vertex 0.187344 0.032000 -0.007648
    vertex 0.086000 0.032000 0.000000
    vertex 0.187344 0.032000 0.007648
  endloop
endfacet
facet normal 0.000000 0.001055 0.000000
  outer loop
    vertex 0.187344 0.032000 0.007648
    vertex 0.086000 0.032000 0.000000
    vertex 0.085373 0.032000 0.010366
  endloop
endfacet
facet normal 0.000000 0.001551 0.000000
  outer loop
    vertex 0.187344 0.032000 0.007648
    vertex 0.085373 0.032000 0.010366
    vertex 0.186097 0.032000 0.022893
  endloop
endfacet
facet normal 0.000000 0.001551 0.000000
  outer loop
    vertex 0.186097 0.032000 0.022893
    vertex 0.085373 0.032000 0.010366
    vertex 0.183612 0.032000 0.037985
  endloop
endfacet
facet normal 0.000000 0.001055 0.000000
  outer loop
    vertex 0.183612 0.032000 0.037985
    vertex 0.085373 0.032000 0.010366
    vertex 0.083501 0.032000 0.020581
  endloop
endfacet
facet normal 0.000000 0.001550 0.000000
  outer loop
    vertex 0.183612 0.032000 0.037985
    vertex 0.083501 0.032000 0.020581
    vertex 0.179905 0.032000 0.052825
  endloop
endfacet
facet normal 0.000000 0.001055 0.000000
  outer loop
    vertex 0.179905 0.032000 0.052825
    vertex 0.083501 0.032000 0.020581
    vertex 0.080411 0.032000 0.030496
  endloop
endfacet
facet normal 0.000000 0.001551 0.000000
  outer loop
    vertex 0.179905 0.032000 0.052825
    vertex 0.080411 0.032000 0.030496
    vertex 0.175001 0.032000 0.067313
  endloop
endfacet
facet normal 0.000000 0.001551 0.000000
  outer loop
    vertex 0.175001 0.032000 0.067313
    vertex 0.080411 0.032000 0.030496
    vertex 0.168932 0.032000 0.081353
  endloop
endfacet
facet normal 0.000000 0.001055 0.000000
  outer loop
    vertex 0.168932 0.032000 0.081353
    vertex 0.080411 0.032000 0.030496
    vertex 0.076149 0.032000 0.039966
  endloop
endfacet
facet normal 0.000000 0.001550 0.000000
  outer loop
    vertex 0.168932 0.032000 0.081353
    vertex 0.076149 0.032000 0.039966
    vertex 0.161739 0.032000 0.094852
  endloop
endfacet
facet normal 0.000000 0.001056 0.000000
  outer loop
    vertex 0.161739 0.032000 0.094852
    vertex 0.076149 0.032000 0.039966
    vertex 0.070777 0.032000 0.048854
  endloop
endfacet
facet normal 0.000000 0.001551 0.000000
  outer loop
    vertex 0.161739 0.032000 0.094852
    vertex 0.070777 0.032000 0.048854
    vertex 0.153469 0.032000 0.107720
  endloop
endfacet
facet normal 0.000000 0.001552 0.000000
  outer loop
    vertex 0.153469 0.032000 0.107720
    vertex 0.070777 0.032000 0.048854
    vertex 0.144178 0.032000 0.119870
  endloop
endfacet
facet normal 0.000000 0.001055 0.000000
  outer loop
    vertex 0.144178 0.032000 0.119870
    vertex 0.070777 0.032000 0.048854
    vertex 0.064372 0.032000 0.057029
  endloop
endfacet
facet normal 0.000000 0.001550 0.000000
  outer loop
    vertex 0.144178 0.032000 0.119870
    vertex 0.064372 0.032000 0.057029
    vertex 0.133928 0.032000 0.131223
  endloop
endfacet
facet normal 0.000000 0.001056 0.000000
  outer loop
    vertex 0.133928 0.032000 0.131223
    vertex 0.064372 0.032000 0.057029
    vertex 0.057029 0.032000 0.064372
  endloop
endfacet
facet normal 0.000000 0.001551 0.000000
  outer loop
    vertex 0.133928 0.032000 0.131223
    vertex 0.057029 0.032000 0.064372
    vertex 0.122786 0.032000 0.141703
  endloop
endfacet
facet normal 0.000000 0.001552 0.000000
  outer loop
    vertex 0.122786 0.032000 0.141703
    vertex 0.057029 0.032000 0.064372
    vertex 0.110828 0.032000 0.151240
  endloop
endfacet
facet normal 0.000000 0.001055 0.000000
  outer loop
    vertex 0.110828 0.032000 0.151240
    vertex 0.057029 0.032000 0.064372
    vertex 0.048854 0.032000 0.070777
  endloop
endfacet
facet normal 0.000000 0.001550 0.000000
  outer loop
    vertex 0.110828 0.032000 0.151240
    vertex 0.048854 0.032000 0.070777
    vertex 0.098132 0.032000 0.159770
  endloop
endfacet
facet normal 0.000000 0.001056 0.000000
  outer loop
    vertex 0.098132 0.032000 0.159770
    vertex 0.048854 0.032000 0.070777
    vertex 0.039966 0.032000 0.076149
  endloop
endfacet
facet normal 0.000000 0.001551 0.000000
  outer loop
    vertex 0.098132 0.032000 0.159770
    vertex 0.039966 0.032000 0.076149
    vertex 0.084782 0.032000 0.167237
  endloop
endfacet
facet normal 0.000000 0.001552 0.000000
  outer loop
    vertex 0.084782 0.032000 0.167237
    vertex 0.039966 0.032000 0.076149
    vertex 0.070869 0.032000 0.173591
  endloop
endfacet
facet normal 0.000000 0.001055 0.000000
  outer loop
    vertex 0.070869 0.032000 0.173591
    vertex 0.039966 0.032000 0.076149
    vertex 0.030496 0.032000 0.080411
  endloop
endfacet
facet normal 0.000000 0.001550 0.000000
  outer loop
    vertex 0.070869 0.032000 0.173591
    vertex 0.030496 0.032000 0.080411
    vertex 0.056484 0.032000 0.178790
  endloop
endfacet
facet normal 0.000000 0.001056 0.000000
  outer loop
    vertex 0.056484 0.032000 0.178790
    vertex 0.030496 0.032000 0.080411
    vertex 0.020581 0.032000 0.083501
  endloop
endfacet
facet normal 0.000000 0.001550 0.000000
  outer loop
    vertex 0.056484 0.032000 0.178790
    vertex 0.020581 0.032000 0.083501
    vertex 0.041723 0.032000 0.182799
  endloop
endfacet
facet normal 0.000000 0.001552 0.000000
  outer loop
    vertex 0.041723 0.032000 0.182799
    vertex 0.020581 0.032000 0.083501
    vertex 0.026684 0.032000 0.185592
  endloop
endfacet
facet normal 0.000000 0.001054 0.000000
  outer loop
    vertex 0.026684 0.032000 0.185592
    vertex 0.020581 0.032000 0.083501
    vertex 0.010366 0.032000 0.085373
  endloop
endfacet
facet normal 0.000000 0.001550 0.000000
  outer loop
    vertex 0.026684 0.032000 0.185592
    vertex 0.010366 0.032000 0.085373
    vertex 0.011468 0.032000 0.187149
  endloop
endfacet
facet normal 0.000000 0.001056 0.000000
  outer loop
    vertex 0.011468 0.032000 0.187149
    vertex 0.010366 0.032000 0.085373
    vertex 0.000000 0.032000 0.086000
  endloop
endfacet
facet normal 0.000000 0.001550 0.000000
  outer loop
    vertex 0.011468 0.032000 0.187149
    vertex 0.000000 0.032000 0.086000
    vertex -0.003825 0.032000 0.187461
  endloop
endfacet
facet normal 0.000000 0.001054 0.000000
  outer loop
    vertex -0.003825 0.032000 0.187461
    vertex 0.000000 0.032000 0.086000
    vertex -0.010366 0.032000 0.085373
  endloop
endfacet
facet normal 0.000000 0.001552 0.000000
  outer loop
    vertex -0.003825 0.032000 0.187461
    vertex -0.010366 0.032000 0.085373
    vertex -0.019092 0.032000 0.186525
  endloop
endfacet
facet normal 0.000000 0.001550 0.000000
  outer loop
    vertex -0.019092 0.032000 0.186525
    vertex -0.010366 0.032000 0.085373
    vertex -0.034232 0.032000 0.184349
  endloop
endfacet
facet normal 0.000000 0.001056 0.000000
  outer loop
    vertex -0.034232 0.032000 0.184349
    vertex -0.010366 0.032000 0.085373
    vertex -0.020581 0.032000 0.083501
  endloop
endfacet
facet normal 0.000000 0.001550 0.000000
  outer loop
    vertex -0.034232 0.032000 0.184349
    vertex -0.020581 0.032000 0.083501
    vertex -0.049144 0.032000 0.180945
  endloop
endfacet
facet normal 0.000000 0.001054 0.000000
  outer loop
    vertex -0.049144 0.032000 0.180945
    vertex -0.020581 0.032000 0.083501
    vertex -0.030496 0.032000 0.080411
  endloop
endfacet
facet normal 0.000000 0.001552 0.000000
  outer loop
    vertex -0.049144 0.032000 0.180945
    vertex -0.030496 0.032000 0.080411
    vertex -0.063729 0.032000 0.176337
  endloop
endfacet
facet normal 0.000000 0.001551 0.000000
  outer loop
    vertex -0.063729 0.032000 0.176337
    vertex -0.030496 0.032000 0.080411
    vertex -0.077890 0.032000 0.170556
  endloop
endfacet
facet normal 0.000000 0.001056 0.000000
  outer loop
    vertex -0.077890 0.032000 0.170556
    vertex -0.030496 0.032000 0.080411
    vertex -0.039966 0.032000 0.076149
  endloop
endfacet
facet normal 0.000000 0.001550 0.000000
  outer loop
    vertex -0.077890 0.032000 0.170556
    vertex -0.039966 0.032000 0.076149
    vertex -0.091533 0.032000 0.163640
  endloop
endfacet
facet normal 0.000000 0.001055 0.000000
  outer loop
    vertex -0.091533 0.032000 0.163640
    vertex -0.039966 0.032000 0.076149
    vertex -0.048854 0.032000 0.070777
  endloop
endfacet
facet normal 0.000000 0.001552 0.000000
  outer loop
    vertex -0.091533 0.032000 0.163640
    vertex -0.048854 0.032000 0.070777
    vertex -0.104567 0.032000 0.155634
  endloop
endfacet
facet normal 0.000000 0.001551 0.000000
  outer loop
    vertex -0.104567 0.032000 0.155634
    vertex -0.048854 0.032000 0.070777
    vertex -0.116904 0.032000 0.146593
  endloop
endfacet
facet normal 0.000000 0.001056 0.000000
  outer loop
    vertex -0.116904 0.032000 0.146593
    vertex -0.048854 0.032000 0.070777
    vertex -0.057029 0.032000 0.064372
  endloop
endfacet
facet normal 0.000000 0.001550 0.000000
  outer loop
    vertex -0.116904 0.032000 0.146593
    vertex -0.057029 0.032000 0.064372
    vertex -0.128464 0.032000 0.136577
  endloop
endfacet
facet normal 0.000000 0.001055 0.000000
  outer loop
    vertex -0.128464 0.032000 0.136577
    vertex -0.057029 0.032000 0.064372
    vertex -0.064372 0.032000 0.057029
  endloop
endfacet
facet normal 0.000000 0.001552 0.000000
  outer loop
    vertex -0.128464 0.032000 0.136577
    vertex -0.064372 0.032000 0.057029
    vertex -0.139169 0.032000 0.125651
  endloop
endfacet
facet normal 0.000000 0.001551 0.000000
  outer loop
    vertex -0.139169 0.032000 0.125651
    vertex -0.064372 0.032000 0.057029
    vertex -0.148948 0.032000 0.113890
  endloop
endfacet
facet normal 0.000000 0.001056 0.000000
  outer loop
    vertex -0.148948 0.032000 0.113890
    vertex -0.064372 0.032000 0.057029
    vertex -0.070777 0.032000 0.048854
  endloop
endfacet
facet normal 0.000000 0.001550 0.000000
  outer loop
    vertex -0.148948 0.032000 0.113890
    vertex -0.070777 0.032000 0.048854
    vertex -0.157735 0.032000 0.101370
  endloop
endfacet
facet normal 0.000000 0.001055 0.000000
  outer loop
    vertex -0.157735 0.032000 0.101370
    vertex -0.070777 0.032000 0.048854
    vertex -0.076149 0.032000 0.039966
  endloop
endfacet
facet normal 0.000000 0.001552 0.000000
  outer loop
    vertex -0.157735 0.032000 0.101370
    vertex -0.076149 0.032000 0.039966
    vertex -0.165473 0.032000 0.088176
  endloop
endfacet
facet normal 0.000000 0.001551 0.000000
  outer loop
    vertex -0.165473 0.032000 0.088176
    vertex -0.076149 0.032000 0.039966
    vertex -0.172109 0.032000 0.074395
  endloop
endfacet
facet normal 0.000000 0.001056 0.000000
  outer loop
    vertex -0.172109 0.032000 0.074395
    vertex -0.076149 0.032000 0.039966
    vertex -0.080411 0.032000 0.030496
  endloop
endfacet
facet normal 0.000000 0.001550 0.000000
  outer loop
    vertex -0.172109 0.032000 0.074395
    vertex -0.080411 0.032000 0.030496
    vertex -0.177601 0.032000 0.060119
  endloop
endfacet
facet normal 0.000000 0.001055 0.000000
  outer loop
    vertex -0.177601 0.032000 0.060119
    vertex -0.080411 0.032000 0.030496
    vertex -0.083501 0.032000 0.020581
  endloop
endfacet
facet normal 0.000000 0.001551 0.000000
  outer loop
    vertex -0.177601 0.032000 0.060119
    vertex -0.083501 0.032000 0.020581
    vertex -0.181910 0.032000 0.045443
  endloop
endfacet
facet normal 0.000000 0.001551 0.000000
  outer loop
    vertex -0.181910 0.032000 0.045443
    vertex -0.083501 0.032000 0.020581
    vertex -0.185009 0.032000 0.030464
  endloop
endfacet
facet normal 0.000000 0.001055 0.000000
  outer loop
    vertex -0.185009 0.032000 0.030464
    vertex -0.083501 0.032000 0.020581
    vertex -0.085373 0.032000 0.010366
  endloop
endfacet
facet normal 0.000000 0.001550 0.000000
  outer loop
    vertex -0.185009 0.032000 0.030464
    vertex -0.085373 0.032000 0.010366
    vertex -0.186876 0.032000 0.015283
  endloop
endfacet
facet normal 0.000000 0.001055 0.000000
  outer loop
    vertex -0.186876 0.032000 0.015283
    vertex -0.085373 0.032000 0.010366
    vertex -0.086000 0.032000 0.000000
  endloop
endfacet
facet normal -0.000000 -0.001055 0.000000
  outer loop
    vertex -0.085373 0.000000 0.010366
    vertex -0.186876 0.000000 0.015283
    vertex -0.086000 0.000000 0.000000
  endloop
endfacet
facet normal 0.000000 -0.001551 0.000000
  outer loop
    vertex -0.086000 0.000000 0.000000
    vertex -0.186876 0.000000 0.015283
    vertex -0.187500 0.000000 0.000000
  endloop
endfacet
facet normal -0.000000 -0.001551 0.000000
  outer loop
    vertex -0.086000 0.000000 0.000000
    vertex -0.187500 0.000000 0.000000
    vertex -0.186876 0.000000 -0.015283
  endloop
endfacet
facet normal 0.000000 -0.001550 0.000000
  outer loop
    vertex -0.186876 0.000000 0.015283
    vertex -0.085373 0.000000 0.010366
    vertex -0.185009 0.000000 0.030464
  endloop
endfacet
facet normal 0.000000 -0.001055 0.000000
  outer loop
    vertex -0.185009 0.000000 0.030464
    vertex -0.085373 0.000000 0.010366
    vertex -0.083501 0.000000 0.020581
  endloop
endfacet
facet normal 0.000000 -0.001551 0.000000
  outer loop
    vertex -0.185009 0.000000 0.030464
    vertex -0.083501 0.000000 0.020581
    vertex -0.181910 0.000000 0.045443
  endloop
endfacet
facet normal 0.000000 -0.001551 0.000000
  outer loop
    vertex -0.181910 0.000000 0.045443
    vertex -0.083501 0.000000 0.020581
    vertex -0.177601 0.000000 0.060119
  endloop
endfacet
facet normal 0.000000 -0.001055 0.000000
  outer loop
    vertex -0.177601 0.000000 0.060119
    vertex -0.083501 0.000000 0.020581
    vertex -0.080411 0.000000 0.030496
  endloop
endfacet
facet normal 0.000000 -0.001550 0.000000
  outer loop
    vertex -0.177601 0.000000 0.060119
    vertex -0.080411 0.000000 0.030496
    vertex -0.172109 0.000000 0.074395
  endloop
endfacet
facet normal 0.000000 -0.001056 0.000000
  outer loop
    vertex -0.172109 0.000000 0.074395
    vertex -0.080411 0.000000 0.030496
    vertex -0.076149 0.000000 0.039966
  endloop
endfacet
facet normal 0.000000 -0.001551 0.000000
  outer loop
    vertex -0.172109 0.000000 0.074395
    vertex -0.076149 0.000000 0.039966
    vertex -0.165473 0.000000 0.088176
  endloop
endfacet
facet normal 0.000000 -0.001552 0.000000
  outer loop
    vertex -0.165473 0.000000 0.088176
    vertex -0.076149 0.000000 0.039966
    vertex -0.157735 0.000000 0.101370
  endloop
endfacet
facet normal 0.000000 -0.001055 0.000000
  outer loop
    vertex -0.157735 0.000000 0.101370
    vertex -0.076149 0.000000 0.039966
    vertex -0.070777 0.000000 0.048854
  endloop
endfacet
facet normal 0.000000 -0.001550 0.000000
  outer loop
    vertex -0.157735 0.000000 0.101370
    vertex -0.070777 0.000000 0.048854
    vertex -0.148948 0.000000 0.113890
  endloop
endfacet
facet normal 0.000000 -0.001056 0.000000
  outer loop
    vertex -0.148948 0.000000 0.113890
    vertex -0.070777 0.000000 0.048854
    vertex -0.064372 0.000000 0.057029
  endloop
endfacet
facet normal 0.000000 -0.001551 0.000000
  outer loop
    vertex -0.148948 0.000000 0.113890
    vertex -0.064372 0.000000 0.057029
    vertex -0.139169 0.000000 0.125651
  endloop
endfacet
facet normal 0.000000 -0.001552 0.000000
  outer loop
    vertex -0.139169 0.000000 0.125651
    vertex -0.064372 0.000000 0.057029
    vertex -0.128464 0.000000 0.136577
  endloop
endfacet
facet normal 0.000000 -0.001055 0.000000
  outer loop
    vertex -0.128464 0.000000 0.136577
    vertex -0.064372 0.000000 0.057029
    vertex -0.057029 0.000000 0.064372
  endloop
endfacet
facet normal 0.000000 -0.001550 0.000000
  outer loop
    vertex -0.128464 0.000000 0.136577
    vertex -0.057029 0.000000 0.064372
    vertex -0.116904 0.000000 0.146593
  endloop
endfacet
facet normal 0.000000 -0.001056 0.000000
  outer loop
    vertex -0.116904 0.000000 0.146593
    vertex -0.057029 0.000000 0.064372
    vertex -0.048854 0.000000 0.070777
  endloop
endfacet
facet normal 0.000000 -0.001551 0.000000
  outer loop
    vertex -0.116904 0.000000 0.146593
    vertex -0.048854 0.000000 0.070777
    vertex -0.104567 0.000000 0.155634
  endloop
endfacet
facet normal 0.000000 -0.001552 0.000000
  outer loop
    vertex -0.104567 0.000000 0.155634
    vertex -0.048854 0.000000 0.070777
    vertex -0.091533 0.000000 0.163640
  endloop
endfacet
facet normal 0.000000 -0.001055 0.000000
  outer loop
    vertex -0.091533 0.000000 0.163640
    vertex -0.048854 0.000000 0.070777
    vertex -0.039966 0.000000 0.076149
  endloop
endfacet
facet normal 0.000000 -0.001550 0.000000
  outer loop
    vertex -0.091533 0.000000 0.163640
    vertex -0.039966 0.000000 0.076149
    vertex -0.077890 0.000000 0.170556
  endloop
endfacet
facet normal 0.000000 -0.001056 0.000000
  outer loop
    vertex -0.077890 0.000000 0.170556
    vertex -0.039966 0.000000 0.076149
    vertex -0.030496 0.000000 0.080411
  endloop
endfacet
facet normal 0.000000 -0.001551 0.000000
  outer loop
    vertex -0.077890 0.000000 0.170556
    vertex -0.030496 0.000000 0.080411
    vertex -0.063729 0.000000 0.176337
  endloop
endfacet
facet normal 0.000000 -0.001552 0.000000
  outer loop
    vertex -0.063729 0.000000 0.176337
    vertex -0.030496 0.000000 0.080411
    vertex -0.049144 0.000000 0.180945
  endloop
endfacet
facet normal 0.000000 -0.001054 0.000000
  outer loop
    vertex -0.049144 0.000000 0.180945
    vertex -0.030496 0.000000 0.080411
    vertex -0.020581 0.000000 0.083501
  endloop
endfacet
facet normal 0.000000 -0.001550 0.000000
  outer loop
    vertex -0.049144 0.000000 0.180945
    vertex -0.020581 0.000000 0.083501
    vertex -0.034232 0.000000 0.184349
  endloop
endfacet
facet normal 0.000000 -0.001056 0.000000
  outer loop
    vertex -0.034232 0.000000 0.184349
    vertex -0.020581 0.000000 0.083501
    vertex -0.010366 0.000000 0.085373
  endloop
endfacet
facet normal 0.000000 -0.001550 0.000000
  outer loop
    vertex -0.034232 0.000000 0.184349
    vertex -0.010366 0.000000 0.085373
    vertex -0.019092 0.000000 0.186525
  endloop
endfacet
facet normal 0.000000 -0.001552 0.000000
  outer loop
    vertex -0.019092 0.000000 0.186525
    vertex -0.010366 0.000000 0.085373
    vertex -0.003825 0.000000 0.187461
  endloop
endfacet
facet normal 0.000000 -0.001054 -0.000000
  outer loop
    vertex -0.003825 0.000000 0.187461
    vertex -0.010366 0.000000 0.085373
    vertex 0.000000 0.000000 0.086000
  endloop
endfacet
facet normal 0.000000 -0.001550 0.000000
  outer loop
    vertex -0.003825 0.000000 0.187461
    vertex 0.000000 0.000000 0.086000
    vertex 0.011468 0.000000 0.187149
  endloop
endfacet
facet normal 0.000000 -0.001056 0.000000
  outer loop
    vertex 0.011468 0.000000 0.187149
    vertex 0.000000 0.000000 0.086000
    vertex 0.010366 0.000000 0.085373
  endloop
endfacet
facet normal 0.000000 -0.001550 -0.000000
  outer loop
    vertex 0.011468 0.000000 0.187149
    vertex 0.010366 0.000000 0.085373
    vertex 0.026684 0.000000 0.185592
  endloop
endfacet
facet normal 0.000000 -0.001054 0.000000
  outer loop
    vertex 0.026684 0.000000 0.185592
    vertex 0.010366 0.000000 0.085373
    vertex 0.020581 0.000000 0.083501
  endloop
endfacet
facet normal 0.000000 -0.001552 -0.000000
  outer loop
    vertex 0.026684 0.000000 0.185592
    vertex 0.020581 0.000000 0.083501
    vertex 0.041723 0.000000 0.182799
  endloop
endfacet
facet normal 0.000000 -0.001550 -0.000000
  outer loop
    vertex 0.041723 0.000000 0.182799
    vertex 0.020581 0.000000 0.083501
    vertex 0.056484 0.000000 0.178790
  endloop
endfacet
facet normal 0.000000 -0.001056 0.000000
  outer loop
    vertex 0.056484 0.000000 0.178790
    vertex 0.020581 0.000000 0.083501
    vertex 0.030496 0.000000 0.080411
  endloop
endfacet
facet normal 0.000000 -0.001550 -0.000000
  outer loop
    vertex 0.056484 0.000000 0.178790
    vertex 0.030496 0.000000 0.080411
    vertex 0.070869 0.000000 0.173591
  endloop
endfacet
facet normal 0.000000 -0.001055 0.000000
  outer loop
    vertex 0.070869 0.000000 0.173591
    vertex 0.030496 0.000000 0.080411
    vertex 0.039966 0.000000 0.076149
  endloop
endfacet
facet normal 0.000000 -0.001552 -0.000000
  outer loop
    vertex 0.070869 0.000000 0.173591
    vertex 0.039966 0.000000 0.076149
    vertex 0.084782 0.000000 0.167237
  endloop
endfacet
facet normal 0.000000 -0.001551 -0.000000
  outer loop
    vertex 0.084782 0.000000 0.167237
    vertex 0.039966 0.000000 0.076149
    vertex 0.098132 0.000000 0.159770
  endloop
endfacet
facet normal 0.000000 -0.001056 0.000000
  outer loop
    vertex 0.098132 0.000000 0.159770
    vertex 0.039966 0.000000 0.076149
    vertex 0.048854 0.000000 0.070777
  endloop
endfacet
facet normal 0.000000 -0.001550 -0.000000
  outer loop
    vertex 0.098132 0.000000 0.159770
    vertex 0.048854 0.000000 0.070777
    vertex 0.110828 0.000000 0.151240
  endloop
endfacet
facet normal 0.000000 -0.001055 0.000000
  outer loop
    vertex 0.110828 0.000000 0.151240
    vertex 0.048854 0.000000 0.070777
    vertex 0.057029 0.000000 0.064372
  endloop
endfacet
facet normal 0.000000 -0.001552 -0.000000
  outer loop
    vertex 0.110828 0.000000 0.151240
    vertex 0.057029 0.000000 0.064372
    vertex 0.122786 0.000000 0.141703
  endloop
endfacet
facet normal 0.000000 -0.001551 -0.000000
  outer loop
    vertex 0.122786 0.000000 0.141703
    vertex 0.057029 0.000000 0.064372
    vertex 0.133928 0.000000 0.131223
  endloop
endfacet
facet normal 0.000000 -0.001056 0.000000
  outer loop
    vertex 0.133928 0.000000 0.131223
    vertex 0.057029 0.000000 0.064372
    vertex 0.064372 0.000000 0.057029
  endloop
endfacet
facet normal 0.000000 -0.001550 -0.000000
  outer loop
    vertex 0.133928 0.000000 0.131223
    vertex 0.064372 0.000000 0.057029
    vertex 0.144178 0.000000 0.119870
  endloop
endfacet
facet normal 0.000000 -0.001055 0.000000
  outer loop
    vertex 0.144178 0.000000 0.119870
    vertex 0.064372 0.000000 0.057029
    vertex 0.070777 0.000000 0.048854
  endloop
endfacet
facet normal 0.000000 -0.001552 -0.000000
  outer loop
    vertex 0.144178 0.000000 0.119870
    vertex 0.070777 0.000000 0.048854
    vertex 0.153469 0.000000 0.107720
  endloop
endfacet
facet normal 0.000000 -0.001551 -0.000000
  outer loop
    vertex 0.153469 0.000000 0.107720
    vertex 0.070777 0.000000 0.048854
    vertex 0.161739 0.000000 0.094852
  endloop
endfacet
facet normal 0.000000 -0.001056 0.000000
  outer loop
    vertex 0.161739 0.000000 0.094852
    vertex 0.070777 0.000000 0.048854
    vertex 0.076149 0.000000 0.039966
  endloop
endfacet
facet normal 0.000000 -0.001550 -0.000000
  outer loop
    vertex 0.161739 0.000000 0.094852
    vertex 0.076149 0.000000 0.039966
    vertex 0.168932 0.000000 0.081353
  endloop
endfacet
facet normal 0.000000 -0.001055 0.000000
  outer loop
    vertex 0.168932 0.000000 0.081353
    vertex 0.076149 0.000000 0.039966
    vertex 0.080411 0.000000 0.030496
  endloop
endfacet
facet normal 0.000000 -0.001551 -0.000000
  outer loop
    vertex 0.168932 0.000000 0.081353
    vertex 0.080411 0.000000 0.030496
    vertex 0.175001 0.000000 0.067313
  endloop
endfacet
facet normal 0.000000 -0.001551 -0.000000
  outer loop
    vertex 0.175001 0.000000 0.067313
    vertex 0.080411 0.000000 0.030496
    vertex 0.179905 0.000000 0.052825
  endloop
endfacet
facet normal 0.000000 -0.001055 0.000000
  outer loop
    vertex 0.179905 0.000000 0.052825
    vertex 0.080411 0.000000 0.030496
    vertex 0.083501 0.000000 0.020581
  endloop
endfacet
facet normal 0.000000 -0.001550 -0.000000
  outer loop
    vertex 0.179905 0.000000 0.052825
    vertex 0.083501 0.000000 0.020581
    vertex 0.183612 0.000000 0.037985
  endloop
endfacet
facet normal 0.000000 -0.001055 0.000000
  outer loop
    vertex 0.183612 0.000000 0.037985
    vertex 0.083501 0.000000 0.020581
    vertex 0.085373 0.000000 0.010366
  endloop
endfacet
facet normal 0.000000 -0.001551 -0.000000
  outer loop
    vertex 0.183612 0.000000 0.037985
    vertex 0.085373 0.000000 0.010366
    vertex 0.186097 0.000000 0.022893
  endloop
endfacet
facet normal 0.000000 -0.001551 -0.000000
  outer loop
    vertex 0.186097 0.000000 0.022893
    vertex 0.085373 0.000000 0.010366
    vertex 0.187344 0.000000 0.007648
  endloop
endfacet
facet normal -0.000000 -0.001055 0.000000
  outer loop
    vertex 0.187344 0.000000 0.007648
    vertex 0.085373 0.000000 0.010366
    vertex 0.086000 0.000000 0.000000
  endloop
endfacet
facet normal 0.000000 -0.001550 -0.000000
  outer loop
    vertex 0.187344 0.000000 0.007648
    vertex 0.086000 0.000000 0.000000
    vertex 0.187344 0.000000 -0.007648
  endloop
endfacet
facet normal -0.000000 -0.001055 0.000000
  outer loop
    vertex 0.187344 0.000000 -0.007648
    vertex 0.086000 0.000000 0.000000
    vertex 0.085373 0.000000 -0.010366
  endloop
endfacet
facet normal 0.000000 -0.001551 0.000000
  outer loop
    vertex 0.187344 0.000000 -0.007648
    vertex 0.085373 0.000000 -0.010366
    vertex 0.186097 0.000000 -0.022893
  endloop
endfacet
facet normal -0.000000 -0.001551 0.000000
  outer loop
    vertex 0.186097 0.000000 -0.022893
    vertex 0.085373 0.000000 -0.010366
    vertex 0.183612 0.000000 -0.037985
  endloop
endfacet
facet normal 0.000000 -0.001055 0.000000
  outer loop
    vertex 0.183612 0.000000 -0.037985
    vertex 0.085373 0.000000 -0.010366
    vertex 0.083501 0.000000 -0.020581
  endloop
endfacet
facet normal -0.000000 -0.001550 0.000000
  outer loop
    vertex 0.183612 0.000000 -0.037985
    vertex 0.083501 0.000000 -0.020581
    vertex 0.179905 0.000000 -0.052825
  endloop
endfacet
facet normal 0.000000 -0.001055 0.000000
  outer loop
    vertex 0.179905 0.000000 -0.052825
    vertex 0.083501 0.000000 -0.020581
    vertex 0.080411 0.000000 -0.030496
  endloop
endfacet
facet normal -0.000000 -0.001551 0.000000
  outer loop
    vertex 0.179905 0.000000 -0.052825
    vertex 0.080411 0.000000 -0.030496
    vertex 0.175001 0.000000 -0.067313
  endloop
endfacet
facet normal -0.000000 -0.001551 0.000000
  outer loop
    vertex 0.175001 0.000000 -0.067313
    vertex 0.080411 0.000000 -0.030496
    vertex 0.168932 0.000000 -0.081353
  endloop
endfacet
facet normal 0.000000 -0.001055 0.000000
  outer loop
    vertex 0.168932 0.000000 -0.081353
    vertex 0.080411 0.000000 -0.030496
    vertex 0.076149 0.000000 -0.039966
  endloop
endfacet
facet normal -0.000000 -0.001550 0.000000
  outer loop
    vertex 0.168932 0.000000 -0.081353
    vertex 0.076149 0.000000 -0.039966
    vertex 0.161739 0.000000 -0.094852
  endloop
endfacet
facet normal 0.000000 -0.001056 0.000000
  outer loop
    vertex 0.161739 0.000000 -0.094852
    vertex 0.076149 0.000000 -0.039966
    vertex 0.070777 0.000000 -0.048854
  endloop
endfacet
facet normal -0.000000 -0.001551 0.000000
  outer loop
    vertex 0.161739 0.000000 -0.094852
    vertex 0.070777 0.000000 -0.048854
    vertex 0.153469 0.000000 -0.107720
  endloop
endfacet
facet normal -0.000000 -0.001552 0.000000
  outer loop
    vertex 0.153469 0.000000 -0.107720
    vertex 0.070777 0.000000 -0.048854
    vertex 0.144178 0.000000 -0.119870
  endloop
endfacet
facet normal 0.000000 -0.001055 0.000000
  outer loop
    vertex 0.144178 0.000000 -0.119870
    vertex 0.070777 0.000000 -0.048854
    vertex 0.064372 0.000000 -0.057029
  endloop
endfacet
facet normal -0.000000 -0.001550 0.000000
  outer loop
    vertex 0.144178 0.000000 -0.119870
    vertex 0.064372 0.000000 -0.057029
    vertex 0.133928 0.000000 -0.131223
  endloop
endfacet
facet normal 0.000000 -0.001056 0.000000
  outer loop
    vertex 0.133928 0.000000 -0.131223
    vertex 0.064372 0.000000 -0.057029
    vertex 0.057029 0.000000 -0.064372
  endloop
endfacet
facet normal -0.000000 -0.001551 0.000000
  outer loop
    vertex 0.133928 0.000000 -0.131223
    vertex 0.057029 0.000000 -0.064372
    vertex 0.122786 0.000000 -0.141703
  endloop
endfacet
facet normal -0.000000 -0.001552 0.000000
  outer loop
    vertex 0.122786 0.000000 -0.141703
    vertex 0.057029 0.000000 -0.064372
    vertex 0.110828 0.000000 -0.151240
  endloop
endfacet
facet normal 0.000000 -0.001055 0.000000
  outer loop
    vertex 0.110828 0.000000 -0.151240
    vertex 0.057029 0.000000 -0.064372
    vertex 0.048854 0.000000 -0.070777
  endloop
endfacet
facet normal -0.000000 -0.001550 0.000000
  outer loop
    vertex 0.110828 0.000000 -0.151240
    vertex 0.048854 0.000000 -0.070777
    vertex 0.098132 0.000000 -0.159770
  endloop
endfacet
facet normal 0.000000 -0.001056 0.000000
  outer loop
    vertex 0.098132 0.000000 -0.159770
    vertex 0.048854 0.000000 -0.070777
    vertex 0.039966 0.000000 -0.076149
  endloop
endfacet
facet normal -0.000000 -0.001551 0.000000
  outer loop
    vertex 0.098132 0.000000 -0.159770
    vertex 0.039966 0.000000 -0.076149
    vertex 0.084782 0.000000 -0.167237
  endloop
endfacet
facet normal -0.000000 -0.001552 0.000000
  outer loop
    vertex 0.084782 0.000000 -0.167237
    vertex 0.039966 0.000000 -0.076149
    vertex 0.070869 0.000000 -0.173591
  endloop
endfacet
facet normal 0.000000 -0.001055 0.000000
  outer loop
    vertex 0.070869 0.000000 -0.173591
    vertex 0.039966 0.000000 -0.076149
    vertex 0.030496 0.000000 -0.080411
  endloop
endfacet
facet normal -0.000000 -0.001550 0.000000
  outer loop
    vertex 0.070869 0.000000 -0.173591
    vertex 0.030496 0.000000 -0.080411
    vertex 0.056484 0.000000 -0.178790
  endloop
endfacet
facet normal 0.000000 -0.001056 0.000000
  outer loop
    vertex 0.056484 0.000000 -0.178790
    vertex 0.030496 0.000000 -0.080411
    vertex 0.020581 0.000000 -0.083501
  endloop
endfacet
facet normal -0.000000 -0.001550 0.000000
  outer loop
    vertex 0.056484 0.000000 -0.178790
    vertex 0.020581 0.000000 -0.083501
    vertex 0.041723 0.000000 -0.182799
  endloop
endfacet
facet normal -0.000000 -0.001552 0.000000
  outer loop
    vertex 0.041723 0.000000 -0.182799
    vertex 0.020581 0.000000 -0.083501
    vertex 0.026684 0.000000 -0.185592
  endloop
endfacet
facet normal 0.000000 -0.001054 0.000000
  outer loop
    vertex 0.026684 0.000000 -0.185592
    vertex 0.020581 0.000000 -0.083501
    vertex 0.010366 0.000000 -0.085373
  endloop
endfacet
facet normal -0.000000 -0.001550 0.000000
  outer loop
    vertex 0.026684 0.000000 -0.185592
    vertex 0.010366 0.000000 -0.085373
    vertex 0.011468 0.000000 -0.187149
  endloop
endfacet
facet normal 0.000000 -0.001056 0.000000
  outer loop
    vertex 0.011468 0.000000 -0.187149
    vertex 0.010366 0.000000 -0.085373
    vertex 0.000000 0.000000 -0.086000
  endloop
endfacet
facet normal -0.000000 -0.001550 0.000000
  outer loop
    vertex 0.011468 0.000000 -0.187149
    vertex 0.000000 0.000000 -0.086000
    vertex -0.003825 0.000000 -0.187461
  endloop
endfacet
facet normal 0.000000 -0.001054 0.000000
  outer loop
    vertex -0.003825 0.000000 -0.187461
    vertex 0.000000 0.000000 -0.086000
    vertex -0.010366 0.000000 -0.085373
  endloop
endfacet
facet normal 0.000000 -0.001552 0.000000
  outer loop
    vertex -0.003825 0.000000 -0.187461
    vertex -0.010366 0.000000 -0.085373
    vertex -0.019092 0.000000 -0.186525
  endloop
endfacet
facet normal 0.000000 -0.001550 0.000000
  outer loop
    vertex -0.019092 0.000000 -0.186525
    vertex -0.010366 0.000000 -0.085373
    vertex -0.034232 0.000000 -0.184349
  endloop
endfacet
facet normal 0.000000 -0.001056 0.000000
  outer loop
    vertex -0.034232 0.000000 -0.184349
    vertex -0.010366 0.000000 -0.085373
    vertex -0.020581 0.000000 -0.083501
  endloop
endfacet
facet normal 0.000000 -0.001550 0.000000
  outer loop
    vertex -0.034232 0.000000 -0.184349
    vertex -0.020581 0.000000 -0.083501
    vertex -0.049144 0.000000 -0.180945
  endloop
endfacet
facet normal 0.000000 -0.001054 0.000000
  outer loop
    vertex -0.049144 0.000000 -0.180945
    vertex -0.020581 0.000000 -0.083501
    vertex -0.030496 0.000000 -0.080411
  endloop
endfacet
facet normal 0.000000 -0.001552 0.000000
  outer loop
    vertex -0.049144 0.000000 -0.180945
    vertex -0.030496 0.000000 -0.080411
    vertex -0.063729 0.000000 -0.176337
  endloop
endfacet
facet normal 0.000000 -0.001551 0.000000
  outer loop
    vertex -0.063729 0.000000 -0.176337
    vertex -0.030496 0.000000 -0.080411
    vertex -0.077890 0.000000 -0.170556
  endloop
endfacet
facet normal 0.000000 -0.001056 0.000000
  outer loop
    vertex -0.077890 0.000000 -0.170556
    vertex -0.030496 0.000000 -0.080411
    vertex -0.039966 0.000000 -0.076149
  endloop
endfacet
facet normal 0.000000 -0.001550 0.000000
  outer loop
    vertex -0.077890 0.000000 -0.170556
    vertex -0.039966 0.000000 -0.076149
    vertex -0.091533 0.000000 -0.163640
  endloop
endfacet
facet normal 0.000000 -0.001055 0.000000
  outer loop
    vertex -0.091533 0.000000 -0.163640
    vertex -0.039966 0.000000 -0.076149
    vertex -0.048854 0.000000 -0.070777
  endloop
endfacet
facet normal 0.000000 -0.001552 0.000000
  outer loop
    vertex -0.091533 0.000000 -0.163640
    vertex -0.048854 0.000000 -0.070777
    vertex -0.104567 0.000000 -0.155634
  endloop
endfacet
facet normal 0.000000 -0.001551 0.000000
  outer loop
    vertex -0.104567 0.000000 -0.155634
    vertex -0.048854 0.000000 -0.070777
    vertex -0.116904 0.000000 -0.146593
  endloop
endfacet
facet normal 0.000000 -0.001056 0.000000
  outer loop
    vertex -0.116904 0.000000 -0.146593
    vertex -0.048854 0.000000 -0.070777
    vertex -0.057029 0.000000 -0.064372
  endloop
endfacet
facet normal 0.000000 -0.001550 0.000000
  outer loop
    vertex -0.116904 0.000000 -0.146593
    vertex -0.057029 0.000000 -0.064372
    vertex -0.128464 0.000000 -0.136577
  endloop
endfacet
facet normal 0.000000 -0.001055 0.000000
  outer loop
    vertex -0.128464 0.000000 -0.136577
    vertex -0.057029 0.000000 -0.064372
    vertex -0.064372 0.000000 -0.057029
  endloop
endfacet
facet normal 0.000000 -0.001552 0.000000
  outer loop
    vertex -0.128464 0.000000 -0.136577
    vertex -0.064372 0.000000 -0.057029
    vertex -0.139169 0.000000 -0.125651
  endloop
endfacet
facet normal 0.000000 -0.001551 0.000000
  outer loop
    vertex -0.139169 0.000000 -0.125651
    vertex -0.064372 0.000000 -0.057029
    vertex -0.148948 0.000000 -0.113890
  endloop
endfacet
facet normal 0.000000 -0.001056 0.000000
  outer loop
    vertex -0.148948 0.000000 -0.113890
    vertex -0.064372 0.000000 -0.057029
    vertex -0.070777 0.000000 -0.048854
  endloop
endfacet
facet normal 0.000000 -0.001550 0.000000
  outer loop
    vertex -0.148948 0.000000 -0.113890
    vertex -0.070777 0.000000 -0.048854
    vertex -0.157735 0.000000 -0.101370
  endloop
endfacet
facet normal 0.000000 -0.001055 0.000000
  outer loop
    vertex -0.157735 0.000000 -0.101370
    vertex -0.070777 0.000000 -0.048854
    vertex -0.076149 0.000000 -0.039966
  endloop
endfacet
facet normal 0.000000 -0.001552 0.000000
  outer loop
    vertex -0.157735 0.000000 -0.101370
    vertex -0.076149 0.000000 -0.039966
    vertex -0.165473 0.000000 -0.088176
  endloop
endfacet
facet normal 0.000000 -0.001551 0.000000
  outer loop
    vertex -0.165473 0.000000 -0.088176
    vertex -0.076149 0.000000 -0.039966
    vertex -0.172109 0.000000 -0.074395
  endloop
endfacet
facet normal 0.000000 -0.001056 0.000000
  outer loop
    vertex -0.172109 0.000000 -0.074395
    vertex -0.076149 0.000000 -0.039966
    vertex -0.080411 0.000000 -0.030496
  endloop
endfacet
facet normal 0.000000 -0.001550 0.000000
  outer loop
    vertex -0.172109 0.000000 -0.074395
    vertex -0.080411 0.000000 -0.030496
    vertex -0.177601 0.000000 -0.060119
  endloop
endfacet
facet normal 0.000000 -0.001055 0.000000
  outer loop
    vertex -0.177601 0.000000 -0.060119
    vertex -0.080411 0.000000 -0.030496
    vertex -0.083501 0.000000 -0.020581
  endloop
endfacet
facet normal 0.000000 -0.001551 0.000000
  outer loop
    vertex -0.177601 0.000000 -0.060119
    vertex -0.083501 0.000000 -0.020581
    vertex -0.181910 0.000000 -0.045443
  endloop
endfacet
facet normal 0.000000 -0.001551 0.000000
  outer loop
    vertex -0.181910 0.000000 -0.045443
    vertex -0.083501 0.000000 -0.020581
    vertex -0.185009 0.000000 -0.030464
  endloop
endfacet
facet normal 0.000000 -0.001055 0.000000
  outer loop
    vertex -0.185009 0.000000 -0.030464
    vertex -0.083501 0.000000 -0.020581
    vertex -0.085373 0.000000 -0.010366
  endloop
endfacet
facet normal 0.000000 -0.001550 0.000000
  outer loop
    vertex -0.185009 0.000000 -0.030464
    vertex -0.085373 0.000000 -0.010366
    vertex -0.186876 0.000000 -0.015283
  endloop
endfacet
facet normal 0.000000 -0.001055 0.000000
  outer loop
    vertex -0.186876 0.000000 -0.015283
    vertex -0.085373 0.000000 -0.010366
    vertex -0.086000 0.000000 0.000000
  endloop
endfacet
endsolid 02542d30-0d60-4690-97b0-c7a2d7c0c55c-ascii.stl
