solid 0d911dd6-8583-4419-b6bc-d846f8870bd9-ascii.stl
facet normal 0.000075 0.000000 -0.000009
  outer loop
    vertex -0.019372 0.015000 0.004974
    vertex -0.019372 0.000000 0.004974
    vertex -0.020000 0.015000 0.000000
  endloop
endfacet
facet normal 0.000075 0.000000 -0.000009
  outer loop
    vertex -0.020000 0.015000 0.000000
    vertex -0.019372 0.000000 0.004974
    vertex -0.020000 0.000000 0.000000
  endloop
endfacet
facet normal 0.000075 0.000000 0.000009
  outer loop
    vertex -0.020000 0.015000 0.000000
    vertex -0.020000 0.000000 0.000000
    vertex -0.019372 0.015000 -0.004974
  endloop
endfacet
facet normal 0.000075 0.000000 0.000009
  outer loop
    vertex -0.019372 0.015000 -0.004974
    vertex -0.020000 0.000000 0.000000
    vertex -0.019372 0.000000 -0.004974
  endloop
endfacet
facet normal 0.000070 0.000000 0.000028
  outer loop
    vertex -0.019372 0.015000 -0.004974
    vertex -0.019372 0.000000 -0.004974
    vertex -0.017526 0.015000 -0.009635
  endloop
endfacet
facet normal 0.000070 0.000000 0.000028
  outer loop
    vertex -0.017526 0.015000 -0.009635
    vertex -0.019372 0.000000 -0.004974
    vertex -0.017526 0.000000 -0.009635
  endloop
endfacet
facet normal 0.000061 0.000000 0.000044
  outer loop
    vertex -0.017526 0.015000 -0.009635
    vertex -0.017526 0.000000 -0.009635
    vertex -0.014579 0.015000 -0.013691
  endloop
endfacet
facet normal 0.000061 0.000000 0.000044
  outer loop
    vertex -0.014579 0.015000 -0.013691
    vertex -0.017526 0.000000 -0.009635
    vertex -0.014579 0.000000 -0.013691
  endloop
endfacet
facet normal 0.000048 0.000000 0.000058
  outer loop
    vertex -0.014579 0.015000 -0.013691
    vertex -0.014579 0.000000 -0.013691
    vertex -0.010717 0.015000 -0.016887
  endloop
endfacet
facet normal 0.000048 0.000000 0.000058
  outer loop
    vertex -0.010717 0.015000 -0.016887
    vertex -0.014579 0.000000 -0.013691
    vertex -0.010717 0.000000 -0.016887
  endloop
endfacet
facet normal 0.000032 0.000000 0.000068
  outer loop
    vertex -0.010717 0.015000 -0.016887
    vertex -0.010717 0.000000 -0.016887
    vertex -0.006180 0.015000 -0.019021
  endloop
endfacet
facet normal 0.000032 0.000000 0.000068
  outer loop
    vertex -0.006180 0.015000 -0.019021
    vertex -0.010717 0.000000 -0.016887
    vertex -0.006180 0.000000 -0.019021
  endloop
endfacet
facet normal 0.000014 0.000000 0.000074
  outer loop
    vertex -0.006180 0.015000 -0.019021
    vertex -0.006180 0.000000 -0.019021
    vertex -0.001256 0.015000 -0.019961
  endloop
endfacet
facet normal 0.000014 0.000000 0.000074
  outer loop
    vertex -0.001256 0.015000 -0.019961
    vertex -0.006180 0.000000 -0.019021
    vertex -0.001256 0.000000 -0.019961
  endloop
endfacet
facet normal -0.000005 0.000000 0.000075
  outer loop
    vertex -0.001256 0.015000 -0.019961
    vertex -0.001256 0.000000 -0.019961
    vertex 0.003748 0.015000 -0.019646
  endloop
endfacet
facet normal -0.000005 0.000000 0.000075
  outer loop
    vertex 0.003748 0.015000 -0.019646
    vertex -0.001256 0.000000 -0.019961
    vertex 0.003748 0.000000 -0.019646
  endloop
endfacet
facet normal -0.000023 0.000000 0.000072
  outer loop
    vertex 0.003748 0.015000 -0.019646
    vertex 0.003748 0.000000 -0.019646
    vertex 0.008516 0.015000 -0.018097
  endloop
endfacet
facet normal -0.000023 0.000000 0.000072
  outer loop
    vertex 0.008516 0.015000 -0.018097
    vertex 0.003748 0.000000 -0.019646
    vertex 0.008516 0.000000 -0.018097
  endloop
endfacet
facet normal -0.000040 0.000000 0.000063
  outer loop
    vertex 0.008516 0.015000 -0.018097
    vertex 0.008516 0.000000 -0.018097
    vertex 0.012748 0.015000 -0.015410
  endloop
endfacet
facet normal -0.000040 0.000000 0.000063
  outer loop
    vertex 0.012748 0.015000 -0.015410
    vertex 0.008516 0.000000 -0.018097
    vertex 0.012748 0.000000 -0.015410
  endloop
endfacet
facet normal -0.000055 0.000000 0.000051
  outer loop
    vertex 0.012748 0.015000 -0.015410
    vertex 0.012748 0.000000 -0.015410
    vertex 0.016180 0.015000 -0.011756
  endloop
endfacet
facet normal -0.000055 0.000000 0.000051
  outer loop
    vertex 0.016180 0.015000 -0.011756
    vertex 0.012748 0.000000 -0.015410
    vertex 0.016180 0.000000 -0.011756
  endloop
endfacet
facet normal -0.000066 0.000000 0.000036
  outer loop
    vertex 0.016180 0.015000 -0.011756
    vertex 0.016180 0.000000 -0.011756
    vertex 0.018596 0.015000 -0.007362
  endloop
endfacet
facet normal -0.000066 0.000000 0.000036
  outer loop
    vertex 0.018596 0.015000 -0.007362
    vertex 0.016180 0.000000 -0.011756
    vertex 0.018596 0.000000 -0.007362
  endloop
endfacet
facet normal -0.000073 0.000000 0.000019
  outer loop
    vertex 0.018596 0.015000 -0.007362
    vertex 0.018596 0.000000 -0.007362
    vertex 0.019842 0.015000 -0.002507
  endloop
endfacet
facet normal -0.000073 0.000000 0.000019
  outer loop
    vertex 0.019842 0.015000 -0.002507
    vertex 0.018596 0.000000 -0.007362
    vertex 0.019842 0.000000 -0.002507
  endloop
endfacet
facet normal -0.000075 0.000000 0.000000
  outer loop
    vertex 0.019842 0.015000 -0.002507
    vertex 0.019842 0.000000 -0.002507
    vertex 0.019842 0.015000 0.002507
  endloop
endfacet
facet normal -0.000075 -0.000000 0.000000
  outer loop
    vertex 0.019842 0.015000 0.002507
    vertex 0.019842 0.000000 -0.002507
    vertex 0.019842 0.000000 0.002507
  endloop
endfacet
facet normal -0.000073 -0.000000 -0.000019
  outer loop
    vertex 0.019842 0.015000 0.002507
    vertex 0.019842 0.000000 0.002507
    vertex 0.018596 0.015000 0.007362
  endloop
endfacet
facet normal -0.000073 -0.000000 -0.000019
  outer loop
    vertex 0.018596 0.015000 0.007362
    vertex 0.019842 0.000000 0.002507
    vertex 0.018596 0.000000 0.007362
  endloop
endfacet
facet normal -0.000066 -0.000000 -0.000036
  outer loop
    vertex 0.018596 0.015000 0.007362
    vertex 0.018596 0.000000 0.007362
    vertex 0.016180 0.015000 0.011756
  endloop
endfacet
facet normal -0.000066 -0.000000 -0.000036
  outer loop
    vertex 0.016180 0.015000 0.011756
    vertex 0.018596 0.000000 0.007362
    vertex 0.016180 0.000000 0.011756
  endloop
endfacet
facet normal -0.000055 -0.000000 -0.000051
  outer loop
    vertex 0.016180 0.015000 0.011756
    vertex 0.016180 0.000000 0.011756
    vertex 0.012748 0.015000 0.015410
  endloop
endfacet
facet normal -0.000055 -0.000000 -0.000051
  outer loop
    vertex 0.012748 0.015000 0.015410
    vertex 0.016180 0.000000 0.011756
    vertex 0.012748 0.000000 0.015410
  endloop
endfacet
facet normal -0.000040 -0.000000 -0.000063
  outer loop
    vertex 0.012748 0.015000 0.015410
    vertex 0.012748 0.000000 0.015410
    vertex 0.008516 0.015000 0.018097
  endloop
endfacet
facet normal -0.000040 -0.000000 -0.000063
  outer loop
    vertex 0.008516 0.015000 0.018097
    vertex 0.012748 0.000000 0.015410
    vertex 0.008516 0.000000 0.018097
  endloop
endfacet
facet normal -0.000023 -0.000000 -0.000072
  outer loop
    vertex 0.008516 0.015000 0.018097
    vertex 0.008516 0.000000 0.018097
    vertex 0.003748 0.015000 0.019646
  endloop
endfacet
facet normal -0.000023 -0.000000 -0.000072
  outer loop
    vertex 0.003748 0.015000 0.019646
    vertex 0.008516 0.000000 0.018097
    vertex 0.003748 0.000000 0.019646
  endloop
endfacet
facet normal -0.000005 -0.000000 -0.000075
  outer loop
    vertex 0.003748 0.015000 0.019646
    vertex 0.003748 0.000000 0.019646
    vertex -0.001256 0.015000 0.019961
  endloop
endfacet
facet normal -0.000005 -0.000000 -0.000075
  outer loop
    vertex -0.001256 0.015000 0.019961
    vertex 0.003748 0.000000 0.019646
    vertex -0.001256 0.000000 0.019961
  endloop
endfacet
facet normal 0.000014 0.000000 -0.000074
  outer loop
    vertex -0.001256 0.015000 0.019961
    vertex -0.001256 0.000000 0.019961
    vertex -0.006180 0.015000 0.019021
  endloop
endfacet
facet normal 0.000014 0.000000 -0.000074
  outer loop
    vertex -0.006180 0.015000 0.019021
    vertex -0.001256 0.000000 0.019961
    vertex -0.006180 0.000000 0.019021
  endloop
endfacet
facet normal 0.000032 0.000000 -0.000068
  outer loop
    vertex -0.006180 0.015000 0.019021
    vertex -0.006180 0.000000 0.019021
    vertex -0.010717 0.015000 0.016887
  endloop
endfacet
facet normal 0.000032 0.000000 -0.000068
  outer loop
    vertex -0.010717 0.015000 0.016887
    vertex -0.006180 0.000000 0.019021
    vertex -0.010717 0.000000 0.016887
  endloop
endfacet
facet normal 0.000048 0.000000 -0.000058
  outer loop
    vertex -0.010717 0.015000 0.016887
    vertex -0.010717 0.000000 0.016887
    vertex -0.014579 0.015000 0.013691
  endloop
endfacet
facet normal 0.000048 0.000000 -0.000058
  outer loop
    vertex -0.014579 0.015000 0.013691
    vertex -0.010717 0.000000 0.016887
    vertex -0.014579 0.000000 0.013691
  endloop
endfacet
facet normal 0.000061 0.000000 -0.000044
  outer loop
    vertex -0.014579 0.015000 0.013691
    vertex -0.014579 0.000000 0.013691
    vertex -0.017526 0.015000 0.009635
  endloop
endfacet
facet normal 0.000061 0.000000 -0.000044
  outer loop
    vertex -0.017526 0.015000 0.009635
    vertex -0.014579 0.000000 0.013691
    vertex -0.017526 0.000000 0.009635
  endloop
endfacet
facet normal 0.000070 0.000000 -0.000028
  outer loop
    vertex -0.017526 0.015000 0.009635
    vertex -0.017526 0.000000 0.009635
    vertex -0.019372 0.015000 0.004974
  endloop
endfacet
facet normal 0.000070 0.000000 -0.000028
  outer loop
    vertex -0.019372 0.015000 0.004974
    vertex -0.017526 0.000000 0.009635
    vertex -0.019372 0.000000 0.004974
  endloop
endfacet
facet normal -0.000104 -0.000000 -0.000009
  outer loop
    vertex -0.038373 0.015000 -0.006964
    vertex -0.038373 0.000000 -0.006964
    vertex -0.039000 0.015000 0.000000
  endloop
endfacet
facet normal -0.000104 -0.000000 -0.000009
  outer loop
    vertex -0.039000 0.015000 0.000000
    vertex -0.038373 0.000000 -0.006964
    vertex -0.039000 0.000000 0.000000
  endloop
endfacet
facet normal -0.000104 0.000000 0.000009
  outer loop
    vertex -0.039000 0.015000 0.000000
    vertex -0.039000 0.000000 0.000000
    vertex -0.038373 0.015000 0.006964
  endloop
endfacet
facet normal -0.000104 0.000000 0.000009
  outer loop
    vertex -0.038373 0.015000 0.006964
    vertex -0.039000 0.000000 0.000000
    vertex -0.038373 0.000000 0.006964
  endloop
endfacet
facet normal -0.000101 0.000000 0.000028
  outer loop
    vertex -0.038373 0.015000 0.006964
    vertex -0.038373 0.000000 0.006964
    vertex -0.036513 0.015000 0.013704
  endloop
endfacet
facet normal -0.000101 0.000000 0.000028
  outer loop
    vertex -0.036513 0.015000 0.013704
    vertex -0.038373 0.000000 0.006964
    vertex -0.036513 0.000000 0.013704
  endloop
endfacet
facet normal -0.000094 0.000000 0.000046
  outer loop
    vertex -0.036513 0.015000 0.013704
    vertex -0.036513 0.000000 0.013704
    vertex -0.033480 0.015000 0.020003
  endloop
endfacet
facet normal -0.000094 0.000000 0.000046
  outer loop
    vertex -0.033480 0.015000 0.020003
    vertex -0.036513 0.000000 0.013704
    vertex -0.033480 0.000000 0.020003
  endloop
endfacet
facet normal -0.000085 0.000000 0.000062
  outer loop
    vertex -0.033480 0.015000 0.020003
    vertex -0.033480 0.000000 0.020003
    vertex -0.029370 0.015000 0.025660
  endloop
endfacet
facet normal -0.000085 0.000000 0.000062
  outer loop
    vertex -0.029370 0.015000 0.025660
    vertex -0.033480 0.000000 0.020003
    vertex -0.029370 0.000000 0.025660
  endloop
endfacet
facet normal -0.000072 0.000000 0.000076
  outer loop
    vertex -0.029370 0.015000 0.025660
    vertex -0.029370 0.000000 0.025660
    vertex -0.024316 0.015000 0.030491
  endloop
endfacet
facet normal -0.000072 0.000000 0.000076
  outer loop
    vertex -0.024316 0.015000 0.030491
    vertex -0.029370 0.000000 0.025660
    vertex -0.024316 0.000000 0.030491
  endloop
endfacet
facet normal -0.000058 0.000000 0.000088
  outer loop
    vertex -0.024316 0.015000 0.030491
    vertex -0.024316 0.000000 0.030491
    vertex -0.018481 0.015000 0.034343
  endloop
endfacet
facet normal -0.000058 0.000000 0.000088
  outer loop
    vertex -0.018481 0.015000 0.034343
    vertex -0.024316 0.000000 0.030491
    vertex -0.018481 0.000000 0.034343
  endloop
endfacet
facet normal -0.000041 0.000000 0.000096
  outer loop
    vertex -0.018481 0.015000 0.034343
    vertex -0.018481 0.000000 0.034343
    vertex -0.012052 0.015000 0.037091
  endloop
endfacet
facet normal -0.000041 0.000000 0.000096
  outer loop
    vertex -0.012052 0.015000 0.037091
    vertex -0.018481 0.000000 0.034343
    vertex -0.012052 0.000000 0.037091
  endloop
endfacet
facet normal -0.000023 0.000000 0.000102
  outer loop
    vertex -0.012052 0.015000 0.037091
    vertex -0.012052 0.000000 0.037091
    vertex -0.005235 0.015000 0.038647
  endloop
endfacet
facet normal -0.000023 0.000000 0.000102
  outer loop
    vertex -0.005235 0.015000 0.038647
    vertex -0.012052 0.000000 0.037091
    vertex -0.005235 0.000000 0.038647
  endloop
endfacet
facet normal -0.000005 0.000000 0.000105
  outer loop
    vertex -0.005235 0.015000 0.038647
    vertex -0.005235 0.000000 0.038647
    vertex 0.001750 0.015000 0.038961
  endloop
endfacet
facet normal -0.000005 0.000000 0.000105
  outer loop
    vertex 0.001750 0.015000 0.038961
    vertex -0.005235 0.000000 0.038647
    vertex 0.001750 0.000000 0.038961
  endloop
endfacet
facet normal 0.000014 0.000000 0.000104
  outer loop
    vertex 0.001750 0.015000 0.038961
    vertex 0.001750 0.000000 0.038961
    vertex 0.008678 0.015000 0.038022
  endloop
endfacet
facet normal 0.000014 0.000000 0.000104
  outer loop
    vertex 0.008678 0.015000 0.038022
    vertex 0.001750 0.000000 0.038961
    vertex 0.008678 0.000000 0.038022
  endloop
endfacet
facet normal 0.000032 0.000000 0.000100
  outer loop
    vertex 0.008678 0.015000 0.038022
    vertex 0.008678 0.000000 0.038022
    vertex 0.015328 0.015000 0.035862
  endloop
endfacet
facet normal 0.000032 0.000000 0.000100
  outer loop
    vertex 0.015328 0.015000 0.035862
    vertex 0.008678 0.000000 0.038022
    vertex 0.015328 0.000000 0.035862
  endloop
endfacet
facet normal 0.000050 0.000000 0.000092
  outer loop
    vertex 0.015328 0.015000 0.035862
    vertex 0.015328 0.000000 0.035862
    vertex 0.021485 0.015000 0.032548
  endloop
endfacet
facet normal 0.000050 0.000000 0.000092
  outer loop
    vertex 0.021485 0.015000 0.032548
    vertex 0.015328 0.000000 0.035862
    vertex 0.021485 0.000000 0.032548
  endloop
endfacet
facet normal 0.000065 0.000000 0.000082
  outer loop
    vertex 0.021485 0.015000 0.032548
    vertex 0.021485 0.000000 0.032548
    vertex 0.026951 0.015000 0.028189
  endloop
endfacet
facet normal 0.000065 0.000000 0.000082
  outer loop
    vertex 0.026951 0.015000 0.028189
    vertex 0.021485 0.000000 0.032548
    vertex 0.026951 0.000000 0.028189
  endloop
endfacet
facet normal 0.000079 0.000000 0.000069
  outer loop
    vertex 0.026951 0.015000 0.028189
    vertex 0.026951 0.000000 0.028189
    vertex 0.031552 0.015000 0.022924
  endloop
endfacet
facet normal 0.000079 0.000000 0.000069
  outer loop
    vertex 0.031552 0.015000 0.022924
    vertex 0.026951 0.000000 0.028189
    vertex 0.031552 0.000000 0.022924
  endloop
endfacet
facet normal 0.000090 0.000000 0.000054
  outer loop
    vertex 0.031552 0.015000 0.022924
    vertex 0.031552 0.000000 0.022924
    vertex 0.035138 0.015000 0.016921
  endloop
endfacet
facet normal 0.000090 0.000000 0.000054
  outer loop
    vertex 0.035138 0.015000 0.016921
    vertex 0.031552 0.000000 0.022924
    vertex 0.035138 0.000000 0.016921
  endloop
endfacet
facet normal 0.000098 0.000000 0.000037
  outer loop
    vertex 0.035138 0.015000 0.016921
    vertex 0.035138 0.000000 0.016921
    vertex 0.037595 0.015000 0.010375
  endloop
endfacet
facet normal 0.000098 0.000000 0.000037
  outer loop
    vertex 0.037595 0.015000 0.010375
    vertex 0.035138 0.000000 0.016921
    vertex 0.037595 0.000000 0.010375
  endloop
endfacet
facet normal 0.000103 0.000000 0.000019
  outer loop
    vertex 0.037595 0.015000 0.010375
    vertex 0.037595 0.000000 0.010375
    vertex 0.038843 0.015000 0.003496
  endloop
endfacet
facet normal 0.000103 0.000000 0.000019
  outer loop
    vertex 0.038843 0.015000 0.003496
    vertex 0.037595 0.000000 0.010375
    vertex 0.038843 0.000000 0.003496
  endloop
endfacet
facet normal 0.000105 0.000000 0.000000
  outer loop
    vertex 0.038843 0.015000 0.003496
    vertex 0.038843 0.000000 0.003496
    vertex 0.038843 0.015000 -0.003496
  endloop
endfacet
facet normal 0.000105 0.000000 0.000000
  outer loop
    vertex 0.038843 0.015000 -0.003496
    vertex 0.038843 0.000000 0.003496
    vertex 0.038843 0.000000 -0.003496
  endloop
endfacet
facet normal 0.000103 0.000000 -0.000019
  outer loop
    vertex 0.038843 0.015000 -0.003496
    vertex 0.038843 0.000000 -0.003496
    vertex 0.037595 0.015000 -0.010375
  endloop
endfacet
facet normal 0.000103 0.000000 -0.000019
  outer loop
    vertex 0.037595 0.015000 -0.010375
    vertex 0.038843 0.000000 -0.003496
    vertex 0.037595 0.000000 -0.010375
  endloop
endfacet
facet normal 0.000098 0.000000 -0.000037
  outer loop
    vertex 0.037595 0.015000 -0.010375
    vertex 0.037595 0.000000 -0.010375
    vertex 0.035138 0.015000 -0.016921
  endloop
endfacet
facet normal 0.000098 0.000000 -0.000037
  outer loop
    vertex 0.035138 0.015000 -0.016921
    vertex 0.037595 0.000000 -0.010375
    vertex 0.035138 0.000000 -0.016921
  endloop
endfacet
facet normal 0.000090 0.000000 -0.000054
  outer loop
    vertex 0.035138 0.015000 -0.016921
    vertex 0.035138 0.000000 -0.016921
    vertex 0.031552 0.015000 -0.022924
  endloop
endfacet
facet normal 0.000090 0.000000 -0.000054
  outer loop
    vertex 0.031552 0.015000 -0.022924
    vertex 0.035138 0.000000 -0.016921
    vertex 0.031552 0.000000 -0.022924
  endloop
endfacet
facet normal 0.000079 0.000000 -0.000069
  outer loop
    vertex 0.031552 0.015000 -0.022924
    vertex 0.031552 0.000000 -0.022924
    vertex 0.026951 0.015000 -0.028189
  endloop
endfacet
facet normal 0.000079 0.000000 -0.000069
  outer loop
    vertex 0.026951 0.015000 -0.028189
    vertex 0.031552 0.000000 -0.022924
    vertex 0.026951 0.000000 -0.028189
  endloop
endfacet
facet normal 0.000065 0.000000 -0.000082
  outer loop
    vertex 0.026951 0.015000 -0.028189
    vertex 0.026951 0.000000 -0.028189
    vertex 0.021485 0.015000 -0.032548
  endloop
endfacet
facet normal 0.000065 0.000000 -0.000082
  outer loop
    vertex 0.021485 0.015000 -0.032548
    vertex 0.026951 0.000000 -0.028189
    vertex 0.021485 0.000000 -0.032548
  endloop
endfacet
facet normal 0.000050 0.000000 -0.000092
  outer loop
    vertex 0.021485 0.015000 -0.032548
    vertex 0.021485 0.000000 -0.032548
    vertex 0.015328 0.015000 -0.035862
  endloop
endfacet
facet normal 0.000050 0.000000 -0.000092
  outer loop
    vertex 0.015328 0.015000 -0.035862
    vertex 0.021485 0.000000 -0.032548
    vertex 0.015328 0.000000 -0.035862
  endloop
endfacet
facet normal 0.000032 0.000000 -0.000100
  outer loop
    vertex 0.015328 0.015000 -0.035862
    vertex 0.015328 0.000000 -0.035862
    vertex 0.008678 0.015000 -0.038022
  endloop
endfacet
facet normal 0.000032 0.000000 -0.000100
  outer loop
    vertex 0.008678 0.015000 -0.038022
    vertex 0.015328 0.000000 -0.035862
    vertex 0.008678 0.000000 -0.038022
  endloop
endfacet
facet normal 0.000014 0.000000 -0.000104
  outer loop
    vertex 0.008678 0.015000 -0.038022
    vertex 0.008678 0.000000 -0.038022
    vertex 0.001750 0.015000 -0.038961
  endloop
endfacet
facet normal 0.000014 0.000000 -0.000104
  outer loop
    vertex 0.001750 0.015000 -0.038961
    vertex 0.008678 0.000000 -0.038022
    vertex 0.001750 0.000000 -0.038961
  endloop
endfacet
facet normal -0.000005 -0.000000 -0.000105
  outer loop
    vertex 0.001750 0.015000 -0.038961
    vertex 0.001750 0.000000 -0.038961
    vertex -0.005235 0.015000 -0.038647
  endloop
endfacet
facet normal -0.000005 -0.000000 -0.000105
  outer loop
    vertex -0.005235 0.015000 -0.038647
    vertex 0.001750 0.000000 -0.038961
    vertex -0.005235 0.000000 -0.038647
  endloop
endfacet
facet normal -0.000023 -0.000000 -0.000102
  outer loop
    vertex -0.005235 0.015000 -0.038647
    vertex -0.005235 0.000000 -0.038647
    vertex -0.012052 0.015000 -0.037091
  endloop
endfacet
facet normal -0.000023 -0.000000 -0.000102
  outer loop
    vertex -0.012052 0.015000 -0.037091
    vertex -0.005235 0.000000 -0.038647
    vertex -0.012052 0.000000 -0.037091
  endloop
endfacet
facet normal -0.000041 -0.000000 -0.000096
  outer loop
    vertex -0.012052 0.015000 -0.037091
    vertex -0.012052 0.000000 -0.037091
    vertex -0.018481 0.015000 -0.034343
  endloop
endfacet
facet normal -0.000041 -0.000000 -0.000096
  outer loop
    vertex -0.018481 0.015000 -0.034343
    vertex -0.012052 0.000000 -0.037091
    vertex -0.018481 0.000000 -0.034343
  endloop
endfacet
facet normal -0.000058 -0.000000 -0.000088
  outer loop
    vertex -0.018481 0.015000 -0.034343
    vertex -0.018481 0.000000 -0.034343
    vertex -0.024316 0.015000 -0.030491
  endloop
endfacet
facet normal -0.000058 -0.000000 -0.000088
  outer loop
    vertex -0.024316 0.015000 -0.030491
    vertex -0.018481 0.000000 -0.034343
    vertex -0.024316 0.000000 -0.030491
  endloop
endfacet
facet normal -0.000072 -0.000000 -0.000076
  outer loop
    vertex -0.024316 0.015000 -0.030491
    vertex -0.024316 0.000000 -0.030491
    vertex -0.029370 0.015000 -0.025660
  endloop
endfacet
facet normal -0.000072 -0.000000 -0.000076
  outer loop
    vertex -0.029370 0.015000 -0.025660
    vertex -0.024316 0.000000 -0.030491
    vertex -0.029370 0.000000 -0.025660
  endloop
endfacet
facet normal -0.000085 -0.000000 -0.000062
  outer loop
    vertex -0.029370 0.015000 -0.025660
    vertex -0.029370 0.000000 -0.025660
    vertex -0.033480 0.015000 -0.020003
  endloop
endfacet
facet normal -0.000085 -0.000000 -0.000062
  outer loop
    vertex -0.033480 0.015000 -0.020003
    vertex -0.029370 0.000000 -0.025660
    vertex -0.033480 0.000000 -0.020003
  endloop
endfacet
facet normal -0.000094 -0.000000 -0.000046
  outer loop
    vertex -0.033480 0.015000 -0.020003
    vertex -0.033480 0.000000 -0.020003
    vertex -0.036513 0.015000 -0.013704
  endloop
endfacet
facet normal -0.000094 -0.000000 -0.000046
  outer loop
    vertex -0.036513 0.015000 -0.013704
    vertex -0.033480 0.000000 -0.020003
    vertex -0.036513 0.000000 -0.013704
  endloop
endfacet
facet normal -0.000101 -0.000000 -0.000028
  outer loop
    vertex -0.036513 0.015000 -0.013704
    vertex -0.036513 0.000000 -0.013704
    vertex -0.038373 0.015000 -0.006964
  endloop
endfacet
facet normal -0.000101 -0.000000 -0.000028
  outer loop
    vertex -0.038373 0.015000 -0.006964
    vertex -0.036513 0.000000 -0.013704
    vertex -0.038373 0.000000 -0.006964
  endloop
endfacet
facet normal 0.000000 0.000096 0.000000
  outer loop
    vertex -0.019372 0.015000 -0.004974
    vertex -0.038373 0.015000 -0.006964
    vertex -0.020000 0.015000 0.000000
  endloop
endfacet
facet normal 0.000000 0.000132 0.000000
  outer loop
    vertex -0.020000 0.015000 0.000000
    vertex -0.038373 0.015000 -0.006964
    vertex -0.039000 0.015000 0.000000
  endloop
endfacet
facet normal 0.000000 0.000132 0.000000
  outer loop
    vertex -0.020000 0.015000 0.000000
    vertex -0.039000 0.015000 0.000000
    vertex -0.038373 0.015000 0.006964
  endloop
endfacet
facet normal -0.000000 0.000132 0.000000
  outer loop
    vertex -0.038373 0.015000 -0.006964
    vertex -0.019372 0.015000 -0.004974
    vertex -0.036513 0.015000 -0.013704
  endloop
endfacet
facet normal 0.000000 0.000096 0.000000
  outer loop
    vertex -0.036513 0.015000 -0.013704
    vertex -0.019372 0.015000 -0.004974
    vertex -0.017526 0.015000 -0.009635
  endloop
endfacet
facet normal -0.000000 0.000132 0.000000
  outer loop
    vertex -0.036513 0.015000 -0.013704
    vertex -0.017526 0.015000 -0.009635
    vertex -0.033480 0.015000 -0.020003
  endloop
endfacet
facet normal 0.000000 0.000095 0.000000
  outer loop
    vertex -0.033480 0.015000 -0.020003
    vertex -0.017526 0.015000 -0.009635
    vertex -0.014579 0.015000 -0.013691
  endloop
endfacet
facet normal -0.000000 0.000133 0.000000
  outer loop
    vertex -0.033480 0.015000 -0.020003
    vertex -0.014579 0.015000 -0.013691
    vertex -0.029370 0.015000 -0.025660
  endloop
endfacet
facet normal -0.000000 0.000132 0.000000
  outer loop
    vertex -0.029370 0.015000 -0.025660
    vertex -0.014579 0.015000 -0.013691
    vertex -0.024316 0.015000 -0.030491
  endloop
endfacet
facet normal 0.000000 0.000096 0.000000
  outer loop
    vertex -0.024316 0.015000 -0.030491
    vertex -0.014579 0.015000 -0.013691
    vertex -0.010717 0.015000 -0.016887
  endloop
endfacet
facet normal -0.000000 0.000132 0.000000
  outer loop
    vertex -0.024316 0.015000 -0.030491
    vertex -0.010717 0.015000 -0.016887
    vertex -0.018481 0.015000 -0.034343
  endloop
endfacet
facet normal 0.000000 0.000096 0.000000
  outer loop
    vertex -0.018481 0.015000 -0.034343
    vertex -0.010717 0.015000 -0.016887
    vertex -0.006180 0.015000 -0.019021
  endloop
endfacet
facet normal -0.000000 0.000132 0.000000
  outer loop
    vertex -0.018481 0.015000 -0.034343
    vertex -0.006180 0.015000 -0.019021
    vertex -0.012052 0.015000 -0.037091
  endloop
endfacet
facet normal -0.000000 0.000132 0.000000
  outer loop
    vertex -0.012052 0.015000 -0.037091
    vertex -0.006180 0.015000 -0.019021
    vertex -0.005235 0.015000 -0.038647
  endloop
endfacet
facet normal 0.000000 0.000096 -0.000000
  outer loop
    vertex -0.005235 0.015000 -0.038647
    vertex -0.006180 0.015000 -0.019021
    vertex -0.001256 0.015000 -0.019961
  endloop
endfacet
facet normal -0.000000 0.000132 0.000000
  outer loop
    vertex -0.005235 0.015000 -0.038647
    vertex -0.001256 0.015000 -0.019961
    vertex 0.001750 0.015000 -0.038961
  endloop
endfacet
facet normal 0.000000 0.000096 -0.000000
  outer loop
    vertex 0.001750 0.015000 -0.038961
    vertex -0.001256 0.015000 -0.019961
    vertex 0.003748 0.015000 -0.019646
  endloop
endfacet
facet normal 0.000000 0.000132 0.000000
  outer loop
    vertex 0.001750 0.015000 -0.038961
    vertex 0.003748 0.015000 -0.019646
    vertex 0.008678 0.015000 -0.038022
  endloop
endfacet
facet normal 0.000000 0.000133 -0.000000
  outer loop
    vertex 0.008678 0.015000 -0.038022
    vertex 0.003748 0.015000 -0.019646
    vertex 0.015328 0.015000 -0.035862
  endloop
endfacet
facet normal 0.000000 0.000095 0.000000
  outer loop
    vertex 0.015328 0.015000 -0.035862
    vertex 0.003748 0.015000 -0.019646
    vertex 0.008516 0.015000 -0.018097
  endloop
endfacet
facet normal 0.000000 0.000132 -0.000000
  outer loop
    vertex 0.015328 0.015000 -0.035862
    vertex 0.008516 0.015000 -0.018097
    vertex 0.021485 0.015000 -0.032548
  endloop
endfacet
facet normal 0.000000 0.000096 0.000000
  outer loop
    vertex 0.021485 0.015000 -0.032548
    vertex 0.008516 0.015000 -0.018097
    vertex 0.012748 0.015000 -0.015410
  endloop
endfacet
facet normal 0.000000 0.000132 -0.000000
  outer loop
    vertex 0.021485 0.015000 -0.032548
    vertex 0.012748 0.015000 -0.015410
    vertex 0.026951 0.015000 -0.028189
  endloop
endfacet
facet normal 0.000000 0.000096 0.000000
  outer loop
    vertex 0.026951 0.015000 -0.028189
    vertex 0.012748 0.015000 -0.015410
    vertex 0.016180 0.015000 -0.011756
  endloop
endfacet
facet normal 0.000000 0.000132 -0.000000
  outer loop
    vertex 0.026951 0.015000 -0.028189
    vertex 0.016180 0.015000 -0.011756
    vertex 0.031552 0.015000 -0.022924
  endloop
endfacet
facet normal 0.000000 0.000132 -0.000000
  outer loop
    vertex 0.031552 0.015000 -0.022924
    vertex 0.016180 0.015000 -0.011756
    vertex 0.035138 0.015000 -0.016921
  endloop
endfacet
facet normal 0.000000 0.000096 0.000000
  outer loop
    vertex 0.035138 0.015000 -0.016921
    vertex 0.016180 0.015000 -0.011756
    vertex 0.018596 0.015000 -0.007362
  endloop
endfacet
facet normal 0.000000 0.000132 -0.000000
  outer loop
    vertex 0.035138 0.015000 -0.016921
    vertex 0.018596 0.015000 -0.007362
    vertex 0.037595 0.015000 -0.010375
  endloop
endfacet
facet normal 0.000000 0.000096 0.000000
  outer loop
    vertex 0.037595 0.015000 -0.010375
    vertex 0.018596 0.015000 -0.007362
    vertex 0.019842 0.015000 -0.002507
  endloop
endfacet
facet normal 0.000000 0.000132 -0.000000
  outer loop
    vertex 0.037595 0.015000 -0.010375
    vertex 0.019842 0.015000 -0.002507
    vertex 0.038843 0.015000 -0.003496
  endloop
endfacet
facet normal 0.000000 0.000133 -0.000000
  outer loop
    vertex 0.038843 0.015000 -0.003496
    vertex 0.019842 0.015000 -0.002507
    vertex 0.038843 0.015000 0.003496
  endloop
endfacet
facet normal 0.000000 0.000095 0.000000
  outer loop
    vertex 0.038843 0.015000 0.003496
    vertex 0.019842 0.015000 -0.002507
    vertex 0.019842 0.015000 0.002507
  endloop
endfacet
facet normal 0.000000 0.000132 0.000000
  outer loop
    vertex 0.038843 0.015000 0.003496
    vertex 0.019842 0.015000 0.002507
    vertex 0.037595 0.015000 0.010375
  endloop
endfacet
facet normal 0.000000 0.000096 0.000000
  outer loop
    vertex 0.037595 0.015000 0.010375
    vertex 0.019842 0.015000 0.002507
    vertex 0.018596 0.015000 0.007362
  endloop
endfacet
facet normal 0.000000 0.000132 0.000000
  outer loop
    vertex 0.037595 0.015000 0.010375
    vertex 0.018596 0.015000 0.007362
    vertex 0.035138 0.015000 0.016921
  endloop
endfacet
facet normal 0.000000 0.000096 0.000000
  outer loop
    vertex 0.035138 0.015000 0.016921
    vertex 0.018596 0.015000 0.007362
    vertex 0.016180 0.015000 0.011756
  endloop
endfacet
facet normal 0.000000 0.000132 0.000000
  outer loop
    vertex 0.035138 0.015000 0.016921
    vertex 0.016180 0.015000 0.011756
    vertex 0.031552 0.015000 0.022924
  endloop
endfacet
facet normal 0.000000 0.000132 0.000000
  outer loop
    vertex 0.031552 0.015000 0.022924
    vertex 0.016180 0.015000 0.011756
    vertex 0.026951 0.015000 0.028189
  endloop
endfacet
facet normal 0.000000 0.000096 0.000000
  outer loop
    vertex 0.026951 0.015000 0.028189
    vertex 0.016180 0.015000 0.011756
    vertex 0.012748 0.015000 0.015410
  endloop
endfacet
facet normal 0.000000 0.000132 0.000000
  outer loop
    vertex 0.026951 0.015000 0.028189
    vertex 0.012748 0.015000 0.015410
    vertex 0.021485 0.015000 0.032548
  endloop
endfacet
facet normal 0.000000 0.000096 0.000000
  outer loop
    vertex 0.021485 0.015000 0.032548
    vertex 0.012748 0.015000 0.015410
    vertex 0.008516 0.015000 0.018097
  endloop
endfacet
facet normal 0.000000 0.000132 0.000000
  outer loop
    vertex 0.021485 0.015000 0.032548
    vertex 0.008516 0.015000 0.018097
    vertex 0.015328 0.015000 0.035862
  endloop
endfacet
facet normal 0.000000 0.000095 0.000000
  outer loop
    vertex 0.015328 0.015000 0.035862
    vertex 0.008516 0.015000 0.018097
    vertex 0.003748 0.015000 0.019646
  endloop
endfacet
facet normal 0.000000 0.000133 0.000000
  outer loop
    vertex 0.015328 0.015000 0.035862
    vertex 0.003748 0.015000 0.019646
    vertex 0.008678 0.015000 0.038022
  endloop
endfacet
facet normal 0.000000 0.000132 0.000000
  outer loop
    vertex 0.008678 0.015000 0.038022
    vertex 0.003748 0.015000 0.019646
    vertex 0.001750 0.015000 0.038961
  endloop
endfacet
facet normal 0.000000 0.000096 0.000000
  outer loop
    vertex 0.001750 0.015000 0.038961
    vertex 0.003748 0.015000 0.019646
    vertex -0.001256 0.015000 0.019961
  endloop
endfacet
facet normal 0.000000 0.000132 0.000000
  outer loop
    vertex 0.001750 0.015000 0.038961
    vertex -0.001256 0.015000 0.019961
    vertex -0.005235 0.015000 0.038647
  endloop
endfacet
facet normal 0.000000 0.000096 0.000000
  outer loop
    vertex -0.005235 0.015000 0.038647
    vertex -0.001256 0.015000 0.019961
    vertex -0.006180 0.015000 0.019021
  endloop
endfacet
facet normal 0.000000 0.000132 0.000000
  outer loop
    vertex -0.005235 0.015000 0.038647
    vertex -0.006180 0.015000 0.019021
    vertex -0.012052 0.015000 0.037091
  endloop
endfacet
facet normal 0.000000 0.000132 0.000000
  outer loop
    vertex -0.012052 0.015000 0.037091
    vertex -0.006180 0.015000 0.019021
    vertex -0.018481 0.015000 0.034343
  endloop
endfacet
facet normal 0.000000 0.000096 0.000000
  outer loop
    vertex -0.018481 0.015000 0.034343
    vertex -0.006180 0.015000 0.019021
    vertex -0.010717 0.015000 0.016887
  endloop
endfacet
facet normal 0.000000 0.000132 0.000000
  outer loop
    vertex -0.018481 0.015000 0.034343
    vertex -0.010717 0.015000 0.016887
    vertex -0.024316 0.015000 0.030491
  endloop
endfacet
facet normal 0.000000 0.000096 0.000000
  outer loop
    vertex -0.024316 0.015000 0.030491
    vertex -0.010717 0.015000 0.016887
    vertex -0.014579 0.015000 0.013691
  endloop
endfacet
facet normal 0.000000 0.000132 0.000000
  outer loop
    vertex -0.024316 0.015000 0.030491
    vertex -0.014579 0.015000 0.013691
    vertex -0.029370 0.015000 0.025660
  endloop
endfacet
facet normal 0.000000 0.000133 0.000000
  outer loop
    vertex -0.029370 0.015000 0.025660
    vertex -0.014579 0.015000 0.013691
    vertex -0.033480 0.015000 0.020003
  endloop
endfacet
facet normal 0.000000 0.000095 0.000000
  outer loop
    vertex -0.033480 0.015000 0.020003
    vertex -0.014579 0.015000 0.013691
    vertex -0.017526 0.015000 0.009635
  endloop
endfacet
facet normal 0.000000 0.000132 0.000000
  outer loop
    vertex -0.033480 0.015000 0.020003
    vertex -0.017526 0.015000 0.009635
    vertex -0.036513 0.015000 0.013704
  endloop
endfacet
facet normal 0.000000 0.000096 0.000000
  outer loop
    vertex -0.036513 0.015000 0.013704
    vertex -0.017526 0.015000 0.009635
    vertex -0.019372 0.015000 0.004974
  endloop
endfacet
facet normal 0.000000 0.000132 0.000000
  outer loop
    vertex -0.036513 0.015000 0.013704
    vertex -0.019372 0.015000 0.004974
    vertex -0.038373 0.015000 0.006964
  endloop
endfacet
facet normal 0.000000 0.000096 0.000000
  outer loop
    vertex -0.038373 0.015000 0.006964
    vertex -0.019372 0.015000 0.004974
    vertex -0.020000 0.015000 0.000000
  endloop
endfacet
facet normal -0.000000 -0.000096 0.000000
  outer loop
    vertex -0.019372 0.000000 0.004974
    vertex -0.038373 0.000000 0.006964
    vertex -0.020000 0.000000 0.000000
  endloop
endfacet
facet normal 0.000000 -0.000132 0.000000
  outer loop
    vertex -0.020000 0.000000 0.000000
    vertex -0.038373 0.000000 0.006964
    vertex -0.039000 0.000000 0.000000
  endloop
endfacet
facet normal -0.000000 -0.000132 0.000000
  outer loop
    vertex -0.020000 0.000000 0.000000
    vertex -0.039000 0.000000 0.000000
    vertex -0.038373 0.000000 -0.006964
  endloop
endfacet
facet normal 0.000000 -0.000132 0.000000
  outer loop
    vertex -0.038373 0.000000 0.006964
    vertex -0.019372 0.000000 0.004974
    vertex -0.036513 0.000000 0.013704
  endloop
endfacet
facet normal 0.000000 -0.000096 0.000000
  outer loop
    vertex -0.036513 0.000000 0.013704
    vertex -0.019372 0.000000 0.004974
    vertex -0.017526 0.000000 0.009635
  endloop
endfacet
facet normal 0.000000 -0.000132 0.000000
  outer loop
    vertex -0.036513 0.000000 0.013704
    vertex -0.017526 0.000000 0.009635
    vertex -0.033480 0.000000 0.020003
  endloop
endfacet
facet normal 0.000000 -0.000095 0.000000
  outer loop
    vertex -0.033480 0.000000 0.020003
    vertex -0.017526 0.000000 0.009635
    vertex -0.014579 0.000000 0.013691
  endloop
endfacet
facet normal 0.000000 -0.000133 0.000000
  outer loop
    vertex -0.033480 0.000000 0.020003
    vertex -0.014579 0.000000 0.013691
    vertex -0.029370 0.000000 0.025660
  endloop
endfacet
facet normal 0.000000 -0.000132 0.000000
  outer loop
    vertex -0.029370 0.000000 0.025660
    vertex -0.014579 0.000000 0.013691
    vertex -0.024316 0.000000 0.030491
  endloop
endfacet
facet normal 0.000000 -0.000096 0.000000
  outer loop
    vertex -0.024316 0.000000 0.030491
    vertex -0.014579 0.000000 0.013691
    vertex -0.010717 0.000000 0.016887
  endloop
endfacet
facet normal 0.000000 -0.000132 0.000000
  outer loop
    vertex -0.024316 0.000000 0.030491
    vertex -0.010717 0.000000 0.016887
    vertex -0.018481 0.000000 0.034343
  endloop
endfacet
facet normal 0.000000 -0.000096 0.000000
  outer loop
    vertex -0.018481 0.000000 0.034343
    vertex -0.010717 0.000000 0.016887
    vertex -0.006180 0.000000 0.019021
  endloop
endfacet
facet normal 0.000000 -0.000132 0.000000
  outer loop
    vertex -0.018481 0.000000 0.034343
    vertex -0.006180 0.000000 0.019021
    vertex -0.012052 0.000000 0.037091
  endloop
endfacet
facet normal 0.000000 -0.000132 0.000000
  outer loop
    vertex -0.012052 0.000000 0.037091
    vertex -0.006180 0.000000 0.019021
    vertex -0.005235 0.000000 0.038647
  endloop
endfacet
facet normal 0.000000 -0.000096 -0.000000
  outer loop
    vertex -0.005235 0.000000 0.038647
    vertex -0.006180 0.000000 0.019021
    vertex -0.001256 0.000000 0.019961
  endloop
endfacet
facet normal 0.000000 -0.000132 0.000000
  outer loop
    vertex -0.005235 0.000000 0.038647
    vertex -0.001256 0.000000 0.019961
    vertex 0.001750 0.000000 0.038961
  endloop
endfacet
facet normal 0.000000 -0.000096 -0.000000
  outer loop
    vertex 0.001750 0.000000 0.038961
    vertex -0.001256 0.000000 0.019961
    vertex 0.003748 0.000000 0.019646
  endloop
endfacet
facet normal 0.000000 -0.000132 0.000000
  outer loop
    vertex 0.001750 0.000000 0.038961
    vertex 0.003748 0.000000 0.019646
    vertex 0.008678 0.000000 0.038022
  endloop
endfacet
facet normal 0.000000 -0.000133 -0.000000
  outer loop
    vertex 0.008678 0.000000 0.038022
    vertex 0.003748 0.000000 0.019646
    vertex 0.015328 0.000000 0.035862
  endloop
endfacet
facet normal 0.000000 -0.000095 0.000000
  outer loop
    vertex 0.015328 0.000000 0.035862
    vertex 0.003748 0.000000 0.019646
    vertex 0.008516 0.000000 0.018097
  endloop
endfacet
facet normal 0.000000 -0.000132 -0.000000
  outer loop
    vertex 0.015328 0.000000 0.035862
    vertex 0.008516 0.000000 0.018097
    vertex 0.021485 0.000000 0.032548
  endloop
endfacet
facet normal 0.000000 -0.000096 0.000000
  outer loop
    vertex 0.021485 0.000000 0.032548
    vertex 0.008516 0.000000 0.018097
    vertex 0.012748 0.000000 0.015410
  endloop
endfacet
facet normal 0.000000 -0.000132 -0.000000
  outer loop
    vertex 0.021485 0.000000 0.032548
    vertex 0.012748 0.000000 0.015410
    vertex 0.026951 0.000000 0.028189
  endloop
endfacet
facet normal 0.000000 -0.000096 0.000000
  outer loop
    vertex 0.026951 0.000000 0.028189
    vertex 0.012748 0.000000 0.015410
    vertex 0.016180 0.000000 0.011756
  endloop
endfacet
facet normal 0.000000 -0.000132 -0.000000
  outer loop
    vertex 0.026951 0.000000 0.028189
    vertex 0.016180 0.000000 0.011756
    vertex 0.031552 0.000000 0.022924
  endloop
endfacet
facet normal 0.000000 -0.000132 -0.000000
  outer loop
    vertex 0.031552 0.000000 0.022924
    vertex 0.016180 0.000000 0.011756
    vertex 0.035138 0.000000 0.016921
  endloop
endfacet
facet normal 0.000000 -0.000096 0.000000
  outer loop
    vertex 0.035138 0.000000 0.016921
    vertex 0.016180 0.000000 0.011756
    vertex 0.018596 0.000000 0.007362
  endloop
endfacet
facet normal 0.000000 -0.000132 -0.000000
  outer loop
    vertex 0.035138 0.000000 0.016921
    vertex 0.018596 0.000000 0.007362
    vertex 0.037595 0.000000 0.010375
  endloop
endfacet
facet normal 0.000000 -0.000096 0.000000
  outer loop
    vertex 0.037595 0.000000 0.010375
    vertex 0.018596 0.000000 0.007362
    vertex 0.019842 0.000000 0.002507
  endloop
endfacet
facet normal 0.000000 -0.000132 -0.000000
  outer loop
    vertex 0.037595 0.000000 0.010375
    vertex 0.019842 0.000000 0.002507
    vertex 0.038843 0.000000 0.003496
  endloop
endfacet
facet normal 0.000000 -0.000095 0.000000
  outer loop
    vertex 0.038843 0.000000 0.003496
    vertex 0.019842 0.000000 0.002507
    vertex 0.019842 0.000000 -0.002507
  endloop
endfacet
facet normal 0.000000 -0.000133 -0.000000
  outer loop
    vertex 0.038843 0.000000 0.003496
    vertex 0.019842 0.000000 -0.002507
    vertex 0.038843 0.000000 -0.003496
  endloop
endfacet
facet normal -0.000000 -0.000132 0.000000
  outer loop
    vertex 0.038843 0.000000 -0.003496
    vertex 0.019842 0.000000 -0.002507
    vertex 0.037595 0.000000 -0.010375
  endloop
endfacet
facet normal 0.000000 -0.000096 0.000000
  outer loop
    vertex 0.037595 0.000000 -0.010375
    vertex 0.019842 0.000000 -0.002507
    vertex 0.018596 0.000000 -0.007362
  endloop
endfacet
facet normal -0.000000 -0.000132 0.000000
  outer loop
    vertex 0.037595 0.000000 -0.010375
    vertex 0.018596 0.000000 -0.007362
    vertex 0.035138 0.000000 -0.016921
  endloop
endfacet
facet normal 0.000000 -0.000096 0.000000
  outer loop
    vertex 0.035138 0.000000 -0.016921
    vertex 0.018596 0.000000 -0.007362
    vertex 0.016180 0.000000 -0.011756
  endloop
endfacet
facet normal -0.000000 -0.000132 0.000000
  outer loop
    vertex 0.035138 0.000000 -0.016921
    vertex 0.016180 0.000000 -0.011756
    vertex 0.031552 0.000000 -0.022924
  endloop
endfacet
facet normal -0.000000 -0.000132 0.000000
  outer loop
    vertex 0.031552 0.000000 -0.022924
    vertex 0.016180 0.000000 -0.011756
    vertex 0.026951 0.000000 -0.028189
  endloop
endfacet
facet normal 0.000000 -0.000096 0.000000
  outer loop
    vertex 0.026951 0.000000 -0.028189
    vertex 0.016180 0.000000 -0.011756
    vertex 0.012748 0.000000 -0.015410
  endloop
endfacet
facet normal -0.000000 -0.000132 0.000000
  outer loop
    vertex 0.026951 0.000000 -0.028189
    vertex 0.012748 0.000000 -0.015410
    vertex 0.021485 0.000000 -0.032548
  endloop
endfacet
facet normal 0.000000 -0.000096 0.000000
  outer loop
    vertex 0.021485 0.000000 -0.032548
    vertex 0.012748 0.000000 -0.015410
    vertex 0.008516 0.000000 -0.018097
  endloop
endfacet
facet normal -0.000000 -0.000132 0.000000
  outer loop
    vertex 0.021485 0.000000 -0.032548
    vertex 0.008516 0.000000 -0.018097
    vertex 0.015328 0.000000 -0.035862
  endloop
endfacet
facet normal 0.000000 -0.000095 0.000000
  outer loop
    vertex 0.015328 0.000000 -0.035862
    vertex 0.008516 0.000000 -0.018097
    vertex 0.003748 0.000000 -0.019646
  endloop
endfacet
facet normal -0.000000 -0.000133 0.000000
  outer loop
    vertex 0.015328 0.000000 -0.035862
    vertex 0.003748 0.000000 -0.019646
    vertex 0.008678 0.000000 -0.038022
  endloop
endfacet
facet normal -0.000000 -0.000132 0.000000
  outer loop
    vertex 0.008678 0.000000 -0.038022
    vertex 0.003748 0.000000 -0.019646
    vertex 0.001750 0.000000 -0.038961
  endloop
endfacet
facet normal 0.000000 -0.000096 0.000000
  outer loop
    vertex 0.001750 0.000000 -0.038961
    vertex 0.003748 0.000000 -0.019646
    vertex -0.001256 0.000000 -0.019961
  endloop
endfacet
facet normal 0.000000 -0.000132 0.000000
  outer loop
    vertex 0.001750 0.000000 -0.038961
    vertex -0.001256 0.000000 -0.019961
    vertex -0.005235 0.000000 -0.038647
  endloop
endfacet
facet normal 0.000000 -0.000096 0.000000
  outer loop
    vertex -0.005235 0.000000 -0.038647
    vertex -0.001256 0.000000 -0.019961
    vertex -0.006180 0.000000 -0.019021
  endloop
endfacet
facet normal 0.000000 -0.000132 0.000000
  outer loop
    vertex -0.005235 0.000000 -0.038647
    vertex -0.006180 0.000000 -0.019021
    vertex -0.012052 0.000000 -0.037091
  endloop
endfacet
facet normal 0.000000 -0.000132 0.000000
  outer loop
    vertex -0.012052 0.000000 -0.037091
    vertex -0.006180 0.000000 -0.019021
    vertex -0.018481 0.000000 -0.034343
  endloop
endfacet
facet normal 0.000000 -0.000096 0.000000
  outer loop
    vertex -0.018481 0.000000 -0.034343
    vertex -0.006180 0.000000 -0.019021
    vertex -0.010717 0.000000 -0.016887
  endloop
endfacet
facet normal 0.000000 -0.000132 0.000000
  outer loop
    vertex -0.018481 0.000000 -0.034343
    vertex -0.010717 0.000000 -0.016887
    vertex -0.024316 0.000000 -0.030491
  endloop
endfacet
facet normal 0.000000 -0.000096 0.000000
  outer loop
    vertex -0.024316 0.000000 -0.030491
    vertex -0.010717 0.000000 -0.016887
    vertex -0.014579 0.000000 -0.013691
  endloop
endfacet
facet normal 0.000000 -0.000132 0.000000
  outer loop
    vertex -0.024316 0.000000 -0.030491
    vertex -0.014579 0.000000 -0.013691
    vertex -0.029370 0.000000 -0.025660
  endloop
endfacet
facet normal 0.000000 -0.000133 0.000000
  outer loop
    vertex -0.029370 0.000000 -0.025660
    vertex -0.014579 0.000000 -0.013691
    vertex -0.033480 0.000000 -0.020003
  endloop
endfacet
facet normal 0.000000 -0.000095 0.000000
  outer loop
    vertex -0.033480 0.000000 -0.020003
    vertex -0.014579 0.000000 -0.013691
    vertex -0.017526 0.000000 -0.009635
  endloop
endfacet
facet normal 0.000000 -0.000132 0.000000
  outer loop
    vertex -0.033480 0.000000 -0.020003
    vertex -0.017526 0.000000 -0.009635
    vertex -0.036513 0.000000 -0.013704
  endloop
endfacet
facet normal 0.000000 -0.000096 0.000000
  outer loop
    vertex -0.036513 0.000000 -0.013704
    vertex -0.017526 0.000000 -0.009635
    vertex -0.019372 0.000000 -0.004974
  endloop
endfacet
facet normal 0.000000 -0.000132 0.000000
  outer loop
    vertex -0.036513 0.000000 -0.013704
    vertex -0.019372 0.000000 -0.004974
    vertex -0.038373 0.000000 -0.006964
  endloop
endfacet
facet normal 0.000000 -0.000096 0.000000
  outer loop
    vertex -0.038373 0.000000 -0.006964
    vertex -0.019372 0.000000 -0.004974
    vertex -0.020000 0.000000 0.000000
  endloop
endfacet
endsolid 0d911dd6-8583-4419-b6bc-d846f8870bd9-ascii.stl
