solid 3835204f-6d14-43d4-b8c7-0809919f023f-ascii.stl
facet normal 0.000283 0.000000 -0.000020
  outer loop
    vertex -0.061892 0.032500 0.008698
    vertex -0.061892 0.000000 0.008698
    vertex -0.062500 0.032500 0.000000
  endloop
endfacet
facet normal 0.000283 0.000000 -0.000020
  outer loop
    vertex -0.062500 0.032500 0.000000
    vertex -0.061892 0.000000 0.008698
    vertex -0.062500 0.000000 0.000000
  endloop
endfacet
facet normal 0.000283 0.000000 0.000020
  outer loop
    vertex -0.062500 0.032500 0.000000
    vertex -0.062500 0.000000 0.000000
    vertex -0.061892 0.032500 -0.008698
  endloop
endfacet
facet normal 0.000283 0.000000 0.000020
  outer loop
    vertex -0.061892 0.032500 -0.008698
    vertex -0.062500 0.000000 0.000000
    vertex -0.061892 0.000000 -0.008698
  endloop
endfacet
facet normal 0.000277 0.000000 0.000059
  outer loop
    vertex -0.061892 0.032500 -0.008698
    vertex -0.061892 0.000000 -0.008698
    vertex -0.060079 0.032500 -0.017227
  endloop
endfacet
facet normal 0.000277 0.000000 0.000059
  outer loop
    vertex -0.060079 0.032500 -0.017227
    vertex -0.061892 0.000000 -0.008698
    vertex -0.060079 0.000000 -0.017227
  endloop
endfacet
facet normal 0.000266 0.000000 0.000097
  outer loop
    vertex -0.060079 0.032500 -0.017227
    vertex -0.060079 0.000000 -0.017227
    vertex -0.057097 0.032500 -0.025421
  endloop
endfacet
facet normal 0.000266 0.000000 0.000097
  outer loop
    vertex -0.057097 0.032500 -0.025421
    vertex -0.060079 0.000000 -0.017227
    vertex -0.057097 0.000000 -0.025421
  endloop
endfacet
facet normal 0.000250 0.000000 0.000133
  outer loop
    vertex -0.057097 0.032500 -0.025421
    vertex -0.057097 0.000000 -0.025421
    vertex -0.053003 0.032500 -0.033120
  endloop
endfacet
facet normal 0.000250 0.000000 0.000133
  outer loop
    vertex -0.053003 0.032500 -0.033120
    vertex -0.057097 0.000000 -0.025421
    vertex -0.053003 0.000000 -0.033120
  endloop
endfacet
facet normal 0.000229 0.000000 0.000167
  outer loop
    vertex -0.053003 0.032500 -0.033120
    vertex -0.053003 0.000000 -0.033120
    vertex -0.047878 0.032500 -0.040174
  endloop
endfacet
facet normal 0.000229 0.000000 0.000167
  outer loop
    vertex -0.047878 0.032500 -0.040174
    vertex -0.053003 0.000000 -0.033120
    vertex -0.047878 0.000000 -0.040174
  endloop
endfacet
facet normal 0.000204 0.000000 0.000197
  outer loop
    vertex -0.047878 0.032500 -0.040174
    vertex -0.047878 0.000000 -0.040174
    vertex -0.041821 0.032500 -0.046447
  endloop
endfacet
facet normal 0.000204 0.000000 0.000197
  outer loop
    vertex -0.041821 0.032500 -0.046447
    vertex -0.047878 0.000000 -0.040174
    vertex -0.041821 0.000000 -0.046447
  endloop
endfacet
facet normal 0.000174 0.000000 0.000223
  outer loop
    vertex -0.041821 0.032500 -0.046447
    vertex -0.041821 0.000000 -0.046447
    vertex -0.034950 0.032500 -0.051815
  endloop
endfacet
facet normal 0.000174 0.000000 0.000223
  outer loop
    vertex -0.034950 0.032500 -0.051815
    vertex -0.041821 0.000000 -0.046447
    vertex -0.034950 0.000000 -0.051815
  endloop
endfacet
facet normal 0.000142 0.000000 0.000245
  outer loop
    vertex -0.034950 0.032500 -0.051815
    vertex -0.034950 0.000000 -0.051815
    vertex -0.027398 0.032500 -0.056175
  endloop
endfacet
facet normal 0.000142 0.000000 0.000245
  outer loop
    vertex -0.027398 0.032500 -0.056175
    vertex -0.034950 0.000000 -0.051815
    vertex -0.027398 0.000000 -0.056175
  endloop
endfacet
facet normal 0.000106 0.000000 0.000263
  outer loop
    vertex -0.027398 0.032500 -0.056175
    vertex -0.027398 0.000000 -0.056175
    vertex -0.019314 0.032500 -0.059441
  endloop
endfacet
facet normal 0.000106 0.000000 0.000263
  outer loop
    vertex -0.019314 0.032500 -0.059441
    vertex -0.027398 0.000000 -0.056175
    vertex -0.019314 0.000000 -0.059441
  endloop
endfacet
facet normal 0.000069 0.000000 0.000275
  outer loop
    vertex -0.019314 0.032500 -0.059441
    vertex -0.019314 0.000000 -0.059441
    vertex -0.010853 0.032500 -0.061550
  endloop
endfacet
facet normal 0.000069 0.000000 0.000275
  outer loop
    vertex -0.010853 0.032500 -0.061550
    vertex -0.019314 0.000000 -0.059441
    vertex -0.010853 0.000000 -0.061550
  endloop
endfacet
facet normal 0.000030 0.000000 0.000282
  outer loop
    vertex -0.010853 0.032500 -0.061550
    vertex -0.010853 0.000000 -0.061550
    vertex -0.002181 0.032500 -0.062462
  endloop
endfacet
facet normal 0.000030 0.000000 0.000282
  outer loop
    vertex -0.002181 0.032500 -0.062462
    vertex -0.010853 0.000000 -0.061550
    vertex -0.002181 0.000000 -0.062462
  endloop
endfacet
facet normal -0.000010 0.000000 0.000283
  outer loop
    vertex -0.002181 0.032500 -0.062462
    vertex -0.002181 0.000000 -0.062462
    vertex 0.006533 0.032500 -0.062158
  endloop
endfacet
facet normal -0.000010 0.000000 0.000283
  outer loop
    vertex 0.006533 0.032500 -0.062158
    vertex -0.002181 0.000000 -0.062462
    vertex 0.006533 0.000000 -0.062158
  endloop
endfacet
facet normal -0.000049 0.000000 0.000279
  outer loop
    vertex 0.006533 0.032500 -0.062158
    vertex 0.006533 0.000000 -0.062158
    vertex 0.015120 0.032500 -0.060643
  endloop
endfacet
facet normal -0.000049 0.000000 0.000279
  outer loop
    vertex 0.015120 0.032500 -0.060643
    vertex 0.006533 0.000000 -0.062158
    vertex 0.015120 0.000000 -0.060643
  endloop
endfacet
facet normal -0.000088 0.000000 0.000270
  outer loop
    vertex 0.015120 0.032500 -0.060643
    vertex 0.015120 0.000000 -0.060643
    vertex 0.023413 0.032500 -0.057949
  endloop
endfacet
facet normal -0.000088 0.000000 0.000270
  outer loop
    vertex 0.023413 0.032500 -0.057949
    vertex 0.015120 0.000000 -0.060643
    vertex 0.023413 0.000000 -0.057949
  endloop
endfacet
facet normal -0.000124 0.000000 0.000255
  outer loop
    vertex 0.023413 0.032500 -0.057949
    vertex 0.023413 0.000000 -0.057949
    vertex 0.031250 0.032500 -0.054127
  endloop
endfacet
facet normal -0.000124 0.000000 0.000255
  outer loop
    vertex 0.031250 0.032500 -0.054127
    vertex 0.023413 0.000000 -0.057949
    vertex 0.031250 0.000000 -0.054127
  endloop
endfacet
facet normal -0.000158 0.000000 0.000235
  outer loop
    vertex 0.031250 0.032500 -0.054127
    vertex 0.031250 0.000000 -0.054127
    vertex 0.038479 0.032500 -0.049251
  endloop
endfacet
facet normal -0.000158 0.000000 0.000235
  outer loop
    vertex 0.038479 0.032500 -0.049251
    vertex 0.031250 0.000000 -0.054127
    vertex 0.038479 0.000000 -0.049251
  endloop
endfacet
facet normal -0.000190 0.000000 0.000211
  outer loop
    vertex 0.038479 0.032500 -0.049251
    vertex 0.038479 0.000000 -0.049251
    vertex 0.044959 0.032500 -0.043416
  endloop
endfacet
facet normal -0.000190 0.000000 0.000211
  outer loop
    vertex 0.044959 0.032500 -0.043416
    vertex 0.038479 0.000000 -0.049251
    vertex 0.044959 0.000000 -0.043416
  endloop
endfacet
facet normal -0.000217 0.000000 0.000182
  outer loop
    vertex 0.044959 0.032500 -0.043416
    vertex 0.044959 0.000000 -0.043416
    vertex 0.050564 0.032500 -0.036737
  endloop
endfacet
facet normal -0.000217 0.000000 0.000182
  outer loop
    vertex 0.050564 0.032500 -0.036737
    vertex 0.044959 0.000000 -0.043416
    vertex 0.050564 0.000000 -0.036737
  endloop
endfacet
facet normal -0.000240 0.000000 0.000150
  outer loop
    vertex 0.050564 0.032500 -0.036737
    vertex 0.050564 0.000000 -0.036737
    vertex 0.055184 0.032500 -0.029342
  endloop
endfacet
facet normal -0.000240 0.000000 0.000150
  outer loop
    vertex 0.055184 0.032500 -0.029342
    vertex 0.050564 0.000000 -0.036737
    vertex 0.055184 0.000000 -0.029342
  endloop
endfacet
facet normal -0.000259 0.000000 0.000115
  outer loop
    vertex 0.055184 0.032500 -0.029342
    vertex 0.055184 0.000000 -0.029342
    vertex 0.058731 0.032500 -0.021376
  endloop
endfacet
facet normal -0.000259 0.000000 0.000115
  outer loop
    vertex 0.058731 0.032500 -0.021376
    vertex 0.055184 0.000000 -0.029342
    vertex 0.058731 0.000000 -0.021376
  endloop
endfacet
facet normal -0.000272 0.000000 0.000078
  outer loop
    vertex 0.058731 0.032500 -0.021376
    vertex 0.058731 0.000000 -0.021376
    vertex 0.061134 0.032500 -0.012994
  endloop
endfacet
facet normal -0.000272 0.000000 0.000078
  outer loop
    vertex 0.061134 0.032500 -0.012994
    vertex 0.058731 0.000000 -0.021376
    vertex 0.061134 0.000000 -0.012994
  endloop
endfacet
facet normal -0.000281 0.000000 0.000039
  outer loop
    vertex 0.061134 0.032500 -0.012994
    vertex 0.061134 0.000000 -0.012994
    vertex 0.062348 0.032500 -0.004360
  endloop
endfacet
facet normal -0.000281 0.000000 0.000039
  outer loop
    vertex 0.062348 0.032500 -0.004360
    vertex 0.061134 0.000000 -0.012994
    vertex 0.062348 0.000000 -0.004360
  endloop
endfacet
facet normal -0.000283 0.000000 0.000000
  outer loop
    vertex 0.062348 0.032500 -0.004360
    vertex 0.062348 0.000000 -0.004360
    vertex 0.062348 0.032500 0.004360
  endloop
endfacet
facet normal -0.000283 -0.000000 0.000000
  outer loop
    vertex 0.062348 0.032500 0.004360
    vertex 0.062348 0.000000 -0.004360
    vertex 0.062348 0.000000 0.004360
  endloop
endfacet
facet normal -0.000281 -0.000000 -0.000039
  outer loop
    vertex 0.062348 0.032500 0.004360
    vertex 0.062348 0.000000 0.004360
    vertex 0.061134 0.032500 0.012994
  endloop
endfacet
facet normal -0.000281 -0.000000 -0.000039
  outer loop
    vertex 0.061134 0.032500 0.012994
    vertex 0.062348 0.000000 0.004360
    vertex 0.061134 0.000000 0.012994
  endloop
endfacet
facet normal -0.000272 -0.000000 -0.000078
  outer loop
    vertex 0.061134 0.032500 0.012994
    vertex 0.061134 0.000000 0.012994
    vertex 0.058731 0.032500 0.021376
  endloop
endfacet
facet normal -0.000272 -0.000000 -0.000078
  outer loop
    vertex 0.058731 0.032500 0.021376
    vertex 0.061134 0.000000 0.012994
    vertex 0.058731 0.000000 0.021376
  endloop
endfacet
facet normal -0.000259 -0.000000 -0.000115
  outer loop
    vertex 0.058731 0.032500 0.021376
    vertex 0.058731 0.000000 0.021376
    vertex 0.055184 0.032500 0.029342
  endloop
endfacet
facet normal -0.000259 -0.000000 -0.000115
  outer loop
    vertex 0.055184 0.032500 0.029342
    vertex 0.058731 0.000000 0.021376
    vertex 0.055184 0.000000 0.029342
  endloop
endfacet
facet normal -0.000240 -0.000000 -0.000150
  outer loop
    vertex 0.055184 0.032500 0.029342
    vertex 0.055184 0.000000 0.029342
    vertex 0.050564 0.032500 0.036737
  endloop
endfacet
facet normal -0.000240 -0.000000 -0.000150
  outer loop
    vertex 0.050564 0.032500 0.036737
    vertex 0.055184 0.000000 0.029342
    vertex 0.050564 0.000000 0.036737
  endloop
endfacet
facet normal -0.000217 -0.000000 -0.000182
  outer loop
    vertex 0.050564 0.032500 0.036737
    vertex 0.050564 0.000000 0.036737
    vertex 0.044959 0.032500 0.043416
  endloop
endfacet
facet normal -0.000217 -0.000000 -0.000182
  outer loop
    vertex 0.044959 0.032500 0.043416
    vertex 0.050564 0.000000 0.036737
    vertex 0.044959 0.000000 0.043416
  endloop
endfacet
facet normal -0.000190 -0.000000 -0.000211
  outer loop
    vertex 0.044959 0.032500 0.043416
    vertex 0.044959 0.000000 0.043416
    vertex 0.038479 0.032500 0.049251
  endloop
endfacet
facet normal -0.000190 -0.000000 -0.000211
  outer loop
    vertex 0.038479 0.032500 0.049251
    vertex 0.044959 0.000000 0.043416
    vertex 0.038479 0.000000 0.049251
  endloop
endfacet
facet normal -0.000158 -0.000000 -0.000235
  outer loop
    vertex 0.038479 0.032500 0.049251
    vertex 0.038479 0.000000 0.049251
    vertex 0.031250 0.032500 0.054127
  endloop
endfacet
facet normal -0.000158 -0.000000 -0.000235
  outer loop
    vertex 0.031250 0.032500 0.054127
    vertex 0.038479 0.000000 0.049251
    vertex 0.031250 0.000000 0.054127
  endloop
endfacet
facet normal -0.000124 -0.000000 -0.000255
  outer loop
    vertex 0.031250 0.032500 0.054127
    vertex 0.031250 0.000000 0.054127
    vertex 0.023413 0.032500 0.057949
  endloop
endfacet
facet normal -0.000124 -0.000000 -0.000255
  outer loop
    vertex 0.023413 0.032500 0.057949
    vertex 0.031250 0.000000 0.054127
    vertex 0.023413 0.000000 0.057949
  endloop
endfacet
facet normal -0.000088 -0.000000 -0.000270
  outer loop
    vertex 0.023413 0.032500 0.057949
    vertex 0.023413 0.000000 0.057949
    vertex 0.015120 0.032500 0.060643
  endloop
endfacet
facet normal -0.000088 -0.000000 -0.000270
  outer loop
    vertex 0.015120 0.032500 0.060643
    vertex 0.023413 0.000000 0.057949
    vertex 0.015120 0.000000 0.060643
  endloop
endfacet
facet normal -0.000049 -0.000000 -0.000279
  outer loop
    vertex 0.015120 0.032500 0.060643
    vertex 0.015120 0.000000 0.060643
    vertex 0.006533 0.032500 0.062158
  endloop
endfacet
facet normal -0.000049 -0.000000 -0.000279
  outer loop
    vertex 0.006533 0.032500 0.062158
    vertex 0.015120 0.000000 0.060643
    vertex 0.006533 0.000000 0.062158
  endloop
endfacet
facet normal -0.000010 -0.000000 -0.000283
  outer loop
    vertex 0.006533 0.032500 0.062158
    vertex 0.006533 0.000000 0.062158
    vertex -0.002181 0.032500 0.062462
  endloop
endfacet
facet normal -0.000010 -0.000000 -0.000283
  outer loop
    vertex -0.002181 0.032500 0.062462
    vertex 0.006533 0.000000 0.062158
    vertex -0.002181 0.000000 0.062462
  endloop
endfacet
facet normal 0.000030 0.000000 -0.000282
  outer loop
    vertex -0.002181 0.032500 0.062462
    vertex -0.002181 0.000000 0.062462
    vertex -0.010853 0.032500 0.061550
  endloop
endfacet
facet normal 0.000030 0.000000 -0.000282
  outer loop
    vertex -0.010853 0.032500 0.061550
    vertex -0.002181 0.000000 0.062462
    vertex -0.010853 0.000000 0.061550
  endloop
endfacet
facet normal 0.000069 0.000000 -0.000275
  outer loop
    vertex -0.010853 0.032500 0.061550
    vertex -0.010853 0.000000 0.061550
    vertex -0.019314 0.032500 0.059441
  endloop
endfacet
facet normal 0.000069 0.000000 -0.000275
  outer loop
    vertex -0.019314 0.032500 0.059441
    vertex -0.010853 0.000000 0.061550
    vertex -0.019314 0.000000 0.059441
  endloop
endfacet
facet normal 0.000106 0.000000 -0.000263
  outer loop
    vertex -0.019314 0.032500 0.059441
    vertex -0.019314 0.000000 0.059441
    vertex -0.027398 0.032500 0.056175
  endloop
endfacet
facet normal 0.000106 0.000000 -0.000263
  outer loop
    vertex -0.027398 0.032500 0.056175
    vertex -0.019314 0.000000 0.059441
    vertex -0.027398 0.000000 0.056175
  endloop
endfacet
facet normal 0.000142 0.000000 -0.000245
  outer loop
    vertex -0.027398 0.032500 0.056175
    vertex -0.027398 0.000000 0.056175
    vertex -0.034950 0.032500 0.051815
  endloop
endfacet
facet normal 0.000142 0.000000 -0.000245
  outer loop
    vertex -0.034950 0.032500 0.051815
    vertex -0.027398 0.000000 0.056175
    vertex -0.034950 0.000000 0.051815
  endloop
endfacet
facet normal 0.000174 0.000000 -0.000223
  outer loop
    vertex -0.034950 0.032500 0.051815
    vertex -0.034950 0.000000 0.051815
    vertex -0.041821 0.032500 0.046447
  endloop
endfacet
facet normal 0.000174 0.000000 -0.000223
  outer loop
    vertex -0.041821 0.032500 0.046447
    vertex -0.034950 0.000000 0.051815
    vertex -0.041821 0.000000 0.046447
  endloop
endfacet
facet normal 0.000204 0.000000 -0.000197
  outer loop
    vertex -0.041821 0.032500 0.046447
    vertex -0.041821 0.000000 0.046447
    vertex -0.047878 0.032500 0.040174
  endloop
endfacet
facet normal 0.000204 0.000000 -0.000197
  outer loop
    vertex -0.047878 0.032500 0.040174
    vertex -0.041821 0.000000 0.046447
    vertex -0.047878 0.000000 0.040174
  endloop
endfacet
facet normal 0.000229 0.000000 -0.000167
  outer loop
    vertex -0.047878 0.032500 0.040174
    vertex -0.047878 0.000000 0.040174
    vertex -0.053003 0.032500 0.033120
  endloop
endfacet
facet normal 0.000229 0.000000 -0.000167
  outer loop
    vertex -0.053003 0.032500 0.033120
    vertex -0.047878 0.000000 0.040174
    vertex -0.053003 0.000000 0.033120
  endloop
endfacet
facet normal 0.000250 0.000000 -0.000133
  outer loop
    vertex -0.053003 0.032500 0.033120
    vertex -0.053003 0.000000 0.033120
    vertex -0.057097 0.032500 0.025421
  endloop
endfacet
facet normal 0.000250 0.000000 -0.000133
  outer loop
    vertex -0.057097 0.032500 0.025421
    vertex -0.053003 0.000000 0.033120
    vertex -0.057097 0.000000 0.025421
  endloop
endfacet
facet normal 0.000266 0.000000 -0.000097
  outer loop
    vertex -0.057097 0.032500 0.025421
    vertex -0.057097 0.000000 0.025421
    vertex -0.060079 0.032500 0.017227
  endloop
endfacet
facet normal 0.000266 0.000000 -0.000097
  outer loop
    vertex -0.060079 0.032500 0.017227
    vertex -0.057097 0.000000 0.025421
    vertex -0.060079 0.000000 0.017227
  endloop
endfacet
facet normal 0.000277 0.000000 -0.000059
  outer loop
    vertex -0.060079 0.032500 0.017227
    vertex -0.060079 0.000000 0.017227
    vertex -0.061892 0.032500 0.008698
  endloop
endfacet
facet normal 0.000277 0.000000 -0.000059
  outer loop
    vertex -0.061892 0.032500 0.008698
    vertex -0.060079 0.000000 0.017227
    vertex -0.061892 0.000000 0.008698
  endloop
endfacet
facet normal -0.000454 -0.000000 -0.000020
  outer loop
    vertex -0.155372 0.032500 -0.013984
    vertex -0.155372 0.000000 -0.013984
    vertex -0.156000 0.032500 0.000000
  endloop
endfacet
facet normal -0.000454 -0.000000 -0.000020
  outer loop
    vertex -0.156000 0.032500 0.000000
    vertex -0.155372 0.000000 -0.013984
    vertex -0.156000 0.000000 0.000000
  endloop
endfacet
facet normal -0.000454 0.000000 0.000020
  outer loop
    vertex -0.156000 0.032500 0.000000
    vertex -0.156000 0.000000 0.000000
    vertex -0.155372 0.032500 0.013984
  endloop
endfacet
facet normal -0.000454 0.000000 0.000020
  outer loop
    vertex -0.155372 0.032500 0.013984
    vertex -0.156000 0.000000 0.000000
    vertex -0.155372 0.000000 0.013984
  endloop
endfacet
facet normal -0.000451 0.000000 0.000061
  outer loop
    vertex -0.155372 0.032500 0.013984
    vertex -0.155372 0.000000 0.013984
    vertex -0.153493 0.032500 0.027855
  endloop
endfacet
facet normal -0.000451 0.000000 0.000061
  outer loop
    vertex -0.153493 0.032500 0.027855
    vertex -0.155372 0.000000 0.013984
    vertex -0.153493 0.000000 0.027855
  endloop
endfacet
facet normal -0.000444 0.000000 0.000101
  outer loop
    vertex -0.153493 0.032500 0.027855
    vertex -0.153493 0.000000 0.027855
    vertex -0.150378 0.032500 0.041502
  endloop
endfacet
facet normal -0.000444 0.000000 0.000101
  outer loop
    vertex -0.150378 0.032500 0.041502
    vertex -0.153493 0.000000 0.027855
    vertex -0.150378 0.000000 0.041502
  endloop
endfacet
facet normal -0.000433 0.000000 0.000141
  outer loop
    vertex -0.150378 0.032500 0.041502
    vertex -0.150378 0.000000 0.041502
    vertex -0.146053 0.032500 0.054814
  endloop
endfacet
facet normal -0.000433 0.000000 0.000141
  outer loop
    vertex -0.146053 0.032500 0.054814
    vertex -0.150378 0.000000 0.041502
    vertex -0.146053 0.000000 0.054814
  endloop
endfacet
facet normal -0.000418 0.000000 0.000179
  outer loop
    vertex -0.146053 0.032500 0.054814
    vertex -0.146053 0.000000 0.054814
    vertex -0.140551 0.032500 0.067686
  endloop
endfacet
facet normal -0.000418 0.000000 0.000179
  outer loop
    vertex -0.140551 0.032500 0.067686
    vertex -0.146053 0.000000 0.054814
    vertex -0.140551 0.000000 0.067686
  endloop
endfacet
facet normal -0.000401 0.000000 0.000216
  outer loop
    vertex -0.140551 0.032500 0.067686
    vertex -0.140551 0.000000 0.067686
    vertex -0.133918 0.032500 0.080012
  endloop
endfacet
facet normal -0.000401 0.000000 0.000216
  outer loop
    vertex -0.133918 0.032500 0.080012
    vertex -0.140551 0.000000 0.067686
    vertex -0.133918 0.000000 0.080012
  endloop
endfacet
facet normal -0.000380 0.000000 0.000251
  outer loop
    vertex -0.133918 0.032500 0.080012
    vertex -0.133918 0.000000 0.080012
    vertex -0.126207 0.032500 0.091694
  endloop
endfacet
facet normal -0.000380 0.000000 0.000251
  outer loop
    vertex -0.126207 0.032500 0.091694
    vertex -0.133918 0.000000 0.080012
    vertex -0.126207 0.000000 0.091694
  endloop
endfacet
facet normal -0.000356 0.000000 0.000284
  outer loop
    vertex -0.126207 0.032500 0.091694
    vertex -0.126207 0.000000 0.091694
    vertex -0.117479 0.032500 0.102638
  endloop
endfacet
facet normal -0.000356 0.000000 0.000284
  outer loop
    vertex -0.117479 0.032500 0.102638
    vertex -0.126207 0.000000 0.091694
    vertex -0.117479 0.000000 0.102638
  endloop
endfacet
facet normal -0.000329 0.000000 0.000314
  outer loop
    vertex -0.117479 0.032500 0.102638
    vertex -0.117479 0.000000 0.102638
    vertex -0.107806 0.032500 0.112756
  endloop
endfacet
facet normal -0.000329 0.000000 0.000314
  outer loop
    vertex -0.107806 0.032500 0.112756
    vertex -0.117479 0.000000 0.102638
    vertex -0.107806 0.000000 0.112756
  endloop
endfacet
facet normal -0.000299 0.000000 0.000343
  outer loop
    vertex -0.107806 0.032500 0.112756
    vertex -0.107806 0.000000 0.112756
    vertex -0.097264 0.032500 0.121966
  endloop
endfacet
facet normal -0.000299 0.000000 0.000343
  outer loop
    vertex -0.097264 0.032500 0.121966
    vertex -0.107806 0.000000 0.112756
    vertex -0.097264 0.000000 0.121966
  endloop
endfacet
facet normal -0.000267 0.000000 0.000368
  outer loop
    vertex -0.097264 0.032500 0.121966
    vertex -0.097264 0.000000 0.121966
    vertex -0.085940 0.032500 0.130193
  endloop
endfacet
facet normal -0.000267 0.000000 0.000368
  outer loop
    vertex -0.085940 0.032500 0.130193
    vertex -0.097264 0.000000 0.121966
    vertex -0.085940 0.000000 0.130193
  endloop
endfacet
facet normal -0.000233 0.000000 0.000391
  outer loop
    vertex -0.085940 0.032500 0.130193
    vertex -0.085940 0.000000 0.130193
    vertex -0.073924 0.032500 0.137373
  endloop
endfacet
facet normal -0.000233 0.000000 0.000391
  outer loop
    vertex -0.073924 0.032500 0.137373
    vertex -0.085940 0.000000 0.130193
    vertex -0.073924 0.000000 0.137373
  endloop
endfacet
facet normal -0.000197 0.000000 0.000410
  outer loop
    vertex -0.073924 0.032500 0.137373
    vertex -0.073924 0.000000 0.137373
    vertex -0.061312 0.032500 0.143446
  endloop
endfacet
facet normal -0.000197 0.000000 0.000410
  outer loop
    vertex -0.061312 0.032500 0.143446
    vertex -0.073924 0.000000 0.137373
    vertex -0.061312 0.000000 0.143446
  endloop
endfacet
facet normal -0.000160 0.000000 0.000426
  outer loop
    vertex -0.061312 0.032500 0.143446
    vertex -0.061312 0.000000 0.143446
    vertex -0.048207 0.032500 0.148365
  endloop
endfacet
facet normal -0.000160 0.000000 0.000426
  outer loop
    vertex -0.048207 0.032500 0.148365
    vertex -0.061312 0.000000 0.143446
    vertex -0.048207 0.000000 0.148365
  endloop
endfacet
facet normal -0.000121 0.000000 0.000439
  outer loop
    vertex -0.048207 0.032500 0.148365
    vertex -0.048207 0.000000 0.148365
    vertex -0.034713 0.032500 0.152089
  endloop
endfacet
facet normal -0.000121 0.000000 0.000439
  outer loop
    vertex -0.034713 0.032500 0.152089
    vertex -0.048207 0.000000 0.148365
    vertex -0.034713 0.000000 0.152089
  endloop
endfacet
facet normal -0.000081 0.000000 0.000448
  outer loop
    vertex -0.034713 0.032500 0.152089
    vertex -0.034713 0.000000 0.152089
    vertex -0.020940 0.032500 0.154588
  endloop
endfacet
facet normal -0.000081 0.000000 0.000448
  outer loop
    vertex -0.020940 0.032500 0.154588
    vertex -0.034713 0.000000 0.152089
    vertex -0.020940 0.000000 0.154588
  endloop
endfacet
facet normal -0.000041 0.000000 0.000453
  outer loop
    vertex -0.020940 0.032500 0.154588
    vertex -0.020940 0.000000 0.154588
    vertex -0.006999 0.032500 0.155843
  endloop
endfacet
facet normal -0.000041 0.000000 0.000453
  outer loop
    vertex -0.006999 0.032500 0.155843
    vertex -0.020940 0.000000 0.154588
    vertex -0.006999 0.000000 0.155843
  endloop
endfacet
facet normal -0.000000 0.000000 0.000455
  outer loop
    vertex -0.006999 0.032500 0.155843
    vertex -0.006999 0.000000 0.155843
    vertex 0.006999 0.032500 0.155843
  endloop
endfacet
facet normal 0.000000 0.000000 0.000455
  outer loop
    vertex 0.006999 0.032500 0.155843
    vertex -0.006999 0.000000 0.155843
    vertex 0.006999 0.000000 0.155843
  endloop
endfacet
facet normal 0.000041 0.000000 0.000453
  outer loop
    vertex 0.006999 0.032500 0.155843
    vertex 0.006999 0.000000 0.155843
    vertex 0.020940 0.032500 0.154588
  endloop
endfacet
facet normal 0.000041 0.000000 0.000453
  outer loop
    vertex 0.020940 0.032500 0.154588
    vertex 0.006999 0.000000 0.155843
    vertex 0.020940 0.000000 0.154588
  endloop
endfacet
facet normal 0.000081 0.000000 0.000448
  outer loop
    vertex 0.020940 0.032500 0.154588
    vertex 0.020940 0.000000 0.154588
    vertex 0.034713 0.032500 0.152089
  endloop
endfacet
facet normal 0.000081 0.000000 0.000448
  outer loop
    vertex 0.034713 0.032500 0.152089
    vertex 0.020940 0.000000 0.154588
    vertex 0.034713 0.000000 0.152089
  endloop
endfacet
facet normal 0.000121 0.000000 0.000439
  outer loop
    vertex 0.034713 0.032500 0.152089
    vertex 0.034713 0.000000 0.152089
    vertex 0.048207 0.032500 0.148365
  endloop
endfacet
facet normal 0.000121 0.000000 0.000439
  outer loop
    vertex 0.048207 0.032500 0.148365
    vertex 0.034713 0.000000 0.152089
    vertex 0.048207 0.000000 0.148365
  endloop
endfacet
facet normal 0.000160 0.000000 0.000426
  outer loop
    vertex 0.048207 0.032500 0.148365
    vertex 0.048207 0.000000 0.148365
    vertex 0.061312 0.032500 0.143446
  endloop
endfacet
facet normal 0.000160 0.000000 0.000426
  outer loop
    vertex 0.061312 0.032500 0.143446
    vertex 0.048207 0.000000 0.148365
    vertex 0.061312 0.000000 0.143446
  endloop
endfacet
facet normal 0.000197 0.000000 0.000410
  outer loop
    vertex 0.061312 0.032500 0.143446
    vertex 0.061312 0.000000 0.143446
    vertex 0.073924 0.032500 0.137373
  endloop
endfacet
facet normal 0.000197 0.000000 0.000410
  outer loop
    vertex 0.073924 0.032500 0.137373
    vertex 0.061312 0.000000 0.143446
    vertex 0.073924 0.000000 0.137373
  endloop
endfacet
facet normal 0.000233 0.000000 0.000391
  outer loop
    vertex 0.073924 0.032500 0.137373
    vertex 0.073924 0.000000 0.137373
    vertex 0.085940 0.032500 0.130193
  endloop
endfacet
facet normal 0.000233 0.000000 0.000391
  outer loop
    vertex 0.085940 0.032500 0.130193
    vertex 0.073924 0.000000 0.137373
    vertex 0.085940 0.000000 0.130193
  endloop
endfacet
facet normal 0.000267 0.000000 0.000368
  outer loop
    vertex 0.085940 0.032500 0.130193
    vertex 0.085940 0.000000 0.130193
    vertex 0.097264 0.032500 0.121966
  endloop
endfacet
facet normal 0.000267 0.000000 0.000368
  outer loop
    vertex 0.097264 0.032500 0.121966
    vertex 0.085940 0.000000 0.130193
    vertex 0.097264 0.000000 0.121966
  endloop
endfacet
facet normal 0.000299 0.000000 0.000343
  outer loop
    vertex 0.097264 0.032500 0.121966
    vertex 0.097264 0.000000 0.121966
    vertex 0.107806 0.032500 0.112756
  endloop
endfacet
facet normal 0.000299 0.000000 0.000343
  outer loop
    vertex 0.107806 0.032500 0.112756
    vertex 0.097264 0.000000 0.121966
    vertex 0.107806 0.000000 0.112756
  endloop
endfacet
facet normal 0.000329 0.000000 0.000314
  outer loop
    vertex 0.107806 0.032500 0.112756
    vertex 0.107806 0.000000 0.112756
    vertex 0.117479 0.032500 0.102638
  endloop
endfacet
facet normal 0.000329 0.000000 0.000314
  outer loop
    vertex 0.117479 0.032500 0.102638
    vertex 0.107806 0.000000 0.112756
    vertex 0.117479 0.000000 0.102638
  endloop
endfacet
facet normal 0.000356 0.000000 0.000284
  outer loop
    vertex 0.117479 0.032500 0.102638
    vertex 0.117479 0.000000 0.102638
    vertex 0.126207 0.032500 0.091694
  endloop
endfacet
facet normal 0.000356 0.000000 0.000284
  outer loop
    vertex 0.126207 0.032500 0.091694
    vertex 0.117479 0.000000 0.102638
    vertex 0.126207 0.000000 0.091694
  endloop
endfacet
facet normal 0.000380 0.000000 0.000251
  outer loop
    vertex 0.126207 0.032500 0.091694
    vertex 0.126207 0.000000 0.091694
    vertex 0.133918 0.032500 0.080012
  endloop
endfacet
facet normal 0.000380 0.000000 0.000251
  outer loop
    vertex 0.133918 0.032500 0.080012
    vertex 0.126207 0.000000 0.091694
    vertex 0.133918 0.000000 0.080012
  endloop
endfacet
facet normal 0.000401 0.000000 0.000216
  outer loop
    vertex 0.133918 0.032500 0.080012
    vertex 0.133918 0.000000 0.080012
    vertex 0.140551 0.032500 0.067686
  endloop
endfacet
facet normal 0.000401 0.000000 0.000216
  outer loop
    vertex 0.140551 0.032500 0.067686
    vertex 0.133918 0.000000 0.080012
    vertex 0.140551 0.000000 0.067686
  endloop
endfacet
facet normal 0.000418 0.000000 0.000179
  outer loop
    vertex 0.140551 0.032500 0.067686
    vertex 0.140551 0.000000 0.067686
    vertex 0.146053 0.032500 0.054814
  endloop
endfacet
facet normal 0.000418 0.000000 0.000179
  outer loop
    vertex 0.146053 0.032500 0.054814
    vertex 0.140551 0.000000 0.067686
    vertex 0.146053 0.000000 0.054814
  endloop
endfacet
facet normal 0.000433 0.000000 0.000141
  outer loop
    vertex 0.146053 0.032500 0.054814
    vertex 0.146053 0.000000 0.054814
    vertex 0.150378 0.032500 0.041502
  endloop
endfacet
facet normal 0.000433 0.000000 0.000141
  outer loop
    vertex 0.150378 0.032500 0.041502
    vertex 0.146053 0.000000 0.054814
    vertex 0.150378 0.000000 0.041502
  endloop
endfacet
facet normal 0.000444 0.000000 0.000101
  outer loop
    vertex 0.150378 0.032500 0.041502
    vertex 0.150378 0.000000 0.041502
    vertex 0.153493 0.032500 0.027855
  endloop
endfacet
facet normal 0.000444 0.000000 0.000101
  outer loop
    vertex 0.153493 0.032500 0.027855
    vertex 0.150378 0.000000 0.041502
    vertex 0.153493 0.000000 0.027855
  endloop
endfacet
facet normal 0.000451 0.000000 0.000061
  outer loop
    vertex 0.153493 0.032500 0.027855
    vertex 0.153493 0.000000 0.027855
    vertex 0.155372 0.032500 0.013984
  endloop
endfacet
facet normal 0.000451 0.000000 0.000061
  outer loop
    vertex 0.155372 0.032500 0.013984
    vertex 0.153493 0.000000 0.027855
    vertex 0.155372 0.000000 0.013984
  endloop
endfacet
facet normal 0.000454 0.000000 0.000020
  outer loop
    vertex 0.155372 0.032500 0.013984
    vertex 0.155372 0.000000 0.013984
    vertex 0.156000 0.032500 0.000000
  endloop
endfacet
facet normal 0.000454 0.000000 0.000020
  outer loop
    vertex 0.156000 0.032500 0.000000
    vertex 0.155372 0.000000 0.013984
    vertex 0.156000 0.000000 0.000000
  endloop
endfacet
facet normal 0.000454 0.000000 -0.000020
  outer loop
    vertex 0.156000 0.032500 0.000000
    vertex 0.156000 0.000000 0.000000
    vertex 0.155372 0.032500 -0.013984
  endloop
endfacet
facet normal 0.000454 0.000000 -0.000020
  outer loop
    vertex 0.155372 0.032500 -0.013984
    vertex 0.156000 0.000000 0.000000
    vertex 0.155372 0.000000 -0.013984
  endloop
endfacet
facet normal 0.000451 0.000000 -0.000061
  outer loop
    vertex 0.155372 0.032500 -0.013984
    vertex 0.155372 0.000000 -0.013984
    vertex 0.153493 0.032500 -0.027855
  endloop
endfacet
facet normal 0.000451 0.000000 -0.000061
  outer loop
    vertex 0.153493 0.032500 -0.027855
    vertex 0.155372 0.000000 -0.013984
    vertex 0.153493 0.000000 -0.027855
  endloop
endfacet
facet normal 0.000444 0.000000 -0.000101
  outer loop
    vertex 0.153493 0.032500 -0.027855
    vertex 0.153493 0.000000 -0.027855
    vertex 0.150378 0.032500 -0.041502
  endloop
endfacet
facet normal 0.000444 0.000000 -0.000101
  outer loop
    vertex 0.150378 0.032500 -0.041502
    vertex 0.153493 0.000000 -0.027855
    vertex 0.150378 0.000000 -0.041502
  endloop
endfacet
facet normal 0.000433 0.000000 -0.000141
  outer loop
    vertex 0.150378 0.032500 -0.041502
    vertex 0.150378 0.000000 -0.041502
    vertex 0.146053 0.032500 -0.054814
  endloop
endfacet
facet normal 0.000433 0.000000 -0.000141
  outer loop
    vertex 0.146053 0.032500 -0.054814
    vertex 0.150378 0.000000 -0.041502
    vertex 0.146053 0.000000 -0.054814
  endloop
endfacet
facet normal 0.000418 0.000000 -0.000179
  outer loop
    vertex 0.146053 0.032500 -0.054814
    vertex 0.146053 0.000000 -0.054814
    vertex 0.140551 0.032500 -0.067686
  endloop
endfacet
facet normal 0.000418 0.000000 -0.000179
  outer loop
    vertex 0.140551 0.032500 -0.067686
    vertex 0.146053 0.000000 -0.054814
    vertex 0.140551 0.000000 -0.067686
  endloop
endfacet
facet normal 0.000401 0.000000 -0.000216
  outer loop
    vertex 0.140551 0.032500 -0.067686
    vertex 0.140551 0.000000 -0.067686
    vertex 0.133918 0.032500 -0.080012
  endloop
endfacet
facet normal 0.000401 0.000000 -0.000216
  outer loop
    vertex 0.133918 0.032500 -0.080012
    vertex 0.140551 0.000000 -0.067686
    vertex 0.133918 0.000000 -0.080012
  endloop
endfacet
facet normal 0.000380 0.000000 -0.000251
  outer loop
    vertex 0.133918 0.032500 -0.080012
    vertex 0.133918 0.000000 -0.080012
    vertex 0.126207 0.032500 -0.091694
  endloop
endfacet
facet normal 0.000380 0.000000 -0.000251
  outer loop
    vertex 0.126207 0.032500 -0.091694
    vertex 0.133918 0.000000 -0.080012
    vertex 0.126207 0.000000 -0.091694
  endloop
endfacet
facet normal 0.000356 0.000000 -0.000284
  outer loop
    vertex 0.126207 0.032500 -0.091694
    vertex 0.126207 0.000000 -0.091694
    vertex 0.117479 0.032500 -0.102638
  endloop
endfacet
facet normal 0.000356 0.000000 -0.000284
  outer loop
    vertex 0.117479 0.032500 -0.102638
    vertex 0.126207 0.000000 -0.091694
    vertex 0.117479 0.000000 -0.102638
  endloop
endfacet
facet normal 0.000329 0.000000 -0.000314
  outer loop
    vertex 0.117479 0.032500 -0.102638
    vertex 0.117479 0.000000 -0.102638
    vertex 0.107806 0.032500 -0.112756
  endloop
endfacet
facet normal 0.000329 0.000000 -0.000314
  outer loop
    vertex 0.107806 0.032500 -0.112756
    vertex 0.117479 0.000000 -0.102638
    vertex 0.107806 0.000000 -0.112756
  endloop
endfacet
facet normal 0.000299 0.000000 -0.000343
  outer loop
    vertex 0.107806 0.032500 -0.112756
    vertex 0.107806 0.000000 -0.112756
    vertex 0.097264 0.032500 -0.121966
  endloop
endfacet
facet normal 0.000299 0.000000 -0.000343
  outer loop
    vertex 0.097264 0.032500 -0.121966
    vertex 0.107806 0.000000 -0.112756
    vertex 0.097264 0.000000 -0.121966
  endloop
endfacet
facet normal 0.000267 0.000000 -0.000368
  outer loop
    vertex 0.097264 0.032500 -0.121966
    vertex 0.097264 0.000000 -0.121966
    vertex 0.085940 0.032500 -0.130193
  endloop
endfacet
facet normal 0.000267 0.000000 -0.000368
  outer loop
    vertex 0.085940 0.032500 -0.130193
    vertex 0.097264 0.000000 -0.121966
    vertex 0.085940 0.000000 -0.130193
  endloop
endfacet
facet normal 0.000233 0.000000 -0.000391
  outer loop
    vertex 0.085940 0.032500 -0.130193
    vertex 0.085940 0.000000 -0.130193
    vertex 0.073924 0.032500 -0.137373
  endloop
endfacet
facet normal 0.000233 0.000000 -0.000391
  outer loop
    vertex 0.073924 0.032500 -0.137373
    vertex 0.085940 0.000000 -0.130193
    vertex 0.073924 0.000000 -0.137373
  endloop
endfacet
facet normal 0.000197 0.000000 -0.000410
  outer loop
    vertex 0.073924 0.032500 -0.137373
    vertex 0.073924 0.000000 -0.137373
    vertex 0.061312 0.032500 -0.143446
  endloop
endfacet
facet normal 0.000197 0.000000 -0.000410
  outer loop
    vertex 0.061312 0.032500 -0.143446
    vertex 0.073924 0.000000 -0.137373
    vertex 0.061312 0.000000 -0.143446
  endloop
endfacet
facet normal 0.000160 0.000000 -0.000426
  outer loop
    vertex 0.061312 0.032500 -0.143446
    vertex 0.061312 0.000000 -0.143446
    vertex 0.048207 0.032500 -0.148365
  endloop
endfacet
facet normal 0.000160 0.000000 -0.000426
  outer loop
    vertex 0.048207 0.032500 -0.148365
    vertex 0.061312 0.000000 -0.143446
    vertex 0.048207 0.000000 -0.148365
  endloop
endfacet
facet normal 0.000121 0.000000 -0.000439
  outer loop
    vertex 0.048207 0.032500 -0.148365
    vertex 0.048207 0.000000 -0.148365
    vertex 0.034713 0.032500 -0.152089
  endloop
endfacet
facet normal 0.000121 0.000000 -0.000439
  outer loop
    vertex 0.034713 0.032500 -0.152089
    vertex 0.048207 0.000000 -0.148365
    vertex 0.034713 0.000000 -0.152089
  endloop
endfacet
facet normal 0.000081 0.000000 -0.000448
  outer loop
    vertex 0.034713 0.032500 -0.152089
    vertex 0.034713 0.000000 -0.152089
    vertex 0.020940 0.032500 -0.154588
  endloop
endfacet
facet normal 0.000081 0.000000 -0.000448
  outer loop
    vertex 0.020940 0.032500 -0.154588
    vertex 0.034713 0.000000 -0.152089
    vertex 0.020940 0.000000 -0.154588
  endloop
endfacet
facet normal 0.000041 0.000000 -0.000453
  outer loop
    vertex 0.020940 0.032500 -0.154588
    vertex 0.020940 0.000000 -0.154588
    vertex 0.006999 0.032500 -0.155843
  endloop
endfacet
facet normal 0.000041 0.000000 -0.000453
  outer loop
    vertex 0.006999 0.032500 -0.155843
    vertex 0.020940 0.000000 -0.154588
    vertex 0.006999 0.000000 -0.155843
  endloop
endfacet
facet normal -0.000000 -0.000000 -0.000455
  outer loop
    vertex 0.006999 0.032500 -0.155843
    vertex 0.006999 0.000000 -0.155843
    vertex -0.006999 0.032500 -0.155843
  endloop
endfacet
facet normal 0.000000 0.000000 -0.000455
  outer loop
    vertex -0.006999 0.032500 -0.155843
    vertex 0.006999 0.000000 -0.155843
    vertex -0.006999 0.000000 -0.155843
  endloop
endfacet
facet normal -0.000041 -0.000000 -0.000453
  outer loop
    vertex -0.006999 0.032500 -0.155843
    vertex -0.006999 0.000000 -0.155843
    vertex -0.020940 0.032500 -0.154588
  endloop
endfacet
facet normal -0.000041 -0.000000 -0.000453
  outer loop
    vertex -0.020940 0.032500 -0.154588
    vertex -0.006999 0.000000 -0.155843
    vertex -0.020940 0.000000 -0.154588
  endloop
endfacet
facet normal -0.000081 -0.000000 -0.000448
  outer loop
    vertex -0.020940 0.032500 -0.154588
    vertex -0.020940 0.000000 -0.154588
    vertex -0.034713 0.032500 -0.152089
  endloop
endfacet
facet normal -0.000081 -0.000000 -0.000448
  outer loop
    vertex -0.034713 0.032500 -0.152089
    vertex -0.020940 0.000000 -0.154588
    vertex -0.034713 0.000000 -0.152089
  endloop
endfacet
facet normal -0.000121 -0.000000 -0.000439
  outer loop
    vertex -0.034713 0.032500 -0.152089
    vertex -0.034713 0.000000 -0.152089
    vertex -0.048207 0.032500 -0.148365
  endloop
endfacet
facet normal -0.000121 -0.000000 -0.000439
  outer loop
    vertex -0.048207 0.032500 -0.148365
    vertex -0.034713 0.000000 -0.152089
    vertex -0.048207 0.000000 -0.148365
  endloop
endfacet
facet normal -0.000160 -0.000000 -0.000426
  outer loop
    vertex -0.048207 0.032500 -0.148365
    vertex -0.048207 0.000000 -0.148365
    vertex -0.061312 0.032500 -0.143446
  endloop
endfacet
facet normal -0.000160 -0.000000 -0.000426
  outer loop
    vertex -0.061312 0.032500 -0.143446
    vertex -0.048207 0.000000 -0.148365
    vertex -0.061312 0.000000 -0.143446
  endloop
endfacet
facet normal -0.000197 -0.000000 -0.000410
  outer loop
    vertex -0.061312 0.032500 -0.143446
    vertex -0.061312 0.000000 -0.143446
    vertex -0.073924 0.032500 -0.137373
  endloop
endfacet
facet normal -0.000197 -0.000000 -0.000410
  outer loop
    vertex -0.073924 0.032500 -0.137373
    vertex -0.061312 0.000000 -0.143446
    vertex -0.073924 0.000000 -0.137373
  endloop
endfacet
facet normal -0.000233 -0.000000 -0.000391
  outer loop
    vertex -0.073924 0.032500 -0.137373
    vertex -0.073924 0.000000 -0.137373
    vertex -0.085940 0.032500 -0.130193
  endloop
endfacet
facet normal -0.000233 -0.000000 -0.000391
  outer loop
    vertex -0.085940 0.032500 -0.130193
    vertex -0.073924 0.000000 -0.137373
    vertex -0.085940 0.000000 -0.130193
  endloop
endfacet
facet normal -0.000267 -0.000000 -0.000368
  outer loop
    vertex -0.085940 0.032500 -0.130193
    vertex -0.085940 0.000000 -0.130193
    vertex -0.097264 0.032500 -0.121966
  endloop
endfacet
facet normal -0.000267 -0.000000 -0.000368
  outer loop
    vertex -0.097264 0.032500 -0.121966
    vertex -0.085940 0.000000 -0.130193
    vertex -0.097264 0.000000 -0.121966
  endloop
endfacet
facet normal -0.000299 -0.000000 -0.000343
  outer loop
    vertex -0.097264 0.032500 -0.121966
    vertex -0.097264 0.000000 -0.121966
    vertex -0.107806 0.032500 -0.112756
  endloop
endfacet
facet normal -0.000299 -0.000000 -0.000343
  outer loop
    vertex -0.107806 0.032500 -0.112756
    vertex -0.097264 0.000000 -0.121966
    vertex -0.107806 0.000000 -0.112756
  endloop
endfacet
facet normal -0.000329 -0.000000 -0.000314
  outer loop
    vertex -0.107806 0.032500 -0.112756
    vertex -0.107806 0.000000 -0.112756
    vertex -0.117479 0.032500 -0.102638
  endloop
endfacet
facet normal -0.000329 -0.000000 -0.000314
  outer loop
    vertex -0.117479 0.032500 -0.102638
    vertex -0.107806 0.000000 -0.112756
    vertex -0.117479 0.000000 -0.102638
  endloop
endfacet
facet normal -0.000356 -0.000000 -0.000284
  outer loop
    vertex -0.117479 0.032500 -0.102638
    vertex -0.117479 0.000000 -0.102638
    vertex -0.126207 0.032500 -0.091694
  endloop
endfacet
facet normal -0.000356 -0.000000 -0.000284
  outer loop
    vertex -0.126207 0.032500 -0.091694
    vertex -0.117479 0.000000 -0.102638
    vertex -0.126207 0.000000 -0.091694
  endloop
endfacet
facet normal -0.000380 -0.000000 -0.000251
  outer loop
    vertex -0.126207 0.032500 -0.091694
    vertex -0.126207 0.000000 -0.091694
    vertex -0.133918 0.032500 -0.080012
  endloop
endfacet
facet normal -0.000380 -0.000000 -0.000251
  outer loop
    vertex -0.133918 0.032500 -0.080012
    vertex -0.126207 0.000000 -0.091694
    vertex -0.133918 0.000000 -0.080012
  endloop
endfacet
facet normal -0.000401 -0.000000 -0.000216
  outer loop
    vertex -0.133918 0.032500 -0.080012
    vertex -0.133918 0.000000 -0.080012
    vertex -0.140551 0.032500 -0.067686
  endloop
endfacet
facet normal -0.000401 -0.000000 -0.000216
  outer loop
    vertex -0.140551 0.032500 -0.067686
    vertex -0.133918 0.000000 -0.080012
    vertex -0.140551 0.000000 -0.067686
  endloop
endfacet
facet normal -0.000418 -0.000000 -0.000179
  outer loop
    vertex -0.140551 0.032500 -0.067686
    vertex -0.140551 0.000000 -0.067686
    vertex -0.146053 0.032500 -0.054814
  endloop
endfacet
facet normal -0.000418 -0.000000 -0.000179
  outer loop
    vertex -0.146053 0.032500 -0.054814
    vertex -0.140551 0.000000 -0.067686
    vertex -0.146053 0.000000 -0.054814
  endloop
endfacet
facet normal -0.000433 -0.000000 -0.000141
  outer loop
    vertex -0.146053 0.032500 -0.054814
    vertex -0.146053 0.000000 -0.054814
    vertex -0.150378 0.032500 -0.041502
  endloop
endfacet
facet normal -0.000433 -0.000000 -0.000141
  outer loop
    vertex -0.150378 0.032500 -0.041502
    vertex -0.146053 0.000000 -0.054814
    vertex -0.150378 0.000000 -0.041502
  endloop
endfacet
facet normal -0.000444 -0.000000 -0.000101
  outer loop
    vertex -0.150378 0.032500 -0.041502
    vertex -0.150378 0.000000 -0.041502
    vertex -0.153493 0.032500 -0.027855
  endloop
endfacet
facet normal -0.000444 -0.000000 -0.000101
  outer loop
    vertex -0.153493 0.032500 -0.027855
    vertex -0.150378 0.000000 -0.041502
    vertex -0.153493 0.000000 -0.027855
  endloop
endfacet
facet normal -0.000451 -0.000000 -0.000061
  outer loop
    vertex -0.153493 0.032500 -0.027855
    vertex -0.153493 0.000000 -0.027855
    vertex -0.155372 0.032500 -0.013984
  endloop
endfacet
facet normal -0.000451 -0.000000 -0.000061
  outer loop
    vertex -0.155372 0.032500 -0.013984
    vertex -0.153493 0.000000 -0.027855
    vertex -0.155372 0.000000 -0.013984
  endloop
endfacet
facet normal 0.000000 0.000816 0.000000
  outer loop
    vertex -0.061892 0.032500 -0.008698
    vertex -0.155372 0.032500 -0.013984
    vertex -0.062500 0.032500 0.000000
  endloop
endfacet
facet normal 0.000000 0.001307 0.000000
  outer loop
    vertex -0.062500 0.032500 0.000000
    vertex -0.155372 0.032500 -0.013984
    vertex -0.156000 0.032500 0.000000
  endloop
endfacet
facet normal 0.000000 0.001307 0.000000
  outer loop
    vertex -0.062500 0.032500 0.000000
    vertex -0.156000 0.032500 0.000000
    vertex -0.155372 0.032500 0.013984
  endloop
endfacet
facet normal -0.000000 0.001307 0.000000
  outer loop
    vertex -0.155372 0.032500 -0.013984
    vertex -0.061892 0.032500 -0.008698
    vertex -0.153493 0.032500 -0.027855
  endloop
endfacet
facet normal 0.000000 0.000816 0.000000
  outer loop
    vertex -0.153493 0.032500 -0.027855
    vertex -0.061892 0.032500 -0.008698
    vertex -0.060079 0.032500 -0.017227
  endloop
endfacet
facet normal -0.000000 0.001308 0.000000
  outer loop
    vertex -0.153493 0.032500 -0.027855
    vertex -0.060079 0.032500 -0.017227
    vertex -0.150378 0.032500 -0.041502
  endloop
endfacet
facet normal -0.000000 0.001307 0.000000
  outer loop
    vertex -0.150378 0.032500 -0.041502
    vertex -0.060079 0.032500 -0.017227
    vertex -0.146053 0.032500 -0.054814
  endloop
endfacet
facet normal 0.000000 0.000817 0.000000
  outer loop
    vertex -0.146053 0.032500 -0.054814
    vertex -0.060079 0.032500 -0.017227
    vertex -0.057097 0.032500 -0.025421
  endloop
endfacet
facet normal -0.000000 0.001307 0.000000
  outer loop
    vertex -0.146053 0.032500 -0.054814
    vertex -0.057097 0.032500 -0.025421
    vertex -0.140551 0.032500 -0.067686
  endloop
endfacet
facet normal 0.000000 0.000816 0.000000
  outer loop
    vertex -0.140551 0.032500 -0.067686
    vertex -0.057097 0.032500 -0.025421
    vertex -0.053003 0.032500 -0.033120
  endloop
endfacet
facet normal -0.000000 0.001308 0.000000
  outer loop
    vertex -0.140551 0.032500 -0.067686
    vertex -0.053003 0.032500 -0.033120
    vertex -0.133918 0.032500 -0.080012
  endloop
endfacet
facet normal -0.000000 0.001307 0.000000
  outer loop
    vertex -0.133918 0.032500 -0.080012
    vertex -0.053003 0.032500 -0.033120
    vertex -0.126207 0.032500 -0.091694
  endloop
endfacet
facet normal 0.000000 0.000817 0.000000
  outer loop
    vertex -0.126207 0.032500 -0.091694
    vertex -0.053003 0.032500 -0.033120
    vertex -0.047878 0.032500 -0.040174
  endloop
endfacet
facet normal -0.000000 0.001307 0.000000
  outer loop
    vertex -0.126207 0.032500 -0.091694
    vertex -0.047878 0.032500 -0.040174
    vertex -0.117479 0.032500 -0.102638
  endloop
endfacet
facet normal -0.000000 0.001308 0.000000
  outer loop
    vertex -0.117479 0.032500 -0.102638
    vertex -0.047878 0.032500 -0.040174
    vertex -0.107806 0.032500 -0.112756
  endloop
endfacet
facet normal 0.000000 0.000816 0.000000
  outer loop
    vertex -0.107806 0.032500 -0.112756
    vertex -0.047878 0.032500 -0.040174
    vertex -0.041821 0.032500 -0.046447
  endloop
endfacet
facet normal -0.000000 0.001307 0.000000
  outer loop
    vertex -0.107806 0.032500 -0.112756
    vertex -0.041821 0.032500 -0.046447
    vertex -0.097264 0.032500 -0.121966
  endloop
endfacet
facet normal 0.000000 0.000817 0.000000
  outer loop
    vertex -0.097264 0.032500 -0.121966
    vertex -0.041821 0.032500 -0.046447
    vertex -0.034950 0.032500 -0.051815
  endloop
endfacet
facet normal -0.000000 0.001307 0.000000
  outer loop
    vertex -0.097264 0.032500 -0.121966
    vertex -0.034950 0.032500 -0.051815
    vertex -0.085940 0.032500 -0.130193
  endloop
endfacet
facet normal -0.000000 0.001308 0.000000
  outer loop
    vertex -0.085940 0.032500 -0.130193
    vertex -0.034950 0.032500 -0.051815
    vertex -0.073924 0.032500 -0.137373
  endloop
endfacet
facet normal 0.000000 0.000816 0.000000
  outer loop
    vertex -0.073924 0.032500 -0.137373
    vertex -0.034950 0.032500 -0.051815
    vertex -0.027398 0.032500 -0.056175
  endloop
endfacet
facet normal -0.000000 0.001307 0.000000
  outer loop
    vertex -0.073924 0.032500 -0.137373
    vertex -0.027398 0.032500 -0.056175
    vertex -0.061312 0.032500 -0.143446
  endloop
endfacet
facet normal 0.000000 0.000816 0.000000
  outer loop
    vertex -0.061312 0.032500 -0.143446
    vertex -0.027398 0.032500 -0.056175
    vertex -0.019314 0.032500 -0.059441
  endloop
endfacet
facet normal -0.000000 0.001307 0.000000
  outer loop
    vertex -0.061312 0.032500 -0.143446
    vertex -0.019314 0.032500 -0.059441
    vertex -0.048207 0.032500 -0.148365
  endloop
endfacet
facet normal -0.000000 0.001307 0.000000
  outer loop
    vertex -0.048207 0.032500 -0.148365
    vertex -0.019314 0.032500 -0.059441
    vertex -0.034713 0.032500 -0.152089
  endloop
endfacet
facet normal 0.000000 0.000816 0.000000
  outer loop
    vertex -0.034713 0.032500 -0.152089
    vertex -0.019314 0.032500 -0.059441
    vertex -0.010853 0.032500 -0.061550
  endloop
endfacet
facet normal -0.000000 0.001307 0.000000
  outer loop
    vertex -0.034713 0.032500 -0.152089
    vertex -0.010853 0.032500 -0.061550
    vertex -0.020940 0.032500 -0.154588
  endloop
endfacet
facet normal 0.000000 0.000816 0.000000
  outer loop
    vertex -0.020940 0.032500 -0.154588
    vertex -0.010853 0.032500 -0.061550
    vertex -0.002181 0.032500 -0.062462
  endloop
endfacet
facet normal -0.000000 0.001308 0.000000
  outer loop
    vertex -0.020940 0.032500 -0.154588
    vertex -0.002181 0.032500 -0.062462
    vertex -0.006999 0.032500 -0.155843
  endloop
endfacet
facet normal 0.000000 0.001307 0.000000
  outer loop
    vertex -0.006999 0.032500 -0.155843
    vertex -0.002181 0.032500 -0.062462
    vertex 0.006999 0.032500 -0.155843
  endloop
endfacet
facet normal 0.000000 0.000817 0.000000
  outer loop
    vertex 0.006999 0.032500 -0.155843
    vertex -0.002181 0.032500 -0.062462
    vertex 0.006533 0.032500 -0.062158
  endloop
endfacet
facet normal 0.000000 0.001307 -0.000000
  outer loop
    vertex 0.006999 0.032500 -0.155843
    vertex 0.006533 0.032500 -0.062158
    vertex 0.020940 0.032500 -0.154588
  endloop
endfacet
facet normal 0.000000 0.000816 0.000000
  outer loop
    vertex 0.020940 0.032500 -0.154588
    vertex 0.006533 0.032500 -0.062158
    vertex 0.015120 0.032500 -0.060643
  endloop
endfacet
facet normal 0.000000 0.001308 -0.000000
  outer loop
    vertex 0.020940 0.032500 -0.154588
    vertex 0.015120 0.032500 -0.060643
    vertex 0.034713 0.032500 -0.152089
  endloop
endfacet
facet normal 0.000000 0.001307 -0.000000
  outer loop
    vertex 0.034713 0.032500 -0.152089
    vertex 0.015120 0.032500 -0.060643
    vertex 0.048207 0.032500 -0.148365
  endloop
endfacet
facet normal 0.000000 0.000817 0.000000
  outer loop
    vertex 0.048207 0.032500 -0.148365
    vertex 0.015120 0.032500 -0.060643
    vertex 0.023413 0.032500 -0.057949
  endloop
endfacet
facet normal 0.000000 0.001307 -0.000000
  outer loop
    vertex 0.048207 0.032500 -0.148365
    vertex 0.023413 0.032500 -0.057949
    vertex 0.061312 0.032500 -0.143446
  endloop
endfacet
facet normal 0.000000 0.001308 -0.000000
  outer loop
    vertex 0.061312 0.032500 -0.143446
    vertex 0.023413 0.032500 -0.057949
    vertex 0.073924 0.032500 -0.137373
  endloop
endfacet
facet normal 0.000000 0.000816 0.000000
  outer loop
    vertex 0.073924 0.032500 -0.137373
    vertex 0.023413 0.032500 -0.057949
    vertex 0.031250 0.032500 -0.054127
  endloop
endfacet
facet normal 0.000000 0.001307 -0.000000
  outer loop
    vertex 0.073924 0.032500 -0.137373
    vertex 0.031250 0.032500 -0.054127
    vertex 0.085940 0.032500 -0.130193
  endloop
endfacet
facet normal 0.000000 0.000817 0.000000
  outer loop
    vertex 0.085940 0.032500 -0.130193
    vertex 0.031250 0.032500 -0.054127
    vertex 0.038479 0.032500 -0.049251
  endloop
endfacet
facet normal 0.000000 0.001307 -0.000000
  outer loop
    vertex 0.085940 0.032500 -0.130193
    vertex 0.038479 0.032500 -0.049251
    vertex 0.097264 0.032500 -0.121966
  endloop
endfacet
facet normal 0.000000 0.001308 -0.000000
  outer loop
    vertex 0.097264 0.032500 -0.121966
    vertex 0.038479 0.032500 -0.049251
    vertex 0.107806 0.032500 -0.112756
  endloop
endfacet
facet normal 0.000000 0.000816 0.000000
  outer loop
    vertex 0.107806 0.032500 -0.112756
    vertex 0.038479 0.032500 -0.049251
    vertex 0.044959 0.032500 -0.043416
  endloop
endfacet
facet normal 0.000000 0.001307 -0.000000
  outer loop
    vertex 0.107806 0.032500 -0.112756
    vertex 0.044959 0.032500 -0.043416
    vertex 0.117479 0.032500 -0.102638
  endloop
endfacet
facet normal 0.000000 0.000816 0.000000
  outer loop
    vertex 0.117479 0.032500 -0.102638
    vertex 0.044959 0.032500 -0.043416
    vertex 0.050564 0.032500 -0.036737
  endloop
endfacet
facet normal 0.000000 0.001307 -0.000000
  outer loop
    vertex 0.117479 0.032500 -0.102638
    vertex 0.050564 0.032500 -0.036737
    vertex 0.126207 0.032500 -0.091694
  endloop
endfacet
facet normal 0.000000 0.001307 -0.000000
  outer loop
    vertex 0.126207 0.032500 -0.091694
    vertex 0.050564 0.032500 -0.036737
    vertex 0.133918 0.032500 -0.080012
  endloop
endfacet
facet normal 0.000000 0.000816 0.000000
  outer loop
    vertex 0.133918 0.032500 -0.080012
    vertex 0.050564 0.032500 -0.036737
    vertex 0.055184 0.032500 -0.029342
  endloop
endfacet
facet normal 0.000000 0.001307 -0.000000
  outer loop
    vertex 0.133918 0.032500 -0.080012
    vertex 0.055184 0.032500 -0.029342
    vertex 0.140551 0.032500 -0.067686
  endloop
endfacet
facet normal 0.000000 0.000816 0.000000
  outer loop
    vertex 0.140551 0.032500 -0.067686
    vertex 0.055184 0.032500 -0.029342
    vertex 0.058731 0.032500 -0.021376
  endloop
endfacet
facet normal 0.000000 0.001308 -0.000000
  outer loop
    vertex 0.140551 0.032500 -0.067686
    vertex 0.058731 0.032500 -0.021376
    vertex 0.146053 0.032500 -0.054814
  endloop
endfacet
facet normal 0.000000 0.001307 -0.000000
  outer loop
    vertex 0.146053 0.032500 -0.054814
    vertex 0.058731 0.032500 -0.021376
    vertex 0.150378 0.032500 -0.041502
  endloop
endfacet
facet normal 0.000000 0.000817 0.000000
  outer loop
    vertex 0.150378 0.032500 -0.041502
    vertex 0.058731 0.032500 -0.021376
    vertex 0.061134 0.032500 -0.012994
  endloop
endfacet
facet normal 0.000000 0.001307 -0.000000
  outer loop
    vertex 0.150378 0.032500 -0.041502
    vertex 0.061134 0.032500 -0.012994
    vertex 0.153493 0.032500 -0.027855
  endloop
endfacet
facet normal 0.000000 0.000816 0.000000
  outer loop
    vertex 0.153493 0.032500 -0.027855
    vertex 0.061134 0.032500 -0.012994
    vertex 0.062348 0.032500 -0.004360
  endloop
endfacet
facet normal 0.000000 0.001308 -0.000000
  outer loop
    vertex 0.153493 0.032500 -0.027855
    vertex 0.062348 0.032500 -0.004360
    vertex 0.155372 0.032500 -0.013984
  endloop
endfacet
facet normal 0.000000 0.001307 -0.000000
  outer loop
    vertex 0.155372 0.032500 -0.013984
    vertex 0.062348 0.032500 -0.004360
    vertex 0.156000 0.032500 0.000000
  endloop
endfacet
facet normal 0.000000 0.000817 0.000000
  outer loop
    vertex 0.156000 0.032500 0.000000
    vertex 0.062348 0.032500 -0.004360
    vertex 0.062348 0.032500 0.004360
  endloop
endfacet
facet normal 0.000000 0.001307 0.000000
  outer loop
    vertex 0.156000 0.032500 0.000000
    vertex 0.062348 0.032500 0.004360
    vertex 0.155372 0.032500 0.013984
  endloop
endfacet
facet normal 0.000000 0.001308 0.000000
  outer loop
    vertex 0.155372 0.032500 0.013984
    vertex 0.062348 0.032500 0.004360
    vertex 0.153493 0.032500 0.027855
  endloop
endfacet
facet normal 0.000000 0.000816 0.000000
  outer loop
    vertex 0.153493 0.032500 0.027855
    vertex 0.062348 0.032500 0.004360
    vertex 0.061134 0.032500 0.012994
  endloop
endfacet
facet normal 0.000000 0.001307 0.000000
  outer loop
    vertex 0.153493 0.032500 0.027855
    vertex 0.061134 0.032500 0.012994
    vertex 0.150378 0.032500 0.041502
  endloop
endfacet
facet normal 0.000000 0.000817 0.000000
  outer loop
    vertex 0.150378 0.032500 0.041502
    vertex 0.061134 0.032500 0.012994
    vertex 0.058731 0.032500 0.021376
  endloop
endfacet
facet normal 0.000000 0.001307 0.000000
  outer loop
    vertex 0.150378 0.032500 0.041502
    vertex 0.058731 0.032500 0.021376
    vertex 0.146053 0.032500 0.054814
  endloop
endfacet
facet normal 0.000000 0.001308 0.000000
  outer loop
    vertex 0.146053 0.032500 0.054814
    vertex 0.058731 0.032500 0.021376
    vertex 0.140551 0.032500 0.067686
  endloop
endfacet
facet normal 0.000000 0.000816 0.000000
  outer loop
    vertex 0.140551 0.032500 0.067686
    vertex 0.058731 0.032500 0.021376
    vertex 0.055184 0.032500 0.029342
  endloop
endfacet
facet normal 0.000000 0.001307 0.000000
  outer loop
    vertex 0.140551 0.032500 0.067686
    vertex 0.055184 0.032500 0.029342
    vertex 0.133918 0.032500 0.080012
  endloop
endfacet
facet normal 0.000000 0.000816 0.000000
  outer loop
    vertex 0.133918 0.032500 0.080012
    vertex 0.055184 0.032500 0.029342
    vertex 0.050564 0.032500 0.036737
  endloop
endfacet
facet normal 0.000000 0.001307 0.000000
  outer loop
    vertex 0.133918 0.032500 0.080012
    vertex 0.050564 0.032500 0.036737
    vertex 0.126207 0.032500 0.091694
  endloop
endfacet
facet normal 0.000000 0.001307 0.000000
  outer loop
    vertex 0.126207 0.032500 0.091694
    vertex 0.050564 0.032500 0.036737
    vertex 0.117479 0.032500 0.102638
  endloop
endfacet
facet normal 0.000000 0.000816 0.000000
  outer loop
    vertex 0.117479 0.032500 0.102638
    vertex 0.050564 0.032500 0.036737
    vertex 0.044959 0.032500 0.043416
  endloop
endfacet
facet normal 0.000000 0.001307 0.000000
  outer loop
    vertex 0.117479 0.032500 0.102638
    vertex 0.044959 0.032500 0.043416
    vertex 0.107806 0.032500 0.112756
  endloop
endfacet
facet normal 0.000000 0.000816 0.000000
  outer loop
    vertex 0.107806 0.032500 0.112756
    vertex 0.044959 0.032500 0.043416
    vertex 0.038479 0.032500 0.049251
  endloop
endfacet
facet normal 0.000000 0.001308 0.000000
  outer loop
    vertex 0.107806 0.032500 0.112756
    vertex 0.038479 0.032500 0.049251
    vertex 0.097264 0.032500 0.121966
  endloop
endfacet
facet normal 0.000000 0.001307 0.000000
  outer loop
    vertex 0.097264 0.032500 0.121966
    vertex 0.038479 0.032500 0.049251
    vertex 0.085940 0.032500 0.130193
  endloop
endfacet
facet normal 0.000000 0.000817 0.000000
  outer loop
    vertex 0.085940 0.032500 0.130193
    vertex 0.038479 0.032500 0.049251
    vertex 0.031250 0.032500 0.054127
  endloop
endfacet
facet normal 0.000000 0.001307 0.000000
  outer loop
    vertex 0.085940 0.032500 0.130193
    vertex 0.031250 0.032500 0.054127
    vertex 0.073924 0.032500 0.137373
  endloop
endfacet
facet normal 0.000000 0.000816 0.000000
  outer loop
    vertex 0.073924 0.032500 0.137373
    vertex 0.031250 0.032500 0.054127
    vertex 0.023413 0.032500 0.057949
  endloop
endfacet
facet normal 0.000000 0.001308 0.000000
  outer loop
    vertex 0.073924 0.032500 0.137373
    vertex 0.023413 0.032500 0.057949
    vertex 0.061312 0.032500 0.143446
  endloop
endfacet
facet normal 0.000000 0.001307 0.000000
  outer loop
    vertex 0.061312 0.032500 0.143446
    vertex 0.023413 0.032500 0.057949
    vertex 0.048207 0.032500 0.148365
  endloop
endfacet
facet normal 0.000000 0.000817 0.000000
  outer loop
    vertex 0.048207 0.032500 0.148365
    vertex 0.023413 0.032500 0.057949
    vertex 0.015120 0.032500 0.060643
  endloop
endfacet
facet normal 0.000000 0.001307 0.000000
  outer loop
    vertex 0.048207 0.032500 0.148365
    vertex 0.015120 0.032500 0.060643
    vertex 0.034713 0.032500 0.152089
  endloop
endfacet
facet normal 0.000000 0.001308 0.000000
  outer loop
    vertex 0.034713 0.032500 0.152089
    vertex 0.015120 0.032500 0.060643
    vertex 0.020940 0.032500 0.154588
  endloop
endfacet
facet normal 0.000000 0.000816 0.000000
  outer loop
    vertex 0.020940 0.032500 0.154588
    vertex 0.015120 0.032500 0.060643
    vertex 0.006533 0.032500 0.062158
  endloop
endfacet
facet normal 0.000000 0.001307 0.000000
  outer loop
    vertex 0.020940 0.032500 0.154588
    vertex 0.006533 0.032500 0.062158
    vertex 0.006999 0.032500 0.155843
  endloop
endfacet
facet normal 0.000000 0.000817 0.000000
  outer loop
    vertex 0.006999 0.032500 0.155843
    vertex 0.006533 0.032500 0.062158
    vertex -0.002181 0.032500 0.062462
  endloop
endfacet
facet normal 0.000000 0.001307 0.000000
  outer loop
    vertex 0.006999 0.032500 0.155843
    vertex -0.002181 0.032500 0.062462
    vertex -0.006999 0.032500 0.155843
  endloop
endfacet
facet normal 0.000000 0.001308 0.000000
  outer loop
    vertex -0.006999 0.032500 0.155843
    vertex -0.002181 0.032500 0.062462
    vertex -0.020940 0.032500 0.154588
  endloop
endfacet
facet normal 0.000000 0.000816 0.000000
  outer loop
    vertex -0.020940 0.032500 0.154588
    vertex -0.002181 0.032500 0.062462
    vertex -0.010853 0.032500 0.061550
  endloop
endfacet
facet normal 0.000000 0.001307 0.000000
  outer loop
    vertex -0.020940 0.032500 0.154588
    vertex -0.010853 0.032500 0.061550
    vertex -0.034713 0.032500 0.152089
  endloop
endfacet
facet normal 0.000000 0.000816 0.000000
  outer loop
    vertex -0.034713 0.032500 0.152089
    vertex -0.010853 0.032500 0.061550
    vertex -0.019314 0.032500 0.059441
  endloop
endfacet
facet normal 0.000000 0.001307 0.000000
  outer loop
    vertex -0.034713 0.032500 0.152089
    vertex -0.019314 0.032500 0.059441
    vertex -0.048207 0.032500 0.148365
  endloop
endfacet
facet normal 0.000000 0.001307 0.000000
  outer loop
    vertex -0.048207 0.032500 0.148365
    vertex -0.019314 0.032500 0.059441
    vertex -0.061312 0.032500 0.143446
  endloop
endfacet
facet normal 0.000000 0.000816 0.000000
  outer loop
    vertex -0.061312 0.032500 0.143446
    vertex -0.019314 0.032500 0.059441
    vertex -0.027398 0.032500 0.056175
  endloop
endfacet
facet normal 0.000000 0.001307 0.000000
  outer loop
    vertex -0.061312 0.032500 0.143446
    vertex -0.027398 0.032500 0.056175
    vertex -0.073924 0.032500 0.137373
  endloop
endfacet
facet normal 0.000000 0.000816 0.000000
  outer loop
    vertex -0.073924 0.032500 0.137373
    vertex -0.027398 0.032500 0.056175
    vertex -0.034950 0.032500 0.051815
  endloop
endfacet
facet normal 0.000000 0.001308 0.000000
  outer loop
    vertex -0.073924 0.032500 0.137373
    vertex -0.034950 0.032500 0.051815
    vertex -0.085940 0.032500 0.130193
  endloop
endfacet
facet normal 0.000000 0.001307 0.000000
  outer loop
    vertex -0.085940 0.032500 0.130193
    vertex -0.034950 0.032500 0.051815
    vertex -0.097264 0.032500 0.121966
  endloop
endfacet
facet normal 0.000000 0.000817 0.000000
  outer loop
    vertex -0.097264 0.032500 0.121966
    vertex -0.034950 0.032500 0.051815
    vertex -0.041821 0.032500 0.046447
  endloop
endfacet
facet normal 0.000000 0.001307 0.000000
  outer loop
    vertex -0.097264 0.032500 0.121966
    vertex -0.041821 0.032500 0.046447
    vertex -0.107806 0.032500 0.112756
  endloop
endfacet
facet normal 0.000000 0.000816 0.000000
  outer loop
    vertex -0.107806 0.032500 0.112756
    vertex -0.041821 0.032500 0.046447
    vertex -0.047878 0.032500 0.040174
  endloop
endfacet
facet normal 0.000000 0.001308 0.000000
  outer loop
    vertex -0.107806 0.032500 0.112756
    vertex -0.047878 0.032500 0.040174
    vertex -0.117479 0.032500 0.102638
  endloop
endfacet
facet normal 0.000000 0.001307 0.000000
  outer loop
    vertex -0.117479 0.032500 0.102638
    vertex -0.047878 0.032500 0.040174
    vertex -0.126207 0.032500 0.091694
  endloop
endfacet
facet normal 0.000000 0.000817 0.000000
  outer loop
    vertex -0.126207 0.032500 0.091694
    vertex -0.047878 0.032500 0.040174
    vertex -0.053003 0.032500 0.033120
  endloop
endfacet
facet normal 0.000000 0.001307 0.000000
  outer loop
    vertex -0.126207 0.032500 0.091694
    vertex -0.053003 0.032500 0.033120
    vertex -0.133918 0.032500 0.080012
  endloop
endfacet
facet normal 0.000000 0.001308 0.000000
  outer loop
    vertex -0.133918 0.032500 0.080012
    vertex -0.053003 0.032500 0.033120
    vertex -0.140551 0.032500 0.067686
  endloop
endfacet
facet normal 0.000000 0.000816 0.000000
  outer loop
    vertex -0.140551 0.032500 0.067686
    vertex -0.053003 0.032500 0.033120
    vertex -0.057097 0.032500 0.025421
  endloop
endfacet
facet normal 0.000000 0.001307 0.000000
  outer loop
    vertex -0.140551 0.032500 0.067686
    vertex -0.057097 0.032500 0.025421
    vertex -0.146053 0.032500 0.054814
  endloop
endfacet
facet normal 0.000000 0.000817 0.000000
  outer loop
    vertex -0.146053 0.032500 0.054814
    vertex -0.057097 0.032500 0.025421
    vertex -0.060079 0.032500 0.017227
  endloop
endfacet
facet normal 0.000000 0.001307 0.000000
  outer loop
    vertex -0.146053 0.032500 0.054814
    vertex -0.060079 0.032500 0.017227
    vertex -0.150378 0.032500 0.041502
  endloop
endfacet
facet normal 0.000000 0.001308 0.000000
  outer loop
    vertex -0.150378 0.032500 0.041502
    vertex -0.060079 0.032500 0.017227
    vertex -0.153493 0.032500 0.027855
  endloop
endfacet
facet normal 0.000000 0.000816 0.000000
  outer loop
    vertex -0.153493 0.032500 0.027855
    vertex -0.060079 0.032500 0.017227
    vertex -0.061892 0.032500 0.008698
  endloop
endfacet
facet normal 0.000000 0.001307 0.000000
  outer loop
    vertex -0.153493 0.032500 0.027855
    vertex -0.061892 0.032500 0.008698
    vertex -0.155372 0.032500 0.013984
  endloop
endfacet
facet normal 0.000000 0.000816 0.000000
  outer loop
    vertex -0.155372 0.032500 0.013984
    vertex -0.061892 0.032500 0.008698
    vertex -0.062500 0.032500 0.000000
  endloop
endfacet
facet normal -0.000000 -0.000816 0.000000
  outer loop
    vertex -0.061892 0.000000 0.008698
    vertex -0.155372 0.000000 0.013984
    vertex -0.062500 0.000000 0.000000
  endloop
endfacet
facet normal 0.000000 -0.001307 0.000000
  outer loop
    vertex -0.062500 0.000000 0.000000
    vertex -0.155372 0.000000 0.013984
    vertex -0.156000 0.000000 0.000000
  endloop
endfacet
facet normal -0.000000 -0.001307 0.000000
  outer loop
    vertex -0.062500 0.000000 0.000000
    vertex -0.156000 0.000000 0.000000
    vertex -0.155372 0.000000 -0.013984
  endloop
endfacet
facet normal 0.000000 -0.001307 0.000000
  outer loop
    vertex -0.155372 0.000000 0.013984
    vertex -0.061892 0.000000 0.008698
    vertex -0.153493 0.000000 0.027855
  endloop
endfacet
facet normal 0.000000 -0.000816 0.000000
  outer loop
    vertex -0.153493 0.000000 0.027855
    vertex -0.061892 0.000000 0.008698
    vertex -0.060079 0.000000 0.017227
  endloop
endfacet
facet normal 0.000000 -0.001308 0.000000
  outer loop
    vertex -0.153493 0.000000 0.027855
    vertex -0.060079 0.000000 0.017227
    vertex -0.150378 0.000000 0.041502
  endloop
endfacet
facet normal 0.000000 -0.001307 0.000000
  outer loop
    vertex -0.150378 0.000000 0.041502
    vertex -0.060079 0.000000 0.017227
    vertex -0.146053 0.000000 0.054814
  endloop
endfacet
facet normal 0.000000 -0.000817 0.000000
  outer loop
    vertex -0.146053 0.000000 0.054814
    vertex -0.060079 0.000000 0.017227
    vertex -0.057097 0.000000 0.025421
  endloop
endfacet
facet normal 0.000000 -0.001307 0.000000
  outer loop
    vertex -0.146053 0.000000 0.054814
    vertex -0.057097 0.000000 0.025421
    vertex -0.140551 0.000000 0.067686
  endloop
endfacet
facet normal 0.000000 -0.000816 0.000000
  outer loop
    vertex -0.140551 0.000000 0.067686
    vertex -0.057097 0.000000 0.025421
    vertex -0.053003 0.000000 0.033120
  endloop
endfacet
facet normal 0.000000 -0.001308 0.000000
  outer loop
    vertex -0.140551 0.000000 0.067686
    vertex -0.053003 0.000000 0.033120
    vertex -0.133918 0.000000 0.080012
  endloop
endfacet
facet normal 0.000000 -0.001307 0.000000
  outer loop
    vertex -0.133918 0.000000 0.080012
    vertex -0.053003 0.000000 0.033120
    vertex -0.126207 0.000000 0.091694
  endloop
endfacet
facet normal 0.000000 -0.000817 0.000000
  outer loop
    vertex -0.126207 0.000000 0.091694
    vertex -0.053003 0.000000 0.033120
    vertex -0.047878 0.000000 0.040174
  endloop
endfacet
facet normal 0.000000 -0.001307 0.000000
  outer loop
    vertex -0.126207 0.000000 0.091694
    vertex -0.047878 0.000000 0.040174
    vertex -0.117479 0.000000 0.102638
  endloop
endfacet
facet normal 0.000000 -0.001308 0.000000
  outer loop
    vertex -0.117479 0.000000 0.102638
    vertex -0.047878 0.000000 0.040174
    vertex -0.107806 0.000000 0.112756
  endloop
endfacet
facet normal 0.000000 -0.000816 0.000000
  outer loop
    vertex -0.107806 0.000000 0.112756
    vertex -0.047878 0.000000 0.040174
    vertex -0.041821 0.000000 0.046447
  endloop
endfacet
facet normal 0.000000 -0.001307 0.000000
  outer loop
    vertex -0.107806 0.000000 0.112756
    vertex -0.041821 0.000000 0.046447
    vertex -0.097264 0.000000 0.121966
  endloop
endfacet
facet normal 0.000000 -0.000817 0.000000
  outer loop
    vertex -0.097264 0.000000 0.121966
    vertex -0.041821 0.000000 0.046447
    vertex -0.034950 0.000000 0.051815
  endloop
endfacet
facet normal 0.000000 -0.001307 0.000000
  outer loop
    vertex -0.097264 0.000000 0.121966
    vertex -0.034950 0.000000 0.051815
    vertex -0.085940 0.000000 0.130193
  endloop
endfacet
facet normal 0.000000 -0.001308 0.000000
  outer loop
    vertex -0.085940 0.000000 0.130193
    vertex -0.034950 0.000000 0.051815
    vertex -0.073924 0.000000 0.137373
  endloop
endfacet
facet normal 0.000000 -0.000816 0.000000
  outer loop
    vertex -0.073924 0.000000 0.137373
    vertex -0.034950 0.000000 0.051815
    vertex -0.027398 0.000000 0.056175
  endloop
endfacet
facet normal 0.000000 -0.001307 0.000000
  outer loop
    vertex -0.073924 0.000000 0.137373
    vertex -0.027398 0.000000 0.056175
    vertex -0.061312 0.000000 0.143446
  endloop
endfacet
facet normal 0.000000 -0.000816 0.000000
  outer loop
    vertex -0.061312 0.000000 0.143446
    vertex -0.027398 0.000000 0.056175
    vertex -0.019314 0.000000 0.059441
  endloop
endfacet
facet normal 0.000000 -0.001307 0.000000
  outer loop
    vertex -0.061312 0.000000 0.143446
    vertex -0.019314 0.000000 0.059441
    vertex -0.048207 0.000000 0.148365
  endloop
endfacet
facet normal 0.000000 -0.001307 0.000000
  outer loop
    vertex -0.048207 0.000000 0.148365
    vertex -0.019314 0.000000 0.059441
    vertex -0.034713 0.000000 0.152089
  endloop
endfacet
facet normal 0.000000 -0.000816 0.000000
  outer loop
    vertex -0.034713 0.000000 0.152089
    vertex -0.019314 0.000000 0.059441
    vertex -0.010853 0.000000 0.061550
  endloop
endfacet
facet normal 0.000000 -0.001307 0.000000
  outer loop
    vertex -0.034713 0.000000 0.152089
    vertex -0.010853 0.000000 0.061550
    vertex -0.020940 0.000000 0.154588
  endloop
endfacet
facet normal 0.000000 -0.000816 0.000000
  outer loop
    vertex -0.020940 0.000000 0.154588
    vertex -0.010853 0.000000 0.061550
    vertex -0.002181 0.000000 0.062462
  endloop
endfacet
facet normal 0.000000 -0.001308 0.000000
  outer loop
    vertex -0.020940 0.000000 0.154588
    vertex -0.002181 0.000000 0.062462
    vertex -0.006999 0.000000 0.155843
  endloop
endfacet
facet normal 0.000000 -0.001307 0.000000
  outer loop
    vertex -0.006999 0.000000 0.155843
    vertex -0.002181 0.000000 0.062462
    vertex 0.006999 0.000000 0.155843
  endloop
endfacet
facet normal 0.000000 -0.000817 0.000000
  outer loop
    vertex 0.006999 0.000000 0.155843
    vertex -0.002181 0.000000 0.062462
    vertex 0.006533 0.000000 0.062158
  endloop
endfacet
facet normal 0.000000 -0.001307 -0.000000
  outer loop
    vertex 0.006999 0.000000 0.155843
    vertex 0.006533 0.000000 0.062158
    vertex 0.020940 0.000000 0.154588
  endloop
endfacet
facet normal 0.000000 -0.000816 0.000000
  outer loop
    vertex 0.020940 0.000000 0.154588
    vertex 0.006533 0.000000 0.062158
    vertex 0.015120 0.000000 0.060643
  endloop
endfacet
facet normal 0.000000 -0.001308 -0.000000
  outer loop
    vertex 0.020940 0.000000 0.154588
    vertex 0.015120 0.000000 0.060643
    vertex 0.034713 0.000000 0.152089
  endloop
endfacet
facet normal 0.000000 -0.001307 -0.000000
  outer loop
    vertex 0.034713 0.000000 0.152089
    vertex 0.015120 0.000000 0.060643
    vertex 0.048207 0.000000 0.148365
  endloop
endfacet
facet normal 0.000000 -0.000817 0.000000
  outer loop
    vertex 0.048207 0.000000 0.148365
    vertex 0.015120 0.000000 0.060643
    vertex 0.023413 0.000000 0.057949
  endloop
endfacet
facet normal 0.000000 -0.001307 -0.000000
  outer loop
    vertex 0.048207 0.000000 0.148365
    vertex 0.023413 0.000000 0.057949
    vertex 0.061312 0.000000 0.143446
  endloop
endfacet
facet normal 0.000000 -0.001308 -0.000000
  outer loop
    vertex 0.061312 0.000000 0.143446
    vertex 0.023413 0.000000 0.057949
    vertex 0.073924 0.000000 0.137373
  endloop
endfacet
facet normal 0.000000 -0.000816 0.000000
  outer loop
    vertex 0.073924 0.000000 0.137373
    vertex 0.023413 0.000000 0.057949
    vertex 0.031250 0.000000 0.054127
  endloop
endfacet
facet normal 0.000000 -0.001307 -0.000000
  outer loop
    vertex 0.073924 0.000000 0.137373
    vertex 0.031250 0.000000 0.054127
    vertex 0.085940 0.000000 0.130193
  endloop
endfacet
facet normal 0.000000 -0.000817 0.000000
  outer loop
    vertex 0.085940 0.000000 0.130193
    vertex 0.031250 0.000000 0.054127
    vertex 0.038479 0.000000 0.049251
  endloop
endfacet
facet normal 0.000000 -0.001307 -0.000000
  outer loop
    vertex 0.085940 0.000000 0.130193
    vertex 0.038479 0.000000 0.049251
    vertex 0.097264 0.000000 0.121966
  endloop
endfacet
facet normal 0.000000 -0.001308 -0.000000
  outer loop
    vertex 0.097264 0.000000 0.121966
    vertex 0.038479 0.000000 0.049251
    vertex 0.107806 0.000000 0.112756
  endloop
endfacet
facet normal 0.000000 -0.000816 0.000000
  outer loop
    vertex 0.107806 0.000000 0.112756
    vertex 0.038479 0.000000 0.049251
    vertex 0.044959 0.000000 0.043416
  endloop
endfacet
facet normal 0.000000 -0.001307 -0.000000
  outer loop
    vertex 0.107806 0.000000 0.112756
    vertex 0.044959 0.000000 0.043416
    vertex 0.117479 0.000000 0.102638
  endloop
endfacet
facet normal 0.000000 -0.000816 0.000000
  outer loop
    vertex 0.117479 0.000000 0.102638
    vertex 0.044959 0.000000 0.043416
    vertex 0.050564 0.000000 0.036737
  endloop
endfacet
facet normal 0.000000 -0.001307 -0.000000
  outer loop
    vertex 0.117479 0.000000 0.102638
    vertex 0.050564 0.000000 0.036737
    vertex 0.126207 0.000000 0.091694
  endloop
endfacet
facet normal 0.000000 -0.001307 -0.000000
  outer loop
    vertex 0.126207 0.000000 0.091694
    vertex 0.050564 0.000000 0.036737
    vertex 0.133918 0.000000 0.080012
  endloop
endfacet
facet normal 0.000000 -0.000816 0.000000
  outer loop
    vertex 0.133918 0.000000 0.080012
    vertex 0.050564 0.000000 0.036737
    vertex 0.055184 0.000000 0.029342
  endloop
endfacet
facet normal 0.000000 -0.001307 -0.000000
  outer loop
    vertex 0.133918 0.000000 0.080012
    vertex 0.055184 0.000000 0.029342
    vertex 0.140551 0.000000 0.067686
  endloop
endfacet
facet normal 0.000000 -0.000816 0.000000
  outer loop
    vertex 0.140551 0.000000 0.067686
    vertex 0.055184 0.000000 0.029342
    vertex 0.058731 0.000000 0.021376
  endloop
endfacet
facet normal 0.000000 -0.001308 -0.000000
  outer loop
    vertex 0.140551 0.000000 0.067686
    vertex 0.058731 0.000000 0.021376
    vertex 0.146053 0.000000 0.054814
  endloop
endfacet
facet normal 0.000000 -0.001307 -0.000000
  outer loop
    vertex 0.146053 0.000000 0.054814
    vertex 0.058731 0.000000 0.021376
    vertex 0.150378 0.000000 0.041502
  endloop
endfacet
facet normal 0.000000 -0.000817 0.000000
  outer loop
    vertex 0.150378 0.000000 0.041502
    vertex 0.058731 0.000000 0.021376
    vertex 0.061134 0.000000 0.012994
  endloop
endfacet
facet normal 0.000000 -0.001307 -0.000000
  outer loop
    vertex 0.150378 0.000000 0.041502
    vertex 0.061134 0.000000 0.012994
    vertex 0.153493 0.000000 0.027855
  endloop
endfacet
facet normal 0.000000 -0.000816 0.000000
  outer loop
    vertex 0.153493 0.000000 0.027855
    vertex 0.061134 0.000000 0.012994
    vertex 0.062348 0.000000 0.004360
  endloop
endfacet
facet normal 0.000000 -0.001308 -0.000000
  outer loop
    vertex 0.153493 0.000000 0.027855
    vertex 0.062348 0.000000 0.004360
    vertex 0.155372 0.000000 0.013984
  endloop
endfacet
facet normal 0.000000 -0.001307 -0.000000
  outer loop
    vertex 0.155372 0.000000 0.013984
    vertex 0.062348 0.000000 0.004360
    vertex 0.156000 0.000000 0.000000
  endloop
endfacet
facet normal -0.000000 -0.000817 0.000000
  outer loop
    vertex 0.156000 0.000000 0.000000
    vertex 0.062348 0.000000 0.004360
    vertex 0.062348 0.000000 -0.004360
  endloop
endfacet
facet normal 0.000000 -0.001307 0.000000
  outer loop
    vertex 0.156000 0.000000 0.000000
    vertex 0.062348 0.000000 -0.004360
    vertex 0.155372 0.000000 -0.013984
  endloop
endfacet
facet normal -0.000000 -0.001308 0.000000
  outer loop
    vertex 0.155372 0.000000 -0.013984
    vertex 0.062348 0.000000 -0.004360
    vertex 0.153493 0.000000 -0.027855
  endloop
endfacet
facet normal 0.000000 -0.000816 0.000000
  outer loop
    vertex 0.153493 0.000000 -0.027855
    vertex 0.062348 0.000000 -0.004360
    vertex 0.061134 0.000000 -0.012994
  endloop
endfacet
facet normal -0.000000 -0.001307 0.000000
  outer loop
    vertex 0.153493 0.000000 -0.027855
    vertex 0.061134 0.000000 -0.012994
    vertex 0.150378 0.000000 -0.041502
  endloop
endfacet
facet normal 0.000000 -0.000817 0.000000
  outer loop
    vertex 0.150378 0.000000 -0.041502
    vertex 0.061134 0.000000 -0.012994
    vertex 0.058731 0.000000 -0.021376
  endloop
endfacet
facet normal -0.000000 -0.001307 0.000000
  outer loop
    vertex 0.150378 0.000000 -0.041502
    vertex 0.058731 0.000000 -0.021376
    vertex 0.146053 0.000000 -0.054814
  endloop
endfacet
facet normal -0.000000 -0.001308 0.000000
  outer loop
    vertex 0.146053 0.000000 -0.054814
    vertex 0.058731 0.000000 -0.021376
    vertex 0.140551 0.000000 -0.067686
  endloop
endfacet
facet normal 0.000000 -0.000816 0.000000
  outer loop
    vertex 0.140551 0.000000 -0.067686
    vertex 0.058731 0.000000 -0.021376
    vertex 0.055184 0.000000 -0.029342
  endloop
endfacet
facet normal -0.000000 -0.001307 0.000000
  outer loop
    vertex 0.140551 0.000000 -0.067686
    vertex 0.055184 0.000000 -0.029342
    vertex 0.133918 0.000000 -0.080012
  endloop
endfacet
facet normal 0.000000 -0.000816 0.000000
  outer loop
    vertex 0.133918 0.000000 -0.080012
    vertex 0.055184 0.000000 -0.029342
    vertex 0.050564 0.000000 -0.036737
  endloop
endfacet
facet normal -0.000000 -0.001307 0.000000
  outer loop
    vertex 0.133918 0.000000 -0.080012
    vertex 0.050564 0.000000 -0.036737
    vertex 0.126207 0.000000 -0.091694
  endloop
endfacet
facet normal -0.000000 -0.001307 0.000000
  outer loop
    vertex 0.126207 0.000000 -0.091694
    vertex 0.050564 0.000000 -0.036737
    vertex 0.117479 0.000000 -0.102638
  endloop
endfacet
facet normal 0.000000 -0.000816 0.000000
  outer loop
    vertex 0.117479 0.000000 -0.102638
    vertex 0.050564 0.000000 -0.036737
    vertex 0.044959 0.000000 -0.043416
  endloop
endfacet
facet normal -0.000000 -0.001307 0.000000
  outer loop
    vertex 0.117479 0.000000 -0.102638
    vertex 0.044959 0.000000 -0.043416
    vertex 0.107806 0.000000 -0.112756
  endloop
endfacet
facet normal 0.000000 -0.000816 0.000000
  outer loop
    vertex 0.107806 0.000000 -0.112756
    vertex 0.044959 0.000000 -0.043416
    vertex 0.038479 0.000000 -0.049251
  endloop
endfacet
facet normal -0.000000 -0.001308 0.000000
  outer loop
    vertex 0.107806 0.000000 -0.112756
    vertex 0.038479 0.000000 -0.049251
    vertex 0.097264 0.000000 -0.121966
  endloop
endfacet
facet normal -0.000000 -0.001307 0.000000
  outer loop
    vertex 0.097264 0.000000 -0.121966
    vertex 0.038479 0.000000 -0.049251
    vertex 0.085940 0.000000 -0.130193
  endloop
endfacet
facet normal 0.000000 -0.000817 0.000000
  outer loop
    vertex 0.085940 0.000000 -0.130193
    vertex 0.038479 0.000000 -0.049251
    vertex 0.031250 0.000000 -0.054127
  endloop
endfacet
facet normal -0.000000 -0.001307 0.000000
  outer loop
    vertex 0.085940 0.000000 -0.130193
    vertex 0.031250 0.000000 -0.054127
    vertex 0.073924 0.000000 -0.137373
  endloop
endfacet
facet normal 0.000000 -0.000816 0.000000
  outer loop
    vertex 0.073924 0.000000 -0.137373
    vertex 0.031250 0.000000 -0.054127
    vertex 0.023413 0.000000 -0.057949
  endloop
endfacet
facet normal -0.000000 -0.001308 0.000000
  outer loop
    vertex 0.073924 0.000000 -0.137373
    vertex 0.023413 0.000000 -0.057949
    vertex 0.061312 0.000000 -0.143446
  endloop
endfacet
facet normal -0.000000 -0.001307 0.000000
  outer loop
    vertex 0.061312 0.000000 -0.143446
    vertex 0.023413 0.000000 -0.057949
    vertex 0.048207 0.000000 -0.148365
  endloop
endfacet
facet normal 0.000000 -0.000817 0.000000
  outer loop
    vertex 0.048207 0.000000 -0.148365
    vertex 0.023413 0.000000 -0.057949
    vertex 0.015120 0.000000 -0.060643
  endloop
endfacet
facet normal -0.000000 -0.001307 0.000000
  outer loop
    vertex 0.048207 0.000000 -0.148365
    vertex 0.015120 0.000000 -0.060643
    vertex 0.034713 0.000000 -0.152089
  endloop
endfacet
facet normal -0.000000 -0.001308 0.000000
  outer loop
    vertex 0.034713 0.000000 -0.152089
    vertex 0.015120 0.000000 -0.060643
    vertex 0.020940 0.000000 -0.154588
  endloop
endfacet
facet normal 0.000000 -0.000816 0.000000
  outer loop
    vertex 0.020940 0.000000 -0.154588
    vertex 0.015120 0.000000 -0.060643
    vertex 0.006533 0.000000 -0.062158
  endloop
endfacet
facet normal -0.000000 -0.001307 0.000000
  outer loop
    vertex 0.020940 0.000000 -0.154588
    vertex 0.006533 0.000000 -0.062158
    vertex 0.006999 0.000000 -0.155843
  endloop
endfacet
facet normal 0.000000 -0.000817 0.000000
  outer loop
    vertex 0.006999 0.000000 -0.155843
    vertex 0.006533 0.000000 -0.062158
    vertex -0.002181 0.000000 -0.062462
  endloop
endfacet
facet normal 0.000000 -0.001307 0.000000
  outer loop
    vertex 0.006999 0.000000 -0.155843
    vertex -0.002181 0.000000 -0.062462
    vertex -0.006999 0.000000 -0.155843
  endloop
endfacet
facet normal 0.000000 -0.001308 0.000000
  outer loop
    vertex -0.006999 0.000000 -0.155843
    vertex -0.002181 0.000000 -0.062462
    vertex -0.020940 0.000000 -0.154588
  endloop
endfacet
facet normal 0.000000 -0.000816 0.000000
  outer loop
    vertex -0.020940 0.000000 -0.154588
    vertex -0.002181 0.000000 -0.062462
    vertex -0.010853 0.000000 -0.061550
  endloop
endfacet
facet normal 0.000000 -0.001307 0.000000
  outer loop
    vertex -0.020940 0.000000 -0.154588
    vertex -0.010853 0.000000 -0.061550
    vertex -0.034713 0.000000 -0.152089
  endloop
endfacet
facet normal 0.000000 -0.000816 0.000000
  outer loop
    vertex -0.034713 0.000000 -0.152089
    vertex -0.010853 0.000000 -0.061550
    vertex -0.019314 0.000000 -0.059441
  endloop
endfacet
facet normal 0.000000 -0.001307 0.000000
  outer loop
    vertex -0.034713 0.000000 -0.152089
    vertex -0.019314 0.000000 -0.059441
    vertex -0.048207 0.000000 -0.148365
  endloop
endfacet
facet normal 0.000000 -0.001307 0.000000
  outer loop
    vertex -0.048207 0.000000 -0.148365
    vertex -0.019314 0.000000 -0.059441
    vertex -0.061312 0.000000 -0.143446
  endloop
endfacet
facet normal 0.000000 -0.000816 0.000000
  outer loop
    vertex -0.061312 0.000000 -0.143446
    vertex -0.019314 0.000000 -0.059441
    vertex -0.027398 0.000000 -0.056175
  endloop
endfacet
facet normal 0.000000 -0.001307 0.000000
  outer loop
    vertex -0.061312 0.000000 -0.143446
    vertex -0.027398 0.000000 -0.056175
    vertex -0.073924 0.000000 -0.137373
  endloop
endfacet
facet normal 0.000000 -0.000816 0.000000
  outer loop
    vertex -0.073924 0.000000 -0.137373
    vertex -0.027398 0.000000 -0.056175
    vertex -0.034950 0.000000 -0.051815
  endloop
endfacet
facet normal 0.000000 -0.001308 0.000000
  outer loop
    vertex -0.073924 0.000000 -0.137373
    vertex -0.034950 0.000000 -0.051815
    vertex -0.085940 0.000000 -0.130193
  endloop
endfacet
facet normal 0.000000 -0.001307 0.000000
  outer loop
    vertex -0.085940 0.000000 -0.130193
    vertex -0.034950 0.000000 -0.051815
    vertex -0.097264 0.000000 -0.121966
  endloop
endfacet
facet normal 0.000000 -0.000817 0.000000
  outer loop
    vertex -0.097264 0.000000 -0.121966
    vertex -0.034950 0.000000 -0.051815
    vertex -0.041821 0.000000 -0.046447
  endloop
endfacet
facet normal 0.000000 -0.001307 0.000000
  outer loop
    vertex -0.097264 0.000000 -0.121966
    vertex -0.041821 0.000000 -0.046447
    vertex -0.107806 0.000000 -0.112756
  endloop
endfacet
facet normal 0.000000 -0.000816 0.000000
  outer loop
    vertex -0.107806 0.000000 -0.112756
    vertex -0.041821 0.000000 -0.046447
    vertex -0.047878 0.000000 -0.040174
  endloop
endfacet
facet normal 0.000000 -0.001308 0.000000
  outer loop
    vertex -0.107806 0.000000 -0.112756
    vertex -0.047878 0.000000 -0.040174
    vertex -0.117479 0.000000 -0.102638
  endloop
endfacet
facet normal 0.000000 -0.001307 0.000000
  outer loop
    vertex -0.117479 0.000000 -0.102638
    vertex -0.047878 0.000000 -0.040174
    vertex -0.126207 0.000000 -0.091694
  endloop
endfacet
facet normal 0.000000 -0.000817 0.000000
  outer loop
    vertex -0.126207 0.000000 -0.091694
    vertex -0.047878 0.000000 -0.040174
    vertex -0.053003 0.000000 -0.033120
  endloop
endfacet
facet normal 0.000000 -0.001307 0.000000
  outer loop
    vertex -0.126207 0.000000 -0.091694
    vertex -0.053003 0.000000 -0.033120
    vertex -0.133918 0.000000 -0.080012
  endloop
endfacet
facet normal 0.000000 -0.001308 0.000000
  outer loop
    vertex -0.133918 0.000000 -0.080012
    vertex -0.053003 0.000000 -0.033120
    vertex -0.140551 0.000000 -0.067686
  endloop
endfacet
facet normal 0.000000 -0.000816 0.000000
  outer loop
    vertex -0.140551 0.000000 -0.067686
    vertex -0.053003 0.000000 -0.033120
    vertex -0.057097 0.000000 -0.025421
  endloop
endfacet
facet normal 0.000000 -0.001307 0.000000
  outer loop
    vertex -0.140551 0.000000 -0.067686
    vertex -0.057097 0.000000 -0.025421
    vertex -0.146053 0.000000 -0.054814
  endloop
endfacet
facet normal 0.000000 -0.000817 0.000000
  outer loop
    vertex -0.146053 0.000000 -0.054814
    vertex -0.057097 0.000000 -0.025421
    vertex -0.060079 0.000000 -0.017227
  endloop
endfacet
facet normal 0.000000 -0.001307 0.000000
  outer loop
    vertex -0.146053 0.000000 -0.054814
    vertex -0.060079 0.000000 -0.017227
    vertex -0.150378 0.000000 -0.041502
  endloop
endfacet
facet normal 0.000000 -0.001308 0.000000
  outer loop
    vertex -0.150378 0.000000 -0.041502
    vertex -0.060079 0.000000 -0.017227
    vertex -0.153493 0.000000 -0.027855
  endloop
endfacet
facet normal 0.000000 -0.000816 0.000000
  outer loop
    vertex -0.153493 0.000000 -0.027855
    vertex -0.060079 0.000000 -0.017227
    vertex -0.061892 0.000000 -0.008698
  endloop
endfacet
facet normal 0.000000 -0.001307 0.000000
  outer loop
    vertex -0.153493 0.000000 -0.027855
    vertex -0.061892 0.000000 -0.008698
    vertex -0.155372 0.000000 -0.013984
  endloop
endfacet
facet normal 0.000000 -0.000816 0.000000
  outer loop
    vertex -0.155372 0.000000 -0.013984
    vertex -0.061892 0.000000 -0.008698
    vertex -0.062500 0.000000 0.000000
  endloop
endfacet
endsolid 3835204f-6d14-43d4-b8c7-0809919f023f-ascii.stl
