solid 5b7ee0c5-4c9b-4c0c-a079-5409c800c579-ascii.stl
facet normal 0.000091 0.000000 -0.000010
  outer loop
    vertex -0.025880 0.016000 0.005697
    vertex -0.025880 0.000000 0.005697
    vertex -0.026500 0.016000 0.000000
  endloop
endfacet
facet normal 0.000091 0.000000 -0.000010
  outer loop
    vertex -0.026500 0.016000 0.000000
    vertex -0.025880 0.000000 0.005697
    vertex -0.026500 0.000000 0.000000
  endloop
endfacet
facet normal 0.000091 0.000000 0.000010
  outer loop
    vertex -0.026500 0.016000 0.000000
    vertex -0.026500 0.000000 0.000000
    vertex -0.025880 0.016000 -0.005697
  endloop
endfacet
facet normal 0.000091 0.000000 0.000010
  outer loop
    vertex -0.025880 0.016000 -0.005697
    vertex -0.026500 0.000000 0.000000
    vertex -0.025880 0.000000 -0.005697
  endloop
endfacet
facet normal 0.000087 0.000000 0.000029
  outer loop
    vertex -0.025880 0.016000 -0.005697
    vertex -0.025880 0.000000 -0.005697
    vertex -0.024051 0.016000 -0.011127
  endloop
endfacet
facet normal 0.000087 0.000000 0.000029
  outer loop
    vertex -0.024051 0.016000 -0.011127
    vertex -0.025880 0.000000 -0.005697
    vertex -0.024051 0.000000 -0.011127
  endloop
endfacet
facet normal 0.000079 0.000000 0.000047
  outer loop
    vertex -0.024051 0.016000 -0.011127
    vertex -0.024051 0.000000 -0.011127
    vertex -0.021096 0.016000 -0.016037
  endloop
endfacet
facet normal 0.000079 0.000000 0.000047
  outer loop
    vertex -0.021096 0.016000 -0.016037
    vertex -0.024051 0.000000 -0.011127
    vertex -0.021096 0.000000 -0.016037
  endloop
endfacet
facet normal 0.000067 0.000000 0.000063
  outer loop
    vertex -0.021096 0.016000 -0.016037
    vertex -0.021096 0.000000 -0.016037
    vertex -0.017156 0.016000 -0.020197
  endloop
endfacet
facet normal 0.000067 0.000000 0.000063
  outer loop
    vertex -0.017156 0.016000 -0.020197
    vertex -0.021096 0.000000 -0.016037
    vertex -0.017156 0.000000 -0.020197
  endloop
endfacet
facet normal 0.000051 0.000000 0.000076
  outer loop
    vertex -0.017156 0.016000 -0.020197
    vertex -0.017156 0.000000 -0.020197
    vertex -0.012413 0.016000 -0.023413
  endloop
endfacet
facet normal 0.000051 0.000000 0.000076
  outer loop
    vertex -0.012413 0.016000 -0.023413
    vertex -0.017156 0.000000 -0.020197
    vertex -0.012413 0.000000 -0.023413
  endloop
endfacet
facet normal 0.000034 0.000000 0.000085
  outer loop
    vertex -0.012413 0.016000 -0.023413
    vertex -0.012413 0.000000 -0.023413
    vertex -0.007090 0.016000 -0.025534
  endloop
endfacet
facet normal 0.000034 0.000000 0.000085
  outer loop
    vertex -0.007090 0.016000 -0.025534
    vertex -0.012413 0.000000 -0.023413
    vertex -0.007090 0.000000 -0.025534
  endloop
endfacet
facet normal 0.000015 0.000000 0.000090
  outer loop
    vertex -0.007090 0.016000 -0.025534
    vertex -0.007090 0.000000 -0.025534
    vertex -0.001435 0.016000 -0.026461
  endloop
endfacet
facet normal 0.000015 0.000000 0.000090
  outer loop
    vertex -0.001435 0.016000 -0.026461
    vertex -0.007090 0.000000 -0.025534
    vertex -0.001435 0.000000 -0.026461
  endloop
endfacet
facet normal -0.000005 0.000000 0.000092
  outer loop
    vertex -0.001435 0.016000 -0.026461
    vertex -0.001435 0.000000 -0.026461
    vertex 0.004287 0.016000 -0.026151
  endloop
endfacet
facet normal -0.000005 0.000000 0.000092
  outer loop
    vertex 0.004287 0.016000 -0.026151
    vertex -0.001435 0.000000 -0.026461
    vertex 0.004287 0.000000 -0.026151
  endloop
endfacet
facet normal -0.000025 0.000000 0.000088
  outer loop
    vertex 0.004287 0.016000 -0.026151
    vertex 0.004287 0.000000 -0.026151
    vertex 0.009809 0.016000 -0.024618
  endloop
endfacet
facet normal -0.000025 0.000000 0.000088
  outer loop
    vertex 0.009809 0.016000 -0.024618
    vertex 0.004287 0.000000 -0.026151
    vertex 0.009809 0.000000 -0.024618
  endloop
endfacet
facet normal -0.000043 0.000000 0.000081
  outer loop
    vertex 0.009809 0.016000 -0.024618
    vertex 0.009809 0.000000 -0.024618
    vertex 0.014871 0.016000 -0.021934
  endloop
endfacet
facet normal -0.000043 0.000000 0.000081
  outer loop
    vertex 0.014871 0.016000 -0.021934
    vertex 0.009809 0.000000 -0.024618
    vertex 0.014871 0.000000 -0.021934
  endloop
endfacet
facet normal -0.000059 0.000000 0.000070
  outer loop
    vertex 0.014871 0.016000 -0.021934
    vertex 0.014871 0.000000 -0.021934
    vertex 0.019239 0.016000 -0.018224
  endloop
endfacet
facet normal -0.000059 0.000000 0.000070
  outer loop
    vertex 0.019239 0.016000 -0.018224
    vertex 0.014871 0.000000 -0.021934
    vertex 0.019239 0.000000 -0.018224
  endloop
endfacet
facet normal -0.000073 0.000000 0.000055
  outer loop
    vertex 0.019239 0.016000 -0.018224
    vertex 0.019239 0.000000 -0.018224
    vertex 0.022707 0.016000 -0.013662
  endloop
endfacet
facet normal -0.000073 0.000000 0.000055
  outer loop
    vertex 0.022707 0.016000 -0.013662
    vertex 0.019239 0.000000 -0.018224
    vertex 0.022707 0.000000 -0.013662
  endloop
endfacet
facet normal -0.000083 0.000000 0.000038
  outer loop
    vertex 0.022707 0.016000 -0.013662
    vertex 0.022707 0.000000 -0.013662
    vertex 0.025113 0.016000 -0.008461
  endloop
endfacet
facet normal -0.000083 0.000000 0.000038
  outer loop
    vertex 0.025113 0.016000 -0.008461
    vertex 0.022707 0.000000 -0.013662
    vertex 0.025113 0.000000 -0.008461
  endloop
endfacet
facet normal -0.000090 0.000000 0.000020
  outer loop
    vertex 0.025113 0.016000 -0.008461
    vertex 0.025113 0.000000 -0.008461
    vertex 0.026345 0.016000 -0.002865
  endloop
endfacet
facet normal -0.000090 0.000000 0.000020
  outer loop
    vertex 0.026345 0.016000 -0.002865
    vertex 0.025113 0.000000 -0.008461
    vertex 0.026345 0.000000 -0.002865
  endloop
endfacet
facet normal -0.000092 0.000000 0.000000
  outer loop
    vertex 0.026345 0.016000 -0.002865
    vertex 0.026345 0.000000 -0.002865
    vertex 0.026345 0.016000 0.002865
  endloop
endfacet
facet normal -0.000092 -0.000000 0.000000
  outer loop
    vertex 0.026345 0.016000 0.002865
    vertex 0.026345 0.000000 -0.002865
    vertex 0.026345 0.000000 0.002865
  endloop
endfacet
facet normal -0.000090 -0.000000 -0.000020
  outer loop
    vertex 0.026345 0.016000 0.002865
    vertex 0.026345 0.000000 0.002865
    vertex 0.025113 0.016000 0.008461
  endloop
endfacet
facet normal -0.000090 -0.000000 -0.000020
  outer loop
    vertex 0.025113 0.016000 0.008461
    vertex 0.026345 0.000000 0.002865
    vertex 0.025113 0.000000 0.008461
  endloop
endfacet
facet normal -0.000083 -0.000000 -0.000038
  outer loop
    vertex 0.025113 0.016000 0.008461
    vertex 0.025113 0.000000 0.008461
    vertex 0.022707 0.016000 0.013662
  endloop
endfacet
facet normal -0.000083 -0.000000 -0.000038
  outer loop
    vertex 0.022707 0.016000 0.013662
    vertex 0.025113 0.000000 0.008461
    vertex 0.022707 0.000000 0.013662
  endloop
endfacet
facet normal -0.000073 -0.000000 -0.000055
  outer loop
    vertex 0.022707 0.016000 0.013662
    vertex 0.022707 0.000000 0.013662
    vertex 0.019239 0.016000 0.018224
  endloop
endfacet
facet normal -0.000073 -0.000000 -0.000055
  outer loop
    vertex 0.019239 0.016000 0.018224
    vertex 0.022707 0.000000 0.013662
    vertex 0.019239 0.000000 0.018224
  endloop
endfacet
facet normal -0.000059 -0.000000 -0.000070
  outer loop
    vertex 0.019239 0.016000 0.018224
    vertex 0.019239 0.000000 0.018224
    vertex 0.014871 0.016000 0.021934
  endloop
endfacet
facet normal -0.000059 -0.000000 -0.000070
  outer loop
    vertex 0.014871 0.016000 0.021934
    vertex 0.019239 0.000000 0.018224
    vertex 0.014871 0.000000 0.021934
  endloop
endfacet
facet normal -0.000043 -0.000000 -0.000081
  outer loop
    vertex 0.014871 0.016000 0.021934
    vertex 0.014871 0.000000 0.021934
    vertex 0.009809 0.016000 0.024618
  endloop
endfacet
facet normal -0.000043 -0.000000 -0.000081
  outer loop
    vertex 0.009809 0.016000 0.024618
    vertex 0.014871 0.000000 0.021934
    vertex 0.009809 0.000000 0.024618
  endloop
endfacet
facet normal -0.000025 -0.000000 -0.000088
  outer loop
    vertex 0.009809 0.016000 0.024618
    vertex 0.009809 0.000000 0.024618
    vertex 0.004287 0.016000 0.026151
  endloop
endfacet
facet normal -0.000025 -0.000000 -0.000088
  outer loop
    vertex 0.004287 0.016000 0.026151
    vertex 0.009809 0.000000 0.024618
    vertex 0.004287 0.000000 0.026151
  endloop
endfacet
facet normal -0.000005 -0.000000 -0.000092
  outer loop
    vertex 0.004287 0.016000 0.026151
    vertex 0.004287 0.000000 0.026151
    vertex -0.001435 0.016000 0.026461
  endloop
endfacet
facet normal -0.000005 -0.000000 -0.000092
  outer loop
    vertex -0.001435 0.016000 0.026461
    vertex 0.004287 0.000000 0.026151
    vertex -0.001435 0.000000 0.026461
  endloop
endfacet
facet normal 0.000015 0.000000 -0.000090
  outer loop
    vertex -0.001435 0.016000 0.026461
    vertex -0.001435 0.000000 0.026461
    vertex -0.007090 0.016000 0.025534
  endloop
endfacet
facet normal 0.000015 0.000000 -0.000090
  outer loop
    vertex -0.007090 0.016000 0.025534
    vertex -0.001435 0.000000 0.026461
    vertex -0.007090 0.000000 0.025534
  endloop
endfacet
facet normal 0.000034 0.000000 -0.000085
  outer loop
    vertex -0.007090 0.016000 0.025534
    vertex -0.007090 0.000000 0.025534
    vertex -0.012413 0.016000 0.023413
  endloop
endfacet
facet normal 0.000034 0.000000 -0.000085
  outer loop
    vertex -0.012413 0.016000 0.023413
    vertex -0.007090 0.000000 0.025534
    vertex -0.012413 0.000000 0.023413
  endloop
endfacet
facet normal 0.000051 0.000000 -0.000076
  outer loop
    vertex -0.012413 0.016000 0.023413
    vertex -0.012413 0.000000 0.023413
    vertex -0.017156 0.016000 0.020197
  endloop
endfacet
facet normal 0.000051 0.000000 -0.000076
  outer loop
    vertex -0.017156 0.016000 0.020197
    vertex -0.012413 0.000000 0.023413
    vertex -0.017156 0.000000 0.020197
  endloop
endfacet
facet normal 0.000067 0.000000 -0.000063
  outer loop
    vertex -0.017156 0.016000 0.020197
    vertex -0.017156 0.000000 0.020197
    vertex -0.021096 0.016000 0.016037
  endloop
endfacet
facet normal 0.000067 0.000000 -0.000063
  outer loop
    vertex -0.021096 0.016000 0.016037
    vertex -0.017156 0.000000 0.020197
    vertex -0.021096 0.000000 0.016037
  endloop
endfacet
facet normal 0.000079 0.000000 -0.000047
  outer loop
    vertex -0.021096 0.016000 0.016037
    vertex -0.021096 0.000000 0.016037
    vertex -0.024051 0.016000 0.011127
  endloop
endfacet
facet normal 0.000079 0.000000 -0.000047
  outer loop
    vertex -0.024051 0.016000 0.011127
    vertex -0.021096 0.000000 0.016037
    vertex -0.024051 0.000000 0.011127
  endloop
endfacet
facet normal 0.000087 0.000000 -0.000029
  outer loop
    vertex -0.024051 0.016000 0.011127
    vertex -0.024051 0.000000 0.011127
    vertex -0.025880 0.016000 0.005697
  endloop
endfacet
facet normal 0.000087 0.000000 -0.000029
  outer loop
    vertex -0.025880 0.016000 0.005697
    vertex -0.024051 0.000000 0.011127
    vertex -0.025880 0.000000 0.005697
  endloop
endfacet
facet normal -0.000130 -0.000000 -0.000010
  outer loop
    vertex -0.053891 0.016000 -0.008123
    vertex -0.053891 0.000000 -0.008123
    vertex -0.054500 0.016000 0.000000
  endloop
endfacet
facet normal -0.000130 -0.000000 -0.000010
  outer loop
    vertex -0.054500 0.016000 0.000000
    vertex -0.053891 0.000000 -0.008123
    vertex -0.054500 0.000000 0.000000
  endloop
endfacet
facet normal -0.000130 0.000000 0.000010
  outer loop
    vertex -0.054500 0.016000 0.000000
    vertex -0.054500 0.000000 0.000000
    vertex -0.053891 0.016000 0.008123
  endloop
endfacet
facet normal -0.000130 0.000000 0.000010
  outer loop
    vertex -0.053891 0.016000 0.008123
    vertex -0.054500 0.000000 0.000000
    vertex -0.053891 0.000000 0.008123
  endloop
endfacet
facet normal -0.000127 0.000000 0.000029
  outer loop
    vertex -0.053891 0.016000 0.008123
    vertex -0.053891 0.000000 0.008123
    vertex -0.052079 0.016000 0.016064
  endloop
endfacet
facet normal -0.000127 0.000000 0.000029
  outer loop
    vertex -0.052079 0.016000 0.016064
    vertex -0.053891 0.000000 0.008123
    vertex -0.052079 0.000000 0.016064
  endloop
endfacet
facet normal -0.000121 0.000000 0.000048
  outer loop
    vertex -0.052079 0.016000 0.016064
    vertex -0.052079 0.000000 0.016064
    vertex -0.049103 0.016000 0.023647
  endloop
endfacet
facet normal -0.000121 0.000000 0.000048
  outer loop
    vertex -0.049103 0.016000 0.023647
    vertex -0.052079 0.000000 0.016064
    vertex -0.049103 0.000000 0.023647
  endloop
endfacet
facet normal -0.000113 0.000000 0.000065
  outer loop
    vertex -0.049103 0.016000 0.023647
    vertex -0.049103 0.000000 0.023647
    vertex -0.045030 0.016000 0.030701
  endloop
endfacet
facet normal -0.000113 0.000000 0.000065
  outer loop
    vertex -0.045030 0.016000 0.030701
    vertex -0.049103 0.000000 0.023647
    vertex -0.045030 0.000000 0.030701
  endloop
endfacet
facet normal -0.000102 0.000000 0.000081
  outer loop
    vertex -0.045030 0.016000 0.030701
    vertex -0.045030 0.000000 0.030701
    vertex -0.039951 0.016000 0.037069
  endloop
endfacet
facet normal -0.000102 0.000000 0.000081
  outer loop
    vertex -0.039951 0.016000 0.037069
    vertex -0.045030 0.000000 0.030701
    vertex -0.039951 0.000000 0.037069
  endloop
endfacet
facet normal -0.000089 0.000000 0.000096
  outer loop
    vertex -0.039951 0.016000 0.037069
    vertex -0.039951 0.000000 0.037069
    vertex -0.033980 0.016000 0.042610
  endloop
endfacet
facet normal -0.000089 0.000000 0.000096
  outer loop
    vertex -0.033980 0.016000 0.042610
    vertex -0.039951 0.000000 0.037069
    vertex -0.033980 0.000000 0.042610
  endloop
endfacet
facet normal -0.000073 0.000000 0.000108
  outer loop
    vertex -0.033980 0.016000 0.042610
    vertex -0.033980 0.000000 0.042610
    vertex -0.027250 0.016000 0.047198
  endloop
endfacet
facet normal -0.000073 0.000000 0.000108
  outer loop
    vertex -0.027250 0.016000 0.047198
    vertex -0.033980 0.000000 0.042610
    vertex -0.027250 0.000000 0.047198
  endloop
endfacet
facet normal -0.000057 0.000000 0.000117
  outer loop
    vertex -0.027250 0.016000 0.047198
    vertex -0.027250 0.000000 0.047198
    vertex -0.019911 0.016000 0.050733
  endloop
endfacet
facet normal -0.000057 0.000000 0.000117
  outer loop
    vertex -0.019911 0.016000 0.050733
    vertex -0.027250 0.000000 0.047198
    vertex -0.019911 0.000000 0.050733
  endloop
endfacet
facet normal -0.000038 0.000000 0.000125
  outer loop
    vertex -0.019911 0.016000 0.050733
    vertex -0.019911 0.000000 0.050733
    vertex -0.012127 0.016000 0.053134
  endloop
endfacet
facet normal -0.000038 0.000000 0.000125
  outer loop
    vertex -0.012127 0.016000 0.053134
    vertex -0.019911 0.000000 0.050733
    vertex -0.012127 0.000000 0.053134
  endloop
endfacet
facet normal -0.000019 0.000000 0.000129
  outer loop
    vertex -0.012127 0.016000 0.053134
    vertex -0.012127 0.000000 0.053134
    vertex -0.004073 0.016000 0.054348
  endloop
endfacet
facet normal -0.000019 0.000000 0.000129
  outer loop
    vertex -0.004073 0.016000 0.054348
    vertex -0.012127 0.000000 0.053134
    vertex -0.004073 0.000000 0.054348
  endloop
endfacet
facet normal -0.000000 0.000000 0.000130
  outer loop
    vertex -0.004073 0.016000 0.054348
    vertex -0.004073 0.000000 0.054348
    vertex 0.004073 0.016000 0.054348
  endloop
endfacet
facet normal 0.000000 0.000000 0.000130
  outer loop
    vertex 0.004073 0.016000 0.054348
    vertex -0.004073 0.000000 0.054348
    vertex 0.004073 0.000000 0.054348
  endloop
endfacet
facet normal 0.000019 0.000000 0.000129
  outer loop
    vertex 0.004073 0.016000 0.054348
    vertex 0.004073 0.000000 0.054348
    vertex 0.012127 0.016000 0.053134
  endloop
endfacet
facet normal 0.000019 0.000000 0.000129
  outer loop
    vertex 0.012127 0.016000 0.053134
    vertex 0.004073 0.000000 0.054348
    vertex 0.012127 0.000000 0.053134
  endloop
endfacet
facet normal 0.000038 0.000000 0.000125
  outer loop
    vertex 0.012127 0.016000 0.053134
    vertex 0.012127 0.000000 0.053134
    vertex 0.019911 0.016000 0.050733
  endloop
endfacet
facet normal 0.000038 0.000000 0.000125
  outer loop
    vertex 0.019911 0.016000 0.050733
    vertex 0.012127 0.000000 0.053134
    vertex 0.019911 0.000000 0.050733
  endloop
endfacet
facet normal 0.000057 0.000000 0.000117
  outer loop
    vertex 0.019911 0.016000 0.050733
    vertex 0.019911 0.000000 0.050733
    vertex 0.027250 0.016000 0.047198
  endloop
endfacet
facet normal 0.000057 0.000000 0.000117
  outer loop
    vertex 0.027250 0.016000 0.047198
    vertex 0.019911 0.000000 0.050733
    vertex 0.027250 0.000000 0.047198
  endloop
endfacet
facet normal 0.000073 0.000000 0.000108
  outer loop
    vertex 0.027250 0.016000 0.047198
    vertex 0.027250 0.000000 0.047198
    vertex 0.033980 0.016000 0.042610
  endloop
endfacet
facet normal 0.000073 0.000000 0.000108
  outer loop
    vertex 0.033980 0.016000 0.042610
    vertex 0.027250 0.000000 0.047198
    vertex 0.033980 0.000000 0.042610
  endloop
endfacet
facet normal 0.000089 0.000000 0.000096
  outer loop
    vertex 0.033980 0.016000 0.042610
    vertex 0.033980 0.000000 0.042610
    vertex 0.039951 0.016000 0.037069
  endloop
endfacet
facet normal 0.000089 0.000000 0.000096
  outer loop
    vertex 0.039951 0.016000 0.037069
    vertex 0.033980 0.000000 0.042610
    vertex 0.039951 0.000000 0.037069
  endloop
endfacet
facet normal 0.000102 0.000000 0.000081
  outer loop
    vertex 0.039951 0.016000 0.037069
    vertex 0.039951 0.000000 0.037069
    vertex 0.045030 0.016000 0.030701
  endloop
endfacet
facet normal 0.000102 0.000000 0.000081
  outer loop
    vertex 0.045030 0.016000 0.030701
    vertex 0.039951 0.000000 0.037069
    vertex 0.045030 0.000000 0.030701
  endloop
endfacet
facet normal 0.000113 0.000000 0.000065
  outer loop
    vertex 0.045030 0.016000 0.030701
    vertex 0.045030 0.000000 0.030701
    vertex 0.049103 0.016000 0.023647
  endloop
endfacet
facet normal 0.000113 0.000000 0.000065
  outer loop
    vertex 0.049103 0.016000 0.023647
    vertex 0.045030 0.000000 0.030701
    vertex 0.049103 0.000000 0.023647
  endloop
endfacet
facet normal 0.000121 0.000000 0.000048
  outer loop
    vertex 0.049103 0.016000 0.023647
    vertex 0.049103 0.000000 0.023647
    vertex 0.052079 0.016000 0.016064
  endloop
endfacet
facet normal 0.000121 0.000000 0.000048
  outer loop
    vertex 0.052079 0.016000 0.016064
    vertex 0.049103 0.000000 0.023647
    vertex 0.052079 0.000000 0.016064
  endloop
endfacet
facet normal 0.000127 0.000000 0.000029
  outer loop
    vertex 0.052079 0.016000 0.016064
    vertex 0.052079 0.000000 0.016064
    vertex 0.053891 0.016000 0.008123
  endloop
endfacet
facet normal 0.000127 0.000000 0.000029
  outer loop
    vertex 0.053891 0.016000 0.008123
    vertex 0.052079 0.000000 0.016064
    vertex 0.053891 0.000000 0.008123
  endloop
endfacet
facet normal 0.000130 0.000000 0.000010
  outer loop
    vertex 0.053891 0.016000 0.008123
    vertex 0.053891 0.000000 0.008123
    vertex 0.054500 0.016000 0.000000
  endloop
endfacet
facet normal 0.000130 0.000000 0.000010
  outer loop
    vertex 0.054500 0.016000 0.000000
    vertex 0.053891 0.000000 0.008123
    vertex 0.054500 0.000000 0.000000
  endloop
endfacet
facet normal 0.000130 0.000000 -0.000010
  outer loop
    vertex 0.054500 0.016000 0.000000
    vertex 0.054500 0.000000 0.000000
    vertex 0.053891 0.016000 -0.008123
  endloop
endfacet
facet normal 0.000130 0.000000 -0.000010
  outer loop
    vertex 0.053891 0.016000 -0.008123
    vertex 0.054500 0.000000 0.000000
    vertex 0.053891 0.000000 -0.008123
  endloop
endfacet
facet normal 0.000127 0.000000 -0.000029
  outer loop
    vertex 0.053891 0.016000 -0.008123
    vertex 0.053891 0.000000 -0.008123
    vertex 0.052079 0.016000 -0.016064
  endloop
endfacet
facet normal 0.000127 0.000000 -0.000029
  outer loop
    vertex 0.052079 0.016000 -0.016064
    vertex 0.053891 0.000000 -0.008123
    vertex 0.052079 0.000000 -0.016064
  endloop
endfacet
facet normal 0.000121 0.000000 -0.000048
  outer loop
    vertex 0.052079 0.016000 -0.016064
    vertex 0.052079 0.000000 -0.016064
    vertex 0.049103 0.016000 -0.023647
  endloop
endfacet
facet normal 0.000121 0.000000 -0.000048
  outer loop
    vertex 0.049103 0.016000 -0.023647
    vertex 0.052079 0.000000 -0.016064
    vertex 0.049103 0.000000 -0.023647
  endloop
endfacet
facet normal 0.000113 0.000000 -0.000065
  outer loop
    vertex 0.049103 0.016000 -0.023647
    vertex 0.049103 0.000000 -0.023647
    vertex 0.045030 0.016000 -0.030701
  endloop
endfacet
facet normal 0.000113 0.000000 -0.000065
  outer loop
    vertex 0.045030 0.016000 -0.030701
    vertex 0.049103 0.000000 -0.023647
    vertex 0.045030 0.000000 -0.030701
  endloop
endfacet
facet normal 0.000102 0.000000 -0.000081
  outer loop
    vertex 0.045030 0.016000 -0.030701
    vertex 0.045030 0.000000 -0.030701
    vertex 0.039951 0.016000 -0.037069
  endloop
endfacet
facet normal 0.000102 0.000000 -0.000081
  outer loop
    vertex 0.039951 0.016000 -0.037069
    vertex 0.045030 0.000000 -0.030701
    vertex 0.039951 0.000000 -0.037069
  endloop
endfacet
facet normal 0.000089 0.000000 -0.000096
  outer loop
    vertex 0.039951 0.016000 -0.037069
    vertex 0.039951 0.000000 -0.037069
    vertex 0.033980 0.016000 -0.042610
  endloop
endfacet
facet normal 0.000089 0.000000 -0.000096
  outer loop
    vertex 0.033980 0.016000 -0.042610
    vertex 0.039951 0.000000 -0.037069
    vertex 0.033980 0.000000 -0.042610
  endloop
endfacet
facet normal 0.000073 0.000000 -0.000108
  outer loop
    vertex 0.033980 0.016000 -0.042610
    vertex 0.033980 0.000000 -0.042610
    vertex 0.027250 0.016000 -0.047198
  endloop
endfacet
facet normal 0.000073 0.000000 -0.000108
  outer loop
    vertex 0.027250 0.016000 -0.047198
    vertex 0.033980 0.000000 -0.042610
    vertex 0.027250 0.000000 -0.047198
  endloop
endfacet
facet normal 0.000057 0.000000 -0.000117
  outer loop
    vertex 0.027250 0.016000 -0.047198
    vertex 0.027250 0.000000 -0.047198
    vertex 0.019911 0.016000 -0.050733
  endloop
endfacet
facet normal 0.000057 0.000000 -0.000117
  outer loop
    vertex 0.019911 0.016000 -0.050733
    vertex 0.027250 0.000000 -0.047198
    vertex 0.019911 0.000000 -0.050733
  endloop
endfacet
facet normal 0.000038 0.000000 -0.000125
  outer loop
    vertex 0.019911 0.016000 -0.050733
    vertex 0.019911 0.000000 -0.050733
    vertex 0.012127 0.016000 -0.053134
  endloop
endfacet
facet normal 0.000038 0.000000 -0.000125
  outer loop
    vertex 0.012127 0.016000 -0.053134
    vertex 0.019911 0.000000 -0.050733
    vertex 0.012127 0.000000 -0.053134
  endloop
endfacet
facet normal 0.000019 0.000000 -0.000129
  outer loop
    vertex 0.012127 0.016000 -0.053134
    vertex 0.012127 0.000000 -0.053134
    vertex 0.004073 0.016000 -0.054348
  endloop
endfacet
facet normal 0.000019 0.000000 -0.000129
  outer loop
    vertex 0.004073 0.016000 -0.054348
    vertex 0.012127 0.000000 -0.053134
    vertex 0.004073 0.000000 -0.054348
  endloop
endfacet
facet normal -0.000000 -0.000000 -0.000130
  outer loop
    vertex 0.004073 0.016000 -0.054348
    vertex 0.004073 0.000000 -0.054348
    vertex -0.004073 0.016000 -0.054348
  endloop
endfacet
facet normal 0.000000 0.000000 -0.000130
  outer loop
    vertex -0.004073 0.016000 -0.054348
    vertex 0.004073 0.000000 -0.054348
    vertex -0.004073 0.000000 -0.054348
  endloop
endfacet
facet normal -0.000019 -0.000000 -0.000129
  outer loop
    vertex -0.004073 0.016000 -0.054348
    vertex -0.004073 0.000000 -0.054348
    vertex -0.012127 0.016000 -0.053134
  endloop
endfacet
facet normal -0.000019 -0.000000 -0.000129
  outer loop
    vertex -0.012127 0.016000 -0.053134
    vertex -0.004073 0.000000 -0.054348
    vertex -0.012127 0.000000 -0.053134
  endloop
endfacet
facet normal -0.000038 -0.000000 -0.000125
  outer loop
    vertex -0.012127 0.016000 -0.053134
    vertex -0.012127 0.000000 -0.053134
    vertex -0.019911 0.016000 -0.050733
  endloop
endfacet
facet normal -0.000038 -0.000000 -0.000125
  outer loop
    vertex -0.019911 0.016000 -0.050733
    vertex -0.012127 0.000000 -0.053134
    vertex -0.019911 0.000000 -0.050733
  endloop
endfacet
facet normal -0.000057 -0.000000 -0.000117
  outer loop
    vertex -0.019911 0.016000 -0.050733
    vertex -0.019911 0.000000 -0.050733
    vertex -0.027250 0.016000 -0.047198
  endloop
endfacet
facet normal -0.000057 -0.000000 -0.000117
  outer loop
    vertex -0.027250 0.016000 -0.047198
    vertex -0.019911 0.000000 -0.050733
    vertex -0.027250 0.000000 -0.047198
  endloop
endfacet
facet normal -0.000073 -0.000000 -0.000108
  outer loop
    vertex -0.027250 0.016000 -0.047198
    vertex -0.027250 0.000000 -0.047198
    vertex -0.033980 0.016000 -0.042610
  endloop
endfacet
facet normal -0.000073 -0.000000 -0.000108
  outer loop
    vertex -0.033980 0.016000 -0.042610
    vertex -0.027250 0.000000 -0.047198
    vertex -0.033980 0.000000 -0.042610
  endloop
endfacet
facet normal -0.000089 -0.000000 -0.000096
  outer loop
    vertex -0.033980 0.016000 -0.042610
    vertex -0.033980 0.000000 -0.042610
    vertex -0.039951 0.016000 -0.037069
  endloop
endfacet
facet normal -0.000089 -0.000000 -0.000096
  outer loop
    vertex -0.039951 0.016000 -0.037069
    vertex -0.033980 0.000000 -0.042610
    vertex -0.039951 0.000000 -0.037069
  endloop
endfacet
facet normal -0.000102 -0.000000 -0.000081
  outer loop
    vertex -0.039951 0.016000 -0.037069
    vertex -0.039951 0.000000 -0.037069
    vertex -0.045030 0.016000 -0.030701
  endloop
endfacet
facet normal -0.000102 -0.000000 -0.000081
  outer loop
    vertex -0.045030 0.016000 -0.030701
    vertex -0.039951 0.000000 -0.037069
    vertex -0.045030 0.000000 -0.030701
  endloop
endfacet
facet normal -0.000113 -0.000000 -0.000065
  outer loop
    vertex -0.045030 0.016000 -0.030701
    vertex -0.045030 0.000000 -0.030701
    vertex -0.049103 0.016000 -0.023647
  endloop
endfacet
facet normal -0.000113 -0.000000 -0.000065
  outer loop
    vertex -0.049103 0.016000 -0.023647
    vertex -0.045030 0.000000 -0.030701
    vertex -0.049103 0.000000 -0.023647
  endloop
endfacet
facet normal -0.000121 -0.000000 -0.000048
  outer loop
    vertex -0.049103 0.016000 -0.023647
    vertex -0.049103 0.000000 -0.023647
    vertex -0.052079 0.016000 -0.016064
  endloop
endfacet
facet normal -0.000121 -0.000000 -0.000048
  outer loop
    vertex -0.052079 0.016000 -0.016064
    vertex -0.049103 0.000000 -0.023647
    vertex -0.052079 0.000000 -0.016064
  endloop
endfacet
facet normal -0.000127 -0.000000 -0.000029
  outer loop
    vertex -0.052079 0.016000 -0.016064
    vertex -0.052079 0.000000 -0.016064
    vertex -0.053891 0.016000 -0.008123
  endloop
endfacet
facet normal -0.000127 -0.000000 -0.000029
  outer loop
    vertex -0.053891 0.016000 -0.008123
    vertex -0.052079 0.000000 -0.016064
    vertex -0.053891 0.000000 -0.008123
  endloop
endfacet
facet normal 0.000000 0.000161 0.000000
  outer loop
    vertex -0.025880 0.016000 -0.005697
    vertex -0.053891 0.016000 -0.008123
    vertex -0.026500 0.016000 0.000000
  endloop
endfacet
facet normal 0.000000 0.000227 0.000000
  outer loop
    vertex -0.026500 0.016000 0.000000
    vertex -0.053891 0.016000 -0.008123
    vertex -0.054500 0.016000 0.000000
  endloop
endfacet
facet normal 0.000000 0.000227 0.000000
  outer loop
    vertex -0.026500 0.016000 0.000000
    vertex -0.054500 0.016000 0.000000
    vertex -0.053891 0.016000 0.008123
  endloop
endfacet
facet normal -0.000000 0.000227 0.000000
  outer loop
    vertex -0.053891 0.016000 -0.008123
    vertex -0.025880 0.016000 -0.005697
    vertex -0.052079 0.016000 -0.016064
  endloop
endfacet
facet normal 0.000000 0.000161 0.000000
  outer loop
    vertex -0.052079 0.016000 -0.016064
    vertex -0.025880 0.016000 -0.005697
    vertex -0.024051 0.016000 -0.011127
  endloop
endfacet
facet normal -0.000000 0.000227 0.000000
  outer loop
    vertex -0.052079 0.016000 -0.016064
    vertex -0.024051 0.016000 -0.011127
    vertex -0.049103 0.016000 -0.023647
  endloop
endfacet
facet normal -0.000000 0.000228 0.000000
  outer loop
    vertex -0.049103 0.016000 -0.023647
    vertex -0.024051 0.016000 -0.011127
    vertex -0.045030 0.016000 -0.030701
  endloop
endfacet
facet normal 0.000000 0.000161 0.000000
  outer loop
    vertex -0.045030 0.016000 -0.030701
    vertex -0.024051 0.016000 -0.011127
    vertex -0.021096 0.016000 -0.016037
  endloop
endfacet
facet normal -0.000000 0.000227 0.000000
  outer loop
    vertex -0.045030 0.016000 -0.030701
    vertex -0.021096 0.016000 -0.016037
    vertex -0.039951 0.016000 -0.037069
  endloop
endfacet
facet normal 0.000000 0.000161 0.000000
  outer loop
    vertex -0.039951 0.016000 -0.037069
    vertex -0.021096 0.016000 -0.016037
    vertex -0.017156 0.016000 -0.020197
  endloop
endfacet
facet normal -0.000000 0.000227 0.000000
  outer loop
    vertex -0.039951 0.016000 -0.037069
    vertex -0.017156 0.016000 -0.020197
    vertex -0.033980 0.016000 -0.042610
  endloop
endfacet
facet normal -0.000000 0.000228 0.000000
  outer loop
    vertex -0.033980 0.016000 -0.042610
    vertex -0.017156 0.016000 -0.020197
    vertex -0.027250 0.016000 -0.047198
  endloop
endfacet
facet normal 0.000000 0.000161 0.000000
  outer loop
    vertex -0.027250 0.016000 -0.047198
    vertex -0.017156 0.016000 -0.020197
    vertex -0.012413 0.016000 -0.023413
  endloop
endfacet
facet normal -0.000000 0.000227 0.000000
  outer loop
    vertex -0.027250 0.016000 -0.047198
    vertex -0.012413 0.016000 -0.023413
    vertex -0.019911 0.016000 -0.050733
  endloop
endfacet
facet normal 0.000000 0.000161 0.000000
  outer loop
    vertex -0.019911 0.016000 -0.050733
    vertex -0.012413 0.016000 -0.023413
    vertex -0.007090 0.016000 -0.025534
  endloop
endfacet
facet normal -0.000000 0.000227 0.000000
  outer loop
    vertex -0.019911 0.016000 -0.050733
    vertex -0.007090 0.016000 -0.025534
    vertex -0.012127 0.016000 -0.053134
  endloop
endfacet
facet normal 0.000000 0.000161 0.000000
  outer loop
    vertex -0.012127 0.016000 -0.053134
    vertex -0.007090 0.016000 -0.025534
    vertex -0.001435 0.016000 -0.026461
  endloop
endfacet
facet normal -0.000000 0.000228 0.000000
  outer loop
    vertex -0.012127 0.016000 -0.053134
    vertex -0.001435 0.016000 -0.026461
    vertex -0.004073 0.016000 -0.054348
  endloop
endfacet
facet normal 0.000000 0.000227 0.000000
  outer loop
    vertex -0.004073 0.016000 -0.054348
    vertex -0.001435 0.016000 -0.026461
    vertex 0.004073 0.016000 -0.054348
  endloop
endfacet
facet normal 0.000000 0.000161 -0.000000
  outer loop
    vertex 0.004073 0.016000 -0.054348
    vertex -0.001435 0.016000 -0.026461
    vertex 0.004287 0.016000 -0.026151
  endloop
endfacet
facet normal 0.000000 0.000227 0.000000
  outer loop
    vertex 0.004073 0.016000 -0.054348
    vertex 0.004287 0.016000 -0.026151
    vertex 0.012127 0.016000 -0.053134
  endloop
endfacet
facet normal 0.000000 0.000161 0.000000
  outer loop
    vertex 0.012127 0.016000 -0.053134
    vertex 0.004287 0.016000 -0.026151
    vertex 0.009809 0.016000 -0.024618
  endloop
endfacet
facet normal 0.000000 0.000228 -0.000000
  outer loop
    vertex 0.012127 0.016000 -0.053134
    vertex 0.009809 0.016000 -0.024618
    vertex 0.019911 0.016000 -0.050733
  endloop
endfacet
facet normal 0.000000 0.000227 -0.000000
  outer loop
    vertex 0.019911 0.016000 -0.050733
    vertex 0.009809 0.016000 -0.024618
    vertex 0.027250 0.016000 -0.047198
  endloop
endfacet
facet normal 0.000000 0.000161 0.000000
  outer loop
    vertex 0.027250 0.016000 -0.047198
    vertex 0.009809 0.016000 -0.024618
    vertex 0.014871 0.016000 -0.021934
  endloop
endfacet
facet normal 0.000000 0.000227 -0.000000
  outer loop
    vertex 0.027250 0.016000 -0.047198
    vertex 0.014871 0.016000 -0.021934
    vertex 0.033980 0.016000 -0.042610
  endloop
endfacet
facet normal 0.000000 0.000161 0.000000
  outer loop
    vertex 0.033980 0.016000 -0.042610
    vertex 0.014871 0.016000 -0.021934
    vertex 0.019239 0.016000 -0.018224
  endloop
endfacet
facet normal 0.000000 0.000227 -0.000000
  outer loop
    vertex 0.033980 0.016000 -0.042610
    vertex 0.019239 0.016000 -0.018224
    vertex 0.039951 0.016000 -0.037069
  endloop
endfacet
facet normal 0.000000 0.000228 -0.000000
  outer loop
    vertex 0.039951 0.016000 -0.037069
    vertex 0.019239 0.016000 -0.018224
    vertex 0.045030 0.016000 -0.030701
  endloop
endfacet
facet normal 0.000000 0.000161 0.000000
  outer loop
    vertex 0.045030 0.016000 -0.030701
    vertex 0.019239 0.016000 -0.018224
    vertex 0.022707 0.016000 -0.013662
  endloop
endfacet
facet normal 0.000000 0.000227 -0.000000
  outer loop
    vertex 0.045030 0.016000 -0.030701
    vertex 0.022707 0.016000 -0.013662
    vertex 0.049103 0.016000 -0.023647
  endloop
endfacet
facet normal 0.000000 0.000161 0.000000
  outer loop
    vertex 0.049103 0.016000 -0.023647
    vertex 0.022707 0.016000 -0.013662
    vertex 0.025113 0.016000 -0.008461
  endloop
endfacet
facet normal 0.000000 0.000227 -0.000000
  outer loop
    vertex 0.049103 0.016000 -0.023647
    vertex 0.025113 0.016000 -0.008461
    vertex 0.052079 0.016000 -0.016064
  endloop
endfacet
facet normal 0.000000 0.000228 -0.000000
  outer loop
    vertex 0.052079 0.016000 -0.016064
    vertex 0.025113 0.016000 -0.008461
    vertex 0.053891 0.016000 -0.008123
  endloop
endfacet
facet normal 0.000000 0.000161 0.000000
  outer loop
    vertex 0.053891 0.016000 -0.008123
    vertex 0.025113 0.016000 -0.008461
    vertex 0.026345 0.016000 -0.002865
  endloop
endfacet
facet normal 0.000000 0.000227 -0.000000
  outer loop
    vertex 0.053891 0.016000 -0.008123
    vertex 0.026345 0.016000 -0.002865
    vertex 0.054500 0.016000 0.000000
  endloop
endfacet
facet normal 0.000000 0.000161 0.000000
  outer loop
    vertex 0.054500 0.016000 0.000000
    vertex 0.026345 0.016000 -0.002865
    vertex 0.026345 0.016000 0.002865
  endloop
endfacet
facet normal 0.000000 0.000227 0.000000
  outer loop
    vertex 0.054500 0.016000 0.000000
    vertex 0.026345 0.016000 0.002865
    vertex 0.053891 0.016000 0.008123
  endloop
endfacet
facet normal 0.000000 0.000161 0.000000
  outer loop
    vertex 0.053891 0.016000 0.008123
    vertex 0.026345 0.016000 0.002865
    vertex 0.025113 0.016000 0.008461
  endloop
endfacet
facet normal 0.000000 0.000228 0.000000
  outer loop
    vertex 0.053891 0.016000 0.008123
    vertex 0.025113 0.016000 0.008461
    vertex 0.052079 0.016000 0.016064
  endloop
endfacet
facet normal 0.000000 0.000227 0.000000
  outer loop
    vertex 0.052079 0.016000 0.016064
    vertex 0.025113 0.016000 0.008461
    vertex 0.049103 0.016000 0.023647
  endloop
endfacet
facet normal 0.000000 0.000161 0.000000
  outer loop
    vertex 0.049103 0.016000 0.023647
    vertex 0.025113 0.016000 0.008461
    vertex 0.022707 0.016000 0.013662
  endloop
endfacet
facet normal 0.000000 0.000227 0.000000
  outer loop
    vertex 0.049103 0.016000 0.023647
    vertex 0.022707 0.016000 0.013662
    vertex 0.045030 0.016000 0.030701
  endloop
endfacet
facet normal 0.000000 0.000161 0.000000
  outer loop
    vertex 0.045030 0.016000 0.030701
    vertex 0.022707 0.016000 0.013662
    vertex 0.019239 0.016000 0.018224
  endloop
endfacet
facet normal 0.000000 0.000228 0.000000
  outer loop
    vertex 0.045030 0.016000 0.030701
    vertex 0.019239 0.016000 0.018224
    vertex 0.039951 0.016000 0.037069
  endloop
endfacet
facet normal 0.000000 0.000227 0.000000
  outer loop
    vertex 0.039951 0.016000 0.037069
    vertex 0.019239 0.016000 0.018224
    vertex 0.033980 0.016000 0.042610
  endloop
endfacet
facet normal 0.000000 0.000161 0.000000
  outer loop
    vertex 0.033980 0.016000 0.042610
    vertex 0.019239 0.016000 0.018224
    vertex 0.014871 0.016000 0.021934
  endloop
endfacet
facet normal 0.000000 0.000227 0.000000
  outer loop
    vertex 0.033980 0.016000 0.042610
    vertex 0.014871 0.016000 0.021934
    vertex 0.027250 0.016000 0.047198
  endloop
endfacet
facet normal 0.000000 0.000161 0.000000
  outer loop
    vertex 0.027250 0.016000 0.047198
    vertex 0.014871 0.016000 0.021934
    vertex 0.009809 0.016000 0.024618
  endloop
endfacet
facet normal 0.000000 0.000227 0.000000
  outer loop
    vertex 0.027250 0.016000 0.047198
    vertex 0.009809 0.016000 0.024618
    vertex 0.019911 0.016000 0.050733
  endloop
endfacet
facet normal 0.000000 0.000228 0.000000
  outer loop
    vertex 0.019911 0.016000 0.050733
    vertex 0.009809 0.016000 0.024618
    vertex 0.012127 0.016000 0.053134
  endloop
endfacet
facet normal 0.000000 0.000161 0.000000
  outer loop
    vertex 0.012127 0.016000 0.053134
    vertex 0.009809 0.016000 0.024618
    vertex 0.004287 0.016000 0.026151
  endloop
endfacet
facet normal 0.000000 0.000227 0.000000
  outer loop
    vertex 0.012127 0.016000 0.053134
    vertex 0.004287 0.016000 0.026151
    vertex 0.004073 0.016000 0.054348
  endloop
endfacet
facet normal 0.000000 0.000161 0.000000
  outer loop
    vertex 0.004073 0.016000 0.054348
    vertex 0.004287 0.016000 0.026151
    vertex -0.001435 0.016000 0.026461
  endloop
endfacet
facet normal 0.000000 0.000227 0.000000
  outer loop
    vertex 0.004073 0.016000 0.054348
    vertex -0.001435 0.016000 0.026461
    vertex -0.004073 0.016000 0.054348
  endloop
endfacet
facet normal 0.000000 0.000228 0.000000
  outer loop
    vertex -0.004073 0.016000 0.054348
    vertex -0.001435 0.016000 0.026461
    vertex -0.012127 0.016000 0.053134
  endloop
endfacet
facet normal 0.000000 0.000161 0.000000
  outer loop
    vertex -0.012127 0.016000 0.053134
    vertex -0.001435 0.016000 0.026461
    vertex -0.007090 0.016000 0.025534
  endloop
endfacet
facet normal 0.000000 0.000227 0.000000
  outer loop
    vertex -0.012127 0.016000 0.053134
    vertex -0.007090 0.016000 0.025534
    vertex -0.019911 0.016000 0.050733
  endloop
endfacet
facet normal 0.000000 0.000161 0.000000
  outer loop
    vertex -0.019911 0.016000 0.050733
    vertex -0.007090 0.016000 0.025534
    vertex -0.012413 0.016000 0.023413
  endloop
endfacet
facet normal 0.000000 0.000227 0.000000
  outer loop
    vertex -0.019911 0.016000 0.050733
    vertex -0.012413 0.016000 0.023413
    vertex -0.027250 0.016000 0.047198
  endloop
endfacet
facet normal 0.000000 0.000161 0.000000
  outer loop
    vertex -0.027250 0.016000 0.047198
    vertex -0.012413 0.016000 0.023413
    vertex -0.017156 0.016000 0.020197
  endloop
endfacet
facet normal 0.000000 0.000228 0.000000
  outer loop
    vertex -0.027250 0.016000 0.047198
    vertex -0.017156 0.016000 0.020197
    vertex -0.033980 0.016000 0.042610
  endloop
endfacet
facet normal 0.000000 0.000227 0.000000
  outer loop
    vertex -0.033980 0.016000 0.042610
    vertex -0.017156 0.016000 0.020197
    vertex -0.039951 0.016000 0.037069
  endloop
endfacet
facet normal 0.000000 0.000161 0.000000
  outer loop
    vertex -0.039951 0.016000 0.037069
    vertex -0.017156 0.016000 0.020197
    vertex -0.021096 0.016000 0.016037
  endloop
endfacet
facet normal 0.000000 0.000227 0.000000
  outer loop
    vertex -0.039951 0.016000 0.037069
    vertex -0.021096 0.016000 0.016037
    vertex -0.045030 0.016000 0.030701
  endloop
endfacet
facet normal 0.000000 0.000161 0.000000
  outer loop
    vertex -0.045030 0.016000 0.030701
    vertex -0.021096 0.016000 0.016037
    vertex -0.024051 0.016000 0.011127
  endloop
endfacet
facet normal 0.000000 0.000228 0.000000
  outer loop
    vertex -0.045030 0.016000 0.030701
    vertex -0.024051 0.016000 0.011127
    vertex -0.049103 0.016000 0.023647
  endloop
endfacet
facet normal 0.000000 0.000227 0.000000
  outer loop
    vertex -0.049103 0.016000 0.023647
    vertex -0.024051 0.016000 0.011127
    vertex -0.052079 0.016000 0.016064
  endloop
endfacet
facet normal 0.000000 0.000161 0.000000
  outer loop
    vertex -0.052079 0.016000 0.016064
    vertex -0.024051 0.016000 0.011127
    vertex -0.025880 0.016000 0.005697
  endloop
endfacet
facet normal 0.000000 0.000227 0.000000
  outer loop
    vertex -0.052079 0.016000 0.016064
    vertex -0.025880 0.016000 0.005697
    vertex -0.053891 0.016000 0.008123
  endloop
endfacet
facet normal 0.000000 0.000161 0.000000
  outer loop
    vertex -0.053891 0.016000 0.008123
    vertex -0.025880 0.016000 0.005697
    vertex -0.026500 0.016000 0.000000
  endloop
endfacet
facet normal -0.000000 -0.000161 0.000000
  outer loop
    vertex -0.025880 0.000000 0.005697
    vertex -0.053891 0.000000 0.008123
    vertex -0.026500 0.000000 0.000000
  endloop
endfacet
facet normal 0.000000 -0.000227 0.000000
  outer loop
    vertex -0.026500 0.000000 0.000000
    vertex -0.053891 0.000000 0.008123
    vertex -0.054500 0.000000 0.000000
  endloop
endfacet
facet normal -0.000000 -0.000227 0.000000
  outer loop
    vertex -0.026500 0.000000 0.000000
    vertex -0.054500 0.000000 0.000000
    vertex -0.053891 0.000000 -0.008123
  endloop
endfacet
facet normal 0.000000 -0.000227 0.000000
  outer loop
    vertex -0.053891 0.000000 0.008123
    vertex -0.025880 0.000000 0.005697
    vertex -0.052079 0.000000 0.016064
  endloop
endfacet
facet normal 0.000000 -0.000161 0.000000
  outer loop
    vertex -0.052079 0.000000 0.016064
    vertex -0.025880 0.000000 0.005697
    vertex -0.024051 0.000000 0.011127
  endloop
endfacet
facet normal 0.000000 -0.000227 0.000000
  outer loop
    vertex -0.052079 0.000000 0.016064
    vertex -0.024051 0.000000 0.011127
    vertex -0.049103 0.000000 0.023647
  endloop
endfacet
facet normal 0.000000 -0.000228 0.000000
  outer loop
    vertex -0.049103 0.000000 0.023647
    vertex -0.024051 0.000000 0.011127
    vertex -0.045030 0.000000 0.030701
  endloop
endfacet
facet normal 0.000000 -0.000161 0.000000
  outer loop
    vertex -0.045030 0.000000 0.030701
    vertex -0.024051 0.000000 0.011127
    vertex -0.021096 0.000000 0.016037
  endloop
endfacet
facet normal 0.000000 -0.000227 0.000000
  outer loop
    vertex -0.045030 0.000000 0.030701
    vertex -0.021096 0.000000 0.016037
    vertex -0.039951 0.000000 0.037069
  endloop
endfacet
facet normal 0.000000 -0.000161 0.000000
  outer loop
    vertex -0.039951 0.000000 0.037069
    vertex -0.021096 0.000000 0.016037
    vertex -0.017156 0.000000 0.020197
  endloop
endfacet
facet normal 0.000000 -0.000227 0.000000
  outer loop
    vertex -0.039951 0.000000 0.037069
    vertex -0.017156 0.000000 0.020197
    vertex -0.033980 0.000000 0.042610
  endloop
endfacet
facet normal 0.000000 -0.000228 0.000000
  outer loop
    vertex -0.033980 0.000000 0.042610
    vertex -0.017156 0.000000 0.020197
    vertex -0.027250 0.000000 0.047198
  endloop
endfacet
facet normal 0.000000 -0.000161 0.000000
  outer loop
    vertex -0.027250 0.000000 0.047198
    vertex -0.017156 0.000000 0.020197
    vertex -0.012413 0.000000 0.023413
  endloop
endfacet
facet normal 0.000000 -0.000227 0.000000
  outer loop
    vertex -0.027250 0.000000 0.047198
    vertex -0.012413 0.000000 0.023413
    vertex -0.019911 0.000000 0.050733
  endloop
endfacet
facet normal 0.000000 -0.000161 0.000000
  outer loop
    vertex -0.019911 0.000000 0.050733
    vertex -0.012413 0.000000 0.023413
    vertex -0.007090 0.000000 0.025534
  endloop
endfacet
facet normal 0.000000 -0.000227 0.000000
  outer loop
    vertex -0.019911 0.000000 0.050733
    vertex -0.007090 0.000000 0.025534
    vertex -0.012127 0.000000 0.053134
  endloop
endfacet
facet normal 0.000000 -0.000161 0.000000
  outer loop
    vertex -0.012127 0.000000 0.053134
    vertex -0.007090 0.000000 0.025534
    vertex -0.001435 0.000000 0.026461
  endloop
endfacet
facet normal 0.000000 -0.000228 0.000000
  outer loop
    vertex -0.012127 0.000000 0.053134
    vertex -0.001435 0.000000 0.026461
    vertex -0.004073 0.000000 0.054348
  endloop
endfacet
facet normal 0.000000 -0.000227 0.000000
  outer loop
    vertex -0.004073 0.000000 0.054348
    vertex -0.001435 0.000000 0.026461
    vertex 0.004073 0.000000 0.054348
  endloop
endfacet
facet normal 0.000000 -0.000161 -0.000000
  outer loop
    vertex 0.004073 0.000000 0.054348
    vertex -0.001435 0.000000 0.026461
    vertex 0.004287 0.000000 0.026151
  endloop
endfacet
facet normal 0.000000 -0.000227 0.000000
  outer loop
    vertex 0.004073 0.000000 0.054348
    vertex 0.004287 0.000000 0.026151
    vertex 0.012127 0.000000 0.053134
  endloop
endfacet
facet normal 0.000000 -0.000161 0.000000
  outer loop
    vertex 0.012127 0.000000 0.053134
    vertex 0.004287 0.000000 0.026151
    vertex 0.009809 0.000000 0.024618
  endloop
endfacet
facet normal 0.000000 -0.000228 -0.000000
  outer loop
    vertex 0.012127 0.000000 0.053134
    vertex 0.009809 0.000000 0.024618
    vertex 0.019911 0.000000 0.050733
  endloop
endfacet
facet normal 0.000000 -0.000227 -0.000000
  outer loop
    vertex 0.019911 0.000000 0.050733
    vertex 0.009809 0.000000 0.024618
    vertex 0.027250 0.000000 0.047198
  endloop
endfacet
facet normal 0.000000 -0.000161 0.000000
  outer loop
    vertex 0.027250 0.000000 0.047198
    vertex 0.009809 0.000000 0.024618
    vertex 0.014871 0.000000 0.021934
  endloop
endfacet
facet normal 0.000000 -0.000227 -0.000000
  outer loop
    vertex 0.027250 0.000000 0.047198
    vertex 0.014871 0.000000 0.021934
    vertex 0.033980 0.000000 0.042610
  endloop
endfacet
facet normal 0.000000 -0.000161 0.000000
  outer loop
    vertex 0.033980 0.000000 0.042610
    vertex 0.014871 0.000000 0.021934
    vertex 0.019239 0.000000 0.018224
  endloop
endfacet
facet normal 0.000000 -0.000227 -0.000000
  outer loop
    vertex 0.033980 0.000000 0.042610
    vertex 0.019239 0.000000 0.018224
    vertex 0.039951 0.000000 0.037069
  endloop
endfacet
facet normal 0.000000 -0.000228 -0.000000
  outer loop
    vertex 0.039951 0.000000 0.037069
    vertex 0.019239 0.000000 0.018224
    vertex 0.045030 0.000000 0.030701
  endloop
endfacet
facet normal 0.000000 -0.000161 0.000000
  outer loop
    vertex 0.045030 0.000000 0.030701
    vertex 0.019239 0.000000 0.018224
    vertex 0.022707 0.000000 0.013662
  endloop
endfacet
facet normal 0.000000 -0.000227 -0.000000
  outer loop
    vertex 0.045030 0.000000 0.030701
    vertex 0.022707 0.000000 0.013662
    vertex 0.049103 0.000000 0.023647
  endloop
endfacet
facet normal 0.000000 -0.000161 0.000000
  outer loop
    vertex 0.049103 0.000000 0.023647
    vertex 0.022707 0.000000 0.013662
    vertex 0.025113 0.000000 0.008461
  endloop
endfacet
facet normal 0.000000 -0.000227 -0.000000
  outer loop
    vertex 0.049103 0.000000 0.023647
    vertex 0.025113 0.000000 0.008461
    vertex 0.052079 0.000000 0.016064
  endloop
endfacet
facet normal 0.000000 -0.000228 -0.000000
  outer loop
    vertex 0.052079 0.000000 0.016064
    vertex 0.025113 0.000000 0.008461
    vertex 0.053891 0.000000 0.008123
  endloop
endfacet
facet normal -0.000000 -0.000161 0.000000
  outer loop
    vertex 0.053891 0.000000 0.008123
    vertex 0.025113 0.000000 0.008461
    vertex 0.026345 0.000000 0.002865
  endloop
endfacet
facet normal 0.000000 -0.000227 -0.000000
  outer loop
    vertex 0.053891 0.000000 0.008123
    vertex 0.026345 0.000000 0.002865
    vertex 0.054500 0.000000 0.000000
  endloop
endfacet
facet normal -0.000000 -0.000161 0.000000
  outer loop
    vertex 0.054500 0.000000 0.000000
    vertex 0.026345 0.000000 0.002865
    vertex 0.026345 0.000000 -0.002865
  endloop
endfacet
facet normal 0.000000 -0.000227 0.000000
  outer loop
    vertex 0.054500 0.000000 0.000000
    vertex 0.026345 0.000000 -0.002865
    vertex 0.053891 0.000000 -0.008123
  endloop
endfacet
facet normal -0.000000 -0.000161 0.000000
  outer loop
    vertex 0.053891 0.000000 -0.008123
    vertex 0.026345 0.000000 -0.002865
    vertex 0.025113 0.000000 -0.008461
  endloop
endfacet
facet normal 0.000000 -0.000228 0.000000
  outer loop
    vertex 0.053891 0.000000 -0.008123
    vertex 0.025113 0.000000 -0.008461
    vertex 0.052079 0.000000 -0.016064
  endloop
endfacet
facet normal -0.000000 -0.000227 0.000000
  outer loop
    vertex 0.052079 0.000000 -0.016064
    vertex 0.025113 0.000000 -0.008461
    vertex 0.049103 0.000000 -0.023647
  endloop
endfacet
facet normal 0.000000 -0.000161 0.000000
  outer loop
    vertex 0.049103 0.000000 -0.023647
    vertex 0.025113 0.000000 -0.008461
    vertex 0.022707 0.000000 -0.013662
  endloop
endfacet
facet normal -0.000000 -0.000227 0.000000
  outer loop
    vertex 0.049103 0.000000 -0.023647
    vertex 0.022707 0.000000 -0.013662
    vertex 0.045030 0.000000 -0.030701
  endloop
endfacet
facet normal 0.000000 -0.000161 0.000000
  outer loop
    vertex 0.045030 0.000000 -0.030701
    vertex 0.022707 0.000000 -0.013662
    vertex 0.019239 0.000000 -0.018224
  endloop
endfacet
facet normal -0.000000 -0.000228 0.000000
  outer loop
    vertex 0.045030 0.000000 -0.030701
    vertex 0.019239 0.000000 -0.018224
    vertex 0.039951 0.000000 -0.037069
  endloop
endfacet
facet normal -0.000000 -0.000227 0.000000
  outer loop
    vertex 0.039951 0.000000 -0.037069
    vertex 0.019239 0.000000 -0.018224
    vertex 0.033980 0.000000 -0.042610
  endloop
endfacet
facet normal 0.000000 -0.000161 0.000000
  outer loop
    vertex 0.033980 0.000000 -0.042610
    vertex 0.019239 0.000000 -0.018224
    vertex 0.014871 0.000000 -0.021934
  endloop
endfacet
facet normal -0.000000 -0.000227 0.000000
  outer loop
    vertex 0.033980 0.000000 -0.042610
    vertex 0.014871 0.000000 -0.021934
    vertex 0.027250 0.000000 -0.047198
  endloop
endfacet
facet normal 0.000000 -0.000161 0.000000
  outer loop
    vertex 0.027250 0.000000 -0.047198
    vertex 0.014871 0.000000 -0.021934
    vertex 0.009809 0.000000 -0.024618
  endloop
endfacet
facet normal -0.000000 -0.000227 0.000000
  outer loop
    vertex 0.027250 0.000000 -0.047198
    vertex 0.009809 0.000000 -0.024618
    vertex 0.019911 0.000000 -0.050733
  endloop
endfacet
facet normal -0.000000 -0.000228 0.000000
  outer loop
    vertex 0.019911 0.000000 -0.050733
    vertex 0.009809 0.000000 -0.024618
    vertex 0.012127 0.000000 -0.053134
  endloop
endfacet
facet normal 0.000000 -0.000161 0.000000
  outer loop
    vertex 0.012127 0.000000 -0.053134
    vertex 0.009809 0.000000 -0.024618
    vertex 0.004287 0.000000 -0.026151
  endloop
endfacet
facet normal -0.000000 -0.000227 0.000000
  outer loop
    vertex 0.012127 0.000000 -0.053134
    vertex 0.004287 0.000000 -0.026151
    vertex 0.004073 0.000000 -0.054348
  endloop
endfacet
facet normal 0.000000 -0.000161 0.000000
  outer loop
    vertex 0.004073 0.000000 -0.054348
    vertex 0.004287 0.000000 -0.026151
    vertex -0.001435 0.000000 -0.026461
  endloop
endfacet
facet normal 0.000000 -0.000227 0.000000
  outer loop
    vertex 0.004073 0.000000 -0.054348
    vertex -0.001435 0.000000 -0.026461
    vertex -0.004073 0.000000 -0.054348
  endloop
endfacet
facet normal 0.000000 -0.000228 0.000000
  outer loop
    vertex -0.004073 0.000000 -0.054348
    vertex -0.001435 0.000000 -0.026461
    vertex -0.012127 0.000000 -0.053134
  endloop
endfacet
facet normal 0.000000 -0.000161 0.000000
  outer loop
    vertex -0.012127 0.000000 -0.053134
    vertex -0.001435 0.000000 -0.026461
    vertex -0.007090 0.000000 -0.025534
  endloop
endfacet
facet normal 0.000000 -0.000227 0.000000
  outer loop
    vertex -0.012127 0.000000 -0.053134
    vertex -0.007090 0.000000 -0.025534
    vertex -0.019911 0.000000 -0.050733
  endloop
endfacet
facet normal 0.000000 -0.000161 0.000000
  outer loop
    vertex -0.019911 0.000000 -0.050733
    vertex -0.007090 0.000000 -0.025534
    vertex -0.012413 0.000000 -0.023413
  endloop
endfacet
facet normal 0.000000 -0.000227 0.000000
  outer loop
    vertex -0.019911 0.000000 -0.050733
    vertex -0.012413 0.000000 -0.023413
    vertex -0.027250 0.000000 -0.047198
  endloop
endfacet
facet normal 0.000000 -0.000161 0.000000
  outer loop
    vertex -0.027250 0.000000 -0.047198
    vertex -0.012413 0.000000 -0.023413
    vertex -0.017156 0.000000 -0.020197
  endloop
endfacet
facet normal 0.000000 -0.000228 0.000000
  outer loop
    vertex -0.027250 0.000000 -0.047198
    vertex -0.017156 0.000000 -0.020197
    vertex -0.033980 0.000000 -0.042610
  endloop
endfacet
facet normal 0.000000 -0.000227 0.000000
  outer loop
    vertex -0.033980 0.000000 -0.042610
    vertex -0.017156 0.000000 -0.020197
    vertex -0.039951 0.000000 -0.037069
  endloop
endfacet
facet normal 0.000000 -0.000161 0.000000
  outer loop
    vertex -0.039951 0.000000 -0.037069
    vertex -0.017156 0.000000 -0.020197
    vertex -0.021096 0.000000 -0.016037
  endloop
endfacet
facet normal 0.000000 -0.000227 0.000000
  outer loop
    vertex -0.039951 0.000000 -0.037069
    vertex -0.021096 0.000000 -0.016037
    vertex -0.045030 0.000000 -0.030701
  endloop
endfacet
facet normal 0.000000 -0.000161 0.000000
  outer loop
    vertex -0.045030 0.000000 -0.030701
    vertex -0.021096 0.000000 -0.016037
    vertex -0.024051 0.000000 -0.011127
  endloop
endfacet
facet normal 0.000000 -0.000228 0.000000
  outer loop
    vertex -0.045030 0.000000 -0.030701
    vertex -0.024051 0.000000 -0.011127
    vertex -0.049103 0.000000 -0.023647
  endloop
endfacet
facet normal 0.000000 -0.000227 0.000000
  outer loop
    vertex -0.049103 0.000000 -0.023647
    vertex -0.024051 0.000000 -0.011127
    vertex -0.052079 0.000000 -0.016064
  endloop
endfacet
facet normal 0.000000 -0.000161 0.000000
  outer loop
    vertex -0.052079 0.000000 -0.016064
    vertex -0.024051 0.000000 -0.011127
    vertex -0.025880 0.000000 -0.005697
  endloop
endfacet
facet normal 0.000000 -0.000227 0.000000
  outer loop
    vertex -0.052079 0.000000 -0.016064
    vertex -0.025880 0.000000 -0.005697
    vertex -0.053891 0.000000 -0.008123
  endloop
endfacet
facet normal 0.000000 -0.000161 0.000000
  outer loop
    vertex -0.053891 0.000000 -0.008123
    vertex -0.025880 0.000000 -0.005697
    vertex -0.026500 0.000000 0.000000
  endloop
endfacet
endsolid 5b7ee0c5-4c9b-4c0c-a079-5409c800c579-ascii.stl
