solid 633af3b0-a060-4a5b-8f41-4623ab0258a4-ascii.stl
facet normal 0.000307 0.000000 -0.000020
  outer loop
    vertex -0.072871 0.032000 0.009594
    vertex -0.072871 0.000000 0.009594
    vertex -0.073500 0.032000 0.000000
  endloop
endfacet
facet normal 0.000307 0.000000 -0.000020
  outer loop
    vertex -0.073500 0.032000 0.000000
    vertex -0.072871 0.000000 0.009594
    vertex -0.073500 0.000000 0.000000
  endloop
endfacet
facet normal 0.000307 0.000000 0.000020
  outer loop
    vertex -0.073500 0.032000 0.000000
    vertex -0.073500 0.000000 0.000000
    vertex -0.072871 0.032000 -0.009594
  endloop
endfacet
facet normal 0.000307 0.000000 0.000020
  outer loop
    vertex -0.072871 0.032000 -0.009594
    vertex -0.073500 0.000000 0.000000
    vertex -0.072871 0.000000 -0.009594
  endloop
endfacet
facet normal 0.000302 0.000000 0.000060
  outer loop
    vertex -0.072871 0.032000 -0.009594
    vertex -0.072871 0.000000 -0.009594
    vertex -0.070996 0.032000 -0.019023
  endloop
endfacet
facet normal 0.000302 0.000000 0.000060
  outer loop
    vertex -0.070996 0.032000 -0.019023
    vertex -0.072871 0.000000 -0.009594
    vertex -0.070996 0.000000 -0.019023
  endloop
endfacet
facet normal 0.000291 0.000000 0.000099
  outer loop
    vertex -0.070996 0.032000 -0.019023
    vertex -0.070996 0.000000 -0.019023
    vertex -0.067905 0.032000 -0.028127
  endloop
endfacet
facet normal 0.000291 0.000000 0.000099
  outer loop
    vertex -0.067905 0.032000 -0.028127
    vertex -0.070996 0.000000 -0.019023
    vertex -0.067905 0.000000 -0.028127
  endloop
endfacet
facet normal 0.000276 0.000000 0.000136
  outer loop
    vertex -0.067905 0.032000 -0.028127
    vertex -0.067905 0.000000 -0.028127
    vertex -0.063653 0.032000 -0.036750
  endloop
endfacet
facet normal 0.000276 0.000000 0.000136
  outer loop
    vertex -0.063653 0.032000 -0.036750
    vertex -0.067905 0.000000 -0.028127
    vertex -0.063653 0.000000 -0.036750
  endloop
endfacet
facet normal 0.000256 0.000000 0.000171
  outer loop
    vertex -0.063653 0.032000 -0.036750
    vertex -0.063653 0.000000 -0.036750
    vertex -0.058311 0.032000 -0.044744
  endloop
endfacet
facet normal 0.000256 0.000000 0.000171
  outer loop
    vertex -0.058311 0.032000 -0.044744
    vertex -0.063653 0.000000 -0.036750
    vertex -0.058311 0.000000 -0.044744
  endloop
endfacet
facet normal 0.000231 0.000000 0.000203
  outer loop
    vertex -0.058311 0.032000 -0.044744
    vertex -0.058311 0.000000 -0.044744
    vertex -0.051972 0.032000 -0.051972
  endloop
endfacet
facet normal 0.000231 0.000000 0.000203
  outer loop
    vertex -0.051972 0.032000 -0.051972
    vertex -0.058311 0.000000 -0.044744
    vertex -0.051972 0.000000 -0.051972
  endloop
endfacet
facet normal 0.000203 0.000000 0.000231
  outer loop
    vertex -0.051972 0.032000 -0.051972
    vertex -0.051972 0.000000 -0.051972
    vertex -0.044744 0.032000 -0.058311
  endloop
endfacet
facet normal 0.000203 0.000000 0.000231
  outer loop
    vertex -0.044744 0.032000 -0.058311
    vertex -0.051972 0.000000 -0.051972
    vertex -0.044744 0.000000 -0.058311
  endloop
endfacet
facet normal 0.000171 0.000000 0.000256
  outer loop
    vertex -0.044744 0.032000 -0.058311
    vertex -0.044744 0.000000 -0.058311
    vertex -0.036750 0.032000 -0.063653
  endloop
endfacet
facet normal 0.000171 0.000000 0.000256
  outer loop
    vertex -0.036750 0.032000 -0.063653
    vertex -0.044744 0.000000 -0.058311
    vertex -0.036750 0.000000 -0.063653
  endloop
endfacet
facet normal 0.000136 0.000000 0.000276
  outer loop
    vertex -0.036750 0.032000 -0.063653
    vertex -0.036750 0.000000 -0.063653
    vertex -0.028127 0.032000 -0.067905
  endloop
endfacet
facet normal 0.000136 0.000000 0.000276
  outer loop
    vertex -0.028127 0.032000 -0.067905
    vertex -0.036750 0.000000 -0.063653
    vertex -0.028127 0.000000 -0.067905
  endloop
endfacet
facet normal 0.000099 0.000000 0.000291
  outer loop
    vertex -0.028127 0.032000 -0.067905
    vertex -0.028127 0.000000 -0.067905
    vertex -0.019023 0.032000 -0.070996
  endloop
endfacet
facet normal 0.000099 0.000000 0.000291
  outer loop
    vertex -0.019023 0.032000 -0.070996
    vertex -0.028127 0.000000 -0.067905
    vertex -0.019023 0.000000 -0.070996
  endloop
endfacet
facet normal 0.000060 0.000000 0.000302
  outer loop
    vertex -0.019023 0.032000 -0.070996
    vertex -0.019023 0.000000 -0.070996
    vertex -0.009594 0.032000 -0.072871
  endloop
endfacet
facet normal 0.000060 0.000000 0.000302
  outer loop
    vertex -0.009594 0.032000 -0.072871
    vertex -0.019023 0.000000 -0.070996
    vertex -0.009594 0.000000 -0.072871
  endloop
endfacet
facet normal 0.000020 0.000000 0.000307
  outer loop
    vertex -0.009594 0.032000 -0.072871
    vertex -0.009594 0.000000 -0.072871
    vertex 0.000000 0.032000 -0.073500
  endloop
endfacet
facet normal 0.000020 0.000000 0.000307
  outer loop
    vertex 0.000000 0.032000 -0.073500
    vertex -0.009594 0.000000 -0.072871
    vertex 0.000000 0.000000 -0.073500
  endloop
endfacet
facet normal -0.000020 0.000000 0.000307
  outer loop
    vertex 0.000000 0.032000 -0.073500
    vertex 0.000000 0.000000 -0.073500
    vertex 0.009594 0.032000 -0.072871
  endloop
endfacet
facet normal -0.000020 0.000000 0.000307
  outer loop
    vertex 0.009594 0.032000 -0.072871
    vertex 0.000000 0.000000 -0.073500
    vertex 0.009594 0.000000 -0.072871
  endloop
endfacet
facet normal -0.000060 0.000000 0.000302
  outer loop
    vertex 0.009594 0.032000 -0.072871
    vertex 0.009594 0.000000 -0.072871
    vertex 0.019023 0.032000 -0.070996
  endloop
endfacet
facet normal -0.000060 0.000000 0.000302
  outer loop
    vertex 0.019023 0.032000 -0.070996
    vertex 0.009594 0.000000 -0.072871
    vertex 0.019023 0.000000 -0.070996
  endloop
endfacet
facet normal -0.000099 0.000000 0.000291
  outer loop
    vertex 0.019023 0.032000 -0.070996
    vertex 0.019023 0.000000 -0.070996
    vertex 0.028127 0.032000 -0.067905
  endloop
endfacet
facet normal -0.000099 0.000000 0.000291
  outer loop
    vertex 0.028127 0.032000 -0.067905
    vertex 0.019023 0.000000 -0.070996
    vertex 0.028127 0.000000 -0.067905
  endloop
endfacet
facet normal -0.000136 0.000000 0.000276
  outer loop
    vertex 0.028127 0.032000 -0.067905
    vertex 0.028127 0.000000 -0.067905
    vertex 0.036750 0.032000 -0.063653
  endloop
endfacet
facet normal -0.000136 0.000000 0.000276
  outer loop
    vertex 0.036750 0.032000 -0.063653
    vertex 0.028127 0.000000 -0.067905
    vertex 0.036750 0.000000 -0.063653
  endloop
endfacet
facet normal -0.000171 0.000000 0.000256
  outer loop
    vertex 0.036750 0.032000 -0.063653
    vertex 0.036750 0.000000 -0.063653
    vertex 0.044744 0.032000 -0.058311
  endloop
endfacet
facet normal -0.000171 0.000000 0.000256
  outer loop
    vertex 0.044744 0.032000 -0.058311
    vertex 0.036750 0.000000 -0.063653
    vertex 0.044744 0.000000 -0.058311
  endloop
endfacet
facet normal -0.000203 0.000000 0.000231
  outer loop
    vertex 0.044744 0.032000 -0.058311
    vertex 0.044744 0.000000 -0.058311
    vertex 0.051972 0.032000 -0.051972
  endloop
endfacet
facet normal -0.000203 0.000000 0.000231
  outer loop
    vertex 0.051972 0.032000 -0.051972
    vertex 0.044744 0.000000 -0.058311
    vertex 0.051972 0.000000 -0.051972
  endloop
endfacet
facet normal -0.000231 0.000000 0.000203
  outer loop
    vertex 0.051972 0.032000 -0.051972
    vertex 0.051972 0.000000 -0.051972
    vertex 0.058311 0.032000 -0.044744
  endloop
endfacet
facet normal -0.000231 0.000000 0.000203
  outer loop
    vertex 0.058311 0.032000 -0.044744
    vertex 0.051972 0.000000 -0.051972
    vertex 0.058311 0.000000 -0.044744
  endloop
endfacet
facet normal -0.000256 0.000000 0.000171
  outer loop
    vertex 0.058311 0.032000 -0.044744
    vertex 0.058311 0.000000 -0.044744
    vertex 0.063653 0.032000 -0.036750
  endloop
endfacet
facet normal -0.000256 0.000000 0.000171
  outer loop
    vertex 0.063653 0.032000 -0.036750
    vertex 0.058311 0.000000 -0.044744
    vertex 0.063653 0.000000 -0.036750
  endloop
endfacet
facet normal -0.000276 0.000000 0.000136
  outer loop
    vertex 0.063653 0.032000 -0.036750
    vertex 0.063653 0.000000 -0.036750
    vertex 0.067905 0.032000 -0.028127
  endloop
endfacet
facet normal -0.000276 0.000000 0.000136
  outer loop
    vertex 0.067905 0.032000 -0.028127
    vertex 0.063653 0.000000 -0.036750
    vertex 0.067905 0.000000 -0.028127
  endloop
endfacet
facet normal -0.000291 0.000000 0.000099
  outer loop
    vertex 0.067905 0.032000 -0.028127
    vertex 0.067905 0.000000 -0.028127
    vertex 0.070996 0.032000 -0.019023
  endloop
endfacet
facet normal -0.000291 0.000000 0.000099
  outer loop
    vertex 0.070996 0.032000 -0.019023
    vertex 0.067905 0.000000 -0.028127
    vertex 0.070996 0.000000 -0.019023
  endloop
endfacet
facet normal -0.000302 0.000000 0.000060
  outer loop
    vertex 0.070996 0.032000 -0.019023
    vertex 0.070996 0.000000 -0.019023
    vertex 0.072871 0.032000 -0.009594
  endloop
endfacet
facet normal -0.000302 0.000000 0.000060
  outer loop
    vertex 0.072871 0.032000 -0.009594
    vertex 0.070996 0.000000 -0.019023
    vertex 0.072871 0.000000 -0.009594
  endloop
endfacet
facet normal -0.000307 0.000000 0.000020
  outer loop
    vertex 0.072871 0.032000 -0.009594
    vertex 0.072871 0.000000 -0.009594
    vertex 0.073500 0.032000 0.000000
  endloop
endfacet
facet normal -0.000307 0.000000 0.000020
  outer loop
    vertex 0.073500 0.032000 0.000000
    vertex 0.072871 0.000000 -0.009594
    vertex 0.073500 0.000000 0.000000
  endloop
endfacet
facet normal -0.000307 -0.000000 -0.000020
  outer loop
    vertex 0.073500 0.032000 0.000000
    vertex 0.073500 0.000000 0.000000
    vertex 0.072871 0.032000 0.009594
  endloop
endfacet
facet normal -0.000307 -0.000000 -0.000020
  outer loop
    vertex 0.072871 0.032000 0.009594
    vertex 0.073500 0.000000 0.000000
    vertex 0.072871 0.000000 0.009594
  endloop
endfacet
facet normal -0.000302 -0.000000 -0.000060
  outer loop
    vertex 0.072871 0.032000 0.009594
    vertex 0.072871 0.000000 0.009594
    vertex 0.070996 0.032000 0.019023
  endloop
endfacet
facet normal -0.000302 -0.000000 -0.000060
  outer loop
    vertex 0.070996 0.032000 0.019023
    vertex 0.072871 0.000000 0.009594
    vertex 0.070996 0.000000 0.019023
  endloop
endfacet
facet normal -0.000291 -0.000000 -0.000099
  outer loop
    vertex 0.070996 0.032000 0.019023
    vertex 0.070996 0.000000 0.019023
    vertex 0.067905 0.032000 0.028127
  endloop
endfacet
facet normal -0.000291 -0.000000 -0.000099
  outer loop
    vertex 0.067905 0.032000 0.028127
    vertex 0.070996 0.000000 0.019023
    vertex 0.067905 0.000000 0.028127
  endloop
endfacet
facet normal -0.000276 -0.000000 -0.000136
  outer loop
    vertex 0.067905 0.032000 0.028127
    vertex 0.067905 0.000000 0.028127
    vertex 0.063653 0.032000 0.036750
  endloop
endfacet
facet normal -0.000276 -0.000000 -0.000136
  outer loop
    vertex 0.063653 0.032000 0.036750
    vertex 0.067905 0.000000 0.028127
    vertex 0.063653 0.000000 0.036750
  endloop
endfacet
facet normal -0.000256 -0.000000 -0.000171
  outer loop
    vertex 0.063653 0.032000 0.036750
    vertex 0.063653 0.000000 0.036750
    vertex 0.058311 0.032000 0.044744
  endloop
endfacet
facet normal -0.000256 -0.000000 -0.000171
  outer loop
    vertex 0.058311 0.032000 0.044744
    vertex 0.063653 0.000000 0.036750
    vertex 0.058311 0.000000 0.044744
  endloop
endfacet
facet normal -0.000231 -0.000000 -0.000203
  outer loop
    vertex 0.058311 0.032000 0.044744
    vertex 0.058311 0.000000 0.044744
    vertex 0.051972 0.032000 0.051972
  endloop
endfacet
facet normal -0.000231 -0.000000 -0.000203
  outer loop
    vertex 0.051972 0.032000 0.051972
    vertex 0.058311 0.000000 0.044744
    vertex 0.051972 0.000000 0.051972
  endloop
endfacet
facet normal -0.000203 -0.000000 -0.000231
  outer loop
    vertex 0.051972 0.032000 0.051972
    vertex 0.051972 0.000000 0.051972
    vertex 0.044744 0.032000 0.058311
  endloop
endfacet
facet normal -0.000203 -0.000000 -0.000231
  outer loop
    vertex 0.044744 0.032000 0.058311
    vertex 0.051972 0.000000 0.051972
    vertex 0.044744 0.000000 0.058311
  endloop
endfacet
facet normal -0.000171 -0.000000 -0.000256
  outer loop
    vertex 0.044744 0.032000 0.058311
    vertex 0.044744 0.000000 0.058311
    vertex 0.036750 0.032000 0.063653
  endloop
endfacet
facet normal -0.000171 -0.000000 -0.000256
  outer loop
    vertex 0.036750 0.032000 0.063653
    vertex 0.044744 0.000000 0.058311
    vertex 0.036750 0.000000 0.063653
  endloop
endfacet
facet normal -0.000136 -0.000000 -0.000276
  outer loop
    vertex 0.036750 0.032000 0.063653
    vertex 0.036750 0.000000 0.063653
    vertex 0.028127 0.032000 0.067905
  endloop
endfacet
facet normal -0.000136 -0.000000 -0.000276
  outer loop
    vertex 0.028127 0.032000 0.067905
    vertex 0.036750 0.000000 0.063653
    vertex 0.028127 0.000000 0.067905
  endloop
endfacet
facet normal -0.000099 -0.000000 -0.000291
  outer loop
    vertex 0.028127 0.032000 0.067905
    vertex 0.028127 0.000000 0.067905
    vertex 0.019023 0.032000 0.070996
  endloop
endfacet
facet normal -0.000099 -0.000000 -0.000291
  outer loop
    vertex 0.019023 0.032000 0.070996
    vertex 0.028127 0.000000 0.067905
    vertex 0.019023 0.000000 0.070996
  endloop
endfacet
facet normal -0.000060 -0.000000 -0.000302
  outer loop
    vertex 0.019023 0.032000 0.070996
    vertex 0.019023 0.000000 0.070996
    vertex 0.009594 0.032000 0.072871
  endloop
endfacet
facet normal -0.000060 -0.000000 -0.000302
  outer loop
    vertex 0.009594 0.032000 0.072871
    vertex 0.019023 0.000000 0.070996
    vertex 0.009594 0.000000 0.072871
  endloop
endfacet
facet normal -0.000020 -0.000000 -0.000307
  outer loop
    vertex 0.009594 0.032000 0.072871
    vertex 0.009594 0.000000 0.072871
    vertex 0.000000 0.032000 0.073500
  endloop
endfacet
facet normal -0.000020 -0.000000 -0.000307
  outer loop
    vertex 0.000000 0.032000 0.073500
    vertex 0.009594 0.000000 0.072871
    vertex 0.000000 0.000000 0.073500
  endloop
endfacet
facet normal 0.000020 0.000000 -0.000307
  outer loop
    vertex 0.000000 0.032000 0.073500
    vertex 0.000000 0.000000 0.073500
    vertex -0.009594 0.032000 0.072871
  endloop
endfacet
facet normal 0.000020 0.000000 -0.000307
  outer loop
    vertex -0.009594 0.032000 0.072871
    vertex 0.000000 0.000000 0.073500
    vertex -0.009594 0.000000 0.072871
  endloop
endfacet
facet normal 0.000060 0.000000 -0.000302
  outer loop
    vertex -0.009594 0.032000 0.072871
    vertex -0.009594 0.000000 0.072871
    vertex -0.019023 0.032000 0.070996
  endloop
endfacet
facet normal 0.000060 0.000000 -0.000302
  outer loop
    vertex -0.019023 0.032000 0.070996
    vertex -0.009594 0.000000 0.072871
    vertex -0.019023 0.000000 0.070996
  endloop
endfacet
facet normal 0.000099 0.000000 -0.000291
  outer loop
    vertex -0.019023 0.032000 0.070996
    vertex -0.019023 0.000000 0.070996
    vertex -0.028127 0.032000 0.067905
  endloop
endfacet
facet normal 0.000099 0.000000 -0.000291
  outer loop
    vertex -0.028127 0.032000 0.067905
    vertex -0.019023 0.000000 0.070996
    vertex -0.028127 0.000000 0.067905
  endloop
endfacet
facet normal 0.000136 0.000000 -0.000276
  outer loop
    vertex -0.028127 0.032000 0.067905
    vertex -0.028127 0.000000 0.067905
    vertex -0.036750 0.032000 0.063653
  endloop
endfacet
facet normal 0.000136 0.000000 -0.000276
  outer loop
    vertex -0.036750 0.032000 0.063653
    vertex -0.028127 0.000000 0.067905
    vertex -0.036750 0.000000 0.063653
  endloop
endfacet
facet normal 0.000171 0.000000 -0.000256
  outer loop
    vertex -0.036750 0.032000 0.063653
    vertex -0.036750 0.000000 0.063653
    vertex -0.044744 0.032000 0.058311
  endloop
endfacet
facet normal 0.000171 0.000000 -0.000256
  outer loop
    vertex -0.044744 0.032000 0.058311
    vertex -0.036750 0.000000 0.063653
    vertex -0.044744 0.000000 0.058311
  endloop
endfacet
facet normal 0.000203 0.000000 -0.000231
  outer loop
    vertex -0.044744 0.032000 0.058311
    vertex -0.044744 0.000000 0.058311
    vertex -0.051972 0.032000 0.051972
  endloop
endfacet
facet normal 0.000203 0.000000 -0.000231
  outer loop
    vertex -0.051972 0.032000 0.051972
    vertex -0.044744 0.000000 0.058311
    vertex -0.051972 0.000000 0.051972
  endloop
endfacet
facet normal 0.000231 0.000000 -0.000203
  outer loop
    vertex -0.051972 0.032000 0.051972
    vertex -0.051972 0.000000 0.051972
    vertex -0.058311 0.032000 0.044744
  endloop
endfacet
facet normal 0.000231 0.000000 -0.000203
  outer loop
    vertex -0.058311 0.032000 0.044744
    vertex -0.051972 0.000000 0.051972
    vertex -0.058311 0.000000 0.044744
  endloop
endfacet
facet normal 0.000256 0.000000 -0.000171
  outer loop
    vertex -0.058311 0.032000 0.044744
    vertex -0.058311 0.000000 0.044744
    vertex -0.063653 0.032000 0.036750
  endloop
endfacet
facet normal 0.000256 0.000000 -0.000171
  outer loop
    vertex -0.063653 0.032000 0.036750
    vertex -0.058311 0.000000 0.044744
    vertex -0.063653 0.000000 0.036750
  endloop
endfacet
facet normal 0.000276 0.000000 -0.000136
  outer loop
    vertex -0.063653 0.032000 0.036750
    vertex -0.063653 0.000000 0.036750
    vertex -0.067905 0.032000 0.028127
  endloop
endfacet
facet normal 0.000276 0.000000 -0.000136
  outer loop
    vertex -0.067905 0.032000 0.028127
    vertex -0.063653 0.000000 0.036750
    vertex -0.067905 0.000000 0.028127
  endloop
endfacet
facet normal 0.000291 0.000000 -0.000099
  outer loop
    vertex -0.067905 0.032000 0.028127
    vertex -0.067905 0.000000 0.028127
    vertex -0.070996 0.032000 0.019023
  endloop
endfacet
facet normal 0.000291 0.000000 -0.000099
  outer loop
    vertex -0.070996 0.032000 0.019023
    vertex -0.067905 0.000000 0.028127
    vertex -0.070996 0.000000 0.019023
  endloop
endfacet
facet normal 0.000302 0.000000 -0.000060
  outer loop
    vertex -0.070996 0.032000 0.019023
    vertex -0.070996 0.000000 0.019023
    vertex -0.072871 0.032000 0.009594
  endloop
endfacet
facet normal 0.000302 0.000000 -0.000060
  outer loop
    vertex -0.072871 0.032000 0.009594
    vertex -0.070996 0.000000 0.019023
    vertex -0.072871 0.000000 0.009594
  endloop
endfacet
facet normal -0.000489 -0.000000 -0.000020
  outer loop
    vertex -0.186876 0.032000 -0.015283
    vertex -0.186876 0.000000 -0.015283
    vertex -0.187500 0.032000 0.000000
  endloop
endfacet
facet normal -0.000489 -0.000000 -0.000020
  outer loop
    vertex -0.187500 0.032000 0.000000
    vertex -0.186876 0.000000 -0.015283
    vertex -0.187500 0.000000 0.000000
  endloop
endfacet
facet normal -0.000489 0.000000 0.000020
  outer loop
    vertex -0.187500 0.032000 0.000000
    vertex -0.187500 0.000000 0.000000
    vertex -0.186876 0.032000 0.015283
  endloop
endfacet
facet normal -0.000489 0.000000 0.000020
  outer loop
    vertex -0.186876 0.032000 0.015283
    vertex -0.187500 0.000000 0.000000
    vertex -0.186876 0.000000 0.015283
  endloop
endfacet
facet normal -0.000486 0.000000 0.000060
  outer loop
    vertex -0.186876 0.032000 0.015283
    vertex -0.186876 0.000000 0.015283
    vertex -0.185009 0.032000 0.030464
  endloop
endfacet
facet normal -0.000486 0.000000 0.000060
  outer loop
    vertex -0.185009 0.032000 0.030464
    vertex -0.186876 0.000000 0.015283
    vertex -0.185009 0.000000 0.030464
  endloop
endfacet
facet normal -0.000479 0.000000 0.000099
  outer loop
    vertex -0.185009 0.032000 0.030464
    vertex -0.185009 0.000000 0.030464
    vertex -0.181910 0.032000 0.045443
  endloop
endfacet
facet normal -0.000479 0.000000 0.000099
  outer loop
    vertex -0.181910 0.032000 0.045443
    vertex -0.185009 0.000000 0.030464
    vertex -0.181910 0.000000 0.045443
  endloop
endfacet
facet normal -0.000470 0.000000 0.000138
  outer loop
    vertex -0.181910 0.032000 0.045443
    vertex -0.181910 0.000000 0.045443
    vertex -0.177601 0.032000 0.060119
  endloop
endfacet
facet normal -0.000470 0.000000 0.000138
  outer loop
    vertex -0.177601 0.032000 0.060119
    vertex -0.181910 0.000000 0.045443
    vertex -0.177601 0.000000 0.060119
  endloop
endfacet
facet normal -0.000457 0.000000 0.000176
  outer loop
    vertex -0.177601 0.032000 0.060119
    vertex -0.177601 0.000000 0.060119
    vertex -0.172109 0.032000 0.074395
  endloop
endfacet
facet normal -0.000457 0.000000 0.000176
  outer loop
    vertex -0.172109 0.032000 0.074395
    vertex -0.177601 0.000000 0.060119
    vertex -0.172109 0.000000 0.074395
  endloop
endfacet
facet normal -0.000441 0.000000 0.000212
  outer loop
    vertex -0.172109 0.032000 0.074395
    vertex -0.172109 0.000000 0.074395
    vertex -0.165473 0.032000 0.088176
  endloop
endfacet
facet normal -0.000441 0.000000 0.000212
  outer loop
    vertex -0.165473 0.032000 0.088176
    vertex -0.172109 0.000000 0.074395
    vertex -0.165473 0.000000 0.088176
  endloop
endfacet
facet normal -0.000422 0.000000 0.000248
  outer loop
    vertex -0.165473 0.032000 0.088176
    vertex -0.165473 0.000000 0.088176
    vertex -0.157735 0.032000 0.101370
  endloop
endfacet
facet normal -0.000422 0.000000 0.000248
  outer loop
    vertex -0.157735 0.032000 0.101370
    vertex -0.165473 0.000000 0.088176
    vertex -0.157735 0.000000 0.101370
  endloop
endfacet
facet normal -0.000401 0.000000 0.000281
  outer loop
    vertex -0.157735 0.032000 0.101370
    vertex -0.157735 0.000000 0.101370
    vertex -0.148948 0.032000 0.113890
  endloop
endfacet
facet normal -0.000401 0.000000 0.000281
  outer loop
    vertex -0.148948 0.032000 0.113890
    vertex -0.157735 0.000000 0.101370
    vertex -0.148948 0.000000 0.113890
  endloop
endfacet
facet normal -0.000376 0.000000 0.000313
  outer loop
    vertex -0.148948 0.032000 0.113890
    vertex -0.148948 0.000000 0.113890
    vertex -0.139169 0.032000 0.125651
  endloop
endfacet
facet normal -0.000376 0.000000 0.000313
  outer loop
    vertex -0.139169 0.032000 0.125651
    vertex -0.148948 0.000000 0.113890
    vertex -0.139169 0.000000 0.125651
  endloop
endfacet
facet normal -0.000350 0.000000 0.000343
  outer loop
    vertex -0.139169 0.032000 0.125651
    vertex -0.139169 0.000000 0.125651
    vertex -0.128464 0.032000 0.136577
  endloop
endfacet
facet normal -0.000350 0.000000 0.000343
  outer loop
    vertex -0.128464 0.032000 0.136577
    vertex -0.139169 0.000000 0.125651
    vertex -0.128464 0.000000 0.136577
  endloop
endfacet
facet normal -0.000321 0.000000 0.000370
  outer loop
    vertex -0.128464 0.032000 0.136577
    vertex -0.128464 0.000000 0.136577
    vertex -0.116904 0.032000 0.146593
  endloop
endfacet
facet normal -0.000321 0.000000 0.000370
  outer loop
    vertex -0.116904 0.032000 0.146593
    vertex -0.128464 0.000000 0.136577
    vertex -0.116904 0.000000 0.146593
  endloop
endfacet
facet normal -0.000289 0.000000 0.000395
  outer loop
    vertex -0.116904 0.032000 0.146593
    vertex -0.116904 0.000000 0.146593
    vertex -0.104567 0.032000 0.155634
  endloop
endfacet
facet normal -0.000289 0.000000 0.000395
  outer loop
    vertex -0.104567 0.032000 0.155634
    vertex -0.116904 0.000000 0.146593
    vertex -0.104567 0.000000 0.155634
  endloop
endfacet
facet normal -0.000256 0.000000 0.000417
  outer loop
    vertex -0.104567 0.032000 0.155634
    vertex -0.104567 0.000000 0.155634
    vertex -0.091533 0.032000 0.163640
  endloop
endfacet
facet normal -0.000256 0.000000 0.000417
  outer loop
    vertex -0.091533 0.032000 0.163640
    vertex -0.104567 0.000000 0.155634
    vertex -0.091533 0.000000 0.163640
  endloop
endfacet
facet normal -0.000221 0.000000 0.000437
  outer loop
    vertex -0.091533 0.032000 0.163640
    vertex -0.091533 0.000000 0.163640
    vertex -0.077890 0.032000 0.170556
  endloop
endfacet
facet normal -0.000221 0.000000 0.000437
  outer loop
    vertex -0.077890 0.032000 0.170556
    vertex -0.091533 0.000000 0.163640
    vertex -0.077890 0.000000 0.170556
  endloop
endfacet
facet normal -0.000185 0.000000 0.000453
  outer loop
    vertex -0.077890 0.032000 0.170556
    vertex -0.077890 0.000000 0.170556
    vertex -0.063729 0.032000 0.176337
  endloop
endfacet
facet normal -0.000185 0.000000 0.000453
  outer loop
    vertex -0.063729 0.032000 0.176337
    vertex -0.077890 0.000000 0.170556
    vertex -0.063729 0.000000 0.176337
  endloop
endfacet
facet normal -0.000147 0.000000 0.000467
  outer loop
    vertex -0.063729 0.032000 0.176337
    vertex -0.063729 0.000000 0.176337
    vertex -0.049144 0.032000 0.180945
  endloop
endfacet
facet normal -0.000147 0.000000 0.000467
  outer loop
    vertex -0.049144 0.032000 0.180945
    vertex -0.063729 0.000000 0.176337
    vertex -0.049144 0.000000 0.180945
  endloop
endfacet
facet normal -0.000109 0.000000 0.000477
  outer loop
    vertex -0.049144 0.032000 0.180945
    vertex -0.049144 0.000000 0.180945
    vertex -0.034232 0.032000 0.184349
  endloop
endfacet
facet normal -0.000109 0.000000 0.000477
  outer loop
    vertex -0.034232 0.032000 0.184349
    vertex -0.049144 0.000000 0.180945
    vertex -0.034232 0.000000 0.184349
  endloop
endfacet
facet normal -0.000070 0.000000 0.000484
  outer loop
    vertex -0.034232 0.032000 0.184349
    vertex -0.034232 0.000000 0.184349
    vertex -0.019092 0.032000 0.186525
  endloop
endfacet
facet normal -0.000070 0.000000 0.000484
  outer loop
    vertex -0.019092 0.032000 0.186525
    vertex -0.034232 0.000000 0.184349
    vertex -0.019092 0.000000 0.186525
  endloop
endfacet
facet normal -0.000030 0.000000 0.000489
  outer loop
    vertex -0.019092 0.032000 0.186525
    vertex -0.019092 0.000000 0.186525
    vertex -0.003825 0.032000 0.187461
  endloop
endfacet
facet normal -0.000030 0.000000 0.000489
  outer loop
    vertex -0.003825 0.032000 0.187461
    vertex -0.019092 0.000000 0.186525
    vertex -0.003825 0.000000 0.187461
  endloop
endfacet
facet normal 0.000010 0.000000 0.000489
  outer loop
    vertex -0.003825 0.032000 0.187461
    vertex -0.003825 0.000000 0.187461
    vertex 0.011468 0.032000 0.187149
  endloop
endfacet
facet normal 0.000010 0.000000 0.000489
  outer loop
    vertex 0.011468 0.032000 0.187149
    vertex -0.003825 0.000000 0.187461
    vertex 0.011468 0.000000 0.187149
  endloop
endfacet
facet normal 0.000050 0.000000 0.000487
  outer loop
    vertex 0.011468 0.032000 0.187149
    vertex 0.011468 0.000000 0.187149
    vertex 0.026684 0.032000 0.185592
  endloop
endfacet
facet normal 0.000050 0.000000 0.000487
  outer loop
    vertex 0.026684 0.032000 0.185592
    vertex 0.011468 0.000000 0.187149
    vertex 0.026684 0.000000 0.185592
  endloop
endfacet
facet normal 0.000089 0.000000 0.000481
  outer loop
    vertex 0.026684 0.032000 0.185592
    vertex 0.026684 0.000000 0.185592
    vertex 0.041723 0.032000 0.182799
  endloop
endfacet
facet normal 0.000089 0.000000 0.000481
  outer loop
    vertex 0.041723 0.032000 0.182799
    vertex 0.026684 0.000000 0.185592
    vertex 0.041723 0.000000 0.182799
  endloop
endfacet
facet normal 0.000128 0.000000 0.000472
  outer loop
    vertex 0.041723 0.032000 0.182799
    vertex 0.041723 0.000000 0.182799
    vertex 0.056484 0.032000 0.178790
  endloop
endfacet
facet normal 0.000128 0.000000 0.000472
  outer loop
    vertex 0.056484 0.032000 0.178790
    vertex 0.041723 0.000000 0.182799
    vertex 0.056484 0.000000 0.178790
  endloop
endfacet
facet normal 0.000166 0.000000 0.000460
  outer loop
    vertex 0.056484 0.032000 0.178790
    vertex 0.056484 0.000000 0.178790
    vertex 0.070869 0.032000 0.173591
  endloop
endfacet
facet normal 0.000166 0.000000 0.000460
  outer loop
    vertex 0.070869 0.032000 0.173591
    vertex 0.056484 0.000000 0.178790
    vertex 0.070869 0.000000 0.173591
  endloop
endfacet
facet normal 0.000203 0.000000 0.000445
  outer loop
    vertex 0.070869 0.032000 0.173591
    vertex 0.070869 0.000000 0.173591
    vertex 0.084782 0.032000 0.167237
  endloop
endfacet
facet normal 0.000203 0.000000 0.000445
  outer loop
    vertex 0.084782 0.032000 0.167237
    vertex 0.070869 0.000000 0.173591
    vertex 0.084782 0.000000 0.167237
  endloop
endfacet
facet normal 0.000239 0.000000 0.000427
  outer loop
    vertex 0.084782 0.032000 0.167237
    vertex 0.084782 0.000000 0.167237
    vertex 0.098132 0.032000 0.159770
  endloop
endfacet
facet normal 0.000239 0.000000 0.000427
  outer loop
    vertex 0.098132 0.032000 0.159770
    vertex 0.084782 0.000000 0.167237
    vertex 0.098132 0.000000 0.159770
  endloop
endfacet
facet normal 0.000273 0.000000 0.000406
  outer loop
    vertex 0.098132 0.032000 0.159770
    vertex 0.098132 0.000000 0.159770
    vertex 0.110828 0.032000 0.151240
  endloop
endfacet
facet normal 0.000273 0.000000 0.000406
  outer loop
    vertex 0.110828 0.032000 0.151240
    vertex 0.098132 0.000000 0.159770
    vertex 0.110828 0.000000 0.151240
  endloop
endfacet
facet normal 0.000305 0.000000 0.000383
  outer loop
    vertex 0.110828 0.032000 0.151240
    vertex 0.110828 0.000000 0.151240
    vertex 0.122786 0.032000 0.141703
  endloop
endfacet
facet normal 0.000305 0.000000 0.000383
  outer loop
    vertex 0.122786 0.032000 0.141703
    vertex 0.110828 0.000000 0.151240
    vertex 0.122786 0.000000 0.141703
  endloop
endfacet
facet normal 0.000335 0.000000 0.000357
  outer loop
    vertex 0.122786 0.032000 0.141703
    vertex 0.122786 0.000000 0.141703
    vertex 0.133928 0.032000 0.131223
  endloop
endfacet
facet normal 0.000335 0.000000 0.000357
  outer loop
    vertex 0.133928 0.032000 0.131223
    vertex 0.122786 0.000000 0.141703
    vertex 0.133928 0.000000 0.131223
  endloop
endfacet
facet normal 0.000363 0.000000 0.000328
  outer loop
    vertex 0.133928 0.032000 0.131223
    vertex 0.133928 0.000000 0.131223
    vertex 0.144178 0.032000 0.119870
  endloop
endfacet
facet normal 0.000363 0.000000 0.000328
  outer loop
    vertex 0.144178 0.032000 0.119870
    vertex 0.133928 0.000000 0.131223
    vertex 0.144178 0.000000 0.119870
  endloop
endfacet
facet normal 0.000389 0.000000 0.000297
  outer loop
    vertex 0.144178 0.032000 0.119870
    vertex 0.144178 0.000000 0.119870
    vertex 0.153469 0.032000 0.107720
  endloop
endfacet
facet normal 0.000389 0.000000 0.000297
  outer loop
    vertex 0.153469 0.032000 0.107720
    vertex 0.144178 0.000000 0.119870
    vertex 0.153469 0.000000 0.107720
  endloop
endfacet
facet normal 0.000412 0.000000 0.000265
  outer loop
    vertex 0.153469 0.032000 0.107720
    vertex 0.153469 0.000000 0.107720
    vertex 0.161739 0.032000 0.094852
  endloop
endfacet
facet normal 0.000412 0.000000 0.000265
  outer loop
    vertex 0.161739 0.032000 0.094852
    vertex 0.153469 0.000000 0.107720
    vertex 0.161739 0.000000 0.094852
  endloop
endfacet
facet normal 0.000432 0.000000 0.000230
  outer loop
    vertex 0.161739 0.032000 0.094852
    vertex 0.161739 0.000000 0.094852
    vertex 0.168932 0.032000 0.081353
  endloop
endfacet
facet normal 0.000432 0.000000 0.000230
  outer loop
    vertex 0.168932 0.032000 0.081353
    vertex 0.161739 0.000000 0.094852
    vertex 0.168932 0.000000 0.081353
  endloop
endfacet
facet normal 0.000449 0.000000 0.000194
  outer loop
    vertex 0.168932 0.032000 0.081353
    vertex 0.168932 0.000000 0.081353
    vertex 0.175001 0.032000 0.067313
  endloop
endfacet
facet normal 0.000449 0.000000 0.000194
  outer loop
    vertex 0.175001 0.032000 0.067313
    vertex 0.168932 0.000000 0.081353
    vertex 0.175001 0.000000 0.067313
  endloop
endfacet
facet normal 0.000464 0.000000 0.000157
  outer loop
    vertex 0.175001 0.032000 0.067313
    vertex 0.175001 0.000000 0.067313
    vertex 0.179905 0.032000 0.052825
  endloop
endfacet
facet normal 0.000464 0.000000 0.000157
  outer loop
    vertex 0.179905 0.032000 0.052825
    vertex 0.175001 0.000000 0.067313
    vertex 0.179905 0.000000 0.052825
  endloop
endfacet
facet normal 0.000475 0.000000 0.000119
  outer loop
    vertex 0.179905 0.032000 0.052825
    vertex 0.179905 0.000000 0.052825
    vertex 0.183612 0.032000 0.037985
  endloop
endfacet
facet normal 0.000475 0.000000 0.000119
  outer loop
    vertex 0.183612 0.032000 0.037985
    vertex 0.179905 0.000000 0.052825
    vertex 0.183612 0.000000 0.037985
  endloop
endfacet
facet normal 0.000483 0.000000 0.000080
  outer loop
    vertex 0.183612 0.032000 0.037985
    vertex 0.183612 0.000000 0.037985
    vertex 0.186097 0.032000 0.022893
  endloop
endfacet
facet normal 0.000483 0.000000 0.000080
  outer loop
    vertex 0.186097 0.032000 0.022893
    vertex 0.183612 0.000000 0.037985
    vertex 0.186097 0.000000 0.022893
  endloop
endfacet
facet normal 0.000488 0.000000 0.000040
  outer loop
    vertex 0.186097 0.032000 0.022893
    vertex 0.186097 0.000000 0.022893
    vertex 0.187344 0.032000 0.007648
  endloop
endfacet
facet normal 0.000488 0.000000 0.000040
  outer loop
    vertex 0.187344 0.032000 0.007648
    vertex 0.186097 0.000000 0.022893
    vertex 0.187344 0.000000 0.007648
  endloop
endfacet
facet normal 0.000489 0.000000 0.000000
  outer loop
    vertex 0.187344 0.032000 0.007648
    vertex 0.187344 0.000000 0.007648
    vertex 0.187344 0.032000 -0.007648
  endloop
endfacet
facet normal 0.000489 0.000000 0.000000
  outer loop
    vertex 0.187344 0.032000 -0.007648
    vertex 0.187344 0.000000 0.007648
    vertex 0.187344 0.000000 -0.007648
  endloop
endfacet
facet normal 0.000488 0.000000 -0.000040
  outer loop
    vertex 0.187344 0.032000 -0.007648
    vertex 0.187344 0.000000 -0.007648
    vertex 0.186097 0.032000 -0.022893
  endloop
endfacet
facet normal 0.000488 0.000000 -0.000040
  outer loop
    vertex 0.186097 0.032000 -0.022893
    vertex 0.187344 0.000000 -0.007648
    vertex 0.186097 0.000000 -0.022893
  endloop
endfacet
facet normal 0.000483 0.000000 -0.000080
  outer loop
    vertex 0.186097 0.032000 -0.022893
    vertex 0.186097 0.000000 -0.022893
    vertex 0.183612 0.032000 -0.037985
  endloop
endfacet
facet normal 0.000483 0.000000 -0.000080
  outer loop
    vertex 0.183612 0.032000 -0.037985
    vertex 0.186097 0.000000 -0.022893
    vertex 0.183612 0.000000 -0.037985
  endloop
endfacet
facet normal 0.000475 0.000000 -0.000119
  outer loop
    vertex 0.183612 0.032000 -0.037985
    vertex 0.183612 0.000000 -0.037985
    vertex 0.179905 0.032000 -0.052825
  endloop
endfacet
facet normal 0.000475 0.000000 -0.000119
  outer loop
    vertex 0.179905 0.032000 -0.052825
    vertex 0.183612 0.000000 -0.037985
    vertex 0.179905 0.000000 -0.052825
  endloop
endfacet
facet normal 0.000464 0.000000 -0.000157
  outer loop
    vertex 0.179905 0.032000 -0.052825
    vertex 0.179905 0.000000 -0.052825
    vertex 0.175001 0.032000 -0.067313
  endloop
endfacet
facet normal 0.000464 0.000000 -0.000157
  outer loop
    vertex 0.175001 0.032000 -0.067313
    vertex 0.179905 0.000000 -0.052825
    vertex 0.175001 0.000000 -0.067313
  endloop
endfacet
facet normal 0.000449 0.000000 -0.000194
  outer loop
    vertex 0.175001 0.032000 -0.067313
    vertex 0.175001 0.000000 -0.067313
    vertex 0.168932 0.032000 -0.081353
  endloop
endfacet
facet normal 0.000449 0.000000 -0.000194
  outer loop
    vertex 0.168932 0.032000 -0.081353
    vertex 0.175001 0.000000 -0.067313
    vertex 0.168932 0.000000 -0.081353
  endloop
endfacet
facet normal 0.000432 0.000000 -0.000230
  outer loop
    vertex 0.168932 0.032000 -0.081353
    vertex 0.168932 0.000000 -0.081353
    vertex 0.161739 0.032000 -0.094852
  endloop
endfacet
facet normal 0.000432 0.000000 -0.000230
  outer loop
    vertex 0.161739 0.032000 -0.094852
    vertex 0.168932 0.000000 -0.081353
    vertex 0.161739 0.000000 -0.094852
  endloop
endfacet
facet normal 0.000412 0.000000 -0.000265
  outer loop
    vertex 0.161739 0.032000 -0.094852
    vertex 0.161739 0.000000 -0.094852
    vertex 0.153469 0.032000 -0.107720
  endloop
endfacet
facet normal 0.000412 0.000000 -0.000265
  outer loop
    vertex 0.153469 0.032000 -0.107720
    vertex 0.161739 0.000000 -0.094852
    vertex 0.153469 0.000000 -0.107720
  endloop
endfacet
facet normal 0.000389 0.000000 -0.000297
  outer loop
    vertex 0.153469 0.032000 -0.107720
    vertex 0.153469 0.000000 -0.107720
    vertex 0.144178 0.032000 -0.119870
  endloop
endfacet
facet normal 0.000389 0.000000 -0.000297
  outer loop
    vertex 0.144178 0.032000 -0.119870
    vertex 0.153469 0.000000 -0.107720
    vertex 0.144178 0.000000 -0.119870
  endloop
endfacet
facet normal 0.000363 0.000000 -0.000328
  outer loop
    vertex 0.144178 0.032000 -0.119870
    vertex 0.144178 0.000000 -0.119870
    vertex 0.133928 0.032000 -0.131223
  endloop
endfacet
facet normal 0.000363 0.000000 -0.000328
  outer loop
    vertex 0.133928 0.032000 -0.131223
    vertex 0.144178 0.000000 -0.119870
    vertex 0.133928 0.000000 -0.131223
  endloop
endfacet
facet normal 0.000335 0.000000 -0.000357
  outer loop
    vertex 0.133928 0.032000 -0.131223
    vertex 0.133928 0.000000 -0.131223
    vertex 0.122786 0.032000 -0.141703
  endloop
endfacet
facet normal 0.000335 0.000000 -0.000357
  outer loop
    vertex 0.122786 0.032000 -0.141703
    vertex 0.133928 0.000000 -0.131223
    vertex 0.122786 0.000000 -0.141703
  endloop
endfacet
facet normal 0.000305 0.000000 -0.000383
  outer loop
    vertex 0.122786 0.032000 -0.141703
    vertex 0.122786 0.000000 -0.141703
    vertex 0.110828 0.032000 -0.151240
  endloop
endfacet
facet normal 0.000305 0.000000 -0.000383
  outer loop
    vertex 0.110828 0.032000 -0.151240
    vertex 0.122786 0.000000 -0.141703
    vertex 0.110828 0.000000 -0.151240
  endloop
endfacet
facet normal 0.000273 0.000000 -0.000406
  outer loop
    vertex 0.110828 0.032000 -0.151240
    vertex 0.110828 0.000000 -0.151240
    vertex 0.098132 0.032000 -0.159770
  endloop
endfacet
facet normal 0.000273 0.000000 -0.000406
  outer loop
    vertex 0.098132 0.032000 -0.159770
    vertex 0.110828 0.000000 -0.151240
    vertex 0.098132 0.000000 -0.159770
  endloop
endfacet
facet normal 0.000239 0.000000 -0.000427
  outer loop
    vertex 0.098132 0.032000 -0.159770
    vertex 0.098132 0.000000 -0.159770
    vertex 0.084782 0.032000 -0.167237
  endloop
endfacet
facet normal 0.000239 0.000000 -0.000427
  outer loop
    vertex 0.084782 0.032000 -0.167237
    vertex 0.098132 0.000000 -0.159770
    vertex 0.084782 0.000000 -0.167237
  endloop
endfacet
facet normal 0.000203 0.000000 -0.000445
  outer loop
    vertex 0.084782 0.032000 -0.167237
    vertex 0.084782 0.000000 -0.167237
    vertex 0.070869 0.032000 -0.173591
  endloop
endfacet
facet normal 0.000203 0.000000 -0.000445
  outer loop
    vertex 0.070869 0.032000 -0.173591
    vertex 0.084782 0.000000 -0.167237
    vertex 0.070869 0.000000 -0.173591
  endloop
endfacet
facet normal 0.000166 0.000000 -0.000460
  outer loop
    vertex 0.070869 0.032000 -0.173591
    vertex 0.070869 0.000000 -0.173591
    vertex 0.056484 0.032000 -0.178790
  endloop
endfacet
facet normal 0.000166 0.000000 -0.000460
  outer loop
    vertex 0.056484 0.032000 -0.178790
    vertex 0.070869 0.000000 -0.173591
    vertex 0.056484 0.000000 -0.178790
  endloop
endfacet
facet normal 0.000128 0.000000 -0.000472
  outer loop
    vertex 0.056484 0.032000 -0.178790
    vertex 0.056484 0.000000 -0.178790
    vertex 0.041723 0.032000 -0.182799
  endloop
endfacet
facet normal 0.000128 0.000000 -0.000472
  outer loop
    vertex 0.041723 0.032000 -0.182799
    vertex 0.056484 0.000000 -0.178790
    vertex 0.041723 0.000000 -0.182799
  endloop
endfacet
facet normal 0.000089 0.000000 -0.000481
  outer loop
    vertex 0.041723 0.032000 -0.182799
    vertex 0.041723 0.000000 -0.182799
    vertex 0.026684 0.032000 -0.185592
  endloop
endfacet
facet normal 0.000089 0.000000 -0.000481
  outer loop
    vertex 0.026684 0.032000 -0.185592
    vertex 0.041723 0.000000 -0.182799
    vertex 0.026684 0.000000 -0.185592
  endloop
endfacet
facet normal 0.000050 0.000000 -0.000487
  outer loop
    vertex 0.026684 0.032000 -0.185592
    vertex 0.026684 0.000000 -0.185592
    vertex 0.011468 0.032000 -0.187149
  endloop
endfacet
facet normal 0.000050 0.000000 -0.000487
  outer loop
    vertex 0.011468 0.032000 -0.187149
    vertex 0.026684 0.000000 -0.185592
    vertex 0.011468 0.000000 -0.187149
  endloop
endfacet
facet normal 0.000010 0.000000 -0.000489
  outer loop
    vertex 0.011468 0.032000 -0.187149
    vertex 0.011468 0.000000 -0.187149
    vertex -0.003825 0.032000 -0.187461
  endloop
endfacet
facet normal 0.000010 0.000000 -0.000489
  outer loop
    vertex -0.003825 0.032000 -0.187461
    vertex 0.011468 0.000000 -0.187149
    vertex -0.003825 0.000000 -0.187461
  endloop
endfacet
facet normal -0.000030 -0.000000 -0.000489
  outer loop
    vertex -0.003825 0.032000 -0.187461
    vertex -0.003825 0.000000 -0.187461
    vertex -0.019092 0.032000 -0.186525
  endloop
endfacet
facet normal -0.000030 -0.000000 -0.000489
  outer loop
    vertex -0.019092 0.032000 -0.186525
    vertex -0.003825 0.000000 -0.187461
    vertex -0.019092 0.000000 -0.186525
  endloop
endfacet
facet normal -0.000070 -0.000000 -0.000484
  outer loop
    vertex -0.019092 0.032000 -0.186525
    vertex -0.019092 0.000000 -0.186525
    vertex -0.034232 0.032000 -0.184349
  endloop
endfacet
facet normal -0.000070 -0.000000 -0.000484
  outer loop
    vertex -0.034232 0.032000 -0.184349
    vertex -0.019092 0.000000 -0.186525
    vertex -0.034232 0.000000 -0.184349
  endloop
endfacet
facet normal -0.000109 -0.000000 -0.000477
  outer loop
    vertex -0.034232 0.032000 -0.184349
    vertex -0.034232 0.000000 -0.184349
    vertex -0.049144 0.032000 -0.180945
  endloop
endfacet
facet normal -0.000109 -0.000000 -0.000477
  outer loop
    vertex -0.049144 0.032000 -0.180945
    vertex -0.034232 0.000000 -0.184349
    vertex -0.049144 0.000000 -0.180945
  endloop
endfacet
facet normal -0.000147 -0.000000 -0.000467
  outer loop
    vertex -0.049144 0.032000 -0.180945
    vertex -0.049144 0.000000 -0.180945
    vertex -0.063729 0.032000 -0.176337
  endloop
endfacet
facet normal -0.000147 -0.000000 -0.000467
  outer loop
    vertex -0.063729 0.032000 -0.176337
    vertex -0.049144 0.000000 -0.180945
    vertex -0.063729 0.000000 -0.176337
  endloop
endfacet
facet normal -0.000185 -0.000000 -0.000453
  outer loop
    vertex -0.063729 0.032000 -0.176337
    vertex -0.063729 0.000000 -0.176337
    vertex -0.077890 0.032000 -0.170556
  endloop
endfacet
facet normal -0.000185 -0.000000 -0.000453
  outer loop
    vertex -0.077890 0.032000 -0.170556
    vertex -0.063729 0.000000 -0.176337
    vertex -0.077890 0.000000 -0.170556
  endloop
endfacet
facet normal -0.000221 -0.000000 -0.000437
  outer loop
    vertex -0.077890 0.032000 -0.170556
    vertex -0.077890 0.000000 -0.170556
    vertex -0.091533 0.032000 -0.163640
  endloop
endfacet
facet normal -0.000221 -0.000000 -0.000437
  outer loop
    vertex -0.091533 0.032000 -0.163640
    vertex -0.077890 0.000000 -0.170556
    vertex -0.091533 0.000000 -0.163640
  endloop
endfacet
facet normal -0.000256 -0.000000 -0.000417
  outer loop
    vertex -0.091533 0.032000 -0.163640
    vertex -0.091533 0.000000 -0.163640
    vertex -0.104567 0.032000 -0.155634
  endloop
endfacet
facet normal -0.000256 -0.000000 -0.000417
  outer loop
    vertex -0.104567 0.032000 -0.155634
    vertex -0.091533 0.000000 -0.163640
    vertex -0.104567 0.000000 -0.155634
  endloop
endfacet
facet normal -0.000289 -0.000000 -0.000395
  outer loop
    vertex -0.104567 0.032000 -0.155634
    vertex -0.104567 0.000000 -0.155634
    vertex -0.116904 0.032000 -0.146593
  endloop
endfacet
facet normal -0.000289 -0.000000 -0.000395
  outer loop
    vertex -0.116904 0.032000 -0.146593
    vertex -0.104567 0.000000 -0.155634
    vertex -0.116904 0.000000 -0.146593
  endloop
endfacet
facet normal -0.000321 -0.000000 -0.000370
  outer loop
    vertex -0.116904 0.032000 -0.146593
    vertex -0.116904 0.000000 -0.146593
    vertex -0.128464 0.032000 -0.136577
  endloop
endfacet
facet normal -0.000321 -0.000000 -0.000370
  outer loop
    vertex -0.128464 0.032000 -0.136577
    vertex -0.116904 0.000000 -0.146593
    vertex -0.128464 0.000000 -0.136577
  endloop
endfacet
facet normal -0.000350 -0.000000 -0.000343
  outer loop
    vertex -0.128464 0.032000 -0.136577
    vertex -0.128464 0.000000 -0.136577
    vertex -0.139169 0.032000 -0.125651
  endloop
endfacet
facet normal -0.000350 -0.000000 -0.000343
  outer loop
    vertex -0.139169 0.032000 -0.125651
    vertex -0.128464 0.000000 -0.136577
    vertex -0.139169 0.000000 -0.125651
  endloop
endfacet
facet normal -0.000376 -0.000000 -0.000313
  outer loop
    vertex -0.139169 0.032000 -0.125651
    vertex -0.139169 0.000000 -0.125651
    vertex -0.148948 0.032000 -0.113890
  endloop
endfacet
facet normal -0.000376 -0.000000 -0.000313
  outer loop
    vertex -0.148948 0.032000 -0.113890
    vertex -0.139169 0.000000 -0.125651
    vertex -0.148948 0.000000 -0.113890
  endloop
endfacet
facet normal -0.000401 -0.000000 -0.000281
  outer loop
    vertex -0.148948 0.032000 -0.113890
    vertex -0.148948 0.000000 -0.113890
    vertex -0.157735 0.032000 -0.101370
  endloop
endfacet
facet normal -0.000401 -0.000000 -0.000281
  outer loop
    vertex -0.157735 0.032000 -0.101370
    vertex -0.148948 0.000000 -0.113890
    vertex -0.157735 0.000000 -0.101370
  endloop
endfacet
facet normal -0.000422 -0.000000 -0.000248
  outer loop
    vertex -0.157735 0.032000 -0.101370
    vertex -0.157735 0.000000 -0.101370
    vertex -0.165473 0.032000 -0.088176
  endloop
endfacet
facet normal -0.000422 -0.000000 -0.000248
  outer loop
    vertex -0.165473 0.032000 -0.088176
    vertex -0.157735 0.000000 -0.101370
    vertex -0.165473 0.000000 -0.088176
  endloop
endfacet
facet normal -0.000441 -0.000000 -0.000212
  outer loop
    vertex -0.165473 0.032000 -0.088176
    vertex -0.165473 0.000000 -0.088176
    vertex -0.172109 0.032000 -0.074395
  endloop
endfacet
facet normal -0.000441 -0.000000 -0.000212
  outer loop
    vertex -0.172109 0.032000 -0.074395
    vertex -0.165473 0.000000 -0.088176
    vertex -0.172109 0.000000 -0.074395
  endloop
endfacet
facet normal -0.000457 -0.000000 -0.000176
  outer loop
    vertex -0.172109 0.032000 -0.074395
    vertex -0.172109 0.000000 -0.074395
    vertex -0.177601 0.032000 -0.060119
  endloop
endfacet
facet normal -0.000457 -0.000000 -0.000176
  outer loop
    vertex -0.177601 0.032000 -0.060119
    vertex -0.172109 0.000000 -0.074395
    vertex -0.177601 0.000000 -0.060119
  endloop
endfacet
facet normal -0.000470 -0.000000 -0.000138
  outer loop
    vertex -0.177601 0.032000 -0.060119
    vertex -0.177601 0.000000 -0.060119
    vertex -0.181910 0.032000 -0.045443
  endloop
endfacet
facet normal -0.000470 -0.000000 -0.000138
  outer loop
    vertex -0.181910 0.032000 -0.045443
    vertex -0.177601 0.000000 -0.060119
    vertex -0.181910 0.000000 -0.045443
  endloop
endfacet
facet normal -0.000479 -0.000000 -0.000099
  outer loop
    vertex -0.181910 0.032000 -0.045443
    vertex -0.181910 0.000000 -0.045443
    vertex -0.185009 0.032000 -0.030464
  endloop
endfacet
facet normal -0.000479 -0.000000 -0.000099
  outer loop
    vertex -0.185009 0.032000 -0.030464
    vertex -0.181910 0.000000 -0.045443
    vertex -0.185009 0.000000 -0.030464
  endloop
endfacet
facet normal -0.000486 -0.000000 -0.000060
  outer loop
    vertex -0.185009 0.032000 -0.030464
    vertex -0.185009 0.000000 -0.030464
    vertex -0.186876 0.032000 -0.015283
  endloop
endfacet
facet normal -0.000486 -0.000000 -0.000060
  outer loop
    vertex -0.186876 0.032000 -0.015283
    vertex -0.185009 0.000000 -0.030464
    vertex -0.186876 0.000000 -0.015283
  endloop
endfacet
facet normal 0.000000 0.001097 0.000000
  outer loop
    vertex -0.072871 0.032000 -0.009594
    vertex -0.186876 0.032000 -0.015283
    vertex -0.073500 0.032000 0.000000
  endloop
endfacet
facet normal 0.000000 0.001742 0.000000
  outer loop
    vertex -0.073500 0.032000 0.000000
    vertex -0.186876 0.032000 -0.015283
    vertex -0.187500 0.032000 0.000000
  endloop
endfacet
facet normal 0.000000 0.001742 0.000000
  outer loop
    vertex -0.073500 0.032000 0.000000
    vertex -0.187500 0.032000 0.000000
    vertex -0.186876 0.032000 0.015283
  endloop
endfacet
facet normal -0.000000 0.001741 0.000000
  outer loop
    vertex -0.186876 0.032000 -0.015283
    vertex -0.072871 0.032000 -0.009594
    vertex -0.185009 0.032000 -0.030464
  endloop
endfacet
facet normal 0.000000 0.001097 0.000000
  outer loop
    vertex -0.185009 0.032000 -0.030464
    vertex -0.072871 0.032000 -0.009594
    vertex -0.070996 0.032000 -0.019023
  endloop
endfacet
facet normal -0.000000 0.001743 0.000000
  outer loop
    vertex -0.185009 0.032000 -0.030464
    vertex -0.070996 0.032000 -0.019023
    vertex -0.181910 0.032000 -0.045443
  endloop
endfacet
facet normal -0.000000 0.001742 0.000000
  outer loop
    vertex -0.181910 0.032000 -0.045443
    vertex -0.070996 0.032000 -0.019023
    vertex -0.177601 0.032000 -0.060119
  endloop
endfacet
facet normal 0.000000 0.001098 0.000000
  outer loop
    vertex -0.177601 0.032000 -0.060119
    vertex -0.070996 0.032000 -0.019023
    vertex -0.067905 0.032000 -0.028127
  endloop
endfacet
facet normal -0.000000 0.001742 0.000000
  outer loop
    vertex -0.177601 0.032000 -0.060119
    vertex -0.067905 0.032000 -0.028127
    vertex -0.172109 0.032000 -0.074395
  endloop
endfacet
facet normal -0.000000 0.001743 0.000000
  outer loop
    vertex -0.172109 0.032000 -0.074395
    vertex -0.067905 0.032000 -0.028127
    vertex -0.165473 0.032000 -0.088176
  endloop
endfacet
facet normal 0.000000 0.001097 0.000000
  outer loop
    vertex -0.165473 0.032000 -0.088176
    vertex -0.067905 0.032000 -0.028127
    vertex -0.063653 0.032000 -0.036750
  endloop
endfacet
facet normal -0.000000 0.001741 0.000000
  outer loop
    vertex -0.165473 0.032000 -0.088176
    vertex -0.063653 0.032000 -0.036750
    vertex -0.157735 0.032000 -0.101370
  endloop
endfacet
facet normal 0.000000 0.001097 0.000000
  outer loop
    vertex -0.157735 0.032000 -0.101370
    vertex -0.063653 0.032000 -0.036750
    vertex -0.058311 0.032000 -0.044744
  endloop
endfacet
facet normal -0.000000 0.001742 0.000000
  outer loop
    vertex -0.157735 0.032000 -0.101370
    vertex -0.058311 0.032000 -0.044744
    vertex -0.148948 0.032000 -0.113890
  endloop
endfacet
facet normal -0.000000 0.001742 0.000000
  outer loop
    vertex -0.148948 0.032000 -0.113890
    vertex -0.058311 0.032000 -0.044744
    vertex -0.139169 0.032000 -0.125651
  endloop
endfacet
facet normal 0.000000 0.001097 0.000000
  outer loop
    vertex -0.139169 0.032000 -0.125651
    vertex -0.058311 0.032000 -0.044744
    vertex -0.051972 0.032000 -0.051972
  endloop
endfacet
facet normal -0.000000 0.001741 0.000000
  outer loop
    vertex -0.139169 0.032000 -0.125651
    vertex -0.051972 0.032000 -0.051972
    vertex -0.128464 0.032000 -0.136577
  endloop
endfacet
facet normal 0.000000 0.001096 0.000000
  outer loop
    vertex -0.128464 0.032000 -0.136577
    vertex -0.051972 0.032000 -0.051972
    vertex -0.044744 0.032000 -0.058311
  endloop
endfacet
facet normal -0.000000 0.001743 0.000000
  outer loop
    vertex -0.128464 0.032000 -0.136577
    vertex -0.044744 0.032000 -0.058311
    vertex -0.116904 0.032000 -0.146593
  endloop
endfacet
facet normal -0.000000 0.001742 0.000000
  outer loop
    vertex -0.116904 0.032000 -0.146593
    vertex -0.044744 0.032000 -0.058311
    vertex -0.104567 0.032000 -0.155634
  endloop
endfacet
facet normal 0.000000 0.001098 0.000000
  outer loop
    vertex -0.104567 0.032000 -0.155634
    vertex -0.044744 0.032000 -0.058311
    vertex -0.036750 0.032000 -0.063653
  endloop
endfacet
facet normal -0.000000 0.001742 0.000000
  outer loop
    vertex -0.104567 0.032000 -0.155634
    vertex -0.036750 0.032000 -0.063653
    vertex -0.091533 0.032000 -0.163640
  endloop
endfacet
facet normal -0.000000 0.001743 0.000000
  outer loop
    vertex -0.091533 0.032000 -0.163640
    vertex -0.036750 0.032000 -0.063653
    vertex -0.077890 0.032000 -0.170556
  endloop
endfacet
facet normal 0.000000 0.001097 0.000000
  outer loop
    vertex -0.077890 0.032000 -0.170556
    vertex -0.036750 0.032000 -0.063653
    vertex -0.028127 0.032000 -0.067905
  endloop
endfacet
facet normal -0.000000 0.001741 0.000000
  outer loop
    vertex -0.077890 0.032000 -0.170556
    vertex -0.028127 0.032000 -0.067905
    vertex -0.063729 0.032000 -0.176337
  endloop
endfacet
facet normal 0.000000 0.001097 0.000000
  outer loop
    vertex -0.063729 0.032000 -0.176337
    vertex -0.028127 0.032000 -0.067905
    vertex -0.019023 0.032000 -0.070996
  endloop
endfacet
facet normal -0.000000 0.001742 0.000000
  outer loop
    vertex -0.063729 0.032000 -0.176337
    vertex -0.019023 0.032000 -0.070996
    vertex -0.049144 0.032000 -0.180945
  endloop
endfacet
facet normal -0.000000 0.001742 0.000000
  outer loop
    vertex -0.049144 0.032000 -0.180945
    vertex -0.019023 0.032000 -0.070996
    vertex -0.034232 0.032000 -0.184349
  endloop
endfacet
facet normal 0.000000 0.001097 0.000000
  outer loop
    vertex -0.034232 0.032000 -0.184349
    vertex -0.019023 0.032000 -0.070996
    vertex -0.009594 0.032000 -0.072871
  endloop
endfacet
facet normal -0.000000 0.001741 0.000000
  outer loop
    vertex -0.034232 0.032000 -0.184349
    vertex -0.009594 0.032000 -0.072871
    vertex -0.019092 0.032000 -0.186525
  endloop
endfacet
facet normal 0.000000 0.001096 0.000000
  outer loop
    vertex -0.019092 0.032000 -0.186525
    vertex -0.009594 0.032000 -0.072871
    vertex 0.000000 0.032000 -0.073500
  endloop
endfacet
facet normal -0.000000 0.001743 0.000000
  outer loop
    vertex -0.019092 0.032000 -0.186525
    vertex 0.000000 0.032000 -0.073500
    vertex -0.003825 0.032000 -0.187461
  endloop
endfacet
facet normal 0.000000 0.001742 0.000000
  outer loop
    vertex -0.003825 0.032000 -0.187461
    vertex 0.000000 0.032000 -0.073500
    vertex 0.011468 0.032000 -0.187149
  endloop
endfacet
facet normal 0.000000 0.001098 0.000000
  outer loop
    vertex 0.011468 0.032000 -0.187149
    vertex 0.000000 0.032000 -0.073500
    vertex 0.009594 0.032000 -0.072871
  endloop
endfacet
facet normal 0.000000 0.001742 -0.000000
  outer loop
    vertex 0.011468 0.032000 -0.187149
    vertex 0.009594 0.032000 -0.072871
    vertex 0.026684 0.032000 -0.185592
  endloop
endfacet
facet normal 0.000000 0.001743 -0.000000
  outer loop
    vertex 0.026684 0.032000 -0.185592
    vertex 0.009594 0.032000 -0.072871
    vertex 0.041723 0.032000 -0.182799
  endloop
endfacet
facet normal 0.000000 0.001097 0.000000
  outer loop
    vertex 0.041723 0.032000 -0.182799
    vertex 0.009594 0.032000 -0.072871
    vertex 0.019023 0.032000 -0.070996
  endloop
endfacet
facet normal 0.000000 0.001741 -0.000000
  outer loop
    vertex 0.041723 0.032000 -0.182799
    vertex 0.019023 0.032000 -0.070996
    vertex 0.056484 0.032000 -0.178790
  endloop
endfacet
facet normal 0.000000 0.001097 0.000000
  outer loop
    vertex 0.056484 0.032000 -0.178790
    vertex 0.019023 0.032000 -0.070996
    vertex 0.028127 0.032000 -0.067905
  endloop
endfacet
facet normal 0.000000 0.001743 -0.000000
  outer loop
    vertex 0.056484 0.032000 -0.178790
    vertex 0.028127 0.032000 -0.067905
    vertex 0.070869 0.032000 -0.173591
  endloop
endfacet
facet normal 0.000000 0.001742 -0.000000
  outer loop
    vertex 0.070869 0.032000 -0.173591
    vertex 0.028127 0.032000 -0.067905
    vertex 0.084782 0.032000 -0.167237
  endloop
endfacet
facet normal 0.000000 0.001097 0.000000
  outer loop
    vertex 0.084782 0.032000 -0.167237
    vertex 0.028127 0.032000 -0.067905
    vertex 0.036750 0.032000 -0.063653
  endloop
endfacet
facet normal 0.000000 0.001741 -0.000000
  outer loop
    vertex 0.084782 0.032000 -0.167237
    vertex 0.036750 0.032000 -0.063653
    vertex 0.098132 0.032000 -0.159770
  endloop
endfacet
facet normal 0.000000 0.001096 0.000000
  outer loop
    vertex 0.098132 0.032000 -0.159770
    vertex 0.036750 0.032000 -0.063653
    vertex 0.044744 0.032000 -0.058311
  endloop
endfacet
facet normal 0.000000 0.001744 -0.000000
  outer loop
    vertex 0.098132 0.032000 -0.159770
    vertex 0.044744 0.032000 -0.058311
    vertex 0.110828 0.032000 -0.151240
  endloop
endfacet
facet normal 0.000000 0.001742 -0.000000
  outer loop
    vertex 0.110828 0.032000 -0.151240
    vertex 0.044744 0.032000 -0.058311
    vertex 0.122786 0.032000 -0.141703
  endloop
endfacet
facet normal 0.000000 0.001098 0.000000
  outer loop
    vertex 0.122786 0.032000 -0.141703
    vertex 0.044744 0.032000 -0.058311
    vertex 0.051972 0.032000 -0.051972
  endloop
endfacet
facet normal 0.000000 0.001742 -0.000000
  outer loop
    vertex 0.122786 0.032000 -0.141703
    vertex 0.051972 0.032000 -0.051972
    vertex 0.133928 0.032000 -0.131223
  endloop
endfacet
facet normal 0.000000 0.001743 -0.000000
  outer loop
    vertex 0.133928 0.032000 -0.131223
    vertex 0.051972 0.032000 -0.051972
    vertex 0.144178 0.032000 -0.119870
  endloop
endfacet
facet normal 0.000000 0.001097 0.000000
  outer loop
    vertex 0.144178 0.032000 -0.119870
    vertex 0.051972 0.032000 -0.051972
    vertex 0.058311 0.032000 -0.044744
  endloop
endfacet
facet normal 0.000000 0.001741 -0.000000
  outer loop
    vertex 0.144178 0.032000 -0.119870
    vertex 0.058311 0.032000 -0.044744
    vertex 0.153469 0.032000 -0.107720
  endloop
endfacet
facet normal 0.000000 0.001097 0.000000
  outer loop
    vertex 0.153469 0.032000 -0.107720
    vertex 0.058311 0.032000 -0.044744
    vertex 0.063653 0.032000 -0.036750
  endloop
endfacet
facet normal 0.000000 0.001743 -0.000000
  outer loop
    vertex 0.153469 0.032000 -0.107720
    vertex 0.063653 0.032000 -0.036750
    vertex 0.161739 0.032000 -0.094852
  endloop
endfacet
facet normal 0.000000 0.001742 -0.000000
  outer loop
    vertex 0.161739 0.032000 -0.094852
    vertex 0.063653 0.032000 -0.036750
    vertex 0.168932 0.032000 -0.081353
  endloop
endfacet
facet normal 0.000000 0.001097 0.000000
  outer loop
    vertex 0.168932 0.032000 -0.081353
    vertex 0.063653 0.032000 -0.036750
    vertex 0.067905 0.032000 -0.028127
  endloop
endfacet
facet normal 0.000000 0.001741 -0.000000
  outer loop
    vertex 0.168932 0.032000 -0.081353
    vertex 0.067905 0.032000 -0.028127
    vertex 0.175001 0.032000 -0.067313
  endloop
endfacet
facet normal 0.000000 0.001096 0.000000
  outer loop
    vertex 0.175001 0.032000 -0.067313
    vertex 0.067905 0.032000 -0.028127
    vertex 0.070996 0.032000 -0.019023
  endloop
endfacet
facet normal 0.000000 0.001744 -0.000000
  outer loop
    vertex 0.175001 0.032000 -0.067313
    vertex 0.070996 0.032000 -0.019023
    vertex 0.179905 0.032000 -0.052825
  endloop
endfacet
facet normal 0.000000 0.001741 -0.000000
  outer loop
    vertex 0.179905 0.032000 -0.052825
    vertex 0.070996 0.032000 -0.019023
    vertex 0.183612 0.032000 -0.037985
  endloop
endfacet
facet normal 0.000000 0.001097 0.000000
  outer loop
    vertex 0.183612 0.032000 -0.037985
    vertex 0.070996 0.032000 -0.019023
    vertex 0.072871 0.032000 -0.009594
  endloop
endfacet
facet normal 0.000000 0.001742 -0.000000
  outer loop
    vertex 0.183612 0.032000 -0.037985
    vertex 0.072871 0.032000 -0.009594
    vertex 0.186097 0.032000 -0.022893
  endloop
endfacet
facet normal 0.000000 0.001743 -0.000000
  outer loop
    vertex 0.186097 0.032000 -0.022893
    vertex 0.072871 0.032000 -0.009594
    vertex 0.187344 0.032000 -0.007648
  endloop
endfacet
facet normal 0.000000 0.001097 0.000000
  outer loop
    vertex 0.187344 0.032000 -0.007648
    vertex 0.072871 0.032000 -0.009594
    vertex 0.073500 0.032000 0.000000
  endloop
endfacet
facet normal 0.000000 0.001741 -0.000000
  outer loop
    vertex 0.187344 0.032000 -0.007648
    vertex 0.073500 0.032000 0.000000
    vertex 0.187344 0.032000 0.007648
  endloop
endfacet
facet normal 0.000000 0.001097 0.000000
  outer loop
    vertex 0.187344 0.032000 0.007648
    vertex 0.073500 0.032000 0.000000
    vertex 0.072871 0.032000 0.009594
  endloop
endfacet
facet normal 0.000000 0.001743 0.000000
  outer loop
    vertex 0.187344 0.032000 0.007648
    vertex 0.072871 0.032000 0.009594
    vertex 0.186097 0.032000 0.022893
  endloop
endfacet
facet normal 0.000000 0.001742 0.000000
  outer loop
    vertex 0.186097 0.032000 0.022893
    vertex 0.072871 0.032000 0.009594
    vertex 0.183612 0.032000 0.037985
  endloop
endfacet
facet normal 0.000000 0.001097 0.000000
  outer loop
    vertex 0.183612 0.032000 0.037985
    vertex 0.072871 0.032000 0.009594
    vertex 0.070996 0.032000 0.019023
  endloop
endfacet
facet normal 0.000000 0.001741 0.000000
  outer loop
    vertex 0.183612 0.032000 0.037985
    vertex 0.070996 0.032000 0.019023
    vertex 0.179905 0.032000 0.052825
  endloop
endfacet
facet normal 0.000000 0.001744 0.000000
  outer loop
    vertex 0.179905 0.032000 0.052825
    vertex 0.070996 0.032000 0.019023
    vertex 0.175001 0.032000 0.067313
  endloop
endfacet
facet normal 0.000000 0.001096 0.000000
  outer loop
    vertex 0.175001 0.032000 0.067313
    vertex 0.070996 0.032000 0.019023
    vertex 0.067905 0.032000 0.028127
  endloop
endfacet
facet normal 0.000000 0.001741 0.000000
  outer loop
    vertex 0.175001 0.032000 0.067313
    vertex 0.067905 0.032000 0.028127
    vertex 0.168932 0.032000 0.081353
  endloop
endfacet
facet normal 0.000000 0.001097 0.000000
  outer loop
    vertex 0.168932 0.032000 0.081353
    vertex 0.067905 0.032000 0.028127
    vertex 0.063653 0.032000 0.036750
  endloop
endfacet
facet normal 0.000000 0.001742 0.000000
  outer loop
    vertex 0.168932 0.032000 0.081353
    vertex 0.063653 0.032000 0.036750
    vertex 0.161739 0.032000 0.094852
  endloop
endfacet
facet normal 0.000000 0.001743 0.000000
  outer loop
    vertex 0.161739 0.032000 0.094852
    vertex 0.063653 0.032000 0.036750
    vertex 0.153469 0.032000 0.107720
  endloop
endfacet
facet normal 0.000000 0.001097 0.000000
  outer loop
    vertex 0.153469 0.032000 0.107720
    vertex 0.063653 0.032000 0.036750
    vertex 0.058311 0.032000 0.044744
  endloop
endfacet
facet normal 0.000000 0.001741 0.000000
  outer loop
    vertex 0.153469 0.032000 0.107720
    vertex 0.058311 0.032000 0.044744
    vertex 0.144178 0.032000 0.119870
  endloop
endfacet
facet normal 0.000000 0.001097 0.000000
  outer loop
    vertex 0.144178 0.032000 0.119870
    vertex 0.058311 0.032000 0.044744
    vertex 0.051972 0.032000 0.051972
  endloop
endfacet
facet normal 0.000000 0.001743 0.000000
  outer loop
    vertex 0.144178 0.032000 0.119870
    vertex 0.051972 0.032000 0.051972
    vertex 0.133928 0.032000 0.131223
  endloop
endfacet
facet normal 0.000000 0.001742 0.000000
  outer loop
    vertex 0.133928 0.032000 0.131223
    vertex 0.051972 0.032000 0.051972
    vertex 0.122786 0.032000 0.141703
  endloop
endfacet
facet normal 0.000000 0.001098 0.000000
  outer loop
    vertex 0.122786 0.032000 0.141703
    vertex 0.051972 0.032000 0.051972
    vertex 0.044744 0.032000 0.058311
  endloop
endfacet
facet normal 0.000000 0.001742 0.000000
  outer loop
    vertex 0.122786 0.032000 0.141703
    vertex 0.044744 0.032000 0.058311
    vertex 0.110828 0.032000 0.151240
  endloop
endfacet
facet normal 0.000000 0.001744 0.000000
  outer loop
    vertex 0.110828 0.032000 0.151240
    vertex 0.044744 0.032000 0.058311
    vertex 0.098132 0.032000 0.159770
  endloop
endfacet
facet normal 0.000000 0.001096 0.000000
  outer loop
    vertex 0.098132 0.032000 0.159770
    vertex 0.044744 0.032000 0.058311
    vertex 0.036750 0.032000 0.063653
  endloop
endfacet
facet normal 0.000000 0.001741 0.000000
  outer loop
    vertex 0.098132 0.032000 0.159770
    vertex 0.036750 0.032000 0.063653
    vertex 0.084782 0.032000 0.167237
  endloop
endfacet
facet normal 0.000000 0.001097 0.000000
  outer loop
    vertex 0.084782 0.032000 0.167237
    vertex 0.036750 0.032000 0.063653
    vertex 0.028127 0.032000 0.067905
  endloop
endfacet
facet normal 0.000000 0.001742 0.000000
  outer loop
    vertex 0.084782 0.032000 0.167237
    vertex 0.028127 0.032000 0.067905
    vertex 0.070869 0.032000 0.173591
  endloop
endfacet
facet normal 0.000000 0.001743 0.000000
  outer loop
    vertex 0.070869 0.032000 0.173591
    vertex 0.028127 0.032000 0.067905
    vertex 0.056484 0.032000 0.178790
  endloop
endfacet
facet normal 0.000000 0.001097 0.000000
  outer loop
    vertex 0.056484 0.032000 0.178790
    vertex 0.028127 0.032000 0.067905
    vertex 0.019023 0.032000 0.070996
  endloop
endfacet
facet normal 0.000000 0.001741 0.000000
  outer loop
    vertex 0.056484 0.032000 0.178790
    vertex 0.019023 0.032000 0.070996
    vertex 0.041723 0.032000 0.182799
  endloop
endfacet
facet normal 0.000000 0.001097 0.000000
  outer loop
    vertex 0.041723 0.032000 0.182799
    vertex 0.019023 0.032000 0.070996
    vertex 0.009594 0.032000 0.072871
  endloop
endfacet
facet normal 0.000000 0.001743 0.000000
  outer loop
    vertex 0.041723 0.032000 0.182799
    vertex 0.009594 0.032000 0.072871
    vertex 0.026684 0.032000 0.185592
  endloop
endfacet
facet normal 0.000000 0.001742 0.000000
  outer loop
    vertex 0.026684 0.032000 0.185592
    vertex 0.009594 0.032000 0.072871
    vertex 0.011468 0.032000 0.187149
  endloop
endfacet
facet normal 0.000000 0.001098 0.000000
  outer loop
    vertex 0.011468 0.032000 0.187149
    vertex 0.009594 0.032000 0.072871
    vertex 0.000000 0.032000 0.073500
  endloop
endfacet
facet normal 0.000000 0.001742 0.000000
  outer loop
    vertex 0.011468 0.032000 0.187149
    vertex 0.000000 0.032000 0.073500
    vertex -0.003825 0.032000 0.187461
  endloop
endfacet
facet normal 0.000000 0.001743 0.000000
  outer loop
    vertex -0.003825 0.032000 0.187461
    vertex 0.000000 0.032000 0.073500
    vertex -0.019092 0.032000 0.186525
  endloop
endfacet
facet normal 0.000000 0.001096 0.000000
  outer loop
    vertex -0.019092 0.032000 0.186525
    vertex 0.000000 0.032000 0.073500
    vertex -0.009594 0.032000 0.072871
  endloop
endfacet
facet normal 0.000000 0.001741 0.000000
  outer loop
    vertex -0.019092 0.032000 0.186525
    vertex -0.009594 0.032000 0.072871
    vertex -0.034232 0.032000 0.184349
  endloop
endfacet
facet normal 0.000000 0.001097 0.000000
  outer loop
    vertex -0.034232 0.032000 0.184349
    vertex -0.009594 0.032000 0.072871
    vertex -0.019023 0.032000 0.070996
  endloop
endfacet
facet normal 0.000000 0.001742 0.000000
  outer loop
    vertex -0.034232 0.032000 0.184349
    vertex -0.019023 0.032000 0.070996
    vertex -0.049144 0.032000 0.180945
  endloop
endfacet
facet normal 0.000000 0.001742 0.000000
  outer loop
    vertex -0.049144 0.032000 0.180945
    vertex -0.019023 0.032000 0.070996
    vertex -0.063729 0.032000 0.176337
  endloop
endfacet
facet normal 0.000000 0.001097 0.000000
  outer loop
    vertex -0.063729 0.032000 0.176337
    vertex -0.019023 0.032000 0.070996
    vertex -0.028127 0.032000 0.067905
  endloop
endfacet
facet normal 0.000000 0.001741 0.000000
  outer loop
    vertex -0.063729 0.032000 0.176337
    vertex -0.028127 0.032000 0.067905
    vertex -0.077890 0.032000 0.170556
  endloop
endfacet
facet normal 0.000000 0.001097 0.000000
  outer loop
    vertex -0.077890 0.032000 0.170556
    vertex -0.028127 0.032000 0.067905
    vertex -0.036750 0.032000 0.063653
  endloop
endfacet
facet normal 0.000000 0.001743 0.000000
  outer loop
    vertex -0.077890 0.032000 0.170556
    vertex -0.036750 0.032000 0.063653
    vertex -0.091533 0.032000 0.163640
  endloop
endfacet
facet normal 0.000000 0.001742 0.000000
  outer loop
    vertex -0.091533 0.032000 0.163640
    vertex -0.036750 0.032000 0.063653
    vertex -0.104567 0.032000 0.155634
  endloop
endfacet
facet normal 0.000000 0.001098 0.000000
  outer loop
    vertex -0.104567 0.032000 0.155634
    vertex -0.036750 0.032000 0.063653
    vertex -0.044744 0.032000 0.058311
  endloop
endfacet
facet normal 0.000000 0.001742 0.000000
  outer loop
    vertex -0.104567 0.032000 0.155634
    vertex -0.044744 0.032000 0.058311
    vertex -0.116904 0.032000 0.146593
  endloop
endfacet
facet normal 0.000000 0.001743 0.000000
  outer loop
    vertex -0.116904 0.032000 0.146593
    vertex -0.044744 0.032000 0.058311
    vertex -0.128464 0.032000 0.136577
  endloop
endfacet
facet normal 0.000000 0.001096 0.000000
  outer loop
    vertex -0.128464 0.032000 0.136577
    vertex -0.044744 0.032000 0.058311
    vertex -0.051972 0.032000 0.051972
  endloop
endfacet
facet normal 0.000000 0.001741 0.000000
  outer loop
    vertex -0.128464 0.032000 0.136577
    vertex -0.051972 0.032000 0.051972
    vertex -0.139169 0.032000 0.125651
  endloop
endfacet
facet normal 0.000000 0.001097 0.000000
  outer loop
    vertex -0.139169 0.032000 0.125651
    vertex -0.051972 0.032000 0.051972
    vertex -0.058311 0.032000 0.044744
  endloop
endfacet
facet normal 0.000000 0.001742 0.000000
  outer loop
    vertex -0.139169 0.032000 0.125651
    vertex -0.058311 0.032000 0.044744
    vertex -0.148948 0.032000 0.113890
  endloop
endfacet
facet normal 0.000000 0.001742 0.000000
  outer loop
    vertex -0.148948 0.032000 0.113890
    vertex -0.058311 0.032000 0.044744
    vertex -0.157735 0.032000 0.101370
  endloop
endfacet
facet normal 0.000000 0.001097 0.000000
  outer loop
    vertex -0.157735 0.032000 0.101370
    vertex -0.058311 0.032000 0.044744
    vertex -0.063653 0.032000 0.036750
  endloop
endfacet
facet normal 0.000000 0.001741 0.000000
  outer loop
    vertex -0.157735 0.032000 0.101370
    vertex -0.063653 0.032000 0.036750
    vertex -0.165473 0.032000 0.088176
  endloop
endfacet
facet normal 0.000000 0.001097 0.000000
  outer loop
    vertex -0.165473 0.032000 0.088176
    vertex -0.063653 0.032000 0.036750
    vertex -0.067905 0.032000 0.028127
  endloop
endfacet
facet normal 0.000000 0.001743 0.000000
  outer loop
    vertex -0.165473 0.032000 0.088176
    vertex -0.067905 0.032000 0.028127
    vertex -0.172109 0.032000 0.074395
  endloop
endfacet
facet normal 0.000000 0.001742 0.000000
  outer loop
    vertex -0.172109 0.032000 0.074395
    vertex -0.067905 0.032000 0.028127
    vertex -0.177601 0.032000 0.060119
  endloop
endfacet
facet normal 0.000000 0.001098 0.000000
  outer loop
    vertex -0.177601 0.032000 0.060119
    vertex -0.067905 0.032000 0.028127
    vertex -0.070996 0.032000 0.019023
  endloop
endfacet
facet normal 0.000000 0.001742 0.000000
  outer loop
    vertex -0.177601 0.032000 0.060119
    vertex -0.070996 0.032000 0.019023
    vertex -0.181910 0.032000 0.045443
  endloop
endfacet
facet normal 0.000000 0.001743 0.000000
  outer loop
    vertex -0.181910 0.032000 0.045443
    vertex -0.070996 0.032000 0.019023
    vertex -0.185009 0.032000 0.030464
  endloop
endfacet
facet normal 0.000000 0.001097 0.000000
  outer loop
    vertex -0.185009 0.032000 0.030464
    vertex -0.070996 0.032000 0.019023
    vertex -0.072871 0.032000 0.009594
  endloop
endfacet
facet normal 0.000000 0.001741 0.000000
  outer loop
    vertex -0.185009 0.032000 0.030464
    vertex -0.072871 0.032000 0.009594
    vertex -0.186876 0.032000 0.015283
  endloop
endfacet
facet normal 0.000000 0.001097 0.000000
  outer loop
    vertex -0.186876 0.032000 0.015283
    vertex -0.072871 0.032000 0.009594
    vertex -0.073500 0.032000 0.000000
  endloop
endfacet
facet normal -0.000000 -0.001097 0.000000
  outer loop
    vertex -0.072871 0.000000 0.009594
    vertex -0.186876 0.000000 0.015283
    vertex -0.073500 0.000000 0.000000
  endloop
endfacet
facet normal 0.000000 -0.001742 0.000000
  outer loop
    vertex -0.073500 0.000000 0.000000
    vertex -0.186876 0.000000 0.015283
    vertex -0.187500 0.000000 0.000000
  endloop
endfacet
facet normal -0.000000 -0.001742 0.000000
  outer loop
    vertex -0.073500 0.000000 0.000000
    vertex -0.187500 0.000000 0.000000
    vertex -0.186876 0.000000 -0.015283
  endloop
endfacet
facet normal 0.000000 -0.001741 0.000000
  outer loop
    vertex -0.186876 0.000000 0.015283
    vertex -0.072871 0.000000 0.009594
    vertex -0.185009 0.000000 0.030464
  endloop
endfacet
facet normal 0.000000 -0.001097 0.000000
  outer loop
    vertex -0.185009 0.000000 0.030464
    vertex -0.072871 0.000000 0.009594
    vertex -0.070996 0.000000 0.019023
  endloop
endfacet
facet normal 0.000000 -0.001743 0.000000
  outer loop
    vertex -0.185009 0.000000 0.030464
    vertex -0.070996 0.000000 0.019023
    vertex -0.181910 0.000000 0.045443
  endloop
endfacet
facet normal 0.000000 -0.001742 0.000000
  outer loop
    vertex -0.181910 0.000000 0.045443
    vertex -0.070996 0.000000 0.019023
    vertex -0.177601 0.000000 0.060119
  endloop
endfacet
facet normal 0.000000 -0.001098 0.000000
  outer loop
    vertex -0.177601 0.000000 0.060119
    vertex -0.070996 0.000000 0.019023
    vertex -0.067905 0.000000 0.028127
  endloop
endfacet
facet normal 0.000000 -0.001742 0.000000
  outer loop
    vertex -0.177601 0.000000 0.060119
    vertex -0.067905 0.000000 0.028127
    vertex -0.172109 0.000000 0.074395
  endloop
endfacet
facet normal 0.000000 -0.001743 0.000000
  outer loop
    vertex -0.172109 0.000000 0.074395
    vertex -0.067905 0.000000 0.028127
    vertex -0.165473 0.000000 0.088176
  endloop
endfacet
facet normal 0.000000 -0.001097 0.000000
  outer loop
    vertex -0.165473 0.000000 0.088176
    vertex -0.067905 0.000000 0.028127
    vertex -0.063653 0.000000 0.036750
  endloop
endfacet
facet normal 0.000000 -0.001741 0.000000
  outer loop
    vertex -0.165473 0.000000 0.088176
    vertex -0.063653 0.000000 0.036750
    vertex -0.157735 0.000000 0.101370
  endloop
endfacet
facet normal 0.000000 -0.001097 0.000000
  outer loop
    vertex -0.157735 0.000000 0.101370
    vertex -0.063653 0.000000 0.036750
    vertex -0.058311 0.000000 0.044744
  endloop
endfacet
facet normal 0.000000 -0.001742 0.000000
  outer loop
    vertex -0.157735 0.000000 0.101370
    vertex -0.058311 0.000000 0.044744
    vertex -0.148948 0.000000 0.113890
  endloop
endfacet
facet normal 0.000000 -0.001742 0.000000
  outer loop
    vertex -0.148948 0.000000 0.113890
    vertex -0.058311 0.000000 0.044744
    vertex -0.139169 0.000000 0.125651
  endloop
endfacet
facet normal 0.000000 -0.001097 0.000000
  outer loop
    vertex -0.139169 0.000000 0.125651
    vertex -0.058311 0.000000 0.044744
    vertex -0.051972 0.000000 0.051972
  endloop
endfacet
facet normal 0.000000 -0.001741 0.000000
  outer loop
    vertex -0.139169 0.000000 0.125651
    vertex -0.051972 0.000000 0.051972
    vertex -0.128464 0.000000 0.136577
  endloop
endfacet
facet normal 0.000000 -0.001096 0.000000
  outer loop
    vertex -0.128464 0.000000 0.136577
    vertex -0.051972 0.000000 0.051972
    vertex -0.044744 0.000000 0.058311
  endloop
endfacet
facet normal 0.000000 -0.001743 0.000000
  outer loop
    vertex -0.128464 0.000000 0.136577
    vertex -0.044744 0.000000 0.058311
    vertex -0.116904 0.000000 0.146593
  endloop
endfacet
facet normal 0.000000 -0.001742 0.000000
  outer loop
    vertex -0.116904 0.000000 0.146593
    vertex -0.044744 0.000000 0.058311
    vertex -0.104567 0.000000 0.155634
  endloop
endfacet
facet normal 0.000000 -0.001098 0.000000
  outer loop
    vertex -0.104567 0.000000 0.155634
    vertex -0.044744 0.000000 0.058311
    vertex -0.036750 0.000000 0.063653
  endloop
endfacet
facet normal 0.000000 -0.001742 0.000000
  outer loop
    vertex -0.104567 0.000000 0.155634
    vertex -0.036750 0.000000 0.063653
    vertex -0.091533 0.000000 0.163640
  endloop
endfacet
facet normal 0.000000 -0.001743 0.000000
  outer loop
    vertex -0.091533 0.000000 0.163640
    vertex -0.036750 0.000000 0.063653
    vertex -0.077890 0.000000 0.170556
  endloop
endfacet
facet normal 0.000000 -0.001097 0.000000
  outer loop
    vertex -0.077890 0.000000 0.170556
    vertex -0.036750 0.000000 0.063653
    vertex -0.028127 0.000000 0.067905
  endloop
endfacet
facet normal 0.000000 -0.001741 0.000000
  outer loop
    vertex -0.077890 0.000000 0.170556
    vertex -0.028127 0.000000 0.067905
    vertex -0.063729 0.000000 0.176337
  endloop
endfacet
facet normal 0.000000 -0.001097 0.000000
  outer loop
    vertex -0.063729 0.000000 0.176337
    vertex -0.028127 0.000000 0.067905
    vertex -0.019023 0.000000 0.070996
  endloop
endfacet
facet normal 0.000000 -0.001742 0.000000
  outer loop
    vertex -0.063729 0.000000 0.176337
    vertex -0.019023 0.000000 0.070996
    vertex -0.049144 0.000000 0.180945
  endloop
endfacet
facet normal 0.000000 -0.001742 0.000000
  outer loop
    vertex -0.049144 0.000000 0.180945
    vertex -0.019023 0.000000 0.070996
    vertex -0.034232 0.000000 0.184349
  endloop
endfacet
facet normal 0.000000 -0.001097 0.000000
  outer loop
    vertex -0.034232 0.000000 0.184349
    vertex -0.019023 0.000000 0.070996
    vertex -0.009594 0.000000 0.072871
  endloop
endfacet
facet normal 0.000000 -0.001741 0.000000
  outer loop
    vertex -0.034232 0.000000 0.184349
    vertex -0.009594 0.000000 0.072871
    vertex -0.019092 0.000000 0.186525
  endloop
endfacet
facet normal 0.000000 -0.001096 0.000000
  outer loop
    vertex -0.019092 0.000000 0.186525
    vertex -0.009594 0.000000 0.072871
    vertex 0.000000 0.000000 0.073500
  endloop
endfacet
facet normal 0.000000 -0.001743 0.000000
  outer loop
    vertex -0.019092 0.000000 0.186525
    vertex 0.000000 0.000000 0.073500
    vertex -0.003825 0.000000 0.187461
  endloop
endfacet
facet normal 0.000000 -0.001742 0.000000
  outer loop
    vertex -0.003825 0.000000 0.187461
    vertex 0.000000 0.000000 0.073500
    vertex 0.011468 0.000000 0.187149
  endloop
endfacet
facet normal 0.000000 -0.001098 0.000000
  outer loop
    vertex 0.011468 0.000000 0.187149
    vertex 0.000000 0.000000 0.073500
    vertex 0.009594 0.000000 0.072871
  endloop
endfacet
facet normal 0.000000 -0.001742 -0.000000
  outer loop
    vertex 0.011468 0.000000 0.187149
    vertex 0.009594 0.000000 0.072871
    vertex 0.026684 0.000000 0.185592
  endloop
endfacet
facet normal 0.000000 -0.001743 -0.000000
  outer loop
    vertex 0.026684 0.000000 0.185592
    vertex 0.009594 0.000000 0.072871
    vertex 0.041723 0.000000 0.182799
  endloop
endfacet
facet normal 0.000000 -0.001097 0.000000
  outer loop
    vertex 0.041723 0.000000 0.182799
    vertex 0.009594 0.000000 0.072871
    vertex 0.019023 0.000000 0.070996
  endloop
endfacet
facet normal 0.000000 -0.001741 -0.000000
  outer loop
    vertex 0.041723 0.000000 0.182799
    vertex 0.019023 0.000000 0.070996
    vertex 0.056484 0.000000 0.178790
  endloop
endfacet
facet normal 0.000000 -0.001097 0.000000
  outer loop
    vertex 0.056484 0.000000 0.178790
    vertex 0.019023 0.000000 0.070996
    vertex 0.028127 0.000000 0.067905
  endloop
endfacet
facet normal 0.000000 -0.001743 -0.000000
  outer loop
    vertex 0.056484 0.000000 0.178790
    vertex 0.028127 0.000000 0.067905
    vertex 0.070869 0.000000 0.173591
  endloop
endfacet
facet normal 0.000000 -0.001742 -0.000000
  outer loop
    vertex 0.070869 0.000000 0.173591
    vertex 0.028127 0.000000 0.067905
    vertex 0.084782 0.000000 0.167237
  endloop
endfacet
facet normal 0.000000 -0.001097 0.000000
  outer loop
    vertex 0.084782 0.000000 0.167237
    vertex 0.028127 0.000000 0.067905
    vertex 0.036750 0.000000 0.063653
  endloop
endfacet
facet normal 0.000000 -0.001741 -0.000000
  outer loop
    vertex 0.084782 0.000000 0.167237
    vertex 0.036750 0.000000 0.063653
    vertex 0.098132 0.000000 0.159770
  endloop
endfacet
facet normal 0.000000 -0.001096 0.000000
  outer loop
    vertex 0.098132 0.000000 0.159770
    vertex 0.036750 0.000000 0.063653
    vertex 0.044744 0.000000 0.058311
  endloop
endfacet
facet normal 0.000000 -0.001744 -0.000000
  outer loop
    vertex 0.098132 0.000000 0.159770
    vertex 0.044744 0.000000 0.058311
    vertex 0.110828 0.000000 0.151240
  endloop
endfacet
facet normal 0.000000 -0.001742 -0.000000
  outer loop
    vertex 0.110828 0.000000 0.151240
    vertex 0.044744 0.000000 0.058311
    vertex 0.122786 0.000000 0.141703
  endloop
endfacet
facet normal 0.000000 -0.001098 0.000000
  outer loop
    vertex 0.122786 0.000000 0.141703
    vertex 0.044744 0.000000 0.058311
    vertex 0.051972 0.000000 0.051972
  endloop
endfacet
facet normal 0.000000 -0.001742 -0.000000
  outer loop
    vertex 0.122786 0.000000 0.141703
    vertex 0.051972 0.000000 0.051972
    vertex 0.133928 0.000000 0.131223
  endloop
endfacet
facet normal 0.000000 -0.001743 -0.000000
  outer loop
    vertex 0.133928 0.000000 0.131223
    vertex 0.051972 0.000000 0.051972
    vertex 0.144178 0.000000 0.119870
  endloop
endfacet
facet normal 0.000000 -0.001097 0.000000
  outer loop
    vertex 0.144178 0.000000 0.119870
    vertex 0.051972 0.000000 0.051972
    vertex 0.058311 0.000000 0.044744
  endloop
endfacet
facet normal 0.000000 -0.001741 -0.000000
  outer loop
    vertex 0.144178 0.000000 0.119870
    vertex 0.058311 0.000000 0.044744
    vertex 0.153469 0.000000 0.107720
  endloop
endfacet
facet normal 0.000000 -0.001097 0.000000
  outer loop
    vertex 0.153469 0.000000 0.107720
    vertex 0.058311 0.000000 0.044744
    vertex 0.063653 0.000000 0.036750
  endloop
endfacet
facet normal 0.000000 -0.001743 -0.000000
  outer loop
    vertex 0.153469 0.000000 0.107720
    vertex 0.063653 0.000000 0.036750
    vertex 0.161739 0.000000 0.094852
  endloop
endfacet
facet normal 0.000000 -0.001742 -0.000000
  outer loop
    vertex 0.161739 0.000000 0.094852
    vertex 0.063653 0.000000 0.036750
    vertex 0.168932 0.000000 0.081353
  endloop
endfacet
facet normal 0.000000 -0.001097 0.000000
  outer loop
    vertex 0.168932 0.000000 0.081353
    vertex 0.063653 0.000000 0.036750
    vertex 0.067905 0.000000 0.028127
  endloop
endfacet
facet normal 0.000000 -0.001741 -0.000000
  outer loop
    vertex 0.168932 0.000000 0.081353
    vertex 0.067905 0.000000 0.028127
    vertex 0.175001 0.000000 0.067313
  endloop
endfacet
facet normal 0.000000 -0.001096 0.000000
  outer loop
    vertex 0.175001 0.000000 0.067313
    vertex 0.067905 0.000000 0.028127
    vertex 0.070996 0.000000 0.019023
  endloop
endfacet
facet normal 0.000000 -0.001744 -0.000000
  outer loop
    vertex 0.175001 0.000000 0.067313
    vertex 0.070996 0.000000 0.019023
    vertex 0.179905 0.000000 0.052825
  endloop
endfacet
facet normal 0.000000 -0.001741 -0.000000
  outer loop
    vertex 0.179905 0.000000 0.052825
    vertex 0.070996 0.000000 0.019023
    vertex 0.183612 0.000000 0.037985
  endloop
endfacet
facet normal 0.000000 -0.001097 0.000000
  outer loop
    vertex 0.183612 0.000000 0.037985
    vertex 0.070996 0.000000 0.019023
    vertex 0.072871 0.000000 0.009594
  endloop
endfacet
facet normal 0.000000 -0.001742 -0.000000
  outer loop
    vertex 0.183612 0.000000 0.037985
    vertex 0.072871 0.000000 0.009594
    vertex 0.186097 0.000000 0.022893
  endloop
endfacet
facet normal 0.000000 -0.001743 -0.000000
  outer loop
    vertex 0.186097 0.000000 0.022893
    vertex 0.072871 0.000000 0.009594
    vertex 0.187344 0.000000 0.007648
  endloop
endfacet
facet normal -0.000000 -0.001097 0.000000
  outer loop
    vertex 0.187344 0.000000 0.007648
    vertex 0.072871 0.000000 0.009594
    vertex 0.073500 0.000000 0.000000
  endloop
endfacet
facet normal 0.000000 -0.001741 -0.000000
  outer loop
    vertex 0.187344 0.000000 0.007648
    vertex 0.073500 0.000000 0.000000
    vertex 0.187344 0.000000 -0.007648
  endloop
endfacet
facet normal -0.000000 -0.001097 0.000000
  outer loop
    vertex 0.187344 0.000000 -0.007648
    vertex 0.073500 0.000000 0.000000
    vertex 0.072871 0.000000 -0.009594
  endloop
endfacet
facet normal 0.000000 -0.001743 0.000000
  outer loop
    vertex 0.187344 0.000000 -0.007648
    vertex 0.072871 0.000000 -0.009594
    vertex 0.186097 0.000000 -0.022893
  endloop
endfacet
facet normal -0.000000 -0.001742 0.000000
  outer loop
    vertex 0.186097 0.000000 -0.022893
    vertex 0.072871 0.000000 -0.009594
    vertex 0.183612 0.000000 -0.037985
  endloop
endfacet
facet normal 0.000000 -0.001097 0.000000
  outer loop
    vertex 0.183612 0.000000 -0.037985
    vertex 0.072871 0.000000 -0.009594
    vertex 0.070996 0.000000 -0.019023
  endloop
endfacet
facet normal -0.000000 -0.001741 0.000000
  outer loop
    vertex 0.183612 0.000000 -0.037985
    vertex 0.070996 0.000000 -0.019023
    vertex 0.179905 0.000000 -0.052825
  endloop
endfacet
facet normal -0.000000 -0.001744 0.000000
  outer loop
    vertex 0.179905 0.000000 -0.052825
    vertex 0.070996 0.000000 -0.019023
    vertex 0.175001 0.000000 -0.067313
  endloop
endfacet
facet normal 0.000000 -0.001096 0.000000
  outer loop
    vertex 0.175001 0.000000 -0.067313
    vertex 0.070996 0.000000 -0.019023
    vertex 0.067905 0.000000 -0.028127
  endloop
endfacet
facet normal -0.000000 -0.001741 0.000000
  outer loop
    vertex 0.175001 0.000000 -0.067313
    vertex 0.067905 0.000000 -0.028127
    vertex 0.168932 0.000000 -0.081353
  endloop
endfacet
facet normal 0.000000 -0.001097 0.000000
  outer loop
    vertex 0.168932 0.000000 -0.081353
    vertex 0.067905 0.000000 -0.028127
    vertex 0.063653 0.000000 -0.036750
  endloop
endfacet
facet normal -0.000000 -0.001742 0.000000
  outer loop
    vertex 0.168932 0.000000 -0.081353
    vertex 0.063653 0.000000 -0.036750
    vertex 0.161739 0.000000 -0.094852
  endloop
endfacet
facet normal -0.000000 -0.001743 0.000000
  outer loop
    vertex 0.161739 0.000000 -0.094852
    vertex 0.063653 0.000000 -0.036750
    vertex 0.153469 0.000000 -0.107720
  endloop
endfacet
facet normal 0.000000 -0.001097 0.000000
  outer loop
    vertex 0.153469 0.000000 -0.107720
    vertex 0.063653 0.000000 -0.036750
    vertex 0.058311 0.000000 -0.044744
  endloop
endfacet
facet normal -0.000000 -0.001741 0.000000
  outer loop
    vertex 0.153469 0.000000 -0.107720
    vertex 0.058311 0.000000 -0.044744
    vertex 0.144178 0.000000 -0.119870
  endloop
endfacet
facet normal 0.000000 -0.001097 0.000000
  outer loop
    vertex 0.144178 0.000000 -0.119870
    vertex 0.058311 0.000000 -0.044744
    vertex 0.051972 0.000000 -0.051972
  endloop
endfacet
facet normal -0.000000 -0.001743 0.000000
  outer loop
    vertex 0.144178 0.000000 -0.119870
    vertex 0.051972 0.000000 -0.051972
    vertex 0.133928 0.000000 -0.131223
  endloop
endfacet
facet normal -0.000000 -0.001742 0.000000
  outer loop
    vertex 0.133928 0.000000 -0.131223
    vertex 0.051972 0.000000 -0.051972
    vertex 0.122786 0.000000 -0.141703
  endloop
endfacet
facet normal 0.000000 -0.001098 0.000000
  outer loop
    vertex 0.122786 0.000000 -0.141703
    vertex 0.051972 0.000000 -0.051972
    vertex 0.044744 0.000000 -0.058311
  endloop
endfacet
facet normal -0.000000 -0.001742 0.000000
  outer loop
    vertex 0.122786 0.000000 -0.141703
    vertex 0.044744 0.000000 -0.058311
    vertex 0.110828 0.000000 -0.151240
  endloop
endfacet
facet normal -0.000000 -0.001744 0.000000
  outer loop
    vertex 0.110828 0.000000 -0.151240
    vertex 0.044744 0.000000 -0.058311
    vertex 0.098132 0.000000 -0.159770
  endloop
endfacet
facet normal 0.000000 -0.001096 0.000000
  outer loop
    vertex 0.098132 0.000000 -0.159770
    vertex 0.044744 0.000000 -0.058311
    vertex 0.036750 0.000000 -0.063653
  endloop
endfacet
facet normal -0.000000 -0.001741 0.000000
  outer loop
    vertex 0.098132 0.000000 -0.159770
    vertex 0.036750 0.000000 -0.063653
    vertex 0.084782 0.000000 -0.167237
  endloop
endfacet
facet normal 0.000000 -0.001097 0.000000
  outer loop
    vertex 0.084782 0.000000 -0.167237
    vertex 0.036750 0.000000 -0.063653
    vertex 0.028127 0.000000 -0.067905
  endloop
endfacet
facet normal -0.000000 -0.001742 0.000000
  outer loop
    vertex 0.084782 0.000000 -0.167237
    vertex 0.028127 0.000000 -0.067905
    vertex 0.070869 0.000000 -0.173591
  endloop
endfacet
facet normal -0.000000 -0.001743 0.000000
  outer loop
    vertex 0.070869 0.000000 -0.173591
    vertex 0.028127 0.000000 -0.067905
    vertex 0.056484 0.000000 -0.178790
  endloop
endfacet
facet normal 0.000000 -0.001097 0.000000
  outer loop
    vertex 0.056484 0.000000 -0.178790
    vertex 0.028127 0.000000 -0.067905
    vertex 0.019023 0.000000 -0.070996
  endloop
endfacet
facet normal -0.000000 -0.001741 0.000000
  outer loop
    vertex 0.056484 0.000000 -0.178790
    vertex 0.019023 0.000000 -0.070996
    vertex 0.041723 0.000000 -0.182799
  endloop
endfacet
facet normal 0.000000 -0.001097 0.000000
  outer loop
    vertex 0.041723 0.000000 -0.182799
    vertex 0.019023 0.000000 -0.070996
    vertex 0.009594 0.000000 -0.072871
  endloop
endfacet
facet normal -0.000000 -0.001743 0.000000
  outer loop
    vertex 0.041723 0.000000 -0.182799
    vertex 0.009594 0.000000 -0.072871
    vertex 0.026684 0.000000 -0.185592
  endloop
endfacet
facet normal -0.000000 -0.001742 0.000000
  outer loop
    vertex 0.026684 0.000000 -0.185592
    vertex 0.009594 0.000000 -0.072871
    vertex 0.011468 0.000000 -0.187149
  endloop
endfacet
facet normal 0.000000 -0.001098 0.000000
  outer loop
    vertex 0.011468 0.000000 -0.187149
    vertex 0.009594 0.000000 -0.072871
    vertex 0.000000 0.000000 -0.073500
  endloop
endfacet
facet normal -0.000000 -0.001742 0.000000
  outer loop
    vertex 0.011468 0.000000 -0.187149
    vertex 0.000000 0.000000 -0.073500
    vertex -0.003825 0.000000 -0.187461
  endloop
endfacet
facet normal 0.000000 -0.001743 0.000000
  outer loop
    vertex -0.003825 0.000000 -0.187461
    vertex 0.000000 0.000000 -0.073500
    vertex -0.019092 0.000000 -0.186525
  endloop
endfacet
facet normal 0.000000 -0.001096 0.000000
  outer loop
    vertex -0.019092 0.000000 -0.186525
    vertex 0.000000 0.000000 -0.073500
    vertex -0.009594 0.000000 -0.072871
  endloop
endfacet
facet normal 0.000000 -0.001741 0.000000
  outer loop
    vertex -0.019092 0.000000 -0.186525
    vertex -0.009594 0.000000 -0.072871
    vertex -0.034232 0.000000 -0.184349
  endloop
endfacet
facet normal 0.000000 -0.001097 0.000000
  outer loop
    vertex -0.034232 0.000000 -0.184349
    vertex -0.009594 0.000000 -0.072871
    vertex -0.019023 0.000000 -0.070996
  endloop
endfacet
facet normal 0.000000 -0.001742 0.000000
  outer loop
    vertex -0.034232 0.000000 -0.184349
    vertex -0.019023 0.000000 -0.070996
    vertex -0.049144 0.000000 -0.180945
  endloop
endfacet
facet normal 0.000000 -0.001742 0.000000
  outer loop
    vertex -0.049144 0.000000 -0.180945
    vertex -0.019023 0.000000 -0.070996
    vertex -0.063729 0.000000 -0.176337
  endloop
endfacet
facet normal 0.000000 -0.001097 0.000000
  outer loop
    vertex -0.063729 0.000000 -0.176337
    vertex -0.019023 0.000000 -0.070996
    vertex -0.028127 0.000000 -0.067905
  endloop
endfacet
facet normal 0.000000 -0.001741 0.000000
  outer loop
    vertex -0.063729 0.000000 -0.176337
    vertex -0.028127 0.000000 -0.067905
    vertex -0.077890 0.000000 -0.170556
  endloop
endfacet
facet normal 0.000000 -0.001097 0.000000
  outer loop
    vertex -0.077890 0.000000 -0.170556
    vertex -0.028127 0.000000 -0.067905
    vertex -0.036750 0.000000 -0.063653
  endloop
endfacet
facet normal 0.000000 -0.001743 0.000000
  outer loop
    vertex -0.077890 0.000000 -0.170556
    vertex -0.036750 0.000000 -0.063653
    vertex -0.091533 0.000000 -0.163640
  endloop
endfacet
facet normal 0.000000 -0.001742 0.000000
  outer loop
    vertex -0.091533 0.000000 -0.163640
    vertex -0.036750 0.000000 -0.063653
    vertex -0.104567 0.000000 -0.155634
  endloop
endfacet
facet normal 0.000000 -0.001098 0.000000
  outer loop
    vertex -0.104567 0.000000 -0.155634
    vertex -0.036750 0.000000 -0.063653
    vertex -0.044744 0.000000 -0.058311
  endloop
endfacet
facet normal 0.000000 -0.001742 0.000000
  outer loop
    vertex -0.104567 0.000000 -0.155634
    vertex -0.044744 0.000000 -0.058311
    vertex -0.116904 0.000000 -0.146593
  endloop
endfacet
facet normal 0.000000 -0.001743 0.000000
  outer loop
    vertex -0.116904 0.000000 -0.146593
    vertex -0.044744 0.000000 -0.058311
    vertex -0.128464 0.000000 -0.136577
  endloop
endfacet
facet normal 0.000000 -0.001096 0.000000
  outer loop
    vertex -0.128464 0.000000 -0.136577
    vertex -0.044744 0.000000 -0.058311
    vertex -0.051972 0.000000 -0.051972
  endloop
endfacet
facet normal 0.000000 -0.001741 0.000000
  outer loop
    vertex -0.128464 0.000000 -0.136577
    vertex -0.051972 0.000000 -0.051972
    vertex -0.139169 0.000000 -0.125651
  endloop
endfacet
facet normal 0.000000 -0.001097 0.000000
  outer loop
    vertex -0.139169 0.000000 -0.125651
    vertex -0.051972 0.000000 -0.051972
    vertex -0.058311 0.000000 -0.044744
  endloop
endfacet
facet normal 0.000000 -0.001742 0.000000
  outer loop
    vertex -0.139169 0.000000 -0.125651
    vertex -0.058311 0.000000 -0.044744
    vertex -0.148948 0.000000 -0.113890
  endloop
endfacet
facet normal 0.000000 -0.001742 0.000000
  outer loop
    vertex -0.148948 0.000000 -0.113890
    vertex -0.058311 0.000000 -0.044744
    vertex -0.157735 0.000000 -0.101370
  endloop
endfacet
facet normal 0.000000 -0.001097 0.000000
  outer loop
    vertex -0.157735 0.000000 -0.101370
    vertex -0.058311 0.000000 -0.044744
    vertex -0.063653 0.000000 -0.036750
  endloop
endfacet
facet normal 0.000000 -0.001741 0.000000
  outer loop
    vertex -0.157735 0.000000 -0.101370
    vertex -0.063653 0.000000 -0.036750
    vertex -0.165473 0.000000 -0.088176
  endloop
endfacet
facet normal 0.000000 -0.001097 0.000000
  outer loop
    vertex -0.165473 0.000000 -0.088176
    vertex -0.063653 0.000000 -0.036750
    vertex -0.067905 0.000000 -0.028127
  endloop
endfacet
facet normal 0.000000 -0.001743 0.000000
  outer loop
    vertex -0.165473 0.000000 -0.088176
    vertex -0.067905 0.000000 -0.028127
    vertex -0.172109 0.000000 -0.074395
  endloop
endfacet
facet normal 0.000000 -0.001742 0.000000
  outer loop
    vertex -0.172109 0.000000 -0.074395
    vertex -0.067905 0.000000 -0.028127
    vertex -0.177601 0.000000 -0.060119
  endloop
endfacet
facet normal 0.000000 -0.001098 0.000000
  outer loop
    vertex -0.177601 0.000000 -0.060119
    vertex -0.067905 0.000000 -0.028127
    vertex -0.070996 0.000000 -0.019023
  endloop
endfacet
facet normal 0.000000 -0.001742 0.000000
  outer loop
    vertex -0.177601 0.000000 -0.060119
    vertex -0.070996 0.000000 -0.019023
    vertex -0.181910 0.000000 -0.045443
  endloop
endfacet
facet normal 0.000000 -0.001743 0.000000
  outer loop
    vertex -0.181910 0.000000 -0.045443
    vertex -0.070996 0.000000 -0.019023
    vertex -0.185009 0.000000 -0.030464
  endloop
endfacet
facet normal 0.000000 -0.001097 0.000000
  outer loop
    vertex -0.185009 0.000000 -0.030464
    vertex -0.070996 0.000000 -0.019023
    vertex -0.072871 0.000000 -0.009594
  endloop
endfacet
facet normal 0.000000 -0.001741 0.000000
  outer loop
    vertex -0.185009 0.000000 -0.030464
    vertex -0.072871 0.000000 -0.009594
    vertex -0.186876 0.000000 -0.015283
  endloop
endfacet
facet normal 0.000000 -0.001097 0.000000
  outer loop
    vertex -0.186876 0.000000 -0.015283
    vertex -0.072871 0.000000 -0.009594
    vertex -0.073500 0.000000 0.000000
  endloop
endfacet
endsolid 633af3b0-a060-4a5b-8f41-4623ab0258a4-ascii.stl
