solid 7f950b2b-fbaa-4cb3-8dcc-8e5546fbdc79-ascii.stl
facet normal 0.000500 0.000000 -0.000031
  outer loop
    vertex -0.078377 0.050500 0.009901
    vertex -0.078377 0.000000 0.009901
    vertex -0.079000 0.050500 0.000000
  endloop
endfacet
facet normal 0.000500 0.000000 -0.000031
  outer loop
    vertex -0.079000 0.050500 0.000000
    vertex -0.078377 0.000000 0.009901
    vertex -0.079000 0.000000 0.000000
  endloop
endfacet
facet normal 0.000500 0.000000 0.000031
  outer loop
    vertex -0.079000 0.050500 0.000000
    vertex -0.079000 0.000000 0.000000
    vertex -0.078377 0.050500 -0.009901
  endloop
endfacet
facet normal 0.000500 0.000000 0.000031
  outer loop
    vertex -0.078377 0.050500 -0.009901
    vertex -0.079000 0.000000 0.000000
    vertex -0.078377 0.000000 -0.009901
  endloop
endfacet
facet normal 0.000492 0.000000 0.000094
  outer loop
    vertex -0.078377 0.050500 -0.009901
    vertex -0.078377 0.000000 -0.009901
    vertex -0.076518 0.050500 -0.019647
  endloop
endfacet
facet normal 0.000492 0.000000 0.000094
  outer loop
    vertex -0.076518 0.050500 -0.019647
    vertex -0.078377 0.000000 -0.009901
    vertex -0.076518 0.000000 -0.019647
  endloop
endfacet
facet normal 0.000476 0.000000 0.000155
  outer loop
    vertex -0.076518 0.050500 -0.019647
    vertex -0.076518 0.000000 -0.019647
    vertex -0.073452 0.050500 -0.029082
  endloop
endfacet
facet normal 0.000476 0.000000 0.000155
  outer loop
    vertex -0.073452 0.050500 -0.029082
    vertex -0.076518 0.000000 -0.019647
    vertex -0.073452 0.000000 -0.029082
  endloop
endfacet
facet normal 0.000453 0.000000 0.000213
  outer loop
    vertex -0.073452 0.050500 -0.029082
    vertex -0.073452 0.000000 -0.029082
    vertex -0.069228 0.050500 -0.038059
  endloop
endfacet
facet normal 0.000453 0.000000 0.000213
  outer loop
    vertex -0.069228 0.050500 -0.038059
    vertex -0.073452 0.000000 -0.029082
    vertex -0.069228 0.000000 -0.038059
  endloop
endfacet
facet normal 0.000423 0.000000 0.000268
  outer loop
    vertex -0.069228 0.050500 -0.038059
    vertex -0.069228 0.000000 -0.038059
    vertex -0.063912 0.050500 -0.046435
  endloop
endfacet
facet normal 0.000423 0.000000 0.000268
  outer loop
    vertex -0.063912 0.050500 -0.046435
    vertex -0.069228 0.000000 -0.038059
    vertex -0.063912 0.000000 -0.046435
  endloop
endfacet
facet normal 0.000386 0.000000 0.000319
  outer loop
    vertex -0.063912 0.050500 -0.046435
    vertex -0.063912 0.000000 -0.046435
    vertex -0.057589 0.050500 -0.054079
  endloop
endfacet
facet normal 0.000386 0.000000 0.000319
  outer loop
    vertex -0.057589 0.050500 -0.054079
    vertex -0.063912 0.000000 -0.046435
    vertex -0.057589 0.000000 -0.054079
  endloop
endfacet
facet normal 0.000343 0.000000 0.000365
  outer loop
    vertex -0.057589 0.050500 -0.054079
    vertex -0.057589 0.000000 -0.054079
    vertex -0.050356 0.050500 -0.060871
  endloop
endfacet
facet normal 0.000343 0.000000 0.000365
  outer loop
    vertex -0.050356 0.050500 -0.060871
    vertex -0.057589 0.000000 -0.054079
    vertex -0.050356 0.000000 -0.060871
  endloop
endfacet
facet normal 0.000294 0.000000 0.000405
  outer loop
    vertex -0.050356 0.050500 -0.060871
    vertex -0.050356 0.000000 -0.060871
    vertex -0.042330 0.050500 -0.066702
  endloop
endfacet
facet normal 0.000294 0.000000 0.000405
  outer loop
    vertex -0.042330 0.050500 -0.066702
    vertex -0.050356 0.000000 -0.060871
    vertex -0.042330 0.000000 -0.066702
  endloop
endfacet
facet normal 0.000241 0.000000 0.000439
  outer loop
    vertex -0.042330 0.050500 -0.066702
    vertex -0.042330 0.000000 -0.066702
    vertex -0.033637 0.050500 -0.071481
  endloop
endfacet
facet normal 0.000241 0.000000 0.000439
  outer loop
    vertex -0.033637 0.050500 -0.071481
    vertex -0.042330 0.000000 -0.066702
    vertex -0.033637 0.000000 -0.071481
  endloop
endfacet
facet normal 0.000184 0.000000 0.000466
  outer loop
    vertex -0.033637 0.050500 -0.071481
    vertex -0.033637 0.000000 -0.071481
    vertex -0.024412 0.050500 -0.075133
  endloop
endfacet
facet normal 0.000184 0.000000 0.000466
  outer loop
    vertex -0.024412 0.050500 -0.075133
    vertex -0.033637 0.000000 -0.071481
    vertex -0.024412 0.000000 -0.075133
  endloop
endfacet
facet normal 0.000125 0.000000 0.000485
  outer loop
    vertex -0.024412 0.050500 -0.075133
    vertex -0.024412 0.000000 -0.075133
    vertex -0.014803 0.050500 -0.077601
  endloop
endfacet
facet normal 0.000125 0.000000 0.000485
  outer loop
    vertex -0.014803 0.050500 -0.077601
    vertex -0.024412 0.000000 -0.075133
    vertex -0.014803 0.000000 -0.077601
  endloop
endfacet
facet normal 0.000063 0.000000 0.000497
  outer loop
    vertex -0.014803 0.050500 -0.077601
    vertex -0.014803 0.000000 -0.077601
    vertex -0.004960 0.050500 -0.078844
  endloop
endfacet
facet normal 0.000063 0.000000 0.000497
  outer loop
    vertex -0.004960 0.050500 -0.078844
    vertex -0.014803 0.000000 -0.077601
    vertex -0.004960 0.000000 -0.078844
  endloop
endfacet
facet normal -0.000000 0.000000 0.000501
  outer loop
    vertex -0.004960 0.050500 -0.078844
    vertex -0.004960 0.000000 -0.078844
    vertex 0.004960 0.050500 -0.078844
  endloop
endfacet
facet normal 0.000000 0.000000 0.000501
  outer loop
    vertex 0.004960 0.050500 -0.078844
    vertex -0.004960 0.000000 -0.078844
    vertex 0.004960 0.000000 -0.078844
  endloop
endfacet
facet normal -0.000063 0.000000 0.000497
  outer loop
    vertex 0.004960 0.050500 -0.078844
    vertex 0.004960 0.000000 -0.078844
    vertex 0.014803 0.050500 -0.077601
  endloop
endfacet
facet normal -0.000063 0.000000 0.000497
  outer loop
    vertex 0.014803 0.050500 -0.077601
    vertex 0.004960 0.000000 -0.078844
    vertex 0.014803 0.000000 -0.077601
  endloop
endfacet
facet normal -0.000125 0.000000 0.000485
  outer loop
    vertex 0.014803 0.050500 -0.077601
    vertex 0.014803 0.000000 -0.077601
    vertex 0.024412 0.050500 -0.075133
  endloop
endfacet
facet normal -0.000125 0.000000 0.000485
  outer loop
    vertex 0.024412 0.050500 -0.075133
    vertex 0.014803 0.000000 -0.077601
    vertex 0.024412 0.000000 -0.075133
  endloop
endfacet
facet normal -0.000184 0.000000 0.000466
  outer loop
    vertex 0.024412 0.050500 -0.075133
    vertex 0.024412 0.000000 -0.075133
    vertex 0.033637 0.050500 -0.071481
  endloop
endfacet
facet normal -0.000184 0.000000 0.000466
  outer loop
    vertex 0.033637 0.050500 -0.071481
    vertex 0.024412 0.000000 -0.075133
    vertex 0.033637 0.000000 -0.071481
  endloop
endfacet
facet normal -0.000241 0.000000 0.000439
  outer loop
    vertex 0.033637 0.050500 -0.071481
    vertex 0.033637 0.000000 -0.071481
    vertex 0.042330 0.050500 -0.066702
  endloop
endfacet
facet normal -0.000241 0.000000 0.000439
  outer loop
    vertex 0.042330 0.050500 -0.066702
    vertex 0.033637 0.000000 -0.071481
    vertex 0.042330 0.000000 -0.066702
  endloop
endfacet
facet normal -0.000294 0.000000 0.000405
  outer loop
    vertex 0.042330 0.050500 -0.066702
    vertex 0.042330 0.000000 -0.066702
    vertex 0.050356 0.050500 -0.060871
  endloop
endfacet
facet normal -0.000294 0.000000 0.000405
  outer loop
    vertex 0.050356 0.050500 -0.060871
    vertex 0.042330 0.000000 -0.066702
    vertex 0.050356 0.000000 -0.060871
  endloop
endfacet
facet normal -0.000343 0.000000 0.000365
  outer loop
    vertex 0.050356 0.050500 -0.060871
    vertex 0.050356 0.000000 -0.060871
    vertex 0.057589 0.050500 -0.054079
  endloop
endfacet
facet normal -0.000343 0.000000 0.000365
  outer loop
    vertex 0.057589 0.050500 -0.054079
    vertex 0.050356 0.000000 -0.060871
    vertex 0.057589 0.000000 -0.054079
  endloop
endfacet
facet normal -0.000386 0.000000 0.000319
  outer loop
    vertex 0.057589 0.050500 -0.054079
    vertex 0.057589 0.000000 -0.054079
    vertex 0.063912 0.050500 -0.046435
  endloop
endfacet
facet normal -0.000386 0.000000 0.000319
  outer loop
    vertex 0.063912 0.050500 -0.046435
    vertex 0.057589 0.000000 -0.054079
    vertex 0.063912 0.000000 -0.046435
  endloop
endfacet
facet normal -0.000423 0.000000 0.000268
  outer loop
    vertex 0.063912 0.050500 -0.046435
    vertex 0.063912 0.000000 -0.046435
    vertex 0.069228 0.050500 -0.038059
  endloop
endfacet
facet normal -0.000423 0.000000 0.000268
  outer loop
    vertex 0.069228 0.050500 -0.038059
    vertex 0.063912 0.000000 -0.046435
    vertex 0.069228 0.000000 -0.038059
  endloop
endfacet
facet normal -0.000453 0.000000 0.000213
  outer loop
    vertex 0.069228 0.050500 -0.038059
    vertex 0.069228 0.000000 -0.038059
    vertex 0.073452 0.050500 -0.029082
  endloop
endfacet
facet normal -0.000453 0.000000 0.000213
  outer loop
    vertex 0.073452 0.050500 -0.029082
    vertex 0.069228 0.000000 -0.038059
    vertex 0.073452 0.000000 -0.029082
  endloop
endfacet
facet normal -0.000476 0.000000 0.000155
  outer loop
    vertex 0.073452 0.050500 -0.029082
    vertex 0.073452 0.000000 -0.029082
    vertex 0.076518 0.050500 -0.019647
  endloop
endfacet
facet normal -0.000476 0.000000 0.000155
  outer loop
    vertex 0.076518 0.050500 -0.019647
    vertex 0.073452 0.000000 -0.029082
    vertex 0.076518 0.000000 -0.019647
  endloop
endfacet
facet normal -0.000492 0.000000 0.000094
  outer loop
    vertex 0.076518 0.050500 -0.019647
    vertex 0.076518 0.000000 -0.019647
    vertex 0.078377 0.050500 -0.009901
  endloop
endfacet
facet normal -0.000492 0.000000 0.000094
  outer loop
    vertex 0.078377 0.050500 -0.009901
    vertex 0.076518 0.000000 -0.019647
    vertex 0.078377 0.000000 -0.009901
  endloop
endfacet
facet normal -0.000500 0.000000 0.000031
  outer loop
    vertex 0.078377 0.050500 -0.009901
    vertex 0.078377 0.000000 -0.009901
    vertex 0.079000 0.050500 0.000000
  endloop
endfacet
facet normal -0.000500 0.000000 0.000031
  outer loop
    vertex 0.079000 0.050500 0.000000
    vertex 0.078377 0.000000 -0.009901
    vertex 0.079000 0.000000 0.000000
  endloop
endfacet
facet normal -0.000500 -0.000000 -0.000031
  outer loop
    vertex 0.079000 0.050500 0.000000
    vertex 0.079000 0.000000 0.000000
    vertex 0.078377 0.050500 0.009901
  endloop
endfacet
facet normal -0.000500 -0.000000 -0.000031
  outer loop
    vertex 0.078377 0.050500 0.009901
    vertex 0.079000 0.000000 0.000000
    vertex 0.078377 0.000000 0.009901
  endloop
endfacet
facet normal -0.000492 -0.000000 -0.000094
  outer loop
    vertex 0.078377 0.050500 0.009901
    vertex 0.078377 0.000000 0.009901
    vertex 0.076518 0.050500 0.019647
  endloop
endfacet
facet normal -0.000492 -0.000000 -0.000094
  outer loop
    vertex 0.076518 0.050500 0.019647
    vertex 0.078377 0.000000 0.009901
    vertex 0.076518 0.000000 0.019647
  endloop
endfacet
facet normal -0.000476 -0.000000 -0.000155
  outer loop
    vertex 0.076518 0.050500 0.019647
    vertex 0.076518 0.000000 0.019647
    vertex 0.073452 0.050500 0.029082
  endloop
endfacet
facet normal -0.000476 -0.000000 -0.000155
  outer loop
    vertex 0.073452 0.050500 0.029082
    vertex 0.076518 0.000000 0.019647
    vertex 0.073452 0.000000 0.029082
  endloop
endfacet
facet normal -0.000453 -0.000000 -0.000213
  outer loop
    vertex 0.073452 0.050500 0.029082
    vertex 0.073452 0.000000 0.029082
    vertex 0.069228 0.050500 0.038059
  endloop
endfacet
facet normal -0.000453 -0.000000 -0.000213
  outer loop
    vertex 0.069228 0.050500 0.038059
    vertex 0.073452 0.000000 0.029082
    vertex 0.069228 0.000000 0.038059
  endloop
endfacet
facet normal -0.000423 -0.000000 -0.000268
  outer loop
    vertex 0.069228 0.050500 0.038059
    vertex 0.069228 0.000000 0.038059
    vertex 0.063912 0.050500 0.046435
  endloop
endfacet
facet normal -0.000423 -0.000000 -0.000268
  outer loop
    vertex 0.063912 0.050500 0.046435
    vertex 0.069228 0.000000 0.038059
    vertex 0.063912 0.000000 0.046435
  endloop
endfacet
facet normal -0.000386 -0.000000 -0.000319
  outer loop
    vertex 0.063912 0.050500 0.046435
    vertex 0.063912 0.000000 0.046435
    vertex 0.057589 0.050500 0.054079
  endloop
endfacet
facet normal -0.000386 -0.000000 -0.000319
  outer loop
    vertex 0.057589 0.050500 0.054079
    vertex 0.063912 0.000000 0.046435
    vertex 0.057589 0.000000 0.054079
  endloop
endfacet
facet normal -0.000343 -0.000000 -0.000365
  outer loop
    vertex 0.057589 0.050500 0.054079
    vertex 0.057589 0.000000 0.054079
    vertex 0.050356 0.050500 0.060871
  endloop
endfacet
facet normal -0.000343 -0.000000 -0.000365
  outer loop
    vertex 0.050356 0.050500 0.060871
    vertex 0.057589 0.000000 0.054079
    vertex 0.050356 0.000000 0.060871
  endloop
endfacet
facet normal -0.000294 -0.000000 -0.000405
  outer loop
    vertex 0.050356 0.050500 0.060871
    vertex 0.050356 0.000000 0.060871
    vertex 0.042330 0.050500 0.066702
  endloop
endfacet
facet normal -0.000294 -0.000000 -0.000405
  outer loop
    vertex 0.042330 0.050500 0.066702
    vertex 0.050356 0.000000 0.060871
    vertex 0.042330 0.000000 0.066702
  endloop
endfacet
facet normal -0.000241 -0.000000 -0.000439
  outer loop
    vertex 0.042330 0.050500 0.066702
    vertex 0.042330 0.000000 0.066702
    vertex 0.033637 0.050500 0.071481
  endloop
endfacet
facet normal -0.000241 -0.000000 -0.000439
  outer loop
    vertex 0.033637 0.050500 0.071481
    vertex 0.042330 0.000000 0.066702
    vertex 0.033637 0.000000 0.071481
  endloop
endfacet
facet normal -0.000184 -0.000000 -0.000466
  outer loop
    vertex 0.033637 0.050500 0.071481
    vertex 0.033637 0.000000 0.071481
    vertex 0.024412 0.050500 0.075133
  endloop
endfacet
facet normal -0.000184 -0.000000 -0.000466
  outer loop
    vertex 0.024412 0.050500 0.075133
    vertex 0.033637 0.000000 0.071481
    vertex 0.024412 0.000000 0.075133
  endloop
endfacet
facet normal -0.000125 -0.000000 -0.000485
  outer loop
    vertex 0.024412 0.050500 0.075133
    vertex 0.024412 0.000000 0.075133
    vertex 0.014803 0.050500 0.077601
  endloop
endfacet
facet normal -0.000125 -0.000000 -0.000485
  outer loop
    vertex 0.014803 0.050500 0.077601
    vertex 0.024412 0.000000 0.075133
    vertex 0.014803 0.000000 0.077601
  endloop
endfacet
facet normal -0.000063 -0.000000 -0.000497
  outer loop
    vertex 0.014803 0.050500 0.077601
    vertex 0.014803 0.000000 0.077601
    vertex 0.004960 0.050500 0.078844
  endloop
endfacet
facet normal -0.000063 -0.000000 -0.000497
  outer loop
    vertex 0.004960 0.050500 0.078844
    vertex 0.014803 0.000000 0.077601
    vertex 0.004960 0.000000 0.078844
  endloop
endfacet
facet normal -0.000000 -0.000000 -0.000501
  outer loop
    vertex 0.004960 0.050500 0.078844
    vertex 0.004960 0.000000 0.078844
    vertex -0.004960 0.050500 0.078844
  endloop
endfacet
facet normal 0.000000 0.000000 -0.000501
  outer loop
    vertex -0.004960 0.050500 0.078844
    vertex 0.004960 0.000000 0.078844
    vertex -0.004960 0.000000 0.078844
  endloop
endfacet
facet normal 0.000063 0.000000 -0.000497
  outer loop
    vertex -0.004960 0.050500 0.078844
    vertex -0.004960 0.000000 0.078844
    vertex -0.014803 0.050500 0.077601
  endloop
endfacet
facet normal 0.000063 0.000000 -0.000497
  outer loop
    vertex -0.014803 0.050500 0.077601
    vertex -0.004960 0.000000 0.078844
    vertex -0.014803 0.000000 0.077601
  endloop
endfacet
facet normal 0.000125 0.000000 -0.000485
  outer loop
    vertex -0.014803 0.050500 0.077601
    vertex -0.014803 0.000000 0.077601
    vertex -0.024412 0.050500 0.075133
  endloop
endfacet
facet normal 0.000125 0.000000 -0.000485
  outer loop
    vertex -0.024412 0.050500 0.075133
    vertex -0.014803 0.000000 0.077601
    vertex -0.024412 0.000000 0.075133
  endloop
endfacet
facet normal 0.000184 0.000000 -0.000466
  outer loop
    vertex -0.024412 0.050500 0.075133
    vertex -0.024412 0.000000 0.075133
    vertex -0.033637 0.050500 0.071481
  endloop
endfacet
facet normal 0.000184 0.000000 -0.000466
  outer loop
    vertex -0.033637 0.050500 0.071481
    vertex -0.024412 0.000000 0.075133
    vertex -0.033637 0.000000 0.071481
  endloop
endfacet
facet normal 0.000241 0.000000 -0.000439
  outer loop
    vertex -0.033637 0.050500 0.071481
    vertex -0.033637 0.000000 0.071481
    vertex -0.042330 0.050500 0.066702
  endloop
endfacet
facet normal 0.000241 0.000000 -0.000439
  outer loop
    vertex -0.042330 0.050500 0.066702
    vertex -0.033637 0.000000 0.071481
    vertex -0.042330 0.000000 0.066702
  endloop
endfacet
facet normal 0.000294 0.000000 -0.000405
  outer loop
    vertex -0.042330 0.050500 0.066702
    vertex -0.042330 0.000000 0.066702
    vertex -0.050356 0.050500 0.060871
  endloop
endfacet
facet normal 0.000294 0.000000 -0.000405
  outer loop
    vertex -0.050356 0.050500 0.060871
    vertex -0.042330 0.000000 0.066702
    vertex -0.050356 0.000000 0.060871
  endloop
endfacet
facet normal 0.000343 0.000000 -0.000365
  outer loop
    vertex -0.050356 0.050500 0.060871
    vertex -0.050356 0.000000 0.060871
    vertex -0.057589 0.050500 0.054079
  endloop
endfacet
facet normal 0.000343 0.000000 -0.000365
  outer loop
    vertex -0.057589 0.050500 0.054079
    vertex -0.050356 0.000000 0.060871
    vertex -0.057589 0.000000 0.054079
  endloop
endfacet
facet normal 0.000386 0.000000 -0.000319
  outer loop
    vertex -0.057589 0.050500 0.054079
    vertex -0.057589 0.000000 0.054079
    vertex -0.063912 0.050500 0.046435
  endloop
endfacet
facet normal 0.000386 0.000000 -0.000319
  outer loop
    vertex -0.063912 0.050500 0.046435
    vertex -0.057589 0.000000 0.054079
    vertex -0.063912 0.000000 0.046435
  endloop
endfacet
facet normal 0.000423 0.000000 -0.000268
  outer loop
    vertex -0.063912 0.050500 0.046435
    vertex -0.063912 0.000000 0.046435
    vertex -0.069228 0.050500 0.038059
  endloop
endfacet
facet normal 0.000423 0.000000 -0.000268
  outer loop
    vertex -0.069228 0.050500 0.038059
    vertex -0.063912 0.000000 0.046435
    vertex -0.069228 0.000000 0.038059
  endloop
endfacet
facet normal 0.000453 0.000000 -0.000213
  outer loop
    vertex -0.069228 0.050500 0.038059
    vertex -0.069228 0.000000 0.038059
    vertex -0.073452 0.050500 0.029082
  endloop
endfacet
facet normal 0.000453 0.000000 -0.000213
  outer loop
    vertex -0.073452 0.050500 0.029082
    vertex -0.069228 0.000000 0.038059
    vertex -0.073452 0.000000 0.029082
  endloop
endfacet
facet normal 0.000476 0.000000 -0.000155
  outer loop
    vertex -0.073452 0.050500 0.029082
    vertex -0.073452 0.000000 0.029082
    vertex -0.076518 0.050500 0.019647
  endloop
endfacet
facet normal 0.000476 0.000000 -0.000155
  outer loop
    vertex -0.076518 0.050500 0.019647
    vertex -0.073452 0.000000 0.029082
    vertex -0.076518 0.000000 0.019647
  endloop
endfacet
facet normal 0.000492 0.000000 -0.000094
  outer loop
    vertex -0.076518 0.050500 0.019647
    vertex -0.076518 0.000000 0.019647
    vertex -0.078377 0.050500 0.009901
  endloop
endfacet
facet normal 0.000492 0.000000 -0.000094
  outer loop
    vertex -0.078377 0.050500 0.009901
    vertex -0.076518 0.000000 0.019647
    vertex -0.078377 0.000000 0.009901
  endloop
endfacet
facet normal -0.000782 -0.000000 -0.000032
  outer loop
    vertex -0.189368 0.050500 -0.015487
    vertex -0.189368 0.000000 -0.015487
    vertex -0.190000 0.050500 0.000000
  endloop
endfacet
facet normal -0.000782 -0.000000 -0.000032
  outer loop
    vertex -0.190000 0.050500 0.000000
    vertex -0.189368 0.000000 -0.015487
    vertex -0.190000 0.000000 0.000000
  endloop
endfacet
facet normal -0.000782 0.000000 0.000032
  outer loop
    vertex -0.190000 0.050500 0.000000
    vertex -0.190000 0.000000 0.000000
    vertex -0.189368 0.050500 0.015487
  endloop
endfacet
facet normal -0.000782 0.000000 0.000032
  outer loop
    vertex -0.189368 0.050500 0.015487
    vertex -0.190000 0.000000 0.000000
    vertex -0.189368 0.000000 0.015487
  endloop
endfacet
facet normal -0.000777 0.000000 0.000096
  outer loop
    vertex -0.189368 0.050500 0.015487
    vertex -0.189368 0.000000 0.015487
    vertex -0.187475 0.050500 0.030870
  endloop
endfacet
facet normal -0.000777 0.000000 0.000096
  outer loop
    vertex -0.187475 0.050500 0.030870
    vertex -0.189368 0.000000 0.015487
    vertex -0.187475 0.000000 0.030870
  endloop
endfacet
facet normal -0.000767 0.000000 0.000159
  outer loop
    vertex -0.187475 0.050500 0.030870
    vertex -0.187475 0.000000 0.030870
    vertex -0.184335 0.050500 0.046049
  endloop
endfacet
facet normal -0.000767 0.000000 0.000159
  outer loop
    vertex -0.184335 0.050500 0.046049
    vertex -0.187475 0.000000 0.030870
    vertex -0.184335 0.000000 0.046049
  endloop
endfacet
facet normal -0.000751 0.000000 0.000221
  outer loop
    vertex -0.184335 0.050500 0.046049
    vertex -0.184335 0.000000 0.046049
    vertex -0.179969 0.050500 0.060921
  endloop
endfacet
facet normal -0.000751 0.000000 0.000221
  outer loop
    vertex -0.179969 0.050500 0.060921
    vertex -0.184335 0.000000 0.046049
    vertex -0.179969 0.000000 0.060921
  endloop
endfacet
facet normal -0.000731 0.000000 0.000281
  outer loop
    vertex -0.179969 0.050500 0.060921
    vertex -0.179969 0.000000 0.060921
    vertex -0.174404 0.050500 0.075387
  endloop
endfacet
facet normal -0.000731 0.000000 0.000281
  outer loop
    vertex -0.174404 0.050500 0.075387
    vertex -0.179969 0.000000 0.060921
    vertex -0.174404 0.000000 0.075387
  endloop
endfacet
facet normal -0.000705 0.000000 0.000340
  outer loop
    vertex -0.174404 0.050500 0.075387
    vertex -0.174404 0.000000 0.075387
    vertex -0.167679 0.050500 0.089352
  endloop
endfacet
facet normal -0.000705 0.000000 0.000340
  outer loop
    vertex -0.167679 0.050500 0.089352
    vertex -0.174404 0.000000 0.075387
    vertex -0.167679 0.000000 0.089352
  endloop
endfacet
facet normal -0.000675 0.000000 0.000396
  outer loop
    vertex -0.167679 0.050500 0.089352
    vertex -0.167679 0.000000 0.089352
    vertex -0.159838 0.050500 0.102722
  endloop
endfacet
facet normal -0.000675 0.000000 0.000396
  outer loop
    vertex -0.159838 0.050500 0.102722
    vertex -0.167679 0.000000 0.089352
    vertex -0.159838 0.000000 0.102722
  endloop
endfacet
facet normal -0.000641 0.000000 0.000450
  outer loop
    vertex -0.159838 0.050500 0.102722
    vertex -0.159838 0.000000 0.102722
    vertex -0.150934 0.050500 0.115408
  endloop
endfacet
facet normal -0.000641 0.000000 0.000450
  outer loop
    vertex -0.150934 0.050500 0.115408
    vertex -0.159838 0.000000 0.102722
    vertex -0.150934 0.000000 0.115408
  endloop
endfacet
facet normal -0.000602 0.000000 0.000500
  outer loop
    vertex -0.150934 0.050500 0.115408
    vertex -0.150934 0.000000 0.115408
    vertex -0.141024 0.050500 0.127327
  endloop
endfacet
facet normal -0.000602 0.000000 0.000500
  outer loop
    vertex -0.141024 0.050500 0.127327
    vertex -0.150934 0.000000 0.115408
    vertex -0.141024 0.000000 0.127327
  endloop
endfacet
facet normal -0.000559 0.000000 0.000548
  outer loop
    vertex -0.141024 0.050500 0.127327
    vertex -0.141024 0.000000 0.127327
    vertex -0.130177 0.050500 0.138398
  endloop
endfacet
facet normal -0.000559 0.000000 0.000548
  outer loop
    vertex -0.130177 0.050500 0.138398
    vertex -0.141024 0.000000 0.127327
    vertex -0.130177 0.000000 0.138398
  endloop
endfacet
facet normal -0.000513 0.000000 0.000592
  outer loop
    vertex -0.130177 0.050500 0.138398
    vertex -0.130177 0.000000 0.138398
    vertex -0.118463 0.050500 0.148548
  endloop
endfacet
facet normal -0.000513 0.000000 0.000592
  outer loop
    vertex -0.118463 0.050500 0.148548
    vertex -0.130177 0.000000 0.138398
    vertex -0.118463 0.000000 0.148548
  endloop
endfacet
facet normal -0.000463 0.000000 0.000631
  outer loop
    vertex -0.118463 0.050500 0.148548
    vertex -0.118463 0.000000 0.148548
    vertex -0.105961 0.050500 0.157710
  endloop
endfacet
facet normal -0.000463 0.000000 0.000631
  outer loop
    vertex -0.105961 0.050500 0.157710
    vertex -0.118463 0.000000 0.148548
    vertex -0.105961 0.000000 0.157710
  endloop
endfacet
facet normal -0.000410 0.000000 0.000667
  outer loop
    vertex -0.105961 0.050500 0.157710
    vertex -0.105961 0.000000 0.157710
    vertex -0.092753 0.050500 0.165822
  endloop
endfacet
facet normal -0.000410 0.000000 0.000667
  outer loop
    vertex -0.092753 0.050500 0.165822
    vertex -0.105961 0.000000 0.157710
    vertex -0.092753 0.000000 0.165822
  endloop
endfacet
facet normal -0.000354 0.000000 0.000698
  outer loop
    vertex -0.092753 0.050500 0.165822
    vertex -0.092753 0.000000 0.165822
    vertex -0.078929 0.050500 0.172830
  endloop
endfacet
facet normal -0.000354 0.000000 0.000698
  outer loop
    vertex -0.078929 0.050500 0.172830
    vertex -0.092753 0.000000 0.165822
    vertex -0.078929 0.000000 0.172830
  endloop
endfacet
facet normal -0.000296 0.000000 0.000725
  outer loop
    vertex -0.078929 0.050500 0.172830
    vertex -0.078929 0.000000 0.172830
    vertex -0.064579 0.050500 0.178688
  endloop
endfacet
facet normal -0.000296 0.000000 0.000725
  outer loop
    vertex -0.064579 0.050500 0.178688
    vertex -0.078929 0.000000 0.172830
    vertex -0.064579 0.000000 0.178688
  endloop
endfacet
facet normal -0.000236 0.000000 0.000746
  outer loop
    vertex -0.064579 0.050500 0.178688
    vertex -0.064579 0.000000 0.178688
    vertex -0.049799 0.050500 0.183358
  endloop
endfacet
facet normal -0.000236 0.000000 0.000746
  outer loop
    vertex -0.049799 0.050500 0.183358
    vertex -0.064579 0.000000 0.178688
    vertex -0.049799 0.000000 0.183358
  endloop
endfacet
facet normal -0.000174 0.000000 0.000763
  outer loop
    vertex -0.049799 0.050500 0.183358
    vertex -0.049799 0.000000 0.183358
    vertex -0.034688 0.050500 0.186807
  endloop
endfacet
facet normal -0.000174 0.000000 0.000763
  outer loop
    vertex -0.034688 0.050500 0.186807
    vertex -0.049799 0.000000 0.183358
    vertex -0.034688 0.000000 0.186807
  endloop
endfacet
facet normal -0.000111 0.000000 0.000775
  outer loop
    vertex -0.034688 0.050500 0.186807
    vertex -0.034688 0.000000 0.186807
    vertex -0.019346 0.050500 0.189012
  endloop
endfacet
facet normal -0.000111 0.000000 0.000775
  outer loop
    vertex -0.019346 0.050500 0.189012
    vertex -0.034688 0.000000 0.186807
    vertex -0.019346 0.000000 0.189012
  endloop
endfacet
facet normal -0.000048 0.000000 0.000781
  outer loop
    vertex -0.019346 0.050500 0.189012
    vertex -0.019346 0.000000 0.189012
    vertex -0.003876 0.050500 0.189960
  endloop
endfacet
facet normal -0.000048 0.000000 0.000781
  outer loop
    vertex -0.003876 0.050500 0.189960
    vertex -0.019346 0.000000 0.189012
    vertex -0.003876 0.000000 0.189960
  endloop
endfacet
facet normal 0.000016 0.000000 0.000783
  outer loop
    vertex -0.003876 0.050500 0.189960
    vertex -0.003876 0.000000 0.189960
    vertex 0.011621 0.050500 0.189644
  endloop
endfacet
facet normal 0.000016 0.000000 0.000783
  outer loop
    vertex 0.011621 0.050500 0.189644
    vertex -0.003876 0.000000 0.189960
    vertex 0.011621 0.000000 0.189644
  endloop
endfacet
facet normal 0.000080 0.000000 0.000779
  outer loop
    vertex 0.011621 0.050500 0.189644
    vertex 0.011621 0.000000 0.189644
    vertex 0.027040 0.050500 0.188066
  endloop
endfacet
facet normal 0.000080 0.000000 0.000779
  outer loop
    vertex 0.027040 0.050500 0.188066
    vertex 0.011621 0.000000 0.189644
    vertex 0.027040 0.000000 0.188066
  endloop
endfacet
facet normal 0.000143 0.000000 0.000770
  outer loop
    vertex 0.027040 0.050500 0.188066
    vertex 0.027040 0.000000 0.188066
    vertex 0.042279 0.050500 0.185236
  endloop
endfacet
facet normal 0.000143 0.000000 0.000770
  outer loop
    vertex 0.042279 0.050500 0.185236
    vertex 0.027040 0.000000 0.188066
    vertex 0.042279 0.000000 0.185236
  endloop
endfacet
facet normal 0.000205 0.000000 0.000755
  outer loop
    vertex 0.042279 0.050500 0.185236
    vertex 0.042279 0.000000 0.185236
    vertex 0.057237 0.050500 0.181174
  endloop
endfacet
facet normal 0.000205 0.000000 0.000755
  outer loop
    vertex 0.057237 0.050500 0.181174
    vertex 0.042279 0.000000 0.185236
    vertex 0.057237 0.000000 0.181174
  endloop
endfacet
facet normal 0.000266 0.000000 0.000736
  outer loop
    vertex 0.057237 0.050500 0.181174
    vertex 0.057237 0.000000 0.181174
    vertex 0.071814 0.050500 0.175906
  endloop
endfacet
facet normal 0.000266 0.000000 0.000736
  outer loop
    vertex 0.071814 0.050500 0.175906
    vertex 0.057237 0.000000 0.181174
    vertex 0.071814 0.000000 0.175906
  endloop
endfacet
facet normal 0.000325 0.000000 0.000712
  outer loop
    vertex 0.071814 0.050500 0.175906
    vertex 0.071814 0.000000 0.175906
    vertex 0.085913 0.050500 0.169467
  endloop
endfacet
facet normal 0.000325 0.000000 0.000712
  outer loop
    vertex 0.085913 0.050500 0.169467
    vertex 0.071814 0.000000 0.175906
    vertex 0.085913 0.000000 0.169467
  endloop
endfacet
facet normal 0.000382 0.000000 0.000683
  outer loop
    vertex 0.085913 0.050500 0.169467
    vertex 0.085913 0.000000 0.169467
    vertex 0.099440 0.050500 0.161900
  endloop
endfacet
facet normal 0.000382 0.000000 0.000683
  outer loop
    vertex 0.099440 0.050500 0.161900
    vertex 0.085913 0.000000 0.169467
    vertex 0.099440 0.000000 0.161900
  endloop
endfacet
facet normal 0.000437 0.000000 0.000650
  outer loop
    vertex 0.099440 0.050500 0.161900
    vertex 0.099440 0.000000 0.161900
    vertex 0.112305 0.050500 0.153256
  endloop
endfacet
facet normal 0.000437 0.000000 0.000650
  outer loop
    vertex 0.112305 0.050500 0.153256
    vertex 0.099440 0.000000 0.161900
    vertex 0.112305 0.000000 0.153256
  endloop
endfacet
facet normal 0.000488 0.000000 0.000612
  outer loop
    vertex 0.112305 0.050500 0.153256
    vertex 0.112305 0.000000 0.153256
    vertex 0.124424 0.050500 0.143592
  endloop
endfacet
facet normal 0.000488 0.000000 0.000612
  outer loop
    vertex 0.124424 0.050500 0.143592
    vertex 0.112305 0.000000 0.153256
    vertex 0.124424 0.000000 0.143592
  endloop
endfacet
facet normal 0.000536 0.000000 0.000570
  outer loop
    vertex 0.124424 0.050500 0.143592
    vertex 0.124424 0.000000 0.143592
    vertex 0.135714 0.050500 0.132973
  endloop
endfacet
facet normal 0.000536 0.000000 0.000570
  outer loop
    vertex 0.135714 0.050500 0.132973
    vertex 0.124424 0.000000 0.143592
    vertex 0.135714 0.000000 0.132973
  endloop
endfacet
facet normal 0.000581 0.000000 0.000525
  outer loop
    vertex 0.135714 0.050500 0.132973
    vertex 0.135714 0.000000 0.132973
    vertex 0.146101 0.050500 0.121469
  endloop
endfacet
facet normal 0.000581 0.000000 0.000525
  outer loop
    vertex 0.146101 0.050500 0.121469
    vertex 0.135714 0.000000 0.132973
    vertex 0.146101 0.000000 0.121469
  endloop
endfacet
facet normal 0.000622 0.000000 0.000475
  outer loop
    vertex 0.146101 0.050500 0.121469
    vertex 0.146101 0.000000 0.121469
    vertex 0.155515 0.050500 0.109156
  endloop
endfacet
facet normal 0.000622 0.000000 0.000475
  outer loop
    vertex 0.155515 0.050500 0.109156
    vertex 0.146101 0.000000 0.121469
    vertex 0.155515 0.000000 0.109156
  endloop
endfacet
facet normal 0.000658 0.000000 0.000423
  outer loop
    vertex 0.155515 0.050500 0.109156
    vertex 0.155515 0.000000 0.109156
    vertex 0.163895 0.050500 0.096117
  endloop
endfacet
facet normal 0.000658 0.000000 0.000423
  outer loop
    vertex 0.163895 0.050500 0.096117
    vertex 0.155515 0.000000 0.109156
    vertex 0.163895 0.000000 0.096117
  endloop
endfacet
facet normal 0.000691 0.000000 0.000368
  outer loop
    vertex 0.163895 0.050500 0.096117
    vertex 0.163895 0.000000 0.096117
    vertex 0.171184 0.050500 0.082438
  endloop
endfacet
facet normal 0.000691 0.000000 0.000368
  outer loop
    vertex 0.171184 0.050500 0.082438
    vertex 0.163895 0.000000 0.096117
    vertex 0.171184 0.000000 0.082438
  endloop
endfacet
facet normal 0.000718 0.000000 0.000311
  outer loop
    vertex 0.171184 0.050500 0.082438
    vertex 0.171184 0.000000 0.082438
    vertex 0.177334 0.050500 0.068211
  endloop
endfacet
facet normal 0.000718 0.000000 0.000311
  outer loop
    vertex 0.177334 0.050500 0.068211
    vertex 0.171184 0.000000 0.082438
    vertex 0.177334 0.000000 0.068211
  endloop
endfacet
facet normal 0.000741 0.000000 0.000251
  outer loop
    vertex 0.177334 0.050500 0.068211
    vertex 0.177334 0.000000 0.068211
    vertex 0.182304 0.050500 0.053529
  endloop
endfacet
facet normal 0.000741 0.000000 0.000251
  outer loop
    vertex 0.182304 0.050500 0.053529
    vertex 0.177334 0.000000 0.068211
    vertex 0.182304 0.000000 0.053529
  endloop
endfacet
facet normal 0.000759 0.000000 0.000190
  outer loop
    vertex 0.182304 0.050500 0.053529
    vertex 0.182304 0.000000 0.053529
    vertex 0.186060 0.050500 0.038492
  endloop
endfacet
facet normal 0.000759 0.000000 0.000190
  outer loop
    vertex 0.186060 0.050500 0.038492
    vertex 0.182304 0.000000 0.053529
    vertex 0.186060 0.000000 0.038492
  endloop
endfacet
facet normal 0.000772 0.000000 0.000127
  outer loop
    vertex 0.186060 0.050500 0.038492
    vertex 0.186060 0.000000 0.038492
    vertex 0.188579 0.050500 0.023198
  endloop
endfacet
facet normal 0.000772 0.000000 0.000127
  outer loop
    vertex 0.188579 0.050500 0.023198
    vertex 0.186060 0.000000 0.038492
    vertex 0.188579 0.000000 0.023198
  endloop
endfacet
facet normal 0.000780 0.000000 0.000064
  outer loop
    vertex 0.188579 0.050500 0.023198
    vertex 0.188579 0.000000 0.023198
    vertex 0.189842 0.050500 0.007750
  endloop
endfacet
facet normal 0.000780 0.000000 0.000064
  outer loop
    vertex 0.189842 0.050500 0.007750
    vertex 0.188579 0.000000 0.023198
    vertex 0.189842 0.000000 0.007750
  endloop
endfacet
facet normal 0.000783 0.000000 0.000000
  outer loop
    vertex 0.189842 0.050500 0.007750
    vertex 0.189842 0.000000 0.007750
    vertex 0.189842 0.050500 -0.007750
  endloop
endfacet
facet normal 0.000783 0.000000 0.000000
  outer loop
    vertex 0.189842 0.050500 -0.007750
    vertex 0.189842 0.000000 0.007750
    vertex 0.189842 0.000000 -0.007750
  endloop
endfacet
facet normal 0.000780 0.000000 -0.000064
  outer loop
    vertex 0.189842 0.050500 -0.007750
    vertex 0.189842 0.000000 -0.007750
    vertex 0.188579 0.050500 -0.023198
  endloop
endfacet
facet normal 0.000780 0.000000 -0.000064
  outer loop
    vertex 0.188579 0.050500 -0.023198
    vertex 0.189842 0.000000 -0.007750
    vertex 0.188579 0.000000 -0.023198
  endloop
endfacet
facet normal 0.000772 0.000000 -0.000127
  outer loop
    vertex 0.188579 0.050500 -0.023198
    vertex 0.188579 0.000000 -0.023198
    vertex 0.186060 0.050500 -0.038492
  endloop
endfacet
facet normal 0.000772 0.000000 -0.000127
  outer loop
    vertex 0.186060 0.050500 -0.038492
    vertex 0.188579 0.000000 -0.023198
    vertex 0.186060 0.000000 -0.038492
  endloop
endfacet
facet normal 0.000759 0.000000 -0.000190
  outer loop
    vertex 0.186060 0.050500 -0.038492
    vertex 0.186060 0.000000 -0.038492
    vertex 0.182304 0.050500 -0.053529
  endloop
endfacet
facet normal 0.000759 0.000000 -0.000190
  outer loop
    vertex 0.182304 0.050500 -0.053529
    vertex 0.186060 0.000000 -0.038492
    vertex 0.182304 0.000000 -0.053529
  endloop
endfacet
facet normal 0.000741 0.000000 -0.000251
  outer loop
    vertex 0.182304 0.050500 -0.053529
    vertex 0.182304 0.000000 -0.053529
    vertex 0.177334 0.050500 -0.068211
  endloop
endfacet
facet normal 0.000741 0.000000 -0.000251
  outer loop
    vertex 0.177334 0.050500 -0.068211
    vertex 0.182304 0.000000 -0.053529
    vertex 0.177334 0.000000 -0.068211
  endloop
endfacet
facet normal 0.000718 0.000000 -0.000311
  outer loop
    vertex 0.177334 0.050500 -0.068211
    vertex 0.177334 0.000000 -0.068211
    vertex 0.171184 0.050500 -0.082438
  endloop
endfacet
facet normal 0.000718 0.000000 -0.000311
  outer loop
    vertex 0.171184 0.050500 -0.082438
    vertex 0.177334 0.000000 -0.068211
    vertex 0.171184 0.000000 -0.082438
  endloop
endfacet
facet normal 0.000691 0.000000 -0.000368
  outer loop
    vertex 0.171184 0.050500 -0.082438
    vertex 0.171184 0.000000 -0.082438
    vertex 0.163895 0.050500 -0.096117
  endloop
endfacet
facet normal 0.000691 0.000000 -0.000368
  outer loop
    vertex 0.163895 0.050500 -0.096117
    vertex 0.171184 0.000000 -0.082438
    vertex 0.163895 0.000000 -0.096117
  endloop
endfacet
facet normal 0.000658 0.000000 -0.000423
  outer loop
    vertex 0.163895 0.050500 -0.096117
    vertex 0.163895 0.000000 -0.096117
    vertex 0.155515 0.050500 -0.109156
  endloop
endfacet
facet normal 0.000658 0.000000 -0.000423
  outer loop
    vertex 0.155515 0.050500 -0.109156
    vertex 0.163895 0.000000 -0.096117
    vertex 0.155515 0.000000 -0.109156
  endloop
endfacet
facet normal 0.000622 0.000000 -0.000475
  outer loop
    vertex 0.155515 0.050500 -0.109156
    vertex 0.155515 0.000000 -0.109156
    vertex 0.146101 0.050500 -0.121469
  endloop
endfacet
facet normal 0.000622 0.000000 -0.000475
  outer loop
    vertex 0.146101 0.050500 -0.121469
    vertex 0.155515 0.000000 -0.109156
    vertex 0.146101 0.000000 -0.121469
  endloop
endfacet
facet normal 0.000581 0.000000 -0.000525
  outer loop
    vertex 0.146101 0.050500 -0.121469
    vertex 0.146101 0.000000 -0.121469
    vertex 0.135714 0.050500 -0.132973
  endloop
endfacet
facet normal 0.000581 0.000000 -0.000525
  outer loop
    vertex 0.135714 0.050500 -0.132973
    vertex 0.146101 0.000000 -0.121469
    vertex 0.135714 0.000000 -0.132973
  endloop
endfacet
facet normal 0.000536 0.000000 -0.000570
  outer loop
    vertex 0.135714 0.050500 -0.132973
    vertex 0.135714 0.000000 -0.132973
    vertex 0.124424 0.050500 -0.143592
  endloop
endfacet
facet normal 0.000536 0.000000 -0.000570
  outer loop
    vertex 0.124424 0.050500 -0.143592
    vertex 0.135714 0.000000 -0.132973
    vertex 0.124424 0.000000 -0.143592
  endloop
endfacet
facet normal 0.000488 0.000000 -0.000612
  outer loop
    vertex 0.124424 0.050500 -0.143592
    vertex 0.124424 0.000000 -0.143592
    vertex 0.112305 0.050500 -0.153256
  endloop
endfacet
facet normal 0.000488 0.000000 -0.000612
  outer loop
    vertex 0.112305 0.050500 -0.153256
    vertex 0.124424 0.000000 -0.143592
    vertex 0.112305 0.000000 -0.153256
  endloop
endfacet
facet normal 0.000437 0.000000 -0.000650
  outer loop
    vertex 0.112305 0.050500 -0.153256
    vertex 0.112305 0.000000 -0.153256
    vertex 0.099440 0.050500 -0.161900
  endloop
endfacet
facet normal 0.000437 0.000000 -0.000650
  outer loop
    vertex 0.099440 0.050500 -0.161900
    vertex 0.112305 0.000000 -0.153256
    vertex 0.099440 0.000000 -0.161900
  endloop
endfacet
facet normal 0.000382 0.000000 -0.000683
  outer loop
    vertex 0.099440 0.050500 -0.161900
    vertex 0.099440 0.000000 -0.161900
    vertex 0.085913 0.050500 -0.169467
  endloop
endfacet
facet normal 0.000382 0.000000 -0.000683
  outer loop
    vertex 0.085913 0.050500 -0.169467
    vertex 0.099440 0.000000 -0.161900
    vertex 0.085913 0.000000 -0.169467
  endloop
endfacet
facet normal 0.000325 0.000000 -0.000712
  outer loop
    vertex 0.085913 0.050500 -0.169467
    vertex 0.085913 0.000000 -0.169467
    vertex 0.071814 0.050500 -0.175906
  endloop
endfacet
facet normal 0.000325 0.000000 -0.000712
  outer loop
    vertex 0.071814 0.050500 -0.175906
    vertex 0.085913 0.000000 -0.169467
    vertex 0.071814 0.000000 -0.175906
  endloop
endfacet
facet normal 0.000266 0.000000 -0.000736
  outer loop
    vertex 0.071814 0.050500 -0.175906
    vertex 0.071814 0.000000 -0.175906
    vertex 0.057237 0.050500 -0.181174
  endloop
endfacet
facet normal 0.000266 0.000000 -0.000736
  outer loop
    vertex 0.057237 0.050500 -0.181174
    vertex 0.071814 0.000000 -0.175906
    vertex 0.057237 0.000000 -0.181174
  endloop
endfacet
facet normal 0.000205 0.000000 -0.000755
  outer loop
    vertex 0.057237 0.050500 -0.181174
    vertex 0.057237 0.000000 -0.181174
    vertex 0.042279 0.050500 -0.185236
  endloop
endfacet
facet normal 0.000205 0.000000 -0.000755
  outer loop
    vertex 0.042279 0.050500 -0.185236
    vertex 0.057237 0.000000 -0.181174
    vertex 0.042279 0.000000 -0.185236
  endloop
endfacet
facet normal 0.000143 0.000000 -0.000770
  outer loop
    vertex 0.042279 0.050500 -0.185236
    vertex 0.042279 0.000000 -0.185236
    vertex 0.027040 0.050500 -0.188066
  endloop
endfacet
facet normal 0.000143 0.000000 -0.000770
  outer loop
    vertex 0.027040 0.050500 -0.188066
    vertex 0.042279 0.000000 -0.185236
    vertex 0.027040 0.000000 -0.188066
  endloop
endfacet
facet normal 0.000080 0.000000 -0.000779
  outer loop
    vertex 0.027040 0.050500 -0.188066
    vertex 0.027040 0.000000 -0.188066
    vertex 0.011621 0.050500 -0.189644
  endloop
endfacet
facet normal 0.000080 0.000000 -0.000779
  outer loop
    vertex 0.011621 0.050500 -0.189644
    vertex 0.027040 0.000000 -0.188066
    vertex 0.011621 0.000000 -0.189644
  endloop
endfacet
facet normal 0.000016 0.000000 -0.000783
  outer loop
    vertex 0.011621 0.050500 -0.189644
    vertex 0.011621 0.000000 -0.189644
    vertex -0.003876 0.050500 -0.189960
  endloop
endfacet
facet normal 0.000016 0.000000 -0.000783
  outer loop
    vertex -0.003876 0.050500 -0.189960
    vertex 0.011621 0.000000 -0.189644
    vertex -0.003876 0.000000 -0.189960
  endloop
endfacet
facet normal -0.000048 -0.000000 -0.000781
  outer loop
    vertex -0.003876 0.050500 -0.189960
    vertex -0.003876 0.000000 -0.189960
    vertex -0.019346 0.050500 -0.189012
  endloop
endfacet
facet normal -0.000048 -0.000000 -0.000781
  outer loop
    vertex -0.019346 0.050500 -0.189012
    vertex -0.003876 0.000000 -0.189960
    vertex -0.019346 0.000000 -0.189012
  endloop
endfacet
facet normal -0.000111 -0.000000 -0.000775
  outer loop
    vertex -0.019346 0.050500 -0.189012
    vertex -0.019346 0.000000 -0.189012
    vertex -0.034688 0.050500 -0.186807
  endloop
endfacet
facet normal -0.000111 -0.000000 -0.000775
  outer loop
    vertex -0.034688 0.050500 -0.186807
    vertex -0.019346 0.000000 -0.189012
    vertex -0.034688 0.000000 -0.186807
  endloop
endfacet
facet normal -0.000174 -0.000000 -0.000763
  outer loop
    vertex -0.034688 0.050500 -0.186807
    vertex -0.034688 0.000000 -0.186807
    vertex -0.049799 0.050500 -0.183358
  endloop
endfacet
facet normal -0.000174 -0.000000 -0.000763
  outer loop
    vertex -0.049799 0.050500 -0.183358
    vertex -0.034688 0.000000 -0.186807
    vertex -0.049799 0.000000 -0.183358
  endloop
endfacet
facet normal -0.000236 -0.000000 -0.000746
  outer loop
    vertex -0.049799 0.050500 -0.183358
    vertex -0.049799 0.000000 -0.183358
    vertex -0.064579 0.050500 -0.178688
  endloop
endfacet
facet normal -0.000236 -0.000000 -0.000746
  outer loop
    vertex -0.064579 0.050500 -0.178688
    vertex -0.049799 0.000000 -0.183358
    vertex -0.064579 0.000000 -0.178688
  endloop
endfacet
facet normal -0.000296 -0.000000 -0.000725
  outer loop
    vertex -0.064579 0.050500 -0.178688
    vertex -0.064579 0.000000 -0.178688
    vertex -0.078929 0.050500 -0.172830
  endloop
endfacet
facet normal -0.000296 -0.000000 -0.000725
  outer loop
    vertex -0.078929 0.050500 -0.172830
    vertex -0.064579 0.000000 -0.178688
    vertex -0.078929 0.000000 -0.172830
  endloop
endfacet
facet normal -0.000354 -0.000000 -0.000698
  outer loop
    vertex -0.078929 0.050500 -0.172830
    vertex -0.078929 0.000000 -0.172830
    vertex -0.092753 0.050500 -0.165822
  endloop
endfacet
facet normal -0.000354 -0.000000 -0.000698
  outer loop
    vertex -0.092753 0.050500 -0.165822
    vertex -0.078929 0.000000 -0.172830
    vertex -0.092753 0.000000 -0.165822
  endloop
endfacet
facet normal -0.000410 -0.000000 -0.000667
  outer loop
    vertex -0.092753 0.050500 -0.165822
    vertex -0.092753 0.000000 -0.165822
    vertex -0.105961 0.050500 -0.157710
  endloop
endfacet
facet normal -0.000410 -0.000000 -0.000667
  outer loop
    vertex -0.105961 0.050500 -0.157710
    vertex -0.092753 0.000000 -0.165822
    vertex -0.105961 0.000000 -0.157710
  endloop
endfacet
facet normal -0.000463 -0.000000 -0.000631
  outer loop
    vertex -0.105961 0.050500 -0.157710
    vertex -0.105961 0.000000 -0.157710
    vertex -0.118463 0.050500 -0.148548
  endloop
endfacet
facet normal -0.000463 -0.000000 -0.000631
  outer loop
    vertex -0.118463 0.050500 -0.148548
    vertex -0.105961 0.000000 -0.157710
    vertex -0.118463 0.000000 -0.148548
  endloop
endfacet
facet normal -0.000513 -0.000000 -0.000592
  outer loop
    vertex -0.118463 0.050500 -0.148548
    vertex -0.118463 0.000000 -0.148548
    vertex -0.130177 0.050500 -0.138398
  endloop
endfacet
facet normal -0.000513 -0.000000 -0.000592
  outer loop
    vertex -0.130177 0.050500 -0.138398
    vertex -0.118463 0.000000 -0.148548
    vertex -0.130177 0.000000 -0.138398
  endloop
endfacet
facet normal -0.000559 -0.000000 -0.000548
  outer loop
    vertex -0.130177 0.050500 -0.138398
    vertex -0.130177 0.000000 -0.138398
    vertex -0.141024 0.050500 -0.127327
  endloop
endfacet
facet normal -0.000559 -0.000000 -0.000548
  outer loop
    vertex -0.141024 0.050500 -0.127327
    vertex -0.130177 0.000000 -0.138398
    vertex -0.141024 0.000000 -0.127327
  endloop
endfacet
facet normal -0.000602 -0.000000 -0.000500
  outer loop
    vertex -0.141024 0.050500 -0.127327
    vertex -0.141024 0.000000 -0.127327
    vertex -0.150934 0.050500 -0.115408
  endloop
endfacet
facet normal -0.000602 -0.000000 -0.000500
  outer loop
    vertex -0.150934 0.050500 -0.115408
    vertex -0.141024 0.000000 -0.127327
    vertex -0.150934 0.000000 -0.115408
  endloop
endfacet
facet normal -0.000641 -0.000000 -0.000450
  outer loop
    vertex -0.150934 0.050500 -0.115408
    vertex -0.150934 0.000000 -0.115408
    vertex -0.159838 0.050500 -0.102722
  endloop
endfacet
facet normal -0.000641 -0.000000 -0.000450
  outer loop
    vertex -0.159838 0.050500 -0.102722
    vertex -0.150934 0.000000 -0.115408
    vertex -0.159838 0.000000 -0.102722
  endloop
endfacet
facet normal -0.000675 -0.000000 -0.000396
  outer loop
    vertex -0.159838 0.050500 -0.102722
    vertex -0.159838 0.000000 -0.102722
    vertex -0.167679 0.050500 -0.089352
  endloop
endfacet
facet normal -0.000675 -0.000000 -0.000396
  outer loop
    vertex -0.167679 0.050500 -0.089352
    vertex -0.159838 0.000000 -0.102722
    vertex -0.167679 0.000000 -0.089352
  endloop
endfacet
facet normal -0.000705 -0.000000 -0.000340
  outer loop
    vertex -0.167679 0.050500 -0.089352
    vertex -0.167679 0.000000 -0.089352
    vertex -0.174404 0.050500 -0.075387
  endloop
endfacet
facet normal -0.000705 -0.000000 -0.000340
  outer loop
    vertex -0.174404 0.050500 -0.075387
    vertex -0.167679 0.000000 -0.089352
    vertex -0.174404 0.000000 -0.075387
  endloop
endfacet
facet normal -0.000731 -0.000000 -0.000281
  outer loop
    vertex -0.174404 0.050500 -0.075387
    vertex -0.174404 0.000000 -0.075387
    vertex -0.179969 0.050500 -0.060921
  endloop
endfacet
facet normal -0.000731 -0.000000 -0.000281
  outer loop
    vertex -0.179969 0.050500 -0.060921
    vertex -0.174404 0.000000 -0.075387
    vertex -0.179969 0.000000 -0.060921
  endloop
endfacet
facet normal -0.000751 -0.000000 -0.000221
  outer loop
    vertex -0.179969 0.050500 -0.060921
    vertex -0.179969 0.000000 -0.060921
    vertex -0.184335 0.050500 -0.046049
  endloop
endfacet
facet normal -0.000751 -0.000000 -0.000221
  outer loop
    vertex -0.184335 0.050500 -0.046049
    vertex -0.179969 0.000000 -0.060921
    vertex -0.184335 0.000000 -0.046049
  endloop
endfacet
facet normal -0.000767 -0.000000 -0.000159
  outer loop
    vertex -0.184335 0.050500 -0.046049
    vertex -0.184335 0.000000 -0.046049
    vertex -0.187475 0.050500 -0.030870
  endloop
endfacet
facet normal -0.000767 -0.000000 -0.000159
  outer loop
    vertex -0.187475 0.050500 -0.030870
    vertex -0.184335 0.000000 -0.046049
    vertex -0.187475 0.000000 -0.030870
  endloop
endfacet
facet normal -0.000777 -0.000000 -0.000096
  outer loop
    vertex -0.187475 0.050500 -0.030870
    vertex -0.187475 0.000000 -0.030870
    vertex -0.189368 0.050500 -0.015487
  endloop
endfacet
facet normal -0.000777 -0.000000 -0.000096
  outer loop
    vertex -0.189368 0.050500 -0.015487
    vertex -0.187475 0.000000 -0.030870
    vertex -0.189368 0.000000 -0.015487
  endloop
endfacet
facet normal 0.000000 0.001102 0.000000
  outer loop
    vertex -0.078377 0.050500 -0.009901
    vertex -0.189368 0.050500 -0.015487
    vertex -0.079000 0.050500 0.000000
  endloop
endfacet
facet normal 0.000000 0.001719 0.000000
  outer loop
    vertex -0.079000 0.050500 0.000000
    vertex -0.189368 0.050500 -0.015487
    vertex -0.190000 0.050500 0.000000
  endloop
endfacet
facet normal 0.000000 0.001719 0.000000
  outer loop
    vertex -0.079000 0.050500 0.000000
    vertex -0.190000 0.050500 0.000000
    vertex -0.189368 0.050500 0.015487
  endloop
endfacet
facet normal -0.000000 0.001718 0.000000
  outer loop
    vertex -0.189368 0.050500 -0.015487
    vertex -0.078377 0.050500 -0.009901
    vertex -0.187475 0.050500 -0.030870
  endloop
endfacet
facet normal 0.000000 0.001102 0.000000
  outer loop
    vertex -0.187475 0.050500 -0.030870
    vertex -0.078377 0.050500 -0.009901
    vertex -0.076518 0.050500 -0.019647
  endloop
endfacet
facet normal -0.000000 0.001719 0.000000
  outer loop
    vertex -0.187475 0.050500 -0.030870
    vertex -0.076518 0.050500 -0.019647
    vertex -0.184335 0.050500 -0.046049
  endloop
endfacet
facet normal -0.000000 0.001719 0.000000
  outer loop
    vertex -0.184335 0.050500 -0.046049
    vertex -0.076518 0.050500 -0.019647
    vertex -0.179969 0.050500 -0.060921
  endloop
endfacet
facet normal 0.000000 0.001103 0.000000
  outer loop
    vertex -0.179969 0.050500 -0.060921
    vertex -0.076518 0.050500 -0.019647
    vertex -0.073452 0.050500 -0.029082
  endloop
endfacet
facet normal -0.000000 0.001718 0.000000
  outer loop
    vertex -0.179969 0.050500 -0.060921
    vertex -0.073452 0.050500 -0.029082
    vertex -0.174404 0.050500 -0.075387
  endloop
endfacet
facet normal 0.000000 0.001102 0.000000
  outer loop
    vertex -0.174404 0.050500 -0.075387
    vertex -0.073452 0.050500 -0.029082
    vertex -0.069228 0.050500 -0.038059
  endloop
endfacet
facet normal -0.000000 0.001720 0.000000
  outer loop
    vertex -0.174404 0.050500 -0.075387
    vertex -0.069228 0.050500 -0.038059
    vertex -0.167679 0.050500 -0.089352
  endloop
endfacet
facet normal -0.000000 0.001718 0.000000
  outer loop
    vertex -0.167679 0.050500 -0.089352
    vertex -0.069228 0.050500 -0.038059
    vertex -0.159838 0.050500 -0.102722
  endloop
endfacet
facet normal 0.000000 0.001103 0.000000
  outer loop
    vertex -0.159838 0.050500 -0.102722
    vertex -0.069228 0.050500 -0.038059
    vertex -0.063912 0.050500 -0.046435
  endloop
endfacet
facet normal -0.000000 0.001718 0.000000
  outer loop
    vertex -0.159838 0.050500 -0.102722
    vertex -0.063912 0.050500 -0.046435
    vertex -0.150934 0.050500 -0.115408
  endloop
endfacet
facet normal 0.000000 0.001101 0.000000
  outer loop
    vertex -0.150934 0.050500 -0.115408
    vertex -0.063912 0.050500 -0.046435
    vertex -0.057589 0.050500 -0.054079
  endloop
endfacet
facet normal -0.000000 0.001720 0.000000
  outer loop
    vertex -0.150934 0.050500 -0.115408
    vertex -0.057589 0.050500 -0.054079
    vertex -0.141024 0.050500 -0.127327
  endloop
endfacet
facet normal -0.000000 0.001718 0.000000
  outer loop
    vertex -0.141024 0.050500 -0.127327
    vertex -0.057589 0.050500 -0.054079
    vertex -0.130177 0.050500 -0.138398
  endloop
endfacet
facet normal 0.000000 0.001103 0.000000
  outer loop
    vertex -0.130177 0.050500 -0.138398
    vertex -0.057589 0.050500 -0.054079
    vertex -0.050356 0.050500 -0.060871
  endloop
endfacet
facet normal -0.000000 0.001718 0.000000
  outer loop
    vertex -0.130177 0.050500 -0.138398
    vertex -0.050356 0.050500 -0.060871
    vertex -0.118463 0.050500 -0.148548
  endloop
endfacet
facet normal -0.000000 0.001720 0.000000
  outer loop
    vertex -0.118463 0.050500 -0.148548
    vertex -0.050356 0.050500 -0.060871
    vertex -0.105961 0.050500 -0.157710
  endloop
endfacet
facet normal 0.000000 0.001101 0.000000
  outer loop
    vertex -0.105961 0.050500 -0.157710
    vertex -0.050356 0.050500 -0.060871
    vertex -0.042330 0.050500 -0.066702
  endloop
endfacet
facet normal -0.000000 0.001718 0.000000
  outer loop
    vertex -0.105961 0.050500 -0.157710
    vertex -0.042330 0.050500 -0.066702
    vertex -0.092753 0.050500 -0.165822
  endloop
endfacet
facet normal 0.000000 0.001103 0.000000
  outer loop
    vertex -0.092753 0.050500 -0.165822
    vertex -0.042330 0.050500 -0.066702
    vertex -0.033637 0.050500 -0.071481
  endloop
endfacet
facet normal -0.000000 0.001719 0.000000
  outer loop
    vertex -0.092753 0.050500 -0.165822
    vertex -0.033637 0.050500 -0.071481
    vertex -0.078929 0.050500 -0.172830
  endloop
endfacet
facet normal -0.000000 0.001720 0.000000
  outer loop
    vertex -0.078929 0.050500 -0.172830
    vertex -0.033637 0.050500 -0.071481
    vertex -0.064579 0.050500 -0.178688
  endloop
endfacet
facet normal 0.000000 0.001102 0.000000
  outer loop
    vertex -0.064579 0.050500 -0.178688
    vertex -0.033637 0.050500 -0.071481
    vertex -0.024412 0.050500 -0.075133
  endloop
endfacet
facet normal -0.000000 0.001718 0.000000
  outer loop
    vertex -0.064579 0.050500 -0.178688
    vertex -0.024412 0.050500 -0.075133
    vertex -0.049799 0.050500 -0.183358
  endloop
endfacet
facet normal 0.000000 0.001103 0.000000
  outer loop
    vertex -0.049799 0.050500 -0.183358
    vertex -0.024412 0.050500 -0.075133
    vertex -0.014803 0.050500 -0.077601
  endloop
endfacet
facet normal -0.000000 0.001719 0.000000
  outer loop
    vertex -0.049799 0.050500 -0.183358
    vertex -0.014803 0.050500 -0.077601
    vertex -0.034688 0.050500 -0.186807
  endloop
endfacet
facet normal -0.000000 0.001719 0.000000
  outer loop
    vertex -0.034688 0.050500 -0.186807
    vertex -0.014803 0.050500 -0.077601
    vertex -0.019346 0.050500 -0.189012
  endloop
endfacet
facet normal 0.000000 0.001102 0.000000
  outer loop
    vertex -0.019346 0.050500 -0.189012
    vertex -0.014803 0.050500 -0.077601
    vertex -0.004960 0.050500 -0.078844
  endloop
endfacet
facet normal -0.000000 0.001718 0.000000
  outer loop
    vertex -0.019346 0.050500 -0.189012
    vertex -0.004960 0.050500 -0.078844
    vertex -0.003876 0.050500 -0.189960
  endloop
endfacet
facet normal 0.000000 0.001102 -0.000000
  outer loop
    vertex -0.003876 0.050500 -0.189960
    vertex -0.004960 0.050500 -0.078844
    vertex 0.004960 0.050500 -0.078844
  endloop
endfacet
facet normal 0.000000 0.001719 0.000000
  outer loop
    vertex -0.003876 0.050500 -0.189960
    vertex 0.004960 0.050500 -0.078844
    vertex 0.011621 0.050500 -0.189644
  endloop
endfacet
facet normal 0.000000 0.001719 -0.000000
  outer loop
    vertex 0.011621 0.050500 -0.189644
    vertex 0.004960 0.050500 -0.078844
    vertex 0.027040 0.050500 -0.188066
  endloop
endfacet
facet normal 0.000000 0.001102 0.000000
  outer loop
    vertex 0.027040 0.050500 -0.188066
    vertex 0.004960 0.050500 -0.078844
    vertex 0.014803 0.050500 -0.077601
  endloop
endfacet
facet normal 0.000000 0.001718 -0.000000
  outer loop
    vertex 0.027040 0.050500 -0.188066
    vertex 0.014803 0.050500 -0.077601
    vertex 0.042279 0.050500 -0.185236
  endloop
endfacet
facet normal 0.000000 0.001102 0.000000
  outer loop
    vertex 0.042279 0.050500 -0.185236
    vertex 0.014803 0.050500 -0.077601
    vertex 0.024412 0.050500 -0.075133
  endloop
endfacet
facet normal 0.000000 0.001719 -0.000000
  outer loop
    vertex 0.042279 0.050500 -0.185236
    vertex 0.024412 0.050500 -0.075133
    vertex 0.057237 0.050500 -0.181174
  endloop
endfacet
facet normal 0.000000 0.001719 -0.000000
  outer loop
    vertex 0.057237 0.050500 -0.181174
    vertex 0.024412 0.050500 -0.075133
    vertex 0.071814 0.050500 -0.175906
  endloop
endfacet
facet normal 0.000000 0.001103 0.000000
  outer loop
    vertex 0.071814 0.050500 -0.175906
    vertex 0.024412 0.050500 -0.075133
    vertex 0.033637 0.050500 -0.071481
  endloop
endfacet
facet normal 0.000000 0.001718 -0.000000
  outer loop
    vertex 0.071814 0.050500 -0.175906
    vertex 0.033637 0.050500 -0.071481
    vertex 0.085913 0.050500 -0.169467
  endloop
endfacet
facet normal 0.000000 0.001102 0.000000
  outer loop
    vertex 0.085913 0.050500 -0.169467
    vertex 0.033637 0.050500 -0.071481
    vertex 0.042330 0.050500 -0.066702
  endloop
endfacet
facet normal 0.000000 0.001720 -0.000000
  outer loop
    vertex 0.085913 0.050500 -0.169467
    vertex 0.042330 0.050500 -0.066702
    vertex 0.099440 0.050500 -0.161900
  endloop
endfacet
facet normal 0.000000 0.001718 -0.000000
  outer loop
    vertex 0.099440 0.050500 -0.161900
    vertex 0.042330 0.050500 -0.066702
    vertex 0.112305 0.050500 -0.153256
  endloop
endfacet
facet normal 0.000000 0.001103 0.000000
  outer loop
    vertex 0.112305 0.050500 -0.153256
    vertex 0.042330 0.050500 -0.066702
    vertex 0.050356 0.050500 -0.060871
  endloop
endfacet
facet normal 0.000000 0.001718 -0.000000
  outer loop
    vertex 0.112305 0.050500 -0.153256
    vertex 0.050356 0.050500 -0.060871
    vertex 0.124424 0.050500 -0.143592
  endloop
endfacet
facet normal 0.000000 0.001101 0.000000
  outer loop
    vertex 0.124424 0.050500 -0.143592
    vertex 0.050356 0.050500 -0.060871
    vertex 0.057589 0.050500 -0.054079
  endloop
endfacet
facet normal 0.000000 0.001720 -0.000000
  outer loop
    vertex 0.124424 0.050500 -0.143592
    vertex 0.057589 0.050500 -0.054079
    vertex 0.135714 0.050500 -0.132973
  endloop
endfacet
facet normal 0.000000 0.001718 -0.000000
  outer loop
    vertex 0.135714 0.050500 -0.132973
    vertex 0.057589 0.050500 -0.054079
    vertex 0.146101 0.050500 -0.121469
  endloop
endfacet
facet normal 0.000000 0.001103 0.000000
  outer loop
    vertex 0.146101 0.050500 -0.121469
    vertex 0.057589 0.050500 -0.054079
    vertex 0.063912 0.050500 -0.046435
  endloop
endfacet
facet normal 0.000000 0.001718 -0.000000
  outer loop
    vertex 0.146101 0.050500 -0.121469
    vertex 0.063912 0.050500 -0.046435
    vertex 0.155515 0.050500 -0.109156
  endloop
endfacet
facet normal 0.000000 0.001720 -0.000000
  outer loop
    vertex 0.155515 0.050500 -0.109156
    vertex 0.063912 0.050500 -0.046435
    vertex 0.163895 0.050500 -0.096117
  endloop
endfacet
facet normal 0.000000 0.001102 0.000000
  outer loop
    vertex 0.163895 0.050500 -0.096117
    vertex 0.063912 0.050500 -0.046435
    vertex 0.069228 0.050500 -0.038059
  endloop
endfacet
facet normal 0.000000 0.001718 -0.000000
  outer loop
    vertex 0.163895 0.050500 -0.096117
    vertex 0.069228 0.050500 -0.038059
    vertex 0.171184 0.050500 -0.082438
  endloop
endfacet
facet normal 0.000000 0.001103 0.000000
  outer loop
    vertex 0.171184 0.050500 -0.082438
    vertex 0.069228 0.050500 -0.038059
    vertex 0.073452 0.050500 -0.029082
  endloop
endfacet
facet normal 0.000000 0.001719 -0.000000
  outer loop
    vertex 0.171184 0.050500 -0.082438
    vertex 0.073452 0.050500 -0.029082
    vertex 0.177334 0.050500 -0.068211
  endloop
endfacet
facet normal 0.000000 0.001720 -0.000000
  outer loop
    vertex 0.177334 0.050500 -0.068211
    vertex 0.073452 0.050500 -0.029082
    vertex 0.182304 0.050500 -0.053529
  endloop
endfacet
facet normal 0.000000 0.001102 0.000000
  outer loop
    vertex 0.182304 0.050500 -0.053529
    vertex 0.073452 0.050500 -0.029082
    vertex 0.076518 0.050500 -0.019647
  endloop
endfacet
facet normal 0.000000 0.001718 -0.000000
  outer loop
    vertex 0.182304 0.050500 -0.053529
    vertex 0.076518 0.050500 -0.019647
    vertex 0.186060 0.050500 -0.038492
  endloop
endfacet
facet normal 0.000000 0.001103 0.000000
  outer loop
    vertex 0.186060 0.050500 -0.038492
    vertex 0.076518 0.050500 -0.019647
    vertex 0.078377 0.050500 -0.009901
  endloop
endfacet
facet normal 0.000000 0.001719 -0.000000
  outer loop
    vertex 0.186060 0.050500 -0.038492
    vertex 0.078377 0.050500 -0.009901
    vertex 0.188579 0.050500 -0.023198
  endloop
endfacet
facet normal 0.000000 0.001719 -0.000000
  outer loop
    vertex 0.188579 0.050500 -0.023198
    vertex 0.078377 0.050500 -0.009901
    vertex 0.189842 0.050500 -0.007750
  endloop
endfacet
facet normal 0.000000 0.001102 0.000000
  outer loop
    vertex 0.189842 0.050500 -0.007750
    vertex 0.078377 0.050500 -0.009901
    vertex 0.079000 0.050500 0.000000
  endloop
endfacet
facet normal 0.000000 0.001718 -0.000000
  outer loop
    vertex 0.189842 0.050500 -0.007750
    vertex 0.079000 0.050500 0.000000
    vertex 0.189842 0.050500 0.007750
  endloop
endfacet
facet normal 0.000000 0.001102 0.000000
  outer loop
    vertex 0.189842 0.050500 0.007750
    vertex 0.079000 0.050500 0.000000
    vertex 0.078377 0.050500 0.009901
  endloop
endfacet
facet normal 0.000000 0.001719 0.000000
  outer loop
    vertex 0.189842 0.050500 0.007750
    vertex 0.078377 0.050500 0.009901
    vertex 0.188579 0.050500 0.023198
  endloop
endfacet
facet normal 0.000000 0.001719 0.000000
  outer loop
    vertex 0.188579 0.050500 0.023198
    vertex 0.078377 0.050500 0.009901
    vertex 0.186060 0.050500 0.038492
  endloop
endfacet
facet normal 0.000000 0.001103 0.000000
  outer loop
    vertex 0.186060 0.050500 0.038492
    vertex 0.078377 0.050500 0.009901
    vertex 0.076518 0.050500 0.019647
  endloop
endfacet
facet normal 0.000000 0.001718 0.000000
  outer loop
    vertex 0.186060 0.050500 0.038492
    vertex 0.076518 0.050500 0.019647
    vertex 0.182304 0.050500 0.053529
  endloop
endfacet
facet normal 0.000000 0.001102 0.000000
  outer loop
    vertex 0.182304 0.050500 0.053529
    vertex 0.076518 0.050500 0.019647
    vertex 0.073452 0.050500 0.029082
  endloop
endfacet
facet normal 0.000000 0.001720 0.000000
  outer loop
    vertex 0.182304 0.050500 0.053529
    vertex 0.073452 0.050500 0.029082
    vertex 0.177334 0.050500 0.068211
  endloop
endfacet
facet normal 0.000000 0.001719 0.000000
  outer loop
    vertex 0.177334 0.050500 0.068211
    vertex 0.073452 0.050500 0.029082
    vertex 0.171184 0.050500 0.082438
  endloop
endfacet
facet normal 0.000000 0.001103 0.000000
  outer loop
    vertex 0.171184 0.050500 0.082438
    vertex 0.073452 0.050500 0.029082
    vertex 0.069228 0.050500 0.038059
  endloop
endfacet
facet normal 0.000000 0.001718 0.000000
  outer loop
    vertex 0.171184 0.050500 0.082438
    vertex 0.069228 0.050500 0.038059
    vertex 0.163895 0.050500 0.096117
  endloop
endfacet
facet normal 0.000000 0.001102 0.000000
  outer loop
    vertex 0.163895 0.050500 0.096117
    vertex 0.069228 0.050500 0.038059
    vertex 0.063912 0.050500 0.046435
  endloop
endfacet
facet normal 0.000000 0.001720 0.000000
  outer loop
    vertex 0.163895 0.050500 0.096117
    vertex 0.063912 0.050500 0.046435
    vertex 0.155515 0.050500 0.109156
  endloop
endfacet
facet normal 0.000000 0.001718 0.000000
  outer loop
    vertex 0.155515 0.050500 0.109156
    vertex 0.063912 0.050500 0.046435
    vertex 0.146101 0.050500 0.121469
  endloop
endfacet
facet normal 0.000000 0.001103 0.000000
  outer loop
    vertex 0.146101 0.050500 0.121469
    vertex 0.063912 0.050500 0.046435
    vertex 0.057589 0.050500 0.054079
  endloop
endfacet
facet normal 0.000000 0.001718 0.000000
  outer loop
    vertex 0.146101 0.050500 0.121469
    vertex 0.057589 0.050500 0.054079
    vertex 0.135714 0.050500 0.132973
  endloop
endfacet
facet normal 0.000000 0.001720 0.000000
  outer loop
    vertex 0.135714 0.050500 0.132973
    vertex 0.057589 0.050500 0.054079
    vertex 0.124424 0.050500 0.143592
  endloop
endfacet
facet normal 0.000000 0.001101 0.000000
  outer loop
    vertex 0.124424 0.050500 0.143592
    vertex 0.057589 0.050500 0.054079
    vertex 0.050356 0.050500 0.060871
  endloop
endfacet
facet normal 0.000000 0.001718 0.000000
  outer loop
    vertex 0.124424 0.050500 0.143592
    vertex 0.050356 0.050500 0.060871
    vertex 0.112305 0.050500 0.153256
  endloop
endfacet
facet normal 0.000000 0.001103 0.000000
  outer loop
    vertex 0.112305 0.050500 0.153256
    vertex 0.050356 0.050500 0.060871
    vertex 0.042330 0.050500 0.066702
  endloop
endfacet
facet normal 0.000000 0.001718 0.000000
  outer loop
    vertex 0.112305 0.050500 0.153256
    vertex 0.042330 0.050500 0.066702
    vertex 0.099440 0.050500 0.161900
  endloop
endfacet
facet normal 0.000000 0.001720 0.000000
  outer loop
    vertex 0.099440 0.050500 0.161900
    vertex 0.042330 0.050500 0.066702
    vertex 0.085913 0.050500 0.169467
  endloop
endfacet
facet normal 0.000000 0.001102 0.000000
  outer loop
    vertex 0.085913 0.050500 0.169467
    vertex 0.042330 0.050500 0.066702
    vertex 0.033637 0.050500 0.071481
  endloop
endfacet
facet normal 0.000000 0.001718 0.000000
  outer loop
    vertex 0.085913 0.050500 0.169467
    vertex 0.033637 0.050500 0.071481
    vertex 0.071814 0.050500 0.175906
  endloop
endfacet
facet normal 0.000000 0.001103 0.000000
  outer loop
    vertex 0.071814 0.050500 0.175906
    vertex 0.033637 0.050500 0.071481
    vertex 0.024412 0.050500 0.075133
  endloop
endfacet
facet normal 0.000000 0.001719 0.000000
  outer loop
    vertex 0.071814 0.050500 0.175906
    vertex 0.024412 0.050500 0.075133
    vertex 0.057237 0.050500 0.181174
  endloop
endfacet
facet normal 0.000000 0.001719 0.000000
  outer loop
    vertex 0.057237 0.050500 0.181174
    vertex 0.024412 0.050500 0.075133
    vertex 0.042279 0.050500 0.185236
  endloop
endfacet
facet normal 0.000000 0.001102 0.000000
  outer loop
    vertex 0.042279 0.050500 0.185236
    vertex 0.024412 0.050500 0.075133
    vertex 0.014803 0.050500 0.077601
  endloop
endfacet
facet normal 0.000000 0.001718 0.000000
  outer loop
    vertex 0.042279 0.050500 0.185236
    vertex 0.014803 0.050500 0.077601
    vertex 0.027040 0.050500 0.188066
  endloop
endfacet
facet normal 0.000000 0.001102 0.000000
  outer loop
    vertex 0.027040 0.050500 0.188066
    vertex 0.014803 0.050500 0.077601
    vertex 0.004960 0.050500 0.078844
  endloop
endfacet
facet normal 0.000000 0.001719 0.000000
  outer loop
    vertex 0.027040 0.050500 0.188066
    vertex 0.004960 0.050500 0.078844
    vertex 0.011621 0.050500 0.189644
  endloop
endfacet
facet normal 0.000000 0.001719 0.000000
  outer loop
    vertex 0.011621 0.050500 0.189644
    vertex 0.004960 0.050500 0.078844
    vertex -0.003876 0.050500 0.189960
  endloop
endfacet
facet normal 0.000000 0.001102 0.000000
  outer loop
    vertex -0.003876 0.050500 0.189960
    vertex 0.004960 0.050500 0.078844
    vertex -0.004960 0.050500 0.078844
  endloop
endfacet
facet normal 0.000000 0.001718 0.000000
  outer loop
    vertex -0.003876 0.050500 0.189960
    vertex -0.004960 0.050500 0.078844
    vertex -0.019346 0.050500 0.189012
  endloop
endfacet
facet normal 0.000000 0.001102 0.000000
  outer loop
    vertex -0.019346 0.050500 0.189012
    vertex -0.004960 0.050500 0.078844
    vertex -0.014803 0.050500 0.077601
  endloop
endfacet
facet normal 0.000000 0.001719 0.000000
  outer loop
    vertex -0.019346 0.050500 0.189012
    vertex -0.014803 0.050500 0.077601
    vertex -0.034688 0.050500 0.186807
  endloop
endfacet
facet normal 0.000000 0.001719 0.000000
  outer loop
    vertex -0.034688 0.050500 0.186807
    vertex -0.014803 0.050500 0.077601
    vertex -0.049799 0.050500 0.183358
  endloop
endfacet
facet normal 0.000000 0.001103 0.000000
  outer loop
    vertex -0.049799 0.050500 0.183358
    vertex -0.014803 0.050500 0.077601
    vertex -0.024412 0.050500 0.075133
  endloop
endfacet
facet normal 0.000000 0.001718 0.000000
  outer loop
    vertex -0.049799 0.050500 0.183358
    vertex -0.024412 0.050500 0.075133
    vertex -0.064579 0.050500 0.178688
  endloop
endfacet
facet normal 0.000000 0.001102 0.000000
  outer loop
    vertex -0.064579 0.050500 0.178688
    vertex -0.024412 0.050500 0.075133
    vertex -0.033637 0.050500 0.071481
  endloop
endfacet
facet normal 0.000000 0.001720 0.000000
  outer loop
    vertex -0.064579 0.050500 0.178688
    vertex -0.033637 0.050500 0.071481
    vertex -0.078929 0.050500 0.172830
  endloop
endfacet
facet normal 0.000000 0.001719 0.000000
  outer loop
    vertex -0.078929 0.050500 0.172830
    vertex -0.033637 0.050500 0.071481
    vertex -0.092753 0.050500 0.165822
  endloop
endfacet
facet normal 0.000000 0.001103 0.000000
  outer loop
    vertex -0.092753 0.050500 0.165822
    vertex -0.033637 0.050500 0.071481
    vertex -0.042330 0.050500 0.066702
  endloop
endfacet
facet normal 0.000000 0.001718 0.000000
  outer loop
    vertex -0.092753 0.050500 0.165822
    vertex -0.042330 0.050500 0.066702
    vertex -0.105961 0.050500 0.157710
  endloop
endfacet
facet normal 0.000000 0.001101 0.000000
  outer loop
    vertex -0.105961 0.050500 0.157710
    vertex -0.042330 0.050500 0.066702
    vertex -0.050356 0.050500 0.060871
  endloop
endfacet
facet normal 0.000000 0.001720 0.000000
  outer loop
    vertex -0.105961 0.050500 0.157710
    vertex -0.050356 0.050500 0.060871
    vertex -0.118463 0.050500 0.148548
  endloop
endfacet
facet normal 0.000000 0.001718 0.000000
  outer loop
    vertex -0.118463 0.050500 0.148548
    vertex -0.050356 0.050500 0.060871
    vertex -0.130177 0.050500 0.138398
  endloop
endfacet
facet normal 0.000000 0.001103 0.000000
  outer loop
    vertex -0.130177 0.050500 0.138398
    vertex -0.050356 0.050500 0.060871
    vertex -0.057589 0.050500 0.054079
  endloop
endfacet
facet normal 0.000000 0.001718 0.000000
  outer loop
    vertex -0.130177 0.050500 0.138398
    vertex -0.057589 0.050500 0.054079
    vertex -0.141024 0.050500 0.127327
  endloop
endfacet
facet normal 0.000000 0.001720 0.000000
  outer loop
    vertex -0.141024 0.050500 0.127327
    vertex -0.057589 0.050500 0.054079
    vertex -0.150934 0.050500 0.115408
  endloop
endfacet
facet normal 0.000000 0.001101 0.000000
  outer loop
    vertex -0.150934 0.050500 0.115408
    vertex -0.057589 0.050500 0.054079
    vertex -0.063912 0.050500 0.046435
  endloop
endfacet
facet normal 0.000000 0.001718 0.000000
  outer loop
    vertex -0.150934 0.050500 0.115408
    vertex -0.063912 0.050500 0.046435
    vertex -0.159838 0.050500 0.102722
  endloop
endfacet
facet normal 0.000000 0.001103 0.000000
  outer loop
    vertex -0.159838 0.050500 0.102722
    vertex -0.063912 0.050500 0.046435
    vertex -0.069228 0.050500 0.038059
  endloop
endfacet
facet normal 0.000000 0.001718 0.000000
  outer loop
    vertex -0.159838 0.050500 0.102722
    vertex -0.069228 0.050500 0.038059
    vertex -0.167679 0.050500 0.089352
  endloop
endfacet
facet normal 0.000000 0.001720 0.000000
  outer loop
    vertex -0.167679 0.050500 0.089352
    vertex -0.069228 0.050500 0.038059
    vertex -0.174404 0.050500 0.075387
  endloop
endfacet
facet normal 0.000000 0.001102 0.000000
  outer loop
    vertex -0.174404 0.050500 0.075387
    vertex -0.069228 0.050500 0.038059
    vertex -0.073452 0.050500 0.029082
  endloop
endfacet
facet normal 0.000000 0.001718 0.000000
  outer loop
    vertex -0.174404 0.050500 0.075387
    vertex -0.073452 0.050500 0.029082
    vertex -0.179969 0.050500 0.060921
  endloop
endfacet
facet normal 0.000000 0.001103 0.000000
  outer loop
    vertex -0.179969 0.050500 0.060921
    vertex -0.073452 0.050500 0.029082
    vertex -0.076518 0.050500 0.019647
  endloop
endfacet
facet normal 0.000000 0.001719 0.000000
  outer loop
    vertex -0.179969 0.050500 0.060921
    vertex -0.076518 0.050500 0.019647
    vertex -0.184335 0.050500 0.046049
  endloop
endfacet
facet normal 0.000000 0.001719 0.000000
  outer loop
    vertex -0.184335 0.050500 0.046049
    vertex -0.076518 0.050500 0.019647
    vertex -0.187475 0.050500 0.030870
  endloop
endfacet
facet normal 0.000000 0.001102 0.000000
  outer loop
    vertex -0.187475 0.050500 0.030870
    vertex -0.076518 0.050500 0.019647
    vertex -0.078377 0.050500 0.009901
  endloop
endfacet
facet normal 0.000000 0.001718 0.000000
  outer loop
    vertex -0.187475 0.050500 0.030870
    vertex -0.078377 0.050500 0.009901
    vertex -0.189368 0.050500 0.015487
  endloop
endfacet
facet normal 0.000000 0.001102 0.000000
  outer loop
    vertex -0.189368 0.050500 0.015487
    vertex -0.078377 0.050500 0.009901
    vertex -0.079000 0.050500 0.000000
  endloop
endfacet
facet normal -0.000000 -0.001102 0.000000
  outer loop
    vertex -0.078377 0.000000 0.009901
    vertex -0.189368 0.000000 0.015487
    vertex -0.079000 0.000000 0.000000
  endloop
endfacet
facet normal 0.000000 -0.001719 0.000000
  outer loop
    vertex -0.079000 0.000000 0.000000
    vertex -0.189368 0.000000 0.015487
    vertex -0.190000 0.000000 0.000000
  endloop
endfacet
facet normal -0.000000 -0.001719 0.000000
  outer loop
    vertex -0.079000 0.000000 0.000000
    vertex -0.190000 0.000000 0.000000
    vertex -0.189368 0.000000 -0.015487
  endloop
endfacet
facet normal 0.000000 -0.001718 0.000000
  outer loop
    vertex -0.189368 0.000000 0.015487
    vertex -0.078377 0.000000 0.009901
    vertex -0.187475 0.000000 0.030870
  endloop
endfacet
facet normal 0.000000 -0.001102 0.000000
  outer loop
    vertex -0.187475 0.000000 0.030870
    vertex -0.078377 0.000000 0.009901
    vertex -0.076518 0.000000 0.019647
  endloop
endfacet
facet normal 0.000000 -0.001719 0.000000
  outer loop
    vertex -0.187475 0.000000 0.030870
    vertex -0.076518 0.000000 0.019647
    vertex -0.184335 0.000000 0.046049
  endloop
endfacet
facet normal 0.000000 -0.001719 0.000000
  outer loop
    vertex -0.184335 0.000000 0.046049
    vertex -0.076518 0.000000 0.019647
    vertex -0.179969 0.000000 0.060921
  endloop
endfacet
facet normal 0.000000 -0.001103 0.000000
  outer loop
    vertex -0.179969 0.000000 0.060921
    vertex -0.076518 0.000000 0.019647
    vertex -0.073452 0.000000 0.029082
  endloop
endfacet
facet normal 0.000000 -0.001718 0.000000
  outer loop
    vertex -0.179969 0.000000 0.060921
    vertex -0.073452 0.000000 0.029082
    vertex -0.174404 0.000000 0.075387
  endloop
endfacet
facet normal 0.000000 -0.001102 0.000000
  outer loop
    vertex -0.174404 0.000000 0.075387
    vertex -0.073452 0.000000 0.029082
    vertex -0.069228 0.000000 0.038059
  endloop
endfacet
facet normal 0.000000 -0.001720 0.000000
  outer loop
    vertex -0.174404 0.000000 0.075387
    vertex -0.069228 0.000000 0.038059
    vertex -0.167679 0.000000 0.089352
  endloop
endfacet
facet normal 0.000000 -0.001718 0.000000
  outer loop
    vertex -0.167679 0.000000 0.089352
    vertex -0.069228 0.000000 0.038059
    vertex -0.159838 0.000000 0.102722
  endloop
endfacet
facet normal 0.000000 -0.001103 0.000000
  outer loop
    vertex -0.159838 0.000000 0.102722
    vertex -0.069228 0.000000 0.038059
    vertex -0.063912 0.000000 0.046435
  endloop
endfacet
facet normal 0.000000 -0.001718 0.000000
  outer loop
    vertex -0.159838 0.000000 0.102722
    vertex -0.063912 0.000000 0.046435
    vertex -0.150934 0.000000 0.115408
  endloop
endfacet
facet normal 0.000000 -0.001101 0.000000
  outer loop
    vertex -0.150934 0.000000 0.115408
    vertex -0.063912 0.000000 0.046435
    vertex -0.057589 0.000000 0.054079
  endloop
endfacet
facet normal 0.000000 -0.001720 0.000000
  outer loop
    vertex -0.150934 0.000000 0.115408
    vertex -0.057589 0.000000 0.054079
    vertex -0.141024 0.000000 0.127327
  endloop
endfacet
facet normal 0.000000 -0.001718 0.000000
  outer loop
    vertex -0.141024 0.000000 0.127327
    vertex -0.057589 0.000000 0.054079
    vertex -0.130177 0.000000 0.138398
  endloop
endfacet
facet normal 0.000000 -0.001103 0.000000
  outer loop
    vertex -0.130177 0.000000 0.138398
    vertex -0.057589 0.000000 0.054079
    vertex -0.050356 0.000000 0.060871
  endloop
endfacet
facet normal 0.000000 -0.001718 0.000000
  outer loop
    vertex -0.130177 0.000000 0.138398
    vertex -0.050356 0.000000 0.060871
    vertex -0.118463 0.000000 0.148548
  endloop
endfacet
facet normal 0.000000 -0.001720 0.000000
  outer loop
    vertex -0.118463 0.000000 0.148548
    vertex -0.050356 0.000000 0.060871
    vertex -0.105961 0.000000 0.157710
  endloop
endfacet
facet normal 0.000000 -0.001101 0.000000
  outer loop
    vertex -0.105961 0.000000 0.157710
    vertex -0.050356 0.000000 0.060871
    vertex -0.042330 0.000000 0.066702
  endloop
endfacet
facet normal 0.000000 -0.001718 0.000000
  outer loop
    vertex -0.105961 0.000000 0.157710
    vertex -0.042330 0.000000 0.066702
    vertex -0.092753 0.000000 0.165822
  endloop
endfacet
facet normal 0.000000 -0.001103 0.000000
  outer loop
    vertex -0.092753 0.000000 0.165822
    vertex -0.042330 0.000000 0.066702
    vertex -0.033637 0.000000 0.071481
  endloop
endfacet
facet normal 0.000000 -0.001719 0.000000
  outer loop
    vertex -0.092753 0.000000 0.165822
    vertex -0.033637 0.000000 0.071481
    vertex -0.078929 0.000000 0.172830
  endloop
endfacet
facet normal 0.000000 -0.001720 0.000000
  outer loop
    vertex -0.078929 0.000000 0.172830
    vertex -0.033637 0.000000 0.071481
    vertex -0.064579 0.000000 0.178688
  endloop
endfacet
facet normal 0.000000 -0.001102 0.000000
  outer loop
    vertex -0.064579 0.000000 0.178688
    vertex -0.033637 0.000000 0.071481
    vertex -0.024412 0.000000 0.075133
  endloop
endfacet
facet normal 0.000000 -0.001718 0.000000
  outer loop
    vertex -0.064579 0.000000 0.178688
    vertex -0.024412 0.000000 0.075133
    vertex -0.049799 0.000000 0.183358
  endloop
endfacet
facet normal 0.000000 -0.001103 0.000000
  outer loop
    vertex -0.049799 0.000000 0.183358
    vertex -0.024412 0.000000 0.075133
    vertex -0.014803 0.000000 0.077601
  endloop
endfacet
facet normal 0.000000 -0.001719 0.000000
  outer loop
    vertex -0.049799 0.000000 0.183358
    vertex -0.014803 0.000000 0.077601
    vertex -0.034688 0.000000 0.186807
  endloop
endfacet
facet normal 0.000000 -0.001719 0.000000
  outer loop
    vertex -0.034688 0.000000 0.186807
    vertex -0.014803 0.000000 0.077601
    vertex -0.019346 0.000000 0.189012
  endloop
endfacet
facet normal 0.000000 -0.001102 0.000000
  outer loop
    vertex -0.019346 0.000000 0.189012
    vertex -0.014803 0.000000 0.077601
    vertex -0.004960 0.000000 0.078844
  endloop
endfacet
facet normal 0.000000 -0.001718 0.000000
  outer loop
    vertex -0.019346 0.000000 0.189012
    vertex -0.004960 0.000000 0.078844
    vertex -0.003876 0.000000 0.189960
  endloop
endfacet
facet normal 0.000000 -0.001102 -0.000000
  outer loop
    vertex -0.003876 0.000000 0.189960
    vertex -0.004960 0.000000 0.078844
    vertex 0.004960 0.000000 0.078844
  endloop
endfacet
facet normal 0.000000 -0.001719 0.000000
  outer loop
    vertex -0.003876 0.000000 0.189960
    vertex 0.004960 0.000000 0.078844
    vertex 0.011621 0.000000 0.189644
  endloop
endfacet
facet normal 0.000000 -0.001719 -0.000000
  outer loop
    vertex 0.011621 0.000000 0.189644
    vertex 0.004960 0.000000 0.078844
    vertex 0.027040 0.000000 0.188066
  endloop
endfacet
facet normal 0.000000 -0.001102 0.000000
  outer loop
    vertex 0.027040 0.000000 0.188066
    vertex 0.004960 0.000000 0.078844
    vertex 0.014803 0.000000 0.077601
  endloop
endfacet
facet normal 0.000000 -0.001718 -0.000000
  outer loop
    vertex 0.027040 0.000000 0.188066
    vertex 0.014803 0.000000 0.077601
    vertex 0.042279 0.000000 0.185236
  endloop
endfacet
facet normal 0.000000 -0.001102 0.000000
  outer loop
    vertex 0.042279 0.000000 0.185236
    vertex 0.014803 0.000000 0.077601
    vertex 0.024412 0.000000 0.075133
  endloop
endfacet
facet normal 0.000000 -0.001719 -0.000000
  outer loop
    vertex 0.042279 0.000000 0.185236
    vertex 0.024412 0.000000 0.075133
    vertex 0.057237 0.000000 0.181174
  endloop
endfacet
facet normal 0.000000 -0.001719 -0.000000
  outer loop
    vertex 0.057237 0.000000 0.181174
    vertex 0.024412 0.000000 0.075133
    vertex 0.071814 0.000000 0.175906
  endloop
endfacet
facet normal 0.000000 -0.001103 0.000000
  outer loop
    vertex 0.071814 0.000000 0.175906
    vertex 0.024412 0.000000 0.075133
    vertex 0.033637 0.000000 0.071481
  endloop
endfacet
facet normal 0.000000 -0.001718 -0.000000
  outer loop
    vertex 0.071814 0.000000 0.175906
    vertex 0.033637 0.000000 0.071481
    vertex 0.085913 0.000000 0.169467
  endloop
endfacet
facet normal 0.000000 -0.001102 0.000000
  outer loop
    vertex 0.085913 0.000000 0.169467
    vertex 0.033637 0.000000 0.071481
    vertex 0.042330 0.000000 0.066702
  endloop
endfacet
facet normal 0.000000 -0.001720 -0.000000
  outer loop
    vertex 0.085913 0.000000 0.169467
    vertex 0.042330 0.000000 0.066702
    vertex 0.099440 0.000000 0.161900
  endloop
endfacet
facet normal 0.000000 -0.001718 -0.000000
  outer loop
    vertex 0.099440 0.000000 0.161900
    vertex 0.042330 0.000000 0.066702
    vertex 0.112305 0.000000 0.153256
  endloop
endfacet
facet normal 0.000000 -0.001103 0.000000
  outer loop
    vertex 0.112305 0.000000 0.153256
    vertex 0.042330 0.000000 0.066702
    vertex 0.050356 0.000000 0.060871
  endloop
endfacet
facet normal 0.000000 -0.001718 -0.000000
  outer loop
    vertex 0.112305 0.000000 0.153256
    vertex 0.050356 0.000000 0.060871
    vertex 0.124424 0.000000 0.143592
  endloop
endfacet
facet normal 0.000000 -0.001101 0.000000
  outer loop
    vertex 0.124424 0.000000 0.143592
    vertex 0.050356 0.000000 0.060871
    vertex 0.057589 0.000000 0.054079
  endloop
endfacet
facet normal 0.000000 -0.001720 -0.000000
  outer loop
    vertex 0.124424 0.000000 0.143592
    vertex 0.057589 0.000000 0.054079
    vertex 0.135714 0.000000 0.132973
  endloop
endfacet
facet normal 0.000000 -0.001718 -0.000000
  outer loop
    vertex 0.135714 0.000000 0.132973
    vertex 0.057589 0.000000 0.054079
    vertex 0.146101 0.000000 0.121469
  endloop
endfacet
facet normal 0.000000 -0.001103 0.000000
  outer loop
    vertex 0.146101 0.000000 0.121469
    vertex 0.057589 0.000000 0.054079
    vertex 0.063912 0.000000 0.046435
  endloop
endfacet
facet normal 0.000000 -0.001718 -0.000000
  outer loop
    vertex 0.146101 0.000000 0.121469
    vertex 0.063912 0.000000 0.046435
    vertex 0.155515 0.000000 0.109156
  endloop
endfacet
facet normal 0.000000 -0.001720 -0.000000
  outer loop
    vertex 0.155515 0.000000 0.109156
    vertex 0.063912 0.000000 0.046435
    vertex 0.163895 0.000000 0.096117
  endloop
endfacet
facet normal 0.000000 -0.001102 0.000000
  outer loop
    vertex 0.163895 0.000000 0.096117
    vertex 0.063912 0.000000 0.046435
    vertex 0.069228 0.000000 0.038059
  endloop
endfacet
facet normal 0.000000 -0.001718 -0.000000
  outer loop
    vertex 0.163895 0.000000 0.096117
    vertex 0.069228 0.000000 0.038059
    vertex 0.171184 0.000000 0.082438
  endloop
endfacet
facet normal 0.000000 -0.001103 0.000000
  outer loop
    vertex 0.171184 0.000000 0.082438
    vertex 0.069228 0.000000 0.038059
    vertex 0.073452 0.000000 0.029082
  endloop
endfacet
facet normal 0.000000 -0.001719 -0.000000
  outer loop
    vertex 0.171184 0.000000 0.082438
    vertex 0.073452 0.000000 0.029082
    vertex 0.177334 0.000000 0.068211
  endloop
endfacet
facet normal 0.000000 -0.001720 -0.000000
  outer loop
    vertex 0.177334 0.000000 0.068211
    vertex 0.073452 0.000000 0.029082
    vertex 0.182304 0.000000 0.053529
  endloop
endfacet
facet normal 0.000000 -0.001102 0.000000
  outer loop
    vertex 0.182304 0.000000 0.053529
    vertex 0.073452 0.000000 0.029082
    vertex 0.076518 0.000000 0.019647
  endloop
endfacet
facet normal 0.000000 -0.001718 -0.000000
  outer loop
    vertex 0.182304 0.000000 0.053529
    vertex 0.076518 0.000000 0.019647
    vertex 0.186060 0.000000 0.038492
  endloop
endfacet
facet normal 0.000000 -0.001103 0.000000
  outer loop
    vertex 0.186060 0.000000 0.038492
    vertex 0.076518 0.000000 0.019647
    vertex 0.078377 0.000000 0.009901
  endloop
endfacet
facet normal 0.000000 -0.001719 -0.000000
  outer loop
    vertex 0.186060 0.000000 0.038492
    vertex 0.078377 0.000000 0.009901
    vertex 0.188579 0.000000 0.023198
  endloop
endfacet
facet normal 0.000000 -0.001719 -0.000000
  outer loop
    vertex 0.188579 0.000000 0.023198
    vertex 0.078377 0.000000 0.009901
    vertex 0.189842 0.000000 0.007750
  endloop
endfacet
facet normal -0.000000 -0.001102 0.000000
  outer loop
    vertex 0.189842 0.000000 0.007750
    vertex 0.078377 0.000000 0.009901
    vertex 0.079000 0.000000 0.000000
  endloop
endfacet
facet normal 0.000000 -0.001718 -0.000000
  outer loop
    vertex 0.189842 0.000000 0.007750
    vertex 0.079000 0.000000 0.000000
    vertex 0.189842 0.000000 -0.007750
  endloop
endfacet
facet normal -0.000000 -0.001102 0.000000
  outer loop
    vertex 0.189842 0.000000 -0.007750
    vertex 0.079000 0.000000 0.000000
    vertex 0.078377 0.000000 -0.009901
  endloop
endfacet
facet normal 0.000000 -0.001719 0.000000
  outer loop
    vertex 0.189842 0.000000 -0.007750
    vertex 0.078377 0.000000 -0.009901
    vertex 0.188579 0.000000 -0.023198
  endloop
endfacet
facet normal -0.000000 -0.001719 0.000000
  outer loop
    vertex 0.188579 0.000000 -0.023198
    vertex 0.078377 0.000000 -0.009901
    vertex 0.186060 0.000000 -0.038492
  endloop
endfacet
facet normal 0.000000 -0.001103 0.000000
  outer loop
    vertex 0.186060 0.000000 -0.038492
    vertex 0.078377 0.000000 -0.009901
    vertex 0.076518 0.000000 -0.019647
  endloop
endfacet
facet normal -0.000000 -0.001718 0.000000
  outer loop
    vertex 0.186060 0.000000 -0.038492
    vertex 0.076518 0.000000 -0.019647
    vertex 0.182304 0.000000 -0.053529
  endloop
endfacet
facet normal 0.000000 -0.001102 0.000000
  outer loop
    vertex 0.182304 0.000000 -0.053529
    vertex 0.076518 0.000000 -0.019647
    vertex 0.073452 0.000000 -0.029082
  endloop
endfacet
facet normal -0.000000 -0.001720 0.000000
  outer loop
    vertex 0.182304 0.000000 -0.053529
    vertex 0.073452 0.000000 -0.029082
    vertex 0.177334 0.000000 -0.068211
  endloop
endfacet
facet normal -0.000000 -0.001719 0.000000
  outer loop
    vertex 0.177334 0.000000 -0.068211
    vertex 0.073452 0.000000 -0.029082
    vertex 0.171184 0.000000 -0.082438
  endloop
endfacet
facet normal 0.000000 -0.001103 0.000000
  outer loop
    vertex 0.171184 0.000000 -0.082438
    vertex 0.073452 0.000000 -0.029082
    vertex 0.069228 0.000000 -0.038059
  endloop
endfacet
facet normal -0.000000 -0.001718 0.000000
  outer loop
    vertex 0.171184 0.000000 -0.082438
    vertex 0.069228 0.000000 -0.038059
    vertex 0.163895 0.000000 -0.096117
  endloop
endfacet
facet normal 0.000000 -0.001102 0.000000
  outer loop
    vertex 0.163895 0.000000 -0.096117
    vertex 0.069228 0.000000 -0.038059
    vertex 0.063912 0.000000 -0.046435
  endloop
endfacet
facet normal -0.000000 -0.001720 0.000000
  outer loop
    vertex 0.163895 0.000000 -0.096117
    vertex 0.063912 0.000000 -0.046435
    vertex 0.155515 0.000000 -0.109156
  endloop
endfacet
facet normal -0.000000 -0.001718 0.000000
  outer loop
    vertex 0.155515 0.000000 -0.109156
    vertex 0.063912 0.000000 -0.046435
    vertex 0.146101 0.000000 -0.121469
  endloop
endfacet
facet normal 0.000000 -0.001103 0.000000
  outer loop
    vertex 0.146101 0.000000 -0.121469
    vertex 0.063912 0.000000 -0.046435
    vertex 0.057589 0.000000 -0.054079
  endloop
endfacet
facet normal -0.000000 -0.001718 0.000000
  outer loop
    vertex 0.146101 0.000000 -0.121469
    vertex 0.057589 0.000000 -0.054079
    vertex 0.135714 0.000000 -0.132973
  endloop
endfacet
facet normal -0.000000 -0.001720 0.000000
  outer loop
    vertex 0.135714 0.000000 -0.132973
    vertex 0.057589 0.000000 -0.054079
    vertex 0.124424 0.000000 -0.143592
  endloop
endfacet
facet normal 0.000000 -0.001101 0.000000
  outer loop
    vertex 0.124424 0.000000 -0.143592
    vertex 0.057589 0.000000 -0.054079
    vertex 0.050356 0.000000 -0.060871
  endloop
endfacet
facet normal -0.000000 -0.001718 0.000000
  outer loop
    vertex 0.124424 0.000000 -0.143592
    vertex 0.050356 0.000000 -0.060871
    vertex 0.112305 0.000000 -0.153256
  endloop
endfacet
facet normal 0.000000 -0.001103 0.000000
  outer loop
    vertex 0.112305 0.000000 -0.153256
    vertex 0.050356 0.000000 -0.060871
    vertex 0.042330 0.000000 -0.066702
  endloop
endfacet
facet normal -0.000000 -0.001718 0.000000
  outer loop
    vertex 0.112305 0.000000 -0.153256
    vertex 0.042330 0.000000 -0.066702
    vertex 0.099440 0.000000 -0.161900
  endloop
endfacet
facet normal -0.000000 -0.001720 0.000000
  outer loop
    vertex 0.099440 0.000000 -0.161900
    vertex 0.042330 0.000000 -0.066702
    vertex 0.085913 0.000000 -0.169467
  endloop
endfacet
facet normal 0.000000 -0.001102 0.000000
  outer loop
    vertex 0.085913 0.000000 -0.169467
    vertex 0.042330 0.000000 -0.066702
    vertex 0.033637 0.000000 -0.071481
  endloop
endfacet
facet normal -0.000000 -0.001718 0.000000
  outer loop
    vertex 0.085913 0.000000 -0.169467
    vertex 0.033637 0.000000 -0.071481
    vertex 0.071814 0.000000 -0.175906
  endloop
endfacet
facet normal 0.000000 -0.001103 0.000000
  outer loop
    vertex 0.071814 0.000000 -0.175906
    vertex 0.033637 0.000000 -0.071481
    vertex 0.024412 0.000000 -0.075133
  endloop
endfacet
facet normal -0.000000 -0.001719 0.000000
  outer loop
    vertex 0.071814 0.000000 -0.175906
    vertex 0.024412 0.000000 -0.075133
    vertex 0.057237 0.000000 -0.181174
  endloop
endfacet
facet normal -0.000000 -0.001719 0.000000
  outer loop
    vertex 0.057237 0.000000 -0.181174
    vertex 0.024412 0.000000 -0.075133
    vertex 0.042279 0.000000 -0.185236
  endloop
endfacet
facet normal 0.000000 -0.001102 0.000000
  outer loop
    vertex 0.042279 0.000000 -0.185236
    vertex 0.024412 0.000000 -0.075133
    vertex 0.014803 0.000000 -0.077601
  endloop
endfacet
facet normal -0.000000 -0.001718 0.000000
  outer loop
    vertex 0.042279 0.000000 -0.185236
    vertex 0.014803 0.000000 -0.077601
    vertex 0.027040 0.000000 -0.188066
  endloop
endfacet
facet normal 0.000000 -0.001102 0.000000
  outer loop
    vertex 0.027040 0.000000 -0.188066
    vertex 0.014803 0.000000 -0.077601
    vertex 0.004960 0.000000 -0.078844
  endloop
endfacet
facet normal -0.000000 -0.001719 0.000000
  outer loop
    vertex 0.027040 0.000000 -0.188066
    vertex 0.004960 0.000000 -0.078844
    vertex 0.011621 0.000000 -0.189644
  endloop
endfacet
facet normal -0.000000 -0.001719 0.000000
  outer loop
    vertex 0.011621 0.000000 -0.189644
    vertex 0.004960 0.000000 -0.078844
    vertex -0.003876 0.000000 -0.189960
  endloop
endfacet
facet normal 0.000000 -0.001102 0.000000
  outer loop
    vertex -0.003876 0.000000 -0.189960
    vertex 0.004960 0.000000 -0.078844
    vertex -0.004960 0.000000 -0.078844
  endloop
endfacet
facet normal 0.000000 -0.001718 0.000000
  outer loop
    vertex -0.003876 0.000000 -0.189960
    vertex -0.004960 0.000000 -0.078844
    vertex -0.019346 0.000000 -0.189012
  endloop
endfacet
facet normal 0.000000 -0.001102 0.000000
  outer loop
    vertex -0.019346 0.000000 -0.189012
    vertex -0.004960 0.000000 -0.078844
    vertex -0.014803 0.000000 -0.077601
  endloop
endfacet
facet normal 0.000000 -0.001719 0.000000
  outer loop
    vertex -0.019346 0.000000 -0.189012
    vertex -0.014803 0.000000 -0.077601
    vertex -0.034688 0.000000 -0.186807
  endloop
endfacet
facet normal 0.000000 -0.001719 0.000000
  outer loop
    vertex -0.034688 0.000000 -0.186807
    vertex -0.014803 0.000000 -0.077601
    vertex -0.049799 0.000000 -0.183358
  endloop
endfacet
facet normal 0.000000 -0.001103 0.000000
  outer loop
    vertex -0.049799 0.000000 -0.183358
    vertex -0.014803 0.000000 -0.077601
    vertex -0.024412 0.000000 -0.075133
  endloop
endfacet
facet normal 0.000000 -0.001718 0.000000
  outer loop
    vertex -0.049799 0.000000 -0.183358
    vertex -0.024412 0.000000 -0.075133
    vertex -0.064579 0.000000 -0.178688
  endloop
endfacet
facet normal 0.000000 -0.001102 0.000000
  outer loop
    vertex -0.064579 0.000000 -0.178688
    vertex -0.024412 0.000000 -0.075133
    vertex -0.033637 0.000000 -0.071481
  endloop
endfacet
facet normal 0.000000 -0.001720 0.000000
  outer loop
    vertex -0.064579 0.000000 -0.178688
    vertex -0.033637 0.000000 -0.071481
    vertex -0.078929 0.000000 -0.172830
  endloop
endfacet
facet normal 0.000000 -0.001719 0.000000
  outer loop
    vertex -0.078929 0.000000 -0.172830
    vertex -0.033637 0.000000 -0.071481
    vertex -0.092753 0.000000 -0.165822
  endloop
endfacet
facet normal 0.000000 -0.001103 0.000000
  outer loop
    vertex -0.092753 0.000000 -0.165822
    vertex -0.033637 0.000000 -0.071481
    vertex -0.042330 0.000000 -0.066702
  endloop
endfacet
facet normal 0.000000 -0.001718 0.000000
  outer loop
    vertex -0.092753 0.000000 -0.165822
    vertex -0.042330 0.000000 -0.066702
    vertex -0.105961 0.000000 -0.157710
  endloop
endfacet
facet normal 0.000000 -0.001101 0.000000
  outer loop
    vertex -0.105961 0.000000 -0.157710
    vertex -0.042330 0.000000 -0.066702
    vertex -0.050356 0.000000 -0.060871
  endloop
endfacet
facet normal 0.000000 -0.001720 0.000000
  outer loop
    vertex -0.105961 0.000000 -0.157710
    vertex -0.050356 0.000000 -0.060871
    vertex -0.118463 0.000000 -0.148548
  endloop
endfacet
facet normal 0.000000 -0.001718 0.000000
  outer loop
    vertex -0.118463 0.000000 -0.148548
    vertex -0.050356 0.000000 -0.060871
    vertex -0.130177 0.000000 -0.138398
  endloop
endfacet
facet normal 0.000000 -0.001103 0.000000
  outer loop
    vertex -0.130177 0.000000 -0.138398
    vertex -0.050356 0.000000 -0.060871
    vertex -0.057589 0.000000 -0.054079
  endloop
endfacet
facet normal 0.000000 -0.001718 0.000000
  outer loop
    vertex -0.130177 0.000000 -0.138398
    vertex -0.057589 0.000000 -0.054079
    vertex -0.141024 0.000000 -0.127327
  endloop
endfacet
facet normal 0.000000 -0.001720 0.000000
  outer loop
    vertex -0.141024 0.000000 -0.127327
    vertex -0.057589 0.000000 -0.054079
    vertex -0.150934 0.000000 -0.115408
  endloop
endfacet
facet normal 0.000000 -0.001101 0.000000
  outer loop
    vertex -0.150934 0.000000 -0.115408
    vertex -0.057589 0.000000 -0.054079
    vertex -0.063912 0.000000 -0.046435
  endloop
endfacet
facet normal 0.000000 -0.001718 0.000000
  outer loop
    vertex -0.150934 0.000000 -0.115408
    vertex -0.063912 0.000000 -0.046435
    vertex -0.159838 0.000000 -0.102722
  endloop
endfacet
facet normal 0.000000 -0.001103 0.000000
  outer loop
    vertex -0.159838 0.000000 -0.102722
    vertex -0.063912 0.000000 -0.046435
    vertex -0.069228 0.000000 -0.038059
  endloop
endfacet
facet normal 0.000000 -0.001718 0.000000
  outer loop
    vertex -0.159838 0.000000 -0.102722
    vertex -0.069228 0.000000 -0.038059
    vertex -0.167679 0.000000 -0.089352
  endloop
endfacet
facet normal 0.000000 -0.001720 0.000000
  outer loop
    vertex -0.167679 0.000000 -0.089352
    vertex -0.069228 0.000000 -0.038059
    vertex -0.174404 0.000000 -0.075387
  endloop
endfacet
facet normal 0.000000 -0.001102 0.000000
  outer loop
    vertex -0.174404 0.000000 -0.075387
    vertex -0.069228 0.000000 -0.038059
    vertex -0.073452 0.000000 -0.029082
  endloop
endfacet
facet normal 0.000000 -0.001718 0.000000
  outer loop
    vertex -0.174404 0.000000 -0.075387
    vertex -0.073452 0.000000 -0.029082
    vertex -0.179969 0.000000 -0.060921
  endloop
endfacet
facet normal 0.000000 -0.001103 0.000000
  outer loop
    vertex -0.179969 0.000000 -0.060921
    vertex -0.073452 0.000000 -0.029082
    vertex -0.076518 0.000000 -0.019647
  endloop
endfacet
facet normal 0.000000 -0.001719 0.000000
  outer loop
    vertex -0.179969 0.000000 -0.060921
    vertex -0.076518 0.000000 -0.019647
    vertex -0.184335 0.000000 -0.046049
  endloop
endfacet
facet normal 0.000000 -0.001719 0.000000
  outer loop
    vertex -0.184335 0.000000 -0.046049
    vertex -0.076518 0.000000 -0.019647
    vertex -0.187475 0.000000 -0.030870
  endloop
endfacet
facet normal 0.000000 -0.001102 0.000000
  outer loop
    vertex -0.187475 0.000000 -0.030870
    vertex -0.076518 0.000000 -0.019647
    vertex -0.078377 0.000000 -0.009901
  endloop
endfacet
facet normal 0.000000 -0.001718 0.000000
  outer loop
    vertex -0.187475 0.000000 -0.030870
    vertex -0.078377 0.000000 -0.009901
    vertex -0.189368 0.000000 -0.015487
  endloop
endfacet
facet normal 0.000000 -0.001102 0.000000
  outer loop
    vertex -0.189368 0.000000 -0.015487
    vertex -0.078377 0.000000 -0.009901
    vertex -0.079000 0.000000 0.000000
  endloop
endfacet
endsolid 7f950b2b-fbaa-4cb3-8dcc-8e5546fbdc79-ascii.stl
