solid 92be3c76-98b5-4f6d-980c-f412b542094e-ascii.stl
facet normal 0.000124 0.000000 -0.000012
  outer loop
    vertex -0.030404 0.020500 0.006048
    vertex -0.030404 0.000000 0.006048
    vertex -0.031000 0.020500 0.000000
  endloop
endfacet
facet normal 0.000124 0.000000 -0.000012
  outer loop
    vertex -0.031000 0.020500 0.000000
    vertex -0.030404 0.000000 0.006048
    vertex -0.031000 0.000000 0.000000
  endloop
endfacet
facet normal 0.000124 0.000000 0.000012
  outer loop
    vertex -0.031000 0.020500 0.000000
    vertex -0.031000 0.000000 0.000000
    vertex -0.030404 0.020500 -0.006048
  endloop
endfacet
facet normal 0.000124 0.000000 0.000012
  outer loop
    vertex -0.030404 0.020500 -0.006048
    vertex -0.031000 0.000000 0.000000
    vertex -0.030404 0.000000 -0.006048
  endloop
endfacet
facet normal 0.000119 0.000000 0.000036
  outer loop
    vertex -0.030404 0.020500 -0.006048
    vertex -0.030404 0.000000 -0.006048
    vertex -0.028640 0.000000 -0.011863
  endloop
endfacet
facet normal 0.000119 0.000000 -0.000036
  outer loop
    vertex -0.030404 0.020500 0.006048
    vertex -0.028640 0.020500 0.011863
    vertex -0.030404 0.000000 0.006048
  endloop
endfacet
facet normal 0.000119 0.000000 -0.000036
  outer loop
    vertex -0.030404 0.000000 0.006048
    vertex -0.028640 0.020500 0.011863
    vertex -0.028640 0.000000 0.011863
  endloop
endfacet
facet normal 0.000110 0.000000 -0.000059
  outer loop
    vertex -0.028640 0.000000 0.011863
    vertex -0.028640 0.020500 0.011863
    vertex -0.025776 0.020500 0.017223
  endloop
endfacet
facet normal 0.000110 0.000000 -0.000059
  outer loop
    vertex -0.028640 0.000000 0.011863
    vertex -0.025776 0.020500 0.017223
    vertex -0.025776 0.000000 0.017223
  endloop
endfacet
facet normal 0.000096 0.000000 -0.000079
  outer loop
    vertex -0.025776 0.000000 0.017223
    vertex -0.025776 0.020500 0.017223
    vertex -0.021920 0.020500 0.021920
  endloop
endfacet
facet normal 0.000096 0.000000 -0.000079
  outer loop
    vertex -0.025776 0.000000 0.017223
    vertex -0.021920 0.020500 0.021920
    vertex -0.021920 0.000000 0.021920
  endloop
endfacet
facet normal 0.000079 0.000000 -0.000096
  outer loop
    vertex -0.021920 0.000000 0.021920
    vertex -0.021920 0.020500 0.021920
    vertex -0.017223 0.020500 0.025776
  endloop
endfacet
facet normal 0.000079 0.000000 -0.000096
  outer loop
    vertex -0.021920 0.000000 0.021920
    vertex -0.017223 0.020500 0.025776
    vertex -0.017223 0.000000 0.025776
  endloop
endfacet
facet normal 0.000059 0.000000 -0.000110
  outer loop
    vertex -0.017223 0.000000 0.025776
    vertex -0.017223 0.020500 0.025776
    vertex -0.011863 0.020500 0.028640
  endloop
endfacet
facet normal 0.000059 0.000000 -0.000110
  outer loop
    vertex -0.017223 0.000000 0.025776
    vertex -0.011863 0.020500 0.028640
    vertex -0.011863 0.000000 0.028640
  endloop
endfacet
facet normal 0.000036 0.000000 -0.000119
  outer loop
    vertex -0.011863 0.000000 0.028640
    vertex -0.011863 0.020500 0.028640
    vertex -0.006048 0.020500 0.030404
  endloop
endfacet
facet normal 0.000036 0.000000 -0.000119
  outer loop
    vertex -0.011863 0.000000 0.028640
    vertex -0.006048 0.020500 0.030404
    vertex -0.006048 0.000000 0.030404
  endloop
endfacet
facet normal 0.000012 0.000000 -0.000124
  outer loop
    vertex -0.006048 0.000000 0.030404
    vertex -0.006048 0.020500 0.030404
    vertex 0.000000 0.020500 0.031000
  endloop
endfacet
facet normal 0.000012 0.000000 -0.000124
  outer loop
    vertex -0.006048 0.000000 0.030404
    vertex 0.000000 0.020500 0.031000
    vertex 0.000000 0.000000 0.031000
  endloop
endfacet
facet normal -0.000012 0.000000 -0.000124
  outer loop
    vertex 0.000000 0.000000 0.031000
    vertex 0.000000 0.020500 0.031000
    vertex 0.006048 0.020500 0.030404
  endloop
endfacet
facet normal -0.000012 0.000000 -0.000124
  outer loop
    vertex 0.000000 0.000000 0.031000
    vertex 0.006048 0.020500 0.030404
    vertex 0.006048 0.000000 0.030404
  endloop
endfacet
facet normal -0.000036 0.000000 -0.000119
  outer loop
    vertex 0.006048 0.000000 0.030404
    vertex 0.006048 0.020500 0.030404
    vertex 0.011863 0.020500 0.028640
  endloop
endfacet
facet normal -0.000036 0.000000 -0.000119
  outer loop
    vertex 0.006048 0.000000 0.030404
    vertex 0.011863 0.020500 0.028640
    vertex 0.011863 0.000000 0.028640
  endloop
endfacet
facet normal -0.000059 0.000000 -0.000110
  outer loop
    vertex 0.011863 0.000000 0.028640
    vertex 0.011863 0.020500 0.028640
    vertex 0.017223 0.020500 0.025776
  endloop
endfacet
facet normal -0.000059 0.000000 -0.000110
  outer loop
    vertex 0.011863 0.000000 0.028640
    vertex 0.017223 0.020500 0.025776
    vertex 0.017223 0.000000 0.025776
  endloop
endfacet
facet normal -0.000079 0.000000 -0.000096
  outer loop
    vertex 0.017223 0.000000 0.025776
    vertex 0.017223 0.020500 0.025776
    vertex 0.021920 0.020500 0.021920
  endloop
endfacet
facet normal -0.000079 0.000000 -0.000096
  outer loop
    vertex 0.017223 0.000000 0.025776
    vertex 0.021920 0.020500 0.021920
    vertex 0.021920 0.000000 0.021920
  endloop
endfacet
facet normal -0.000096 0.000000 -0.000079
  outer loop
    vertex 0.021920 0.000000 0.021920
    vertex 0.021920 0.020500 0.021920
    vertex 0.025776 0.020500 0.017223
  endloop
endfacet
facet normal -0.000096 0.000000 -0.000079
  outer loop
    vertex 0.021920 0.000000 0.021920
    vertex 0.025776 0.020500 0.017223
    vertex 0.025776 0.000000 0.017223
  endloop
endfacet
facet normal -0.000110 0.000000 -0.000059
  outer loop
    vertex 0.025776 0.000000 0.017223
    vertex 0.025776 0.020500 0.017223
    vertex 0.028640 0.020500 0.011863
  endloop
endfacet
facet normal -0.000110 0.000000 -0.000059
  outer loop
    vertex 0.025776 0.000000 0.017223
    vertex 0.028640 0.020500 0.011863
    vertex 0.028640 0.000000 0.011863
  endloop
endfacet
facet normal -0.000119 0.000000 -0.000036
  outer loop
    vertex 0.028640 0.000000 0.011863
    vertex 0.028640 0.020500 0.011863
    vertex 0.030404 0.020500 0.006048
  endloop
endfacet
facet normal -0.000119 0.000000 -0.000036
  outer loop
    vertex 0.028640 0.000000 0.011863
    vertex 0.030404 0.020500 0.006048
    vertex 0.030404 0.000000 0.006048
  endloop
endfacet
facet normal -0.000124 0.000000 -0.000012
  outer loop
    vertex 0.030404 0.000000 0.006048
    vertex 0.030404 0.020500 0.006048
    vertex 0.031000 0.020500 0.000000
  endloop
endfacet
facet normal -0.000124 0.000000 -0.000012
  outer loop
    vertex 0.030404 0.000000 0.006048
    vertex 0.031000 0.020500 0.000000
    vertex 0.031000 0.000000 0.000000
  endloop
endfacet
facet normal -0.000124 0.000000 0.000012
  outer loop
    vertex 0.031000 0.000000 0.000000
    vertex 0.031000 0.020500 0.000000
    vertex 0.030404 0.020500 -0.006048
  endloop
endfacet
facet normal -0.000124 0.000000 0.000012
  outer loop
    vertex 0.031000 0.000000 0.000000
    vertex 0.030404 0.020500 -0.006048
    vertex 0.030404 0.000000 -0.006048
  endloop
endfacet
facet normal -0.000119 0.000000 0.000036
  outer loop
    vertex 0.030404 0.000000 -0.006048
    vertex 0.030404 0.020500 -0.006048
    vertex 0.028640 0.020500 -0.011863
  endloop
endfacet
facet normal -0.000119 0.000000 0.000036
  outer loop
    vertex 0.030404 0.000000 -0.006048
    vertex 0.028640 0.020500 -0.011863
    vertex 0.028640 0.000000 -0.011863
  endloop
endfacet
facet normal -0.000110 0.000000 0.000059
  outer loop
    vertex 0.028640 0.000000 -0.011863
    vertex 0.028640 0.020500 -0.011863
    vertex 0.025776 0.020500 -0.017223
  endloop
endfacet
facet normal -0.000110 0.000000 0.000059
  outer loop
    vertex 0.028640 0.000000 -0.011863
    vertex 0.025776 0.020500 -0.017223
    vertex 0.025776 0.000000 -0.017223
  endloop
endfacet
facet normal -0.000096 0.000000 0.000079
  outer loop
    vertex 0.025776 0.000000 -0.017223
    vertex 0.025776 0.020500 -0.017223
    vertex 0.021920 0.020500 -0.021920
  endloop
endfacet
facet normal -0.000096 0.000000 0.000079
  outer loop
    vertex 0.025776 0.000000 -0.017223
    vertex 0.021920 0.020500 -0.021920
    vertex 0.021920 0.000000 -0.021920
  endloop
endfacet
facet normal -0.000079 0.000000 0.000096
  outer loop
    vertex 0.021920 0.000000 -0.021920
    vertex 0.021920 0.020500 -0.021920
    vertex 0.017223 0.020500 -0.025776
  endloop
endfacet
facet normal -0.000079 0.000000 0.000096
  outer loop
    vertex 0.021920 0.000000 -0.021920
    vertex 0.017223 0.020500 -0.025776
    vertex 0.017223 0.000000 -0.025776
  endloop
endfacet
facet normal -0.000059 0.000000 0.000110
  outer loop
    vertex 0.017223 0.000000 -0.025776
    vertex 0.017223 0.020500 -0.025776
    vertex 0.011863 0.020500 -0.028640
  endloop
endfacet
facet normal -0.000059 0.000000 0.000110
  outer loop
    vertex 0.017223 0.000000 -0.025776
    vertex 0.011863 0.020500 -0.028640
    vertex 0.011863 0.000000 -0.028640
  endloop
endfacet
facet normal -0.000036 0.000000 0.000119
  outer loop
    vertex 0.011863 0.000000 -0.028640
    vertex 0.011863 0.020500 -0.028640
    vertex 0.006048 0.020500 -0.030404
  endloop
endfacet
facet normal -0.000036 0.000000 0.000119
  outer loop
    vertex 0.011863 0.000000 -0.028640
    vertex 0.006048 0.020500 -0.030404
    vertex 0.006048 0.000000 -0.030404
  endloop
endfacet
facet normal -0.000012 0.000000 0.000124
  outer loop
    vertex 0.006048 0.000000 -0.030404
    vertex 0.006048 0.020500 -0.030404
    vertex 0.000000 0.020500 -0.031000
  endloop
endfacet
facet normal -0.000012 0.000000 0.000124
  outer loop
    vertex 0.006048 0.000000 -0.030404
    vertex 0.000000 0.020500 -0.031000
    vertex 0.000000 0.000000 -0.031000
  endloop
endfacet
facet normal 0.000012 -0.000000 0.000124
  outer loop
    vertex 0.000000 0.000000 -0.031000
    vertex 0.000000 0.020500 -0.031000
    vertex -0.006048 0.020500 -0.030404
  endloop
endfacet
facet normal 0.000012 0.000000 0.000124
  outer loop
    vertex 0.000000 0.000000 -0.031000
    vertex -0.006048 0.020500 -0.030404
    vertex -0.006048 0.000000 -0.030404
  endloop
endfacet
facet normal 0.000036 -0.000000 0.000119
  outer loop
    vertex -0.006048 0.000000 -0.030404
    vertex -0.006048 0.020500 -0.030404
    vertex -0.011863 0.020500 -0.028640
  endloop
endfacet
facet normal 0.000036 0.000000 0.000119
  outer loop
    vertex -0.006048 0.000000 -0.030404
    vertex -0.011863 0.020500 -0.028640
    vertex -0.011863 0.000000 -0.028640
  endloop
endfacet
facet normal 0.000059 -0.000000 0.000110
  outer loop
    vertex -0.011863 0.000000 -0.028640
    vertex -0.011863 0.020500 -0.028640
    vertex -0.017223 0.020500 -0.025776
  endloop
endfacet
facet normal 0.000059 0.000000 0.000110
  outer loop
    vertex -0.011863 0.000000 -0.028640
    vertex -0.017223 0.020500 -0.025776
    vertex -0.017223 0.000000 -0.025776
  endloop
endfacet
facet normal 0.000079 -0.000000 0.000096
  outer loop
    vertex -0.017223 0.000000 -0.025776
    vertex -0.017223 0.020500 -0.025776
    vertex -0.021920 0.020500 -0.021920
  endloop
endfacet
facet normal 0.000079 0.000000 0.000096
  outer loop
    vertex -0.017223 0.000000 -0.025776
    vertex -0.021920 0.020500 -0.021920
    vertex -0.021920 0.000000 -0.021920
  endloop
endfacet
facet normal 0.000096 -0.000000 0.000079
  outer loop
    vertex -0.021920 0.000000 -0.021920
    vertex -0.021920 0.020500 -0.021920
    vertex -0.025776 0.020500 -0.017223
  endloop
endfacet
facet normal 0.000096 0.000000 0.000079
  outer loop
    vertex -0.021920 0.000000 -0.021920
    vertex -0.025776 0.020500 -0.017223
    vertex -0.025776 0.000000 -0.017223
  endloop
endfacet
facet normal 0.000110 -0.000000 0.000059
  outer loop
    vertex -0.025776 0.000000 -0.017223
    vertex -0.025776 0.020500 -0.017223
    vertex -0.028640 0.020500 -0.011863
  endloop
endfacet
facet normal 0.000110 0.000000 0.000059
  outer loop
    vertex -0.025776 0.000000 -0.017223
    vertex -0.028640 0.020500 -0.011863
    vertex -0.028640 0.000000 -0.011863
  endloop
endfacet
facet normal 0.000119 -0.000000 0.000036
  outer loop
    vertex -0.028640 0.000000 -0.011863
    vertex -0.028640 0.020500 -0.011863
    vertex -0.030404 0.020500 -0.006048
  endloop
endfacet
facet normal -0.000200 -0.000000 -0.000013
  outer loop
    vertex -0.077385 0.020500 -0.009776
    vertex -0.077385 0.000000 -0.009776
    vertex -0.078000 0.020500 0.000000
  endloop
endfacet
facet normal -0.000200 -0.000000 -0.000013
  outer loop
    vertex -0.078000 0.020500 0.000000
    vertex -0.077385 0.000000 -0.009776
    vertex -0.078000 0.000000 0.000000
  endloop
endfacet
facet normal -0.000200 0.000000 0.000013
  outer loop
    vertex -0.078000 0.020500 0.000000
    vertex -0.078000 0.000000 0.000000
    vertex -0.077385 0.020500 0.009776
  endloop
endfacet
facet normal -0.000200 0.000000 0.000013
  outer loop
    vertex -0.077385 0.020500 0.009776
    vertex -0.078000 0.000000 0.000000
    vertex -0.077385 0.000000 0.009776
  endloop
endfacet
facet normal -0.000197 0.000000 0.000038
  outer loop
    vertex -0.077385 0.020500 0.009776
    vertex -0.077385 0.000000 0.009776
    vertex -0.075549 0.020500 0.019398
  endloop
endfacet
facet normal -0.000197 0.000000 0.000038
  outer loop
    vertex -0.075549 0.020500 0.019398
    vertex -0.077385 0.000000 0.009776
    vertex -0.075549 0.000000 0.019398
  endloop
endfacet
facet normal -0.000191 0.000000 0.000062
  outer loop
    vertex -0.075549 0.020500 0.019398
    vertex -0.075549 0.000000 0.019398
    vertex -0.072523 0.020500 0.028714
  endloop
endfacet
facet normal -0.000191 0.000000 0.000062
  outer loop
    vertex -0.072523 0.020500 0.028714
    vertex -0.075549 0.000000 0.019398
    vertex -0.072523 0.000000 0.028714
  endloop
endfacet
facet normal -0.000182 0.000000 0.000085
  outer loop
    vertex -0.072523 0.020500 0.028714
    vertex -0.072523 0.000000 0.028714
    vertex -0.068352 0.020500 0.037577
  endloop
endfacet
facet normal -0.000182 0.000000 0.000085
  outer loop
    vertex -0.068352 0.020500 0.037577
    vertex -0.072523 0.000000 0.028714
    vertex -0.068352 0.000000 0.037577
  endloop
endfacet
facet normal -0.000170 0.000000 0.000108
  outer loop
    vertex -0.068352 0.020500 0.037577
    vertex -0.068352 0.000000 0.037577
    vertex -0.063103 0.020500 0.045847
  endloop
endfacet
facet normal -0.000170 0.000000 0.000108
  outer loop
    vertex -0.063103 0.020500 0.045847
    vertex -0.068352 0.000000 0.037577
    vertex -0.063103 0.000000 0.045847
  endloop
endfacet
facet normal -0.000155 0.000000 0.000128
  outer loop
    vertex -0.063103 0.020500 0.045847
    vertex -0.063103 0.000000 0.045847
    vertex -0.056860 0.020500 0.053395
  endloop
endfacet
facet normal -0.000155 0.000000 0.000128
  outer loop
    vertex -0.056860 0.020500 0.053395
    vertex -0.063103 0.000000 0.045847
    vertex -0.056860 0.000000 0.053395
  endloop
endfacet
facet normal -0.000137 0.000000 0.000146
  outer loop
    vertex -0.056860 0.020500 0.053395
    vertex -0.056860 0.000000 0.053395
    vertex -0.049719 0.020500 0.060100
  endloop
endfacet
facet normal -0.000137 0.000000 0.000146
  outer loop
    vertex -0.049719 0.020500 0.060100
    vertex -0.056860 0.000000 0.053395
    vertex -0.049719 0.000000 0.060100
  endloop
endfacet
facet normal -0.000118 0.000000 0.000162
  outer loop
    vertex -0.049719 0.020500 0.060100
    vertex -0.049719 0.000000 0.060100
    vertex -0.041794 0.020500 0.065858
  endloop
endfacet
facet normal -0.000118 0.000000 0.000162
  outer loop
    vertex -0.041794 0.020500 0.065858
    vertex -0.049719 0.000000 0.060100
    vertex -0.041794 0.000000 0.065858
  endloop
endfacet
facet normal -0.000097 0.000000 0.000176
  outer loop
    vertex -0.041794 0.020500 0.065858
    vertex -0.041794 0.000000 0.065858
    vertex -0.033211 0.020500 0.070577
  endloop
endfacet
facet normal -0.000097 0.000000 0.000176
  outer loop
    vertex -0.033211 0.020500 0.070577
    vertex -0.041794 0.000000 0.065858
    vertex -0.033211 0.000000 0.070577
  endloop
endfacet
facet normal -0.000074 0.000000 0.000187
  outer loop
    vertex -0.033211 0.020500 0.070577
    vertex -0.033211 0.000000 0.070577
    vertex -0.024103 0.020500 0.074182
  endloop
endfacet
facet normal -0.000074 0.000000 0.000187
  outer loop
    vertex -0.024103 0.020500 0.074182
    vertex -0.033211 0.000000 0.070577
    vertex -0.024103 0.000000 0.074182
  endloop
endfacet
facet normal -0.000050 0.000000 0.000194
  outer loop
    vertex -0.024103 0.020500 0.074182
    vertex -0.024103 0.000000 0.074182
    vertex -0.014616 0.020500 0.076618
  endloop
endfacet
facet normal -0.000050 0.000000 0.000194
  outer loop
    vertex -0.014616 0.020500 0.076618
    vertex -0.024103 0.000000 0.074182
    vertex -0.014616 0.000000 0.076618
  endloop
endfacet
facet normal -0.000025 0.000000 0.000199
  outer loop
    vertex -0.014616 0.020500 0.076618
    vertex -0.014616 0.000000 0.076618
    vertex -0.004898 0.020500 0.077846
  endloop
endfacet
facet normal -0.000025 0.000000 0.000199
  outer loop
    vertex -0.004898 0.020500 0.077846
    vertex -0.014616 0.000000 0.076618
    vertex -0.004898 0.000000 0.077846
  endloop
endfacet
facet normal -0.000000 0.000000 0.000201
  outer loop
    vertex -0.004898 0.020500 0.077846
    vertex -0.004898 0.000000 0.077846
    vertex 0.004898 0.020500 0.077846
  endloop
endfacet
facet normal 0.000000 0.000000 0.000201
  outer loop
    vertex 0.004898 0.020500 0.077846
    vertex -0.004898 0.000000 0.077846
    vertex 0.004898 0.000000 0.077846
  endloop
endfacet
facet normal 0.000025 0.000000 0.000199
  outer loop
    vertex 0.004898 0.020500 0.077846
    vertex 0.004898 0.000000 0.077846
    vertex 0.014616 0.020500 0.076618
  endloop
endfacet
facet normal 0.000025 0.000000 0.000199
  outer loop
    vertex 0.014616 0.020500 0.076618
    vertex 0.004898 0.000000 0.077846
    vertex 0.014616 0.000000 0.076618
  endloop
endfacet
facet normal 0.000050 0.000000 0.000194
  outer loop
    vertex 0.014616 0.020500 0.076618
    vertex 0.014616 0.000000 0.076618
    vertex 0.024103 0.020500 0.074182
  endloop
endfacet
facet normal 0.000050 0.000000 0.000194
  outer loop
    vertex 0.024103 0.020500 0.074182
    vertex 0.014616 0.000000 0.076618
    vertex 0.024103 0.000000 0.074182
  endloop
endfacet
facet normal 0.000074 0.000000 0.000187
  outer loop
    vertex 0.024103 0.020500 0.074182
    vertex 0.024103 0.000000 0.074182
    vertex 0.033211 0.020500 0.070577
  endloop
endfacet
facet normal 0.000074 0.000000 0.000187
  outer loop
    vertex 0.033211 0.020500 0.070577
    vertex 0.024103 0.000000 0.074182
    vertex 0.033211 0.000000 0.070577
  endloop
endfacet
facet normal 0.000097 0.000000 0.000176
  outer loop
    vertex 0.033211 0.020500 0.070577
    vertex 0.033211 0.000000 0.070577
    vertex 0.041794 0.020500 0.065858
  endloop
endfacet
facet normal 0.000097 0.000000 0.000176
  outer loop
    vertex 0.041794 0.020500 0.065858
    vertex 0.033211 0.000000 0.070577
    vertex 0.041794 0.000000 0.065858
  endloop
endfacet
facet normal 0.000118 0.000000 0.000162
  outer loop
    vertex 0.041794 0.020500 0.065858
    vertex 0.041794 0.000000 0.065858
    vertex 0.049719 0.020500 0.060100
  endloop
endfacet
facet normal 0.000118 0.000000 0.000162
  outer loop
    vertex 0.049719 0.020500 0.060100
    vertex 0.041794 0.000000 0.065858
    vertex 0.049719 0.000000 0.060100
  endloop
endfacet
facet normal 0.000137 0.000000 0.000146
  outer loop
    vertex 0.049719 0.020500 0.060100
    vertex 0.049719 0.000000 0.060100
    vertex 0.056860 0.020500 0.053395
  endloop
endfacet
facet normal 0.000137 0.000000 0.000146
  outer loop
    vertex 0.056860 0.020500 0.053395
    vertex 0.049719 0.000000 0.060100
    vertex 0.056860 0.000000 0.053395
  endloop
endfacet
facet normal 0.000155 0.000000 0.000128
  outer loop
    vertex 0.056860 0.020500 0.053395
    vertex 0.056860 0.000000 0.053395
    vertex 0.063103 0.020500 0.045847
  endloop
endfacet
facet normal 0.000155 0.000000 0.000128
  outer loop
    vertex 0.063103 0.020500 0.045847
    vertex 0.056860 0.000000 0.053395
    vertex 0.063103 0.000000 0.045847
  endloop
endfacet
facet normal 0.000170 0.000000 0.000108
  outer loop
    vertex 0.063103 0.020500 0.045847
    vertex 0.063103 0.000000 0.045847
    vertex 0.068352 0.020500 0.037577
  endloop
endfacet
facet normal 0.000170 0.000000 0.000108
  outer loop
    vertex 0.068352 0.020500 0.037577
    vertex 0.063103 0.000000 0.045847
    vertex 0.068352 0.000000 0.037577
  endloop
endfacet
facet normal 0.000182 0.000000 0.000085
  outer loop
    vertex 0.068352 0.020500 0.037577
    vertex 0.068352 0.000000 0.037577
    vertex 0.072523 0.020500 0.028714
  endloop
endfacet
facet normal 0.000182 0.000000 0.000085
  outer loop
    vertex 0.072523 0.020500 0.028714
    vertex 0.068352 0.000000 0.037577
    vertex 0.072523 0.000000 0.028714
  endloop
endfacet
facet normal 0.000191 0.000000 0.000062
  outer loop
    vertex 0.072523 0.020500 0.028714
    vertex 0.072523 0.000000 0.028714
    vertex 0.075549 0.020500 0.019398
  endloop
endfacet
facet normal 0.000191 0.000000 0.000062
  outer loop
    vertex 0.075549 0.020500 0.019398
    vertex 0.072523 0.000000 0.028714
    vertex 0.075549 0.000000 0.019398
  endloop
endfacet
facet normal 0.000197 0.000000 0.000038
  outer loop
    vertex 0.075549 0.020500 0.019398
    vertex 0.075549 0.000000 0.019398
    vertex 0.077385 0.020500 0.009776
  endloop
endfacet
facet normal 0.000197 0.000000 0.000038
  outer loop
    vertex 0.077385 0.020500 0.009776
    vertex 0.075549 0.000000 0.019398
    vertex 0.077385 0.000000 0.009776
  endloop
endfacet
facet normal 0.000200 0.000000 0.000013
  outer loop
    vertex 0.077385 0.020500 0.009776
    vertex 0.077385 0.000000 0.009776
    vertex 0.078000 0.020500 -0.000000
  endloop
endfacet
facet normal 0.000200 0.000000 0.000013
  outer loop
    vertex 0.078000 0.020500 -0.000000
    vertex 0.077385 0.000000 0.009776
    vertex 0.078000 0.000000 -0.000000
  endloop
endfacet
facet normal 0.000200 0.000000 -0.000013
  outer loop
    vertex 0.078000 0.020500 -0.000000
    vertex 0.078000 0.000000 -0.000000
    vertex 0.077385 0.020500 -0.009776
  endloop
endfacet
facet normal 0.000200 0.000000 -0.000013
  outer loop
    vertex 0.077385 0.020500 -0.009776
    vertex 0.078000 0.000000 -0.000000
    vertex 0.077385 0.000000 -0.009776
  endloop
endfacet
facet normal 0.000197 0.000000 -0.000038
  outer loop
    vertex 0.077385 0.020500 -0.009776
    vertex 0.077385 0.000000 -0.009776
    vertex 0.075549 0.020500 -0.019398
  endloop
endfacet
facet normal 0.000197 0.000000 -0.000038
  outer loop
    vertex 0.075549 0.020500 -0.019398
    vertex 0.077385 0.000000 -0.009776
    vertex 0.075549 0.000000 -0.019398
  endloop
endfacet
facet normal 0.000191 0.000000 -0.000062
  outer loop
    vertex 0.075549 0.020500 -0.019398
    vertex 0.075549 0.000000 -0.019398
    vertex 0.072523 0.020500 -0.028714
  endloop
endfacet
facet normal 0.000191 0.000000 -0.000062
  outer loop
    vertex 0.072523 0.020500 -0.028714
    vertex 0.075549 0.000000 -0.019398
    vertex 0.072523 0.000000 -0.028714
  endloop
endfacet
facet normal 0.000182 0.000000 -0.000085
  outer loop
    vertex 0.072523 0.020500 -0.028714
    vertex 0.072523 0.000000 -0.028714
    vertex 0.068352 0.020500 -0.037577
  endloop
endfacet
facet normal 0.000182 0.000000 -0.000085
  outer loop
    vertex 0.068352 0.020500 -0.037577
    vertex 0.072523 0.000000 -0.028714
    vertex 0.068352 0.000000 -0.037577
  endloop
endfacet
facet normal 0.000170 0.000000 -0.000108
  outer loop
    vertex 0.068352 0.020500 -0.037577
    vertex 0.068352 0.000000 -0.037577
    vertex 0.063103 0.020500 -0.045847
  endloop
endfacet
facet normal 0.000170 0.000000 -0.000108
  outer loop
    vertex 0.063103 0.020500 -0.045847
    vertex 0.068352 0.000000 -0.037577
    vertex 0.063103 0.000000 -0.045847
  endloop
endfacet
facet normal 0.000155 0.000000 -0.000128
  outer loop
    vertex 0.063103 0.020500 -0.045847
    vertex 0.063103 0.000000 -0.045847
    vertex 0.056860 0.020500 -0.053395
  endloop
endfacet
facet normal 0.000155 0.000000 -0.000128
  outer loop
    vertex 0.056860 0.020500 -0.053395
    vertex 0.063103 0.000000 -0.045847
    vertex 0.056860 0.000000 -0.053395
  endloop
endfacet
facet normal 0.000137 0.000000 -0.000146
  outer loop
    vertex 0.056860 0.020500 -0.053395
    vertex 0.056860 0.000000 -0.053395
    vertex 0.049719 0.020500 -0.060100
  endloop
endfacet
facet normal 0.000137 0.000000 -0.000146
  outer loop
    vertex 0.049719 0.020500 -0.060100
    vertex 0.056860 0.000000 -0.053395
    vertex 0.049719 0.000000 -0.060100
  endloop
endfacet
facet normal 0.000118 0.000000 -0.000162
  outer loop
    vertex 0.049719 0.020500 -0.060100
    vertex 0.049719 0.000000 -0.060100
    vertex 0.041794 0.020500 -0.065858
  endloop
endfacet
facet normal 0.000118 0.000000 -0.000162
  outer loop
    vertex 0.041794 0.020500 -0.065858
    vertex 0.049719 0.000000 -0.060100
    vertex 0.041794 0.000000 -0.065858
  endloop
endfacet
facet normal 0.000097 0.000000 -0.000176
  outer loop
    vertex 0.041794 0.020500 -0.065858
    vertex 0.041794 0.000000 -0.065858
    vertex 0.033211 0.020500 -0.070577
  endloop
endfacet
facet normal 0.000097 0.000000 -0.000176
  outer loop
    vertex 0.033211 0.020500 -0.070577
    vertex 0.041794 0.000000 -0.065858
    vertex 0.033211 0.000000 -0.070577
  endloop
endfacet
facet normal 0.000074 0.000000 -0.000187
  outer loop
    vertex 0.033211 0.020500 -0.070577
    vertex 0.033211 0.000000 -0.070577
    vertex 0.024103 0.020500 -0.074182
  endloop
endfacet
facet normal 0.000074 0.000000 -0.000187
  outer loop
    vertex 0.024103 0.020500 -0.074182
    vertex 0.033211 0.000000 -0.070577
    vertex 0.024103 0.000000 -0.074182
  endloop
endfacet
facet normal 0.000050 0.000000 -0.000194
  outer loop
    vertex 0.024103 0.020500 -0.074182
    vertex 0.024103 0.000000 -0.074182
    vertex 0.014616 0.020500 -0.076618
  endloop
endfacet
facet normal 0.000050 0.000000 -0.000194
  outer loop
    vertex 0.014616 0.020500 -0.076618
    vertex 0.024103 0.000000 -0.074182
    vertex 0.014616 0.000000 -0.076618
  endloop
endfacet
facet normal 0.000025 0.000000 -0.000199
  outer loop
    vertex 0.014616 0.020500 -0.076618
    vertex 0.014616 0.000000 -0.076618
    vertex 0.004898 0.020500 -0.077846
  endloop
endfacet
facet normal 0.000025 0.000000 -0.000199
  outer loop
    vertex 0.004898 0.020500 -0.077846
    vertex 0.014616 0.000000 -0.076618
    vertex 0.004898 0.000000 -0.077846
  endloop
endfacet
facet normal -0.000000 -0.000000 -0.000201
  outer loop
    vertex 0.004898 0.020500 -0.077846
    vertex 0.004898 0.000000 -0.077846
    vertex -0.004898 0.020500 -0.077846
  endloop
endfacet
facet normal 0.000000 0.000000 -0.000201
  outer loop
    vertex -0.004898 0.020500 -0.077846
    vertex 0.004898 0.000000 -0.077846
    vertex -0.004898 0.000000 -0.077846
  endloop
endfacet
facet normal -0.000025 -0.000000 -0.000199
  outer loop
    vertex -0.004898 0.020500 -0.077846
    vertex -0.004898 0.000000 -0.077846
    vertex -0.014616 0.020500 -0.076618
  endloop
endfacet
facet normal -0.000025 -0.000000 -0.000199
  outer loop
    vertex -0.014616 0.020500 -0.076618
    vertex -0.004898 0.000000 -0.077846
    vertex -0.014616 0.000000 -0.076618
  endloop
endfacet
facet normal -0.000050 -0.000000 -0.000194
  outer loop
    vertex -0.014616 0.020500 -0.076618
    vertex -0.014616 0.000000 -0.076618
    vertex -0.024103 0.020500 -0.074182
  endloop
endfacet
facet normal -0.000050 -0.000000 -0.000194
  outer loop
    vertex -0.024103 0.020500 -0.074182
    vertex -0.014616 0.000000 -0.076618
    vertex -0.024103 0.000000 -0.074182
  endloop
endfacet
facet normal -0.000074 -0.000000 -0.000187
  outer loop
    vertex -0.024103 0.020500 -0.074182
    vertex -0.024103 0.000000 -0.074182
    vertex -0.033211 0.020500 -0.070577
  endloop
endfacet
facet normal -0.000074 -0.000000 -0.000187
  outer loop
    vertex -0.033211 0.020500 -0.070577
    vertex -0.024103 0.000000 -0.074182
    vertex -0.033211 0.000000 -0.070577
  endloop
endfacet
facet normal -0.000097 -0.000000 -0.000176
  outer loop
    vertex -0.033211 0.020500 -0.070577
    vertex -0.033211 0.000000 -0.070577
    vertex -0.041794 0.020500 -0.065858
  endloop
endfacet
facet normal -0.000097 -0.000000 -0.000176
  outer loop
    vertex -0.041794 0.020500 -0.065858
    vertex -0.033211 0.000000 -0.070577
    vertex -0.041794 0.000000 -0.065858
  endloop
endfacet
facet normal -0.000118 -0.000000 -0.000162
  outer loop
    vertex -0.041794 0.020500 -0.065858
    vertex -0.041794 0.000000 -0.065858
    vertex -0.049719 0.020500 -0.060100
  endloop
endfacet
facet normal -0.000118 -0.000000 -0.000162
  outer loop
    vertex -0.049719 0.020500 -0.060100
    vertex -0.041794 0.000000 -0.065858
    vertex -0.049719 0.000000 -0.060100
  endloop
endfacet
facet normal -0.000137 -0.000000 -0.000146
  outer loop
    vertex -0.049719 0.020500 -0.060100
    vertex -0.049719 0.000000 -0.060100
    vertex -0.056860 0.020500 -0.053395
  endloop
endfacet
facet normal -0.000137 -0.000000 -0.000146
  outer loop
    vertex -0.056860 0.020500 -0.053395
    vertex -0.049719 0.000000 -0.060100
    vertex -0.056860 0.000000 -0.053395
  endloop
endfacet
facet normal -0.000155 -0.000000 -0.000128
  outer loop
    vertex -0.056860 0.020500 -0.053395
    vertex -0.056860 0.000000 -0.053395
    vertex -0.063103 0.020500 -0.045847
  endloop
endfacet
facet normal -0.000155 -0.000000 -0.000128
  outer loop
    vertex -0.063103 0.020500 -0.045847
    vertex -0.056860 0.000000 -0.053395
    vertex -0.063103 0.000000 -0.045847
  endloop
endfacet
facet normal -0.000170 -0.000000 -0.000108
  outer loop
    vertex -0.063103 0.020500 -0.045847
    vertex -0.063103 0.000000 -0.045847
    vertex -0.068352 0.020500 -0.037577
  endloop
endfacet
facet normal -0.000170 -0.000000 -0.000108
  outer loop
    vertex -0.068352 0.020500 -0.037577
    vertex -0.063103 0.000000 -0.045847
    vertex -0.068352 0.000000 -0.037577
  endloop
endfacet
facet normal -0.000182 -0.000000 -0.000085
  outer loop
    vertex -0.068352 0.020500 -0.037577
    vertex -0.068352 0.000000 -0.037577
    vertex -0.072523 0.020500 -0.028714
  endloop
endfacet
facet normal -0.000182 -0.000000 -0.000085
  outer loop
    vertex -0.072523 0.020500 -0.028714
    vertex -0.068352 0.000000 -0.037577
    vertex -0.072523 0.000000 -0.028714
  endloop
endfacet
facet normal -0.000191 -0.000000 -0.000062
  outer loop
    vertex -0.072523 0.020500 -0.028714
    vertex -0.072523 0.000000 -0.028714
    vertex -0.075549 0.020500 -0.019398
  endloop
endfacet
facet normal -0.000191 -0.000000 -0.000062
  outer loop
    vertex -0.075549 0.020500 -0.019398
    vertex -0.072523 0.000000 -0.028714
    vertex -0.075549 0.000000 -0.019398
  endloop
endfacet
facet normal -0.000197 -0.000000 -0.000038
  outer loop
    vertex -0.075549 0.020500 -0.019398
    vertex -0.075549 0.000000 -0.019398
    vertex -0.077385 0.020500 -0.009776
  endloop
endfacet
facet normal -0.000197 -0.000000 -0.000038
  outer loop
    vertex -0.077385 0.020500 -0.009776
    vertex -0.075549 0.000000 -0.019398
    vertex -0.077385 0.000000 -0.009776
  endloop
endfacet
facet normal 0.000000 0.000286 0.000000
  outer loop
    vertex -0.030404 0.020500 -0.006048
    vertex -0.077385 0.020500 -0.009776
    vertex -0.031000 0.020500 0.000000
  endloop
endfacet
facet normal 0.000000 0.000459 0.000000
  outer loop
    vertex -0.031000 0.020500 0.000000
    vertex -0.077385 0.020500 -0.009776
    vertex -0.078000 0.020500 0.000000
  endloop
endfacet
facet normal 0.000000 0.000459 0.000000
  outer loop
    vertex -0.031000 0.020500 0.000000
    vertex -0.078000 0.020500 0.000000
    vertex -0.077385 0.020500 0.009776
  endloop
endfacet
facet normal -0.000000 0.000459 0.000000
  outer loop
    vertex -0.077385 0.020500 -0.009776
    vertex -0.030404 0.020500 -0.006048
    vertex -0.075549 0.020500 -0.019398
  endloop
endfacet
facet normal 0.000000 0.000286 0.000000
  outer loop
    vertex -0.075549 0.020500 -0.019398
    vertex -0.030404 0.020500 -0.006048
    vertex -0.028640 0.020500 -0.011863
  endloop
endfacet
facet normal -0.000000 0.000460 0.000000
  outer loop
    vertex -0.075549 0.020500 -0.019398
    vertex -0.028640 0.020500 -0.011863
    vertex -0.072523 0.020500 -0.028714
  endloop
endfacet
facet normal -0.000000 0.000459 0.000000
  outer loop
    vertex -0.072523 0.020500 -0.028714
    vertex -0.028640 0.020500 -0.011863
    vertex -0.068352 0.020500 -0.037577
  endloop
endfacet
facet normal 0.000000 0.000286 0.000000
  outer loop
    vertex -0.068352 0.020500 -0.037577
    vertex -0.028640 0.020500 -0.011863
    vertex -0.025776 0.020500 -0.017223
  endloop
endfacet
facet normal -0.000000 0.000459 0.000000
  outer loop
    vertex -0.068352 0.020500 -0.037577
    vertex -0.025776 0.020500 -0.017223
    vertex -0.063103 0.020500 -0.045847
  endloop
endfacet
facet normal 0.000000 0.000286 0.000000
  outer loop
    vertex -0.063103 0.020500 -0.045847
    vertex -0.025776 0.020500 -0.017223
    vertex -0.021920 0.020500 -0.021920
  endloop
endfacet
facet normal -0.000000 0.000460 0.000000
  outer loop
    vertex -0.063103 0.020500 -0.045847
    vertex -0.021920 0.020500 -0.021920
    vertex -0.056860 0.020500 -0.053395
  endloop
endfacet
facet normal -0.000000 0.000459 0.000000
  outer loop
    vertex -0.056860 0.020500 -0.053395
    vertex -0.021920 0.020500 -0.021920
    vertex -0.049719 0.020500 -0.060100
  endloop
endfacet
facet normal 0.000000 0.000287 0.000000
  outer loop
    vertex -0.049719 0.020500 -0.060100
    vertex -0.021920 0.020500 -0.021920
    vertex -0.017223 0.020500 -0.025776
  endloop
endfacet
facet normal -0.000000 0.000459 0.000000
  outer loop
    vertex -0.049719 0.020500 -0.060100
    vertex -0.017223 0.020500 -0.025776
    vertex -0.041794 0.020500 -0.065858
  endloop
endfacet
facet normal -0.000000 0.000460 0.000000
  outer loop
    vertex -0.041794 0.020500 -0.065858
    vertex -0.017223 0.020500 -0.025776
    vertex -0.033211 0.020500 -0.070577
  endloop
endfacet
facet normal 0.000000 0.000286 0.000000
  outer loop
    vertex -0.033211 0.020500 -0.070577
    vertex -0.017223 0.020500 -0.025776
    vertex -0.011863 0.020500 -0.028640
  endloop
endfacet
facet normal -0.000000 0.000459 0.000000
  outer loop
    vertex -0.033211 0.020500 -0.070577
    vertex -0.011863 0.020500 -0.028640
    vertex -0.024103 0.020500 -0.074182
  endloop
endfacet
facet normal 0.000000 0.000286 0.000000
  outer loop
    vertex -0.024103 0.020500 -0.074182
    vertex -0.011863 0.020500 -0.028640
    vertex -0.006048 0.020500 -0.030404
  endloop
endfacet
facet normal -0.000000 0.000459 0.000000
  outer loop
    vertex -0.024103 0.020500 -0.074182
    vertex -0.006048 0.020500 -0.030404
    vertex -0.014616 0.020500 -0.076618
  endloop
endfacet
facet normal -0.000000 0.000460 0.000000
  outer loop
    vertex -0.014616 0.020500 -0.076618
    vertex -0.006048 0.020500 -0.030404
    vertex -0.004898 0.020500 -0.077846
  endloop
endfacet
facet normal 0.000000 0.000286 -0.000000
  outer loop
    vertex -0.004898 0.020500 -0.077846
    vertex -0.006048 0.020500 -0.030404
    vertex 0.000000 0.020500 -0.031000
  endloop
endfacet
facet normal 0.000000 0.000459 0.000000
  outer loop
    vertex -0.004898 0.020500 -0.077846
    vertex 0.000000 0.020500 -0.031000
    vertex 0.004898 0.020500 -0.077846
  endloop
endfacet
facet normal 0.000000 0.000286 -0.000000
  outer loop
    vertex 0.004898 0.020500 -0.077846
    vertex 0.000000 0.020500 -0.031000
    vertex 0.006048 0.020500 -0.030404
  endloop
endfacet
facet normal 0.000000 0.000460 0.000000
  outer loop
    vertex 0.004898 0.020500 -0.077846
    vertex 0.006048 0.020500 -0.030404
    vertex 0.014616 0.020500 -0.076618
  endloop
endfacet
facet normal 0.000000 0.000459 -0.000000
  outer loop
    vertex 0.014616 0.020500 -0.076618
    vertex 0.006048 0.020500 -0.030404
    vertex 0.024103 0.020500 -0.074182
  endloop
endfacet
facet normal 0.000000 0.000286 0.000000
  outer loop
    vertex 0.024103 0.020500 -0.074182
    vertex 0.006048 0.020500 -0.030404
    vertex 0.011863 0.020500 -0.028640
  endloop
endfacet
facet normal 0.000000 0.000459 -0.000000
  outer loop
    vertex 0.024103 0.020500 -0.074182
    vertex 0.011863 0.020500 -0.028640
    vertex 0.033211 0.020500 -0.070577
  endloop
endfacet
facet normal 0.000000 0.000286 0.000000
  outer loop
    vertex 0.033211 0.020500 -0.070577
    vertex 0.011863 0.020500 -0.028640
    vertex 0.017223 0.020500 -0.025776
  endloop
endfacet
facet normal 0.000000 0.000460 -0.000000
  outer loop
    vertex 0.033211 0.020500 -0.070577
    vertex 0.017223 0.020500 -0.025776
    vertex 0.041794 0.020500 -0.065858
  endloop
endfacet
facet normal 0.000000 0.000459 -0.000000
  outer loop
    vertex 0.041794 0.020500 -0.065858
    vertex 0.017223 0.020500 -0.025776
    vertex 0.049719 0.020500 -0.060100
  endloop
endfacet
facet normal 0.000000 0.000287 0.000000
  outer loop
    vertex 0.049719 0.020500 -0.060100
    vertex 0.017223 0.020500 -0.025776
    vertex 0.021920 0.020500 -0.021920
  endloop
endfacet
facet normal 0.000000 0.000459 -0.000000
  outer loop
    vertex 0.049719 0.020500 -0.060100
    vertex 0.021920 0.020500 -0.021920
    vertex 0.056860 0.020500 -0.053395
  endloop
endfacet
facet normal 0.000000 0.000460 -0.000000
  outer loop
    vertex 0.056860 0.020500 -0.053395
    vertex 0.021920 0.020500 -0.021920
    vertex 0.063103 0.020500 -0.045847
  endloop
endfacet
facet normal 0.000000 0.000286 0.000000
  outer loop
    vertex 0.063103 0.020500 -0.045847
    vertex 0.021920 0.020500 -0.021920
    vertex 0.025776 0.020500 -0.017223
  endloop
endfacet
facet normal 0.000000 0.000459 -0.000000
  outer loop
    vertex 0.063103 0.020500 -0.045847
    vertex 0.025776 0.020500 -0.017223
    vertex 0.068352 0.020500 -0.037577
  endloop
endfacet
facet normal 0.000000 0.000286 0.000000
  outer loop
    vertex 0.068352 0.020500 -0.037577
    vertex 0.025776 0.020500 -0.017223
    vertex 0.028640 0.020500 -0.011863
  endloop
endfacet
facet normal 0.000000 0.000459 -0.000000
  outer loop
    vertex 0.068352 0.020500 -0.037577
    vertex 0.028640 0.020500 -0.011863
    vertex 0.072523 0.020500 -0.028714
  endloop
endfacet
facet normal 0.000000 0.000460 -0.000000
  outer loop
    vertex 0.072523 0.020500 -0.028714
    vertex 0.028640 0.020500 -0.011863
    vertex 0.075549 0.020500 -0.019398
  endloop
endfacet
facet normal 0.000000 0.000286 0.000000
  outer loop
    vertex 0.075549 0.020500 -0.019398
    vertex 0.028640 0.020500 -0.011863
    vertex 0.030404 0.020500 -0.006048
  endloop
endfacet
facet normal 0.000000 0.000459 -0.000000
  outer loop
    vertex 0.075549 0.020500 -0.019398
    vertex 0.030404 0.020500 -0.006048
    vertex 0.077385 0.020500 -0.009776
  endloop
endfacet
facet normal 0.000000 0.000286 0.000000
  outer loop
    vertex 0.077385 0.020500 -0.009776
    vertex 0.030404 0.020500 -0.006048
    vertex 0.031000 0.020500 0.000000
  endloop
endfacet
facet normal 0.000000 0.000459 -0.000000
  outer loop
    vertex 0.077385 0.020500 -0.009776
    vertex 0.031000 0.020500 0.000000
    vertex 0.078000 0.020500 -0.000000
  endloop
endfacet
facet normal 0.000000 0.000459 0.000000
  outer loop
    vertex 0.078000 0.020500 -0.000000
    vertex 0.031000 0.020500 0.000000
    vertex 0.077385 0.020500 0.009776
  endloop
endfacet
facet normal 0.000000 0.000286 0.000000
  outer loop
    vertex 0.077385 0.020500 0.009776
    vertex 0.031000 0.020500 0.000000
    vertex 0.030404 0.020500 0.006048
  endloop
endfacet
facet normal 0.000000 0.000459 0.000000
  outer loop
    vertex 0.077385 0.020500 0.009776
    vertex 0.030404 0.020500 0.006048
    vertex 0.075549 0.020500 0.019398
  endloop
endfacet
facet normal 0.000000 0.000286 0.000000
  outer loop
    vertex 0.075549 0.020500 0.019398
    vertex 0.030404 0.020500 0.006048
    vertex 0.028640 0.020500 0.011863
  endloop
endfacet
facet normal 0.000000 0.000460 0.000000
  outer loop
    vertex 0.075549 0.020500 0.019398
    vertex 0.028640 0.020500 0.011863
    vertex 0.072523 0.020500 0.028714
  endloop
endfacet
facet normal 0.000000 0.000459 0.000000
  outer loop
    vertex 0.072523 0.020500 0.028714
    vertex 0.028640 0.020500 0.011863
    vertex 0.068352 0.020500 0.037577
  endloop
endfacet
facet normal 0.000000 0.000286 0.000000
  outer loop
    vertex 0.068352 0.020500 0.037577
    vertex 0.028640 0.020500 0.011863
    vertex 0.025776 0.020500 0.017223
  endloop
endfacet
facet normal 0.000000 0.000459 0.000000
  outer loop
    vertex 0.068352 0.020500 0.037577
    vertex 0.025776 0.020500 0.017223
    vertex 0.063103 0.020500 0.045847
  endloop
endfacet
facet normal 0.000000 0.000286 0.000000
  outer loop
    vertex 0.063103 0.020500 0.045847
    vertex 0.025776 0.020500 0.017223
    vertex 0.021920 0.020500 0.021920
  endloop
endfacet
facet normal 0.000000 0.000460 0.000000
  outer loop
    vertex 0.063103 0.020500 0.045847
    vertex 0.021920 0.020500 0.021920
    vertex 0.056860 0.020500 0.053395
  endloop
endfacet
facet normal 0.000000 0.000459 0.000000
  outer loop
    vertex 0.056860 0.020500 0.053395
    vertex 0.021920 0.020500 0.021920
    vertex 0.049719 0.020500 0.060100
  endloop
endfacet
facet normal 0.000000 0.000287 0.000000
  outer loop
    vertex 0.049719 0.020500 0.060100
    vertex 0.021920 0.020500 0.021920
    vertex 0.017223 0.020500 0.025776
  endloop
endfacet
facet normal 0.000000 0.000459 0.000000
  outer loop
    vertex 0.049719 0.020500 0.060100
    vertex 0.017223 0.020500 0.025776
    vertex 0.041794 0.020500 0.065858
  endloop
endfacet
facet normal 0.000000 0.000460 0.000000
  outer loop
    vertex 0.041794 0.020500 0.065858
    vertex 0.017223 0.020500 0.025776
    vertex 0.033211 0.020500 0.070577
  endloop
endfacet
facet normal 0.000000 0.000286 0.000000
  outer loop
    vertex 0.033211 0.020500 0.070577
    vertex 0.017223 0.020500 0.025776
    vertex 0.011863 0.020500 0.028640
  endloop
endfacet
facet normal 0.000000 0.000459 0.000000
  outer loop
    vertex 0.033211 0.020500 0.070577
    vertex 0.011863 0.020500 0.028640
    vertex 0.024103 0.020500 0.074182
  endloop
endfacet
facet normal 0.000000 0.000286 0.000000
  outer loop
    vertex 0.024103 0.020500 0.074182
    vertex 0.011863 0.020500 0.028640
    vertex 0.006048 0.020500 0.030404
  endloop
endfacet
facet normal 0.000000 0.000459 0.000000
  outer loop
    vertex 0.024103 0.020500 0.074182
    vertex 0.006048 0.020500 0.030404
    vertex 0.014616 0.020500 0.076618
  endloop
endfacet
facet normal 0.000000 0.000460 0.000000
  outer loop
    vertex 0.014616 0.020500 0.076618
    vertex 0.006048 0.020500 0.030404
    vertex 0.004898 0.020500 0.077846
  endloop
endfacet
facet normal 0.000000 0.000286 0.000000
  outer loop
    vertex 0.004898 0.020500 0.077846
    vertex 0.006048 0.020500 0.030404
    vertex 0.000000 0.020500 0.031000
  endloop
endfacet
facet normal 0.000000 0.000459 0.000000
  outer loop
    vertex 0.004898 0.020500 0.077846
    vertex 0.000000 0.020500 0.031000
    vertex -0.004898 0.020500 0.077846
  endloop
endfacet
facet normal 0.000000 0.000286 0.000000
  outer loop
    vertex -0.004898 0.020500 0.077846
    vertex 0.000000 0.020500 0.031000
    vertex -0.006048 0.020500 0.030404
  endloop
endfacet
facet normal 0.000000 0.000460 0.000000
  outer loop
    vertex -0.004898 0.020500 0.077846
    vertex -0.006048 0.020500 0.030404
    vertex -0.014616 0.020500 0.076618
  endloop
endfacet
facet normal 0.000000 0.000459 0.000000
  outer loop
    vertex -0.014616 0.020500 0.076618
    vertex -0.006048 0.020500 0.030404
    vertex -0.024103 0.020500 0.074182
  endloop
endfacet
facet normal 0.000000 0.000286 0.000000
  outer loop
    vertex -0.024103 0.020500 0.074182
    vertex -0.006048 0.020500 0.030404
    vertex -0.011863 0.020500 0.028640
  endloop
endfacet
facet normal 0.000000 0.000459 0.000000
  outer loop
    vertex -0.024103 0.020500 0.074182
    vertex -0.011863 0.020500 0.028640
    vertex -0.033211 0.020500 0.070577
  endloop
endfacet
facet normal 0.000000 0.000286 0.000000
  outer loop
    vertex -0.033211 0.020500 0.070577
    vertex -0.011863 0.020500 0.028640
    vertex -0.017223 0.020500 0.025776
  endloop
endfacet
facet normal 0.000000 0.000460 0.000000
  outer loop
    vertex -0.033211 0.020500 0.070577
    vertex -0.017223 0.020500 0.025776
    vertex -0.041794 0.020500 0.065858
  endloop
endfacet
facet normal 0.000000 0.000459 0.000000
  outer loop
    vertex -0.041794 0.020500 0.065858
    vertex -0.017223 0.020500 0.025776
    vertex -0.049719 0.020500 0.060100
  endloop
endfacet
facet normal 0.000000 0.000287 0.000000
  outer loop
    vertex -0.049719 0.020500 0.060100
    vertex -0.017223 0.020500 0.025776
    vertex -0.021920 0.020500 0.021920
  endloop
endfacet
facet normal 0.000000 0.000459 0.000000
  outer loop
    vertex -0.049719 0.020500 0.060100
    vertex -0.021920 0.020500 0.021920
    vertex -0.056860 0.020500 0.053395
  endloop
endfacet
facet normal 0.000000 0.000460 0.000000
  outer loop
    vertex -0.056860 0.020500 0.053395
    vertex -0.021920 0.020500 0.021920
    vertex -0.063103 0.020500 0.045847
  endloop
endfacet
facet normal 0.000000 0.000286 0.000000
  outer loop
    vertex -0.063103 0.020500 0.045847
    vertex -0.021920 0.020500 0.021920
    vertex -0.025776 0.020500 0.017223
  endloop
endfacet
facet normal 0.000000 0.000459 0.000000
  outer loop
    vertex -0.063103 0.020500 0.045847
    vertex -0.025776 0.020500 0.017223
    vertex -0.068352 0.020500 0.037577
  endloop
endfacet
facet normal 0.000000 0.000286 0.000000
  outer loop
    vertex -0.068352 0.020500 0.037577
    vertex -0.025776 0.020500 0.017223
    vertex -0.028640 0.020500 0.011863
  endloop
endfacet
facet normal 0.000000 0.000459 0.000000
  outer loop
    vertex -0.068352 0.020500 0.037577
    vertex -0.028640 0.020500 0.011863
    vertex -0.072523 0.020500 0.028714
  endloop
endfacet
facet normal 0.000000 0.000460 0.000000
  outer loop
    vertex -0.072523 0.020500 0.028714
    vertex -0.028640 0.020500 0.011863
    vertex -0.075549 0.020500 0.019398
  endloop
endfacet
facet normal 0.000000 0.000286 0.000000
  outer loop
    vertex -0.075549 0.020500 0.019398
    vertex -0.028640 0.020500 0.011863
    vertex -0.030404 0.020500 0.006048
  endloop
endfacet
facet normal 0.000000 0.000459 0.000000
  outer loop
    vertex -0.075549 0.020500 0.019398
    vertex -0.030404 0.020500 0.006048
    vertex -0.077385 0.020500 0.009776
  endloop
endfacet
facet normal 0.000000 0.000286 0.000000
  outer loop
    vertex -0.077385 0.020500 0.009776
    vertex -0.030404 0.020500 0.006048
    vertex -0.031000 0.020500 0.000000
  endloop
endfacet
facet normal -0.000000 -0.000286 0.000000
  outer loop
    vertex -0.030404 0.000000 0.006048
    vertex -0.077385 0.000000 0.009776
    vertex -0.031000 0.000000 0.000000
  endloop
endfacet
facet normal 0.000000 -0.000459 0.000000
  outer loop
    vertex -0.031000 0.000000 0.000000
    vertex -0.077385 0.000000 0.009776
    vertex -0.078000 0.000000 0.000000
  endloop
endfacet
facet normal -0.000000 -0.000459 0.000000
  outer loop
    vertex -0.031000 0.000000 0.000000
    vertex -0.078000 0.000000 0.000000
    vertex -0.077385 0.000000 -0.009776
  endloop
endfacet
facet normal 0.000000 -0.000459 0.000000
  outer loop
    vertex -0.077385 0.000000 0.009776
    vertex -0.030404 0.000000 0.006048
    vertex -0.075549 0.000000 0.019398
  endloop
endfacet
facet normal 0.000000 -0.000286 0.000000
  outer loop
    vertex -0.075549 0.000000 0.019398
    vertex -0.030404 0.000000 0.006048
    vertex -0.028640 0.000000 0.011863
  endloop
endfacet
facet normal 0.000000 -0.000460 0.000000
  outer loop
    vertex -0.075549 0.000000 0.019398
    vertex -0.028640 0.000000 0.011863
    vertex -0.072523 0.000000 0.028714
  endloop
endfacet
facet normal 0.000000 -0.000459 0.000000
  outer loop
    vertex -0.072523 0.000000 0.028714
    vertex -0.028640 0.000000 0.011863
    vertex -0.068352 0.000000 0.037577
  endloop
endfacet
facet normal 0.000000 -0.000286 0.000000
  outer loop
    vertex -0.068352 0.000000 0.037577
    vertex -0.028640 0.000000 0.011863
    vertex -0.025776 0.000000 0.017223
  endloop
endfacet
facet normal 0.000000 -0.000459 0.000000
  outer loop
    vertex -0.068352 0.000000 0.037577
    vertex -0.025776 0.000000 0.017223
    vertex -0.063103 0.000000 0.045847
  endloop
endfacet
facet normal 0.000000 -0.000286 0.000000
  outer loop
    vertex -0.063103 0.000000 0.045847
    vertex -0.025776 0.000000 0.017223
    vertex -0.021920 0.000000 0.021920
  endloop
endfacet
facet normal 0.000000 -0.000460 0.000000
  outer loop
    vertex -0.063103 0.000000 0.045847
    vertex -0.021920 0.000000 0.021920
    vertex -0.056860 0.000000 0.053395
  endloop
endfacet
facet normal 0.000000 -0.000459 0.000000
  outer loop
    vertex -0.056860 0.000000 0.053395
    vertex -0.021920 0.000000 0.021920
    vertex -0.049719 0.000000 0.060100
  endloop
endfacet
facet normal 0.000000 -0.000287 0.000000
  outer loop
    vertex -0.049719 0.000000 0.060100
    vertex -0.021920 0.000000 0.021920
    vertex -0.017223 0.000000 0.025776
  endloop
endfacet
facet normal 0.000000 -0.000459 0.000000
  outer loop
    vertex -0.049719 0.000000 0.060100
    vertex -0.017223 0.000000 0.025776
    vertex -0.041794 0.000000 0.065858
  endloop
endfacet
facet normal 0.000000 -0.000460 0.000000
  outer loop
    vertex -0.041794 0.000000 0.065858
    vertex -0.017223 0.000000 0.025776
    vertex -0.033211 0.000000 0.070577
  endloop
endfacet
facet normal 0.000000 -0.000286 0.000000
  outer loop
    vertex -0.033211 0.000000 0.070577
    vertex -0.017223 0.000000 0.025776
    vertex -0.011863 0.000000 0.028640
  endloop
endfacet
facet normal 0.000000 -0.000459 0.000000
  outer loop
    vertex -0.033211 0.000000 0.070577
    vertex -0.011863 0.000000 0.028640
    vertex -0.024103 0.000000 0.074182
  endloop
endfacet
facet normal 0.000000 -0.000286 0.000000
  outer loop
    vertex -0.024103 0.000000 0.074182
    vertex -0.011863 0.000000 0.028640
    vertex -0.006048 0.000000 0.030404
  endloop
endfacet
facet normal 0.000000 -0.000459 0.000000
  outer loop
    vertex -0.024103 0.000000 0.074182
    vertex -0.006048 0.000000 0.030404
    vertex -0.014616 0.000000 0.076618
  endloop
endfacet
facet normal 0.000000 -0.000460 0.000000
  outer loop
    vertex -0.014616 0.000000 0.076618
    vertex -0.006048 0.000000 0.030404
    vertex -0.004898 0.000000 0.077846
  endloop
endfacet
facet normal 0.000000 -0.000286 -0.000000
  outer loop
    vertex -0.004898 0.000000 0.077846
    vertex -0.006048 0.000000 0.030404
    vertex 0.000000 0.000000 0.031000
  endloop
endfacet
facet normal 0.000000 -0.000459 0.000000
  outer loop
    vertex -0.004898 0.000000 0.077846
    vertex 0.000000 0.000000 0.031000
    vertex 0.004898 0.000000 0.077846
  endloop
endfacet
facet normal 0.000000 -0.000286 -0.000000
  outer loop
    vertex 0.004898 0.000000 0.077846
    vertex 0.000000 0.000000 0.031000
    vertex 0.006048 0.000000 0.030404
  endloop
endfacet
facet normal 0.000000 -0.000460 0.000000
  outer loop
    vertex 0.004898 0.000000 0.077846
    vertex 0.006048 0.000000 0.030404
    vertex 0.014616 0.000000 0.076618
  endloop
endfacet
facet normal 0.000000 -0.000459 -0.000000
  outer loop
    vertex 0.014616 0.000000 0.076618
    vertex 0.006048 0.000000 0.030404
    vertex 0.024103 0.000000 0.074182
  endloop
endfacet
facet normal 0.000000 -0.000286 0.000000
  outer loop
    vertex 0.024103 0.000000 0.074182
    vertex 0.006048 0.000000 0.030404
    vertex 0.011863 0.000000 0.028640
  endloop
endfacet
facet normal 0.000000 -0.000459 -0.000000
  outer loop
    vertex 0.024103 0.000000 0.074182
    vertex 0.011863 0.000000 0.028640
    vertex 0.033211 0.000000 0.070577
  endloop
endfacet
facet normal 0.000000 -0.000286 0.000000
  outer loop
    vertex 0.033211 0.000000 0.070577
    vertex 0.011863 0.000000 0.028640
    vertex 0.017223 0.000000 0.025776
  endloop
endfacet
facet normal 0.000000 -0.000460 -0.000000
  outer loop
    vertex 0.033211 0.000000 0.070577
    vertex 0.017223 0.000000 0.025776
    vertex 0.041794 0.000000 0.065858
  endloop
endfacet
facet normal 0.000000 -0.000459 -0.000000
  outer loop
    vertex 0.041794 0.000000 0.065858
    vertex 0.017223 0.000000 0.025776
    vertex 0.049719 0.000000 0.060100
  endloop
endfacet
facet normal 0.000000 -0.000287 0.000000
  outer loop
    vertex 0.049719 0.000000 0.060100
    vertex 0.017223 0.000000 0.025776
    vertex 0.021920 0.000000 0.021920
  endloop
endfacet
facet normal 0.000000 -0.000459 -0.000000
  outer loop
    vertex 0.049719 0.000000 0.060100
    vertex 0.021920 0.000000 0.021920
    vertex 0.056860 0.000000 0.053395
  endloop
endfacet
facet normal 0.000000 -0.000460 -0.000000
  outer loop
    vertex 0.056860 0.000000 0.053395
    vertex 0.021920 0.000000 0.021920
    vertex 0.063103 0.000000 0.045847
  endloop
endfacet
facet normal 0.000000 -0.000286 0.000000
  outer loop
    vertex 0.063103 0.000000 0.045847
    vertex 0.021920 0.000000 0.021920
    vertex 0.025776 0.000000 0.017223
  endloop
endfacet
facet normal 0.000000 -0.000459 -0.000000
  outer loop
    vertex 0.063103 0.000000 0.045847
    vertex 0.025776 0.000000 0.017223
    vertex 0.068352 0.000000 0.037577
  endloop
endfacet
facet normal 0.000000 -0.000286 0.000000
  outer loop
    vertex 0.068352 0.000000 0.037577
    vertex 0.025776 0.000000 0.017223
    vertex 0.028640 0.000000 0.011863
  endloop
endfacet
facet normal 0.000000 -0.000459 -0.000000
  outer loop
    vertex 0.068352 0.000000 0.037577
    vertex 0.028640 0.000000 0.011863
    vertex 0.072523 0.000000 0.028714
  endloop
endfacet
facet normal 0.000000 -0.000460 -0.000000
  outer loop
    vertex 0.072523 0.000000 0.028714
    vertex 0.028640 0.000000 0.011863
    vertex 0.075549 0.000000 0.019398
  endloop
endfacet
facet normal 0.000000 -0.000286 0.000000
  outer loop
    vertex 0.075549 0.000000 0.019398
    vertex 0.028640 0.000000 0.011863
    vertex 0.030404 0.000000 0.006048
  endloop
endfacet
facet normal 0.000000 -0.000459 -0.000000
  outer loop
    vertex 0.075549 0.000000 0.019398
    vertex 0.030404 0.000000 0.006048
    vertex 0.077385 0.000000 0.009776
  endloop
endfacet
facet normal 0.000000 -0.000286 0.000000
  outer loop
    vertex 0.077385 0.000000 0.009776
    vertex 0.030404 0.000000 0.006048
    vertex 0.031000 0.000000 0.000000
  endloop
endfacet
facet normal 0.000000 -0.000459 -0.000000
  outer loop
    vertex 0.077385 0.000000 0.009776
    vertex 0.031000 0.000000 0.000000
    vertex 0.078000 0.000000 -0.000000
  endloop
endfacet
facet normal -0.000000 -0.000459 0.000000
  outer loop
    vertex 0.078000 0.000000 -0.000000
    vertex 0.031000 0.000000 0.000000
    vertex 0.077385 0.000000 -0.009776
  endloop
endfacet
facet normal 0.000000 -0.000286 0.000000
  outer loop
    vertex 0.077385 0.000000 -0.009776
    vertex 0.031000 0.000000 0.000000
    vertex 0.030404 0.000000 -0.006048
  endloop
endfacet
facet normal -0.000000 -0.000459 0.000000
  outer loop
    vertex 0.077385 0.000000 -0.009776
    vertex 0.030404 0.000000 -0.006048
    vertex 0.075549 0.000000 -0.019398
  endloop
endfacet
facet normal 0.000000 -0.000286 0.000000
  outer loop
    vertex 0.075549 0.000000 -0.019398
    vertex 0.030404 0.000000 -0.006048
    vertex 0.028640 0.000000 -0.011863
  endloop
endfacet
facet normal -0.000000 -0.000460 0.000000
  outer loop
    vertex 0.075549 0.000000 -0.019398
    vertex 0.028640 0.000000 -0.011863
    vertex 0.072523 0.000000 -0.028714
  endloop
endfacet
facet normal -0.000000 -0.000459 0.000000
  outer loop
    vertex 0.072523 0.000000 -0.028714
    vertex 0.028640 0.000000 -0.011863
    vertex 0.068352 0.000000 -0.037577
  endloop
endfacet
facet normal 0.000000 -0.000286 0.000000
  outer loop
    vertex 0.068352 0.000000 -0.037577
    vertex 0.028640 0.000000 -0.011863
    vertex 0.025776 0.000000 -0.017223
  endloop
endfacet
facet normal -0.000000 -0.000459 0.000000
  outer loop
    vertex 0.068352 0.000000 -0.037577
    vertex 0.025776 0.000000 -0.017223
    vertex 0.063103 0.000000 -0.045847
  endloop
endfacet
facet normal 0.000000 -0.000286 0.000000
  outer loop
    vertex 0.063103 0.000000 -0.045847
    vertex 0.025776 0.000000 -0.017223
    vertex 0.021920 0.000000 -0.021920
  endloop
endfacet
facet normal -0.000000 -0.000460 0.000000
  outer loop
    vertex 0.063103 0.000000 -0.045847
    vertex 0.021920 0.000000 -0.021920
    vertex 0.056860 0.000000 -0.053395
  endloop
endfacet
facet normal -0.000000 -0.000459 0.000000
  outer loop
    vertex 0.056860 0.000000 -0.053395
    vertex 0.021920 0.000000 -0.021920
    vertex 0.049719 0.000000 -0.060100
  endloop
endfacet
facet normal 0.000000 -0.000287 0.000000
  outer loop
    vertex 0.049719 0.000000 -0.060100
    vertex 0.021920 0.000000 -0.021920
    vertex 0.017223 0.000000 -0.025776
  endloop
endfacet
facet normal -0.000000 -0.000459 0.000000
  outer loop
    vertex 0.049719 0.000000 -0.060100
    vertex 0.017223 0.000000 -0.025776
    vertex 0.041794 0.000000 -0.065858
  endloop
endfacet
facet normal -0.000000 -0.000460 0.000000
  outer loop
    vertex 0.041794 0.000000 -0.065858
    vertex 0.017223 0.000000 -0.025776
    vertex 0.033211 0.000000 -0.070577
  endloop
endfacet
facet normal 0.000000 -0.000286 0.000000
  outer loop
    vertex 0.033211 0.000000 -0.070577
    vertex 0.017223 0.000000 -0.025776
    vertex 0.011863 0.000000 -0.028640
  endloop
endfacet
facet normal -0.000000 -0.000459 0.000000
  outer loop
    vertex 0.033211 0.000000 -0.070577
    vertex 0.011863 0.000000 -0.028640
    vertex 0.024103 0.000000 -0.074182
  endloop
endfacet
facet normal 0.000000 -0.000286 0.000000
  outer loop
    vertex 0.024103 0.000000 -0.074182
    vertex 0.011863 0.000000 -0.028640
    vertex 0.006048 0.000000 -0.030404
  endloop
endfacet
facet normal -0.000000 -0.000459 0.000000
  outer loop
    vertex 0.024103 0.000000 -0.074182
    vertex 0.006048 0.000000 -0.030404
    vertex 0.014616 0.000000 -0.076618
  endloop
endfacet
facet normal -0.000000 -0.000460 0.000000
  outer loop
    vertex 0.014616 0.000000 -0.076618
    vertex 0.006048 0.000000 -0.030404
    vertex 0.004898 0.000000 -0.077846
  endloop
endfacet
facet normal 0.000000 -0.000286 0.000000
  outer loop
    vertex 0.004898 0.000000 -0.077846
    vertex 0.006048 0.000000 -0.030404
    vertex 0.000000 0.000000 -0.031000
  endloop
endfacet
facet normal 0.000000 -0.000459 0.000000
  outer loop
    vertex 0.004898 0.000000 -0.077846
    vertex 0.000000 0.000000 -0.031000
    vertex -0.004898 0.000000 -0.077846
  endloop
endfacet
facet normal 0.000000 -0.000286 0.000000
  outer loop
    vertex -0.004898 0.000000 -0.077846
    vertex 0.000000 0.000000 -0.031000
    vertex -0.006048 0.000000 -0.030404
  endloop
endfacet
facet normal 0.000000 -0.000460 0.000000
  outer loop
    vertex -0.004898 0.000000 -0.077846
    vertex -0.006048 0.000000 -0.030404
    vertex -0.014616 0.000000 -0.076618
  endloop
endfacet
facet normal 0.000000 -0.000459 0.000000
  outer loop
    vertex -0.014616 0.000000 -0.076618
    vertex -0.006048 0.000000 -0.030404
    vertex -0.024103 0.000000 -0.074182
  endloop
endfacet
facet normal 0.000000 -0.000286 0.000000
  outer loop
    vertex -0.024103 0.000000 -0.074182
    vertex -0.006048 0.000000 -0.030404
    vertex -0.011863 0.000000 -0.028640
  endloop
endfacet
facet normal 0.000000 -0.000459 0.000000
  outer loop
    vertex -0.024103 0.000000 -0.074182
    vertex -0.011863 0.000000 -0.028640
    vertex -0.033211 0.000000 -0.070577
  endloop
endfacet
facet normal 0.000000 -0.000286 0.000000
  outer loop
    vertex -0.033211 0.000000 -0.070577
    vertex -0.011863 0.000000 -0.028640
    vertex -0.017223 0.000000 -0.025776
  endloop
endfacet
facet normal 0.000000 -0.000460 0.000000
  outer loop
    vertex -0.033211 0.000000 -0.070577
    vertex -0.017223 0.000000 -0.025776
    vertex -0.041794 0.000000 -0.065858
  endloop
endfacet
facet normal 0.000000 -0.000459 0.000000
  outer loop
    vertex -0.041794 0.000000 -0.065858
    vertex -0.017223 0.000000 -0.025776
    vertex -0.049719 0.000000 -0.060100
  endloop
endfacet
facet normal 0.000000 -0.000287 0.000000
  outer loop
    vertex -0.049719 0.000000 -0.060100
    vertex -0.017223 0.000000 -0.025776
    vertex -0.021920 0.000000 -0.021920
  endloop
endfacet
facet normal 0.000000 -0.000459 0.000000
  outer loop
    vertex -0.049719 0.000000 -0.060100
    vertex -0.021920 0.000000 -0.021920
    vertex -0.056860 0.000000 -0.053395
  endloop
endfacet
facet normal 0.000000 -0.000460 0.000000
  outer loop
    vertex -0.056860 0.000000 -0.053395
    vertex -0.021920 0.000000 -0.021920
    vertex -0.063103 0.000000 -0.045847
  endloop
endfacet
facet normal 0.000000 -0.000286 0.000000
  outer loop
    vertex -0.063103 0.000000 -0.045847
    vertex -0.021920 0.000000 -0.021920
    vertex -0.025776 0.000000 -0.017223
  endloop
endfacet
facet normal 0.000000 -0.000459 0.000000
  outer loop
    vertex -0.063103 0.000000 -0.045847
    vertex -0.025776 0.000000 -0.017223
    vertex -0.068352 0.000000 -0.037577
  endloop
endfacet
facet normal 0.000000 -0.000286 0.000000
  outer loop
    vertex -0.068352 0.000000 -0.037577
    vertex -0.025776 0.000000 -0.017223
    vertex -0.028640 0.000000 -0.011863
  endloop
endfacet
facet normal 0.000000 -0.000459 0.000000
  outer loop
    vertex -0.068352 0.000000 -0.037577
    vertex -0.028640 0.000000 -0.011863
    vertex -0.072523 0.000000 -0.028714
  endloop
endfacet
facet normal 0.000000 -0.000460 0.000000
  outer loop
    vertex -0.072523 0.000000 -0.028714
    vertex -0.028640 0.000000 -0.011863
    vertex -0.075549 0.000000 -0.019398
  endloop
endfacet
facet normal 0.000000 -0.000286 0.000000
  outer loop
    vertex -0.075549 0.000000 -0.019398
    vertex -0.028640 0.000000 -0.011863
    vertex -0.030404 0.000000 -0.006048
  endloop
endfacet
facet normal 0.000000 -0.000459 0.000000
  outer loop
    vertex -0.075549 0.000000 -0.019398
    vertex -0.030404 0.000000 -0.006048
    vertex -0.077385 0.000000 -0.009776
  endloop
endfacet
facet normal 0.000000 -0.000286 0.000000
  outer loop
    vertex -0.077385 0.000000 -0.009776
    vertex -0.030404 0.000000 -0.006048
    vertex -0.031000 0.000000 0.000000
  endloop
endfacet
endsolid 92be3c76-98b5-4f6d-980c-f412b542094e-ascii.stl
