solid a70a0185-415f-41ae-9151-dc9903a12475-ascii.stl
facet normal 0.000240 0.000000 -0.000019
  outer loop
    vertex -0.048891 0.031000 0.007744
    vertex -0.048891 0.000000 0.007744
    vertex -0.049500 0.031000 0.000000
  endloop
endfacet
facet normal 0.000240 0.000000 -0.000019
  outer loop
    vertex -0.049500 0.031000 0.000000
    vertex -0.048891 0.000000 0.007744
    vertex -0.049500 0.000000 0.000000
  endloop
endfacet
facet normal 0.000240 0.000000 0.000019
  outer loop
    vertex -0.049500 0.031000 0.000000
    vertex -0.049500 0.000000 0.000000
    vertex -0.048891 0.031000 -0.007744
  endloop
endfacet
facet normal 0.000240 0.000000 0.000019
  outer loop
    vertex -0.048891 0.031000 -0.007744
    vertex -0.049500 0.000000 0.000000
    vertex -0.048891 0.000000 -0.007744
  endloop
endfacet
facet normal 0.000234 0.000000 0.000056
  outer loop
    vertex -0.048891 0.031000 -0.007744
    vertex -0.048891 0.000000 -0.007744
    vertex -0.047077 0.031000 -0.015296
  endloop
endfacet
facet normal 0.000234 0.000000 0.000056
  outer loop
    vertex -0.047077 0.031000 -0.015296
    vertex -0.048891 0.000000 -0.007744
    vertex -0.047077 0.000000 -0.015296
  endloop
endfacet
facet normal 0.000222 0.000000 0.000092
  outer loop
    vertex -0.047077 0.031000 -0.015296
    vertex -0.047077 0.000000 -0.015296
    vertex -0.044105 0.031000 -0.022473
  endloop
endfacet
facet normal 0.000222 0.000000 0.000092
  outer loop
    vertex -0.044105 0.031000 -0.022473
    vertex -0.047077 0.000000 -0.015296
    vertex -0.044105 0.000000 -0.022473
  endloop
endfacet
facet normal 0.000205 0.000000 0.000126
  outer loop
    vertex -0.044105 0.031000 -0.022473
    vertex -0.044105 0.000000 -0.022473
    vertex -0.040046 0.031000 -0.029095
  endloop
endfacet
facet normal 0.000205 0.000000 0.000126
  outer loop
    vertex -0.040046 0.031000 -0.029095
    vertex -0.044105 0.000000 -0.022473
    vertex -0.040046 0.000000 -0.029095
  endloop
endfacet
facet normal 0.000183 0.000000 0.000156
  outer loop
    vertex -0.040046 0.031000 -0.029095
    vertex -0.040046 0.000000 -0.029095
    vertex -0.035002 0.031000 -0.035002
  endloop
endfacet
facet normal 0.000183 0.000000 0.000156
  outer loop
    vertex -0.035002 0.031000 -0.035002
    vertex -0.040046 0.000000 -0.029095
    vertex -0.035002 0.000000 -0.035002
  endloop
endfacet
facet normal 0.000156 0.000000 0.000183
  outer loop
    vertex -0.035002 0.031000 -0.035002
    vertex -0.035002 0.000000 -0.035002
    vertex -0.029095 0.031000 -0.040046
  endloop
endfacet
facet normal 0.000156 0.000000 0.000183
  outer loop
    vertex -0.029095 0.031000 -0.040046
    vertex -0.035002 0.000000 -0.035002
    vertex -0.029095 0.000000 -0.040046
  endloop
endfacet
facet normal 0.000126 0.000000 0.000205
  outer loop
    vertex -0.029095 0.031000 -0.040046
    vertex -0.029095 0.000000 -0.040046
    vertex -0.022473 0.031000 -0.044105
  endloop
endfacet
facet normal 0.000126 0.000000 0.000205
  outer loop
    vertex -0.022473 0.031000 -0.044105
    vertex -0.029095 0.000000 -0.040046
    vertex -0.022473 0.000000 -0.044105
  endloop
endfacet
facet normal 0.000092 0.000000 0.000222
  outer loop
    vertex -0.022473 0.031000 -0.044105
    vertex -0.022473 0.000000 -0.044105
    vertex -0.015296 0.031000 -0.047077
  endloop
endfacet
facet normal 0.000092 0.000000 0.000222
  outer loop
    vertex -0.015296 0.031000 -0.047077
    vertex -0.022473 0.000000 -0.044105
    vertex -0.015296 0.000000 -0.047077
  endloop
endfacet
facet normal 0.000056 0.000000 0.000234
  outer loop
    vertex -0.015296 0.031000 -0.047077
    vertex -0.015296 0.000000 -0.047077
    vertex -0.007744 0.031000 -0.048891
  endloop
endfacet
facet normal 0.000056 0.000000 0.000234
  outer loop
    vertex -0.007744 0.031000 -0.048891
    vertex -0.015296 0.000000 -0.047077
    vertex -0.007744 0.000000 -0.048891
  endloop
endfacet
facet normal 0.000019 0.000000 0.000240
  outer loop
    vertex -0.007744 0.031000 -0.048891
    vertex -0.007744 0.000000 -0.048891
    vertex 0.000000 0.031000 -0.049500
  endloop
endfacet
facet normal 0.000019 0.000000 0.000240
  outer loop
    vertex 0.000000 0.031000 -0.049500
    vertex -0.007744 0.000000 -0.048891
    vertex 0.000000 0.000000 -0.049500
  endloop
endfacet
facet normal -0.000019 0.000000 0.000240
  outer loop
    vertex 0.000000 0.031000 -0.049500
    vertex 0.000000 0.000000 -0.049500
    vertex 0.007744 0.031000 -0.048891
  endloop
endfacet
facet normal -0.000019 0.000000 0.000240
  outer loop
    vertex 0.007744 0.031000 -0.048891
    vertex 0.000000 0.000000 -0.049500
    vertex 0.007744 0.000000 -0.048891
  endloop
endfacet
facet normal -0.000056 0.000000 0.000234
  outer loop
    vertex 0.007744 0.031000 -0.048891
    vertex 0.007744 0.000000 -0.048891
    vertex 0.015296 0.031000 -0.047077
  endloop
endfacet
facet normal -0.000056 0.000000 0.000234
  outer loop
    vertex 0.015296 0.031000 -0.047077
    vertex 0.007744 0.000000 -0.048891
    vertex 0.015296 0.000000 -0.047077
  endloop
endfacet
facet normal -0.000092 0.000000 0.000222
  outer loop
    vertex 0.015296 0.031000 -0.047077
    vertex 0.015296 0.000000 -0.047077
    vertex 0.022473 0.031000 -0.044105
  endloop
endfacet
facet normal -0.000092 0.000000 0.000222
  outer loop
    vertex 0.022473 0.031000 -0.044105
    vertex 0.015296 0.000000 -0.047077
    vertex 0.022473 0.000000 -0.044105
  endloop
endfacet
facet normal -0.000126 0.000000 0.000205
  outer loop
    vertex 0.022473 0.031000 -0.044105
    vertex 0.022473 0.000000 -0.044105
    vertex 0.029095 0.031000 -0.040046
  endloop
endfacet
facet normal -0.000126 0.000000 0.000205
  outer loop
    vertex 0.029095 0.031000 -0.040046
    vertex 0.022473 0.000000 -0.044105
    vertex 0.029095 0.000000 -0.040046
  endloop
endfacet
facet normal -0.000156 0.000000 0.000183
  outer loop
    vertex 0.029095 0.031000 -0.040046
    vertex 0.029095 0.000000 -0.040046
    vertex 0.035002 0.031000 -0.035002
  endloop
endfacet
facet normal -0.000156 0.000000 0.000183
  outer loop
    vertex 0.035002 0.031000 -0.035002
    vertex 0.029095 0.000000 -0.040046
    vertex 0.035002 0.000000 -0.035002
  endloop
endfacet
facet normal -0.000183 0.000000 0.000156
  outer loop
    vertex 0.035002 0.031000 -0.035002
    vertex 0.035002 0.000000 -0.035002
    vertex 0.040046 0.031000 -0.029095
  endloop
endfacet
facet normal -0.000183 0.000000 0.000156
  outer loop
    vertex 0.040046 0.031000 -0.029095
    vertex 0.035002 0.000000 -0.035002
    vertex 0.040046 0.000000 -0.029095
  endloop
endfacet
facet normal -0.000205 0.000000 0.000126
  outer loop
    vertex 0.040046 0.031000 -0.029095
    vertex 0.040046 0.000000 -0.029095
    vertex 0.044105 0.031000 -0.022473
  endloop
endfacet
facet normal -0.000205 0.000000 0.000126
  outer loop
    vertex 0.044105 0.031000 -0.022473
    vertex 0.040046 0.000000 -0.029095
    vertex 0.044105 0.000000 -0.022473
  endloop
endfacet
facet normal -0.000222 0.000000 0.000092
  outer loop
    vertex 0.044105 0.031000 -0.022473
    vertex 0.044105 0.000000 -0.022473
    vertex 0.047077 0.031000 -0.015296
  endloop
endfacet
facet normal -0.000222 0.000000 0.000092
  outer loop
    vertex 0.047077 0.031000 -0.015296
    vertex 0.044105 0.000000 -0.022473
    vertex 0.047077 0.000000 -0.015296
  endloop
endfacet
facet normal -0.000234 0.000000 0.000056
  outer loop
    vertex 0.047077 0.031000 -0.015296
    vertex 0.047077 0.000000 -0.015296
    vertex 0.048891 0.031000 -0.007744
  endloop
endfacet
facet normal -0.000234 0.000000 0.000056
  outer loop
    vertex 0.048891 0.031000 -0.007744
    vertex 0.047077 0.000000 -0.015296
    vertex 0.048891 0.000000 -0.007744
  endloop
endfacet
facet normal -0.000240 0.000000 0.000019
  outer loop
    vertex 0.048891 0.031000 -0.007744
    vertex 0.048891 0.000000 -0.007744
    vertex 0.049500 0.031000 0.000000
  endloop
endfacet
facet normal -0.000240 0.000000 0.000019
  outer loop
    vertex 0.049500 0.031000 0.000000
    vertex 0.048891 0.000000 -0.007744
    vertex 0.049500 0.000000 0.000000
  endloop
endfacet
facet normal -0.000240 -0.000000 -0.000019
  outer loop
    vertex 0.049500 0.031000 0.000000
    vertex 0.049500 0.000000 0.000000
    vertex 0.048891 0.031000 0.007744
  endloop
endfacet
facet normal -0.000240 -0.000000 -0.000019
  outer loop
    vertex 0.048891 0.031000 0.007744
    vertex 0.049500 0.000000 0.000000
    vertex 0.048891 0.000000 0.007744
  endloop
endfacet
facet normal -0.000234 -0.000000 -0.000056
  outer loop
    vertex 0.048891 0.031000 0.007744
    vertex 0.048891 0.000000 0.007744
    vertex 0.047077 0.031000 0.015296
  endloop
endfacet
facet normal -0.000234 -0.000000 -0.000056
  outer loop
    vertex 0.047077 0.031000 0.015296
    vertex 0.048891 0.000000 0.007744
    vertex 0.047077 0.000000 0.015296
  endloop
endfacet
facet normal -0.000222 -0.000000 -0.000092
  outer loop
    vertex 0.047077 0.031000 0.015296
    vertex 0.047077 0.000000 0.015296
    vertex 0.044105 0.031000 0.022473
  endloop
endfacet
facet normal -0.000222 -0.000000 -0.000092
  outer loop
    vertex 0.044105 0.031000 0.022473
    vertex 0.047077 0.000000 0.015296
    vertex 0.044105 0.000000 0.022473
  endloop
endfacet
facet normal -0.000205 -0.000000 -0.000126
  outer loop
    vertex 0.044105 0.031000 0.022473
    vertex 0.044105 0.000000 0.022473
    vertex 0.040046 0.031000 0.029095
  endloop
endfacet
facet normal -0.000205 -0.000000 -0.000126
  outer loop
    vertex 0.040046 0.031000 0.029095
    vertex 0.044105 0.000000 0.022473
    vertex 0.040046 0.000000 0.029095
  endloop
endfacet
facet normal -0.000183 -0.000000 -0.000156
  outer loop
    vertex 0.040046 0.031000 0.029095
    vertex 0.040046 0.000000 0.029095
    vertex 0.035002 0.031000 0.035002
  endloop
endfacet
facet normal -0.000183 -0.000000 -0.000156
  outer loop
    vertex 0.035002 0.031000 0.035002
    vertex 0.040046 0.000000 0.029095
    vertex 0.035002 0.000000 0.035002
  endloop
endfacet
facet normal -0.000156 -0.000000 -0.000183
  outer loop
    vertex 0.035002 0.031000 0.035002
    vertex 0.035002 0.000000 0.035002
    vertex 0.029095 0.031000 0.040046
  endloop
endfacet
facet normal -0.000156 -0.000000 -0.000183
  outer loop
    vertex 0.029095 0.031000 0.040046
    vertex 0.035002 0.000000 0.035002
    vertex 0.029095 0.000000 0.040046
  endloop
endfacet
facet normal -0.000126 -0.000000 -0.000205
  outer loop
    vertex 0.029095 0.031000 0.040046
    vertex 0.029095 0.000000 0.040046
    vertex 0.022473 0.031000 0.044105
  endloop
endfacet
facet normal -0.000126 -0.000000 -0.000205
  outer loop
    vertex 0.022473 0.031000 0.044105
    vertex 0.029095 0.000000 0.040046
    vertex 0.022473 0.000000 0.044105
  endloop
endfacet
facet normal -0.000092 -0.000000 -0.000222
  outer loop
    vertex 0.022473 0.031000 0.044105
    vertex 0.022473 0.000000 0.044105
    vertex 0.015296 0.031000 0.047077
  endloop
endfacet
facet normal -0.000092 -0.000000 -0.000222
  outer loop
    vertex 0.015296 0.031000 0.047077
    vertex 0.022473 0.000000 0.044105
    vertex 0.015296 0.000000 0.047077
  endloop
endfacet
facet normal -0.000056 -0.000000 -0.000234
  outer loop
    vertex 0.015296 0.031000 0.047077
    vertex 0.015296 0.000000 0.047077
    vertex 0.007744 0.031000 0.048891
  endloop
endfacet
facet normal -0.000056 -0.000000 -0.000234
  outer loop
    vertex 0.007744 0.031000 0.048891
    vertex 0.015296 0.000000 0.047077
    vertex 0.007744 0.000000 0.048891
  endloop
endfacet
facet normal -0.000019 -0.000000 -0.000240
  outer loop
    vertex 0.007744 0.031000 0.048891
    vertex 0.007744 0.000000 0.048891
    vertex 0.000000 0.031000 0.049500
  endloop
endfacet
facet normal -0.000019 -0.000000 -0.000240
  outer loop
    vertex 0.000000 0.031000 0.049500
    vertex 0.007744 0.000000 0.048891
    vertex 0.000000 0.000000 0.049500
  endloop
endfacet
facet normal 0.000019 0.000000 -0.000240
  outer loop
    vertex 0.000000 0.031000 0.049500
    vertex 0.000000 0.000000 0.049500
    vertex -0.007744 0.031000 0.048891
  endloop
endfacet
facet normal 0.000019 0.000000 -0.000240
  outer loop
    vertex -0.007744 0.031000 0.048891
    vertex 0.000000 0.000000 0.049500
    vertex -0.007744 0.000000 0.048891
  endloop
endfacet
facet normal 0.000056 0.000000 -0.000234
  outer loop
    vertex -0.007744 0.031000 0.048891
    vertex -0.007744 0.000000 0.048891
    vertex -0.015296 0.031000 0.047077
  endloop
endfacet
facet normal 0.000056 0.000000 -0.000234
  outer loop
    vertex -0.015296 0.031000 0.047077
    vertex -0.007744 0.000000 0.048891
    vertex -0.015296 0.000000 0.047077
  endloop
endfacet
facet normal 0.000092 0.000000 -0.000222
  outer loop
    vertex -0.015296 0.031000 0.047077
    vertex -0.015296 0.000000 0.047077
    vertex -0.022473 0.031000 0.044105
  endloop
endfacet
facet normal 0.000092 0.000000 -0.000222
  outer loop
    vertex -0.022473 0.031000 0.044105
    vertex -0.015296 0.000000 0.047077
    vertex -0.022473 0.000000 0.044105
  endloop
endfacet
facet normal 0.000126 0.000000 -0.000205
  outer loop
    vertex -0.022473 0.031000 0.044105
    vertex -0.022473 0.000000 0.044105
    vertex -0.029095 0.031000 0.040046
  endloop
endfacet
facet normal 0.000126 0.000000 -0.000205
  outer loop
    vertex -0.029095 0.031000 0.040046
    vertex -0.022473 0.000000 0.044105
    vertex -0.029095 0.000000 0.040046
  endloop
endfacet
facet normal 0.000156 0.000000 -0.000183
  outer loop
    vertex -0.029095 0.031000 0.040046
    vertex -0.029095 0.000000 0.040046
    vertex -0.035002 0.031000 0.035002
  endloop
endfacet
facet normal 0.000156 0.000000 -0.000183
  outer loop
    vertex -0.035002 0.031000 0.035002
    vertex -0.029095 0.000000 0.040046
    vertex -0.035002 0.000000 0.035002
  endloop
endfacet
facet normal 0.000183 0.000000 -0.000156
  outer loop
    vertex -0.035002 0.031000 0.035002
    vertex -0.035002 0.000000 0.035002
    vertex -0.040046 0.031000 0.029095
  endloop
endfacet
facet normal 0.000183 0.000000 -0.000156
  outer loop
    vertex -0.040046 0.031000 0.029095
    vertex -0.035002 0.000000 0.035002
    vertex -0.040046 0.000000 0.029095
  endloop
endfacet
facet normal 0.000205 0.000000 -0.000126
  outer loop
    vertex -0.040046 0.031000 0.029095
    vertex -0.040046 0.000000 0.029095
    vertex -0.044105 0.031000 0.022473
  endloop
endfacet
facet normal 0.000205 0.000000 -0.000126
  outer loop
    vertex -0.044105 0.031000 0.022473
    vertex -0.040046 0.000000 0.029095
    vertex -0.044105 0.000000 0.022473
  endloop
endfacet
facet normal 0.000222 0.000000 -0.000092
  outer loop
    vertex -0.044105 0.031000 0.022473
    vertex -0.044105 0.000000 0.022473
    vertex -0.047077 0.031000 0.015296
  endloop
endfacet
facet normal 0.000222 0.000000 -0.000092
  outer loop
    vertex -0.047077 0.031000 0.015296
    vertex -0.044105 0.000000 0.022473
    vertex -0.047077 0.000000 0.015296
  endloop
endfacet
facet normal 0.000234 0.000000 -0.000056
  outer loop
    vertex -0.047077 0.031000 0.015296
    vertex -0.047077 0.000000 0.015296
    vertex -0.048891 0.031000 0.007744
  endloop
endfacet
facet normal 0.000234 0.000000 -0.000056
  outer loop
    vertex -0.048891 0.031000 0.007744
    vertex -0.047077 0.000000 0.015296
    vertex -0.048891 0.000000 0.007744
  endloop
endfacet
facet normal -0.000386 -0.000000 -0.000019
  outer loop
    vertex -0.124379 0.031000 -0.012446
    vertex -0.124379 0.000000 -0.012446
    vertex -0.125000 0.031000 0.000000
  endloop
endfacet
facet normal -0.000386 -0.000000 -0.000019
  outer loop
    vertex -0.125000 0.031000 0.000000
    vertex -0.124379 0.000000 -0.012446
    vertex -0.125000 0.000000 0.000000
  endloop
endfacet
facet normal -0.000386 0.000000 0.000019
  outer loop
    vertex -0.125000 0.031000 0.000000
    vertex -0.125000 0.000000 0.000000
    vertex -0.124379 0.031000 0.012446
  endloop
endfacet
facet normal -0.000386 0.000000 0.000019
  outer loop
    vertex -0.124379 0.031000 0.012446
    vertex -0.125000 0.000000 0.000000
    vertex -0.124379 0.000000 0.012446
  endloop
endfacet
facet normal -0.000382 0.000000 0.000058
  outer loop
    vertex -0.124379 0.031000 0.012446
    vertex -0.124379 0.000000 0.012446
    vertex -0.122522 0.031000 0.024768
  endloop
endfacet
facet normal -0.000382 0.000000 0.000058
  outer loop
    vertex -0.122522 0.031000 0.024768
    vertex -0.124379 0.000000 0.012446
    vertex -0.122522 0.000000 0.024768
  endloop
endfacet
facet normal -0.000374 0.000000 0.000095
  outer loop
    vertex -0.122522 0.031000 0.024768
    vertex -0.122522 0.000000 0.024768
    vertex -0.119447 0.031000 0.036844
  endloop
endfacet
facet normal -0.000374 0.000000 0.000095
  outer loop
    vertex -0.119447 0.031000 0.036844
    vertex -0.122522 0.000000 0.024768
    vertex -0.119447 0.000000 0.036844
  endloop
endfacet
facet normal -0.000363 0.000000 0.000132
  outer loop
    vertex -0.119447 0.031000 0.036844
    vertex -0.119447 0.000000 0.036844
    vertex -0.115185 0.031000 0.048554
  endloop
endfacet
facet normal -0.000363 0.000000 0.000132
  outer loop
    vertex -0.115185 0.031000 0.048554
    vertex -0.119447 0.000000 0.036844
    vertex -0.115185 0.000000 0.048554
  endloop
endfacet
facet normal -0.000348 0.000000 0.000168
  outer loop
    vertex -0.115185 0.031000 0.048554
    vertex -0.115185 0.000000 0.048554
    vertex -0.109778 0.031000 0.059782
  endloop
endfacet
facet normal -0.000348 0.000000 0.000168
  outer loop
    vertex -0.109778 0.031000 0.059782
    vertex -0.115185 0.000000 0.048554
    vertex -0.109778 0.000000 0.059782
  endloop
endfacet
facet normal -0.000330 0.000000 0.000201
  outer loop
    vertex -0.109778 0.031000 0.059782
    vertex -0.109778 0.000000 0.059782
    vertex -0.103280 0.031000 0.070415
  endloop
endfacet
facet normal -0.000330 0.000000 0.000201
  outer loop
    vertex -0.103280 0.031000 0.070415
    vertex -0.109778 0.000000 0.059782
    vertex -0.103280 0.000000 0.070415
  endloop
endfacet
facet normal -0.000308 0.000000 0.000233
  outer loop
    vertex -0.103280 0.031000 0.070415
    vertex -0.103280 0.000000 0.070415
    vertex -0.095756 0.031000 0.080348
  endloop
endfacet
facet normal -0.000308 0.000000 0.000233
  outer loop
    vertex -0.095756 0.031000 0.080348
    vertex -0.103280 0.000000 0.070415
    vertex -0.095756 0.000000 0.080348
  endloop
endfacet
facet normal -0.000283 0.000000 0.000263
  outer loop
    vertex -0.095756 0.031000 0.080348
    vertex -0.095756 0.000000 0.080348
    vertex -0.087280 0.031000 0.089483
  endloop
endfacet
facet normal -0.000283 0.000000 0.000263
  outer loop
    vertex -0.087280 0.031000 0.089483
    vertex -0.095756 0.000000 0.080348
    vertex -0.087280 0.000000 0.089483
  endloop
endfacet
facet normal -0.000256 0.000000 0.000290
  outer loop
    vertex -0.087280 0.031000 0.089483
    vertex -0.087280 0.000000 0.089483
    vertex -0.077936 0.031000 0.097729
  endloop
endfacet
facet normal -0.000256 0.000000 0.000290
  outer loop
    vertex -0.077936 0.031000 0.097729
    vertex -0.087280 0.000000 0.089483
    vertex -0.077936 0.000000 0.097729
  endloop
endfacet
facet normal -0.000226 0.000000 0.000314
  outer loop
    vertex -0.077936 0.031000 0.097729
    vertex -0.077936 0.000000 0.097729
    vertex -0.067818 0.031000 0.105003
  endloop
endfacet
facet normal -0.000226 0.000000 0.000314
  outer loop
    vertex -0.067818 0.031000 0.105003
    vertex -0.077936 0.000000 0.097729
    vertex -0.067818 0.000000 0.105003
  endloop
endfacet
facet normal -0.000193 0.000000 0.000335
  outer loop
    vertex -0.067818 0.031000 0.105003
    vertex -0.067818 0.000000 0.105003
    vertex -0.057026 0.031000 0.111234
  endloop
endfacet
facet normal -0.000193 0.000000 0.000335
  outer loop
    vertex -0.057026 0.031000 0.111234
    vertex -0.067818 0.000000 0.105003
    vertex -0.057026 0.000000 0.111234
  endloop
endfacet
facet normal -0.000159 0.000000 0.000352
  outer loop
    vertex -0.057026 0.031000 0.111234
    vertex -0.057026 0.000000 0.111234
    vertex -0.045668 0.031000 0.116359
  endloop
endfacet
facet normal -0.000159 0.000000 0.000352
  outer loop
    vertex -0.045668 0.031000 0.116359
    vertex -0.057026 0.000000 0.111234
    vertex -0.045668 0.000000 0.116359
  endloop
endfacet
facet normal -0.000123 0.000000 0.000366
  outer loop
    vertex -0.045668 0.031000 0.116359
    vertex -0.045668 0.000000 0.116359
    vertex -0.033855 0.031000 0.120328
  endloop
endfacet
facet normal -0.000123 0.000000 0.000366
  outer loop
    vertex -0.033855 0.031000 0.120328
    vertex -0.045668 0.000000 0.116359
    vertex -0.033855 0.000000 0.120328
  endloop
endfacet
facet normal -0.000086 0.000000 0.000377
  outer loop
    vertex -0.033855 0.031000 0.120328
    vertex -0.033855 0.000000 0.120328
    vertex -0.021706 0.031000 0.123101
  endloop
endfacet
facet normal -0.000086 0.000000 0.000377
  outer loop
    vertex -0.021706 0.031000 0.123101
    vertex -0.033855 0.000000 0.120328
    vertex -0.021706 0.000000 0.123101
  endloop
endfacet
facet normal -0.000048 0.000000 0.000383
  outer loop
    vertex -0.021706 0.031000 0.123101
    vertex -0.021706 0.000000 0.123101
    vertex -0.009341 0.031000 0.124650
  endloop
endfacet
facet normal -0.000048 0.000000 0.000383
  outer loop
    vertex -0.009341 0.031000 0.124650
    vertex -0.021706 0.000000 0.123101
    vertex -0.009341 0.000000 0.124650
  endloop
endfacet
facet normal -0.000010 0.000000 0.000386
  outer loop
    vertex -0.009341 0.031000 0.124650
    vertex -0.009341 0.000000 0.124650
    vertex 0.003116 0.031000 0.124961
  endloop
endfacet
facet normal -0.000010 0.000000 0.000386
  outer loop
    vertex 0.003116 0.031000 0.124961
    vertex -0.009341 0.000000 0.124650
    vertex 0.003116 0.000000 0.124961
  endloop
endfacet
facet normal 0.000029 0.000000 0.000385
  outer loop
    vertex 0.003116 0.031000 0.124961
    vertex 0.003116 0.000000 0.124961
    vertex 0.015543 0.031000 0.124030
  endloop
endfacet
facet normal 0.000029 0.000000 0.000385
  outer loop
    vertex 0.015543 0.031000 0.124030
    vertex 0.003116 0.000000 0.124961
    vertex 0.015543 0.000000 0.124030
  endloop
endfacet
facet normal 0.000067 0.000000 0.000380
  outer loop
    vertex 0.015543 0.031000 0.124030
    vertex 0.015543 0.000000 0.124030
    vertex 0.027815 0.031000 0.121866
  endloop
endfacet
facet normal 0.000067 0.000000 0.000380
  outer loop
    vertex 0.027815 0.031000 0.121866
    vertex 0.015543 0.000000 0.124030
    vertex 0.027815 0.000000 0.121866
  endloop
endfacet
facet normal 0.000105 0.000000 0.000372
  outer loop
    vertex 0.027815 0.031000 0.121866
    vertex 0.027815 0.000000 0.121866
    vertex 0.039811 0.031000 0.118491
  endloop
endfacet
facet normal 0.000105 0.000000 0.000372
  outer loop
    vertex 0.039811 0.031000 0.118491
    vertex 0.027815 0.000000 0.121866
    vertex 0.039811 0.000000 0.118491
  endloop
endfacet
facet normal 0.000141 0.000000 0.000360
  outer loop
    vertex 0.039811 0.031000 0.118491
    vertex 0.039811 0.000000 0.118491
    vertex 0.051411 0.031000 0.113938
  endloop
endfacet
facet normal 0.000141 0.000000 0.000360
  outer loop
    vertex 0.051411 0.031000 0.113938
    vertex 0.039811 0.000000 0.118491
    vertex 0.051411 0.000000 0.113938
  endloop
endfacet
facet normal 0.000176 0.000000 0.000344
  outer loop
    vertex 0.051411 0.031000 0.113938
    vertex 0.051411 0.000000 0.113938
    vertex 0.062500 0.031000 0.108253
  endloop
endfacet
facet normal 0.000176 0.000000 0.000344
  outer loop
    vertex 0.062500 0.031000 0.108253
    vertex 0.051411 0.000000 0.113938
    vertex 0.062500 0.000000 0.108253
  endloop
endfacet
facet normal 0.000210 0.000000 0.000325
  outer loop
    vertex 0.062500 0.031000 0.108253
    vertex 0.062500 0.000000 0.108253
    vertex 0.072968 0.031000 0.101492
  endloop
endfacet
facet normal 0.000210 0.000000 0.000325
  outer loop
    vertex 0.072968 0.031000 0.101492
    vertex 0.062500 0.000000 0.108253
    vertex 0.072968 0.000000 0.101492
  endloop
endfacet
facet normal 0.000241 0.000000 0.000302
  outer loop
    vertex 0.072968 0.031000 0.101492
    vertex 0.072968 0.000000 0.101492
    vertex 0.082711 0.031000 0.093723
  endloop
endfacet
facet normal 0.000241 0.000000 0.000302
  outer loop
    vertex 0.082711 0.031000 0.093723
    vertex 0.072968 0.000000 0.101492
    vertex 0.082711 0.000000 0.093723
  endloop
endfacet
facet normal 0.000270 0.000000 0.000277
  outer loop
    vertex 0.082711 0.031000 0.093723
    vertex 0.082711 0.000000 0.093723
    vertex 0.091631 0.031000 0.085022
  endloop
endfacet
facet normal 0.000270 0.000000 0.000277
  outer loop
    vertex 0.091631 0.031000 0.085022
    vertex 0.082711 0.000000 0.093723
    vertex 0.091631 0.000000 0.085022
  endloop
endfacet
facet normal 0.000296 0.000000 0.000248
  outer loop
    vertex 0.091631 0.031000 0.085022
    vertex 0.091631 0.000000 0.085022
    vertex 0.099642 0.031000 0.075476
  endloop
endfacet
facet normal 0.000296 0.000000 0.000248
  outer loop
    vertex 0.099642 0.031000 0.075476
    vertex 0.091631 0.000000 0.085022
    vertex 0.099642 0.000000 0.075476
  endloop
endfacet
facet normal 0.000319 0.000000 0.000218
  outer loop
    vertex 0.099642 0.031000 0.075476
    vertex 0.099642 0.000000 0.075476
    vertex 0.106661 0.031000 0.065179
  endloop
endfacet
facet normal 0.000319 0.000000 0.000218
  outer loop
    vertex 0.106661 0.031000 0.065179
    vertex 0.099642 0.000000 0.075476
    vertex 0.106661 0.000000 0.065179
  endloop
endfacet
facet normal 0.000339 0.000000 0.000185
  outer loop
    vertex 0.106661 0.031000 0.065179
    vertex 0.106661 0.000000 0.065179
    vertex 0.112621 0.031000 0.054235
  endloop
endfacet
facet normal 0.000339 0.000000 0.000185
  outer loop
    vertex 0.112621 0.031000 0.054235
    vertex 0.106661 0.000000 0.065179
    vertex 0.112621 0.000000 0.054235
  endloop
endfacet
facet normal 0.000356 0.000000 0.000150
  outer loop
    vertex 0.112621 0.031000 0.054235
    vertex 0.112621 0.000000 0.054235
    vertex 0.117462 0.031000 0.042753
  endloop
endfacet
facet normal 0.000356 0.000000 0.000150
  outer loop
    vertex 0.117462 0.031000 0.042753
    vertex 0.112621 0.000000 0.054235
    vertex 0.117462 0.000000 0.042753
  endloop
endfacet
facet normal 0.000369 0.000000 0.000114
  outer loop
    vertex 0.117462 0.031000 0.042753
    vertex 0.117462 0.000000 0.042753
    vertex 0.121135 0.031000 0.030845
  endloop
endfacet
facet normal 0.000369 0.000000 0.000114
  outer loop
    vertex 0.121135 0.031000 0.030845
    vertex 0.117462 0.000000 0.042753
    vertex 0.121135 0.000000 0.030845
  endloop
endfacet
facet normal 0.000379 0.000000 0.000077
  outer loop
    vertex 0.121135 0.031000 0.030845
    vertex 0.121135 0.000000 0.030845
    vertex 0.123604 0.031000 0.018630
  endloop
endfacet
facet normal 0.000379 0.000000 0.000077
  outer loop
    vertex 0.123604 0.031000 0.018630
    vertex 0.121135 0.000000 0.030845
    vertex 0.123604 0.000000 0.018630
  endloop
endfacet
facet normal 0.000384 0.000000 0.000038
  outer loop
    vertex 0.123604 0.031000 0.018630
    vertex 0.123604 0.000000 0.018630
    vertex 0.124845 0.031000 0.006231
  endloop
endfacet
facet normal 0.000384 0.000000 0.000038
  outer loop
    vertex 0.124845 0.031000 0.006231
    vertex 0.123604 0.000000 0.018630
    vertex 0.124845 0.000000 0.006231
  endloop
endfacet
facet normal 0.000386 0.000000 0.000000
  outer loop
    vertex 0.124845 0.031000 0.006231
    vertex 0.124845 0.000000 0.006231
    vertex 0.124845 0.031000 -0.006231
  endloop
endfacet
facet normal 0.000386 0.000000 0.000000
  outer loop
    vertex 0.124845 0.031000 -0.006231
    vertex 0.124845 0.000000 0.006231
    vertex 0.124845 0.000000 -0.006231
  endloop
endfacet
facet normal 0.000384 0.000000 -0.000038
  outer loop
    vertex 0.124845 0.031000 -0.006231
    vertex 0.124845 0.000000 -0.006231
    vertex 0.123604 0.031000 -0.018630
  endloop
endfacet
facet normal 0.000384 0.000000 -0.000038
  outer loop
    vertex 0.123604 0.031000 -0.018630
    vertex 0.124845 0.000000 -0.006231
    vertex 0.123604 0.000000 -0.018630
  endloop
endfacet
facet normal 0.000379 0.000000 -0.000077
  outer loop
    vertex 0.123604 0.031000 -0.018630
    vertex 0.123604 0.000000 -0.018630
    vertex 0.121135 0.031000 -0.030845
  endloop
endfacet
facet normal 0.000379 0.000000 -0.000077
  outer loop
    vertex 0.121135 0.031000 -0.030845
    vertex 0.123604 0.000000 -0.018630
    vertex 0.121135 0.000000 -0.030845
  endloop
endfacet
facet normal 0.000369 0.000000 -0.000114
  outer loop
    vertex 0.121135 0.031000 -0.030845
    vertex 0.121135 0.000000 -0.030845
    vertex 0.117462 0.031000 -0.042753
  endloop
endfacet
facet normal 0.000369 0.000000 -0.000114
  outer loop
    vertex 0.117462 0.031000 -0.042753
    vertex 0.121135 0.000000 -0.030845
    vertex 0.117462 0.000000 -0.042753
  endloop
endfacet
facet normal 0.000356 0.000000 -0.000150
  outer loop
    vertex 0.117462 0.031000 -0.042753
    vertex 0.117462 0.000000 -0.042753
    vertex 0.112621 0.031000 -0.054235
  endloop
endfacet
facet normal 0.000356 0.000000 -0.000150
  outer loop
    vertex 0.112621 0.031000 -0.054235
    vertex 0.117462 0.000000 -0.042753
    vertex 0.112621 0.000000 -0.054235
  endloop
endfacet
facet normal 0.000339 0.000000 -0.000185
  outer loop
    vertex 0.112621 0.031000 -0.054235
    vertex 0.112621 0.000000 -0.054235
    vertex 0.106661 0.031000 -0.065179
  endloop
endfacet
facet normal 0.000339 0.000000 -0.000185
  outer loop
    vertex 0.106661 0.031000 -0.065179
    vertex 0.112621 0.000000 -0.054235
    vertex 0.106661 0.000000 -0.065179
  endloop
endfacet
facet normal 0.000319 0.000000 -0.000218
  outer loop
    vertex 0.106661 0.031000 -0.065179
    vertex 0.106661 0.000000 -0.065179
    vertex 0.099642 0.031000 -0.075476
  endloop
endfacet
facet normal 0.000319 0.000000 -0.000218
  outer loop
    vertex 0.099642 0.031000 -0.075476
    vertex 0.106661 0.000000 -0.065179
    vertex 0.099642 0.000000 -0.075476
  endloop
endfacet
facet normal 0.000296 0.000000 -0.000248
  outer loop
    vertex 0.099642 0.031000 -0.075476
    vertex 0.099642 0.000000 -0.075476
    vertex 0.091631 0.031000 -0.085022
  endloop
endfacet
facet normal 0.000296 0.000000 -0.000248
  outer loop
    vertex 0.091631 0.031000 -0.085022
    vertex 0.099642 0.000000 -0.075476
    vertex 0.091631 0.000000 -0.085022
  endloop
endfacet
facet normal 0.000270 0.000000 -0.000277
  outer loop
    vertex 0.091631 0.031000 -0.085022
    vertex 0.091631 0.000000 -0.085022
    vertex 0.082711 0.031000 -0.093723
  endloop
endfacet
facet normal 0.000270 0.000000 -0.000277
  outer loop
    vertex 0.082711 0.031000 -0.093723
    vertex 0.091631 0.000000 -0.085022
    vertex 0.082711 0.000000 -0.093723
  endloop
endfacet
facet normal 0.000241 0.000000 -0.000302
  outer loop
    vertex 0.082711 0.031000 -0.093723
    vertex 0.082711 0.000000 -0.093723
    vertex 0.072968 0.031000 -0.101492
  endloop
endfacet
facet normal 0.000241 0.000000 -0.000302
  outer loop
    vertex 0.072968 0.031000 -0.101492
    vertex 0.082711 0.000000 -0.093723
    vertex 0.072968 0.000000 -0.101492
  endloop
endfacet
facet normal 0.000210 0.000000 -0.000325
  outer loop
    vertex 0.072968 0.031000 -0.101492
    vertex 0.072968 0.000000 -0.101492
    vertex 0.062500 0.031000 -0.108253
  endloop
endfacet
facet normal 0.000210 0.000000 -0.000325
  outer loop
    vertex 0.062500 0.031000 -0.108253
    vertex 0.072968 0.000000 -0.101492
    vertex 0.062500 0.000000 -0.108253
  endloop
endfacet
facet normal 0.000176 0.000000 -0.000344
  outer loop
    vertex 0.062500 0.031000 -0.108253
    vertex 0.062500 0.000000 -0.108253
    vertex 0.051411 0.031000 -0.113938
  endloop
endfacet
facet normal 0.000176 0.000000 -0.000344
  outer loop
    vertex 0.051411 0.031000 -0.113938
    vertex 0.062500 0.000000 -0.108253
    vertex 0.051411 0.000000 -0.113938
  endloop
endfacet
facet normal 0.000141 0.000000 -0.000360
  outer loop
    vertex 0.051411 0.031000 -0.113938
    vertex 0.051411 0.000000 -0.113938
    vertex 0.039811 0.031000 -0.118491
  endloop
endfacet
facet normal 0.000141 0.000000 -0.000360
  outer loop
    vertex 0.039811 0.031000 -0.118491
    vertex 0.051411 0.000000 -0.113938
    vertex 0.039811 0.000000 -0.118491
  endloop
endfacet
facet normal 0.000105 0.000000 -0.000372
  outer loop
    vertex 0.039811 0.031000 -0.118491
    vertex 0.039811 0.000000 -0.118491
    vertex 0.027815 0.031000 -0.121866
  endloop
endfacet
facet normal 0.000105 0.000000 -0.000372
  outer loop
    vertex 0.027815 0.031000 -0.121866
    vertex 0.039811 0.000000 -0.118491
    vertex 0.027815 0.000000 -0.121866
  endloop
endfacet
facet normal 0.000067 0.000000 -0.000380
  outer loop
    vertex 0.027815 0.031000 -0.121866
    vertex 0.027815 0.000000 -0.121866
    vertex 0.015543 0.031000 -0.124030
  endloop
endfacet
facet normal 0.000067 0.000000 -0.000380
  outer loop
    vertex 0.015543 0.031000 -0.124030
    vertex 0.027815 0.000000 -0.121866
    vertex 0.015543 0.000000 -0.124030
  endloop
endfacet
facet normal 0.000029 0.000000 -0.000385
  outer loop
    vertex 0.015543 0.031000 -0.124030
    vertex 0.015543 0.000000 -0.124030
    vertex 0.003116 0.031000 -0.124961
  endloop
endfacet
facet normal 0.000029 0.000000 -0.000385
  outer loop
    vertex 0.003116 0.031000 -0.124961
    vertex 0.015543 0.000000 -0.124030
    vertex 0.003116 0.000000 -0.124961
  endloop
endfacet
facet normal -0.000010 -0.000000 -0.000386
  outer loop
    vertex 0.003116 0.031000 -0.124961
    vertex 0.003116 0.000000 -0.124961
    vertex -0.009341 0.031000 -0.124650
  endloop
endfacet
facet normal -0.000010 -0.000000 -0.000386
  outer loop
    vertex -0.009341 0.031000 -0.124650
    vertex 0.003116 0.000000 -0.124961
    vertex -0.009341 0.000000 -0.124650
  endloop
endfacet
facet normal -0.000048 -0.000000 -0.000383
  outer loop
    vertex -0.009341 0.031000 -0.124650
    vertex -0.009341 0.000000 -0.124650
    vertex -0.021706 0.031000 -0.123101
  endloop
endfacet
facet normal -0.000048 -0.000000 -0.000383
  outer loop
    vertex -0.021706 0.031000 -0.123101
    vertex -0.009341 0.000000 -0.124650
    vertex -0.021706 0.000000 -0.123101
  endloop
endfacet
facet normal -0.000086 -0.000000 -0.000377
  outer loop
    vertex -0.021706 0.031000 -0.123101
    vertex -0.021706 0.000000 -0.123101
    vertex -0.033855 0.031000 -0.120328
  endloop
endfacet
facet normal -0.000086 -0.000000 -0.000377
  outer loop
    vertex -0.033855 0.031000 -0.120328
    vertex -0.021706 0.000000 -0.123101
    vertex -0.033855 0.000000 -0.120328
  endloop
endfacet
facet normal -0.000123 -0.000000 -0.000366
  outer loop
    vertex -0.033855 0.031000 -0.120328
    vertex -0.033855 0.000000 -0.120328
    vertex -0.045668 0.031000 -0.116359
  endloop
endfacet
facet normal -0.000123 -0.000000 -0.000366
  outer loop
    vertex -0.045668 0.031000 -0.116359
    vertex -0.033855 0.000000 -0.120328
    vertex -0.045668 0.000000 -0.116359
  endloop
endfacet
facet normal -0.000159 -0.000000 -0.000352
  outer loop
    vertex -0.045668 0.031000 -0.116359
    vertex -0.045668 0.000000 -0.116359
    vertex -0.057026 0.031000 -0.111234
  endloop
endfacet
facet normal -0.000159 -0.000000 -0.000352
  outer loop
    vertex -0.057026 0.031000 -0.111234
    vertex -0.045668 0.000000 -0.116359
    vertex -0.057026 0.000000 -0.111234
  endloop
endfacet
facet normal -0.000193 -0.000000 -0.000335
  outer loop
    vertex -0.057026 0.031000 -0.111234
    vertex -0.057026 0.000000 -0.111234
    vertex -0.067818 0.031000 -0.105003
  endloop
endfacet
facet normal -0.000193 -0.000000 -0.000335
  outer loop
    vertex -0.067818 0.031000 -0.105003
    vertex -0.057026 0.000000 -0.111234
    vertex -0.067818 0.000000 -0.105003
  endloop
endfacet
facet normal -0.000226 -0.000000 -0.000314
  outer loop
    vertex -0.067818 0.031000 -0.105003
    vertex -0.067818 0.000000 -0.105003
    vertex -0.077936 0.031000 -0.097729
  endloop
endfacet
facet normal -0.000226 -0.000000 -0.000314
  outer loop
    vertex -0.077936 0.031000 -0.097729
    vertex -0.067818 0.000000 -0.105003
    vertex -0.077936 0.000000 -0.097729
  endloop
endfacet
facet normal -0.000256 -0.000000 -0.000290
  outer loop
    vertex -0.077936 0.031000 -0.097729
    vertex -0.077936 0.000000 -0.097729
    vertex -0.087280 0.031000 -0.089483
  endloop
endfacet
facet normal -0.000256 -0.000000 -0.000290
  outer loop
    vertex -0.087280 0.031000 -0.089483
    vertex -0.077936 0.000000 -0.097729
    vertex -0.087280 0.000000 -0.089483
  endloop
endfacet
facet normal -0.000283 -0.000000 -0.000263
  outer loop
    vertex -0.087280 0.031000 -0.089483
    vertex -0.087280 0.000000 -0.089483
    vertex -0.095756 0.031000 -0.080348
  endloop
endfacet
facet normal -0.000283 -0.000000 -0.000263
  outer loop
    vertex -0.095756 0.031000 -0.080348
    vertex -0.087280 0.000000 -0.089483
    vertex -0.095756 0.000000 -0.080348
  endloop
endfacet
facet normal -0.000308 -0.000000 -0.000233
  outer loop
    vertex -0.095756 0.031000 -0.080348
    vertex -0.095756 0.000000 -0.080348
    vertex -0.103280 0.031000 -0.070415
  endloop
endfacet
facet normal -0.000308 -0.000000 -0.000233
  outer loop
    vertex -0.103280 0.031000 -0.070415
    vertex -0.095756 0.000000 -0.080348
    vertex -0.103280 0.000000 -0.070415
  endloop
endfacet
facet normal -0.000330 -0.000000 -0.000201
  outer loop
    vertex -0.103280 0.031000 -0.070415
    vertex -0.103280 0.000000 -0.070415
    vertex -0.109778 0.031000 -0.059782
  endloop
endfacet
facet normal -0.000330 -0.000000 -0.000201
  outer loop
    vertex -0.109778 0.031000 -0.059782
    vertex -0.103280 0.000000 -0.070415
    vertex -0.109778 0.000000 -0.059782
  endloop
endfacet
facet normal -0.000348 -0.000000 -0.000168
  outer loop
    vertex -0.109778 0.031000 -0.059782
    vertex -0.109778 0.000000 -0.059782
    vertex -0.115185 0.031000 -0.048554
  endloop
endfacet
facet normal -0.000348 -0.000000 -0.000168
  outer loop
    vertex -0.115185 0.031000 -0.048554
    vertex -0.109778 0.000000 -0.059782
    vertex -0.115185 0.000000 -0.048554
  endloop
endfacet
facet normal -0.000363 -0.000000 -0.000132
  outer loop
    vertex -0.115185 0.031000 -0.048554
    vertex -0.115185 0.000000 -0.048554
    vertex -0.119447 0.031000 -0.036844
  endloop
endfacet
facet normal -0.000363 -0.000000 -0.000132
  outer loop
    vertex -0.119447 0.031000 -0.036844
    vertex -0.115185 0.000000 -0.048554
    vertex -0.119447 0.000000 -0.036844
  endloop
endfacet
facet normal -0.000374 -0.000000 -0.000095
  outer loop
    vertex -0.119447 0.031000 -0.036844
    vertex -0.119447 0.000000 -0.036844
    vertex -0.122522 0.031000 -0.024768
  endloop
endfacet
facet normal -0.000374 -0.000000 -0.000095
  outer loop
    vertex -0.122522 0.031000 -0.024768
    vertex -0.119447 0.000000 -0.036844
    vertex -0.122522 0.000000 -0.024768
  endloop
endfacet
facet normal -0.000382 -0.000000 -0.000058
  outer loop
    vertex -0.122522 0.031000 -0.024768
    vertex -0.122522 0.000000 -0.024768
    vertex -0.124379 0.031000 -0.012446
  endloop
endfacet
facet normal -0.000382 -0.000000 -0.000058
  outer loop
    vertex -0.124379 0.031000 -0.012446
    vertex -0.122522 0.000000 -0.024768
    vertex -0.124379 0.000000 -0.012446
  endloop
endfacet
facet normal 0.000000 0.000587 0.000000
  outer loop
    vertex -0.048891 0.031000 -0.007744
    vertex -0.124379 0.031000 -0.012446
    vertex -0.049500 0.031000 0.000000
  endloop
endfacet
facet normal 0.000000 0.000940 0.000000
  outer loop
    vertex -0.049500 0.031000 0.000000
    vertex -0.124379 0.031000 -0.012446
    vertex -0.125000 0.031000 0.000000
  endloop
endfacet
facet normal 0.000000 0.000940 0.000000
  outer loop
    vertex -0.049500 0.031000 0.000000
    vertex -0.125000 0.031000 0.000000
    vertex -0.124379 0.031000 0.012446
  endloop
endfacet
facet normal -0.000000 0.000939 0.000000
  outer loop
    vertex -0.124379 0.031000 -0.012446
    vertex -0.048891 0.031000 -0.007744
    vertex -0.122522 0.031000 -0.024768
  endloop
endfacet
facet normal 0.000000 0.000587 0.000000
  outer loop
    vertex -0.122522 0.031000 -0.024768
    vertex -0.048891 0.031000 -0.007744
    vertex -0.047077 0.031000 -0.015296
  endloop
endfacet
facet normal -0.000000 0.000940 0.000000
  outer loop
    vertex -0.122522 0.031000 -0.024768
    vertex -0.047077 0.031000 -0.015296
    vertex -0.119447 0.031000 -0.036844
  endloop
endfacet
facet normal -0.000000 0.000939 0.000000
  outer loop
    vertex -0.119447 0.031000 -0.036844
    vertex -0.047077 0.031000 -0.015296
    vertex -0.115185 0.031000 -0.048554
  endloop
endfacet
facet normal 0.000000 0.000588 0.000000
  outer loop
    vertex -0.115185 0.031000 -0.048554
    vertex -0.047077 0.031000 -0.015296
    vertex -0.044105 0.031000 -0.022473
  endloop
endfacet
facet normal -0.000000 0.000939 0.000000
  outer loop
    vertex -0.115185 0.031000 -0.048554
    vertex -0.044105 0.031000 -0.022473
    vertex -0.109778 0.031000 -0.059782
  endloop
endfacet
facet normal -0.000000 0.000941 0.000000
  outer loop
    vertex -0.109778 0.031000 -0.059782
    vertex -0.044105 0.031000 -0.022473
    vertex -0.103280 0.031000 -0.070415
  endloop
endfacet
facet normal 0.000000 0.000586 0.000000
  outer loop
    vertex -0.103280 0.031000 -0.070415
    vertex -0.044105 0.031000 -0.022473
    vertex -0.040046 0.031000 -0.029095
  endloop
endfacet
facet normal -0.000000 0.000939 0.000000
  outer loop
    vertex -0.103280 0.031000 -0.070415
    vertex -0.040046 0.031000 -0.029095
    vertex -0.095756 0.031000 -0.080348
  endloop
endfacet
facet normal 0.000000 0.000588 0.000000
  outer loop
    vertex -0.095756 0.031000 -0.080348
    vertex -0.040046 0.031000 -0.029095
    vertex -0.035002 0.031000 -0.035002
  endloop
endfacet
facet normal -0.000000 0.000939 0.000000
  outer loop
    vertex -0.095756 0.031000 -0.080348
    vertex -0.035002 0.031000 -0.035002
    vertex -0.087280 0.031000 -0.089483
  endloop
endfacet
facet normal -0.000000 0.000940 0.000000
  outer loop
    vertex -0.087280 0.031000 -0.089483
    vertex -0.035002 0.031000 -0.035002
    vertex -0.077936 0.031000 -0.097729
  endloop
endfacet
facet normal 0.000000 0.000587 0.000000
  outer loop
    vertex -0.077936 0.031000 -0.097729
    vertex -0.035002 0.031000 -0.035002
    vertex -0.029095 0.031000 -0.040046
  endloop
endfacet
facet normal -0.000000 0.000939 0.000000
  outer loop
    vertex -0.077936 0.031000 -0.097729
    vertex -0.029095 0.031000 -0.040046
    vertex -0.067818 0.031000 -0.105003
  endloop
endfacet
facet normal 0.000000 0.000587 0.000000
  outer loop
    vertex -0.067818 0.031000 -0.105003
    vertex -0.029095 0.031000 -0.040046
    vertex -0.022473 0.031000 -0.044105
  endloop
endfacet
facet normal -0.000000 0.000940 0.000000
  outer loop
    vertex -0.067818 0.031000 -0.105003
    vertex -0.022473 0.031000 -0.044105
    vertex -0.057026 0.031000 -0.111234
  endloop
endfacet
facet normal -0.000000 0.000940 0.000000
  outer loop
    vertex -0.057026 0.031000 -0.111234
    vertex -0.022473 0.031000 -0.044105
    vertex -0.045668 0.031000 -0.116359
  endloop
endfacet
facet normal 0.000000 0.000587 0.000000
  outer loop
    vertex -0.045668 0.031000 -0.116359
    vertex -0.022473 0.031000 -0.044105
    vertex -0.015296 0.031000 -0.047077
  endloop
endfacet
facet normal -0.000000 0.000939 0.000000
  outer loop
    vertex -0.045668 0.031000 -0.116359
    vertex -0.015296 0.031000 -0.047077
    vertex -0.033855 0.031000 -0.120328
  endloop
endfacet
facet normal 0.000000 0.000587 0.000000
  outer loop
    vertex -0.033855 0.031000 -0.120328
    vertex -0.015296 0.031000 -0.047077
    vertex -0.007744 0.031000 -0.048891
  endloop
endfacet
facet normal -0.000000 0.000940 0.000000
  outer loop
    vertex -0.033855 0.031000 -0.120328
    vertex -0.007744 0.031000 -0.048891
    vertex -0.021706 0.031000 -0.123101
  endloop
endfacet
facet normal -0.000000 0.000939 0.000000
  outer loop
    vertex -0.021706 0.031000 -0.123101
    vertex -0.007744 0.031000 -0.048891
    vertex -0.009341 0.031000 -0.124650
  endloop
endfacet
facet normal 0.000000 0.000588 0.000000
  outer loop
    vertex -0.009341 0.031000 -0.124650
    vertex -0.007744 0.031000 -0.048891
    vertex 0.000000 0.031000 -0.049500
  endloop
endfacet
facet normal -0.000000 0.000939 0.000000
  outer loop
    vertex -0.009341 0.031000 -0.124650
    vertex 0.000000 0.031000 -0.049500
    vertex 0.003116 0.031000 -0.124961
  endloop
endfacet
facet normal 0.000000 0.000941 -0.000000
  outer loop
    vertex 0.003116 0.031000 -0.124961
    vertex 0.000000 0.031000 -0.049500
    vertex 0.015543 0.031000 -0.124030
  endloop
endfacet
facet normal 0.000000 0.000587 0.000000
  outer loop
    vertex 0.015543 0.031000 -0.124030
    vertex 0.000000 0.031000 -0.049500
    vertex 0.007744 0.031000 -0.048891
  endloop
endfacet
facet normal 0.000000 0.000939 -0.000000
  outer loop
    vertex 0.015543 0.031000 -0.124030
    vertex 0.007744 0.031000 -0.048891
    vertex 0.027815 0.031000 -0.121866
  endloop
endfacet
facet normal 0.000000 0.000588 0.000000
  outer loop
    vertex 0.027815 0.031000 -0.121866
    vertex 0.007744 0.031000 -0.048891
    vertex 0.015296 0.031000 -0.047077
  endloop
endfacet
facet normal 0.000000 0.000939 -0.000000
  outer loop
    vertex 0.027815 0.031000 -0.121866
    vertex 0.015296 0.031000 -0.047077
    vertex 0.039811 0.031000 -0.118491
  endloop
endfacet
facet normal 0.000000 0.000940 -0.000000
  outer loop
    vertex 0.039811 0.031000 -0.118491
    vertex 0.015296 0.031000 -0.047077
    vertex 0.051411 0.031000 -0.113938
  endloop
endfacet
facet normal 0.000000 0.000587 0.000000
  outer loop
    vertex 0.051411 0.031000 -0.113938
    vertex 0.015296 0.031000 -0.047077
    vertex 0.022473 0.031000 -0.044105
  endloop
endfacet
facet normal 0.000000 0.000939 -0.000000
  outer loop
    vertex 0.051411 0.031000 -0.113938
    vertex 0.022473 0.031000 -0.044105
    vertex 0.062500 0.031000 -0.108253
  endloop
endfacet
facet normal 0.000000 0.000587 0.000000
  outer loop
    vertex 0.062500 0.031000 -0.108253
    vertex 0.022473 0.031000 -0.044105
    vertex 0.029095 0.031000 -0.040046
  endloop
endfacet
facet normal 0.000000 0.000940 -0.000000
  outer loop
    vertex 0.062500 0.031000 -0.108253
    vertex 0.029095 0.031000 -0.040046
    vertex 0.072968 0.031000 -0.101492
  endloop
endfacet
facet normal 0.000000 0.000940 -0.000000
  outer loop
    vertex 0.072968 0.031000 -0.101492
    vertex 0.029095 0.031000 -0.040046
    vertex 0.082711 0.031000 -0.093723
  endloop
endfacet
facet normal 0.000000 0.000588 0.000000
  outer loop
    vertex 0.082711 0.031000 -0.093723
    vertex 0.029095 0.031000 -0.040046
    vertex 0.035002 0.031000 -0.035002
  endloop
endfacet
facet normal 0.000000 0.000939 -0.000000
  outer loop
    vertex 0.082711 0.031000 -0.093723
    vertex 0.035002 0.031000 -0.035002
    vertex 0.091631 0.031000 -0.085022
  endloop
endfacet
facet normal 0.000000 0.000587 0.000000
  outer loop
    vertex 0.091631 0.031000 -0.085022
    vertex 0.035002 0.031000 -0.035002
    vertex 0.040046 0.031000 -0.029095
  endloop
endfacet
facet normal 0.000000 0.000940 -0.000000
  outer loop
    vertex 0.091631 0.031000 -0.085022
    vertex 0.040046 0.031000 -0.029095
    vertex 0.099642 0.031000 -0.075476
  endloop
endfacet
facet normal 0.000000 0.000939 -0.000000
  outer loop
    vertex 0.099642 0.031000 -0.075476
    vertex 0.040046 0.031000 -0.029095
    vertex 0.106661 0.031000 -0.065179
  endloop
endfacet
facet normal 0.000000 0.000588 0.000000
  outer loop
    vertex 0.106661 0.031000 -0.065179
    vertex 0.040046 0.031000 -0.029095
    vertex 0.044105 0.031000 -0.022473
  endloop
endfacet
facet normal 0.000000 0.000939 -0.000000
  outer loop
    vertex 0.106661 0.031000 -0.065179
    vertex 0.044105 0.031000 -0.022473
    vertex 0.112621 0.031000 -0.054235
  endloop
endfacet
facet normal 0.000000 0.000941 -0.000000
  outer loop
    vertex 0.112621 0.031000 -0.054235
    vertex 0.044105 0.031000 -0.022473
    vertex 0.117462 0.031000 -0.042753
  endloop
endfacet
facet normal 0.000000 0.000587 0.000000
  outer loop
    vertex 0.117462 0.031000 -0.042753
    vertex 0.044105 0.031000 -0.022473
    vertex 0.047077 0.031000 -0.015296
  endloop
endfacet
facet normal 0.000000 0.000939 -0.000000
  outer loop
    vertex 0.117462 0.031000 -0.042753
    vertex 0.047077 0.031000 -0.015296
    vertex 0.121135 0.031000 -0.030845
  endloop
endfacet
facet normal 0.000000 0.000588 0.000000
  outer loop
    vertex 0.121135 0.031000 -0.030845
    vertex 0.047077 0.031000 -0.015296
    vertex 0.048891 0.031000 -0.007744
  endloop
endfacet
facet normal 0.000000 0.000939 -0.000000
  outer loop
    vertex 0.121135 0.031000 -0.030845
    vertex 0.048891 0.031000 -0.007744
    vertex 0.123604 0.031000 -0.018630
  endloop
endfacet
facet normal 0.000000 0.000940 -0.000000
  outer loop
    vertex 0.123604 0.031000 -0.018630
    vertex 0.048891 0.031000 -0.007744
    vertex 0.124845 0.031000 -0.006231
  endloop
endfacet
facet normal 0.000000 0.000587 0.000000
  outer loop
    vertex 0.124845 0.031000 -0.006231
    vertex 0.048891 0.031000 -0.007744
    vertex 0.049500 0.031000 0.000000
  endloop
endfacet
facet normal 0.000000 0.000939 -0.000000
  outer loop
    vertex 0.124845 0.031000 -0.006231
    vertex 0.049500 0.031000 0.000000
    vertex 0.124845 0.031000 0.006231
  endloop
endfacet
facet normal 0.000000 0.000587 0.000000
  outer loop
    vertex 0.124845 0.031000 0.006231
    vertex 0.049500 0.031000 0.000000
    vertex 0.048891 0.031000 0.007744
  endloop
endfacet
facet normal 0.000000 0.000940 0.000000
  outer loop
    vertex 0.124845 0.031000 0.006231
    vertex 0.048891 0.031000 0.007744
    vertex 0.123604 0.031000 0.018630
  endloop
endfacet
facet normal 0.000000 0.000939 0.000000
  outer loop
    vertex 0.123604 0.031000 0.018630
    vertex 0.048891 0.031000 0.007744
    vertex 0.121135 0.031000 0.030845
  endloop
endfacet
facet normal 0.000000 0.000588 0.000000
  outer loop
    vertex 0.121135 0.031000 0.030845
    vertex 0.048891 0.031000 0.007744
    vertex 0.047077 0.031000 0.015296
  endloop
endfacet
facet normal 0.000000 0.000939 0.000000
  outer loop
    vertex 0.121135 0.031000 0.030845
    vertex 0.047077 0.031000 0.015296
    vertex 0.117462 0.031000 0.042753
  endloop
endfacet
facet normal 0.000000 0.000587 0.000000
  outer loop
    vertex 0.117462 0.031000 0.042753
    vertex 0.047077 0.031000 0.015296
    vertex 0.044105 0.031000 0.022473
  endloop
endfacet
facet normal 0.000000 0.000941 0.000000
  outer loop
    vertex 0.117462 0.031000 0.042753
    vertex 0.044105 0.031000 0.022473
    vertex 0.112621 0.031000 0.054235
  endloop
endfacet
facet normal 0.000000 0.000939 0.000000
  outer loop
    vertex 0.112621 0.031000 0.054235
    vertex 0.044105 0.031000 0.022473
    vertex 0.106661 0.031000 0.065179
  endloop
endfacet
facet normal 0.000000 0.000588 0.000000
  outer loop
    vertex 0.106661 0.031000 0.065179
    vertex 0.044105 0.031000 0.022473
    vertex 0.040046 0.031000 0.029095
  endloop
endfacet
facet normal 0.000000 0.000939 0.000000
  outer loop
    vertex 0.106661 0.031000 0.065179
    vertex 0.040046 0.031000 0.029095
    vertex 0.099642 0.031000 0.075476
  endloop
endfacet
facet normal 0.000000 0.000940 0.000000
  outer loop
    vertex 0.099642 0.031000 0.075476
    vertex 0.040046 0.031000 0.029095
    vertex 0.091631 0.031000 0.085022
  endloop
endfacet
facet normal 0.000000 0.000587 0.000000
  outer loop
    vertex 0.091631 0.031000 0.085022
    vertex 0.040046 0.031000 0.029095
    vertex 0.035002 0.031000 0.035002
  endloop
endfacet
facet normal 0.000000 0.000939 0.000000
  outer loop
    vertex 0.091631 0.031000 0.085022
    vertex 0.035002 0.031000 0.035002
    vertex 0.082711 0.031000 0.093723
  endloop
endfacet
facet normal 0.000000 0.000588 0.000000
  outer loop
    vertex 0.082711 0.031000 0.093723
    vertex 0.035002 0.031000 0.035002
    vertex 0.029095 0.031000 0.040046
  endloop
endfacet
facet normal 0.000000 0.000940 0.000000
  outer loop
    vertex 0.082711 0.031000 0.093723
    vertex 0.029095 0.031000 0.040046
    vertex 0.072968 0.031000 0.101492
  endloop
endfacet
facet normal 0.000000 0.000940 0.000000
  outer loop
    vertex 0.072968 0.031000 0.101492
    vertex 0.029095 0.031000 0.040046
    vertex 0.062500 0.031000 0.108253
  endloop
endfacet
facet normal 0.000000 0.000587 0.000000
  outer loop
    vertex 0.062500 0.031000 0.108253
    vertex 0.029095 0.031000 0.040046
    vertex 0.022473 0.031000 0.044105
  endloop
endfacet
facet normal 0.000000 0.000939 0.000000
  outer loop
    vertex 0.062500 0.031000 0.108253
    vertex 0.022473 0.031000 0.044105
    vertex 0.051411 0.031000 0.113938
  endloop
endfacet
facet normal 0.000000 0.000587 0.000000
  outer loop
    vertex 0.051411 0.031000 0.113938
    vertex 0.022473 0.031000 0.044105
    vertex 0.015296 0.031000 0.047077
  endloop
endfacet
facet normal 0.000000 0.000940 0.000000
  outer loop
    vertex 0.051411 0.031000 0.113938
    vertex 0.015296 0.031000 0.047077
    vertex 0.039811 0.031000 0.118491
  endloop
endfacet
facet normal 0.000000 0.000939 0.000000
  outer loop
    vertex 0.039811 0.031000 0.118491
    vertex 0.015296 0.031000 0.047077
    vertex 0.027815 0.031000 0.121866
  endloop
endfacet
facet normal 0.000000 0.000588 0.000000
  outer loop
    vertex 0.027815 0.031000 0.121866
    vertex 0.015296 0.031000 0.047077
    vertex 0.007744 0.031000 0.048891
  endloop
endfacet
facet normal 0.000000 0.000939 0.000000
  outer loop
    vertex 0.027815 0.031000 0.121866
    vertex 0.007744 0.031000 0.048891
    vertex 0.015543 0.031000 0.124030
  endloop
endfacet
facet normal 0.000000 0.000587 0.000000
  outer loop
    vertex 0.015543 0.031000 0.124030
    vertex 0.007744 0.031000 0.048891
    vertex 0.000000 0.031000 0.049500
  endloop
endfacet
facet normal 0.000000 0.000941 0.000000
  outer loop
    vertex 0.015543 0.031000 0.124030
    vertex 0.000000 0.031000 0.049500
    vertex 0.003116 0.031000 0.124961
  endloop
endfacet
facet normal 0.000000 0.000939 0.000000
  outer loop
    vertex 0.003116 0.031000 0.124961
    vertex 0.000000 0.031000 0.049500
    vertex -0.009341 0.031000 0.124650
  endloop
endfacet
facet normal 0.000000 0.000588 0.000000
  outer loop
    vertex -0.009341 0.031000 0.124650
    vertex 0.000000 0.031000 0.049500
    vertex -0.007744 0.031000 0.048891
  endloop
endfacet
facet normal 0.000000 0.000939 0.000000
  outer loop
    vertex -0.009341 0.031000 0.124650
    vertex -0.007744 0.031000 0.048891
    vertex -0.021706 0.031000 0.123101
  endloop
endfacet
facet normal 0.000000 0.000940 0.000000
  outer loop
    vertex -0.021706 0.031000 0.123101
    vertex -0.007744 0.031000 0.048891
    vertex -0.033855 0.031000 0.120328
  endloop
endfacet
facet normal 0.000000 0.000587 0.000000
  outer loop
    vertex -0.033855 0.031000 0.120328
    vertex -0.007744 0.031000 0.048891
    vertex -0.015296 0.031000 0.047077
  endloop
endfacet
facet normal 0.000000 0.000939 0.000000
  outer loop
    vertex -0.033855 0.031000 0.120328
    vertex -0.015296 0.031000 0.047077
    vertex -0.045668 0.031000 0.116359
  endloop
endfacet
facet normal 0.000000 0.000587 0.000000
  outer loop
    vertex -0.045668 0.031000 0.116359
    vertex -0.015296 0.031000 0.047077
    vertex -0.022473 0.031000 0.044105
  endloop
endfacet
facet normal 0.000000 0.000940 0.000000
  outer loop
    vertex -0.045668 0.031000 0.116359
    vertex -0.022473 0.031000 0.044105
    vertex -0.057026 0.031000 0.111234
  endloop
endfacet
facet normal 0.000000 0.000940 0.000000
  outer loop
    vertex -0.057026 0.031000 0.111234
    vertex -0.022473 0.031000 0.044105
    vertex -0.067818 0.031000 0.105003
  endloop
endfacet
facet normal 0.000000 0.000587 0.000000
  outer loop
    vertex -0.067818 0.031000 0.105003
    vertex -0.022473 0.031000 0.044105
    vertex -0.029095 0.031000 0.040046
  endloop
endfacet
facet normal 0.000000 0.000939 0.000000
  outer loop
    vertex -0.067818 0.031000 0.105003
    vertex -0.029095 0.031000 0.040046
    vertex -0.077936 0.031000 0.097729
  endloop
endfacet
facet normal 0.000000 0.000587 0.000000
  outer loop
    vertex -0.077936 0.031000 0.097729
    vertex -0.029095 0.031000 0.040046
    vertex -0.035002 0.031000 0.035002
  endloop
endfacet
facet normal 0.000000 0.000940 0.000000
  outer loop
    vertex -0.077936 0.031000 0.097729
    vertex -0.035002 0.031000 0.035002
    vertex -0.087280 0.031000 0.089483
  endloop
endfacet
facet normal 0.000000 0.000939 0.000000
  outer loop
    vertex -0.087280 0.031000 0.089483
    vertex -0.035002 0.031000 0.035002
    vertex -0.095756 0.031000 0.080348
  endloop
endfacet
facet normal 0.000000 0.000588 0.000000
  outer loop
    vertex -0.095756 0.031000 0.080348
    vertex -0.035002 0.031000 0.035002
    vertex -0.040046 0.031000 0.029095
  endloop
endfacet
facet normal 0.000000 0.000939 0.000000
  outer loop
    vertex -0.095756 0.031000 0.080348
    vertex -0.040046 0.031000 0.029095
    vertex -0.103280 0.031000 0.070415
  endloop
endfacet
facet normal 0.000000 0.000586 0.000000
  outer loop
    vertex -0.103280 0.031000 0.070415
    vertex -0.040046 0.031000 0.029095
    vertex -0.044105 0.031000 0.022473
  endloop
endfacet
facet normal 0.000000 0.000941 0.000000
  outer loop
    vertex -0.103280 0.031000 0.070415
    vertex -0.044105 0.031000 0.022473
    vertex -0.109778 0.031000 0.059782
  endloop
endfacet
facet normal 0.000000 0.000939 0.000000
  outer loop
    vertex -0.109778 0.031000 0.059782
    vertex -0.044105 0.031000 0.022473
    vertex -0.115185 0.031000 0.048554
  endloop
endfacet
facet normal 0.000000 0.000588 0.000000
  outer loop
    vertex -0.115185 0.031000 0.048554
    vertex -0.044105 0.031000 0.022473
    vertex -0.047077 0.031000 0.015296
  endloop
endfacet
facet normal 0.000000 0.000939 0.000000
  outer loop
    vertex -0.115185 0.031000 0.048554
    vertex -0.047077 0.031000 0.015296
    vertex -0.119447 0.031000 0.036844
  endloop
endfacet
facet normal 0.000000 0.000940 0.000000
  outer loop
    vertex -0.119447 0.031000 0.036844
    vertex -0.047077 0.031000 0.015296
    vertex -0.122522 0.031000 0.024768
  endloop
endfacet
facet normal 0.000000 0.000587 0.000000
  outer loop
    vertex -0.122522 0.031000 0.024768
    vertex -0.047077 0.031000 0.015296
    vertex -0.048891 0.031000 0.007744
  endloop
endfacet
facet normal 0.000000 0.000939 0.000000
  outer loop
    vertex -0.122522 0.031000 0.024768
    vertex -0.048891 0.031000 0.007744
    vertex -0.124379 0.031000 0.012446
  endloop
endfacet
facet normal 0.000000 0.000587 0.000000
  outer loop
    vertex -0.124379 0.031000 0.012446
    vertex -0.048891 0.031000 0.007744
    vertex -0.049500 0.031000 0.000000
  endloop
endfacet
facet normal -0.000000 -0.000587 0.000000
  outer loop
    vertex -0.048891 0.000000 0.007744
    vertex -0.124379 0.000000 0.012446
    vertex -0.049500 0.000000 0.000000
  endloop
endfacet
facet normal 0.000000 -0.000940 0.000000
  outer loop
    vertex -0.049500 0.000000 0.000000
    vertex -0.124379 0.000000 0.012446
    vertex -0.125000 0.000000 0.000000
  endloop
endfacet
facet normal -0.000000 -0.000940 0.000000
  outer loop
    vertex -0.049500 0.000000 0.000000
    vertex -0.125000 0.000000 0.000000
    vertex -0.124379 0.000000 -0.012446
  endloop
endfacet
facet normal 0.000000 -0.000939 0.000000
  outer loop
    vertex -0.124379 0.000000 0.012446
    vertex -0.048891 0.000000 0.007744
    vertex -0.122522 0.000000 0.024768
  endloop
endfacet
facet normal 0.000000 -0.000587 0.000000
  outer loop
    vertex -0.122522 0.000000 0.024768
    vertex -0.048891 0.000000 0.007744
    vertex -0.047077 0.000000 0.015296
  endloop
endfacet
facet normal 0.000000 -0.000940 0.000000
  outer loop
    vertex -0.122522 0.000000 0.024768
    vertex -0.047077 0.000000 0.015296
    vertex -0.119447 0.000000 0.036844
  endloop
endfacet
facet normal 0.000000 -0.000939 0.000000
  outer loop
    vertex -0.119447 0.000000 0.036844
    vertex -0.047077 0.000000 0.015296
    vertex -0.115185 0.000000 0.048554
  endloop
endfacet
facet normal 0.000000 -0.000588 0.000000
  outer loop
    vertex -0.115185 0.000000 0.048554
    vertex -0.047077 0.000000 0.015296
    vertex -0.044105 0.000000 0.022473
  endloop
endfacet
facet normal 0.000000 -0.000939 0.000000
  outer loop
    vertex -0.115185 0.000000 0.048554
    vertex -0.044105 0.000000 0.022473
    vertex -0.109778 0.000000 0.059782
  endloop
endfacet
facet normal 0.000000 -0.000941 0.000000
  outer loop
    vertex -0.109778 0.000000 0.059782
    vertex -0.044105 0.000000 0.022473
    vertex -0.103280 0.000000 0.070415
  endloop
endfacet
facet normal 0.000000 -0.000586 0.000000
  outer loop
    vertex -0.103280 0.000000 0.070415
    vertex -0.044105 0.000000 0.022473
    vertex -0.040046 0.000000 0.029095
  endloop
endfacet
facet normal 0.000000 -0.000939 0.000000
  outer loop
    vertex -0.103280 0.000000 0.070415
    vertex -0.040046 0.000000 0.029095
    vertex -0.095756 0.000000 0.080348
  endloop
endfacet
facet normal 0.000000 -0.000588 0.000000
  outer loop
    vertex -0.095756 0.000000 0.080348
    vertex -0.040046 0.000000 0.029095
    vertex -0.035002 0.000000 0.035002
  endloop
endfacet
facet normal 0.000000 -0.000939 0.000000
  outer loop
    vertex -0.095756 0.000000 0.080348
    vertex -0.035002 0.000000 0.035002
    vertex -0.087280 0.000000 0.089483
  endloop
endfacet
facet normal 0.000000 -0.000940 0.000000
  outer loop
    vertex -0.087280 0.000000 0.089483
    vertex -0.035002 0.000000 0.035002
    vertex -0.077936 0.000000 0.097729
  endloop
endfacet
facet normal 0.000000 -0.000587 0.000000
  outer loop
    vertex -0.077936 0.000000 0.097729
    vertex -0.035002 0.000000 0.035002
    vertex -0.029095 0.000000 0.040046
  endloop
endfacet
facet normal 0.000000 -0.000939 0.000000
  outer loop
    vertex -0.077936 0.000000 0.097729
    vertex -0.029095 0.000000 0.040046
    vertex -0.067818 0.000000 0.105003
  endloop
endfacet
facet normal 0.000000 -0.000587 0.000000
  outer loop
    vertex -0.067818 0.000000 0.105003
    vertex -0.029095 0.000000 0.040046
    vertex -0.022473 0.000000 0.044105
  endloop
endfacet
facet normal 0.000000 -0.000940 0.000000
  outer loop
    vertex -0.067818 0.000000 0.105003
    vertex -0.022473 0.000000 0.044105
    vertex -0.057026 0.000000 0.111234
  endloop
endfacet
facet normal 0.000000 -0.000940 0.000000
  outer loop
    vertex -0.057026 0.000000 0.111234
    vertex -0.022473 0.000000 0.044105
    vertex -0.045668 0.000000 0.116359
  endloop
endfacet
facet normal 0.000000 -0.000587 0.000000
  outer loop
    vertex -0.045668 0.000000 0.116359
    vertex -0.022473 0.000000 0.044105
    vertex -0.015296 0.000000 0.047077
  endloop
endfacet
facet normal 0.000000 -0.000939 0.000000
  outer loop
    vertex -0.045668 0.000000 0.116359
    vertex -0.015296 0.000000 0.047077
    vertex -0.033855 0.000000 0.120328
  endloop
endfacet
facet normal 0.000000 -0.000587 0.000000
  outer loop
    vertex -0.033855 0.000000 0.120328
    vertex -0.015296 0.000000 0.047077
    vertex -0.007744 0.000000 0.048891
  endloop
endfacet
facet normal 0.000000 -0.000940 0.000000
  outer loop
    vertex -0.033855 0.000000 0.120328
    vertex -0.007744 0.000000 0.048891
    vertex -0.021706 0.000000 0.123101
  endloop
endfacet
facet normal 0.000000 -0.000939 0.000000
  outer loop
    vertex -0.021706 0.000000 0.123101
    vertex -0.007744 0.000000 0.048891
    vertex -0.009341 0.000000 0.124650
  endloop
endfacet
facet normal 0.000000 -0.000588 0.000000
  outer loop
    vertex -0.009341 0.000000 0.124650
    vertex -0.007744 0.000000 0.048891
    vertex 0.000000 0.000000 0.049500
  endloop
endfacet
facet normal 0.000000 -0.000939 0.000000
  outer loop
    vertex -0.009341 0.000000 0.124650
    vertex 0.000000 0.000000 0.049500
    vertex 0.003116 0.000000 0.124961
  endloop
endfacet
facet normal 0.000000 -0.000941 -0.000000
  outer loop
    vertex 0.003116 0.000000 0.124961
    vertex 0.000000 0.000000 0.049500
    vertex 0.015543 0.000000 0.124030
  endloop
endfacet
facet normal 0.000000 -0.000587 0.000000
  outer loop
    vertex 0.015543 0.000000 0.124030
    vertex 0.000000 0.000000 0.049500
    vertex 0.007744 0.000000 0.048891
  endloop
endfacet
facet normal 0.000000 -0.000939 -0.000000
  outer loop
    vertex 0.015543 0.000000 0.124030
    vertex 0.007744 0.000000 0.048891
    vertex 0.027815 0.000000 0.121866
  endloop
endfacet
facet normal 0.000000 -0.000588 0.000000
  outer loop
    vertex 0.027815 0.000000 0.121866
    vertex 0.007744 0.000000 0.048891
    vertex 0.015296 0.000000 0.047077
  endloop
endfacet
facet normal 0.000000 -0.000939 -0.000000
  outer loop
    vertex 0.027815 0.000000 0.121866
    vertex 0.015296 0.000000 0.047077
    vertex 0.039811 0.000000 0.118491
  endloop
endfacet
facet normal 0.000000 -0.000940 -0.000000
  outer loop
    vertex 0.039811 0.000000 0.118491
    vertex 0.015296 0.000000 0.047077
    vertex 0.051411 0.000000 0.113938
  endloop
endfacet
facet normal 0.000000 -0.000587 0.000000
  outer loop
    vertex 0.051411 0.000000 0.113938
    vertex 0.015296 0.000000 0.047077
    vertex 0.022473 0.000000 0.044105
  endloop
endfacet
facet normal 0.000000 -0.000939 -0.000000
  outer loop
    vertex 0.051411 0.000000 0.113938
    vertex 0.022473 0.000000 0.044105
    vertex 0.062500 0.000000 0.108253
  endloop
endfacet
facet normal 0.000000 -0.000587 0.000000
  outer loop
    vertex 0.062500 0.000000 0.108253
    vertex 0.022473 0.000000 0.044105
    vertex 0.029095 0.000000 0.040046
  endloop
endfacet
facet normal 0.000000 -0.000940 -0.000000
  outer loop
    vertex 0.062500 0.000000 0.108253
    vertex 0.029095 0.000000 0.040046
    vertex 0.072968 0.000000 0.101492
  endloop
endfacet
facet normal 0.000000 -0.000940 -0.000000
  outer loop
    vertex 0.072968 0.000000 0.101492
    vertex 0.029095 0.000000 0.040046
    vertex 0.082711 0.000000 0.093723
  endloop
endfacet
facet normal 0.000000 -0.000588 0.000000
  outer loop
    vertex 0.082711 0.000000 0.093723
    vertex 0.029095 0.000000 0.040046
    vertex 0.035002 0.000000 0.035002
  endloop
endfacet
facet normal 0.000000 -0.000939 -0.000000
  outer loop
    vertex 0.082711 0.000000 0.093723
    vertex 0.035002 0.000000 0.035002
    vertex 0.091631 0.000000 0.085022
  endloop
endfacet
facet normal 0.000000 -0.000587 0.000000
  outer loop
    vertex 0.091631 0.000000 0.085022
    vertex 0.035002 0.000000 0.035002
    vertex 0.040046 0.000000 0.029095
  endloop
endfacet
facet normal 0.000000 -0.000940 -0.000000
  outer loop
    vertex 0.091631 0.000000 0.085022
    vertex 0.040046 0.000000 0.029095
    vertex 0.099642 0.000000 0.075476
  endloop
endfacet
facet normal 0.000000 -0.000939 -0.000000
  outer loop
    vertex 0.099642 0.000000 0.075476
    vertex 0.040046 0.000000 0.029095
    vertex 0.106661 0.000000 0.065179
  endloop
endfacet
facet normal 0.000000 -0.000588 0.000000
  outer loop
    vertex 0.106661 0.000000 0.065179
    vertex 0.040046 0.000000 0.029095
    vertex 0.044105 0.000000 0.022473
  endloop
endfacet
facet normal 0.000000 -0.000939 -0.000000
  outer loop
    vertex 0.106661 0.000000 0.065179
    vertex 0.044105 0.000000 0.022473
    vertex 0.112621 0.000000 0.054235
  endloop
endfacet
facet normal 0.000000 -0.000941 -0.000000
  outer loop
    vertex 0.112621 0.000000 0.054235
    vertex 0.044105 0.000000 0.022473
    vertex 0.117462 0.000000 0.042753
  endloop
endfacet
facet normal 0.000000 -0.000587 0.000000
  outer loop
    vertex 0.117462 0.000000 0.042753
    vertex 0.044105 0.000000 0.022473
    vertex 0.047077 0.000000 0.015296
  endloop
endfacet
facet normal 0.000000 -0.000939 -0.000000
  outer loop
    vertex 0.117462 0.000000 0.042753
    vertex 0.047077 0.000000 0.015296
    vertex 0.121135 0.000000 0.030845
  endloop
endfacet
facet normal 0.000000 -0.000588 0.000000
  outer loop
    vertex 0.121135 0.000000 0.030845
    vertex 0.047077 0.000000 0.015296
    vertex 0.048891 0.000000 0.007744
  endloop
endfacet
facet normal 0.000000 -0.000939 -0.000000
  outer loop
    vertex 0.121135 0.000000 0.030845
    vertex 0.048891 0.000000 0.007744
    vertex 0.123604 0.000000 0.018630
  endloop
endfacet
facet normal 0.000000 -0.000940 -0.000000
  outer loop
    vertex 0.123604 0.000000 0.018630
    vertex 0.048891 0.000000 0.007744
    vertex 0.124845 0.000000 0.006231
  endloop
endfacet
facet normal -0.000000 -0.000587 0.000000
  outer loop
    vertex 0.124845 0.000000 0.006231
    vertex 0.048891 0.000000 0.007744
    vertex 0.049500 0.000000 0.000000
  endloop
endfacet
facet normal 0.000000 -0.000939 -0.000000
  outer loop
    vertex 0.124845 0.000000 0.006231
    vertex 0.049500 0.000000 0.000000
    vertex 0.124845 0.000000 -0.006231
  endloop
endfacet
facet normal -0.000000 -0.000587 0.000000
  outer loop
    vertex 0.124845 0.000000 -0.006231
    vertex 0.049500 0.000000 0.000000
    vertex 0.048891 0.000000 -0.007744
  endloop
endfacet
facet normal 0.000000 -0.000940 0.000000
  outer loop
    vertex 0.124845 0.000000 -0.006231
    vertex 0.048891 0.000000 -0.007744
    vertex 0.123604 0.000000 -0.018630
  endloop
endfacet
facet normal -0.000000 -0.000939 0.000000
  outer loop
    vertex 0.123604 0.000000 -0.018630
    vertex 0.048891 0.000000 -0.007744
    vertex 0.121135 0.000000 -0.030845
  endloop
endfacet
facet normal 0.000000 -0.000588 0.000000
  outer loop
    vertex 0.121135 0.000000 -0.030845
    vertex 0.048891 0.000000 -0.007744
    vertex 0.047077 0.000000 -0.015296
  endloop
endfacet
facet normal -0.000000 -0.000939 0.000000
  outer loop
    vertex 0.121135 0.000000 -0.030845
    vertex 0.047077 0.000000 -0.015296
    vertex 0.117462 0.000000 -0.042753
  endloop
endfacet
facet normal 0.000000 -0.000587 0.000000
  outer loop
    vertex 0.117462 0.000000 -0.042753
    vertex 0.047077 0.000000 -0.015296
    vertex 0.044105 0.000000 -0.022473
  endloop
endfacet
facet normal -0.000000 -0.000941 0.000000
  outer loop
    vertex 0.117462 0.000000 -0.042753
    vertex 0.044105 0.000000 -0.022473
    vertex 0.112621 0.000000 -0.054235
  endloop
endfacet
facet normal -0.000000 -0.000939 0.000000
  outer loop
    vertex 0.112621 0.000000 -0.054235
    vertex 0.044105 0.000000 -0.022473
    vertex 0.106661 0.000000 -0.065179
  endloop
endfacet
facet normal 0.000000 -0.000588 0.000000
  outer loop
    vertex 0.106661 0.000000 -0.065179
    vertex 0.044105 0.000000 -0.022473
    vertex 0.040046 0.000000 -0.029095
  endloop
endfacet
facet normal -0.000000 -0.000939 0.000000
  outer loop
    vertex 0.106661 0.000000 -0.065179
    vertex 0.040046 0.000000 -0.029095
    vertex 0.099642 0.000000 -0.075476
  endloop
endfacet
facet normal -0.000000 -0.000940 0.000000
  outer loop
    vertex 0.099642 0.000000 -0.075476
    vertex 0.040046 0.000000 -0.029095
    vertex 0.091631 0.000000 -0.085022
  endloop
endfacet
facet normal 0.000000 -0.000587 0.000000
  outer loop
    vertex 0.091631 0.000000 -0.085022
    vertex 0.040046 0.000000 -0.029095
    vertex 0.035002 0.000000 -0.035002
  endloop
endfacet
facet normal -0.000000 -0.000939 0.000000
  outer loop
    vertex 0.091631 0.000000 -0.085022
    vertex 0.035002 0.000000 -0.035002
    vertex 0.082711 0.000000 -0.093723
  endloop
endfacet
facet normal 0.000000 -0.000588 0.000000
  outer loop
    vertex 0.082711 0.000000 -0.093723
    vertex 0.035002 0.000000 -0.035002
    vertex 0.029095 0.000000 -0.040046
  endloop
endfacet
facet normal -0.000000 -0.000940 0.000000
  outer loop
    vertex 0.082711 0.000000 -0.093723
    vertex 0.029095 0.000000 -0.040046
    vertex 0.072968 0.000000 -0.101492
  endloop
endfacet
facet normal -0.000000 -0.000940 0.000000
  outer loop
    vertex 0.072968 0.000000 -0.101492
    vertex 0.029095 0.000000 -0.040046
    vertex 0.062500 0.000000 -0.108253
  endloop
endfacet
facet normal 0.000000 -0.000587 0.000000
  outer loop
    vertex 0.062500 0.000000 -0.108253
    vertex 0.029095 0.000000 -0.040046
    vertex 0.022473 0.000000 -0.044105
  endloop
endfacet
facet normal -0.000000 -0.000939 0.000000
  outer loop
    vertex 0.062500 0.000000 -0.108253
    vertex 0.022473 0.000000 -0.044105
    vertex 0.051411 0.000000 -0.113938
  endloop
endfacet
facet normal 0.000000 -0.000587 0.000000
  outer loop
    vertex 0.051411 0.000000 -0.113938
    vertex 0.022473 0.000000 -0.044105
    vertex 0.015296 0.000000 -0.047077
  endloop
endfacet
facet normal -0.000000 -0.000940 0.000000
  outer loop
    vertex 0.051411 0.000000 -0.113938
    vertex 0.015296 0.000000 -0.047077
    vertex 0.039811 0.000000 -0.118491
  endloop
endfacet
facet normal -0.000000 -0.000939 0.000000
  outer loop
    vertex 0.039811 0.000000 -0.118491
    vertex 0.015296 0.000000 -0.047077
    vertex 0.027815 0.000000 -0.121866
  endloop
endfacet
facet normal 0.000000 -0.000588 0.000000
  outer loop
    vertex 0.027815 0.000000 -0.121866
    vertex 0.015296 0.000000 -0.047077
    vertex 0.007744 0.000000 -0.048891
  endloop
endfacet
facet normal -0.000000 -0.000939 0.000000
  outer loop
    vertex 0.027815 0.000000 -0.121866
    vertex 0.007744 0.000000 -0.048891
    vertex 0.015543 0.000000 -0.124030
  endloop
endfacet
facet normal 0.000000 -0.000587 0.000000
  outer loop
    vertex 0.015543 0.000000 -0.124030
    vertex 0.007744 0.000000 -0.048891
    vertex 0.000000 0.000000 -0.049500
  endloop
endfacet
facet normal -0.000000 -0.000941 0.000000
  outer loop
    vertex 0.015543 0.000000 -0.124030
    vertex 0.000000 0.000000 -0.049500
    vertex 0.003116 0.000000 -0.124961
  endloop
endfacet
facet normal 0.000000 -0.000939 0.000000
  outer loop
    vertex 0.003116 0.000000 -0.124961
    vertex 0.000000 0.000000 -0.049500
    vertex -0.009341 0.000000 -0.124650
  endloop
endfacet
facet normal 0.000000 -0.000588 0.000000
  outer loop
    vertex -0.009341 0.000000 -0.124650
    vertex 0.000000 0.000000 -0.049500
    vertex -0.007744 0.000000 -0.048891
  endloop
endfacet
facet normal 0.000000 -0.000939 0.000000
  outer loop
    vertex -0.009341 0.000000 -0.124650
    vertex -0.007744 0.000000 -0.048891
    vertex -0.021706 0.000000 -0.123101
  endloop
endfacet
facet normal 0.000000 -0.000940 0.000000
  outer loop
    vertex -0.021706 0.000000 -0.123101
    vertex -0.007744 0.000000 -0.048891
    vertex -0.033855 0.000000 -0.120328
  endloop
endfacet
facet normal 0.000000 -0.000587 0.000000
  outer loop
    vertex -0.033855 0.000000 -0.120328
    vertex -0.007744 0.000000 -0.048891
    vertex -0.015296 0.000000 -0.047077
  endloop
endfacet
facet normal 0.000000 -0.000939 0.000000
  outer loop
    vertex -0.033855 0.000000 -0.120328
    vertex -0.015296 0.000000 -0.047077
    vertex -0.045668 0.000000 -0.116359
  endloop
endfacet
facet normal 0.000000 -0.000587 0.000000
  outer loop
    vertex -0.045668 0.000000 -0.116359
    vertex -0.015296 0.000000 -0.047077
    vertex -0.022473 0.000000 -0.044105
  endloop
endfacet
facet normal 0.000000 -0.000940 0.000000
  outer loop
    vertex -0.045668 0.000000 -0.116359
    vertex -0.022473 0.000000 -0.044105
    vertex -0.057026 0.000000 -0.111234
  endloop
endfacet
facet normal 0.000000 -0.000940 0.000000
  outer loop
    vertex -0.057026 0.000000 -0.111234
    vertex -0.022473 0.000000 -0.044105
    vertex -0.067818 0.000000 -0.105003
  endloop
endfacet
facet normal 0.000000 -0.000587 0.000000
  outer loop
    vertex -0.067818 0.000000 -0.105003
    vertex -0.022473 0.000000 -0.044105
    vertex -0.029095 0.000000 -0.040046
  endloop
endfacet
facet normal 0.000000 -0.000939 0.000000
  outer loop
    vertex -0.067818 0.000000 -0.105003
    vertex -0.029095 0.000000 -0.040046
    vertex -0.077936 0.000000 -0.097729
  endloop
endfacet
facet normal 0.000000 -0.000587 0.000000
  outer loop
    vertex -0.077936 0.000000 -0.097729
    vertex -0.029095 0.000000 -0.040046
    vertex -0.035002 0.000000 -0.035002
  endloop
endfacet
facet normal 0.000000 -0.000940 0.000000
  outer loop
    vertex -0.077936 0.000000 -0.097729
    vertex -0.035002 0.000000 -0.035002
    vertex -0.087280 0.000000 -0.089483
  endloop
endfacet
facet normal 0.000000 -0.000939 0.000000
  outer loop
    vertex -0.087280 0.000000 -0.089483
    vertex -0.035002 0.000000 -0.035002
    vertex -0.095756 0.000000 -0.080348
  endloop
endfacet
facet normal 0.000000 -0.000588 0.000000
  outer loop
    vertex -0.095756 0.000000 -0.080348
    vertex -0.035002 0.000000 -0.035002
    vertex -0.040046 0.000000 -0.029095
  endloop
endfacet
facet normal 0.000000 -0.000939 0.000000
  outer loop
    vertex -0.095756 0.000000 -0.080348
    vertex -0.040046 0.000000 -0.029095
    vertex -0.103280 0.000000 -0.070415
  endloop
endfacet
facet normal 0.000000 -0.000586 0.000000
  outer loop
    vertex -0.103280 0.000000 -0.070415
    vertex -0.040046 0.000000 -0.029095
    vertex -0.044105 0.000000 -0.022473
  endloop
endfacet
facet normal 0.000000 -0.000941 0.000000
  outer loop
    vertex -0.103280 0.000000 -0.070415
    vertex -0.044105 0.000000 -0.022473
    vertex -0.109778 0.000000 -0.059782
  endloop
endfacet
facet normal 0.000000 -0.000939 0.000000
  outer loop
    vertex -0.109778 0.000000 -0.059782
    vertex -0.044105 0.000000 -0.022473
    vertex -0.115185 0.000000 -0.048554
  endloop
endfacet
facet normal 0.000000 -0.000588 0.000000
  outer loop
    vertex -0.115185 0.000000 -0.048554
    vertex -0.044105 0.000000 -0.022473
    vertex -0.047077 0.000000 -0.015296
  endloop
endfacet
facet normal 0.000000 -0.000939 0.000000
  outer loop
    vertex -0.115185 0.000000 -0.048554
    vertex -0.047077 0.000000 -0.015296
    vertex -0.119447 0.000000 -0.036844
  endloop
endfacet
facet normal 0.000000 -0.000940 0.000000
  outer loop
    vertex -0.119447 0.000000 -0.036844
    vertex -0.047077 0.000000 -0.015296
    vertex -0.122522 0.000000 -0.024768
  endloop
endfacet
facet normal 0.000000 -0.000587 0.000000
  outer loop
    vertex -0.122522 0.000000 -0.024768
    vertex -0.047077 0.000000 -0.015296
    vertex -0.048891 0.000000 -0.007744
  endloop
endfacet
facet normal 0.000000 -0.000939 0.000000
  outer loop
    vertex -0.122522 0.000000 -0.024768
    vertex -0.048891 0.000000 -0.007744
    vertex -0.124379 0.000000 -0.012446
  endloop
endfacet
facet normal 0.000000 -0.000587 0.000000
  outer loop
    vertex -0.124379 0.000000 -0.012446
    vertex -0.048891 0.000000 -0.007744
    vertex -0.049500 0.000000 0.000000
  endloop
endfacet
endsolid a70a0185-415f-41ae-9151-dc9903a12475-ascii.stl
