solid b868600f-abce-4643-9332-fdde1cd3d72b-ascii.stl
facet normal 0.000085 0.000000 -0.000009
  outer loop
    vertex -0.025880 0.015000 0.005697
    vertex -0.025880 0.000000 0.005697
    vertex -0.026500 0.015000 0.000000
  endloop
endfacet
facet normal 0.000085 0.000000 -0.000009
  outer loop
    vertex -0.026500 0.015000 0.000000
    vertex -0.025880 0.000000 0.005697
    vertex -0.026500 0.000000 0.000000
  endloop
endfacet
facet normal 0.000085 0.000000 0.000009
  outer loop
    vertex -0.026500 0.015000 0.000000
    vertex -0.026500 0.000000 0.000000
    vertex -0.025880 0.015000 -0.005697
  endloop
endfacet
facet normal 0.000085 0.000000 0.000009
  outer loop
    vertex -0.025880 0.015000 -0.005697
    vertex -0.026500 0.000000 0.000000
    vertex -0.025880 0.000000 -0.005697
  endloop
endfacet
facet normal 0.000081 0.000000 0.000027
  outer loop
    vertex -0.025880 0.015000 -0.005697
    vertex -0.025880 0.000000 -0.005697
    vertex -0.024051 0.015000 -0.011127
  endloop
endfacet
facet normal 0.000081 0.000000 0.000027
  outer loop
    vertex -0.024051 0.015000 -0.011127
    vertex -0.025880 0.000000 -0.005697
    vertex -0.024051 0.000000 -0.011127
  endloop
endfacet
facet normal 0.000074 0.000000 0.000044
  outer loop
    vertex -0.024051 0.015000 -0.011127
    vertex -0.024051 0.000000 -0.011127
    vertex -0.021096 0.015000 -0.016037
  endloop
endfacet
facet normal 0.000074 0.000000 0.000044
  outer loop
    vertex -0.021096 0.015000 -0.016037
    vertex -0.024051 0.000000 -0.011127
    vertex -0.021096 0.000000 -0.016037
  endloop
endfacet
facet normal 0.000062 0.000000 0.000059
  outer loop
    vertex -0.021096 0.015000 -0.016037
    vertex -0.021096 0.000000 -0.016037
    vertex -0.017156 0.015000 -0.020197
  endloop
endfacet
facet normal 0.000062 0.000000 0.000059
  outer loop
    vertex -0.017156 0.015000 -0.020197
    vertex -0.021096 0.000000 -0.016037
    vertex -0.017156 0.000000 -0.020197
  endloop
endfacet
facet normal 0.000048 0.000000 0.000071
  outer loop
    vertex -0.017156 0.015000 -0.020197
    vertex -0.017156 0.000000 -0.020197
    vertex -0.012413 0.015000 -0.023413
  endloop
endfacet
facet normal 0.000048 0.000000 0.000071
  outer loop
    vertex -0.012413 0.015000 -0.023413
    vertex -0.017156 0.000000 -0.020197
    vertex -0.012413 0.000000 -0.023413
  endloop
endfacet
facet normal 0.000032 0.000000 0.000080
  outer loop
    vertex -0.012413 0.015000 -0.023413
    vertex -0.012413 0.000000 -0.023413
    vertex -0.007090 0.015000 -0.025534
  endloop
endfacet
facet normal 0.000032 0.000000 0.000080
  outer loop
    vertex -0.007090 0.015000 -0.025534
    vertex -0.012413 0.000000 -0.023413
    vertex -0.007090 0.000000 -0.025534
  endloop
endfacet
facet normal 0.000014 0.000000 0.000085
  outer loop
    vertex -0.007090 0.015000 -0.025534
    vertex -0.007090 0.000000 -0.025534
    vertex -0.001435 0.015000 -0.026461
  endloop
endfacet
facet normal 0.000014 0.000000 0.000085
  outer loop
    vertex -0.001435 0.015000 -0.026461
    vertex -0.007090 0.000000 -0.025534
    vertex -0.001435 0.000000 -0.026461
  endloop
endfacet
facet normal -0.000005 0.000000 0.000086
  outer loop
    vertex -0.001435 0.015000 -0.026461
    vertex -0.001435 0.000000 -0.026461
    vertex 0.004287 0.015000 -0.026151
  endloop
endfacet
facet normal -0.000005 0.000000 0.000086
  outer loop
    vertex 0.004287 0.015000 -0.026151
    vertex -0.001435 0.000000 -0.026461
    vertex 0.004287 0.000000 -0.026151
  endloop
endfacet
facet normal -0.000023 0.000000 0.000083
  outer loop
    vertex 0.004287 0.015000 -0.026151
    vertex 0.004287 0.000000 -0.026151
    vertex 0.009809 0.015000 -0.024618
  endloop
endfacet
facet normal -0.000023 0.000000 0.000083
  outer loop
    vertex 0.009809 0.015000 -0.024618
    vertex 0.004287 0.000000 -0.026151
    vertex 0.009809 0.000000 -0.024618
  endloop
endfacet
facet normal -0.000040 0.000000 0.000076
  outer loop
    vertex 0.009809 0.015000 -0.024618
    vertex 0.009809 0.000000 -0.024618
    vertex 0.014871 0.015000 -0.021934
  endloop
endfacet
facet normal -0.000040 0.000000 0.000076
  outer loop
    vertex 0.014871 0.015000 -0.021934
    vertex 0.009809 0.000000 -0.024618
    vertex 0.014871 0.000000 -0.021934
  endloop
endfacet
facet normal -0.000056 0.000000 0.000066
  outer loop
    vertex 0.014871 0.015000 -0.021934
    vertex 0.014871 0.000000 -0.021934
    vertex 0.019239 0.015000 -0.018224
  endloop
endfacet
facet normal -0.000056 0.000000 0.000066
  outer loop
    vertex 0.019239 0.015000 -0.018224
    vertex 0.014871 0.000000 -0.021934
    vertex 0.019239 0.000000 -0.018224
  endloop
endfacet
facet normal -0.000068 0.000000 0.000052
  outer loop
    vertex 0.019239 0.015000 -0.018224
    vertex 0.019239 0.000000 -0.018224
    vertex 0.022707 0.015000 -0.013662
  endloop
endfacet
facet normal -0.000068 0.000000 0.000052
  outer loop
    vertex 0.022707 0.015000 -0.013662
    vertex 0.019239 0.000000 -0.018224
    vertex 0.022707 0.000000 -0.013662
  endloop
endfacet
facet normal -0.000078 0.000000 0.000036
  outer loop
    vertex 0.022707 0.015000 -0.013662
    vertex 0.022707 0.000000 -0.013662
    vertex 0.025113 0.015000 -0.008461
  endloop
endfacet
facet normal -0.000078 0.000000 0.000036
  outer loop
    vertex 0.025113 0.015000 -0.008461
    vertex 0.022707 0.000000 -0.013662
    vertex 0.025113 0.000000 -0.008461
  endloop
endfacet
facet normal -0.000084 0.000000 0.000018
  outer loop
    vertex 0.025113 0.015000 -0.008461
    vertex 0.025113 0.000000 -0.008461
    vertex 0.026345 0.015000 -0.002865
  endloop
endfacet
facet normal -0.000084 0.000000 0.000018
  outer loop
    vertex 0.026345 0.015000 -0.002865
    vertex 0.025113 0.000000 -0.008461
    vertex 0.026345 0.000000 -0.002865
  endloop
endfacet
facet normal -0.000086 0.000000 0.000000
  outer loop
    vertex 0.026345 0.015000 -0.002865
    vertex 0.026345 0.000000 -0.002865
    vertex 0.026345 0.015000 0.002865
  endloop
endfacet
facet normal -0.000086 -0.000000 0.000000
  outer loop
    vertex 0.026345 0.015000 0.002865
    vertex 0.026345 0.000000 -0.002865
    vertex 0.026345 0.000000 0.002865
  endloop
endfacet
facet normal -0.000084 -0.000000 -0.000018
  outer loop
    vertex 0.026345 0.015000 0.002865
    vertex 0.026345 0.000000 0.002865
    vertex 0.025113 0.015000 0.008461
  endloop
endfacet
facet normal -0.000084 -0.000000 -0.000018
  outer loop
    vertex 0.025113 0.015000 0.008461
    vertex 0.026345 0.000000 0.002865
    vertex 0.025113 0.000000 0.008461
  endloop
endfacet
facet normal -0.000078 -0.000000 -0.000036
  outer loop
    vertex 0.025113 0.015000 0.008461
    vertex 0.025113 0.000000 0.008461
    vertex 0.022707 0.015000 0.013662
  endloop
endfacet
facet normal -0.000078 -0.000000 -0.000036
  outer loop
    vertex 0.022707 0.015000 0.013662
    vertex 0.025113 0.000000 0.008461
    vertex 0.022707 0.000000 0.013662
  endloop
endfacet
facet normal -0.000068 -0.000000 -0.000052
  outer loop
    vertex 0.022707 0.015000 0.013662
    vertex 0.022707 0.000000 0.013662
    vertex 0.019239 0.015000 0.018224
  endloop
endfacet
facet normal -0.000068 -0.000000 -0.000052
  outer loop
    vertex 0.019239 0.015000 0.018224
    vertex 0.022707 0.000000 0.013662
    vertex 0.019239 0.000000 0.018224
  endloop
endfacet
facet normal -0.000056 -0.000000 -0.000066
  outer loop
    vertex 0.019239 0.015000 0.018224
    vertex 0.019239 0.000000 0.018224
    vertex 0.014871 0.015000 0.021934
  endloop
endfacet
facet normal -0.000056 -0.000000 -0.000066
  outer loop
    vertex 0.014871 0.015000 0.021934
    vertex 0.019239 0.000000 0.018224
    vertex 0.014871 0.000000 0.021934
  endloop
endfacet
facet normal -0.000040 -0.000000 -0.000076
  outer loop
    vertex 0.014871 0.015000 0.021934
    vertex 0.014871 0.000000 0.021934
    vertex 0.009809 0.015000 0.024618
  endloop
endfacet
facet normal -0.000040 -0.000000 -0.000076
  outer loop
    vertex 0.009809 0.015000 0.024618
    vertex 0.014871 0.000000 0.021934
    vertex 0.009809 0.000000 0.024618
  endloop
endfacet
facet normal -0.000023 -0.000000 -0.000083
  outer loop
    vertex 0.009809 0.015000 0.024618
    vertex 0.009809 0.000000 0.024618
    vertex 0.004287 0.015000 0.026151
  endloop
endfacet
facet normal -0.000023 -0.000000 -0.000083
  outer loop
    vertex 0.004287 0.015000 0.026151
    vertex 0.009809 0.000000 0.024618
    vertex 0.004287 0.000000 0.026151
  endloop
endfacet
facet normal -0.000005 -0.000000 -0.000086
  outer loop
    vertex 0.004287 0.015000 0.026151
    vertex 0.004287 0.000000 0.026151
    vertex -0.001435 0.015000 0.026461
  endloop
endfacet
facet normal -0.000005 -0.000000 -0.000086
  outer loop
    vertex -0.001435 0.015000 0.026461
    vertex 0.004287 0.000000 0.026151
    vertex -0.001435 0.000000 0.026461
  endloop
endfacet
facet normal 0.000014 0.000000 -0.000085
  outer loop
    vertex -0.001435 0.015000 0.026461
    vertex -0.001435 0.000000 0.026461
    vertex -0.007090 0.015000 0.025534
  endloop
endfacet
facet normal 0.000014 0.000000 -0.000085
  outer loop
    vertex -0.007090 0.015000 0.025534
    vertex -0.001435 0.000000 0.026461
    vertex -0.007090 0.000000 0.025534
  endloop
endfacet
facet normal 0.000032 0.000000 -0.000080
  outer loop
    vertex -0.007090 0.015000 0.025534
    vertex -0.007090 0.000000 0.025534
    vertex -0.012413 0.015000 0.023413
  endloop
endfacet
facet normal 0.000032 0.000000 -0.000080
  outer loop
    vertex -0.012413 0.015000 0.023413
    vertex -0.007090 0.000000 0.025534
    vertex -0.012413 0.000000 0.023413
  endloop
endfacet
facet normal 0.000048 0.000000 -0.000071
  outer loop
    vertex -0.012413 0.015000 0.023413
    vertex -0.012413 0.000000 0.023413
    vertex -0.017156 0.015000 0.020197
  endloop
endfacet
facet normal 0.000048 0.000000 -0.000071
  outer loop
    vertex -0.017156 0.015000 0.020197
    vertex -0.012413 0.000000 0.023413
    vertex -0.017156 0.000000 0.020197
  endloop
endfacet
facet normal 0.000062 0.000000 -0.000059
  outer loop
    vertex -0.017156 0.015000 0.020197
    vertex -0.017156 0.000000 0.020197
    vertex -0.021096 0.015000 0.016037
  endloop
endfacet
facet normal 0.000062 0.000000 -0.000059
  outer loop
    vertex -0.021096 0.015000 0.016037
    vertex -0.017156 0.000000 0.020197
    vertex -0.021096 0.000000 0.016037
  endloop
endfacet
facet normal 0.000074 0.000000 -0.000044
  outer loop
    vertex -0.021096 0.015000 0.016037
    vertex -0.021096 0.000000 0.016037
    vertex -0.024051 0.015000 0.011127
  endloop
endfacet
facet normal 0.000074 0.000000 -0.000044
  outer loop
    vertex -0.024051 0.015000 0.011127
    vertex -0.021096 0.000000 0.016037
    vertex -0.024051 0.000000 0.011127
  endloop
endfacet
facet normal 0.000081 0.000000 -0.000027
  outer loop
    vertex -0.024051 0.015000 0.011127
    vertex -0.024051 0.000000 0.011127
    vertex -0.025880 0.015000 0.005697
  endloop
endfacet
facet normal 0.000081 0.000000 -0.000027
  outer loop
    vertex -0.025880 0.015000 0.005697
    vertex -0.024051 0.000000 0.011127
    vertex -0.025880 0.000000 0.005697
  endloop
endfacet
facet normal -0.000122 -0.000000 -0.000009
  outer loop
    vertex -0.053891 0.015000 -0.008123
    vertex -0.053891 0.000000 -0.008123
    vertex -0.054500 0.015000 0.000000
  endloop
endfacet
facet normal -0.000122 -0.000000 -0.000009
  outer loop
    vertex -0.054500 0.015000 0.000000
    vertex -0.053891 0.000000 -0.008123
    vertex -0.054500 0.000000 0.000000
  endloop
endfacet
facet normal -0.000122 0.000000 0.000009
  outer loop
    vertex -0.054500 0.015000 0.000000
    vertex -0.054500 0.000000 0.000000
    vertex -0.053891 0.015000 0.008123
  endloop
endfacet
facet normal -0.000122 0.000000 0.000009
  outer loop
    vertex -0.053891 0.015000 0.008123
    vertex -0.054500 0.000000 0.000000
    vertex -0.053891 0.000000 0.008123
  endloop
endfacet
facet normal -0.000119 0.000000 0.000027
  outer loop
    vertex -0.053891 0.015000 0.008123
    vertex -0.053891 0.000000 0.008123
    vertex -0.052079 0.015000 0.016064
  endloop
endfacet
facet normal -0.000119 0.000000 0.000027
  outer loop
    vertex -0.052079 0.015000 0.016064
    vertex -0.053891 0.000000 0.008123
    vertex -0.052079 0.000000 0.016064
  endloop
endfacet
facet normal -0.000114 0.000000 0.000045
  outer loop
    vertex -0.052079 0.015000 0.016064
    vertex -0.052079 0.000000 0.016064
    vertex -0.049103 0.015000 0.023647
  endloop
endfacet
facet normal -0.000114 0.000000 0.000045
  outer loop
    vertex -0.049103 0.015000 0.023647
    vertex -0.052079 0.000000 0.016064
    vertex -0.049103 0.000000 0.023647
  endloop
endfacet
facet normal -0.000106 0.000000 0.000061
  outer loop
    vertex -0.049103 0.015000 0.023647
    vertex -0.049103 0.000000 0.023647
    vertex -0.045030 0.015000 0.030701
  endloop
endfacet
facet normal -0.000106 0.000000 0.000061
  outer loop
    vertex -0.045030 0.015000 0.030701
    vertex -0.049103 0.000000 0.023647
    vertex -0.045030 0.000000 0.030701
  endloop
endfacet
facet normal -0.000096 0.000000 0.000076
  outer loop
    vertex -0.045030 0.015000 0.030701
    vertex -0.045030 0.000000 0.030701
    vertex -0.039951 0.015000 0.037069
  endloop
endfacet
facet normal -0.000096 0.000000 0.000076
  outer loop
    vertex -0.039951 0.015000 0.037069
    vertex -0.045030 0.000000 0.030701
    vertex -0.039951 0.000000 0.037069
  endloop
endfacet
facet normal -0.000083 0.000000 0.000090
  outer loop
    vertex -0.039951 0.015000 0.037069
    vertex -0.039951 0.000000 0.037069
    vertex -0.033980 0.015000 0.042610
  endloop
endfacet
facet normal -0.000083 0.000000 0.000090
  outer loop
    vertex -0.033980 0.015000 0.042610
    vertex -0.039951 0.000000 0.037069
    vertex -0.033980 0.000000 0.042610
  endloop
endfacet
facet normal -0.000069 0.000000 0.000101
  outer loop
    vertex -0.033980 0.015000 0.042610
    vertex -0.033980 0.000000 0.042610
    vertex -0.027250 0.015000 0.047198
  endloop
endfacet
facet normal -0.000069 0.000000 0.000101
  outer loop
    vertex -0.027250 0.015000 0.047198
    vertex -0.033980 0.000000 0.042610
    vertex -0.027250 0.000000 0.047198
  endloop
endfacet
facet normal -0.000053 0.000000 0.000110
  outer loop
    vertex -0.027250 0.015000 0.047198
    vertex -0.027250 0.000000 0.047198
    vertex -0.019911 0.015000 0.050733
  endloop
endfacet
facet normal -0.000053 0.000000 0.000110
  outer loop
    vertex -0.019911 0.015000 0.050733
    vertex -0.027250 0.000000 0.047198
    vertex -0.019911 0.000000 0.050733
  endloop
endfacet
facet normal -0.000036 0.000000 0.000117
  outer loop
    vertex -0.019911 0.015000 0.050733
    vertex -0.019911 0.000000 0.050733
    vertex -0.012127 0.015000 0.053134
  endloop
endfacet
facet normal -0.000036 0.000000 0.000117
  outer loop
    vertex -0.012127 0.015000 0.053134
    vertex -0.019911 0.000000 0.050733
    vertex -0.012127 0.000000 0.053134
  endloop
endfacet
facet normal -0.000018 0.000000 0.000121
  outer loop
    vertex -0.012127 0.015000 0.053134
    vertex -0.012127 0.000000 0.053134
    vertex -0.004073 0.015000 0.054348
  endloop
endfacet
facet normal -0.000018 0.000000 0.000121
  outer loop
    vertex -0.004073 0.015000 0.054348
    vertex -0.012127 0.000000 0.053134
    vertex -0.004073 0.000000 0.054348
  endloop
endfacet
facet normal -0.000000 0.000000 0.000122
  outer loop
    vertex -0.004073 0.015000 0.054348
    vertex -0.004073 0.000000 0.054348
    vertex 0.004073 0.015000 0.054348
  endloop
endfacet
facet normal 0.000000 0.000000 0.000122
  outer loop
    vertex 0.004073 0.015000 0.054348
    vertex -0.004073 0.000000 0.054348
    vertex 0.004073 0.000000 0.054348
  endloop
endfacet
facet normal 0.000018 0.000000 0.000121
  outer loop
    vertex 0.004073 0.015000 0.054348
    vertex 0.004073 0.000000 0.054348
    vertex 0.012127 0.015000 0.053134
  endloop
endfacet
facet normal 0.000018 0.000000 0.000121
  outer loop
    vertex 0.012127 0.015000 0.053134
    vertex 0.004073 0.000000 0.054348
    vertex 0.012127 0.000000 0.053134
  endloop
endfacet
facet normal 0.000036 0.000000 0.000117
  outer loop
    vertex 0.012127 0.015000 0.053134
    vertex 0.012127 0.000000 0.053134
    vertex 0.019911 0.015000 0.050733
  endloop
endfacet
facet normal 0.000036 0.000000 0.000117
  outer loop
    vertex 0.019911 0.015000 0.050733
    vertex 0.012127 0.000000 0.053134
    vertex 0.019911 0.000000 0.050733
  endloop
endfacet
facet normal 0.000053 0.000000 0.000110
  outer loop
    vertex 0.019911 0.015000 0.050733
    vertex 0.019911 0.000000 0.050733
    vertex 0.027250 0.015000 0.047198
  endloop
endfacet
facet normal 0.000053 0.000000 0.000110
  outer loop
    vertex 0.027250 0.015000 0.047198
    vertex 0.019911 0.000000 0.050733
    vertex 0.027250 0.000000 0.047198
  endloop
endfacet
facet normal 0.000069 0.000000 0.000101
  outer loop
    vertex 0.027250 0.015000 0.047198
    vertex 0.027250 0.000000 0.047198
    vertex 0.033980 0.015000 0.042610
  endloop
endfacet
facet normal 0.000069 0.000000 0.000101
  outer loop
    vertex 0.033980 0.015000 0.042610
    vertex 0.027250 0.000000 0.047198
    vertex 0.033980 0.000000 0.042610
  endloop
endfacet
facet normal 0.000083 0.000000 0.000090
  outer loop
    vertex 0.033980 0.015000 0.042610
    vertex 0.033980 0.000000 0.042610
    vertex 0.039951 0.015000 0.037069
  endloop
endfacet
facet normal 0.000083 0.000000 0.000090
  outer loop
    vertex 0.039951 0.015000 0.037069
    vertex 0.033980 0.000000 0.042610
    vertex 0.039951 0.000000 0.037069
  endloop
endfacet
facet normal 0.000096 0.000000 0.000076
  outer loop
    vertex 0.039951 0.015000 0.037069
    vertex 0.039951 0.000000 0.037069
    vertex 0.045030 0.015000 0.030701
  endloop
endfacet
facet normal 0.000096 0.000000 0.000076
  outer loop
    vertex 0.045030 0.015000 0.030701
    vertex 0.039951 0.000000 0.037069
    vertex 0.045030 0.000000 0.030701
  endloop
endfacet
facet normal 0.000106 0.000000 0.000061
  outer loop
    vertex 0.045030 0.015000 0.030701
    vertex 0.045030 0.000000 0.030701
    vertex 0.049103 0.015000 0.023647
  endloop
endfacet
facet normal 0.000106 0.000000 0.000061
  outer loop
    vertex 0.049103 0.015000 0.023647
    vertex 0.045030 0.000000 0.030701
    vertex 0.049103 0.000000 0.023647
  endloop
endfacet
facet normal 0.000114 0.000000 0.000045
  outer loop
    vertex 0.049103 0.015000 0.023647
    vertex 0.049103 0.000000 0.023647
    vertex 0.052079 0.015000 0.016064
  endloop
endfacet
facet normal 0.000114 0.000000 0.000045
  outer loop
    vertex 0.052079 0.015000 0.016064
    vertex 0.049103 0.000000 0.023647
    vertex 0.052079 0.000000 0.016064
  endloop
endfacet
facet normal 0.000119 0.000000 0.000027
  outer loop
    vertex 0.052079 0.015000 0.016064
    vertex 0.052079 0.000000 0.016064
    vertex 0.053891 0.015000 0.008123
  endloop
endfacet
facet normal 0.000119 0.000000 0.000027
  outer loop
    vertex 0.053891 0.015000 0.008123
    vertex 0.052079 0.000000 0.016064
    vertex 0.053891 0.000000 0.008123
  endloop
endfacet
facet normal 0.000122 0.000000 0.000009
  outer loop
    vertex 0.053891 0.015000 0.008123
    vertex 0.053891 0.000000 0.008123
    vertex 0.054500 0.015000 0.000000
  endloop
endfacet
facet normal 0.000122 0.000000 0.000009
  outer loop
    vertex 0.054500 0.015000 0.000000
    vertex 0.053891 0.000000 0.008123
    vertex 0.054500 0.000000 0.000000
  endloop
endfacet
facet normal 0.000122 0.000000 -0.000009
  outer loop
    vertex 0.054500 0.015000 0.000000
    vertex 0.054500 0.000000 0.000000
    vertex 0.053891 0.015000 -0.008123
  endloop
endfacet
facet normal 0.000122 0.000000 -0.000009
  outer loop
    vertex 0.053891 0.015000 -0.008123
    vertex 0.054500 0.000000 0.000000
    vertex 0.053891 0.000000 -0.008123
  endloop
endfacet
facet normal 0.000119 0.000000 -0.000027
  outer loop
    vertex 0.053891 0.015000 -0.008123
    vertex 0.053891 0.000000 -0.008123
    vertex 0.052079 0.015000 -0.016064
  endloop
endfacet
facet normal 0.000119 0.000000 -0.000027
  outer loop
    vertex 0.052079 0.015000 -0.016064
    vertex 0.053891 0.000000 -0.008123
    vertex 0.052079 0.000000 -0.016064
  endloop
endfacet
facet normal 0.000114 0.000000 -0.000045
  outer loop
    vertex 0.052079 0.015000 -0.016064
    vertex 0.052079 0.000000 -0.016064
    vertex 0.049103 0.015000 -0.023647
  endloop
endfacet
facet normal 0.000114 0.000000 -0.000045
  outer loop
    vertex 0.049103 0.015000 -0.023647
    vertex 0.052079 0.000000 -0.016064
    vertex 0.049103 0.000000 -0.023647
  endloop
endfacet
facet normal 0.000106 0.000000 -0.000061
  outer loop
    vertex 0.049103 0.015000 -0.023647
    vertex 0.049103 0.000000 -0.023647
    vertex 0.045030 0.015000 -0.030701
  endloop
endfacet
facet normal 0.000106 0.000000 -0.000061
  outer loop
    vertex 0.045030 0.015000 -0.030701
    vertex 0.049103 0.000000 -0.023647
    vertex 0.045030 0.000000 -0.030701
  endloop
endfacet
facet normal 0.000096 0.000000 -0.000076
  outer loop
    vertex 0.045030 0.015000 -0.030701
    vertex 0.045030 0.000000 -0.030701
    vertex 0.039951 0.015000 -0.037069
  endloop
endfacet
facet normal 0.000096 0.000000 -0.000076
  outer loop
    vertex 0.039951 0.015000 -0.037069
    vertex 0.045030 0.000000 -0.030701
    vertex 0.039951 0.000000 -0.037069
  endloop
endfacet
facet normal 0.000083 0.000000 -0.000090
  outer loop
    vertex 0.039951 0.015000 -0.037069
    vertex 0.039951 0.000000 -0.037069
    vertex 0.033980 0.015000 -0.042610
  endloop
endfacet
facet normal 0.000083 0.000000 -0.000090
  outer loop
    vertex 0.033980 0.015000 -0.042610
    vertex 0.039951 0.000000 -0.037069
    vertex 0.033980 0.000000 -0.042610
  endloop
endfacet
facet normal 0.000069 0.000000 -0.000101
  outer loop
    vertex 0.033980 0.015000 -0.042610
    vertex 0.033980 0.000000 -0.042610
    vertex 0.027250 0.015000 -0.047198
  endloop
endfacet
facet normal 0.000069 0.000000 -0.000101
  outer loop
    vertex 0.027250 0.015000 -0.047198
    vertex 0.033980 0.000000 -0.042610
    vertex 0.027250 0.000000 -0.047198
  endloop
endfacet
facet normal 0.000053 0.000000 -0.000110
  outer loop
    vertex 0.027250 0.015000 -0.047198
    vertex 0.027250 0.000000 -0.047198
    vertex 0.019911 0.015000 -0.050733
  endloop
endfacet
facet normal 0.000053 0.000000 -0.000110
  outer loop
    vertex 0.019911 0.015000 -0.050733
    vertex 0.027250 0.000000 -0.047198
    vertex 0.019911 0.000000 -0.050733
  endloop
endfacet
facet normal 0.000036 0.000000 -0.000117
  outer loop
    vertex 0.019911 0.015000 -0.050733
    vertex 0.019911 0.000000 -0.050733
    vertex 0.012127 0.015000 -0.053134
  endloop
endfacet
facet normal 0.000036 0.000000 -0.000117
  outer loop
    vertex 0.012127 0.015000 -0.053134
    vertex 0.019911 0.000000 -0.050733
    vertex 0.012127 0.000000 -0.053134
  endloop
endfacet
facet normal 0.000018 0.000000 -0.000121
  outer loop
    vertex 0.012127 0.015000 -0.053134
    vertex 0.012127 0.000000 -0.053134
    vertex 0.004073 0.015000 -0.054348
  endloop
endfacet
facet normal 0.000018 0.000000 -0.000121
  outer loop
    vertex 0.004073 0.015000 -0.054348
    vertex 0.012127 0.000000 -0.053134
    vertex 0.004073 0.000000 -0.054348
  endloop
endfacet
facet normal -0.000000 -0.000000 -0.000122
  outer loop
    vertex 0.004073 0.015000 -0.054348
    vertex 0.004073 0.000000 -0.054348
    vertex -0.004073 0.015000 -0.054348
  endloop
endfacet
facet normal 0.000000 0.000000 -0.000122
  outer loop
    vertex -0.004073 0.015000 -0.054348
    vertex 0.004073 0.000000 -0.054348
    vertex -0.004073 0.000000 -0.054348
  endloop
endfacet
facet normal -0.000018 -0.000000 -0.000121
  outer loop
    vertex -0.004073 0.015000 -0.054348
    vertex -0.004073 0.000000 -0.054348
    vertex -0.012127 0.015000 -0.053134
  endloop
endfacet
facet normal -0.000018 -0.000000 -0.000121
  outer loop
    vertex -0.012127 0.015000 -0.053134
    vertex -0.004073 0.000000 -0.054348
    vertex -0.012127 0.000000 -0.053134
  endloop
endfacet
facet normal -0.000036 -0.000000 -0.000117
  outer loop
    vertex -0.012127 0.015000 -0.053134
    vertex -0.012127 0.000000 -0.053134
    vertex -0.019911 0.015000 -0.050733
  endloop
endfacet
facet normal -0.000036 -0.000000 -0.000117
  outer loop
    vertex -0.019911 0.015000 -0.050733
    vertex -0.012127 0.000000 -0.053134
    vertex -0.019911 0.000000 -0.050733
  endloop
endfacet
facet normal -0.000053 -0.000000 -0.000110
  outer loop
    vertex -0.019911 0.015000 -0.050733
    vertex -0.019911 0.000000 -0.050733
    vertex -0.027250 0.015000 -0.047198
  endloop
endfacet
facet normal -0.000053 -0.000000 -0.000110
  outer loop
    vertex -0.027250 0.015000 -0.047198
    vertex -0.019911 0.000000 -0.050733
    vertex -0.027250 0.000000 -0.047198
  endloop
endfacet
facet normal -0.000069 -0.000000 -0.000101
  outer loop
    vertex -0.027250 0.015000 -0.047198
    vertex -0.027250 0.000000 -0.047198
    vertex -0.033980 0.015000 -0.042610
  endloop
endfacet
facet normal -0.000069 -0.000000 -0.000101
  outer loop
    vertex -0.033980 0.015000 -0.042610
    vertex -0.027250 0.000000 -0.047198
    vertex -0.033980 0.000000 -0.042610
  endloop
endfacet
facet normal -0.000083 -0.000000 -0.000090
  outer loop
    vertex -0.033980 0.015000 -0.042610
    vertex -0.033980 0.000000 -0.042610
    vertex -0.039951 0.015000 -0.037069
  endloop
endfacet
facet normal -0.000083 -0.000000 -0.000090
  outer loop
    vertex -0.039951 0.015000 -0.037069
    vertex -0.033980 0.000000 -0.042610
    vertex -0.039951 0.000000 -0.037069
  endloop
endfacet
facet normal -0.000096 -0.000000 -0.000076
  outer loop
    vertex -0.039951 0.015000 -0.037069
    vertex -0.039951 0.000000 -0.037069
    vertex -0.045030 0.015000 -0.030701
  endloop
endfacet
facet normal -0.000096 -0.000000 -0.000076
  outer loop
    vertex -0.045030 0.015000 -0.030701
    vertex -0.039951 0.000000 -0.037069
    vertex -0.045030 0.000000 -0.030701
  endloop
endfacet
facet normal -0.000106 -0.000000 -0.000061
  outer loop
    vertex -0.045030 0.015000 -0.030701
    vertex -0.045030 0.000000 -0.030701
    vertex -0.049103 0.015000 -0.023647
  endloop
endfacet
facet normal -0.000106 -0.000000 -0.000061
  outer loop
    vertex -0.049103 0.015000 -0.023647
    vertex -0.045030 0.000000 -0.030701
    vertex -0.049103 0.000000 -0.023647
  endloop
endfacet
facet normal -0.000114 -0.000000 -0.000045
  outer loop
    vertex -0.049103 0.015000 -0.023647
    vertex -0.049103 0.000000 -0.023647
    vertex -0.052079 0.015000 -0.016064
  endloop
endfacet
facet normal -0.000114 -0.000000 -0.000045
  outer loop
    vertex -0.052079 0.015000 -0.016064
    vertex -0.049103 0.000000 -0.023647
    vertex -0.052079 0.000000 -0.016064
  endloop
endfacet
facet normal -0.000119 -0.000000 -0.000027
  outer loop
    vertex -0.052079 0.015000 -0.016064
    vertex -0.052079 0.000000 -0.016064
    vertex -0.053891 0.015000 -0.008123
  endloop
endfacet
facet normal -0.000119 -0.000000 -0.000027
  outer loop
    vertex -0.053891 0.015000 -0.008123
    vertex -0.052079 0.000000 -0.016064
    vertex -0.053891 0.000000 -0.008123
  endloop
endfacet
facet normal 0.000000 0.000161 0.000000
  outer loop
    vertex -0.025880 0.015000 -0.005697
    vertex -0.053891 0.015000 -0.008123
    vertex -0.026500 0.015000 0.000000
  endloop
endfacet
facet normal 0.000000 0.000227 0.000000
  outer loop
    vertex -0.026500 0.015000 0.000000
    vertex -0.053891 0.015000 -0.008123
    vertex -0.054500 0.015000 0.000000
  endloop
endfacet
facet normal 0.000000 0.000227 0.000000
  outer loop
    vertex -0.026500 0.015000 0.000000
    vertex -0.054500 0.015000 0.000000
    vertex -0.053891 0.015000 0.008123
  endloop
endfacet
facet normal -0.000000 0.000227 0.000000
  outer loop
    vertex -0.053891 0.015000 -0.008123
    vertex -0.025880 0.015000 -0.005697
    vertex -0.052079 0.015000 -0.016064
  endloop
endfacet
facet normal 0.000000 0.000161 0.000000
  outer loop
    vertex -0.052079 0.015000 -0.016064
    vertex -0.025880 0.015000 -0.005697
    vertex -0.024051 0.015000 -0.011127
  endloop
endfacet
facet normal -0.000000 0.000227 0.000000
  outer loop
    vertex -0.052079 0.015000 -0.016064
    vertex -0.024051 0.015000 -0.011127
    vertex -0.049103 0.015000 -0.023647
  endloop
endfacet
facet normal -0.000000 0.000228 0.000000
  outer loop
    vertex -0.049103 0.015000 -0.023647
    vertex -0.024051 0.015000 -0.011127
    vertex -0.045030 0.015000 -0.030701
  endloop
endfacet
facet normal 0.000000 0.000161 0.000000
  outer loop
    vertex -0.045030 0.015000 -0.030701
    vertex -0.024051 0.015000 -0.011127
    vertex -0.021096 0.015000 -0.016037
  endloop
endfacet
facet normal -0.000000 0.000227 0.000000
  outer loop
    vertex -0.045030 0.015000 -0.030701
    vertex -0.021096 0.015000 -0.016037
    vertex -0.039951 0.015000 -0.037069
  endloop
endfacet
facet normal 0.000000 0.000161 0.000000
  outer loop
    vertex -0.039951 0.015000 -0.037069
    vertex -0.021096 0.015000 -0.016037
    vertex -0.017156 0.015000 -0.020197
  endloop
endfacet
facet normal -0.000000 0.000227 0.000000
  outer loop
    vertex -0.039951 0.015000 -0.037069
    vertex -0.017156 0.015000 -0.020197
    vertex -0.033980 0.015000 -0.042610
  endloop
endfacet
facet normal -0.000000 0.000228 0.000000
  outer loop
    vertex -0.033980 0.015000 -0.042610
    vertex -0.017156 0.015000 -0.020197
    vertex -0.027250 0.015000 -0.047198
  endloop
endfacet
facet normal 0.000000 0.000161 0.000000
  outer loop
    vertex -0.027250 0.015000 -0.047198
    vertex -0.017156 0.015000 -0.020197
    vertex -0.012413 0.015000 -0.023413
  endloop
endfacet
facet normal -0.000000 0.000227 0.000000
  outer loop
    vertex -0.027250 0.015000 -0.047198
    vertex -0.012413 0.015000 -0.023413
    vertex -0.019911 0.015000 -0.050733
  endloop
endfacet
facet normal 0.000000 0.000161 0.000000
  outer loop
    vertex -0.019911 0.015000 -0.050733
    vertex -0.012413 0.015000 -0.023413
    vertex -0.007090 0.015000 -0.025534
  endloop
endfacet
facet normal -0.000000 0.000227 0.000000
  outer loop
    vertex -0.019911 0.015000 -0.050733
    vertex -0.007090 0.015000 -0.025534
    vertex -0.012127 0.015000 -0.053134
  endloop
endfacet
facet normal 0.000000 0.000161 0.000000
  outer loop
    vertex -0.012127 0.015000 -0.053134
    vertex -0.007090 0.015000 -0.025534
    vertex -0.001435 0.015000 -0.026461
  endloop
endfacet
facet normal -0.000000 0.000228 0.000000
  outer loop
    vertex -0.012127 0.015000 -0.053134
    vertex -0.001435 0.015000 -0.026461
    vertex -0.004073 0.015000 -0.054348
  endloop
endfacet
facet normal 0.000000 0.000227 0.000000
  outer loop
    vertex -0.004073 0.015000 -0.054348
    vertex -0.001435 0.015000 -0.026461
    vertex 0.004073 0.015000 -0.054348
  endloop
endfacet
facet normal 0.000000 0.000161 -0.000000
  outer loop
    vertex 0.004073 0.015000 -0.054348
    vertex -0.001435 0.015000 -0.026461
    vertex 0.004287 0.015000 -0.026151
  endloop
endfacet
facet normal 0.000000 0.000227 0.000000
  outer loop
    vertex 0.004073 0.015000 -0.054348
    vertex 0.004287 0.015000 -0.026151
    vertex 0.012127 0.015000 -0.053134
  endloop
endfacet
facet normal 0.000000 0.000161 0.000000
  outer loop
    vertex 0.012127 0.015000 -0.053134
    vertex 0.004287 0.015000 -0.026151
    vertex 0.009809 0.015000 -0.024618
  endloop
endfacet
facet normal 0.000000 0.000228 -0.000000
  outer loop
    vertex 0.012127 0.015000 -0.053134
    vertex 0.009809 0.015000 -0.024618
    vertex 0.019911 0.015000 -0.050733
  endloop
endfacet
facet normal 0.000000 0.000227 -0.000000
  outer loop
    vertex 0.019911 0.015000 -0.050733
    vertex 0.009809 0.015000 -0.024618
    vertex 0.027250 0.015000 -0.047198
  endloop
endfacet
facet normal 0.000000 0.000161 0.000000
  outer loop
    vertex 0.027250 0.015000 -0.047198
    vertex 0.009809 0.015000 -0.024618
    vertex 0.014871 0.015000 -0.021934
  endloop
endfacet
facet normal 0.000000 0.000227 -0.000000
  outer loop
    vertex 0.027250 0.015000 -0.047198
    vertex 0.014871 0.015000 -0.021934
    vertex 0.033980 0.015000 -0.042610
  endloop
endfacet
facet normal 0.000000 0.000161 0.000000
  outer loop
    vertex 0.033980 0.015000 -0.042610
    vertex 0.014871 0.015000 -0.021934
    vertex 0.019239 0.015000 -0.018224
  endloop
endfacet
facet normal 0.000000 0.000227 -0.000000
  outer loop
    vertex 0.033980 0.015000 -0.042610
    vertex 0.019239 0.015000 -0.018224
    vertex 0.039951 0.015000 -0.037069
  endloop
endfacet
facet normal 0.000000 0.000228 -0.000000
  outer loop
    vertex 0.039951 0.015000 -0.037069
    vertex 0.019239 0.015000 -0.018224
    vertex 0.045030 0.015000 -0.030701
  endloop
endfacet
facet normal 0.000000 0.000161 0.000000
  outer loop
    vertex 0.045030 0.015000 -0.030701
    vertex 0.019239 0.015000 -0.018224
    vertex 0.022707 0.015000 -0.013662
  endloop
endfacet
facet normal 0.000000 0.000227 -0.000000
  outer loop
    vertex 0.045030 0.015000 -0.030701
    vertex 0.022707 0.015000 -0.013662
    vertex 0.049103 0.015000 -0.023647
  endloop
endfacet
facet normal 0.000000 0.000161 0.000000
  outer loop
    vertex 0.049103 0.015000 -0.023647
    vertex 0.022707 0.015000 -0.013662
    vertex 0.025113 0.015000 -0.008461
  endloop
endfacet
facet normal 0.000000 0.000227 -0.000000
  outer loop
    vertex 0.049103 0.015000 -0.023647
    vertex 0.025113 0.015000 -0.008461
    vertex 0.052079 0.015000 -0.016064
  endloop
endfacet
facet normal 0.000000 0.000228 -0.000000
  outer loop
    vertex 0.052079 0.015000 -0.016064
    vertex 0.025113 0.015000 -0.008461
    vertex 0.053891 0.015000 -0.008123
  endloop
endfacet
facet normal 0.000000 0.000161 0.000000
  outer loop
    vertex 0.053891 0.015000 -0.008123
    vertex 0.025113 0.015000 -0.008461
    vertex 0.026345 0.015000 -0.002865
  endloop
endfacet
facet normal 0.000000 0.000227 -0.000000
  outer loop
    vertex 0.053891 0.015000 -0.008123
    vertex 0.026345 0.015000 -0.002865
    vertex 0.054500 0.015000 0.000000
  endloop
endfacet
facet normal 0.000000 0.000161 0.000000
  outer loop
    vertex 0.054500 0.015000 0.000000
    vertex 0.026345 0.015000 -0.002865
    vertex 0.026345 0.015000 0.002865
  endloop
endfacet
facet normal 0.000000 0.000227 0.000000
  outer loop
    vertex 0.054500 0.015000 0.000000
    vertex 0.026345 0.015000 0.002865
    vertex 0.053891 0.015000 0.008123
  endloop
endfacet
facet normal 0.000000 0.000161 0.000000
  outer loop
    vertex 0.053891 0.015000 0.008123
    vertex 0.026345 0.015000 0.002865
    vertex 0.025113 0.015000 0.008461
  endloop
endfacet
facet normal 0.000000 0.000228 0.000000
  outer loop
    vertex 0.053891 0.015000 0.008123
    vertex 0.025113 0.015000 0.008461
    vertex 0.052079 0.015000 0.016064
  endloop
endfacet
facet normal 0.000000 0.000227 0.000000
  outer loop
    vertex 0.052079 0.015000 0.016064
    vertex 0.025113 0.015000 0.008461
    vertex 0.049103 0.015000 0.023647
  endloop
endfacet
facet normal 0.000000 0.000161 0.000000
  outer loop
    vertex 0.049103 0.015000 0.023647
    vertex 0.025113 0.015000 0.008461
    vertex 0.022707 0.015000 0.013662
  endloop
endfacet
facet normal 0.000000 0.000227 0.000000
  outer loop
    vertex 0.049103 0.015000 0.023647
    vertex 0.022707 0.015000 0.013662
    vertex 0.045030 0.015000 0.030701
  endloop
endfacet
facet normal 0.000000 0.000161 0.000000
  outer loop
    vertex 0.045030 0.015000 0.030701
    vertex 0.022707 0.015000 0.013662
    vertex 0.019239 0.015000 0.018224
  endloop
endfacet
facet normal 0.000000 0.000228 0.000000
  outer loop
    vertex 0.045030 0.015000 0.030701
    vertex 0.019239 0.015000 0.018224
    vertex 0.039951 0.015000 0.037069
  endloop
endfacet
facet normal 0.000000 0.000227 0.000000
  outer loop
    vertex 0.039951 0.015000 0.037069
    vertex 0.019239 0.015000 0.018224
    vertex 0.033980 0.015000 0.042610
  endloop
endfacet
facet normal 0.000000 0.000161 0.000000
  outer loop
    vertex 0.033980 0.015000 0.042610
    vertex 0.019239 0.015000 0.018224
    vertex 0.014871 0.015000 0.021934
  endloop
endfacet
facet normal 0.000000 0.000227 0.000000
  outer loop
    vertex 0.033980 0.015000 0.042610
    vertex 0.014871 0.015000 0.021934
    vertex 0.027250 0.015000 0.047198
  endloop
endfacet
facet normal 0.000000 0.000161 0.000000
  outer loop
    vertex 0.027250 0.015000 0.047198
    vertex 0.014871 0.015000 0.021934
    vertex 0.009809 0.015000 0.024618
  endloop
endfacet
facet normal 0.000000 0.000227 0.000000
  outer loop
    vertex 0.027250 0.015000 0.047198
    vertex 0.009809 0.015000 0.024618
    vertex 0.019911 0.015000 0.050733
  endloop
endfacet
facet normal 0.000000 0.000228 0.000000
  outer loop
    vertex 0.019911 0.015000 0.050733
    vertex 0.009809 0.015000 0.024618
    vertex 0.012127 0.015000 0.053134
  endloop
endfacet
facet normal 0.000000 0.000161 0.000000
  outer loop
    vertex 0.012127 0.015000 0.053134
    vertex 0.009809 0.015000 0.024618
    vertex 0.004287 0.015000 0.026151
  endloop
endfacet
facet normal 0.000000 0.000227 0.000000
  outer loop
    vertex 0.012127 0.015000 0.053134
    vertex 0.004287 0.015000 0.026151
    vertex 0.004073 0.015000 0.054348
  endloop
endfacet
facet normal 0.000000 0.000161 0.000000
  outer loop
    vertex 0.004073 0.015000 0.054348
    vertex 0.004287 0.015000 0.026151
    vertex -0.001435 0.015000 0.026461
  endloop
endfacet
facet normal 0.000000 0.000227 0.000000
  outer loop
    vertex 0.004073 0.015000 0.054348
    vertex -0.001435 0.015000 0.026461
    vertex -0.004073 0.015000 0.054348
  endloop
endfacet
facet normal 0.000000 0.000228 0.000000
  outer loop
    vertex -0.004073 0.015000 0.054348
    vertex -0.001435 0.015000 0.026461
    vertex -0.012127 0.015000 0.053134
  endloop
endfacet
facet normal 0.000000 0.000161 0.000000
  outer loop
    vertex -0.012127 0.015000 0.053134
    vertex -0.001435 0.015000 0.026461
    vertex -0.007090 0.015000 0.025534
  endloop
endfacet
facet normal 0.000000 0.000227 0.000000
  outer loop
    vertex -0.012127 0.015000 0.053134
    vertex -0.007090 0.015000 0.025534
    vertex -0.019911 0.015000 0.050733
  endloop
endfacet
facet normal 0.000000 0.000161 0.000000
  outer loop
    vertex -0.019911 0.015000 0.050733
    vertex -0.007090 0.015000 0.025534
    vertex -0.012413 0.015000 0.023413
  endloop
endfacet
facet normal 0.000000 0.000227 0.000000
  outer loop
    vertex -0.019911 0.015000 0.050733
    vertex -0.012413 0.015000 0.023413
    vertex -0.027250 0.015000 0.047198
  endloop
endfacet
facet normal 0.000000 0.000161 0.000000
  outer loop
    vertex -0.027250 0.015000 0.047198
    vertex -0.012413 0.015000 0.023413
    vertex -0.017156 0.015000 0.020197
  endloop
endfacet
facet normal 0.000000 0.000228 0.000000
  outer loop
    vertex -0.027250 0.015000 0.047198
    vertex -0.017156 0.015000 0.020197
    vertex -0.033980 0.015000 0.042610
  endloop
endfacet
facet normal 0.000000 0.000227 0.000000
  outer loop
    vertex -0.033980 0.015000 0.042610
    vertex -0.017156 0.015000 0.020197
    vertex -0.039951 0.015000 0.037069
  endloop
endfacet
facet normal 0.000000 0.000161 0.000000
  outer loop
    vertex -0.039951 0.015000 0.037069
    vertex -0.017156 0.015000 0.020197
    vertex -0.021096 0.015000 0.016037
  endloop
endfacet
facet normal 0.000000 0.000227 0.000000
  outer loop
    vertex -0.039951 0.015000 0.037069
    vertex -0.021096 0.015000 0.016037
    vertex -0.045030 0.015000 0.030701
  endloop
endfacet
facet normal 0.000000 0.000161 0.000000
  outer loop
    vertex -0.045030 0.015000 0.030701
    vertex -0.021096 0.015000 0.016037
    vertex -0.024051 0.015000 0.011127
  endloop
endfacet
facet normal 0.000000 0.000228 0.000000
  outer loop
    vertex -0.045030 0.015000 0.030701
    vertex -0.024051 0.015000 0.011127
    vertex -0.049103 0.015000 0.023647
  endloop
endfacet
facet normal 0.000000 0.000227 0.000000
  outer loop
    vertex -0.049103 0.015000 0.023647
    vertex -0.024051 0.015000 0.011127
    vertex -0.052079 0.015000 0.016064
  endloop
endfacet
facet normal 0.000000 0.000161 0.000000
  outer loop
    vertex -0.052079 0.015000 0.016064
    vertex -0.024051 0.015000 0.011127
    vertex -0.025880 0.015000 0.005697
  endloop
endfacet
facet normal 0.000000 0.000227 0.000000
  outer loop
    vertex -0.052079 0.015000 0.016064
    vertex -0.025880 0.015000 0.005697
    vertex -0.053891 0.015000 0.008123
  endloop
endfacet
facet normal 0.000000 0.000161 0.000000
  outer loop
    vertex -0.053891 0.015000 0.008123
    vertex -0.025880 0.015000 0.005697
    vertex -0.026500 0.015000 0.000000
  endloop
endfacet
facet normal -0.000000 -0.000161 0.000000
  outer loop
    vertex -0.025880 0.000000 0.005697
    vertex -0.053891 0.000000 0.008123
    vertex -0.026500 0.000000 0.000000
  endloop
endfacet
facet normal 0.000000 -0.000227 0.000000
  outer loop
    vertex -0.026500 0.000000 0.000000
    vertex -0.053891 0.000000 0.008123
    vertex -0.054500 0.000000 0.000000
  endloop
endfacet
facet normal -0.000000 -0.000227 0.000000
  outer loop
    vertex -0.026500 0.000000 0.000000
    vertex -0.054500 0.000000 0.000000
    vertex -0.053891 0.000000 -0.008123
  endloop
endfacet
facet normal 0.000000 -0.000227 0.000000
  outer loop
    vertex -0.053891 0.000000 0.008123
    vertex -0.025880 0.000000 0.005697
    vertex -0.052079 0.000000 0.016064
  endloop
endfacet
facet normal 0.000000 -0.000161 0.000000
  outer loop
    vertex -0.052079 0.000000 0.016064
    vertex -0.025880 0.000000 0.005697
    vertex -0.024051 0.000000 0.011127
  endloop
endfacet
facet normal 0.000000 -0.000227 0.000000
  outer loop
    vertex -0.052079 0.000000 0.016064
    vertex -0.024051 0.000000 0.011127
    vertex -0.049103 0.000000 0.023647
  endloop
endfacet
facet normal 0.000000 -0.000228 0.000000
  outer loop
    vertex -0.049103 0.000000 0.023647
    vertex -0.024051 0.000000 0.011127
    vertex -0.045030 0.000000 0.030701
  endloop
endfacet
facet normal 0.000000 -0.000161 0.000000
  outer loop
    vertex -0.045030 0.000000 0.030701
    vertex -0.024051 0.000000 0.011127
    vertex -0.021096 0.000000 0.016037
  endloop
endfacet
facet normal 0.000000 -0.000227 0.000000
  outer loop
    vertex -0.045030 0.000000 0.030701
    vertex -0.021096 0.000000 0.016037
    vertex -0.039951 0.000000 0.037069
  endloop
endfacet
facet normal 0.000000 -0.000161 0.000000
  outer loop
    vertex -0.039951 0.000000 0.037069
    vertex -0.021096 0.000000 0.016037
    vertex -0.017156 0.000000 0.020197
  endloop
endfacet
facet normal 0.000000 -0.000227 0.000000
  outer loop
    vertex -0.039951 0.000000 0.037069
    vertex -0.017156 0.000000 0.020197
    vertex -0.033980 0.000000 0.042610
  endloop
endfacet
facet normal 0.000000 -0.000228 0.000000
  outer loop
    vertex -0.033980 0.000000 0.042610
    vertex -0.017156 0.000000 0.020197
    vertex -0.027250 0.000000 0.047198
  endloop
endfacet
facet normal 0.000000 -0.000161 0.000000
  outer loop
    vertex -0.027250 0.000000 0.047198
    vertex -0.017156 0.000000 0.020197
    vertex -0.012413 0.000000 0.023413
  endloop
endfacet
facet normal 0.000000 -0.000227 0.000000
  outer loop
    vertex -0.027250 0.000000 0.047198
    vertex -0.012413 0.000000 0.023413
    vertex -0.019911 0.000000 0.050733
  endloop
endfacet
facet normal 0.000000 -0.000161 0.000000
  outer loop
    vertex -0.019911 0.000000 0.050733
    vertex -0.012413 0.000000 0.023413
    vertex -0.007090 0.000000 0.025534
  endloop
endfacet
facet normal 0.000000 -0.000227 0.000000
  outer loop
    vertex -0.019911 0.000000 0.050733
    vertex -0.007090 0.000000 0.025534
    vertex -0.012127 0.000000 0.053134
  endloop
endfacet
facet normal 0.000000 -0.000161 0.000000
  outer loop
    vertex -0.012127 0.000000 0.053134
    vertex -0.007090 0.000000 0.025534
    vertex -0.001435 0.000000 0.026461
  endloop
endfacet
facet normal 0.000000 -0.000228 0.000000
  outer loop
    vertex -0.012127 0.000000 0.053134
    vertex -0.001435 0.000000 0.026461
    vertex -0.004073 0.000000 0.054348
  endloop
endfacet
facet normal 0.000000 -0.000227 0.000000
  outer loop
    vertex -0.004073 0.000000 0.054348
    vertex -0.001435 0.000000 0.026461
    vertex 0.004073 0.000000 0.054348
  endloop
endfacet
facet normal 0.000000 -0.000161 -0.000000
  outer loop
    vertex 0.004073 0.000000 0.054348
    vertex -0.001435 0.000000 0.026461
    vertex 0.004287 0.000000 0.026151
  endloop
endfacet
facet normal 0.000000 -0.000227 0.000000
  outer loop
    vertex 0.004073 0.000000 0.054348
    vertex 0.004287 0.000000 0.026151
    vertex 0.012127 0.000000 0.053134
  endloop
endfacet
facet normal 0.000000 -0.000161 0.000000
  outer loop
    vertex 0.012127 0.000000 0.053134
    vertex 0.004287 0.000000 0.026151
    vertex 0.009809 0.000000 0.024618
  endloop
endfacet
facet normal 0.000000 -0.000228 -0.000000
  outer loop
    vertex 0.012127 0.000000 0.053134
    vertex 0.009809 0.000000 0.024618
    vertex 0.019911 0.000000 0.050733
  endloop
endfacet
facet normal 0.000000 -0.000227 -0.000000
  outer loop
    vertex 0.019911 0.000000 0.050733
    vertex 0.009809 0.000000 0.024618
    vertex 0.027250 0.000000 0.047198
  endloop
endfacet
facet normal 0.000000 -0.000161 0.000000
  outer loop
    vertex 0.027250 0.000000 0.047198
    vertex 0.009809 0.000000 0.024618
    vertex 0.014871 0.000000 0.021934
  endloop
endfacet
facet normal 0.000000 -0.000227 -0.000000
  outer loop
    vertex 0.027250 0.000000 0.047198
    vertex 0.014871 0.000000 0.021934
    vertex 0.033980 0.000000 0.042610
  endloop
endfacet
facet normal 0.000000 -0.000161 0.000000
  outer loop
    vertex 0.033980 0.000000 0.042610
    vertex 0.014871 0.000000 0.021934
    vertex 0.019239 0.000000 0.018224
  endloop
endfacet
facet normal 0.000000 -0.000227 -0.000000
  outer loop
    vertex 0.033980 0.000000 0.042610
    vertex 0.019239 0.000000 0.018224
    vertex 0.039951 0.000000 0.037069
  endloop
endfacet
facet normal 0.000000 -0.000228 -0.000000
  outer loop
    vertex 0.039951 0.000000 0.037069
    vertex 0.019239 0.000000 0.018224
    vertex 0.045030 0.000000 0.030701
  endloop
endfacet
facet normal 0.000000 -0.000161 0.000000
  outer loop
    vertex 0.045030 0.000000 0.030701
    vertex 0.019239 0.000000 0.018224
    vertex 0.022707 0.000000 0.013662
  endloop
endfacet
facet normal 0.000000 -0.000227 -0.000000
  outer loop
    vertex 0.045030 0.000000 0.030701
    vertex 0.022707 0.000000 0.013662
    vertex 0.049103 0.000000 0.023647
  endloop
endfacet
facet normal 0.000000 -0.000161 0.000000
  outer loop
    vertex 0.049103 0.000000 0.023647
    vertex 0.022707 0.000000 0.013662
    vertex 0.025113 0.000000 0.008461
  endloop
endfacet
facet normal 0.000000 -0.000227 -0.000000
  outer loop
    vertex 0.049103 0.000000 0.023647
    vertex 0.025113 0.000000 0.008461
    vertex 0.052079 0.000000 0.016064
  endloop
endfacet
facet normal 0.000000 -0.000228 -0.000000
  outer loop
    vertex 0.052079 0.000000 0.016064
    vertex 0.025113 0.000000 0.008461
    vertex 0.053891 0.000000 0.008123
  endloop
endfacet
facet normal -0.000000 -0.000161 0.000000
  outer loop
    vertex 0.053891 0.000000 0.008123
    vertex 0.025113 0.000000 0.008461
    vertex 0.026345 0.000000 0.002865
  endloop
endfacet
facet normal 0.000000 -0.000227 -0.000000
  outer loop
    vertex 0.053891 0.000000 0.008123
    vertex 0.026345 0.000000 0.002865
    vertex 0.054500 0.000000 0.000000
  endloop
endfacet
facet normal -0.000000 -0.000161 0.000000
  outer loop
    vertex 0.054500 0.000000 0.000000
    vertex 0.026345 0.000000 0.002865
    vertex 0.026345 0.000000 -0.002865
  endloop
endfacet
facet normal 0.000000 -0.000227 0.000000
  outer loop
    vertex 0.054500 0.000000 0.000000
    vertex 0.026345 0.000000 -0.002865
    vertex 0.053891 0.000000 -0.008123
  endloop
endfacet
facet normal -0.000000 -0.000161 0.000000
  outer loop
    vertex 0.053891 0.000000 -0.008123
    vertex 0.026345 0.000000 -0.002865
    vertex 0.025113 0.000000 -0.008461
  endloop
endfacet
facet normal 0.000000 -0.000228 0.000000
  outer loop
    vertex 0.053891 0.000000 -0.008123
    vertex 0.025113 0.000000 -0.008461
    vertex 0.052079 0.000000 -0.016064
  endloop
endfacet
facet normal -0.000000 -0.000227 0.000000
  outer loop
    vertex 0.052079 0.000000 -0.016064
    vertex 0.025113 0.000000 -0.008461
    vertex 0.049103 0.000000 -0.023647
  endloop
endfacet
facet normal 0.000000 -0.000161 0.000000
  outer loop
    vertex 0.049103 0.000000 -0.023647
    vertex 0.025113 0.000000 -0.008461
    vertex 0.022707 0.000000 -0.013662
  endloop
endfacet
facet normal -0.000000 -0.000227 0.000000
  outer loop
    vertex 0.049103 0.000000 -0.023647
    vertex 0.022707 0.000000 -0.013662
    vertex 0.045030 0.000000 -0.030701
  endloop
endfacet
facet normal 0.000000 -0.000161 0.000000
  outer loop
    vertex 0.045030 0.000000 -0.030701
    vertex 0.022707 0.000000 -0.013662
    vertex 0.019239 0.000000 -0.018224
  endloop
endfacet
facet normal -0.000000 -0.000228 0.000000
  outer loop
    vertex 0.045030 0.000000 -0.030701
    vertex 0.019239 0.000000 -0.018224
    vertex 0.039951 0.000000 -0.037069
  endloop
endfacet
facet normal -0.000000 -0.000227 0.000000
  outer loop
    vertex 0.039951 0.000000 -0.037069
    vertex 0.019239 0.000000 -0.018224
    vertex 0.033980 0.000000 -0.042610
  endloop
endfacet
facet normal 0.000000 -0.000161 0.000000
  outer loop
    vertex 0.033980 0.000000 -0.042610
    vertex 0.019239 0.000000 -0.018224
    vertex 0.014871 0.000000 -0.021934
  endloop
endfacet
facet normal -0.000000 -0.000227 0.000000
  outer loop
    vertex 0.033980 0.000000 -0.042610
    vertex 0.014871 0.000000 -0.021934
    vertex 0.027250 0.000000 -0.047198
  endloop
endfacet
facet normal 0.000000 -0.000161 0.000000
  outer loop
    vertex 0.027250 0.000000 -0.047198
    vertex 0.014871 0.000000 -0.021934
    vertex 0.009809 0.000000 -0.024618
  endloop
endfacet
facet normal -0.000000 -0.000227 0.000000
  outer loop
    vertex 0.027250 0.000000 -0.047198
    vertex 0.009809 0.000000 -0.024618
    vertex 0.019911 0.000000 -0.050733
  endloop
endfacet
facet normal -0.000000 -0.000228 0.000000
  outer loop
    vertex 0.019911 0.000000 -0.050733
    vertex 0.009809 0.000000 -0.024618
    vertex 0.012127 0.000000 -0.053134
  endloop
endfacet
facet normal 0.000000 -0.000161 0.000000
  outer loop
    vertex 0.012127 0.000000 -0.053134
    vertex 0.009809 0.000000 -0.024618
    vertex 0.004287 0.000000 -0.026151
  endloop
endfacet
facet normal -0.000000 -0.000227 0.000000
  outer loop
    vertex 0.012127 0.000000 -0.053134
    vertex 0.004287 0.000000 -0.026151
    vertex 0.004073 0.000000 -0.054348
  endloop
endfacet
facet normal 0.000000 -0.000161 0.000000
  outer loop
    vertex 0.004073 0.000000 -0.054348
    vertex 0.004287 0.000000 -0.026151
    vertex -0.001435 0.000000 -0.026461
  endloop
endfacet
facet normal 0.000000 -0.000227 0.000000
  outer loop
    vertex 0.004073 0.000000 -0.054348
    vertex -0.001435 0.000000 -0.026461
    vertex -0.004073 0.000000 -0.054348
  endloop
endfacet
facet normal 0.000000 -0.000228 0.000000
  outer loop
    vertex -0.004073 0.000000 -0.054348
    vertex -0.001435 0.000000 -0.026461
    vertex -0.012127 0.000000 -0.053134
  endloop
endfacet
facet normal 0.000000 -0.000161 0.000000
  outer loop
    vertex -0.012127 0.000000 -0.053134
    vertex -0.001435 0.000000 -0.026461
    vertex -0.007090 0.000000 -0.025534
  endloop
endfacet
facet normal 0.000000 -0.000227 0.000000
  outer loop
    vertex -0.012127 0.000000 -0.053134
    vertex -0.007090 0.000000 -0.025534
    vertex -0.019911 0.000000 -0.050733
  endloop
endfacet
facet normal 0.000000 -0.000161 0.000000
  outer loop
    vertex -0.019911 0.000000 -0.050733
    vertex -0.007090 0.000000 -0.025534
    vertex -0.012413 0.000000 -0.023413
  endloop
endfacet
facet normal 0.000000 -0.000227 0.000000
  outer loop
    vertex -0.019911 0.000000 -0.050733
    vertex -0.012413 0.000000 -0.023413
    vertex -0.027250 0.000000 -0.047198
  endloop
endfacet
facet normal 0.000000 -0.000161 0.000000
  outer loop
    vertex -0.027250 0.000000 -0.047198
    vertex -0.012413 0.000000 -0.023413
    vertex -0.017156 0.000000 -0.020197
  endloop
endfacet
facet normal 0.000000 -0.000228 0.000000
  outer loop
    vertex -0.027250 0.000000 -0.047198
    vertex -0.017156 0.000000 -0.020197
    vertex -0.033980 0.000000 -0.042610
  endloop
endfacet
facet normal 0.000000 -0.000227 0.000000
  outer loop
    vertex -0.033980 0.000000 -0.042610
    vertex -0.017156 0.000000 -0.020197
    vertex -0.039951 0.000000 -0.037069
  endloop
endfacet
facet normal 0.000000 -0.000161 0.000000
  outer loop
    vertex -0.039951 0.000000 -0.037069
    vertex -0.017156 0.000000 -0.020197
    vertex -0.021096 0.000000 -0.016037
  endloop
endfacet
facet normal 0.000000 -0.000227 0.000000
  outer loop
    vertex -0.039951 0.000000 -0.037069
    vertex -0.021096 0.000000 -0.016037
    vertex -0.045030 0.000000 -0.030701
  endloop
endfacet
facet normal 0.000000 -0.000161 0.000000
  outer loop
    vertex -0.045030 0.000000 -0.030701
    vertex -0.021096 0.000000 -0.016037
    vertex -0.024051 0.000000 -0.011127
  endloop
endfacet
facet normal 0.000000 -0.000228 0.000000
  outer loop
    vertex -0.045030 0.000000 -0.030701
    vertex -0.024051 0.000000 -0.011127
    vertex -0.049103 0.000000 -0.023647
  endloop
endfacet
facet normal 0.000000 -0.000227 0.000000
  outer loop
    vertex -0.049103 0.000000 -0.023647
    vertex -0.024051 0.000000 -0.011127
    vertex -0.052079 0.000000 -0.016064
  endloop
endfacet
facet normal 0.000000 -0.000161 0.000000
  outer loop
    vertex -0.052079 0.000000 -0.016064
    vertex -0.024051 0.000000 -0.011127
    vertex -0.025880 0.000000 -0.005697
  endloop
endfacet
facet normal 0.000000 -0.000227 0.000000
  outer loop
    vertex -0.052079 0.000000 -0.016064
    vertex -0.025880 0.000000 -0.005697
    vertex -0.053891 0.000000 -0.008123
  endloop
endfacet
facet normal 0.000000 -0.000161 0.000000
  outer loop
    vertex -0.053891 0.000000 -0.008123
    vertex -0.025880 0.000000 -0.005697
    vertex -0.026500 0.000000 0.000000
  endloop
endfacet
endsolid b868600f-abce-4643-9332-fdde1cd3d72b-ascii.stl
