solid fe7ba6f2-c021-46dc-8f94-f16296813f83-ascii.stl
facet normal 0.000296 0.000000 -0.000020
  outer loop
    vertex -0.069871 0.031500 0.009397
    vertex -0.069871 0.000000 0.009397
    vertex -0.070500 0.031500 0.000000
  endloop
endfacet
facet normal 0.000296 0.000000 -0.000020
  outer loop
    vertex -0.070500 0.031500 0.000000
    vertex -0.069871 0.000000 0.009397
    vertex -0.070500 0.000000 0.000000
  endloop
endfacet
facet normal 0.000296 0.000000 0.000020
  outer loop
    vertex -0.070500 0.031500 0.000000
    vertex -0.070500 0.000000 0.000000
    vertex -0.069871 0.031500 -0.009397
  endloop
endfacet
facet normal 0.000296 0.000000 0.000020
  outer loop
    vertex -0.069871 0.031500 -0.009397
    vertex -0.070500 0.000000 0.000000
    vertex -0.069871 0.000000 -0.009397
  endloop
endfacet
facet normal 0.000291 0.000000 0.000059
  outer loop
    vertex -0.069871 0.031500 -0.009397
    vertex -0.069871 0.000000 -0.009397
    vertex -0.067995 0.031500 -0.018626
  endloop
endfacet
facet normal 0.000291 0.000000 0.000059
  outer loop
    vertex -0.067995 0.031500 -0.018626
    vertex -0.069871 0.000000 -0.009397
    vertex -0.067995 0.000000 -0.018626
  endloop
endfacet
facet normal 0.000280 0.000000 0.000097
  outer loop
    vertex -0.067995 0.031500 -0.018626
    vertex -0.067995 0.000000 -0.018626
    vertex -0.064906 0.031500 -0.027522
  endloop
endfacet
facet normal 0.000280 0.000000 0.000097
  outer loop
    vertex -0.064906 0.031500 -0.027522
    vertex -0.067995 0.000000 -0.018626
    vertex -0.064906 0.000000 -0.027522
  endloop
endfacet
facet normal 0.000265 0.000000 0.000134
  outer loop
    vertex -0.064906 0.031500 -0.027522
    vertex -0.064906 0.000000 -0.027522
    vertex -0.060658 0.031500 -0.035928
  endloop
endfacet
facet normal 0.000265 0.000000 0.000134
  outer loop
    vertex -0.060658 0.031500 -0.035928
    vertex -0.064906 0.000000 -0.027522
    vertex -0.060658 0.000000 -0.035928
  endloop
endfacet
facet normal 0.000245 0.000000 0.000168
  outer loop
    vertex -0.060658 0.031500 -0.035928
    vertex -0.060658 0.000000 -0.035928
    vertex -0.055328 0.031500 -0.043692
  endloop
endfacet
facet normal 0.000245 0.000000 0.000168
  outer loop
    vertex -0.055328 0.031500 -0.043692
    vertex -0.060658 0.000000 -0.035928
    vertex -0.055328 0.000000 -0.043692
  endloop
endfacet
facet normal 0.000220 0.000000 0.000199
  outer loop
    vertex -0.055328 0.031500 -0.043692
    vertex -0.055328 0.000000 -0.043692
    vertex -0.049011 0.031500 -0.050677
  endloop
endfacet
facet normal 0.000220 0.000000 0.000199
  outer loop
    vertex -0.049011 0.031500 -0.050677
    vertex -0.055328 0.000000 -0.043692
    vertex -0.049011 0.000000 -0.050677
  endloop
endfacet
facet normal 0.000192 0.000000 0.000227
  outer loop
    vertex -0.049011 0.031500 -0.050677
    vertex -0.049011 0.000000 -0.050677
    vertex -0.041819 0.031500 -0.056757
  endloop
endfacet
facet normal 0.000192 0.000000 0.000227
  outer loop
    vertex -0.041819 0.031500 -0.056757
    vertex -0.049011 0.000000 -0.050677
    vertex -0.041819 0.000000 -0.056757
  endloop
endfacet
facet normal 0.000160 0.000000 0.000250
  outer loop
    vertex -0.041819 0.031500 -0.056757
    vertex -0.041819 0.000000 -0.056757
    vertex -0.033881 0.031500 -0.061825
  endloop
endfacet
facet normal 0.000160 0.000000 0.000250
  outer loop
    vertex -0.033881 0.031500 -0.061825
    vertex -0.041819 0.000000 -0.056757
    vertex -0.033881 0.000000 -0.061825
  endloop
endfacet
facet normal 0.000125 0.000000 0.000269
  outer loop
    vertex -0.033881 0.031500 -0.061825
    vertex -0.033881 0.000000 -0.061825
    vertex -0.025338 0.031500 -0.065789
  endloop
endfacet
facet normal 0.000125 0.000000 0.000269
  outer loop
    vertex -0.025338 0.031500 -0.065789
    vertex -0.033881 0.000000 -0.061825
    vertex -0.025338 0.000000 -0.065789
  endloop
endfacet
facet normal 0.000088 0.000000 0.000283
  outer loop
    vertex -0.025338 0.031500 -0.065789
    vertex -0.025338 0.000000 -0.065789
    vertex -0.016343 0.031500 -0.068579
  endloop
endfacet
facet normal 0.000088 0.000000 0.000283
  outer loop
    vertex -0.016343 0.031500 -0.068579
    vertex -0.025338 0.000000 -0.065789
    vertex -0.016343 0.000000 -0.068579
  endloop
endfacet
facet normal 0.000049 0.000000 0.000293
  outer loop
    vertex -0.016343 0.031500 -0.068579
    vertex -0.016343 0.000000 -0.068579
    vertex -0.007057 0.031500 -0.070146
  endloop
endfacet
facet normal 0.000049 0.000000 0.000293
  outer loop
    vertex -0.007057 0.031500 -0.070146
    vertex -0.016343 0.000000 -0.068579
    vertex -0.007057 0.000000 -0.070146
  endloop
endfacet
facet normal 0.000010 0.000000 0.000296
  outer loop
    vertex -0.007057 0.031500 -0.070146
    vertex -0.007057 0.000000 -0.070146
    vertex 0.002356 0.031500 -0.070461
  endloop
endfacet
facet normal 0.000010 0.000000 0.000296
  outer loop
    vertex 0.002356 0.031500 -0.070461
    vertex -0.007057 0.000000 -0.070146
    vertex 0.002356 0.000000 -0.070461
  endloop
endfacet
facet normal -0.000030 0.000000 0.000295
  outer loop
    vertex 0.002356 0.031500 -0.070461
    vertex 0.002356 0.000000 -0.070461
    vertex 0.011726 0.031500 -0.069518
  endloop
endfacet
facet normal -0.000030 0.000000 0.000295
  outer loop
    vertex 0.011726 0.031500 -0.069518
    vertex 0.002356 0.000000 -0.070461
    vertex 0.011726 0.000000 -0.069518
  endloop
endfacet
facet normal -0.000069 0.000000 0.000289
  outer loop
    vertex 0.011726 0.031500 -0.069518
    vertex 0.011726 0.000000 -0.069518
    vertex 0.020887 0.031500 -0.067335
  endloop
endfacet
facet normal -0.000069 0.000000 0.000289
  outer loop
    vertex 0.020887 0.031500 -0.067335
    vertex 0.011726 0.000000 -0.069518
    vertex 0.020887 0.000000 -0.067335
  endloop
endfacet
facet normal -0.000107 0.000000 0.000277
  outer loop
    vertex 0.020887 0.031500 -0.067335
    vertex 0.020887 0.000000 -0.067335
    vertex 0.029676 0.031500 -0.063950
  endloop
endfacet
facet normal -0.000107 0.000000 0.000277
  outer loop
    vertex 0.029676 0.031500 -0.063950
    vertex 0.020887 0.000000 -0.067335
    vertex 0.029676 0.000000 -0.063950
  endloop
endfacet
facet normal -0.000143 0.000000 0.000260
  outer loop
    vertex 0.029676 0.031500 -0.063950
    vertex 0.029676 0.000000 -0.063950
    vertex 0.037935 0.031500 -0.059424
  endloop
endfacet
facet normal -0.000143 0.000000 0.000260
  outer loop
    vertex 0.037935 0.031500 -0.059424
    vertex 0.029676 0.000000 -0.063950
    vertex 0.037935 0.000000 -0.059424
  endloop
endfacet
facet normal -0.000176 0.000000 0.000239
  outer loop
    vertex 0.037935 0.031500 -0.059424
    vertex 0.037935 0.000000 -0.059424
    vertex 0.045517 0.031500 -0.053837
  endloop
endfacet
facet normal -0.000176 0.000000 0.000239
  outer loop
    vertex 0.045517 0.031500 -0.053837
    vertex 0.037935 0.000000 -0.059424
    vertex 0.045517 0.000000 -0.053837
  endloop
endfacet
facet normal -0.000206 0.000000 0.000213
  outer loop
    vertex 0.045517 0.031500 -0.053837
    vertex 0.045517 0.000000 -0.053837
    vertex 0.052286 0.031500 -0.047290
  endloop
endfacet
facet normal -0.000206 0.000000 0.000213
  outer loop
    vertex 0.052286 0.031500 -0.047290
    vertex 0.045517 0.000000 -0.053837
    vertex 0.052286 0.000000 -0.047290
  endloop
endfacet
facet normal -0.000233 0.000000 0.000184
  outer loop
    vertex 0.052286 0.031500 -0.047290
    vertex 0.052286 0.000000 -0.047290
    vertex 0.058123 0.031500 -0.039899
  endloop
endfacet
facet normal -0.000233 0.000000 0.000184
  outer loop
    vertex 0.058123 0.031500 -0.039899
    vertex 0.052286 0.000000 -0.047290
    vertex 0.058123 0.000000 -0.039899
  endloop
endfacet
facet normal -0.000255 0.000000 0.000151
  outer loop
    vertex 0.058123 0.031500 -0.039899
    vertex 0.058123 0.000000 -0.039899
    vertex 0.062923 0.031500 -0.031796
  endloop
endfacet
facet normal -0.000255 0.000000 0.000151
  outer loop
    vertex 0.062923 0.031500 -0.031796
    vertex 0.058123 0.000000 -0.039899
    vertex 0.062923 0.000000 -0.031796
  endloop
endfacet
facet normal -0.000273 0.000000 0.000116
  outer loop
    vertex 0.062923 0.031500 -0.031796
    vertex 0.062923 0.000000 -0.031796
    vertex 0.066599 0.031500 -0.023126
  endloop
endfacet
facet normal -0.000273 0.000000 0.000116
  outer loop
    vertex 0.066599 0.031500 -0.023126
    vertex 0.062923 0.000000 -0.031796
    vertex 0.066599 0.000000 -0.023126
  endloop
endfacet
facet normal -0.000286 0.000000 0.000078
  outer loop
    vertex 0.066599 0.031500 -0.023126
    vertex 0.066599 0.000000 -0.023126
    vertex 0.069087 0.031500 -0.014043
  endloop
endfacet
facet normal -0.000286 0.000000 0.000078
  outer loop
    vertex 0.069087 0.031500 -0.014043
    vertex 0.066599 0.000000 -0.023126
    vertex 0.069087 0.000000 -0.014043
  endloop
endfacet
facet normal -0.000294 0.000000 0.000040
  outer loop
    vertex 0.069087 0.031500 -0.014043
    vertex 0.069087 0.000000 -0.014043
    vertex 0.070343 0.031500 -0.004709
  endloop
endfacet
facet normal -0.000294 0.000000 0.000040
  outer loop
    vertex 0.070343 0.031500 -0.004709
    vertex 0.069087 0.000000 -0.014043
    vertex 0.070343 0.000000 -0.004709
  endloop
endfacet
facet normal -0.000297 0.000000 0.000000
  outer loop
    vertex 0.070343 0.031500 -0.004709
    vertex 0.070343 0.000000 -0.004709
    vertex 0.070343 0.031500 0.004709
  endloop
endfacet
facet normal -0.000297 -0.000000 0.000000
  outer loop
    vertex 0.070343 0.031500 0.004709
    vertex 0.070343 0.000000 -0.004709
    vertex 0.070343 0.000000 0.004709
  endloop
endfacet
facet normal -0.000294 -0.000000 -0.000040
  outer loop
    vertex 0.070343 0.031500 0.004709
    vertex 0.070343 0.000000 0.004709
    vertex 0.069087 0.031500 0.014043
  endloop
endfacet
facet normal -0.000294 -0.000000 -0.000040
  outer loop
    vertex 0.069087 0.031500 0.014043
    vertex 0.070343 0.000000 0.004709
    vertex 0.069087 0.000000 0.014043
  endloop
endfacet
facet normal -0.000286 -0.000000 -0.000078
  outer loop
    vertex 0.069087 0.031500 0.014043
    vertex 0.069087 0.000000 0.014043
    vertex 0.066599 0.031500 0.023126
  endloop
endfacet
facet normal -0.000286 -0.000000 -0.000078
  outer loop
    vertex 0.066599 0.031500 0.023126
    vertex 0.069087 0.000000 0.014043
    vertex 0.066599 0.000000 0.023126
  endloop
endfacet
facet normal -0.000273 -0.000000 -0.000116
  outer loop
    vertex 0.066599 0.031500 0.023126
    vertex 0.066599 0.000000 0.023126
    vertex 0.062923 0.031500 0.031796
  endloop
endfacet
facet normal -0.000273 -0.000000 -0.000116
  outer loop
    vertex 0.062923 0.031500 0.031796
    vertex 0.066599 0.000000 0.023126
    vertex 0.062923 0.000000 0.031796
  endloop
endfacet
facet normal -0.000255 -0.000000 -0.000151
  outer loop
    vertex 0.062923 0.031500 0.031796
    vertex 0.062923 0.000000 0.031796
    vertex 0.058123 0.031500 0.039899
  endloop
endfacet
facet normal -0.000255 -0.000000 -0.000151
  outer loop
    vertex 0.058123 0.031500 0.039899
    vertex 0.062923 0.000000 0.031796
    vertex 0.058123 0.000000 0.039899
  endloop
endfacet
facet normal -0.000233 -0.000000 -0.000184
  outer loop
    vertex 0.058123 0.031500 0.039899
    vertex 0.058123 0.000000 0.039899
    vertex 0.052286 0.031500 0.047290
  endloop
endfacet
facet normal -0.000233 -0.000000 -0.000184
  outer loop
    vertex 0.052286 0.031500 0.047290
    vertex 0.058123 0.000000 0.039899
    vertex 0.052286 0.000000 0.047290
  endloop
endfacet
facet normal -0.000206 -0.000000 -0.000213
  outer loop
    vertex 0.052286 0.031500 0.047290
    vertex 0.052286 0.000000 0.047290
    vertex 0.045517 0.031500 0.053837
  endloop
endfacet
facet normal -0.000206 -0.000000 -0.000213
  outer loop
    vertex 0.045517 0.031500 0.053837
    vertex 0.052286 0.000000 0.047290
    vertex 0.045517 0.000000 0.053837
  endloop
endfacet
facet normal -0.000176 -0.000000 -0.000239
  outer loop
    vertex 0.045517 0.031500 0.053837
    vertex 0.045517 0.000000 0.053837
    vertex 0.037935 0.031500 0.059424
  endloop
endfacet
facet normal -0.000176 -0.000000 -0.000239
  outer loop
    vertex 0.037935 0.031500 0.059424
    vertex 0.045517 0.000000 0.053837
    vertex 0.037935 0.000000 0.059424
  endloop
endfacet
facet normal -0.000143 -0.000000 -0.000260
  outer loop
    vertex 0.037935 0.031500 0.059424
    vertex 0.037935 0.000000 0.059424
    vertex 0.029676 0.031500 0.063950
  endloop
endfacet
facet normal -0.000143 -0.000000 -0.000260
  outer loop
    vertex 0.029676 0.031500 0.063950
    vertex 0.037935 0.000000 0.059424
    vertex 0.029676 0.000000 0.063950
  endloop
endfacet
facet normal -0.000107 -0.000000 -0.000277
  outer loop
    vertex 0.029676 0.031500 0.063950
    vertex 0.029676 0.000000 0.063950
    vertex 0.020887 0.031500 0.067335
  endloop
endfacet
facet normal -0.000107 -0.000000 -0.000277
  outer loop
    vertex 0.020887 0.031500 0.067335
    vertex 0.029676 0.000000 0.063950
    vertex 0.020887 0.000000 0.067335
  endloop
endfacet
facet normal -0.000069 -0.000000 -0.000289
  outer loop
    vertex 0.020887 0.031500 0.067335
    vertex 0.020887 0.000000 0.067335
    vertex 0.011726 0.031500 0.069518
  endloop
endfacet
facet normal -0.000069 -0.000000 -0.000289
  outer loop
    vertex 0.011726 0.031500 0.069518
    vertex 0.020887 0.000000 0.067335
    vertex 0.011726 0.000000 0.069518
  endloop
endfacet
facet normal -0.000030 -0.000000 -0.000295
  outer loop
    vertex 0.011726 0.031500 0.069518
    vertex 0.011726 0.000000 0.069518
    vertex 0.002356 0.031500 0.070461
  endloop
endfacet
facet normal -0.000030 -0.000000 -0.000295
  outer loop
    vertex 0.002356 0.031500 0.070461
    vertex 0.011726 0.000000 0.069518
    vertex 0.002356 0.000000 0.070461
  endloop
endfacet
facet normal 0.000010 0.000000 -0.000296
  outer loop
    vertex 0.002356 0.031500 0.070461
    vertex 0.002356 0.000000 0.070461
    vertex -0.007057 0.031500 0.070146
  endloop
endfacet
facet normal 0.000010 0.000000 -0.000296
  outer loop
    vertex -0.007057 0.031500 0.070146
    vertex 0.002356 0.000000 0.070461
    vertex -0.007057 0.000000 0.070146
  endloop
endfacet
facet normal 0.000049 0.000000 -0.000293
  outer loop
    vertex -0.007057 0.031500 0.070146
    vertex -0.007057 0.000000 0.070146
    vertex -0.016343 0.031500 0.068579
  endloop
endfacet
facet normal 0.000049 0.000000 -0.000293
  outer loop
    vertex -0.016343 0.031500 0.068579
    vertex -0.007057 0.000000 0.070146
    vertex -0.016343 0.000000 0.068579
  endloop
endfacet
facet normal 0.000088 0.000000 -0.000283
  outer loop
    vertex -0.016343 0.031500 0.068579
    vertex -0.016343 0.000000 0.068579
    vertex -0.025338 0.031500 0.065789
  endloop
endfacet
facet normal 0.000088 0.000000 -0.000283
  outer loop
    vertex -0.025338 0.031500 0.065789
    vertex -0.016343 0.000000 0.068579
    vertex -0.025338 0.000000 0.065789
  endloop
endfacet
facet normal 0.000125 0.000000 -0.000269
  outer loop
    vertex -0.025338 0.031500 0.065789
    vertex -0.025338 0.000000 0.065789
    vertex -0.033881 0.031500 0.061825
  endloop
endfacet
facet normal 0.000125 0.000000 -0.000269
  outer loop
    vertex -0.033881 0.031500 0.061825
    vertex -0.025338 0.000000 0.065789
    vertex -0.033881 0.000000 0.061825
  endloop
endfacet
facet normal 0.000160 0.000000 -0.000250
  outer loop
    vertex -0.033881 0.031500 0.061825
    vertex -0.033881 0.000000 0.061825
    vertex -0.041819 0.031500 0.056757
  endloop
endfacet
facet normal 0.000160 0.000000 -0.000250
  outer loop
    vertex -0.041819 0.031500 0.056757
    vertex -0.033881 0.000000 0.061825
    vertex -0.041819 0.000000 0.056757
  endloop
endfacet
facet normal 0.000192 0.000000 -0.000227
  outer loop
    vertex -0.041819 0.031500 0.056757
    vertex -0.041819 0.000000 0.056757
    vertex -0.049011 0.031500 0.050677
  endloop
endfacet
facet normal 0.000192 0.000000 -0.000227
  outer loop
    vertex -0.049011 0.031500 0.050677
    vertex -0.041819 0.000000 0.056757
    vertex -0.049011 0.000000 0.050677
  endloop
endfacet
facet normal 0.000220 0.000000 -0.000199
  outer loop
    vertex -0.049011 0.031500 0.050677
    vertex -0.049011 0.000000 0.050677
    vertex -0.055328 0.031500 0.043692
  endloop
endfacet
facet normal 0.000220 0.000000 -0.000199
  outer loop
    vertex -0.055328 0.031500 0.043692
    vertex -0.049011 0.000000 0.050677
    vertex -0.055328 0.000000 0.043692
  endloop
endfacet
facet normal 0.000245 0.000000 -0.000168
  outer loop
    vertex -0.055328 0.031500 0.043692
    vertex -0.055328 0.000000 0.043692
    vertex -0.060658 0.031500 0.035928
  endloop
endfacet
facet normal 0.000245 0.000000 -0.000168
  outer loop
    vertex -0.060658 0.031500 0.035928
    vertex -0.055328 0.000000 0.043692
    vertex -0.060658 0.000000 0.035928
  endloop
endfacet
facet normal 0.000265 0.000000 -0.000134
  outer loop
    vertex -0.060658 0.031500 0.035928
    vertex -0.060658 0.000000 0.035928
    vertex -0.064906 0.031500 0.027522
  endloop
endfacet
facet normal 0.000265 0.000000 -0.000134
  outer loop
    vertex -0.064906 0.031500 0.027522
    vertex -0.060658 0.000000 0.035928
    vertex -0.064906 0.000000 0.027522
  endloop
endfacet
facet normal 0.000280 0.000000 -0.000097
  outer loop
    vertex -0.064906 0.031500 0.027522
    vertex -0.064906 0.000000 0.027522
    vertex -0.067995 0.031500 0.018626
  endloop
endfacet
facet normal 0.000280 0.000000 -0.000097
  outer loop
    vertex -0.067995 0.031500 0.018626
    vertex -0.064906 0.000000 0.027522
    vertex -0.067995 0.000000 0.018626
  endloop
endfacet
facet normal 0.000291 0.000000 -0.000059
  outer loop
    vertex -0.067995 0.031500 0.018626
    vertex -0.067995 0.000000 0.018626
    vertex -0.069871 0.031500 0.009397
  endloop
endfacet
facet normal 0.000291 0.000000 -0.000059
  outer loop
    vertex -0.069871 0.031500 0.009397
    vertex -0.067995 0.000000 0.018626
    vertex -0.069871 0.000000 0.009397
  endloop
endfacet
facet normal -0.000481 -0.000000 -0.000020
  outer loop
    vertex -0.186876 0.031500 -0.015283
    vertex -0.186876 0.000000 -0.015283
    vertex -0.187500 0.031500 0.000000
  endloop
endfacet
facet normal -0.000481 -0.000000 -0.000020
  outer loop
    vertex -0.187500 0.031500 0.000000
    vertex -0.186876 0.000000 -0.015283
    vertex -0.187500 0.000000 0.000000
  endloop
endfacet
facet normal -0.000481 0.000000 0.000020
  outer loop
    vertex -0.187500 0.031500 0.000000
    vertex -0.187500 0.000000 0.000000
    vertex -0.186876 0.031500 0.015283
  endloop
endfacet
facet normal -0.000481 0.000000 0.000020
  outer loop
    vertex -0.186876 0.031500 0.015283
    vertex -0.187500 0.000000 0.000000
    vertex -0.186876 0.000000 0.015283
  endloop
endfacet
facet normal -0.000478 0.000000 0.000059
  outer loop
    vertex -0.186876 0.031500 0.015283
    vertex -0.186876 0.000000 0.015283
    vertex -0.185009 0.031500 0.030464
  endloop
endfacet
facet normal -0.000478 0.000000 0.000059
  outer loop
    vertex -0.185009 0.031500 0.030464
    vertex -0.186876 0.000000 0.015283
    vertex -0.185009 0.000000 0.030464
  endloop
endfacet
facet normal -0.000472 0.000000 0.000098
  outer loop
    vertex -0.185009 0.031500 0.030464
    vertex -0.185009 0.000000 0.030464
    vertex -0.181910 0.031500 0.045443
  endloop
endfacet
facet normal -0.000472 0.000000 0.000098
  outer loop
    vertex -0.181910 0.031500 0.045443
    vertex -0.185009 0.000000 0.030464
    vertex -0.181910 0.000000 0.045443
  endloop
endfacet
facet normal -0.000462 0.000000 0.000136
  outer loop
    vertex -0.181910 0.031500 0.045443
    vertex -0.181910 0.000000 0.045443
    vertex -0.177601 0.031500 0.060119
  endloop
endfacet
facet normal -0.000462 0.000000 0.000136
  outer loop
    vertex -0.177601 0.031500 0.060119
    vertex -0.181910 0.000000 0.045443
    vertex -0.177601 0.000000 0.060119
  endloop
endfacet
facet normal -0.000450 0.000000 0.000173
  outer loop
    vertex -0.177601 0.031500 0.060119
    vertex -0.177601 0.000000 0.060119
    vertex -0.172109 0.031500 0.074395
  endloop
endfacet
facet normal -0.000450 0.000000 0.000173
  outer loop
    vertex -0.172109 0.031500 0.074395
    vertex -0.177601 0.000000 0.060119
    vertex -0.172109 0.000000 0.074395
  endloop
endfacet
facet normal -0.000434 0.000000 0.000209
  outer loop
    vertex -0.172109 0.031500 0.074395
    vertex -0.172109 0.000000 0.074395
    vertex -0.165473 0.031500 0.088176
  endloop
endfacet
facet normal -0.000434 0.000000 0.000209
  outer loop
    vertex -0.165473 0.031500 0.088176
    vertex -0.172109 0.000000 0.074395
    vertex -0.165473 0.000000 0.088176
  endloop
endfacet
facet normal -0.000416 0.000000 0.000244
  outer loop
    vertex -0.165473 0.031500 0.088176
    vertex -0.165473 0.000000 0.088176
    vertex -0.157735 0.031500 0.101370
  endloop
endfacet
facet normal -0.000416 0.000000 0.000244
  outer loop
    vertex -0.157735 0.031500 0.101370
    vertex -0.165473 0.000000 0.088176
    vertex -0.157735 0.000000 0.101370
  endloop
endfacet
facet normal -0.000394 0.000000 0.000277
  outer loop
    vertex -0.157735 0.031500 0.101370
    vertex -0.157735 0.000000 0.101370
    vertex -0.148948 0.031500 0.113890
  endloop
endfacet
facet normal -0.000394 0.000000 0.000277
  outer loop
    vertex -0.148948 0.031500 0.113890
    vertex -0.157735 0.000000 0.101370
    vertex -0.148948 0.000000 0.113890
  endloop
endfacet
facet normal -0.000370 0.000000 0.000308
  outer loop
    vertex -0.148948 0.031500 0.113890
    vertex -0.148948 0.000000 0.113890
    vertex -0.139169 0.031500 0.125651
  endloop
endfacet
facet normal -0.000370 0.000000 0.000308
  outer loop
    vertex -0.139169 0.031500 0.125651
    vertex -0.148948 0.000000 0.113890
    vertex -0.139169 0.000000 0.125651
  endloop
endfacet
facet normal -0.000344 0.000000 0.000337
  outer loop
    vertex -0.139169 0.031500 0.125651
    vertex -0.139169 0.000000 0.125651
    vertex -0.128464 0.031500 0.136577
  endloop
endfacet
facet normal -0.000344 0.000000 0.000337
  outer loop
    vertex -0.128464 0.031500 0.136577
    vertex -0.139169 0.000000 0.125651
    vertex -0.128464 0.000000 0.136577
  endloop
endfacet
facet normal -0.000316 0.000000 0.000364
  outer loop
    vertex -0.128464 0.031500 0.136577
    vertex -0.128464 0.000000 0.136577
    vertex -0.116904 0.031500 0.146593
  endloop
endfacet
facet normal -0.000316 0.000000 0.000364
  outer loop
    vertex -0.116904 0.031500 0.146593
    vertex -0.128464 0.000000 0.136577
    vertex -0.116904 0.000000 0.146593
  endloop
endfacet
facet normal -0.000285 0.000000 0.000389
  outer loop
    vertex -0.116904 0.031500 0.146593
    vertex -0.116904 0.000000 0.146593
    vertex -0.104567 0.031500 0.155634
  endloop
endfacet
facet normal -0.000285 0.000000 0.000389
  outer loop
    vertex -0.104567 0.031500 0.155634
    vertex -0.116904 0.000000 0.146593
    vertex -0.104567 0.000000 0.155634
  endloop
endfacet
facet normal -0.000252 0.000000 0.000411
  outer loop
    vertex -0.104567 0.031500 0.155634
    vertex -0.104567 0.000000 0.155634
    vertex -0.091533 0.031500 0.163640
  endloop
endfacet
facet normal -0.000252 0.000000 0.000411
  outer loop
    vertex -0.091533 0.031500 0.163640
    vertex -0.104567 0.000000 0.155634
    vertex -0.091533 0.000000 0.163640
  endloop
endfacet
facet normal -0.000218 0.000000 0.000430
  outer loop
    vertex -0.091533 0.031500 0.163640
    vertex -0.091533 0.000000 0.163640
    vertex -0.077890 0.031500 0.170556
  endloop
endfacet
facet normal -0.000218 0.000000 0.000430
  outer loop
    vertex -0.077890 0.031500 0.170556
    vertex -0.091533 0.000000 0.163640
    vertex -0.077890 0.000000 0.170556
  endloop
endfacet
facet normal -0.000182 0.000000 0.000446
  outer loop
    vertex -0.077890 0.031500 0.170556
    vertex -0.077890 0.000000 0.170556
    vertex -0.063729 0.031500 0.176337
  endloop
endfacet
facet normal -0.000182 0.000000 0.000446
  outer loop
    vertex -0.063729 0.031500 0.176337
    vertex -0.077890 0.000000 0.170556
    vertex -0.063729 0.000000 0.176337
  endloop
endfacet
facet normal -0.000145 0.000000 0.000459
  outer loop
    vertex -0.063729 0.031500 0.176337
    vertex -0.063729 0.000000 0.176337
    vertex -0.049144 0.031500 0.180945
  endloop
endfacet
facet normal -0.000145 0.000000 0.000459
  outer loop
    vertex -0.049144 0.031500 0.180945
    vertex -0.063729 0.000000 0.176337
    vertex -0.049144 0.000000 0.180945
  endloop
endfacet
facet normal -0.000107 0.000000 0.000470
  outer loop
    vertex -0.049144 0.031500 0.180945
    vertex -0.049144 0.000000 0.180945
    vertex -0.034232 0.031500 0.184349
  endloop
endfacet
facet normal -0.000107 0.000000 0.000470
  outer loop
    vertex -0.034232 0.031500 0.184349
    vertex -0.049144 0.000000 0.180945
    vertex -0.034232 0.000000 0.184349
  endloop
endfacet
facet normal -0.000069 0.000000 0.000477
  outer loop
    vertex -0.034232 0.031500 0.184349
    vertex -0.034232 0.000000 0.184349
    vertex -0.019092 0.031500 0.186525
  endloop
endfacet
facet normal -0.000069 0.000000 0.000477
  outer loop
    vertex -0.019092 0.031500 0.186525
    vertex -0.034232 0.000000 0.184349
    vertex -0.019092 0.000000 0.186525
  endloop
endfacet
facet normal -0.000029 0.000000 0.000481
  outer loop
    vertex -0.019092 0.031500 0.186525
    vertex -0.019092 0.000000 0.186525
    vertex -0.003825 0.031500 0.187461
  endloop
endfacet
facet normal -0.000029 0.000000 0.000481
  outer loop
    vertex -0.003825 0.031500 0.187461
    vertex -0.019092 0.000000 0.186525
    vertex -0.003825 0.000000 0.187461
  endloop
endfacet
facet normal 0.000010 0.000000 0.000482
  outer loop
    vertex -0.003825 0.031500 0.187461
    vertex -0.003825 0.000000 0.187461
    vertex 0.011468 0.031500 0.187149
  endloop
endfacet
facet normal 0.000010 0.000000 0.000482
  outer loop
    vertex 0.011468 0.031500 0.187149
    vertex -0.003825 0.000000 0.187461
    vertex 0.011468 0.000000 0.187149
  endloop
endfacet
facet normal 0.000049 0.000000 0.000479
  outer loop
    vertex 0.011468 0.031500 0.187149
    vertex 0.011468 0.000000 0.187149
    vertex 0.026684 0.031500 0.185592
  endloop
endfacet
facet normal 0.000049 0.000000 0.000479
  outer loop
    vertex 0.026684 0.031500 0.185592
    vertex 0.011468 0.000000 0.187149
    vertex 0.026684 0.000000 0.185592
  endloop
endfacet
facet normal 0.000088 0.000000 0.000474
  outer loop
    vertex 0.026684 0.031500 0.185592
    vertex 0.026684 0.000000 0.185592
    vertex 0.041723 0.031500 0.182799
  endloop
endfacet
facet normal 0.000088 0.000000 0.000474
  outer loop
    vertex 0.041723 0.031500 0.182799
    vertex 0.026684 0.000000 0.185592
    vertex 0.041723 0.000000 0.182799
  endloop
endfacet
facet normal 0.000126 0.000000 0.000465
  outer loop
    vertex 0.041723 0.031500 0.182799
    vertex 0.041723 0.000000 0.182799
    vertex 0.056484 0.031500 0.178790
  endloop
endfacet
facet normal 0.000126 0.000000 0.000465
  outer loop
    vertex 0.056484 0.031500 0.178790
    vertex 0.041723 0.000000 0.182799
    vertex 0.056484 0.000000 0.178790
  endloop
endfacet
facet normal 0.000164 0.000000 0.000453
  outer loop
    vertex 0.056484 0.031500 0.178790
    vertex 0.056484 0.000000 0.178790
    vertex 0.070869 0.031500 0.173591
  endloop
endfacet
facet normal 0.000164 0.000000 0.000453
  outer loop
    vertex 0.070869 0.031500 0.173591
    vertex 0.056484 0.000000 0.178790
    vertex 0.070869 0.000000 0.173591
  endloop
endfacet
facet normal 0.000200 0.000000 0.000438
  outer loop
    vertex 0.070869 0.031500 0.173591
    vertex 0.070869 0.000000 0.173591
    vertex 0.084782 0.031500 0.167237
  endloop
endfacet
facet normal 0.000200 0.000000 0.000438
  outer loop
    vertex 0.084782 0.031500 0.167237
    vertex 0.070869 0.000000 0.173591
    vertex 0.084782 0.000000 0.167237
  endloop
endfacet
facet normal 0.000235 0.000000 0.000421
  outer loop
    vertex 0.084782 0.031500 0.167237
    vertex 0.084782 0.000000 0.167237
    vertex 0.098132 0.031500 0.159770
  endloop
endfacet
facet normal 0.000235 0.000000 0.000421
  outer loop
    vertex 0.098132 0.031500 0.159770
    vertex 0.084782 0.000000 0.167237
    vertex 0.098132 0.000000 0.159770
  endloop
endfacet
facet normal 0.000269 0.000000 0.000400
  outer loop
    vertex 0.098132 0.031500 0.159770
    vertex 0.098132 0.000000 0.159770
    vertex 0.110828 0.031500 0.151240
  endloop
endfacet
facet normal 0.000269 0.000000 0.000400
  outer loop
    vertex 0.110828 0.031500 0.151240
    vertex 0.098132 0.000000 0.159770
    vertex 0.110828 0.000000 0.151240
  endloop
endfacet
facet normal 0.000300 0.000000 0.000377
  outer loop
    vertex 0.110828 0.031500 0.151240
    vertex 0.110828 0.000000 0.151240
    vertex 0.122786 0.031500 0.141703
  endloop
endfacet
facet normal 0.000300 0.000000 0.000377
  outer loop
    vertex 0.122786 0.031500 0.141703
    vertex 0.110828 0.000000 0.151240
    vertex 0.122786 0.000000 0.141703
  endloop
endfacet
facet normal 0.000330 0.000000 0.000351
  outer loop
    vertex 0.122786 0.031500 0.141703
    vertex 0.122786 0.000000 0.141703
    vertex 0.133928 0.031500 0.131223
  endloop
endfacet
facet normal 0.000330 0.000000 0.000351
  outer loop
    vertex 0.133928 0.031500 0.131223
    vertex 0.122786 0.000000 0.141703
    vertex 0.133928 0.000000 0.131223
  endloop
endfacet
facet normal 0.000358 0.000000 0.000323
  outer loop
    vertex 0.133928 0.031500 0.131223
    vertex 0.133928 0.000000 0.131223
    vertex 0.144178 0.031500 0.119870
  endloop
endfacet
facet normal 0.000358 0.000000 0.000323
  outer loop
    vertex 0.144178 0.031500 0.119870
    vertex 0.133928 0.000000 0.131223
    vertex 0.144178 0.000000 0.119870
  endloop
endfacet
facet normal 0.000383 0.000000 0.000293
  outer loop
    vertex 0.144178 0.031500 0.119870
    vertex 0.144178 0.000000 0.119870
    vertex 0.153469 0.031500 0.107720
  endloop
endfacet
facet normal 0.000383 0.000000 0.000293
  outer loop
    vertex 0.153469 0.031500 0.107720
    vertex 0.144178 0.000000 0.119870
    vertex 0.153469 0.000000 0.107720
  endloop
endfacet
facet normal 0.000405 0.000000 0.000260
  outer loop
    vertex 0.153469 0.031500 0.107720
    vertex 0.153469 0.000000 0.107720
    vertex 0.161739 0.031500 0.094852
  endloop
endfacet
facet normal 0.000405 0.000000 0.000260
  outer loop
    vertex 0.161739 0.031500 0.094852
    vertex 0.153469 0.000000 0.107720
    vertex 0.161739 0.000000 0.094852
  endloop
endfacet
facet normal 0.000425 0.000000 0.000227
  outer loop
    vertex 0.161739 0.031500 0.094852
    vertex 0.161739 0.000000 0.094852
    vertex 0.168932 0.031500 0.081353
  endloop
endfacet
facet normal 0.000425 0.000000 0.000227
  outer loop
    vertex 0.168932 0.031500 0.081353
    vertex 0.161739 0.000000 0.094852
    vertex 0.168932 0.000000 0.081353
  endloop
endfacet
facet normal 0.000442 0.000000 0.000191
  outer loop
    vertex 0.168932 0.031500 0.081353
    vertex 0.168932 0.000000 0.081353
    vertex 0.175001 0.031500 0.067313
  endloop
endfacet
facet normal 0.000442 0.000000 0.000191
  outer loop
    vertex 0.175001 0.031500 0.067313
    vertex 0.168932 0.000000 0.081353
    vertex 0.175001 0.000000 0.067313
  endloop
endfacet
facet normal 0.000456 0.000000 0.000154
  outer loop
    vertex 0.175001 0.031500 0.067313
    vertex 0.175001 0.000000 0.067313
    vertex 0.179905 0.031500 0.052825
  endloop
endfacet
facet normal 0.000456 0.000000 0.000154
  outer loop
    vertex 0.179905 0.031500 0.052825
    vertex 0.175001 0.000000 0.067313
    vertex 0.179905 0.000000 0.052825
  endloop
endfacet
facet normal 0.000467 0.000000 0.000117
  outer loop
    vertex 0.179905 0.031500 0.052825
    vertex 0.179905 0.000000 0.052825
    vertex 0.183612 0.031500 0.037985
  endloop
endfacet
facet normal 0.000467 0.000000 0.000117
  outer loop
    vertex 0.183612 0.031500 0.037985
    vertex 0.179905 0.000000 0.052825
    vertex 0.183612 0.000000 0.037985
  endloop
endfacet
facet normal 0.000475 0.000000 0.000078
  outer loop
    vertex 0.183612 0.031500 0.037985
    vertex 0.183612 0.000000 0.037985
    vertex 0.186097 0.031500 0.022893
  endloop
endfacet
facet normal 0.000475 0.000000 0.000078
  outer loop
    vertex 0.186097 0.031500 0.022893
    vertex 0.183612 0.000000 0.037985
    vertex 0.186097 0.000000 0.022893
  endloop
endfacet
facet normal 0.000480 0.000000 0.000039
  outer loop
    vertex 0.186097 0.031500 0.022893
    vertex 0.186097 0.000000 0.022893
    vertex 0.187344 0.031500 0.007648
  endloop
endfacet
facet normal 0.000480 0.000000 0.000039
  outer loop
    vertex 0.187344 0.031500 0.007648
    vertex 0.186097 0.000000 0.022893
    vertex 0.187344 0.000000 0.007648
  endloop
endfacet
facet normal 0.000482 0.000000 0.000000
  outer loop
    vertex 0.187344 0.031500 0.007648
    vertex 0.187344 0.000000 0.007648
    vertex 0.187344 0.031500 -0.007648
  endloop
endfacet
facet normal 0.000482 0.000000 0.000000
  outer loop
    vertex 0.187344 0.031500 -0.007648
    vertex 0.187344 0.000000 0.007648
    vertex 0.187344 0.000000 -0.007648
  endloop
endfacet
facet normal 0.000480 0.000000 -0.000039
  outer loop
    vertex 0.187344 0.031500 -0.007648
    vertex 0.187344 0.000000 -0.007648
    vertex 0.186097 0.031500 -0.022893
  endloop
endfacet
facet normal 0.000480 0.000000 -0.000039
  outer loop
    vertex 0.186097 0.031500 -0.022893
    vertex 0.187344 0.000000 -0.007648
    vertex 0.186097 0.000000 -0.022893
  endloop
endfacet
facet normal 0.000475 0.000000 -0.000078
  outer loop
    vertex 0.186097 0.031500 -0.022893
    vertex 0.186097 0.000000 -0.022893
    vertex 0.183612 0.031500 -0.037985
  endloop
endfacet
facet normal 0.000475 0.000000 -0.000078
  outer loop
    vertex 0.183612 0.031500 -0.037985
    vertex 0.186097 0.000000 -0.022893
    vertex 0.183612 0.000000 -0.037985
  endloop
endfacet
facet normal 0.000467 0.000000 -0.000117
  outer loop
    vertex 0.183612 0.031500 -0.037985
    vertex 0.183612 0.000000 -0.037985
    vertex 0.179905 0.031500 -0.052825
  endloop
endfacet
facet normal 0.000467 0.000000 -0.000117
  outer loop
    vertex 0.179905 0.031500 -0.052825
    vertex 0.183612 0.000000 -0.037985
    vertex 0.179905 0.000000 -0.052825
  endloop
endfacet
facet normal 0.000456 0.000000 -0.000154
  outer loop
    vertex 0.179905 0.031500 -0.052825
    vertex 0.179905 0.000000 -0.052825
    vertex 0.175001 0.031500 -0.067313
  endloop
endfacet
facet normal 0.000456 0.000000 -0.000154
  outer loop
    vertex 0.175001 0.031500 -0.067313
    vertex 0.179905 0.000000 -0.052825
    vertex 0.175001 0.000000 -0.067313
  endloop
endfacet
facet normal 0.000442 0.000000 -0.000191
  outer loop
    vertex 0.175001 0.031500 -0.067313
    vertex 0.175001 0.000000 -0.067313
    vertex 0.168932 0.031500 -0.081353
  endloop
endfacet
facet normal 0.000442 0.000000 -0.000191
  outer loop
    vertex 0.168932 0.031500 -0.081353
    vertex 0.175001 0.000000 -0.067313
    vertex 0.168932 0.000000 -0.081353
  endloop
endfacet
facet normal 0.000425 0.000000 -0.000227
  outer loop
    vertex 0.168932 0.031500 -0.081353
    vertex 0.168932 0.000000 -0.081353
    vertex 0.161739 0.031500 -0.094852
  endloop
endfacet
facet normal 0.000425 0.000000 -0.000227
  outer loop
    vertex 0.161739 0.031500 -0.094852
    vertex 0.168932 0.000000 -0.081353
    vertex 0.161739 0.000000 -0.094852
  endloop
endfacet
facet normal 0.000405 0.000000 -0.000260
  outer loop
    vertex 0.161739 0.031500 -0.094852
    vertex 0.161739 0.000000 -0.094852
    vertex 0.153469 0.031500 -0.107720
  endloop
endfacet
facet normal 0.000405 0.000000 -0.000260
  outer loop
    vertex 0.153469 0.031500 -0.107720
    vertex 0.161739 0.000000 -0.094852
    vertex 0.153469 0.000000 -0.107720
  endloop
endfacet
facet normal 0.000383 0.000000 -0.000293
  outer loop
    vertex 0.153469 0.031500 -0.107720
    vertex 0.153469 0.000000 -0.107720
    vertex 0.144178 0.031500 -0.119870
  endloop
endfacet
facet normal 0.000383 0.000000 -0.000293
  outer loop
    vertex 0.144178 0.031500 -0.119870
    vertex 0.153469 0.000000 -0.107720
    vertex 0.144178 0.000000 -0.119870
  endloop
endfacet
facet normal 0.000358 0.000000 -0.000323
  outer loop
    vertex 0.144178 0.031500 -0.119870
    vertex 0.144178 0.000000 -0.119870
    vertex 0.133928 0.031500 -0.131223
  endloop
endfacet
facet normal 0.000358 0.000000 -0.000323
  outer loop
    vertex 0.133928 0.031500 -0.131223
    vertex 0.144178 0.000000 -0.119870
    vertex 0.133928 0.000000 -0.131223
  endloop
endfacet
facet normal 0.000330 0.000000 -0.000351
  outer loop
    vertex 0.133928 0.031500 -0.131223
    vertex 0.133928 0.000000 -0.131223
    vertex 0.122786 0.031500 -0.141703
  endloop
endfacet
facet normal 0.000330 0.000000 -0.000351
  outer loop
    vertex 0.122786 0.031500 -0.141703
    vertex 0.133928 0.000000 -0.131223
    vertex 0.122786 0.000000 -0.141703
  endloop
endfacet
facet normal 0.000300 0.000000 -0.000377
  outer loop
    vertex 0.122786 0.031500 -0.141703
    vertex 0.122786 0.000000 -0.141703
    vertex 0.110828 0.031500 -0.151240
  endloop
endfacet
facet normal 0.000300 0.000000 -0.000377
  outer loop
    vertex 0.110828 0.031500 -0.151240
    vertex 0.122786 0.000000 -0.141703
    vertex 0.110828 0.000000 -0.151240
  endloop
endfacet
facet normal 0.000269 0.000000 -0.000400
  outer loop
    vertex 0.110828 0.031500 -0.151240
    vertex 0.110828 0.000000 -0.151240
    vertex 0.098132 0.031500 -0.159770
  endloop
endfacet
facet normal 0.000269 0.000000 -0.000400
  outer loop
    vertex 0.098132 0.031500 -0.159770
    vertex 0.110828 0.000000 -0.151240
    vertex 0.098132 0.000000 -0.159770
  endloop
endfacet
facet normal 0.000235 0.000000 -0.000421
  outer loop
    vertex 0.098132 0.031500 -0.159770
    vertex 0.098132 0.000000 -0.159770
    vertex 0.084782 0.031500 -0.167237
  endloop
endfacet
facet normal 0.000235 0.000000 -0.000421
  outer loop
    vertex 0.084782 0.031500 -0.167237
    vertex 0.098132 0.000000 -0.159770
    vertex 0.084782 0.000000 -0.167237
  endloop
endfacet
facet normal 0.000200 0.000000 -0.000438
  outer loop
    vertex 0.084782 0.031500 -0.167237
    vertex 0.084782 0.000000 -0.167237
    vertex 0.070869 0.031500 -0.173591
  endloop
endfacet
facet normal 0.000200 0.000000 -0.000438
  outer loop
    vertex 0.070869 0.031500 -0.173591
    vertex 0.084782 0.000000 -0.167237
    vertex 0.070869 0.000000 -0.173591
  endloop
endfacet
facet normal 0.000164 0.000000 -0.000453
  outer loop
    vertex 0.070869 0.031500 -0.173591
    vertex 0.070869 0.000000 -0.173591
    vertex 0.056484 0.031500 -0.178790
  endloop
endfacet
facet normal 0.000164 0.000000 -0.000453
  outer loop
    vertex 0.056484 0.031500 -0.178790
    vertex 0.070869 0.000000 -0.173591
    vertex 0.056484 0.000000 -0.178790
  endloop
endfacet
facet normal 0.000126 0.000000 -0.000465
  outer loop
    vertex 0.056484 0.031500 -0.178790
    vertex 0.056484 0.000000 -0.178790
    vertex 0.041723 0.031500 -0.182799
  endloop
endfacet
facet normal 0.000126 0.000000 -0.000465
  outer loop
    vertex 0.041723 0.031500 -0.182799
    vertex 0.056484 0.000000 -0.178790
    vertex 0.041723 0.000000 -0.182799
  endloop
endfacet
facet normal 0.000088 0.000000 -0.000474
  outer loop
    vertex 0.041723 0.031500 -0.182799
    vertex 0.041723 0.000000 -0.182799
    vertex 0.026684 0.031500 -0.185592
  endloop
endfacet
facet normal 0.000088 0.000000 -0.000474
  outer loop
    vertex 0.026684 0.031500 -0.185592
    vertex 0.041723 0.000000 -0.182799
    vertex 0.026684 0.000000 -0.185592
  endloop
endfacet
facet normal 0.000049 0.000000 -0.000479
  outer loop
    vertex 0.026684 0.031500 -0.185592
    vertex 0.026684 0.000000 -0.185592
    vertex 0.011468 0.031500 -0.187149
  endloop
endfacet
facet normal 0.000049 0.000000 -0.000479
  outer loop
    vertex 0.011468 0.031500 -0.187149
    vertex 0.026684 0.000000 -0.185592
    vertex 0.011468 0.000000 -0.187149
  endloop
endfacet
facet normal 0.000010 0.000000 -0.000482
  outer loop
    vertex 0.011468 0.031500 -0.187149
    vertex 0.011468 0.000000 -0.187149
    vertex -0.003825 0.031500 -0.187461
  endloop
endfacet
facet normal 0.000010 0.000000 -0.000482
  outer loop
    vertex -0.003825 0.031500 -0.187461
    vertex 0.011468 0.000000 -0.187149
    vertex -0.003825 0.000000 -0.187461
  endloop
endfacet
facet normal -0.000029 -0.000000 -0.000481
  outer loop
    vertex -0.003825 0.031500 -0.187461
    vertex -0.003825 0.000000 -0.187461
    vertex -0.019092 0.031500 -0.186525
  endloop
endfacet
facet normal -0.000029 -0.000000 -0.000481
  outer loop
    vertex -0.019092 0.031500 -0.186525
    vertex -0.003825 0.000000 -0.187461
    vertex -0.019092 0.000000 -0.186525
  endloop
endfacet
facet normal -0.000069 -0.000000 -0.000477
  outer loop
    vertex -0.019092 0.031500 -0.186525
    vertex -0.019092 0.000000 -0.186525
    vertex -0.034232 0.031500 -0.184349
  endloop
endfacet
facet normal -0.000069 -0.000000 -0.000477
  outer loop
    vertex -0.034232 0.031500 -0.184349
    vertex -0.019092 0.000000 -0.186525
    vertex -0.034232 0.000000 -0.184349
  endloop
endfacet
facet normal -0.000107 -0.000000 -0.000470
  outer loop
    vertex -0.034232 0.031500 -0.184349
    vertex -0.034232 0.000000 -0.184349
    vertex -0.049144 0.031500 -0.180945
  endloop
endfacet
facet normal -0.000107 -0.000000 -0.000470
  outer loop
    vertex -0.049144 0.031500 -0.180945
    vertex -0.034232 0.000000 -0.184349
    vertex -0.049144 0.000000 -0.180945
  endloop
endfacet
facet normal -0.000145 -0.000000 -0.000459
  outer loop
    vertex -0.049144 0.031500 -0.180945
    vertex -0.049144 0.000000 -0.180945
    vertex -0.063729 0.031500 -0.176337
  endloop
endfacet
facet normal -0.000145 -0.000000 -0.000459
  outer loop
    vertex -0.063729 0.031500 -0.176337
    vertex -0.049144 0.000000 -0.180945
    vertex -0.063729 0.000000 -0.176337
  endloop
endfacet
facet normal -0.000182 -0.000000 -0.000446
  outer loop
    vertex -0.063729 0.031500 -0.176337
    vertex -0.063729 0.000000 -0.176337
    vertex -0.077890 0.031500 -0.170556
  endloop
endfacet
facet normal -0.000182 -0.000000 -0.000446
  outer loop
    vertex -0.077890 0.031500 -0.170556
    vertex -0.063729 0.000000 -0.176337
    vertex -0.077890 0.000000 -0.170556
  endloop
endfacet
facet normal -0.000218 -0.000000 -0.000430
  outer loop
    vertex -0.077890 0.031500 -0.170556
    vertex -0.077890 0.000000 -0.170556
    vertex -0.091533 0.031500 -0.163640
  endloop
endfacet
facet normal -0.000218 -0.000000 -0.000430
  outer loop
    vertex -0.091533 0.031500 -0.163640
    vertex -0.077890 0.000000 -0.170556
    vertex -0.091533 0.000000 -0.163640
  endloop
endfacet
facet normal -0.000252 -0.000000 -0.000411
  outer loop
    vertex -0.091533 0.031500 -0.163640
    vertex -0.091533 0.000000 -0.163640
    vertex -0.104567 0.031500 -0.155634
  endloop
endfacet
facet normal -0.000252 -0.000000 -0.000411
  outer loop
    vertex -0.104567 0.031500 -0.155634
    vertex -0.091533 0.000000 -0.163640
    vertex -0.104567 0.000000 -0.155634
  endloop
endfacet
facet normal -0.000285 -0.000000 -0.000389
  outer loop
    vertex -0.104567 0.031500 -0.155634
    vertex -0.104567 0.000000 -0.155634
    vertex -0.116904 0.031500 -0.146593
  endloop
endfacet
facet normal -0.000285 -0.000000 -0.000389
  outer loop
    vertex -0.116904 0.031500 -0.146593
    vertex -0.104567 0.000000 -0.155634
    vertex -0.116904 0.000000 -0.146593
  endloop
endfacet
facet normal -0.000316 -0.000000 -0.000364
  outer loop
    vertex -0.116904 0.031500 -0.146593
    vertex -0.116904 0.000000 -0.146593
    vertex -0.128464 0.031500 -0.136577
  endloop
endfacet
facet normal -0.000316 -0.000000 -0.000364
  outer loop
    vertex -0.128464 0.031500 -0.136577
    vertex -0.116904 0.000000 -0.146593
    vertex -0.128464 0.000000 -0.136577
  endloop
endfacet
facet normal -0.000344 -0.000000 -0.000337
  outer loop
    vertex -0.128464 0.031500 -0.136577
    vertex -0.128464 0.000000 -0.136577
    vertex -0.139169 0.031500 -0.125651
  endloop
endfacet
facet normal -0.000344 -0.000000 -0.000337
  outer loop
    vertex -0.139169 0.031500 -0.125651
    vertex -0.128464 0.000000 -0.136577
    vertex -0.139169 0.000000 -0.125651
  endloop
endfacet
facet normal -0.000370 -0.000000 -0.000308
  outer loop
    vertex -0.139169 0.031500 -0.125651
    vertex -0.139169 0.000000 -0.125651
    vertex -0.148948 0.031500 -0.113890
  endloop
endfacet
facet normal -0.000370 -0.000000 -0.000308
  outer loop
    vertex -0.148948 0.031500 -0.113890
    vertex -0.139169 0.000000 -0.125651
    vertex -0.148948 0.000000 -0.113890
  endloop
endfacet
facet normal -0.000394 -0.000000 -0.000277
  outer loop
    vertex -0.148948 0.031500 -0.113890
    vertex -0.148948 0.000000 -0.113890
    vertex -0.157735 0.031500 -0.101370
  endloop
endfacet
facet normal -0.000394 -0.000000 -0.000277
  outer loop
    vertex -0.157735 0.031500 -0.101370
    vertex -0.148948 0.000000 -0.113890
    vertex -0.157735 0.000000 -0.101370
  endloop
endfacet
facet normal -0.000416 -0.000000 -0.000244
  outer loop
    vertex -0.157735 0.031500 -0.101370
    vertex -0.157735 0.000000 -0.101370
    vertex -0.165473 0.031500 -0.088176
  endloop
endfacet
facet normal -0.000416 -0.000000 -0.000244
  outer loop
    vertex -0.165473 0.031500 -0.088176
    vertex -0.157735 0.000000 -0.101370
    vertex -0.165473 0.000000 -0.088176
  endloop
endfacet
facet normal -0.000434 -0.000000 -0.000209
  outer loop
    vertex -0.165473 0.031500 -0.088176
    vertex -0.165473 0.000000 -0.088176
    vertex -0.172109 0.031500 -0.074395
  endloop
endfacet
facet normal -0.000434 -0.000000 -0.000209
  outer loop
    vertex -0.172109 0.031500 -0.074395
    vertex -0.165473 0.000000 -0.088176
    vertex -0.172109 0.000000 -0.074395
  endloop
endfacet
facet normal -0.000450 -0.000000 -0.000173
  outer loop
    vertex -0.172109 0.031500 -0.074395
    vertex -0.172109 0.000000 -0.074395
    vertex -0.177601 0.031500 -0.060119
  endloop
endfacet
facet normal -0.000450 -0.000000 -0.000173
  outer loop
    vertex -0.177601 0.031500 -0.060119
    vertex -0.172109 0.000000 -0.074395
    vertex -0.177601 0.000000 -0.060119
  endloop
endfacet
facet normal -0.000462 -0.000000 -0.000136
  outer loop
    vertex -0.177601 0.031500 -0.060119
    vertex -0.177601 0.000000 -0.060119
    vertex -0.181910 0.031500 -0.045443
  endloop
endfacet
facet normal -0.000462 -0.000000 -0.000136
  outer loop
    vertex -0.181910 0.031500 -0.045443
    vertex -0.177601 0.000000 -0.060119
    vertex -0.181910 0.000000 -0.045443
  endloop
endfacet
facet normal -0.000472 -0.000000 -0.000098
  outer loop
    vertex -0.181910 0.031500 -0.045443
    vertex -0.181910 0.000000 -0.045443
    vertex -0.185009 0.031500 -0.030464
  endloop
endfacet
facet normal -0.000472 -0.000000 -0.000098
  outer loop
    vertex -0.185009 0.031500 -0.030464
    vertex -0.181910 0.000000 -0.045443
    vertex -0.185009 0.000000 -0.030464
  endloop
endfacet
facet normal -0.000478 -0.000000 -0.000059
  outer loop
    vertex -0.185009 0.031500 -0.030464
    vertex -0.185009 0.000000 -0.030464
    vertex -0.186876 0.031500 -0.015283
  endloop
endfacet
facet normal -0.000478 -0.000000 -0.000059
  outer loop
    vertex -0.186876 0.031500 -0.015283
    vertex -0.185009 0.000000 -0.030464
    vertex -0.186876 0.000000 -0.015283
  endloop
endfacet
facet normal 0.000000 0.001103 0.000000
  outer loop
    vertex -0.069871 0.031500 -0.009397
    vertex -0.186876 0.031500 -0.015283
    vertex -0.070500 0.031500 0.000000
  endloop
endfacet
facet normal 0.000000 0.001788 0.000000
  outer loop
    vertex -0.070500 0.031500 0.000000
    vertex -0.186876 0.031500 -0.015283
    vertex -0.187500 0.031500 0.000000
  endloop
endfacet
facet normal 0.000000 0.001788 0.000000
  outer loop
    vertex -0.070500 0.031500 0.000000
    vertex -0.187500 0.031500 0.000000
    vertex -0.186876 0.031500 0.015283
  endloop
endfacet
facet normal -0.000000 0.001787 0.000000
  outer loop
    vertex -0.186876 0.031500 -0.015283
    vertex -0.069871 0.031500 -0.009397
    vertex -0.185009 0.031500 -0.030464
  endloop
endfacet
facet normal 0.000000 0.001102 0.000000
  outer loop
    vertex -0.185009 0.031500 -0.030464
    vertex -0.069871 0.031500 -0.009397
    vertex -0.067995 0.031500 -0.018626
  endloop
endfacet
facet normal -0.000000 0.001789 0.000000
  outer loop
    vertex -0.185009 0.031500 -0.030464
    vertex -0.067995 0.031500 -0.018626
    vertex -0.181910 0.031500 -0.045443
  endloop
endfacet
facet normal -0.000000 0.001787 0.000000
  outer loop
    vertex -0.181910 0.031500 -0.045443
    vertex -0.067995 0.031500 -0.018626
    vertex -0.177601 0.031500 -0.060119
  endloop
endfacet
facet normal 0.000000 0.001103 0.000000
  outer loop
    vertex -0.177601 0.031500 -0.060119
    vertex -0.067995 0.031500 -0.018626
    vertex -0.064906 0.031500 -0.027522
  endloop
endfacet
facet normal -0.000000 0.001788 0.000000
  outer loop
    vertex -0.177601 0.031500 -0.060119
    vertex -0.064906 0.031500 -0.027522
    vertex -0.172109 0.031500 -0.074395
  endloop
endfacet
facet normal -0.000000 0.001788 0.000000
  outer loop
    vertex -0.172109 0.031500 -0.074395
    vertex -0.064906 0.031500 -0.027522
    vertex -0.165473 0.031500 -0.088176
  endloop
endfacet
facet normal 0.000000 0.001103 0.000000
  outer loop
    vertex -0.165473 0.031500 -0.088176
    vertex -0.064906 0.031500 -0.027522
    vertex -0.060658 0.031500 -0.035928
  endloop
endfacet
facet normal -0.000000 0.001787 0.000000
  outer loop
    vertex -0.165473 0.031500 -0.088176
    vertex -0.060658 0.031500 -0.035928
    vertex -0.157735 0.031500 -0.101370
  endloop
endfacet
facet normal 0.000000 0.001103 0.000000
  outer loop
    vertex -0.157735 0.031500 -0.101370
    vertex -0.060658 0.031500 -0.035928
    vertex -0.055328 0.031500 -0.043692
  endloop
endfacet
facet normal -0.000000 0.001789 0.000000
  outer loop
    vertex -0.157735 0.031500 -0.101370
    vertex -0.055328 0.031500 -0.043692
    vertex -0.148948 0.031500 -0.113890
  endloop
endfacet
facet normal -0.000000 0.001788 0.000000
  outer loop
    vertex -0.148948 0.031500 -0.113890
    vertex -0.055328 0.031500 -0.043692
    vertex -0.139169 0.031500 -0.125651
  endloop
endfacet
facet normal 0.000000 0.001103 0.000000
  outer loop
    vertex -0.139169 0.031500 -0.125651
    vertex -0.055328 0.031500 -0.043692
    vertex -0.049011 0.031500 -0.050677
  endloop
endfacet
facet normal -0.000000 0.001788 0.000000
  outer loop
    vertex -0.139169 0.031500 -0.125651
    vertex -0.049011 0.031500 -0.050677
    vertex -0.128464 0.031500 -0.136577
  endloop
endfacet
facet normal -0.000000 0.001789 0.000000
  outer loop
    vertex -0.128464 0.031500 -0.136577
    vertex -0.049011 0.031500 -0.050677
    vertex -0.116904 0.031500 -0.146593
  endloop
endfacet
facet normal 0.000000 0.001103 0.000000
  outer loop
    vertex -0.116904 0.031500 -0.146593
    vertex -0.049011 0.031500 -0.050677
    vertex -0.041819 0.031500 -0.056757
  endloop
endfacet
facet normal -0.000000 0.001787 0.000000
  outer loop
    vertex -0.116904 0.031500 -0.146593
    vertex -0.041819 0.031500 -0.056757
    vertex -0.104567 0.031500 -0.155634
  endloop
endfacet
facet normal 0.000000 0.001103 0.000000
  outer loop
    vertex -0.104567 0.031500 -0.155634
    vertex -0.041819 0.031500 -0.056757
    vertex -0.033881 0.031500 -0.061825
  endloop
endfacet
facet normal -0.000000 0.001789 0.000000
  outer loop
    vertex -0.104567 0.031500 -0.155634
    vertex -0.033881 0.031500 -0.061825
    vertex -0.091533 0.031500 -0.163640
  endloop
endfacet
facet normal -0.000000 0.001788 0.000000
  outer loop
    vertex -0.091533 0.031500 -0.163640
    vertex -0.033881 0.031500 -0.061825
    vertex -0.077890 0.031500 -0.170556
  endloop
endfacet
facet normal 0.000000 0.001103 0.000000
  outer loop
    vertex -0.077890 0.031500 -0.170556
    vertex -0.033881 0.031500 -0.061825
    vertex -0.025338 0.031500 -0.065789
  endloop
endfacet
facet normal -0.000000 0.001787 0.000000
  outer loop
    vertex -0.077890 0.031500 -0.170556
    vertex -0.025338 0.031500 -0.065789
    vertex -0.063729 0.031500 -0.176337
  endloop
endfacet
facet normal -0.000000 0.001789 0.000000
  outer loop
    vertex -0.063729 0.031500 -0.176337
    vertex -0.025338 0.031500 -0.065789
    vertex -0.049144 0.031500 -0.180945
  endloop
endfacet
facet normal 0.000000 0.001102 0.000000
  outer loop
    vertex -0.049144 0.031500 -0.180945
    vertex -0.025338 0.031500 -0.065789
    vertex -0.016343 0.031500 -0.068579
  endloop
endfacet
facet normal -0.000000 0.001787 0.000000
  outer loop
    vertex -0.049144 0.031500 -0.180945
    vertex -0.016343 0.031500 -0.068579
    vertex -0.034232 0.031500 -0.184349
  endloop
endfacet
facet normal 0.000000 0.001103 0.000000
  outer loop
    vertex -0.034232 0.031500 -0.184349
    vertex -0.016343 0.031500 -0.068579
    vertex -0.007057 0.031500 -0.070146
  endloop
endfacet
facet normal -0.000000 0.001788 0.000000
  outer loop
    vertex -0.034232 0.031500 -0.184349
    vertex -0.007057 0.031500 -0.070146
    vertex -0.019092 0.031500 -0.186525
  endloop
endfacet
facet normal -0.000000 0.001788 0.000000
  outer loop
    vertex -0.019092 0.031500 -0.186525
    vertex -0.007057 0.031500 -0.070146
    vertex -0.003825 0.031500 -0.187461
  endloop
endfacet
facet normal 0.000000 0.001103 -0.000000
  outer loop
    vertex -0.003825 0.031500 -0.187461
    vertex -0.007057 0.031500 -0.070146
    vertex 0.002356 0.031500 -0.070461
  endloop
endfacet
facet normal 0.000000 0.001787 0.000000
  outer loop
    vertex -0.003825 0.031500 -0.187461
    vertex 0.002356 0.031500 -0.070461
    vertex 0.011468 0.031500 -0.187149
  endloop
endfacet
facet normal 0.000000 0.001102 -0.000000
  outer loop
    vertex 0.011468 0.031500 -0.187149
    vertex 0.002356 0.031500 -0.070461
    vertex 0.011726 0.031500 -0.069518
  endloop
endfacet
facet normal 0.000000 0.001789 0.000000
  outer loop
    vertex 0.011468 0.031500 -0.187149
    vertex 0.011726 0.031500 -0.069518
    vertex 0.026684 0.031500 -0.185592
  endloop
endfacet
facet normal 0.000000 0.001787 -0.000000
  outer loop
    vertex 0.026684 0.031500 -0.185592
    vertex 0.011726 0.031500 -0.069518
    vertex 0.041723 0.031500 -0.182799
  endloop
endfacet
facet normal 0.000000 0.001103 0.000000
  outer loop
    vertex 0.041723 0.031500 -0.182799
    vertex 0.011726 0.031500 -0.069518
    vertex 0.020887 0.031500 -0.067335
  endloop
endfacet
facet normal 0.000000 0.001788 -0.000000
  outer loop
    vertex 0.041723 0.031500 -0.182799
    vertex 0.020887 0.031500 -0.067335
    vertex 0.056484 0.031500 -0.178790
  endloop
endfacet
facet normal 0.000000 0.001788 -0.000000
  outer loop
    vertex 0.056484 0.031500 -0.178790
    vertex 0.020887 0.031500 -0.067335
    vertex 0.070869 0.031500 -0.173591
  endloop
endfacet
facet normal 0.000000 0.001103 0.000000
  outer loop
    vertex 0.070869 0.031500 -0.173591
    vertex 0.020887 0.031500 -0.067335
    vertex 0.029676 0.031500 -0.063950
  endloop
endfacet
facet normal 0.000000 0.001787 -0.000000
  outer loop
    vertex 0.070869 0.031500 -0.173591
    vertex 0.029676 0.031500 -0.063950
    vertex 0.084782 0.031500 -0.167237
  endloop
endfacet
facet normal 0.000000 0.001102 0.000000
  outer loop
    vertex 0.084782 0.031500 -0.167237
    vertex 0.029676 0.031500 -0.063950
    vertex 0.037935 0.031500 -0.059424
  endloop
endfacet
facet normal 0.000000 0.001789 -0.000000
  outer loop
    vertex 0.084782 0.031500 -0.167237
    vertex 0.037935 0.031500 -0.059424
    vertex 0.098132 0.031500 -0.159770
  endloop
endfacet
facet normal 0.000000 0.001788 -0.000000
  outer loop
    vertex 0.098132 0.031500 -0.159770
    vertex 0.037935 0.031500 -0.059424
    vertex 0.110828 0.031500 -0.151240
  endloop
endfacet
facet normal 0.000000 0.001103 0.000000
  outer loop
    vertex 0.110828 0.031500 -0.151240
    vertex 0.037935 0.031500 -0.059424
    vertex 0.045517 0.031500 -0.053837
  endloop
endfacet
facet normal 0.000000 0.001788 -0.000000
  outer loop
    vertex 0.110828 0.031500 -0.151240
    vertex 0.045517 0.031500 -0.053837
    vertex 0.122786 0.031500 -0.141703
  endloop
endfacet
facet normal 0.000000 0.001789 -0.000000
  outer loop
    vertex 0.122786 0.031500 -0.141703
    vertex 0.045517 0.031500 -0.053837
    vertex 0.133928 0.031500 -0.131223
  endloop
endfacet
facet normal 0.000000 0.001103 0.000000
  outer loop
    vertex 0.133928 0.031500 -0.131223
    vertex 0.045517 0.031500 -0.053837
    vertex 0.052286 0.031500 -0.047290
  endloop
endfacet
facet normal 0.000000 0.001787 -0.000000
  outer loop
    vertex 0.133928 0.031500 -0.131223
    vertex 0.052286 0.031500 -0.047290
    vertex 0.144178 0.031500 -0.119870
  endloop
endfacet
facet normal 0.000000 0.001103 0.000000
  outer loop
    vertex 0.144178 0.031500 -0.119870
    vertex 0.052286 0.031500 -0.047290
    vertex 0.058123 0.031500 -0.039899
  endloop
endfacet
facet normal 0.000000 0.001789 -0.000000
  outer loop
    vertex 0.144178 0.031500 -0.119870
    vertex 0.058123 0.031500 -0.039899
    vertex 0.153469 0.031500 -0.107720
  endloop
endfacet
facet normal 0.000000 0.001788 -0.000000
  outer loop
    vertex 0.153469 0.031500 -0.107720
    vertex 0.058123 0.031500 -0.039899
    vertex 0.161739 0.031500 -0.094852
  endloop
endfacet
facet normal 0.000000 0.001103 0.000000
  outer loop
    vertex 0.161739 0.031500 -0.094852
    vertex 0.058123 0.031500 -0.039899
    vertex 0.062923 0.031500 -0.031796
  endloop
endfacet
facet normal 0.000000 0.001787 -0.000000
  outer loop
    vertex 0.161739 0.031500 -0.094852
    vertex 0.062923 0.031500 -0.031796
    vertex 0.168932 0.031500 -0.081353
  endloop
endfacet
facet normal 0.000000 0.001789 -0.000000
  outer loop
    vertex 0.168932 0.031500 -0.081353
    vertex 0.062923 0.031500 -0.031796
    vertex 0.175001 0.031500 -0.067313
  endloop
endfacet
facet normal 0.000000 0.001102 0.000000
  outer loop
    vertex 0.175001 0.031500 -0.067313
    vertex 0.062923 0.031500 -0.031796
    vertex 0.066599 0.031500 -0.023126
  endloop
endfacet
facet normal 0.000000 0.001787 -0.000000
  outer loop
    vertex 0.175001 0.031500 -0.067313
    vertex 0.066599 0.031500 -0.023126
    vertex 0.179905 0.031500 -0.052825
  endloop
endfacet
facet normal 0.000000 0.001103 0.000000
  outer loop
    vertex 0.179905 0.031500 -0.052825
    vertex 0.066599 0.031500 -0.023126
    vertex 0.069087 0.031500 -0.014043
  endloop
endfacet
facet normal 0.000000 0.001788 -0.000000
  outer loop
    vertex 0.179905 0.031500 -0.052825
    vertex 0.069087 0.031500 -0.014043
    vertex 0.183612 0.031500 -0.037985
  endloop
endfacet
facet normal 0.000000 0.001788 -0.000000
  outer loop
    vertex 0.183612 0.031500 -0.037985
    vertex 0.069087 0.031500 -0.014043
    vertex 0.186097 0.031500 -0.022893
  endloop
endfacet
facet normal 0.000000 0.001103 0.000000
  outer loop
    vertex 0.186097 0.031500 -0.022893
    vertex 0.069087 0.031500 -0.014043
    vertex 0.070343 0.031500 -0.004709
  endloop
endfacet
facet normal 0.000000 0.001787 -0.000000
  outer loop
    vertex 0.186097 0.031500 -0.022893
    vertex 0.070343 0.031500 -0.004709
    vertex 0.187344 0.031500 -0.007648
  endloop
endfacet
facet normal 0.000000 0.001790 -0.000000
  outer loop
    vertex 0.187344 0.031500 -0.007648
    vertex 0.070343 0.031500 -0.004709
    vertex 0.187344 0.031500 0.007648
  endloop
endfacet
facet normal 0.000000 0.001102 0.000000
  outer loop
    vertex 0.187344 0.031500 0.007648
    vertex 0.070343 0.031500 -0.004709
    vertex 0.070343 0.031500 0.004709
  endloop
endfacet
facet normal 0.000000 0.001787 0.000000
  outer loop
    vertex 0.187344 0.031500 0.007648
    vertex 0.070343 0.031500 0.004709
    vertex 0.186097 0.031500 0.022893
  endloop
endfacet
facet normal 0.000000 0.001103 0.000000
  outer loop
    vertex 0.186097 0.031500 0.022893
    vertex 0.070343 0.031500 0.004709
    vertex 0.069087 0.031500 0.014043
  endloop
endfacet
facet normal 0.000000 0.001788 0.000000
  outer loop
    vertex 0.186097 0.031500 0.022893
    vertex 0.069087 0.031500 0.014043
    vertex 0.183612 0.031500 0.037985
  endloop
endfacet
facet normal 0.000000 0.001788 0.000000
  outer loop
    vertex 0.183612 0.031500 0.037985
    vertex 0.069087 0.031500 0.014043
    vertex 0.179905 0.031500 0.052825
  endloop
endfacet
facet normal 0.000000 0.001103 0.000000
  outer loop
    vertex 0.179905 0.031500 0.052825
    vertex 0.069087 0.031500 0.014043
    vertex 0.066599 0.031500 0.023126
  endloop
endfacet
facet normal 0.000000 0.001787 0.000000
  outer loop
    vertex 0.179905 0.031500 0.052825
    vertex 0.066599 0.031500 0.023126
    vertex 0.175001 0.031500 0.067313
  endloop
endfacet
facet normal 0.000000 0.001102 0.000000
  outer loop
    vertex 0.175001 0.031500 0.067313
    vertex 0.066599 0.031500 0.023126
    vertex 0.062923 0.031500 0.031796
  endloop
endfacet
facet normal 0.000000 0.001789 0.000000
  outer loop
    vertex 0.175001 0.031500 0.067313
    vertex 0.062923 0.031500 0.031796
    vertex 0.168932 0.031500 0.081353
  endloop
endfacet
facet normal 0.000000 0.001787 0.000000
  outer loop
    vertex 0.168932 0.031500 0.081353
    vertex 0.062923 0.031500 0.031796
    vertex 0.161739 0.031500 0.094852
  endloop
endfacet
facet normal 0.000000 0.001103 0.000000
  outer loop
    vertex 0.161739 0.031500 0.094852
    vertex 0.062923 0.031500 0.031796
    vertex 0.058123 0.031500 0.039899
  endloop
endfacet
facet normal 0.000000 0.001788 0.000000
  outer loop
    vertex 0.161739 0.031500 0.094852
    vertex 0.058123 0.031500 0.039899
    vertex 0.153469 0.031500 0.107720
  endloop
endfacet
facet normal 0.000000 0.001789 0.000000
  outer loop
    vertex 0.153469 0.031500 0.107720
    vertex 0.058123 0.031500 0.039899
    vertex 0.144178 0.031500 0.119870
  endloop
endfacet
facet normal 0.000000 0.001103 0.000000
  outer loop
    vertex 0.144178 0.031500 0.119870
    vertex 0.058123 0.031500 0.039899
    vertex 0.052286 0.031500 0.047290
  endloop
endfacet
facet normal 0.000000 0.001787 0.000000
  outer loop
    vertex 0.144178 0.031500 0.119870
    vertex 0.052286 0.031500 0.047290
    vertex 0.133928 0.031500 0.131223
  endloop
endfacet
facet normal 0.000000 0.001103 0.000000
  outer loop
    vertex 0.133928 0.031500 0.131223
    vertex 0.052286 0.031500 0.047290
    vertex 0.045517 0.031500 0.053837
  endloop
endfacet
facet normal 0.000000 0.001789 0.000000
  outer loop
    vertex 0.133928 0.031500 0.131223
    vertex 0.045517 0.031500 0.053837
    vertex 0.122786 0.031500 0.141703
  endloop
endfacet
facet normal 0.000000 0.001788 0.000000
  outer loop
    vertex 0.122786 0.031500 0.141703
    vertex 0.045517 0.031500 0.053837
    vertex 0.110828 0.031500 0.151240
  endloop
endfacet
facet normal 0.000000 0.001103 0.000000
  outer loop
    vertex 0.110828 0.031500 0.151240
    vertex 0.045517 0.031500 0.053837
    vertex 0.037935 0.031500 0.059424
  endloop
endfacet
facet normal 0.000000 0.001788 0.000000
  outer loop
    vertex 0.110828 0.031500 0.151240
    vertex 0.037935 0.031500 0.059424
    vertex 0.098132 0.031500 0.159770
  endloop
endfacet
facet normal 0.000000 0.001789 0.000000
  outer loop
    vertex 0.098132 0.031500 0.159770
    vertex 0.037935 0.031500 0.059424
    vertex 0.084782 0.031500 0.167237
  endloop
endfacet
facet normal 0.000000 0.001102 0.000000
  outer loop
    vertex 0.084782 0.031500 0.167237
    vertex 0.037935 0.031500 0.059424
    vertex 0.029676 0.031500 0.063950
  endloop
endfacet
facet normal 0.000000 0.001787 0.000000
  outer loop
    vertex 0.084782 0.031500 0.167237
    vertex 0.029676 0.031500 0.063950
    vertex 0.070869 0.031500 0.173591
  endloop
endfacet
facet normal 0.000000 0.001103 0.000000
  outer loop
    vertex 0.070869 0.031500 0.173591
    vertex 0.029676 0.031500 0.063950
    vertex 0.020887 0.031500 0.067335
  endloop
endfacet
facet normal 0.000000 0.001788 0.000000
  outer loop
    vertex 0.070869 0.031500 0.173591
    vertex 0.020887 0.031500 0.067335
    vertex 0.056484 0.031500 0.178790
  endloop
endfacet
facet normal 0.000000 0.001788 0.000000
  outer loop
    vertex 0.056484 0.031500 0.178790
    vertex 0.020887 0.031500 0.067335
    vertex 0.041723 0.031500 0.182799
  endloop
endfacet
facet normal 0.000000 0.001103 0.000000
  outer loop
    vertex 0.041723 0.031500 0.182799
    vertex 0.020887 0.031500 0.067335
    vertex 0.011726 0.031500 0.069518
  endloop
endfacet
facet normal 0.000000 0.001787 0.000000
  outer loop
    vertex 0.041723 0.031500 0.182799
    vertex 0.011726 0.031500 0.069518
    vertex 0.026684 0.031500 0.185592
  endloop
endfacet
facet normal 0.000000 0.001789 0.000000
  outer loop
    vertex 0.026684 0.031500 0.185592
    vertex 0.011726 0.031500 0.069518
    vertex 0.011468 0.031500 0.187149
  endloop
endfacet
facet normal 0.000000 0.001102 0.000000
  outer loop
    vertex 0.011468 0.031500 0.187149
    vertex 0.011726 0.031500 0.069518
    vertex 0.002356 0.031500 0.070461
  endloop
endfacet
facet normal 0.000000 0.001787 0.000000
  outer loop
    vertex 0.011468 0.031500 0.187149
    vertex 0.002356 0.031500 0.070461
    vertex -0.003825 0.031500 0.187461
  endloop
endfacet
facet normal 0.000000 0.001103 0.000000
  outer loop
    vertex -0.003825 0.031500 0.187461
    vertex 0.002356 0.031500 0.070461
    vertex -0.007057 0.031500 0.070146
  endloop
endfacet
facet normal 0.000000 0.001788 0.000000
  outer loop
    vertex -0.003825 0.031500 0.187461
    vertex -0.007057 0.031500 0.070146
    vertex -0.019092 0.031500 0.186525
  endloop
endfacet
facet normal 0.000000 0.001788 0.000000
  outer loop
    vertex -0.019092 0.031500 0.186525
    vertex -0.007057 0.031500 0.070146
    vertex -0.034232 0.031500 0.184349
  endloop
endfacet
facet normal 0.000000 0.001103 0.000000
  outer loop
    vertex -0.034232 0.031500 0.184349
    vertex -0.007057 0.031500 0.070146
    vertex -0.016343 0.031500 0.068579
  endloop
endfacet
facet normal 0.000000 0.001787 0.000000
  outer loop
    vertex -0.034232 0.031500 0.184349
    vertex -0.016343 0.031500 0.068579
    vertex -0.049144 0.031500 0.180945
  endloop
endfacet
facet normal 0.000000 0.001102 0.000000
  outer loop
    vertex -0.049144 0.031500 0.180945
    vertex -0.016343 0.031500 0.068579
    vertex -0.025338 0.031500 0.065789
  endloop
endfacet
facet normal 0.000000 0.001789 0.000000
  outer loop
    vertex -0.049144 0.031500 0.180945
    vertex -0.025338 0.031500 0.065789
    vertex -0.063729 0.031500 0.176337
  endloop
endfacet
facet normal 0.000000 0.001787 0.000000
  outer loop
    vertex -0.063729 0.031500 0.176337
    vertex -0.025338 0.031500 0.065789
    vertex -0.077890 0.031500 0.170556
  endloop
endfacet
facet normal 0.000000 0.001103 0.000000
  outer loop
    vertex -0.077890 0.031500 0.170556
    vertex -0.025338 0.031500 0.065789
    vertex -0.033881 0.031500 0.061825
  endloop
endfacet
facet normal 0.000000 0.001788 0.000000
  outer loop
    vertex -0.077890 0.031500 0.170556
    vertex -0.033881 0.031500 0.061825
    vertex -0.091533 0.031500 0.163640
  endloop
endfacet
facet normal 0.000000 0.001789 0.000000
  outer loop
    vertex -0.091533 0.031500 0.163640
    vertex -0.033881 0.031500 0.061825
    vertex -0.104567 0.031500 0.155634
  endloop
endfacet
facet normal 0.000000 0.001103 0.000000
  outer loop
    vertex -0.104567 0.031500 0.155634
    vertex -0.033881 0.031500 0.061825
    vertex -0.041819 0.031500 0.056757
  endloop
endfacet
facet normal 0.000000 0.001787 0.000000
  outer loop
    vertex -0.104567 0.031500 0.155634
    vertex -0.041819 0.031500 0.056757
    vertex -0.116904 0.031500 0.146593
  endloop
endfacet
facet normal 0.000000 0.001103 0.000000
  outer loop
    vertex -0.116904 0.031500 0.146593
    vertex -0.041819 0.031500 0.056757
    vertex -0.049011 0.031500 0.050677
  endloop
endfacet
facet normal 0.000000 0.001789 0.000000
  outer loop
    vertex -0.116904 0.031500 0.146593
    vertex -0.049011 0.031500 0.050677
    vertex -0.128464 0.031500 0.136577
  endloop
endfacet
facet normal 0.000000 0.001788 0.000000
  outer loop
    vertex -0.128464 0.031500 0.136577
    vertex -0.049011 0.031500 0.050677
    vertex -0.139169 0.031500 0.125651
  endloop
endfacet
facet normal 0.000000 0.001103 0.000000
  outer loop
    vertex -0.139169 0.031500 0.125651
    vertex -0.049011 0.031500 0.050677
    vertex -0.055328 0.031500 0.043692
  endloop
endfacet
facet normal 0.000000 0.001788 0.000000
  outer loop
    vertex -0.139169 0.031500 0.125651
    vertex -0.055328 0.031500 0.043692
    vertex -0.148948 0.031500 0.113890
  endloop
endfacet
facet normal 0.000000 0.001789 0.000000
  outer loop
    vertex -0.148948 0.031500 0.113890
    vertex -0.055328 0.031500 0.043692
    vertex -0.157735 0.031500 0.101370
  endloop
endfacet
facet normal 0.000000 0.001103 0.000000
  outer loop
    vertex -0.157735 0.031500 0.101370
    vertex -0.055328 0.031500 0.043692
    vertex -0.060658 0.031500 0.035928
  endloop
endfacet
facet normal 0.000000 0.001787 0.000000
  outer loop
    vertex -0.157735 0.031500 0.101370
    vertex -0.060658 0.031500 0.035928
    vertex -0.165473 0.031500 0.088176
  endloop
endfacet
facet normal 0.000000 0.001103 0.000000
  outer loop
    vertex -0.165473 0.031500 0.088176
    vertex -0.060658 0.031500 0.035928
    vertex -0.064906 0.031500 0.027522
  endloop
endfacet
facet normal 0.000000 0.001788 0.000000
  outer loop
    vertex -0.165473 0.031500 0.088176
    vertex -0.064906 0.031500 0.027522
    vertex -0.172109 0.031500 0.074395
  endloop
endfacet
facet normal 0.000000 0.001788 0.000000
  outer loop
    vertex -0.172109 0.031500 0.074395
    vertex -0.064906 0.031500 0.027522
    vertex -0.177601 0.031500 0.060119
  endloop
endfacet
facet normal 0.000000 0.001103 0.000000
  outer loop
    vertex -0.177601 0.031500 0.060119
    vertex -0.064906 0.031500 0.027522
    vertex -0.067995 0.031500 0.018626
  endloop
endfacet
facet normal 0.000000 0.001787 0.000000
  outer loop
    vertex -0.177601 0.031500 0.060119
    vertex -0.067995 0.031500 0.018626
    vertex -0.181910 0.031500 0.045443
  endloop
endfacet
facet normal 0.000000 0.001789 0.000000
  outer loop
    vertex -0.181910 0.031500 0.045443
    vertex -0.067995 0.031500 0.018626
    vertex -0.185009 0.031500 0.030464
  endloop
endfacet
facet normal 0.000000 0.001102 0.000000
  outer loop
    vertex -0.185009 0.031500 0.030464
    vertex -0.067995 0.031500 0.018626
    vertex -0.069871 0.031500 0.009397
  endloop
endfacet
facet normal 0.000000 0.001787 0.000000
  outer loop
    vertex -0.185009 0.031500 0.030464
    vertex -0.069871 0.031500 0.009397
    vertex -0.186876 0.031500 0.015283
  endloop
endfacet
facet normal 0.000000 0.001103 0.000000
  outer loop
    vertex -0.186876 0.031500 0.015283
    vertex -0.069871 0.031500 0.009397
    vertex -0.070500 0.031500 0.000000
  endloop
endfacet
facet normal -0.000000 -0.001103 0.000000
  outer loop
    vertex -0.069871 0.000000 0.009397
    vertex -0.186876 0.000000 0.015283
    vertex -0.070500 0.000000 0.000000
  endloop
endfacet
facet normal 0.000000 -0.001788 0.000000
  outer loop
    vertex -0.070500 0.000000 0.000000
    vertex -0.186876 0.000000 0.015283
    vertex -0.187500 0.000000 0.000000
  endloop
endfacet
facet normal -0.000000 -0.001788 0.000000
  outer loop
    vertex -0.070500 0.000000 0.000000
    vertex -0.187500 0.000000 0.000000
    vertex -0.186876 0.000000 -0.015283
  endloop
endfacet
facet normal 0.000000 -0.001787 0.000000
  outer loop
    vertex -0.186876 0.000000 0.015283
    vertex -0.069871 0.000000 0.009397
    vertex -0.185009 0.000000 0.030464
  endloop
endfacet
facet normal 0.000000 -0.001102 0.000000
  outer loop
    vertex -0.185009 0.000000 0.030464
    vertex -0.069871 0.000000 0.009397
    vertex -0.067995 0.000000 0.018626
  endloop
endfacet
facet normal 0.000000 -0.001789 0.000000
  outer loop
    vertex -0.185009 0.000000 0.030464
    vertex -0.067995 0.000000 0.018626
    vertex -0.181910 0.000000 0.045443
  endloop
endfacet
facet normal 0.000000 -0.001787 0.000000
  outer loop
    vertex -0.181910 0.000000 0.045443
    vertex -0.067995 0.000000 0.018626
    vertex -0.177601 0.000000 0.060119
  endloop
endfacet
facet normal 0.000000 -0.001103 0.000000
  outer loop
    vertex -0.177601 0.000000 0.060119
    vertex -0.067995 0.000000 0.018626
    vertex -0.064906 0.000000 0.027522
  endloop
endfacet
facet normal 0.000000 -0.001788 0.000000
  outer loop
    vertex -0.177601 0.000000 0.060119
    vertex -0.064906 0.000000 0.027522
    vertex -0.172109 0.000000 0.074395
  endloop
endfacet
facet normal 0.000000 -0.001788 0.000000
  outer loop
    vertex -0.172109 0.000000 0.074395
    vertex -0.064906 0.000000 0.027522
    vertex -0.165473 0.000000 0.088176
  endloop
endfacet
facet normal 0.000000 -0.001103 0.000000
  outer loop
    vertex -0.165473 0.000000 0.088176
    vertex -0.064906 0.000000 0.027522
    vertex -0.060658 0.000000 0.035928
  endloop
endfacet
facet normal 0.000000 -0.001787 0.000000
  outer loop
    vertex -0.165473 0.000000 0.088176
    vertex -0.060658 0.000000 0.035928
    vertex -0.157735 0.000000 0.101370
  endloop
endfacet
facet normal 0.000000 -0.001103 0.000000
  outer loop
    vertex -0.157735 0.000000 0.101370
    vertex -0.060658 0.000000 0.035928
    vertex -0.055328 0.000000 0.043692
  endloop
endfacet
facet normal 0.000000 -0.001789 0.000000
  outer loop
    vertex -0.157735 0.000000 0.101370
    vertex -0.055328 0.000000 0.043692
    vertex -0.148948 0.000000 0.113890
  endloop
endfacet
facet normal 0.000000 -0.001788 0.000000
  outer loop
    vertex -0.148948 0.000000 0.113890
    vertex -0.055328 0.000000 0.043692
    vertex -0.139169 0.000000 0.125651
  endloop
endfacet
facet normal 0.000000 -0.001103 0.000000
  outer loop
    vertex -0.139169 0.000000 0.125651
    vertex -0.055328 0.000000 0.043692
    vertex -0.049011 0.000000 0.050677
  endloop
endfacet
facet normal 0.000000 -0.001788 0.000000
  outer loop
    vertex -0.139169 0.000000 0.125651
    vertex -0.049011 0.000000 0.050677
    vertex -0.128464 0.000000 0.136577
  endloop
endfacet
facet normal 0.000000 -0.001789 0.000000
  outer loop
    vertex -0.128464 0.000000 0.136577
    vertex -0.049011 0.000000 0.050677
    vertex -0.116904 0.000000 0.146593
  endloop
endfacet
facet normal 0.000000 -0.001103 0.000000
  outer loop
    vertex -0.116904 0.000000 0.146593
    vertex -0.049011 0.000000 0.050677
    vertex -0.041819 0.000000 0.056757
  endloop
endfacet
facet normal 0.000000 -0.001787 0.000000
  outer loop
    vertex -0.116904 0.000000 0.146593
    vertex -0.041819 0.000000 0.056757
    vertex -0.104567 0.000000 0.155634
  endloop
endfacet
facet normal 0.000000 -0.001103 0.000000
  outer loop
    vertex -0.104567 0.000000 0.155634
    vertex -0.041819 0.000000 0.056757
    vertex -0.033881 0.000000 0.061825
  endloop
endfacet
facet normal 0.000000 -0.001789 0.000000
  outer loop
    vertex -0.104567 0.000000 0.155634
    vertex -0.033881 0.000000 0.061825
    vertex -0.091533 0.000000 0.163640
  endloop
endfacet
facet normal 0.000000 -0.001788 0.000000
  outer loop
    vertex -0.091533 0.000000 0.163640
    vertex -0.033881 0.000000 0.061825
    vertex -0.077890 0.000000 0.170556
  endloop
endfacet
facet normal 0.000000 -0.001103 0.000000
  outer loop
    vertex -0.077890 0.000000 0.170556
    vertex -0.033881 0.000000 0.061825
    vertex -0.025338 0.000000 0.065789
  endloop
endfacet
facet normal 0.000000 -0.001787 0.000000
  outer loop
    vertex -0.077890 0.000000 0.170556
    vertex -0.025338 0.000000 0.065789
    vertex -0.063729 0.000000 0.176337
  endloop
endfacet
facet normal 0.000000 -0.001789 0.000000
  outer loop
    vertex -0.063729 0.000000 0.176337
    vertex -0.025338 0.000000 0.065789
    vertex -0.049144 0.000000 0.180945
  endloop
endfacet
facet normal 0.000000 -0.001102 0.000000
  outer loop
    vertex -0.049144 0.000000 0.180945
    vertex -0.025338 0.000000 0.065789
    vertex -0.016343 0.000000 0.068579
  endloop
endfacet
facet normal 0.000000 -0.001787 0.000000
  outer loop
    vertex -0.049144 0.000000 0.180945
    vertex -0.016343 0.000000 0.068579
    vertex -0.034232 0.000000 0.184349
  endloop
endfacet
facet normal 0.000000 -0.001103 0.000000
  outer loop
    vertex -0.034232 0.000000 0.184349
    vertex -0.016343 0.000000 0.068579
    vertex -0.007057 0.000000 0.070146
  endloop
endfacet
facet normal 0.000000 -0.001788 0.000000
  outer loop
    vertex -0.034232 0.000000 0.184349
    vertex -0.007057 0.000000 0.070146
    vertex -0.019092 0.000000 0.186525
  endloop
endfacet
facet normal 0.000000 -0.001788 0.000000
  outer loop
    vertex -0.019092 0.000000 0.186525
    vertex -0.007057 0.000000 0.070146
    vertex -0.003825 0.000000 0.187461
  endloop
endfacet
facet normal 0.000000 -0.001103 -0.000000
  outer loop
    vertex -0.003825 0.000000 0.187461
    vertex -0.007057 0.000000 0.070146
    vertex 0.002356 0.000000 0.070461
  endloop
endfacet
facet normal 0.000000 -0.001787 0.000000
  outer loop
    vertex -0.003825 0.000000 0.187461
    vertex 0.002356 0.000000 0.070461
    vertex 0.011468 0.000000 0.187149
  endloop
endfacet
facet normal 0.000000 -0.001102 -0.000000
  outer loop
    vertex 0.011468 0.000000 0.187149
    vertex 0.002356 0.000000 0.070461
    vertex 0.011726 0.000000 0.069518
  endloop
endfacet
facet normal 0.000000 -0.001789 0.000000
  outer loop
    vertex 0.011468 0.000000 0.187149
    vertex 0.011726 0.000000 0.069518
    vertex 0.026684 0.000000 0.185592
  endloop
endfacet
facet normal 0.000000 -0.001787 -0.000000
  outer loop
    vertex 0.026684 0.000000 0.185592
    vertex 0.011726 0.000000 0.069518
    vertex 0.041723 0.000000 0.182799
  endloop
endfacet
facet normal 0.000000 -0.001103 0.000000
  outer loop
    vertex 0.041723 0.000000 0.182799
    vertex 0.011726 0.000000 0.069518
    vertex 0.020887 0.000000 0.067335
  endloop
endfacet
facet normal 0.000000 -0.001788 -0.000000
  outer loop
    vertex 0.041723 0.000000 0.182799
    vertex 0.020887 0.000000 0.067335
    vertex 0.056484 0.000000 0.178790
  endloop
endfacet
facet normal 0.000000 -0.001788 -0.000000
  outer loop
    vertex 0.056484 0.000000 0.178790
    vertex 0.020887 0.000000 0.067335
    vertex 0.070869 0.000000 0.173591
  endloop
endfacet
facet normal 0.000000 -0.001103 0.000000
  outer loop
    vertex 0.070869 0.000000 0.173591
    vertex 0.020887 0.000000 0.067335
    vertex 0.029676 0.000000 0.063950
  endloop
endfacet
facet normal 0.000000 -0.001787 -0.000000
  outer loop
    vertex 0.070869 0.000000 0.173591
    vertex 0.029676 0.000000 0.063950
    vertex 0.084782 0.000000 0.167237
  endloop
endfacet
facet normal 0.000000 -0.001102 0.000000
  outer loop
    vertex 0.084782 0.000000 0.167237
    vertex 0.029676 0.000000 0.063950
    vertex 0.037935 0.000000 0.059424
  endloop
endfacet
facet normal 0.000000 -0.001789 -0.000000
  outer loop
    vertex 0.084782 0.000000 0.167237
    vertex 0.037935 0.000000 0.059424
    vertex 0.098132 0.000000 0.159770
  endloop
endfacet
facet normal 0.000000 -0.001788 -0.000000
  outer loop
    vertex 0.098132 0.000000 0.159770
    vertex 0.037935 0.000000 0.059424
    vertex 0.110828 0.000000 0.151240
  endloop
endfacet
facet normal 0.000000 -0.001103 0.000000
  outer loop
    vertex 0.110828 0.000000 0.151240
    vertex 0.037935 0.000000 0.059424
    vertex 0.045517 0.000000 0.053837
  endloop
endfacet
facet normal 0.000000 -0.001788 -0.000000
  outer loop
    vertex 0.110828 0.000000 0.151240
    vertex 0.045517 0.000000 0.053837
    vertex 0.122786 0.000000 0.141703
  endloop
endfacet
facet normal 0.000000 -0.001789 -0.000000
  outer loop
    vertex 0.122786 0.000000 0.141703
    vertex 0.045517 0.000000 0.053837
    vertex 0.133928 0.000000 0.131223
  endloop
endfacet
facet normal 0.000000 -0.001103 0.000000
  outer loop
    vertex 0.133928 0.000000 0.131223
    vertex 0.045517 0.000000 0.053837
    vertex 0.052286 0.000000 0.047290
  endloop
endfacet
facet normal 0.000000 -0.001787 -0.000000
  outer loop
    vertex 0.133928 0.000000 0.131223
    vertex 0.052286 0.000000 0.047290
    vertex 0.144178 0.000000 0.119870
  endloop
endfacet
facet normal 0.000000 -0.001103 0.000000
  outer loop
    vertex 0.144178 0.000000 0.119870
    vertex 0.052286 0.000000 0.047290
    vertex 0.058123 0.000000 0.039899
  endloop
endfacet
facet normal 0.000000 -0.001789 -0.000000
  outer loop
    vertex 0.144178 0.000000 0.119870
    vertex 0.058123 0.000000 0.039899
    vertex 0.153469 0.000000 0.107720
  endloop
endfacet
facet normal 0.000000 -0.001788 -0.000000
  outer loop
    vertex 0.153469 0.000000 0.107720
    vertex 0.058123 0.000000 0.039899
    vertex 0.161739 0.000000 0.094852
  endloop
endfacet
facet normal 0.000000 -0.001103 0.000000
  outer loop
    vertex 0.161739 0.000000 0.094852
    vertex 0.058123 0.000000 0.039899
    vertex 0.062923 0.000000 0.031796
  endloop
endfacet
facet normal 0.000000 -0.001787 -0.000000
  outer loop
    vertex 0.161739 0.000000 0.094852
    vertex 0.062923 0.000000 0.031796
    vertex 0.168932 0.000000 0.081353
  endloop
endfacet
facet normal 0.000000 -0.001789 -0.000000
  outer loop
    vertex 0.168932 0.000000 0.081353
    vertex 0.062923 0.000000 0.031796
    vertex 0.175001 0.000000 0.067313
  endloop
endfacet
facet normal 0.000000 -0.001102 0.000000
  outer loop
    vertex 0.175001 0.000000 0.067313
    vertex 0.062923 0.000000 0.031796
    vertex 0.066599 0.000000 0.023126
  endloop
endfacet
facet normal 0.000000 -0.001787 -0.000000
  outer loop
    vertex 0.175001 0.000000 0.067313
    vertex 0.066599 0.000000 0.023126
    vertex 0.179905 0.000000 0.052825
  endloop
endfacet
facet normal 0.000000 -0.001103 0.000000
  outer loop
    vertex 0.179905 0.000000 0.052825
    vertex 0.066599 0.000000 0.023126
    vertex 0.069087 0.000000 0.014043
  endloop
endfacet
facet normal 0.000000 -0.001788 -0.000000
  outer loop
    vertex 0.179905 0.000000 0.052825
    vertex 0.069087 0.000000 0.014043
    vertex 0.183612 0.000000 0.037985
  endloop
endfacet
facet normal 0.000000 -0.001788 -0.000000
  outer loop
    vertex 0.183612 0.000000 0.037985
    vertex 0.069087 0.000000 0.014043
    vertex 0.186097 0.000000 0.022893
  endloop
endfacet
facet normal 0.000000 -0.001103 0.000000
  outer loop
    vertex 0.186097 0.000000 0.022893
    vertex 0.069087 0.000000 0.014043
    vertex 0.070343 0.000000 0.004709
  endloop
endfacet
facet normal 0.000000 -0.001787 -0.000000
  outer loop
    vertex 0.186097 0.000000 0.022893
    vertex 0.070343 0.000000 0.004709
    vertex 0.187344 0.000000 0.007648
  endloop
endfacet
facet normal 0.000000 -0.001102 0.000000
  outer loop
    vertex 0.187344 0.000000 0.007648
    vertex 0.070343 0.000000 0.004709
    vertex 0.070343 0.000000 -0.004709
  endloop
endfacet
facet normal 0.000000 -0.001790 -0.000000
  outer loop
    vertex 0.187344 0.000000 0.007648
    vertex 0.070343 0.000000 -0.004709
    vertex 0.187344 0.000000 -0.007648
  endloop
endfacet
facet normal -0.000000 -0.001787 0.000000
  outer loop
    vertex 0.187344 0.000000 -0.007648
    vertex 0.070343 0.000000 -0.004709
    vertex 0.186097 0.000000 -0.022893
  endloop
endfacet
facet normal 0.000000 -0.001103 0.000000
  outer loop
    vertex 0.186097 0.000000 -0.022893
    vertex 0.070343 0.000000 -0.004709
    vertex 0.069087 0.000000 -0.014043
  endloop
endfacet
facet normal -0.000000 -0.001788 0.000000
  outer loop
    vertex 0.186097 0.000000 -0.022893
    vertex 0.069087 0.000000 -0.014043
    vertex 0.183612 0.000000 -0.037985
  endloop
endfacet
facet normal -0.000000 -0.001788 0.000000
  outer loop
    vertex 0.183612 0.000000 -0.037985
    vertex 0.069087 0.000000 -0.014043
    vertex 0.179905 0.000000 -0.052825
  endloop
endfacet
facet normal 0.000000 -0.001103 0.000000
  outer loop
    vertex 0.179905 0.000000 -0.052825
    vertex 0.069087 0.000000 -0.014043
    vertex 0.066599 0.000000 -0.023126
  endloop
endfacet
facet normal -0.000000 -0.001787 0.000000
  outer loop
    vertex 0.179905 0.000000 -0.052825
    vertex 0.066599 0.000000 -0.023126
    vertex 0.175001 0.000000 -0.067313
  endloop
endfacet
facet normal 0.000000 -0.001102 0.000000
  outer loop
    vertex 0.175001 0.000000 -0.067313
    vertex 0.066599 0.000000 -0.023126
    vertex 0.062923 0.000000 -0.031796
  endloop
endfacet
facet normal -0.000000 -0.001789 0.000000
  outer loop
    vertex 0.175001 0.000000 -0.067313
    vertex 0.062923 0.000000 -0.031796
    vertex 0.168932 0.000000 -0.081353
  endloop
endfacet
facet normal -0.000000 -0.001787 0.000000
  outer loop
    vertex 0.168932 0.000000 -0.081353
    vertex 0.062923 0.000000 -0.031796
    vertex 0.161739 0.000000 -0.094852
  endloop
endfacet
facet normal 0.000000 -0.001103 0.000000
  outer loop
    vertex 0.161739 0.000000 -0.094852
    vertex 0.062923 0.000000 -0.031796
    vertex 0.058123 0.000000 -0.039899
  endloop
endfacet
facet normal -0.000000 -0.001788 0.000000
  outer loop
    vertex 0.161739 0.000000 -0.094852
    vertex 0.058123 0.000000 -0.039899
    vertex 0.153469 0.000000 -0.107720
  endloop
endfacet
facet normal -0.000000 -0.001789 0.000000
  outer loop
    vertex 0.153469 0.000000 -0.107720
    vertex 0.058123 0.000000 -0.039899
    vertex 0.144178 0.000000 -0.119870
  endloop
endfacet
facet normal 0.000000 -0.001103 0.000000
  outer loop
    vertex 0.144178 0.000000 -0.119870
    vertex 0.058123 0.000000 -0.039899
    vertex 0.052286 0.000000 -0.047290
  endloop
endfacet
facet normal -0.000000 -0.001787 0.000000
  outer loop
    vertex 0.144178 0.000000 -0.119870
    vertex 0.052286 0.000000 -0.047290
    vertex 0.133928 0.000000 -0.131223
  endloop
endfacet
facet normal 0.000000 -0.001103 0.000000
  outer loop
    vertex 0.133928 0.000000 -0.131223
    vertex 0.052286 0.000000 -0.047290
    vertex 0.045517 0.000000 -0.053837
  endloop
endfacet
facet normal -0.000000 -0.001789 0.000000
  outer loop
    vertex 0.133928 0.000000 -0.131223
    vertex 0.045517 0.000000 -0.053837
    vertex 0.122786 0.000000 -0.141703
  endloop
endfacet
facet normal -0.000000 -0.001788 0.000000
  outer loop
    vertex 0.122786 0.000000 -0.141703
    vertex 0.045517 0.000000 -0.053837
    vertex 0.110828 0.000000 -0.151240
  endloop
endfacet
facet normal 0.000000 -0.001103 0.000000
  outer loop
    vertex 0.110828 0.000000 -0.151240
    vertex 0.045517 0.000000 -0.053837
    vertex 0.037935 0.000000 -0.059424
  endloop
endfacet
facet normal -0.000000 -0.001788 0.000000
  outer loop
    vertex 0.110828 0.000000 -0.151240
    vertex 0.037935 0.000000 -0.059424
    vertex 0.098132 0.000000 -0.159770
  endloop
endfacet
facet normal -0.000000 -0.001789 0.000000
  outer loop
    vertex 0.098132 0.000000 -0.159770
    vertex 0.037935 0.000000 -0.059424
    vertex 0.084782 0.000000 -0.167237
  endloop
endfacet
facet normal 0.000000 -0.001102 0.000000
  outer loop
    vertex 0.084782 0.000000 -0.167237
    vertex 0.037935 0.000000 -0.059424
    vertex 0.029676 0.000000 -0.063950
  endloop
endfacet
facet normal -0.000000 -0.001787 0.000000
  outer loop
    vertex 0.084782 0.000000 -0.167237
    vertex 0.029676 0.000000 -0.063950
    vertex 0.070869 0.000000 -0.173591
  endloop
endfacet
facet normal 0.000000 -0.001103 0.000000
  outer loop
    vertex 0.070869 0.000000 -0.173591
    vertex 0.029676 0.000000 -0.063950
    vertex 0.020887 0.000000 -0.067335
  endloop
endfacet
facet normal -0.000000 -0.001788 0.000000
  outer loop
    vertex 0.070869 0.000000 -0.173591
    vertex 0.020887 0.000000 -0.067335
    vertex 0.056484 0.000000 -0.178790
  endloop
endfacet
facet normal -0.000000 -0.001788 0.000000
  outer loop
    vertex 0.056484 0.000000 -0.178790
    vertex 0.020887 0.000000 -0.067335
    vertex 0.041723 0.000000 -0.182799
  endloop
endfacet
facet normal 0.000000 -0.001103 0.000000
  outer loop
    vertex 0.041723 0.000000 -0.182799
    vertex 0.020887 0.000000 -0.067335
    vertex 0.011726 0.000000 -0.069518
  endloop
endfacet
facet normal -0.000000 -0.001787 0.000000
  outer loop
    vertex 0.041723 0.000000 -0.182799
    vertex 0.011726 0.000000 -0.069518
    vertex 0.026684 0.000000 -0.185592
  endloop
endfacet
facet normal -0.000000 -0.001789 0.000000
  outer loop
    vertex 0.026684 0.000000 -0.185592
    vertex 0.011726 0.000000 -0.069518
    vertex 0.011468 0.000000 -0.187149
  endloop
endfacet
facet normal 0.000000 -0.001102 0.000000
  outer loop
    vertex 0.011468 0.000000 -0.187149
    vertex 0.011726 0.000000 -0.069518
    vertex 0.002356 0.000000 -0.070461
  endloop
endfacet
facet normal -0.000000 -0.001787 0.000000
  outer loop
    vertex 0.011468 0.000000 -0.187149
    vertex 0.002356 0.000000 -0.070461
    vertex -0.003825 0.000000 -0.187461
  endloop
endfacet
facet normal 0.000000 -0.001103 0.000000
  outer loop
    vertex -0.003825 0.000000 -0.187461
    vertex 0.002356 0.000000 -0.070461
    vertex -0.007057 0.000000 -0.070146
  endloop
endfacet
facet normal 0.000000 -0.001788 0.000000
  outer loop
    vertex -0.003825 0.000000 -0.187461
    vertex -0.007057 0.000000 -0.070146
    vertex -0.019092 0.000000 -0.186525
  endloop
endfacet
facet normal 0.000000 -0.001788 0.000000
  outer loop
    vertex -0.019092 0.000000 -0.186525
    vertex -0.007057 0.000000 -0.070146
    vertex -0.034232 0.000000 -0.184349
  endloop
endfacet
facet normal 0.000000 -0.001103 0.000000
  outer loop
    vertex -0.034232 0.000000 -0.184349
    vertex -0.007057 0.000000 -0.070146
    vertex -0.016343 0.000000 -0.068579
  endloop
endfacet
facet normal 0.000000 -0.001787 0.000000
  outer loop
    vertex -0.034232 0.000000 -0.184349
    vertex -0.016343 0.000000 -0.068579
    vertex -0.049144 0.000000 -0.180945
  endloop
endfacet
facet normal 0.000000 -0.001102 0.000000
  outer loop
    vertex -0.049144 0.000000 -0.180945
    vertex -0.016343 0.000000 -0.068579
    vertex -0.025338 0.000000 -0.065789
  endloop
endfacet
facet normal 0.000000 -0.001789 0.000000
  outer loop
    vertex -0.049144 0.000000 -0.180945
    vertex -0.025338 0.000000 -0.065789
    vertex -0.063729 0.000000 -0.176337
  endloop
endfacet
facet normal 0.000000 -0.001787 0.000000
  outer loop
    vertex -0.063729 0.000000 -0.176337
    vertex -0.025338 0.000000 -0.065789
    vertex -0.077890 0.000000 -0.170556
  endloop
endfacet
facet normal 0.000000 -0.001103 0.000000
  outer loop
    vertex -0.077890 0.000000 -0.170556
    vertex -0.025338 0.000000 -0.065789
    vertex -0.033881 0.000000 -0.061825
  endloop
endfacet
facet normal 0.000000 -0.001788 0.000000
  outer loop
    vertex -0.077890 0.000000 -0.170556
    vertex -0.033881 0.000000 -0.061825
    vertex -0.091533 0.000000 -0.163640
  endloop
endfacet
facet normal 0.000000 -0.001789 0.000000
  outer loop
    vertex -0.091533 0.000000 -0.163640
    vertex -0.033881 0.000000 -0.061825
    vertex -0.104567 0.000000 -0.155634
  endloop
endfacet
facet normal 0.000000 -0.001103 0.000000
  outer loop
    vertex -0.104567 0.000000 -0.155634
    vertex -0.033881 0.000000 -0.061825
    vertex -0.041819 0.000000 -0.056757
  endloop
endfacet
facet normal 0.000000 -0.001787 0.000000
  outer loop
    vertex -0.104567 0.000000 -0.155634
    vertex -0.041819 0.000000 -0.056757
    vertex -0.116904 0.000000 -0.146593
  endloop
endfacet
facet normal 0.000000 -0.001103 0.000000
  outer loop
    vertex -0.116904 0.000000 -0.146593
    vertex -0.041819 0.000000 -0.056757
    vertex -0.049011 0.000000 -0.050677
  endloop
endfacet
facet normal 0.000000 -0.001789 0.000000
  outer loop
    vertex -0.116904 0.000000 -0.146593
    vertex -0.049011 0.000000 -0.050677
    vertex -0.128464 0.000000 -0.136577
  endloop
endfacet
facet normal 0.000000 -0.001788 0.000000
  outer loop
    vertex -0.128464 0.000000 -0.136577
    vertex -0.049011 0.000000 -0.050677
    vertex -0.139169 0.000000 -0.125651
  endloop
endfacet
facet normal 0.000000 -0.001103 0.000000
  outer loop
    vertex -0.139169 0.000000 -0.125651
    vertex -0.049011 0.000000 -0.050677
    vertex -0.055328 0.000000 -0.043692
  endloop
endfacet
facet normal 0.000000 -0.001788 0.000000
  outer loop
    vertex -0.139169 0.000000 -0.125651
    vertex -0.055328 0.000000 -0.043692
    vertex -0.148948 0.000000 -0.113890
  endloop
endfacet
facet normal 0.000000 -0.001789 0.000000
  outer loop
    vertex -0.148948 0.000000 -0.113890
    vertex -0.055328 0.000000 -0.043692
    vertex -0.157735 0.000000 -0.101370
  endloop
endfacet
facet normal 0.000000 -0.001103 0.000000
  outer loop
    vertex -0.157735 0.000000 -0.101370
    vertex -0.055328 0.000000 -0.043692
    vertex -0.060658 0.000000 -0.035928
  endloop
endfacet
facet normal 0.000000 -0.001787 0.000000
  outer loop
    vertex -0.157735 0.000000 -0.101370
    vertex -0.060658 0.000000 -0.035928
    vertex -0.165473 0.000000 -0.088176
  endloop
endfacet
facet normal 0.000000 -0.001103 0.000000
  outer loop
    vertex -0.165473 0.000000 -0.088176
    vertex -0.060658 0.000000 -0.035928
    vertex -0.064906 0.000000 -0.027522
  endloop
endfacet
facet normal 0.000000 -0.001788 0.000000
  outer loop
    vertex -0.165473 0.000000 -0.088176
    vertex -0.064906 0.000000 -0.027522
    vertex -0.172109 0.000000 -0.074395
  endloop
endfacet
facet normal 0.000000 -0.001788 0.000000
  outer loop
    vertex -0.172109 0.000000 -0.074395
    vertex -0.064906 0.000000 -0.027522
    vertex -0.177601 0.000000 -0.060119
  endloop
endfacet
facet normal 0.000000 -0.001103 0.000000
  outer loop
    vertex -0.177601 0.000000 -0.060119
    vertex -0.064906 0.000000 -0.027522
    vertex -0.067995 0.000000 -0.018626
  endloop
endfacet
facet normal 0.000000 -0.001787 0.000000
  outer loop
    vertex -0.177601 0.000000 -0.060119
    vertex -0.067995 0.000000 -0.018626
    vertex -0.181910 0.000000 -0.045443
  endloop
endfacet
facet normal 0.000000 -0.001789 0.000000
  outer loop
    vertex -0.181910 0.000000 -0.045443
    vertex -0.067995 0.000000 -0.018626
    vertex -0.185009 0.000000 -0.030464
  endloop
endfacet
facet normal 0.000000 -0.001102 0.000000
  outer loop
    vertex -0.185009 0.000000 -0.030464
    vertex -0.067995 0.000000 -0.018626
    vertex -0.069871 0.000000 -0.009397
  endloop
endfacet
facet normal 0.000000 -0.001787 0.000000
  outer loop
    vertex -0.185009 0.000000 -0.030464
    vertex -0.069871 0.000000 -0.009397
    vertex -0.186876 0.000000 -0.015283
  endloop
endfacet
facet normal 0.000000 -0.001103 0.000000
  outer loop
    vertex -0.186876 0.000000 -0.015283
    vertex -0.069871 0.000000 -0.009397
    vertex -0.070500 0.000000 0.000000
  endloop
endfacet
endsolid fe7ba6f2-c021-46dc-8f94-f16296813f83-ascii.stl
