solid 15554a06-597c-4b2f-9c49-2677f228f7c7-ascii.stl
facet normal -1.000000 0.000000 0.000000
  outer loop
    vertex -3.125000 0.187500 0.000000
    vertex -3.125000 -0.375000 0.000000
    vertex -3.125000 0.187500 1.125000
  endloop
endfacet
facet normal -1.000000 -0.000000 0.000000
  outer loop
    vertex -3.125000 0.187500 1.125000
    vertex -3.125000 -0.375000 0.000000
    vertex -3.125000 -0.375000 1.125000
  endloop
endfacet
facet normal -0.789352 0.613941 0.000000
  outer loop
    vertex -2.687500 0.750000 0.000000
    vertex -3.125000 0.187500 0.000000
    vertex -2.687500 0.750000 1.125000
  endloop
endfacet
facet normal -0.789352 0.613941 0.000000
  outer loop
    vertex -2.687500 0.750000 1.125000
    vertex -3.125000 0.187500 0.000000
    vertex -3.125000 0.187500 1.125000
  endloop
endfacet
facet normal 0.000000 1.000000 -0.000000
  outer loop
    vertex -2.250000 0.750000 0.000000
    vertex -2.687500 0.750000 0.000000
    vertex -2.250000 0.750000 1.125000
  endloop
endfacet
facet normal 0.000000 1.000000 0.000000
  outer loop
    vertex -2.250000 0.750000 1.125000
    vertex -2.687500 0.750000 0.000000
    vertex -2.687500 0.750000 1.125000
  endloop
endfacet
facet normal 1.000000 0.000000 0.000000
  outer loop
    vertex -2.250000 0.375000 0.000000
    vertex -2.250000 0.750000 0.000000
    vertex -2.250000 0.375000 1.125000
  endloop
endfacet
facet normal 1.000000 -0.000000 0.000000
  outer loop
    vertex -2.250000 0.375000 1.125000
    vertex -2.250000 0.750000 0.000000
    vertex -2.250000 0.750000 1.125000
  endloop
endfacet
facet normal 0.000000 1.000000 -0.000000
  outer loop
    vertex 2.250000 0.375000 0.000000
    vertex -2.250000 0.375000 0.000000
    vertex 2.250000 0.375000 1.125000
  endloop
endfacet
facet normal 0.000000 1.000000 0.000000
  outer loop
    vertex 2.250000 0.375000 1.125000
    vertex -2.250000 0.375000 0.000000
    vertex -2.250000 0.375000 1.125000
  endloop
endfacet
facet normal 1.000000 0.000000 0.000000
  outer loop
    vertex 2.250000 -0.375000 0.000000
    vertex 2.250000 0.375000 0.000000
    vertex 2.250000 -0.375000 1.125000
  endloop
endfacet
facet normal 1.000000 -0.000000 0.000000
  outer loop
    vertex 2.250000 -0.375000 1.125000
    vertex 2.250000 0.375000 0.000000
    vertex 2.250000 0.375000 1.125000
  endloop
endfacet
facet normal 0.000000 -1.000000 0.000000
  outer loop
    vertex -3.125000 -0.375000 0.000000
    vertex 2.250000 -0.375000 0.000000
    vertex -3.125000 -0.375000 1.125000
  endloop
endfacet
facet normal 0.000000 -1.000000 0.000000
  outer loop
    vertex -3.125000 -0.375000 1.125000
    vertex 2.250000 -0.375000 0.000000
    vertex 2.250000 -0.375000 1.125000
  endloop
endfacet
facet normal -0.000000 0.000000 1.000000
  outer loop
    vertex -3.125000 0.187500 1.125000
    vertex -3.125000 -0.375000 1.125000
    vertex -2.250000 0.375000 1.125000
  endloop
endfacet
facet normal 0.000000 0.000000 1.000000
  outer loop
    vertex -2.250000 0.375000 1.125000
    vertex -3.125000 -0.375000 1.125000
    vertex 2.250000 -0.375000 1.125000
  endloop
endfacet
facet normal -0.000000 0.000000 1.000000
  outer loop
    vertex -2.250000 0.375000 1.125000
    vertex 2.250000 -0.375000 1.125000
    vertex 2.250000 0.375000 1.125000
  endloop
endfacet
facet normal 0.000000 0.000000 1.000000
  outer loop
    vertex -2.250000 0.750000 1.125000
    vertex -2.687500 0.750000 1.125000
    vertex -2.250000 0.375000 1.125000
  endloop
endfacet
facet normal 0.000000 0.000000 1.000000
  outer loop
    vertex -2.250000 0.375000 1.125000
    vertex -2.687500 0.750000 1.125000
    vertex -3.125000 0.187500 1.125000
  endloop
endfacet
facet normal -0.000000 -0.000000 -1.000000
  outer loop
    vertex 2.250000 0.375000 0.000000
    vertex 2.250000 -0.375000 0.000000
    vertex -2.250000 0.375000 0.000000
  endloop
endfacet
facet normal 0.000000 -0.000000 -1.000000
  outer loop
    vertex -2.250000 0.375000 0.000000
    vertex 2.250000 -0.375000 0.000000
    vertex -3.125000 -0.375000 0.000000
  endloop
endfacet
facet normal 0.000000 0.000000 -1.000000
  outer loop
    vertex -2.250000 0.375000 0.000000
    vertex -3.125000 -0.375000 0.000000
    vertex -3.125000 0.187500 0.000000
  endloop
endfacet
facet normal 0.000000 0.000000 -1.000000
  outer loop
    vertex -3.125000 0.187500 0.000000
    vertex -2.687500 0.750000 0.000000
    vertex -2.250000 0.375000 0.000000
  endloop
endfacet
facet normal 0.000000 0.000000 -1.000000
  outer loop
    vertex -2.250000 0.375000 0.000000
    vertex -2.687500 0.750000 0.000000
    vertex -2.250000 0.750000 0.000000
  endloop
endfacet
endsolid 15554a06-597c-4b2f-9c49-2677f228f7c7-ascii.stl
