solid 18a7a25a-d5c6-4a99-a7f1-efc5c122e442-ascii.stl
facet normal -0.000000 0.000000 1.000000
  outer loop
    vertex 0.000000 0.437500 4.000000
    vertex 0.000000 -0.437500 4.000000
    vertex 0.187500 0.437500 4.000000
  endloop
endfacet
facet normal 0.000000 0.000000 1.000000
  outer loop
    vertex 0.187500 0.437500 4.000000
    vertex 0.000000 -0.437500 4.000000
    vertex 0.187500 -0.437500 4.000000
  endloop
endfacet
facet normal -0.000000 0.800000 0.600000
  outer loop
    vertex 0.000000 0.812500 3.500000
    vertex 0.000000 0.437500 4.000000
    vertex 0.187500 0.812500 3.500000
  endloop
endfacet
facet normal 0.000000 0.800000 0.600000
  outer loop
    vertex 0.187500 0.812500 3.500000
    vertex 0.000000 0.437500 4.000000
    vertex 0.187500 0.437500 4.000000
  endloop
endfacet
facet normal 0.000000 1.000000 0.000000
  outer loop
    vertex 0.000000 0.812500 3.000000
    vertex 0.000000 0.812500 3.500000
    vertex 0.187500 0.812500 3.000000
  endloop
endfacet
facet normal 0.000000 1.000000 -0.000000
  outer loop
    vertex 0.187500 0.812500 3.000000
    vertex 0.000000 0.812500 3.500000
    vertex 0.187500 0.812500 3.500000
  endloop
endfacet
facet normal 0.000000 0.000000 -1.000000
  outer loop
    vertex 0.000000 0.437500 3.000000
    vertex 0.000000 0.812500 3.000000
    vertex 0.187500 0.437500 3.000000
  endloop
endfacet
facet normal 0.000000 0.000000 -1.000000
  outer loop
    vertex 0.187500 0.437500 3.000000
    vertex 0.000000 0.812500 3.000000
    vertex 0.187500 0.812500 3.000000
  endloop
endfacet
facet normal 0.000000 1.000000 0.000000
  outer loop
    vertex 0.000000 0.437500 -3.000000
    vertex 0.000000 0.437500 3.000000
    vertex 0.187500 0.437500 -3.000000
  endloop
endfacet
facet normal 0.000000 1.000000 -0.000000
  outer loop
    vertex 0.187500 0.437500 -3.000000
    vertex 0.000000 0.437500 3.000000
    vertex 0.187500 0.437500 3.000000
  endloop
endfacet
facet normal 0.000000 0.000000 -1.000000
  outer loop
    vertex 0.000000 -0.437500 -3.000000
    vertex 0.000000 0.437500 -3.000000
    vertex 0.187500 -0.437500 -3.000000
  endloop
endfacet
facet normal 0.000000 0.000000 -1.000000
  outer loop
    vertex 0.187500 -0.437500 -3.000000
    vertex 0.000000 0.437500 -3.000000
    vertex 0.187500 0.437500 -3.000000
  endloop
endfacet
facet normal 0.000000 -1.000000 0.000000
  outer loop
    vertex 0.000000 -0.437500 4.000000
    vertex 0.000000 -0.437500 -3.000000
    vertex 0.187500 -0.437500 4.000000
  endloop
endfacet
facet normal 0.000000 -1.000000 -0.000000
  outer loop
    vertex 0.187500 -0.437500 4.000000
    vertex 0.000000 -0.437500 -3.000000
    vertex 0.187500 -0.437500 -3.000000
  endloop
endfacet
facet normal 1.000000 0.000000 0.000000
  outer loop
    vertex 0.187500 0.437500 4.000000
    vertex 0.187500 -0.437500 4.000000
    vertex 0.187500 0.437500 3.000000
  endloop
endfacet
facet normal 1.000000 0.000000 0.000000
  outer loop
    vertex 0.187500 0.437500 3.000000
    vertex 0.187500 -0.437500 4.000000
    vertex 0.187500 -0.437500 -3.000000
  endloop
endfacet
facet normal 1.000000 0.000000 0.000000
  outer loop
    vertex 0.187500 0.437500 3.000000
    vertex 0.187500 -0.437500 -3.000000
    vertex 0.187500 0.437500 -3.000000
  endloop
endfacet
facet normal 1.000000 0.000000 -0.000000
  outer loop
    vertex 0.187500 0.812500 3.000000
    vertex 0.187500 0.812500 3.500000
    vertex 0.187500 0.437500 3.000000
  endloop
endfacet
facet normal 1.000000 0.000000 0.000000
  outer loop
    vertex 0.187500 0.437500 3.000000
    vertex 0.187500 0.812500 3.500000
    vertex 0.187500 0.437500 4.000000
  endloop
endfacet
facet normal -1.000000 0.000000 0.000000
  outer loop
    vertex 0.000000 0.437500 -3.000000
    vertex 0.000000 -0.437500 -3.000000
    vertex 0.000000 0.437500 3.000000
  endloop
endfacet
facet normal -1.000000 -0.000000 0.000000
  outer loop
    vertex 0.000000 0.437500 3.000000
    vertex 0.000000 -0.437500 -3.000000
    vertex 0.000000 -0.437500 4.000000
  endloop
endfacet
facet normal -1.000000 0.000000 0.000000
  outer loop
    vertex 0.000000 0.437500 3.000000
    vertex 0.000000 -0.437500 4.000000
    vertex 0.000000 0.437500 4.000000
  endloop
endfacet
facet normal -1.000000 0.000000 0.000000
  outer loop
    vertex 0.000000 0.437500 4.000000
    vertex 0.000000 0.812500 3.500000
    vertex 0.000000 0.437500 3.000000
  endloop
endfacet
facet normal -1.000000 0.000000 0.000000
  outer loop
    vertex 0.000000 0.437500 3.000000
    vertex 0.000000 0.812500 3.500000
    vertex 0.000000 0.812500 3.000000
  endloop
endfacet
endsolid 18a7a25a-d5c6-4a99-a7f1-efc5c122e442-ascii.stl
