solid 1be63c8e-7c8a-4c4b-bd9b-12d379508859-ascii.stl
facet normal -1.000000 0.000000 0.000000
  outer loop
    vertex -2.000000 0.125000 0.000000
    vertex -2.000000 -0.187500 0.000000
    vertex -2.000000 0.125000 0.625000
  endloop
endfacet
facet normal -1.000000 -0.000000 0.000000
  outer loop
    vertex -2.000000 0.125000 0.625000
    vertex -2.000000 -0.187500 0.000000
    vertex -2.000000 -0.187500 0.625000
  endloop
endfacet
facet normal -0.780869 0.624695 0.000000
  outer loop
    vertex -1.750000 0.437500 0.000000
    vertex -2.000000 0.125000 0.000000
    vertex -1.750000 0.437500 0.625000
  endloop
endfacet
facet normal -0.780869 0.624695 0.000000
  outer loop
    vertex -1.750000 0.437500 0.625000
    vertex -2.000000 0.125000 0.000000
    vertex -2.000000 0.125000 0.625000
  endloop
endfacet
facet normal 0.000000 1.000000 -0.000000
  outer loop
    vertex -1.500000 0.437500 0.000000
    vertex -1.750000 0.437500 0.000000
    vertex -1.500000 0.437500 0.625000
  endloop
endfacet
facet normal 0.000000 1.000000 0.000000
  outer loop
    vertex -1.500000 0.437500 0.625000
    vertex -1.750000 0.437500 0.000000
    vertex -1.750000 0.437500 0.625000
  endloop
endfacet
facet normal 1.000000 0.000000 0.000000
  outer loop
    vertex -1.500000 0.187500 0.000000
    vertex -1.500000 0.437500 0.000000
    vertex -1.500000 0.187500 0.625000
  endloop
endfacet
facet normal 1.000000 -0.000000 0.000000
  outer loop
    vertex -1.500000 0.187500 0.625000
    vertex -1.500000 0.437500 0.000000
    vertex -1.500000 0.437500 0.625000
  endloop
endfacet
facet normal 0.000000 1.000000 -0.000000
  outer loop
    vertex 1.500000 0.187500 0.000000
    vertex -1.500000 0.187500 0.000000
    vertex 1.500000 0.187500 0.625000
  endloop
endfacet
facet normal 0.000000 1.000000 0.000000
  outer loop
    vertex 1.500000 0.187500 0.625000
    vertex -1.500000 0.187500 0.000000
    vertex -1.500000 0.187500 0.625000
  endloop
endfacet
facet normal 1.000000 0.000000 0.000000
  outer loop
    vertex 1.500000 -0.187500 0.000000
    vertex 1.500000 0.187500 0.000000
    vertex 1.500000 -0.187500 0.625000
  endloop
endfacet
facet normal 1.000000 -0.000000 0.000000
  outer loop
    vertex 1.500000 -0.187500 0.625000
    vertex 1.500000 0.187500 0.000000
    vertex 1.500000 0.187500 0.625000
  endloop
endfacet
facet normal 0.000000 -1.000000 0.000000
  outer loop
    vertex -2.000000 -0.187500 0.000000
    vertex 1.500000 -0.187500 0.000000
    vertex -2.000000 -0.187500 0.625000
  endloop
endfacet
facet normal 0.000000 -1.000000 0.000000
  outer loop
    vertex -2.000000 -0.187500 0.625000
    vertex 1.500000 -0.187500 0.000000
    vertex 1.500000 -0.187500 0.625000
  endloop
endfacet
facet normal -0.000000 0.000000 1.000000
  outer loop
    vertex -2.000000 0.125000 0.625000
    vertex -2.000000 -0.187500 0.625000
    vertex -1.500000 0.187500 0.625000
  endloop
endfacet
facet normal 0.000000 0.000000 1.000000
  outer loop
    vertex -1.500000 0.187500 0.625000
    vertex -2.000000 -0.187500 0.625000
    vertex 1.500000 -0.187500 0.625000
  endloop
endfacet
facet normal -0.000000 0.000000 1.000000
  outer loop
    vertex -1.500000 0.187500 0.625000
    vertex 1.500000 -0.187500 0.625000
    vertex 1.500000 0.187500 0.625000
  endloop
endfacet
facet normal 0.000000 0.000000 1.000000
  outer loop
    vertex -1.500000 0.437500 0.625000
    vertex -1.750000 0.437500 0.625000
    vertex -1.500000 0.187500 0.625000
  endloop
endfacet
facet normal 0.000000 0.000000 1.000000
  outer loop
    vertex -1.500000 0.187500 0.625000
    vertex -1.750000 0.437500 0.625000
    vertex -2.000000 0.125000 0.625000
  endloop
endfacet
facet normal -0.000000 -0.000000 -1.000000
  outer loop
    vertex 1.500000 0.187500 0.000000
    vertex 1.500000 -0.187500 0.000000
    vertex -1.500000 0.187500 0.000000
  endloop
endfacet
facet normal 0.000000 -0.000000 -1.000000
  outer loop
    vertex -1.500000 0.187500 0.000000
    vertex 1.500000 -0.187500 0.000000
    vertex -2.000000 -0.187500 0.000000
  endloop
endfacet
facet normal 0.000000 0.000000 -1.000000
  outer loop
    vertex -1.500000 0.187500 0.000000
    vertex -2.000000 -0.187500 0.000000
    vertex -2.000000 0.125000 0.000000
  endloop
endfacet
facet normal 0.000000 0.000000 -1.000000
  outer loop
    vertex -2.000000 0.125000 0.000000
    vertex -1.750000 0.437500 0.000000
    vertex -1.500000 0.187500 0.000000
  endloop
endfacet
facet normal 0.000000 0.000000 -1.000000
  outer loop
    vertex -1.500000 0.187500 0.000000
    vertex -1.750000 0.437500 0.000000
    vertex -1.500000 0.437500 0.000000
  endloop
endfacet
endsolid 1be63c8e-7c8a-4c4b-bd9b-12d379508859-ascii.stl
