solid 24865cbf-b172-4ae1-a100-59c2b3cd0ef6-ascii.stl
facet normal -1.000000 0.000000 0.000000
  outer loop
    vertex -1.750000 0.125000 0.000000
    vertex -1.750000 -0.187500 0.000000
    vertex -1.750000 0.125000 0.625000
  endloop
endfacet
facet normal -1.000000 -0.000000 0.000000
  outer loop
    vertex -1.750000 0.125000 0.625000
    vertex -1.750000 -0.187500 0.000000
    vertex -1.750000 -0.187500 0.625000
  endloop
endfacet
facet normal -0.780869 0.624695 0.000000
  outer loop
    vertex -1.500000 0.437500 0.000000
    vertex -1.750000 0.125000 0.000000
    vertex -1.500000 0.437500 0.625000
  endloop
endfacet
facet normal -0.780869 0.624695 0.000000
  outer loop
    vertex -1.500000 0.437500 0.625000
    vertex -1.750000 0.125000 0.000000
    vertex -1.750000 0.125000 0.625000
  endloop
endfacet
facet normal 0.000000 1.000000 -0.000000
  outer loop
    vertex -1.250000 0.437500 0.000000
    vertex -1.500000 0.437500 0.000000
    vertex -1.250000 0.437500 0.625000
  endloop
endfacet
facet normal 0.000000 1.000000 0.000000
  outer loop
    vertex -1.250000 0.437500 0.625000
    vertex -1.500000 0.437500 0.000000
    vertex -1.500000 0.437500 0.625000
  endloop
endfacet
facet normal 1.000000 0.000000 0.000000
  outer loop
    vertex -1.250000 0.187500 0.000000
    vertex -1.250000 0.437500 0.000000
    vertex -1.250000 0.187500 0.625000
  endloop
endfacet
facet normal 1.000000 -0.000000 0.000000
  outer loop
    vertex -1.250000 0.187500 0.625000
    vertex -1.250000 0.437500 0.000000
    vertex -1.250000 0.437500 0.625000
  endloop
endfacet
facet normal 0.000000 1.000000 -0.000000
  outer loop
    vertex 1.250000 0.187500 0.000000
    vertex -1.250000 0.187500 0.000000
    vertex 1.250000 0.187500 0.625000
  endloop
endfacet
facet normal 0.000000 1.000000 0.000000
  outer loop
    vertex 1.250000 0.187500 0.625000
    vertex -1.250000 0.187500 0.000000
    vertex -1.250000 0.187500 0.625000
  endloop
endfacet
facet normal 1.000000 0.000000 0.000000
  outer loop
    vertex 1.250000 -0.187500 0.000000
    vertex 1.250000 0.187500 0.000000
    vertex 1.250000 -0.187500 0.625000
  endloop
endfacet
facet normal 1.000000 -0.000000 0.000000
  outer loop
    vertex 1.250000 -0.187500 0.625000
    vertex 1.250000 0.187500 0.000000
    vertex 1.250000 0.187500 0.625000
  endloop
endfacet
facet normal 0.000000 -1.000000 0.000000
  outer loop
    vertex -1.750000 -0.187500 0.000000
    vertex 1.250000 -0.187500 0.000000
    vertex -1.750000 -0.187500 0.625000
  endloop
endfacet
facet normal 0.000000 -1.000000 0.000000
  outer loop
    vertex -1.750000 -0.187500 0.625000
    vertex 1.250000 -0.187500 0.000000
    vertex 1.250000 -0.187500 0.625000
  endloop
endfacet
facet normal -0.000000 0.000000 1.000000
  outer loop
    vertex -1.750000 0.125000 0.625000
    vertex -1.750000 -0.187500 0.625000
    vertex -1.250000 0.187500 0.625000
  endloop
endfacet
facet normal 0.000000 0.000000 1.000000
  outer loop
    vertex -1.250000 0.187500 0.625000
    vertex -1.750000 -0.187500 0.625000
    vertex 1.250000 -0.187500 0.625000
  endloop
endfacet
facet normal -0.000000 0.000000 1.000000
  outer loop
    vertex -1.250000 0.187500 0.625000
    vertex 1.250000 -0.187500 0.625000
    vertex 1.250000 0.187500 0.625000
  endloop
endfacet
facet normal 0.000000 0.000000 1.000000
  outer loop
    vertex -1.250000 0.437500 0.625000
    vertex -1.500000 0.437500 0.625000
    vertex -1.250000 0.187500 0.625000
  endloop
endfacet
facet normal 0.000000 0.000000 1.000000
  outer loop
    vertex -1.250000 0.187500 0.625000
    vertex -1.500000 0.437500 0.625000
    vertex -1.750000 0.125000 0.625000
  endloop
endfacet
facet normal -0.000000 -0.000000 -1.000000
  outer loop
    vertex 1.250000 0.187500 0.000000
    vertex 1.250000 -0.187500 0.000000
    vertex -1.250000 0.187500 0.000000
  endloop
endfacet
facet normal 0.000000 -0.000000 -1.000000
  outer loop
    vertex -1.250000 0.187500 0.000000
    vertex 1.250000 -0.187500 0.000000
    vertex -1.750000 -0.187500 0.000000
  endloop
endfacet
facet normal 0.000000 0.000000 -1.000000
  outer loop
    vertex -1.250000 0.187500 0.000000
    vertex -1.750000 -0.187500 0.000000
    vertex -1.750000 0.125000 0.000000
  endloop
endfacet
facet normal 0.000000 0.000000 -1.000000
  outer loop
    vertex -1.750000 0.125000 0.000000
    vertex -1.500000 0.437500 0.000000
    vertex -1.250000 0.187500 0.000000
  endloop
endfacet
facet normal 0.000000 0.000000 -1.000000
  outer loop
    vertex -1.250000 0.187500 0.000000
    vertex -1.500000 0.437500 0.000000
    vertex -1.250000 0.437500 0.000000
  endloop
endfacet
endsolid 24865cbf-b172-4ae1-a100-59c2b3cd0ef6-ascii.stl
