solid 2ca9c92e-cc90-47f1-9e80-60f86527a778-ascii.stl
facet normal -0.000000 0.000000 1.000000
  outer loop
    vertex 0.000000 0.375000 3.125000
    vertex 0.000000 -0.375000 3.125000
    vertex 0.187500 0.375000 3.125000
  endloop
endfacet
facet normal 0.000000 0.000000 1.000000
  outer loop
    vertex 0.187500 0.375000 3.125000
    vertex 0.000000 -0.375000 3.125000
    vertex 0.187500 -0.375000 3.125000
  endloop
endfacet
facet normal -0.000000 0.759257 0.650791
  outer loop
    vertex 0.000000 0.750000 2.687500
    vertex 0.000000 0.375000 3.125000
    vertex 0.187500 0.750000 2.687500
  endloop
endfacet
facet normal 0.000000 0.759257 0.650791
  outer loop
    vertex 0.187500 0.750000 2.687500
    vertex 0.000000 0.375000 3.125000
    vertex 0.187500 0.375000 3.125000
  endloop
endfacet
facet normal 0.000000 1.000000 0.000000
  outer loop
    vertex 0.000000 0.750000 2.250000
    vertex 0.000000 0.750000 2.687500
    vertex 0.187500 0.750000 2.250000
  endloop
endfacet
facet normal 0.000000 1.000000 -0.000000
  outer loop
    vertex 0.187500 0.750000 2.250000
    vertex 0.000000 0.750000 2.687500
    vertex 0.187500 0.750000 2.687500
  endloop
endfacet
facet normal 0.000000 0.000000 -1.000000
  outer loop
    vertex 0.000000 0.375000 2.250000
    vertex 0.000000 0.750000 2.250000
    vertex 0.187500 0.375000 2.250000
  endloop
endfacet
facet normal 0.000000 0.000000 -1.000000
  outer loop
    vertex 0.187500 0.375000 2.250000
    vertex 0.000000 0.750000 2.250000
    vertex 0.187500 0.750000 2.250000
  endloop
endfacet
facet normal 0.000000 1.000000 0.000000
  outer loop
    vertex 0.000000 0.375000 -2.250000
    vertex 0.000000 0.375000 2.250000
    vertex 0.187500 0.375000 -2.250000
  endloop
endfacet
facet normal 0.000000 1.000000 -0.000000
  outer loop
    vertex 0.187500 0.375000 -2.250000
    vertex 0.000000 0.375000 2.250000
    vertex 0.187500 0.375000 2.250000
  endloop
endfacet
facet normal 0.000000 0.000000 -1.000000
  outer loop
    vertex 0.000000 -0.375000 -2.250000
    vertex 0.000000 0.375000 -2.250000
    vertex 0.187500 -0.375000 -2.250000
  endloop
endfacet
facet normal 0.000000 0.000000 -1.000000
  outer loop
    vertex 0.187500 -0.375000 -2.250000
    vertex 0.000000 0.375000 -2.250000
    vertex 0.187500 0.375000 -2.250000
  endloop
endfacet
facet normal 0.000000 -1.000000 0.000000
  outer loop
    vertex 0.000000 -0.375000 3.125000
    vertex 0.000000 -0.375000 -2.250000
    vertex 0.187500 -0.375000 3.125000
  endloop
endfacet
facet normal 0.000000 -1.000000 -0.000000
  outer loop
    vertex 0.187500 -0.375000 3.125000
    vertex 0.000000 -0.375000 -2.250000
    vertex 0.187500 -0.375000 -2.250000
  endloop
endfacet
facet normal 1.000000 0.000000 0.000000
  outer loop
    vertex 0.187500 0.375000 3.125000
    vertex 0.187500 -0.375000 3.125000
    vertex 0.187500 0.375000 2.250000
  endloop
endfacet
facet normal 1.000000 0.000000 0.000000
  outer loop
    vertex 0.187500 0.375000 2.250000
    vertex 0.187500 -0.375000 3.125000
    vertex 0.187500 -0.375000 -2.250000
  endloop
endfacet
facet normal 1.000000 0.000000 0.000000
  outer loop
    vertex 0.187500 0.375000 2.250000
    vertex 0.187500 -0.375000 -2.250000
    vertex 0.187500 0.375000 -2.250000
  endloop
endfacet
facet normal 1.000000 0.000000 -0.000000
  outer loop
    vertex 0.187500 0.750000 2.250000
    vertex 0.187500 0.750000 2.687500
    vertex 0.187500 0.375000 2.250000
  endloop
endfacet
facet normal 1.000000 0.000000 0.000000
  outer loop
    vertex 0.187500 0.375000 2.250000
    vertex 0.187500 0.750000 2.687500
    vertex 0.187500 0.375000 3.125000
  endloop
endfacet
facet normal -1.000000 0.000000 0.000000
  outer loop
    vertex 0.000000 0.375000 -2.250000
    vertex 0.000000 -0.375000 -2.250000
    vertex 0.000000 0.375000 2.250000
  endloop
endfacet
facet normal -1.000000 -0.000000 0.000000
  outer loop
    vertex 0.000000 0.375000 2.250000
    vertex 0.000000 -0.375000 -2.250000
    vertex 0.000000 -0.375000 3.125000
  endloop
endfacet
facet normal -1.000000 0.000000 0.000000
  outer loop
    vertex 0.000000 0.375000 2.250000
    vertex 0.000000 -0.375000 3.125000
    vertex 0.000000 0.375000 3.125000
  endloop
endfacet
facet normal -1.000000 0.000000 0.000000
  outer loop
    vertex 0.000000 0.375000 3.125000
    vertex 0.000000 0.750000 2.687500
    vertex 0.000000 0.375000 2.250000
  endloop
endfacet
facet normal -1.000000 0.000000 0.000000
  outer loop
    vertex 0.000000 0.375000 2.250000
    vertex 0.000000 0.750000 2.687500
    vertex 0.000000 0.750000 2.250000
  endloop
endfacet
endsolid 2ca9c92e-cc90-47f1-9e80-60f86527a778-ascii.stl
