solid 3a3c1c4c-b815-41e9-80c3-8a6ff92e212a-ascii.stl
facet normal -0.000000 0.000000 1.000000
  outer loop
    vertex 0.000000 0.250000 2.125000
    vertex 0.000000 -0.250000 2.125000
    vertex 0.187500 0.250000 2.125000
  endloop
endfacet
facet normal 0.000000 0.000000 1.000000
  outer loop
    vertex 0.187500 0.250000 2.125000
    vertex 0.000000 -0.250000 2.125000
    vertex 0.187500 -0.250000 2.125000
  endloop
endfacet
facet normal -0.000000 0.780869 0.624695
  outer loop
    vertex 0.000000 0.500000 1.812500
    vertex 0.000000 0.250000 2.125000
    vertex 0.187500 0.500000 1.812500
  endloop
endfacet
facet normal 0.000000 0.780869 0.624695
  outer loop
    vertex 0.187500 0.500000 1.812500
    vertex 0.000000 0.250000 2.125000
    vertex 0.187500 0.250000 2.125000
  endloop
endfacet
facet normal 0.000000 1.000000 0.000000
  outer loop
    vertex 0.000000 0.500000 1.500000
    vertex 0.000000 0.500000 1.812500
    vertex 0.187500 0.500000 1.500000
  endloop
endfacet
facet normal 0.000000 1.000000 -0.000000
  outer loop
    vertex 0.187500 0.500000 1.500000
    vertex 0.000000 0.500000 1.812500
    vertex 0.187500 0.500000 1.812500
  endloop
endfacet
facet normal 0.000000 0.000000 -1.000000
  outer loop
    vertex 0.000000 0.250000 1.500000
    vertex 0.000000 0.500000 1.500000
    vertex 0.187500 0.250000 1.500000
  endloop
endfacet
facet normal 0.000000 0.000000 -1.000000
  outer loop
    vertex 0.187500 0.250000 1.500000
    vertex 0.000000 0.500000 1.500000
    vertex 0.187500 0.500000 1.500000
  endloop
endfacet
facet normal 0.000000 1.000000 0.000000
  outer loop
    vertex 0.000000 0.250000 -1.500000
    vertex 0.000000 0.250000 1.500000
    vertex 0.187500 0.250000 -1.500000
  endloop
endfacet
facet normal 0.000000 1.000000 -0.000000
  outer loop
    vertex 0.187500 0.250000 -1.500000
    vertex 0.000000 0.250000 1.500000
    vertex 0.187500 0.250000 1.500000
  endloop
endfacet
facet normal 0.000000 0.000000 -1.000000
  outer loop
    vertex 0.000000 -0.250000 -1.500000
    vertex 0.000000 0.250000 -1.500000
    vertex 0.187500 -0.250000 -1.500000
  endloop
endfacet
facet normal 0.000000 0.000000 -1.000000
  outer loop
    vertex 0.187500 -0.250000 -1.500000
    vertex 0.000000 0.250000 -1.500000
    vertex 0.187500 0.250000 -1.500000
  endloop
endfacet
facet normal 0.000000 -1.000000 0.000000
  outer loop
    vertex 0.000000 -0.250000 2.125000
    vertex 0.000000 -0.250000 -1.500000
    vertex 0.187500 -0.250000 2.125000
  endloop
endfacet
facet normal 0.000000 -1.000000 -0.000000
  outer loop
    vertex 0.187500 -0.250000 2.125000
    vertex 0.000000 -0.250000 -1.500000
    vertex 0.187500 -0.250000 -1.500000
  endloop
endfacet
facet normal 1.000000 0.000000 0.000000
  outer loop
    vertex 0.187500 0.250000 2.125000
    vertex 0.187500 -0.250000 2.125000
    vertex 0.187500 0.250000 1.500000
  endloop
endfacet
facet normal 1.000000 0.000000 0.000000
  outer loop
    vertex 0.187500 0.250000 1.500000
    vertex 0.187500 -0.250000 2.125000
    vertex 0.187500 -0.250000 -1.500000
  endloop
endfacet
facet normal 1.000000 0.000000 0.000000
  outer loop
    vertex 0.187500 0.250000 1.500000
    vertex 0.187500 -0.250000 -1.500000
    vertex 0.187500 0.250000 -1.500000
  endloop
endfacet
facet normal 1.000000 0.000000 -0.000000
  outer loop
    vertex 0.187500 0.500000 1.500000
    vertex 0.187500 0.500000 1.812500
    vertex 0.187500 0.250000 1.500000
  endloop
endfacet
facet normal 1.000000 0.000000 0.000000
  outer loop
    vertex 0.187500 0.250000 1.500000
    vertex 0.187500 0.500000 1.812500
    vertex 0.187500 0.250000 2.125000
  endloop
endfacet
facet normal -1.000000 0.000000 0.000000
  outer loop
    vertex 0.000000 0.250000 -1.500000
    vertex 0.000000 -0.250000 -1.500000
    vertex 0.000000 0.250000 1.500000
  endloop
endfacet
facet normal -1.000000 -0.000000 0.000000
  outer loop
    vertex 0.000000 0.250000 1.500000
    vertex 0.000000 -0.250000 -1.500000
    vertex 0.000000 -0.250000 2.125000
  endloop
endfacet
facet normal -1.000000 0.000000 0.000000
  outer loop
    vertex 0.000000 0.250000 1.500000
    vertex 0.000000 -0.250000 2.125000
    vertex 0.000000 0.250000 2.125000
  endloop
endfacet
facet normal -1.000000 0.000000 0.000000
  outer loop
    vertex 0.000000 0.250000 2.125000
    vertex 0.000000 0.500000 1.812500
    vertex 0.000000 0.250000 1.500000
  endloop
endfacet
facet normal -1.000000 0.000000 0.000000
  outer loop
    vertex 0.000000 0.250000 1.500000
    vertex 0.000000 0.500000 1.812500
    vertex 0.000000 0.500000 1.500000
  endloop
endfacet
endsolid 3a3c1c4c-b815-41e9-80c3-8a6ff92e212a-ascii.stl
