solid 56d1a533-0067-4292-92f8-1755ea8214d8-ascii.stl
facet normal -1.000000 0.000000 0.000000
  outer loop
    vertex -2.375000 0.125000 0.000000
    vertex -2.375000 -0.125000 0.000000
    vertex -2.375000 0.125000 0.500000
  endloop
endfacet
facet normal -1.000000 -0.000000 0.000000
  outer loop
    vertex -2.375000 0.125000 0.500000
    vertex -2.375000 -0.125000 0.000000
    vertex -2.375000 -0.125000 0.500000
  endloop
endfacet
facet normal -0.800000 0.600000 0.000000
  outer loop
    vertex -2.187500 0.375000 0.000000
    vertex -2.375000 0.125000 0.000000
    vertex -2.187500 0.375000 0.500000
  endloop
endfacet
facet normal -0.800000 0.600000 0.000000
  outer loop
    vertex -2.187500 0.375000 0.500000
    vertex -2.375000 0.125000 0.000000
    vertex -2.375000 0.125000 0.500000
  endloop
endfacet
facet normal 0.000000 1.000000 -0.000000
  outer loop
    vertex -2.000000 0.375000 0.000000
    vertex -2.187500 0.375000 0.000000
    vertex -2.000000 0.375000 0.500000
  endloop
endfacet
facet normal 0.000000 1.000000 0.000000
  outer loop
    vertex -2.000000 0.375000 0.500000
    vertex -2.187500 0.375000 0.000000
    vertex -2.187500 0.375000 0.500000
  endloop
endfacet
facet normal 1.000000 0.000000 0.000000
  outer loop
    vertex -2.000000 0.125000 0.000000
    vertex -2.000000 0.375000 0.000000
    vertex -2.000000 0.125000 0.500000
  endloop
endfacet
facet normal 1.000000 -0.000000 0.000000
  outer loop
    vertex -2.000000 0.125000 0.500000
    vertex -2.000000 0.375000 0.000000
    vertex -2.000000 0.375000 0.500000
  endloop
endfacet
facet normal 0.000000 1.000000 -0.000000
  outer loop
    vertex 2.000000 0.125000 0.000000
    vertex -2.000000 0.125000 0.000000
    vertex 2.000000 0.125000 0.500000
  endloop
endfacet
facet normal 0.000000 1.000000 0.000000
  outer loop
    vertex 2.000000 0.125000 0.500000
    vertex -2.000000 0.125000 0.000000
    vertex -2.000000 0.125000 0.500000
  endloop
endfacet
facet normal 1.000000 0.000000 0.000000
  outer loop
    vertex 2.000000 -0.125000 0.000000
    vertex 2.000000 0.125000 0.000000
    vertex 2.000000 -0.125000 0.500000
  endloop
endfacet
facet normal 1.000000 -0.000000 0.000000
  outer loop
    vertex 2.000000 -0.125000 0.500000
    vertex 2.000000 0.125000 0.000000
    vertex 2.000000 0.125000 0.500000
  endloop
endfacet
facet normal 0.000000 -1.000000 0.000000
  outer loop
    vertex -2.375000 -0.125000 0.000000
    vertex 2.000000 -0.125000 0.000000
    vertex -2.375000 -0.125000 0.500000
  endloop
endfacet
facet normal 0.000000 -1.000000 0.000000
  outer loop
    vertex -2.375000 -0.125000 0.500000
    vertex 2.000000 -0.125000 0.000000
    vertex 2.000000 -0.125000 0.500000
  endloop
endfacet
facet normal -0.000000 0.000000 1.000000
  outer loop
    vertex -2.375000 0.125000 0.500000
    vertex -2.375000 -0.125000 0.500000
    vertex -2.000000 0.125000 0.500000
  endloop
endfacet
facet normal 0.000000 0.000000 1.000000
  outer loop
    vertex -2.000000 0.125000 0.500000
    vertex -2.375000 -0.125000 0.500000
    vertex 2.000000 -0.125000 0.500000
  endloop
endfacet
facet normal -0.000000 0.000000 1.000000
  outer loop
    vertex -2.000000 0.125000 0.500000
    vertex 2.000000 -0.125000 0.500000
    vertex 2.000000 0.125000 0.500000
  endloop
endfacet
facet normal 0.000000 0.000000 1.000000
  outer loop
    vertex -2.000000 0.375000 0.500000
    vertex -2.187500 0.375000 0.500000
    vertex -2.000000 0.125000 0.500000
  endloop
endfacet
facet normal 0.000000 0.000000 1.000000
  outer loop
    vertex -2.000000 0.125000 0.500000
    vertex -2.187500 0.375000 0.500000
    vertex -2.375000 0.125000 0.500000
  endloop
endfacet
facet normal -0.000000 -0.000000 -1.000000
  outer loop
    vertex 2.000000 0.125000 0.000000
    vertex 2.000000 -0.125000 0.000000
    vertex -2.000000 0.125000 0.000000
  endloop
endfacet
facet normal 0.000000 -0.000000 -1.000000
  outer loop
    vertex -2.000000 0.125000 0.000000
    vertex 2.000000 -0.125000 0.000000
    vertex -2.375000 -0.125000 0.000000
  endloop
endfacet
facet normal -0.000000 0.000000 -1.000000
  outer loop
    vertex -2.000000 0.125000 0.000000
    vertex -2.375000 -0.125000 0.000000
    vertex -2.375000 0.125000 0.000000
  endloop
endfacet
facet normal 0.000000 0.000000 -1.000000
  outer loop
    vertex -2.375000 0.125000 0.000000
    vertex -2.187500 0.375000 0.000000
    vertex -2.000000 0.125000 0.000000
  endloop
endfacet
facet normal 0.000000 0.000000 -1.000000
  outer loop
    vertex -2.000000 0.125000 0.000000
    vertex -2.187500 0.375000 0.000000
    vertex -2.000000 0.375000 0.000000
  endloop
endfacet
endsolid 56d1a533-0067-4292-92f8-1755ea8214d8-ascii.stl
