solid 70b0d127-81a8-492b-ad31-f4f8929f6419-ascii.stl
facet normal -0.000000 0.000000 1.000000
  outer loop
    vertex 0.000000 0.312500 2.500000
    vertex 0.000000 -0.312500 2.500000
    vertex 0.187500 0.312500 2.500000
  endloop
endfacet
facet normal 0.000000 0.000000 1.000000
  outer loop
    vertex 0.187500 0.312500 2.500000
    vertex 0.000000 -0.312500 2.500000
    vertex 0.187500 -0.312500 2.500000
  endloop
endfacet
facet normal -0.000000 0.707107 0.707107
  outer loop
    vertex 0.000000 0.687500 2.125000
    vertex 0.000000 0.312500 2.500000
    vertex 0.187500 0.687500 2.125000
  endloop
endfacet
facet normal 0.000000 0.707107 0.707107
  outer loop
    vertex 0.187500 0.687500 2.125000
    vertex 0.000000 0.312500 2.500000
    vertex 0.187500 0.312500 2.500000
  endloop
endfacet
facet normal 0.000000 1.000000 0.000000
  outer loop
    vertex 0.000000 0.687500 1.750000
    vertex 0.000000 0.687500 2.125000
    vertex 0.187500 0.687500 1.750000
  endloop
endfacet
facet normal 0.000000 1.000000 -0.000000
  outer loop
    vertex 0.187500 0.687500 1.750000
    vertex 0.000000 0.687500 2.125000
    vertex 0.187500 0.687500 2.125000
  endloop
endfacet
facet normal 0.000000 0.000000 -1.000000
  outer loop
    vertex 0.000000 0.312500 1.750000
    vertex 0.000000 0.687500 1.750000
    vertex 0.187500 0.312500 1.750000
  endloop
endfacet
facet normal 0.000000 0.000000 -1.000000
  outer loop
    vertex 0.187500 0.312500 1.750000
    vertex 0.000000 0.687500 1.750000
    vertex 0.187500 0.687500 1.750000
  endloop
endfacet
facet normal 0.000000 1.000000 0.000000
  outer loop
    vertex 0.000000 0.312500 -1.750000
    vertex 0.000000 0.312500 1.750000
    vertex 0.187500 0.312500 -1.750000
  endloop
endfacet
facet normal 0.000000 1.000000 -0.000000
  outer loop
    vertex 0.187500 0.312500 -1.750000
    vertex 0.000000 0.312500 1.750000
    vertex 0.187500 0.312500 1.750000
  endloop
endfacet
facet normal 0.000000 0.000000 -1.000000
  outer loop
    vertex 0.000000 -0.312500 -1.750000
    vertex 0.000000 0.312500 -1.750000
    vertex 0.187500 -0.312500 -1.750000
  endloop
endfacet
facet normal 0.000000 0.000000 -1.000000
  outer loop
    vertex 0.187500 -0.312500 -1.750000
    vertex 0.000000 0.312500 -1.750000
    vertex 0.187500 0.312500 -1.750000
  endloop
endfacet
facet normal 0.000000 -1.000000 0.000000
  outer loop
    vertex 0.000000 -0.312500 2.500000
    vertex 0.000000 -0.312500 -1.750000
    vertex 0.187500 -0.312500 2.500000
  endloop
endfacet
facet normal 0.000000 -1.000000 -0.000000
  outer loop
    vertex 0.187500 -0.312500 2.500000
    vertex 0.000000 -0.312500 -1.750000
    vertex 0.187500 -0.312500 -1.750000
  endloop
endfacet
facet normal 1.000000 0.000000 0.000000
  outer loop
    vertex 0.187500 0.312500 2.500000
    vertex 0.187500 -0.312500 2.500000
    vertex 0.187500 0.312500 1.750000
  endloop
endfacet
facet normal 1.000000 0.000000 0.000000
  outer loop
    vertex 0.187500 0.312500 1.750000
    vertex 0.187500 -0.312500 2.500000
    vertex 0.187500 -0.312500 -1.750000
  endloop
endfacet
facet normal 1.000000 0.000000 0.000000
  outer loop
    vertex 0.187500 0.312500 1.750000
    vertex 0.187500 -0.312500 -1.750000
    vertex 0.187500 0.312500 -1.750000
  endloop
endfacet
facet normal 1.000000 0.000000 -0.000000
  outer loop
    vertex 0.187500 0.687500 1.750000
    vertex 0.187500 0.687500 2.125000
    vertex 0.187500 0.312500 1.750000
  endloop
endfacet
facet normal 1.000000 0.000000 0.000000
  outer loop
    vertex 0.187500 0.312500 1.750000
    vertex 0.187500 0.687500 2.125000
    vertex 0.187500 0.312500 2.500000
  endloop
endfacet
facet normal -1.000000 0.000000 0.000000
  outer loop
    vertex 0.000000 0.312500 -1.750000
    vertex 0.000000 -0.312500 -1.750000
    vertex 0.000000 0.312500 1.750000
  endloop
endfacet
facet normal -1.000000 -0.000000 0.000000
  outer loop
    vertex 0.000000 0.312500 1.750000
    vertex 0.000000 -0.312500 -1.750000
    vertex 0.000000 -0.312500 2.500000
  endloop
endfacet
facet normal -1.000000 0.000000 0.000000
  outer loop
    vertex 0.000000 0.312500 1.750000
    vertex 0.000000 -0.312500 2.500000
    vertex 0.000000 0.312500 2.500000
  endloop
endfacet
facet normal -1.000000 0.000000 0.000000
  outer loop
    vertex 0.000000 0.312500 2.500000
    vertex 0.000000 0.687500 2.125000
    vertex 0.000000 0.312500 1.750000
  endloop
endfacet
facet normal -1.000000 0.000000 0.000000
  outer loop
    vertex 0.000000 0.312500 1.750000
    vertex 0.000000 0.687500 2.125000
    vertex 0.000000 0.687500 1.750000
  endloop
endfacet
endsolid 70b0d127-81a8-492b-ad31-f4f8929f6419-ascii.stl
