solid 8d7162ba-03ab-4aa7-a01e-3cfb0d097d93-ascii.stl
facet normal -1.000000 0.000000 0.000000
  outer loop
    vertex -3.625000 0.187500 0.000000
    vertex -3.625000 -0.375000 0.000000
    vertex -3.625000 0.187500 1.125000
  endloop
endfacet
facet normal -1.000000 -0.000000 0.000000
  outer loop
    vertex -3.625000 0.187500 1.125000
    vertex -3.625000 -0.375000 0.000000
    vertex -3.625000 -0.375000 1.125000
  endloop
endfacet
facet normal -0.789352 0.613941 0.000000
  outer loop
    vertex -3.187500 0.750000 0.000000
    vertex -3.625000 0.187500 0.000000
    vertex -3.187500 0.750000 1.125000
  endloop
endfacet
facet normal -0.789352 0.613941 0.000000
  outer loop
    vertex -3.187500 0.750000 1.125000
    vertex -3.625000 0.187500 0.000000
    vertex -3.625000 0.187500 1.125000
  endloop
endfacet
facet normal 0.000000 1.000000 -0.000000
  outer loop
    vertex -2.750000 0.750000 0.000000
    vertex -3.187500 0.750000 0.000000
    vertex -2.750000 0.750000 1.125000
  endloop
endfacet
facet normal 0.000000 1.000000 0.000000
  outer loop
    vertex -2.750000 0.750000 1.125000
    vertex -3.187500 0.750000 0.000000
    vertex -3.187500 0.750000 1.125000
  endloop
endfacet
facet normal 1.000000 0.000000 0.000000
  outer loop
    vertex -2.750000 0.375000 0.000000
    vertex -2.750000 0.750000 0.000000
    vertex -2.750000 0.375000 1.125000
  endloop
endfacet
facet normal 1.000000 -0.000000 0.000000
  outer loop
    vertex -2.750000 0.375000 1.125000
    vertex -2.750000 0.750000 0.000000
    vertex -2.750000 0.750000 1.125000
  endloop
endfacet
facet normal 0.000000 1.000000 -0.000000
  outer loop
    vertex 2.750000 0.375000 0.000000
    vertex -2.750000 0.375000 0.000000
    vertex 2.750000 0.375000 1.125000
  endloop
endfacet
facet normal 0.000000 1.000000 0.000000
  outer loop
    vertex 2.750000 0.375000 1.125000
    vertex -2.750000 0.375000 0.000000
    vertex -2.750000 0.375000 1.125000
  endloop
endfacet
facet normal 1.000000 0.000000 0.000000
  outer loop
    vertex 2.750000 -0.375000 0.000000
    vertex 2.750000 0.375000 0.000000
    vertex 2.750000 -0.375000 1.125000
  endloop
endfacet
facet normal 1.000000 -0.000000 0.000000
  outer loop
    vertex 2.750000 -0.375000 1.125000
    vertex 2.750000 0.375000 0.000000
    vertex 2.750000 0.375000 1.125000
  endloop
endfacet
facet normal 0.000000 -1.000000 0.000000
  outer loop
    vertex -3.625000 -0.375000 0.000000
    vertex 2.750000 -0.375000 0.000000
    vertex -3.625000 -0.375000 1.125000
  endloop
endfacet
facet normal 0.000000 -1.000000 0.000000
  outer loop
    vertex -3.625000 -0.375000 1.125000
    vertex 2.750000 -0.375000 0.000000
    vertex 2.750000 -0.375000 1.125000
  endloop
endfacet
facet normal 0.000000 0.000000 1.000000
  outer loop
    vertex -3.625000 -0.375000 1.125000
    vertex 2.750000 -0.375000 1.125000
    vertex -3.625000 0.187500 1.125000
  endloop
endfacet
facet normal -0.000000 0.000000 1.000000
  outer loop
    vertex -3.625000 0.187500 1.125000
    vertex 2.750000 -0.375000 1.125000
    vertex -2.750000 0.375000 1.125000
  endloop
endfacet
facet normal 0.000000 0.000000 1.000000
  outer loop
    vertex -3.625000 0.187500 1.125000
    vertex -2.750000 0.375000 1.125000
    vertex -3.187500 0.750000 1.125000
  endloop
endfacet
facet normal -0.000000 0.000000 1.000000
  outer loop
    vertex -3.187500 0.750000 1.125000
    vertex -2.750000 0.375000 1.125000
    vertex -2.750000 0.750000 1.125000
  endloop
endfacet
facet normal 0.000000 -0.000000 1.000000
  outer loop
    vertex 2.750000 -0.375000 1.125000
    vertex 2.750000 0.375000 1.125000
    vertex -2.750000 0.375000 1.125000
  endloop
endfacet
facet normal 0.000000 0.000000 -1.000000
  outer loop
    vertex -3.625000 -0.375000 0.000000
    vertex -3.625000 0.187500 0.000000
    vertex 2.750000 -0.375000 0.000000
  endloop
endfacet
facet normal 0.000000 0.000000 -1.000000
  outer loop
    vertex 2.750000 -0.375000 0.000000
    vertex -3.625000 0.187500 0.000000
    vertex -2.750000 0.375000 0.000000
  endloop
endfacet
facet normal 0.000000 0.000000 -1.000000
  outer loop
    vertex 2.750000 -0.375000 0.000000
    vertex -2.750000 0.375000 0.000000
    vertex 2.750000 0.375000 0.000000
  endloop
endfacet
facet normal 0.000000 0.000000 -1.000000
  outer loop
    vertex -3.625000 0.187500 0.000000
    vertex -3.187500 0.750000 0.000000
    vertex -2.750000 0.375000 0.000000
  endloop
endfacet
facet normal 0.000000 0.000000 -1.000000
  outer loop
    vertex -2.750000 0.375000 0.000000
    vertex -3.187500 0.750000 0.000000
    vertex -2.750000 0.750000 0.000000
  endloop
endfacet
endsolid 8d7162ba-03ab-4aa7-a01e-3cfb0d097d93-ascii.stl
