solid 97936c84-64de-4c58-b4f6-ac0686b3c5b0-ascii.stl
facet normal -1.000000 0.000000 0.000000
  outer loop
    vertex -1.031250 0.062500 0.000000
    vertex -1.031250 -0.093750 0.000000
    vertex -1.031250 0.062500 0.312500
  endloop
endfacet
facet normal -1.000000 -0.000000 0.000000
  outer loop
    vertex -1.031250 0.062500 0.312500
    vertex -1.031250 -0.093750 0.000000
    vertex -1.031250 -0.093750 0.312500
  endloop
endfacet
facet normal -0.743294 0.668965 0.000000
  outer loop
    vertex -0.890625 0.218750 0.000000
    vertex -1.031250 0.062500 0.000000
    vertex -0.890625 0.218750 0.312500
  endloop
endfacet
facet normal -0.743294 0.668965 0.000000
  outer loop
    vertex -0.890625 0.218750 0.312500
    vertex -1.031250 0.062500 0.000000
    vertex -1.031250 0.062500 0.312500
  endloop
endfacet
facet normal 0.000000 1.000000 -0.000000
  outer loop
    vertex -0.750000 0.218750 0.000000
    vertex -0.890625 0.218750 0.000000
    vertex -0.750000 0.218750 0.312500
  endloop
endfacet
facet normal 0.000000 1.000000 0.000000
  outer loop
    vertex -0.750000 0.218750 0.312500
    vertex -0.890625 0.218750 0.000000
    vertex -0.890625 0.218750 0.312500
  endloop
endfacet
facet normal 1.000000 0.000000 0.000000
  outer loop
    vertex -0.750000 0.093750 0.000000
    vertex -0.750000 0.218750 0.000000
    vertex -0.750000 0.093750 0.312500
  endloop
endfacet
facet normal 1.000000 -0.000000 0.000000
  outer loop
    vertex -0.750000 0.093750 0.312500
    vertex -0.750000 0.218750 0.000000
    vertex -0.750000 0.218750 0.312500
  endloop
endfacet
facet normal 0.000000 1.000000 -0.000000
  outer loop
    vertex 0.750000 0.093750 0.000000
    vertex -0.750000 0.093750 0.000000
    vertex 0.750000 0.093750 0.312500
  endloop
endfacet
facet normal 0.000000 1.000000 0.000000
  outer loop
    vertex 0.750000 0.093750 0.312500
    vertex -0.750000 0.093750 0.000000
    vertex -0.750000 0.093750 0.312500
  endloop
endfacet
facet normal 1.000000 0.000000 0.000000
  outer loop
    vertex 0.750000 -0.093750 0.000000
    vertex 0.750000 0.093750 0.000000
    vertex 0.750000 -0.093750 0.312500
  endloop
endfacet
facet normal 1.000000 -0.000000 0.000000
  outer loop
    vertex 0.750000 -0.093750 0.312500
    vertex 0.750000 0.093750 0.000000
    vertex 0.750000 0.093750 0.312500
  endloop
endfacet
facet normal 0.000000 -1.000000 0.000000
  outer loop
    vertex -1.031250 -0.093750 0.000000
    vertex 0.750000 -0.093750 0.000000
    vertex -1.031250 -0.093750 0.312500
  endloop
endfacet
facet normal 0.000000 -1.000000 0.000000
  outer loop
    vertex -1.031250 -0.093750 0.312500
    vertex 0.750000 -0.093750 0.000000
    vertex 0.750000 -0.093750 0.312500
  endloop
endfacet
facet normal -0.000000 0.000000 1.000000
  outer loop
    vertex -1.031250 0.062500 0.312500
    vertex -1.031250 -0.093750 0.312500
    vertex -0.750000 0.093750 0.312500
  endloop
endfacet
facet normal 0.000000 0.000000 1.000000
  outer loop
    vertex -0.750000 0.093750 0.312500
    vertex -1.031250 -0.093750 0.312500
    vertex 0.750000 -0.093750 0.312500
  endloop
endfacet
facet normal -0.000000 0.000000 1.000000
  outer loop
    vertex -0.750000 0.093750 0.312500
    vertex 0.750000 -0.093750 0.312500
    vertex 0.750000 0.093750 0.312500
  endloop
endfacet
facet normal 0.000000 0.000000 1.000000
  outer loop
    vertex -0.750000 0.218750 0.312500
    vertex -0.890625 0.218750 0.312500
    vertex -0.750000 0.093750 0.312500
  endloop
endfacet
facet normal 0.000000 0.000000 1.000000
  outer loop
    vertex -0.750000 0.093750 0.312500
    vertex -0.890625 0.218750 0.312500
    vertex -1.031250 0.062500 0.312500
  endloop
endfacet
facet normal -0.000000 -0.000000 -1.000000
  outer loop
    vertex 0.750000 0.093750 0.000000
    vertex 0.750000 -0.093750 0.000000
    vertex -0.750000 0.093750 0.000000
  endloop
endfacet
facet normal 0.000000 -0.000000 -1.000000
  outer loop
    vertex -0.750000 0.093750 0.000000
    vertex 0.750000 -0.093750 0.000000
    vertex -1.031250 -0.093750 0.000000
  endloop
endfacet
facet normal 0.000000 0.000000 -1.000000
  outer loop
    vertex -0.750000 0.093750 0.000000
    vertex -1.031250 -0.093750 0.000000
    vertex -1.031250 0.062500 0.000000
  endloop
endfacet
facet normal 0.000000 0.000000 -1.000000
  outer loop
    vertex -1.031250 0.062500 0.000000
    vertex -0.890625 0.218750 0.000000
    vertex -0.750000 0.093750 0.000000
  endloop
endfacet
facet normal 0.000000 0.000000 -1.000000
  outer loop
    vertex -0.750000 0.093750 0.000000
    vertex -0.890625 0.218750 0.000000
    vertex -0.750000 0.218750 0.000000
  endloop
endfacet
endsolid 97936c84-64de-4c58-b4f6-ac0686b3c5b0-ascii.stl
