solid a1cf0204-eb45-4143-b862-41d9cedaf1c1-ascii.stl
facet normal -0.000000 0.000000 1.000000
  outer loop
    vertex 0.000000 0.312500 3.500000
    vertex 0.000000 -0.312500 3.500000
    vertex 0.187500 0.312500 3.500000
  endloop
endfacet
facet normal 0.000000 0.000000 1.000000
  outer loop
    vertex 0.187500 0.312500 3.500000
    vertex 0.000000 -0.312500 3.500000
    vertex 0.187500 -0.312500 3.500000
  endloop
endfacet
facet normal -0.000000 0.707107 0.707107
  outer loop
    vertex 0.000000 0.687500 3.125000
    vertex 0.000000 0.312500 3.500000
    vertex 0.187500 0.687500 3.125000
  endloop
endfacet
facet normal 0.000000 0.707107 0.707107
  outer loop
    vertex 0.187500 0.687500 3.125000
    vertex 0.000000 0.312500 3.500000
    vertex 0.187500 0.312500 3.500000
  endloop
endfacet
facet normal 0.000000 1.000000 0.000000
  outer loop
    vertex 0.000000 0.687500 2.750000
    vertex 0.000000 0.687500 3.125000
    vertex 0.187500 0.687500 2.750000
  endloop
endfacet
facet normal 0.000000 1.000000 -0.000000
  outer loop
    vertex 0.187500 0.687500 2.750000
    vertex 0.000000 0.687500 3.125000
    vertex 0.187500 0.687500 3.125000
  endloop
endfacet
facet normal 0.000000 0.000000 -1.000000
  outer loop
    vertex 0.000000 0.312500 2.750000
    vertex 0.000000 0.687500 2.750000
    vertex 0.187500 0.312500 2.750000
  endloop
endfacet
facet normal 0.000000 0.000000 -1.000000
  outer loop
    vertex 0.187500 0.312500 2.750000
    vertex 0.000000 0.687500 2.750000
    vertex 0.187500 0.687500 2.750000
  endloop
endfacet
facet normal 0.000000 1.000000 0.000000
  outer loop
    vertex 0.000000 0.312500 -2.750000
    vertex 0.000000 0.312500 2.750000
    vertex 0.187500 0.312500 -2.750000
  endloop
endfacet
facet normal 0.000000 1.000000 -0.000000
  outer loop
    vertex 0.187500 0.312500 -2.750000
    vertex 0.000000 0.312500 2.750000
    vertex 0.187500 0.312500 2.750000
  endloop
endfacet
facet normal 0.000000 0.000000 -1.000000
  outer loop
    vertex 0.000000 -0.312500 -2.750000
    vertex 0.000000 0.312500 -2.750000
    vertex 0.187500 -0.312500 -2.750000
  endloop
endfacet
facet normal 0.000000 0.000000 -1.000000
  outer loop
    vertex 0.187500 -0.312500 -2.750000
    vertex 0.000000 0.312500 -2.750000
    vertex 0.187500 0.312500 -2.750000
  endloop
endfacet
facet normal 0.000000 -1.000000 0.000000
  outer loop
    vertex 0.000000 -0.312500 3.500000
    vertex 0.000000 -0.312500 -2.750000
    vertex 0.187500 -0.312500 3.500000
  endloop
endfacet
facet normal 0.000000 -1.000000 -0.000000
  outer loop
    vertex 0.187500 -0.312500 3.500000
    vertex 0.000000 -0.312500 -2.750000
    vertex 0.187500 -0.312500 -2.750000
  endloop
endfacet
facet normal 1.000000 0.000000 0.000000
  outer loop
    vertex 0.187500 0.312500 3.500000
    vertex 0.187500 -0.312500 3.500000
    vertex 0.187500 0.312500 2.750000
  endloop
endfacet
facet normal 1.000000 0.000000 0.000000
  outer loop
    vertex 0.187500 0.312500 2.750000
    vertex 0.187500 -0.312500 3.500000
    vertex 0.187500 -0.312500 -2.750000
  endloop
endfacet
facet normal 1.000000 0.000000 0.000000
  outer loop
    vertex 0.187500 0.312500 2.750000
    vertex 0.187500 -0.312500 -2.750000
    vertex 0.187500 0.312500 -2.750000
  endloop
endfacet
facet normal 1.000000 0.000000 -0.000000
  outer loop
    vertex 0.187500 0.687500 2.750000
    vertex 0.187500 0.687500 3.125000
    vertex 0.187500 0.312500 2.750000
  endloop
endfacet
facet normal 1.000000 0.000000 0.000000
  outer loop
    vertex 0.187500 0.312500 2.750000
    vertex 0.187500 0.687500 3.125000
    vertex 0.187500 0.312500 3.500000
  endloop
endfacet
facet normal -1.000000 0.000000 0.000000
  outer loop
    vertex 0.000000 0.312500 -2.750000
    vertex 0.000000 -0.312500 -2.750000
    vertex 0.000000 0.312500 2.750000
  endloop
endfacet
facet normal -1.000000 -0.000000 0.000000
  outer loop
    vertex 0.000000 0.312500 2.750000
    vertex 0.000000 -0.312500 -2.750000
    vertex 0.000000 -0.312500 3.500000
  endloop
endfacet
facet normal -1.000000 0.000000 0.000000
  outer loop
    vertex 0.000000 0.312500 2.750000
    vertex 0.000000 -0.312500 3.500000
    vertex 0.000000 0.312500 3.500000
  endloop
endfacet
facet normal -1.000000 0.000000 0.000000
  outer loop
    vertex 0.000000 0.312500 3.500000
    vertex 0.000000 0.687500 3.125000
    vertex 0.000000 0.312500 2.750000
  endloop
endfacet
facet normal -1.000000 0.000000 0.000000
  outer loop
    vertex 0.000000 0.312500 2.750000
    vertex 0.000000 0.687500 3.125000
    vertex 0.000000 0.687500 2.750000
  endloop
endfacet
endsolid a1cf0204-eb45-4143-b862-41d9cedaf1c1-ascii.stl
