solid b27c2211-2b52-4ba6-aeae-5d4af850b025-ascii.stl
facet normal -0.000000 0.000000 1.000000
  outer loop
    vertex 0.000000 0.437500 3.000000
    vertex 0.000000 -0.437500 3.000000
    vertex 0.187500 0.437500 3.000000
  endloop
endfacet
facet normal 0.000000 0.000000 1.000000
  outer loop
    vertex 0.187500 0.437500 3.000000
    vertex 0.000000 -0.437500 3.000000
    vertex 0.187500 -0.437500 3.000000
  endloop
endfacet
facet normal -0.000000 0.800000 0.600000
  outer loop
    vertex 0.000000 0.812500 2.500000
    vertex 0.000000 0.437500 3.000000
    vertex 0.187500 0.812500 2.500000
  endloop
endfacet
facet normal 0.000000 0.800000 0.600000
  outer loop
    vertex 0.187500 0.812500 2.500000
    vertex 0.000000 0.437500 3.000000
    vertex 0.187500 0.437500 3.000000
  endloop
endfacet
facet normal 0.000000 1.000000 0.000000
  outer loop
    vertex 0.000000 0.812500 2.000000
    vertex 0.000000 0.812500 2.500000
    vertex 0.187500 0.812500 2.000000
  endloop
endfacet
facet normal 0.000000 1.000000 -0.000000
  outer loop
    vertex 0.187500 0.812500 2.000000
    vertex 0.000000 0.812500 2.500000
    vertex 0.187500 0.812500 2.500000
  endloop
endfacet
facet normal 0.000000 0.000000 -1.000000
  outer loop
    vertex 0.000000 0.437500 2.000000
    vertex 0.000000 0.812500 2.000000
    vertex 0.187500 0.437500 2.000000
  endloop
endfacet
facet normal 0.000000 0.000000 -1.000000
  outer loop
    vertex 0.187500 0.437500 2.000000
    vertex 0.000000 0.812500 2.000000
    vertex 0.187500 0.812500 2.000000
  endloop
endfacet
facet normal 0.000000 1.000000 0.000000
  outer loop
    vertex 0.000000 0.437500 -2.000000
    vertex 0.000000 0.437500 2.000000
    vertex 0.187500 0.437500 -2.000000
  endloop
endfacet
facet normal 0.000000 1.000000 -0.000000
  outer loop
    vertex 0.187500 0.437500 -2.000000
    vertex 0.000000 0.437500 2.000000
    vertex 0.187500 0.437500 2.000000
  endloop
endfacet
facet normal 0.000000 0.000000 -1.000000
  outer loop
    vertex 0.000000 -0.437500 -2.000000
    vertex 0.000000 0.437500 -2.000000
    vertex 0.187500 -0.437500 -2.000000
  endloop
endfacet
facet normal 0.000000 0.000000 -1.000000
  outer loop
    vertex 0.187500 -0.437500 -2.000000
    vertex 0.000000 0.437500 -2.000000
    vertex 0.187500 0.437500 -2.000000
  endloop
endfacet
facet normal 0.000000 -1.000000 0.000000
  outer loop
    vertex 0.000000 -0.437500 3.000000
    vertex 0.000000 -0.437500 -2.000000
    vertex 0.187500 -0.437500 3.000000
  endloop
endfacet
facet normal 0.000000 -1.000000 -0.000000
  outer loop
    vertex 0.187500 -0.437500 3.000000
    vertex 0.000000 -0.437500 -2.000000
    vertex 0.187500 -0.437500 -2.000000
  endloop
endfacet
facet normal 1.000000 0.000000 0.000000
  outer loop
    vertex 0.187500 0.437500 3.000000
    vertex 0.187500 -0.437500 3.000000
    vertex 0.187500 0.437500 2.000000
  endloop
endfacet
facet normal 1.000000 0.000000 0.000000
  outer loop
    vertex 0.187500 0.437500 2.000000
    vertex 0.187500 -0.437500 3.000000
    vertex 0.187500 -0.437500 -2.000000
  endloop
endfacet
facet normal 1.000000 0.000000 0.000000
  outer loop
    vertex 0.187500 0.437500 2.000000
    vertex 0.187500 -0.437500 -2.000000
    vertex 0.187500 0.437500 -2.000000
  endloop
endfacet
facet normal 1.000000 0.000000 -0.000000
  outer loop
    vertex 0.187500 0.812500 2.000000
    vertex 0.187500 0.812500 2.500000
    vertex 0.187500 0.437500 2.000000
  endloop
endfacet
facet normal 1.000000 0.000000 0.000000
  outer loop
    vertex 0.187500 0.437500 2.000000
    vertex 0.187500 0.812500 2.500000
    vertex 0.187500 0.437500 3.000000
  endloop
endfacet
facet normal -1.000000 0.000000 0.000000
  outer loop
    vertex 0.000000 0.437500 -2.000000
    vertex 0.000000 -0.437500 -2.000000
    vertex 0.000000 0.437500 2.000000
  endloop
endfacet
facet normal -1.000000 -0.000000 0.000000
  outer loop
    vertex 0.000000 0.437500 2.000000
    vertex 0.000000 -0.437500 -2.000000
    vertex 0.000000 -0.437500 3.000000
  endloop
endfacet
facet normal -1.000000 0.000000 0.000000
  outer loop
    vertex 0.000000 0.437500 2.000000
    vertex 0.000000 -0.437500 3.000000
    vertex 0.000000 0.437500 3.000000
  endloop
endfacet
facet normal -1.000000 0.000000 0.000000
  outer loop
    vertex 0.000000 0.437500 3.000000
    vertex 0.000000 0.812500 2.500000
    vertex 0.000000 0.437500 2.000000
  endloop
endfacet
facet normal -1.000000 0.000000 0.000000
  outer loop
    vertex 0.000000 0.437500 2.000000
    vertex 0.000000 0.812500 2.500000
    vertex 0.000000 0.812500 2.000000
  endloop
endfacet
endsolid b27c2211-2b52-4ba6-aeae-5d4af850b025-ascii.stl
