solid c16772ca-58c8-44c7-aeb8-b5dab6b3eb3c-ascii.stl
facet normal -0.000000 0.000000 1.000000
  outer loop
    vertex 0.000000 0.218750 2.812500
    vertex 0.000000 -0.218750 2.812500
    vertex 0.187500 0.218750 2.812500
  endloop
endfacet
facet normal 0.000000 0.000000 1.000000
  outer loop
    vertex 0.187500 0.218750 2.812500
    vertex 0.000000 -0.218750 2.812500
    vertex 0.187500 -0.218750 2.812500
  endloop
endfacet
facet normal -0.000000 0.668965 0.743294
  outer loop
    vertex 0.000000 0.531250 2.531250
    vertex 0.000000 0.218750 2.812500
    vertex 0.187500 0.531250 2.531250
  endloop
endfacet
facet normal 0.000000 0.668965 0.743294
  outer loop
    vertex 0.187500 0.531250 2.531250
    vertex 0.000000 0.218750 2.812500
    vertex 0.187500 0.218750 2.812500
  endloop
endfacet
facet normal 0.000000 1.000000 0.000000
  outer loop
    vertex 0.000000 0.531250 2.250000
    vertex 0.000000 0.531250 2.531250
    vertex 0.187500 0.531250 2.250000
  endloop
endfacet
facet normal 0.000000 1.000000 -0.000000
  outer loop
    vertex 0.187500 0.531250 2.250000
    vertex 0.000000 0.531250 2.531250
    vertex 0.187500 0.531250 2.531250
  endloop
endfacet
facet normal 0.000000 0.000000 -1.000000
  outer loop
    vertex 0.000000 0.218750 2.250000
    vertex 0.000000 0.531250 2.250000
    vertex 0.187500 0.218750 2.250000
  endloop
endfacet
facet normal 0.000000 0.000000 -1.000000
  outer loop
    vertex 0.187500 0.218750 2.250000
    vertex 0.000000 0.531250 2.250000
    vertex 0.187500 0.531250 2.250000
  endloop
endfacet
facet normal 0.000000 1.000000 0.000000
  outer loop
    vertex 0.000000 0.218750 -2.250000
    vertex 0.000000 0.218750 2.250000
    vertex 0.187500 0.218750 -2.250000
  endloop
endfacet
facet normal 0.000000 1.000000 -0.000000
  outer loop
    vertex 0.187500 0.218750 -2.250000
    vertex 0.000000 0.218750 2.250000
    vertex 0.187500 0.218750 2.250000
  endloop
endfacet
facet normal 0.000000 0.000000 -1.000000
  outer loop
    vertex 0.000000 -0.218750 -2.250000
    vertex 0.000000 0.218750 -2.250000
    vertex 0.187500 -0.218750 -2.250000
  endloop
endfacet
facet normal 0.000000 0.000000 -1.000000
  outer loop
    vertex 0.187500 -0.218750 -2.250000
    vertex 0.000000 0.218750 -2.250000
    vertex 0.187500 0.218750 -2.250000
  endloop
endfacet
facet normal 0.000000 -1.000000 0.000000
  outer loop
    vertex 0.000000 -0.218750 2.812500
    vertex 0.000000 -0.218750 -2.250000
    vertex 0.187500 -0.218750 2.812500
  endloop
endfacet
facet normal 0.000000 -1.000000 -0.000000
  outer loop
    vertex 0.187500 -0.218750 2.812500
    vertex 0.000000 -0.218750 -2.250000
    vertex 0.187500 -0.218750 -2.250000
  endloop
endfacet
facet normal 1.000000 0.000000 0.000000
  outer loop
    vertex 0.187500 0.218750 2.812500
    vertex 0.187500 -0.218750 2.812500
    vertex 0.187500 0.218750 2.250000
  endloop
endfacet
facet normal 1.000000 0.000000 0.000000
  outer loop
    vertex 0.187500 0.218750 2.250000
    vertex 0.187500 -0.218750 2.812500
    vertex 0.187500 -0.218750 -2.250000
  endloop
endfacet
facet normal 1.000000 0.000000 0.000000
  outer loop
    vertex 0.187500 0.218750 2.250000
    vertex 0.187500 -0.218750 -2.250000
    vertex 0.187500 0.218750 -2.250000
  endloop
endfacet
facet normal 1.000000 0.000000 -0.000000
  outer loop
    vertex 0.187500 0.531250 2.250000
    vertex 0.187500 0.531250 2.531250
    vertex 0.187500 0.218750 2.250000
  endloop
endfacet
facet normal 1.000000 0.000000 0.000000
  outer loop
    vertex 0.187500 0.218750 2.250000
    vertex 0.187500 0.531250 2.531250
    vertex 0.187500 0.218750 2.812500
  endloop
endfacet
facet normal -1.000000 0.000000 0.000000
  outer loop
    vertex 0.000000 0.218750 -2.250000
    vertex 0.000000 -0.218750 -2.250000
    vertex 0.000000 0.218750 2.250000
  endloop
endfacet
facet normal -1.000000 -0.000000 0.000000
  outer loop
    vertex 0.000000 0.218750 2.250000
    vertex 0.000000 -0.218750 -2.250000
    vertex 0.000000 -0.218750 2.812500
  endloop
endfacet
facet normal -1.000000 0.000000 0.000000
  outer loop
    vertex 0.000000 0.218750 2.250000
    vertex 0.000000 -0.218750 2.812500
    vertex 0.000000 0.218750 2.812500
  endloop
endfacet
facet normal -1.000000 0.000000 0.000000
  outer loop
    vertex 0.000000 0.218750 2.812500
    vertex 0.000000 0.531250 2.531250
    vertex 0.000000 0.218750 2.250000
  endloop
endfacet
facet normal -1.000000 0.000000 0.000000
  outer loop
    vertex 0.000000 0.218750 2.250000
    vertex 0.000000 0.531250 2.531250
    vertex 0.000000 0.531250 2.250000
  endloop
endfacet
endsolid c16772ca-58c8-44c7-aeb8-b5dab6b3eb3c-ascii.stl
