solid cce8af9d-13e4-40da-9894-7c68f8a9b363-ascii.stl
facet normal -0.000000 0.000000 1.000000
  outer loop
    vertex 0.000000 0.250000 1.875000
    vertex 0.000000 -0.250000 1.875000
    vertex 0.187500 0.250000 1.875000
  endloop
endfacet
facet normal 0.000000 0.000000 1.000000
  outer loop
    vertex 0.187500 0.250000 1.875000
    vertex 0.000000 -0.250000 1.875000
    vertex 0.187500 -0.250000 1.875000
  endloop
endfacet
facet normal -0.000000 0.780869 0.624695
  outer loop
    vertex 0.000000 0.500000 1.562500
    vertex 0.000000 0.250000 1.875000
    vertex 0.187500 0.500000 1.562500
  endloop
endfacet
facet normal 0.000000 0.780869 0.624695
  outer loop
    vertex 0.187500 0.500000 1.562500
    vertex 0.000000 0.250000 1.875000
    vertex 0.187500 0.250000 1.875000
  endloop
endfacet
facet normal 0.000000 1.000000 0.000000
  outer loop
    vertex 0.000000 0.500000 1.250000
    vertex 0.000000 0.500000 1.562500
    vertex 0.187500 0.500000 1.250000
  endloop
endfacet
facet normal 0.000000 1.000000 -0.000000
  outer loop
    vertex 0.187500 0.500000 1.250000
    vertex 0.000000 0.500000 1.562500
    vertex 0.187500 0.500000 1.562500
  endloop
endfacet
facet normal 0.000000 0.000000 -1.000000
  outer loop
    vertex 0.000000 0.250000 1.250000
    vertex 0.000000 0.500000 1.250000
    vertex 0.187500 0.250000 1.250000
  endloop
endfacet
facet normal 0.000000 0.000000 -1.000000
  outer loop
    vertex 0.187500 0.250000 1.250000
    vertex 0.000000 0.500000 1.250000
    vertex 0.187500 0.500000 1.250000
  endloop
endfacet
facet normal 0.000000 1.000000 0.000000
  outer loop
    vertex 0.000000 0.250000 -1.250000
    vertex 0.000000 0.250000 1.250000
    vertex 0.187500 0.250000 -1.250000
  endloop
endfacet
facet normal 0.000000 1.000000 -0.000000
  outer loop
    vertex 0.187500 0.250000 -1.250000
    vertex 0.000000 0.250000 1.250000
    vertex 0.187500 0.250000 1.250000
  endloop
endfacet
facet normal 0.000000 0.000000 -1.000000
  outer loop
    vertex 0.000000 -0.250000 -1.250000
    vertex 0.000000 0.250000 -1.250000
    vertex 0.187500 -0.250000 -1.250000
  endloop
endfacet
facet normal 0.000000 0.000000 -1.000000
  outer loop
    vertex 0.187500 -0.250000 -1.250000
    vertex 0.000000 0.250000 -1.250000
    vertex 0.187500 0.250000 -1.250000
  endloop
endfacet
facet normal 0.000000 -1.000000 0.000000
  outer loop
    vertex 0.000000 -0.250000 1.875000
    vertex 0.000000 -0.250000 -1.250000
    vertex 0.187500 -0.250000 1.875000
  endloop
endfacet
facet normal 0.000000 -1.000000 -0.000000
  outer loop
    vertex 0.187500 -0.250000 1.875000
    vertex 0.000000 -0.250000 -1.250000
    vertex 0.187500 -0.250000 -1.250000
  endloop
endfacet
facet normal 1.000000 0.000000 0.000000
  outer loop
    vertex 0.187500 0.250000 1.875000
    vertex 0.187500 -0.250000 1.875000
    vertex 0.187500 0.250000 1.250000
  endloop
endfacet
facet normal 1.000000 0.000000 0.000000
  outer loop
    vertex 0.187500 0.250000 1.250000
    vertex 0.187500 -0.250000 1.875000
    vertex 0.187500 -0.250000 -1.250000
  endloop
endfacet
facet normal 1.000000 0.000000 0.000000
  outer loop
    vertex 0.187500 0.250000 1.250000
    vertex 0.187500 -0.250000 -1.250000
    vertex 0.187500 0.250000 -1.250000
  endloop
endfacet
facet normal 1.000000 0.000000 -0.000000
  outer loop
    vertex 0.187500 0.500000 1.250000
    vertex 0.187500 0.500000 1.562500
    vertex 0.187500 0.250000 1.250000
  endloop
endfacet
facet normal 1.000000 0.000000 0.000000
  outer loop
    vertex 0.187500 0.250000 1.250000
    vertex 0.187500 0.500000 1.562500
    vertex 0.187500 0.250000 1.875000
  endloop
endfacet
facet normal -1.000000 0.000000 0.000000
  outer loop
    vertex 0.000000 0.250000 -1.250000
    vertex 0.000000 -0.250000 -1.250000
    vertex 0.000000 0.250000 1.250000
  endloop
endfacet
facet normal -1.000000 -0.000000 0.000000
  outer loop
    vertex 0.000000 0.250000 1.250000
    vertex 0.000000 -0.250000 -1.250000
    vertex 0.000000 -0.250000 1.875000
  endloop
endfacet
facet normal -1.000000 0.000000 0.000000
  outer loop
    vertex 0.000000 0.250000 1.250000
    vertex 0.000000 -0.250000 1.875000
    vertex 0.000000 0.250000 1.875000
  endloop
endfacet
facet normal -1.000000 0.000000 0.000000
  outer loop
    vertex 0.000000 0.250000 1.875000
    vertex 0.000000 0.500000 1.562500
    vertex 0.000000 0.250000 1.250000
  endloop
endfacet
facet normal -1.000000 0.000000 0.000000
  outer loop
    vertex 0.000000 0.250000 1.250000
    vertex 0.000000 0.500000 1.562500
    vertex 0.000000 0.500000 1.250000
  endloop
endfacet
endsolid cce8af9d-13e4-40da-9894-7c68f8a9b363-ascii.stl
