solid dd42b37a-5cce-4f23-8d7e-45d1574ac81f-ascii.stl
facet normal -1.000000 0.000000 0.000000
  outer loop
    vertex -1.500000 0.125000 0.000000
    vertex -1.500000 -0.187500 0.000000
    vertex -1.500000 0.125000 0.625000
  endloop
endfacet
facet normal -1.000000 -0.000000 0.000000
  outer loop
    vertex -1.500000 0.125000 0.625000
    vertex -1.500000 -0.187500 0.000000
    vertex -1.500000 -0.187500 0.625000
  endloop
endfacet
facet normal -0.780869 0.624695 0.000000
  outer loop
    vertex -1.250000 0.437500 0.000000
    vertex -1.500000 0.125000 0.000000
    vertex -1.250000 0.437500 0.625000
  endloop
endfacet
facet normal -0.780869 0.624695 0.000000
  outer loop
    vertex -1.250000 0.437500 0.625000
    vertex -1.500000 0.125000 0.000000
    vertex -1.500000 0.125000 0.625000
  endloop
endfacet
facet normal 0.000000 1.000000 -0.000000
  outer loop
    vertex -1.000000 0.437500 0.000000
    vertex -1.250000 0.437500 0.000000
    vertex -1.000000 0.437500 0.625000
  endloop
endfacet
facet normal 0.000000 1.000000 0.000000
  outer loop
    vertex -1.000000 0.437500 0.625000
    vertex -1.250000 0.437500 0.000000
    vertex -1.250000 0.437500 0.625000
  endloop
endfacet
facet normal 1.000000 0.000000 0.000000
  outer loop
    vertex -1.000000 0.187500 0.000000
    vertex -1.000000 0.437500 0.000000
    vertex -1.000000 0.187500 0.625000
  endloop
endfacet
facet normal 1.000000 -0.000000 0.000000
  outer loop
    vertex -1.000000 0.187500 0.625000
    vertex -1.000000 0.437500 0.000000
    vertex -1.000000 0.437500 0.625000
  endloop
endfacet
facet normal 0.000000 1.000000 -0.000000
  outer loop
    vertex 1.000000 0.187500 0.000000
    vertex -1.000000 0.187500 0.000000
    vertex 1.000000 0.187500 0.625000
  endloop
endfacet
facet normal 0.000000 1.000000 0.000000
  outer loop
    vertex 1.000000 0.187500 0.625000
    vertex -1.000000 0.187500 0.000000
    vertex -1.000000 0.187500 0.625000
  endloop
endfacet
facet normal 1.000000 0.000000 0.000000
  outer loop
    vertex 1.000000 -0.187500 0.000000
    vertex 1.000000 0.187500 0.000000
    vertex 1.000000 -0.187500 0.625000
  endloop
endfacet
facet normal 1.000000 -0.000000 0.000000
  outer loop
    vertex 1.000000 -0.187500 0.625000
    vertex 1.000000 0.187500 0.000000
    vertex 1.000000 0.187500 0.625000
  endloop
endfacet
facet normal 0.000000 -1.000000 0.000000
  outer loop
    vertex -1.500000 -0.187500 0.000000
    vertex 1.000000 -0.187500 0.000000
    vertex -1.500000 -0.187500 0.625000
  endloop
endfacet
facet normal 0.000000 -1.000000 0.000000
  outer loop
    vertex -1.500000 -0.187500 0.625000
    vertex 1.000000 -0.187500 0.000000
    vertex 1.000000 -0.187500 0.625000
  endloop
endfacet
facet normal -0.000000 0.000000 1.000000
  outer loop
    vertex -1.500000 0.125000 0.625000
    vertex -1.500000 -0.187500 0.625000
    vertex -1.000000 0.187500 0.625000
  endloop
endfacet
facet normal 0.000000 0.000000 1.000000
  outer loop
    vertex -1.000000 0.187500 0.625000
    vertex -1.500000 -0.187500 0.625000
    vertex 1.000000 -0.187500 0.625000
  endloop
endfacet
facet normal -0.000000 0.000000 1.000000
  outer loop
    vertex -1.000000 0.187500 0.625000
    vertex 1.000000 -0.187500 0.625000
    vertex 1.000000 0.187500 0.625000
  endloop
endfacet
facet normal 0.000000 0.000000 1.000000
  outer loop
    vertex -1.000000 0.437500 0.625000
    vertex -1.250000 0.437500 0.625000
    vertex -1.000000 0.187500 0.625000
  endloop
endfacet
facet normal 0.000000 0.000000 1.000000
  outer loop
    vertex -1.000000 0.187500 0.625000
    vertex -1.250000 0.437500 0.625000
    vertex -1.500000 0.125000 0.625000
  endloop
endfacet
facet normal -0.000000 -0.000000 -1.000000
  outer loop
    vertex 1.000000 0.187500 0.000000
    vertex 1.000000 -0.187500 0.000000
    vertex -1.000000 0.187500 0.000000
  endloop
endfacet
facet normal 0.000000 -0.000000 -1.000000
  outer loop
    vertex -1.000000 0.187500 0.000000
    vertex 1.000000 -0.187500 0.000000
    vertex -1.500000 -0.187500 0.000000
  endloop
endfacet
facet normal 0.000000 0.000000 -1.000000
  outer loop
    vertex -1.000000 0.187500 0.000000
    vertex -1.500000 -0.187500 0.000000
    vertex -1.500000 0.125000 0.000000
  endloop
endfacet
facet normal 0.000000 0.000000 -1.000000
  outer loop
    vertex -1.500000 0.125000 0.000000
    vertex -1.250000 0.437500 0.000000
    vertex -1.000000 0.187500 0.000000
  endloop
endfacet
facet normal 0.000000 0.000000 -1.000000
  outer loop
    vertex -1.000000 0.187500 0.000000
    vertex -1.250000 0.437500 0.000000
    vertex -1.000000 0.437500 0.000000
  endloop
endfacet
endsolid dd42b37a-5cce-4f23-8d7e-45d1574ac81f-ascii.stl
