solid f9194810-c304-47aa-8ecf-586f5067e65f-ascii.stl
facet normal -1.000000 0.000000 0.000000
  outer loop
    vertex -2.875000 0.187500 0.000000
    vertex -2.875000 -0.375000 0.000000
    vertex -2.875000 0.187500 1.125000
  endloop
endfacet
facet normal -1.000000 -0.000000 0.000000
  outer loop
    vertex -2.875000 0.187500 1.125000
    vertex -2.875000 -0.375000 0.000000
    vertex -2.875000 -0.375000 1.125000
  endloop
endfacet
facet normal -0.789352 0.613941 0.000000
  outer loop
    vertex -2.437500 0.750000 0.000000
    vertex -2.875000 0.187500 0.000000
    vertex -2.437500 0.750000 1.125000
  endloop
endfacet
facet normal -0.789352 0.613941 0.000000
  outer loop
    vertex -2.437500 0.750000 1.125000
    vertex -2.875000 0.187500 0.000000
    vertex -2.875000 0.187500 1.125000
  endloop
endfacet
facet normal 0.000000 1.000000 -0.000000
  outer loop
    vertex -2.000000 0.750000 0.000000
    vertex -2.437500 0.750000 0.000000
    vertex -2.000000 0.750000 1.125000
  endloop
endfacet
facet normal 0.000000 1.000000 0.000000
  outer loop
    vertex -2.000000 0.750000 1.125000
    vertex -2.437500 0.750000 0.000000
    vertex -2.437500 0.750000 1.125000
  endloop
endfacet
facet normal 1.000000 0.000000 0.000000
  outer loop
    vertex -2.000000 0.375000 0.000000
    vertex -2.000000 0.750000 0.000000
    vertex -2.000000 0.375000 1.125000
  endloop
endfacet
facet normal 1.000000 -0.000000 0.000000
  outer loop
    vertex -2.000000 0.375000 1.125000
    vertex -2.000000 0.750000 0.000000
    vertex -2.000000 0.750000 1.125000
  endloop
endfacet
facet normal 0.000000 1.000000 -0.000000
  outer loop
    vertex 2.000000 0.375000 0.000000
    vertex -2.000000 0.375000 0.000000
    vertex 2.000000 0.375000 1.125000
  endloop
endfacet
facet normal 0.000000 1.000000 0.000000
  outer loop
    vertex 2.000000 0.375000 1.125000
    vertex -2.000000 0.375000 0.000000
    vertex -2.000000 0.375000 1.125000
  endloop
endfacet
facet normal 1.000000 0.000000 0.000000
  outer loop
    vertex 2.000000 -0.375000 0.000000
    vertex 2.000000 0.375000 0.000000
    vertex 2.000000 -0.375000 1.125000
  endloop
endfacet
facet normal 1.000000 -0.000000 0.000000
  outer loop
    vertex 2.000000 -0.375000 1.125000
    vertex 2.000000 0.375000 0.000000
    vertex 2.000000 0.375000 1.125000
  endloop
endfacet
facet normal 0.000000 -1.000000 0.000000
  outer loop
    vertex -2.875000 -0.375000 0.000000
    vertex 2.000000 -0.375000 0.000000
    vertex -2.875000 -0.375000 1.125000
  endloop
endfacet
facet normal 0.000000 -1.000000 0.000000
  outer loop
    vertex -2.875000 -0.375000 1.125000
    vertex 2.000000 -0.375000 0.000000
    vertex 2.000000 -0.375000 1.125000
  endloop
endfacet
facet normal -0.000000 0.000000 1.000000
  outer loop
    vertex -2.875000 0.187500 1.125000
    vertex -2.875000 -0.375000 1.125000
    vertex -2.000000 0.375000 1.125000
  endloop
endfacet
facet normal 0.000000 0.000000 1.000000
  outer loop
    vertex -2.000000 0.375000 1.125000
    vertex -2.875000 -0.375000 1.125000
    vertex 2.000000 -0.375000 1.125000
  endloop
endfacet
facet normal -0.000000 0.000000 1.000000
  outer loop
    vertex -2.000000 0.375000 1.125000
    vertex 2.000000 -0.375000 1.125000
    vertex 2.000000 0.375000 1.125000
  endloop
endfacet
facet normal 0.000000 0.000000 1.000000
  outer loop
    vertex -2.000000 0.750000 1.125000
    vertex -2.437500 0.750000 1.125000
    vertex -2.000000 0.375000 1.125000
  endloop
endfacet
facet normal 0.000000 0.000000 1.000000
  outer loop
    vertex -2.000000 0.375000 1.125000
    vertex -2.437500 0.750000 1.125000
    vertex -2.875000 0.187500 1.125000
  endloop
endfacet
facet normal -0.000000 -0.000000 -1.000000
  outer loop
    vertex 2.000000 0.375000 0.000000
    vertex 2.000000 -0.375000 0.000000
    vertex -2.000000 0.375000 0.000000
  endloop
endfacet
facet normal 0.000000 -0.000000 -1.000000
  outer loop
    vertex -2.000000 0.375000 0.000000
    vertex 2.000000 -0.375000 0.000000
    vertex -2.875000 -0.375000 0.000000
  endloop
endfacet
facet normal 0.000000 0.000000 -1.000000
  outer loop
    vertex -2.000000 0.375000 0.000000
    vertex -2.875000 -0.375000 0.000000
    vertex -2.875000 0.187500 0.000000
  endloop
endfacet
facet normal 0.000000 0.000000 -1.000000
  outer loop
    vertex -2.875000 0.187500 0.000000
    vertex -2.437500 0.750000 0.000000
    vertex -2.000000 0.375000 0.000000
  endloop
endfacet
facet normal 0.000000 0.000000 -1.000000
  outer loop
    vertex -2.000000 0.375000 0.000000
    vertex -2.437500 0.750000 0.000000
    vertex -2.000000 0.750000 0.000000
  endloop
endfacet
endsolid f9194810-c304-47aa-8ecf-586f5067e65f-ascii.stl
