solid fca34dc3-593c-4fb6-9e39-aa70cc3f191f-ascii.stl
facet normal -0.000000 0.000000 1.000000
  outer loop
    vertex 0.000000 0.156250 2.437500
    vertex 0.000000 -0.156250 2.437500
    vertex 0.187500 0.156250 2.437500
  endloop
endfacet
facet normal 0.000000 0.000000 1.000000
  outer loop
    vertex 0.187500 0.156250 2.437500
    vertex 0.000000 -0.156250 2.437500
    vertex 0.187500 -0.156250 2.437500
  endloop
endfacet
facet normal -0.000000 0.759257 0.650791
  outer loop
    vertex 0.000000 0.343750 2.218750
    vertex 0.000000 0.156250 2.437500
    vertex 0.187500 0.343750 2.218750
  endloop
endfacet
facet normal 0.000000 0.759257 0.650791
  outer loop
    vertex 0.187500 0.343750 2.218750
    vertex 0.000000 0.156250 2.437500
    vertex 0.187500 0.156250 2.437500
  endloop
endfacet
facet normal 0.000000 1.000000 0.000000
  outer loop
    vertex 0.000000 0.343750 2.000000
    vertex 0.000000 0.343750 2.218750
    vertex 0.187500 0.343750 2.000000
  endloop
endfacet
facet normal 0.000000 1.000000 -0.000000
  outer loop
    vertex 0.187500 0.343750 2.000000
    vertex 0.000000 0.343750 2.218750
    vertex 0.187500 0.343750 2.218750
  endloop
endfacet
facet normal 0.000000 0.000000 -1.000000
  outer loop
    vertex 0.000000 0.156250 2.000000
    vertex 0.000000 0.343750 2.000000
    vertex 0.187500 0.156250 2.000000
  endloop
endfacet
facet normal 0.000000 0.000000 -1.000000
  outer loop
    vertex 0.187500 0.156250 2.000000
    vertex 0.000000 0.343750 2.000000
    vertex 0.187500 0.343750 2.000000
  endloop
endfacet
facet normal 0.000000 1.000000 0.000000
  outer loop
    vertex 0.000000 0.156250 -2.000000
    vertex 0.000000 0.156250 2.000000
    vertex 0.187500 0.156250 -2.000000
  endloop
endfacet
facet normal 0.000000 1.000000 -0.000000
  outer loop
    vertex 0.187500 0.156250 -2.000000
    vertex 0.000000 0.156250 2.000000
    vertex 0.187500 0.156250 2.000000
  endloop
endfacet
facet normal 0.000000 0.000000 -1.000000
  outer loop
    vertex 0.000000 -0.156250 -2.000000
    vertex 0.000000 0.156250 -2.000000
    vertex 0.187500 -0.156250 -2.000000
  endloop
endfacet
facet normal 0.000000 0.000000 -1.000000
  outer loop
    vertex 0.187500 -0.156250 -2.000000
    vertex 0.000000 0.156250 -2.000000
    vertex 0.187500 0.156250 -2.000000
  endloop
endfacet
facet normal 0.000000 -1.000000 0.000000
  outer loop
    vertex 0.000000 -0.156250 2.437500
    vertex 0.000000 -0.156250 -2.000000
    vertex 0.187500 -0.156250 2.437500
  endloop
endfacet
facet normal 0.000000 -1.000000 -0.000000
  outer loop
    vertex 0.187500 -0.156250 2.437500
    vertex 0.000000 -0.156250 -2.000000
    vertex 0.187500 -0.156250 -2.000000
  endloop
endfacet
facet normal 1.000000 0.000000 0.000000
  outer loop
    vertex 0.187500 0.156250 2.437500
    vertex 0.187500 -0.156250 2.437500
    vertex 0.187500 0.156250 2.000000
  endloop
endfacet
facet normal 1.000000 0.000000 0.000000
  outer loop
    vertex 0.187500 0.156250 2.000000
    vertex 0.187500 -0.156250 2.437500
    vertex 0.187500 -0.156250 -2.000000
  endloop
endfacet
facet normal 1.000000 0.000000 0.000000
  outer loop
    vertex 0.187500 0.156250 2.000000
    vertex 0.187500 -0.156250 -2.000000
    vertex 0.187500 0.156250 -2.000000
  endloop
endfacet
facet normal 1.000000 0.000000 -0.000000
  outer loop
    vertex 0.187500 0.343750 2.000000
    vertex 0.187500 0.343750 2.218750
    vertex 0.187500 0.156250 2.000000
  endloop
endfacet
facet normal 1.000000 0.000000 0.000000
  outer loop
    vertex 0.187500 0.156250 2.000000
    vertex 0.187500 0.343750 2.218750
    vertex 0.187500 0.156250 2.437500
  endloop
endfacet
facet normal -1.000000 0.000000 0.000000
  outer loop
    vertex 0.000000 0.156250 -2.000000
    vertex 0.000000 -0.156250 -2.000000
    vertex 0.000000 0.156250 2.000000
  endloop
endfacet
facet normal -1.000000 -0.000000 0.000000
  outer loop
    vertex 0.000000 0.156250 2.000000
    vertex 0.000000 -0.156250 -2.000000
    vertex 0.000000 -0.156250 2.437500
  endloop
endfacet
facet normal -1.000000 0.000000 0.000000
  outer loop
    vertex 0.000000 0.156250 2.000000
    vertex 0.000000 -0.156250 2.437500
    vertex 0.000000 0.156250 2.437500
  endloop
endfacet
facet normal -1.000000 0.000000 0.000000
  outer loop
    vertex 0.000000 0.156250 2.437500
    vertex 0.000000 0.343750 2.218750
    vertex 0.000000 0.156250 2.000000
  endloop
endfacet
facet normal -1.000000 0.000000 0.000000
  outer loop
    vertex 0.000000 0.156250 2.000000
    vertex 0.000000 0.343750 2.218750
    vertex 0.000000 0.343750 2.000000
  endloop
endfacet
endsolid fca34dc3-593c-4fb6-9e39-aa70cc3f191f-ascii.stl
