solid fffb8cf2-2fdc-45d7-b74b-f675fc45e1d3-ascii.stl
facet normal -0.000000 0.000000 1.000000
  outer loop
    vertex 0.000000 0.250000 3.625000
    vertex 0.000000 -0.250000 3.625000
    vertex 0.187500 0.250000 3.625000
  endloop
endfacet
facet normal 0.000000 0.000000 1.000000
  outer loop
    vertex 0.187500 0.250000 3.625000
    vertex 0.000000 -0.250000 3.625000
    vertex 0.187500 -0.250000 3.625000
  endloop
endfacet
facet normal -0.000000 0.780869 0.624695
  outer loop
    vertex 0.000000 0.500000 3.312500
    vertex 0.000000 0.250000 3.625000
    vertex 0.187500 0.500000 3.312500
  endloop
endfacet
facet normal 0.000000 0.780869 0.624695
  outer loop
    vertex 0.187500 0.500000 3.312500
    vertex 0.000000 0.250000 3.625000
    vertex 0.187500 0.250000 3.625000
  endloop
endfacet
facet normal 0.000000 1.000000 0.000000
  outer loop
    vertex 0.000000 0.500000 3.000000
    vertex 0.000000 0.500000 3.312500
    vertex 0.187500 0.500000 3.000000
  endloop
endfacet
facet normal 0.000000 1.000000 -0.000000
  outer loop
    vertex 0.187500 0.500000 3.000000
    vertex 0.000000 0.500000 3.312500
    vertex 0.187500 0.500000 3.312500
  endloop
endfacet
facet normal 0.000000 0.000000 -1.000000
  outer loop
    vertex 0.000000 0.250000 3.000000
    vertex 0.000000 0.500000 3.000000
    vertex 0.187500 0.250000 3.000000
  endloop
endfacet
facet normal 0.000000 0.000000 -1.000000
  outer loop
    vertex 0.187500 0.250000 3.000000
    vertex 0.000000 0.500000 3.000000
    vertex 0.187500 0.500000 3.000000
  endloop
endfacet
facet normal 0.000000 1.000000 0.000000
  outer loop
    vertex 0.000000 0.250000 -3.000000
    vertex 0.000000 0.250000 3.000000
    vertex 0.187500 0.250000 -3.000000
  endloop
endfacet
facet normal 0.000000 1.000000 -0.000000
  outer loop
    vertex 0.187500 0.250000 -3.000000
    vertex 0.000000 0.250000 3.000000
    vertex 0.187500 0.250000 3.000000
  endloop
endfacet
facet normal 0.000000 0.000000 -1.000000
  outer loop
    vertex 0.000000 -0.250000 -3.000000
    vertex 0.000000 0.250000 -3.000000
    vertex 0.187500 -0.250000 -3.000000
  endloop
endfacet
facet normal 0.000000 0.000000 -1.000000
  outer loop
    vertex 0.187500 -0.250000 -3.000000
    vertex 0.000000 0.250000 -3.000000
    vertex 0.187500 0.250000 -3.000000
  endloop
endfacet
facet normal 0.000000 -1.000000 0.000000
  outer loop
    vertex 0.000000 -0.250000 3.625000
    vertex 0.000000 -0.250000 -3.000000
    vertex 0.187500 -0.250000 3.625000
  endloop
endfacet
facet normal 0.000000 -1.000000 -0.000000
  outer loop
    vertex 0.187500 -0.250000 3.625000
    vertex 0.000000 -0.250000 -3.000000
    vertex 0.187500 -0.250000 -3.000000
  endloop
endfacet
facet normal 1.000000 0.000000 0.000000
  outer loop
    vertex 0.187500 0.250000 3.625000
    vertex 0.187500 -0.250000 3.625000
    vertex 0.187500 0.250000 3.000000
  endloop
endfacet
facet normal 1.000000 0.000000 0.000000
  outer loop
    vertex 0.187500 0.250000 3.000000
    vertex 0.187500 -0.250000 3.625000
    vertex 0.187500 -0.250000 -3.000000
  endloop
endfacet
facet normal 1.000000 0.000000 0.000000
  outer loop
    vertex 0.187500 0.250000 3.000000
    vertex 0.187500 -0.250000 -3.000000
    vertex 0.187500 0.250000 -3.000000
  endloop
endfacet
facet normal 1.000000 0.000000 -0.000000
  outer loop
    vertex 0.187500 0.500000 3.000000
    vertex 0.187500 0.500000 3.312500
    vertex 0.187500 0.250000 3.000000
  endloop
endfacet
facet normal 1.000000 0.000000 0.000000
  outer loop
    vertex 0.187500 0.250000 3.000000
    vertex 0.187500 0.500000 3.312500
    vertex 0.187500 0.250000 3.625000
  endloop
endfacet
facet normal -1.000000 0.000000 0.000000
  outer loop
    vertex 0.000000 0.250000 -3.000000
    vertex 0.000000 -0.250000 -3.000000
    vertex 0.000000 0.250000 3.000000
  endloop
endfacet
facet normal -1.000000 -0.000000 0.000000
  outer loop
    vertex 0.000000 0.250000 3.000000
    vertex 0.000000 -0.250000 -3.000000
    vertex 0.000000 -0.250000 3.625000
  endloop
endfacet
facet normal -1.000000 0.000000 0.000000
  outer loop
    vertex 0.000000 0.250000 3.000000
    vertex 0.000000 -0.250000 3.625000
    vertex 0.000000 0.250000 3.625000
  endloop
endfacet
facet normal -1.000000 0.000000 0.000000
  outer loop
    vertex 0.000000 0.250000 3.625000
    vertex 0.000000 0.500000 3.312500
    vertex 0.000000 0.250000 3.000000
  endloop
endfacet
facet normal -1.000000 0.000000 0.000000
  outer loop
    vertex 0.000000 0.250000 3.000000
    vertex 0.000000 0.500000 3.312500
    vertex 0.000000 0.500000 3.000000
  endloop
endfacet
endsolid fffb8cf2-2fdc-45d7-b74b-f675fc45e1d3-ascii.stl
