solid 3e1aeb28-46dc-4878-8717-baaa50f449f8-ascii.stl
facet normal 0.000000 1.000000 0.000000
  outer loop
    vertex 0.000000 0.218750 -0.093750
    vertex 0.000000 0.218750 0.093750
    vertex 3.000000 0.218750 -0.093750
  endloop
endfacet
facet normal 0.000000 1.000000 -0.000000
  outer loop
    vertex 3.000000 0.218750 -0.093750
    vertex 0.000000 0.218750 0.093750
    vertex 3.000000 0.218750 0.093750
  endloop
endfacet
facet normal 0.000000 0.000000 1.000000
  outer loop
    vertex 0.000000 0.218750 -0.093750
    vertex 3.000000 0.218750 -0.093750
    vertex 0.000000 0.298106 -0.093750
  endloop
endfacet
facet normal -0.000000 0.000000 1.000000
  outer loop
    vertex 0.000000 0.298106 -0.093750
    vertex 3.000000 0.218750 -0.093750
    vertex 3.000000 0.298106 -0.093750
  endloop
endfacet
facet normal -0.000527 0.935784 0.352573
  outer loop
    vertex 0.000000 0.285855 0.126267
    vertex 0.750000 0.294964 0.103212
    vertex 0.000000 0.298106 0.093750
  endloop
endfacet
facet normal 0.000000 0.949032 0.315181
  outer loop
    vertex 0.000000 0.298106 0.093750
    vertex 0.750000 0.294964 0.103212
    vertex 1.500000 0.294964 0.103212
  endloop
endfacet
facet normal -0.000000 0.949032 0.315181
  outer loop
    vertex 0.000000 0.298106 0.093750
    vertex 1.500000 0.294964 0.103212
    vertex 3.000000 0.298106 0.093750
  endloop
endfacet
facet normal 0.000000 0.949032 0.315181
  outer loop
    vertex 3.000000 0.298106 0.093750
    vertex 1.500000 0.294964 0.103212
    vertex 2.250000 0.294964 0.103212
  endloop
endfacet
facet normal 0.000527 0.935784 0.352573
  outer loop
    vertex 3.000000 0.298106 0.093750
    vertex 2.250000 0.294964 0.103212
    vertex 3.000000 0.285855 0.126267
  endloop
endfacet
facet normal -0.000543 0.923879 0.382683
  outer loop
    vertex 3.000000 0.285855 0.126267
    vertex 2.250000 0.294964 0.103212
    vertex 2.250000 0.281553 0.135589
  endloop
endfacet
facet normal 0.000536 0.890856 0.454285
  outer loop
    vertex 3.000000 0.285855 0.126267
    vertex 2.250000 0.281553 0.135589
    vertex 3.000000 0.270069 0.157222
  endloop
endfacet
facet normal -0.000552 0.875223 0.483719
  outer loop
    vertex 3.000000 0.270069 0.157222
    vertex 2.250000 0.281553 0.135589
    vertex 2.250000 0.264601 0.166260
  endloop
endfacet
facet normal 0.000545 0.834914 0.550380
  outer loop
    vertex 3.000000 0.270069 0.157222
    vertex 2.250000 0.264601 0.166260
    vertex 3.000000 0.250945 0.186234
  endloop
endfacet
facet normal -0.000561 0.815561 0.578671
  outer loop
    vertex 3.000000 0.250945 0.186234
    vertex 2.250000 0.264601 0.166260
    vertex 2.250000 0.244322 0.194841
  endloop
endfacet
facet normal 0.000554 0.768648 0.639672
  outer loop
    vertex 3.000000 0.250945 0.186234
    vertex 2.250000 0.244322 0.194841
    vertex 3.000000 0.228717 0.212943
  endloop
endfacet
facet normal -0.000569 0.745642 0.666347
  outer loop
    vertex 3.000000 0.228717 0.212943
    vertex 2.250000 0.244322 0.194841
    vertex 2.250000 0.220971 0.220971
  endloop
endfacet
facet normal 0.000562 0.692879 0.721054
  outer loop
    vertex 3.000000 0.228717 0.212943
    vertex 2.250000 0.220971 0.220971
    vertex 3.000000 0.203662 0.237019
  endloop
endfacet
facet normal -0.000577 0.666347 0.745642
  outer loop
    vertex 3.000000 0.203662 0.237019
    vertex 2.250000 0.220971 0.220971
    vertex 2.250000 0.194841 0.244322
  endloop
endfacet
facet normal 0.000569 0.608543 0.793521
  outer loop
    vertex 3.000000 0.203662 0.237019
    vertex 2.250000 0.194841 0.244322
    vertex 3.000000 0.176089 0.258165
  endloop
endfacet
facet normal -0.000584 0.578671 0.815561
  outer loop
    vertex 3.000000 0.176089 0.258165
    vertex 2.250000 0.194841 0.244322
    vertex 2.250000 0.166260 0.264601
  endloop
endfacet
facet normal 0.000577 0.516683 0.856177
  outer loop
    vertex 3.000000 0.176089 0.258165
    vertex 2.250000 0.166260 0.264601
    vertex 3.000000 0.146339 0.276118
  endloop
endfacet
facet normal -0.000591 0.483719 0.875223
  outer loop
    vertex 3.000000 0.146339 0.276118
    vertex 2.250000 0.166260 0.264601
    vertex 2.250000 0.135589 0.281553
  endloop
endfacet
facet normal 0.000584 0.418435 0.908247
  outer loop
    vertex 3.000000 0.146339 0.276118
    vertex 2.250000 0.135589 0.281553
    vertex 3.000000 0.114779 0.290658
  endloop
endfacet
facet normal -0.000598 0.382683 0.923879
  outer loop
    vertex 3.000000 0.114779 0.290658
    vertex 2.250000 0.135589 0.281553
    vertex 2.250000 0.103212 0.294964
  endloop
endfacet
facet normal 0.000590 0.315013 0.949087
  outer loop
    vertex 3.000000 0.114779 0.290658
    vertex 2.250000 0.103212 0.294964
    vertex 3.000000 0.081800 0.301604
  endloop
endfacet
facet normal -0.000604 0.276835 0.960917
  outer loop
    vertex 3.000000 0.081800 0.301604
    vertex 2.250000 0.103212 0.294964
    vertex 2.250000 0.069538 0.304665
  endloop
endfacet
facet normal 0.000596 0.207697 0.978193
  outer loop
    vertex 3.000000 0.081800 0.301604
    vertex 2.250000 0.069538 0.304665
    vertex 3.000000 0.047810 0.308821
  endloop
endfacet
facet normal -0.000610 0.167507 0.985871
  outer loop
    vertex 3.000000 0.047810 0.308821
    vertex 2.250000 0.069538 0.304665
    vertex 2.250000 0.034989 0.310535
  endloop
endfacet
facet normal 0.000602 0.097811 0.995205
  outer loop
    vertex 3.000000 0.047810 0.308821
    vertex 2.250000 0.034989 0.310535
    vertex 3.000000 0.013228 0.312220
  endloop
endfacet
facet normal -0.000616 0.056070 0.998427
  outer loop
    vertex 3.000000 0.013228 0.312220
    vertex 2.250000 0.034989 0.310535
    vertex 2.250000 -0.000000 0.312500
  endloop
endfacet
facet normal 0.000608 -0.013282 0.999912
  outer loop
    vertex 3.000000 0.013228 0.312220
    vertex 2.250000 -0.000000 0.312500
    vertex 3.000000 -0.021517 0.311758
  endloop
endfacet
facet normal -0.000621 -0.056070 0.998427
  outer loop
    vertex 3.000000 -0.021517 0.311758
    vertex 2.250000 -0.000000 0.312500
    vertex 2.250000 -0.034989 0.310535
  endloop
endfacet
facet normal 0.000613 -0.124212 0.992256
  outer loop
    vertex 3.000000 -0.021517 0.311758
    vertex 2.250000 -0.034989 0.310535
    vertex 3.000000 -0.055996 0.307442
  endloop
endfacet
facet normal -0.000626 -0.167507 0.985871
  outer loop
    vertex 3.000000 -0.055996 0.307442
    vertex 2.250000 -0.034989 0.310535
    vertex 2.250000 -0.069538 0.304665
  endloop
endfacet
facet normal 0.000617 -0.233606 0.972331
  outer loop
    vertex 3.000000 -0.055996 0.307442
    vertex 2.250000 -0.069538 0.304665
    vertex 3.000000 -0.089782 0.299325
  endloop
endfacet
facet normal -0.000631 -0.276835 0.960917
  outer loop
    vertex 3.000000 -0.089782 0.299325
    vertex 2.250000 -0.069538 0.304665
    vertex 2.250000 -0.103212 0.294964
  endloop
endfacet
facet normal 0.000622 -0.340112 0.940385
  outer loop
    vertex 3.000000 -0.089782 0.299325
    vertex 2.250000 -0.103212 0.294964
    vertex 3.000000 -0.122459 0.287507
  endloop
endfacet
facet normal -0.000635 -0.382683 0.923879
  outer loop
    vertex 3.000000 -0.122459 0.287507
    vertex 2.250000 -0.103212 0.294964
    vertex 2.250000 -0.135589 0.281553
  endloop
endfacet
facet normal 0.000626 -0.442412 0.896812
  outer loop
    vertex 3.000000 -0.122459 0.287507
    vertex 2.250000 -0.135589 0.281553
    vertex 3.000000 -0.153621 0.272134
  endloop
endfacet
facet normal -0.000639 -0.483719 0.875223
  outer loop
    vertex 3.000000 -0.153621 0.272134
    vertex 2.250000 -0.135589 0.281553
    vertex 2.250000 -0.166260 0.264601
  endloop
endfacet
facet normal 0.000629 -0.539242 0.842151
  outer loop
    vertex 3.000000 -0.153621 0.272134
    vertex 2.250000 -0.166260 0.264601
    vertex 3.000000 -0.182884 0.253396
  endloop
endfacet
facet normal -0.000642 -0.578671 0.815561
  outer loop
    vertex 3.000000 -0.182884 0.253396
    vertex 2.250000 -0.166260 0.264601
    vertex 2.250000 -0.194841 0.244322
  endloop
endfacet
facet normal 0.000632 -0.629406 0.777076
  outer loop
    vertex 3.000000 -0.182884 0.253396
    vertex 2.250000 -0.194841 0.244322
    vertex 3.000000 -0.209886 0.231526
  endloop
endfacet
facet normal -0.000645 -0.666347 0.745642
  outer loop
    vertex 3.000000 -0.209886 0.231526
    vertex 2.250000 -0.194841 0.244322
    vertex 2.250000 -0.220971 0.220971
  endloop
endfacet
facet normal 0.000635 -0.711787 0.702395
  outer loop
    vertex 3.000000 -0.209886 0.231526
    vertex 2.250000 -0.220971 0.220971
    vertex 3.000000 -0.234293 0.206792
  endloop
endfacet
facet normal -0.000648 -0.745642 0.666347
  outer loop
    vertex 3.000000 -0.234293 0.206792
    vertex 2.250000 -0.220971 0.220971
    vertex 2.250000 -0.244322 0.194841
  endloop
endfacet
facet normal 0.000638 -0.785368 0.619029
  outer loop
    vertex 3.000000 -0.234293 0.206792
    vertex 2.250000 -0.244322 0.194841
    vertex 3.000000 -0.255803 0.179502
  endloop
endfacet
facet normal -0.000650 -0.815561 0.578671
  outer loop
    vertex 3.000000 -0.255803 0.179502
    vertex 2.250000 -0.244322 0.194841
    vertex 2.250000 -0.264601 0.166260
  endloop
endfacet
facet normal 0.000640 -0.849239 0.528009
  outer loop
    vertex 3.000000 -0.255803 0.179502
    vertex 2.250000 -0.264601 0.166260
    vertex 3.000000 -0.274150 0.149993
  endloop
endfacet
facet normal -0.000652 -0.875223 0.483719
  outer loop
    vertex 3.000000 -0.274150 0.149993
    vertex 2.250000 -0.264601 0.166260
    vertex 2.250000 -0.281553 0.135589
  endloop
endfacet
facet normal 0.000641 -0.902609 0.430461
  outer loop
    vertex 3.000000 -0.274150 0.149993
    vertex 2.250000 -0.281553 0.135589
    vertex 3.000000 -0.289108 0.118629
  endloop
endfacet
facet normal -0.000653 -0.923879 0.382683
  outer loop
    vertex 3.000000 -0.289108 0.118629
    vertex 2.250000 -0.281553 0.135589
    vertex 2.250000 -0.294964 0.103212
  endloop
endfacet
facet normal 0.000643 -0.944819 0.327591
  outer loop
    vertex 3.000000 -0.289108 0.118629
    vertex 2.250000 -0.294964 0.103212
    vertex 3.000000 -0.300491 0.085799
  endloop
endfacet
facet normal -0.000654 -0.960917 0.276835
  outer loop
    vertex 3.000000 -0.300491 0.085799
    vertex 2.250000 -0.294964 0.103212
    vertex 2.250000 -0.304665 0.069538
  endloop
endfacet
facet normal 0.000644 -0.975348 0.220671
  outer loop
    vertex 3.000000 -0.300491 0.085799
    vertex 2.250000 -0.304665 0.069538
    vertex 3.000000 -0.308159 0.051907
  endloop
endfacet
facet normal -0.000655 -0.985871 0.167507
  outer loop
    vertex 3.000000 -0.308159 0.051907
    vertex 2.250000 -0.304665 0.069538
    vertex 2.250000 -0.310535 0.034989
  endloop
endfacet
facet normal 0.000644 -0.993818 0.111022
  outer loop
    vertex 3.000000 -0.308159 0.051907
    vertex 2.250000 -0.310535 0.034989
    vertex 3.000000 -0.312017 0.017374
  endloop
endfacet
facet normal -0.000655 -0.998427 0.056070
  outer loop
    vertex 3.000000 -0.312017 0.017374
    vertex 2.250000 -0.310535 0.034989
    vertex 2.250000 -0.312500 -0.000000
  endloop
endfacet
facet normal 0.000644 -1.000000 0.000000
  outer loop
    vertex 3.000000 -0.312017 0.017374
    vertex 2.250000 -0.312500 -0.000000
    vertex 3.000000 -0.312017 -0.017374
  endloop
endfacet
facet normal -0.000655 -0.998427 -0.056070
  outer loop
    vertex 3.000000 -0.312017 -0.017374
    vertex 2.250000 -0.312500 -0.000000
    vertex 2.250000 -0.310535 -0.034989
  endloop
endfacet
facet normal 0.000644 -0.993818 -0.111022
  outer loop
    vertex 3.000000 -0.312017 -0.017374
    vertex 2.250000 -0.310535 -0.034989
    vertex 3.000000 -0.308159 -0.051907
  endloop
endfacet
facet normal -0.000655 -0.985871 -0.167507
  outer loop
    vertex 3.000000 -0.308159 -0.051907
    vertex 2.250000 -0.310535 -0.034989
    vertex 2.250000 -0.304665 -0.069538
  endloop
endfacet
facet normal 0.000644 -0.975348 -0.220671
  outer loop
    vertex 3.000000 -0.308159 -0.051907
    vertex 2.250000 -0.304665 -0.069538
    vertex 3.000000 -0.300491 -0.085799
  endloop
endfacet
facet normal -0.000654 -0.960917 -0.276835
  outer loop
    vertex 3.000000 -0.300491 -0.085799
    vertex 2.250000 -0.304665 -0.069538
    vertex 2.250000 -0.294964 -0.103212
  endloop
endfacet
facet normal 0.000643 -0.944819 -0.327591
  outer loop
    vertex 3.000000 -0.300491 -0.085799
    vertex 2.250000 -0.294964 -0.103212
    vertex 3.000000 -0.289108 -0.118629
  endloop
endfacet
facet normal -0.000653 -0.923879 -0.382683
  outer loop
    vertex 3.000000 -0.289108 -0.118629
    vertex 2.250000 -0.294964 -0.103212
    vertex 2.250000 -0.281553 -0.135589
  endloop
endfacet
facet normal 0.000641 -0.902609 -0.430461
  outer loop
    vertex 3.000000 -0.289108 -0.118629
    vertex 2.250000 -0.281553 -0.135589
    vertex 3.000000 -0.274150 -0.149993
  endloop
endfacet
facet normal -0.000652 -0.875223 -0.483719
  outer loop
    vertex 3.000000 -0.274150 -0.149993
    vertex 2.250000 -0.281553 -0.135589
    vertex 2.250000 -0.264601 -0.166260
  endloop
endfacet
facet normal 0.000640 -0.849239 -0.528009
  outer loop
    vertex 3.000000 -0.274150 -0.149993
    vertex 2.250000 -0.264601 -0.166260
    vertex 3.000000 -0.255803 -0.179502
  endloop
endfacet
facet normal -0.000650 -0.815561 -0.578671
  outer loop
    vertex 3.000000 -0.255803 -0.179502
    vertex 2.250000 -0.264601 -0.166260
    vertex 2.250000 -0.244322 -0.194841
  endloop
endfacet
facet normal 0.000638 -0.785368 -0.619029
  outer loop
    vertex 3.000000 -0.255803 -0.179502
    vertex 2.250000 -0.244322 -0.194841
    vertex 3.000000 -0.234293 -0.206792
  endloop
endfacet
facet normal -0.000648 -0.745642 -0.666347
  outer loop
    vertex 3.000000 -0.234293 -0.206792
    vertex 2.250000 -0.244322 -0.194841
    vertex 2.250000 -0.220971 -0.220971
  endloop
endfacet
facet normal 0.000635 -0.711787 -0.702395
  outer loop
    vertex 3.000000 -0.234293 -0.206792
    vertex 2.250000 -0.220971 -0.220971
    vertex 3.000000 -0.209886 -0.231526
  endloop
endfacet
facet normal -0.000645 -0.666347 -0.745642
  outer loop
    vertex 3.000000 -0.209886 -0.231526
    vertex 2.250000 -0.220971 -0.220971
    vertex 2.250000 -0.194841 -0.244322
  endloop
endfacet
facet normal 0.000632 -0.629406 -0.777076
  outer loop
    vertex 3.000000 -0.209886 -0.231526
    vertex 2.250000 -0.194841 -0.244322
    vertex 3.000000 -0.182884 -0.253396
  endloop
endfacet
facet normal -0.000642 -0.578671 -0.815561
  outer loop
    vertex 3.000000 -0.182884 -0.253396
    vertex 2.250000 -0.194841 -0.244322
    vertex 2.250000 -0.166260 -0.264601
  endloop
endfacet
facet normal 0.000629 -0.539242 -0.842151
  outer loop
    vertex 3.000000 -0.182884 -0.253396
    vertex 2.250000 -0.166260 -0.264601
    vertex 3.000000 -0.153621 -0.272134
  endloop
endfacet
facet normal -0.000639 -0.483719 -0.875223
  outer loop
    vertex 3.000000 -0.153621 -0.272134
    vertex 2.250000 -0.166260 -0.264601
    vertex 2.250000 -0.135589 -0.281553
  endloop
endfacet
facet normal 0.000626 -0.442412 -0.896812
  outer loop
    vertex 3.000000 -0.153621 -0.272134
    vertex 2.250000 -0.135589 -0.281553
    vertex 3.000000 -0.122459 -0.287507
  endloop
endfacet
facet normal -0.000635 -0.382683 -0.923879
  outer loop
    vertex 3.000000 -0.122459 -0.287507
    vertex 2.250000 -0.135589 -0.281553
    vertex 2.250000 -0.103212 -0.294964
  endloop
endfacet
facet normal 0.000622 -0.340112 -0.940385
  outer loop
    vertex 3.000000 -0.122459 -0.287507
    vertex 2.250000 -0.103212 -0.294964
    vertex 3.000000 -0.089782 -0.299325
  endloop
endfacet
facet normal -0.000631 -0.276835 -0.960917
  outer loop
    vertex 3.000000 -0.089782 -0.299325
    vertex 2.250000 -0.103212 -0.294964
    vertex 2.250000 -0.069538 -0.304665
  endloop
endfacet
facet normal 0.000617 -0.233606 -0.972331
  outer loop
    vertex 3.000000 -0.089782 -0.299325
    vertex 2.250000 -0.069538 -0.304665
    vertex 3.000000 -0.055996 -0.307442
  endloop
endfacet
facet normal -0.000626 -0.167507 -0.985871
  outer loop
    vertex 3.000000 -0.055996 -0.307442
    vertex 2.250000 -0.069538 -0.304665
    vertex 2.250000 -0.034989 -0.310535
  endloop
endfacet
facet normal 0.000613 -0.124212 -0.992256
  outer loop
    vertex 3.000000 -0.055996 -0.307442
    vertex 2.250000 -0.034989 -0.310535
    vertex 3.000000 -0.021517 -0.311758
  endloop
endfacet
facet normal -0.000621 -0.056070 -0.998427
  outer loop
    vertex 3.000000 -0.021517 -0.311758
    vertex 2.250000 -0.034989 -0.310535
    vertex 2.250000 0.000000 -0.312500
  endloop
endfacet
facet normal 0.000608 -0.013282 -0.999912
  outer loop
    vertex 3.000000 -0.021517 -0.311758
    vertex 2.250000 0.000000 -0.312500
    vertex 3.000000 0.013228 -0.312220
  endloop
endfacet
facet normal -0.000616 0.056070 -0.998427
  outer loop
    vertex 3.000000 0.013228 -0.312220
    vertex 2.250000 0.000000 -0.312500
    vertex 2.250000 0.034989 -0.310535
  endloop
endfacet
facet normal 0.000602 0.097811 -0.995205
  outer loop
    vertex 3.000000 0.013228 -0.312220
    vertex 2.250000 0.034989 -0.310535
    vertex 3.000000 0.047810 -0.308821
  endloop
endfacet
facet normal -0.000610 0.167507 -0.985871
  outer loop
    vertex 3.000000 0.047810 -0.308821
    vertex 2.250000 0.034989 -0.310535
    vertex 2.250000 0.069538 -0.304665
  endloop
endfacet
facet normal 0.000596 0.207697 -0.978193
  outer loop
    vertex 3.000000 0.047810 -0.308821
    vertex 2.250000 0.069538 -0.304665
    vertex 3.000000 0.081800 -0.301604
  endloop
endfacet
facet normal -0.000604 0.276835 -0.960917
  outer loop
    vertex 3.000000 0.081800 -0.301604
    vertex 2.250000 0.069538 -0.304665
    vertex 2.250000 0.103212 -0.294964
  endloop
endfacet
facet normal 0.000590 0.315013 -0.949087
  outer loop
    vertex 3.000000 0.081800 -0.301604
    vertex 2.250000 0.103212 -0.294964
    vertex 3.000000 0.114779 -0.290658
  endloop
endfacet
facet normal -0.000598 0.382683 -0.923879
  outer loop
    vertex 3.000000 0.114779 -0.290658
    vertex 2.250000 0.103212 -0.294964
    vertex 2.250000 0.135589 -0.281553
  endloop
endfacet
facet normal 0.000584 0.418435 -0.908247
  outer loop
    vertex 3.000000 0.114779 -0.290658
    vertex 2.250000 0.135589 -0.281553
    vertex 3.000000 0.146339 -0.276118
  endloop
endfacet
facet normal -0.000591 0.483719 -0.875223
  outer loop
    vertex 3.000000 0.146339 -0.276118
    vertex 2.250000 0.135589 -0.281553
    vertex 2.250000 0.166260 -0.264601
  endloop
endfacet
facet normal 0.000577 0.516683 -0.856177
  outer loop
    vertex 3.000000 0.146339 -0.276118
    vertex 2.250000 0.166260 -0.264601
    vertex 3.000000 0.176089 -0.258165
  endloop
endfacet
facet normal -0.000584 0.578671 -0.815561
  outer loop
    vertex 3.000000 0.176089 -0.258165
    vertex 2.250000 0.166260 -0.264601
    vertex 2.250000 0.194841 -0.244322
  endloop
endfacet
facet normal 0.000569 0.608543 -0.793521
  outer loop
    vertex 3.000000 0.176089 -0.258165
    vertex 2.250000 0.194841 -0.244322
    vertex 3.000000 0.203662 -0.237019
  endloop
endfacet
facet normal -0.000577 0.666347 -0.745642
  outer loop
    vertex 3.000000 0.203662 -0.237019
    vertex 2.250000 0.194841 -0.244322
    vertex 2.250000 0.220971 -0.220971
  endloop
endfacet
facet normal 0.000562 0.692879 -0.721054
  outer loop
    vertex 3.000000 0.203662 -0.237019
    vertex 2.250000 0.220971 -0.220971
    vertex 3.000000 0.228717 -0.212943
  endloop
endfacet
facet normal -0.000569 0.745642 -0.666347
  outer loop
    vertex 3.000000 0.228717 -0.212943
    vertex 2.250000 0.220971 -0.220971
    vertex 2.250000 0.244322 -0.194841
  endloop
endfacet
facet normal 0.000554 0.768648 -0.639672
  outer loop
    vertex 3.000000 0.228717 -0.212943
    vertex 2.250000 0.244322 -0.194841
    vertex 3.000000 0.250945 -0.186234
  endloop
endfacet
facet normal -0.000561 0.815561 -0.578671
  outer loop
    vertex 3.000000 0.250945 -0.186234
    vertex 2.250000 0.244322 -0.194841
    vertex 2.250000 0.264601 -0.166260
  endloop
endfacet
facet normal 0.000545 0.834914 -0.550380
  outer loop
    vertex 3.000000 0.250945 -0.186234
    vertex 2.250000 0.264601 -0.166260
    vertex 3.000000 0.270069 -0.157222
  endloop
endfacet
facet normal -0.000552 0.875223 -0.483719
  outer loop
    vertex 3.000000 0.270069 -0.157222
    vertex 2.250000 0.264601 -0.166260
    vertex 2.250000 0.281553 -0.135589
  endloop
endfacet
facet normal 0.000536 0.890856 -0.454285
  outer loop
    vertex 3.000000 0.270069 -0.157222
    vertex 2.250000 0.281553 -0.135589
    vertex 3.000000 0.285855 -0.126267
  endloop
endfacet
facet normal -0.000543 0.923879 -0.382683
  outer loop
    vertex 3.000000 0.285855 -0.126267
    vertex 2.250000 0.281553 -0.135589
    vertex 2.250000 0.294964 -0.103212
  endloop
endfacet
facet normal 0.000527 0.935784 -0.352573
  outer loop
    vertex 3.000000 0.285855 -0.126267
    vertex 2.250000 0.294964 -0.103212
    vertex 3.000000 0.298106 -0.093750
  endloop
endfacet
facet normal 0.000000 0.949032 -0.315181
  outer loop
    vertex 3.000000 0.298106 -0.093750
    vertex 2.250000 0.294964 -0.103212
    vertex 1.500000 0.294964 -0.103212
  endloop
endfacet
facet normal 0.000000 0.949032 -0.315181
  outer loop
    vertex 3.000000 0.298106 -0.093750
    vertex 1.500000 0.294964 -0.103212
    vertex 0.000000 0.298106 -0.093750
  endloop
endfacet
facet normal 0.000000 0.949032 -0.315181
  outer loop
    vertex 0.000000 0.298106 -0.093750
    vertex 1.500000 0.294964 -0.103212
    vertex 0.750000 0.294964 -0.103212
  endloop
endfacet
facet normal -0.000527 0.935784 -0.352573
  outer loop
    vertex 0.000000 0.298106 -0.093750
    vertex 0.750000 0.294964 -0.103212
    vertex 0.000000 0.285855 -0.126267
  endloop
endfacet
facet normal 0.000543 0.923879 -0.382683
  outer loop
    vertex 0.000000 0.285855 -0.126267
    vertex 0.750000 0.294964 -0.103212
    vertex 0.750000 0.281553 -0.135589
  endloop
endfacet
facet normal -0.000536 0.890856 -0.454285
  outer loop
    vertex 0.000000 0.285855 -0.126267
    vertex 0.750000 0.281553 -0.135589
    vertex 0.000000 0.270069 -0.157222
  endloop
endfacet
facet normal 0.000552 0.875223 -0.483719
  outer loop
    vertex 0.000000 0.270069 -0.157222
    vertex 0.750000 0.281553 -0.135589
    vertex 0.750000 0.264601 -0.166260
  endloop
endfacet
facet normal -0.000545 0.834914 -0.550380
  outer loop
    vertex 0.000000 0.270069 -0.157222
    vertex 0.750000 0.264601 -0.166260
    vertex 0.000000 0.250945 -0.186234
  endloop
endfacet
facet normal 0.000561 0.815561 -0.578671
  outer loop
    vertex 0.000000 0.250945 -0.186234
    vertex 0.750000 0.264601 -0.166260
    vertex 0.750000 0.244322 -0.194841
  endloop
endfacet
facet normal -0.000554 0.768648 -0.639672
  outer loop
    vertex 0.000000 0.250945 -0.186234
    vertex 0.750000 0.244322 -0.194841
    vertex 0.000000 0.228717 -0.212943
  endloop
endfacet
facet normal 0.000569 0.745642 -0.666347
  outer loop
    vertex 0.000000 0.228717 -0.212943
    vertex 0.750000 0.244322 -0.194841
    vertex 0.750000 0.220971 -0.220971
  endloop
endfacet
facet normal -0.000562 0.692879 -0.721054
  outer loop
    vertex 0.000000 0.228717 -0.212943
    vertex 0.750000 0.220971 -0.220971
    vertex 0.000000 0.203662 -0.237019
  endloop
endfacet
facet normal 0.000577 0.666347 -0.745642
  outer loop
    vertex 0.000000 0.203662 -0.237019
    vertex 0.750000 0.220971 -0.220971
    vertex 0.750000 0.194841 -0.244322
  endloop
endfacet
facet normal -0.000569 0.608543 -0.793521
  outer loop
    vertex 0.000000 0.203662 -0.237019
    vertex 0.750000 0.194841 -0.244322
    vertex 0.000000 0.176089 -0.258165
  endloop
endfacet
facet normal 0.000584 0.578671 -0.815561
  outer loop
    vertex 0.000000 0.176089 -0.258165
    vertex 0.750000 0.194841 -0.244322
    vertex 0.750000 0.166260 -0.264601
  endloop
endfacet
facet normal -0.000577 0.516683 -0.856177
  outer loop
    vertex 0.000000 0.176089 -0.258165
    vertex 0.750000 0.166260 -0.264601
    vertex 0.000000 0.146339 -0.276118
  endloop
endfacet
facet normal 0.000591 0.483719 -0.875223
  outer loop
    vertex 0.000000 0.146339 -0.276118
    vertex 0.750000 0.166260 -0.264601
    vertex 0.750000 0.135589 -0.281553
  endloop
endfacet
facet normal -0.000584 0.418435 -0.908247
  outer loop
    vertex 0.000000 0.146339 -0.276118
    vertex 0.750000 0.135589 -0.281553
    vertex 0.000000 0.114779 -0.290658
  endloop
endfacet
facet normal 0.000598 0.382683 -0.923879
  outer loop
    vertex 0.000000 0.114779 -0.290658
    vertex 0.750000 0.135589 -0.281553
    vertex 0.750000 0.103212 -0.294964
  endloop
endfacet
facet normal -0.000590 0.315013 -0.949087
  outer loop
    vertex 0.000000 0.114779 -0.290658
    vertex 0.750000 0.103212 -0.294964
    vertex 0.000000 0.081800 -0.301604
  endloop
endfacet
facet normal 0.000604 0.276835 -0.960917
  outer loop
    vertex 0.000000 0.081800 -0.301604
    vertex 0.750000 0.103212 -0.294964
    vertex 0.750000 0.069538 -0.304665
  endloop
endfacet
facet normal -0.000596 0.207697 -0.978193
  outer loop
    vertex 0.000000 0.081800 -0.301604
    vertex 0.750000 0.069538 -0.304665
    vertex 0.000000 0.047810 -0.308821
  endloop
endfacet
facet normal 0.000610 0.167507 -0.985871
  outer loop
    vertex 0.000000 0.047810 -0.308821
    vertex 0.750000 0.069538 -0.304665
    vertex 0.750000 0.034989 -0.310535
  endloop
endfacet
facet normal -0.000602 0.097811 -0.995205
  outer loop
    vertex 0.000000 0.047810 -0.308821
    vertex 0.750000 0.034989 -0.310535
    vertex 0.000000 0.013228 -0.312220
  endloop
endfacet
facet normal 0.000616 0.056070 -0.998427
  outer loop
    vertex 0.000000 0.013228 -0.312220
    vertex 0.750000 0.034989 -0.310535
    vertex 0.750000 0.000000 -0.312500
  endloop
endfacet
facet normal -0.000608 -0.013282 -0.999912
  outer loop
    vertex 0.000000 0.013228 -0.312220
    vertex 0.750000 0.000000 -0.312500
    vertex 0.000000 -0.021517 -0.311758
  endloop
endfacet
facet normal 0.000621 -0.056070 -0.998427
  outer loop
    vertex 0.000000 -0.021517 -0.311758
    vertex 0.750000 0.000000 -0.312500
    vertex 0.750000 -0.034989 -0.310535
  endloop
endfacet
facet normal -0.000613 -0.124212 -0.992256
  outer loop
    vertex 0.000000 -0.021517 -0.311758
    vertex 0.750000 -0.034989 -0.310535
    vertex 0.000000 -0.055996 -0.307442
  endloop
endfacet
facet normal 0.000626 -0.167507 -0.985871
  outer loop
    vertex 0.000000 -0.055996 -0.307442
    vertex 0.750000 -0.034989 -0.310535
    vertex 0.750000 -0.069538 -0.304665
  endloop
endfacet
facet normal -0.000617 -0.233606 -0.972331
  outer loop
    vertex 0.000000 -0.055996 -0.307442
    vertex 0.750000 -0.069538 -0.304665
    vertex 0.000000 -0.089782 -0.299325
  endloop
endfacet
facet normal 0.000631 -0.276835 -0.960917
  outer loop
    vertex 0.000000 -0.089782 -0.299325
    vertex 0.750000 -0.069538 -0.304665
    vertex 0.750000 -0.103212 -0.294964
  endloop
endfacet
facet normal -0.000622 -0.340112 -0.940385
  outer loop
    vertex 0.000000 -0.089782 -0.299325
    vertex 0.750000 -0.103212 -0.294964
    vertex 0.000000 -0.122459 -0.287507
  endloop
endfacet
facet normal 0.000635 -0.382683 -0.923879
  outer loop
    vertex 0.000000 -0.122459 -0.287507
    vertex 0.750000 -0.103212 -0.294964
    vertex 0.750000 -0.135589 -0.281553
  endloop
endfacet
facet normal -0.000626 -0.442412 -0.896812
  outer loop
    vertex 0.000000 -0.122459 -0.287507
    vertex 0.750000 -0.135589 -0.281553
    vertex 0.000000 -0.153621 -0.272134
  endloop
endfacet
facet normal 0.000639 -0.483719 -0.875223
  outer loop
    vertex 0.000000 -0.153621 -0.272134
    vertex 0.750000 -0.135589 -0.281553
    vertex 0.750000 -0.166260 -0.264601
  endloop
endfacet
facet normal -0.000629 -0.539242 -0.842151
  outer loop
    vertex 0.000000 -0.153621 -0.272134
    vertex 0.750000 -0.166260 -0.264601
    vertex 0.000000 -0.182884 -0.253396
  endloop
endfacet
facet normal 0.000642 -0.578671 -0.815561
  outer loop
    vertex 0.000000 -0.182884 -0.253396
    vertex 0.750000 -0.166260 -0.264601
    vertex 0.750000 -0.194841 -0.244322
  endloop
endfacet
facet normal -0.000632 -0.629406 -0.777076
  outer loop
    vertex 0.000000 -0.182884 -0.253396
    vertex 0.750000 -0.194841 -0.244322
    vertex 0.000000 -0.209886 -0.231526
  endloop
endfacet
facet normal 0.000645 -0.666347 -0.745642
  outer loop
    vertex 0.000000 -0.209886 -0.231526
    vertex 0.750000 -0.194841 -0.244322
    vertex 0.750000 -0.220971 -0.220971
  endloop
endfacet
facet normal -0.000635 -0.711787 -0.702395
  outer loop
    vertex 0.000000 -0.209886 -0.231526
    vertex 0.750000 -0.220971 -0.220971
    vertex 0.000000 -0.234293 -0.206792
  endloop
endfacet
facet normal 0.000648 -0.745642 -0.666347
  outer loop
    vertex 0.000000 -0.234293 -0.206792
    vertex 0.750000 -0.220971 -0.220971
    vertex 0.750000 -0.244322 -0.194841
  endloop
endfacet
facet normal -0.000638 -0.785368 -0.619029
  outer loop
    vertex 0.000000 -0.234293 -0.206792
    vertex 0.750000 -0.244322 -0.194841
    vertex 0.000000 -0.255803 -0.179502
  endloop
endfacet
facet normal 0.000650 -0.815561 -0.578671
  outer loop
    vertex 0.000000 -0.255803 -0.179502
    vertex 0.750000 -0.244322 -0.194841
    vertex 0.750000 -0.264601 -0.166260
  endloop
endfacet
facet normal -0.000640 -0.849239 -0.528009
  outer loop
    vertex 0.000000 -0.255803 -0.179502
    vertex 0.750000 -0.264601 -0.166260
    vertex 0.000000 -0.274150 -0.149993
  endloop
endfacet
facet normal 0.000652 -0.875223 -0.483719
  outer loop
    vertex 0.000000 -0.274150 -0.149993
    vertex 0.750000 -0.264601 -0.166260
    vertex 0.750000 -0.281553 -0.135589
  endloop
endfacet
facet normal -0.000641 -0.902609 -0.430461
  outer loop
    vertex 0.000000 -0.274150 -0.149993
    vertex 0.750000 -0.281553 -0.135589
    vertex 0.000000 -0.289108 -0.118629
  endloop
endfacet
facet normal 0.000653 -0.923879 -0.382683
  outer loop
    vertex 0.000000 -0.289108 -0.118629
    vertex 0.750000 -0.281553 -0.135589
    vertex 0.750000 -0.294964 -0.103212
  endloop
endfacet
facet normal -0.000643 -0.944819 -0.327591
  outer loop
    vertex 0.000000 -0.289108 -0.118629
    vertex 0.750000 -0.294964 -0.103212
    vertex 0.000000 -0.300491 -0.085799
  endloop
endfacet
facet normal 0.000654 -0.960917 -0.276835
  outer loop
    vertex 0.000000 -0.300491 -0.085799
    vertex 0.750000 -0.294964 -0.103212
    vertex 0.750000 -0.304665 -0.069538
  endloop
endfacet
facet normal -0.000644 -0.975348 -0.220671
  outer loop
    vertex 0.000000 -0.300491 -0.085799
    vertex 0.750000 -0.304665 -0.069538
    vertex 0.000000 -0.308159 -0.051907
  endloop
endfacet
facet normal 0.000655 -0.985871 -0.167507
  outer loop
    vertex 0.000000 -0.308159 -0.051907
    vertex 0.750000 -0.304665 -0.069538
    vertex 0.750000 -0.310535 -0.034989
  endloop
endfacet
facet normal -0.000644 -0.993818 -0.111022
  outer loop
    vertex 0.000000 -0.308159 -0.051907
    vertex 0.750000 -0.310535 -0.034989
    vertex 0.000000 -0.312017 -0.017374
  endloop
endfacet
facet normal 0.000655 -0.998427 -0.056070
  outer loop
    vertex 0.000000 -0.312017 -0.017374
    vertex 0.750000 -0.310535 -0.034989
    vertex 0.750000 -0.312500 -0.000000
  endloop
endfacet
facet normal -0.000644 -1.000000 0.000000
  outer loop
    vertex 0.000000 -0.312017 -0.017374
    vertex 0.750000 -0.312500 -0.000000
    vertex 0.000000 -0.312017 0.017374
  endloop
endfacet
facet normal 0.000655 -0.998427 0.056070
  outer loop
    vertex 0.000000 -0.312017 0.017374
    vertex 0.750000 -0.312500 -0.000000
    vertex 0.750000 -0.310535 0.034989
  endloop
endfacet
facet normal -0.000644 -0.993818 0.111022
  outer loop
    vertex 0.000000 -0.312017 0.017374
    vertex 0.750000 -0.310535 0.034989
    vertex 0.000000 -0.308159 0.051907
  endloop
endfacet
facet normal 0.000655 -0.985871 0.167507
  outer loop
    vertex 0.000000 -0.308159 0.051907
    vertex 0.750000 -0.310535 0.034989
    vertex 0.750000 -0.304665 0.069538
  endloop
endfacet
facet normal -0.000644 -0.975348 0.220671
  outer loop
    vertex 0.000000 -0.308159 0.051907
    vertex 0.750000 -0.304665 0.069538
    vertex 0.000000 -0.300491 0.085799
  endloop
endfacet
facet normal 0.000654 -0.960917 0.276835
  outer loop
    vertex 0.000000 -0.300491 0.085799
    vertex 0.750000 -0.304665 0.069538
    vertex 0.750000 -0.294964 0.103212
  endloop
endfacet
facet normal -0.000643 -0.944819 0.327591
  outer loop
    vertex 0.000000 -0.300491 0.085799
    vertex 0.750000 -0.294964 0.103212
    vertex 0.000000 -0.289108 0.118629
  endloop
endfacet
facet normal 0.000653 -0.923879 0.382683
  outer loop
    vertex 0.000000 -0.289108 0.118629
    vertex 0.750000 -0.294964 0.103212
    vertex 0.750000 -0.281553 0.135589
  endloop
endfacet
facet normal -0.000641 -0.902609 0.430461
  outer loop
    vertex 0.000000 -0.289108 0.118629
    vertex 0.750000 -0.281553 0.135589
    vertex 0.000000 -0.274150 0.149993
  endloop
endfacet
facet normal 0.000652 -0.875223 0.483719
  outer loop
    vertex 0.000000 -0.274150 0.149993
    vertex 0.750000 -0.281553 0.135589
    vertex 0.750000 -0.264601 0.166260
  endloop
endfacet
facet normal -0.000640 -0.849239 0.528009
  outer loop
    vertex 0.000000 -0.274150 0.149993
    vertex 0.750000 -0.264601 0.166260
    vertex 0.000000 -0.255803 0.179502
  endloop
endfacet
facet normal 0.000650 -0.815561 0.578671
  outer loop
    vertex 0.000000 -0.255803 0.179502
    vertex 0.750000 -0.264601 0.166260
    vertex 0.750000 -0.244322 0.194841
  endloop
endfacet
facet normal -0.000638 -0.785368 0.619029
  outer loop
    vertex 0.000000 -0.255803 0.179502
    vertex 0.750000 -0.244322 0.194841
    vertex 0.000000 -0.234293 0.206792
  endloop
endfacet
facet normal 0.000648 -0.745642 0.666347
  outer loop
    vertex 0.000000 -0.234293 0.206792
    vertex 0.750000 -0.244322 0.194841
    vertex 0.750000 -0.220971 0.220971
  endloop
endfacet
facet normal -0.000635 -0.711787 0.702395
  outer loop
    vertex 0.000000 -0.234293 0.206792
    vertex 0.750000 -0.220971 0.220971
    vertex 0.000000 -0.209886 0.231526
  endloop
endfacet
facet normal 0.000645 -0.666347 0.745642
  outer loop
    vertex 0.000000 -0.209886 0.231526
    vertex 0.750000 -0.220971 0.220971
    vertex 0.750000 -0.194841 0.244322
  endloop
endfacet
facet normal -0.000632 -0.629406 0.777076
  outer loop
    vertex 0.000000 -0.209886 0.231526
    vertex 0.750000 -0.194841 0.244322
    vertex 0.000000 -0.182884 0.253396
  endloop
endfacet
facet normal 0.000642 -0.578671 0.815561
  outer loop
    vertex 0.000000 -0.182884 0.253396
    vertex 0.750000 -0.194841 0.244322
    vertex 0.750000 -0.166260 0.264601
  endloop
endfacet
facet normal -0.000629 -0.539242 0.842151
  outer loop
    vertex 0.000000 -0.182884 0.253396
    vertex 0.750000 -0.166260 0.264601
    vertex 0.000000 -0.153621 0.272134
  endloop
endfacet
facet normal 0.000639 -0.483719 0.875223
  outer loop
    vertex 0.000000 -0.153621 0.272134
    vertex 0.750000 -0.166260 0.264601
    vertex 0.750000 -0.135589 0.281553
  endloop
endfacet
facet normal -0.000626 -0.442412 0.896812
  outer loop
    vertex 0.000000 -0.153621 0.272134
    vertex 0.750000 -0.135589 0.281553
    vertex 0.000000 -0.122459 0.287507
  endloop
endfacet
facet normal 0.000635 -0.382683 0.923879
  outer loop
    vertex 0.000000 -0.122459 0.287507
    vertex 0.750000 -0.135589 0.281553
    vertex 0.750000 -0.103212 0.294964
  endloop
endfacet
facet normal -0.000622 -0.340112 0.940385
  outer loop
    vertex 0.000000 -0.122459 0.287507
    vertex 0.750000 -0.103212 0.294964
    vertex 0.000000 -0.089782 0.299325
  endloop
endfacet
facet normal 0.000631 -0.276835 0.960917
  outer loop
    vertex 0.000000 -0.089782 0.299325
    vertex 0.750000 -0.103212 0.294964
    vertex 0.750000 -0.069538 0.304665
  endloop
endfacet
facet normal -0.000617 -0.233606 0.972331
  outer loop
    vertex 0.000000 -0.089782 0.299325
    vertex 0.750000 -0.069538 0.304665
    vertex 0.000000 -0.055996 0.307442
  endloop
endfacet
facet normal 0.000626 -0.167507 0.985871
  outer loop
    vertex 0.000000 -0.055996 0.307442
    vertex 0.750000 -0.069538 0.304665
    vertex 0.750000 -0.034989 0.310535
  endloop
endfacet
facet normal -0.000613 -0.124212 0.992256
  outer loop
    vertex 0.000000 -0.055996 0.307442
    vertex 0.750000 -0.034989 0.310535
    vertex 0.000000 -0.021517 0.311758
  endloop
endfacet
facet normal 0.000621 -0.056070 0.998427
  outer loop
    vertex 0.000000 -0.021517 0.311758
    vertex 0.750000 -0.034989 0.310535
    vertex 0.750000 0.000000 0.312500
  endloop
endfacet
facet normal -0.000608 -0.013282 0.999912
  outer loop
    vertex 0.000000 -0.021517 0.311758
    vertex 0.750000 0.000000 0.312500
    vertex 0.000000 0.013228 0.312220
  endloop
endfacet
facet normal 0.000616 0.056070 0.998427
  outer loop
    vertex 0.000000 0.013228 0.312220
    vertex 0.750000 0.000000 0.312500
    vertex 0.750000 0.034989 0.310535
  endloop
endfacet
facet normal -0.000602 0.097811 0.995205
  outer loop
    vertex 0.000000 0.013228 0.312220
    vertex 0.750000 0.034989 0.310535
    vertex 0.000000 0.047810 0.308821
  endloop
endfacet
facet normal 0.000610 0.167507 0.985871
  outer loop
    vertex 0.000000 0.047810 0.308821
    vertex 0.750000 0.034989 0.310535
    vertex 0.750000 0.069538 0.304665
  endloop
endfacet
facet normal -0.000596 0.207697 0.978193
  outer loop
    vertex 0.000000 0.047810 0.308821
    vertex 0.750000 0.069538 0.304665
    vertex 0.000000 0.081800 0.301604
  endloop
endfacet
facet normal 0.000604 0.276835 0.960917
  outer loop
    vertex 0.000000 0.081800 0.301604
    vertex 0.750000 0.069538 0.304665
    vertex 0.750000 0.103212 0.294964
  endloop
endfacet
facet normal -0.000590 0.315013 0.949087
  outer loop
    vertex 0.000000 0.081800 0.301604
    vertex 0.750000 0.103212 0.294964
    vertex 0.000000 0.114779 0.290658
  endloop
endfacet
facet normal 0.000598 0.382683 0.923879
  outer loop
    vertex 0.000000 0.114779 0.290658
    vertex 0.750000 0.103212 0.294964
    vertex 0.750000 0.135589 0.281553
  endloop
endfacet
facet normal -0.000584 0.418435 0.908247
  outer loop
    vertex 0.000000 0.114779 0.290658
    vertex 0.750000 0.135589 0.281553
    vertex 0.000000 0.146339 0.276118
  endloop
endfacet
facet normal 0.000591 0.483719 0.875223
  outer loop
    vertex 0.000000 0.146339 0.276118
    vertex 0.750000 0.135589 0.281553
    vertex 0.750000 0.166260 0.264601
  endloop
endfacet
facet normal -0.000577 0.516683 0.856177
  outer loop
    vertex 0.000000 0.146339 0.276118
    vertex 0.750000 0.166260 0.264601
    vertex 0.000000 0.176089 0.258165
  endloop
endfacet
facet normal 0.000584 0.578671 0.815561
  outer loop
    vertex 0.000000 0.176089 0.258165
    vertex 0.750000 0.166260 0.264601
    vertex 0.750000 0.194841 0.244322
  endloop
endfacet
facet normal -0.000569 0.608543 0.793521
  outer loop
    vertex 0.000000 0.176089 0.258165
    vertex 0.750000 0.194841 0.244322
    vertex 0.000000 0.203662 0.237019
  endloop
endfacet
facet normal 0.000577 0.666347 0.745642
  outer loop
    vertex 0.000000 0.203662 0.237019
    vertex 0.750000 0.194841 0.244322
    vertex 0.750000 0.220971 0.220971
  endloop
endfacet
facet normal -0.000562 0.692879 0.721054
  outer loop
    vertex 0.000000 0.203662 0.237019
    vertex 0.750000 0.220971 0.220971
    vertex 0.000000 0.228717 0.212943
  endloop
endfacet
facet normal 0.000569 0.745642 0.666347
  outer loop
    vertex 0.000000 0.228717 0.212943
    vertex 0.750000 0.220971 0.220971
    vertex 0.750000 0.244322 0.194841
  endloop
endfacet
facet normal -0.000554 0.768648 0.639672
  outer loop
    vertex 0.000000 0.228717 0.212943
    vertex 0.750000 0.244322 0.194841
    vertex 0.000000 0.250945 0.186234
  endloop
endfacet
facet normal 0.000561 0.815561 0.578671
  outer loop
    vertex 0.000000 0.250945 0.186234
    vertex 0.750000 0.244322 0.194841
    vertex 0.750000 0.264601 0.166260
  endloop
endfacet
facet normal -0.000545 0.834914 0.550380
  outer loop
    vertex 0.000000 0.250945 0.186234
    vertex 0.750000 0.264601 0.166260
    vertex 0.000000 0.270069 0.157222
  endloop
endfacet
facet normal 0.000552 0.875223 0.483719
  outer loop
    vertex 0.000000 0.270069 0.157222
    vertex 0.750000 0.264601 0.166260
    vertex 0.750000 0.281553 0.135589
  endloop
endfacet
facet normal -0.000536 0.890856 0.454285
  outer loop
    vertex 0.000000 0.270069 0.157222
    vertex 0.750000 0.281553 0.135589
    vertex 0.000000 0.285855 0.126267
  endloop
endfacet
facet normal 0.000543 0.923879 0.382683
  outer loop
    vertex 0.000000 0.285855 0.126267
    vertex 0.750000 0.281553 0.135589
    vertex 0.750000 0.294964 0.103212
  endloop
endfacet
facet normal -0.000000 0.056070 0.998427
  outer loop
    vertex 0.750000 0.000000 0.312500
    vertex 1.500000 0.000000 0.312500
    vertex 0.750000 0.034989 0.310535
  endloop
endfacet
facet normal -0.000000 0.056070 0.998427
  outer loop
    vertex 0.750000 0.034989 0.310535
    vertex 1.500000 0.000000 0.312500
    vertex 1.500000 0.034989 0.310535
  endloop
endfacet
facet normal -0.000000 0.167507 0.985871
  outer loop
    vertex 0.750000 0.034989 0.310535
    vertex 1.500000 0.034989 0.310535
    vertex 0.750000 0.069538 0.304665
  endloop
endfacet
facet normal -0.000000 0.167507 0.985871
  outer loop
    vertex 0.750000 0.069538 0.304665
    vertex 1.500000 0.034989 0.310535
    vertex 1.500000 0.069538 0.304665
  endloop
endfacet
facet normal -0.000000 0.276835 0.960917
  outer loop
    vertex 0.750000 0.069538 0.304665
    vertex 1.500000 0.069538 0.304665
    vertex 0.750000 0.103212 0.294964
  endloop
endfacet
facet normal -0.000000 0.276835 0.960917
  outer loop
    vertex 0.750000 0.103212 0.294964
    vertex 1.500000 0.069538 0.304665
    vertex 1.500000 0.103212 0.294964
  endloop
endfacet
facet normal -0.000000 0.382684 0.923879
  outer loop
    vertex 0.750000 0.103212 0.294964
    vertex 1.500000 0.103212 0.294964
    vertex 0.750000 0.135589 0.281553
  endloop
endfacet
facet normal -0.000000 0.382684 0.923879
  outer loop
    vertex 0.750000 0.135589 0.281553
    vertex 1.500000 0.103212 0.294964
    vertex 1.500000 0.135589 0.281553
  endloop
endfacet
facet normal -0.000000 0.483719 0.875224
  outer loop
    vertex 0.750000 0.135589 0.281553
    vertex 1.500000 0.135589 0.281553
    vertex 0.750000 0.166260 0.264601
  endloop
endfacet
facet normal -0.000000 0.483719 0.875224
  outer loop
    vertex 0.750000 0.166260 0.264601
    vertex 1.500000 0.135589 0.281553
    vertex 1.500000 0.166260 0.264601
  endloop
endfacet
facet normal -0.000000 0.578671 0.815561
  outer loop
    vertex 0.750000 0.166260 0.264601
    vertex 1.500000 0.166260 0.264601
    vertex 0.750000 0.194841 0.244322
  endloop
endfacet
facet normal -0.000000 0.578671 0.815561
  outer loop
    vertex 0.750000 0.194841 0.244322
    vertex 1.500000 0.166260 0.264601
    vertex 1.500000 0.194841 0.244322
  endloop
endfacet
facet normal -0.000000 0.666347 0.745642
  outer loop
    vertex 0.750000 0.194841 0.244322
    vertex 1.500000 0.194841 0.244322
    vertex 0.750000 0.220971 0.220971
  endloop
endfacet
facet normal -0.000000 0.666347 0.745642
  outer loop
    vertex 0.750000 0.220971 0.220971
    vertex 1.500000 0.194841 0.244322
    vertex 1.500000 0.220971 0.220971
  endloop
endfacet
facet normal -0.000000 0.745642 0.666347
  outer loop
    vertex 0.750000 0.220971 0.220971
    vertex 1.500000 0.220971 0.220971
    vertex 0.750000 0.244322 0.194841
  endloop
endfacet
facet normal -0.000000 0.745642 0.666347
  outer loop
    vertex 0.750000 0.244322 0.194841
    vertex 1.500000 0.220971 0.220971
    vertex 1.500000 0.244322 0.194841
  endloop
endfacet
facet normal -0.000000 0.815561 0.578671
  outer loop
    vertex 0.750000 0.244322 0.194841
    vertex 1.500000 0.244322 0.194841
    vertex 0.750000 0.264601 0.166260
  endloop
endfacet
facet normal -0.000000 0.815561 0.578671
  outer loop
    vertex 0.750000 0.264601 0.166260
    vertex 1.500000 0.244322 0.194841
    vertex 1.500000 0.264601 0.166260
  endloop
endfacet
facet normal -0.000000 0.875224 0.483719
  outer loop
    vertex 0.750000 0.264601 0.166260
    vertex 1.500000 0.264601 0.166260
    vertex 0.750000 0.281553 0.135589
  endloop
endfacet
facet normal -0.000000 0.875224 0.483719
  outer loop
    vertex 0.750000 0.281553 0.135589
    vertex 1.500000 0.264601 0.166260
    vertex 1.500000 0.281553 0.135589
  endloop
endfacet
facet normal -0.000000 0.923879 0.382684
  outer loop
    vertex 0.750000 0.281553 0.135589
    vertex 1.500000 0.281553 0.135589
    vertex 0.750000 0.294964 0.103212
  endloop
endfacet
facet normal -0.000000 0.923879 0.382684
  outer loop
    vertex 0.750000 0.294964 0.103212
    vertex 1.500000 0.281553 0.135589
    vertex 1.500000 0.294964 0.103212
  endloop
endfacet
facet normal 0.000000 0.056070 0.998427
  outer loop
    vertex 1.500000 0.000000 0.312500
    vertex 2.250000 -0.000000 0.312500
    vertex 1.500000 0.034989 0.310535
  endloop
endfacet
facet normal -0.000000 0.056070 0.998427
  outer loop
    vertex 1.500000 0.034989 0.310535
    vertex 2.250000 -0.000000 0.312500
    vertex 2.250000 0.034989 0.310535
  endloop
endfacet
facet normal -0.000000 0.167507 0.985871
  outer loop
    vertex 1.500000 0.034989 0.310535
    vertex 2.250000 0.034989 0.310535
    vertex 1.500000 0.069538 0.304665
  endloop
endfacet
facet normal -0.000000 0.167507 0.985871
  outer loop
    vertex 1.500000 0.069538 0.304665
    vertex 2.250000 0.034989 0.310535
    vertex 2.250000 0.069538 0.304665
  endloop
endfacet
facet normal -0.000000 0.276835 0.960917
  outer loop
    vertex 1.500000 0.069538 0.304665
    vertex 2.250000 0.069538 0.304665
    vertex 1.500000 0.103212 0.294964
  endloop
endfacet
facet normal -0.000000 0.276835 0.960917
  outer loop
    vertex 1.500000 0.103212 0.294964
    vertex 2.250000 0.069538 0.304665
    vertex 2.250000 0.103212 0.294964
  endloop
endfacet
facet normal -0.000000 0.382684 0.923879
  outer loop
    vertex 1.500000 0.103212 0.294964
    vertex 2.250000 0.103212 0.294964
    vertex 1.500000 0.135589 0.281553
  endloop
endfacet
facet normal -0.000000 0.382684 0.923879
  outer loop
    vertex 1.500000 0.135589 0.281553
    vertex 2.250000 0.103212 0.294964
    vertex 2.250000 0.135589 0.281553
  endloop
endfacet
facet normal -0.000000 0.483719 0.875224
  outer loop
    vertex 1.500000 0.135589 0.281553
    vertex 2.250000 0.135589 0.281553
    vertex 1.500000 0.166260 0.264601
  endloop
endfacet
facet normal -0.000000 0.483719 0.875224
  outer loop
    vertex 1.500000 0.166260 0.264601
    vertex 2.250000 0.135589 0.281553
    vertex 2.250000 0.166260 0.264601
  endloop
endfacet
facet normal -0.000000 0.578671 0.815561
  outer loop
    vertex 1.500000 0.166260 0.264601
    vertex 2.250000 0.166260 0.264601
    vertex 1.500000 0.194841 0.244322
  endloop
endfacet
facet normal -0.000000 0.578671 0.815561
  outer loop
    vertex 1.500000 0.194841 0.244322
    vertex 2.250000 0.166260 0.264601
    vertex 2.250000 0.194841 0.244322
  endloop
endfacet
facet normal -0.000000 0.666347 0.745642
  outer loop
    vertex 1.500000 0.194841 0.244322
    vertex 2.250000 0.194841 0.244322
    vertex 1.500000 0.220971 0.220971
  endloop
endfacet
facet normal -0.000000 0.666347 0.745642
  outer loop
    vertex 1.500000 0.220971 0.220971
    vertex 2.250000 0.194841 0.244322
    vertex 2.250000 0.220971 0.220971
  endloop
endfacet
facet normal -0.000000 0.745642 0.666347
  outer loop
    vertex 1.500000 0.220971 0.220971
    vertex 2.250000 0.220971 0.220971
    vertex 1.500000 0.244322 0.194841
  endloop
endfacet
facet normal -0.000000 0.745642 0.666347
  outer loop
    vertex 1.500000 0.244322 0.194841
    vertex 2.250000 0.220971 0.220971
    vertex 2.250000 0.244322 0.194841
  endloop
endfacet
facet normal -0.000000 0.815561 0.578671
  outer loop
    vertex 1.500000 0.244322 0.194841
    vertex 2.250000 0.244322 0.194841
    vertex 1.500000 0.264601 0.166260
  endloop
endfacet
facet normal -0.000000 0.815561 0.578671
  outer loop
    vertex 1.500000 0.264601 0.166260
    vertex 2.250000 0.244322 0.194841
    vertex 2.250000 0.264601 0.166260
  endloop
endfacet
facet normal -0.000000 0.875224 0.483719
  outer loop
    vertex 1.500000 0.264601 0.166260
    vertex 2.250000 0.264601 0.166260
    vertex 1.500000 0.281553 0.135589
  endloop
endfacet
facet normal -0.000000 0.875224 0.483719
  outer loop
    vertex 1.500000 0.281553 0.135589
    vertex 2.250000 0.264601 0.166260
    vertex 2.250000 0.281553 0.135589
  endloop
endfacet
facet normal -0.000000 0.923879 0.382684
  outer loop
    vertex 1.500000 0.281553 0.135589
    vertex 2.250000 0.281553 0.135589
    vertex 1.500000 0.294964 0.103212
  endloop
endfacet
facet normal -0.000000 0.923879 0.382684
  outer loop
    vertex 1.500000 0.294964 0.103212
    vertex 2.250000 0.281553 0.135589
    vertex 2.250000 0.294964 0.103212
  endloop
endfacet
facet normal 0.000000 -0.056070 0.998427
  outer loop
    vertex 1.500000 0.000000 0.312500
    vertex 0.750000 0.000000 0.312500
    vertex 1.500000 -0.034989 0.310535
  endloop
endfacet
facet normal 0.000000 -0.056070 0.998427
  outer loop
    vertex 1.500000 -0.034989 0.310535
    vertex 0.750000 0.000000 0.312500
    vertex 0.750000 -0.034989 0.310535
  endloop
endfacet
facet normal 0.000000 -0.167507 0.985871
  outer loop
    vertex 1.500000 -0.034989 0.310535
    vertex 0.750000 -0.034989 0.310535
    vertex 1.500000 -0.069538 0.304665
  endloop
endfacet
facet normal 0.000000 -0.167507 0.985871
  outer loop
    vertex 1.500000 -0.069538 0.304665
    vertex 0.750000 -0.034989 0.310535
    vertex 0.750000 -0.069538 0.304665
  endloop
endfacet
facet normal 0.000000 -0.276835 0.960917
  outer loop
    vertex 1.500000 -0.069538 0.304665
    vertex 0.750000 -0.069538 0.304665
    vertex 1.500000 -0.103212 0.294964
  endloop
endfacet
facet normal 0.000000 -0.276835 0.960917
  outer loop
    vertex 1.500000 -0.103212 0.294964
    vertex 0.750000 -0.069538 0.304665
    vertex 0.750000 -0.103212 0.294964
  endloop
endfacet
facet normal 0.000000 -0.382684 0.923879
  outer loop
    vertex 1.500000 -0.103212 0.294964
    vertex 0.750000 -0.103212 0.294964
    vertex 1.500000 -0.135589 0.281553
  endloop
endfacet
facet normal 0.000000 -0.382684 0.923879
  outer loop
    vertex 1.500000 -0.135589 0.281553
    vertex 0.750000 -0.103212 0.294964
    vertex 0.750000 -0.135589 0.281553
  endloop
endfacet
facet normal 0.000000 -0.483719 0.875224
  outer loop
    vertex 1.500000 -0.135589 0.281553
    vertex 0.750000 -0.135589 0.281553
    vertex 1.500000 -0.166260 0.264601
  endloop
endfacet
facet normal 0.000000 -0.483719 0.875224
  outer loop
    vertex 1.500000 -0.166260 0.264601
    vertex 0.750000 -0.135589 0.281553
    vertex 0.750000 -0.166260 0.264601
  endloop
endfacet
facet normal 0.000000 -0.578671 0.815561
  outer loop
    vertex 1.500000 -0.166260 0.264601
    vertex 0.750000 -0.166260 0.264601
    vertex 1.500000 -0.194841 0.244322
  endloop
endfacet
facet normal 0.000000 -0.578671 0.815561
  outer loop
    vertex 1.500000 -0.194841 0.244322
    vertex 0.750000 -0.166260 0.264601
    vertex 0.750000 -0.194841 0.244322
  endloop
endfacet
facet normal 0.000000 -0.666347 0.745642
  outer loop
    vertex 1.500000 -0.194841 0.244322
    vertex 0.750000 -0.194841 0.244322
    vertex 1.500000 -0.220971 0.220971
  endloop
endfacet
facet normal 0.000000 -0.666347 0.745642
  outer loop
    vertex 1.500000 -0.220971 0.220971
    vertex 0.750000 -0.194841 0.244322
    vertex 0.750000 -0.220971 0.220971
  endloop
endfacet
facet normal 0.000000 -0.745642 0.666347
  outer loop
    vertex 1.500000 -0.220971 0.220971
    vertex 0.750000 -0.220971 0.220971
    vertex 1.500000 -0.244322 0.194841
  endloop
endfacet
facet normal 0.000000 -0.745642 0.666347
  outer loop
    vertex 1.500000 -0.244322 0.194841
    vertex 0.750000 -0.220971 0.220971
    vertex 0.750000 -0.244322 0.194841
  endloop
endfacet
facet normal 0.000000 -0.815561 0.578671
  outer loop
    vertex 1.500000 -0.244322 0.194841
    vertex 0.750000 -0.244322 0.194841
    vertex 1.500000 -0.264601 0.166260
  endloop
endfacet
facet normal 0.000000 -0.815561 0.578671
  outer loop
    vertex 1.500000 -0.264601 0.166260
    vertex 0.750000 -0.244322 0.194841
    vertex 0.750000 -0.264601 0.166260
  endloop
endfacet
facet normal 0.000000 -0.875224 0.483719
  outer loop
    vertex 1.500000 -0.264601 0.166260
    vertex 0.750000 -0.264601 0.166260
    vertex 1.500000 -0.281553 0.135589
  endloop
endfacet
facet normal 0.000000 -0.875224 0.483719
  outer loop
    vertex 1.500000 -0.281553 0.135589
    vertex 0.750000 -0.264601 0.166260
    vertex 0.750000 -0.281553 0.135589
  endloop
endfacet
facet normal 0.000000 -0.923879 0.382684
  outer loop
    vertex 1.500000 -0.281553 0.135589
    vertex 0.750000 -0.281553 0.135589
    vertex 1.500000 -0.294964 0.103212
  endloop
endfacet
facet normal 0.000000 -0.923879 0.382684
  outer loop
    vertex 1.500000 -0.294964 0.103212
    vertex 0.750000 -0.281553 0.135589
    vertex 0.750000 -0.294964 0.103212
  endloop
endfacet
facet normal 0.000000 -0.960917 0.276835
  outer loop
    vertex 1.500000 -0.294964 0.103212
    vertex 0.750000 -0.294964 0.103212
    vertex 1.500000 -0.304665 0.069538
  endloop
endfacet
facet normal 0.000000 -0.960917 0.276835
  outer loop
    vertex 1.500000 -0.304665 0.069538
    vertex 0.750000 -0.294964 0.103212
    vertex 0.750000 -0.304665 0.069538
  endloop
endfacet
facet normal 0.000000 -0.985871 0.167507
  outer loop
    vertex 1.500000 -0.304665 0.069538
    vertex 0.750000 -0.304665 0.069538
    vertex 1.500000 -0.310535 0.034989
  endloop
endfacet
facet normal 0.000000 -0.985871 0.167507
  outer loop
    vertex 1.500000 -0.310535 0.034989
    vertex 0.750000 -0.304665 0.069538
    vertex 0.750000 -0.310535 0.034989
  endloop
endfacet
facet normal 0.000000 -0.998427 0.056070
  outer loop
    vertex 1.500000 -0.310535 0.034989
    vertex 0.750000 -0.310535 0.034989
    vertex 1.500000 -0.312500 -0.000000
  endloop
endfacet
facet normal 0.000000 -0.998427 0.056070
  outer loop
    vertex 1.500000 -0.312500 -0.000000
    vertex 0.750000 -0.310535 0.034989
    vertex 0.750000 -0.312500 -0.000000
  endloop
endfacet
facet normal -0.000000 -0.998427 -0.056070
  outer loop
    vertex 1.500000 -0.312500 -0.000000
    vertex 0.750000 -0.312500 -0.000000
    vertex 1.500000 -0.310535 -0.034989
  endloop
endfacet
facet normal -0.000000 -0.998427 -0.056070
  outer loop
    vertex 1.500000 -0.310535 -0.034989
    vertex 0.750000 -0.312500 -0.000000
    vertex 0.750000 -0.310535 -0.034989
  endloop
endfacet
facet normal -0.000000 -0.985871 -0.167507
  outer loop
    vertex 1.500000 -0.310535 -0.034989
    vertex 0.750000 -0.310535 -0.034989
    vertex 1.500000 -0.304665 -0.069538
  endloop
endfacet
facet normal -0.000000 -0.985871 -0.167507
  outer loop
    vertex 1.500000 -0.304665 -0.069538
    vertex 0.750000 -0.310535 -0.034989
    vertex 0.750000 -0.304665 -0.069538
  endloop
endfacet
facet normal -0.000000 -0.960917 -0.276835
  outer loop
    vertex 1.500000 -0.304665 -0.069538
    vertex 0.750000 -0.304665 -0.069538
    vertex 1.500000 -0.294964 -0.103212
  endloop
endfacet
facet normal -0.000000 -0.960917 -0.276835
  outer loop
    vertex 1.500000 -0.294964 -0.103212
    vertex 0.750000 -0.304665 -0.069538
    vertex 0.750000 -0.294964 -0.103212
  endloop
endfacet
facet normal -0.000000 -0.923879 -0.382684
  outer loop
    vertex 1.500000 -0.294964 -0.103212
    vertex 0.750000 -0.294964 -0.103212
    vertex 1.500000 -0.281553 -0.135589
  endloop
endfacet
facet normal -0.000000 -0.923879 -0.382684
  outer loop
    vertex 1.500000 -0.281553 -0.135589
    vertex 0.750000 -0.294964 -0.103212
    vertex 0.750000 -0.281553 -0.135589
  endloop
endfacet
facet normal -0.000000 -0.875224 -0.483719
  outer loop
    vertex 1.500000 -0.281553 -0.135589
    vertex 0.750000 -0.281553 -0.135589
    vertex 1.500000 -0.264601 -0.166260
  endloop
endfacet
facet normal -0.000000 -0.875224 -0.483719
  outer loop
    vertex 1.500000 -0.264601 -0.166260
    vertex 0.750000 -0.281553 -0.135589
    vertex 0.750000 -0.264601 -0.166260
  endloop
endfacet
facet normal -0.000000 -0.815561 -0.578671
  outer loop
    vertex 1.500000 -0.264601 -0.166260
    vertex 0.750000 -0.264601 -0.166260
    vertex 1.500000 -0.244322 -0.194841
  endloop
endfacet
facet normal -0.000000 -0.815561 -0.578671
  outer loop
    vertex 1.500000 -0.244322 -0.194841
    vertex 0.750000 -0.264601 -0.166260
    vertex 0.750000 -0.244322 -0.194841
  endloop
endfacet
facet normal -0.000000 -0.745642 -0.666347
  outer loop
    vertex 1.500000 -0.244322 -0.194841
    vertex 0.750000 -0.244322 -0.194841
    vertex 1.500000 -0.220971 -0.220971
  endloop
endfacet
facet normal -0.000000 -0.745642 -0.666347
  outer loop
    vertex 1.500000 -0.220971 -0.220971
    vertex 0.750000 -0.244322 -0.194841
    vertex 0.750000 -0.220971 -0.220971
  endloop
endfacet
facet normal -0.000000 -0.666347 -0.745642
  outer loop
    vertex 1.500000 -0.220971 -0.220971
    vertex 0.750000 -0.220971 -0.220971
    vertex 1.500000 -0.194841 -0.244322
  endloop
endfacet
facet normal -0.000000 -0.666347 -0.745642
  outer loop
    vertex 1.500000 -0.194841 -0.244322
    vertex 0.750000 -0.220971 -0.220971
    vertex 0.750000 -0.194841 -0.244322
  endloop
endfacet
facet normal -0.000000 -0.578671 -0.815561
  outer loop
    vertex 1.500000 -0.194841 -0.244322
    vertex 0.750000 -0.194841 -0.244322
    vertex 1.500000 -0.166260 -0.264601
  endloop
endfacet
facet normal -0.000000 -0.578671 -0.815561
  outer loop
    vertex 1.500000 -0.166260 -0.264601
    vertex 0.750000 -0.194841 -0.244322
    vertex 0.750000 -0.166260 -0.264601
  endloop
endfacet
facet normal -0.000000 -0.483719 -0.875224
  outer loop
    vertex 1.500000 -0.166260 -0.264601
    vertex 0.750000 -0.166260 -0.264601
    vertex 1.500000 -0.135589 -0.281553
  endloop
endfacet
facet normal -0.000000 -0.483719 -0.875224
  outer loop
    vertex 1.500000 -0.135589 -0.281553
    vertex 0.750000 -0.166260 -0.264601
    vertex 0.750000 -0.135589 -0.281553
  endloop
endfacet
facet normal -0.000000 -0.382684 -0.923879
  outer loop
    vertex 1.500000 -0.135589 -0.281553
    vertex 0.750000 -0.135589 -0.281553
    vertex 1.500000 -0.103212 -0.294964
  endloop
endfacet
facet normal -0.000000 -0.382684 -0.923879
  outer loop
    vertex 1.500000 -0.103212 -0.294964
    vertex 0.750000 -0.135589 -0.281553
    vertex 0.750000 -0.103212 -0.294964
  endloop
endfacet
facet normal -0.000000 -0.276835 -0.960917
  outer loop
    vertex 1.500000 -0.103212 -0.294964
    vertex 0.750000 -0.103212 -0.294964
    vertex 1.500000 -0.069538 -0.304665
  endloop
endfacet
facet normal -0.000000 -0.276835 -0.960917
  outer loop
    vertex 1.500000 -0.069538 -0.304665
    vertex 0.750000 -0.103212 -0.294964
    vertex 0.750000 -0.069538 -0.304665
  endloop
endfacet
facet normal -0.000000 -0.167507 -0.985871
  outer loop
    vertex 1.500000 -0.069538 -0.304665
    vertex 0.750000 -0.069538 -0.304665
    vertex 1.500000 -0.034989 -0.310535
  endloop
endfacet
facet normal -0.000000 -0.167507 -0.985871
  outer loop
    vertex 1.500000 -0.034989 -0.310535
    vertex 0.750000 -0.069538 -0.304665
    vertex 0.750000 -0.034989 -0.310535
  endloop
endfacet
facet normal -0.000000 -0.056070 -0.998427
  outer loop
    vertex 1.500000 -0.034989 -0.310535
    vertex 0.750000 -0.034989 -0.310535
    vertex 1.500000 0.000000 -0.312500
  endloop
endfacet
facet normal -0.000000 -0.056070 -0.998427
  outer loop
    vertex 1.500000 0.000000 -0.312500
    vertex 0.750000 -0.034989 -0.310535
    vertex 0.750000 0.000000 -0.312500
  endloop
endfacet
facet normal 0.000000 0.056070 -0.998427
  outer loop
    vertex 1.500000 0.000000 -0.312500
    vertex 0.750000 0.000000 -0.312500
    vertex 1.500000 0.034989 -0.310535
  endloop
endfacet
facet normal 0.000000 0.056070 -0.998427
  outer loop
    vertex 1.500000 0.034989 -0.310535
    vertex 0.750000 0.000000 -0.312500
    vertex 0.750000 0.034989 -0.310535
  endloop
endfacet
facet normal 0.000000 0.167507 -0.985871
  outer loop
    vertex 1.500000 0.034989 -0.310535
    vertex 0.750000 0.034989 -0.310535
    vertex 1.500000 0.069538 -0.304665
  endloop
endfacet
facet normal 0.000000 0.167507 -0.985871
  outer loop
    vertex 1.500000 0.069538 -0.304665
    vertex 0.750000 0.034989 -0.310535
    vertex 0.750000 0.069538 -0.304665
  endloop
endfacet
facet normal 0.000000 0.276835 -0.960917
  outer loop
    vertex 1.500000 0.069538 -0.304665
    vertex 0.750000 0.069538 -0.304665
    vertex 1.500000 0.103212 -0.294964
  endloop
endfacet
facet normal 0.000000 0.276835 -0.960917
  outer loop
    vertex 1.500000 0.103212 -0.294964
    vertex 0.750000 0.069538 -0.304665
    vertex 0.750000 0.103212 -0.294964
  endloop
endfacet
facet normal 0.000000 0.382684 -0.923879
  outer loop
    vertex 1.500000 0.103212 -0.294964
    vertex 0.750000 0.103212 -0.294964
    vertex 1.500000 0.135589 -0.281553
  endloop
endfacet
facet normal 0.000000 0.382684 -0.923879
  outer loop
    vertex 1.500000 0.135589 -0.281553
    vertex 0.750000 0.103212 -0.294964
    vertex 0.750000 0.135589 -0.281553
  endloop
endfacet
facet normal 0.000000 0.483719 -0.875224
  outer loop
    vertex 1.500000 0.135589 -0.281553
    vertex 0.750000 0.135589 -0.281553
    vertex 1.500000 0.166260 -0.264601
  endloop
endfacet
facet normal 0.000000 0.483719 -0.875224
  outer loop
    vertex 1.500000 0.166260 -0.264601
    vertex 0.750000 0.135589 -0.281553
    vertex 0.750000 0.166260 -0.264601
  endloop
endfacet
facet normal 0.000000 0.578671 -0.815561
  outer loop
    vertex 1.500000 0.166260 -0.264601
    vertex 0.750000 0.166260 -0.264601
    vertex 1.500000 0.194841 -0.244322
  endloop
endfacet
facet normal 0.000000 0.578671 -0.815561
  outer loop
    vertex 1.500000 0.194841 -0.244322
    vertex 0.750000 0.166260 -0.264601
    vertex 0.750000 0.194841 -0.244322
  endloop
endfacet
facet normal 0.000000 0.666347 -0.745642
  outer loop
    vertex 1.500000 0.194841 -0.244322
    vertex 0.750000 0.194841 -0.244322
    vertex 1.500000 0.220971 -0.220971
  endloop
endfacet
facet normal 0.000000 0.666347 -0.745642
  outer loop
    vertex 1.500000 0.220971 -0.220971
    vertex 0.750000 0.194841 -0.244322
    vertex 0.750000 0.220971 -0.220971
  endloop
endfacet
facet normal 0.000000 0.745642 -0.666347
  outer loop
    vertex 1.500000 0.220971 -0.220971
    vertex 0.750000 0.220971 -0.220971
    vertex 1.500000 0.244322 -0.194841
  endloop
endfacet
facet normal 0.000000 0.745642 -0.666347
  outer loop
    vertex 1.500000 0.244322 -0.194841
    vertex 0.750000 0.220971 -0.220971
    vertex 0.750000 0.244322 -0.194841
  endloop
endfacet
facet normal 0.000000 0.815561 -0.578671
  outer loop
    vertex 1.500000 0.244322 -0.194841
    vertex 0.750000 0.244322 -0.194841
    vertex 1.500000 0.264601 -0.166260
  endloop
endfacet
facet normal 0.000000 0.815561 -0.578671
  outer loop
    vertex 1.500000 0.264601 -0.166260
    vertex 0.750000 0.244322 -0.194841
    vertex 0.750000 0.264601 -0.166260
  endloop
endfacet
facet normal 0.000000 0.875224 -0.483719
  outer loop
    vertex 1.500000 0.264601 -0.166260
    vertex 0.750000 0.264601 -0.166260
    vertex 1.500000 0.281553 -0.135589
  endloop
endfacet
facet normal 0.000000 0.875224 -0.483719
  outer loop
    vertex 1.500000 0.281553 -0.135589
    vertex 0.750000 0.264601 -0.166260
    vertex 0.750000 0.281553 -0.135589
  endloop
endfacet
facet normal 0.000000 0.923879 -0.382684
  outer loop
    vertex 1.500000 0.281553 -0.135589
    vertex 0.750000 0.281553 -0.135589
    vertex 1.500000 0.294964 -0.103212
  endloop
endfacet
facet normal 0.000000 0.923879 -0.382684
  outer loop
    vertex 1.500000 0.294964 -0.103212
    vertex 0.750000 0.281553 -0.135589
    vertex 0.750000 0.294964 -0.103212
  endloop
endfacet
facet normal -0.000000 -0.056070 0.998427
  outer loop
    vertex 2.250000 -0.000000 0.312500
    vertex 1.500000 0.000000 0.312500
    vertex 2.250000 -0.034989 0.310535
  endloop
endfacet
facet normal 0.000000 -0.056070 0.998427
  outer loop
    vertex 2.250000 -0.034989 0.310535
    vertex 1.500000 0.000000 0.312500
    vertex 1.500000 -0.034989 0.310535
  endloop
endfacet
facet normal 0.000000 -0.167507 0.985871
  outer loop
    vertex 2.250000 -0.034989 0.310535
    vertex 1.500000 -0.034989 0.310535
    vertex 2.250000 -0.069538 0.304665
  endloop
endfacet
facet normal 0.000000 -0.167507 0.985871
  outer loop
    vertex 2.250000 -0.069538 0.304665
    vertex 1.500000 -0.034989 0.310535
    vertex 1.500000 -0.069538 0.304665
  endloop
endfacet
facet normal 0.000000 -0.276835 0.960917
  outer loop
    vertex 2.250000 -0.069538 0.304665
    vertex 1.500000 -0.069538 0.304665
    vertex 2.250000 -0.103212 0.294964
  endloop
endfacet
facet normal 0.000000 -0.276835 0.960917
  outer loop
    vertex 2.250000 -0.103212 0.294964
    vertex 1.500000 -0.069538 0.304665
    vertex 1.500000 -0.103212 0.294964
  endloop
endfacet
facet normal 0.000000 -0.382684 0.923879
  outer loop
    vertex 2.250000 -0.103212 0.294964
    vertex 1.500000 -0.103212 0.294964
    vertex 2.250000 -0.135589 0.281553
  endloop
endfacet
facet normal 0.000000 -0.382684 0.923879
  outer loop
    vertex 2.250000 -0.135589 0.281553
    vertex 1.500000 -0.103212 0.294964
    vertex 1.500000 -0.135589 0.281553
  endloop
endfacet
facet normal 0.000000 -0.483719 0.875224
  outer loop
    vertex 2.250000 -0.135589 0.281553
    vertex 1.500000 -0.135589 0.281553
    vertex 2.250000 -0.166260 0.264601
  endloop
endfacet
facet normal 0.000000 -0.483719 0.875224
  outer loop
    vertex 2.250000 -0.166260 0.264601
    vertex 1.500000 -0.135589 0.281553
    vertex 1.500000 -0.166260 0.264601
  endloop
endfacet
facet normal 0.000000 -0.578671 0.815561
  outer loop
    vertex 2.250000 -0.166260 0.264601
    vertex 1.500000 -0.166260 0.264601
    vertex 2.250000 -0.194841 0.244322
  endloop
endfacet
facet normal 0.000000 -0.578671 0.815561
  outer loop
    vertex 2.250000 -0.194841 0.244322
    vertex 1.500000 -0.166260 0.264601
    vertex 1.500000 -0.194841 0.244322
  endloop
endfacet
facet normal 0.000000 -0.666347 0.745642
  outer loop
    vertex 2.250000 -0.194841 0.244322
    vertex 1.500000 -0.194841 0.244322
    vertex 2.250000 -0.220971 0.220971
  endloop
endfacet
facet normal 0.000000 -0.666347 0.745642
  outer loop
    vertex 2.250000 -0.220971 0.220971
    vertex 1.500000 -0.194841 0.244322
    vertex 1.500000 -0.220971 0.220971
  endloop
endfacet
facet normal 0.000000 -0.745642 0.666347
  outer loop
    vertex 2.250000 -0.220971 0.220971
    vertex 1.500000 -0.220971 0.220971
    vertex 2.250000 -0.244322 0.194841
  endloop
endfacet
facet normal 0.000000 -0.745642 0.666347
  outer loop
    vertex 2.250000 -0.244322 0.194841
    vertex 1.500000 -0.220971 0.220971
    vertex 1.500000 -0.244322 0.194841
  endloop
endfacet
facet normal 0.000000 -0.815561 0.578671
  outer loop
    vertex 2.250000 -0.244322 0.194841
    vertex 1.500000 -0.244322 0.194841
    vertex 2.250000 -0.264601 0.166260
  endloop
endfacet
facet normal 0.000000 -0.815561 0.578671
  outer loop
    vertex 2.250000 -0.264601 0.166260
    vertex 1.500000 -0.244322 0.194841
    vertex 1.500000 -0.264601 0.166260
  endloop
endfacet
facet normal 0.000000 -0.875224 0.483719
  outer loop
    vertex 2.250000 -0.264601 0.166260
    vertex 1.500000 -0.264601 0.166260
    vertex 2.250000 -0.281553 0.135589
  endloop
endfacet
facet normal 0.000000 -0.875224 0.483719
  outer loop
    vertex 2.250000 -0.281553 0.135589
    vertex 1.500000 -0.264601 0.166260
    vertex 1.500000 -0.281553 0.135589
  endloop
endfacet
facet normal 0.000000 -0.923879 0.382684
  outer loop
    vertex 2.250000 -0.281553 0.135589
    vertex 1.500000 -0.281553 0.135589
    vertex 2.250000 -0.294964 0.103212
  endloop
endfacet
facet normal 0.000000 -0.923879 0.382684
  outer loop
    vertex 2.250000 -0.294964 0.103212
    vertex 1.500000 -0.281553 0.135589
    vertex 1.500000 -0.294964 0.103212
  endloop
endfacet
facet normal 0.000000 -0.960917 0.276835
  outer loop
    vertex 2.250000 -0.294964 0.103212
    vertex 1.500000 -0.294964 0.103212
    vertex 2.250000 -0.304665 0.069538
  endloop
endfacet
facet normal 0.000000 -0.960917 0.276835
  outer loop
    vertex 2.250000 -0.304665 0.069538
    vertex 1.500000 -0.294964 0.103212
    vertex 1.500000 -0.304665 0.069538
  endloop
endfacet
facet normal 0.000000 -0.985871 0.167507
  outer loop
    vertex 2.250000 -0.304665 0.069538
    vertex 1.500000 -0.304665 0.069538
    vertex 2.250000 -0.310535 0.034989
  endloop
endfacet
facet normal 0.000000 -0.985871 0.167507
  outer loop
    vertex 2.250000 -0.310535 0.034989
    vertex 1.500000 -0.304665 0.069538
    vertex 1.500000 -0.310535 0.034989
  endloop
endfacet
facet normal 0.000000 -0.998427 0.056070
  outer loop
    vertex 2.250000 -0.310535 0.034989
    vertex 1.500000 -0.310535 0.034989
    vertex 2.250000 -0.312500 -0.000000
  endloop
endfacet
facet normal 0.000000 -0.998427 0.056070
  outer loop
    vertex 2.250000 -0.312500 -0.000000
    vertex 1.500000 -0.310535 0.034989
    vertex 1.500000 -0.312500 -0.000000
  endloop
endfacet
facet normal -0.000000 -0.998427 -0.056070
  outer loop
    vertex 2.250000 -0.312500 -0.000000
    vertex 1.500000 -0.312500 -0.000000
    vertex 2.250000 -0.310535 -0.034989
  endloop
endfacet
facet normal -0.000000 -0.998427 -0.056070
  outer loop
    vertex 2.250000 -0.310535 -0.034989
    vertex 1.500000 -0.312500 -0.000000
    vertex 1.500000 -0.310535 -0.034989
  endloop
endfacet
facet normal -0.000000 -0.985871 -0.167507
  outer loop
    vertex 2.250000 -0.310535 -0.034989
    vertex 1.500000 -0.310535 -0.034989
    vertex 2.250000 -0.304665 -0.069538
  endloop
endfacet
facet normal -0.000000 -0.985871 -0.167507
  outer loop
    vertex 2.250000 -0.304665 -0.069538
    vertex 1.500000 -0.310535 -0.034989
    vertex 1.500000 -0.304665 -0.069538
  endloop
endfacet
facet normal -0.000000 -0.960917 -0.276835
  outer loop
    vertex 2.250000 -0.304665 -0.069538
    vertex 1.500000 -0.304665 -0.069538
    vertex 2.250000 -0.294964 -0.103212
  endloop
endfacet
facet normal -0.000000 -0.960917 -0.276835
  outer loop
    vertex 2.250000 -0.294964 -0.103212
    vertex 1.500000 -0.304665 -0.069538
    vertex 1.500000 -0.294964 -0.103212
  endloop
endfacet
facet normal -0.000000 -0.923879 -0.382684
  outer loop
    vertex 2.250000 -0.294964 -0.103212
    vertex 1.500000 -0.294964 -0.103212
    vertex 2.250000 -0.281553 -0.135589
  endloop
endfacet
facet normal -0.000000 -0.923879 -0.382684
  outer loop
    vertex 2.250000 -0.281553 -0.135589
    vertex 1.500000 -0.294964 -0.103212
    vertex 1.500000 -0.281553 -0.135589
  endloop
endfacet
facet normal -0.000000 -0.875224 -0.483719
  outer loop
    vertex 2.250000 -0.281553 -0.135589
    vertex 1.500000 -0.281553 -0.135589
    vertex 2.250000 -0.264601 -0.166260
  endloop
endfacet
facet normal -0.000000 -0.875224 -0.483719
  outer loop
    vertex 2.250000 -0.264601 -0.166260
    vertex 1.500000 -0.281553 -0.135589
    vertex 1.500000 -0.264601 -0.166260
  endloop
endfacet
facet normal -0.000000 -0.815561 -0.578671
  outer loop
    vertex 2.250000 -0.264601 -0.166260
    vertex 1.500000 -0.264601 -0.166260
    vertex 2.250000 -0.244322 -0.194841
  endloop
endfacet
facet normal -0.000000 -0.815561 -0.578671
  outer loop
    vertex 2.250000 -0.244322 -0.194841
    vertex 1.500000 -0.264601 -0.166260
    vertex 1.500000 -0.244322 -0.194841
  endloop
endfacet
facet normal -0.000000 -0.745642 -0.666347
  outer loop
    vertex 2.250000 -0.244322 -0.194841
    vertex 1.500000 -0.244322 -0.194841
    vertex 2.250000 -0.220971 -0.220971
  endloop
endfacet
facet normal -0.000000 -0.745642 -0.666347
  outer loop
    vertex 2.250000 -0.220971 -0.220971
    vertex 1.500000 -0.244322 -0.194841
    vertex 1.500000 -0.220971 -0.220971
  endloop
endfacet
facet normal -0.000000 -0.666347 -0.745642
  outer loop
    vertex 2.250000 -0.220971 -0.220971
    vertex 1.500000 -0.220971 -0.220971
    vertex 2.250000 -0.194841 -0.244322
  endloop
endfacet
facet normal -0.000000 -0.666347 -0.745642
  outer loop
    vertex 2.250000 -0.194841 -0.244322
    vertex 1.500000 -0.220971 -0.220971
    vertex 1.500000 -0.194841 -0.244322
  endloop
endfacet
facet normal -0.000000 -0.578671 -0.815561
  outer loop
    vertex 2.250000 -0.194841 -0.244322
    vertex 1.500000 -0.194841 -0.244322
    vertex 2.250000 -0.166260 -0.264601
  endloop
endfacet
facet normal -0.000000 -0.578671 -0.815561
  outer loop
    vertex 2.250000 -0.166260 -0.264601
    vertex 1.500000 -0.194841 -0.244322
    vertex 1.500000 -0.166260 -0.264601
  endloop
endfacet
facet normal -0.000000 -0.483719 -0.875224
  outer loop
    vertex 2.250000 -0.166260 -0.264601
    vertex 1.500000 -0.166260 -0.264601
    vertex 2.250000 -0.135589 -0.281553
  endloop
endfacet
facet normal -0.000000 -0.483719 -0.875224
  outer loop
    vertex 2.250000 -0.135589 -0.281553
    vertex 1.500000 -0.166260 -0.264601
    vertex 1.500000 -0.135589 -0.281553
  endloop
endfacet
facet normal -0.000000 -0.382684 -0.923879
  outer loop
    vertex 2.250000 -0.135589 -0.281553
    vertex 1.500000 -0.135589 -0.281553
    vertex 2.250000 -0.103212 -0.294964
  endloop
endfacet
facet normal -0.000000 -0.382684 -0.923879
  outer loop
    vertex 2.250000 -0.103212 -0.294964
    vertex 1.500000 -0.135589 -0.281553
    vertex 1.500000 -0.103212 -0.294964
  endloop
endfacet
facet normal -0.000000 -0.276835 -0.960917
  outer loop
    vertex 2.250000 -0.103212 -0.294964
    vertex 1.500000 -0.103212 -0.294964
    vertex 2.250000 -0.069538 -0.304665
  endloop
endfacet
facet normal -0.000000 -0.276835 -0.960917
  outer loop
    vertex 2.250000 -0.069538 -0.304665
    vertex 1.500000 -0.103212 -0.294964
    vertex 1.500000 -0.069538 -0.304665
  endloop
endfacet
facet normal -0.000000 -0.167507 -0.985871
  outer loop
    vertex 2.250000 -0.069538 -0.304665
    vertex 1.500000 -0.069538 -0.304665
    vertex 2.250000 -0.034989 -0.310535
  endloop
endfacet
facet normal -0.000000 -0.167507 -0.985871
  outer loop
    vertex 2.250000 -0.034989 -0.310535
    vertex 1.500000 -0.069538 -0.304665
    vertex 1.500000 -0.034989 -0.310535
  endloop
endfacet
facet normal -0.000000 -0.056070 -0.998427
  outer loop
    vertex 2.250000 -0.034989 -0.310535
    vertex 1.500000 -0.034989 -0.310535
    vertex 2.250000 0.000000 -0.312500
  endloop
endfacet
facet normal -0.000000 -0.056070 -0.998427
  outer loop
    vertex 2.250000 0.000000 -0.312500
    vertex 1.500000 -0.034989 -0.310535
    vertex 1.500000 0.000000 -0.312500
  endloop
endfacet
facet normal 0.000000 0.056070 -0.998427
  outer loop
    vertex 2.250000 0.000000 -0.312500
    vertex 1.500000 0.000000 -0.312500
    vertex 2.250000 0.034989 -0.310535
  endloop
endfacet
facet normal 0.000000 0.056070 -0.998427
  outer loop
    vertex 2.250000 0.034989 -0.310535
    vertex 1.500000 0.000000 -0.312500
    vertex 1.500000 0.034989 -0.310535
  endloop
endfacet
facet normal 0.000000 0.167507 -0.985871
  outer loop
    vertex 2.250000 0.034989 -0.310535
    vertex 1.500000 0.034989 -0.310535
    vertex 2.250000 0.069538 -0.304665
  endloop
endfacet
facet normal 0.000000 0.167507 -0.985871
  outer loop
    vertex 2.250000 0.069538 -0.304665
    vertex 1.500000 0.034989 -0.310535
    vertex 1.500000 0.069538 -0.304665
  endloop
endfacet
facet normal 0.000000 0.276835 -0.960917
  outer loop
    vertex 2.250000 0.069538 -0.304665
    vertex 1.500000 0.069538 -0.304665
    vertex 2.250000 0.103212 -0.294964
  endloop
endfacet
facet normal 0.000000 0.276835 -0.960917
  outer loop
    vertex 2.250000 0.103212 -0.294964
    vertex 1.500000 0.069538 -0.304665
    vertex 1.500000 0.103212 -0.294964
  endloop
endfacet
facet normal 0.000000 0.382684 -0.923879
  outer loop
    vertex 2.250000 0.103212 -0.294964
    vertex 1.500000 0.103212 -0.294964
    vertex 2.250000 0.135589 -0.281553
  endloop
endfacet
facet normal 0.000000 0.382684 -0.923879
  outer loop
    vertex 2.250000 0.135589 -0.281553
    vertex 1.500000 0.103212 -0.294964
    vertex 1.500000 0.135589 -0.281553
  endloop
endfacet
facet normal 0.000000 0.483719 -0.875224
  outer loop
    vertex 2.250000 0.135589 -0.281553
    vertex 1.500000 0.135589 -0.281553
    vertex 2.250000 0.166260 -0.264601
  endloop
endfacet
facet normal 0.000000 0.483719 -0.875224
  outer loop
    vertex 2.250000 0.166260 -0.264601
    vertex 1.500000 0.135589 -0.281553
    vertex 1.500000 0.166260 -0.264601
  endloop
endfacet
facet normal 0.000000 0.578671 -0.815561
  outer loop
    vertex 2.250000 0.166260 -0.264601
    vertex 1.500000 0.166260 -0.264601
    vertex 2.250000 0.194841 -0.244322
  endloop
endfacet
facet normal 0.000000 0.578671 -0.815561
  outer loop
    vertex 2.250000 0.194841 -0.244322
    vertex 1.500000 0.166260 -0.264601
    vertex 1.500000 0.194841 -0.244322
  endloop
endfacet
facet normal 0.000000 0.666347 -0.745642
  outer loop
    vertex 2.250000 0.194841 -0.244322
    vertex 1.500000 0.194841 -0.244322
    vertex 2.250000 0.220971 -0.220971
  endloop
endfacet
facet normal 0.000000 0.666347 -0.745642
  outer loop
    vertex 2.250000 0.220971 -0.220971
    vertex 1.500000 0.194841 -0.244322
    vertex 1.500000 0.220971 -0.220971
  endloop
endfacet
facet normal 0.000000 0.745642 -0.666347
  outer loop
    vertex 2.250000 0.220971 -0.220971
    vertex 1.500000 0.220971 -0.220971
    vertex 2.250000 0.244322 -0.194841
  endloop
endfacet
facet normal 0.000000 0.745642 -0.666347
  outer loop
    vertex 2.250000 0.244322 -0.194841
    vertex 1.500000 0.220971 -0.220971
    vertex 1.500000 0.244322 -0.194841
  endloop
endfacet
facet normal 0.000000 0.815561 -0.578671
  outer loop
    vertex 2.250000 0.244322 -0.194841
    vertex 1.500000 0.244322 -0.194841
    vertex 2.250000 0.264601 -0.166260
  endloop
endfacet
facet normal 0.000000 0.815561 -0.578671
  outer loop
    vertex 2.250000 0.264601 -0.166260
    vertex 1.500000 0.244322 -0.194841
    vertex 1.500000 0.264601 -0.166260
  endloop
endfacet
facet normal 0.000000 0.875224 -0.483719
  outer loop
    vertex 2.250000 0.264601 -0.166260
    vertex 1.500000 0.264601 -0.166260
    vertex 2.250000 0.281553 -0.135589
  endloop
endfacet
facet normal 0.000000 0.875224 -0.483719
  outer loop
    vertex 2.250000 0.281553 -0.135589
    vertex 1.500000 0.264601 -0.166260
    vertex 1.500000 0.281553 -0.135589
  endloop
endfacet
facet normal 0.000000 0.923879 -0.382684
  outer loop
    vertex 2.250000 0.281553 -0.135589
    vertex 1.500000 0.281553 -0.135589
    vertex 2.250000 0.294964 -0.103212
  endloop
endfacet
facet normal 0.000000 0.923879 -0.382684
  outer loop
    vertex 2.250000 0.294964 -0.103212
    vertex 1.500000 0.281553 -0.135589
    vertex 1.500000 0.294964 -0.103212
  endloop
endfacet
facet normal 0.000000 0.000000 -1.000000
  outer loop
    vertex 0.000000 0.298106 0.093750
    vertex 3.000000 0.298106 0.093750
    vertex 0.000000 0.218750 0.093750
  endloop
endfacet
facet normal 0.000000 0.000000 -1.000000
  outer loop
    vertex 0.000000 0.218750 0.093750
    vertex 3.000000 0.298106 0.093750
    vertex 3.000000 0.218750 0.093750
  endloop
endfacet
facet normal 1.000000 0.000000 0.000000
  outer loop
    vertex 3.000000 0.298106 0.093750
    vertex 3.000000 0.285855 0.126267
    vertex 3.000000 0.218750 0.093750
  endloop
endfacet
facet normal 1.000000 0.000000 0.000000
  outer loop
    vertex 3.000000 0.218750 0.093750
    vertex 3.000000 0.285855 0.126267
    vertex 3.000000 0.270069 0.157222
  endloop
endfacet
facet normal 1.000000 0.000000 0.000000
  outer loop
    vertex 3.000000 0.218750 0.093750
    vertex 3.000000 0.270069 0.157222
    vertex 3.000000 0.250945 0.186234
  endloop
endfacet
facet normal 1.000000 0.000000 0.000000
  outer loop
    vertex 3.000000 0.250945 0.186234
    vertex 3.000000 0.228717 0.212943
    vertex 3.000000 0.218750 0.093750
  endloop
endfacet
facet normal 1.000000 0.000000 -0.000000
  outer loop
    vertex 3.000000 0.218750 0.093750
    vertex 3.000000 0.228717 0.212943
    vertex 3.000000 0.203662 0.237019
  endloop
endfacet
facet normal 1.000000 0.000000 0.000000
  outer loop
    vertex 3.000000 0.218750 0.093750
    vertex 3.000000 0.203662 0.237019
    vertex 3.000000 0.176089 0.258165
  endloop
endfacet
facet normal 1.000000 0.000000 0.000000
  outer loop
    vertex 3.000000 0.176089 0.258165
    vertex 3.000000 0.146339 0.276118
    vertex 3.000000 0.218750 0.093750
  endloop
endfacet
facet normal 1.000000 0.000000 0.000000
  outer loop
    vertex 3.000000 0.218750 0.093750
    vertex 3.000000 0.146339 0.276118
    vertex 3.000000 0.114779 0.290658
  endloop
endfacet
facet normal 1.000000 0.000000 0.000000
  outer loop
    vertex 3.000000 0.218750 0.093750
    vertex 3.000000 0.114779 0.290658
    vertex 3.000000 0.081800 0.301604
  endloop
endfacet
facet normal 1.000000 0.000000 0.000000
  outer loop
    vertex 3.000000 0.081800 0.301604
    vertex 3.000000 0.047810 0.308821
    vertex 3.000000 0.218750 0.093750
  endloop
endfacet
facet normal 1.000000 0.000000 0.000000
  outer loop
    vertex 3.000000 0.218750 0.093750
    vertex 3.000000 0.047810 0.308821
    vertex 3.000000 0.013228 0.312220
  endloop
endfacet
facet normal 1.000000 0.000000 0.000000
  outer loop
    vertex 3.000000 0.218750 0.093750
    vertex 3.000000 0.013228 0.312220
    vertex 3.000000 -0.021517 0.311758
  endloop
endfacet
facet normal 1.000000 0.000000 0.000000
  outer loop
    vertex 3.000000 -0.021517 0.311758
    vertex 3.000000 -0.055996 0.307442
    vertex 3.000000 0.218750 0.093750
  endloop
endfacet
facet normal 1.000000 0.000000 0.000000
  outer loop
    vertex 3.000000 0.218750 0.093750
    vertex 3.000000 -0.055996 0.307442
    vertex 3.000000 -0.089782 0.299325
  endloop
endfacet
facet normal 1.000000 0.000000 0.000000
  outer loop
    vertex 3.000000 0.218750 0.093750
    vertex 3.000000 -0.089782 0.299325
    vertex 3.000000 -0.122459 0.287507
  endloop
endfacet
facet normal 1.000000 0.000000 0.000000
  outer loop
    vertex 3.000000 -0.122459 0.287507
    vertex 3.000000 -0.153621 0.272134
    vertex 3.000000 0.218750 0.093750
  endloop
endfacet
facet normal 1.000000 0.000000 0.000000
  outer loop
    vertex 3.000000 0.218750 0.093750
    vertex 3.000000 -0.153621 0.272134
    vertex 3.000000 -0.153621 -0.272134
  endloop
endfacet
facet normal 1.000000 0.000000 0.000000
  outer loop
    vertex 3.000000 0.218750 0.093750
    vertex 3.000000 -0.153621 -0.272134
    vertex 3.000000 -0.122459 -0.287507
  endloop
endfacet
facet normal 1.000000 0.000000 -0.000000
  outer loop
    vertex 3.000000 -0.153621 -0.272134
    vertex 3.000000 -0.153621 0.272134
    vertex 3.000000 -0.182884 -0.253396
  endloop
endfacet
facet normal 1.000000 0.000000 0.000000
  outer loop
    vertex 3.000000 -0.182884 -0.253396
    vertex 3.000000 -0.153621 0.272134
    vertex 3.000000 -0.182884 0.253396
  endloop
endfacet
facet normal 1.000000 0.000000 -0.000000
  outer loop
    vertex 3.000000 -0.182884 -0.253396
    vertex 3.000000 -0.182884 0.253396
    vertex 3.000000 -0.209886 -0.231526
  endloop
endfacet
facet normal 1.000000 0.000000 0.000000
  outer loop
    vertex 3.000000 -0.209886 -0.231526
    vertex 3.000000 -0.182884 0.253396
    vertex 3.000000 -0.209886 0.231526
  endloop
endfacet
facet normal 1.000000 0.000000 -0.000000
  outer loop
    vertex 3.000000 -0.209886 -0.231526
    vertex 3.000000 -0.209886 0.231526
    vertex 3.000000 -0.234293 -0.206792
  endloop
endfacet
facet normal 1.000000 0.000000 0.000000
  outer loop
    vertex 3.000000 -0.234293 -0.206792
    vertex 3.000000 -0.209886 0.231526
    vertex 3.000000 -0.234293 0.206792
  endloop
endfacet
facet normal 1.000000 0.000000 -0.000000
  outer loop
    vertex 3.000000 -0.234293 -0.206792
    vertex 3.000000 -0.234293 0.206792
    vertex 3.000000 -0.255803 -0.179502
  endloop
endfacet
facet normal 1.000000 0.000000 0.000000
  outer loop
    vertex 3.000000 -0.255803 -0.179502
    vertex 3.000000 -0.234293 0.206792
    vertex 3.000000 -0.255803 0.179502
  endloop
endfacet
facet normal 1.000000 0.000000 -0.000000
  outer loop
    vertex 3.000000 -0.255803 -0.179502
    vertex 3.000000 -0.255803 0.179502
    vertex 3.000000 -0.274150 -0.149993
  endloop
endfacet
facet normal 1.000000 0.000000 0.000000
  outer loop
    vertex 3.000000 -0.274150 -0.149993
    vertex 3.000000 -0.255803 0.179502
    vertex 3.000000 -0.274150 0.149993
  endloop
endfacet
facet normal 1.000000 0.000000 -0.000000
  outer loop
    vertex 3.000000 -0.274150 -0.149993
    vertex 3.000000 -0.274150 0.149993
    vertex 3.000000 -0.289108 -0.118629
  endloop
endfacet
facet normal 1.000000 0.000000 0.000000
  outer loop
    vertex 3.000000 -0.289108 -0.118629
    vertex 3.000000 -0.274150 0.149993
    vertex 3.000000 -0.289108 0.118629
  endloop
endfacet
facet normal 1.000000 0.000000 -0.000000
  outer loop
    vertex 3.000000 -0.289108 -0.118629
    vertex 3.000000 -0.289108 0.118629
    vertex 3.000000 -0.300491 -0.085799
  endloop
endfacet
facet normal 1.000000 0.000000 0.000000
  outer loop
    vertex 3.000000 -0.300491 -0.085799
    vertex 3.000000 -0.289108 0.118629
    vertex 3.000000 -0.300491 0.085799
  endloop
endfacet
facet normal 1.000000 0.000000 -0.000000
  outer loop
    vertex 3.000000 -0.300491 -0.085799
    vertex 3.000000 -0.300491 0.085799
    vertex 3.000000 -0.308159 -0.051907
  endloop
endfacet
facet normal 1.000000 0.000000 0.000000
  outer loop
    vertex 3.000000 -0.308159 -0.051907
    vertex 3.000000 -0.300491 0.085799
    vertex 3.000000 -0.308159 0.051907
  endloop
endfacet
facet normal 1.000000 0.000000 -0.000000
  outer loop
    vertex 3.000000 -0.308159 -0.051907
    vertex 3.000000 -0.308159 0.051907
    vertex 3.000000 -0.312017 -0.017374
  endloop
endfacet
facet normal 1.000000 0.000000 0.000000
  outer loop
    vertex 3.000000 -0.312017 -0.017374
    vertex 3.000000 -0.308159 0.051907
    vertex 3.000000 -0.312017 0.017374
  endloop
endfacet
facet normal 1.000000 0.000000 0.000000
  outer loop
    vertex 3.000000 0.218750 0.093750
    vertex 3.000000 -0.122459 -0.287507
    vertex 3.000000 0.218750 -0.093750
  endloop
endfacet
facet normal 1.000000 0.000000 0.000000
  outer loop
    vertex 3.000000 0.218750 -0.093750
    vertex 3.000000 -0.122459 -0.287507
    vertex 3.000000 -0.089782 -0.299325
  endloop
endfacet
facet normal 1.000000 0.000000 0.000000
  outer loop
    vertex 3.000000 0.218750 -0.093750
    vertex 3.000000 -0.089782 -0.299325
    vertex 3.000000 -0.055996 -0.307442
  endloop
endfacet
facet normal 1.000000 -0.000000 0.000000
  outer loop
    vertex 3.000000 -0.055996 -0.307442
    vertex 3.000000 -0.021517 -0.311758
    vertex 3.000000 0.218750 -0.093750
  endloop
endfacet
facet normal 1.000000 0.000000 0.000000
  outer loop
    vertex 3.000000 0.218750 -0.093750
    vertex 3.000000 -0.021517 -0.311758
    vertex 3.000000 0.013228 -0.312220
  endloop
endfacet
facet normal 1.000000 0.000000 0.000000
  outer loop
    vertex 3.000000 0.218750 -0.093750
    vertex 3.000000 0.013228 -0.312220
    vertex 3.000000 0.047810 -0.308821
  endloop
endfacet
facet normal 1.000000 0.000000 0.000000
  outer loop
    vertex 3.000000 0.047810 -0.308821
    vertex 3.000000 0.081800 -0.301604
    vertex 3.000000 0.218750 -0.093750
  endloop
endfacet
facet normal 1.000000 0.000000 0.000000
  outer loop
    vertex 3.000000 0.218750 -0.093750
    vertex 3.000000 0.081800 -0.301604
    vertex 3.000000 0.114779 -0.290658
  endloop
endfacet
facet normal 1.000000 0.000000 0.000000
  outer loop
    vertex 3.000000 0.218750 -0.093750
    vertex 3.000000 0.114779 -0.290658
    vertex 3.000000 0.146339 -0.276118
  endloop
endfacet
facet normal 1.000000 0.000000 0.000000
  outer loop
    vertex 3.000000 0.146339 -0.276118
    vertex 3.000000 0.176089 -0.258165
    vertex 3.000000 0.218750 -0.093750
  endloop
endfacet
facet normal 1.000000 0.000000 0.000000
  outer loop
    vertex 3.000000 0.218750 -0.093750
    vertex 3.000000 0.176089 -0.258165
    vertex 3.000000 0.203662 -0.237019
  endloop
endfacet
facet normal 1.000000 0.000000 0.000000
  outer loop
    vertex 3.000000 0.218750 -0.093750
    vertex 3.000000 0.203662 -0.237019
    vertex 3.000000 0.228717 -0.212943
  endloop
endfacet
facet normal 1.000000 0.000000 -0.000000
  outer loop
    vertex 3.000000 0.228717 -0.212943
    vertex 3.000000 0.250945 -0.186234
    vertex 3.000000 0.218750 -0.093750
  endloop
endfacet
facet normal 1.000000 0.000000 0.000000
  outer loop
    vertex 3.000000 0.218750 -0.093750
    vertex 3.000000 0.250945 -0.186234
    vertex 3.000000 0.270069 -0.157222
  endloop
endfacet
facet normal 1.000000 0.000000 0.000000
  outer loop
    vertex 3.000000 0.218750 -0.093750
    vertex 3.000000 0.270069 -0.157222
    vertex 3.000000 0.285855 -0.126267
  endloop
endfacet
facet normal 1.000000 0.000000 -0.000000
  outer loop
    vertex 3.000000 0.285855 -0.126267
    vertex 3.000000 0.298106 -0.093750
    vertex 3.000000 0.218750 -0.093750
  endloop
endfacet
facet normal -1.000000 0.000000 0.000000
  outer loop
    vertex 0.000000 0.298106 0.093750
    vertex 0.000000 0.218750 0.093750
    vertex 0.000000 0.285855 0.126267
  endloop
endfacet
facet normal -1.000000 -0.000000 0.000000
  outer loop
    vertex 0.000000 0.285855 0.126267
    vertex 0.000000 0.218750 0.093750
    vertex 0.000000 0.270069 0.157222
  endloop
endfacet
facet normal -1.000000 -0.000000 0.000000
  outer loop
    vertex 0.000000 0.270069 0.157222
    vertex 0.000000 0.218750 0.093750
    vertex 0.000000 0.250945 0.186234
  endloop
endfacet
facet normal -1.000000 -0.000000 0.000000
  outer loop
    vertex 0.000000 0.250945 0.186234
    vertex 0.000000 0.218750 0.093750
    vertex 0.000000 0.228717 0.212943
  endloop
endfacet
facet normal -1.000000 -0.000000 0.000000
  outer loop
    vertex 0.000000 0.228717 0.212943
    vertex 0.000000 0.218750 0.093750
    vertex 0.000000 0.203662 0.237019
  endloop
endfacet
facet normal -1.000000 -0.000000 -0.000000
  outer loop
    vertex 0.000000 0.203662 0.237019
    vertex 0.000000 0.218750 0.093750
    vertex 0.000000 0.176089 0.258165
  endloop
endfacet
facet normal -1.000000 -0.000000 -0.000000
  outer loop
    vertex 0.000000 0.176089 0.258165
    vertex 0.000000 0.218750 0.093750
    vertex 0.000000 0.146339 0.276118
  endloop
endfacet
facet normal -1.000000 -0.000000 -0.000000
  outer loop
    vertex 0.000000 0.146339 0.276118
    vertex 0.000000 0.218750 0.093750
    vertex 0.000000 0.114779 0.290658
  endloop
endfacet
facet normal -1.000000 -0.000000 -0.000000
  outer loop
    vertex 0.000000 0.114779 0.290658
    vertex 0.000000 0.218750 0.093750
    vertex 0.000000 0.081800 0.301604
  endloop
endfacet
facet normal -1.000000 -0.000000 -0.000000
  outer loop
    vertex 0.000000 0.081800 0.301604
    vertex 0.000000 0.218750 0.093750
    vertex 0.000000 0.047810 0.308821
  endloop
endfacet
facet normal -1.000000 -0.000000 -0.000000
  outer loop
    vertex 0.000000 0.047810 0.308821
    vertex 0.000000 0.218750 0.093750
    vertex 0.000000 0.013228 0.312220
  endloop
endfacet
facet normal -1.000000 0.000000 -0.000000
  outer loop
    vertex 0.000000 0.013228 0.312220
    vertex 0.000000 0.218750 0.093750
    vertex 0.000000 -0.021517 0.311758
  endloop
endfacet
facet normal -1.000000 0.000000 -0.000000
  outer loop
    vertex 0.000000 -0.021517 0.311758
    vertex 0.000000 0.218750 0.093750
    vertex 0.000000 -0.055996 0.307442
  endloop
endfacet
facet normal -1.000000 0.000000 -0.000000
  outer loop
    vertex 0.000000 -0.055996 0.307442
    vertex 0.000000 0.218750 0.093750
    vertex 0.000000 -0.089782 0.299325
  endloop
endfacet
facet normal -1.000000 0.000000 -0.000000
  outer loop
    vertex 0.000000 -0.089782 0.299325
    vertex 0.000000 0.218750 0.093750
    vertex 0.000000 -0.122459 0.287507
  endloop
endfacet
facet normal -1.000000 0.000000 0.000000
  outer loop
    vertex 0.000000 -0.122459 0.287507
    vertex 0.000000 0.218750 0.093750
    vertex 0.000000 0.218750 -0.093750
  endloop
endfacet
facet normal -1.000000 0.000000 -0.000000
  outer loop
    vertex 0.000000 -0.122459 0.287507
    vertex 0.000000 0.218750 -0.093750
    vertex 0.000000 -0.153621 0.272134
  endloop
endfacet
facet normal -1.000000 0.000000 0.000000
  outer loop
    vertex 0.000000 -0.153621 0.272134
    vertex 0.000000 0.218750 -0.093750
    vertex 0.000000 -0.153621 -0.272134
  endloop
endfacet
facet normal -1.000000 0.000000 -0.000000
  outer loop
    vertex 0.000000 -0.153621 0.272134
    vertex 0.000000 -0.153621 -0.272134
    vertex 0.000000 -0.182884 0.253396
  endloop
endfacet
facet normal -1.000000 0.000000 0.000000
  outer loop
    vertex 0.000000 -0.182884 0.253396
    vertex 0.000000 -0.153621 -0.272134
    vertex 0.000000 -0.182884 -0.253396
  endloop
endfacet
facet normal -1.000000 0.000000 -0.000000
  outer loop
    vertex 0.000000 -0.182884 0.253396
    vertex 0.000000 -0.182884 -0.253396
    vertex 0.000000 -0.209886 0.231526
  endloop
endfacet
facet normal -1.000000 0.000000 0.000000
  outer loop
    vertex 0.000000 -0.209886 0.231526
    vertex 0.000000 -0.182884 -0.253396
    vertex 0.000000 -0.209886 -0.231526
  endloop
endfacet
facet normal -1.000000 0.000000 -0.000000
  outer loop
    vertex 0.000000 -0.209886 0.231526
    vertex 0.000000 -0.209886 -0.231526
    vertex 0.000000 -0.234293 0.206792
  endloop
endfacet
facet normal -1.000000 0.000000 0.000000
  outer loop
    vertex 0.000000 -0.234293 0.206792
    vertex 0.000000 -0.209886 -0.231526
    vertex 0.000000 -0.234293 -0.206792
  endloop
endfacet
facet normal -1.000000 0.000000 -0.000000
  outer loop
    vertex 0.000000 -0.234293 0.206792
    vertex 0.000000 -0.234293 -0.206792
    vertex 0.000000 -0.255803 0.179502
  endloop
endfacet
facet normal -1.000000 0.000000 0.000000
  outer loop
    vertex 0.000000 -0.255803 0.179502
    vertex 0.000000 -0.234293 -0.206792
    vertex 0.000000 -0.255803 -0.179502
  endloop
endfacet
facet normal -1.000000 0.000000 -0.000000
  outer loop
    vertex 0.000000 -0.255803 0.179502
    vertex 0.000000 -0.255803 -0.179502
    vertex 0.000000 -0.274150 0.149993
  endloop
endfacet
facet normal -1.000000 0.000000 0.000000
  outer loop
    vertex 0.000000 -0.274150 0.149993
    vertex 0.000000 -0.255803 -0.179502
    vertex 0.000000 -0.274150 -0.149993
  endloop
endfacet
facet normal -1.000000 0.000000 -0.000000
  outer loop
    vertex 0.000000 -0.274150 0.149993
    vertex 0.000000 -0.274150 -0.149993
    vertex 0.000000 -0.289108 0.118629
  endloop
endfacet
facet normal -1.000000 0.000000 0.000000
  outer loop
    vertex 0.000000 -0.289108 0.118629
    vertex 0.000000 -0.274150 -0.149993
    vertex 0.000000 -0.289108 -0.118629
  endloop
endfacet
facet normal -1.000000 0.000000 -0.000000
  outer loop
    vertex 0.000000 -0.289108 0.118629
    vertex 0.000000 -0.289108 -0.118629
    vertex 0.000000 -0.300491 0.085799
  endloop
endfacet
facet normal -1.000000 0.000000 0.000000
  outer loop
    vertex 0.000000 -0.300491 0.085799
    vertex 0.000000 -0.289108 -0.118629
    vertex 0.000000 -0.300491 -0.085799
  endloop
endfacet
facet normal -1.000000 0.000000 -0.000000
  outer loop
    vertex 0.000000 -0.300491 0.085799
    vertex 0.000000 -0.300491 -0.085799
    vertex 0.000000 -0.308159 0.051907
  endloop
endfacet
facet normal -1.000000 0.000000 0.000000
  outer loop
    vertex 0.000000 -0.308159 0.051907
    vertex 0.000000 -0.300491 -0.085799
    vertex 0.000000 -0.308159 -0.051907
  endloop
endfacet
facet normal -1.000000 0.000000 -0.000000
  outer loop
    vertex 0.000000 -0.308159 0.051907
    vertex 0.000000 -0.308159 -0.051907
    vertex 0.000000 -0.312017 0.017374
  endloop
endfacet
facet normal -1.000000 0.000000 0.000000
  outer loop
    vertex 0.000000 -0.312017 0.017374
    vertex 0.000000 -0.308159 -0.051907
    vertex 0.000000 -0.312017 -0.017374
  endloop
endfacet
facet normal -1.000000 -0.000000 0.000000
  outer loop
    vertex 0.000000 0.298106 -0.093750
    vertex 0.000000 0.285855 -0.126267
    vertex 0.000000 0.218750 -0.093750
  endloop
endfacet
facet normal -1.000000 0.000000 0.000000
  outer loop
    vertex 0.000000 0.218750 -0.093750
    vertex 0.000000 0.285855 -0.126267
    vertex 0.000000 0.270069 -0.157222
  endloop
endfacet
facet normal -1.000000 0.000000 0.000000
  outer loop
    vertex 0.000000 0.218750 -0.093750
    vertex 0.000000 0.270069 -0.157222
    vertex 0.000000 0.250945 -0.186234
  endloop
endfacet
facet normal -1.000000 -0.000000 0.000000
  outer loop
    vertex 0.000000 0.250945 -0.186234
    vertex 0.000000 0.228717 -0.212943
    vertex 0.000000 0.218750 -0.093750
  endloop
endfacet
facet normal -1.000000 0.000000 -0.000000
  outer loop
    vertex 0.000000 0.218750 -0.093750
    vertex 0.000000 0.228717 -0.212943
    vertex 0.000000 0.203662 -0.237019
  endloop
endfacet
facet normal -1.000000 0.000000 0.000000
  outer loop
    vertex 0.000000 0.218750 -0.093750
    vertex 0.000000 0.203662 -0.237019
    vertex 0.000000 0.176089 -0.258165
  endloop
endfacet
facet normal -1.000000 -0.000000 0.000000
  outer loop
    vertex 0.000000 0.176089 -0.258165
    vertex 0.000000 0.146339 -0.276118
    vertex 0.000000 0.218750 -0.093750
  endloop
endfacet
facet normal -1.000000 0.000000 0.000000
  outer loop
    vertex 0.000000 0.218750 -0.093750
    vertex 0.000000 0.146339 -0.276118
    vertex 0.000000 0.114779 -0.290658
  endloop
endfacet
facet normal -1.000000 0.000000 0.000000
  outer loop
    vertex 0.000000 0.218750 -0.093750
    vertex 0.000000 0.114779 -0.290658
    vertex 0.000000 0.081800 -0.301604
  endloop
endfacet
facet normal -1.000000 -0.000000 0.000000
  outer loop
    vertex 0.000000 0.081800 -0.301604
    vertex 0.000000 0.047810 -0.308821
    vertex 0.000000 0.218750 -0.093750
  endloop
endfacet
facet normal -1.000000 0.000000 0.000000
  outer loop
    vertex 0.000000 0.218750 -0.093750
    vertex 0.000000 0.047810 -0.308821
    vertex 0.000000 0.013228 -0.312220
  endloop
endfacet
facet normal -1.000000 0.000000 0.000000
  outer loop
    vertex 0.000000 0.218750 -0.093750
    vertex 0.000000 0.013228 -0.312220
    vertex 0.000000 -0.021517 -0.311758
  endloop
endfacet
facet normal -1.000000 0.000000 0.000000
  outer loop
    vertex 0.000000 -0.021517 -0.311758
    vertex 0.000000 -0.055996 -0.307442
    vertex 0.000000 0.218750 -0.093750
  endloop
endfacet
facet normal -1.000000 0.000000 0.000000
  outer loop
    vertex 0.000000 0.218750 -0.093750
    vertex 0.000000 -0.055996 -0.307442
    vertex 0.000000 -0.089782 -0.299325
  endloop
endfacet
facet normal -1.000000 0.000000 0.000000
  outer loop
    vertex 0.000000 0.218750 -0.093750
    vertex 0.000000 -0.089782 -0.299325
    vertex 0.000000 -0.122459 -0.287507
  endloop
endfacet
facet normal -1.000000 0.000000 0.000000
  outer loop
    vertex 0.000000 -0.122459 -0.287507
    vertex 0.000000 -0.153621 -0.272134
    vertex 0.000000 0.218750 -0.093750
  endloop
endfacet
endsolid 3e1aeb28-46dc-4878-8717-baaa50f449f8-ascii.stl
