solid 4e68a32c-dae1-49d2-9ba8-145cafc3bfc5-ascii.stl
facet normal 0.000000 1.000000 0.000000
  outer loop
    vertex 0.000000 0.906250 -0.312500
    vertex 0.000000 0.906250 0.312500
    vertex 3.000000 0.906250 -0.312500
  endloop
endfacet
facet normal 0.000000 1.000000 -0.000000
  outer loop
    vertex 3.000000 0.906250 -0.312500
    vertex 0.000000 0.906250 0.312500
    vertex 3.000000 0.906250 0.312500
  endloop
endfacet
facet normal -0.000000 0.000000 1.000000
  outer loop
    vertex 0.000000 1.178005 -0.312500
    vertex 0.000000 0.906250 -0.312500
    vertex 3.000000 1.178005 -0.312500
  endloop
endfacet
facet normal 0.000000 0.000000 1.000000
  outer loop
    vertex 3.000000 1.178005 -0.312500
    vertex 0.000000 0.906250 -0.312500
    vertex 3.000000 0.906250 -0.312500
  endloop
endfacet
facet normal 0.000000 0.964766 0.263111
  outer loop
    vertex 3.000000 1.178005 0.312500
    vertex 0.000000 1.178005 0.312500
    vertex 1.500000 1.173555 0.328815
  endloop
endfacet
facet normal -0.000309 0.957202 0.289419
  outer loop
    vertex 1.500000 1.173555 0.328815
    vertex 0.000000 1.178005 0.312500
    vertex 0.000000 1.153803 0.392543
  endloop
endfacet
facet normal 0.000301 0.953145 0.302515
  outer loop
    vertex 1.500000 1.173555 0.328815
    vertex 0.000000 1.153803 0.392543
    vertex 1.500000 1.148381 0.408135
  endloop
endfacet
facet normal -0.000303 0.935103 0.354374
  outer loop
    vertex 1.500000 1.148381 0.408135
    vertex 0.000000 1.153803 0.392543
    vertex 0.000000 1.124170 0.470737
  endloop
endfacet
facet normal 0.000296 0.930278 0.366855
  outer loop
    vertex 1.500000 1.148381 0.408135
    vertex 0.000000 1.124170 0.470737
    vertex 1.500000 1.117851 0.485551
  endloop
endfacet
facet normal -0.000297 0.908602 0.417662
  outer loop
    vertex 1.500000 1.117851 0.485551
    vertex 0.000000 1.124170 0.470737
    vertex 0.000000 1.089244 0.546716
  endloop
endfacet
facet normal 0.000290 0.903075 0.429483
  outer loop
    vertex 1.500000 1.117851 0.485551
    vertex 0.000000 1.089244 0.546716
    vertex 1.500000 1.082110 0.560704
  endloop
endfacet
facet normal -0.000292 0.877823 0.478984
  outer loop
    vertex 1.500000 1.082110 0.560704
    vertex 0.000000 1.089244 0.546716
    vertex 0.000000 1.049191 0.620121
  endloop
endfacet
facet normal 0.000284 0.871660 0.490111
  outer loop
    vertex 1.500000 1.082110 0.560704
    vertex 0.000000 1.049191 0.620121
    vertex 1.500000 1.041324 0.633243
  endloop
endfacet
facet normal -0.000286 0.842912 0.538051
  outer loop
    vertex 1.500000 1.041324 0.633243
    vertex 0.000000 1.049191 0.620121
    vertex 0.000000 1.004199 0.690606
  endloop
endfacet
facet normal 0.000278 0.836182 0.548452
  outer loop
    vertex 1.500000 1.041324 0.633243
    vertex 0.000000 1.004199 0.690606
    vertex 1.500000 0.995682 0.702829
  endloop
endfacet
facet normal -0.000280 0.804033 0.594584
  outer loop
    vertex 1.500000 0.995682 0.702829
    vertex 0.000000 1.004199 0.690606
    vertex 0.000000 0.954479 0.757840
  endloop
endfacet
facet normal 0.000272 0.796805 0.604236
  outer loop
    vertex 1.500000 0.995682 0.702829
    vertex 0.000000 0.954479 0.757840
    vertex 1.500000 0.945398 0.769138
  endloop
endfacet
facet normal -0.000274 0.761369 0.648319
  outer loop
    vertex 1.500000 0.945398 0.769138
    vertex 0.000000 0.954479 0.757840
    vertex 0.000000 0.900265 0.821507
  endloop
endfacet
facet normal 0.000266 0.753713 0.657204
  outer loop
    vertex 1.500000 0.945398 0.769138
    vertex 0.000000 0.900265 0.821507
    vertex 1.500000 0.890706 0.831862
  endloop
endfacet
facet normal -0.000268 0.715120 0.699002
  outer loop
    vertex 1.500000 0.890706 0.831862
    vertex 0.000000 0.900265 0.821507
    vertex 0.000000 0.841814 0.881306
  endloop
endfacet
facet normal 0.000260 0.707107 0.707107
  outer loop
    vertex 1.500000 0.890706 0.831862
    vertex 0.000000 0.841814 0.881306
    vertex 1.500000 0.831862 0.890706
  endloop
endfacet
facet normal -0.000262 0.665505 0.746393
  outer loop
    vertex 1.500000 0.831862 0.890706
    vertex 0.000000 0.841814 0.881306
    vertex 0.000000 0.779399 0.936957
  endloop
endfacet
facet normal 0.000254 0.657204 0.753713
  outer loop
    vertex 1.500000 0.831862 0.890706
    vertex 0.000000 0.779399 0.936957
    vertex 1.500000 0.769138 0.945398
  endloop
endfacet
facet normal -0.000256 0.612757 0.790272
  outer loop
    vertex 1.500000 0.769138 0.945398
    vertex 0.000000 0.779399 0.936957
    vertex 0.000000 0.713316 0.988196
  endloop
endfacet
facet normal 0.000248 0.604236 0.796805
  outer loop
    vertex 1.500000 0.769138 0.945398
    vertex 0.000000 0.713316 0.988196
    vertex 1.500000 0.702829 0.995682
  endloop
endfacet
facet normal -0.000249 0.557124 0.830429
  outer loop
    vertex 1.500000 0.702829 0.995682
    vertex 0.000000 0.713316 0.988196
    vertex 0.000000 0.643874 1.034784
  endloop
endfacet
facet normal 0.000242 0.548452 0.836182
  outer loop
    vertex 1.500000 0.702829 0.995682
    vertex 0.000000 0.643874 1.034784
    vertex 1.500000 0.633243 1.041324
  endloop
endfacet
facet normal -0.000243 0.498867 0.866678
  outer loop
    vertex 1.500000 0.633243 1.041324
    vertex 0.000000 0.643874 1.034784
    vertex 0.000000 0.571401 1.076500
  endloop
endfacet
facet normal 0.000235 0.490111 0.871660
  outer loop
    vertex 1.500000 0.633243 1.041324
    vertex 0.000000 0.571401 1.076500
    vertex 1.500000 0.560704 1.082110
  endloop
endfacet
facet normal -0.000236 0.438264 0.898846
  outer loop
    vertex 1.500000 0.560704 1.082110
    vertex 0.000000 0.571401 1.076500
    vertex 0.000000 0.496239 1.113148
  endloop
endfacet
facet normal 0.000228 0.429483 0.903075
  outer loop
    vertex 1.500000 0.560704 1.082110
    vertex 0.000000 0.496239 1.113148
    vertex 1.500000 0.485551 1.117851
  endloop
endfacet
facet normal -0.000230 0.375597 0.926783
  outer loop
    vertex 1.500000 0.485551 1.117851
    vertex 0.000000 0.496239 1.113148
    vertex 0.000000 0.418740 1.144556
  endloop
endfacet
facet normal 0.000222 0.366855 0.930278
  outer loop
    vertex 1.500000 0.485551 1.117851
    vertex 0.000000 0.418740 1.144556
    vertex 1.500000 0.408135 1.148381
  endloop
endfacet
facet normal -0.000223 0.311161 0.950357
  outer loop
    vertex 1.500000 0.408135 1.148381
    vertex 0.000000 0.418740 1.144556
    vertex 0.000000 0.339270 1.170576
  endloop
endfacet
facet normal 0.000215 0.302515 0.953145
  outer loop
    vertex 1.500000 0.408135 1.148381
    vertex 0.000000 0.339270 1.170576
    vertex 1.500000 0.328815 1.173555
  endloop
endfacet
facet normal -0.000216 0.245262 0.969457
  outer loop
    vertex 1.500000 0.328815 1.173555
    vertex 0.000000 0.339270 1.170576
    vertex 0.000000 0.258202 1.191085
  endloop
endfacet
facet normal 0.000208 0.236764 0.971567
  outer loop
    vertex 1.500000 0.328815 1.173555
    vertex 0.000000 0.258202 1.191085
    vertex 1.500000 0.247962 1.193259
  endloop
endfacet
facet normal -0.000209 0.178207 0.983993
  outer loop
    vertex 1.500000 0.247962 1.193259
    vertex 0.000000 0.258202 1.191085
    vertex 0.000000 0.175920 1.205987
  endloop
endfacet
facet normal 0.000201 0.169910 0.985459
  outer loop
    vertex 1.500000 0.247962 1.193259
    vertex 0.000000 0.175920 1.205987
    vertex 1.500000 0.165953 1.207399
  endloop
endfacet
facet normal -0.000203 0.110312 0.993897
  outer loop
    vertex 1.500000 0.165953 1.207399
    vertex 0.000000 0.175920 1.205987
    vertex 0.000000 0.092808 1.215211
  endloop
endfacet
facet normal 0.000194 0.102263 0.994757
  outer loop
    vertex 1.500000 0.165953 1.207399
    vertex 0.000000 0.092808 1.215211
    vertex 1.500000 0.083170 1.215909
  endloop
endfacet
facet normal -0.000195 0.041899 0.999122
  outer loop
    vertex 1.500000 0.083170 1.215909
    vertex 0.000000 0.092808 1.215211
    vertex 0.000000 0.009261 1.218715
  endloop
endfacet
facet normal 0.000187 0.034142 0.999417
  outer loop
    vertex 1.500000 0.083170 1.215909
    vertex 0.000000 0.009261 1.218715
    vertex 1.500000 0.000000 1.218750
  endloop
endfacet
facet normal -0.000188 -0.026711 0.999643
  outer loop
    vertex 1.500000 0.000000 1.218750
    vertex 0.000000 0.009261 1.218715
    vertex 0.000000 -0.074331 1.216481
  endloop
endfacet
facet normal 0.000180 -0.034142 0.999417
  outer loop
    vertex 1.500000 0.000000 1.218750
    vertex 0.000000 -0.074331 1.216481
    vertex 1.500000 -0.083170 1.215909
  endloop
endfacet
facet normal -0.000181 -0.095196 0.995458
  outer loop
    vertex 1.500000 -0.083170 1.215909
    vertex 0.000000 -0.074331 1.216481
    vertex 0.000000 -0.157573 1.208521
  endloop
endfacet
facet normal 0.000173 -0.102263 0.994757
  outer loop
    vertex 1.500000 -0.083170 1.215909
    vertex 0.000000 -0.157573 1.208521
    vertex 1.500000 -0.165953 1.207399
  endloop
endfacet
facet normal -0.000174 -0.163232 0.986588
  outer loop
    vertex 1.500000 -0.165953 1.207399
    vertex 0.000000 -0.157573 1.208521
    vertex 0.000000 -0.240072 1.194871
  endloop
endfacet
facet normal 0.000166 -0.169910 0.985459
  outer loop
    vertex 1.500000 -0.165953 1.207399
    vertex 0.000000 -0.240072 1.194871
    vertex 1.500000 -0.247962 1.193259
  endloop
endfacet
facet normal -0.000166 -0.230501 0.973072
  outer loop
    vertex 1.500000 -0.247962 1.193259
    vertex 0.000000 -0.240072 1.194871
    vertex 0.000000 -0.321442 1.175596
  endloop
endfacet
facet normal 0.000158 -0.236764 0.971567
  outer loop
    vertex 1.500000 -0.247962 1.193259
    vertex 0.000000 -0.321442 1.175596
    vertex 1.500000 -0.328815 1.173555
  endloop
endfacet
facet normal -0.000159 -0.296683 0.954976
  outer loop
    vertex 1.500000 -0.328815 1.173555
    vertex 0.000000 -0.321442 1.175596
    vertex 0.000000 -0.401298 1.150787
  endloop
endfacet
facet normal 0.000151 -0.302515 0.953145
  outer loop
    vertex 1.500000 -0.328815 1.173555
    vertex 0.000000 -0.401298 1.150787
    vertex 1.500000 -0.408135 1.148381
  endloop
endfacet
facet normal -0.000151 -0.361470 0.932384
  outer loop
    vertex 1.500000 -0.408135 1.148381
    vertex 0.000000 -0.401298 1.150787
    vertex 0.000000 -0.479266 1.120561
  endloop
endfacet
facet normal 0.000143 -0.366855 0.930278
  outer loop
    vertex 1.500000 -0.408135 1.148381
    vertex 0.000000 -0.479266 1.120561
    vertex 1.500000 -0.485551 1.117851
  endloop
endfacet
facet normal -0.000144 -0.424555 0.905402
  outer loop
    vertex 1.500000 -0.485551 1.117851
    vertex 0.000000 -0.479266 1.120561
    vertex 0.000000 -0.554977 1.085059
  endloop
endfacet
facet normal 0.000135 -0.429483 0.903075
  outer loop
    vertex 1.500000 -0.485551 1.117851
    vertex 0.000000 -0.554977 1.085059
    vertex 1.500000 -0.560704 1.082110
  endloop
endfacet
facet normal -0.000136 -0.485641 0.874159
  outer loop
    vertex 1.500000 -0.560704 1.082110
    vertex 0.000000 -0.554977 1.085059
    vertex 0.000000 -0.628075 1.044449
  endloop
endfacet
facet normal 0.000127 -0.490111 0.871660
  outer loop
    vertex 1.500000 -0.560704 1.082110
    vertex 0.000000 -0.628075 1.044449
    vertex 1.500000 -0.633243 1.041324
  endloop
endfacet
facet normal -0.000128 -0.544440 0.838800
  outer loop
    vertex 1.500000 -0.633243 1.041324
    vertex 0.000000 -0.628075 1.044449
    vertex 0.000000 -0.698216 0.998922
  endloop
endfacet
facet normal 0.000120 -0.548452 0.836182
  outer loop
    vertex 1.500000 -0.633243 1.041324
    vertex 0.000000 -0.698216 0.998922
    vertex 1.500000 -0.702829 0.995682
  endloop
endfacet
facet normal -0.000120 -0.600677 0.799492
  outer loop
    vertex 1.500000 -0.702829 0.995682
    vertex 0.000000 -0.698216 0.998922
    vertex 0.000000 -0.765071 0.948693
  endloop
endfacet
facet normal 0.000112 -0.604236 0.796805
  outer loop
    vertex 1.500000 -0.702829 0.995682
    vertex 0.000000 -0.765071 0.948693
    vertex 1.500000 -0.769138 0.945398
  endloop
endfacet
facet normal -0.000112 -0.654085 0.756421
  outer loop
    vertex 1.500000 -0.769138 0.945398
    vertex 0.000000 -0.765071 0.948693
    vertex 0.000000 -0.828324 0.893997
  endloop
endfacet
facet normal 0.000104 -0.657204 0.753713
  outer loop
    vertex 1.500000 -0.769138 0.945398
    vertex 0.000000 -0.828324 0.893997
    vertex 1.500000 -0.831862 0.890706
  endloop
endfacet
facet normal -0.000104 -0.704415 0.709788
  outer loop
    vertex 1.500000 -0.831862 0.890706
    vertex 0.000000 -0.828324 0.893997
    vertex 0.000000 -0.887677 0.835093
  endloop
endfacet
facet normal 0.000095 -0.707107 0.707107
  outer loop
    vertex 1.500000 -0.831862 0.890706
    vertex 0.000000 -0.887677 0.835093
    vertex 1.500000 -0.890706 0.831862
  endloop
endfacet
facet normal -0.000096 -0.751429 0.659814
  outer loop
    vertex 1.500000 -0.890706 0.831862
    vertex 0.000000 -0.887677 0.835093
    vertex 0.000000 -0.942852 0.772258
  endloop
endfacet
facet normal 0.000087 -0.753713 0.657204
  outer loop
    vertex 1.500000 -0.890706 0.831862
    vertex 0.000000 -0.942852 0.772258
    vertex 1.500000 -0.945398 0.769138
  endloop
endfacet
facet normal -0.000088 -0.794905 0.606735
  outer loop
    vertex 1.500000 -0.945398 0.769138
    vertex 0.000000 -0.942852 0.772258
    vertex 0.000000 -0.993588 0.705787
  endloop
endfacet
facet normal 0.000079 -0.796805 0.604236
  outer loop
    vertex 1.500000 -0.945398 0.769138
    vertex 0.000000 -0.993588 0.705787
    vertex 1.500000 -0.995682 0.702829
  endloop
endfacet
facet normal -0.000079 -0.834639 0.550798
  outer loop
    vertex 1.500000 -0.995682 0.702829
    vertex 0.000000 -0.993588 0.705787
    vertex 0.000000 -1.039646 0.635993
  endloop
endfacet
facet normal 0.000070 -0.836182 0.548452
  outer loop
    vertex 1.500000 -0.995682 0.702829
    vertex 0.000000 -1.039646 0.635993
    vertex 1.500000 -1.041324 0.633243
  endloop
endfacet
facet normal -0.000071 -0.870443 0.492269
  outer loop
    vertex 1.500000 -1.041324 0.633243
    vertex 0.000000 -1.039646 0.635993
    vertex 0.000000 -1.080811 0.563205
  endloop
endfacet
facet normal 0.000062 -0.871660 0.490111
  outer loop
    vertex 1.500000 -1.041324 0.633243
    vertex 0.000000 -1.080811 0.563205
    vertex 1.500000 -1.082110 0.560704
  endloop
endfacet
facet normal -0.000062 -0.902150 0.431422
  outer loop
    vertex 1.500000 -1.082110 0.560704
    vertex 0.000000 -1.080811 0.563205
    vertex 0.000000 -1.116887 0.487766
  endloop
endfacet
facet normal 0.000053 -0.903075 0.429483
  outer loop
    vertex 1.500000 -1.082110 0.560704
    vertex 0.000000 -1.116887 0.487766
    vertex 1.500000 -1.117851 0.485551
  endloop
endfacet
facet normal -0.000054 -0.929610 0.368544
  outer loop
    vertex 1.500000 -1.117851 0.485551
    vertex 0.000000 -1.116887 0.487766
    vertex 0.000000 -1.147705 0.410031
  endloop
endfacet
facet normal 0.000045 -0.930278 0.366855
  outer loop
    vertex 1.500000 -1.117851 0.485551
    vertex 0.000000 -1.147705 0.410031
    vertex 1.500000 -1.148381 0.408135
  endloop
endfacet
facet normal -0.000045 -0.952694 0.303932
  outer loop
    vertex 1.500000 -1.148381 0.408135
    vertex 0.000000 -1.147705 0.410031
    vertex 0.000000 -1.173120 0.330365
  endloop
endfacet
facet normal 0.000036 -0.953145 0.302515
  outer loop
    vertex 1.500000 -1.148381 0.408135
    vertex 0.000000 -1.173120 0.330365
    vertex 1.500000 -1.173555 0.328815
  endloop
endfacet
facet normal -0.000036 -0.971293 0.237887
  outer loop
    vertex 1.500000 -1.173555 0.328815
    vertex 0.000000 -1.173120 0.330365
    vertex 0.000000 -1.193012 0.249145
  endloop
endfacet
facet normal 0.000027 -0.971567 0.236764
  outer loop
    vertex 1.500000 -1.173555 0.328815
    vertex 0.000000 -1.193012 0.249145
    vertex 1.500000 -1.193259 0.247962
  endloop
endfacet
facet normal -0.000027 -0.985319 0.170725
  outer loop
    vertex 1.500000 -1.193259 0.247962
    vertex 0.000000 -1.193012 0.249145
    vertex 0.000000 -1.207289 0.166751
  endloop
endfacet
facet normal 0.000000 -0.985403 0.170236
  outer loop
    vertex 1.500000 -1.193259 0.247962
    vertex 0.000000 -1.207289 0.166751
    vertex 1.500000 -1.207289 0.166751
  endloop
endfacet
facet normal 0.000000 -0.994707 0.102756
  outer loop
    vertex 1.500000 -1.207289 0.166751
    vertex 0.000000 -1.207289 0.166751
    vertex 1.500000 -1.215881 0.083572
  endloop
endfacet
facet normal 0.000000 -0.994707 0.102756
  outer loop
    vertex 1.500000 -1.207289 0.166751
    vertex 1.500000 -1.215881 0.083572
    vertex 3.000000 -1.215881 0.083572
  endloop
endfacet
facet normal 0.000000 -0.999411 0.034307
  outer loop
    vertex 3.000000 -1.215881 0.083572
    vertex 1.500000 -1.215881 0.083572
    vertex 3.000000 -1.218750 0.000000
  endloop
endfacet
facet normal -0.000000 -0.999411 0.034307
  outer loop
    vertex 3.000000 -1.218750 0.000000
    vertex 1.500000 -1.215881 0.083572
    vertex 1.500000 -1.218750 0.000000
  endloop
endfacet
facet normal 0.000000 -0.999411 -0.034307
  outer loop
    vertex 3.000000 -1.218750 0.000000
    vertex 1.500000 -1.218750 0.000000
    vertex 3.000000 -1.215881 -0.083572
  endloop
endfacet
facet normal -0.000000 -0.999411 -0.034307
  outer loop
    vertex 3.000000 -1.215881 -0.083572
    vertex 1.500000 -1.218750 0.000000
    vertex 1.500000 -1.215881 -0.083572
  endloop
endfacet
facet normal -0.000000 -0.994707 -0.102756
  outer loop
    vertex 3.000000 -1.215881 -0.083572
    vertex 1.500000 -1.215881 -0.083572
    vertex 3.000000 -1.207289 -0.166751
  endloop
endfacet
facet normal -0.000000 -0.994707 -0.102756
  outer loop
    vertex 3.000000 -1.207289 -0.166751
    vertex 1.500000 -1.215881 -0.083572
    vertex 1.500000 -1.207289 -0.166751
  endloop
endfacet
facet normal -0.000000 -0.985403 -0.170236
  outer loop
    vertex 3.000000 -1.207289 -0.166751
    vertex 1.500000 -1.207289 -0.166751
    vertex 1.500000 -1.193259 -0.247962
  endloop
endfacet
facet normal 0.000000 -0.985403 -0.170236
  outer loop
    vertex 1.500000 -1.193259 -0.247962
    vertex 1.500000 -1.207289 -0.166751
    vertex 0.000000 -1.207289 -0.166751
  endloop
endfacet
facet normal -0.000027 -0.985319 -0.170725
  outer loop
    vertex 1.500000 -1.193259 -0.247962
    vertex 0.000000 -1.207289 -0.166751
    vertex 0.000000 -1.193012 -0.249145
  endloop
endfacet
facet normal 0.000000 -0.994707 0.102756
  outer loop
    vertex 0.000000 -1.207289 0.166751
    vertex 0.000000 -1.215881 0.083572
    vertex 1.500000 -1.215881 0.083572
  endloop
endfacet
facet normal 0.000000 -0.999411 0.034307
  outer loop
    vertex 1.500000 -1.215881 0.083572
    vertex 0.000000 -1.215881 0.083572
    vertex 1.500000 -1.218750 0.000000
  endloop
endfacet
facet normal 0.000000 -0.999411 0.034307
  outer loop
    vertex 0.000000 -1.215881 0.083572
    vertex 0.000000 -1.218750 0.000000
    vertex 1.500000 -1.218750 0.000000
  endloop
endfacet
facet normal -0.000000 -0.999411 -0.034307
  outer loop
    vertex 1.500000 -1.218750 0.000000
    vertex 0.000000 -1.218750 0.000000
    vertex 1.500000 -1.215881 -0.083572
  endloop
endfacet
facet normal 0.000000 -0.999411 -0.034307
  outer loop
    vertex 0.000000 -1.218750 0.000000
    vertex 0.000000 -1.215881 -0.083572
    vertex 1.500000 -1.215881 -0.083572
  endloop
endfacet
facet normal -0.000000 -0.994707 -0.102756
  outer loop
    vertex 1.500000 -1.215881 -0.083572
    vertex 0.000000 -1.215881 -0.083572
    vertex 1.500000 -1.207289 -0.166751
  endloop
endfacet
facet normal 0.000000 -0.994707 -0.102756
  outer loop
    vertex 0.000000 -1.215881 -0.083572
    vertex 0.000000 -1.207289 -0.166751
    vertex 1.500000 -1.207289 -0.166751
  endloop
endfacet
facet normal 0.000027 -0.971567 -0.236764
  outer loop
    vertex 1.500000 -1.193259 -0.247962
    vertex 0.000000 -1.193012 -0.249145
    vertex 1.500000 -1.173555 -0.328815
  endloop
endfacet
facet normal -0.000036 -0.971293 -0.237887
  outer loop
    vertex 1.500000 -1.173555 -0.328815
    vertex 0.000000 -1.193012 -0.249145
    vertex 0.000000 -1.173120 -0.330365
  endloop
endfacet
facet normal 0.000036 -0.953145 -0.302515
  outer loop
    vertex 1.500000 -1.173555 -0.328815
    vertex 0.000000 -1.173120 -0.330365
    vertex 1.500000 -1.148381 -0.408135
  endloop
endfacet
facet normal -0.000045 -0.952694 -0.303932
  outer loop
    vertex 1.500000 -1.148381 -0.408135
    vertex 0.000000 -1.173120 -0.330365
    vertex 0.000000 -1.147705 -0.410031
  endloop
endfacet
facet normal 0.000045 -0.930278 -0.366855
  outer loop
    vertex 1.500000 -1.148381 -0.408135
    vertex 0.000000 -1.147705 -0.410031
    vertex 1.500000 -1.117851 -0.485551
  endloop
endfacet
facet normal -0.000054 -0.929610 -0.368544
  outer loop
    vertex 1.500000 -1.117851 -0.485551
    vertex 0.000000 -1.147705 -0.410031
    vertex 0.000000 -1.116887 -0.487766
  endloop
endfacet
facet normal 0.000053 -0.903075 -0.429483
  outer loop
    vertex 1.500000 -1.117851 -0.485551
    vertex 0.000000 -1.116887 -0.487766
    vertex 1.500000 -1.082110 -0.560704
  endloop
endfacet
facet normal -0.000062 -0.902150 -0.431422
  outer loop
    vertex 1.500000 -1.082110 -0.560704
    vertex 0.000000 -1.116887 -0.487766
    vertex 0.000000 -1.080811 -0.563205
  endloop
endfacet
facet normal 0.000062 -0.871660 -0.490111
  outer loop
    vertex 1.500000 -1.082110 -0.560704
    vertex 0.000000 -1.080811 -0.563205
    vertex 1.500000 -1.041324 -0.633243
  endloop
endfacet
facet normal -0.000071 -0.870443 -0.492269
  outer loop
    vertex 1.500000 -1.041324 -0.633243
    vertex 0.000000 -1.080811 -0.563205
    vertex 0.000000 -1.039646 -0.635993
  endloop
endfacet
facet normal 0.000070 -0.836182 -0.548452
  outer loop
    vertex 1.500000 -1.041324 -0.633243
    vertex 0.000000 -1.039646 -0.635993
    vertex 1.500000 -0.995682 -0.702829
  endloop
endfacet
facet normal -0.000079 -0.834639 -0.550798
  outer loop
    vertex 1.500000 -0.995682 -0.702829
    vertex 0.000000 -1.039646 -0.635993
    vertex 0.000000 -0.993588 -0.705787
  endloop
endfacet
facet normal 0.000079 -0.796805 -0.604236
  outer loop
    vertex 1.500000 -0.995682 -0.702829
    vertex 0.000000 -0.993588 -0.705787
    vertex 1.500000 -0.945398 -0.769138
  endloop
endfacet
facet normal -0.000088 -0.794905 -0.606735
  outer loop
    vertex 1.500000 -0.945398 -0.769138
    vertex 0.000000 -0.993588 -0.705787
    vertex 0.000000 -0.942852 -0.772258
  endloop
endfacet
facet normal 0.000087 -0.753713 -0.657204
  outer loop
    vertex 1.500000 -0.945398 -0.769138
    vertex 0.000000 -0.942852 -0.772258
    vertex 1.500000 -0.890706 -0.831862
  endloop
endfacet
facet normal -0.000096 -0.751429 -0.659814
  outer loop
    vertex 1.500000 -0.890706 -0.831862
    vertex 0.000000 -0.942852 -0.772258
    vertex 0.000000 -0.887677 -0.835093
  endloop
endfacet
facet normal 0.000095 -0.707107 -0.707107
  outer loop
    vertex 1.500000 -0.890706 -0.831862
    vertex 0.000000 -0.887677 -0.835093
    vertex 1.500000 -0.831862 -0.890706
  endloop
endfacet
facet normal -0.000104 -0.704415 -0.709788
  outer loop
    vertex 1.500000 -0.831862 -0.890706
    vertex 0.000000 -0.887677 -0.835093
    vertex 0.000000 -0.828324 -0.893997
  endloop
endfacet
facet normal 0.000104 -0.657204 -0.753713
  outer loop
    vertex 1.500000 -0.831862 -0.890706
    vertex 0.000000 -0.828324 -0.893997
    vertex 1.500000 -0.769138 -0.945398
  endloop
endfacet
facet normal -0.000112 -0.654085 -0.756421
  outer loop
    vertex 1.500000 -0.769138 -0.945398
    vertex 0.000000 -0.828324 -0.893997
    vertex 0.000000 -0.765071 -0.948693
  endloop
endfacet
facet normal 0.000112 -0.604236 -0.796805
  outer loop
    vertex 1.500000 -0.769138 -0.945398
    vertex 0.000000 -0.765071 -0.948693
    vertex 1.500000 -0.702829 -0.995682
  endloop
endfacet
facet normal -0.000120 -0.600677 -0.799492
  outer loop
    vertex 1.500000 -0.702829 -0.995682
    vertex 0.000000 -0.765071 -0.948693
    vertex 0.000000 -0.698216 -0.998922
  endloop
endfacet
facet normal 0.000120 -0.548452 -0.836182
  outer loop
    vertex 1.500000 -0.702829 -0.995682
    vertex 0.000000 -0.698216 -0.998922
    vertex 1.500000 -0.633243 -1.041324
  endloop
endfacet
facet normal -0.000128 -0.544440 -0.838800
  outer loop
    vertex 1.500000 -0.633243 -1.041324
    vertex 0.000000 -0.698216 -0.998922
    vertex 0.000000 -0.628075 -1.044449
  endloop
endfacet
facet normal 0.000127 -0.490111 -0.871660
  outer loop
    vertex 1.500000 -0.633243 -1.041324
    vertex 0.000000 -0.628075 -1.044449
    vertex 1.500000 -0.560704 -1.082110
  endloop
endfacet
facet normal -0.000136 -0.485641 -0.874159
  outer loop
    vertex 1.500000 -0.560704 -1.082110
    vertex 0.000000 -0.628075 -1.044449
    vertex 0.000000 -0.554977 -1.085059
  endloop
endfacet
facet normal 0.000135 -0.429483 -0.903075
  outer loop
    vertex 1.500000 -0.560704 -1.082110
    vertex 0.000000 -0.554977 -1.085059
    vertex 1.500000 -0.485551 -1.117851
  endloop
endfacet
facet normal -0.000144 -0.424555 -0.905402
  outer loop
    vertex 1.500000 -0.485551 -1.117851
    vertex 0.000000 -0.554977 -1.085059
    vertex 0.000000 -0.479266 -1.120561
  endloop
endfacet
facet normal 0.000143 -0.366855 -0.930278
  outer loop
    vertex 1.500000 -0.485551 -1.117851
    vertex 0.000000 -0.479266 -1.120561
    vertex 1.500000 -0.408135 -1.148381
  endloop
endfacet
facet normal -0.000151 -0.361470 -0.932384
  outer loop
    vertex 1.500000 -0.408135 -1.148381
    vertex 0.000000 -0.479266 -1.120561
    vertex 0.000000 -0.401298 -1.150787
  endloop
endfacet
facet normal 0.000151 -0.302515 -0.953145
  outer loop
    vertex 1.500000 -0.408135 -1.148381
    vertex 0.000000 -0.401298 -1.150787
    vertex 1.500000 -0.328815 -1.173555
  endloop
endfacet
facet normal -0.000159 -0.296683 -0.954976
  outer loop
    vertex 1.500000 -0.328815 -1.173555
    vertex 0.000000 -0.401298 -1.150787
    vertex 0.000000 -0.321442 -1.175596
  endloop
endfacet
facet normal 0.000158 -0.236764 -0.971567
  outer loop
    vertex 1.500000 -0.328815 -1.173555
    vertex 0.000000 -0.321442 -1.175596
    vertex 1.500000 -0.247962 -1.193259
  endloop
endfacet
facet normal -0.000166 -0.230501 -0.973072
  outer loop
    vertex 1.500000 -0.247962 -1.193259
    vertex 0.000000 -0.321442 -1.175596
    vertex 0.000000 -0.240072 -1.194871
  endloop
endfacet
facet normal 0.000166 -0.169910 -0.985459
  outer loop
    vertex 1.500000 -0.247962 -1.193259
    vertex 0.000000 -0.240072 -1.194871
    vertex 1.500000 -0.165953 -1.207399
  endloop
endfacet
facet normal -0.000174 -0.163232 -0.986588
  outer loop
    vertex 1.500000 -0.165953 -1.207399
    vertex 0.000000 -0.240072 -1.194871
    vertex 0.000000 -0.157573 -1.208521
  endloop
endfacet
facet normal 0.000173 -0.102263 -0.994757
  outer loop
    vertex 1.500000 -0.165953 -1.207399
    vertex 0.000000 -0.157573 -1.208521
    vertex 1.500000 -0.083170 -1.215909
  endloop
endfacet
facet normal -0.000181 -0.095196 -0.995458
  outer loop
    vertex 1.500000 -0.083170 -1.215909
    vertex 0.000000 -0.157573 -1.208521
    vertex 0.000000 -0.074331 -1.216481
  endloop
endfacet
facet normal 0.000180 -0.034142 -0.999417
  outer loop
    vertex 1.500000 -0.083170 -1.215909
    vertex 0.000000 -0.074331 -1.216481
    vertex 1.500000 0.000000 -1.218750
  endloop
endfacet
facet normal -0.000188 -0.026711 -0.999643
  outer loop
    vertex 1.500000 0.000000 -1.218750
    vertex 0.000000 -0.074331 -1.216481
    vertex 0.000000 0.009261 -1.218715
  endloop
endfacet
facet normal 0.000187 0.034142 -0.999417
  outer loop
    vertex 1.500000 0.000000 -1.218750
    vertex 0.000000 0.009261 -1.218715
    vertex 1.500000 0.083170 -1.215909
  endloop
endfacet
facet normal -0.000195 0.041899 -0.999122
  outer loop
    vertex 1.500000 0.083170 -1.215909
    vertex 0.000000 0.009261 -1.218715
    vertex 0.000000 0.092808 -1.215211
  endloop
endfacet
facet normal 0.000194 0.102263 -0.994757
  outer loop
    vertex 1.500000 0.083170 -1.215909
    vertex 0.000000 0.092808 -1.215211
    vertex 1.500000 0.165953 -1.207399
  endloop
endfacet
facet normal -0.000203 0.110312 -0.993897
  outer loop
    vertex 1.500000 0.165953 -1.207399
    vertex 0.000000 0.092808 -1.215211
    vertex 0.000000 0.175920 -1.205987
  endloop
endfacet
facet normal 0.000201 0.169910 -0.985459
  outer loop
    vertex 1.500000 0.165953 -1.207399
    vertex 0.000000 0.175920 -1.205987
    vertex 1.500000 0.247962 -1.193259
  endloop
endfacet
facet normal -0.000209 0.178207 -0.983993
  outer loop
    vertex 1.500000 0.247962 -1.193259
    vertex 0.000000 0.175920 -1.205987
    vertex 0.000000 0.258202 -1.191085
  endloop
endfacet
facet normal 0.000208 0.236764 -0.971567
  outer loop
    vertex 1.500000 0.247962 -1.193259
    vertex 0.000000 0.258202 -1.191085
    vertex 1.500000 0.328815 -1.173555
  endloop
endfacet
facet normal -0.000216 0.245262 -0.969457
  outer loop
    vertex 1.500000 0.328815 -1.173555
    vertex 0.000000 0.258202 -1.191085
    vertex 0.000000 0.339270 -1.170576
  endloop
endfacet
facet normal 0.000215 0.302515 -0.953145
  outer loop
    vertex 1.500000 0.328815 -1.173555
    vertex 0.000000 0.339270 -1.170576
    vertex 1.500000 0.408135 -1.148381
  endloop
endfacet
facet normal -0.000223 0.311161 -0.950357
  outer loop
    vertex 1.500000 0.408135 -1.148381
    vertex 0.000000 0.339270 -1.170576
    vertex 0.000000 0.418740 -1.144556
  endloop
endfacet
facet normal 0.000222 0.366855 -0.930278
  outer loop
    vertex 1.500000 0.408135 -1.148381
    vertex 0.000000 0.418740 -1.144556
    vertex 1.500000 0.485551 -1.117851
  endloop
endfacet
facet normal -0.000230 0.375597 -0.926783
  outer loop
    vertex 1.500000 0.485551 -1.117851
    vertex 0.000000 0.418740 -1.144556
    vertex 0.000000 0.496239 -1.113148
  endloop
endfacet
facet normal 0.000228 0.429483 -0.903075
  outer loop
    vertex 1.500000 0.485551 -1.117851
    vertex 0.000000 0.496239 -1.113148
    vertex 1.500000 0.560704 -1.082110
  endloop
endfacet
facet normal -0.000236 0.438264 -0.898846
  outer loop
    vertex 1.500000 0.560704 -1.082110
    vertex 0.000000 0.496239 -1.113148
    vertex 0.000000 0.571401 -1.076500
  endloop
endfacet
facet normal 0.000235 0.490111 -0.871660
  outer loop
    vertex 1.500000 0.560704 -1.082110
    vertex 0.000000 0.571401 -1.076500
    vertex 1.500000 0.633243 -1.041324
  endloop
endfacet
facet normal -0.000243 0.498867 -0.866678
  outer loop
    vertex 1.500000 0.633243 -1.041324
    vertex 0.000000 0.571401 -1.076500
    vertex 0.000000 0.643874 -1.034784
  endloop
endfacet
facet normal 0.000242 0.548452 -0.836182
  outer loop
    vertex 1.500000 0.633243 -1.041324
    vertex 0.000000 0.643874 -1.034784
    vertex 1.500000 0.702829 -0.995682
  endloop
endfacet
facet normal -0.000249 0.557124 -0.830429
  outer loop
    vertex 1.500000 0.702829 -0.995682
    vertex 0.000000 0.643874 -1.034784
    vertex 0.000000 0.713316 -0.988196
  endloop
endfacet
facet normal 0.000248 0.604236 -0.796805
  outer loop
    vertex 1.500000 0.702829 -0.995682
    vertex 0.000000 0.713316 -0.988196
    vertex 1.500000 0.769138 -0.945398
  endloop
endfacet
facet normal -0.000256 0.612757 -0.790272
  outer loop
    vertex 1.500000 0.769138 -0.945398
    vertex 0.000000 0.713316 -0.988196
    vertex 0.000000 0.779399 -0.936957
  endloop
endfacet
facet normal 0.000254 0.657204 -0.753713
  outer loop
    vertex 1.500000 0.769138 -0.945398
    vertex 0.000000 0.779399 -0.936957
    vertex 1.500000 0.831862 -0.890706
  endloop
endfacet
facet normal -0.000262 0.665505 -0.746393
  outer loop
    vertex 1.500000 0.831862 -0.890706
    vertex 0.000000 0.779399 -0.936957
    vertex 0.000000 0.841814 -0.881306
  endloop
endfacet
facet normal 0.000260 0.707107 -0.707107
  outer loop
    vertex 1.500000 0.831862 -0.890706
    vertex 0.000000 0.841814 -0.881306
    vertex 1.500000 0.890706 -0.831862
  endloop
endfacet
facet normal -0.000268 0.715120 -0.699002
  outer loop
    vertex 1.500000 0.890706 -0.831862
    vertex 0.000000 0.841814 -0.881306
    vertex 0.000000 0.900265 -0.821507
  endloop
endfacet
facet normal 0.000266 0.753713 -0.657204
  outer loop
    vertex 1.500000 0.890706 -0.831862
    vertex 0.000000 0.900265 -0.821507
    vertex 1.500000 0.945398 -0.769138
  endloop
endfacet
facet normal -0.000274 0.761369 -0.648319
  outer loop
    vertex 1.500000 0.945398 -0.769138
    vertex 0.000000 0.900265 -0.821507
    vertex 0.000000 0.954479 -0.757840
  endloop
endfacet
facet normal 0.000272 0.796805 -0.604236
  outer loop
    vertex 1.500000 0.945398 -0.769138
    vertex 0.000000 0.954479 -0.757840
    vertex 1.500000 0.995682 -0.702829
  endloop
endfacet
facet normal -0.000280 0.804033 -0.594584
  outer loop
    vertex 1.500000 0.995682 -0.702829
    vertex 0.000000 0.954479 -0.757840
    vertex 0.000000 1.004199 -0.690606
  endloop
endfacet
facet normal 0.000278 0.836182 -0.548452
  outer loop
    vertex 1.500000 0.995682 -0.702829
    vertex 0.000000 1.004199 -0.690606
    vertex 1.500000 1.041324 -0.633243
  endloop
endfacet
facet normal -0.000286 0.842912 -0.538051
  outer loop
    vertex 1.500000 1.041324 -0.633243
    vertex 0.000000 1.004199 -0.690606
    vertex 0.000000 1.049191 -0.620121
  endloop
endfacet
facet normal 0.000284 0.871660 -0.490111
  outer loop
    vertex 1.500000 1.041324 -0.633243
    vertex 0.000000 1.049191 -0.620121
    vertex 1.500000 1.082110 -0.560704
  endloop
endfacet
facet normal -0.000292 0.877823 -0.478984
  outer loop
    vertex 1.500000 1.082110 -0.560704
    vertex 0.000000 1.049191 -0.620121
    vertex 0.000000 1.089244 -0.546716
  endloop
endfacet
facet normal 0.000290 0.903075 -0.429483
  outer loop
    vertex 1.500000 1.082110 -0.560704
    vertex 0.000000 1.089244 -0.546716
    vertex 1.500000 1.117851 -0.485551
  endloop
endfacet
facet normal -0.000297 0.908602 -0.417662
  outer loop
    vertex 1.500000 1.117851 -0.485551
    vertex 0.000000 1.089244 -0.546716
    vertex 0.000000 1.124170 -0.470737
  endloop
endfacet
facet normal 0.000296 0.930278 -0.366855
  outer loop
    vertex 1.500000 1.117851 -0.485551
    vertex 0.000000 1.124170 -0.470737
    vertex 1.500000 1.148381 -0.408135
  endloop
endfacet
facet normal -0.000303 0.935103 -0.354374
  outer loop
    vertex 1.500000 1.148381 -0.408135
    vertex 0.000000 1.124170 -0.470737
    vertex 0.000000 1.153803 -0.392543
  endloop
endfacet
facet normal 0.000301 0.953145 -0.302515
  outer loop
    vertex 1.500000 1.148381 -0.408135
    vertex 0.000000 1.153803 -0.392543
    vertex 1.500000 1.173555 -0.328815
  endloop
endfacet
facet normal -0.000309 0.957202 -0.289419
  outer loop
    vertex 1.500000 1.173555 -0.328815
    vertex 0.000000 1.153803 -0.392543
    vertex 0.000000 1.178005 -0.312500
  endloop
endfacet
facet normal 0.000000 0.964766 -0.263111
  outer loop
    vertex 1.500000 1.173555 -0.328815
    vertex 0.000000 1.178005 -0.312500
    vertex 3.000000 1.178005 -0.312500
  endloop
endfacet
facet normal 0.000309 0.957202 -0.289419
  outer loop
    vertex 3.000000 1.178005 -0.312500
    vertex 3.000000 1.153803 -0.392543
    vertex 1.500000 1.173555 -0.328815
  endloop
endfacet
facet normal -0.000301 0.953145 -0.302515
  outer loop
    vertex 1.500000 1.173555 -0.328815
    vertex 3.000000 1.153803 -0.392543
    vertex 1.500000 1.148381 -0.408135
  endloop
endfacet
facet normal 0.000303 0.935103 -0.354374
  outer loop
    vertex 3.000000 1.153803 -0.392543
    vertex 3.000000 1.124170 -0.470737
    vertex 1.500000 1.148381 -0.408135
  endloop
endfacet
facet normal -0.000296 0.930278 -0.366855
  outer loop
    vertex 1.500000 1.148381 -0.408135
    vertex 3.000000 1.124170 -0.470737
    vertex 1.500000 1.117851 -0.485551
  endloop
endfacet
facet normal 0.000297 0.908602 -0.417662
  outer loop
    vertex 3.000000 1.124170 -0.470737
    vertex 3.000000 1.089244 -0.546716
    vertex 1.500000 1.117851 -0.485551
  endloop
endfacet
facet normal -0.000290 0.903075 -0.429483
  outer loop
    vertex 1.500000 1.117851 -0.485551
    vertex 3.000000 1.089244 -0.546716
    vertex 1.500000 1.082110 -0.560704
  endloop
endfacet
facet normal 0.000292 0.877823 -0.478984
  outer loop
    vertex 3.000000 1.089244 -0.546716
    vertex 3.000000 1.049191 -0.620121
    vertex 1.500000 1.082110 -0.560704
  endloop
endfacet
facet normal -0.000284 0.871660 -0.490111
  outer loop
    vertex 1.500000 1.082110 -0.560704
    vertex 3.000000 1.049191 -0.620121
    vertex 1.500000 1.041324 -0.633243
  endloop
endfacet
facet normal 0.000286 0.842912 -0.538051
  outer loop
    vertex 3.000000 1.049191 -0.620121
    vertex 3.000000 1.004199 -0.690606
    vertex 1.500000 1.041324 -0.633243
  endloop
endfacet
facet normal -0.000278 0.836182 -0.548452
  outer loop
    vertex 1.500000 1.041324 -0.633243
    vertex 3.000000 1.004199 -0.690606
    vertex 1.500000 0.995682 -0.702829
  endloop
endfacet
facet normal 0.000280 0.804033 -0.594584
  outer loop
    vertex 3.000000 1.004199 -0.690606
    vertex 3.000000 0.954479 -0.757840
    vertex 1.500000 0.995682 -0.702829
  endloop
endfacet
facet normal -0.000272 0.796805 -0.604236
  outer loop
    vertex 1.500000 0.995682 -0.702829
    vertex 3.000000 0.954479 -0.757840
    vertex 1.500000 0.945398 -0.769138
  endloop
endfacet
facet normal 0.000274 0.761369 -0.648319
  outer loop
    vertex 3.000000 0.954479 -0.757840
    vertex 3.000000 0.900265 -0.821507
    vertex 1.500000 0.945398 -0.769138
  endloop
endfacet
facet normal -0.000266 0.753713 -0.657204
  outer loop
    vertex 1.500000 0.945398 -0.769138
    vertex 3.000000 0.900265 -0.821507
    vertex 1.500000 0.890706 -0.831862
  endloop
endfacet
facet normal 0.000268 0.715120 -0.699002
  outer loop
    vertex 3.000000 0.900265 -0.821507
    vertex 3.000000 0.841814 -0.881306
    vertex 1.500000 0.890706 -0.831862
  endloop
endfacet
facet normal -0.000260 0.707107 -0.707107
  outer loop
    vertex 1.500000 0.890706 -0.831862
    vertex 3.000000 0.841814 -0.881306
    vertex 1.500000 0.831862 -0.890706
  endloop
endfacet
facet normal 0.000262 0.665505 -0.746393
  outer loop
    vertex 3.000000 0.841814 -0.881306
    vertex 3.000000 0.779399 -0.936957
    vertex 1.500000 0.831862 -0.890706
  endloop
endfacet
facet normal -0.000254 0.657204 -0.753713
  outer loop
    vertex 1.500000 0.831862 -0.890706
    vertex 3.000000 0.779399 -0.936957
    vertex 1.500000 0.769138 -0.945398
  endloop
endfacet
facet normal 0.000256 0.612757 -0.790272
  outer loop
    vertex 3.000000 0.779399 -0.936957
    vertex 3.000000 0.713316 -0.988196
    vertex 1.500000 0.769138 -0.945398
  endloop
endfacet
facet normal -0.000248 0.604236 -0.796805
  outer loop
    vertex 1.500000 0.769138 -0.945398
    vertex 3.000000 0.713316 -0.988196
    vertex 1.500000 0.702829 -0.995682
  endloop
endfacet
facet normal 0.000249 0.557124 -0.830429
  outer loop
    vertex 3.000000 0.713316 -0.988196
    vertex 3.000000 0.643874 -1.034784
    vertex 1.500000 0.702829 -0.995682
  endloop
endfacet
facet normal -0.000242 0.548452 -0.836182
  outer loop
    vertex 1.500000 0.702829 -0.995682
    vertex 3.000000 0.643874 -1.034784
    vertex 1.500000 0.633243 -1.041324
  endloop
endfacet
facet normal 0.000243 0.498867 -0.866678
  outer loop
    vertex 3.000000 0.643874 -1.034784
    vertex 3.000000 0.571401 -1.076500
    vertex 1.500000 0.633243 -1.041324
  endloop
endfacet
facet normal -0.000235 0.490111 -0.871660
  outer loop
    vertex 1.500000 0.633243 -1.041324
    vertex 3.000000 0.571401 -1.076500
    vertex 1.500000 0.560704 -1.082110
  endloop
endfacet
facet normal 0.000236 0.438264 -0.898846
  outer loop
    vertex 3.000000 0.571401 -1.076500
    vertex 3.000000 0.496239 -1.113148
    vertex 1.500000 0.560704 -1.082110
  endloop
endfacet
facet normal -0.000228 0.429483 -0.903075
  outer loop
    vertex 1.500000 0.560704 -1.082110
    vertex 3.000000 0.496239 -1.113148
    vertex 1.500000 0.485551 -1.117851
  endloop
endfacet
facet normal 0.000230 0.375597 -0.926783
  outer loop
    vertex 3.000000 0.496239 -1.113148
    vertex 3.000000 0.418740 -1.144556
    vertex 1.500000 0.485551 -1.117851
  endloop
endfacet
facet normal -0.000222 0.366855 -0.930278
  outer loop
    vertex 1.500000 0.485551 -1.117851
    vertex 3.000000 0.418740 -1.144556
    vertex 1.500000 0.408135 -1.148381
  endloop
endfacet
facet normal 0.000223 0.311161 -0.950357
  outer loop
    vertex 3.000000 0.418740 -1.144556
    vertex 3.000000 0.339270 -1.170576
    vertex 1.500000 0.408135 -1.148381
  endloop
endfacet
facet normal -0.000215 0.302515 -0.953145
  outer loop
    vertex 1.500000 0.408135 -1.148381
    vertex 3.000000 0.339270 -1.170576
    vertex 1.500000 0.328815 -1.173555
  endloop
endfacet
facet normal 0.000216 0.245262 -0.969457
  outer loop
    vertex 3.000000 0.339270 -1.170576
    vertex 3.000000 0.258202 -1.191085
    vertex 1.500000 0.328815 -1.173555
  endloop
endfacet
facet normal -0.000208 0.236764 -0.971567
  outer loop
    vertex 1.500000 0.328815 -1.173555
    vertex 3.000000 0.258202 -1.191085
    vertex 1.500000 0.247962 -1.193259
  endloop
endfacet
facet normal 0.000209 0.178207 -0.983993
  outer loop
    vertex 3.000000 0.258202 -1.191085
    vertex 3.000000 0.175920 -1.205987
    vertex 1.500000 0.247962 -1.193259
  endloop
endfacet
facet normal -0.000201 0.169910 -0.985459
  outer loop
    vertex 1.500000 0.247962 -1.193259
    vertex 3.000000 0.175920 -1.205987
    vertex 1.500000 0.165953 -1.207399
  endloop
endfacet
facet normal 0.000203 0.110312 -0.993897
  outer loop
    vertex 3.000000 0.175920 -1.205987
    vertex 3.000000 0.092808 -1.215211
    vertex 1.500000 0.165953 -1.207399
  endloop
endfacet
facet normal -0.000194 0.102263 -0.994757
  outer loop
    vertex 1.500000 0.165953 -1.207399
    vertex 3.000000 0.092808 -1.215211
    vertex 1.500000 0.083170 -1.215909
  endloop
endfacet
facet normal 0.000195 0.041899 -0.999122
  outer loop
    vertex 3.000000 0.092808 -1.215211
    vertex 3.000000 0.009261 -1.218715
    vertex 1.500000 0.083170 -1.215909
  endloop
endfacet
facet normal -0.000187 0.034142 -0.999417
  outer loop
    vertex 1.500000 0.083170 -1.215909
    vertex 3.000000 0.009261 -1.218715
    vertex 1.500000 0.000000 -1.218750
  endloop
endfacet
facet normal 0.000188 -0.026711 -0.999643
  outer loop
    vertex 3.000000 0.009261 -1.218715
    vertex 3.000000 -0.074331 -1.216481
    vertex 1.500000 0.000000 -1.218750
  endloop
endfacet
facet normal -0.000180 -0.034142 -0.999417
  outer loop
    vertex 1.500000 0.000000 -1.218750
    vertex 3.000000 -0.074331 -1.216481
    vertex 1.500000 -0.083170 -1.215909
  endloop
endfacet
facet normal 0.000181 -0.095196 -0.995458
  outer loop
    vertex 3.000000 -0.074331 -1.216481
    vertex 3.000000 -0.157573 -1.208521
    vertex 1.500000 -0.083170 -1.215909
  endloop
endfacet
facet normal -0.000173 -0.102263 -0.994757
  outer loop
    vertex 1.500000 -0.083170 -1.215909
    vertex 3.000000 -0.157573 -1.208521
    vertex 1.500000 -0.165953 -1.207399
  endloop
endfacet
facet normal 0.000174 -0.163232 -0.986588
  outer loop
    vertex 3.000000 -0.157573 -1.208521
    vertex 3.000000 -0.240072 -1.194871
    vertex 1.500000 -0.165953 -1.207399
  endloop
endfacet
facet normal -0.000166 -0.169910 -0.985459
  outer loop
    vertex 1.500000 -0.165953 -1.207399
    vertex 3.000000 -0.240072 -1.194871
    vertex 1.500000 -0.247962 -1.193259
  endloop
endfacet
facet normal 0.000166 -0.230501 -0.973072
  outer loop
    vertex 3.000000 -0.240072 -1.194871
    vertex 3.000000 -0.321442 -1.175596
    vertex 1.500000 -0.247962 -1.193259
  endloop
endfacet
facet normal -0.000158 -0.236764 -0.971567
  outer loop
    vertex 1.500000 -0.247962 -1.193259
    vertex 3.000000 -0.321442 -1.175596
    vertex 1.500000 -0.328815 -1.173555
  endloop
endfacet
facet normal 0.000159 -0.296683 -0.954976
  outer loop
    vertex 3.000000 -0.321442 -1.175596
    vertex 3.000000 -0.401298 -1.150787
    vertex 1.500000 -0.328815 -1.173555
  endloop
endfacet
facet normal -0.000151 -0.302515 -0.953145
  outer loop
    vertex 1.500000 -0.328815 -1.173555
    vertex 3.000000 -0.401298 -1.150787
    vertex 1.500000 -0.408135 -1.148381
  endloop
endfacet
facet normal 0.000151 -0.361470 -0.932384
  outer loop
    vertex 3.000000 -0.401298 -1.150787
    vertex 3.000000 -0.479266 -1.120561
    vertex 1.500000 -0.408135 -1.148381
  endloop
endfacet
facet normal -0.000143 -0.366855 -0.930278
  outer loop
    vertex 1.500000 -0.408135 -1.148381
    vertex 3.000000 -0.479266 -1.120561
    vertex 1.500000 -0.485551 -1.117851
  endloop
endfacet
facet normal 0.000144 -0.424555 -0.905402
  outer loop
    vertex 3.000000 -0.479266 -1.120561
    vertex 3.000000 -0.554977 -1.085059
    vertex 1.500000 -0.485551 -1.117851
  endloop
endfacet
facet normal -0.000135 -0.429483 -0.903075
  outer loop
    vertex 1.500000 -0.485551 -1.117851
    vertex 3.000000 -0.554977 -1.085059
    vertex 1.500000 -0.560704 -1.082110
  endloop
endfacet
facet normal 0.000136 -0.485641 -0.874159
  outer loop
    vertex 3.000000 -0.554977 -1.085059
    vertex 3.000000 -0.628075 -1.044449
    vertex 1.500000 -0.560704 -1.082110
  endloop
endfacet
facet normal -0.000127 -0.490111 -0.871660
  outer loop
    vertex 1.500000 -0.560704 -1.082110
    vertex 3.000000 -0.628075 -1.044449
    vertex 1.500000 -0.633243 -1.041324
  endloop
endfacet
facet normal 0.000128 -0.544440 -0.838800
  outer loop
    vertex 3.000000 -0.628075 -1.044449
    vertex 3.000000 -0.698216 -0.998922
    vertex 1.500000 -0.633243 -1.041324
  endloop
endfacet
facet normal -0.000120 -0.548452 -0.836182
  outer loop
    vertex 1.500000 -0.633243 -1.041324
    vertex 3.000000 -0.698216 -0.998922
    vertex 1.500000 -0.702829 -0.995682
  endloop
endfacet
facet normal 0.000120 -0.600677 -0.799492
  outer loop
    vertex 3.000000 -0.698216 -0.998922
    vertex 3.000000 -0.765071 -0.948693
    vertex 1.500000 -0.702829 -0.995682
  endloop
endfacet
facet normal -0.000112 -0.604236 -0.796805
  outer loop
    vertex 1.500000 -0.702829 -0.995682
    vertex 3.000000 -0.765071 -0.948693
    vertex 1.500000 -0.769138 -0.945398
  endloop
endfacet
facet normal 0.000112 -0.654085 -0.756421
  outer loop
    vertex 3.000000 -0.765071 -0.948693
    vertex 3.000000 -0.828324 -0.893997
    vertex 1.500000 -0.769138 -0.945398
  endloop
endfacet
facet normal -0.000104 -0.657204 -0.753713
  outer loop
    vertex 1.500000 -0.769138 -0.945398
    vertex 3.000000 -0.828324 -0.893997
    vertex 1.500000 -0.831862 -0.890706
  endloop
endfacet
facet normal 0.000104 -0.704415 -0.709788
  outer loop
    vertex 3.000000 -0.828324 -0.893997
    vertex 3.000000 -0.887677 -0.835093
    vertex 1.500000 -0.831862 -0.890706
  endloop
endfacet
facet normal -0.000095 -0.707107 -0.707107
  outer loop
    vertex 1.500000 -0.831862 -0.890706
    vertex 3.000000 -0.887677 -0.835093
    vertex 1.500000 -0.890706 -0.831862
  endloop
endfacet
facet normal 0.000096 -0.751429 -0.659814
  outer loop
    vertex 3.000000 -0.887677 -0.835093
    vertex 3.000000 -0.942852 -0.772258
    vertex 1.500000 -0.890706 -0.831862
  endloop
endfacet
facet normal -0.000087 -0.753713 -0.657204
  outer loop
    vertex 1.500000 -0.890706 -0.831862
    vertex 3.000000 -0.942852 -0.772258
    vertex 1.500000 -0.945398 -0.769138
  endloop
endfacet
facet normal 0.000088 -0.794905 -0.606735
  outer loop
    vertex 3.000000 -0.942852 -0.772258
    vertex 3.000000 -0.993588 -0.705787
    vertex 1.500000 -0.945398 -0.769138
  endloop
endfacet
facet normal -0.000079 -0.796805 -0.604236
  outer loop
    vertex 1.500000 -0.945398 -0.769138
    vertex 3.000000 -0.993588 -0.705787
    vertex 1.500000 -0.995682 -0.702829
  endloop
endfacet
facet normal 0.000079 -0.834639 -0.550798
  outer loop
    vertex 3.000000 -0.993588 -0.705787
    vertex 3.000000 -1.039646 -0.635993
    vertex 1.500000 -0.995682 -0.702829
  endloop
endfacet
facet normal -0.000070 -0.836182 -0.548452
  outer loop
    vertex 1.500000 -0.995682 -0.702829
    vertex 3.000000 -1.039646 -0.635993
    vertex 1.500000 -1.041324 -0.633243
  endloop
endfacet
facet normal 0.000071 -0.870443 -0.492269
  outer loop
    vertex 3.000000 -1.039646 -0.635993
    vertex 3.000000 -1.080811 -0.563205
    vertex 1.500000 -1.041324 -0.633243
  endloop
endfacet
facet normal -0.000062 -0.871660 -0.490111
  outer loop
    vertex 1.500000 -1.041324 -0.633243
    vertex 3.000000 -1.080811 -0.563205
    vertex 1.500000 -1.082110 -0.560704
  endloop
endfacet
facet normal 0.000062 -0.902150 -0.431422
  outer loop
    vertex 3.000000 -1.080811 -0.563205
    vertex 3.000000 -1.116887 -0.487766
    vertex 1.500000 -1.082110 -0.560704
  endloop
endfacet
facet normal -0.000053 -0.903075 -0.429483
  outer loop
    vertex 1.500000 -1.082110 -0.560704
    vertex 3.000000 -1.116887 -0.487766
    vertex 1.500000 -1.117851 -0.485551
  endloop
endfacet
facet normal 0.000054 -0.929610 -0.368544
  outer loop
    vertex 3.000000 -1.116887 -0.487766
    vertex 3.000000 -1.147705 -0.410031
    vertex 1.500000 -1.117851 -0.485551
  endloop
endfacet
facet normal -0.000045 -0.930278 -0.366855
  outer loop
    vertex 1.500000 -1.117851 -0.485551
    vertex 3.000000 -1.147705 -0.410031
    vertex 1.500000 -1.148381 -0.408135
  endloop
endfacet
facet normal 0.000045 -0.952694 -0.303932
  outer loop
    vertex 3.000000 -1.147705 -0.410031
    vertex 3.000000 -1.173120 -0.330365
    vertex 1.500000 -1.148381 -0.408135
  endloop
endfacet
facet normal -0.000036 -0.953145 -0.302515
  outer loop
    vertex 1.500000 -1.148381 -0.408135
    vertex 3.000000 -1.173120 -0.330365
    vertex 1.500000 -1.173555 -0.328815
  endloop
endfacet
facet normal 0.000036 -0.971293 -0.237887
  outer loop
    vertex 3.000000 -1.173120 -0.330365
    vertex 3.000000 -1.193012 -0.249145
    vertex 1.500000 -1.173555 -0.328815
  endloop
endfacet
facet normal -0.000027 -0.971567 -0.236764
  outer loop
    vertex 1.500000 -1.173555 -0.328815
    vertex 3.000000 -1.193012 -0.249145
    vertex 1.500000 -1.193259 -0.247962
  endloop
endfacet
facet normal 0.000027 -0.985319 -0.170725
  outer loop
    vertex 3.000000 -1.193012 -0.249145
    vertex 3.000000 -1.207289 -0.166751
    vertex 1.500000 -1.193259 -0.247962
  endloop
endfacet
facet normal 0.000000 -0.994707 0.102756
  outer loop
    vertex 3.000000 -1.215881 0.083572
    vertex 3.000000 -1.207289 0.166751
    vertex 1.500000 -1.207289 0.166751
  endloop
endfacet
facet normal 0.000000 -0.985403 0.170236
  outer loop
    vertex 1.500000 -1.207289 0.166751
    vertex 3.000000 -1.207289 0.166751
    vertex 1.500000 -1.193259 0.247962
  endloop
endfacet
facet normal 0.000027 -0.985319 0.170725
  outer loop
    vertex 3.000000 -1.207289 0.166751
    vertex 3.000000 -1.193012 0.249145
    vertex 1.500000 -1.193259 0.247962
  endloop
endfacet
facet normal -0.000027 -0.971567 0.236764
  outer loop
    vertex 1.500000 -1.193259 0.247962
    vertex 3.000000 -1.193012 0.249145
    vertex 1.500000 -1.173555 0.328815
  endloop
endfacet
facet normal 0.000036 -0.971293 0.237887
  outer loop
    vertex 3.000000 -1.193012 0.249145
    vertex 3.000000 -1.173120 0.330365
    vertex 1.500000 -1.173555 0.328815
  endloop
endfacet
facet normal -0.000036 -0.953145 0.302515
  outer loop
    vertex 1.500000 -1.173555 0.328815
    vertex 3.000000 -1.173120 0.330365
    vertex 1.500000 -1.148381 0.408135
  endloop
endfacet
facet normal 0.000045 -0.952694 0.303932
  outer loop
    vertex 3.000000 -1.173120 0.330365
    vertex 3.000000 -1.147705 0.410031
    vertex 1.500000 -1.148381 0.408135
  endloop
endfacet
facet normal -0.000045 -0.930278 0.366855
  outer loop
    vertex 1.500000 -1.148381 0.408135
    vertex 3.000000 -1.147705 0.410031
    vertex 1.500000 -1.117851 0.485551
  endloop
endfacet
facet normal 0.000054 -0.929610 0.368544
  outer loop
    vertex 3.000000 -1.147705 0.410031
    vertex 3.000000 -1.116887 0.487766
    vertex 1.500000 -1.117851 0.485551
  endloop
endfacet
facet normal -0.000053 -0.903075 0.429483
  outer loop
    vertex 1.500000 -1.117851 0.485551
    vertex 3.000000 -1.116887 0.487766
    vertex 1.500000 -1.082110 0.560704
  endloop
endfacet
facet normal 0.000062 -0.902150 0.431422
  outer loop
    vertex 3.000000 -1.116887 0.487766
    vertex 3.000000 -1.080811 0.563205
    vertex 1.500000 -1.082110 0.560704
  endloop
endfacet
facet normal -0.000062 -0.871660 0.490111
  outer loop
    vertex 1.500000 -1.082110 0.560704
    vertex 3.000000 -1.080811 0.563205
    vertex 1.500000 -1.041324 0.633243
  endloop
endfacet
facet normal 0.000071 -0.870443 0.492269
  outer loop
    vertex 3.000000 -1.080811 0.563205
    vertex 3.000000 -1.039646 0.635993
    vertex 1.500000 -1.041324 0.633243
  endloop
endfacet
facet normal -0.000070 -0.836182 0.548452
  outer loop
    vertex 1.500000 -1.041324 0.633243
    vertex 3.000000 -1.039646 0.635993
    vertex 1.500000 -0.995682 0.702829
  endloop
endfacet
facet normal 0.000079 -0.834639 0.550798
  outer loop
    vertex 3.000000 -1.039646 0.635993
    vertex 3.000000 -0.993588 0.705787
    vertex 1.500000 -0.995682 0.702829
  endloop
endfacet
facet normal -0.000079 -0.796805 0.604236
  outer loop
    vertex 1.500000 -0.995682 0.702829
    vertex 3.000000 -0.993588 0.705787
    vertex 1.500000 -0.945398 0.769138
  endloop
endfacet
facet normal 0.000088 -0.794905 0.606735
  outer loop
    vertex 3.000000 -0.993588 0.705787
    vertex 3.000000 -0.942852 0.772258
    vertex 1.500000 -0.945398 0.769138
  endloop
endfacet
facet normal -0.000087 -0.753713 0.657204
  outer loop
    vertex 1.500000 -0.945398 0.769138
    vertex 3.000000 -0.942852 0.772258
    vertex 1.500000 -0.890706 0.831862
  endloop
endfacet
facet normal 0.000096 -0.751429 0.659814
  outer loop
    vertex 3.000000 -0.942852 0.772258
    vertex 3.000000 -0.887677 0.835093
    vertex 1.500000 -0.890706 0.831862
  endloop
endfacet
facet normal -0.000095 -0.707107 0.707107
  outer loop
    vertex 1.500000 -0.890706 0.831862
    vertex 3.000000 -0.887677 0.835093
    vertex 1.500000 -0.831862 0.890706
  endloop
endfacet
facet normal 0.000104 -0.704415 0.709788
  outer loop
    vertex 3.000000 -0.887677 0.835093
    vertex 3.000000 -0.828324 0.893997
    vertex 1.500000 -0.831862 0.890706
  endloop
endfacet
facet normal -0.000104 -0.657204 0.753713
  outer loop
    vertex 1.500000 -0.831862 0.890706
    vertex 3.000000 -0.828324 0.893997
    vertex 1.500000 -0.769138 0.945398
  endloop
endfacet
facet normal 0.000112 -0.654085 0.756421
  outer loop
    vertex 3.000000 -0.828324 0.893997
    vertex 3.000000 -0.765071 0.948693
    vertex 1.500000 -0.769138 0.945398
  endloop
endfacet
facet normal -0.000112 -0.604236 0.796805
  outer loop
    vertex 1.500000 -0.769138 0.945398
    vertex 3.000000 -0.765071 0.948693
    vertex 1.500000 -0.702829 0.995682
  endloop
endfacet
facet normal 0.000120 -0.600677 0.799492
  outer loop
    vertex 3.000000 -0.765071 0.948693
    vertex 3.000000 -0.698216 0.998922
    vertex 1.500000 -0.702829 0.995682
  endloop
endfacet
facet normal -0.000120 -0.548452 0.836182
  outer loop
    vertex 1.500000 -0.702829 0.995682
    vertex 3.000000 -0.698216 0.998922
    vertex 1.500000 -0.633243 1.041324
  endloop
endfacet
facet normal 0.000128 -0.544440 0.838800
  outer loop
    vertex 3.000000 -0.698216 0.998922
    vertex 3.000000 -0.628075 1.044449
    vertex 1.500000 -0.633243 1.041324
  endloop
endfacet
facet normal -0.000127 -0.490111 0.871660
  outer loop
    vertex 1.500000 -0.633243 1.041324
    vertex 3.000000 -0.628075 1.044449
    vertex 1.500000 -0.560704 1.082110
  endloop
endfacet
facet normal 0.000136 -0.485641 0.874159
  outer loop
    vertex 3.000000 -0.628075 1.044449
    vertex 3.000000 -0.554977 1.085059
    vertex 1.500000 -0.560704 1.082110
  endloop
endfacet
facet normal -0.000135 -0.429483 0.903075
  outer loop
    vertex 1.500000 -0.560704 1.082110
    vertex 3.000000 -0.554977 1.085059
    vertex 1.500000 -0.485551 1.117851
  endloop
endfacet
facet normal 0.000144 -0.424555 0.905402
  outer loop
    vertex 3.000000 -0.554977 1.085059
    vertex 3.000000 -0.479266 1.120561
    vertex 1.500000 -0.485551 1.117851
  endloop
endfacet
facet normal -0.000143 -0.366855 0.930278
  outer loop
    vertex 1.500000 -0.485551 1.117851
    vertex 3.000000 -0.479266 1.120561
    vertex 1.500000 -0.408135 1.148381
  endloop
endfacet
facet normal 0.000151 -0.361470 0.932384
  outer loop
    vertex 3.000000 -0.479266 1.120561
    vertex 3.000000 -0.401298 1.150787
    vertex 1.500000 -0.408135 1.148381
  endloop
endfacet
facet normal -0.000151 -0.302515 0.953145
  outer loop
    vertex 1.500000 -0.408135 1.148381
    vertex 3.000000 -0.401298 1.150787
    vertex 1.500000 -0.328815 1.173555
  endloop
endfacet
facet normal 0.000159 -0.296683 0.954976
  outer loop
    vertex 3.000000 -0.401298 1.150787
    vertex 3.000000 -0.321442 1.175596
    vertex 1.500000 -0.328815 1.173555
  endloop
endfacet
facet normal -0.000158 -0.236764 0.971567
  outer loop
    vertex 1.500000 -0.328815 1.173555
    vertex 3.000000 -0.321442 1.175596
    vertex 1.500000 -0.247962 1.193259
  endloop
endfacet
facet normal 0.000166 -0.230501 0.973072
  outer loop
    vertex 3.000000 -0.321442 1.175596
    vertex 3.000000 -0.240072 1.194871
    vertex 1.500000 -0.247962 1.193259
  endloop
endfacet
facet normal -0.000166 -0.169910 0.985459
  outer loop
    vertex 1.500000 -0.247962 1.193259
    vertex 3.000000 -0.240072 1.194871
    vertex 1.500000 -0.165953 1.207399
  endloop
endfacet
facet normal 0.000174 -0.163232 0.986588
  outer loop
    vertex 3.000000 -0.240072 1.194871
    vertex 3.000000 -0.157573 1.208521
    vertex 1.500000 -0.165953 1.207399
  endloop
endfacet
facet normal -0.000173 -0.102263 0.994757
  outer loop
    vertex 1.500000 -0.165953 1.207399
    vertex 3.000000 -0.157573 1.208521
    vertex 1.500000 -0.083170 1.215909
  endloop
endfacet
facet normal 0.000181 -0.095196 0.995458
  outer loop
    vertex 3.000000 -0.157573 1.208521
    vertex 3.000000 -0.074331 1.216481
    vertex 1.500000 -0.083170 1.215909
  endloop
endfacet
facet normal -0.000180 -0.034142 0.999417
  outer loop
    vertex 1.500000 -0.083170 1.215909
    vertex 3.000000 -0.074331 1.216481
    vertex 1.500000 0.000000 1.218750
  endloop
endfacet
facet normal 0.000188 -0.026711 0.999643
  outer loop
    vertex 3.000000 -0.074331 1.216481
    vertex 3.000000 0.009261 1.218715
    vertex 1.500000 0.000000 1.218750
  endloop
endfacet
facet normal -0.000187 0.034142 0.999417
  outer loop
    vertex 1.500000 0.000000 1.218750
    vertex 3.000000 0.009261 1.218715
    vertex 1.500000 0.083170 1.215909
  endloop
endfacet
facet normal 0.000195 0.041899 0.999122
  outer loop
    vertex 3.000000 0.009261 1.218715
    vertex 3.000000 0.092808 1.215211
    vertex 1.500000 0.083170 1.215909
  endloop
endfacet
facet normal -0.000194 0.102263 0.994757
  outer loop
    vertex 1.500000 0.083170 1.215909
    vertex 3.000000 0.092808 1.215211
    vertex 1.500000 0.165953 1.207399
  endloop
endfacet
facet normal 0.000203 0.110312 0.993897
  outer loop
    vertex 3.000000 0.092808 1.215211
    vertex 3.000000 0.175920 1.205987
    vertex 1.500000 0.165953 1.207399
  endloop
endfacet
facet normal -0.000201 0.169910 0.985459
  outer loop
    vertex 1.500000 0.165953 1.207399
    vertex 3.000000 0.175920 1.205987
    vertex 1.500000 0.247962 1.193259
  endloop
endfacet
facet normal 0.000209 0.178207 0.983993
  outer loop
    vertex 3.000000 0.175920 1.205987
    vertex 3.000000 0.258202 1.191085
    vertex 1.500000 0.247962 1.193259
  endloop
endfacet
facet normal -0.000208 0.236764 0.971567
  outer loop
    vertex 1.500000 0.247962 1.193259
    vertex 3.000000 0.258202 1.191085
    vertex 1.500000 0.328815 1.173555
  endloop
endfacet
facet normal 0.000216 0.245262 0.969457
  outer loop
    vertex 3.000000 0.258202 1.191085
    vertex 3.000000 0.339270 1.170576
    vertex 1.500000 0.328815 1.173555
  endloop
endfacet
facet normal -0.000215 0.302515 0.953145
  outer loop
    vertex 1.500000 0.328815 1.173555
    vertex 3.000000 0.339270 1.170576
    vertex 1.500000 0.408135 1.148381
  endloop
endfacet
facet normal 0.000223 0.311161 0.950357
  outer loop
    vertex 3.000000 0.339270 1.170576
    vertex 3.000000 0.418740 1.144556
    vertex 1.500000 0.408135 1.148381
  endloop
endfacet
facet normal -0.000222 0.366855 0.930278
  outer loop
    vertex 1.500000 0.408135 1.148381
    vertex 3.000000 0.418740 1.144556
    vertex 1.500000 0.485551 1.117851
  endloop
endfacet
facet normal 0.000230 0.375597 0.926783
  outer loop
    vertex 3.000000 0.418740 1.144556
    vertex 3.000000 0.496239 1.113148
    vertex 1.500000 0.485551 1.117851
  endloop
endfacet
facet normal -0.000228 0.429483 0.903075
  outer loop
    vertex 1.500000 0.485551 1.117851
    vertex 3.000000 0.496239 1.113148
    vertex 1.500000 0.560704 1.082110
  endloop
endfacet
facet normal 0.000236 0.438264 0.898846
  outer loop
    vertex 3.000000 0.496239 1.113148
    vertex 3.000000 0.571401 1.076500
    vertex 1.500000 0.560704 1.082110
  endloop
endfacet
facet normal -0.000235 0.490111 0.871660
  outer loop
    vertex 1.500000 0.560704 1.082110
    vertex 3.000000 0.571401 1.076500
    vertex 1.500000 0.633243 1.041324
  endloop
endfacet
facet normal 0.000243 0.498867 0.866678
  outer loop
    vertex 3.000000 0.571401 1.076500
    vertex 3.000000 0.643874 1.034784
    vertex 1.500000 0.633243 1.041324
  endloop
endfacet
facet normal -0.000242 0.548452 0.836182
  outer loop
    vertex 1.500000 0.633243 1.041324
    vertex 3.000000 0.643874 1.034784
    vertex 1.500000 0.702829 0.995682
  endloop
endfacet
facet normal 0.000249 0.557124 0.830429
  outer loop
    vertex 3.000000 0.643874 1.034784
    vertex 3.000000 0.713316 0.988196
    vertex 1.500000 0.702829 0.995682
  endloop
endfacet
facet normal -0.000248 0.604236 0.796805
  outer loop
    vertex 1.500000 0.702829 0.995682
    vertex 3.000000 0.713316 0.988196
    vertex 1.500000 0.769138 0.945398
  endloop
endfacet
facet normal 0.000256 0.612757 0.790272
  outer loop
    vertex 3.000000 0.713316 0.988196
    vertex 3.000000 0.779399 0.936957
    vertex 1.500000 0.769138 0.945398
  endloop
endfacet
facet normal -0.000254 0.657204 0.753713
  outer loop
    vertex 1.500000 0.769138 0.945398
    vertex 3.000000 0.779399 0.936957
    vertex 1.500000 0.831862 0.890706
  endloop
endfacet
facet normal 0.000262 0.665505 0.746393
  outer loop
    vertex 3.000000 0.779399 0.936957
    vertex 3.000000 0.841814 0.881306
    vertex 1.500000 0.831862 0.890706
  endloop
endfacet
facet normal -0.000260 0.707107 0.707107
  outer loop
    vertex 1.500000 0.831862 0.890706
    vertex 3.000000 0.841814 0.881306
    vertex 1.500000 0.890706 0.831862
  endloop
endfacet
facet normal 0.000268 0.715120 0.699002
  outer loop
    vertex 3.000000 0.841814 0.881306
    vertex 3.000000 0.900265 0.821507
    vertex 1.500000 0.890706 0.831862
  endloop
endfacet
facet normal -0.000266 0.753713 0.657204
  outer loop
    vertex 1.500000 0.890706 0.831862
    vertex 3.000000 0.900265 0.821507
    vertex 1.500000 0.945398 0.769138
  endloop
endfacet
facet normal 0.000274 0.761369 0.648319
  outer loop
    vertex 3.000000 0.900265 0.821507
    vertex 3.000000 0.954479 0.757840
    vertex 1.500000 0.945398 0.769138
  endloop
endfacet
facet normal -0.000272 0.796805 0.604236
  outer loop
    vertex 1.500000 0.945398 0.769138
    vertex 3.000000 0.954479 0.757840
    vertex 1.500000 0.995682 0.702829
  endloop
endfacet
facet normal 0.000280 0.804033 0.594584
  outer loop
    vertex 3.000000 0.954479 0.757840
    vertex 3.000000 1.004199 0.690606
    vertex 1.500000 0.995682 0.702829
  endloop
endfacet
facet normal -0.000278 0.836182 0.548452
  outer loop
    vertex 1.500000 0.995682 0.702829
    vertex 3.000000 1.004199 0.690606
    vertex 1.500000 1.041324 0.633243
  endloop
endfacet
facet normal 0.000286 0.842912 0.538051
  outer loop
    vertex 3.000000 1.004199 0.690606
    vertex 3.000000 1.049191 0.620121
    vertex 1.500000 1.041324 0.633243
  endloop
endfacet
facet normal -0.000284 0.871660 0.490111
  outer loop
    vertex 1.500000 1.041324 0.633243
    vertex 3.000000 1.049191 0.620121
    vertex 1.500000 1.082110 0.560704
  endloop
endfacet
facet normal 0.000292 0.877823 0.478984
  outer loop
    vertex 3.000000 1.049191 0.620121
    vertex 3.000000 1.089244 0.546716
    vertex 1.500000 1.082110 0.560704
  endloop
endfacet
facet normal -0.000290 0.903075 0.429483
  outer loop
    vertex 1.500000 1.082110 0.560704
    vertex 3.000000 1.089244 0.546716
    vertex 1.500000 1.117851 0.485551
  endloop
endfacet
facet normal 0.000297 0.908602 0.417662
  outer loop
    vertex 3.000000 1.089244 0.546716
    vertex 3.000000 1.124170 0.470737
    vertex 1.500000 1.117851 0.485551
  endloop
endfacet
facet normal -0.000296 0.930278 0.366855
  outer loop
    vertex 1.500000 1.117851 0.485551
    vertex 3.000000 1.124170 0.470737
    vertex 1.500000 1.148381 0.408135
  endloop
endfacet
facet normal 0.000303 0.935103 0.354374
  outer loop
    vertex 3.000000 1.124170 0.470737
    vertex 3.000000 1.153803 0.392543
    vertex 1.500000 1.148381 0.408135
  endloop
endfacet
facet normal -0.000301 0.953145 0.302515
  outer loop
    vertex 1.500000 1.148381 0.408135
    vertex 3.000000 1.153803 0.392543
    vertex 1.500000 1.173555 0.328815
  endloop
endfacet
facet normal 0.000309 0.957202 0.289419
  outer loop
    vertex 3.000000 1.153803 0.392543
    vertex 3.000000 1.178005 0.312500
    vertex 1.500000 1.173555 0.328815
  endloop
endfacet
facet normal 0.000000 0.000000 -1.000000
  outer loop
    vertex 0.000000 0.906250 0.312500
    vertex 0.000000 1.178005 0.312500
    vertex 3.000000 0.906250 0.312500
  endloop
endfacet
facet normal 0.000000 0.000000 -1.000000
  outer loop
    vertex 3.000000 0.906250 0.312500
    vertex 0.000000 1.178005 0.312500
    vertex 3.000000 1.178005 0.312500
  endloop
endfacet
facet normal 1.000000 0.000000 0.000000
  outer loop
    vertex 3.000000 1.178005 0.312500
    vertex 3.000000 1.153803 0.392543
    vertex 3.000000 0.906250 0.312500
  endloop
endfacet
facet normal 1.000000 0.000000 0.000000
  outer loop
    vertex 3.000000 0.906250 0.312500
    vertex 3.000000 1.153803 0.392543
    vertex 3.000000 1.124170 0.470737
  endloop
endfacet
facet normal 1.000000 0.000000 0.000000
  outer loop
    vertex 3.000000 0.906250 0.312500
    vertex 3.000000 1.124170 0.470737
    vertex 3.000000 1.089244 0.546716
  endloop
endfacet
facet normal 1.000000 0.000000 0.000000
  outer loop
    vertex 3.000000 1.089244 0.546716
    vertex 3.000000 1.049191 0.620121
    vertex 3.000000 0.906250 0.312500
  endloop
endfacet
facet normal 1.000000 0.000000 0.000000
  outer loop
    vertex 3.000000 0.906250 0.312500
    vertex 3.000000 1.049191 0.620121
    vertex 3.000000 1.004199 0.690606
  endloop
endfacet
facet normal 1.000000 0.000000 0.000000
  outer loop
    vertex 3.000000 0.906250 0.312500
    vertex 3.000000 1.004199 0.690606
    vertex 3.000000 0.954479 0.757840
  endloop
endfacet
facet normal 1.000000 0.000000 0.000000
  outer loop
    vertex 3.000000 0.954479 0.757840
    vertex 3.000000 0.900265 0.821507
    vertex 3.000000 0.906250 0.312500
  endloop
endfacet
facet normal 1.000000 0.000000 0.000000
  outer loop
    vertex 3.000000 0.906250 0.312500
    vertex 3.000000 0.900265 0.821507
    vertex 3.000000 0.841814 0.881306
  endloop
endfacet
facet normal 1.000000 0.000000 0.000000
  outer loop
    vertex 3.000000 0.906250 0.312500
    vertex 3.000000 0.841814 0.881306
    vertex 3.000000 0.779399 0.936957
  endloop
endfacet
facet normal 1.000000 0.000000 0.000000
  outer loop
    vertex 3.000000 0.779399 0.936957
    vertex 3.000000 0.713316 0.988196
    vertex 3.000000 0.906250 0.312500
  endloop
endfacet
facet normal 1.000000 0.000000 0.000000
  outer loop
    vertex 3.000000 0.906250 0.312500
    vertex 3.000000 0.713316 0.988196
    vertex 3.000000 0.643874 1.034784
  endloop
endfacet
facet normal 1.000000 0.000000 0.000000
  outer loop
    vertex 3.000000 0.906250 0.312500
    vertex 3.000000 0.643874 1.034784
    vertex 3.000000 0.571401 1.076500
  endloop
endfacet
facet normal 1.000000 0.000000 0.000000
  outer loop
    vertex 3.000000 0.571401 1.076500
    vertex 3.000000 0.496239 1.113148
    vertex 3.000000 0.906250 0.312500
  endloop
endfacet
facet normal 1.000000 0.000000 0.000000
  outer loop
    vertex 3.000000 0.906250 0.312500
    vertex 3.000000 0.496239 1.113148
    vertex 3.000000 0.418740 1.144556
  endloop
endfacet
facet normal 1.000000 0.000000 0.000000
  outer loop
    vertex 3.000000 0.906250 0.312500
    vertex 3.000000 0.418740 1.144556
    vertex 3.000000 0.339270 1.170576
  endloop
endfacet
facet normal 1.000000 0.000000 0.000000
  outer loop
    vertex 3.000000 0.339270 1.170576
    vertex 3.000000 0.258202 1.191085
    vertex 3.000000 0.906250 0.312500
  endloop
endfacet
facet normal 1.000000 0.000000 0.000000
  outer loop
    vertex 3.000000 0.906250 0.312500
    vertex 3.000000 0.258202 1.191085
    vertex 3.000000 0.175920 1.205987
  endloop
endfacet
facet normal 1.000000 0.000000 0.000000
  outer loop
    vertex 3.000000 0.906250 0.312500
    vertex 3.000000 0.175920 1.205987
    vertex 3.000000 0.092808 1.215211
  endloop
endfacet
facet normal 1.000000 0.000000 0.000000
  outer loop
    vertex 3.000000 0.092808 1.215211
    vertex 3.000000 0.009261 1.218715
    vertex 3.000000 0.906250 0.312500
  endloop
endfacet
facet normal 1.000000 0.000000 0.000000
  outer loop
    vertex 3.000000 0.906250 0.312500
    vertex 3.000000 0.009261 1.218715
    vertex 3.000000 -0.074331 1.216481
  endloop
endfacet
facet normal 1.000000 0.000000 0.000000
  outer loop
    vertex 3.000000 0.906250 0.312500
    vertex 3.000000 -0.074331 1.216481
    vertex 3.000000 -0.157573 1.208521
  endloop
endfacet
facet normal 1.000000 0.000000 0.000000
  outer loop
    vertex 3.000000 -0.157573 1.208521
    vertex 3.000000 -0.240072 1.194871
    vertex 3.000000 0.906250 0.312500
  endloop
endfacet
facet normal 1.000000 0.000000 0.000000
  outer loop
    vertex 3.000000 0.906250 0.312500
    vertex 3.000000 -0.240072 1.194871
    vertex 3.000000 -0.321442 1.175596
  endloop
endfacet
facet normal 1.000000 0.000000 0.000000
  outer loop
    vertex 3.000000 0.906250 0.312500
    vertex 3.000000 -0.321442 1.175596
    vertex 3.000000 -0.401298 1.150787
  endloop
endfacet
facet normal 1.000000 0.000000 0.000000
  outer loop
    vertex 3.000000 -0.401298 1.150787
    vertex 3.000000 -0.479266 1.120561
    vertex 3.000000 0.906250 0.312500
  endloop
endfacet
facet normal 1.000000 0.000000 0.000000
  outer loop
    vertex 3.000000 0.906250 0.312500
    vertex 3.000000 -0.479266 1.120561
    vertex 3.000000 -0.554977 1.085059
  endloop
endfacet
facet normal 1.000000 0.000000 0.000000
  outer loop
    vertex 3.000000 0.906250 0.312500
    vertex 3.000000 -0.554977 1.085059
    vertex 3.000000 -0.554977 -1.085059
  endloop
endfacet
facet normal 1.000000 0.000000 -0.000000
  outer loop
    vertex 3.000000 -0.554977 -1.085059
    vertex 3.000000 -0.554977 1.085059
    vertex 3.000000 -0.628075 -1.044449
  endloop
endfacet
facet normal 1.000000 0.000000 0.000000
  outer loop
    vertex 3.000000 -0.628075 -1.044449
    vertex 3.000000 -0.554977 1.085059
    vertex 3.000000 -0.628075 1.044449
  endloop
endfacet
facet normal 1.000000 0.000000 -0.000000
  outer loop
    vertex 3.000000 -0.628075 -1.044449
    vertex 3.000000 -0.628075 1.044449
    vertex 3.000000 -0.698216 -0.998922
  endloop
endfacet
facet normal 1.000000 0.000000 0.000000
  outer loop
    vertex 3.000000 -0.698216 -0.998922
    vertex 3.000000 -0.628075 1.044449
    vertex 3.000000 -0.698216 0.998922
  endloop
endfacet
facet normal 1.000000 0.000000 -0.000000
  outer loop
    vertex 3.000000 -0.698216 -0.998922
    vertex 3.000000 -0.698216 0.998922
    vertex 3.000000 -0.765071 -0.948693
  endloop
endfacet
facet normal 1.000000 0.000000 0.000000
  outer loop
    vertex 3.000000 -0.765071 -0.948693
    vertex 3.000000 -0.698216 0.998922
    vertex 3.000000 -0.765071 0.948693
  endloop
endfacet
facet normal 1.000000 0.000000 -0.000000
  outer loop
    vertex 3.000000 -0.765071 -0.948693
    vertex 3.000000 -0.765071 0.948693
    vertex 3.000000 -0.828324 -0.893997
  endloop
endfacet
facet normal 1.000000 0.000000 0.000000
  outer loop
    vertex 3.000000 -0.828324 -0.893997
    vertex 3.000000 -0.765071 0.948693
    vertex 3.000000 -0.828324 0.893997
  endloop
endfacet
facet normal 1.000000 0.000000 -0.000000
  outer loop
    vertex 3.000000 -0.828324 -0.893997
    vertex 3.000000 -0.828324 0.893997
    vertex 3.000000 -0.887677 -0.835093
  endloop
endfacet
facet normal 1.000000 0.000000 0.000000
  outer loop
    vertex 3.000000 -0.887677 -0.835093
    vertex 3.000000 -0.828324 0.893997
    vertex 3.000000 -0.887677 0.835093
  endloop
endfacet
facet normal 1.000000 0.000000 -0.000000
  outer loop
    vertex 3.000000 -0.887677 -0.835093
    vertex 3.000000 -0.887677 0.835093
    vertex 3.000000 -0.942852 -0.772258
  endloop
endfacet
facet normal 1.000000 0.000000 0.000000
  outer loop
    vertex 3.000000 -0.942852 -0.772258
    vertex 3.000000 -0.887677 0.835093
    vertex 3.000000 -0.942852 0.772258
  endloop
endfacet
facet normal 1.000000 0.000000 -0.000000
  outer loop
    vertex 3.000000 -0.942852 -0.772258
    vertex 3.000000 -0.942852 0.772258
    vertex 3.000000 -0.993588 -0.705787
  endloop
endfacet
facet normal 1.000000 0.000000 0.000000
  outer loop
    vertex 3.000000 -0.993588 -0.705787
    vertex 3.000000 -0.942852 0.772258
    vertex 3.000000 -0.993588 0.705787
  endloop
endfacet
facet normal 1.000000 0.000000 -0.000000
  outer loop
    vertex 3.000000 -0.993588 -0.705787
    vertex 3.000000 -0.993588 0.705787
    vertex 3.000000 -1.039646 -0.635993
  endloop
endfacet
facet normal 1.000000 0.000000 0.000000
  outer loop
    vertex 3.000000 -1.039646 -0.635993
    vertex 3.000000 -0.993588 0.705787
    vertex 3.000000 -1.039646 0.635993
  endloop
endfacet
facet normal 1.000000 0.000000 -0.000000
  outer loop
    vertex 3.000000 -1.039646 -0.635993
    vertex 3.000000 -1.039646 0.635993
    vertex 3.000000 -1.080811 -0.563205
  endloop
endfacet
facet normal 1.000000 0.000000 0.000000
  outer loop
    vertex 3.000000 -1.080811 -0.563205
    vertex 3.000000 -1.039646 0.635993
    vertex 3.000000 -1.080811 0.563205
  endloop
endfacet
facet normal 1.000000 0.000000 -0.000000
  outer loop
    vertex 3.000000 -1.080811 -0.563205
    vertex 3.000000 -1.080811 0.563205
    vertex 3.000000 -1.116887 -0.487766
  endloop
endfacet
facet normal 1.000000 0.000000 0.000000
  outer loop
    vertex 3.000000 -1.116887 -0.487766
    vertex 3.000000 -1.080811 0.563205
    vertex 3.000000 -1.116887 0.487766
  endloop
endfacet
facet normal 1.000000 0.000000 -0.000000
  outer loop
    vertex 3.000000 -1.116887 -0.487766
    vertex 3.000000 -1.116887 0.487766
    vertex 3.000000 -1.147705 -0.410031
  endloop
endfacet
facet normal 1.000000 0.000000 0.000000
  outer loop
    vertex 3.000000 -1.147705 -0.410031
    vertex 3.000000 -1.116887 0.487766
    vertex 3.000000 -1.147705 0.410031
  endloop
endfacet
facet normal 1.000000 0.000000 -0.000000
  outer loop
    vertex 3.000000 -1.147705 -0.410031
    vertex 3.000000 -1.147705 0.410031
    vertex 3.000000 -1.173120 -0.330365
  endloop
endfacet
facet normal 1.000000 0.000000 0.000000
  outer loop
    vertex 3.000000 -1.173120 -0.330365
    vertex 3.000000 -1.147705 0.410031
    vertex 3.000000 -1.173120 0.330365
  endloop
endfacet
facet normal 1.000000 0.000000 -0.000000
  outer loop
    vertex 3.000000 -1.173120 -0.330365
    vertex 3.000000 -1.173120 0.330365
    vertex 3.000000 -1.193012 -0.249145
  endloop
endfacet
facet normal 1.000000 0.000000 0.000000
  outer loop
    vertex 3.000000 -1.193012 -0.249145
    vertex 3.000000 -1.173120 0.330365
    vertex 3.000000 -1.193012 0.249145
  endloop
endfacet
facet normal 1.000000 0.000000 -0.000000
  outer loop
    vertex 3.000000 -1.193012 -0.249145
    vertex 3.000000 -1.193012 0.249145
    vertex 3.000000 -1.207289 -0.166751
  endloop
endfacet
facet normal 1.000000 0.000000 0.000000
  outer loop
    vertex 3.000000 -1.207289 -0.166751
    vertex 3.000000 -1.193012 0.249145
    vertex 3.000000 -1.207289 0.166751
  endloop
endfacet
facet normal 1.000000 0.000000 -0.000000
  outer loop
    vertex 3.000000 -1.207289 -0.166751
    vertex 3.000000 -1.207289 0.166751
    vertex 3.000000 -1.215881 -0.083572
  endloop
endfacet
facet normal 1.000000 0.000000 0.000000
  outer loop
    vertex 3.000000 -1.215881 -0.083572
    vertex 3.000000 -1.207289 0.166751
    vertex 3.000000 -1.215881 0.083572
  endloop
endfacet
facet normal 1.000000 0.000000 -0.000000
  outer loop
    vertex 3.000000 -1.215881 -0.083572
    vertex 3.000000 -1.215881 0.083572
    vertex 3.000000 -1.218750 0.000000
  endloop
endfacet
facet normal 1.000000 0.000000 0.000000
  outer loop
    vertex 3.000000 0.906250 0.312500
    vertex 3.000000 -0.554977 -1.085059
    vertex 3.000000 0.906250 -0.312500
  endloop
endfacet
facet normal 1.000000 0.000000 0.000000
  outer loop
    vertex 3.000000 0.906250 -0.312500
    vertex 3.000000 -0.554977 -1.085059
    vertex 3.000000 -0.479266 -1.120561
  endloop
endfacet
facet normal 1.000000 0.000000 0.000000
  outer loop
    vertex 3.000000 0.906250 -0.312500
    vertex 3.000000 -0.479266 -1.120561
    vertex 3.000000 -0.401298 -1.150787
  endloop
endfacet
facet normal 1.000000 -0.000000 0.000000
  outer loop
    vertex 3.000000 -0.401298 -1.150787
    vertex 3.000000 -0.321442 -1.175596
    vertex 3.000000 0.906250 -0.312500
  endloop
endfacet
facet normal 1.000000 0.000000 0.000000
  outer loop
    vertex 3.000000 0.906250 -0.312500
    vertex 3.000000 -0.321442 -1.175596
    vertex 3.000000 -0.240072 -1.194871
  endloop
endfacet
facet normal 1.000000 0.000000 0.000000
  outer loop
    vertex 3.000000 0.906250 -0.312500
    vertex 3.000000 -0.240072 -1.194871
    vertex 3.000000 -0.157573 -1.208521
  endloop
endfacet
facet normal 1.000000 -0.000000 0.000000
  outer loop
    vertex 3.000000 -0.157573 -1.208521
    vertex 3.000000 -0.074331 -1.216481
    vertex 3.000000 0.906250 -0.312500
  endloop
endfacet
facet normal 1.000000 0.000000 0.000000
  outer loop
    vertex 3.000000 0.906250 -0.312500
    vertex 3.000000 -0.074331 -1.216481
    vertex 3.000000 0.009261 -1.218715
  endloop
endfacet
facet normal 1.000000 0.000000 0.000000
  outer loop
    vertex 3.000000 0.906250 -0.312500
    vertex 3.000000 0.009261 -1.218715
    vertex 3.000000 0.092808 -1.215211
  endloop
endfacet
facet normal 1.000000 0.000000 0.000000
  outer loop
    vertex 3.000000 0.092808 -1.215211
    vertex 3.000000 0.175920 -1.205987
    vertex 3.000000 0.906250 -0.312500
  endloop
endfacet
facet normal 1.000000 0.000000 0.000000
  outer loop
    vertex 3.000000 0.906250 -0.312500
    vertex 3.000000 0.175920 -1.205987
    vertex 3.000000 0.258202 -1.191085
  endloop
endfacet
facet normal 1.000000 0.000000 0.000000
  outer loop
    vertex 3.000000 0.906250 -0.312500
    vertex 3.000000 0.258202 -1.191085
    vertex 3.000000 0.339270 -1.170576
  endloop
endfacet
facet normal 1.000000 0.000000 0.000000
  outer loop
    vertex 3.000000 0.339270 -1.170576
    vertex 3.000000 0.418740 -1.144556
    vertex 3.000000 0.906250 -0.312500
  endloop
endfacet
facet normal 1.000000 0.000000 0.000000
  outer loop
    vertex 3.000000 0.906250 -0.312500
    vertex 3.000000 0.418740 -1.144556
    vertex 3.000000 0.496239 -1.113148
  endloop
endfacet
facet normal 1.000000 0.000000 0.000000
  outer loop
    vertex 3.000000 0.906250 -0.312500
    vertex 3.000000 0.496239 -1.113148
    vertex 3.000000 0.571401 -1.076500
  endloop
endfacet
facet normal 1.000000 0.000000 0.000000
  outer loop
    vertex 3.000000 0.571401 -1.076500
    vertex 3.000000 0.643874 -1.034784
    vertex 3.000000 0.906250 -0.312500
  endloop
endfacet
facet normal 1.000000 0.000000 0.000000
  outer loop
    vertex 3.000000 0.906250 -0.312500
    vertex 3.000000 0.643874 -1.034784
    vertex 3.000000 0.713316 -0.988196
  endloop
endfacet
facet normal 1.000000 0.000000 0.000000
  outer loop
    vertex 3.000000 0.906250 -0.312500
    vertex 3.000000 0.713316 -0.988196
    vertex 3.000000 0.779399 -0.936957
  endloop
endfacet
facet normal 1.000000 0.000000 0.000000
  outer loop
    vertex 3.000000 0.779399 -0.936957
    vertex 3.000000 0.841814 -0.881306
    vertex 3.000000 0.906250 -0.312500
  endloop
endfacet
facet normal 1.000000 0.000000 0.000000
  outer loop
    vertex 3.000000 0.906250 -0.312500
    vertex 3.000000 0.841814 -0.881306
    vertex 3.000000 0.900265 -0.821507
  endloop
endfacet
facet normal 1.000000 0.000000 0.000000
  outer loop
    vertex 3.000000 0.906250 -0.312500
    vertex 3.000000 0.900265 -0.821507
    vertex 3.000000 0.954479 -0.757840
  endloop
endfacet
facet normal 1.000000 0.000000 -0.000000
  outer loop
    vertex 3.000000 0.954479 -0.757840
    vertex 3.000000 1.004199 -0.690606
    vertex 3.000000 0.906250 -0.312500
  endloop
endfacet
facet normal 1.000000 0.000000 0.000000
  outer loop
    vertex 3.000000 0.906250 -0.312500
    vertex 3.000000 1.004199 -0.690606
    vertex 3.000000 1.049191 -0.620121
  endloop
endfacet
facet normal 1.000000 0.000000 0.000000
  outer loop
    vertex 3.000000 0.906250 -0.312500
    vertex 3.000000 1.049191 -0.620121
    vertex 3.000000 1.089244 -0.546716
  endloop
endfacet
facet normal 1.000000 0.000000 -0.000000
  outer loop
    vertex 3.000000 1.089244 -0.546716
    vertex 3.000000 1.124170 -0.470737
    vertex 3.000000 0.906250 -0.312500
  endloop
endfacet
facet normal 1.000000 0.000000 0.000000
  outer loop
    vertex 3.000000 0.906250 -0.312500
    vertex 3.000000 1.124170 -0.470737
    vertex 3.000000 1.153803 -0.392543
  endloop
endfacet
facet normal 1.000000 -0.000000 0.000000
  outer loop
    vertex 3.000000 0.906250 -0.312500
    vertex 3.000000 1.153803 -0.392543
    vertex 3.000000 1.178005 -0.312500
  endloop
endfacet
facet normal -1.000000 0.000000 0.000000
  outer loop
    vertex 0.000000 1.178005 0.312500
    vertex 0.000000 0.906250 0.312500
    vertex 0.000000 1.153803 0.392543
  endloop
endfacet
facet normal -1.000000 -0.000000 0.000000
  outer loop
    vertex 0.000000 1.153803 0.392543
    vertex 0.000000 0.906250 0.312500
    vertex 0.000000 1.124170 0.470737
  endloop
endfacet
facet normal -1.000000 -0.000000 0.000000
  outer loop
    vertex 0.000000 1.124170 0.470737
    vertex 0.000000 0.906250 0.312500
    vertex 0.000000 1.089244 0.546716
  endloop
endfacet
facet normal -1.000000 -0.000000 0.000000
  outer loop
    vertex 0.000000 1.089244 0.546716
    vertex 0.000000 0.906250 0.312500
    vertex 0.000000 1.049191 0.620121
  endloop
endfacet
facet normal -1.000000 -0.000000 0.000000
  outer loop
    vertex 0.000000 1.049191 0.620121
    vertex 0.000000 0.906250 0.312500
    vertex 0.000000 1.004199 0.690606
  endloop
endfacet
facet normal -1.000000 -0.000000 0.000000
  outer loop
    vertex 0.000000 1.004199 0.690606
    vertex 0.000000 0.906250 0.312500
    vertex 0.000000 0.954479 0.757840
  endloop
endfacet
facet normal -1.000000 -0.000000 0.000000
  outer loop
    vertex 0.000000 0.954479 0.757840
    vertex 0.000000 0.906250 0.312500
    vertex 0.000000 0.900265 0.821507
  endloop
endfacet
facet normal -1.000000 -0.000000 -0.000000
  outer loop
    vertex 0.000000 0.900265 0.821507
    vertex 0.000000 0.906250 0.312500
    vertex 0.000000 0.841814 0.881306
  endloop
endfacet
facet normal -1.000000 -0.000000 -0.000000
  outer loop
    vertex 0.000000 0.841814 0.881306
    vertex 0.000000 0.906250 0.312500
    vertex 0.000000 0.779399 0.936957
  endloop
endfacet
facet normal -1.000000 -0.000000 -0.000000
  outer loop
    vertex 0.000000 0.779399 0.936957
    vertex 0.000000 0.906250 0.312500
    vertex 0.000000 0.713316 0.988196
  endloop
endfacet
facet normal -1.000000 -0.000000 -0.000000
  outer loop
    vertex 0.000000 0.713316 0.988196
    vertex 0.000000 0.906250 0.312500
    vertex 0.000000 0.643874 1.034784
  endloop
endfacet
facet normal -1.000000 -0.000000 -0.000000
  outer loop
    vertex 0.000000 0.643874 1.034784
    vertex 0.000000 0.906250 0.312500
    vertex 0.000000 0.571401 1.076500
  endloop
endfacet
facet normal -1.000000 -0.000000 -0.000000
  outer loop
    vertex 0.000000 0.571401 1.076500
    vertex 0.000000 0.906250 0.312500
    vertex 0.000000 0.496239 1.113148
  endloop
endfacet
facet normal -1.000000 -0.000000 -0.000000
  outer loop
    vertex 0.000000 0.496239 1.113148
    vertex 0.000000 0.906250 0.312500
    vertex 0.000000 0.418740 1.144556
  endloop
endfacet
facet normal -1.000000 -0.000000 -0.000000
  outer loop
    vertex 0.000000 0.418740 1.144556
    vertex 0.000000 0.906250 0.312500
    vertex 0.000000 0.339270 1.170576
  endloop
endfacet
facet normal -1.000000 -0.000000 -0.000000
  outer loop
    vertex 0.000000 0.339270 1.170576
    vertex 0.000000 0.906250 0.312500
    vertex 0.000000 0.258202 1.191085
  endloop
endfacet
facet normal -1.000000 -0.000000 -0.000000
  outer loop
    vertex 0.000000 0.258202 1.191085
    vertex 0.000000 0.906250 0.312500
    vertex 0.000000 0.175920 1.205987
  endloop
endfacet
facet normal -1.000000 -0.000000 -0.000000
  outer loop
    vertex 0.000000 0.175920 1.205987
    vertex 0.000000 0.906250 0.312500
    vertex 0.000000 0.092808 1.215211
  endloop
endfacet
facet normal -1.000000 -0.000000 -0.000000
  outer loop
    vertex 0.000000 0.092808 1.215211
    vertex 0.000000 0.906250 0.312500
    vertex 0.000000 0.009261 1.218715
  endloop
endfacet
facet normal -1.000000 0.000000 -0.000000
  outer loop
    vertex 0.000000 0.009261 1.218715
    vertex 0.000000 0.906250 0.312500
    vertex 0.000000 -0.074331 1.216481
  endloop
endfacet
facet normal -1.000000 0.000000 -0.000000
  outer loop
    vertex 0.000000 -0.074331 1.216481
    vertex 0.000000 0.906250 0.312500
    vertex 0.000000 -0.157573 1.208521
  endloop
endfacet
facet normal -1.000000 0.000000 -0.000000
  outer loop
    vertex 0.000000 -0.157573 1.208521
    vertex 0.000000 0.906250 0.312500
    vertex 0.000000 -0.240072 1.194871
  endloop
endfacet
facet normal -1.000000 0.000000 -0.000000
  outer loop
    vertex 0.000000 -0.240072 1.194871
    vertex 0.000000 0.906250 0.312500
    vertex 0.000000 -0.321442 1.175596
  endloop
endfacet
facet normal -1.000000 0.000000 -0.000000
  outer loop
    vertex 0.000000 -0.321442 1.175596
    vertex 0.000000 0.906250 0.312500
    vertex 0.000000 -0.401298 1.150787
  endloop
endfacet
facet normal -1.000000 0.000000 -0.000000
  outer loop
    vertex 0.000000 -0.401298 1.150787
    vertex 0.000000 0.906250 0.312500
    vertex 0.000000 -0.479266 1.120561
  endloop
endfacet
facet normal -1.000000 0.000000 -0.000000
  outer loop
    vertex 0.000000 -0.479266 1.120561
    vertex 0.000000 0.906250 0.312500
    vertex 0.000000 -0.554977 1.085059
  endloop
endfacet
facet normal -1.000000 0.000000 0.000000
  outer loop
    vertex 0.000000 -0.554977 1.085059
    vertex 0.000000 0.906250 0.312500
    vertex 0.000000 0.906250 -0.312500
  endloop
endfacet
facet normal -1.000000 0.000000 0.000000
  outer loop
    vertex 0.000000 -0.554977 1.085059
    vertex 0.000000 0.906250 -0.312500
    vertex 0.000000 -0.554977 -1.085059
  endloop
endfacet
facet normal -1.000000 0.000000 0.000000
  outer loop
    vertex 0.000000 -0.554977 -1.085059
    vertex 0.000000 0.906250 -0.312500
    vertex 0.000000 -0.479266 -1.120561
  endloop
endfacet
facet normal -1.000000 0.000000 0.000000
  outer loop
    vertex 0.000000 -0.479266 -1.120561
    vertex 0.000000 0.906250 -0.312500
    vertex 0.000000 -0.401298 -1.150787
  endloop
endfacet
facet normal -1.000000 0.000000 0.000000
  outer loop
    vertex 0.000000 -0.401298 -1.150787
    vertex 0.000000 0.906250 -0.312500
    vertex 0.000000 -0.321442 -1.175596
  endloop
endfacet
facet normal -1.000000 0.000000 0.000000
  outer loop
    vertex 0.000000 -0.321442 -1.175596
    vertex 0.000000 0.906250 -0.312500
    vertex 0.000000 -0.240072 -1.194871
  endloop
endfacet
facet normal -1.000000 0.000000 0.000000
  outer loop
    vertex 0.000000 -0.240072 -1.194871
    vertex 0.000000 0.906250 -0.312500
    vertex 0.000000 -0.157573 -1.208521
  endloop
endfacet
facet normal -1.000000 0.000000 0.000000
  outer loop
    vertex 0.000000 -0.157573 -1.208521
    vertex 0.000000 0.906250 -0.312500
    vertex 0.000000 -0.074331 -1.216481
  endloop
endfacet
facet normal -1.000000 0.000000 0.000000
  outer loop
    vertex 0.000000 -0.074331 -1.216481
    vertex 0.000000 0.906250 -0.312500
    vertex 0.000000 0.009261 -1.218715
  endloop
endfacet
facet normal -1.000000 0.000000 0.000000
  outer loop
    vertex 0.000000 0.009261 -1.218715
    vertex 0.000000 0.906250 -0.312500
    vertex 0.000000 0.092808 -1.215211
  endloop
endfacet
facet normal -1.000000 0.000000 0.000000
  outer loop
    vertex 0.000000 0.092808 -1.215211
    vertex 0.000000 0.906250 -0.312500
    vertex 0.000000 0.175920 -1.205987
  endloop
endfacet
facet normal -1.000000 0.000000 0.000000
  outer loop
    vertex 0.000000 0.175920 -1.205987
    vertex 0.000000 0.906250 -0.312500
    vertex 0.000000 0.258202 -1.191085
  endloop
endfacet
facet normal -1.000000 0.000000 0.000000
  outer loop
    vertex 0.000000 0.258202 -1.191085
    vertex 0.000000 0.906250 -0.312500
    vertex 0.000000 0.339270 -1.170576
  endloop
endfacet
facet normal -1.000000 0.000000 0.000000
  outer loop
    vertex 0.000000 0.339270 -1.170576
    vertex 0.000000 0.906250 -0.312500
    vertex 0.000000 0.418740 -1.144556
  endloop
endfacet
facet normal -1.000000 0.000000 0.000000
  outer loop
    vertex 0.000000 0.418740 -1.144556
    vertex 0.000000 0.906250 -0.312500
    vertex 0.000000 0.496239 -1.113148
  endloop
endfacet
facet normal -1.000000 0.000000 0.000000
  outer loop
    vertex 0.000000 0.496239 -1.113148
    vertex 0.000000 0.906250 -0.312500
    vertex 0.000000 0.571401 -1.076500
  endloop
endfacet
facet normal -1.000000 0.000000 0.000000
  outer loop
    vertex 0.000000 0.571401 -1.076500
    vertex 0.000000 0.906250 -0.312500
    vertex 0.000000 0.643874 -1.034784
  endloop
endfacet
facet normal -1.000000 0.000000 0.000000
  outer loop
    vertex 0.000000 0.643874 -1.034784
    vertex 0.000000 0.906250 -0.312500
    vertex 0.000000 0.713316 -0.988196
  endloop
endfacet
facet normal -1.000000 0.000000 0.000000
  outer loop
    vertex 0.000000 0.713316 -0.988196
    vertex 0.000000 0.906250 -0.312500
    vertex 0.000000 0.779399 -0.936957
  endloop
endfacet
facet normal -1.000000 0.000000 0.000000
  outer loop
    vertex 0.000000 0.779399 -0.936957
    vertex 0.000000 0.906250 -0.312500
    vertex 0.000000 0.841814 -0.881306
  endloop
endfacet
facet normal -1.000000 0.000000 0.000000
  outer loop
    vertex 0.000000 0.841814 -0.881306
    vertex 0.000000 0.906250 -0.312500
    vertex 0.000000 0.900265 -0.821507
  endloop
endfacet
facet normal -1.000000 0.000000 0.000000
  outer loop
    vertex 0.000000 0.900265 -0.821507
    vertex 0.000000 0.906250 -0.312500
    vertex 0.000000 0.954479 -0.757840
  endloop
endfacet
facet normal -1.000000 0.000000 0.000000
  outer loop
    vertex 0.000000 0.954479 -0.757840
    vertex 0.000000 0.906250 -0.312500
    vertex 0.000000 1.004199 -0.690606
  endloop
endfacet
facet normal -1.000000 0.000000 0.000000
  outer loop
    vertex 0.000000 1.004199 -0.690606
    vertex 0.000000 0.906250 -0.312500
    vertex 0.000000 1.049191 -0.620121
  endloop
endfacet
facet normal -1.000000 0.000000 0.000000
  outer loop
    vertex 0.000000 1.049191 -0.620121
    vertex 0.000000 0.906250 -0.312500
    vertex 0.000000 1.089244 -0.546716
  endloop
endfacet
facet normal -1.000000 0.000000 0.000000
  outer loop
    vertex 0.000000 1.089244 -0.546716
    vertex 0.000000 0.906250 -0.312500
    vertex 0.000000 1.124170 -0.470737
  endloop
endfacet
facet normal -1.000000 0.000000 0.000000
  outer loop
    vertex 0.000000 1.124170 -0.470737
    vertex 0.000000 0.906250 -0.312500
    vertex 0.000000 1.153803 -0.392543
  endloop
endfacet
facet normal -1.000000 0.000000 0.000000
  outer loop
    vertex 0.000000 1.153803 -0.392543
    vertex 0.000000 0.906250 -0.312500
    vertex 0.000000 1.178005 -0.312500
  endloop
endfacet
facet normal -1.000000 0.000000 -0.000000
  outer loop
    vertex 0.000000 -0.554977 1.085059
    vertex 0.000000 -0.554977 -1.085059
    vertex 0.000000 -0.628075 1.044449
  endloop
endfacet
facet normal -1.000000 0.000000 0.000000
  outer loop
    vertex 0.000000 -0.628075 1.044449
    vertex 0.000000 -0.554977 -1.085059
    vertex 0.000000 -0.628075 -1.044449
  endloop
endfacet
facet normal -1.000000 0.000000 -0.000000
  outer loop
    vertex 0.000000 -0.628075 1.044449
    vertex 0.000000 -0.628075 -1.044449
    vertex 0.000000 -0.698216 0.998922
  endloop
endfacet
facet normal -1.000000 0.000000 0.000000
  outer loop
    vertex 0.000000 -0.698216 0.998922
    vertex 0.000000 -0.628075 -1.044449
    vertex 0.000000 -0.698216 -0.998922
  endloop
endfacet
facet normal -1.000000 0.000000 -0.000000
  outer loop
    vertex 0.000000 -0.698216 0.998922
    vertex 0.000000 -0.698216 -0.998922
    vertex 0.000000 -0.765071 0.948693
  endloop
endfacet
facet normal -1.000000 0.000000 0.000000
  outer loop
    vertex 0.000000 -0.765071 0.948693
    vertex 0.000000 -0.698216 -0.998922
    vertex 0.000000 -0.765071 -0.948693
  endloop
endfacet
facet normal -1.000000 0.000000 -0.000000
  outer loop
    vertex 0.000000 -0.765071 0.948693
    vertex 0.000000 -0.765071 -0.948693
    vertex 0.000000 -0.828324 0.893997
  endloop
endfacet
facet normal -1.000000 0.000000 0.000000
  outer loop
    vertex 0.000000 -0.828324 0.893997
    vertex 0.000000 -0.765071 -0.948693
    vertex 0.000000 -0.828324 -0.893997
  endloop
endfacet
facet normal -1.000000 0.000000 -0.000000
  outer loop
    vertex 0.000000 -0.828324 0.893997
    vertex 0.000000 -0.828324 -0.893997
    vertex 0.000000 -0.887677 0.835093
  endloop
endfacet
facet normal -1.000000 0.000000 0.000000
  outer loop
    vertex 0.000000 -0.887677 0.835093
    vertex 0.000000 -0.828324 -0.893997
    vertex 0.000000 -0.887677 -0.835093
  endloop
endfacet
facet normal -1.000000 0.000000 -0.000000
  outer loop
    vertex 0.000000 -0.887677 0.835093
    vertex 0.000000 -0.887677 -0.835093
    vertex 0.000000 -0.942852 0.772258
  endloop
endfacet
facet normal -1.000000 0.000000 0.000000
  outer loop
    vertex 0.000000 -0.942852 0.772258
    vertex 0.000000 -0.887677 -0.835093
    vertex 0.000000 -0.942852 -0.772258
  endloop
endfacet
facet normal -1.000000 0.000000 -0.000000
  outer loop
    vertex 0.000000 -0.942852 0.772258
    vertex 0.000000 -0.942852 -0.772258
    vertex 0.000000 -0.993588 0.705787
  endloop
endfacet
facet normal -1.000000 0.000000 0.000000
  outer loop
    vertex 0.000000 -0.993588 0.705787
    vertex 0.000000 -0.942852 -0.772258
    vertex 0.000000 -0.993588 -0.705787
  endloop
endfacet
facet normal -1.000000 0.000000 -0.000000
  outer loop
    vertex 0.000000 -0.993588 0.705787
    vertex 0.000000 -0.993588 -0.705787
    vertex 0.000000 -1.039646 0.635993
  endloop
endfacet
facet normal -1.000000 0.000000 0.000000
  outer loop
    vertex 0.000000 -1.039646 0.635993
    vertex 0.000000 -0.993588 -0.705787
    vertex 0.000000 -1.039646 -0.635993
  endloop
endfacet
facet normal -1.000000 0.000000 -0.000000
  outer loop
    vertex 0.000000 -1.039646 0.635993
    vertex 0.000000 -1.039646 -0.635993
    vertex 0.000000 -1.080811 0.563205
  endloop
endfacet
facet normal -1.000000 0.000000 0.000000
  outer loop
    vertex 0.000000 -1.080811 0.563205
    vertex 0.000000 -1.039646 -0.635993
    vertex 0.000000 -1.080811 -0.563205
  endloop
endfacet
facet normal -1.000000 0.000000 -0.000000
  outer loop
    vertex 0.000000 -1.080811 0.563205
    vertex 0.000000 -1.080811 -0.563205
    vertex 0.000000 -1.116887 0.487766
  endloop
endfacet
facet normal -1.000000 0.000000 0.000000
  outer loop
    vertex 0.000000 -1.116887 0.487766
    vertex 0.000000 -1.080811 -0.563205
    vertex 0.000000 -1.116887 -0.487766
  endloop
endfacet
facet normal -1.000000 0.000000 -0.000000
  outer loop
    vertex 0.000000 -1.116887 0.487766
    vertex 0.000000 -1.116887 -0.487766
    vertex 0.000000 -1.147705 0.410031
  endloop
endfacet
facet normal -1.000000 0.000000 0.000000
  outer loop
    vertex 0.000000 -1.147705 0.410031
    vertex 0.000000 -1.116887 -0.487766
    vertex 0.000000 -1.147705 -0.410031
  endloop
endfacet
facet normal -1.000000 0.000000 -0.000000
  outer loop
    vertex 0.000000 -1.147705 0.410031
    vertex 0.000000 -1.147705 -0.410031
    vertex 0.000000 -1.173120 0.330365
  endloop
endfacet
facet normal -1.000000 0.000000 0.000000
  outer loop
    vertex 0.000000 -1.173120 0.330365
    vertex 0.000000 -1.147705 -0.410031
    vertex 0.000000 -1.173120 -0.330365
  endloop
endfacet
facet normal -1.000000 0.000000 -0.000000
  outer loop
    vertex 0.000000 -1.173120 0.330365
    vertex 0.000000 -1.173120 -0.330365
    vertex 0.000000 -1.193012 0.249145
  endloop
endfacet
facet normal -1.000000 0.000000 0.000000
  outer loop
    vertex 0.000000 -1.193012 0.249145
    vertex 0.000000 -1.173120 -0.330365
    vertex 0.000000 -1.193012 -0.249145
  endloop
endfacet
facet normal -1.000000 0.000000 -0.000000
  outer loop
    vertex 0.000000 -1.193012 0.249145
    vertex 0.000000 -1.193012 -0.249145
    vertex 0.000000 -1.207289 0.166751
  endloop
endfacet
facet normal -1.000000 0.000000 0.000000
  outer loop
    vertex 0.000000 -1.207289 0.166751
    vertex 0.000000 -1.193012 -0.249145
    vertex 0.000000 -1.207289 -0.166751
  endloop
endfacet
facet normal -1.000000 0.000000 -0.000000
  outer loop
    vertex 0.000000 -1.207289 0.166751
    vertex 0.000000 -1.207289 -0.166751
    vertex 0.000000 -1.215881 0.083572
  endloop
endfacet
facet normal -1.000000 0.000000 0.000000
  outer loop
    vertex 0.000000 -1.215881 0.083572
    vertex 0.000000 -1.207289 -0.166751
    vertex 0.000000 -1.215881 -0.083572
  endloop
endfacet
facet normal -1.000000 0.000000 -0.000000
  outer loop
    vertex 0.000000 -1.215881 0.083572
    vertex 0.000000 -1.215881 -0.083572
    vertex 0.000000 -1.218750 0.000000
  endloop
endfacet
endsolid 4e68a32c-dae1-49d2-9ba8-145cafc3bfc5-ascii.stl
