solid 76b4ca43-18ef-4614-8a6c-50139a5e2de8-ascii.stl
facet normal -0.000000 1.000000 0.000000
  outer loop
    vertex 0.000000 0.312500 0.093750
    vertex 18.000000 0.312500 0.093750
    vertex 0.000000 0.312500 -0.093750
  endloop
endfacet
facet normal 0.000000 1.000000 0.000000
  outer loop
    vertex 0.000000 0.312500 -0.093750
    vertex 18.000000 0.312500 0.093750
    vertex 18.000000 0.312500 -0.093750
  endloop
endfacet
facet normal 0.000000 0.000000 1.000000
  outer loop
    vertex 0.000000 0.312500 -0.093750
    vertex 18.000000 0.312500 -0.093750
    vertex 0.000000 0.395285 -0.093750
  endloop
endfacet
facet normal -0.000000 0.000000 1.000000
  outer loop
    vertex 0.000000 0.395285 -0.093750
    vertex 18.000000 0.312500 -0.093750
    vertex 18.000000 0.395285 -0.093750
  endloop
endfacet
facet normal -0.001031 0.939640 0.342162
  outer loop
    vertex 0.000000 0.363012 0.182377
    vertex 2.000000 0.373025 0.160907
    vertex 0.000000 0.395285 0.093750
  endloop
endfacet
facet normal 0.000000 0.949218 0.314620
  outer loop
    vertex 0.000000 0.395285 0.093750
    vertex 2.000000 0.373025 0.160907
    vertex 4.000000 0.373025 0.160907
  endloop
endfacet
facet normal 0.000000 0.949218 0.314620
  outer loop
    vertex 0.000000 0.395285 0.093750
    vertex 4.000000 0.373025 0.160907
    vertex 6.000000 0.373025 0.160907
  endloop
endfacet
facet normal 0.000000 0.866025 0.500000
  outer loop
    vertex 6.000000 0.373025 0.160907
    vertex 4.000000 0.373025 0.160907
    vertex 6.000000 0.325863 0.242596
  endloop
endfacet
facet normal 0.000000 0.866025 0.500000
  outer loop
    vertex 6.000000 0.373025 0.160907
    vertex 6.000000 0.325863 0.242596
    vertex 8.000000 0.325863 0.242596
  endloop
endfacet
facet normal 0.000000 0.727374 0.686242
  outer loop
    vertex 8.000000 0.325863 0.242596
    vertex 6.000000 0.325863 0.242596
    vertex 8.000000 0.261132 0.311206
  endloop
endfacet
facet normal 0.000000 0.727374 0.686242
  outer loop
    vertex 8.000000 0.325863 0.242596
    vertex 8.000000 0.261132 0.311206
    vertex 10.000000 0.261132 0.311206
  endloop
endfacet
facet normal 0.000000 0.549509 0.835488
  outer loop
    vertex 10.000000 0.261132 0.311206
    vertex 8.000000 0.261132 0.311206
    vertex 10.000000 0.182325 0.363038
  endloop
endfacet
facet normal 0.000000 0.549509 0.835488
  outer loop
    vertex 10.000000 0.261132 0.311206
    vertex 10.000000 0.182325 0.363038
    vertex 12.000000 0.182325 0.363038
  endloop
endfacet
facet normal 0.000000 0.342020 0.939693
  outer loop
    vertex 12.000000 0.182325 0.363038
    vertex 10.000000 0.182325 0.363038
    vertex 12.000000 0.093688 0.395299
  endloop
endfacet
facet normal 0.000000 0.342020 0.939693
  outer loop
    vertex 12.000000 0.182325 0.363038
    vertex 12.000000 0.093688 0.395299
    vertex 14.000000 0.093688 0.395299
  endloop
endfacet
facet normal 0.000000 0.116093 0.993238
  outer loop
    vertex 14.000000 0.093688 0.395299
    vertex 12.000000 0.093688 0.395299
    vertex 14.000000 0.000000 0.406250
  endloop
endfacet
facet normal 0.000000 0.116093 0.993238
  outer loop
    vertex 14.000000 0.093688 0.395299
    vertex 14.000000 0.000000 0.406250
    vertex 16.000000 -0.000000 0.406250
  endloop
endfacet
facet normal -0.000000 -0.116093 0.993238
  outer loop
    vertex 16.000000 -0.000000 0.406250
    vertex 14.000000 0.000000 0.406250
    vertex 16.000000 -0.093688 0.395299
  endloop
endfacet
facet normal -0.001031 -0.116093 0.993238
  outer loop
    vertex 16.000000 -0.000000 0.406250
    vertex 16.000000 -0.093688 0.395299
    vertex 18.000000 -0.023655 0.405561
  endloop
endfacet
facet normal 0.001031 -0.173723 0.984794
  outer loop
    vertex 18.000000 -0.023655 0.405561
    vertex 16.000000 -0.093688 0.395299
    vertex 18.000000 -0.116541 0.389175
  endloop
endfacet
facet normal -0.001031 -0.342020 0.939692
  outer loop
    vertex 18.000000 -0.116541 0.389175
    vertex 16.000000 -0.093688 0.395299
    vertex 16.000000 -0.182325 0.363038
  endloop
endfacet
facet normal 0.001030 -0.396137 0.918191
  outer loop
    vertex 18.000000 -0.116541 0.389175
    vertex 16.000000 -0.182325 0.363038
    vertex 18.000000 -0.203145 0.351811
  endloop
endfacet
facet normal -0.001030 -0.549509 0.835487
  outer loop
    vertex 18.000000 -0.203145 0.351811
    vertex 16.000000 -0.182325 0.363038
    vertex 16.000000 -0.261132 0.311206
  endloop
endfacet
facet normal 0.001030 -0.597199 0.802093
  outer loop
    vertex 18.000000 -0.203145 0.351811
    vertex 16.000000 -0.261132 0.311206
    vertex 18.000000 -0.278799 0.295483
  endloop
endfacet
facet normal -0.001030 -0.727373 0.686241
  outer loop
    vertex 18.000000 -0.278799 0.295483
    vertex 16.000000 -0.261132 0.311206
    vertex 16.000000 -0.325863 0.242596
  endloop
endfacet
facet normal 0.001030 -0.766068 0.642758
  outer loop
    vertex 18.000000 -0.278799 0.295483
    vertex 16.000000 -0.325863 0.242596
    vertex 18.000000 -0.339424 0.223227
  endloop
endfacet
facet normal -0.001030 -0.866025 0.500000
  outer loop
    vertex 18.000000 -0.339424 0.223227
    vertex 16.000000 -0.325863 0.242596
    vertex 16.000000 -0.373025 0.160907
  endloop
endfacet
facet normal 0.001030 -0.893643 0.448776
  outer loop
    vertex 18.000000 -0.339424 0.223227
    vertex 16.000000 -0.373025 0.160907
    vertex 18.000000 -0.381753 0.138938
  endloop
endfacet
facet normal -0.001030 -0.957989 0.286803
  outer loop
    vertex 18.000000 -0.381753 0.138938
    vertex 16.000000 -0.373025 0.160907
    vertex 16.000000 -0.400078 0.070545
  endloop
endfacet
facet normal 0.001030 -0.973047 0.230604
  outer loop
    vertex 18.000000 -0.381753 0.138938
    vertex 16.000000 -0.400078 0.070545
    vertex 18.000000 -0.403503 0.047160
  endloop
endfacet
facet normal -0.001030 -0.998308 0.058145
  outer loop
    vertex 18.000000 -0.403503 0.047160
    vertex 16.000000 -0.400078 0.070545
    vertex 16.000000 -0.405563 -0.023621
  endloop
endfacet
facet normal 0.001030 -1.000000 0.000000
  outer loop
    vertex 18.000000 -0.403503 0.047160
    vertex 16.000000 -0.405563 -0.023621
    vertex 18.000000 -0.403503 -0.047160
  endloop
endfacet
facet normal -0.001030 -0.984807 -0.173648
  outer loop
    vertex 18.000000 -0.403503 -0.047160
    vertex 16.000000 -0.405563 -0.023621
    vertex 16.000000 -0.389183 -0.116514
  endloop
endfacet
facet normal 0.001030 -0.973047 -0.230604
  outer loop
    vertex 18.000000 -0.403503 -0.047160
    vertex 16.000000 -0.389183 -0.116514
    vertex 18.000000 -0.381753 -0.138938
  endloop
endfacet
facet normal -0.001030 -0.918216 -0.396080
  outer loop
    vertex 18.000000 -0.381753 -0.138938
    vertex 16.000000 -0.389183 -0.116514
    vertex 16.000000 -0.351823 -0.203125
  endloop
endfacet
facet normal 0.001029 -0.893643 -0.448776
  outer loop
    vertex 18.000000 -0.381753 -0.138938
    vertex 16.000000 -0.351823 -0.203125
    vertex 18.000000 -0.339424 -0.223227
  endloop
endfacet
facet normal -0.001029 -0.802123 -0.597158
  outer loop
    vertex 18.000000 -0.339424 -0.223227
    vertex 16.000000 -0.351823 -0.203125
    vertex 16.000000 -0.295496 -0.278786
  endloop
endfacet
facet normal 0.001029 -0.766068 -0.642758
  outer loop
    vertex 18.000000 -0.339424 -0.223227
    vertex 16.000000 -0.295496 -0.278786
    vertex 18.000000 -0.278799 -0.295483
  endloop
endfacet
facet normal -0.001029 -0.642787 -0.766044
  outer loop
    vertex 18.000000 -0.278799 -0.295483
    vertex 16.000000 -0.295496 -0.278786
    vertex 16.000000 -0.223238 -0.339417
  endloop
endfacet
facet normal 0.001029 -0.597199 -0.802093
  outer loop
    vertex 18.000000 -0.278799 -0.295483
    vertex 16.000000 -0.223238 -0.339417
    vertex 18.000000 -0.203145 -0.351811
  endloop
endfacet
facet normal -0.001029 -0.448799 -0.893632
  outer loop
    vertex 18.000000 -0.203145 -0.351811
    vertex 16.000000 -0.223238 -0.339417
    vertex 16.000000 -0.138946 -0.381750
  endloop
endfacet
facet normal 0.001029 -0.396137 -0.918191
  outer loop
    vertex 18.000000 -0.203145 -0.351811
    vertex 16.000000 -0.138946 -0.381750
    vertex 18.000000 -0.116541 -0.389175
  endloop
endfacet
facet normal -0.001029 -0.230616 -0.973044
  outer loop
    vertex 18.000000 -0.116541 -0.389175
    vertex 16.000000 -0.138946 -0.381750
    vertex 16.000000 -0.047163 -0.403503
  endloop
endfacet
facet normal 0.001029 -0.173723 -0.984794
  outer loop
    vertex 18.000000 -0.116541 -0.389175
    vertex 16.000000 -0.047163 -0.403503
    vertex 18.000000 -0.023655 -0.405561
  endloop
endfacet
facet normal -0.001029 0.000000 -0.999999
  outer loop
    vertex 18.000000 -0.023655 -0.405561
    vertex 16.000000 -0.047163 -0.403503
    vertex 16.000000 0.047163 -0.403503
  endloop
endfacet
facet normal 0.001029 0.058057 -0.998313
  outer loop
    vertex 18.000000 -0.023655 -0.405561
    vertex 16.000000 0.047163 -0.403503
    vertex 18.000000 0.070507 -0.400085
  endloop
endfacet
facet normal -0.001029 0.230616 -0.973044
  outer loop
    vertex 18.000000 0.070507 -0.400085
    vertex 16.000000 0.047163 -0.403503
    vertex 16.000000 0.138946 -0.381750
  endloop
endfacet
facet normal 0.001028 0.286707 -0.958018
  outer loop
    vertex 18.000000 0.070507 -0.400085
    vertex 16.000000 0.138946 -0.381750
    vertex 18.000000 0.160867 -0.373043
  endloop
endfacet
facet normal -0.001029 0.448799 -0.893632
  outer loop
    vertex 18.000000 0.160867 -0.373043
    vertex 16.000000 0.138946 -0.381750
    vertex 16.000000 0.223238 -0.339417
  endloop
endfacet
facet normal 0.001028 0.499901 -0.866082
  outer loop
    vertex 18.000000 0.160867 -0.373043
    vertex 16.000000 0.223238 -0.339417
    vertex 18.000000 0.242557 -0.325892
  endloop
endfacet
facet normal -0.001028 0.642787 -0.766044
  outer loop
    vertex 18.000000 0.242557 -0.325892
    vertex 16.000000 0.223238 -0.339417
    vertex 16.000000 0.295496 -0.278786
  endloop
endfacet
facet normal 0.001028 0.686150 -0.727460
  outer loop
    vertex 18.000000 0.242557 -0.325892
    vertex 16.000000 0.295496 -0.278786
    vertex 18.000000 0.311171 -0.261174
  endloop
endfacet
facet normal -0.001028 0.802123 -0.597158
  outer loop
    vertex 18.000000 0.311171 -0.261174
    vertex 16.000000 0.295496 -0.278786
    vertex 16.000000 0.351823 -0.203125
  endloop
endfacet
facet normal 0.001028 0.835411 -0.549625
  outer loop
    vertex 18.000000 0.311171 -0.261174
    vertex 16.000000 0.351823 -0.203125
    vertex 18.000000 0.363012 -0.182377
  endloop
endfacet
facet normal -0.001028 0.918216 -0.396080
  outer loop
    vertex 18.000000 0.363012 -0.182377
    vertex 16.000000 0.351823 -0.203125
    vertex 16.000000 0.389183 -0.116514
  endloop
endfacet
facet normal 0.001028 0.939640 -0.342162
  outer loop
    vertex 18.000000 0.363012 -0.182377
    vertex 16.000000 0.389183 -0.116514
    vertex 18.000000 0.395285 -0.093750
  endloop
endfacet
facet normal 0.000000 0.965906 -0.258895
  outer loop
    vertex 18.000000 0.395285 -0.093750
    vertex 16.000000 0.389183 -0.116514
    vertex 14.000000 0.389183 -0.116514
  endloop
endfacet
facet normal 0.000000 0.965906 -0.258895
  outer loop
    vertex 18.000000 0.395285 -0.093750
    vertex 14.000000 0.389183 -0.116514
    vertex 12.000000 0.389183 -0.116514
  endloop
endfacet
facet normal 0.000000 0.918216 -0.396080
  outer loop
    vertex 12.000000 0.389183 -0.116514
    vertex 14.000000 0.389183 -0.116514
    vertex 12.000000 0.351823 -0.203125
  endloop
endfacet
facet normal 0.000000 0.918216 -0.396080
  outer loop
    vertex 12.000000 0.389183 -0.116514
    vertex 12.000000 0.351823 -0.203125
    vertex 10.000000 0.351823 -0.203125
  endloop
endfacet
facet normal 0.000000 0.802123 -0.597159
  outer loop
    vertex 10.000000 0.351823 -0.203125
    vertex 12.000000 0.351823 -0.203125
    vertex 10.000000 0.295496 -0.278786
  endloop
endfacet
facet normal 0.000000 0.802123 -0.597159
  outer loop
    vertex 10.000000 0.351823 -0.203125
    vertex 10.000000 0.295496 -0.278786
    vertex 8.000000 0.295496 -0.278786
  endloop
endfacet
facet normal 0.000000 0.642788 -0.766044
  outer loop
    vertex 8.000000 0.295496 -0.278786
    vertex 10.000000 0.295496 -0.278786
    vertex 8.000000 0.223238 -0.339417
  endloop
endfacet
facet normal 0.000000 0.642788 -0.766044
  outer loop
    vertex 8.000000 0.295496 -0.278786
    vertex 8.000000 0.223238 -0.339417
    vertex 6.000000 0.223238 -0.339417
  endloop
endfacet
facet normal 0.000000 0.448799 -0.893633
  outer loop
    vertex 6.000000 0.223238 -0.339417
    vertex 8.000000 0.223238 -0.339417
    vertex 6.000000 0.138946 -0.381750
  endloop
endfacet
facet normal 0.000000 0.448799 -0.893633
  outer loop
    vertex 6.000000 0.223238 -0.339417
    vertex 6.000000 0.138946 -0.381750
    vertex 4.000000 0.138946 -0.381750
  endloop
endfacet
facet normal 0.000000 0.230616 -0.973045
  outer loop
    vertex 4.000000 0.138946 -0.381750
    vertex 6.000000 0.138946 -0.381750
    vertex 4.000000 0.047163 -0.403503
  endloop
endfacet
facet normal 0.000000 0.230616 -0.973045
  outer loop
    vertex 4.000000 0.138946 -0.381750
    vertex 4.000000 0.047163 -0.403503
    vertex 2.000000 0.047163 -0.403503
  endloop
endfacet
facet normal 0.000000 0.000000 -1.000000
  outer loop
    vertex 2.000000 0.047163 -0.403503
    vertex 4.000000 0.047163 -0.403503
    vertex 2.000000 -0.047163 -0.403503
  endloop
endfacet
facet normal 0.001029 0.000000 -0.999999
  outer loop
    vertex 2.000000 0.047163 -0.403503
    vertex 2.000000 -0.047163 -0.403503
    vertex 0.000000 -0.023655 -0.405561
  endloop
endfacet
facet normal -0.001029 -0.173723 -0.984794
  outer loop
    vertex 0.000000 -0.023655 -0.405561
    vertex 2.000000 -0.047163 -0.403503
    vertex 0.000000 -0.116541 -0.389175
  endloop
endfacet
facet normal 0.001029 -0.230616 -0.973044
  outer loop
    vertex 0.000000 -0.116541 -0.389175
    vertex 2.000000 -0.047163 -0.403503
    vertex 2.000000 -0.138946 -0.381750
  endloop
endfacet
facet normal -0.001029 -0.396137 -0.918191
  outer loop
    vertex 0.000000 -0.116541 -0.389175
    vertex 2.000000 -0.138946 -0.381750
    vertex 0.000000 -0.203145 -0.351811
  endloop
endfacet
facet normal 0.001029 -0.448799 -0.893632
  outer loop
    vertex 0.000000 -0.203145 -0.351811
    vertex 2.000000 -0.138946 -0.381750
    vertex 2.000000 -0.223238 -0.339417
  endloop
endfacet
facet normal -0.001029 -0.597199 -0.802093
  outer loop
    vertex 0.000000 -0.203145 -0.351811
    vertex 2.000000 -0.223238 -0.339417
    vertex 0.000000 -0.278799 -0.295483
  endloop
endfacet
facet normal 0.001029 -0.642787 -0.766044
  outer loop
    vertex 0.000000 -0.278799 -0.295483
    vertex 2.000000 -0.223238 -0.339417
    vertex 2.000000 -0.295496 -0.278786
  endloop
endfacet
facet normal -0.001029 -0.766068 -0.642758
  outer loop
    vertex 0.000000 -0.278799 -0.295483
    vertex 2.000000 -0.295496 -0.278786
    vertex 0.000000 -0.339424 -0.223227
  endloop
endfacet
facet normal 0.001029 -0.802123 -0.597158
  outer loop
    vertex 0.000000 -0.339424 -0.223227
    vertex 2.000000 -0.295496 -0.278786
    vertex 2.000000 -0.351823 -0.203125
  endloop
endfacet
facet normal -0.001029 -0.893643 -0.448776
  outer loop
    vertex 0.000000 -0.339424 -0.223227
    vertex 2.000000 -0.351823 -0.203125
    vertex 0.000000 -0.381753 -0.138938
  endloop
endfacet
facet normal 0.001030 -0.918216 -0.396080
  outer loop
    vertex 0.000000 -0.381753 -0.138938
    vertex 2.000000 -0.351823 -0.203125
    vertex 2.000000 -0.389183 -0.116514
  endloop
endfacet
facet normal -0.001030 -0.973047 -0.230604
  outer loop
    vertex 0.000000 -0.381753 -0.138938
    vertex 2.000000 -0.389183 -0.116514
    vertex 0.000000 -0.403503 -0.047160
  endloop
endfacet
facet normal 0.001030 -0.984807 -0.173648
  outer loop
    vertex 0.000000 -0.403503 -0.047160
    vertex 2.000000 -0.389183 -0.116514
    vertex 2.000000 -0.405563 -0.023621
  endloop
endfacet
facet normal -0.001030 -1.000000 0.000000
  outer loop
    vertex 0.000000 -0.403503 -0.047160
    vertex 2.000000 -0.405563 -0.023621
    vertex 0.000000 -0.403503 0.047160
  endloop
endfacet
facet normal 0.001030 -0.998308 0.058145
  outer loop
    vertex 0.000000 -0.403503 0.047160
    vertex 2.000000 -0.405563 -0.023621
    vertex 2.000000 -0.400078 0.070545
  endloop
endfacet
facet normal -0.001030 -0.973047 0.230604
  outer loop
    vertex 0.000000 -0.403503 0.047160
    vertex 2.000000 -0.400078 0.070545
    vertex 0.000000 -0.381753 0.138938
  endloop
endfacet
facet normal 0.001030 -0.957989 0.286803
  outer loop
    vertex 0.000000 -0.381753 0.138938
    vertex 2.000000 -0.400078 0.070545
    vertex 2.000000 -0.373025 0.160907
  endloop
endfacet
facet normal -0.001030 -0.893643 0.448776
  outer loop
    vertex 0.000000 -0.381753 0.138938
    vertex 2.000000 -0.373025 0.160907
    vertex 0.000000 -0.339424 0.223227
  endloop
endfacet
facet normal 0.001030 -0.866025 0.500000
  outer loop
    vertex 0.000000 -0.339424 0.223227
    vertex 2.000000 -0.373025 0.160907
    vertex 2.000000 -0.325863 0.242596
  endloop
endfacet
facet normal -0.001030 -0.766068 0.642758
  outer loop
    vertex 0.000000 -0.339424 0.223227
    vertex 2.000000 -0.325863 0.242596
    vertex 0.000000 -0.278799 0.295483
  endloop
endfacet
facet normal 0.001030 -0.727373 0.686241
  outer loop
    vertex 0.000000 -0.278799 0.295483
    vertex 2.000000 -0.325863 0.242596
    vertex 2.000000 -0.261132 0.311206
  endloop
endfacet
facet normal -0.001030 -0.597199 0.802093
  outer loop
    vertex 0.000000 -0.278799 0.295483
    vertex 2.000000 -0.261132 0.311206
    vertex 0.000000 -0.203145 0.351811
  endloop
endfacet
facet normal 0.001030 -0.549509 0.835487
  outer loop
    vertex 0.000000 -0.203145 0.351811
    vertex 2.000000 -0.261132 0.311206
    vertex 2.000000 -0.182325 0.363038
  endloop
endfacet
facet normal -0.001030 -0.396137 0.918191
  outer loop
    vertex 0.000000 -0.203145 0.351811
    vertex 2.000000 -0.182325 0.363038
    vertex 0.000000 -0.116541 0.389175
  endloop
endfacet
facet normal 0.001031 -0.342020 0.939692
  outer loop
    vertex 0.000000 -0.116541 0.389175
    vertex 2.000000 -0.182325 0.363038
    vertex 2.000000 -0.093688 0.395299
  endloop
endfacet
facet normal -0.001031 -0.173723 0.984794
  outer loop
    vertex 0.000000 -0.116541 0.389175
    vertex 2.000000 -0.093688 0.395299
    vertex 0.000000 -0.023655 0.405561
  endloop
endfacet
facet normal 0.001031 -0.116093 0.993238
  outer loop
    vertex 0.000000 -0.023655 0.405561
    vertex 2.000000 -0.093688 0.395299
    vertex 2.000000 0.000000 0.406250
  endloop
endfacet
facet normal -0.001031 0.058057 0.998313
  outer loop
    vertex 0.000000 -0.023655 0.405561
    vertex 2.000000 0.000000 0.406250
    vertex 0.000000 0.070507 0.400085
  endloop
endfacet
facet normal 0.001031 0.116093 0.993238
  outer loop
    vertex 0.000000 0.070507 0.400085
    vertex 2.000000 0.000000 0.406250
    vertex 2.000000 0.093688 0.395299
  endloop
endfacet
facet normal -0.001031 0.286707 0.958018
  outer loop
    vertex 0.000000 0.070507 0.400085
    vertex 2.000000 0.093688 0.395299
    vertex 0.000000 0.160867 0.373043
  endloop
endfacet
facet normal 0.001031 0.342020 0.939692
  outer loop
    vertex 0.000000 0.160867 0.373043
    vertex 2.000000 0.093688 0.395299
    vertex 2.000000 0.182325 0.363038
  endloop
endfacet
facet normal -0.001031 0.499901 0.866082
  outer loop
    vertex 0.000000 0.160867 0.373043
    vertex 2.000000 0.182325 0.363038
    vertex 0.000000 0.242557 0.325892
  endloop
endfacet
facet normal 0.001031 0.549509 0.835487
  outer loop
    vertex 0.000000 0.242557 0.325892
    vertex 2.000000 0.182325 0.363038
    vertex 2.000000 0.261132 0.311206
  endloop
endfacet
facet normal -0.001031 0.686150 0.727460
  outer loop
    vertex 0.000000 0.242557 0.325892
    vertex 2.000000 0.261132 0.311206
    vertex 0.000000 0.311171 0.261174
  endloop
endfacet
facet normal 0.001031 0.727373 0.686241
  outer loop
    vertex 0.000000 0.311171 0.261174
    vertex 2.000000 0.261132 0.311206
    vertex 2.000000 0.325863 0.242596
  endloop
endfacet
facet normal -0.001031 0.835411 0.549625
  outer loop
    vertex 0.000000 0.311171 0.261174
    vertex 2.000000 0.325863 0.242596
    vertex 0.000000 0.363012 0.182377
  endloop
endfacet
facet normal 0.001032 0.866025 0.500000
  outer loop
    vertex 0.000000 0.363012 0.182377
    vertex 2.000000 0.325863 0.242596
    vertex 2.000000 0.373025 0.160907
  endloop
endfacet
facet normal -0.001029 0.058057 -0.998313
  outer loop
    vertex 0.000000 -0.023655 -0.405561
    vertex 0.000000 0.070507 -0.400085
    vertex 2.000000 0.047163 -0.403503
  endloop
endfacet
facet normal 0.001029 0.230616 -0.973044
  outer loop
    vertex 2.000000 0.047163 -0.403503
    vertex 0.000000 0.070507 -0.400085
    vertex 2.000000 0.138946 -0.381750
  endloop
endfacet
facet normal 0.000000 0.230616 -0.973045
  outer loop
    vertex 2.000000 0.047163 -0.403503
    vertex 2.000000 0.138946 -0.381750
    vertex 4.000000 0.138946 -0.381750
  endloop
endfacet
facet normal 0.000000 0.448799 -0.893633
  outer loop
    vertex 4.000000 0.138946 -0.381750
    vertex 2.000000 0.138946 -0.381750
    vertex 4.000000 0.223238 -0.339417
  endloop
endfacet
facet normal 0.000000 0.448799 -0.893633
  outer loop
    vertex 4.000000 0.138946 -0.381750
    vertex 4.000000 0.223238 -0.339417
    vertex 6.000000 0.223238 -0.339417
  endloop
endfacet
facet normal 0.000000 0.642788 -0.766044
  outer loop
    vertex 6.000000 0.223238 -0.339417
    vertex 4.000000 0.223238 -0.339417
    vertex 6.000000 0.295496 -0.278786
  endloop
endfacet
facet normal 0.000000 0.642788 -0.766044
  outer loop
    vertex 6.000000 0.223238 -0.339417
    vertex 6.000000 0.295496 -0.278786
    vertex 8.000000 0.295496 -0.278786
  endloop
endfacet
facet normal 0.000000 0.802123 -0.597159
  outer loop
    vertex 8.000000 0.295496 -0.278786
    vertex 6.000000 0.295496 -0.278786
    vertex 8.000000 0.351823 -0.203125
  endloop
endfacet
facet normal 0.000000 0.802123 -0.597159
  outer loop
    vertex 8.000000 0.295496 -0.278786
    vertex 8.000000 0.351823 -0.203125
    vertex 10.000000 0.351823 -0.203125
  endloop
endfacet
facet normal 0.000000 0.918216 -0.396080
  outer loop
    vertex 10.000000 0.351823 -0.203125
    vertex 8.000000 0.351823 -0.203125
    vertex 10.000000 0.389183 -0.116514
  endloop
endfacet
facet normal 0.000000 0.918216 -0.396080
  outer loop
    vertex 10.000000 0.351823 -0.203125
    vertex 10.000000 0.389183 -0.116514
    vertex 12.000000 0.389183 -0.116514
  endloop
endfacet
facet normal 0.000000 0.965906 -0.258895
  outer loop
    vertex 12.000000 0.389183 -0.116514
    vertex 10.000000 0.389183 -0.116514
    vertex 18.000000 0.395285 -0.093750
  endloop
endfacet
facet normal -0.001028 0.286707 -0.958018
  outer loop
    vertex 0.000000 0.070507 -0.400085
    vertex 0.000000 0.160867 -0.373043
    vertex 2.000000 0.138946 -0.381750
  endloop
endfacet
facet normal 0.001029 0.448799 -0.893632
  outer loop
    vertex 2.000000 0.138946 -0.381750
    vertex 0.000000 0.160867 -0.373043
    vertex 2.000000 0.223238 -0.339417
  endloop
endfacet
facet normal 0.000000 0.448799 -0.893633
  outer loop
    vertex 2.000000 0.138946 -0.381750
    vertex 2.000000 0.223238 -0.339417
    vertex 4.000000 0.223238 -0.339417
  endloop
endfacet
facet normal 0.000000 0.642788 -0.766044
  outer loop
    vertex 4.000000 0.223238 -0.339417
    vertex 2.000000 0.223238 -0.339417
    vertex 4.000000 0.295496 -0.278786
  endloop
endfacet
facet normal 0.000000 0.642788 -0.766044
  outer loop
    vertex 4.000000 0.223238 -0.339417
    vertex 4.000000 0.295496 -0.278786
    vertex 6.000000 0.295496 -0.278786
  endloop
endfacet
facet normal 0.000000 0.802123 -0.597159
  outer loop
    vertex 6.000000 0.295496 -0.278786
    vertex 4.000000 0.295496 -0.278786
    vertex 6.000000 0.351823 -0.203125
  endloop
endfacet
facet normal 0.000000 0.802123 -0.597159
  outer loop
    vertex 6.000000 0.295496 -0.278786
    vertex 6.000000 0.351823 -0.203125
    vertex 8.000000 0.351823 -0.203125
  endloop
endfacet
facet normal 0.000000 0.918216 -0.396080
  outer loop
    vertex 8.000000 0.351823 -0.203125
    vertex 6.000000 0.351823 -0.203125
    vertex 8.000000 0.389183 -0.116514
  endloop
endfacet
facet normal 0.000000 0.918216 -0.396080
  outer loop
    vertex 8.000000 0.351823 -0.203125
    vertex 8.000000 0.389183 -0.116514
    vertex 10.000000 0.389183 -0.116514
  endloop
endfacet
facet normal 0.000000 0.965906 -0.258895
  outer loop
    vertex 10.000000 0.389183 -0.116514
    vertex 8.000000 0.389183 -0.116514
    vertex 18.000000 0.395285 -0.093750
  endloop
endfacet
facet normal -0.001028 0.499901 -0.866082
  outer loop
    vertex 0.000000 0.160867 -0.373043
    vertex 0.000000 0.242557 -0.325892
    vertex 2.000000 0.223238 -0.339417
  endloop
endfacet
facet normal 0.001028 0.642787 -0.766044
  outer loop
    vertex 2.000000 0.223238 -0.339417
    vertex 0.000000 0.242557 -0.325892
    vertex 2.000000 0.295496 -0.278786
  endloop
endfacet
facet normal 0.000000 0.642788 -0.766044
  outer loop
    vertex 2.000000 0.223238 -0.339417
    vertex 2.000000 0.295496 -0.278786
    vertex 4.000000 0.295496 -0.278786
  endloop
endfacet
facet normal 0.000000 0.802123 -0.597159
  outer loop
    vertex 4.000000 0.295496 -0.278786
    vertex 2.000000 0.295496 -0.278786
    vertex 4.000000 0.351823 -0.203125
  endloop
endfacet
facet normal 0.000000 0.802123 -0.597159
  outer loop
    vertex 4.000000 0.295496 -0.278786
    vertex 4.000000 0.351823 -0.203125
    vertex 6.000000 0.351823 -0.203125
  endloop
endfacet
facet normal 0.000000 0.918216 -0.396080
  outer loop
    vertex 6.000000 0.351823 -0.203125
    vertex 4.000000 0.351823 -0.203125
    vertex 6.000000 0.389183 -0.116514
  endloop
endfacet
facet normal 0.000000 0.918216 -0.396080
  outer loop
    vertex 6.000000 0.351823 -0.203125
    vertex 6.000000 0.389183 -0.116514
    vertex 8.000000 0.389183 -0.116514
  endloop
endfacet
facet normal 0.000000 0.965906 -0.258895
  outer loop
    vertex 8.000000 0.389183 -0.116514
    vertex 6.000000 0.389183 -0.116514
    vertex 0.000000 0.395285 -0.093750
  endloop
endfacet
facet normal 0.000000 0.965906 -0.258895
  outer loop
    vertex 8.000000 0.389183 -0.116514
    vertex 0.000000 0.395285 -0.093750
    vertex 18.000000 0.395285 -0.093750
  endloop
endfacet
facet normal -0.001028 0.686150 -0.727460
  outer loop
    vertex 0.000000 0.242557 -0.325892
    vertex 0.000000 0.311171 -0.261174
    vertex 2.000000 0.295496 -0.278786
  endloop
endfacet
facet normal 0.001028 0.802123 -0.597158
  outer loop
    vertex 2.000000 0.295496 -0.278786
    vertex 0.000000 0.311171 -0.261174
    vertex 2.000000 0.351823 -0.203125
  endloop
endfacet
facet normal 0.000000 0.802123 -0.597159
  outer loop
    vertex 2.000000 0.295496 -0.278786
    vertex 2.000000 0.351823 -0.203125
    vertex 4.000000 0.351823 -0.203125
  endloop
endfacet
facet normal 0.000000 0.918216 -0.396080
  outer loop
    vertex 4.000000 0.351823 -0.203125
    vertex 2.000000 0.351823 -0.203125
    vertex 4.000000 0.389183 -0.116514
  endloop
endfacet
facet normal 0.000000 0.918216 -0.396080
  outer loop
    vertex 4.000000 0.351823 -0.203125
    vertex 4.000000 0.389183 -0.116514
    vertex 6.000000 0.389183 -0.116514
  endloop
endfacet
facet normal 0.000000 0.965906 -0.258895
  outer loop
    vertex 6.000000 0.389183 -0.116514
    vertex 4.000000 0.389183 -0.116514
    vertex 0.000000 0.395285 -0.093750
  endloop
endfacet
facet normal -0.001028 0.835411 -0.549625
  outer loop
    vertex 0.000000 0.311171 -0.261174
    vertex 0.000000 0.363012 -0.182377
    vertex 2.000000 0.351823 -0.203125
  endloop
endfacet
facet normal 0.001028 0.918216 -0.396080
  outer loop
    vertex 2.000000 0.351823 -0.203125
    vertex 0.000000 0.363012 -0.182377
    vertex 2.000000 0.389183 -0.116514
  endloop
endfacet
facet normal 0.000000 0.918216 -0.396080
  outer loop
    vertex 2.000000 0.351823 -0.203125
    vertex 2.000000 0.389183 -0.116514
    vertex 4.000000 0.389183 -0.116514
  endloop
endfacet
facet normal 0.000000 0.965906 -0.258895
  outer loop
    vertex 4.000000 0.389183 -0.116514
    vertex 2.000000 0.389183 -0.116514
    vertex 0.000000 0.395285 -0.093750
  endloop
endfacet
facet normal -0.001028 0.939640 -0.342162
  outer loop
    vertex 0.000000 0.363012 -0.182377
    vertex 0.000000 0.395285 -0.093750
    vertex 2.000000 0.389183 -0.116514
  endloop
endfacet
facet normal 0.001031 0.058057 0.998313
  outer loop
    vertex 18.000000 -0.023655 0.405561
    vertex 18.000000 0.070507 0.400085
    vertex 16.000000 -0.000000 0.406250
  endloop
endfacet
facet normal -0.001031 0.116093 0.993238
  outer loop
    vertex 16.000000 -0.000000 0.406250
    vertex 18.000000 0.070507 0.400085
    vertex 16.000000 0.093688 0.395299
  endloop
endfacet
facet normal 0.000000 0.116093 0.993238
  outer loop
    vertex 16.000000 -0.000000 0.406250
    vertex 16.000000 0.093688 0.395299
    vertex 14.000000 0.093688 0.395299
  endloop
endfacet
facet normal -0.000000 0.342020 0.939693
  outer loop
    vertex 14.000000 0.093688 0.395299
    vertex 16.000000 0.093688 0.395299
    vertex 14.000000 0.182325 0.363038
  endloop
endfacet
facet normal 0.000000 0.342020 0.939693
  outer loop
    vertex 14.000000 0.093688 0.395299
    vertex 14.000000 0.182325 0.363038
    vertex 12.000000 0.182325 0.363038
  endloop
endfacet
facet normal -0.000000 0.549509 0.835488
  outer loop
    vertex 12.000000 0.182325 0.363038
    vertex 14.000000 0.182325 0.363038
    vertex 12.000000 0.261132 0.311206
  endloop
endfacet
facet normal 0.000000 0.549509 0.835488
  outer loop
    vertex 12.000000 0.182325 0.363038
    vertex 12.000000 0.261132 0.311206
    vertex 10.000000 0.261132 0.311206
  endloop
endfacet
facet normal -0.000000 0.727374 0.686242
  outer loop
    vertex 10.000000 0.261132 0.311206
    vertex 12.000000 0.261132 0.311206
    vertex 10.000000 0.325863 0.242596
  endloop
endfacet
facet normal 0.000000 0.727374 0.686242
  outer loop
    vertex 10.000000 0.261132 0.311206
    vertex 10.000000 0.325863 0.242596
    vertex 8.000000 0.325863 0.242596
  endloop
endfacet
facet normal -0.000000 0.866025 0.500000
  outer loop
    vertex 8.000000 0.325863 0.242596
    vertex 10.000000 0.325863 0.242596
    vertex 8.000000 0.373025 0.160907
  endloop
endfacet
facet normal 0.000000 0.866025 0.500000
  outer loop
    vertex 8.000000 0.325863 0.242596
    vertex 8.000000 0.373025 0.160907
    vertex 6.000000 0.373025 0.160907
  endloop
endfacet
facet normal -0.000000 0.949218 0.314620
  outer loop
    vertex 6.000000 0.373025 0.160907
    vertex 8.000000 0.373025 0.160907
    vertex 0.000000 0.395285 0.093750
  endloop
endfacet
facet normal 0.001031 0.286707 0.958018
  outer loop
    vertex 18.000000 0.070507 0.400085
    vertex 18.000000 0.160867 0.373043
    vertex 16.000000 0.093688 0.395299
  endloop
endfacet
facet normal -0.001031 0.342020 0.939692
  outer loop
    vertex 16.000000 0.093688 0.395299
    vertex 18.000000 0.160867 0.373043
    vertex 16.000000 0.182325 0.363038
  endloop
endfacet
facet normal 0.000000 0.342020 0.939693
  outer loop
    vertex 16.000000 0.093688 0.395299
    vertex 16.000000 0.182325 0.363038
    vertex 14.000000 0.182325 0.363038
  endloop
endfacet
facet normal -0.000000 0.549509 0.835488
  outer loop
    vertex 14.000000 0.182325 0.363038
    vertex 16.000000 0.182325 0.363038
    vertex 14.000000 0.261132 0.311206
  endloop
endfacet
facet normal 0.000000 0.549509 0.835488
  outer loop
    vertex 14.000000 0.182325 0.363038
    vertex 14.000000 0.261132 0.311206
    vertex 12.000000 0.261132 0.311206
  endloop
endfacet
facet normal -0.000000 0.727374 0.686242
  outer loop
    vertex 12.000000 0.261132 0.311206
    vertex 14.000000 0.261132 0.311206
    vertex 12.000000 0.325863 0.242596
  endloop
endfacet
facet normal 0.000000 0.727374 0.686242
  outer loop
    vertex 12.000000 0.261132 0.311206
    vertex 12.000000 0.325863 0.242596
    vertex 10.000000 0.325863 0.242596
  endloop
endfacet
facet normal -0.000000 0.866025 0.500000
  outer loop
    vertex 10.000000 0.325863 0.242596
    vertex 12.000000 0.325863 0.242596
    vertex 10.000000 0.373025 0.160907
  endloop
endfacet
facet normal 0.000000 0.866025 0.500000
  outer loop
    vertex 10.000000 0.325863 0.242596
    vertex 10.000000 0.373025 0.160907
    vertex 8.000000 0.373025 0.160907
  endloop
endfacet
facet normal -0.000000 0.949218 0.314620
  outer loop
    vertex 8.000000 0.373025 0.160907
    vertex 10.000000 0.373025 0.160907
    vertex 0.000000 0.395285 0.093750
  endloop
endfacet
facet normal 0.001031 0.499901 0.866082
  outer loop
    vertex 18.000000 0.160867 0.373043
    vertex 18.000000 0.242557 0.325892
    vertex 16.000000 0.182325 0.363038
  endloop
endfacet
facet normal -0.001031 0.549509 0.835487
  outer loop
    vertex 16.000000 0.182325 0.363038
    vertex 18.000000 0.242557 0.325892
    vertex 16.000000 0.261132 0.311206
  endloop
endfacet
facet normal 0.000000 0.549509 0.835488
  outer loop
    vertex 16.000000 0.182325 0.363038
    vertex 16.000000 0.261132 0.311206
    vertex 14.000000 0.261132 0.311206
  endloop
endfacet
facet normal -0.000000 0.727374 0.686242
  outer loop
    vertex 14.000000 0.261132 0.311206
    vertex 16.000000 0.261132 0.311206
    vertex 14.000000 0.325863 0.242596
  endloop
endfacet
facet normal 0.000000 0.727374 0.686242
  outer loop
    vertex 14.000000 0.261132 0.311206
    vertex 14.000000 0.325863 0.242596
    vertex 12.000000 0.325863 0.242596
  endloop
endfacet
facet normal -0.000000 0.866025 0.500000
  outer loop
    vertex 12.000000 0.325863 0.242596
    vertex 14.000000 0.325863 0.242596
    vertex 12.000000 0.373025 0.160907
  endloop
endfacet
facet normal 0.000000 0.866025 0.500000
  outer loop
    vertex 12.000000 0.325863 0.242596
    vertex 12.000000 0.373025 0.160907
    vertex 10.000000 0.373025 0.160907
  endloop
endfacet
facet normal -0.000000 0.949218 0.314620
  outer loop
    vertex 10.000000 0.373025 0.160907
    vertex 12.000000 0.373025 0.160907
    vertex 18.000000 0.395285 0.093750
  endloop
endfacet
facet normal 0.000000 0.949218 0.314620
  outer loop
    vertex 10.000000 0.373025 0.160907
    vertex 18.000000 0.395285 0.093750
    vertex 0.000000 0.395285 0.093750
  endloop
endfacet
facet normal 0.001031 0.686150 0.727460
  outer loop
    vertex 18.000000 0.242557 0.325892
    vertex 18.000000 0.311171 0.261174
    vertex 16.000000 0.261132 0.311206
  endloop
endfacet
facet normal -0.001031 0.727373 0.686241
  outer loop
    vertex 16.000000 0.261132 0.311206
    vertex 18.000000 0.311171 0.261174
    vertex 16.000000 0.325863 0.242596
  endloop
endfacet
facet normal 0.000000 0.727374 0.686242
  outer loop
    vertex 16.000000 0.261132 0.311206
    vertex 16.000000 0.325863 0.242596
    vertex 14.000000 0.325863 0.242596
  endloop
endfacet
facet normal -0.000000 0.866025 0.500000
  outer loop
    vertex 14.000000 0.325863 0.242596
    vertex 16.000000 0.325863 0.242596
    vertex 14.000000 0.373025 0.160907
  endloop
endfacet
facet normal 0.000000 0.866025 0.500000
  outer loop
    vertex 14.000000 0.325863 0.242596
    vertex 14.000000 0.373025 0.160907
    vertex 12.000000 0.373025 0.160907
  endloop
endfacet
facet normal -0.000000 0.949218 0.314620
  outer loop
    vertex 12.000000 0.373025 0.160907
    vertex 14.000000 0.373025 0.160907
    vertex 18.000000 0.395285 0.093750
  endloop
endfacet
facet normal 0.001031 0.835411 0.549625
  outer loop
    vertex 18.000000 0.311171 0.261174
    vertex 18.000000 0.363012 0.182377
    vertex 16.000000 0.325863 0.242596
  endloop
endfacet
facet normal -0.001032 0.866025 0.500000
  outer loop
    vertex 16.000000 0.325863 0.242596
    vertex 18.000000 0.363012 0.182377
    vertex 16.000000 0.373025 0.160907
  endloop
endfacet
facet normal 0.000000 0.866025 0.500000
  outer loop
    vertex 16.000000 0.325863 0.242596
    vertex 16.000000 0.373025 0.160907
    vertex 14.000000 0.373025 0.160907
  endloop
endfacet
facet normal -0.000000 0.949218 0.314620
  outer loop
    vertex 14.000000 0.373025 0.160907
    vertex 16.000000 0.373025 0.160907
    vertex 18.000000 0.395285 0.093750
  endloop
endfacet
facet normal 0.001031 0.939640 0.342162
  outer loop
    vertex 18.000000 0.363012 0.182377
    vertex 18.000000 0.395285 0.093750
    vertex 16.000000 0.373025 0.160907
  endloop
endfacet
facet normal -0.000000 0.116093 0.993238
  outer loop
    vertex 2.000000 0.000000 0.406250
    vertex 4.000000 0.000000 0.406250
    vertex 2.000000 0.093688 0.395299
  endloop
endfacet
facet normal -0.000000 0.116093 0.993238
  outer loop
    vertex 2.000000 0.093688 0.395299
    vertex 4.000000 0.000000 0.406250
    vertex 4.000000 0.093688 0.395299
  endloop
endfacet
facet normal -0.000000 0.342020 0.939693
  outer loop
    vertex 2.000000 0.093688 0.395299
    vertex 4.000000 0.093688 0.395299
    vertex 2.000000 0.182325 0.363038
  endloop
endfacet
facet normal -0.000000 0.342020 0.939693
  outer loop
    vertex 2.000000 0.182325 0.363038
    vertex 4.000000 0.093688 0.395299
    vertex 4.000000 0.182325 0.363038
  endloop
endfacet
facet normal -0.000000 0.549509 0.835488
  outer loop
    vertex 2.000000 0.182325 0.363038
    vertex 4.000000 0.182325 0.363038
    vertex 2.000000 0.261132 0.311206
  endloop
endfacet
facet normal -0.000000 0.549509 0.835488
  outer loop
    vertex 2.000000 0.261132 0.311206
    vertex 4.000000 0.182325 0.363038
    vertex 4.000000 0.261132 0.311206
  endloop
endfacet
facet normal -0.000000 0.727374 0.686242
  outer loop
    vertex 2.000000 0.261132 0.311206
    vertex 4.000000 0.261132 0.311206
    vertex 2.000000 0.325863 0.242596
  endloop
endfacet
facet normal -0.000000 0.727374 0.686242
  outer loop
    vertex 2.000000 0.325863 0.242596
    vertex 4.000000 0.261132 0.311206
    vertex 4.000000 0.325863 0.242596
  endloop
endfacet
facet normal -0.000000 0.866025 0.500000
  outer loop
    vertex 2.000000 0.325863 0.242596
    vertex 4.000000 0.325863 0.242596
    vertex 2.000000 0.373025 0.160907
  endloop
endfacet
facet normal -0.000000 0.866025 0.500000
  outer loop
    vertex 2.000000 0.373025 0.160907
    vertex 4.000000 0.325863 0.242596
    vertex 4.000000 0.373025 0.160907
  endloop
endfacet
facet normal -0.000000 0.116093 0.993238
  outer loop
    vertex 4.000000 0.000000 0.406250
    vertex 6.000000 0.000000 0.406250
    vertex 4.000000 0.093688 0.395299
  endloop
endfacet
facet normal -0.000000 0.116093 0.993238
  outer loop
    vertex 4.000000 0.093688 0.395299
    vertex 6.000000 0.000000 0.406250
    vertex 6.000000 0.093688 0.395299
  endloop
endfacet
facet normal -0.000000 0.342020 0.939693
  outer loop
    vertex 4.000000 0.093688 0.395299
    vertex 6.000000 0.093688 0.395299
    vertex 4.000000 0.182325 0.363038
  endloop
endfacet
facet normal -0.000000 0.342020 0.939693
  outer loop
    vertex 4.000000 0.182325 0.363038
    vertex 6.000000 0.093688 0.395299
    vertex 6.000000 0.182325 0.363038
  endloop
endfacet
facet normal -0.000000 0.549509 0.835488
  outer loop
    vertex 4.000000 0.182325 0.363038
    vertex 6.000000 0.182325 0.363038
    vertex 4.000000 0.261132 0.311206
  endloop
endfacet
facet normal -0.000000 0.549509 0.835488
  outer loop
    vertex 4.000000 0.261132 0.311206
    vertex 6.000000 0.182325 0.363038
    vertex 6.000000 0.261132 0.311206
  endloop
endfacet
facet normal -0.000000 0.727374 0.686242
  outer loop
    vertex 4.000000 0.261132 0.311206
    vertex 6.000000 0.261132 0.311206
    vertex 4.000000 0.325863 0.242596
  endloop
endfacet
facet normal -0.000000 0.727374 0.686242
  outer loop
    vertex 4.000000 0.325863 0.242596
    vertex 6.000000 0.261132 0.311206
    vertex 6.000000 0.325863 0.242596
  endloop
endfacet
facet normal -0.000000 0.866025 0.500000
  outer loop
    vertex 4.000000 0.325863 0.242596
    vertex 6.000000 0.325863 0.242596
    vertex 4.000000 0.373025 0.160907
  endloop
endfacet
facet normal 0.000000 -0.116093 0.993238
  outer loop
    vertex 4.000000 0.000000 0.406250
    vertex 2.000000 0.000000 0.406250
    vertex 4.000000 -0.093688 0.395299
  endloop
endfacet
facet normal 0.000000 -0.116093 0.993238
  outer loop
    vertex 4.000000 -0.093688 0.395299
    vertex 2.000000 0.000000 0.406250
    vertex 2.000000 -0.093688 0.395299
  endloop
endfacet
facet normal 0.000000 -0.342020 0.939693
  outer loop
    vertex 4.000000 -0.093688 0.395299
    vertex 2.000000 -0.093688 0.395299
    vertex 4.000000 -0.182325 0.363038
  endloop
endfacet
facet normal 0.000000 -0.342020 0.939693
  outer loop
    vertex 4.000000 -0.182325 0.363038
    vertex 2.000000 -0.093688 0.395299
    vertex 2.000000 -0.182325 0.363038
  endloop
endfacet
facet normal 0.000000 -0.549509 0.835488
  outer loop
    vertex 4.000000 -0.182325 0.363038
    vertex 2.000000 -0.182325 0.363038
    vertex 4.000000 -0.261132 0.311206
  endloop
endfacet
facet normal 0.000000 -0.549509 0.835488
  outer loop
    vertex 4.000000 -0.261132 0.311206
    vertex 2.000000 -0.182325 0.363038
    vertex 2.000000 -0.261132 0.311206
  endloop
endfacet
facet normal 0.000000 -0.727374 0.686242
  outer loop
    vertex 4.000000 -0.261132 0.311206
    vertex 2.000000 -0.261132 0.311206
    vertex 4.000000 -0.325863 0.242596
  endloop
endfacet
facet normal 0.000000 -0.727374 0.686242
  outer loop
    vertex 4.000000 -0.325863 0.242596
    vertex 2.000000 -0.261132 0.311206
    vertex 2.000000 -0.325863 0.242596
  endloop
endfacet
facet normal 0.000000 -0.866025 0.500000
  outer loop
    vertex 4.000000 -0.325863 0.242596
    vertex 2.000000 -0.325863 0.242596
    vertex 4.000000 -0.373025 0.160907
  endloop
endfacet
facet normal 0.000000 -0.866025 0.500000
  outer loop
    vertex 4.000000 -0.373025 0.160907
    vertex 2.000000 -0.325863 0.242596
    vertex 2.000000 -0.373025 0.160907
  endloop
endfacet
facet normal 0.000000 -0.957990 0.286803
  outer loop
    vertex 4.000000 -0.373025 0.160907
    vertex 2.000000 -0.373025 0.160907
    vertex 4.000000 -0.400078 0.070545
  endloop
endfacet
facet normal 0.000000 -0.957990 0.286803
  outer loop
    vertex 4.000000 -0.400078 0.070545
    vertex 2.000000 -0.373025 0.160907
    vertex 2.000000 -0.400078 0.070545
  endloop
endfacet
facet normal 0.000000 -0.998308 0.058145
  outer loop
    vertex 4.000000 -0.400078 0.070545
    vertex 2.000000 -0.400078 0.070545
    vertex 4.000000 -0.405563 -0.023621
  endloop
endfacet
facet normal 0.000000 -0.998308 0.058145
  outer loop
    vertex 4.000000 -0.405563 -0.023621
    vertex 2.000000 -0.400078 0.070545
    vertex 2.000000 -0.405563 -0.023621
  endloop
endfacet
facet normal -0.000000 -0.984808 -0.173648
  outer loop
    vertex 4.000000 -0.405563 -0.023621
    vertex 2.000000 -0.405563 -0.023621
    vertex 4.000000 -0.389183 -0.116514
  endloop
endfacet
facet normal -0.000000 -0.984808 -0.173648
  outer loop
    vertex 4.000000 -0.389183 -0.116514
    vertex 2.000000 -0.405563 -0.023621
    vertex 2.000000 -0.389183 -0.116514
  endloop
endfacet
facet normal -0.000000 -0.918216 -0.396080
  outer loop
    vertex 4.000000 -0.389183 -0.116514
    vertex 2.000000 -0.389183 -0.116514
    vertex 4.000000 -0.351823 -0.203125
  endloop
endfacet
facet normal -0.000000 -0.918216 -0.396080
  outer loop
    vertex 4.000000 -0.351823 -0.203125
    vertex 2.000000 -0.389183 -0.116514
    vertex 2.000000 -0.351823 -0.203125
  endloop
endfacet
facet normal -0.000000 -0.802123 -0.597159
  outer loop
    vertex 4.000000 -0.351823 -0.203125
    vertex 2.000000 -0.351823 -0.203125
    vertex 4.000000 -0.295496 -0.278786
  endloop
endfacet
facet normal -0.000000 -0.802123 -0.597159
  outer loop
    vertex 4.000000 -0.295496 -0.278786
    vertex 2.000000 -0.351823 -0.203125
    vertex 2.000000 -0.295496 -0.278786
  endloop
endfacet
facet normal -0.000000 -0.642788 -0.766044
  outer loop
    vertex 4.000000 -0.295496 -0.278786
    vertex 2.000000 -0.295496 -0.278786
    vertex 4.000000 -0.223238 -0.339417
  endloop
endfacet
facet normal -0.000000 -0.642788 -0.766044
  outer loop
    vertex 4.000000 -0.223238 -0.339417
    vertex 2.000000 -0.295496 -0.278786
    vertex 2.000000 -0.223238 -0.339417
  endloop
endfacet
facet normal -0.000000 -0.448799 -0.893633
  outer loop
    vertex 4.000000 -0.223238 -0.339417
    vertex 2.000000 -0.223238 -0.339417
    vertex 4.000000 -0.138946 -0.381750
  endloop
endfacet
facet normal -0.000000 -0.448799 -0.893633
  outer loop
    vertex 4.000000 -0.138946 -0.381750
    vertex 2.000000 -0.223238 -0.339417
    vertex 2.000000 -0.138946 -0.381750
  endloop
endfacet
facet normal -0.000000 -0.230616 -0.973045
  outer loop
    vertex 4.000000 -0.138946 -0.381750
    vertex 2.000000 -0.138946 -0.381750
    vertex 4.000000 -0.047163 -0.403503
  endloop
endfacet
facet normal -0.000000 -0.230616 -0.973045
  outer loop
    vertex 4.000000 -0.047163 -0.403503
    vertex 2.000000 -0.138946 -0.381750
    vertex 2.000000 -0.047163 -0.403503
  endloop
endfacet
facet normal 0.000000 0.000000 -1.000000
  outer loop
    vertex 4.000000 -0.047163 -0.403503
    vertex 2.000000 -0.047163 -0.403503
    vertex 4.000000 0.047163 -0.403503
  endloop
endfacet
facet normal -0.000000 0.116093 0.993238
  outer loop
    vertex 6.000000 0.000000 0.406250
    vertex 8.000000 0.000000 0.406250
    vertex 6.000000 0.093688 0.395299
  endloop
endfacet
facet normal -0.000000 0.116093 0.993238
  outer loop
    vertex 6.000000 0.093688 0.395299
    vertex 8.000000 0.000000 0.406250
    vertex 8.000000 0.093688 0.395299
  endloop
endfacet
facet normal -0.000000 0.342020 0.939693
  outer loop
    vertex 6.000000 0.093688 0.395299
    vertex 8.000000 0.093688 0.395299
    vertex 6.000000 0.182325 0.363038
  endloop
endfacet
facet normal -0.000000 0.342020 0.939693
  outer loop
    vertex 6.000000 0.182325 0.363038
    vertex 8.000000 0.093688 0.395299
    vertex 8.000000 0.182325 0.363038
  endloop
endfacet
facet normal -0.000000 0.549509 0.835488
  outer loop
    vertex 6.000000 0.182325 0.363038
    vertex 8.000000 0.182325 0.363038
    vertex 6.000000 0.261132 0.311206
  endloop
endfacet
facet normal -0.000000 0.549509 0.835488
  outer loop
    vertex 6.000000 0.261132 0.311206
    vertex 8.000000 0.182325 0.363038
    vertex 8.000000 0.261132 0.311206
  endloop
endfacet
facet normal -0.000000 0.727374 0.686242
  outer loop
    vertex 6.000000 0.261132 0.311206
    vertex 8.000000 0.261132 0.311206
    vertex 6.000000 0.325863 0.242596
  endloop
endfacet
facet normal 0.000000 -0.116093 0.993238
  outer loop
    vertex 6.000000 0.000000 0.406250
    vertex 4.000000 0.000000 0.406250
    vertex 6.000000 -0.093688 0.395299
  endloop
endfacet
facet normal 0.000000 -0.116093 0.993238
  outer loop
    vertex 6.000000 -0.093688 0.395299
    vertex 4.000000 0.000000 0.406250
    vertex 4.000000 -0.093688 0.395299
  endloop
endfacet
facet normal 0.000000 -0.342020 0.939693
  outer loop
    vertex 6.000000 -0.093688 0.395299
    vertex 4.000000 -0.093688 0.395299
    vertex 6.000000 -0.182325 0.363038
  endloop
endfacet
facet normal 0.000000 -0.342020 0.939693
  outer loop
    vertex 6.000000 -0.182325 0.363038
    vertex 4.000000 -0.093688 0.395299
    vertex 4.000000 -0.182325 0.363038
  endloop
endfacet
facet normal 0.000000 -0.549509 0.835488
  outer loop
    vertex 6.000000 -0.182325 0.363038
    vertex 4.000000 -0.182325 0.363038
    vertex 6.000000 -0.261132 0.311206
  endloop
endfacet
facet normal 0.000000 -0.549509 0.835488
  outer loop
    vertex 6.000000 -0.261132 0.311206
    vertex 4.000000 -0.182325 0.363038
    vertex 4.000000 -0.261132 0.311206
  endloop
endfacet
facet normal 0.000000 -0.727374 0.686242
  outer loop
    vertex 6.000000 -0.261132 0.311206
    vertex 4.000000 -0.261132 0.311206
    vertex 6.000000 -0.325863 0.242596
  endloop
endfacet
facet normal 0.000000 -0.727374 0.686242
  outer loop
    vertex 6.000000 -0.325863 0.242596
    vertex 4.000000 -0.261132 0.311206
    vertex 4.000000 -0.325863 0.242596
  endloop
endfacet
facet normal 0.000000 -0.866025 0.500000
  outer loop
    vertex 6.000000 -0.325863 0.242596
    vertex 4.000000 -0.325863 0.242596
    vertex 6.000000 -0.373025 0.160907
  endloop
endfacet
facet normal 0.000000 -0.866025 0.500000
  outer loop
    vertex 6.000000 -0.373025 0.160907
    vertex 4.000000 -0.325863 0.242596
    vertex 4.000000 -0.373025 0.160907
  endloop
endfacet
facet normal 0.000000 -0.957990 0.286803
  outer loop
    vertex 6.000000 -0.373025 0.160907
    vertex 4.000000 -0.373025 0.160907
    vertex 6.000000 -0.400078 0.070545
  endloop
endfacet
facet normal 0.000000 -0.957990 0.286803
  outer loop
    vertex 6.000000 -0.400078 0.070545
    vertex 4.000000 -0.373025 0.160907
    vertex 4.000000 -0.400078 0.070545
  endloop
endfacet
facet normal 0.000000 -0.998308 0.058145
  outer loop
    vertex 6.000000 -0.400078 0.070545
    vertex 4.000000 -0.400078 0.070545
    vertex 6.000000 -0.405563 -0.023621
  endloop
endfacet
facet normal 0.000000 -0.998308 0.058145
  outer loop
    vertex 6.000000 -0.405563 -0.023621
    vertex 4.000000 -0.400078 0.070545
    vertex 4.000000 -0.405563 -0.023621
  endloop
endfacet
facet normal -0.000000 -0.984808 -0.173648
  outer loop
    vertex 6.000000 -0.405563 -0.023621
    vertex 4.000000 -0.405563 -0.023621
    vertex 6.000000 -0.389183 -0.116514
  endloop
endfacet
facet normal -0.000000 -0.984808 -0.173648
  outer loop
    vertex 6.000000 -0.389183 -0.116514
    vertex 4.000000 -0.405563 -0.023621
    vertex 4.000000 -0.389183 -0.116514
  endloop
endfacet
facet normal -0.000000 -0.918216 -0.396080
  outer loop
    vertex 6.000000 -0.389183 -0.116514
    vertex 4.000000 -0.389183 -0.116514
    vertex 6.000000 -0.351823 -0.203125
  endloop
endfacet
facet normal -0.000000 -0.918216 -0.396080
  outer loop
    vertex 6.000000 -0.351823 -0.203125
    vertex 4.000000 -0.389183 -0.116514
    vertex 4.000000 -0.351823 -0.203125
  endloop
endfacet
facet normal -0.000000 -0.802123 -0.597159
  outer loop
    vertex 6.000000 -0.351823 -0.203125
    vertex 4.000000 -0.351823 -0.203125
    vertex 6.000000 -0.295496 -0.278786
  endloop
endfacet
facet normal -0.000000 -0.802123 -0.597159
  outer loop
    vertex 6.000000 -0.295496 -0.278786
    vertex 4.000000 -0.351823 -0.203125
    vertex 4.000000 -0.295496 -0.278786
  endloop
endfacet
facet normal -0.000000 -0.642788 -0.766044
  outer loop
    vertex 6.000000 -0.295496 -0.278786
    vertex 4.000000 -0.295496 -0.278786
    vertex 6.000000 -0.223238 -0.339417
  endloop
endfacet
facet normal -0.000000 -0.642788 -0.766044
  outer loop
    vertex 6.000000 -0.223238 -0.339417
    vertex 4.000000 -0.295496 -0.278786
    vertex 4.000000 -0.223238 -0.339417
  endloop
endfacet
facet normal -0.000000 -0.448799 -0.893633
  outer loop
    vertex 6.000000 -0.223238 -0.339417
    vertex 4.000000 -0.223238 -0.339417
    vertex 6.000000 -0.138946 -0.381750
  endloop
endfacet
facet normal -0.000000 -0.448799 -0.893633
  outer loop
    vertex 6.000000 -0.138946 -0.381750
    vertex 4.000000 -0.223238 -0.339417
    vertex 4.000000 -0.138946 -0.381750
  endloop
endfacet
facet normal -0.000000 -0.230616 -0.973045
  outer loop
    vertex 6.000000 -0.138946 -0.381750
    vertex 4.000000 -0.138946 -0.381750
    vertex 6.000000 -0.047163 -0.403503
  endloop
endfacet
facet normal -0.000000 -0.230616 -0.973045
  outer loop
    vertex 6.000000 -0.047163 -0.403503
    vertex 4.000000 -0.138946 -0.381750
    vertex 4.000000 -0.047163 -0.403503
  endloop
endfacet
facet normal 0.000000 0.000000 -1.000000
  outer loop
    vertex 6.000000 -0.047163 -0.403503
    vertex 4.000000 -0.047163 -0.403503
    vertex 6.000000 0.047163 -0.403503
  endloop
endfacet
facet normal -0.000000 0.000000 -1.000000
  outer loop
    vertex 6.000000 0.047163 -0.403503
    vertex 4.000000 -0.047163 -0.403503
    vertex 4.000000 0.047163 -0.403503
  endloop
endfacet
facet normal 0.000000 0.230616 -0.973045
  outer loop
    vertex 6.000000 0.047163 -0.403503
    vertex 4.000000 0.047163 -0.403503
    vertex 6.000000 0.138946 -0.381750
  endloop
endfacet
facet normal -0.000000 0.116093 0.993238
  outer loop
    vertex 8.000000 0.000000 0.406250
    vertex 10.000000 0.000000 0.406250
    vertex 8.000000 0.093688 0.395299
  endloop
endfacet
facet normal -0.000000 0.116093 0.993238
  outer loop
    vertex 8.000000 0.093688 0.395299
    vertex 10.000000 0.000000 0.406250
    vertex 10.000000 0.093688 0.395299
  endloop
endfacet
facet normal -0.000000 0.342020 0.939693
  outer loop
    vertex 8.000000 0.093688 0.395299
    vertex 10.000000 0.093688 0.395299
    vertex 8.000000 0.182325 0.363038
  endloop
endfacet
facet normal -0.000000 0.342020 0.939693
  outer loop
    vertex 8.000000 0.182325 0.363038
    vertex 10.000000 0.093688 0.395299
    vertex 10.000000 0.182325 0.363038
  endloop
endfacet
facet normal -0.000000 0.549509 0.835488
  outer loop
    vertex 8.000000 0.182325 0.363038
    vertex 10.000000 0.182325 0.363038
    vertex 8.000000 0.261132 0.311206
  endloop
endfacet
facet normal 0.000000 -0.116093 0.993238
  outer loop
    vertex 8.000000 0.000000 0.406250
    vertex 6.000000 0.000000 0.406250
    vertex 8.000000 -0.093688 0.395299
  endloop
endfacet
facet normal 0.000000 -0.116093 0.993238
  outer loop
    vertex 8.000000 -0.093688 0.395299
    vertex 6.000000 0.000000 0.406250
    vertex 6.000000 -0.093688 0.395299
  endloop
endfacet
facet normal 0.000000 -0.342020 0.939693
  outer loop
    vertex 8.000000 -0.093688 0.395299
    vertex 6.000000 -0.093688 0.395299
    vertex 8.000000 -0.182325 0.363038
  endloop
endfacet
facet normal 0.000000 -0.342020 0.939693
  outer loop
    vertex 8.000000 -0.182325 0.363038
    vertex 6.000000 -0.093688 0.395299
    vertex 6.000000 -0.182325 0.363038
  endloop
endfacet
facet normal 0.000000 -0.549509 0.835488
  outer loop
    vertex 8.000000 -0.182325 0.363038
    vertex 6.000000 -0.182325 0.363038
    vertex 8.000000 -0.261132 0.311206
  endloop
endfacet
facet normal 0.000000 -0.549509 0.835488
  outer loop
    vertex 8.000000 -0.261132 0.311206
    vertex 6.000000 -0.182325 0.363038
    vertex 6.000000 -0.261132 0.311206
  endloop
endfacet
facet normal 0.000000 -0.727374 0.686242
  outer loop
    vertex 8.000000 -0.261132 0.311206
    vertex 6.000000 -0.261132 0.311206
    vertex 8.000000 -0.325863 0.242596
  endloop
endfacet
facet normal 0.000000 -0.727374 0.686242
  outer loop
    vertex 8.000000 -0.325863 0.242596
    vertex 6.000000 -0.261132 0.311206
    vertex 6.000000 -0.325863 0.242596
  endloop
endfacet
facet normal 0.000000 -0.866025 0.500000
  outer loop
    vertex 8.000000 -0.325863 0.242596
    vertex 6.000000 -0.325863 0.242596
    vertex 8.000000 -0.373025 0.160907
  endloop
endfacet
facet normal 0.000000 -0.866025 0.500000
  outer loop
    vertex 8.000000 -0.373025 0.160907
    vertex 6.000000 -0.325863 0.242596
    vertex 6.000000 -0.373025 0.160907
  endloop
endfacet
facet normal 0.000000 -0.957990 0.286803
  outer loop
    vertex 8.000000 -0.373025 0.160907
    vertex 6.000000 -0.373025 0.160907
    vertex 8.000000 -0.400078 0.070545
  endloop
endfacet
facet normal 0.000000 -0.957990 0.286803
  outer loop
    vertex 8.000000 -0.400078 0.070545
    vertex 6.000000 -0.373025 0.160907
    vertex 6.000000 -0.400078 0.070545
  endloop
endfacet
facet normal 0.000000 -0.998308 0.058145
  outer loop
    vertex 8.000000 -0.400078 0.070545
    vertex 6.000000 -0.400078 0.070545
    vertex 8.000000 -0.405563 -0.023621
  endloop
endfacet
facet normal 0.000000 -0.998308 0.058145
  outer loop
    vertex 8.000000 -0.405563 -0.023621
    vertex 6.000000 -0.400078 0.070545
    vertex 6.000000 -0.405563 -0.023621
  endloop
endfacet
facet normal -0.000000 -0.984808 -0.173648
  outer loop
    vertex 8.000000 -0.405563 -0.023621
    vertex 6.000000 -0.405563 -0.023621
    vertex 8.000000 -0.389183 -0.116514
  endloop
endfacet
facet normal -0.000000 -0.984808 -0.173648
  outer loop
    vertex 8.000000 -0.389183 -0.116514
    vertex 6.000000 -0.405563 -0.023621
    vertex 6.000000 -0.389183 -0.116514
  endloop
endfacet
facet normal -0.000000 -0.918216 -0.396080
  outer loop
    vertex 8.000000 -0.389183 -0.116514
    vertex 6.000000 -0.389183 -0.116514
    vertex 8.000000 -0.351823 -0.203125
  endloop
endfacet
facet normal -0.000000 -0.918216 -0.396080
  outer loop
    vertex 8.000000 -0.351823 -0.203125
    vertex 6.000000 -0.389183 -0.116514
    vertex 6.000000 -0.351823 -0.203125
  endloop
endfacet
facet normal -0.000000 -0.802123 -0.597159
  outer loop
    vertex 8.000000 -0.351823 -0.203125
    vertex 6.000000 -0.351823 -0.203125
    vertex 8.000000 -0.295496 -0.278786
  endloop
endfacet
facet normal -0.000000 -0.802123 -0.597159
  outer loop
    vertex 8.000000 -0.295496 -0.278786
    vertex 6.000000 -0.351823 -0.203125
    vertex 6.000000 -0.295496 -0.278786
  endloop
endfacet
facet normal -0.000000 -0.642788 -0.766044
  outer loop
    vertex 8.000000 -0.295496 -0.278786
    vertex 6.000000 -0.295496 -0.278786
    vertex 8.000000 -0.223238 -0.339417
  endloop
endfacet
facet normal -0.000000 -0.642788 -0.766044
  outer loop
    vertex 8.000000 -0.223238 -0.339417
    vertex 6.000000 -0.295496 -0.278786
    vertex 6.000000 -0.223238 -0.339417
  endloop
endfacet
facet normal -0.000000 -0.448799 -0.893633
  outer loop
    vertex 8.000000 -0.223238 -0.339417
    vertex 6.000000 -0.223238 -0.339417
    vertex 8.000000 -0.138946 -0.381750
  endloop
endfacet
facet normal -0.000000 -0.448799 -0.893633
  outer loop
    vertex 8.000000 -0.138946 -0.381750
    vertex 6.000000 -0.223238 -0.339417
    vertex 6.000000 -0.138946 -0.381750
  endloop
endfacet
facet normal -0.000000 -0.230616 -0.973045
  outer loop
    vertex 8.000000 -0.138946 -0.381750
    vertex 6.000000 -0.138946 -0.381750
    vertex 8.000000 -0.047163 -0.403503
  endloop
endfacet
facet normal -0.000000 -0.230616 -0.973045
  outer loop
    vertex 8.000000 -0.047163 -0.403503
    vertex 6.000000 -0.138946 -0.381750
    vertex 6.000000 -0.047163 -0.403503
  endloop
endfacet
facet normal 0.000000 0.000000 -1.000000
  outer loop
    vertex 8.000000 -0.047163 -0.403503
    vertex 6.000000 -0.047163 -0.403503
    vertex 8.000000 0.047163 -0.403503
  endloop
endfacet
facet normal -0.000000 0.000000 -1.000000
  outer loop
    vertex 8.000000 0.047163 -0.403503
    vertex 6.000000 -0.047163 -0.403503
    vertex 6.000000 0.047163 -0.403503
  endloop
endfacet
facet normal 0.000000 0.230616 -0.973045
  outer loop
    vertex 8.000000 0.047163 -0.403503
    vertex 6.000000 0.047163 -0.403503
    vertex 8.000000 0.138946 -0.381750
  endloop
endfacet
facet normal 0.000000 0.230616 -0.973045
  outer loop
    vertex 8.000000 0.138946 -0.381750
    vertex 6.000000 0.047163 -0.403503
    vertex 6.000000 0.138946 -0.381750
  endloop
endfacet
facet normal 0.000000 0.448799 -0.893633
  outer loop
    vertex 8.000000 0.138946 -0.381750
    vertex 6.000000 0.138946 -0.381750
    vertex 8.000000 0.223238 -0.339417
  endloop
endfacet
facet normal -0.000000 0.116093 0.993238
  outer loop
    vertex 10.000000 0.000000 0.406250
    vertex 12.000000 0.000000 0.406250
    vertex 10.000000 0.093688 0.395299
  endloop
endfacet
facet normal -0.000000 0.116093 0.993238
  outer loop
    vertex 10.000000 0.093688 0.395299
    vertex 12.000000 0.000000 0.406250
    vertex 12.000000 0.093688 0.395299
  endloop
endfacet
facet normal -0.000000 0.342020 0.939693
  outer loop
    vertex 10.000000 0.093688 0.395299
    vertex 12.000000 0.093688 0.395299
    vertex 10.000000 0.182325 0.363038
  endloop
endfacet
facet normal 0.000000 -0.116093 0.993238
  outer loop
    vertex 10.000000 0.000000 0.406250
    vertex 8.000000 0.000000 0.406250
    vertex 10.000000 -0.093688 0.395299
  endloop
endfacet
facet normal 0.000000 -0.116093 0.993238
  outer loop
    vertex 10.000000 -0.093688 0.395299
    vertex 8.000000 0.000000 0.406250
    vertex 8.000000 -0.093688 0.395299
  endloop
endfacet
facet normal 0.000000 -0.342020 0.939693
  outer loop
    vertex 10.000000 -0.093688 0.395299
    vertex 8.000000 -0.093688 0.395299
    vertex 10.000000 -0.182325 0.363038
  endloop
endfacet
facet normal 0.000000 -0.342020 0.939693
  outer loop
    vertex 10.000000 -0.182325 0.363038
    vertex 8.000000 -0.093688 0.395299
    vertex 8.000000 -0.182325 0.363038
  endloop
endfacet
facet normal 0.000000 -0.549509 0.835488
  outer loop
    vertex 10.000000 -0.182325 0.363038
    vertex 8.000000 -0.182325 0.363038
    vertex 10.000000 -0.261132 0.311206
  endloop
endfacet
facet normal 0.000000 -0.549509 0.835488
  outer loop
    vertex 10.000000 -0.261132 0.311206
    vertex 8.000000 -0.182325 0.363038
    vertex 8.000000 -0.261132 0.311206
  endloop
endfacet
facet normal 0.000000 -0.727374 0.686242
  outer loop
    vertex 10.000000 -0.261132 0.311206
    vertex 8.000000 -0.261132 0.311206
    vertex 10.000000 -0.325863 0.242596
  endloop
endfacet
facet normal 0.000000 -0.727374 0.686242
  outer loop
    vertex 10.000000 -0.325863 0.242596
    vertex 8.000000 -0.261132 0.311206
    vertex 8.000000 -0.325863 0.242596
  endloop
endfacet
facet normal 0.000000 -0.866025 0.500000
  outer loop
    vertex 10.000000 -0.325863 0.242596
    vertex 8.000000 -0.325863 0.242596
    vertex 10.000000 -0.373025 0.160907
  endloop
endfacet
facet normal 0.000000 -0.866025 0.500000
  outer loop
    vertex 10.000000 -0.373025 0.160907
    vertex 8.000000 -0.325863 0.242596
    vertex 8.000000 -0.373025 0.160907
  endloop
endfacet
facet normal 0.000000 -0.957990 0.286803
  outer loop
    vertex 10.000000 -0.373025 0.160907
    vertex 8.000000 -0.373025 0.160907
    vertex 10.000000 -0.400078 0.070545
  endloop
endfacet
facet normal 0.000000 -0.957990 0.286803
  outer loop
    vertex 10.000000 -0.400078 0.070545
    vertex 8.000000 -0.373025 0.160907
    vertex 8.000000 -0.400078 0.070545
  endloop
endfacet
facet normal 0.000000 -0.998308 0.058145
  outer loop
    vertex 10.000000 -0.400078 0.070545
    vertex 8.000000 -0.400078 0.070545
    vertex 10.000000 -0.405563 -0.023621
  endloop
endfacet
facet normal 0.000000 -0.998308 0.058145
  outer loop
    vertex 10.000000 -0.405563 -0.023621
    vertex 8.000000 -0.400078 0.070545
    vertex 8.000000 -0.405563 -0.023621
  endloop
endfacet
facet normal -0.000000 -0.984808 -0.173648
  outer loop
    vertex 10.000000 -0.405563 -0.023621
    vertex 8.000000 -0.405563 -0.023621
    vertex 10.000000 -0.389183 -0.116514
  endloop
endfacet
facet normal -0.000000 -0.984808 -0.173648
  outer loop
    vertex 10.000000 -0.389183 -0.116514
    vertex 8.000000 -0.405563 -0.023621
    vertex 8.000000 -0.389183 -0.116514
  endloop
endfacet
facet normal -0.000000 -0.918216 -0.396080
  outer loop
    vertex 10.000000 -0.389183 -0.116514
    vertex 8.000000 -0.389183 -0.116514
    vertex 10.000000 -0.351823 -0.203125
  endloop
endfacet
facet normal -0.000000 -0.918216 -0.396080
  outer loop
    vertex 10.000000 -0.351823 -0.203125
    vertex 8.000000 -0.389183 -0.116514
    vertex 8.000000 -0.351823 -0.203125
  endloop
endfacet
facet normal -0.000000 -0.802123 -0.597159
  outer loop
    vertex 10.000000 -0.351823 -0.203125
    vertex 8.000000 -0.351823 -0.203125
    vertex 10.000000 -0.295496 -0.278786
  endloop
endfacet
facet normal -0.000000 -0.802123 -0.597159
  outer loop
    vertex 10.000000 -0.295496 -0.278786
    vertex 8.000000 -0.351823 -0.203125
    vertex 8.000000 -0.295496 -0.278786
  endloop
endfacet
facet normal -0.000000 -0.642788 -0.766044
  outer loop
    vertex 10.000000 -0.295496 -0.278786
    vertex 8.000000 -0.295496 -0.278786
    vertex 10.000000 -0.223238 -0.339417
  endloop
endfacet
facet normal -0.000000 -0.642788 -0.766044
  outer loop
    vertex 10.000000 -0.223238 -0.339417
    vertex 8.000000 -0.295496 -0.278786
    vertex 8.000000 -0.223238 -0.339417
  endloop
endfacet
facet normal -0.000000 -0.448799 -0.893633
  outer loop
    vertex 10.000000 -0.223238 -0.339417
    vertex 8.000000 -0.223238 -0.339417
    vertex 10.000000 -0.138946 -0.381750
  endloop
endfacet
facet normal -0.000000 -0.448799 -0.893633
  outer loop
    vertex 10.000000 -0.138946 -0.381750
    vertex 8.000000 -0.223238 -0.339417
    vertex 8.000000 -0.138946 -0.381750
  endloop
endfacet
facet normal -0.000000 -0.230616 -0.973045
  outer loop
    vertex 10.000000 -0.138946 -0.381750
    vertex 8.000000 -0.138946 -0.381750
    vertex 10.000000 -0.047163 -0.403503
  endloop
endfacet
facet normal -0.000000 -0.230616 -0.973045
  outer loop
    vertex 10.000000 -0.047163 -0.403503
    vertex 8.000000 -0.138946 -0.381750
    vertex 8.000000 -0.047163 -0.403503
  endloop
endfacet
facet normal 0.000000 0.000000 -1.000000
  outer loop
    vertex 10.000000 -0.047163 -0.403503
    vertex 8.000000 -0.047163 -0.403503
    vertex 10.000000 0.047163 -0.403503
  endloop
endfacet
facet normal -0.000000 0.000000 -1.000000
  outer loop
    vertex 10.000000 0.047163 -0.403503
    vertex 8.000000 -0.047163 -0.403503
    vertex 8.000000 0.047163 -0.403503
  endloop
endfacet
facet normal 0.000000 0.230616 -0.973045
  outer loop
    vertex 10.000000 0.047163 -0.403503
    vertex 8.000000 0.047163 -0.403503
    vertex 10.000000 0.138946 -0.381750
  endloop
endfacet
facet normal 0.000000 0.230616 -0.973045
  outer loop
    vertex 10.000000 0.138946 -0.381750
    vertex 8.000000 0.047163 -0.403503
    vertex 8.000000 0.138946 -0.381750
  endloop
endfacet
facet normal 0.000000 0.448799 -0.893633
  outer loop
    vertex 10.000000 0.138946 -0.381750
    vertex 8.000000 0.138946 -0.381750
    vertex 10.000000 0.223238 -0.339417
  endloop
endfacet
facet normal 0.000000 0.448799 -0.893633
  outer loop
    vertex 10.000000 0.223238 -0.339417
    vertex 8.000000 0.138946 -0.381750
    vertex 8.000000 0.223238 -0.339417
  endloop
endfacet
facet normal 0.000000 0.642788 -0.766044
  outer loop
    vertex 10.000000 0.223238 -0.339417
    vertex 8.000000 0.223238 -0.339417
    vertex 10.000000 0.295496 -0.278786
  endloop
endfacet
facet normal 0.000000 0.116093 0.993238
  outer loop
    vertex 12.000000 0.093688 0.395299
    vertex 12.000000 0.000000 0.406250
    vertex 14.000000 0.000000 0.406250
  endloop
endfacet
facet normal 0.000000 -0.116093 0.993238
  outer loop
    vertex 14.000000 0.000000 0.406250
    vertex 12.000000 0.000000 0.406250
    vertex 14.000000 -0.093688 0.395299
  endloop
endfacet
facet normal 0.000000 -0.116093 0.993238
  outer loop
    vertex 14.000000 0.000000 0.406250
    vertex 14.000000 -0.093688 0.395299
    vertex 16.000000 -0.093688 0.395299
  endloop
endfacet
facet normal 0.000000 -0.342020 0.939693
  outer loop
    vertex 16.000000 -0.093688 0.395299
    vertex 14.000000 -0.093688 0.395299
    vertex 16.000000 -0.182325 0.363038
  endloop
endfacet
facet normal 0.000000 -0.116093 0.993238
  outer loop
    vertex 12.000000 0.000000 0.406250
    vertex 10.000000 0.000000 0.406250
    vertex 12.000000 -0.093688 0.395299
  endloop
endfacet
facet normal 0.000000 -0.116093 0.993238
  outer loop
    vertex 12.000000 -0.093688 0.395299
    vertex 10.000000 0.000000 0.406250
    vertex 10.000000 -0.093688 0.395299
  endloop
endfacet
facet normal 0.000000 -0.342020 0.939693
  outer loop
    vertex 12.000000 -0.093688 0.395299
    vertex 10.000000 -0.093688 0.395299
    vertex 12.000000 -0.182325 0.363038
  endloop
endfacet
facet normal 0.000000 -0.342020 0.939693
  outer loop
    vertex 12.000000 -0.182325 0.363038
    vertex 10.000000 -0.093688 0.395299
    vertex 10.000000 -0.182325 0.363038
  endloop
endfacet
facet normal 0.000000 -0.549509 0.835488
  outer loop
    vertex 12.000000 -0.182325 0.363038
    vertex 10.000000 -0.182325 0.363038
    vertex 12.000000 -0.261132 0.311206
  endloop
endfacet
facet normal 0.000000 -0.549509 0.835488
  outer loop
    vertex 12.000000 -0.261132 0.311206
    vertex 10.000000 -0.182325 0.363038
    vertex 10.000000 -0.261132 0.311206
  endloop
endfacet
facet normal 0.000000 -0.727374 0.686242
  outer loop
    vertex 12.000000 -0.261132 0.311206
    vertex 10.000000 -0.261132 0.311206
    vertex 12.000000 -0.325863 0.242596
  endloop
endfacet
facet normal 0.000000 -0.727374 0.686242
  outer loop
    vertex 12.000000 -0.325863 0.242596
    vertex 10.000000 -0.261132 0.311206
    vertex 10.000000 -0.325863 0.242596
  endloop
endfacet
facet normal 0.000000 -0.866025 0.500000
  outer loop
    vertex 12.000000 -0.325863 0.242596
    vertex 10.000000 -0.325863 0.242596
    vertex 12.000000 -0.373025 0.160907
  endloop
endfacet
facet normal 0.000000 -0.866025 0.500000
  outer loop
    vertex 12.000000 -0.373025 0.160907
    vertex 10.000000 -0.325863 0.242596
    vertex 10.000000 -0.373025 0.160907
  endloop
endfacet
facet normal 0.000000 -0.957990 0.286803
  outer loop
    vertex 12.000000 -0.373025 0.160907
    vertex 10.000000 -0.373025 0.160907
    vertex 12.000000 -0.400078 0.070545
  endloop
endfacet
facet normal 0.000000 -0.957990 0.286803
  outer loop
    vertex 12.000000 -0.400078 0.070545
    vertex 10.000000 -0.373025 0.160907
    vertex 10.000000 -0.400078 0.070545
  endloop
endfacet
facet normal 0.000000 -0.998308 0.058145
  outer loop
    vertex 12.000000 -0.400078 0.070545
    vertex 10.000000 -0.400078 0.070545
    vertex 12.000000 -0.405563 -0.023621
  endloop
endfacet
facet normal 0.000000 -0.998308 0.058145
  outer loop
    vertex 12.000000 -0.405563 -0.023621
    vertex 10.000000 -0.400078 0.070545
    vertex 10.000000 -0.405563 -0.023621
  endloop
endfacet
facet normal -0.000000 -0.984808 -0.173648
  outer loop
    vertex 12.000000 -0.405563 -0.023621
    vertex 10.000000 -0.405563 -0.023621
    vertex 12.000000 -0.389183 -0.116514
  endloop
endfacet
facet normal -0.000000 -0.984808 -0.173648
  outer loop
    vertex 12.000000 -0.389183 -0.116514
    vertex 10.000000 -0.405563 -0.023621
    vertex 10.000000 -0.389183 -0.116514
  endloop
endfacet
facet normal -0.000000 -0.918216 -0.396080
  outer loop
    vertex 12.000000 -0.389183 -0.116514
    vertex 10.000000 -0.389183 -0.116514
    vertex 12.000000 -0.351823 -0.203125
  endloop
endfacet
facet normal -0.000000 -0.918216 -0.396080
  outer loop
    vertex 12.000000 -0.351823 -0.203125
    vertex 10.000000 -0.389183 -0.116514
    vertex 10.000000 -0.351823 -0.203125
  endloop
endfacet
facet normal -0.000000 -0.802123 -0.597159
  outer loop
    vertex 12.000000 -0.351823 -0.203125
    vertex 10.000000 -0.351823 -0.203125
    vertex 12.000000 -0.295496 -0.278786
  endloop
endfacet
facet normal -0.000000 -0.802123 -0.597159
  outer loop
    vertex 12.000000 -0.295496 -0.278786
    vertex 10.000000 -0.351823 -0.203125
    vertex 10.000000 -0.295496 -0.278786
  endloop
endfacet
facet normal -0.000000 -0.642788 -0.766044
  outer loop
    vertex 12.000000 -0.295496 -0.278786
    vertex 10.000000 -0.295496 -0.278786
    vertex 12.000000 -0.223238 -0.339417
  endloop
endfacet
facet normal -0.000000 -0.642788 -0.766044
  outer loop
    vertex 12.000000 -0.223238 -0.339417
    vertex 10.000000 -0.295496 -0.278786
    vertex 10.000000 -0.223238 -0.339417
  endloop
endfacet
facet normal -0.000000 -0.448799 -0.893633
  outer loop
    vertex 12.000000 -0.223238 -0.339417
    vertex 10.000000 -0.223238 -0.339417
    vertex 12.000000 -0.138946 -0.381750
  endloop
endfacet
facet normal -0.000000 -0.448799 -0.893633
  outer loop
    vertex 12.000000 -0.138946 -0.381750
    vertex 10.000000 -0.223238 -0.339417
    vertex 10.000000 -0.138946 -0.381750
  endloop
endfacet
facet normal -0.000000 -0.230616 -0.973045
  outer loop
    vertex 12.000000 -0.138946 -0.381750
    vertex 10.000000 -0.138946 -0.381750
    vertex 12.000000 -0.047163 -0.403503
  endloop
endfacet
facet normal -0.000000 -0.230616 -0.973045
  outer loop
    vertex 12.000000 -0.047163 -0.403503
    vertex 10.000000 -0.138946 -0.381750
    vertex 10.000000 -0.047163 -0.403503
  endloop
endfacet
facet normal 0.000000 0.000000 -1.000000
  outer loop
    vertex 12.000000 -0.047163 -0.403503
    vertex 10.000000 -0.047163 -0.403503
    vertex 12.000000 0.047163 -0.403503
  endloop
endfacet
facet normal -0.000000 0.000000 -1.000000
  outer loop
    vertex 12.000000 0.047163 -0.403503
    vertex 10.000000 -0.047163 -0.403503
    vertex 10.000000 0.047163 -0.403503
  endloop
endfacet
facet normal 0.000000 0.230616 -0.973045
  outer loop
    vertex 12.000000 0.047163 -0.403503
    vertex 10.000000 0.047163 -0.403503
    vertex 12.000000 0.138946 -0.381750
  endloop
endfacet
facet normal 0.000000 0.230616 -0.973045
  outer loop
    vertex 12.000000 0.138946 -0.381750
    vertex 10.000000 0.047163 -0.403503
    vertex 10.000000 0.138946 -0.381750
  endloop
endfacet
facet normal 0.000000 0.448799 -0.893633
  outer loop
    vertex 12.000000 0.138946 -0.381750
    vertex 10.000000 0.138946 -0.381750
    vertex 12.000000 0.223238 -0.339417
  endloop
endfacet
facet normal 0.000000 0.448799 -0.893633
  outer loop
    vertex 12.000000 0.223238 -0.339417
    vertex 10.000000 0.138946 -0.381750
    vertex 10.000000 0.223238 -0.339417
  endloop
endfacet
facet normal 0.000000 0.642788 -0.766044
  outer loop
    vertex 12.000000 0.223238 -0.339417
    vertex 10.000000 0.223238 -0.339417
    vertex 12.000000 0.295496 -0.278786
  endloop
endfacet
facet normal 0.000000 0.642788 -0.766044
  outer loop
    vertex 12.000000 0.295496 -0.278786
    vertex 10.000000 0.223238 -0.339417
    vertex 10.000000 0.295496 -0.278786
  endloop
endfacet
facet normal 0.000000 0.802123 -0.597159
  outer loop
    vertex 12.000000 0.295496 -0.278786
    vertex 10.000000 0.295496 -0.278786
    vertex 12.000000 0.351823 -0.203125
  endloop
endfacet
facet normal 0.000000 -0.116093 0.993238
  outer loop
    vertex 12.000000 0.000000 0.406250
    vertex 12.000000 -0.093688 0.395299
    vertex 14.000000 -0.093688 0.395299
  endloop
endfacet
facet normal 0.000000 -0.342020 0.939693
  outer loop
    vertex 14.000000 -0.093688 0.395299
    vertex 12.000000 -0.093688 0.395299
    vertex 14.000000 -0.182325 0.363038
  endloop
endfacet
facet normal 0.000000 -0.342020 0.939693
  outer loop
    vertex 14.000000 -0.093688 0.395299
    vertex 14.000000 -0.182325 0.363038
    vertex 16.000000 -0.182325 0.363038
  endloop
endfacet
facet normal 0.000000 -0.549509 0.835488
  outer loop
    vertex 16.000000 -0.182325 0.363038
    vertex 14.000000 -0.182325 0.363038
    vertex 16.000000 -0.261132 0.311206
  endloop
endfacet
facet normal 0.000000 -0.342020 0.939693
  outer loop
    vertex 14.000000 -0.182325 0.363038
    vertex 12.000000 -0.093688 0.395299
    vertex 12.000000 -0.182325 0.363038
  endloop
endfacet
facet normal 0.000000 -0.549509 0.835488
  outer loop
    vertex 14.000000 -0.182325 0.363038
    vertex 12.000000 -0.182325 0.363038
    vertex 14.000000 -0.261132 0.311206
  endloop
endfacet
facet normal 0.000000 -0.549509 0.835488
  outer loop
    vertex 14.000000 -0.261132 0.311206
    vertex 12.000000 -0.182325 0.363038
    vertex 12.000000 -0.261132 0.311206
  endloop
endfacet
facet normal 0.000000 -0.727374 0.686242
  outer loop
    vertex 14.000000 -0.261132 0.311206
    vertex 12.000000 -0.261132 0.311206
    vertex 14.000000 -0.325863 0.242596
  endloop
endfacet
facet normal 0.000000 -0.727374 0.686242
  outer loop
    vertex 14.000000 -0.325863 0.242596
    vertex 12.000000 -0.261132 0.311206
    vertex 12.000000 -0.325863 0.242596
  endloop
endfacet
facet normal 0.000000 -0.866025 0.500000
  outer loop
    vertex 14.000000 -0.325863 0.242596
    vertex 12.000000 -0.325863 0.242596
    vertex 14.000000 -0.373025 0.160907
  endloop
endfacet
facet normal 0.000000 -0.866025 0.500000
  outer loop
    vertex 14.000000 -0.373025 0.160907
    vertex 12.000000 -0.325863 0.242596
    vertex 12.000000 -0.373025 0.160907
  endloop
endfacet
facet normal 0.000000 -0.957990 0.286803
  outer loop
    vertex 14.000000 -0.373025 0.160907
    vertex 12.000000 -0.373025 0.160907
    vertex 14.000000 -0.400078 0.070545
  endloop
endfacet
facet normal 0.000000 -0.957990 0.286803
  outer loop
    vertex 14.000000 -0.400078 0.070545
    vertex 12.000000 -0.373025 0.160907
    vertex 12.000000 -0.400078 0.070545
  endloop
endfacet
facet normal 0.000000 -0.998308 0.058145
  outer loop
    vertex 14.000000 -0.400078 0.070545
    vertex 12.000000 -0.400078 0.070545
    vertex 14.000000 -0.405563 -0.023621
  endloop
endfacet
facet normal 0.000000 -0.998308 0.058145
  outer loop
    vertex 14.000000 -0.405563 -0.023621
    vertex 12.000000 -0.400078 0.070545
    vertex 12.000000 -0.405563 -0.023621
  endloop
endfacet
facet normal -0.000000 -0.984808 -0.173648
  outer loop
    vertex 14.000000 -0.405563 -0.023621
    vertex 12.000000 -0.405563 -0.023621
    vertex 14.000000 -0.389183 -0.116514
  endloop
endfacet
facet normal -0.000000 -0.984808 -0.173648
  outer loop
    vertex 14.000000 -0.389183 -0.116514
    vertex 12.000000 -0.405563 -0.023621
    vertex 12.000000 -0.389183 -0.116514
  endloop
endfacet
facet normal -0.000000 -0.918216 -0.396080
  outer loop
    vertex 14.000000 -0.389183 -0.116514
    vertex 12.000000 -0.389183 -0.116514
    vertex 14.000000 -0.351823 -0.203125
  endloop
endfacet
facet normal -0.000000 -0.918216 -0.396080
  outer loop
    vertex 14.000000 -0.351823 -0.203125
    vertex 12.000000 -0.389183 -0.116514
    vertex 12.000000 -0.351823 -0.203125
  endloop
endfacet
facet normal -0.000000 -0.802123 -0.597159
  outer loop
    vertex 14.000000 -0.351823 -0.203125
    vertex 12.000000 -0.351823 -0.203125
    vertex 14.000000 -0.295496 -0.278786
  endloop
endfacet
facet normal -0.000000 -0.802123 -0.597159
  outer loop
    vertex 14.000000 -0.295496 -0.278786
    vertex 12.000000 -0.351823 -0.203125
    vertex 12.000000 -0.295496 -0.278786
  endloop
endfacet
facet normal -0.000000 -0.642788 -0.766044
  outer loop
    vertex 14.000000 -0.295496 -0.278786
    vertex 12.000000 -0.295496 -0.278786
    vertex 14.000000 -0.223238 -0.339417
  endloop
endfacet
facet normal -0.000000 -0.642788 -0.766044
  outer loop
    vertex 14.000000 -0.223238 -0.339417
    vertex 12.000000 -0.295496 -0.278786
    vertex 12.000000 -0.223238 -0.339417
  endloop
endfacet
facet normal -0.000000 -0.448799 -0.893633
  outer loop
    vertex 14.000000 -0.223238 -0.339417
    vertex 12.000000 -0.223238 -0.339417
    vertex 14.000000 -0.138946 -0.381750
  endloop
endfacet
facet normal -0.000000 -0.448799 -0.893633
  outer loop
    vertex 14.000000 -0.138946 -0.381750
    vertex 12.000000 -0.223238 -0.339417
    vertex 12.000000 -0.138946 -0.381750
  endloop
endfacet
facet normal -0.000000 -0.230616 -0.973045
  outer loop
    vertex 14.000000 -0.138946 -0.381750
    vertex 12.000000 -0.138946 -0.381750
    vertex 14.000000 -0.047163 -0.403503
  endloop
endfacet
facet normal -0.000000 -0.230616 -0.973045
  outer loop
    vertex 14.000000 -0.047163 -0.403503
    vertex 12.000000 -0.138946 -0.381750
    vertex 12.000000 -0.047163 -0.403503
  endloop
endfacet
facet normal 0.000000 0.000000 -1.000000
  outer loop
    vertex 14.000000 -0.047163 -0.403503
    vertex 12.000000 -0.047163 -0.403503
    vertex 14.000000 0.047163 -0.403503
  endloop
endfacet
facet normal -0.000000 0.000000 -1.000000
  outer loop
    vertex 14.000000 0.047163 -0.403503
    vertex 12.000000 -0.047163 -0.403503
    vertex 12.000000 0.047163 -0.403503
  endloop
endfacet
facet normal 0.000000 0.230616 -0.973045
  outer loop
    vertex 14.000000 0.047163 -0.403503
    vertex 12.000000 0.047163 -0.403503
    vertex 14.000000 0.138946 -0.381750
  endloop
endfacet
facet normal 0.000000 0.230616 -0.973045
  outer loop
    vertex 14.000000 0.138946 -0.381750
    vertex 12.000000 0.047163 -0.403503
    vertex 12.000000 0.138946 -0.381750
  endloop
endfacet
facet normal 0.000000 0.448799 -0.893633
  outer loop
    vertex 14.000000 0.138946 -0.381750
    vertex 12.000000 0.138946 -0.381750
    vertex 14.000000 0.223238 -0.339417
  endloop
endfacet
facet normal 0.000000 0.448799 -0.893633
  outer loop
    vertex 14.000000 0.223238 -0.339417
    vertex 12.000000 0.138946 -0.381750
    vertex 12.000000 0.223238 -0.339417
  endloop
endfacet
facet normal 0.000000 0.642788 -0.766044
  outer loop
    vertex 14.000000 0.223238 -0.339417
    vertex 12.000000 0.223238 -0.339417
    vertex 14.000000 0.295496 -0.278786
  endloop
endfacet
facet normal 0.000000 0.642788 -0.766044
  outer loop
    vertex 14.000000 0.295496 -0.278786
    vertex 12.000000 0.223238 -0.339417
    vertex 12.000000 0.295496 -0.278786
  endloop
endfacet
facet normal 0.000000 0.802123 -0.597159
  outer loop
    vertex 14.000000 0.295496 -0.278786
    vertex 12.000000 0.295496 -0.278786
    vertex 14.000000 0.351823 -0.203125
  endloop
endfacet
facet normal 0.000000 0.802123 -0.597159
  outer loop
    vertex 14.000000 0.351823 -0.203125
    vertex 12.000000 0.295496 -0.278786
    vertex 12.000000 0.351823 -0.203125
  endloop
endfacet
facet normal 0.000000 0.918216 -0.396080
  outer loop
    vertex 14.000000 0.351823 -0.203125
    vertex 12.000000 0.351823 -0.203125
    vertex 14.000000 0.389183 -0.116514
  endloop
endfacet
facet normal 0.000000 -0.727374 0.686242
  outer loop
    vertex 16.000000 -0.325863 0.242596
    vertex 16.000000 -0.261132 0.311206
    vertex 14.000000 -0.261132 0.311206
  endloop
endfacet
facet normal 0.000000 -0.549509 0.835488
  outer loop
    vertex 14.000000 -0.261132 0.311206
    vertex 16.000000 -0.261132 0.311206
    vertex 14.000000 -0.182325 0.363038
  endloop
endfacet
facet normal 0.000000 -0.727374 0.686242
  outer loop
    vertex 16.000000 -0.325863 0.242596
    vertex 14.000000 -0.261132 0.311206
    vertex 14.000000 -0.325863 0.242596
  endloop
endfacet
facet normal 0.000000 -0.866025 0.500000
  outer loop
    vertex 16.000000 -0.373025 0.160907
    vertex 16.000000 -0.325863 0.242596
    vertex 14.000000 -0.325863 0.242596
  endloop
endfacet
facet normal 0.000000 -0.866025 0.500000
  outer loop
    vertex 16.000000 -0.373025 0.160907
    vertex 14.000000 -0.325863 0.242596
    vertex 14.000000 -0.373025 0.160907
  endloop
endfacet
facet normal 0.000000 -0.957990 0.286803
  outer loop
    vertex 16.000000 -0.400078 0.070545
    vertex 16.000000 -0.373025 0.160907
    vertex 14.000000 -0.373025 0.160907
  endloop
endfacet
facet normal 0.000000 -0.957990 0.286803
  outer loop
    vertex 16.000000 -0.400078 0.070545
    vertex 14.000000 -0.373025 0.160907
    vertex 14.000000 -0.400078 0.070545
  endloop
endfacet
facet normal 0.000000 -0.998308 0.058145
  outer loop
    vertex 16.000000 -0.405563 -0.023621
    vertex 16.000000 -0.400078 0.070545
    vertex 14.000000 -0.400078 0.070545
  endloop
endfacet
facet normal 0.000000 -0.998308 0.058145
  outer loop
    vertex 16.000000 -0.405563 -0.023621
    vertex 14.000000 -0.400078 0.070545
    vertex 14.000000 -0.405563 -0.023621
  endloop
endfacet
facet normal 0.000000 -0.984808 -0.173648
  outer loop
    vertex 16.000000 -0.389183 -0.116514
    vertex 16.000000 -0.405563 -0.023621
    vertex 14.000000 -0.405563 -0.023621
  endloop
endfacet
facet normal -0.000000 -0.984808 -0.173648
  outer loop
    vertex 16.000000 -0.389183 -0.116514
    vertex 14.000000 -0.405563 -0.023621
    vertex 14.000000 -0.389183 -0.116514
  endloop
endfacet
facet normal 0.000000 -0.918216 -0.396080
  outer loop
    vertex 16.000000 -0.351823 -0.203125
    vertex 16.000000 -0.389183 -0.116514
    vertex 14.000000 -0.389183 -0.116514
  endloop
endfacet
facet normal -0.000000 -0.918216 -0.396080
  outer loop
    vertex 16.000000 -0.351823 -0.203125
    vertex 14.000000 -0.389183 -0.116514
    vertex 14.000000 -0.351823 -0.203125
  endloop
endfacet
facet normal 0.000000 -0.802123 -0.597159
  outer loop
    vertex 16.000000 -0.295496 -0.278786
    vertex 16.000000 -0.351823 -0.203125
    vertex 14.000000 -0.351823 -0.203125
  endloop
endfacet
facet normal -0.000000 -0.802123 -0.597159
  outer loop
    vertex 16.000000 -0.295496 -0.278786
    vertex 14.000000 -0.351823 -0.203125
    vertex 14.000000 -0.295496 -0.278786
  endloop
endfacet
facet normal 0.000000 -0.642788 -0.766044
  outer loop
    vertex 16.000000 -0.223238 -0.339417
    vertex 16.000000 -0.295496 -0.278786
    vertex 14.000000 -0.295496 -0.278786
  endloop
endfacet
facet normal -0.000000 -0.642788 -0.766044
  outer loop
    vertex 16.000000 -0.223238 -0.339417
    vertex 14.000000 -0.295496 -0.278786
    vertex 14.000000 -0.223238 -0.339417
  endloop
endfacet
facet normal 0.000000 -0.448799 -0.893633
  outer loop
    vertex 16.000000 -0.138946 -0.381750
    vertex 16.000000 -0.223238 -0.339417
    vertex 14.000000 -0.223238 -0.339417
  endloop
endfacet
facet normal -0.000000 -0.448799 -0.893633
  outer loop
    vertex 16.000000 -0.138946 -0.381750
    vertex 14.000000 -0.223238 -0.339417
    vertex 14.000000 -0.138946 -0.381750
  endloop
endfacet
facet normal 0.000000 -0.230616 -0.973045
  outer loop
    vertex 16.000000 -0.047163 -0.403503
    vertex 16.000000 -0.138946 -0.381750
    vertex 14.000000 -0.138946 -0.381750
  endloop
endfacet
facet normal -0.000000 -0.230616 -0.973045
  outer loop
    vertex 16.000000 -0.047163 -0.403503
    vertex 14.000000 -0.138946 -0.381750
    vertex 14.000000 -0.047163 -0.403503
  endloop
endfacet
facet normal 0.000000 -0.000000 -1.000000
  outer loop
    vertex 16.000000 0.047163 -0.403503
    vertex 16.000000 -0.047163 -0.403503
    vertex 14.000000 -0.047163 -0.403503
  endloop
endfacet
facet normal -0.000000 0.000000 -1.000000
  outer loop
    vertex 16.000000 0.047163 -0.403503
    vertex 14.000000 -0.047163 -0.403503
    vertex 14.000000 0.047163 -0.403503
  endloop
endfacet
facet normal 0.000000 0.230616 -0.973045
  outer loop
    vertex 16.000000 0.138946 -0.381750
    vertex 16.000000 0.047163 -0.403503
    vertex 14.000000 0.047163 -0.403503
  endloop
endfacet
facet normal 0.000000 0.230616 -0.973045
  outer loop
    vertex 16.000000 0.138946 -0.381750
    vertex 14.000000 0.047163 -0.403503
    vertex 14.000000 0.138946 -0.381750
  endloop
endfacet
facet normal 0.000000 0.448799 -0.893633
  outer loop
    vertex 16.000000 0.223238 -0.339417
    vertex 16.000000 0.138946 -0.381750
    vertex 14.000000 0.138946 -0.381750
  endloop
endfacet
facet normal 0.000000 0.448799 -0.893633
  outer loop
    vertex 16.000000 0.223238 -0.339417
    vertex 14.000000 0.138946 -0.381750
    vertex 14.000000 0.223238 -0.339417
  endloop
endfacet
facet normal 0.000000 0.642788 -0.766044
  outer loop
    vertex 16.000000 0.295496 -0.278786
    vertex 16.000000 0.223238 -0.339417
    vertex 14.000000 0.223238 -0.339417
  endloop
endfacet
facet normal 0.000000 0.642788 -0.766044
  outer loop
    vertex 16.000000 0.295496 -0.278786
    vertex 14.000000 0.223238 -0.339417
    vertex 14.000000 0.295496 -0.278786
  endloop
endfacet
facet normal 0.000000 0.802123 -0.597159
  outer loop
    vertex 16.000000 0.351823 -0.203125
    vertex 16.000000 0.295496 -0.278786
    vertex 14.000000 0.295496 -0.278786
  endloop
endfacet
facet normal 0.000000 0.802123 -0.597159
  outer loop
    vertex 16.000000 0.351823 -0.203125
    vertex 14.000000 0.295496 -0.278786
    vertex 14.000000 0.351823 -0.203125
  endloop
endfacet
facet normal 0.000000 0.918216 -0.396080
  outer loop
    vertex 16.000000 0.389183 -0.116514
    vertex 16.000000 0.351823 -0.203125
    vertex 14.000000 0.351823 -0.203125
  endloop
endfacet
facet normal 0.000000 0.918216 -0.396080
  outer loop
    vertex 16.000000 0.389183 -0.116514
    vertex 14.000000 0.351823 -0.203125
    vertex 14.000000 0.389183 -0.116514
  endloop
endfacet
facet normal 0.000000 0.000000 -1.000000
  outer loop
    vertex 0.000000 0.395285 0.093750
    vertex 18.000000 0.395285 0.093750
    vertex 0.000000 0.312500 0.093750
  endloop
endfacet
facet normal 0.000000 0.000000 -1.000000
  outer loop
    vertex 0.000000 0.312500 0.093750
    vertex 18.000000 0.395285 0.093750
    vertex 18.000000 0.312500 0.093750
  endloop
endfacet
facet normal 1.000000 0.000000 0.000000
  outer loop
    vertex 18.000000 0.395285 0.093750
    vertex 18.000000 0.363012 0.182377
    vertex 18.000000 0.312500 0.093750
  endloop
endfacet
facet normal 1.000000 0.000000 -0.000000
  outer loop
    vertex 18.000000 0.312500 0.093750
    vertex 18.000000 0.363012 0.182377
    vertex 18.000000 0.311171 0.261174
  endloop
endfacet
facet normal 1.000000 0.000000 0.000000
  outer loop
    vertex 18.000000 0.312500 0.093750
    vertex 18.000000 0.311171 0.261174
    vertex 18.000000 0.242557 0.325892
  endloop
endfacet
facet normal 1.000000 0.000000 0.000000
  outer loop
    vertex 18.000000 0.242557 0.325892
    vertex 18.000000 0.160867 0.373043
    vertex 18.000000 0.312500 0.093750
  endloop
endfacet
facet normal 1.000000 0.000000 0.000000
  outer loop
    vertex 18.000000 0.312500 0.093750
    vertex 18.000000 0.160867 0.373043
    vertex 18.000000 0.070507 0.400085
  endloop
endfacet
facet normal 1.000000 0.000000 0.000000
  outer loop
    vertex 18.000000 0.312500 0.093750
    vertex 18.000000 0.070507 0.400085
    vertex 18.000000 -0.023655 0.405561
  endloop
endfacet
facet normal 1.000000 0.000000 0.000000
  outer loop
    vertex 18.000000 -0.023655 0.405561
    vertex 18.000000 -0.116541 0.389175
    vertex 18.000000 0.312500 0.093750
  endloop
endfacet
facet normal 1.000000 0.000000 0.000000
  outer loop
    vertex 18.000000 0.312500 0.093750
    vertex 18.000000 -0.116541 0.389175
    vertex 18.000000 -0.203145 0.351811
  endloop
endfacet
facet normal 1.000000 0.000000 0.000000
  outer loop
    vertex 18.000000 0.312500 0.093750
    vertex 18.000000 -0.203145 0.351811
    vertex 18.000000 -0.203145 -0.351811
  endloop
endfacet
facet normal 1.000000 0.000000 -0.000000
  outer loop
    vertex 18.000000 -0.203145 -0.351811
    vertex 18.000000 -0.203145 0.351811
    vertex 18.000000 -0.278799 -0.295483
  endloop
endfacet
facet normal 1.000000 0.000000 0.000000
  outer loop
    vertex 18.000000 -0.278799 -0.295483
    vertex 18.000000 -0.203145 0.351811
    vertex 18.000000 -0.278799 0.295483
  endloop
endfacet
facet normal 1.000000 0.000000 -0.000000
  outer loop
    vertex 18.000000 -0.278799 -0.295483
    vertex 18.000000 -0.278799 0.295483
    vertex 18.000000 -0.339424 -0.223227
  endloop
endfacet
facet normal 1.000000 0.000000 0.000000
  outer loop
    vertex 18.000000 -0.339424 -0.223227
    vertex 18.000000 -0.278799 0.295483
    vertex 18.000000 -0.339424 0.223227
  endloop
endfacet
facet normal 1.000000 0.000000 -0.000000
  outer loop
    vertex 18.000000 -0.339424 -0.223227
    vertex 18.000000 -0.339424 0.223227
    vertex 18.000000 -0.381753 -0.138938
  endloop
endfacet
facet normal 1.000000 0.000000 0.000000
  outer loop
    vertex 18.000000 -0.381753 -0.138938
    vertex 18.000000 -0.339424 0.223227
    vertex 18.000000 -0.381753 0.138938
  endloop
endfacet
facet normal 1.000000 0.000000 -0.000000
  outer loop
    vertex 18.000000 -0.381753 -0.138938
    vertex 18.000000 -0.381753 0.138938
    vertex 18.000000 -0.403503 -0.047160
  endloop
endfacet
facet normal 1.000000 0.000000 0.000000
  outer loop
    vertex 18.000000 -0.403503 -0.047160
    vertex 18.000000 -0.381753 0.138938
    vertex 18.000000 -0.403503 0.047160
  endloop
endfacet
facet normal 1.000000 -0.000000 0.000000
  outer loop
    vertex 18.000000 -0.203145 -0.351811
    vertex 18.000000 -0.116541 -0.389175
    vertex 18.000000 0.312500 0.093750
  endloop
endfacet
facet normal 1.000000 0.000000 0.000000
  outer loop
    vertex 18.000000 0.312500 0.093750
    vertex 18.000000 -0.116541 -0.389175
    vertex 18.000000 0.312500 -0.093750
  endloop
endfacet
facet normal 1.000000 0.000000 0.000000
  outer loop
    vertex 18.000000 0.312500 -0.093750
    vertex 18.000000 -0.116541 -0.389175
    vertex 18.000000 -0.023655 -0.405561
  endloop
endfacet
facet normal 1.000000 0.000000 0.000000
  outer loop
    vertex 18.000000 0.312500 -0.093750
    vertex 18.000000 -0.023655 -0.405561
    vertex 18.000000 0.070507 -0.400085
  endloop
endfacet
facet normal 1.000000 0.000000 0.000000
  outer loop
    vertex 18.000000 0.070507 -0.400085
    vertex 18.000000 0.160867 -0.373043
    vertex 18.000000 0.312500 -0.093750
  endloop
endfacet
facet normal 1.000000 0.000000 0.000000
  outer loop
    vertex 18.000000 0.312500 -0.093750
    vertex 18.000000 0.160867 -0.373043
    vertex 18.000000 0.242557 -0.325892
  endloop
endfacet
facet normal 1.000000 0.000000 0.000000
  outer loop
    vertex 18.000000 0.312500 -0.093750
    vertex 18.000000 0.242557 -0.325892
    vertex 18.000000 0.311171 -0.261174
  endloop
endfacet
facet normal 1.000000 0.000000 0.000000
  outer loop
    vertex 18.000000 0.311171 -0.261174
    vertex 18.000000 0.363012 -0.182377
    vertex 18.000000 0.312500 -0.093750
  endloop
endfacet
facet normal 1.000000 -0.000000 0.000000
  outer loop
    vertex 18.000000 0.312500 -0.093750
    vertex 18.000000 0.363012 -0.182377
    vertex 18.000000 0.395285 -0.093750
  endloop
endfacet
facet normal -1.000000 0.000000 0.000000
  outer loop
    vertex 0.000000 0.395285 0.093750
    vertex 0.000000 0.312500 0.093750
    vertex 0.000000 0.363012 0.182377
  endloop
endfacet
facet normal -1.000000 -0.000000 0.000000
  outer loop
    vertex 0.000000 0.363012 0.182377
    vertex 0.000000 0.312500 0.093750
    vertex 0.000000 0.311171 0.261174
  endloop
endfacet
facet normal -1.000000 -0.000000 -0.000000
  outer loop
    vertex 0.000000 0.311171 0.261174
    vertex 0.000000 0.312500 0.093750
    vertex 0.000000 0.242557 0.325892
  endloop
endfacet
facet normal -1.000000 -0.000000 -0.000000
  outer loop
    vertex 0.000000 0.242557 0.325892
    vertex 0.000000 0.312500 0.093750
    vertex 0.000000 0.160867 0.373043
  endloop
endfacet
facet normal -1.000000 -0.000000 -0.000000
  outer loop
    vertex 0.000000 0.160867 0.373043
    vertex 0.000000 0.312500 0.093750
    vertex 0.000000 0.070507 0.400085
  endloop
endfacet
facet normal -1.000000 -0.000000 -0.000000
  outer loop
    vertex 0.000000 0.070507 0.400085
    vertex 0.000000 0.312500 0.093750
    vertex 0.000000 -0.023655 0.405561
  endloop
endfacet
facet normal -1.000000 0.000000 -0.000000
  outer loop
    vertex 0.000000 -0.023655 0.405561
    vertex 0.000000 0.312500 0.093750
    vertex 0.000000 -0.116541 0.389175
  endloop
endfacet
facet normal -1.000000 0.000000 0.000000
  outer loop
    vertex 0.000000 -0.116541 0.389175
    vertex 0.000000 0.312500 0.093750
    vertex 0.000000 0.312500 -0.093750
  endloop
endfacet
facet normal -1.000000 0.000000 -0.000000
  outer loop
    vertex 0.000000 -0.116541 0.389175
    vertex 0.000000 0.312500 -0.093750
    vertex 0.000000 -0.203145 0.351811
  endloop
endfacet
facet normal -1.000000 0.000000 0.000000
  outer loop
    vertex 0.000000 -0.203145 0.351811
    vertex 0.000000 0.312500 -0.093750
    vertex 0.000000 -0.203145 -0.351811
  endloop
endfacet
facet normal -1.000000 0.000000 -0.000000
  outer loop
    vertex 0.000000 -0.203145 0.351811
    vertex 0.000000 -0.203145 -0.351811
    vertex 0.000000 -0.278799 0.295483
  endloop
endfacet
facet normal -1.000000 0.000000 0.000000
  outer loop
    vertex 0.000000 -0.278799 0.295483
    vertex 0.000000 -0.203145 -0.351811
    vertex 0.000000 -0.278799 -0.295483
  endloop
endfacet
facet normal -1.000000 0.000000 -0.000000
  outer loop
    vertex 0.000000 -0.278799 0.295483
    vertex 0.000000 -0.278799 -0.295483
    vertex 0.000000 -0.339424 0.223227
  endloop
endfacet
facet normal -1.000000 0.000000 0.000000
  outer loop
    vertex 0.000000 -0.339424 0.223227
    vertex 0.000000 -0.278799 -0.295483
    vertex 0.000000 -0.339424 -0.223227
  endloop
endfacet
facet normal -1.000000 0.000000 -0.000000
  outer loop
    vertex 0.000000 -0.339424 0.223227
    vertex 0.000000 -0.339424 -0.223227
    vertex 0.000000 -0.381753 0.138938
  endloop
endfacet
facet normal -1.000000 0.000000 0.000000
  outer loop
    vertex 0.000000 -0.381753 0.138938
    vertex 0.000000 -0.339424 -0.223227
    vertex 0.000000 -0.381753 -0.138938
  endloop
endfacet
facet normal -1.000000 0.000000 -0.000000
  outer loop
    vertex 0.000000 -0.381753 0.138938
    vertex 0.000000 -0.381753 -0.138938
    vertex 0.000000 -0.403503 0.047160
  endloop
endfacet
facet normal -1.000000 0.000000 0.000000
  outer loop
    vertex 0.000000 -0.403503 0.047160
    vertex 0.000000 -0.381753 -0.138938
    vertex 0.000000 -0.403503 -0.047160
  endloop
endfacet
facet normal -1.000000 -0.000000 0.000000
  outer loop
    vertex 0.000000 0.395285 -0.093750
    vertex 0.000000 0.363012 -0.182377
    vertex 0.000000 0.312500 -0.093750
  endloop
endfacet
facet normal -1.000000 0.000000 -0.000000
  outer loop
    vertex 0.000000 0.312500 -0.093750
    vertex 0.000000 0.363012 -0.182377
    vertex 0.000000 0.311171 -0.261174
  endloop
endfacet
facet normal -1.000000 0.000000 0.000000
  outer loop
    vertex 0.000000 0.312500 -0.093750
    vertex 0.000000 0.311171 -0.261174
    vertex 0.000000 0.242557 -0.325892
  endloop
endfacet
facet normal -1.000000 -0.000000 0.000000
  outer loop
    vertex 0.000000 0.242557 -0.325892
    vertex 0.000000 0.160867 -0.373043
    vertex 0.000000 0.312500 -0.093750
  endloop
endfacet
facet normal -1.000000 0.000000 0.000000
  outer loop
    vertex 0.000000 0.312500 -0.093750
    vertex 0.000000 0.160867 -0.373043
    vertex 0.000000 0.070507 -0.400085
  endloop
endfacet
facet normal -1.000000 0.000000 0.000000
  outer loop
    vertex 0.000000 0.312500 -0.093750
    vertex 0.000000 0.070507 -0.400085
    vertex 0.000000 -0.023655 -0.405561
  endloop
endfacet
facet normal -1.000000 0.000000 0.000000
  outer loop
    vertex 0.000000 -0.023655 -0.405561
    vertex 0.000000 -0.116541 -0.389175
    vertex 0.000000 0.312500 -0.093750
  endloop
endfacet
facet normal -1.000000 0.000000 0.000000
  outer loop
    vertex 0.000000 0.312500 -0.093750
    vertex 0.000000 -0.116541 -0.389175
    vertex 0.000000 -0.203145 -0.351811
  endloop
endfacet
endsolid 76b4ca43-18ef-4614-8a6c-50139a5e2de8-ascii.stl
