solid 7b1dabcb-a87d-44f2-ae38-e85e365b6a3f-ascii.stl
facet normal -0.000000 1.000000 0.000000
  outer loop
    vertex 0.000000 0.531250 0.156250
    vertex 18.000000 0.531250 0.156250
    vertex 0.000000 0.531250 -0.156250
  endloop
endfacet
facet normal 0.000000 1.000000 0.000000
  outer loop
    vertex 0.000000 0.531250 -0.156250
    vertex 18.000000 0.531250 0.156250
    vertex 18.000000 0.531250 -0.156250
  endloop
endfacet
facet normal 0.000000 0.000000 1.000000
  outer loop
    vertex 0.000000 0.531250 -0.156250
    vertex 18.000000 0.531250 -0.156250
    vertex 0.000000 0.669509 -0.156250
  endloop
endfacet
facet normal -0.000000 0.000000 1.000000
  outer loop
    vertex 0.000000 0.669509 -0.156250
    vertex 18.000000 0.531250 -0.156250
    vertex 18.000000 0.669509 -0.156250
  endloop
endfacet
facet normal -0.001101 0.949145 0.314838
  outer loop
    vertex 0.000000 0.630165 0.274861
    vertex 2.571429 0.653851 0.212449
    vertex 0.000000 0.669509 0.156250
  endloop
endfacet
facet normal 0.000000 0.963311 0.268387
  outer loop
    vertex 0.000000 0.669509 0.156250
    vertex 2.571429 0.653851 0.212449
    vertex 5.142857 0.653851 0.212449
  endloop
endfacet
facet normal 0.000000 0.963311 0.268387
  outer loop
    vertex 0.000000 0.669509 0.156250
    vertex 5.142857 0.653851 0.212449
    vertex 7.714286 0.653851 0.212449
  endloop
endfacet
facet normal 0.000000 0.919528 0.393025
  outer loop
    vertex 7.714286 0.653851 0.212449
    vertex 5.142857 0.653851 0.212449
    vertex 7.714286 0.605409 0.325785
  endloop
endfacet
facet normal 0.000000 0.919528 0.393025
  outer loop
    vertex 7.714286 0.653851 0.212449
    vertex 7.714286 0.605409 0.325785
    vertex 10.285714 0.605409 0.325785
  endloop
endfacet
facet normal 0.000000 0.834573 0.550897
  outer loop
    vertex 10.285714 0.605409 0.325785
    vertex 7.714286 0.605409 0.325785
    vertex 10.285714 0.537509 0.428649
  endloop
endfacet
facet normal 0.000000 0.834573 0.550897
  outer loop
    vertex 10.285714 0.605409 0.325785
    vertex 10.285714 0.537509 0.428649
    vertex 12.857142 0.537509 0.428649
  endloop
endfacet
facet normal 0.000000 0.722795 0.691063
  outer loop
    vertex 12.857142 0.537509 0.428649
    vertex 10.285714 0.537509 0.428649
    vertex 12.857142 0.452333 0.517737
  endloop
endfacet
facet normal 0.000000 0.722795 0.691063
  outer loop
    vertex 12.857142 0.537509 0.428649
    vertex 12.857142 0.452333 0.517737
    vertex 15.428572 0.452333 0.517737
  endloop
endfacet
facet normal 0.000000 0.587785 0.809017
  outer loop
    vertex 15.428572 0.452333 0.517737
    vertex 12.857142 0.452333 0.517737
    vertex 15.428572 0.352618 0.590184
  endloop
endfacet
facet normal -0.001047 0.587785 0.809017
  outer loop
    vertex 15.428572 0.452333 0.517737
    vertex 15.428572 0.352618 0.590184
    vertex 18.000000 0.395783 0.562149
  endloop
endfacet
facet normal 0.001072 0.498988 0.866608
  outer loop
    vertex 18.000000 0.395783 0.562149
    vertex 15.428572 0.352618 0.590184
    vertex 18.000000 0.287487 0.624506
  endloop
endfacet
facet normal -0.001036 0.433884 0.900968
  outer loop
    vertex 18.000000 0.287487 0.624506
    vertex 15.428572 0.352618 0.590184
    vertex 15.428572 0.241570 0.643661
  endloop
endfacet
facet normal 0.001060 0.333875 0.942617
  outer loop
    vertex 18.000000 0.287487 0.624506
    vertex 15.428572 0.241570 0.643661
    vertex 18.000000 0.169691 0.666229
  endloop
endfacet
facet normal -0.001023 0.266036 0.963962
  outer loop
    vertex 18.000000 0.169691 0.666229
    vertex 15.428572 0.241570 0.643661
    vertex 15.428572 0.122758 0.676452
  endloop
endfacet
facet normal 0.001047 0.157730 0.987482
  outer loop
    vertex 18.000000 0.169691 0.666229
    vertex 15.428572 0.122758 0.676452
    vertex 18.000000 0.046290 0.685940
  endloop
endfacet
facet normal -0.001009 0.089639 0.995974
  outer loop
    vertex 18.000000 0.046290 0.685940
    vertex 15.428572 0.122758 0.676452
    vertex 15.428572 -0.000000 0.687500
  endloop
endfacet
facet normal 0.001032 -0.023626 0.999720
  outer loop
    vertex 18.000000 0.046290 0.685940
    vertex 15.428572 -0.000000 0.687500
    vertex 18.000000 -0.078641 0.682987
  endloop
endfacet
facet normal -0.000994 -0.089639 0.995974
  outer loop
    vertex 18.000000 -0.078641 0.682987
    vertex 15.428572 -0.000000 0.687500
    vertex 15.428572 -0.122758 0.676452
  endloop
endfacet
facet normal 0.001015 -0.204201 0.978928
  outer loop
    vertex 18.000000 -0.078641 0.682987
    vertex 15.428572 -0.122758 0.676452
    vertex 18.000000 -0.200974 0.657469
  endloop
endfacet
facet normal -0.000976 -0.266036 0.963963
  outer loop
    vertex 18.000000 -0.200974 0.657469
    vertex 15.428572 -0.122758 0.676452
    vertex 15.428572 -0.241570 0.643661
  endloop
endfacet
facet normal 0.000997 -0.378030 0.925793
  outer loop
    vertex 18.000000 -0.200974 0.657469
    vertex 15.428572 -0.241570 0.643661
    vertex 18.000000 -0.316667 0.610228
  endloop
endfacet
facet normal -0.000957 -0.433884 0.900968
  outer loop
    vertex 18.000000 -0.316667 0.610228
    vertex 15.428572 -0.241570 0.643661
    vertex 15.428572 -0.352618 0.590184
  endloop
endfacet
facet normal 0.000977 -0.539369 0.842069
  outer loop
    vertex 18.000000 -0.316667 0.610228
    vertex 15.428572 -0.352618 0.590184
    vertex 18.000000 -0.421897 0.542826
  endloop
endfacet
facet normal -0.000936 -0.587785 0.809017
  outer loop
    vertex 18.000000 -0.421897 0.542826
    vertex 15.428572 -0.352618 0.590184
    vertex 15.428572 -0.452333 0.517737
  endloop
endfacet
facet normal 0.000955 -0.682887 0.730524
  outer loop
    vertex 18.000000 -0.421897 0.542826
    vertex 15.428572 -0.452333 0.517737
    vertex 18.000000 -0.513187 0.457488
  endloop
endfacet
facet normal -0.000914 -0.722794 0.691062
  outer loop
    vertex 18.000000 -0.513187 0.457488
    vertex 15.428572 -0.452333 0.517737
    vertex 15.428572 -0.537509 0.428649
  endloop
endfacet
facet normal 0.000932 -0.803842 0.594842
  outer loop
    vertex 18.000000 -0.513187 0.457488
    vertex 15.428572 -0.537509 0.428649
    vertex 18.000000 -0.587522 0.357035
  endloop
endfacet
facet normal -0.000890 -0.834573 0.550897
  outer loop
    vertex 18.000000 -0.587522 0.357035
    vertex 15.428572 -0.537509 0.428649
    vertex 15.428572 -0.605409 0.325785
  endloop
endfacet
facet normal 0.000907 -0.898239 0.439507
  outer loop
    vertex 18.000000 -0.587522 0.357035
    vertex 15.428572 -0.605409 0.325785
    vertex 18.000000 -0.642446 0.244786
  endloop
endfacet
facet normal -0.000864 -0.919528 0.393025
  outer loop
    vertex 18.000000 -0.642446 0.244786
    vertex 15.428572 -0.605409 0.325785
    vertex 15.428572 -0.653851 0.212449
  endloop
endfacet
facet normal 0.000880 -0.962958 0.269650
  outer loop
    vertex 18.000000 -0.642446 0.244786
    vertex 15.428572 -0.653851 0.212449
    vertex 18.000000 -0.676143 0.124449
  endloop
endfacet
facet normal -0.000836 -0.974927 0.222521
  outer loop
    vertex 18.000000 -0.676143 0.124449
    vertex 15.428572 -0.653851 0.212449
    vertex 15.428572 -0.681278 0.092285
  endloop
endfacet
facet normal 0.000852 -0.995861 0.090884
  outer loop
    vertex 18.000000 -0.676143 0.124449
    vertex 15.428572 -0.681278 0.092285
    vertex 18.000000 -0.687500 0.000000
  endloop
endfacet
facet normal -0.000807 -0.998993 0.044865
  outer loop
    vertex 18.000000 -0.687500 0.000000
    vertex 15.428572 -0.681278 0.092285
    vertex 15.428572 -0.686808 -0.030845
  endloop
endfacet
facet normal 0.000822 -0.995861 -0.090884
  outer loop
    vertex 18.000000 -0.687500 0.000000
    vertex 15.428572 -0.686808 -0.030845
    vertex 18.000000 -0.676143 -0.124449
  endloop
endfacet
facet normal -0.000776 -0.990949 -0.134233
  outer loop
    vertex 18.000000 -0.676143 -0.124449
    vertex 15.428572 -0.686808 -0.030845
    vertex 15.428572 -0.670263 -0.152983
  endloop
endfacet
facet normal 0.000790 -0.962958 -0.269650
  outer loop
    vertex 18.000000 -0.676143 -0.124449
    vertex 15.428572 -0.670263 -0.152983
    vertex 18.000000 -0.642446 -0.244786
  endloop
endfacet
facet normal -0.000744 -0.951056 -0.309017
  outer loop
    vertex 18.000000 -0.642446 -0.244786
    vertex 15.428572 -0.670263 -0.152983
    vertex 15.428572 -0.632175 -0.270205
  endloop
endfacet
facet normal 0.000757 -0.898239 -0.439507
  outer loop
    vertex 18.000000 -0.642446 -0.244786
    vertex 15.428572 -0.632175 -0.270205
    vertex 18.000000 -0.587522 -0.357035
  endloop
endfacet
facet normal -0.000710 -0.880595 -0.473869
  outer loop
    vertex 18.000000 -0.587522 -0.357035
    vertex 15.428572 -0.632175 -0.270205
    vertex 15.428572 -0.573769 -0.378742
  endloop
endfacet
facet normal 0.000722 -0.803842 -0.594842
  outer loop
    vertex 18.000000 -0.587522 -0.357035
    vertex 15.428572 -0.573769 -0.378742
    vertex 18.000000 -0.513187 -0.457488
  endloop
endfacet
facet normal -0.000674 -0.781831 -0.623489
  outer loop
    vertex 18.000000 -0.513187 -0.457488
    vertex 15.428572 -0.573769 -0.378742
    vertex 15.428572 -0.496921 -0.475106
  endloop
endfacet
facet normal 0.000685 -0.682887 -0.730524
  outer loop
    vertex 18.000000 -0.513187 -0.457488
    vertex 15.428572 -0.496921 -0.475106
    vertex 18.000000 -0.421897 -0.542826
  endloop
endfacet
facet normal -0.000636 -0.657938 -0.753071
  outer loop
    vertex 18.000000 -0.421897 -0.542826
    vertex 15.428572 -0.496921 -0.475106
    vertex 15.428572 -0.404102 -0.556199
  endloop
endfacet
facet normal 0.000647 -0.539369 -0.842069
  outer loop
    vertex 18.000000 -0.421897 -0.542826
    vertex 15.428572 -0.404102 -0.556199
    vertex 18.000000 -0.316667 -0.610228
  endloop
endfacet
facet normal -0.000597 -0.512899 -0.858449
  outer loop
    vertex 18.000000 -0.316667 -0.610228
    vertex 15.428572 -0.404102 -0.556199
    vertex 15.428572 -0.298295 -0.619416
  endloop
endfacet
facet normal 0.000607 -0.378030 -0.925793
  outer loop
    vertex 18.000000 -0.316667 -0.610228
    vertex 15.428572 -0.298295 -0.619416
    vertex 18.000000 -0.200974 -0.657469
  endloop
endfacet
facet normal -0.000556 -0.351375 -0.936235
  outer loop
    vertex 18.000000 -0.200974 -0.657469
    vertex 15.428572 -0.298295 -0.619416
    vertex 15.428572 -0.182900 -0.662724
  endloop
endfacet
facet normal 0.000565 -0.204201 -0.978929
  outer loop
    vertex 18.000000 -0.200974 -0.657469
    vertex 15.428572 -0.182900 -0.662724
    vertex 18.000000 -0.078641 -0.682987
  endloop
endfacet
facet normal -0.000514 -0.178557 -0.983930
  outer loop
    vertex 18.000000 -0.078641 -0.682987
    vertex 15.428572 -0.182900 -0.662724
    vertex 15.428572 -0.061627 -0.684732
  endloop
endfacet
facet normal 0.000522 -0.023626 -0.999721
  outer loop
    vertex 18.000000 -0.078641 -0.682987
    vertex 15.428572 -0.061627 -0.684732
    vertex 18.000000 0.046290 -0.685940
  endloop
endfacet
facet normal -0.000470 0.000000 -1.000000
  outer loop
    vertex 18.000000 0.046290 -0.685940
    vertex 15.428572 -0.061627 -0.684732
    vertex 15.428572 0.061627 -0.684732
  endloop
endfacet
facet normal 0.000477 0.157730 -0.987482
  outer loop
    vertex 18.000000 0.046290 -0.685940
    vertex 15.428572 0.061627 -0.684732
    vertex 18.000000 0.169691 -0.666229
  endloop
endfacet
facet normal -0.000424 0.178557 -0.983930
  outer loop
    vertex 18.000000 0.169691 -0.666229
    vertex 15.428572 0.061627 -0.684732
    vertex 15.428572 0.182900 -0.662724
  endloop
endfacet
facet normal 0.000430 0.333875 -0.942617
  outer loop
    vertex 18.000000 0.169691 -0.666229
    vertex 15.428572 0.182900 -0.662724
    vertex 18.000000 0.287487 -0.624506
  endloop
endfacet
facet normal -0.000376 0.351375 -0.936235
  outer loop
    vertex 18.000000 0.287487 -0.624506
    vertex 15.428572 0.182900 -0.662724
    vertex 15.428572 0.298295 -0.619416
  endloop
endfacet
facet normal 0.000382 0.498988 -0.866609
  outer loop
    vertex 18.000000 0.287487 -0.624506
    vertex 15.428572 0.298295 -0.619416
    vertex 18.000000 0.395783 -0.562149
  endloop
endfacet
facet normal -0.000327 0.512899 -0.858449
  outer loop
    vertex 18.000000 0.395783 -0.562149
    vertex 15.428572 0.298295 -0.619416
    vertex 15.428572 0.404102 -0.556199
  endloop
endfacet
facet normal 0.000332 0.647616 -0.761967
  outer loop
    vertex 18.000000 0.395783 -0.562149
    vertex 15.428572 0.404102 -0.556199
    vertex 18.000000 0.491003 -0.481220
  endloop
endfacet
facet normal -0.000276 0.657939 -0.753071
  outer loop
    vertex 18.000000 0.491003 -0.481220
    vertex 15.428572 0.404102 -0.556199
    vertex 15.428572 0.496921 -0.475106
  endloop
endfacet
facet normal 0.000280 0.774846 -0.632151
  outer loop
    vertex 18.000000 0.491003 -0.481220
    vertex 15.428572 0.496921 -0.475106
    vertex 18.000000 0.570000 -0.384390
  endloop
endfacet
facet normal -0.000224 0.781832 -0.623490
  outer loop
    vertex 18.000000 0.570000 -0.384390
    vertex 15.428572 0.496921 -0.475106
    vertex 15.428572 0.573769 -0.378742
  endloop
endfacet
facet normal 0.000227 0.876475 -0.481448
  outer loop
    vertex 18.000000 0.570000 -0.384390
    vertex 15.428572 0.573769 -0.378742
    vertex 18.000000 0.630165 -0.274861
  endloop
endfacet
facet normal -0.000170 0.880596 -0.473869
  outer loop
    vertex 18.000000 0.630165 -0.274861
    vertex 15.428572 0.573769 -0.378742
    vertex 15.428572 0.632175 -0.270205
  endloop
endfacet
facet normal 0.000172 0.949145 -0.314838
  outer loop
    vertex 18.000000 0.630165 -0.274861
    vertex 15.428572 0.632175 -0.270205
    vertex 18.000000 0.669509 -0.156250
  endloop
endfacet
facet normal 0.000000 0.950300 -0.311335
  outer loop
    vertex 18.000000 0.669509 -0.156250
    vertex 15.428572 0.632175 -0.270205
    vertex 12.857142 0.632175 -0.270205
  endloop
endfacet
facet normal 0.000000 0.950300 -0.311335
  outer loop
    vertex 18.000000 0.669509 -0.156250
    vertex 12.857142 0.632175 -0.270205
    vertex 10.285714 0.632175 -0.270205
  endloop
endfacet
facet normal 0.000000 0.880596 -0.473869
  outer loop
    vertex 10.285714 0.632175 -0.270205
    vertex 12.857142 0.632175 -0.270205
    vertex 10.285714 0.573769 -0.378742
  endloop
endfacet
facet normal 0.000000 0.880596 -0.473869
  outer loop
    vertex 10.285714 0.632175 -0.270205
    vertex 10.285714 0.573769 -0.378742
    vertex 7.714286 0.573769 -0.378742
  endloop
endfacet
facet normal 0.000000 0.781832 -0.623490
  outer loop
    vertex 7.714286 0.573769 -0.378742
    vertex 10.285714 0.573769 -0.378742
    vertex 7.714286 0.496921 -0.475106
  endloop
endfacet
facet normal 0.000000 0.781832 -0.623490
  outer loop
    vertex 7.714286 0.573769 -0.378742
    vertex 7.714286 0.496921 -0.475106
    vertex 5.142857 0.496921 -0.475106
  endloop
endfacet
facet normal 0.000000 0.657939 -0.753071
  outer loop
    vertex 5.142857 0.496921 -0.475106
    vertex 7.714286 0.496921 -0.475106
    vertex 5.142857 0.404102 -0.556199
  endloop
endfacet
facet normal 0.000000 0.657939 -0.753071
  outer loop
    vertex 5.142857 0.496921 -0.475106
    vertex 5.142857 0.404102 -0.556199
    vertex 2.571429 0.404102 -0.556199
  endloop
endfacet
facet normal 0.000000 0.512899 -0.858449
  outer loop
    vertex 2.571429 0.404102 -0.556199
    vertex 5.142857 0.404102 -0.556199
    vertex 2.571429 0.298295 -0.619416
  endloop
endfacet
facet normal 0.000327 0.512899 -0.858449
  outer loop
    vertex 2.571429 0.404102 -0.556199
    vertex 2.571429 0.298295 -0.619416
    vertex 0.000000 0.395783 -0.562149
  endloop
endfacet
facet normal -0.000382 0.498988 -0.866609
  outer loop
    vertex 0.000000 0.395783 -0.562149
    vertex 2.571429 0.298295 -0.619416
    vertex 0.000000 0.287487 -0.624506
  endloop
endfacet
facet normal 0.000376 0.351375 -0.936235
  outer loop
    vertex 0.000000 0.287487 -0.624506
    vertex 2.571429 0.298295 -0.619416
    vertex 2.571429 0.182900 -0.662724
  endloop
endfacet
facet normal -0.000430 0.333875 -0.942617
  outer loop
    vertex 0.000000 0.287487 -0.624506
    vertex 2.571429 0.182900 -0.662724
    vertex 0.000000 0.169691 -0.666229
  endloop
endfacet
facet normal 0.000424 0.178557 -0.983930
  outer loop
    vertex 0.000000 0.169691 -0.666229
    vertex 2.571429 0.182900 -0.662724
    vertex 2.571429 0.061627 -0.684732
  endloop
endfacet
facet normal -0.000477 0.157730 -0.987482
  outer loop
    vertex 0.000000 0.169691 -0.666229
    vertex 2.571429 0.061627 -0.684732
    vertex 0.000000 0.046290 -0.685940
  endloop
endfacet
facet normal 0.000470 0.000000 -1.000000
  outer loop
    vertex 0.000000 0.046290 -0.685940
    vertex 2.571429 0.061627 -0.684732
    vertex 2.571429 -0.061627 -0.684732
  endloop
endfacet
facet normal -0.000522 -0.023626 -0.999721
  outer loop
    vertex 0.000000 0.046290 -0.685940
    vertex 2.571429 -0.061627 -0.684732
    vertex 0.000000 -0.078641 -0.682987
  endloop
endfacet
facet normal 0.000514 -0.178557 -0.983930
  outer loop
    vertex 0.000000 -0.078641 -0.682987
    vertex 2.571429 -0.061627 -0.684732
    vertex 2.571429 -0.182900 -0.662724
  endloop
endfacet
facet normal -0.000565 -0.204201 -0.978929
  outer loop
    vertex 0.000000 -0.078641 -0.682987
    vertex 2.571429 -0.182900 -0.662724
    vertex 0.000000 -0.200974 -0.657469
  endloop
endfacet
facet normal 0.000556 -0.351375 -0.936235
  outer loop
    vertex 0.000000 -0.200974 -0.657469
    vertex 2.571429 -0.182900 -0.662724
    vertex 2.571429 -0.298295 -0.619416
  endloop
endfacet
facet normal -0.000607 -0.378030 -0.925793
  outer loop
    vertex 0.000000 -0.200974 -0.657469
    vertex 2.571429 -0.298295 -0.619416
    vertex 0.000000 -0.316667 -0.610228
  endloop
endfacet
facet normal 0.000597 -0.512899 -0.858449
  outer loop
    vertex 0.000000 -0.316667 -0.610228
    vertex 2.571429 -0.298295 -0.619416
    vertex 2.571429 -0.404102 -0.556199
  endloop
endfacet
facet normal -0.000647 -0.539369 -0.842069
  outer loop
    vertex 0.000000 -0.316667 -0.610228
    vertex 2.571429 -0.404102 -0.556199
    vertex 0.000000 -0.421897 -0.542826
  endloop
endfacet
facet normal 0.000636 -0.657939 -0.753071
  outer loop
    vertex 0.000000 -0.421897 -0.542826
    vertex 2.571429 -0.404102 -0.556199
    vertex 2.571429 -0.496921 -0.475106
  endloop
endfacet
facet normal -0.000685 -0.682887 -0.730524
  outer loop
    vertex 0.000000 -0.421897 -0.542826
    vertex 2.571429 -0.496921 -0.475106
    vertex 0.000000 -0.513187 -0.457488
  endloop
endfacet
facet normal 0.000674 -0.781831 -0.623489
  outer loop
    vertex 0.000000 -0.513187 -0.457488
    vertex 2.571429 -0.496921 -0.475106
    vertex 2.571429 -0.573769 -0.378742
  endloop
endfacet
facet normal -0.000722 -0.803842 -0.594842
  outer loop
    vertex 0.000000 -0.513187 -0.457488
    vertex 2.571429 -0.573769 -0.378742
    vertex 0.000000 -0.587522 -0.357035
  endloop
endfacet
facet normal 0.000710 -0.880595 -0.473869
  outer loop
    vertex 0.000000 -0.587522 -0.357035
    vertex 2.571429 -0.573769 -0.378742
    vertex 2.571429 -0.632175 -0.270205
  endloop
endfacet
facet normal -0.000757 -0.898239 -0.439507
  outer loop
    vertex 0.000000 -0.587522 -0.357035
    vertex 2.571429 -0.632175 -0.270205
    vertex 0.000000 -0.642446 -0.244786
  endloop
endfacet
facet normal 0.000744 -0.951056 -0.309017
  outer loop
    vertex 0.000000 -0.642446 -0.244786
    vertex 2.571429 -0.632175 -0.270205
    vertex 2.571429 -0.670263 -0.152983
  endloop
endfacet
facet normal -0.000790 -0.962958 -0.269650
  outer loop
    vertex 0.000000 -0.642446 -0.244786
    vertex 2.571429 -0.670263 -0.152983
    vertex 0.000000 -0.676143 -0.124449
  endloop
endfacet
facet normal 0.000776 -0.990949 -0.134233
  outer loop
    vertex 0.000000 -0.676143 -0.124449
    vertex 2.571429 -0.670263 -0.152983
    vertex 2.571429 -0.686808 -0.030845
  endloop
endfacet
facet normal -0.000822 -0.995861 -0.090884
  outer loop
    vertex 0.000000 -0.676143 -0.124449
    vertex 2.571429 -0.686808 -0.030845
    vertex 0.000000 -0.687500 0.000000
  endloop
endfacet
facet normal 0.000807 -0.998993 0.044865
  outer loop
    vertex 0.000000 -0.687500 0.000000
    vertex 2.571429 -0.686808 -0.030845
    vertex 2.571429 -0.681278 0.092285
  endloop
endfacet
facet normal -0.000852 -0.995861 0.090884
  outer loop
    vertex 0.000000 -0.687500 0.000000
    vertex 2.571429 -0.681278 0.092285
    vertex 0.000000 -0.676143 0.124449
  endloop
endfacet
facet normal 0.000836 -0.974927 0.222521
  outer loop
    vertex 0.000000 -0.676143 0.124449
    vertex 2.571429 -0.681278 0.092285
    vertex 2.571429 -0.653851 0.212449
  endloop
endfacet
facet normal -0.000880 -0.962958 0.269650
  outer loop
    vertex 0.000000 -0.676143 0.124449
    vertex 2.571429 -0.653851 0.212449
    vertex 0.000000 -0.642446 0.244786
  endloop
endfacet
facet normal 0.000864 -0.919528 0.393025
  outer loop
    vertex 0.000000 -0.642446 0.244786
    vertex 2.571429 -0.653851 0.212449
    vertex 2.571429 -0.605409 0.325785
  endloop
endfacet
facet normal -0.000907 -0.898239 0.439507
  outer loop
    vertex 0.000000 -0.642446 0.244786
    vertex 2.571429 -0.605409 0.325785
    vertex 0.000000 -0.587522 0.357035
  endloop
endfacet
facet normal 0.000890 -0.834573 0.550897
  outer loop
    vertex 0.000000 -0.587522 0.357035
    vertex 2.571429 -0.605409 0.325785
    vertex 2.571429 -0.537509 0.428649
  endloop
endfacet
facet normal -0.000932 -0.803842 0.594842
  outer loop
    vertex 0.000000 -0.587522 0.357035
    vertex 2.571429 -0.537509 0.428649
    vertex 0.000000 -0.513187 0.457488
  endloop
endfacet
facet normal 0.000914 -0.722795 0.691062
  outer loop
    vertex 0.000000 -0.513187 0.457488
    vertex 2.571429 -0.537509 0.428649
    vertex 2.571429 -0.452333 0.517737
  endloop
endfacet
facet normal -0.000955 -0.682887 0.730524
  outer loop
    vertex 0.000000 -0.513187 0.457488
    vertex 2.571429 -0.452333 0.517737
    vertex 0.000000 -0.421897 0.542826
  endloop
endfacet
facet normal 0.000936 -0.587785 0.809017
  outer loop
    vertex 0.000000 -0.421897 0.542826
    vertex 2.571429 -0.452333 0.517737
    vertex 2.571429 -0.352618 0.590184
  endloop
endfacet
facet normal -0.000977 -0.539369 0.842069
  outer loop
    vertex 0.000000 -0.421897 0.542826
    vertex 2.571429 -0.352618 0.590184
    vertex 0.000000 -0.316667 0.610228
  endloop
endfacet
facet normal 0.000957 -0.433884 0.900968
  outer loop
    vertex 0.000000 -0.316667 0.610228
    vertex 2.571429 -0.352618 0.590184
    vertex 2.571429 -0.241570 0.643661
  endloop
endfacet
facet normal -0.000997 -0.378030 0.925793
  outer loop
    vertex 0.000000 -0.316667 0.610228
    vertex 2.571429 -0.241570 0.643661
    vertex 0.000000 -0.200974 0.657469
  endloop
endfacet
facet normal 0.000976 -0.266036 0.963963
  outer loop
    vertex 0.000000 -0.200974 0.657469
    vertex 2.571429 -0.241570 0.643661
    vertex 2.571429 -0.122758 0.676452
  endloop
endfacet
facet normal -0.001015 -0.204201 0.978928
  outer loop
    vertex 0.000000 -0.200974 0.657469
    vertex 2.571429 -0.122758 0.676452
    vertex 0.000000 -0.078641 0.682987
  endloop
endfacet
facet normal 0.000994 -0.089639 0.995974
  outer loop
    vertex 0.000000 -0.078641 0.682987
    vertex 2.571429 -0.122758 0.676452
    vertex 2.571429 0.000000 0.687500
  endloop
endfacet
facet normal -0.001032 -0.023626 0.999720
  outer loop
    vertex 0.000000 -0.078641 0.682987
    vertex 2.571429 0.000000 0.687500
    vertex 0.000000 0.046290 0.685940
  endloop
endfacet
facet normal 0.001009 0.089639 0.995974
  outer loop
    vertex 0.000000 0.046290 0.685940
    vertex 2.571429 0.000000 0.687500
    vertex 2.571429 0.122758 0.676452
  endloop
endfacet
facet normal -0.001047 0.157730 0.987482
  outer loop
    vertex 0.000000 0.046290 0.685940
    vertex 2.571429 0.122758 0.676452
    vertex 0.000000 0.169691 0.666229
  endloop
endfacet
facet normal 0.001023 0.266036 0.963962
  outer loop
    vertex 0.000000 0.169691 0.666229
    vertex 2.571429 0.122758 0.676452
    vertex 2.571429 0.241570 0.643661
  endloop
endfacet
facet normal -0.001060 0.333875 0.942617
  outer loop
    vertex 0.000000 0.169691 0.666229
    vertex 2.571429 0.241570 0.643661
    vertex 0.000000 0.287487 0.624506
  endloop
endfacet
facet normal 0.001036 0.433884 0.900968
  outer loop
    vertex 0.000000 0.287487 0.624506
    vertex 2.571429 0.241570 0.643661
    vertex 2.571429 0.352618 0.590184
  endloop
endfacet
facet normal -0.001072 0.498988 0.866608
  outer loop
    vertex 0.000000 0.287487 0.624506
    vertex 2.571429 0.352618 0.590184
    vertex 0.000000 0.395783 0.562149
  endloop
endfacet
facet normal 0.001047 0.587785 0.809016
  outer loop
    vertex 0.000000 0.395783 0.562149
    vertex 2.571429 0.352618 0.590184
    vertex 2.571429 0.452333 0.517737
  endloop
endfacet
facet normal -0.001082 0.647615 0.761967
  outer loop
    vertex 0.000000 0.395783 0.562149
    vertex 2.571429 0.452333 0.517737
    vertex 0.000000 0.491003 0.481220
  endloop
endfacet
facet normal 0.001056 0.722794 0.691062
  outer loop
    vertex 0.000000 0.491003 0.481220
    vertex 2.571429 0.452333 0.517737
    vertex 2.571429 0.537509 0.428649
  endloop
endfacet
facet normal -0.001090 0.774845 0.632150
  outer loop
    vertex 0.000000 0.491003 0.481220
    vertex 2.571429 0.537509 0.428649
    vertex 0.000000 0.570000 0.384390
  endloop
endfacet
facet normal 0.001063 0.834573 0.550897
  outer loop
    vertex 0.000000 0.570000 0.384390
    vertex 2.571429 0.537509 0.428649
    vertex 2.571429 0.605409 0.325785
  endloop
endfacet
facet normal -0.001097 0.876474 0.481448
  outer loop
    vertex 0.000000 0.570000 0.384390
    vertex 2.571429 0.605409 0.325785
    vertex 0.000000 0.630165 0.274861
  endloop
endfacet
facet normal 0.001069 0.919527 0.393025
  outer loop
    vertex 0.000000 0.630165 0.274861
    vertex 2.571429 0.605409 0.325785
    vertex 2.571429 0.653851 0.212449
  endloop
endfacet
facet normal -0.000332 0.647615 -0.761967
  outer loop
    vertex 0.000000 0.395783 -0.562149
    vertex 0.000000 0.491003 -0.481220
    vertex 2.571429 0.404102 -0.556199
  endloop
endfacet
facet normal 0.000276 0.657939 -0.753071
  outer loop
    vertex 2.571429 0.404102 -0.556199
    vertex 0.000000 0.491003 -0.481220
    vertex 2.571429 0.496921 -0.475106
  endloop
endfacet
facet normal 0.000000 0.657939 -0.753071
  outer loop
    vertex 2.571429 0.404102 -0.556199
    vertex 2.571429 0.496921 -0.475106
    vertex 5.142857 0.496921 -0.475106
  endloop
endfacet
facet normal 0.000000 0.781832 -0.623490
  outer loop
    vertex 5.142857 0.496921 -0.475106
    vertex 2.571429 0.496921 -0.475106
    vertex 5.142857 0.573769 -0.378742
  endloop
endfacet
facet normal 0.000000 0.781832 -0.623490
  outer loop
    vertex 5.142857 0.496921 -0.475106
    vertex 5.142857 0.573769 -0.378742
    vertex 7.714286 0.573769 -0.378742
  endloop
endfacet
facet normal 0.000000 0.880596 -0.473869
  outer loop
    vertex 7.714286 0.573769 -0.378742
    vertex 5.142857 0.573769 -0.378742
    vertex 7.714286 0.632175 -0.270205
  endloop
endfacet
facet normal 0.000000 0.880596 -0.473869
  outer loop
    vertex 7.714286 0.573769 -0.378742
    vertex 7.714286 0.632175 -0.270205
    vertex 10.285714 0.632175 -0.270205
  endloop
endfacet
facet normal 0.000000 0.950300 -0.311335
  outer loop
    vertex 10.285714 0.632175 -0.270205
    vertex 7.714286 0.632175 -0.270205
    vertex 18.000000 0.669509 -0.156250
  endloop
endfacet
facet normal -0.000280 0.774845 -0.632151
  outer loop
    vertex 0.000000 0.491003 -0.481220
    vertex 0.000000 0.570000 -0.384390
    vertex 2.571429 0.496921 -0.475106
  endloop
endfacet
facet normal 0.000224 0.781832 -0.623490
  outer loop
    vertex 2.571429 0.496921 -0.475106
    vertex 0.000000 0.570000 -0.384390
    vertex 2.571429 0.573769 -0.378742
  endloop
endfacet
facet normal 0.000000 0.781832 -0.623490
  outer loop
    vertex 2.571429 0.496921 -0.475106
    vertex 2.571429 0.573769 -0.378742
    vertex 5.142857 0.573769 -0.378742
  endloop
endfacet
facet normal 0.000000 0.880596 -0.473869
  outer loop
    vertex 5.142857 0.573769 -0.378742
    vertex 2.571429 0.573769 -0.378742
    vertex 5.142857 0.632175 -0.270205
  endloop
endfacet
facet normal 0.000000 0.880596 -0.473869
  outer loop
    vertex 5.142857 0.573769 -0.378742
    vertex 5.142857 0.632175 -0.270205
    vertex 7.714286 0.632175 -0.270205
  endloop
endfacet
facet normal 0.000000 0.950300 -0.311335
  outer loop
    vertex 7.714286 0.632175 -0.270205
    vertex 5.142857 0.632175 -0.270205
    vertex 0.000000 0.669509 -0.156250
  endloop
endfacet
facet normal 0.000000 0.950300 -0.311335
  outer loop
    vertex 7.714286 0.632175 -0.270205
    vertex 0.000000 0.669509 -0.156250
    vertex 18.000000 0.669509 -0.156250
  endloop
endfacet
facet normal -0.000227 0.876475 -0.481448
  outer loop
    vertex 0.000000 0.570000 -0.384390
    vertex 0.000000 0.630165 -0.274861
    vertex 2.571429 0.573769 -0.378742
  endloop
endfacet
facet normal 0.000170 0.880596 -0.473869
  outer loop
    vertex 2.571429 0.573769 -0.378742
    vertex 0.000000 0.630165 -0.274861
    vertex 2.571429 0.632175 -0.270205
  endloop
endfacet
facet normal 0.000000 0.880596 -0.473869
  outer loop
    vertex 2.571429 0.573769 -0.378742
    vertex 2.571429 0.632175 -0.270205
    vertex 5.142857 0.632175 -0.270205
  endloop
endfacet
facet normal 0.000000 0.950300 -0.311335
  outer loop
    vertex 5.142857 0.632175 -0.270205
    vertex 2.571429 0.632175 -0.270205
    vertex 0.000000 0.669509 -0.156250
  endloop
endfacet
facet normal -0.000172 0.949145 -0.314838
  outer loop
    vertex 0.000000 0.630165 -0.274861
    vertex 0.000000 0.669509 -0.156250
    vertex 2.571429 0.632175 -0.270205
  endloop
endfacet
facet normal 0.001082 0.647615 0.761967
  outer loop
    vertex 18.000000 0.395783 0.562149
    vertex 18.000000 0.491003 0.481220
    vertex 15.428572 0.452333 0.517737
  endloop
endfacet
facet normal -0.001056 0.722794 0.691062
  outer loop
    vertex 15.428572 0.452333 0.517737
    vertex 18.000000 0.491003 0.481220
    vertex 15.428572 0.537509 0.428649
  endloop
endfacet
facet normal 0.000000 0.722795 0.691063
  outer loop
    vertex 15.428572 0.452333 0.517737
    vertex 15.428572 0.537509 0.428649
    vertex 12.857142 0.537509 0.428649
  endloop
endfacet
facet normal -0.000000 0.834573 0.550897
  outer loop
    vertex 12.857142 0.537509 0.428649
    vertex 15.428572 0.537509 0.428649
    vertex 12.857142 0.605409 0.325785
  endloop
endfacet
facet normal 0.000000 0.834573 0.550897
  outer loop
    vertex 12.857142 0.537509 0.428649
    vertex 12.857142 0.605409 0.325785
    vertex 10.285714 0.605409 0.325785
  endloop
endfacet
facet normal -0.000000 0.919528 0.393025
  outer loop
    vertex 10.285714 0.605409 0.325785
    vertex 12.857142 0.605409 0.325785
    vertex 10.285714 0.653851 0.212449
  endloop
endfacet
facet normal 0.000000 0.919528 0.393025
  outer loop
    vertex 10.285714 0.605409 0.325785
    vertex 10.285714 0.653851 0.212449
    vertex 7.714286 0.653851 0.212449
  endloop
endfacet
facet normal -0.000000 0.963311 0.268387
  outer loop
    vertex 7.714286 0.653851 0.212449
    vertex 10.285714 0.653851 0.212449
    vertex 0.000000 0.669509 0.156250
  endloop
endfacet
facet normal 0.001090 0.774845 0.632150
  outer loop
    vertex 18.000000 0.491003 0.481220
    vertex 18.000000 0.570000 0.384390
    vertex 15.428572 0.537509 0.428649
  endloop
endfacet
facet normal -0.001063 0.834573 0.550897
  outer loop
    vertex 15.428572 0.537509 0.428649
    vertex 18.000000 0.570000 0.384390
    vertex 15.428572 0.605409 0.325785
  endloop
endfacet
facet normal 0.000000 0.834573 0.550897
  outer loop
    vertex 15.428572 0.537509 0.428649
    vertex 15.428572 0.605409 0.325785
    vertex 12.857142 0.605409 0.325785
  endloop
endfacet
facet normal -0.000000 0.919528 0.393025
  outer loop
    vertex 12.857142 0.605409 0.325785
    vertex 15.428572 0.605409 0.325785
    vertex 12.857142 0.653851 0.212449
  endloop
endfacet
facet normal 0.000000 0.919528 0.393025
  outer loop
    vertex 12.857142 0.605409 0.325785
    vertex 12.857142 0.653851 0.212449
    vertex 10.285714 0.653851 0.212449
  endloop
endfacet
facet normal -0.000000 0.963311 0.268387
  outer loop
    vertex 10.285714 0.653851 0.212449
    vertex 12.857142 0.653851 0.212449
    vertex 18.000000 0.669509 0.156250
  endloop
endfacet
facet normal 0.000000 0.963311 0.268387
  outer loop
    vertex 10.285714 0.653851 0.212449
    vertex 18.000000 0.669509 0.156250
    vertex 0.000000 0.669509 0.156250
  endloop
endfacet
facet normal 0.001097 0.876474 0.481448
  outer loop
    vertex 18.000000 0.570000 0.384390
    vertex 18.000000 0.630165 0.274861
    vertex 15.428572 0.605409 0.325785
  endloop
endfacet
facet normal -0.001069 0.919527 0.393025
  outer loop
    vertex 15.428572 0.605409 0.325785
    vertex 18.000000 0.630165 0.274861
    vertex 15.428572 0.653851 0.212449
  endloop
endfacet
facet normal 0.000000 0.919528 0.393025
  outer loop
    vertex 15.428572 0.605409 0.325785
    vertex 15.428572 0.653851 0.212449
    vertex 12.857142 0.653851 0.212449
  endloop
endfacet
facet normal -0.000000 0.963311 0.268387
  outer loop
    vertex 12.857142 0.653851 0.212449
    vertex 15.428572 0.653851 0.212449
    vertex 18.000000 0.669509 0.156250
  endloop
endfacet
facet normal 0.001101 0.949145 0.314838
  outer loop
    vertex 18.000000 0.630165 0.274861
    vertex 18.000000 0.669509 0.156250
    vertex 15.428572 0.653851 0.212449
  endloop
endfacet
facet normal -0.000000 0.089640 0.995974
  outer loop
    vertex 2.571429 0.000000 0.687500
    vertex 5.142857 0.000000 0.687500
    vertex 2.571429 0.122758 0.676452
  endloop
endfacet
facet normal -0.000000 0.089640 0.995974
  outer loop
    vertex 2.571429 0.122758 0.676452
    vertex 5.142857 0.000000 0.687500
    vertex 5.142857 0.122758 0.676452
  endloop
endfacet
facet normal -0.000000 0.266036 0.963963
  outer loop
    vertex 2.571429 0.122758 0.676452
    vertex 5.142857 0.122758 0.676452
    vertex 2.571429 0.241570 0.643661
  endloop
endfacet
facet normal -0.000000 0.266036 0.963963
  outer loop
    vertex 2.571429 0.241570 0.643661
    vertex 5.142857 0.122758 0.676452
    vertex 5.142857 0.241570 0.643661
  endloop
endfacet
facet normal -0.000000 0.433884 0.900969
  outer loop
    vertex 2.571429 0.241570 0.643661
    vertex 5.142857 0.241570 0.643661
    vertex 2.571429 0.352618 0.590184
  endloop
endfacet
facet normal -0.000000 0.433884 0.900969
  outer loop
    vertex 2.571429 0.352618 0.590184
    vertex 5.142857 0.241570 0.643661
    vertex 5.142857 0.352618 0.590184
  endloop
endfacet
facet normal -0.000000 0.587785 0.809017
  outer loop
    vertex 2.571429 0.352618 0.590184
    vertex 5.142857 0.352618 0.590184
    vertex 2.571429 0.452333 0.517737
  endloop
endfacet
facet normal -0.000000 0.587785 0.809017
  outer loop
    vertex 2.571429 0.452333 0.517737
    vertex 5.142857 0.352618 0.590184
    vertex 5.142857 0.452333 0.517737
  endloop
endfacet
facet normal -0.000000 0.722795 0.691063
  outer loop
    vertex 2.571429 0.452333 0.517737
    vertex 5.142857 0.452333 0.517737
    vertex 2.571429 0.537509 0.428649
  endloop
endfacet
facet normal -0.000000 0.722795 0.691063
  outer loop
    vertex 2.571429 0.537509 0.428649
    vertex 5.142857 0.452333 0.517737
    vertex 5.142857 0.537509 0.428649
  endloop
endfacet
facet normal -0.000000 0.834573 0.550897
  outer loop
    vertex 2.571429 0.537509 0.428649
    vertex 5.142857 0.537509 0.428649
    vertex 2.571429 0.605409 0.325785
  endloop
endfacet
facet normal -0.000000 0.834573 0.550897
  outer loop
    vertex 2.571429 0.605409 0.325785
    vertex 5.142857 0.537509 0.428649
    vertex 5.142857 0.605409 0.325785
  endloop
endfacet
facet normal -0.000000 0.919528 0.393025
  outer loop
    vertex 2.571429 0.605409 0.325785
    vertex 5.142857 0.605409 0.325785
    vertex 2.571429 0.653851 0.212449
  endloop
endfacet
facet normal -0.000000 0.919528 0.393025
  outer loop
    vertex 2.571429 0.653851 0.212449
    vertex 5.142857 0.605409 0.325785
    vertex 5.142857 0.653851 0.212449
  endloop
endfacet
facet normal -0.000000 0.089640 0.995974
  outer loop
    vertex 5.142857 0.000000 0.687500
    vertex 7.714286 0.000000 0.687500
    vertex 5.142857 0.122758 0.676452
  endloop
endfacet
facet normal -0.000000 0.089640 0.995974
  outer loop
    vertex 5.142857 0.122758 0.676452
    vertex 7.714286 0.000000 0.687500
    vertex 7.714286 0.122758 0.676452
  endloop
endfacet
facet normal -0.000000 0.266036 0.963963
  outer loop
    vertex 5.142857 0.122758 0.676452
    vertex 7.714286 0.122758 0.676452
    vertex 5.142857 0.241570 0.643661
  endloop
endfacet
facet normal -0.000000 0.266036 0.963963
  outer loop
    vertex 5.142857 0.241570 0.643661
    vertex 7.714286 0.122758 0.676452
    vertex 7.714286 0.241570 0.643661
  endloop
endfacet
facet normal -0.000000 0.433884 0.900969
  outer loop
    vertex 5.142857 0.241570 0.643661
    vertex 7.714286 0.241570 0.643661
    vertex 5.142857 0.352618 0.590184
  endloop
endfacet
facet normal -0.000000 0.433884 0.900969
  outer loop
    vertex 5.142857 0.352618 0.590184
    vertex 7.714286 0.241570 0.643661
    vertex 7.714286 0.352618 0.590184
  endloop
endfacet
facet normal -0.000000 0.587785 0.809017
  outer loop
    vertex 5.142857 0.352618 0.590184
    vertex 7.714286 0.352618 0.590184
    vertex 5.142857 0.452333 0.517737
  endloop
endfacet
facet normal -0.000000 0.587785 0.809017
  outer loop
    vertex 5.142857 0.452333 0.517737
    vertex 7.714286 0.352618 0.590184
    vertex 7.714286 0.452333 0.517737
  endloop
endfacet
facet normal -0.000000 0.722795 0.691063
  outer loop
    vertex 5.142857 0.452333 0.517737
    vertex 7.714286 0.452333 0.517737
    vertex 5.142857 0.537509 0.428649
  endloop
endfacet
facet normal -0.000000 0.722795 0.691063
  outer loop
    vertex 5.142857 0.537509 0.428649
    vertex 7.714286 0.452333 0.517737
    vertex 7.714286 0.537509 0.428649
  endloop
endfacet
facet normal -0.000000 0.834573 0.550897
  outer loop
    vertex 5.142857 0.537509 0.428649
    vertex 7.714286 0.537509 0.428649
    vertex 5.142857 0.605409 0.325785
  endloop
endfacet
facet normal -0.000000 0.834573 0.550897
  outer loop
    vertex 5.142857 0.605409 0.325785
    vertex 7.714286 0.537509 0.428649
    vertex 7.714286 0.605409 0.325785
  endloop
endfacet
facet normal -0.000000 0.919528 0.393025
  outer loop
    vertex 5.142857 0.605409 0.325785
    vertex 7.714286 0.605409 0.325785
    vertex 5.142857 0.653851 0.212449
  endloop
endfacet
facet normal 0.000000 -0.089640 0.995974
  outer loop
    vertex 5.142857 0.000000 0.687500
    vertex 2.571429 0.000000 0.687500
    vertex 5.142857 -0.122758 0.676452
  endloop
endfacet
facet normal 0.000000 -0.089640 0.995974
  outer loop
    vertex 5.142857 -0.122758 0.676452
    vertex 2.571429 0.000000 0.687500
    vertex 2.571429 -0.122758 0.676452
  endloop
endfacet
facet normal 0.000000 -0.266036 0.963963
  outer loop
    vertex 5.142857 -0.122758 0.676452
    vertex 2.571429 -0.122758 0.676452
    vertex 5.142857 -0.241570 0.643661
  endloop
endfacet
facet normal 0.000000 -0.266036 0.963963
  outer loop
    vertex 5.142857 -0.241570 0.643661
    vertex 2.571429 -0.122758 0.676452
    vertex 2.571429 -0.241570 0.643661
  endloop
endfacet
facet normal 0.000000 -0.433884 0.900969
  outer loop
    vertex 5.142857 -0.241570 0.643661
    vertex 2.571429 -0.241570 0.643661
    vertex 5.142857 -0.352618 0.590184
  endloop
endfacet
facet normal 0.000000 -0.433884 0.900969
  outer loop
    vertex 5.142857 -0.352618 0.590184
    vertex 2.571429 -0.241570 0.643661
    vertex 2.571429 -0.352618 0.590184
  endloop
endfacet
facet normal 0.000000 -0.587785 0.809017
  outer loop
    vertex 5.142857 -0.352618 0.590184
    vertex 2.571429 -0.352618 0.590184
    vertex 5.142857 -0.452333 0.517737
  endloop
endfacet
facet normal 0.000000 -0.587785 0.809017
  outer loop
    vertex 5.142857 -0.452333 0.517737
    vertex 2.571429 -0.352618 0.590184
    vertex 2.571429 -0.452333 0.517737
  endloop
endfacet
facet normal 0.000000 -0.722795 0.691063
  outer loop
    vertex 5.142857 -0.452333 0.517737
    vertex 2.571429 -0.452333 0.517737
    vertex 5.142857 -0.537509 0.428649
  endloop
endfacet
facet normal 0.000000 -0.722795 0.691063
  outer loop
    vertex 5.142857 -0.537509 0.428649
    vertex 2.571429 -0.452333 0.517737
    vertex 2.571429 -0.537509 0.428649
  endloop
endfacet
facet normal 0.000000 -0.834573 0.550897
  outer loop
    vertex 5.142857 -0.537509 0.428649
    vertex 2.571429 -0.537509 0.428649
    vertex 5.142857 -0.605409 0.325785
  endloop
endfacet
facet normal 0.000000 -0.834573 0.550897
  outer loop
    vertex 5.142857 -0.605409 0.325785
    vertex 2.571429 -0.537509 0.428649
    vertex 2.571429 -0.605409 0.325785
  endloop
endfacet
facet normal 0.000000 -0.919528 0.393025
  outer loop
    vertex 5.142857 -0.605409 0.325785
    vertex 2.571429 -0.605409 0.325785
    vertex 5.142857 -0.653851 0.212449
  endloop
endfacet
facet normal 0.000000 -0.919528 0.393025
  outer loop
    vertex 5.142857 -0.653851 0.212449
    vertex 2.571429 -0.605409 0.325785
    vertex 2.571429 -0.653851 0.212449
  endloop
endfacet
facet normal 0.000000 -0.974928 0.222521
  outer loop
    vertex 5.142857 -0.653851 0.212449
    vertex 2.571429 -0.653851 0.212449
    vertex 5.142857 -0.681278 0.092285
  endloop
endfacet
facet normal 0.000000 -0.974928 0.222521
  outer loop
    vertex 5.142857 -0.681278 0.092285
    vertex 2.571429 -0.653851 0.212449
    vertex 2.571429 -0.681278 0.092285
  endloop
endfacet
facet normal 0.000000 -0.998993 0.044865
  outer loop
    vertex 5.142857 -0.681278 0.092285
    vertex 2.571429 -0.681278 0.092285
    vertex 5.142857 -0.686808 -0.030845
  endloop
endfacet
facet normal 0.000000 -0.998993 0.044865
  outer loop
    vertex 5.142857 -0.686808 -0.030845
    vertex 2.571429 -0.681278 0.092285
    vertex 2.571429 -0.686808 -0.030845
  endloop
endfacet
facet normal -0.000000 -0.990950 -0.134233
  outer loop
    vertex 5.142857 -0.686808 -0.030845
    vertex 2.571429 -0.686808 -0.030845
    vertex 5.142857 -0.670263 -0.152983
  endloop
endfacet
facet normal -0.000000 -0.990950 -0.134233
  outer loop
    vertex 5.142857 -0.670263 -0.152983
    vertex 2.571429 -0.686808 -0.030845
    vertex 2.571429 -0.670263 -0.152983
  endloop
endfacet
facet normal -0.000000 -0.951056 -0.309017
  outer loop
    vertex 5.142857 -0.670263 -0.152983
    vertex 2.571429 -0.670263 -0.152983
    vertex 5.142857 -0.632175 -0.270205
  endloop
endfacet
facet normal -0.000000 -0.951056 -0.309017
  outer loop
    vertex 5.142857 -0.632175 -0.270205
    vertex 2.571429 -0.670263 -0.152983
    vertex 2.571429 -0.632175 -0.270205
  endloop
endfacet
facet normal -0.000000 -0.880596 -0.473869
  outer loop
    vertex 5.142857 -0.632175 -0.270205
    vertex 2.571429 -0.632175 -0.270205
    vertex 5.142857 -0.573769 -0.378742
  endloop
endfacet
facet normal -0.000000 -0.880596 -0.473869
  outer loop
    vertex 5.142857 -0.573769 -0.378742
    vertex 2.571429 -0.632175 -0.270205
    vertex 2.571429 -0.573769 -0.378742
  endloop
endfacet
facet normal -0.000000 -0.781832 -0.623490
  outer loop
    vertex 5.142857 -0.573769 -0.378742
    vertex 2.571429 -0.573769 -0.378742
    vertex 5.142857 -0.496921 -0.475106
  endloop
endfacet
facet normal -0.000000 -0.781832 -0.623490
  outer loop
    vertex 5.142857 -0.496921 -0.475106
    vertex 2.571429 -0.573769 -0.378742
    vertex 2.571429 -0.496921 -0.475106
  endloop
endfacet
facet normal -0.000000 -0.657939 -0.753071
  outer loop
    vertex 5.142857 -0.496921 -0.475106
    vertex 2.571429 -0.496921 -0.475106
    vertex 5.142857 -0.404102 -0.556199
  endloop
endfacet
facet normal -0.000000 -0.657939 -0.753071
  outer loop
    vertex 5.142857 -0.404102 -0.556199
    vertex 2.571429 -0.496921 -0.475106
    vertex 2.571429 -0.404102 -0.556199
  endloop
endfacet
facet normal -0.000000 -0.512899 -0.858449
  outer loop
    vertex 5.142857 -0.404102 -0.556199
    vertex 2.571429 -0.404102 -0.556199
    vertex 5.142857 -0.298295 -0.619416
  endloop
endfacet
facet normal -0.000000 -0.512899 -0.858449
  outer loop
    vertex 5.142857 -0.298295 -0.619416
    vertex 2.571429 -0.404102 -0.556199
    vertex 2.571429 -0.298295 -0.619416
  endloop
endfacet
facet normal -0.000000 -0.351375 -0.936235
  outer loop
    vertex 5.142857 -0.298295 -0.619416
    vertex 2.571429 -0.298295 -0.619416
    vertex 5.142857 -0.182900 -0.662724
  endloop
endfacet
facet normal -0.000000 -0.351375 -0.936235
  outer loop
    vertex 5.142857 -0.182900 -0.662724
    vertex 2.571429 -0.298295 -0.619416
    vertex 2.571429 -0.182900 -0.662724
  endloop
endfacet
facet normal -0.000000 -0.178557 -0.983930
  outer loop
    vertex 5.142857 -0.182900 -0.662724
    vertex 2.571429 -0.182900 -0.662724
    vertex 5.142857 -0.061627 -0.684732
  endloop
endfacet
facet normal -0.000000 -0.178557 -0.983930
  outer loop
    vertex 5.142857 -0.061627 -0.684732
    vertex 2.571429 -0.182900 -0.662724
    vertex 2.571429 -0.061627 -0.684732
  endloop
endfacet
facet normal 0.000000 0.000000 -1.000000
  outer loop
    vertex 5.142857 -0.061627 -0.684732
    vertex 2.571429 -0.061627 -0.684732
    vertex 5.142857 0.061627 -0.684732
  endloop
endfacet
facet normal -0.000000 0.000000 -1.000000
  outer loop
    vertex 5.142857 0.061627 -0.684732
    vertex 2.571429 -0.061627 -0.684732
    vertex 2.571429 0.061627 -0.684732
  endloop
endfacet
facet normal 0.000000 0.178557 -0.983930
  outer loop
    vertex 5.142857 0.061627 -0.684732
    vertex 2.571429 0.061627 -0.684732
    vertex 5.142857 0.182900 -0.662724
  endloop
endfacet
facet normal 0.000000 0.178557 -0.983930
  outer loop
    vertex 5.142857 0.182900 -0.662724
    vertex 2.571429 0.061627 -0.684732
    vertex 2.571429 0.182900 -0.662724
  endloop
endfacet
facet normal 0.000000 0.351375 -0.936235
  outer loop
    vertex 5.142857 0.182900 -0.662724
    vertex 2.571429 0.182900 -0.662724
    vertex 5.142857 0.298295 -0.619416
  endloop
endfacet
facet normal 0.000000 0.351375 -0.936235
  outer loop
    vertex 5.142857 0.298295 -0.619416
    vertex 2.571429 0.182900 -0.662724
    vertex 2.571429 0.298295 -0.619416
  endloop
endfacet
facet normal 0.000000 0.512899 -0.858449
  outer loop
    vertex 5.142857 0.298295 -0.619416
    vertex 2.571429 0.298295 -0.619416
    vertex 5.142857 0.404102 -0.556199
  endloop
endfacet
facet normal -0.000000 0.089640 0.995974
  outer loop
    vertex 7.714286 0.000000 0.687500
    vertex 10.285714 0.000000 0.687500
    vertex 7.714286 0.122758 0.676452
  endloop
endfacet
facet normal -0.000000 0.089640 0.995974
  outer loop
    vertex 7.714286 0.122758 0.676452
    vertex 10.285714 0.000000 0.687500
    vertex 10.285714 0.122758 0.676452
  endloop
endfacet
facet normal -0.000000 0.266036 0.963963
  outer loop
    vertex 7.714286 0.122758 0.676452
    vertex 10.285714 0.122758 0.676452
    vertex 7.714286 0.241570 0.643661
  endloop
endfacet
facet normal -0.000000 0.266036 0.963963
  outer loop
    vertex 7.714286 0.241570 0.643661
    vertex 10.285714 0.122758 0.676452
    vertex 10.285714 0.241570 0.643661
  endloop
endfacet
facet normal -0.000000 0.433884 0.900969
  outer loop
    vertex 7.714286 0.241570 0.643661
    vertex 10.285714 0.241570 0.643661
    vertex 7.714286 0.352618 0.590184
  endloop
endfacet
facet normal -0.000000 0.433884 0.900969
  outer loop
    vertex 7.714286 0.352618 0.590184
    vertex 10.285714 0.241570 0.643661
    vertex 10.285714 0.352618 0.590184
  endloop
endfacet
facet normal -0.000000 0.587785 0.809017
  outer loop
    vertex 7.714286 0.352618 0.590184
    vertex 10.285714 0.352618 0.590184
    vertex 7.714286 0.452333 0.517737
  endloop
endfacet
facet normal -0.000000 0.587785 0.809017
  outer loop
    vertex 7.714286 0.452333 0.517737
    vertex 10.285714 0.352618 0.590184
    vertex 10.285714 0.452333 0.517737
  endloop
endfacet
facet normal -0.000000 0.722795 0.691063
  outer loop
    vertex 7.714286 0.452333 0.517737
    vertex 10.285714 0.452333 0.517737
    vertex 7.714286 0.537509 0.428649
  endloop
endfacet
facet normal -0.000000 0.722795 0.691063
  outer loop
    vertex 7.714286 0.537509 0.428649
    vertex 10.285714 0.452333 0.517737
    vertex 10.285714 0.537509 0.428649
  endloop
endfacet
facet normal -0.000000 0.834573 0.550897
  outer loop
    vertex 7.714286 0.537509 0.428649
    vertex 10.285714 0.537509 0.428649
    vertex 7.714286 0.605409 0.325785
  endloop
endfacet
facet normal 0.000000 -0.089640 0.995974
  outer loop
    vertex 7.714286 0.000000 0.687500
    vertex 5.142857 0.000000 0.687500
    vertex 7.714286 -0.122758 0.676452
  endloop
endfacet
facet normal 0.000000 -0.089640 0.995974
  outer loop
    vertex 7.714286 -0.122758 0.676452
    vertex 5.142857 0.000000 0.687500
    vertex 5.142857 -0.122758 0.676452
  endloop
endfacet
facet normal 0.000000 -0.266036 0.963963
  outer loop
    vertex 7.714286 -0.122758 0.676452
    vertex 5.142857 -0.122758 0.676452
    vertex 7.714286 -0.241570 0.643661
  endloop
endfacet
facet normal 0.000000 -0.266036 0.963963
  outer loop
    vertex 7.714286 -0.241570 0.643661
    vertex 5.142857 -0.122758 0.676452
    vertex 5.142857 -0.241570 0.643661
  endloop
endfacet
facet normal 0.000000 -0.433884 0.900969
  outer loop
    vertex 7.714286 -0.241570 0.643661
    vertex 5.142857 -0.241570 0.643661
    vertex 7.714286 -0.352618 0.590184
  endloop
endfacet
facet normal 0.000000 -0.433884 0.900969
  outer loop
    vertex 7.714286 -0.352618 0.590184
    vertex 5.142857 -0.241570 0.643661
    vertex 5.142857 -0.352618 0.590184
  endloop
endfacet
facet normal 0.000000 -0.587785 0.809017
  outer loop
    vertex 7.714286 -0.352618 0.590184
    vertex 5.142857 -0.352618 0.590184
    vertex 7.714286 -0.452333 0.517737
  endloop
endfacet
facet normal 0.000000 -0.587785 0.809017
  outer loop
    vertex 7.714286 -0.452333 0.517737
    vertex 5.142857 -0.352618 0.590184
    vertex 5.142857 -0.452333 0.517737
  endloop
endfacet
facet normal 0.000000 -0.722795 0.691063
  outer loop
    vertex 7.714286 -0.452333 0.517737
    vertex 5.142857 -0.452333 0.517737
    vertex 7.714286 -0.537509 0.428649
  endloop
endfacet
facet normal 0.000000 -0.722795 0.691063
  outer loop
    vertex 7.714286 -0.537509 0.428649
    vertex 5.142857 -0.452333 0.517737
    vertex 5.142857 -0.537509 0.428649
  endloop
endfacet
facet normal 0.000000 -0.834573 0.550897
  outer loop
    vertex 7.714286 -0.537509 0.428649
    vertex 5.142857 -0.537509 0.428649
    vertex 7.714286 -0.605409 0.325785
  endloop
endfacet
facet normal 0.000000 -0.834573 0.550897
  outer loop
    vertex 7.714286 -0.605409 0.325785
    vertex 5.142857 -0.537509 0.428649
    vertex 5.142857 -0.605409 0.325785
  endloop
endfacet
facet normal 0.000000 -0.919528 0.393025
  outer loop
    vertex 7.714286 -0.605409 0.325785
    vertex 5.142857 -0.605409 0.325785
    vertex 7.714286 -0.653851 0.212449
  endloop
endfacet
facet normal 0.000000 -0.919528 0.393025
  outer loop
    vertex 7.714286 -0.653851 0.212449
    vertex 5.142857 -0.605409 0.325785
    vertex 5.142857 -0.653851 0.212449
  endloop
endfacet
facet normal 0.000000 -0.974928 0.222521
  outer loop
    vertex 7.714286 -0.653851 0.212449
    vertex 5.142857 -0.653851 0.212449
    vertex 7.714286 -0.681278 0.092285
  endloop
endfacet
facet normal 0.000000 -0.974928 0.222521
  outer loop
    vertex 7.714286 -0.681278 0.092285
    vertex 5.142857 -0.653851 0.212449
    vertex 5.142857 -0.681278 0.092285
  endloop
endfacet
facet normal 0.000000 -0.998993 0.044865
  outer loop
    vertex 7.714286 -0.681278 0.092285
    vertex 5.142857 -0.681278 0.092285
    vertex 7.714286 -0.686808 -0.030845
  endloop
endfacet
facet normal 0.000000 -0.998993 0.044865
  outer loop
    vertex 7.714286 -0.686808 -0.030845
    vertex 5.142857 -0.681278 0.092285
    vertex 5.142857 -0.686808 -0.030845
  endloop
endfacet
facet normal -0.000000 -0.990950 -0.134233
  outer loop
    vertex 7.714286 -0.686808 -0.030845
    vertex 5.142857 -0.686808 -0.030845
    vertex 7.714286 -0.670263 -0.152983
  endloop
endfacet
facet normal -0.000000 -0.990950 -0.134233
  outer loop
    vertex 7.714286 -0.670263 -0.152983
    vertex 5.142857 -0.686808 -0.030845
    vertex 5.142857 -0.670263 -0.152983
  endloop
endfacet
facet normal -0.000000 -0.951056 -0.309017
  outer loop
    vertex 7.714286 -0.670263 -0.152983
    vertex 5.142857 -0.670263 -0.152983
    vertex 7.714286 -0.632175 -0.270205
  endloop
endfacet
facet normal -0.000000 -0.951056 -0.309017
  outer loop
    vertex 7.714286 -0.632175 -0.270205
    vertex 5.142857 -0.670263 -0.152983
    vertex 5.142857 -0.632175 -0.270205
  endloop
endfacet
facet normal -0.000000 -0.880596 -0.473869
  outer loop
    vertex 7.714286 -0.632175 -0.270205
    vertex 5.142857 -0.632175 -0.270205
    vertex 7.714286 -0.573769 -0.378742
  endloop
endfacet
facet normal -0.000000 -0.880596 -0.473869
  outer loop
    vertex 7.714286 -0.573769 -0.378742
    vertex 5.142857 -0.632175 -0.270205
    vertex 5.142857 -0.573769 -0.378742
  endloop
endfacet
facet normal -0.000000 -0.781832 -0.623490
  outer loop
    vertex 7.714286 -0.573769 -0.378742
    vertex 5.142857 -0.573769 -0.378742
    vertex 7.714286 -0.496921 -0.475106
  endloop
endfacet
facet normal -0.000000 -0.781832 -0.623490
  outer loop
    vertex 7.714286 -0.496921 -0.475106
    vertex 5.142857 -0.573769 -0.378742
    vertex 5.142857 -0.496921 -0.475106
  endloop
endfacet
facet normal -0.000000 -0.657939 -0.753071
  outer loop
    vertex 7.714286 -0.496921 -0.475106
    vertex 5.142857 -0.496921 -0.475106
    vertex 7.714286 -0.404102 -0.556199
  endloop
endfacet
facet normal -0.000000 -0.657939 -0.753071
  outer loop
    vertex 7.714286 -0.404102 -0.556199
    vertex 5.142857 -0.496921 -0.475106
    vertex 5.142857 -0.404102 -0.556199
  endloop
endfacet
facet normal -0.000000 -0.512899 -0.858449
  outer loop
    vertex 7.714286 -0.404102 -0.556199
    vertex 5.142857 -0.404102 -0.556199
    vertex 7.714286 -0.298295 -0.619416
  endloop
endfacet
facet normal -0.000000 -0.512899 -0.858449
  outer loop
    vertex 7.714286 -0.298295 -0.619416
    vertex 5.142857 -0.404102 -0.556199
    vertex 5.142857 -0.298295 -0.619416
  endloop
endfacet
facet normal -0.000000 -0.351375 -0.936235
  outer loop
    vertex 7.714286 -0.298295 -0.619416
    vertex 5.142857 -0.298295 -0.619416
    vertex 7.714286 -0.182900 -0.662724
  endloop
endfacet
facet normal -0.000000 -0.351375 -0.936235
  outer loop
    vertex 7.714286 -0.182900 -0.662724
    vertex 5.142857 -0.298295 -0.619416
    vertex 5.142857 -0.182900 -0.662724
  endloop
endfacet
facet normal -0.000000 -0.178557 -0.983930
  outer loop
    vertex 7.714286 -0.182900 -0.662724
    vertex 5.142857 -0.182900 -0.662724
    vertex 7.714286 -0.061627 -0.684732
  endloop
endfacet
facet normal -0.000000 -0.178557 -0.983930
  outer loop
    vertex 7.714286 -0.061627 -0.684732
    vertex 5.142857 -0.182900 -0.662724
    vertex 5.142857 -0.061627 -0.684732
  endloop
endfacet
facet normal 0.000000 0.000000 -1.000000
  outer loop
    vertex 7.714286 -0.061627 -0.684732
    vertex 5.142857 -0.061627 -0.684732
    vertex 7.714286 0.061627 -0.684732
  endloop
endfacet
facet normal -0.000000 0.000000 -1.000000
  outer loop
    vertex 7.714286 0.061627 -0.684732
    vertex 5.142857 -0.061627 -0.684732
    vertex 5.142857 0.061627 -0.684732
  endloop
endfacet
facet normal 0.000000 0.178557 -0.983930
  outer loop
    vertex 7.714286 0.061627 -0.684732
    vertex 5.142857 0.061627 -0.684732
    vertex 7.714286 0.182900 -0.662724
  endloop
endfacet
facet normal 0.000000 0.178557 -0.983930
  outer loop
    vertex 7.714286 0.182900 -0.662724
    vertex 5.142857 0.061627 -0.684732
    vertex 5.142857 0.182900 -0.662724
  endloop
endfacet
facet normal 0.000000 0.351375 -0.936235
  outer loop
    vertex 7.714286 0.182900 -0.662724
    vertex 5.142857 0.182900 -0.662724
    vertex 7.714286 0.298295 -0.619416
  endloop
endfacet
facet normal 0.000000 0.351375 -0.936235
  outer loop
    vertex 7.714286 0.298295 -0.619416
    vertex 5.142857 0.182900 -0.662724
    vertex 5.142857 0.298295 -0.619416
  endloop
endfacet
facet normal 0.000000 0.512899 -0.858449
  outer loop
    vertex 7.714286 0.298295 -0.619416
    vertex 5.142857 0.298295 -0.619416
    vertex 7.714286 0.404102 -0.556199
  endloop
endfacet
facet normal 0.000000 0.512899 -0.858449
  outer loop
    vertex 7.714286 0.404102 -0.556199
    vertex 5.142857 0.298295 -0.619416
    vertex 5.142857 0.404102 -0.556199
  endloop
endfacet
facet normal 0.000000 0.657939 -0.753071
  outer loop
    vertex 7.714286 0.404102 -0.556199
    vertex 5.142857 0.404102 -0.556199
    vertex 7.714286 0.496921 -0.475106
  endloop
endfacet
facet normal -0.000000 0.089640 0.995974
  outer loop
    vertex 10.285714 0.000000 0.687500
    vertex 12.857142 0.000000 0.687500
    vertex 10.285714 0.122758 0.676452
  endloop
endfacet
facet normal -0.000000 0.089640 0.995974
  outer loop
    vertex 10.285714 0.122758 0.676452
    vertex 12.857142 0.000000 0.687500
    vertex 12.857142 0.122758 0.676452
  endloop
endfacet
facet normal -0.000000 0.266036 0.963963
  outer loop
    vertex 10.285714 0.122758 0.676452
    vertex 12.857142 0.122758 0.676452
    vertex 10.285714 0.241570 0.643661
  endloop
endfacet
facet normal -0.000000 0.266036 0.963963
  outer loop
    vertex 10.285714 0.241570 0.643661
    vertex 12.857142 0.122758 0.676452
    vertex 12.857142 0.241570 0.643661
  endloop
endfacet
facet normal -0.000000 0.433884 0.900969
  outer loop
    vertex 10.285714 0.241570 0.643661
    vertex 12.857142 0.241570 0.643661
    vertex 10.285714 0.352618 0.590184
  endloop
endfacet
facet normal -0.000000 0.433884 0.900969
  outer loop
    vertex 10.285714 0.352618 0.590184
    vertex 12.857142 0.241570 0.643661
    vertex 12.857142 0.352618 0.590184
  endloop
endfacet
facet normal -0.000000 0.587785 0.809017
  outer loop
    vertex 10.285714 0.352618 0.590184
    vertex 12.857142 0.352618 0.590184
    vertex 10.285714 0.452333 0.517737
  endloop
endfacet
facet normal -0.000000 0.587785 0.809017
  outer loop
    vertex 10.285714 0.452333 0.517737
    vertex 12.857142 0.352618 0.590184
    vertex 12.857142 0.452333 0.517737
  endloop
endfacet
facet normal -0.000000 0.722795 0.691063
  outer loop
    vertex 10.285714 0.452333 0.517737
    vertex 12.857142 0.452333 0.517737
    vertex 10.285714 0.537509 0.428649
  endloop
endfacet
facet normal 0.000000 -0.089640 0.995974
  outer loop
    vertex 10.285714 0.000000 0.687500
    vertex 7.714286 0.000000 0.687500
    vertex 10.285714 -0.122758 0.676452
  endloop
endfacet
facet normal 0.000000 -0.089640 0.995974
  outer loop
    vertex 10.285714 -0.122758 0.676452
    vertex 7.714286 0.000000 0.687500
    vertex 7.714286 -0.122758 0.676452
  endloop
endfacet
facet normal 0.000000 -0.266036 0.963963
  outer loop
    vertex 10.285714 -0.122758 0.676452
    vertex 7.714286 -0.122758 0.676452
    vertex 10.285714 -0.241570 0.643661
  endloop
endfacet
facet normal 0.000000 -0.266036 0.963963
  outer loop
    vertex 10.285714 -0.241570 0.643661
    vertex 7.714286 -0.122758 0.676452
    vertex 7.714286 -0.241570 0.643661
  endloop
endfacet
facet normal 0.000000 -0.433884 0.900969
  outer loop
    vertex 10.285714 -0.241570 0.643661
    vertex 7.714286 -0.241570 0.643661
    vertex 10.285714 -0.352618 0.590184
  endloop
endfacet
facet normal 0.000000 -0.433884 0.900969
  outer loop
    vertex 10.285714 -0.352618 0.590184
    vertex 7.714286 -0.241570 0.643661
    vertex 7.714286 -0.352618 0.590184
  endloop
endfacet
facet normal 0.000000 -0.587785 0.809017
  outer loop
    vertex 10.285714 -0.352618 0.590184
    vertex 7.714286 -0.352618 0.590184
    vertex 10.285714 -0.452333 0.517737
  endloop
endfacet
facet normal 0.000000 -0.587785 0.809017
  outer loop
    vertex 10.285714 -0.452333 0.517737
    vertex 7.714286 -0.352618 0.590184
    vertex 7.714286 -0.452333 0.517737
  endloop
endfacet
facet normal 0.000000 -0.722795 0.691063
  outer loop
    vertex 10.285714 -0.452333 0.517737
    vertex 7.714286 -0.452333 0.517737
    vertex 10.285714 -0.537509 0.428649
  endloop
endfacet
facet normal 0.000000 -0.722795 0.691063
  outer loop
    vertex 10.285714 -0.537509 0.428649
    vertex 7.714286 -0.452333 0.517737
    vertex 7.714286 -0.537509 0.428649
  endloop
endfacet
facet normal 0.000000 -0.834573 0.550897
  outer loop
    vertex 10.285714 -0.537509 0.428649
    vertex 7.714286 -0.537509 0.428649
    vertex 10.285714 -0.605409 0.325785
  endloop
endfacet
facet normal 0.000000 -0.834573 0.550897
  outer loop
    vertex 10.285714 -0.605409 0.325785
    vertex 7.714286 -0.537509 0.428649
    vertex 7.714286 -0.605409 0.325785
  endloop
endfacet
facet normal 0.000000 -0.919528 0.393025
  outer loop
    vertex 10.285714 -0.605409 0.325785
    vertex 7.714286 -0.605409 0.325785
    vertex 10.285714 -0.653851 0.212449
  endloop
endfacet
facet normal 0.000000 -0.919528 0.393025
  outer loop
    vertex 10.285714 -0.653851 0.212449
    vertex 7.714286 -0.605409 0.325785
    vertex 7.714286 -0.653851 0.212449
  endloop
endfacet
facet normal 0.000000 -0.974928 0.222521
  outer loop
    vertex 10.285714 -0.653851 0.212449
    vertex 7.714286 -0.653851 0.212449
    vertex 10.285714 -0.681278 0.092285
  endloop
endfacet
facet normal 0.000000 -0.974928 0.222521
  outer loop
    vertex 10.285714 -0.681278 0.092285
    vertex 7.714286 -0.653851 0.212449
    vertex 7.714286 -0.681278 0.092285
  endloop
endfacet
facet normal 0.000000 -0.998993 0.044865
  outer loop
    vertex 10.285714 -0.681278 0.092285
    vertex 7.714286 -0.681278 0.092285
    vertex 10.285714 -0.686808 -0.030845
  endloop
endfacet
facet normal 0.000000 -0.998993 0.044865
  outer loop
    vertex 10.285714 -0.686808 -0.030845
    vertex 7.714286 -0.681278 0.092285
    vertex 7.714286 -0.686808 -0.030845
  endloop
endfacet
facet normal -0.000000 -0.990950 -0.134233
  outer loop
    vertex 10.285714 -0.686808 -0.030845
    vertex 7.714286 -0.686808 -0.030845
    vertex 10.285714 -0.670263 -0.152983
  endloop
endfacet
facet normal -0.000000 -0.990950 -0.134233
  outer loop
    vertex 10.285714 -0.670263 -0.152983
    vertex 7.714286 -0.686808 -0.030845
    vertex 7.714286 -0.670263 -0.152983
  endloop
endfacet
facet normal -0.000000 -0.951056 -0.309017
  outer loop
    vertex 10.285714 -0.670263 -0.152983
    vertex 7.714286 -0.670263 -0.152983
    vertex 10.285714 -0.632175 -0.270205
  endloop
endfacet
facet normal -0.000000 -0.951056 -0.309017
  outer loop
    vertex 10.285714 -0.632175 -0.270205
    vertex 7.714286 -0.670263 -0.152983
    vertex 7.714286 -0.632175 -0.270205
  endloop
endfacet
facet normal -0.000000 -0.880596 -0.473869
  outer loop
    vertex 10.285714 -0.632175 -0.270205
    vertex 7.714286 -0.632175 -0.270205
    vertex 10.285714 -0.573769 -0.378742
  endloop
endfacet
facet normal -0.000000 -0.880596 -0.473869
  outer loop
    vertex 10.285714 -0.573769 -0.378742
    vertex 7.714286 -0.632175 -0.270205
    vertex 7.714286 -0.573769 -0.378742
  endloop
endfacet
facet normal -0.000000 -0.781832 -0.623490
  outer loop
    vertex 10.285714 -0.573769 -0.378742
    vertex 7.714286 -0.573769 -0.378742
    vertex 10.285714 -0.496921 -0.475106
  endloop
endfacet
facet normal -0.000000 -0.781832 -0.623490
  outer loop
    vertex 10.285714 -0.496921 -0.475106
    vertex 7.714286 -0.573769 -0.378742
    vertex 7.714286 -0.496921 -0.475106
  endloop
endfacet
facet normal -0.000000 -0.657939 -0.753071
  outer loop
    vertex 10.285714 -0.496921 -0.475106
    vertex 7.714286 -0.496921 -0.475106
    vertex 10.285714 -0.404102 -0.556199
  endloop
endfacet
facet normal -0.000000 -0.657939 -0.753071
  outer loop
    vertex 10.285714 -0.404102 -0.556199
    vertex 7.714286 -0.496921 -0.475106
    vertex 7.714286 -0.404102 -0.556199
  endloop
endfacet
facet normal -0.000000 -0.512899 -0.858449
  outer loop
    vertex 10.285714 -0.404102 -0.556199
    vertex 7.714286 -0.404102 -0.556199
    vertex 10.285714 -0.298295 -0.619416
  endloop
endfacet
facet normal -0.000000 -0.512899 -0.858449
  outer loop
    vertex 10.285714 -0.298295 -0.619416
    vertex 7.714286 -0.404102 -0.556199
    vertex 7.714286 -0.298295 -0.619416
  endloop
endfacet
facet normal -0.000000 -0.351375 -0.936235
  outer loop
    vertex 10.285714 -0.298295 -0.619416
    vertex 7.714286 -0.298295 -0.619416
    vertex 10.285714 -0.182900 -0.662724
  endloop
endfacet
facet normal -0.000000 -0.351375 -0.936235
  outer loop
    vertex 10.285714 -0.182900 -0.662724
    vertex 7.714286 -0.298295 -0.619416
    vertex 7.714286 -0.182900 -0.662724
  endloop
endfacet
facet normal -0.000000 -0.178557 -0.983930
  outer loop
    vertex 10.285714 -0.182900 -0.662724
    vertex 7.714286 -0.182900 -0.662724
    vertex 10.285714 -0.061627 -0.684732
  endloop
endfacet
facet normal -0.000000 -0.178557 -0.983930
  outer loop
    vertex 10.285714 -0.061627 -0.684732
    vertex 7.714286 -0.182900 -0.662724
    vertex 7.714286 -0.061627 -0.684732
  endloop
endfacet
facet normal 0.000000 0.000000 -1.000000
  outer loop
    vertex 10.285714 -0.061627 -0.684732
    vertex 7.714286 -0.061627 -0.684732
    vertex 10.285714 0.061627 -0.684732
  endloop
endfacet
facet normal -0.000000 0.000000 -1.000000
  outer loop
    vertex 10.285714 0.061627 -0.684732
    vertex 7.714286 -0.061627 -0.684732
    vertex 7.714286 0.061627 -0.684732
  endloop
endfacet
facet normal 0.000000 0.178557 -0.983930
  outer loop
    vertex 10.285714 0.061627 -0.684732
    vertex 7.714286 0.061627 -0.684732
    vertex 10.285714 0.182900 -0.662724
  endloop
endfacet
facet normal 0.000000 0.178557 -0.983930
  outer loop
    vertex 10.285714 0.182900 -0.662724
    vertex 7.714286 0.061627 -0.684732
    vertex 7.714286 0.182900 -0.662724
  endloop
endfacet
facet normal 0.000000 0.351375 -0.936235
  outer loop
    vertex 10.285714 0.182900 -0.662724
    vertex 7.714286 0.182900 -0.662724
    vertex 10.285714 0.298295 -0.619416
  endloop
endfacet
facet normal 0.000000 0.351375 -0.936235
  outer loop
    vertex 10.285714 0.298295 -0.619416
    vertex 7.714286 0.182900 -0.662724
    vertex 7.714286 0.298295 -0.619416
  endloop
endfacet
facet normal 0.000000 0.512899 -0.858449
  outer loop
    vertex 10.285714 0.298295 -0.619416
    vertex 7.714286 0.298295 -0.619416
    vertex 10.285714 0.404102 -0.556199
  endloop
endfacet
facet normal 0.000000 0.512899 -0.858449
  outer loop
    vertex 10.285714 0.404102 -0.556199
    vertex 7.714286 0.298295 -0.619416
    vertex 7.714286 0.404102 -0.556199
  endloop
endfacet
facet normal 0.000000 0.657939 -0.753071
  outer loop
    vertex 10.285714 0.404102 -0.556199
    vertex 7.714286 0.404102 -0.556199
    vertex 10.285714 0.496921 -0.475106
  endloop
endfacet
facet normal 0.000000 0.657939 -0.753071
  outer loop
    vertex 10.285714 0.496921 -0.475106
    vertex 7.714286 0.404102 -0.556199
    vertex 7.714286 0.496921 -0.475106
  endloop
endfacet
facet normal 0.000000 0.781832 -0.623490
  outer loop
    vertex 10.285714 0.496921 -0.475106
    vertex 7.714286 0.496921 -0.475106
    vertex 10.285714 0.573769 -0.378742
  endloop
endfacet
facet normal 0.000000 0.089640 0.995974
  outer loop
    vertex 12.857142 0.000000 0.687500
    vertex 15.428572 -0.000000 0.687500
    vertex 12.857142 0.122758 0.676452
  endloop
endfacet
facet normal -0.000000 0.089640 0.995974
  outer loop
    vertex 12.857142 0.122758 0.676452
    vertex 15.428572 -0.000000 0.687500
    vertex 15.428572 0.122758 0.676452
  endloop
endfacet
facet normal -0.000000 0.266036 0.963963
  outer loop
    vertex 12.857142 0.122758 0.676452
    vertex 15.428572 0.122758 0.676452
    vertex 12.857142 0.241570 0.643661
  endloop
endfacet
facet normal -0.000000 0.266036 0.963963
  outer loop
    vertex 12.857142 0.241570 0.643661
    vertex 15.428572 0.122758 0.676452
    vertex 15.428572 0.241570 0.643661
  endloop
endfacet
facet normal -0.000000 0.433884 0.900969
  outer loop
    vertex 12.857142 0.241570 0.643661
    vertex 15.428572 0.241570 0.643661
    vertex 12.857142 0.352618 0.590184
  endloop
endfacet
facet normal -0.000000 0.433884 0.900969
  outer loop
    vertex 12.857142 0.352618 0.590184
    vertex 15.428572 0.241570 0.643661
    vertex 15.428572 0.352618 0.590184
  endloop
endfacet
facet normal -0.000000 0.587785 0.809017
  outer loop
    vertex 12.857142 0.352618 0.590184
    vertex 15.428572 0.352618 0.590184
    vertex 12.857142 0.452333 0.517737
  endloop
endfacet
facet normal 0.000000 -0.089640 0.995974
  outer loop
    vertex 12.857142 0.000000 0.687500
    vertex 10.285714 0.000000 0.687500
    vertex 12.857142 -0.122758 0.676452
  endloop
endfacet
facet normal 0.000000 -0.089640 0.995974
  outer loop
    vertex 12.857142 -0.122758 0.676452
    vertex 10.285714 0.000000 0.687500
    vertex 10.285714 -0.122758 0.676452
  endloop
endfacet
facet normal 0.000000 -0.266036 0.963963
  outer loop
    vertex 12.857142 -0.122758 0.676452
    vertex 10.285714 -0.122758 0.676452
    vertex 12.857142 -0.241570 0.643661
  endloop
endfacet
facet normal 0.000000 -0.266036 0.963963
  outer loop
    vertex 12.857142 -0.241570 0.643661
    vertex 10.285714 -0.122758 0.676452
    vertex 10.285714 -0.241570 0.643661
  endloop
endfacet
facet normal 0.000000 -0.433884 0.900969
  outer loop
    vertex 12.857142 -0.241570 0.643661
    vertex 10.285714 -0.241570 0.643661
    vertex 12.857142 -0.352618 0.590184
  endloop
endfacet
facet normal 0.000000 -0.433884 0.900969
  outer loop
    vertex 12.857142 -0.352618 0.590184
    vertex 10.285714 -0.241570 0.643661
    vertex 10.285714 -0.352618 0.590184
  endloop
endfacet
facet normal 0.000000 -0.587785 0.809017
  outer loop
    vertex 12.857142 -0.352618 0.590184
    vertex 10.285714 -0.352618 0.590184
    vertex 12.857142 -0.452333 0.517737
  endloop
endfacet
facet normal 0.000000 -0.587785 0.809017
  outer loop
    vertex 12.857142 -0.452333 0.517737
    vertex 10.285714 -0.352618 0.590184
    vertex 10.285714 -0.452333 0.517737
  endloop
endfacet
facet normal 0.000000 -0.722795 0.691063
  outer loop
    vertex 12.857142 -0.452333 0.517737
    vertex 10.285714 -0.452333 0.517737
    vertex 12.857142 -0.537509 0.428649
  endloop
endfacet
facet normal 0.000000 -0.722795 0.691063
  outer loop
    vertex 12.857142 -0.537509 0.428649
    vertex 10.285714 -0.452333 0.517737
    vertex 10.285714 -0.537509 0.428649
  endloop
endfacet
facet normal 0.000000 -0.834573 0.550897
  outer loop
    vertex 12.857142 -0.537509 0.428649
    vertex 10.285714 -0.537509 0.428649
    vertex 12.857142 -0.605409 0.325785
  endloop
endfacet
facet normal 0.000000 -0.834573 0.550897
  outer loop
    vertex 12.857142 -0.605409 0.325785
    vertex 10.285714 -0.537509 0.428649
    vertex 10.285714 -0.605409 0.325785
  endloop
endfacet
facet normal 0.000000 -0.919528 0.393025
  outer loop
    vertex 12.857142 -0.605409 0.325785
    vertex 10.285714 -0.605409 0.325785
    vertex 12.857142 -0.653851 0.212449
  endloop
endfacet
facet normal 0.000000 -0.919528 0.393025
  outer loop
    vertex 12.857142 -0.653851 0.212449
    vertex 10.285714 -0.605409 0.325785
    vertex 10.285714 -0.653851 0.212449
  endloop
endfacet
facet normal 0.000000 -0.974928 0.222521
  outer loop
    vertex 12.857142 -0.653851 0.212449
    vertex 10.285714 -0.653851 0.212449
    vertex 12.857142 -0.681278 0.092285
  endloop
endfacet
facet normal 0.000000 -0.974928 0.222521
  outer loop
    vertex 12.857142 -0.681278 0.092285
    vertex 10.285714 -0.653851 0.212449
    vertex 10.285714 -0.681278 0.092285
  endloop
endfacet
facet normal 0.000000 -0.998993 0.044865
  outer loop
    vertex 12.857142 -0.681278 0.092285
    vertex 10.285714 -0.681278 0.092285
    vertex 12.857142 -0.686808 -0.030845
  endloop
endfacet
facet normal 0.000000 -0.998993 0.044865
  outer loop
    vertex 12.857142 -0.686808 -0.030845
    vertex 10.285714 -0.681278 0.092285
    vertex 10.285714 -0.686808 -0.030845
  endloop
endfacet
facet normal -0.000000 -0.990950 -0.134233
  outer loop
    vertex 12.857142 -0.686808 -0.030845
    vertex 10.285714 -0.686808 -0.030845
    vertex 12.857142 -0.670263 -0.152983
  endloop
endfacet
facet normal -0.000000 -0.990950 -0.134233
  outer loop
    vertex 12.857142 -0.670263 -0.152983
    vertex 10.285714 -0.686808 -0.030845
    vertex 10.285714 -0.670263 -0.152983
  endloop
endfacet
facet normal -0.000000 -0.951056 -0.309017
  outer loop
    vertex 12.857142 -0.670263 -0.152983
    vertex 10.285714 -0.670263 -0.152983
    vertex 12.857142 -0.632175 -0.270205
  endloop
endfacet
facet normal -0.000000 -0.951056 -0.309017
  outer loop
    vertex 12.857142 -0.632175 -0.270205
    vertex 10.285714 -0.670263 -0.152983
    vertex 10.285714 -0.632175 -0.270205
  endloop
endfacet
facet normal -0.000000 -0.880596 -0.473869
  outer loop
    vertex 12.857142 -0.632175 -0.270205
    vertex 10.285714 -0.632175 -0.270205
    vertex 12.857142 -0.573769 -0.378742
  endloop
endfacet
facet normal -0.000000 -0.880596 -0.473869
  outer loop
    vertex 12.857142 -0.573769 -0.378742
    vertex 10.285714 -0.632175 -0.270205
    vertex 10.285714 -0.573769 -0.378742
  endloop
endfacet
facet normal -0.000000 -0.781832 -0.623490
  outer loop
    vertex 12.857142 -0.573769 -0.378742
    vertex 10.285714 -0.573769 -0.378742
    vertex 12.857142 -0.496921 -0.475106
  endloop
endfacet
facet normal -0.000000 -0.781832 -0.623490
  outer loop
    vertex 12.857142 -0.496921 -0.475106
    vertex 10.285714 -0.573769 -0.378742
    vertex 10.285714 -0.496921 -0.475106
  endloop
endfacet
facet normal -0.000000 -0.657939 -0.753071
  outer loop
    vertex 12.857142 -0.496921 -0.475106
    vertex 10.285714 -0.496921 -0.475106
    vertex 12.857142 -0.404102 -0.556199
  endloop
endfacet
facet normal -0.000000 -0.657939 -0.753071
  outer loop
    vertex 12.857142 -0.404102 -0.556199
    vertex 10.285714 -0.496921 -0.475106
    vertex 10.285714 -0.404102 -0.556199
  endloop
endfacet
facet normal -0.000000 -0.512899 -0.858449
  outer loop
    vertex 12.857142 -0.404102 -0.556199
    vertex 10.285714 -0.404102 -0.556199
    vertex 12.857142 -0.298295 -0.619416
  endloop
endfacet
facet normal -0.000000 -0.512899 -0.858449
  outer loop
    vertex 12.857142 -0.298295 -0.619416
    vertex 10.285714 -0.404102 -0.556199
    vertex 10.285714 -0.298295 -0.619416
  endloop
endfacet
facet normal -0.000000 -0.351375 -0.936235
  outer loop
    vertex 12.857142 -0.298295 -0.619416
    vertex 10.285714 -0.298295 -0.619416
    vertex 12.857142 -0.182900 -0.662724
  endloop
endfacet
facet normal -0.000000 -0.351375 -0.936235
  outer loop
    vertex 12.857142 -0.182900 -0.662724
    vertex 10.285714 -0.298295 -0.619416
    vertex 10.285714 -0.182900 -0.662724
  endloop
endfacet
facet normal -0.000000 -0.178557 -0.983930
  outer loop
    vertex 12.857142 -0.182900 -0.662724
    vertex 10.285714 -0.182900 -0.662724
    vertex 12.857142 -0.061627 -0.684732
  endloop
endfacet
facet normal -0.000000 -0.178557 -0.983930
  outer loop
    vertex 12.857142 -0.061627 -0.684732
    vertex 10.285714 -0.182900 -0.662724
    vertex 10.285714 -0.061627 -0.684732
  endloop
endfacet
facet normal 0.000000 0.000000 -1.000000
  outer loop
    vertex 12.857142 -0.061627 -0.684732
    vertex 10.285714 -0.061627 -0.684732
    vertex 12.857142 0.061627 -0.684732
  endloop
endfacet
facet normal -0.000000 0.000000 -1.000000
  outer loop
    vertex 12.857142 0.061627 -0.684732
    vertex 10.285714 -0.061627 -0.684732
    vertex 10.285714 0.061627 -0.684732
  endloop
endfacet
facet normal 0.000000 0.178557 -0.983930
  outer loop
    vertex 12.857142 0.061627 -0.684732
    vertex 10.285714 0.061627 -0.684732
    vertex 12.857142 0.182900 -0.662724
  endloop
endfacet
facet normal 0.000000 0.178557 -0.983930
  outer loop
    vertex 12.857142 0.182900 -0.662724
    vertex 10.285714 0.061627 -0.684732
    vertex 10.285714 0.182900 -0.662724
  endloop
endfacet
facet normal 0.000000 0.351375 -0.936235
  outer loop
    vertex 12.857142 0.182900 -0.662724
    vertex 10.285714 0.182900 -0.662724
    vertex 12.857142 0.298295 -0.619416
  endloop
endfacet
facet normal 0.000000 0.351375 -0.936235
  outer loop
    vertex 12.857142 0.298295 -0.619416
    vertex 10.285714 0.182900 -0.662724
    vertex 10.285714 0.298295 -0.619416
  endloop
endfacet
facet normal 0.000000 0.512899 -0.858449
  outer loop
    vertex 12.857142 0.298295 -0.619416
    vertex 10.285714 0.298295 -0.619416
    vertex 12.857142 0.404102 -0.556199
  endloop
endfacet
facet normal 0.000000 0.512899 -0.858449
  outer loop
    vertex 12.857142 0.404102 -0.556199
    vertex 10.285714 0.298295 -0.619416
    vertex 10.285714 0.404102 -0.556199
  endloop
endfacet
facet normal 0.000000 0.657939 -0.753071
  outer loop
    vertex 12.857142 0.404102 -0.556199
    vertex 10.285714 0.404102 -0.556199
    vertex 12.857142 0.496921 -0.475106
  endloop
endfacet
facet normal 0.000000 0.657939 -0.753071
  outer loop
    vertex 12.857142 0.496921 -0.475106
    vertex 10.285714 0.404102 -0.556199
    vertex 10.285714 0.496921 -0.475106
  endloop
endfacet
facet normal 0.000000 0.781832 -0.623490
  outer loop
    vertex 12.857142 0.496921 -0.475106
    vertex 10.285714 0.496921 -0.475106
    vertex 12.857142 0.573769 -0.378742
  endloop
endfacet
facet normal 0.000000 0.781832 -0.623490
  outer loop
    vertex 12.857142 0.573769 -0.378742
    vertex 10.285714 0.496921 -0.475106
    vertex 10.285714 0.573769 -0.378742
  endloop
endfacet
facet normal 0.000000 0.880596 -0.473869
  outer loop
    vertex 12.857142 0.573769 -0.378742
    vertex 10.285714 0.573769 -0.378742
    vertex 12.857142 0.632175 -0.270205
  endloop
endfacet
facet normal -0.000000 -0.089640 0.995974
  outer loop
    vertex 15.428572 -0.000000 0.687500
    vertex 12.857142 0.000000 0.687500
    vertex 15.428572 -0.122758 0.676452
  endloop
endfacet
facet normal 0.000000 -0.089640 0.995974
  outer loop
    vertex 15.428572 -0.122758 0.676452
    vertex 12.857142 0.000000 0.687500
    vertex 12.857142 -0.122758 0.676452
  endloop
endfacet
facet normal 0.000000 -0.266036 0.963963
  outer loop
    vertex 15.428572 -0.122758 0.676452
    vertex 12.857142 -0.122758 0.676452
    vertex 15.428572 -0.241570 0.643661
  endloop
endfacet
facet normal 0.000000 -0.266036 0.963963
  outer loop
    vertex 15.428572 -0.241570 0.643661
    vertex 12.857142 -0.122758 0.676452
    vertex 12.857142 -0.241570 0.643661
  endloop
endfacet
facet normal 0.000000 -0.433884 0.900969
  outer loop
    vertex 15.428572 -0.241570 0.643661
    vertex 12.857142 -0.241570 0.643661
    vertex 15.428572 -0.352618 0.590184
  endloop
endfacet
facet normal 0.000000 -0.433884 0.900969
  outer loop
    vertex 15.428572 -0.352618 0.590184
    vertex 12.857142 -0.241570 0.643661
    vertex 12.857142 -0.352618 0.590184
  endloop
endfacet
facet normal 0.000000 -0.587785 0.809017
  outer loop
    vertex 15.428572 -0.352618 0.590184
    vertex 12.857142 -0.352618 0.590184
    vertex 15.428572 -0.452333 0.517737
  endloop
endfacet
facet normal 0.000000 -0.587785 0.809017
  outer loop
    vertex 15.428572 -0.452333 0.517737
    vertex 12.857142 -0.352618 0.590184
    vertex 12.857142 -0.452333 0.517737
  endloop
endfacet
facet normal 0.000000 -0.722795 0.691063
  outer loop
    vertex 15.428572 -0.452333 0.517737
    vertex 12.857142 -0.452333 0.517737
    vertex 15.428572 -0.537509 0.428649
  endloop
endfacet
facet normal 0.000000 -0.722795 0.691063
  outer loop
    vertex 15.428572 -0.537509 0.428649
    vertex 12.857142 -0.452333 0.517737
    vertex 12.857142 -0.537509 0.428649
  endloop
endfacet
facet normal 0.000000 -0.834573 0.550897
  outer loop
    vertex 15.428572 -0.537509 0.428649
    vertex 12.857142 -0.537509 0.428649
    vertex 15.428572 -0.605409 0.325785
  endloop
endfacet
facet normal 0.000000 -0.834573 0.550897
  outer loop
    vertex 15.428572 -0.605409 0.325785
    vertex 12.857142 -0.537509 0.428649
    vertex 12.857142 -0.605409 0.325785
  endloop
endfacet
facet normal 0.000000 -0.919528 0.393025
  outer loop
    vertex 15.428572 -0.605409 0.325785
    vertex 12.857142 -0.605409 0.325785
    vertex 15.428572 -0.653851 0.212449
  endloop
endfacet
facet normal 0.000000 -0.919528 0.393025
  outer loop
    vertex 15.428572 -0.653851 0.212449
    vertex 12.857142 -0.605409 0.325785
    vertex 12.857142 -0.653851 0.212449
  endloop
endfacet
facet normal 0.000000 -0.974928 0.222521
  outer loop
    vertex 15.428572 -0.653851 0.212449
    vertex 12.857142 -0.653851 0.212449
    vertex 15.428572 -0.681278 0.092285
  endloop
endfacet
facet normal 0.000000 -0.974928 0.222521
  outer loop
    vertex 15.428572 -0.681278 0.092285
    vertex 12.857142 -0.653851 0.212449
    vertex 12.857142 -0.681278 0.092285
  endloop
endfacet
facet normal 0.000000 -0.998993 0.044865
  outer loop
    vertex 15.428572 -0.681278 0.092285
    vertex 12.857142 -0.681278 0.092285
    vertex 15.428572 -0.686808 -0.030845
  endloop
endfacet
facet normal 0.000000 -0.998993 0.044865
  outer loop
    vertex 15.428572 -0.686808 -0.030845
    vertex 12.857142 -0.681278 0.092285
    vertex 12.857142 -0.686808 -0.030845
  endloop
endfacet
facet normal -0.000000 -0.990950 -0.134233
  outer loop
    vertex 15.428572 -0.686808 -0.030845
    vertex 12.857142 -0.686808 -0.030845
    vertex 15.428572 -0.670263 -0.152983
  endloop
endfacet
facet normal -0.000000 -0.990950 -0.134233
  outer loop
    vertex 15.428572 -0.670263 -0.152983
    vertex 12.857142 -0.686808 -0.030845
    vertex 12.857142 -0.670263 -0.152983
  endloop
endfacet
facet normal -0.000000 -0.951056 -0.309017
  outer loop
    vertex 15.428572 -0.670263 -0.152983
    vertex 12.857142 -0.670263 -0.152983
    vertex 15.428572 -0.632175 -0.270205
  endloop
endfacet
facet normal -0.000000 -0.951056 -0.309017
  outer loop
    vertex 15.428572 -0.632175 -0.270205
    vertex 12.857142 -0.670263 -0.152983
    vertex 12.857142 -0.632175 -0.270205
  endloop
endfacet
facet normal -0.000000 -0.880596 -0.473869
  outer loop
    vertex 15.428572 -0.632175 -0.270205
    vertex 12.857142 -0.632175 -0.270205
    vertex 15.428572 -0.573769 -0.378742
  endloop
endfacet
facet normal -0.000000 -0.880596 -0.473869
  outer loop
    vertex 15.428572 -0.573769 -0.378742
    vertex 12.857142 -0.632175 -0.270205
    vertex 12.857142 -0.573769 -0.378742
  endloop
endfacet
facet normal -0.000000 -0.781832 -0.623490
  outer loop
    vertex 15.428572 -0.573769 -0.378742
    vertex 12.857142 -0.573769 -0.378742
    vertex 15.428572 -0.496921 -0.475106
  endloop
endfacet
facet normal -0.000000 -0.781832 -0.623490
  outer loop
    vertex 15.428572 -0.496921 -0.475106
    vertex 12.857142 -0.573769 -0.378742
    vertex 12.857142 -0.496921 -0.475106
  endloop
endfacet
facet normal -0.000000 -0.657939 -0.753072
  outer loop
    vertex 15.428572 -0.496921 -0.475106
    vertex 12.857142 -0.496921 -0.475106
    vertex 15.428572 -0.404102 -0.556199
  endloop
endfacet
facet normal -0.000000 -0.657939 -0.753072
  outer loop
    vertex 15.428572 -0.404102 -0.556199
    vertex 12.857142 -0.496921 -0.475106
    vertex 12.857142 -0.404102 -0.556199
  endloop
endfacet
facet normal -0.000000 -0.512899 -0.858449
  outer loop
    vertex 15.428572 -0.404102 -0.556199
    vertex 12.857142 -0.404102 -0.556199
    vertex 15.428572 -0.298295 -0.619416
  endloop
endfacet
facet normal -0.000000 -0.512899 -0.858449
  outer loop
    vertex 15.428572 -0.298295 -0.619416
    vertex 12.857142 -0.404102 -0.556199
    vertex 12.857142 -0.298295 -0.619416
  endloop
endfacet
facet normal -0.000000 -0.351375 -0.936235
  outer loop
    vertex 15.428572 -0.298295 -0.619416
    vertex 12.857142 -0.298295 -0.619416
    vertex 15.428572 -0.182900 -0.662724
  endloop
endfacet
facet normal -0.000000 -0.351375 -0.936235
  outer loop
    vertex 15.428572 -0.182900 -0.662724
    vertex 12.857142 -0.298295 -0.619416
    vertex 12.857142 -0.182900 -0.662724
  endloop
endfacet
facet normal -0.000000 -0.178557 -0.983930
  outer loop
    vertex 15.428572 -0.182900 -0.662724
    vertex 12.857142 -0.182900 -0.662724
    vertex 15.428572 -0.061627 -0.684732
  endloop
endfacet
facet normal -0.000000 -0.178557 -0.983930
  outer loop
    vertex 15.428572 -0.061627 -0.684732
    vertex 12.857142 -0.182900 -0.662724
    vertex 12.857142 -0.061627 -0.684732
  endloop
endfacet
facet normal 0.000000 0.000000 -1.000000
  outer loop
    vertex 15.428572 -0.061627 -0.684732
    vertex 12.857142 -0.061627 -0.684732
    vertex 15.428572 0.061627 -0.684732
  endloop
endfacet
facet normal -0.000000 0.000000 -1.000000
  outer loop
    vertex 15.428572 0.061627 -0.684732
    vertex 12.857142 -0.061627 -0.684732
    vertex 12.857142 0.061627 -0.684732
  endloop
endfacet
facet normal 0.000000 0.178557 -0.983930
  outer loop
    vertex 15.428572 0.061627 -0.684732
    vertex 12.857142 0.061627 -0.684732
    vertex 15.428572 0.182900 -0.662724
  endloop
endfacet
facet normal 0.000000 0.178557 -0.983930
  outer loop
    vertex 15.428572 0.182900 -0.662724
    vertex 12.857142 0.061627 -0.684732
    vertex 12.857142 0.182900 -0.662724
  endloop
endfacet
facet normal 0.000000 0.351375 -0.936235
  outer loop
    vertex 15.428572 0.182900 -0.662724
    vertex 12.857142 0.182900 -0.662724
    vertex 15.428572 0.298295 -0.619416
  endloop
endfacet
facet normal 0.000000 0.351375 -0.936235
  outer loop
    vertex 15.428572 0.298295 -0.619416
    vertex 12.857142 0.182900 -0.662724
    vertex 12.857142 0.298295 -0.619416
  endloop
endfacet
facet normal 0.000000 0.512899 -0.858449
  outer loop
    vertex 15.428572 0.298295 -0.619416
    vertex 12.857142 0.298295 -0.619416
    vertex 15.428572 0.404102 -0.556199
  endloop
endfacet
facet normal 0.000000 0.512899 -0.858449
  outer loop
    vertex 15.428572 0.404102 -0.556199
    vertex 12.857142 0.298295 -0.619416
    vertex 12.857142 0.404102 -0.556199
  endloop
endfacet
facet normal 0.000000 0.657939 -0.753072
  outer loop
    vertex 15.428572 0.404102 -0.556199
    vertex 12.857142 0.404102 -0.556199
    vertex 15.428572 0.496921 -0.475106
  endloop
endfacet
facet normal 0.000000 0.657939 -0.753072
  outer loop
    vertex 15.428572 0.496921 -0.475106
    vertex 12.857142 0.404102 -0.556199
    vertex 12.857142 0.496921 -0.475106
  endloop
endfacet
facet normal 0.000000 0.781832 -0.623490
  outer loop
    vertex 15.428572 0.496921 -0.475106
    vertex 12.857142 0.496921 -0.475106
    vertex 15.428572 0.573769 -0.378742
  endloop
endfacet
facet normal 0.000000 0.781832 -0.623490
  outer loop
    vertex 15.428572 0.573769 -0.378742
    vertex 12.857142 0.496921 -0.475106
    vertex 12.857142 0.573769 -0.378742
  endloop
endfacet
facet normal 0.000000 0.880596 -0.473869
  outer loop
    vertex 15.428572 0.573769 -0.378742
    vertex 12.857142 0.573769 -0.378742
    vertex 15.428572 0.632175 -0.270205
  endloop
endfacet
facet normal 0.000000 0.880596 -0.473869
  outer loop
    vertex 15.428572 0.632175 -0.270205
    vertex 12.857142 0.573769 -0.378742
    vertex 12.857142 0.632175 -0.270205
  endloop
endfacet
facet normal 0.000000 0.000000 -1.000000
  outer loop
    vertex 0.000000 0.669509 0.156250
    vertex 18.000000 0.669509 0.156250
    vertex 0.000000 0.531250 0.156250
  endloop
endfacet
facet normal 0.000000 0.000000 -1.000000
  outer loop
    vertex 0.000000 0.531250 0.156250
    vertex 18.000000 0.669509 0.156250
    vertex 18.000000 0.531250 0.156250
  endloop
endfacet
facet normal 1.000000 0.000000 0.000000
  outer loop
    vertex 18.000000 0.669509 0.156250
    vertex 18.000000 0.630165 0.274861
    vertex 18.000000 0.531250 0.156250
  endloop
endfacet
facet normal 1.000000 0.000000 0.000000
  outer loop
    vertex 18.000000 0.531250 0.156250
    vertex 18.000000 0.630165 0.274861
    vertex 18.000000 0.570000 0.384390
  endloop
endfacet
facet normal 1.000000 0.000000 -0.000000
  outer loop
    vertex 18.000000 0.531250 0.156250
    vertex 18.000000 0.570000 0.384390
    vertex 18.000000 0.491003 0.481220
  endloop
endfacet
facet normal 1.000000 0.000000 0.000000
  outer loop
    vertex 18.000000 0.491003 0.481220
    vertex 18.000000 0.395783 0.562149
    vertex 18.000000 0.531250 0.156250
  endloop
endfacet
facet normal 1.000000 0.000000 0.000000
  outer loop
    vertex 18.000000 0.531250 0.156250
    vertex 18.000000 0.395783 0.562149
    vertex 18.000000 0.287487 0.624506
  endloop
endfacet
facet normal 1.000000 0.000000 0.000000
  outer loop
    vertex 18.000000 0.531250 0.156250
    vertex 18.000000 0.287487 0.624506
    vertex 18.000000 0.169691 0.666229
  endloop
endfacet
facet normal 1.000000 0.000000 0.000000
  outer loop
    vertex 18.000000 0.169691 0.666229
    vertex 18.000000 0.046290 0.685940
    vertex 18.000000 0.531250 0.156250
  endloop
endfacet
facet normal 1.000000 0.000000 0.000000
  outer loop
    vertex 18.000000 0.531250 0.156250
    vertex 18.000000 0.046290 0.685940
    vertex 18.000000 -0.078641 0.682987
  endloop
endfacet
facet normal 1.000000 0.000000 0.000000
  outer loop
    vertex 18.000000 0.531250 0.156250
    vertex 18.000000 -0.078641 0.682987
    vertex 18.000000 -0.200974 0.657469
  endloop
endfacet
facet normal 1.000000 0.000000 0.000000
  outer loop
    vertex 18.000000 -0.200974 0.657469
    vertex 18.000000 -0.316667 0.610228
    vertex 18.000000 0.531250 0.156250
  endloop
endfacet
facet normal 1.000000 0.000000 0.000000
  outer loop
    vertex 18.000000 0.531250 0.156250
    vertex 18.000000 -0.316667 0.610228
    vertex 18.000000 -0.316667 -0.610228
  endloop
endfacet
facet normal 1.000000 0.000000 0.000000
  outer loop
    vertex 18.000000 0.531250 0.156250
    vertex 18.000000 -0.316667 -0.610228
    vertex 18.000000 0.531250 -0.156250
  endloop
endfacet
facet normal 1.000000 0.000000 0.000000
  outer loop
    vertex 18.000000 0.531250 -0.156250
    vertex 18.000000 -0.316667 -0.610228
    vertex 18.000000 -0.200974 -0.657469
  endloop
endfacet
facet normal 1.000000 0.000000 0.000000
  outer loop
    vertex 18.000000 0.531250 -0.156250
    vertex 18.000000 -0.200974 -0.657469
    vertex 18.000000 -0.078641 -0.682987
  endloop
endfacet
facet normal 1.000000 0.000000 -0.000000
  outer loop
    vertex 18.000000 -0.316667 -0.610228
    vertex 18.000000 -0.316667 0.610228
    vertex 18.000000 -0.421897 -0.542826
  endloop
endfacet
facet normal 1.000000 0.000000 0.000000
  outer loop
    vertex 18.000000 -0.421897 -0.542826
    vertex 18.000000 -0.316667 0.610228
    vertex 18.000000 -0.421897 0.542826
  endloop
endfacet
facet normal 1.000000 0.000000 -0.000000
  outer loop
    vertex 18.000000 -0.421897 -0.542826
    vertex 18.000000 -0.421897 0.542826
    vertex 18.000000 -0.513187 -0.457488
  endloop
endfacet
facet normal 1.000000 0.000000 0.000000
  outer loop
    vertex 18.000000 -0.513187 -0.457488
    vertex 18.000000 -0.421897 0.542826
    vertex 18.000000 -0.513187 0.457488
  endloop
endfacet
facet normal 1.000000 0.000000 -0.000000
  outer loop
    vertex 18.000000 -0.513187 -0.457488
    vertex 18.000000 -0.513187 0.457488
    vertex 18.000000 -0.587522 -0.357035
  endloop
endfacet
facet normal 1.000000 0.000000 0.000000
  outer loop
    vertex 18.000000 -0.587522 -0.357035
    vertex 18.000000 -0.513187 0.457488
    vertex 18.000000 -0.587522 0.357035
  endloop
endfacet
facet normal 1.000000 0.000000 -0.000000
  outer loop
    vertex 18.000000 -0.587522 -0.357035
    vertex 18.000000 -0.587522 0.357035
    vertex 18.000000 -0.642446 -0.244786
  endloop
endfacet
facet normal 1.000000 0.000000 0.000000
  outer loop
    vertex 18.000000 -0.642446 -0.244786
    vertex 18.000000 -0.587522 0.357035
    vertex 18.000000 -0.642446 0.244786
  endloop
endfacet
facet normal 1.000000 0.000000 -0.000000
  outer loop
    vertex 18.000000 -0.642446 -0.244786
    vertex 18.000000 -0.642446 0.244786
    vertex 18.000000 -0.676143 -0.124449
  endloop
endfacet
facet normal 1.000000 0.000000 0.000000
  outer loop
    vertex 18.000000 -0.676143 -0.124449
    vertex 18.000000 -0.642446 0.244786
    vertex 18.000000 -0.676143 0.124449
  endloop
endfacet
facet normal 1.000000 0.000000 -0.000000
  outer loop
    vertex 18.000000 -0.676143 -0.124449
    vertex 18.000000 -0.676143 0.124449
    vertex 18.000000 -0.687500 0.000000
  endloop
endfacet
facet normal 1.000000 -0.000000 0.000000
  outer loop
    vertex 18.000000 -0.078641 -0.682987
    vertex 18.000000 0.046290 -0.685940
    vertex 18.000000 0.531250 -0.156250
  endloop
endfacet
facet normal 1.000000 0.000000 0.000000
  outer loop
    vertex 18.000000 0.531250 -0.156250
    vertex 18.000000 0.046290 -0.685940
    vertex 18.000000 0.169691 -0.666229
  endloop
endfacet
facet normal 1.000000 0.000000 0.000000
  outer loop
    vertex 18.000000 0.531250 -0.156250
    vertex 18.000000 0.169691 -0.666229
    vertex 18.000000 0.287487 -0.624506
  endloop
endfacet
facet normal 1.000000 0.000000 0.000000
  outer loop
    vertex 18.000000 0.287487 -0.624506
    vertex 18.000000 0.395783 -0.562149
    vertex 18.000000 0.531250 -0.156250
  endloop
endfacet
facet normal 1.000000 0.000000 0.000000
  outer loop
    vertex 18.000000 0.531250 -0.156250
    vertex 18.000000 0.395783 -0.562149
    vertex 18.000000 0.491003 -0.481220
  endloop
endfacet
facet normal 1.000000 0.000000 0.000000
  outer loop
    vertex 18.000000 0.531250 -0.156250
    vertex 18.000000 0.491003 -0.481220
    vertex 18.000000 0.570000 -0.384390
  endloop
endfacet
facet normal 1.000000 0.000000 -0.000000
  outer loop
    vertex 18.000000 0.570000 -0.384390
    vertex 18.000000 0.630165 -0.274861
    vertex 18.000000 0.531250 -0.156250
  endloop
endfacet
facet normal 1.000000 -0.000000 0.000000
  outer loop
    vertex 18.000000 0.531250 -0.156250
    vertex 18.000000 0.630165 -0.274861
    vertex 18.000000 0.669509 -0.156250
  endloop
endfacet
facet normal -1.000000 0.000000 0.000000
  outer loop
    vertex 0.000000 0.669509 0.156250
    vertex 0.000000 0.531250 0.156250
    vertex 0.000000 0.630165 0.274861
  endloop
endfacet
facet normal -1.000000 -0.000000 0.000000
  outer loop
    vertex 0.000000 0.630165 0.274861
    vertex 0.000000 0.531250 0.156250
    vertex 0.000000 0.570000 0.384390
  endloop
endfacet
facet normal -1.000000 -0.000000 0.000000
  outer loop
    vertex 0.000000 0.570000 0.384390
    vertex 0.000000 0.531250 0.156250
    vertex 0.000000 0.491003 0.481220
  endloop
endfacet
facet normal -1.000000 -0.000000 -0.000000
  outer loop
    vertex 0.000000 0.491003 0.481220
    vertex 0.000000 0.531250 0.156250
    vertex 0.000000 0.395783 0.562149
  endloop
endfacet
facet normal -1.000000 -0.000000 -0.000000
  outer loop
    vertex 0.000000 0.395783 0.562149
    vertex 0.000000 0.531250 0.156250
    vertex 0.000000 0.287487 0.624506
  endloop
endfacet
facet normal -1.000000 -0.000000 -0.000000
  outer loop
    vertex 0.000000 0.287487 0.624506
    vertex 0.000000 0.531250 0.156250
    vertex 0.000000 0.169691 0.666229
  endloop
endfacet
facet normal -1.000000 -0.000000 -0.000000
  outer loop
    vertex 0.000000 0.169691 0.666229
    vertex 0.000000 0.531250 0.156250
    vertex 0.000000 0.046290 0.685940
  endloop
endfacet
facet normal -1.000000 0.000000 -0.000000
  outer loop
    vertex 0.000000 0.046290 0.685940
    vertex 0.000000 0.531250 0.156250
    vertex 0.000000 -0.078641 0.682987
  endloop
endfacet
facet normal -1.000000 0.000000 -0.000000
  outer loop
    vertex 0.000000 -0.078641 0.682987
    vertex 0.000000 0.531250 0.156250
    vertex 0.000000 -0.200974 0.657469
  endloop
endfacet
facet normal -1.000000 0.000000 -0.000000
  outer loop
    vertex 0.000000 -0.200974 0.657469
    vertex 0.000000 0.531250 0.156250
    vertex 0.000000 -0.316667 0.610228
  endloop
endfacet
facet normal -1.000000 0.000000 0.000000
  outer loop
    vertex 0.000000 -0.316667 0.610228
    vertex 0.000000 0.531250 0.156250
    vertex 0.000000 0.531250 -0.156250
  endloop
endfacet
facet normal -1.000000 0.000000 0.000000
  outer loop
    vertex 0.000000 -0.316667 0.610228
    vertex 0.000000 0.531250 -0.156250
    vertex 0.000000 -0.316667 -0.610228
  endloop
endfacet
facet normal -1.000000 0.000000 0.000000
  outer loop
    vertex 0.000000 -0.316667 -0.610228
    vertex 0.000000 0.531250 -0.156250
    vertex 0.000000 -0.200974 -0.657469
  endloop
endfacet
facet normal -1.000000 0.000000 0.000000
  outer loop
    vertex 0.000000 -0.200974 -0.657469
    vertex 0.000000 0.531250 -0.156250
    vertex 0.000000 -0.078641 -0.682987
  endloop
endfacet
facet normal -1.000000 0.000000 0.000000
  outer loop
    vertex 0.000000 -0.078641 -0.682987
    vertex 0.000000 0.531250 -0.156250
    vertex 0.000000 0.046290 -0.685940
  endloop
endfacet
facet normal -1.000000 0.000000 0.000000
  outer loop
    vertex 0.000000 0.046290 -0.685940
    vertex 0.000000 0.531250 -0.156250
    vertex 0.000000 0.169691 -0.666229
  endloop
endfacet
facet normal -1.000000 0.000000 0.000000
  outer loop
    vertex 0.000000 0.169691 -0.666229
    vertex 0.000000 0.531250 -0.156250
    vertex 0.000000 0.287487 -0.624506
  endloop
endfacet
facet normal -1.000000 0.000000 0.000000
  outer loop
    vertex 0.000000 0.287487 -0.624506
    vertex 0.000000 0.531250 -0.156250
    vertex 0.000000 0.395783 -0.562149
  endloop
endfacet
facet normal -1.000000 0.000000 0.000000
  outer loop
    vertex 0.000000 0.395783 -0.562149
    vertex 0.000000 0.531250 -0.156250
    vertex 0.000000 0.491003 -0.481220
  endloop
endfacet
facet normal -1.000000 0.000000 0.000000
  outer loop
    vertex 0.000000 0.491003 -0.481220
    vertex 0.000000 0.531250 -0.156250
    vertex 0.000000 0.570000 -0.384390
  endloop
endfacet
facet normal -1.000000 0.000000 0.000000
  outer loop
    vertex 0.000000 0.570000 -0.384390
    vertex 0.000000 0.531250 -0.156250
    vertex 0.000000 0.630165 -0.274861
  endloop
endfacet
facet normal -1.000000 0.000000 0.000000
  outer loop
    vertex 0.000000 0.630165 -0.274861
    vertex 0.000000 0.531250 -0.156250
    vertex 0.000000 0.669509 -0.156250
  endloop
endfacet
facet normal -1.000000 0.000000 -0.000000
  outer loop
    vertex 0.000000 -0.316667 0.610228
    vertex 0.000000 -0.316667 -0.610228
    vertex 0.000000 -0.421897 0.542826
  endloop
endfacet
facet normal -1.000000 0.000000 0.000000
  outer loop
    vertex 0.000000 -0.421897 0.542826
    vertex 0.000000 -0.316667 -0.610228
    vertex 0.000000 -0.421897 -0.542826
  endloop
endfacet
facet normal -1.000000 0.000000 -0.000000
  outer loop
    vertex 0.000000 -0.421897 0.542826
    vertex 0.000000 -0.421897 -0.542826
    vertex 0.000000 -0.513187 0.457488
  endloop
endfacet
facet normal -1.000000 0.000000 0.000000
  outer loop
    vertex 0.000000 -0.513187 0.457488
    vertex 0.000000 -0.421897 -0.542826
    vertex 0.000000 -0.513187 -0.457488
  endloop
endfacet
facet normal -1.000000 0.000000 -0.000000
  outer loop
    vertex 0.000000 -0.513187 0.457488
    vertex 0.000000 -0.513187 -0.457488
    vertex 0.000000 -0.587522 0.357035
  endloop
endfacet
facet normal -1.000000 0.000000 0.000000
  outer loop
    vertex 0.000000 -0.587522 0.357035
    vertex 0.000000 -0.513187 -0.457488
    vertex 0.000000 -0.587522 -0.357035
  endloop
endfacet
facet normal -1.000000 0.000000 -0.000000
  outer loop
    vertex 0.000000 -0.587522 0.357035
    vertex 0.000000 -0.587522 -0.357035
    vertex 0.000000 -0.642446 0.244786
  endloop
endfacet
facet normal -1.000000 0.000000 0.000000
  outer loop
    vertex 0.000000 -0.642446 0.244786
    vertex 0.000000 -0.587522 -0.357035
    vertex 0.000000 -0.642446 -0.244786
  endloop
endfacet
facet normal -1.000000 0.000000 -0.000000
  outer loop
    vertex 0.000000 -0.642446 0.244786
    vertex 0.000000 -0.642446 -0.244786
    vertex 0.000000 -0.676143 0.124449
  endloop
endfacet
facet normal -1.000000 0.000000 0.000000
  outer loop
    vertex 0.000000 -0.676143 0.124449
    vertex 0.000000 -0.642446 -0.244786
    vertex 0.000000 -0.676143 -0.124449
  endloop
endfacet
facet normal -1.000000 0.000000 -0.000000
  outer loop
    vertex 0.000000 -0.676143 0.124449
    vertex 0.000000 -0.676143 -0.124449
    vertex 0.000000 -0.687500 0.000000
  endloop
endfacet
endsolid 7b1dabcb-a87d-44f2-ae38-e85e365b6a3f-ascii.stl
