solid 8054f436-485a-426d-a237-a837567c5175-ascii.stl
facet normal -0.000000 1.000000 0.000000
  outer loop
    vertex 0.000000 0.843750 0.250000
    vertex 48.000000 0.843750 0.250000
    vertex 0.000000 0.843750 -0.250000
  endloop
endfacet
facet normal 0.000000 1.000000 0.000000
  outer loop
    vertex 0.000000 0.843750 -0.250000
    vertex 48.000000 0.843750 0.250000
    vertex 48.000000 0.843750 -0.250000
  endloop
endfacet
facet normal 0.000000 0.000000 1.000000
  outer loop
    vertex 0.000000 0.843750 -0.250000
    vertex 48.000000 0.843750 -0.250000
    vertex 0.000000 1.064795 -0.250000
  endloop
endfacet
facet normal -0.000000 0.000000 1.000000
  outer loop
    vertex 0.000000 1.064795 -0.250000
    vertex 48.000000 0.843750 -0.250000
    vertex 48.000000 1.064795 -0.250000
  endloop
endfacet
facet normal -0.001017 0.940380 0.340124
  outer loop
    vertex 0.000000 0.978357 0.488984
    vertex 5.333333 1.004299 0.433212
    vertex 0.000000 1.064795 0.250000
  endloop
endfacet
facet normal 0.000000 0.949573 0.313547
  outer loop
    vertex 0.000000 1.064795 0.250000
    vertex 5.333333 1.004299 0.433212
    vertex 10.666667 1.004299 0.433212
  endloop
endfacet
facet normal 0.000000 0.949573 0.313547
  outer loop
    vertex 0.000000 1.064795 0.250000
    vertex 10.666667 1.004299 0.433212
    vertex 16.000000 1.004299 0.433212
  endloop
endfacet
facet normal 0.000000 0.866025 0.500000
  outer loop
    vertex 16.000000 1.004299 0.433212
    vertex 10.666667 1.004299 0.433212
    vertex 16.000000 0.877322 0.653142
  endloop
endfacet
facet normal 0.000000 0.866025 0.500000
  outer loop
    vertex 16.000000 1.004299 0.433212
    vertex 16.000000 0.877322 0.653142
    vertex 21.333334 0.877322 0.653142
  endloop
endfacet
facet normal 0.000000 0.727374 0.686242
  outer loop
    vertex 21.333334 0.877322 0.653142
    vertex 16.000000 0.877322 0.653142
    vertex 21.333334 0.703049 0.837861
  endloop
endfacet
facet normal 0.000000 0.727374 0.686242
  outer loop
    vertex 21.333334 0.877322 0.653142
    vertex 21.333334 0.703049 0.837861
    vertex 26.666666 0.703049 0.837861
  endloop
endfacet
facet normal 0.000000 0.549509 0.835488
  outer loop
    vertex 26.666666 0.703049 0.837861
    vertex 21.333334 0.703049 0.837861
    vertex 26.666666 0.490874 0.977411
  endloop
endfacet
facet normal 0.000000 0.549509 0.835488
  outer loop
    vertex 26.666666 0.703049 0.837861
    vertex 26.666666 0.490874 0.977411
    vertex 32.000000 0.490874 0.977411
  endloop
endfacet
facet normal 0.000000 0.342020 0.939693
  outer loop
    vertex 32.000000 0.490874 0.977411
    vertex 26.666666 0.490874 0.977411
    vertex 32.000000 0.252236 1.064268
  endloop
endfacet
facet normal 0.000000 0.342020 0.939692
  outer loop
    vertex 32.000000 0.490874 0.977411
    vertex 32.000000 0.252236 1.064268
    vertex 37.333332 0.252236 1.064268
  endloop
endfacet
facet normal 0.000000 0.116093 0.993238
  outer loop
    vertex 37.333332 0.252236 1.064268
    vertex 32.000000 0.252236 1.064268
    vertex 37.333332 0.000000 1.093750
  endloop
endfacet
facet normal 0.000000 0.116093 0.993238
  outer loop
    vertex 37.333332 0.252236 1.064268
    vertex 37.333332 0.000000 1.093750
    vertex 42.666668 -0.000000 1.093750
  endloop
endfacet
facet normal -0.000000 -0.116093 0.993238
  outer loop
    vertex 42.666668 -0.000000 1.093750
    vertex 37.333332 0.000000 1.093750
    vertex 42.666668 -0.252236 1.064268
  endloop
endfacet
facet normal -0.001027 -0.116093 0.993238
  outer loop
    vertex 42.666668 -0.000000 1.093750
    vertex 42.666668 -0.252236 1.064268
    vertex 48.000000 -0.062403 1.091968
  endloop
endfacet
facet normal 0.001030 -0.172655 0.984982
  outer loop
    vertex 48.000000 -0.062403 1.091968
    vertex 42.666668 -0.252236 1.064268
    vertex 48.000000 -0.312722 1.048090
  endloop
endfacet
facet normal -0.001029 -0.342020 0.939692
  outer loop
    vertex 48.000000 -0.312722 1.048090
    vertex 42.666668 -0.252236 1.064268
    vertex 42.666668 -0.490874 0.977411
  endloop
endfacet
facet normal 0.001032 -0.395308 0.918548
  outer loop
    vertex 48.000000 -0.312722 1.048090
    vertex 42.666668 -0.490874 0.977411
    vertex 48.000000 -0.546159 0.947629
  endloop
endfacet
facet normal -0.001031 -0.549509 0.835487
  outer loop
    vertex 48.000000 -0.546159 0.947629
    vertex 42.666668 -0.490874 0.977411
    vertex 42.666668 -0.703049 0.837861
  endloop
endfacet
facet normal 0.001034 -0.596619 0.802524
  outer loop
    vertex 48.000000 -0.546159 0.947629
    vertex 42.666668 -0.703049 0.837861
    vertex 48.000000 -0.750109 0.796006
  endloop
endfacet
facet normal -0.001033 -0.727373 0.686241
  outer loop
    vertex 48.000000 -0.750109 0.796006
    vertex 42.666668 -0.703049 0.837861
    vertex 42.666668 -0.877322 0.653142
  endloop
endfacet
facet normal 0.001036 -0.765720 0.643173
  outer loop
    vertex 48.000000 -0.750109 0.796006
    vertex 42.666668 -0.877322 0.653142
    vertex 48.000000 -0.913562 0.601409
  endloop
endfacet
facet normal -0.001035 -0.866025 0.500000
  outer loop
    vertex 48.000000 -0.913562 0.601409
    vertex 42.666668 -0.877322 0.653142
    vertex 42.666668 -1.004299 0.433212
  endloop
endfacet
facet normal 0.001038 -0.893481 0.449099
  outer loop
    vertex 48.000000 -0.913562 0.601409
    vertex 42.666668 -1.004299 0.433212
    vertex 48.000000 -1.027694 0.374344
  endloop
endfacet
facet normal -0.001037 -0.957989 0.286803
  outer loop
    vertex 48.000000 -1.027694 0.374344
    vertex 42.666668 -1.004299 0.433212
    vertex 42.666668 -1.077134 0.189928
  endloop
endfacet
facet normal 0.001040 -0.973006 0.230779
  outer loop
    vertex 48.000000 -1.027694 0.374344
    vertex 42.666668 -1.077134 0.189928
    vertex 48.000000 -1.086344 0.127068
  endloop
endfacet
facet normal -0.001039 -0.998308 0.058144
  outer loop
    vertex 48.000000 -1.086344 0.127068
    vertex 42.666668 -1.077134 0.189928
    vertex 42.666668 -1.091900 -0.063596
  endloop
endfacet
facet normal 0.001042 -0.999999 0.000000
  outer loop
    vertex 48.000000 -1.086344 0.127068
    vertex 42.666668 -1.091900 -0.063596
    vertex 48.000000 -1.086344 -0.127068
  endloop
endfacet
facet normal -0.001041 -0.984807 -0.173648
  outer loop
    vertex 48.000000 -1.086344 -0.127068
    vertex 42.666668 -1.091900 -0.063596
    vertex 42.666668 -1.047801 -0.313691
  endloop
endfacet
facet normal 0.001044 -0.973006 -0.230779
  outer loop
    vertex 48.000000 -1.086344 -0.127068
    vertex 42.666668 -1.047801 -0.313691
    vertex 48.000000 -1.027694 -0.374344
  endloop
endfacet
facet normal -0.001043 -0.918216 -0.396080
  outer loop
    vertex 48.000000 -1.027694 -0.374344
    vertex 42.666668 -1.047801 -0.313691
    vertex 42.666668 -0.947215 -0.546875
  endloop
endfacet
facet normal 0.001046 -0.893481 -0.449099
  outer loop
    vertex 48.000000 -1.027694 -0.374344
    vertex 42.666668 -0.947215 -0.546875
    vertex 48.000000 -0.913562 -0.601409
  endloop
endfacet
facet normal -0.001045 -0.802123 -0.597158
  outer loop
    vertex 48.000000 -0.913562 -0.601409
    vertex 42.666668 -0.947215 -0.546875
    vertex 42.666668 -0.795565 -0.750577
  endloop
endfacet
facet normal 0.001048 -0.765720 -0.643173
  outer loop
    vertex 48.000000 -0.913562 -0.601409
    vertex 42.666668 -0.795565 -0.750577
    vertex 48.000000 -0.750109 -0.796006
  endloop
endfacet
facet normal -0.001047 -0.642787 -0.766044
  outer loop
    vertex 48.000000 -0.750109 -0.796006
    vertex 42.666668 -0.795565 -0.750577
    vertex 42.666668 -0.601025 -0.913815
  endloop
endfacet
facet normal 0.001050 -0.596619 -0.802524
  outer loop
    vertex 48.000000 -0.750109 -0.796006
    vertex 42.666668 -0.601025 -0.913815
    vertex 48.000000 -0.546159 -0.947629
  endloop
endfacet
facet normal -0.001049 -0.448799 -0.893632
  outer loop
    vertex 48.000000 -0.546159 -0.947629
    vertex 42.666668 -0.601025 -0.913815
    vertex 42.666668 -0.374085 -1.027789
  endloop
endfacet
facet normal 0.001052 -0.395308 -0.918548
  outer loop
    vertex 48.000000 -0.546159 -0.947629
    vertex 42.666668 -0.374085 -1.027789
    vertex 48.000000 -0.312722 -1.048090
  endloop
endfacet
facet normal -0.001051 -0.230616 -0.973044
  outer loop
    vertex 48.000000 -0.312722 -1.048090
    vertex 42.666668 -0.374085 -1.027789
    vertex 42.666668 -0.126977 -1.086354
  endloop
endfacet
facet normal 0.001054 -0.172655 -0.984982
  outer loop
    vertex 48.000000 -0.312722 -1.048090
    vertex 42.666668 -0.126977 -1.086354
    vertex 48.000000 -0.062403 -1.091968
  endloop
endfacet
facet normal -0.001053 0.000000 -0.999999
  outer loop
    vertex 48.000000 -0.062403 -1.091968
    vertex 42.666668 -0.126977 -1.086354
    vertex 42.666668 0.126977 -1.086354
  endloop
endfacet
facet normal 0.001056 0.059319 -0.998239
  outer loop
    vertex 48.000000 -0.062403 -1.091968
    vertex 42.666668 0.126977 -1.086354
    vertex 48.000000 0.191285 -1.076893
  endloop
endfacet
facet normal -0.001055 0.230616 -0.973044
  outer loop
    vertex 48.000000 0.191285 -1.076893
    vertex 42.666668 0.126977 -1.086354
    vertex 42.666668 0.374085 -1.027789
  endloop
endfacet
facet normal 0.001058 0.288091 -0.957603
  outer loop
    vertex 48.000000 0.191285 -1.076893
    vertex 42.666668 0.374085 -1.027789
    vertex 48.000000 0.434646 -1.003679
  endloop
endfacet
facet normal -0.001057 0.448799 -0.893632
  outer loop
    vertex 48.000000 0.434646 -1.003679
    vertex 42.666668 0.374085 -1.027789
    vertex 42.666668 0.601025 -0.913815
  endloop
endfacet
facet normal 0.001060 0.501309 -0.865268
  outer loop
    vertex 48.000000 0.434646 -1.003679
    vertex 42.666668 0.601025 -0.913815
    vertex 48.000000 0.654542 -0.876278
  endloop
endfacet
facet normal -0.001058 0.642787 -0.766044
  outer loop
    vertex 48.000000 0.654542 -0.876278
    vertex 42.666668 0.601025 -0.913815
    vertex 42.666668 0.795565 -0.750577
  endloop
endfacet
facet normal 0.001061 0.687463 -0.726219
  outer loop
    vertex 48.000000 0.654542 -0.876278
    vertex 42.666668 0.795565 -0.750577
    vertex 48.000000 0.839100 -0.701569
  endloop
endfacet
facet normal -0.001060 0.802123 -0.597158
  outer loop
    vertex 48.000000 0.839100 -0.701569
    vertex 42.666668 0.795565 -0.750577
    vertex 42.666668 0.947215 -0.546875
  endloop
endfacet
facet normal 0.001063 0.836502 -0.547963
  outer loop
    vertex 48.000000 0.839100 -0.701569
    vertex 42.666668 0.947215 -0.546875
    vertex 48.000000 0.978357 -0.488984
  endloop
endfacet
facet normal -0.001062 0.918216 -0.396080
  outer loop
    vertex 48.000000 0.978357 -0.488984
    vertex 42.666668 0.947215 -0.546875
    vertex 42.666668 1.047801 -0.313691
  endloop
endfacet
facet normal 0.001065 0.940380 -0.340124
  outer loop
    vertex 48.000000 0.978357 -0.488984
    vertex 42.666668 1.047801 -0.313691
    vertex 48.000000 1.064795 -0.250000
  endloop
endfacet
facet normal 0.000000 0.966197 -0.257804
  outer loop
    vertex 48.000000 1.064795 -0.250000
    vertex 42.666668 1.047801 -0.313691
    vertex 37.333332 1.047801 -0.313691
  endloop
endfacet
facet normal 0.000000 0.966197 -0.257804
  outer loop
    vertex 48.000000 1.064795 -0.250000
    vertex 37.333332 1.047801 -0.313691
    vertex 32.000000 1.047801 -0.313691
  endloop
endfacet
facet normal 0.000000 0.918216 -0.396080
  outer loop
    vertex 32.000000 1.047801 -0.313691
    vertex 37.333332 1.047801 -0.313691
    vertex 32.000000 0.947215 -0.546875
  endloop
endfacet
facet normal 0.000000 0.918216 -0.396080
  outer loop
    vertex 32.000000 1.047801 -0.313691
    vertex 32.000000 0.947215 -0.546875
    vertex 26.666666 0.947215 -0.546875
  endloop
endfacet
facet normal 0.000000 0.802123 -0.597158
  outer loop
    vertex 26.666666 0.947215 -0.546875
    vertex 32.000000 0.947215 -0.546875
    vertex 26.666666 0.795565 -0.750577
  endloop
endfacet
facet normal 0.000000 0.802123 -0.597158
  outer loop
    vertex 26.666666 0.947215 -0.546875
    vertex 26.666666 0.795565 -0.750577
    vertex 21.333334 0.795565 -0.750577
  endloop
endfacet
facet normal 0.000000 0.642788 -0.766044
  outer loop
    vertex 21.333334 0.795565 -0.750577
    vertex 26.666666 0.795565 -0.750577
    vertex 21.333334 0.601025 -0.913815
  endloop
endfacet
facet normal 0.000000 0.642788 -0.766044
  outer loop
    vertex 21.333334 0.795565 -0.750577
    vertex 21.333334 0.601025 -0.913815
    vertex 16.000000 0.601025 -0.913815
  endloop
endfacet
facet normal 0.000000 0.448799 -0.893633
  outer loop
    vertex 16.000000 0.601025 -0.913815
    vertex 21.333334 0.601025 -0.913815
    vertex 16.000000 0.374085 -1.027789
  endloop
endfacet
facet normal 0.000000 0.448799 -0.893633
  outer loop
    vertex 16.000000 0.601025 -0.913815
    vertex 16.000000 0.374085 -1.027789
    vertex 10.666667 0.374085 -1.027789
  endloop
endfacet
facet normal 0.000000 0.230616 -0.973045
  outer loop
    vertex 10.666667 0.374085 -1.027789
    vertex 16.000000 0.374085 -1.027789
    vertex 10.666667 0.126977 -1.086354
  endloop
endfacet
facet normal 0.000000 0.230616 -0.973045
  outer loop
    vertex 10.666667 0.374085 -1.027789
    vertex 10.666667 0.126977 -1.086354
    vertex 5.333333 0.126977 -1.086354
  endloop
endfacet
facet normal 0.000000 0.000000 -1.000000
  outer loop
    vertex 5.333333 0.126977 -1.086354
    vertex 10.666667 0.126977 -1.086354
    vertex 5.333333 -0.126977 -1.086354
  endloop
endfacet
facet normal 0.001053 0.000000 -0.999999
  outer loop
    vertex 5.333333 0.126977 -1.086354
    vertex 5.333333 -0.126977 -1.086354
    vertex 0.000000 -0.062403 -1.091968
  endloop
endfacet
facet normal -0.001054 -0.172655 -0.984982
  outer loop
    vertex 0.000000 -0.062403 -1.091968
    vertex 5.333333 -0.126977 -1.086354
    vertex 0.000000 -0.312722 -1.048090
  endloop
endfacet
facet normal 0.001051 -0.230616 -0.973044
  outer loop
    vertex 0.000000 -0.312722 -1.048090
    vertex 5.333333 -0.126977 -1.086354
    vertex 5.333333 -0.374085 -1.027789
  endloop
endfacet
facet normal -0.001052 -0.395308 -0.918548
  outer loop
    vertex 0.000000 -0.312722 -1.048090
    vertex 5.333333 -0.374085 -1.027789
    vertex 0.000000 -0.546159 -0.947629
  endloop
endfacet
facet normal 0.001049 -0.448799 -0.893632
  outer loop
    vertex 0.000000 -0.546159 -0.947629
    vertex 5.333333 -0.374085 -1.027789
    vertex 5.333333 -0.601025 -0.913815
  endloop
endfacet
facet normal -0.001050 -0.596619 -0.802524
  outer loop
    vertex 0.000000 -0.546159 -0.947629
    vertex 5.333333 -0.601025 -0.913815
    vertex 0.000000 -0.750109 -0.796006
  endloop
endfacet
facet normal 0.001047 -0.642787 -0.766044
  outer loop
    vertex 0.000000 -0.750109 -0.796006
    vertex 5.333333 -0.601025 -0.913815
    vertex 5.333333 -0.795565 -0.750577
  endloop
endfacet
facet normal -0.001048 -0.765720 -0.643174
  outer loop
    vertex 0.000000 -0.750109 -0.796006
    vertex 5.333333 -0.795565 -0.750577
    vertex 0.000000 -0.913562 -0.601409
  endloop
endfacet
facet normal 0.001045 -0.802123 -0.597158
  outer loop
    vertex 0.000000 -0.913562 -0.601409
    vertex 5.333333 -0.795565 -0.750577
    vertex 5.333333 -0.947215 -0.546875
  endloop
endfacet
facet normal -0.001046 -0.893481 -0.449099
  outer loop
    vertex 0.000000 -0.913562 -0.601409
    vertex 5.333333 -0.947215 -0.546875
    vertex 0.000000 -1.027694 -0.374344
  endloop
endfacet
facet normal 0.001043 -0.918216 -0.396080
  outer loop
    vertex 0.000000 -1.027694 -0.374344
    vertex 5.333333 -0.947215 -0.546875
    vertex 5.333333 -1.047801 -0.313691
  endloop
endfacet
facet normal -0.001044 -0.973006 -0.230779
  outer loop
    vertex 0.000000 -1.027694 -0.374344
    vertex 5.333333 -1.047801 -0.313691
    vertex 0.000000 -1.086344 -0.127068
  endloop
endfacet
facet normal 0.001041 -0.984807 -0.173648
  outer loop
    vertex 0.000000 -1.086344 -0.127068
    vertex 5.333333 -1.047801 -0.313691
    vertex 5.333333 -1.091900 -0.063596
  endloop
endfacet
facet normal -0.001042 -0.999999 0.000000
  outer loop
    vertex 0.000000 -1.086344 -0.127068
    vertex 5.333333 -1.091900 -0.063596
    vertex 0.000000 -1.086344 0.127068
  endloop
endfacet
facet normal 0.001039 -0.998308 0.058144
  outer loop
    vertex 0.000000 -1.086344 0.127068
    vertex 5.333333 -1.091900 -0.063596
    vertex 5.333333 -1.077134 0.189928
  endloop
endfacet
facet normal -0.001040 -0.973006 0.230779
  outer loop
    vertex 0.000000 -1.086344 0.127068
    vertex 5.333333 -1.077134 0.189928
    vertex 0.000000 -1.027694 0.374344
  endloop
endfacet
facet normal 0.001037 -0.957989 0.286803
  outer loop
    vertex 0.000000 -1.027694 0.374344
    vertex 5.333333 -1.077134 0.189928
    vertex 5.333333 -1.004299 0.433212
  endloop
endfacet
facet normal -0.001038 -0.893481 0.449099
  outer loop
    vertex 0.000000 -1.027694 0.374344
    vertex 5.333333 -1.004299 0.433212
    vertex 0.000000 -0.913562 0.601409
  endloop
endfacet
facet normal 0.001035 -0.866025 0.500000
  outer loop
    vertex 0.000000 -0.913562 0.601409
    vertex 5.333333 -1.004299 0.433212
    vertex 5.333333 -0.877322 0.653142
  endloop
endfacet
facet normal -0.001036 -0.765720 0.643174
  outer loop
    vertex 0.000000 -0.913562 0.601409
    vertex 5.333333 -0.877322 0.653142
    vertex 0.000000 -0.750109 0.796006
  endloop
endfacet
facet normal 0.001033 -0.727373 0.686241
  outer loop
    vertex 0.000000 -0.750109 0.796006
    vertex 5.333333 -0.877322 0.653142
    vertex 5.333333 -0.703049 0.837861
  endloop
endfacet
facet normal -0.001034 -0.596619 0.802524
  outer loop
    vertex 0.000000 -0.750109 0.796006
    vertex 5.333333 -0.703049 0.837861
    vertex 0.000000 -0.546159 0.947629
  endloop
endfacet
facet normal 0.001031 -0.549509 0.835487
  outer loop
    vertex 0.000000 -0.546159 0.947629
    vertex 5.333333 -0.703049 0.837861
    vertex 5.333333 -0.490874 0.977411
  endloop
endfacet
facet normal -0.001032 -0.395308 0.918548
  outer loop
    vertex 0.000000 -0.546159 0.947629
    vertex 5.333333 -0.490874 0.977411
    vertex 0.000000 -0.312722 1.048090
  endloop
endfacet
facet normal 0.001029 -0.342020 0.939692
  outer loop
    vertex 0.000000 -0.312722 1.048090
    vertex 5.333333 -0.490874 0.977411
    vertex 5.333333 -0.252236 1.064268
  endloop
endfacet
facet normal -0.001030 -0.172655 0.984982
  outer loop
    vertex 0.000000 -0.312722 1.048090
    vertex 5.333333 -0.252236 1.064268
    vertex 0.000000 -0.062403 1.091968
  endloop
endfacet
facet normal 0.001027 -0.116093 0.993238
  outer loop
    vertex 0.000000 -0.062403 1.091968
    vertex 5.333333 -0.252236 1.064268
    vertex 5.333333 0.000000 1.093750
  endloop
endfacet
facet normal -0.001028 0.059319 0.998239
  outer loop
    vertex 0.000000 -0.062403 1.091968
    vertex 5.333333 0.000000 1.093750
    vertex 0.000000 0.191285 1.076893
  endloop
endfacet
facet normal 0.001024 0.116093 0.993238
  outer loop
    vertex 0.000000 0.191285 1.076893
    vertex 5.333333 0.000000 1.093750
    vertex 5.333333 0.252236 1.064268
  endloop
endfacet
facet normal -0.001026 0.288091 0.957603
  outer loop
    vertex 0.000000 0.191285 1.076893
    vertex 5.333333 0.252236 1.064268
    vertex 0.000000 0.434646 1.003679
  endloop
endfacet
facet normal 0.001022 0.342020 0.939692
  outer loop
    vertex 0.000000 0.434646 1.003679
    vertex 5.333333 0.252236 1.064268
    vertex 5.333333 0.490874 0.977411
  endloop
endfacet
facet normal -0.001023 0.501309 0.865268
  outer loop
    vertex 0.000000 0.434646 1.003679
    vertex 5.333333 0.490874 0.977411
    vertex 0.000000 0.654542 0.876278
  endloop
endfacet
facet normal 0.001020 0.549509 0.835487
  outer loop
    vertex 0.000000 0.654542 0.876278
    vertex 5.333333 0.490874 0.977411
    vertex 5.333333 0.703049 0.837861
  endloop
endfacet
facet normal -0.001021 0.687463 0.726219
  outer loop
    vertex 0.000000 0.654542 0.876278
    vertex 5.333333 0.703049 0.837861
    vertex 0.000000 0.839100 0.701569
  endloop
endfacet
facet normal 0.001018 0.727373 0.686241
  outer loop
    vertex 0.000000 0.839100 0.701569
    vertex 5.333333 0.703049 0.837861
    vertex 5.333333 0.877322 0.653142
  endloop
endfacet
facet normal -0.001019 0.836502 0.547963
  outer loop
    vertex 0.000000 0.839100 0.701569
    vertex 5.333333 0.877322 0.653142
    vertex 0.000000 0.978357 0.488984
  endloop
endfacet
facet normal 0.001016 0.866025 0.500000
  outer loop
    vertex 0.000000 0.978357 0.488984
    vertex 5.333333 0.877322 0.653142
    vertex 5.333333 1.004299 0.433212
  endloop
endfacet
facet normal -0.001056 0.059319 -0.998239
  outer loop
    vertex 0.000000 -0.062403 -1.091968
    vertex 0.000000 0.191285 -1.076893
    vertex 5.333333 0.126977 -1.086354
  endloop
endfacet
facet normal 0.001055 0.230616 -0.973044
  outer loop
    vertex 5.333333 0.126977 -1.086354
    vertex 0.000000 0.191285 -1.076893
    vertex 5.333333 0.374085 -1.027789
  endloop
endfacet
facet normal 0.000000 0.230616 -0.973045
  outer loop
    vertex 5.333333 0.126977 -1.086354
    vertex 5.333333 0.374085 -1.027789
    vertex 10.666667 0.374085 -1.027789
  endloop
endfacet
facet normal 0.000000 0.448799 -0.893633
  outer loop
    vertex 10.666667 0.374085 -1.027789
    vertex 5.333333 0.374085 -1.027789
    vertex 10.666667 0.601025 -0.913815
  endloop
endfacet
facet normal 0.000000 0.448799 -0.893633
  outer loop
    vertex 10.666667 0.374085 -1.027789
    vertex 10.666667 0.601025 -0.913815
    vertex 16.000000 0.601025 -0.913815
  endloop
endfacet
facet normal 0.000000 0.642788 -0.766044
  outer loop
    vertex 16.000000 0.601025 -0.913815
    vertex 10.666667 0.601025 -0.913815
    vertex 16.000000 0.795565 -0.750577
  endloop
endfacet
facet normal 0.000000 0.642788 -0.766044
  outer loop
    vertex 16.000000 0.601025 -0.913815
    vertex 16.000000 0.795565 -0.750577
    vertex 21.333334 0.795565 -0.750577
  endloop
endfacet
facet normal 0.000000 0.802123 -0.597158
  outer loop
    vertex 21.333334 0.795565 -0.750577
    vertex 16.000000 0.795565 -0.750577
    vertex 21.333334 0.947215 -0.546875
  endloop
endfacet
facet normal 0.000000 0.802123 -0.597158
  outer loop
    vertex 21.333334 0.795565 -0.750577
    vertex 21.333334 0.947215 -0.546875
    vertex 26.666666 0.947215 -0.546875
  endloop
endfacet
facet normal 0.000000 0.918216 -0.396080
  outer loop
    vertex 26.666666 0.947215 -0.546875
    vertex 21.333334 0.947215 -0.546875
    vertex 26.666666 1.047801 -0.313691
  endloop
endfacet
facet normal 0.000000 0.918216 -0.396080
  outer loop
    vertex 26.666666 0.947215 -0.546875
    vertex 26.666666 1.047801 -0.313691
    vertex 32.000000 1.047801 -0.313691
  endloop
endfacet
facet normal 0.000000 0.966197 -0.257804
  outer loop
    vertex 32.000000 1.047801 -0.313691
    vertex 26.666666 1.047801 -0.313691
    vertex 48.000000 1.064795 -0.250000
  endloop
endfacet
facet normal -0.001058 0.288091 -0.957603
  outer loop
    vertex 0.000000 0.191285 -1.076893
    vertex 0.000000 0.434646 -1.003679
    vertex 5.333333 0.374085 -1.027789
  endloop
endfacet
facet normal 0.001057 0.448799 -0.893632
  outer loop
    vertex 5.333333 0.374085 -1.027789
    vertex 0.000000 0.434646 -1.003679
    vertex 5.333333 0.601025 -0.913815
  endloop
endfacet
facet normal 0.000000 0.448799 -0.893633
  outer loop
    vertex 5.333333 0.374085 -1.027789
    vertex 5.333333 0.601025 -0.913815
    vertex 10.666667 0.601025 -0.913815
  endloop
endfacet
facet normal 0.000000 0.642788 -0.766045
  outer loop
    vertex 10.666667 0.601025 -0.913815
    vertex 5.333333 0.601025 -0.913815
    vertex 10.666667 0.795565 -0.750577
  endloop
endfacet
facet normal 0.000000 0.642788 -0.766044
  outer loop
    vertex 10.666667 0.601025 -0.913815
    vertex 10.666667 0.795565 -0.750577
    vertex 16.000000 0.795565 -0.750577
  endloop
endfacet
facet normal 0.000000 0.802123 -0.597158
  outer loop
    vertex 16.000000 0.795565 -0.750577
    vertex 10.666667 0.795565 -0.750577
    vertex 16.000000 0.947215 -0.546875
  endloop
endfacet
facet normal 0.000000 0.802123 -0.597158
  outer loop
    vertex 16.000000 0.795565 -0.750577
    vertex 16.000000 0.947215 -0.546875
    vertex 21.333334 0.947215 -0.546875
  endloop
endfacet
facet normal 0.000000 0.918216 -0.396080
  outer loop
    vertex 21.333334 0.947215 -0.546875
    vertex 16.000000 0.947215 -0.546875
    vertex 21.333334 1.047801 -0.313691
  endloop
endfacet
facet normal 0.000000 0.918216 -0.396080
  outer loop
    vertex 21.333334 0.947215 -0.546875
    vertex 21.333334 1.047801 -0.313691
    vertex 26.666666 1.047801 -0.313691
  endloop
endfacet
facet normal 0.000000 0.966197 -0.257804
  outer loop
    vertex 26.666666 1.047801 -0.313691
    vertex 21.333334 1.047801 -0.313691
    vertex 48.000000 1.064795 -0.250000
  endloop
endfacet
facet normal -0.001060 0.501309 -0.865268
  outer loop
    vertex 0.000000 0.434646 -1.003679
    vertex 0.000000 0.654542 -0.876278
    vertex 5.333333 0.601025 -0.913815
  endloop
endfacet
facet normal 0.001058 0.642787 -0.766044
  outer loop
    vertex 5.333333 0.601025 -0.913815
    vertex 0.000000 0.654542 -0.876278
    vertex 5.333333 0.795565 -0.750577
  endloop
endfacet
facet normal 0.000000 0.642788 -0.766045
  outer loop
    vertex 5.333333 0.601025 -0.913815
    vertex 5.333333 0.795565 -0.750577
    vertex 10.666667 0.795565 -0.750577
  endloop
endfacet
facet normal 0.000000 0.802123 -0.597158
  outer loop
    vertex 10.666667 0.795565 -0.750577
    vertex 5.333333 0.795565 -0.750577
    vertex 10.666667 0.947215 -0.546875
  endloop
endfacet
facet normal 0.000000 0.802123 -0.597158
  outer loop
    vertex 10.666667 0.795565 -0.750577
    vertex 10.666667 0.947215 -0.546875
    vertex 16.000000 0.947215 -0.546875
  endloop
endfacet
facet normal 0.000000 0.918216 -0.396080
  outer loop
    vertex 16.000000 0.947215 -0.546875
    vertex 10.666667 0.947215 -0.546875
    vertex 16.000000 1.047801 -0.313691
  endloop
endfacet
facet normal 0.000000 0.918216 -0.396080
  outer loop
    vertex 16.000000 0.947215 -0.546875
    vertex 16.000000 1.047801 -0.313691
    vertex 21.333334 1.047801 -0.313691
  endloop
endfacet
facet normal 0.000000 0.966197 -0.257804
  outer loop
    vertex 21.333334 1.047801 -0.313691
    vertex 16.000000 1.047801 -0.313691
    vertex 0.000000 1.064795 -0.250000
  endloop
endfacet
facet normal 0.000000 0.966197 -0.257804
  outer loop
    vertex 21.333334 1.047801 -0.313691
    vertex 0.000000 1.064795 -0.250000
    vertex 48.000000 1.064795 -0.250000
  endloop
endfacet
facet normal -0.001061 0.687463 -0.726219
  outer loop
    vertex 0.000000 0.654542 -0.876278
    vertex 0.000000 0.839100 -0.701569
    vertex 5.333333 0.795565 -0.750577
  endloop
endfacet
facet normal 0.001060 0.802123 -0.597158
  outer loop
    vertex 5.333333 0.795565 -0.750577
    vertex 0.000000 0.839100 -0.701569
    vertex 5.333333 0.947215 -0.546875
  endloop
endfacet
facet normal 0.000000 0.802123 -0.597158
  outer loop
    vertex 5.333333 0.795565 -0.750577
    vertex 5.333333 0.947215 -0.546875
    vertex 10.666667 0.947215 -0.546875
  endloop
endfacet
facet normal 0.000000 0.918216 -0.396080
  outer loop
    vertex 10.666667 0.947215 -0.546875
    vertex 5.333333 0.947215 -0.546875
    vertex 10.666667 1.047801 -0.313691
  endloop
endfacet
facet normal 0.000000 0.918216 -0.396080
  outer loop
    vertex 10.666667 0.947215 -0.546875
    vertex 10.666667 1.047801 -0.313691
    vertex 16.000000 1.047801 -0.313691
  endloop
endfacet
facet normal 0.000000 0.966197 -0.257804
  outer loop
    vertex 16.000000 1.047801 -0.313691
    vertex 10.666667 1.047801 -0.313691
    vertex 0.000000 1.064795 -0.250000
  endloop
endfacet
facet normal -0.001063 0.836502 -0.547963
  outer loop
    vertex 0.000000 0.839100 -0.701569
    vertex 0.000000 0.978357 -0.488984
    vertex 5.333333 0.947215 -0.546875
  endloop
endfacet
facet normal 0.001062 0.918216 -0.396080
  outer loop
    vertex 5.333333 0.947215 -0.546875
    vertex 0.000000 0.978357 -0.488984
    vertex 5.333333 1.047801 -0.313691
  endloop
endfacet
facet normal 0.000000 0.918216 -0.396080
  outer loop
    vertex 5.333333 0.947215 -0.546875
    vertex 5.333333 1.047801 -0.313691
    vertex 10.666667 1.047801 -0.313691
  endloop
endfacet
facet normal 0.000000 0.966197 -0.257804
  outer loop
    vertex 10.666667 1.047801 -0.313691
    vertex 5.333333 1.047801 -0.313691
    vertex 0.000000 1.064795 -0.250000
  endloop
endfacet
facet normal -0.001065 0.940380 -0.340124
  outer loop
    vertex 0.000000 0.978357 -0.488984
    vertex 0.000000 1.064795 -0.250000
    vertex 5.333333 1.047801 -0.313691
  endloop
endfacet
facet normal 0.001028 0.059319 0.998239
  outer loop
    vertex 48.000000 -0.062403 1.091968
    vertex 48.000000 0.191285 1.076893
    vertex 42.666668 -0.000000 1.093750
  endloop
endfacet
facet normal -0.001024 0.116093 0.993238
  outer loop
    vertex 42.666668 -0.000000 1.093750
    vertex 48.000000 0.191285 1.076893
    vertex 42.666668 0.252236 1.064268
  endloop
endfacet
facet normal 0.000000 0.116093 0.993238
  outer loop
    vertex 42.666668 -0.000000 1.093750
    vertex 42.666668 0.252236 1.064268
    vertex 37.333332 0.252236 1.064268
  endloop
endfacet
facet normal -0.000000 0.342020 0.939693
  outer loop
    vertex 37.333332 0.252236 1.064268
    vertex 42.666668 0.252236 1.064268
    vertex 37.333332 0.490874 0.977411
  endloop
endfacet
facet normal 0.000000 0.342020 0.939692
  outer loop
    vertex 37.333332 0.252236 1.064268
    vertex 37.333332 0.490874 0.977411
    vertex 32.000000 0.490874 0.977411
  endloop
endfacet
facet normal -0.000000 0.549509 0.835488
  outer loop
    vertex 32.000000 0.490874 0.977411
    vertex 37.333332 0.490874 0.977411
    vertex 32.000000 0.703049 0.837861
  endloop
endfacet
facet normal 0.000000 0.549509 0.835488
  outer loop
    vertex 32.000000 0.490874 0.977411
    vertex 32.000000 0.703049 0.837861
    vertex 26.666666 0.703049 0.837861
  endloop
endfacet
facet normal -0.000000 0.727374 0.686242
  outer loop
    vertex 26.666666 0.703049 0.837861
    vertex 32.000000 0.703049 0.837861
    vertex 26.666666 0.877322 0.653142
  endloop
endfacet
facet normal 0.000000 0.727374 0.686242
  outer loop
    vertex 26.666666 0.703049 0.837861
    vertex 26.666666 0.877322 0.653142
    vertex 21.333334 0.877322 0.653142
  endloop
endfacet
facet normal -0.000000 0.866025 0.500000
  outer loop
    vertex 21.333334 0.877322 0.653142
    vertex 26.666666 0.877322 0.653142
    vertex 21.333334 1.004299 0.433212
  endloop
endfacet
facet normal 0.000000 0.866025 0.500000
  outer loop
    vertex 21.333334 0.877322 0.653142
    vertex 21.333334 1.004299 0.433212
    vertex 16.000000 1.004299 0.433212
  endloop
endfacet
facet normal -0.000000 0.949573 0.313547
  outer loop
    vertex 16.000000 1.004299 0.433212
    vertex 21.333334 1.004299 0.433212
    vertex 0.000000 1.064795 0.250000
  endloop
endfacet
facet normal 0.001026 0.288091 0.957603
  outer loop
    vertex 48.000000 0.191285 1.076893
    vertex 48.000000 0.434646 1.003679
    vertex 42.666668 0.252236 1.064268
  endloop
endfacet
facet normal -0.001022 0.342020 0.939692
  outer loop
    vertex 42.666668 0.252236 1.064268
    vertex 48.000000 0.434646 1.003679
    vertex 42.666668 0.490874 0.977411
  endloop
endfacet
facet normal 0.000000 0.342020 0.939693
  outer loop
    vertex 42.666668 0.252236 1.064268
    vertex 42.666668 0.490874 0.977411
    vertex 37.333332 0.490874 0.977411
  endloop
endfacet
facet normal -0.000000 0.549509 0.835488
  outer loop
    vertex 37.333332 0.490874 0.977411
    vertex 42.666668 0.490874 0.977411
    vertex 37.333332 0.703049 0.837861
  endloop
endfacet
facet normal 0.000000 0.549509 0.835488
  outer loop
    vertex 37.333332 0.490874 0.977411
    vertex 37.333332 0.703049 0.837861
    vertex 32.000000 0.703049 0.837861
  endloop
endfacet
facet normal -0.000000 0.727374 0.686242
  outer loop
    vertex 32.000000 0.703049 0.837861
    vertex 37.333332 0.703049 0.837861
    vertex 32.000000 0.877322 0.653142
  endloop
endfacet
facet normal 0.000000 0.727374 0.686242
  outer loop
    vertex 32.000000 0.703049 0.837861
    vertex 32.000000 0.877322 0.653142
    vertex 26.666666 0.877322 0.653142
  endloop
endfacet
facet normal -0.000000 0.866025 0.500000
  outer loop
    vertex 26.666666 0.877322 0.653142
    vertex 32.000000 0.877322 0.653142
    vertex 26.666666 1.004299 0.433212
  endloop
endfacet
facet normal 0.000000 0.866025 0.500000
  outer loop
    vertex 26.666666 0.877322 0.653142
    vertex 26.666666 1.004299 0.433212
    vertex 21.333334 1.004299 0.433212
  endloop
endfacet
facet normal -0.000000 0.949573 0.313547
  outer loop
    vertex 21.333334 1.004299 0.433212
    vertex 26.666666 1.004299 0.433212
    vertex 0.000000 1.064795 0.250000
  endloop
endfacet
facet normal 0.001023 0.501309 0.865268
  outer loop
    vertex 48.000000 0.434646 1.003679
    vertex 48.000000 0.654542 0.876278
    vertex 42.666668 0.490874 0.977411
  endloop
endfacet
facet normal -0.001020 0.549509 0.835487
  outer loop
    vertex 42.666668 0.490874 0.977411
    vertex 48.000000 0.654542 0.876278
    vertex 42.666668 0.703049 0.837861
  endloop
endfacet
facet normal 0.000000 0.549509 0.835488
  outer loop
    vertex 42.666668 0.490874 0.977411
    vertex 42.666668 0.703049 0.837861
    vertex 37.333332 0.703049 0.837861
  endloop
endfacet
facet normal -0.000000 0.727374 0.686242
  outer loop
    vertex 37.333332 0.703049 0.837861
    vertex 42.666668 0.703049 0.837861
    vertex 37.333332 0.877322 0.653142
  endloop
endfacet
facet normal 0.000000 0.727374 0.686242
  outer loop
    vertex 37.333332 0.703049 0.837861
    vertex 37.333332 0.877322 0.653142
    vertex 32.000000 0.877322 0.653142
  endloop
endfacet
facet normal -0.000000 0.866025 0.500000
  outer loop
    vertex 32.000000 0.877322 0.653142
    vertex 37.333332 0.877322 0.653142
    vertex 32.000000 1.004299 0.433212
  endloop
endfacet
facet normal 0.000000 0.866025 0.500000
  outer loop
    vertex 32.000000 0.877322 0.653142
    vertex 32.000000 1.004299 0.433212
    vertex 26.666666 1.004299 0.433212
  endloop
endfacet
facet normal -0.000000 0.949573 0.313547
  outer loop
    vertex 26.666666 1.004299 0.433212
    vertex 32.000000 1.004299 0.433212
    vertex 48.000000 1.064795 0.250000
  endloop
endfacet
facet normal 0.000000 0.949573 0.313547
  outer loop
    vertex 26.666666 1.004299 0.433212
    vertex 48.000000 1.064795 0.250000
    vertex 0.000000 1.064795 0.250000
  endloop
endfacet
facet normal 0.001021 0.687463 0.726219
  outer loop
    vertex 48.000000 0.654542 0.876278
    vertex 48.000000 0.839100 0.701569
    vertex 42.666668 0.703049 0.837861
  endloop
endfacet
facet normal -0.001018 0.727373 0.686241
  outer loop
    vertex 42.666668 0.703049 0.837861
    vertex 48.000000 0.839100 0.701569
    vertex 42.666668 0.877322 0.653142
  endloop
endfacet
facet normal 0.000000 0.727374 0.686242
  outer loop
    vertex 42.666668 0.703049 0.837861
    vertex 42.666668 0.877322 0.653142
    vertex 37.333332 0.877322 0.653142
  endloop
endfacet
facet normal -0.000000 0.866025 0.500000
  outer loop
    vertex 37.333332 0.877322 0.653142
    vertex 42.666668 0.877322 0.653142
    vertex 37.333332 1.004299 0.433212
  endloop
endfacet
facet normal 0.000000 0.866025 0.500000
  outer loop
    vertex 37.333332 0.877322 0.653142
    vertex 37.333332 1.004299 0.433212
    vertex 32.000000 1.004299 0.433212
  endloop
endfacet
facet normal -0.000000 0.949573 0.313547
  outer loop
    vertex 32.000000 1.004299 0.433212
    vertex 37.333332 1.004299 0.433212
    vertex 48.000000 1.064795 0.250000
  endloop
endfacet
facet normal 0.001019 0.836502 0.547963
  outer loop
    vertex 48.000000 0.839100 0.701569
    vertex 48.000000 0.978357 0.488984
    vertex 42.666668 0.877322 0.653142
  endloop
endfacet
facet normal -0.001016 0.866025 0.500000
  outer loop
    vertex 42.666668 0.877322 0.653142
    vertex 48.000000 0.978357 0.488984
    vertex 42.666668 1.004299 0.433212
  endloop
endfacet
facet normal 0.000000 0.866025 0.500000
  outer loop
    vertex 42.666668 0.877322 0.653142
    vertex 42.666668 1.004299 0.433212
    vertex 37.333332 1.004299 0.433212
  endloop
endfacet
facet normal -0.000000 0.949573 0.313547
  outer loop
    vertex 37.333332 1.004299 0.433212
    vertex 42.666668 1.004299 0.433212
    vertex 48.000000 1.064795 0.250000
  endloop
endfacet
facet normal 0.001017 0.940380 0.340124
  outer loop
    vertex 48.000000 0.978357 0.488984
    vertex 48.000000 1.064795 0.250000
    vertex 42.666668 1.004299 0.433212
  endloop
endfacet
facet normal -0.000000 0.116093 0.993238
  outer loop
    vertex 5.333333 0.000000 1.093750
    vertex 10.666667 0.000000 1.093750
    vertex 5.333333 0.252236 1.064268
  endloop
endfacet
facet normal -0.000000 0.116093 0.993238
  outer loop
    vertex 5.333333 0.252236 1.064268
    vertex 10.666667 0.000000 1.093750
    vertex 10.666667 0.252236 1.064268
  endloop
endfacet
facet normal -0.000000 0.342020 0.939693
  outer loop
    vertex 5.333333 0.252236 1.064268
    vertex 10.666667 0.252236 1.064268
    vertex 5.333333 0.490874 0.977411
  endloop
endfacet
facet normal -0.000000 0.342020 0.939693
  outer loop
    vertex 5.333333 0.490874 0.977411
    vertex 10.666667 0.252236 1.064268
    vertex 10.666667 0.490874 0.977411
  endloop
endfacet
facet normal -0.000000 0.549509 0.835488
  outer loop
    vertex 5.333333 0.490874 0.977411
    vertex 10.666667 0.490874 0.977411
    vertex 5.333333 0.703049 0.837861
  endloop
endfacet
facet normal -0.000000 0.549509 0.835488
  outer loop
    vertex 5.333333 0.703049 0.837861
    vertex 10.666667 0.490874 0.977411
    vertex 10.666667 0.703049 0.837861
  endloop
endfacet
facet normal -0.000000 0.727374 0.686242
  outer loop
    vertex 5.333333 0.703049 0.837861
    vertex 10.666667 0.703049 0.837861
    vertex 5.333333 0.877322 0.653142
  endloop
endfacet
facet normal -0.000000 0.727374 0.686242
  outer loop
    vertex 5.333333 0.877322 0.653142
    vertex 10.666667 0.703049 0.837861
    vertex 10.666667 0.877322 0.653142
  endloop
endfacet
facet normal -0.000000 0.866025 0.500000
  outer loop
    vertex 5.333333 0.877322 0.653142
    vertex 10.666667 0.877322 0.653142
    vertex 5.333333 1.004299 0.433212
  endloop
endfacet
facet normal -0.000000 0.866025 0.500000
  outer loop
    vertex 5.333333 1.004299 0.433212
    vertex 10.666667 0.877322 0.653142
    vertex 10.666667 1.004299 0.433212
  endloop
endfacet
facet normal -0.000000 0.116093 0.993238
  outer loop
    vertex 10.666667 0.000000 1.093750
    vertex 16.000000 0.000000 1.093750
    vertex 10.666667 0.252236 1.064268
  endloop
endfacet
facet normal -0.000000 0.116093 0.993238
  outer loop
    vertex 10.666667 0.252236 1.064268
    vertex 16.000000 0.000000 1.093750
    vertex 16.000000 0.252236 1.064268
  endloop
endfacet
facet normal -0.000000 0.342020 0.939693
  outer loop
    vertex 10.666667 0.252236 1.064268
    vertex 16.000000 0.252236 1.064268
    vertex 10.666667 0.490874 0.977411
  endloop
endfacet
facet normal -0.000000 0.342020 0.939693
  outer loop
    vertex 10.666667 0.490874 0.977411
    vertex 16.000000 0.252236 1.064268
    vertex 16.000000 0.490874 0.977411
  endloop
endfacet
facet normal -0.000000 0.549509 0.835488
  outer loop
    vertex 10.666667 0.490874 0.977411
    vertex 16.000000 0.490874 0.977411
    vertex 10.666667 0.703049 0.837861
  endloop
endfacet
facet normal -0.000000 0.549509 0.835488
  outer loop
    vertex 10.666667 0.703049 0.837861
    vertex 16.000000 0.490874 0.977411
    vertex 16.000000 0.703049 0.837861
  endloop
endfacet
facet normal -0.000000 0.727374 0.686242
  outer loop
    vertex 10.666667 0.703049 0.837861
    vertex 16.000000 0.703049 0.837861
    vertex 10.666667 0.877322 0.653142
  endloop
endfacet
facet normal -0.000000 0.727374 0.686242
  outer loop
    vertex 10.666667 0.877322 0.653142
    vertex 16.000000 0.703049 0.837861
    vertex 16.000000 0.877322 0.653142
  endloop
endfacet
facet normal -0.000000 0.866025 0.500000
  outer loop
    vertex 10.666667 0.877322 0.653142
    vertex 16.000000 0.877322 0.653142
    vertex 10.666667 1.004299 0.433212
  endloop
endfacet
facet normal 0.000000 -0.116093 0.993238
  outer loop
    vertex 10.666667 0.000000 1.093750
    vertex 5.333333 0.000000 1.093750
    vertex 10.666667 -0.252236 1.064268
  endloop
endfacet
facet normal 0.000000 -0.116093 0.993238
  outer loop
    vertex 10.666667 -0.252236 1.064268
    vertex 5.333333 0.000000 1.093750
    vertex 5.333333 -0.252236 1.064268
  endloop
endfacet
facet normal 0.000000 -0.342020 0.939693
  outer loop
    vertex 10.666667 -0.252236 1.064268
    vertex 5.333333 -0.252236 1.064268
    vertex 10.666667 -0.490874 0.977411
  endloop
endfacet
facet normal 0.000000 -0.342020 0.939693
  outer loop
    vertex 10.666667 -0.490874 0.977411
    vertex 5.333333 -0.252236 1.064268
    vertex 5.333333 -0.490874 0.977411
  endloop
endfacet
facet normal 0.000000 -0.549509 0.835488
  outer loop
    vertex 10.666667 -0.490874 0.977411
    vertex 5.333333 -0.490874 0.977411
    vertex 10.666667 -0.703049 0.837861
  endloop
endfacet
facet normal 0.000000 -0.549509 0.835488
  outer loop
    vertex 10.666667 -0.703049 0.837861
    vertex 5.333333 -0.490874 0.977411
    vertex 5.333333 -0.703049 0.837861
  endloop
endfacet
facet normal 0.000000 -0.727374 0.686242
  outer loop
    vertex 10.666667 -0.703049 0.837861
    vertex 5.333333 -0.703049 0.837861
    vertex 10.666667 -0.877322 0.653142
  endloop
endfacet
facet normal 0.000000 -0.727374 0.686242
  outer loop
    vertex 10.666667 -0.877322 0.653142
    vertex 5.333333 -0.703049 0.837861
    vertex 5.333333 -0.877322 0.653142
  endloop
endfacet
facet normal 0.000000 -0.866025 0.500000
  outer loop
    vertex 10.666667 -0.877322 0.653142
    vertex 5.333333 -0.877322 0.653142
    vertex 10.666667 -1.004299 0.433212
  endloop
endfacet
facet normal 0.000000 -0.866025 0.500000
  outer loop
    vertex 10.666667 -1.004299 0.433212
    vertex 5.333333 -0.877322 0.653142
    vertex 5.333333 -1.004299 0.433212
  endloop
endfacet
facet normal 0.000000 -0.957990 0.286803
  outer loop
    vertex 10.666667 -1.004299 0.433212
    vertex 5.333333 -1.004299 0.433212
    vertex 10.666667 -1.077134 0.189928
  endloop
endfacet
facet normal 0.000000 -0.957990 0.286803
  outer loop
    vertex 10.666667 -1.077134 0.189928
    vertex 5.333333 -1.004299 0.433212
    vertex 5.333333 -1.077134 0.189928
  endloop
endfacet
facet normal 0.000000 -0.998308 0.058144
  outer loop
    vertex 10.666667 -1.077134 0.189928
    vertex 5.333333 -1.077134 0.189928
    vertex 10.666667 -1.091900 -0.063596
  endloop
endfacet
facet normal 0.000000 -0.998308 0.058144
  outer loop
    vertex 10.666667 -1.091900 -0.063596
    vertex 5.333333 -1.077134 0.189928
    vertex 5.333333 -1.091900 -0.063596
  endloop
endfacet
facet normal -0.000000 -0.984808 -0.173648
  outer loop
    vertex 10.666667 -1.091900 -0.063596
    vertex 5.333333 -1.091900 -0.063596
    vertex 10.666667 -1.047801 -0.313691
  endloop
endfacet
facet normal -0.000000 -0.984808 -0.173648
  outer loop
    vertex 10.666667 -1.047801 -0.313691
    vertex 5.333333 -1.091900 -0.063596
    vertex 5.333333 -1.047801 -0.313691
  endloop
endfacet
facet normal -0.000000 -0.918216 -0.396080
  outer loop
    vertex 10.666667 -1.047801 -0.313691
    vertex 5.333333 -1.047801 -0.313691
    vertex 10.666667 -0.947215 -0.546875
  endloop
endfacet
facet normal -0.000000 -0.918216 -0.396080
  outer loop
    vertex 10.666667 -0.947215 -0.546875
    vertex 5.333333 -1.047801 -0.313691
    vertex 5.333333 -0.947215 -0.546875
  endloop
endfacet
facet normal -0.000000 -0.802123 -0.597158
  outer loop
    vertex 10.666667 -0.947215 -0.546875
    vertex 5.333333 -0.947215 -0.546875
    vertex 10.666667 -0.795565 -0.750577
  endloop
endfacet
facet normal -0.000000 -0.802123 -0.597158
  outer loop
    vertex 10.666667 -0.795565 -0.750577
    vertex 5.333333 -0.947215 -0.546875
    vertex 5.333333 -0.795565 -0.750577
  endloop
endfacet
facet normal -0.000000 -0.642788 -0.766045
  outer loop
    vertex 10.666667 -0.795565 -0.750577
    vertex 5.333333 -0.795565 -0.750577
    vertex 10.666667 -0.601025 -0.913815
  endloop
endfacet
facet normal -0.000000 -0.642788 -0.766045
  outer loop
    vertex 10.666667 -0.601025 -0.913815
    vertex 5.333333 -0.795565 -0.750577
    vertex 5.333333 -0.601025 -0.913815
  endloop
endfacet
facet normal -0.000000 -0.448799 -0.893633
  outer loop
    vertex 10.666667 -0.601025 -0.913815
    vertex 5.333333 -0.601025 -0.913815
    vertex 10.666667 -0.374085 -1.027789
  endloop
endfacet
facet normal -0.000000 -0.448799 -0.893633
  outer loop
    vertex 10.666667 -0.374085 -1.027789
    vertex 5.333333 -0.601025 -0.913815
    vertex 5.333333 -0.374085 -1.027789
  endloop
endfacet
facet normal -0.000000 -0.230616 -0.973045
  outer loop
    vertex 10.666667 -0.374085 -1.027789
    vertex 5.333333 -0.374085 -1.027789
    vertex 10.666667 -0.126977 -1.086354
  endloop
endfacet
facet normal -0.000000 -0.230616 -0.973045
  outer loop
    vertex 10.666667 -0.126977 -1.086354
    vertex 5.333333 -0.374085 -1.027789
    vertex 5.333333 -0.126977 -1.086354
  endloop
endfacet
facet normal 0.000000 0.000000 -1.000000
  outer loop
    vertex 10.666667 -0.126977 -1.086354
    vertex 5.333333 -0.126977 -1.086354
    vertex 10.666667 0.126977 -1.086354
  endloop
endfacet
facet normal -0.000000 0.116093 0.993238
  outer loop
    vertex 16.000000 0.000000 1.093750
    vertex 21.333334 0.000000 1.093750
    vertex 16.000000 0.252236 1.064268
  endloop
endfacet
facet normal -0.000000 0.116093 0.993238
  outer loop
    vertex 16.000000 0.252236 1.064268
    vertex 21.333334 0.000000 1.093750
    vertex 21.333334 0.252236 1.064268
  endloop
endfacet
facet normal -0.000000 0.342020 0.939693
  outer loop
    vertex 16.000000 0.252236 1.064268
    vertex 21.333334 0.252236 1.064268
    vertex 16.000000 0.490874 0.977411
  endloop
endfacet
facet normal -0.000000 0.342020 0.939693
  outer loop
    vertex 16.000000 0.490874 0.977411
    vertex 21.333334 0.252236 1.064268
    vertex 21.333334 0.490874 0.977411
  endloop
endfacet
facet normal -0.000000 0.549509 0.835488
  outer loop
    vertex 16.000000 0.490874 0.977411
    vertex 21.333334 0.490874 0.977411
    vertex 16.000000 0.703049 0.837861
  endloop
endfacet
facet normal -0.000000 0.549509 0.835488
  outer loop
    vertex 16.000000 0.703049 0.837861
    vertex 21.333334 0.490874 0.977411
    vertex 21.333334 0.703049 0.837861
  endloop
endfacet
facet normal -0.000000 0.727374 0.686242
  outer loop
    vertex 16.000000 0.703049 0.837861
    vertex 21.333334 0.703049 0.837861
    vertex 16.000000 0.877322 0.653142
  endloop
endfacet
facet normal 0.000000 -0.116093 0.993238
  outer loop
    vertex 16.000000 0.000000 1.093750
    vertex 10.666667 0.000000 1.093750
    vertex 16.000000 -0.252236 1.064268
  endloop
endfacet
facet normal 0.000000 -0.116093 0.993238
  outer loop
    vertex 16.000000 -0.252236 1.064268
    vertex 10.666667 0.000000 1.093750
    vertex 10.666667 -0.252236 1.064268
  endloop
endfacet
facet normal 0.000000 -0.342020 0.939693
  outer loop
    vertex 16.000000 -0.252236 1.064268
    vertex 10.666667 -0.252236 1.064268
    vertex 16.000000 -0.490874 0.977411
  endloop
endfacet
facet normal 0.000000 -0.342020 0.939693
  outer loop
    vertex 16.000000 -0.490874 0.977411
    vertex 10.666667 -0.252236 1.064268
    vertex 10.666667 -0.490874 0.977411
  endloop
endfacet
facet normal 0.000000 -0.549509 0.835488
  outer loop
    vertex 16.000000 -0.490874 0.977411
    vertex 10.666667 -0.490874 0.977411
    vertex 16.000000 -0.703049 0.837861
  endloop
endfacet
facet normal 0.000000 -0.549509 0.835488
  outer loop
    vertex 16.000000 -0.703049 0.837861
    vertex 10.666667 -0.490874 0.977411
    vertex 10.666667 -0.703049 0.837861
  endloop
endfacet
facet normal 0.000000 -0.727374 0.686242
  outer loop
    vertex 16.000000 -0.703049 0.837861
    vertex 10.666667 -0.703049 0.837861
    vertex 16.000000 -0.877322 0.653142
  endloop
endfacet
facet normal 0.000000 -0.727374 0.686242
  outer loop
    vertex 16.000000 -0.877322 0.653142
    vertex 10.666667 -0.703049 0.837861
    vertex 10.666667 -0.877322 0.653142
  endloop
endfacet
facet normal 0.000000 -0.866025 0.500000
  outer loop
    vertex 16.000000 -0.877322 0.653142
    vertex 10.666667 -0.877322 0.653142
    vertex 16.000000 -1.004299 0.433212
  endloop
endfacet
facet normal 0.000000 -0.866025 0.500000
  outer loop
    vertex 16.000000 -1.004299 0.433212
    vertex 10.666667 -0.877322 0.653142
    vertex 10.666667 -1.004299 0.433212
  endloop
endfacet
facet normal 0.000000 -0.957989 0.286803
  outer loop
    vertex 16.000000 -1.004299 0.433212
    vertex 10.666667 -1.004299 0.433212
    vertex 16.000000 -1.077134 0.189928
  endloop
endfacet
facet normal 0.000000 -0.957989 0.286803
  outer loop
    vertex 16.000000 -1.077134 0.189928
    vertex 10.666667 -1.004299 0.433212
    vertex 10.666667 -1.077134 0.189928
  endloop
endfacet
facet normal 0.000000 -0.998308 0.058144
  outer loop
    vertex 16.000000 -1.077134 0.189928
    vertex 10.666667 -1.077134 0.189928
    vertex 16.000000 -1.091900 -0.063596
  endloop
endfacet
facet normal 0.000000 -0.998308 0.058144
  outer loop
    vertex 16.000000 -1.091900 -0.063596
    vertex 10.666667 -1.077134 0.189928
    vertex 10.666667 -1.091900 -0.063596
  endloop
endfacet
facet normal -0.000000 -0.984808 -0.173648
  outer loop
    vertex 16.000000 -1.091900 -0.063596
    vertex 10.666667 -1.091900 -0.063596
    vertex 16.000000 -1.047801 -0.313691
  endloop
endfacet
facet normal -0.000000 -0.984808 -0.173648
  outer loop
    vertex 16.000000 -1.047801 -0.313691
    vertex 10.666667 -1.091900 -0.063596
    vertex 10.666667 -1.047801 -0.313691
  endloop
endfacet
facet normal -0.000000 -0.918216 -0.396080
  outer loop
    vertex 16.000000 -1.047801 -0.313691
    vertex 10.666667 -1.047801 -0.313691
    vertex 16.000000 -0.947215 -0.546875
  endloop
endfacet
facet normal -0.000000 -0.918216 -0.396080
  outer loop
    vertex 16.000000 -0.947215 -0.546875
    vertex 10.666667 -1.047801 -0.313691
    vertex 10.666667 -0.947215 -0.546875
  endloop
endfacet
facet normal -0.000000 -0.802123 -0.597158
  outer loop
    vertex 16.000000 -0.947215 -0.546875
    vertex 10.666667 -0.947215 -0.546875
    vertex 16.000000 -0.795565 -0.750577
  endloop
endfacet
facet normal -0.000000 -0.802123 -0.597158
  outer loop
    vertex 16.000000 -0.795565 -0.750577
    vertex 10.666667 -0.947215 -0.546875
    vertex 10.666667 -0.795565 -0.750577
  endloop
endfacet
facet normal -0.000000 -0.642788 -0.766044
  outer loop
    vertex 16.000000 -0.795565 -0.750577
    vertex 10.666667 -0.795565 -0.750577
    vertex 16.000000 -0.601025 -0.913815
  endloop
endfacet
facet normal -0.000000 -0.642788 -0.766044
  outer loop
    vertex 16.000000 -0.601025 -0.913815
    vertex 10.666667 -0.795565 -0.750577
    vertex 10.666667 -0.601025 -0.913815
  endloop
endfacet
facet normal -0.000000 -0.448799 -0.893633
  outer loop
    vertex 16.000000 -0.601025 -0.913815
    vertex 10.666667 -0.601025 -0.913815
    vertex 16.000000 -0.374085 -1.027789
  endloop
endfacet
facet normal -0.000000 -0.448799 -0.893633
  outer loop
    vertex 16.000000 -0.374085 -1.027789
    vertex 10.666667 -0.601025 -0.913815
    vertex 10.666667 -0.374085 -1.027789
  endloop
endfacet
facet normal -0.000000 -0.230616 -0.973045
  outer loop
    vertex 16.000000 -0.374085 -1.027789
    vertex 10.666667 -0.374085 -1.027789
    vertex 16.000000 -0.126977 -1.086354
  endloop
endfacet
facet normal -0.000000 -0.230616 -0.973045
  outer loop
    vertex 16.000000 -0.126977 -1.086354
    vertex 10.666667 -0.374085 -1.027789
    vertex 10.666667 -0.126977 -1.086354
  endloop
endfacet
facet normal 0.000000 0.000000 -1.000000
  outer loop
    vertex 16.000000 -0.126977 -1.086354
    vertex 10.666667 -0.126977 -1.086354
    vertex 16.000000 0.126977 -1.086354
  endloop
endfacet
facet normal -0.000000 0.000000 -1.000000
  outer loop
    vertex 16.000000 0.126977 -1.086354
    vertex 10.666667 -0.126977 -1.086354
    vertex 10.666667 0.126977 -1.086354
  endloop
endfacet
facet normal 0.000000 0.230616 -0.973045
  outer loop
    vertex 16.000000 0.126977 -1.086354
    vertex 10.666667 0.126977 -1.086354
    vertex 16.000000 0.374085 -1.027789
  endloop
endfacet
facet normal -0.000000 0.116093 0.993238
  outer loop
    vertex 21.333334 0.000000 1.093750
    vertex 26.666666 0.000000 1.093750
    vertex 21.333334 0.252236 1.064268
  endloop
endfacet
facet normal -0.000000 0.116093 0.993238
  outer loop
    vertex 21.333334 0.252236 1.064268
    vertex 26.666666 0.000000 1.093750
    vertex 26.666666 0.252236 1.064268
  endloop
endfacet
facet normal -0.000000 0.342020 0.939692
  outer loop
    vertex 21.333334 0.252236 1.064268
    vertex 26.666666 0.252236 1.064268
    vertex 21.333334 0.490874 0.977411
  endloop
endfacet
facet normal -0.000000 0.342020 0.939692
  outer loop
    vertex 21.333334 0.490874 0.977411
    vertex 26.666666 0.252236 1.064268
    vertex 26.666666 0.490874 0.977411
  endloop
endfacet
facet normal -0.000000 0.549509 0.835488
  outer loop
    vertex 21.333334 0.490874 0.977411
    vertex 26.666666 0.490874 0.977411
    vertex 21.333334 0.703049 0.837861
  endloop
endfacet
facet normal 0.000000 -0.116093 0.993238
  outer loop
    vertex 21.333334 0.000000 1.093750
    vertex 16.000000 0.000000 1.093750
    vertex 21.333334 -0.252236 1.064268
  endloop
endfacet
facet normal 0.000000 -0.116093 0.993238
  outer loop
    vertex 21.333334 -0.252236 1.064268
    vertex 16.000000 0.000000 1.093750
    vertex 16.000000 -0.252236 1.064268
  endloop
endfacet
facet normal 0.000000 -0.342020 0.939693
  outer loop
    vertex 21.333334 -0.252236 1.064268
    vertex 16.000000 -0.252236 1.064268
    vertex 21.333334 -0.490874 0.977411
  endloop
endfacet
facet normal 0.000000 -0.342020 0.939693
  outer loop
    vertex 21.333334 -0.490874 0.977411
    vertex 16.000000 -0.252236 1.064268
    vertex 16.000000 -0.490874 0.977411
  endloop
endfacet
facet normal 0.000000 -0.549509 0.835488
  outer loop
    vertex 21.333334 -0.490874 0.977411
    vertex 16.000000 -0.490874 0.977411
    vertex 21.333334 -0.703049 0.837861
  endloop
endfacet
facet normal 0.000000 -0.549509 0.835488
  outer loop
    vertex 21.333334 -0.703049 0.837861
    vertex 16.000000 -0.490874 0.977411
    vertex 16.000000 -0.703049 0.837861
  endloop
endfacet
facet normal 0.000000 -0.727374 0.686242
  outer loop
    vertex 21.333334 -0.703049 0.837861
    vertex 16.000000 -0.703049 0.837861
    vertex 21.333334 -0.877322 0.653142
  endloop
endfacet
facet normal 0.000000 -0.727374 0.686242
  outer loop
    vertex 21.333334 -0.877322 0.653142
    vertex 16.000000 -0.703049 0.837861
    vertex 16.000000 -0.877322 0.653142
  endloop
endfacet
facet normal 0.000000 -0.866025 0.500000
  outer loop
    vertex 21.333334 -0.877322 0.653142
    vertex 16.000000 -0.877322 0.653142
    vertex 21.333334 -1.004299 0.433212
  endloop
endfacet
facet normal 0.000000 -0.866025 0.500000
  outer loop
    vertex 21.333334 -1.004299 0.433212
    vertex 16.000000 -0.877322 0.653142
    vertex 16.000000 -1.004299 0.433212
  endloop
endfacet
facet normal 0.000000 -0.957989 0.286803
  outer loop
    vertex 21.333334 -1.004299 0.433212
    vertex 16.000000 -1.004299 0.433212
    vertex 21.333334 -1.077134 0.189928
  endloop
endfacet
facet normal 0.000000 -0.957989 0.286803
  outer loop
    vertex 21.333334 -1.077134 0.189928
    vertex 16.000000 -1.004299 0.433212
    vertex 16.000000 -1.077134 0.189928
  endloop
endfacet
facet normal 0.000000 -0.998308 0.058144
  outer loop
    vertex 21.333334 -1.077134 0.189928
    vertex 16.000000 -1.077134 0.189928
    vertex 21.333334 -1.091900 -0.063596
  endloop
endfacet
facet normal 0.000000 -0.998308 0.058144
  outer loop
    vertex 21.333334 -1.091900 -0.063596
    vertex 16.000000 -1.077134 0.189928
    vertex 16.000000 -1.091900 -0.063596
  endloop
endfacet
facet normal -0.000000 -0.984808 -0.173648
  outer loop
    vertex 21.333334 -1.091900 -0.063596
    vertex 16.000000 -1.091900 -0.063596
    vertex 21.333334 -1.047801 -0.313691
  endloop
endfacet
facet normal -0.000000 -0.984808 -0.173648
  outer loop
    vertex 21.333334 -1.047801 -0.313691
    vertex 16.000000 -1.091900 -0.063596
    vertex 16.000000 -1.047801 -0.313691
  endloop
endfacet
facet normal -0.000000 -0.918216 -0.396080
  outer loop
    vertex 21.333334 -1.047801 -0.313691
    vertex 16.000000 -1.047801 -0.313691
    vertex 21.333334 -0.947215 -0.546875
  endloop
endfacet
facet normal -0.000000 -0.918216 -0.396080
  outer loop
    vertex 21.333334 -0.947215 -0.546875
    vertex 16.000000 -1.047801 -0.313691
    vertex 16.000000 -0.947215 -0.546875
  endloop
endfacet
facet normal -0.000000 -0.802123 -0.597158
  outer loop
    vertex 21.333334 -0.947215 -0.546875
    vertex 16.000000 -0.947215 -0.546875
    vertex 21.333334 -0.795565 -0.750577
  endloop
endfacet
facet normal -0.000000 -0.802123 -0.597158
  outer loop
    vertex 21.333334 -0.795565 -0.750577
    vertex 16.000000 -0.947215 -0.546875
    vertex 16.000000 -0.795565 -0.750577
  endloop
endfacet
facet normal -0.000000 -0.642788 -0.766044
  outer loop
    vertex 21.333334 -0.795565 -0.750577
    vertex 16.000000 -0.795565 -0.750577
    vertex 21.333334 -0.601025 -0.913815
  endloop
endfacet
facet normal -0.000000 -0.642788 -0.766044
  outer loop
    vertex 21.333334 -0.601025 -0.913815
    vertex 16.000000 -0.795565 -0.750577
    vertex 16.000000 -0.601025 -0.913815
  endloop
endfacet
facet normal -0.000000 -0.448799 -0.893633
  outer loop
    vertex 21.333334 -0.601025 -0.913815
    vertex 16.000000 -0.601025 -0.913815
    vertex 21.333334 -0.374085 -1.027789
  endloop
endfacet
facet normal -0.000000 -0.448799 -0.893633
  outer loop
    vertex 21.333334 -0.374085 -1.027789
    vertex 16.000000 -0.601025 -0.913815
    vertex 16.000000 -0.374085 -1.027789
  endloop
endfacet
facet normal -0.000000 -0.230616 -0.973045
  outer loop
    vertex 21.333334 -0.374085 -1.027789
    vertex 16.000000 -0.374085 -1.027789
    vertex 21.333334 -0.126977 -1.086354
  endloop
endfacet
facet normal -0.000000 -0.230616 -0.973045
  outer loop
    vertex 21.333334 -0.126977 -1.086354
    vertex 16.000000 -0.374085 -1.027789
    vertex 16.000000 -0.126977 -1.086354
  endloop
endfacet
facet normal 0.000000 0.000000 -1.000000
  outer loop
    vertex 21.333334 -0.126977 -1.086354
    vertex 16.000000 -0.126977 -1.086354
    vertex 21.333334 0.126977 -1.086354
  endloop
endfacet
facet normal -0.000000 0.000000 -1.000000
  outer loop
    vertex 21.333334 0.126977 -1.086354
    vertex 16.000000 -0.126977 -1.086354
    vertex 16.000000 0.126977 -1.086354
  endloop
endfacet
facet normal 0.000000 0.230616 -0.973045
  outer loop
    vertex 21.333334 0.126977 -1.086354
    vertex 16.000000 0.126977 -1.086354
    vertex 21.333334 0.374085 -1.027789
  endloop
endfacet
facet normal 0.000000 0.230616 -0.973045
  outer loop
    vertex 21.333334 0.374085 -1.027789
    vertex 16.000000 0.126977 -1.086354
    vertex 16.000000 0.374085 -1.027789
  endloop
endfacet
facet normal 0.000000 0.448799 -0.893633
  outer loop
    vertex 21.333334 0.374085 -1.027789
    vertex 16.000000 0.374085 -1.027789
    vertex 21.333334 0.601025 -0.913815
  endloop
endfacet
facet normal -0.000000 0.116093 0.993238
  outer loop
    vertex 26.666666 0.000000 1.093750
    vertex 32.000000 0.000000 1.093750
    vertex 26.666666 0.252236 1.064268
  endloop
endfacet
facet normal -0.000000 0.116093 0.993238
  outer loop
    vertex 26.666666 0.252236 1.064268
    vertex 32.000000 0.000000 1.093750
    vertex 32.000000 0.252236 1.064268
  endloop
endfacet
facet normal -0.000000 0.342020 0.939693
  outer loop
    vertex 26.666666 0.252236 1.064268
    vertex 32.000000 0.252236 1.064268
    vertex 26.666666 0.490874 0.977411
  endloop
endfacet
facet normal 0.000000 -0.116093 0.993238
  outer loop
    vertex 26.666666 0.000000 1.093750
    vertex 21.333334 0.000000 1.093750
    vertex 26.666666 -0.252236 1.064268
  endloop
endfacet
facet normal 0.000000 -0.116093 0.993238
  outer loop
    vertex 26.666666 -0.252236 1.064268
    vertex 21.333334 0.000000 1.093750
    vertex 21.333334 -0.252236 1.064268
  endloop
endfacet
facet normal 0.000000 -0.342020 0.939692
  outer loop
    vertex 26.666666 -0.252236 1.064268
    vertex 21.333334 -0.252236 1.064268
    vertex 26.666666 -0.490874 0.977411
  endloop
endfacet
facet normal 0.000000 -0.342020 0.939692
  outer loop
    vertex 26.666666 -0.490874 0.977411
    vertex 21.333334 -0.252236 1.064268
    vertex 21.333334 -0.490874 0.977411
  endloop
endfacet
facet normal 0.000000 -0.549509 0.835488
  outer loop
    vertex 26.666666 -0.490874 0.977411
    vertex 21.333334 -0.490874 0.977411
    vertex 26.666666 -0.703049 0.837861
  endloop
endfacet
facet normal 0.000000 -0.549509 0.835488
  outer loop
    vertex 26.666666 -0.703049 0.837861
    vertex 21.333334 -0.490874 0.977411
    vertex 21.333334 -0.703049 0.837861
  endloop
endfacet
facet normal 0.000000 -0.727374 0.686242
  outer loop
    vertex 26.666666 -0.703049 0.837861
    vertex 21.333334 -0.703049 0.837861
    vertex 26.666666 -0.877322 0.653142
  endloop
endfacet
facet normal 0.000000 -0.727374 0.686242
  outer loop
    vertex 26.666666 -0.877322 0.653142
    vertex 21.333334 -0.703049 0.837861
    vertex 21.333334 -0.877322 0.653142
  endloop
endfacet
facet normal 0.000000 -0.866025 0.500000
  outer loop
    vertex 26.666666 -0.877322 0.653142
    vertex 21.333334 -0.877322 0.653142
    vertex 26.666666 -1.004299 0.433212
  endloop
endfacet
facet normal 0.000000 -0.866025 0.500000
  outer loop
    vertex 26.666666 -1.004299 0.433212
    vertex 21.333334 -0.877322 0.653142
    vertex 21.333334 -1.004299 0.433212
  endloop
endfacet
facet normal 0.000000 -0.957990 0.286803
  outer loop
    vertex 26.666666 -1.004299 0.433212
    vertex 21.333334 -1.004299 0.433212
    vertex 26.666666 -1.077134 0.189928
  endloop
endfacet
facet normal 0.000000 -0.957990 0.286803
  outer loop
    vertex 26.666666 -1.077134 0.189928
    vertex 21.333334 -1.004299 0.433212
    vertex 21.333334 -1.077134 0.189928
  endloop
endfacet
facet normal 0.000000 -0.998308 0.058144
  outer loop
    vertex 26.666666 -1.077134 0.189928
    vertex 21.333334 -1.077134 0.189928
    vertex 26.666666 -1.091900 -0.063596
  endloop
endfacet
facet normal 0.000000 -0.998308 0.058144
  outer loop
    vertex 26.666666 -1.091900 -0.063596
    vertex 21.333334 -1.077134 0.189928
    vertex 21.333334 -1.091900 -0.063596
  endloop
endfacet
facet normal -0.000000 -0.984808 -0.173648
  outer loop
    vertex 26.666666 -1.091900 -0.063596
    vertex 21.333334 -1.091900 -0.063596
    vertex 26.666666 -1.047801 -0.313691
  endloop
endfacet
facet normal -0.000000 -0.984808 -0.173648
  outer loop
    vertex 26.666666 -1.047801 -0.313691
    vertex 21.333334 -1.091900 -0.063596
    vertex 21.333334 -1.047801 -0.313691
  endloop
endfacet
facet normal -0.000000 -0.918216 -0.396080
  outer loop
    vertex 26.666666 -1.047801 -0.313691
    vertex 21.333334 -1.047801 -0.313691
    vertex 26.666666 -0.947215 -0.546875
  endloop
endfacet
facet normal -0.000000 -0.918216 -0.396080
  outer loop
    vertex 26.666666 -0.947215 -0.546875
    vertex 21.333334 -1.047801 -0.313691
    vertex 21.333334 -0.947215 -0.546875
  endloop
endfacet
facet normal -0.000000 -0.802123 -0.597158
  outer loop
    vertex 26.666666 -0.947215 -0.546875
    vertex 21.333334 -0.947215 -0.546875
    vertex 26.666666 -0.795565 -0.750577
  endloop
endfacet
facet normal -0.000000 -0.802123 -0.597158
  outer loop
    vertex 26.666666 -0.795565 -0.750577
    vertex 21.333334 -0.947215 -0.546875
    vertex 21.333334 -0.795565 -0.750577
  endloop
endfacet
facet normal -0.000000 -0.642788 -0.766044
  outer loop
    vertex 26.666666 -0.795565 -0.750577
    vertex 21.333334 -0.795565 -0.750577
    vertex 26.666666 -0.601025 -0.913815
  endloop
endfacet
facet normal -0.000000 -0.642788 -0.766044
  outer loop
    vertex 26.666666 -0.601025 -0.913815
    vertex 21.333334 -0.795565 -0.750577
    vertex 21.333334 -0.601025 -0.913815
  endloop
endfacet
facet normal -0.000000 -0.448799 -0.893633
  outer loop
    vertex 26.666666 -0.601025 -0.913815
    vertex 21.333334 -0.601025 -0.913815
    vertex 26.666666 -0.374085 -1.027789
  endloop
endfacet
facet normal -0.000000 -0.448799 -0.893633
  outer loop
    vertex 26.666666 -0.374085 -1.027789
    vertex 21.333334 -0.601025 -0.913815
    vertex 21.333334 -0.374085 -1.027789
  endloop
endfacet
facet normal -0.000000 -0.230616 -0.973045
  outer loop
    vertex 26.666666 -0.374085 -1.027789
    vertex 21.333334 -0.374085 -1.027789
    vertex 26.666666 -0.126977 -1.086354
  endloop
endfacet
facet normal -0.000000 -0.230616 -0.973045
  outer loop
    vertex 26.666666 -0.126977 -1.086354
    vertex 21.333334 -0.374085 -1.027789
    vertex 21.333334 -0.126977 -1.086354
  endloop
endfacet
facet normal 0.000000 0.000000 -1.000000
  outer loop
    vertex 26.666666 -0.126977 -1.086354
    vertex 21.333334 -0.126977 -1.086354
    vertex 26.666666 0.126977 -1.086354
  endloop
endfacet
facet normal -0.000000 0.000000 -1.000000
  outer loop
    vertex 26.666666 0.126977 -1.086354
    vertex 21.333334 -0.126977 -1.086354
    vertex 21.333334 0.126977 -1.086354
  endloop
endfacet
facet normal 0.000000 0.230616 -0.973045
  outer loop
    vertex 26.666666 0.126977 -1.086354
    vertex 21.333334 0.126977 -1.086354
    vertex 26.666666 0.374085 -1.027789
  endloop
endfacet
facet normal 0.000000 0.230616 -0.973045
  outer loop
    vertex 26.666666 0.374085 -1.027789
    vertex 21.333334 0.126977 -1.086354
    vertex 21.333334 0.374085 -1.027789
  endloop
endfacet
facet normal 0.000000 0.448799 -0.893633
  outer loop
    vertex 26.666666 0.374085 -1.027789
    vertex 21.333334 0.374085 -1.027789
    vertex 26.666666 0.601025 -0.913815
  endloop
endfacet
facet normal 0.000000 0.448799 -0.893633
  outer loop
    vertex 26.666666 0.601025 -0.913815
    vertex 21.333334 0.374085 -1.027789
    vertex 21.333334 0.601025 -0.913815
  endloop
endfacet
facet normal 0.000000 0.642788 -0.766044
  outer loop
    vertex 26.666666 0.601025 -0.913815
    vertex 21.333334 0.601025 -0.913815
    vertex 26.666666 0.795565 -0.750577
  endloop
endfacet
facet normal 0.000000 0.116093 0.993238
  outer loop
    vertex 32.000000 0.252236 1.064268
    vertex 32.000000 0.000000 1.093750
    vertex 37.333332 0.000000 1.093750
  endloop
endfacet
facet normal 0.000000 -0.116093 0.993238
  outer loop
    vertex 37.333332 0.000000 1.093750
    vertex 32.000000 0.000000 1.093750
    vertex 37.333332 -0.252236 1.064268
  endloop
endfacet
facet normal 0.000000 -0.116093 0.993238
  outer loop
    vertex 37.333332 0.000000 1.093750
    vertex 37.333332 -0.252236 1.064268
    vertex 42.666668 -0.252236 1.064268
  endloop
endfacet
facet normal 0.000000 -0.342020 0.939693
  outer loop
    vertex 42.666668 -0.252236 1.064268
    vertex 37.333332 -0.252236 1.064268
    vertex 42.666668 -0.490874 0.977411
  endloop
endfacet
facet normal 0.000000 -0.116093 0.993238
  outer loop
    vertex 32.000000 0.000000 1.093750
    vertex 26.666666 0.000000 1.093750
    vertex 32.000000 -0.252236 1.064268
  endloop
endfacet
facet normal 0.000000 -0.116093 0.993238
  outer loop
    vertex 32.000000 -0.252236 1.064268
    vertex 26.666666 0.000000 1.093750
    vertex 26.666666 -0.252236 1.064268
  endloop
endfacet
facet normal 0.000000 -0.342020 0.939693
  outer loop
    vertex 32.000000 -0.252236 1.064268
    vertex 26.666666 -0.252236 1.064268
    vertex 32.000000 -0.490874 0.977411
  endloop
endfacet
facet normal 0.000000 -0.342020 0.939693
  outer loop
    vertex 32.000000 -0.490874 0.977411
    vertex 26.666666 -0.252236 1.064268
    vertex 26.666666 -0.490874 0.977411
  endloop
endfacet
facet normal 0.000000 -0.549509 0.835488
  outer loop
    vertex 32.000000 -0.490874 0.977411
    vertex 26.666666 -0.490874 0.977411
    vertex 32.000000 -0.703049 0.837861
  endloop
endfacet
facet normal 0.000000 -0.549509 0.835488
  outer loop
    vertex 32.000000 -0.703049 0.837861
    vertex 26.666666 -0.490874 0.977411
    vertex 26.666666 -0.703049 0.837861
  endloop
endfacet
facet normal 0.000000 -0.727374 0.686242
  outer loop
    vertex 32.000000 -0.703049 0.837861
    vertex 26.666666 -0.703049 0.837861
    vertex 32.000000 -0.877322 0.653142
  endloop
endfacet
facet normal 0.000000 -0.727374 0.686242
  outer loop
    vertex 32.000000 -0.877322 0.653142
    vertex 26.666666 -0.703049 0.837861
    vertex 26.666666 -0.877322 0.653142
  endloop
endfacet
facet normal 0.000000 -0.866025 0.500000
  outer loop
    vertex 32.000000 -0.877322 0.653142
    vertex 26.666666 -0.877322 0.653142
    vertex 32.000000 -1.004299 0.433212
  endloop
endfacet
facet normal 0.000000 -0.866025 0.500000
  outer loop
    vertex 32.000000 -1.004299 0.433212
    vertex 26.666666 -0.877322 0.653142
    vertex 26.666666 -1.004299 0.433212
  endloop
endfacet
facet normal 0.000000 -0.957989 0.286803
  outer loop
    vertex 32.000000 -1.004299 0.433212
    vertex 26.666666 -1.004299 0.433212
    vertex 32.000000 -1.077134 0.189928
  endloop
endfacet
facet normal 0.000000 -0.957989 0.286803
  outer loop
    vertex 32.000000 -1.077134 0.189928
    vertex 26.666666 -1.004299 0.433212
    vertex 26.666666 -1.077134 0.189928
  endloop
endfacet
facet normal 0.000000 -0.998308 0.058144
  outer loop
    vertex 32.000000 -1.077134 0.189928
    vertex 26.666666 -1.077134 0.189928
    vertex 32.000000 -1.091900 -0.063596
  endloop
endfacet
facet normal 0.000000 -0.998308 0.058144
  outer loop
    vertex 32.000000 -1.091900 -0.063596
    vertex 26.666666 -1.077134 0.189928
    vertex 26.666666 -1.091900 -0.063596
  endloop
endfacet
facet normal -0.000000 -0.984808 -0.173648
  outer loop
    vertex 32.000000 -1.091900 -0.063596
    vertex 26.666666 -1.091900 -0.063596
    vertex 32.000000 -1.047801 -0.313691
  endloop
endfacet
facet normal -0.000000 -0.984808 -0.173648
  outer loop
    vertex 32.000000 -1.047801 -0.313691
    vertex 26.666666 -1.091900 -0.063596
    vertex 26.666666 -1.047801 -0.313691
  endloop
endfacet
facet normal -0.000000 -0.918216 -0.396080
  outer loop
    vertex 32.000000 -1.047801 -0.313691
    vertex 26.666666 -1.047801 -0.313691
    vertex 32.000000 -0.947215 -0.546875
  endloop
endfacet
facet normal -0.000000 -0.918216 -0.396080
  outer loop
    vertex 32.000000 -0.947215 -0.546875
    vertex 26.666666 -1.047801 -0.313691
    vertex 26.666666 -0.947215 -0.546875
  endloop
endfacet
facet normal -0.000000 -0.802123 -0.597158
  outer loop
    vertex 32.000000 -0.947215 -0.546875
    vertex 26.666666 -0.947215 -0.546875
    vertex 32.000000 -0.795565 -0.750577
  endloop
endfacet
facet normal -0.000000 -0.802123 -0.597158
  outer loop
    vertex 32.000000 -0.795565 -0.750577
    vertex 26.666666 -0.947215 -0.546875
    vertex 26.666666 -0.795565 -0.750577
  endloop
endfacet
facet normal -0.000000 -0.642788 -0.766044
  outer loop
    vertex 32.000000 -0.795565 -0.750577
    vertex 26.666666 -0.795565 -0.750577
    vertex 32.000000 -0.601025 -0.913815
  endloop
endfacet
facet normal -0.000000 -0.642788 -0.766044
  outer loop
    vertex 32.000000 -0.601025 -0.913815
    vertex 26.666666 -0.795565 -0.750577
    vertex 26.666666 -0.601025 -0.913815
  endloop
endfacet
facet normal -0.000000 -0.448799 -0.893633
  outer loop
    vertex 32.000000 -0.601025 -0.913815
    vertex 26.666666 -0.601025 -0.913815
    vertex 32.000000 -0.374085 -1.027789
  endloop
endfacet
facet normal -0.000000 -0.448799 -0.893633
  outer loop
    vertex 32.000000 -0.374085 -1.027789
    vertex 26.666666 -0.601025 -0.913815
    vertex 26.666666 -0.374085 -1.027789
  endloop
endfacet
facet normal -0.000000 -0.230616 -0.973045
  outer loop
    vertex 32.000000 -0.374085 -1.027789
    vertex 26.666666 -0.374085 -1.027789
    vertex 32.000000 -0.126977 -1.086354
  endloop
endfacet
facet normal -0.000000 -0.230616 -0.973045
  outer loop
    vertex 32.000000 -0.126977 -1.086354
    vertex 26.666666 -0.374085 -1.027789
    vertex 26.666666 -0.126977 -1.086354
  endloop
endfacet
facet normal 0.000000 0.000000 -1.000000
  outer loop
    vertex 32.000000 -0.126977 -1.086354
    vertex 26.666666 -0.126977 -1.086354
    vertex 32.000000 0.126977 -1.086354
  endloop
endfacet
facet normal -0.000000 0.000000 -1.000000
  outer loop
    vertex 32.000000 0.126977 -1.086354
    vertex 26.666666 -0.126977 -1.086354
    vertex 26.666666 0.126977 -1.086354
  endloop
endfacet
facet normal 0.000000 0.230616 -0.973045
  outer loop
    vertex 32.000000 0.126977 -1.086354
    vertex 26.666666 0.126977 -1.086354
    vertex 32.000000 0.374085 -1.027789
  endloop
endfacet
facet normal 0.000000 0.230616 -0.973045
  outer loop
    vertex 32.000000 0.374085 -1.027789
    vertex 26.666666 0.126977 -1.086354
    vertex 26.666666 0.374085 -1.027789
  endloop
endfacet
facet normal 0.000000 0.448799 -0.893633
  outer loop
    vertex 32.000000 0.374085 -1.027789
    vertex 26.666666 0.374085 -1.027789
    vertex 32.000000 0.601025 -0.913815
  endloop
endfacet
facet normal 0.000000 0.448799 -0.893633
  outer loop
    vertex 32.000000 0.601025 -0.913815
    vertex 26.666666 0.374085 -1.027789
    vertex 26.666666 0.601025 -0.913815
  endloop
endfacet
facet normal 0.000000 0.642788 -0.766044
  outer loop
    vertex 32.000000 0.601025 -0.913815
    vertex 26.666666 0.601025 -0.913815
    vertex 32.000000 0.795565 -0.750577
  endloop
endfacet
facet normal 0.000000 0.642788 -0.766044
  outer loop
    vertex 32.000000 0.795565 -0.750577
    vertex 26.666666 0.601025 -0.913815
    vertex 26.666666 0.795565 -0.750577
  endloop
endfacet
facet normal 0.000000 0.802123 -0.597158
  outer loop
    vertex 32.000000 0.795565 -0.750577
    vertex 26.666666 0.795565 -0.750577
    vertex 32.000000 0.947215 -0.546875
  endloop
endfacet
facet normal 0.000000 -0.116093 0.993238
  outer loop
    vertex 32.000000 0.000000 1.093750
    vertex 32.000000 -0.252236 1.064268
    vertex 37.333332 -0.252236 1.064268
  endloop
endfacet
facet normal 0.000000 -0.342020 0.939692
  outer loop
    vertex 37.333332 -0.252236 1.064268
    vertex 32.000000 -0.252236 1.064268
    vertex 37.333332 -0.490874 0.977411
  endloop
endfacet
facet normal 0.000000 -0.342020 0.939693
  outer loop
    vertex 37.333332 -0.252236 1.064268
    vertex 37.333332 -0.490874 0.977411
    vertex 42.666668 -0.490874 0.977411
  endloop
endfacet
facet normal 0.000000 -0.549509 0.835488
  outer loop
    vertex 42.666668 -0.490874 0.977411
    vertex 37.333332 -0.490874 0.977411
    vertex 42.666668 -0.703049 0.837861
  endloop
endfacet
facet normal 0.000000 -0.342020 0.939692
  outer loop
    vertex 37.333332 -0.490874 0.977411
    vertex 32.000000 -0.252236 1.064268
    vertex 32.000000 -0.490874 0.977411
  endloop
endfacet
facet normal 0.000000 -0.549509 0.835488
  outer loop
    vertex 37.333332 -0.490874 0.977411
    vertex 32.000000 -0.490874 0.977411
    vertex 37.333332 -0.703049 0.837861
  endloop
endfacet
facet normal 0.000000 -0.549509 0.835488
  outer loop
    vertex 37.333332 -0.703049 0.837861
    vertex 32.000000 -0.490874 0.977411
    vertex 32.000000 -0.703049 0.837861
  endloop
endfacet
facet normal 0.000000 -0.727374 0.686242
  outer loop
    vertex 37.333332 -0.703049 0.837861
    vertex 32.000000 -0.703049 0.837861
    vertex 37.333332 -0.877322 0.653142
  endloop
endfacet
facet normal 0.000000 -0.727374 0.686242
  outer loop
    vertex 37.333332 -0.877322 0.653142
    vertex 32.000000 -0.703049 0.837861
    vertex 32.000000 -0.877322 0.653142
  endloop
endfacet
facet normal 0.000000 -0.866025 0.500000
  outer loop
    vertex 37.333332 -0.877322 0.653142
    vertex 32.000000 -0.877322 0.653142
    vertex 37.333332 -1.004299 0.433212
  endloop
endfacet
facet normal 0.000000 -0.866025 0.500000
  outer loop
    vertex 37.333332 -1.004299 0.433212
    vertex 32.000000 -0.877322 0.653142
    vertex 32.000000 -1.004299 0.433212
  endloop
endfacet
facet normal 0.000000 -0.957990 0.286803
  outer loop
    vertex 37.333332 -1.004299 0.433212
    vertex 32.000000 -1.004299 0.433212
    vertex 37.333332 -1.077134 0.189928
  endloop
endfacet
facet normal 0.000000 -0.957990 0.286803
  outer loop
    vertex 37.333332 -1.077134 0.189928
    vertex 32.000000 -1.004299 0.433212
    vertex 32.000000 -1.077134 0.189928
  endloop
endfacet
facet normal 0.000000 -0.998308 0.058144
  outer loop
    vertex 37.333332 -1.077134 0.189928
    vertex 32.000000 -1.077134 0.189928
    vertex 37.333332 -1.091900 -0.063596
  endloop
endfacet
facet normal 0.000000 -0.998308 0.058144
  outer loop
    vertex 37.333332 -1.091900 -0.063596
    vertex 32.000000 -1.077134 0.189928
    vertex 32.000000 -1.091900 -0.063596
  endloop
endfacet
facet normal -0.000000 -0.984808 -0.173648
  outer loop
    vertex 37.333332 -1.091900 -0.063596
    vertex 32.000000 -1.091900 -0.063596
    vertex 37.333332 -1.047801 -0.313691
  endloop
endfacet
facet normal -0.000000 -0.984808 -0.173648
  outer loop
    vertex 37.333332 -1.047801 -0.313691
    vertex 32.000000 -1.091900 -0.063596
    vertex 32.000000 -1.047801 -0.313691
  endloop
endfacet
facet normal -0.000000 -0.918216 -0.396080
  outer loop
    vertex 37.333332 -1.047801 -0.313691
    vertex 32.000000 -1.047801 -0.313691
    vertex 37.333332 -0.947215 -0.546875
  endloop
endfacet
facet normal -0.000000 -0.918216 -0.396080
  outer loop
    vertex 37.333332 -0.947215 -0.546875
    vertex 32.000000 -1.047801 -0.313691
    vertex 32.000000 -0.947215 -0.546875
  endloop
endfacet
facet normal -0.000000 -0.802123 -0.597158
  outer loop
    vertex 37.333332 -0.947215 -0.546875
    vertex 32.000000 -0.947215 -0.546875
    vertex 37.333332 -0.795565 -0.750577
  endloop
endfacet
facet normal -0.000000 -0.802123 -0.597158
  outer loop
    vertex 37.333332 -0.795565 -0.750577
    vertex 32.000000 -0.947215 -0.546875
    vertex 32.000000 -0.795565 -0.750577
  endloop
endfacet
facet normal -0.000000 -0.642788 -0.766044
  outer loop
    vertex 37.333332 -0.795565 -0.750577
    vertex 32.000000 -0.795565 -0.750577
    vertex 37.333332 -0.601025 -0.913815
  endloop
endfacet
facet normal -0.000000 -0.642788 -0.766044
  outer loop
    vertex 37.333332 -0.601025 -0.913815
    vertex 32.000000 -0.795565 -0.750577
    vertex 32.000000 -0.601025 -0.913815
  endloop
endfacet
facet normal -0.000000 -0.448799 -0.893633
  outer loop
    vertex 37.333332 -0.601025 -0.913815
    vertex 32.000000 -0.601025 -0.913815
    vertex 37.333332 -0.374085 -1.027789
  endloop
endfacet
facet normal -0.000000 -0.448799 -0.893633
  outer loop
    vertex 37.333332 -0.374085 -1.027789
    vertex 32.000000 -0.601025 -0.913815
    vertex 32.000000 -0.374085 -1.027789
  endloop
endfacet
facet normal -0.000000 -0.230616 -0.973045
  outer loop
    vertex 37.333332 -0.374085 -1.027789
    vertex 32.000000 -0.374085 -1.027789
    vertex 37.333332 -0.126977 -1.086354
  endloop
endfacet
facet normal -0.000000 -0.230616 -0.973045
  outer loop
    vertex 37.333332 -0.126977 -1.086354
    vertex 32.000000 -0.374085 -1.027789
    vertex 32.000000 -0.126977 -1.086354
  endloop
endfacet
facet normal 0.000000 0.000000 -1.000000
  outer loop
    vertex 37.333332 -0.126977 -1.086354
    vertex 32.000000 -0.126977 -1.086354
    vertex 37.333332 0.126977 -1.086354
  endloop
endfacet
facet normal -0.000000 0.000000 -1.000000
  outer loop
    vertex 37.333332 0.126977 -1.086354
    vertex 32.000000 -0.126977 -1.086354
    vertex 32.000000 0.126977 -1.086354
  endloop
endfacet
facet normal 0.000000 0.230616 -0.973045
  outer loop
    vertex 37.333332 0.126977 -1.086354
    vertex 32.000000 0.126977 -1.086354
    vertex 37.333332 0.374085 -1.027789
  endloop
endfacet
facet normal 0.000000 0.230616 -0.973045
  outer loop
    vertex 37.333332 0.374085 -1.027789
    vertex 32.000000 0.126977 -1.086354
    vertex 32.000000 0.374085 -1.027789
  endloop
endfacet
facet normal 0.000000 0.448799 -0.893633
  outer loop
    vertex 37.333332 0.374085 -1.027789
    vertex 32.000000 0.374085 -1.027789
    vertex 37.333332 0.601025 -0.913815
  endloop
endfacet
facet normal 0.000000 0.448799 -0.893633
  outer loop
    vertex 37.333332 0.601025 -0.913815
    vertex 32.000000 0.374085 -1.027789
    vertex 32.000000 0.601025 -0.913815
  endloop
endfacet
facet normal 0.000000 0.642788 -0.766044
  outer loop
    vertex 37.333332 0.601025 -0.913815
    vertex 32.000000 0.601025 -0.913815
    vertex 37.333332 0.795565 -0.750577
  endloop
endfacet
facet normal 0.000000 0.642788 -0.766044
  outer loop
    vertex 37.333332 0.795565 -0.750577
    vertex 32.000000 0.601025 -0.913815
    vertex 32.000000 0.795565 -0.750577
  endloop
endfacet
facet normal 0.000000 0.802123 -0.597158
  outer loop
    vertex 37.333332 0.795565 -0.750577
    vertex 32.000000 0.795565 -0.750577
    vertex 37.333332 0.947215 -0.546875
  endloop
endfacet
facet normal 0.000000 0.802123 -0.597158
  outer loop
    vertex 37.333332 0.947215 -0.546875
    vertex 32.000000 0.795565 -0.750577
    vertex 32.000000 0.947215 -0.546875
  endloop
endfacet
facet normal 0.000000 0.918216 -0.396080
  outer loop
    vertex 37.333332 0.947215 -0.546875
    vertex 32.000000 0.947215 -0.546875
    vertex 37.333332 1.047801 -0.313691
  endloop
endfacet
facet normal 0.000000 -0.727374 0.686242
  outer loop
    vertex 42.666668 -0.877322 0.653142
    vertex 42.666668 -0.703049 0.837861
    vertex 37.333332 -0.703049 0.837861
  endloop
endfacet
facet normal 0.000000 -0.549509 0.835488
  outer loop
    vertex 37.333332 -0.703049 0.837861
    vertex 42.666668 -0.703049 0.837861
    vertex 37.333332 -0.490874 0.977411
  endloop
endfacet
facet normal 0.000000 -0.727374 0.686242
  outer loop
    vertex 42.666668 -0.877322 0.653142
    vertex 37.333332 -0.703049 0.837861
    vertex 37.333332 -0.877322 0.653142
  endloop
endfacet
facet normal 0.000000 -0.866025 0.500000
  outer loop
    vertex 42.666668 -1.004299 0.433212
    vertex 42.666668 -0.877322 0.653142
    vertex 37.333332 -0.877322 0.653142
  endloop
endfacet
facet normal 0.000000 -0.866025 0.500000
  outer loop
    vertex 42.666668 -1.004299 0.433212
    vertex 37.333332 -0.877322 0.653142
    vertex 37.333332 -1.004299 0.433212
  endloop
endfacet
facet normal 0.000000 -0.957990 0.286803
  outer loop
    vertex 42.666668 -1.077134 0.189928
    vertex 42.666668 -1.004299 0.433212
    vertex 37.333332 -1.004299 0.433212
  endloop
endfacet
facet normal 0.000000 -0.957990 0.286803
  outer loop
    vertex 42.666668 -1.077134 0.189928
    vertex 37.333332 -1.004299 0.433212
    vertex 37.333332 -1.077134 0.189928
  endloop
endfacet
facet normal 0.000000 -0.998308 0.058144
  outer loop
    vertex 42.666668 -1.091900 -0.063596
    vertex 42.666668 -1.077134 0.189928
    vertex 37.333332 -1.077134 0.189928
  endloop
endfacet
facet normal 0.000000 -0.998308 0.058144
  outer loop
    vertex 42.666668 -1.091900 -0.063596
    vertex 37.333332 -1.077134 0.189928
    vertex 37.333332 -1.091900 -0.063596
  endloop
endfacet
facet normal 0.000000 -0.984808 -0.173648
  outer loop
    vertex 42.666668 -1.047801 -0.313691
    vertex 42.666668 -1.091900 -0.063596
    vertex 37.333332 -1.091900 -0.063596
  endloop
endfacet
facet normal -0.000000 -0.984808 -0.173648
  outer loop
    vertex 42.666668 -1.047801 -0.313691
    vertex 37.333332 -1.091900 -0.063596
    vertex 37.333332 -1.047801 -0.313691
  endloop
endfacet
facet normal 0.000000 -0.918216 -0.396080
  outer loop
    vertex 42.666668 -0.947215 -0.546875
    vertex 42.666668 -1.047801 -0.313691
    vertex 37.333332 -1.047801 -0.313691
  endloop
endfacet
facet normal -0.000000 -0.918216 -0.396080
  outer loop
    vertex 42.666668 -0.947215 -0.546875
    vertex 37.333332 -1.047801 -0.313691
    vertex 37.333332 -0.947215 -0.546875
  endloop
endfacet
facet normal 0.000000 -0.802123 -0.597158
  outer loop
    vertex 42.666668 -0.795565 -0.750577
    vertex 42.666668 -0.947215 -0.546875
    vertex 37.333332 -0.947215 -0.546875
  endloop
endfacet
facet normal -0.000000 -0.802123 -0.597158
  outer loop
    vertex 42.666668 -0.795565 -0.750577
    vertex 37.333332 -0.947215 -0.546875
    vertex 37.333332 -0.795565 -0.750577
  endloop
endfacet
facet normal 0.000000 -0.642788 -0.766044
  outer loop
    vertex 42.666668 -0.601025 -0.913815
    vertex 42.666668 -0.795565 -0.750577
    vertex 37.333332 -0.795565 -0.750577
  endloop
endfacet
facet normal -0.000000 -0.642788 -0.766044
  outer loop
    vertex 42.666668 -0.601025 -0.913815
    vertex 37.333332 -0.795565 -0.750577
    vertex 37.333332 -0.601025 -0.913815
  endloop
endfacet
facet normal 0.000000 -0.448799 -0.893633
  outer loop
    vertex 42.666668 -0.374085 -1.027789
    vertex 42.666668 -0.601025 -0.913815
    vertex 37.333332 -0.601025 -0.913815
  endloop
endfacet
facet normal -0.000000 -0.448799 -0.893633
  outer loop
    vertex 42.666668 -0.374085 -1.027789
    vertex 37.333332 -0.601025 -0.913815
    vertex 37.333332 -0.374085 -1.027789
  endloop
endfacet
facet normal 0.000000 -0.230616 -0.973045
  outer loop
    vertex 42.666668 -0.126977 -1.086354
    vertex 42.666668 -0.374085 -1.027789
    vertex 37.333332 -0.374085 -1.027789
  endloop
endfacet
facet normal -0.000000 -0.230616 -0.973045
  outer loop
    vertex 42.666668 -0.126977 -1.086354
    vertex 37.333332 -0.374085 -1.027789
    vertex 37.333332 -0.126977 -1.086354
  endloop
endfacet
facet normal 0.000000 -0.000000 -1.000000
  outer loop
    vertex 42.666668 0.126977 -1.086354
    vertex 42.666668 -0.126977 -1.086354
    vertex 37.333332 -0.126977 -1.086354
  endloop
endfacet
facet normal -0.000000 0.000000 -1.000000
  outer loop
    vertex 42.666668 0.126977 -1.086354
    vertex 37.333332 -0.126977 -1.086354
    vertex 37.333332 0.126977 -1.086354
  endloop
endfacet
facet normal 0.000000 0.230616 -0.973045
  outer loop
    vertex 42.666668 0.374085 -1.027789
    vertex 42.666668 0.126977 -1.086354
    vertex 37.333332 0.126977 -1.086354
  endloop
endfacet
facet normal 0.000000 0.230616 -0.973045
  outer loop
    vertex 42.666668 0.374085 -1.027789
    vertex 37.333332 0.126977 -1.086354
    vertex 37.333332 0.374085 -1.027789
  endloop
endfacet
facet normal 0.000000 0.448799 -0.893633
  outer loop
    vertex 42.666668 0.601025 -0.913815
    vertex 42.666668 0.374085 -1.027789
    vertex 37.333332 0.374085 -1.027789
  endloop
endfacet
facet normal 0.000000 0.448799 -0.893633
  outer loop
    vertex 42.666668 0.601025 -0.913815
    vertex 37.333332 0.374085 -1.027789
    vertex 37.333332 0.601025 -0.913815
  endloop
endfacet
facet normal 0.000000 0.642788 -0.766044
  outer loop
    vertex 42.666668 0.795565 -0.750577
    vertex 42.666668 0.601025 -0.913815
    vertex 37.333332 0.601025 -0.913815
  endloop
endfacet
facet normal 0.000000 0.642788 -0.766044
  outer loop
    vertex 42.666668 0.795565 -0.750577
    vertex 37.333332 0.601025 -0.913815
    vertex 37.333332 0.795565 -0.750577
  endloop
endfacet
facet normal 0.000000 0.802123 -0.597158
  outer loop
    vertex 42.666668 0.947215 -0.546875
    vertex 42.666668 0.795565 -0.750577
    vertex 37.333332 0.795565 -0.750577
  endloop
endfacet
facet normal 0.000000 0.802123 -0.597158
  outer loop
    vertex 42.666668 0.947215 -0.546875
    vertex 37.333332 0.795565 -0.750577
    vertex 37.333332 0.947215 -0.546875
  endloop
endfacet
facet normal 0.000000 0.918216 -0.396080
  outer loop
    vertex 42.666668 1.047801 -0.313691
    vertex 42.666668 0.947215 -0.546875
    vertex 37.333332 0.947215 -0.546875
  endloop
endfacet
facet normal 0.000000 0.918216 -0.396080
  outer loop
    vertex 42.666668 1.047801 -0.313691
    vertex 37.333332 0.947215 -0.546875
    vertex 37.333332 1.047801 -0.313691
  endloop
endfacet
facet normal 0.000000 0.000000 -1.000000
  outer loop
    vertex 0.000000 1.064795 0.250000
    vertex 48.000000 1.064795 0.250000
    vertex 0.000000 0.843750 0.250000
  endloop
endfacet
facet normal 0.000000 0.000000 -1.000000
  outer loop
    vertex 0.000000 0.843750 0.250000
    vertex 48.000000 1.064795 0.250000
    vertex 48.000000 0.843750 0.250000
  endloop
endfacet
facet normal 1.000000 0.000000 0.000000
  outer loop
    vertex 48.000000 1.064795 0.250000
    vertex 48.000000 0.978357 0.488984
    vertex 48.000000 0.843750 0.250000
  endloop
endfacet
facet normal 1.000000 0.000000 -0.000000
  outer loop
    vertex 48.000000 0.843750 0.250000
    vertex 48.000000 0.978357 0.488984
    vertex 48.000000 0.839100 0.701569
  endloop
endfacet
facet normal 1.000000 0.000000 0.000000
  outer loop
    vertex 48.000000 0.843750 0.250000
    vertex 48.000000 0.839100 0.701569
    vertex 48.000000 0.654542 0.876278
  endloop
endfacet
facet normal 1.000000 0.000000 0.000000
  outer loop
    vertex 48.000000 0.654542 0.876278
    vertex 48.000000 0.434646 1.003679
    vertex 48.000000 0.843750 0.250000
  endloop
endfacet
facet normal 1.000000 0.000000 0.000000
  outer loop
    vertex 48.000000 0.843750 0.250000
    vertex 48.000000 0.434646 1.003679
    vertex 48.000000 0.191285 1.076893
  endloop
endfacet
facet normal 1.000000 0.000000 0.000000
  outer loop
    vertex 48.000000 0.843750 0.250000
    vertex 48.000000 0.191285 1.076893
    vertex 48.000000 -0.062403 1.091968
  endloop
endfacet
facet normal 1.000000 0.000000 0.000000
  outer loop
    vertex 48.000000 -0.062403 1.091968
    vertex 48.000000 -0.312722 1.048090
    vertex 48.000000 0.843750 0.250000
  endloop
endfacet
facet normal 1.000000 0.000000 0.000000
  outer loop
    vertex 48.000000 0.843750 0.250000
    vertex 48.000000 -0.312722 1.048090
    vertex 48.000000 -0.546159 0.947629
  endloop
endfacet
facet normal 1.000000 0.000000 0.000000
  outer loop
    vertex 48.000000 0.843750 0.250000
    vertex 48.000000 -0.546159 0.947629
    vertex 48.000000 -0.546159 -0.947629
  endloop
endfacet
facet normal 1.000000 0.000000 -0.000000
  outer loop
    vertex 48.000000 -0.546159 -0.947629
    vertex 48.000000 -0.546159 0.947629
    vertex 48.000000 -0.750109 -0.796006
  endloop
endfacet
facet normal 1.000000 0.000000 0.000000
  outer loop
    vertex 48.000000 -0.750109 -0.796006
    vertex 48.000000 -0.546159 0.947629
    vertex 48.000000 -0.750109 0.796006
  endloop
endfacet
facet normal 1.000000 0.000000 -0.000000
  outer loop
    vertex 48.000000 -0.750109 -0.796006
    vertex 48.000000 -0.750109 0.796006
    vertex 48.000000 -0.913562 -0.601409
  endloop
endfacet
facet normal 1.000000 0.000000 0.000000
  outer loop
    vertex 48.000000 -0.913562 -0.601409
    vertex 48.000000 -0.750109 0.796006
    vertex 48.000000 -0.913562 0.601409
  endloop
endfacet
facet normal 1.000000 0.000000 -0.000000
  outer loop
    vertex 48.000000 -0.913562 -0.601409
    vertex 48.000000 -0.913562 0.601409
    vertex 48.000000 -1.027694 -0.374344
  endloop
endfacet
facet normal 1.000000 0.000000 0.000000
  outer loop
    vertex 48.000000 -1.027694 -0.374344
    vertex 48.000000 -0.913562 0.601409
    vertex 48.000000 -1.027694 0.374344
  endloop
endfacet
facet normal 1.000000 0.000000 -0.000000
  outer loop
    vertex 48.000000 -1.027694 -0.374344
    vertex 48.000000 -1.027694 0.374344
    vertex 48.000000 -1.086344 -0.127068
  endloop
endfacet
facet normal 1.000000 0.000000 0.000000
  outer loop
    vertex 48.000000 -1.086344 -0.127068
    vertex 48.000000 -1.027694 0.374344
    vertex 48.000000 -1.086344 0.127068
  endloop
endfacet
facet normal 1.000000 -0.000000 0.000000
  outer loop
    vertex 48.000000 -0.546159 -0.947629
    vertex 48.000000 -0.312722 -1.048090
    vertex 48.000000 0.843750 0.250000
  endloop
endfacet
facet normal 1.000000 0.000000 0.000000
  outer loop
    vertex 48.000000 0.843750 0.250000
    vertex 48.000000 -0.312722 -1.048090
    vertex 48.000000 0.843750 -0.250000
  endloop
endfacet
facet normal 1.000000 0.000000 0.000000
  outer loop
    vertex 48.000000 0.843750 -0.250000
    vertex 48.000000 -0.312722 -1.048090
    vertex 48.000000 -0.062403 -1.091968
  endloop
endfacet
facet normal 1.000000 0.000000 0.000000
  outer loop
    vertex 48.000000 0.843750 -0.250000
    vertex 48.000000 -0.062403 -1.091968
    vertex 48.000000 0.191285 -1.076893
  endloop
endfacet
facet normal 1.000000 0.000000 0.000000
  outer loop
    vertex 48.000000 0.191285 -1.076893
    vertex 48.000000 0.434646 -1.003679
    vertex 48.000000 0.843750 -0.250000
  endloop
endfacet
facet normal 1.000000 0.000000 0.000000
  outer loop
    vertex 48.000000 0.843750 -0.250000
    vertex 48.000000 0.434646 -1.003679
    vertex 48.000000 0.654542 -0.876278
  endloop
endfacet
facet normal 1.000000 0.000000 0.000000
  outer loop
    vertex 48.000000 0.843750 -0.250000
    vertex 48.000000 0.654542 -0.876278
    vertex 48.000000 0.839100 -0.701569
  endloop
endfacet
facet normal 1.000000 0.000000 0.000000
  outer loop
    vertex 48.000000 0.839100 -0.701569
    vertex 48.000000 0.978357 -0.488984
    vertex 48.000000 0.843750 -0.250000
  endloop
endfacet
facet normal 1.000000 -0.000000 0.000000
  outer loop
    vertex 48.000000 0.843750 -0.250000
    vertex 48.000000 0.978357 -0.488984
    vertex 48.000000 1.064795 -0.250000
  endloop
endfacet
facet normal -1.000000 0.000000 0.000000
  outer loop
    vertex 0.000000 1.064795 0.250000
    vertex 0.000000 0.843750 0.250000
    vertex 0.000000 0.978357 0.488984
  endloop
endfacet
facet normal -1.000000 -0.000000 0.000000
  outer loop
    vertex 0.000000 0.978357 0.488984
    vertex 0.000000 0.843750 0.250000
    vertex 0.000000 0.839100 0.701569
  endloop
endfacet
facet normal -1.000000 -0.000000 -0.000000
  outer loop
    vertex 0.000000 0.839100 0.701569
    vertex 0.000000 0.843750 0.250000
    vertex 0.000000 0.654542 0.876278
  endloop
endfacet
facet normal -1.000000 -0.000000 -0.000000
  outer loop
    vertex 0.000000 0.654542 0.876278
    vertex 0.000000 0.843750 0.250000
    vertex 0.000000 0.434646 1.003679
  endloop
endfacet
facet normal -1.000000 -0.000000 -0.000000
  outer loop
    vertex 0.000000 0.434646 1.003679
    vertex 0.000000 0.843750 0.250000
    vertex 0.000000 0.191285 1.076893
  endloop
endfacet
facet normal -1.000000 -0.000000 -0.000000
  outer loop
    vertex 0.000000 0.191285 1.076893
    vertex 0.000000 0.843750 0.250000
    vertex 0.000000 -0.062403 1.091968
  endloop
endfacet
facet normal -1.000000 0.000000 -0.000000
  outer loop
    vertex 0.000000 -0.062403 1.091968
    vertex 0.000000 0.843750 0.250000
    vertex 0.000000 -0.312722 1.048090
  endloop
endfacet
facet normal -1.000000 0.000000 0.000000
  outer loop
    vertex 0.000000 -0.312722 1.048090
    vertex 0.000000 0.843750 0.250000
    vertex 0.000000 0.843750 -0.250000
  endloop
endfacet
facet normal -1.000000 0.000000 -0.000000
  outer loop
    vertex 0.000000 -0.312722 1.048090
    vertex 0.000000 0.843750 -0.250000
    vertex 0.000000 -0.546159 0.947629
  endloop
endfacet
facet normal -1.000000 0.000000 0.000000
  outer loop
    vertex 0.000000 -0.546159 0.947629
    vertex 0.000000 0.843750 -0.250000
    vertex 0.000000 -0.546159 -0.947629
  endloop
endfacet
facet normal -1.000000 0.000000 -0.000000
  outer loop
    vertex 0.000000 -0.546159 0.947629
    vertex 0.000000 -0.546159 -0.947629
    vertex 0.000000 -0.750109 0.796006
  endloop
endfacet
facet normal -1.000000 0.000000 0.000000
  outer loop
    vertex 0.000000 -0.750109 0.796006
    vertex 0.000000 -0.546159 -0.947629
    vertex 0.000000 -0.750109 -0.796006
  endloop
endfacet
facet normal -1.000000 0.000000 -0.000000
  outer loop
    vertex 0.000000 -0.750109 0.796006
    vertex 0.000000 -0.750109 -0.796006
    vertex 0.000000 -0.913562 0.601409
  endloop
endfacet
facet normal -1.000000 0.000000 0.000000
  outer loop
    vertex 0.000000 -0.913562 0.601409
    vertex 0.000000 -0.750109 -0.796006
    vertex 0.000000 -0.913562 -0.601409
  endloop
endfacet
facet normal -1.000000 0.000000 -0.000000
  outer loop
    vertex 0.000000 -0.913562 0.601409
    vertex 0.000000 -0.913562 -0.601409
    vertex 0.000000 -1.027694 0.374344
  endloop
endfacet
facet normal -1.000000 0.000000 0.000000
  outer loop
    vertex 0.000000 -1.027694 0.374344
    vertex 0.000000 -0.913562 -0.601409
    vertex 0.000000 -1.027694 -0.374344
  endloop
endfacet
facet normal -1.000000 0.000000 -0.000000
  outer loop
    vertex 0.000000 -1.027694 0.374344
    vertex 0.000000 -1.027694 -0.374344
    vertex 0.000000 -1.086344 0.127068
  endloop
endfacet
facet normal -1.000000 0.000000 0.000000
  outer loop
    vertex 0.000000 -1.086344 0.127068
    vertex 0.000000 -1.027694 -0.374344
    vertex 0.000000 -1.086344 -0.127068
  endloop
endfacet
facet normal -1.000000 -0.000000 0.000000
  outer loop
    vertex 0.000000 1.064795 -0.250000
    vertex 0.000000 0.978357 -0.488984
    vertex 0.000000 0.843750 -0.250000
  endloop
endfacet
facet normal -1.000000 0.000000 -0.000000
  outer loop
    vertex 0.000000 0.843750 -0.250000
    vertex 0.000000 0.978357 -0.488984
    vertex 0.000000 0.839100 -0.701569
  endloop
endfacet
facet normal -1.000000 0.000000 0.000000
  outer loop
    vertex 0.000000 0.843750 -0.250000
    vertex 0.000000 0.839100 -0.701569
    vertex 0.000000 0.654542 -0.876278
  endloop
endfacet
facet normal -1.000000 -0.000000 0.000000
  outer loop
    vertex 0.000000 0.654542 -0.876278
    vertex 0.000000 0.434646 -1.003679
    vertex 0.000000 0.843750 -0.250000
  endloop
endfacet
facet normal -1.000000 0.000000 0.000000
  outer loop
    vertex 0.000000 0.843750 -0.250000
    vertex 0.000000 0.434646 -1.003679
    vertex 0.000000 0.191285 -1.076893
  endloop
endfacet
facet normal -1.000000 0.000000 0.000000
  outer loop
    vertex 0.000000 0.843750 -0.250000
    vertex 0.000000 0.191285 -1.076893
    vertex 0.000000 -0.062403 -1.091968
  endloop
endfacet
facet normal -1.000000 0.000000 0.000000
  outer loop
    vertex 0.000000 -0.062403 -1.091968
    vertex 0.000000 -0.312722 -1.048090
    vertex 0.000000 0.843750 -0.250000
  endloop
endfacet
facet normal -1.000000 0.000000 0.000000
  outer loop
    vertex 0.000000 0.843750 -0.250000
    vertex 0.000000 -0.312722 -1.048090
    vertex 0.000000 -0.546159 -0.947629
  endloop
endfacet
endsolid 8054f436-485a-426d-a237-a837567c5175-ascii.stl
