solid 8db5d86b-9a9e-479c-b81d-c6406de5a56b-ascii.stl
facet normal 0.000000 1.000000 0.000000
  outer loop
    vertex 0.000000 0.750000 -0.250000
    vertex 0.000000 0.750000 0.250000
    vertex 6.000000 0.750000 -0.250000
  endloop
endfacet
facet normal 0.000000 1.000000 -0.000000
  outer loop
    vertex 6.000000 0.750000 -0.250000
    vertex 0.000000 0.750000 0.250000
    vertex 6.000000 0.750000 0.250000
  endloop
endfacet
facet normal 0.000000 0.000000 1.000000
  outer loop
    vertex 0.000000 0.750000 -0.250000
    vertex 6.000000 0.750000 -0.250000
    vertex 0.000000 0.968246 -0.250000
  endloop
endfacet
facet normal -0.000000 0.000000 1.000000
  outer loop
    vertex 0.000000 0.968246 -0.250000
    vertex 6.000000 0.750000 -0.250000
    vertex 6.000000 0.968246 -0.250000
  endloop
endfacet
facet normal -0.000508 0.955978 0.293437
  outer loop
    vertex 0.000000 0.941764 0.336275
    vertex 2.000000 0.956526 0.291646
    vertex 0.000000 0.968246 0.250000
  endloop
endfacet
facet normal 0.000000 0.962611 0.270887
  outer loop
    vertex 0.000000 0.968246 0.250000
    vertex 2.000000 0.956526 0.291646
    vertex 4.000000 0.956526 0.291646
  endloop
endfacet
facet normal -0.000000 0.962611 0.270887
  outer loop
    vertex 0.000000 0.968246 0.250000
    vertex 4.000000 0.956526 0.291646
    vertex 6.000000 0.968246 0.250000
  endloop
endfacet
facet normal 0.000508 0.955978 0.293437
  outer loop
    vertex 6.000000 0.968246 0.250000
    vertex 4.000000 0.956526 0.291646
    vertex 6.000000 0.941764 0.336275
  endloop
endfacet
facet normal -0.000518 0.942261 0.334880
  outer loop
    vertex 6.000000 0.941764 0.336275
    vertex 4.000000 0.956526 0.291646
    vertex 4.000000 0.926042 0.377419
  endloop
endfacet
facet normal 0.000509 0.925631 0.378428
  outer loop
    vertex 6.000000 0.941764 0.336275
    vertex 4.000000 0.926042 0.377419
    vertex 6.000000 0.907611 0.419811
  endloop
endfacet
facet normal -0.000518 0.907905 0.419176
  outer loop
    vertex 6.000000 0.907611 0.419811
    vertex 4.000000 0.926042 0.377419
    vertex 4.000000 0.887885 0.460065
  endloop
endfacet
facet normal 0.000509 0.887743 0.460339
  outer loop
    vertex 6.000000 0.907611 0.419811
    vertex 4.000000 0.887885 0.460065
    vertex 6.000000 0.866067 0.499928
  endloop
endfacet
facet normal -0.000518 0.866025 0.500000
  outer loop
    vertex 6.000000 0.866067 0.499928
    vertex 4.000000 0.887885 0.460065
    vertex 4.000000 0.842371 0.538899
  endloop
endfacet
facet normal 0.000509 0.842626 0.538499
  outer loop
    vertex 6.000000 0.866067 0.499928
    vertex 4.000000 0.842371 0.538899
    vertex 6.000000 0.817468 0.575973
  endloop
endfacet
facet normal -0.000518 0.816970 0.576680
  outer loop
    vertex 6.000000 0.817468 0.575973
    vertex 4.000000 0.842371 0.538899
    vertex 4.000000 0.789876 0.613267
  endloop
endfacet
facet normal 0.000509 0.790646 0.612273
  outer loop
    vertex 6.000000 0.817468 0.575973
    vertex 4.000000 0.789876 0.613267
    vertex 6.000000 0.762212 0.647327
  endloop
endfacet
facet normal -0.000517 0.761145 0.648582
  outer loop
    vertex 6.000000 0.762212 0.647327
    vertex 4.000000 0.789876 0.613267
    vertex 4.000000 0.730836 0.682553
  endloop
endfacet
facet normal 0.000508 0.732225 0.681062
  outer loop
    vertex 6.000000 0.762212 0.647327
    vertex 4.000000 0.730836 0.682553
    vertex 6.000000 0.700748 0.713409
  endloop
endfacet
facet normal -0.000517 0.699012 0.715109
  outer loop
    vertex 6.000000 0.700748 0.713409
    vertex 4.000000 0.730836 0.682553
    vertex 4.000000 0.665740 0.746184
  endloop
endfacet
facet normal 0.000507 0.667842 0.744303
  outer loop
    vertex 6.000000 0.700748 0.713409
    vertex 4.000000 0.665740 0.746184
    vertex 6.000000 0.633576 0.773681
  endloop
endfacet
facet normal -0.000516 0.631088 0.775711
  outer loop
    vertex 6.000000 0.633576 0.773681
    vertex 4.000000 0.665740 0.746184
    vertex 4.000000 0.595128 0.803631
  endloop
endfacet
facet normal 0.000506 0.598019 0.801482
  outer loop
    vertex 6.000000 0.633576 0.773681
    vertex 4.000000 0.595128 0.803631
    vertex 6.000000 0.561244 0.827650
  endloop
endfacet
facet normal -0.000514 0.557934 0.829885
  outer loop
    vertex 6.000000 0.561244 0.827650
    vertex 4.000000 0.595128 0.803631
    vertex 4.000000 0.519584 0.854419
  endloop
endfacet
facet normal 0.000504 0.523326 0.852133
  outer loop
    vertex 6.000000 0.561244 0.827650
    vertex 4.000000 0.519584 0.854419
    vertex 6.000000 0.484341 0.874879
  endloop
endfacet
facet normal -0.000512 0.480157 0.877182
  outer loop
    vertex 6.000000 0.484341 0.874879
    vertex 4.000000 0.519584 0.854419
    vertex 4.000000 0.439735 0.898128
  endloop
endfacet
facet normal 0.000503 0.444369 0.895844
  outer loop
    vertex 6.000000 0.484341 0.874879
    vertex 4.000000 0.439735 0.898128
    vertex 6.000000 0.403493 0.914983
  endloop
endfacet
facet normal -0.000510 0.398401 0.917211
  outer loop
    vertex 6.000000 0.403493 0.914983
    vertex 4.000000 0.439735 0.898128
    vertex 4.000000 0.356242 0.934394
  endloop
endfacet
facet normal 0.000500 0.361794 0.932258
  outer loop
    vertex 6.000000 0.403493 0.914983
    vertex 4.000000 0.356242 0.934394
    vertex 6.000000 0.319358 0.947634
  endloop
endfacet
facet normal -0.000508 0.313344 0.949640
  outer loop
    vertex 6.000000 0.319358 0.947634
    vertex 4.000000 0.356242 0.934394
    vertex 4.000000 0.269797 0.962917
  endloop
endfacet
facet normal 0.000498 0.276272 0.961079
  outer loop
    vertex 6.000000 0.319358 0.947634
    vertex 4.000000 0.269797 0.962917
    vertex 6.000000 0.232623 0.972567
  endloop
endfacet
facet normal -0.000505 0.225690 0.974199
  outer loop
    vertex 6.000000 0.232623 0.972567
    vertex 4.000000 0.269797 0.962917
    vertex 4.000000 0.181116 0.983462
  endloop
endfacet
facet normal 0.000495 0.188500 0.982073
  outer loop
    vertex 6.000000 0.232623 0.972567
    vertex 4.000000 0.181116 0.983462
    vertex 6.000000 0.143993 0.989579
  endloop
endfacet
facet normal -0.000503 0.136167 0.990686
  outer loop
    vertex 6.000000 0.143993 0.989579
    vertex 4.000000 0.181116 0.983462
    vertex 4.000000 0.090935 0.995857
  endloop
endfacet
facet normal 0.000492 0.099193 0.995068
  outer loop
    vertex 6.000000 0.143993 0.989579
    vertex 4.000000 0.090935 0.995857
    vertex 6.000000 0.054190 0.998531
  endloop
endfacet
facet normal -0.000499 0.045515 0.998964
  outer loop
    vertex 6.000000 0.054190 0.998531
    vertex 4.000000 0.090935 0.995857
    vertex 4.000000 -0.000000 1.000000
  endloop
endfacet
facet normal 0.000489 0.009077 0.999959
  outer loop
    vertex 6.000000 0.054190 0.998531
    vertex 4.000000 -0.000000 1.000000
    vertex 6.000000 -0.036054 0.999350
  endloop
endfacet
facet normal -0.000496 -0.045515 0.998964
  outer loop
    vertex 6.000000 -0.036054 0.999350
    vertex 4.000000 -0.000000 1.000000
    vertex 4.000000 -0.090935 0.995857
  endloop
endfacet
facet normal 0.000485 -0.081112 0.996705
  outer loop
    vertex 6.000000 -0.036054 0.999350
    vertex 4.000000 -0.090935 0.995857
    vertex 6.000000 -0.126004 0.992030
  endloop
endfacet
facet normal -0.000492 -0.136167 0.990686
  outer loop
    vertex 6.000000 -0.126004 0.992030
    vertex 4.000000 -0.090935 0.995857
    vertex 4.000000 -0.181116 0.983462
  endloop
endfacet
facet normal 0.000481 -0.170640 0.985333
  outer loop
    vertex 6.000000 -0.126004 0.992030
    vertex 4.000000 -0.181116 0.983462
    vertex 6.000000 -0.214929 0.976630
  endloop
endfacet
facet normal -0.000488 -0.225690 0.974199
  outer loop
    vertex 6.000000 -0.214929 0.976630
    vertex 4.000000 -0.181116 0.983462
    vertex 4.000000 -0.269797 0.962917
  endloop
endfacet
facet normal 0.000477 -0.258779 0.965937
  outer loop
    vertex 6.000000 -0.214929 0.976630
    vertex 4.000000 -0.269797 0.962917
    vertex 6.000000 -0.302102 0.953276
  endloop
endfacet
facet normal -0.000483 -0.313344 0.949640
  outer loop
    vertex 6.000000 -0.302102 0.953276
    vertex 4.000000 -0.269797 0.962917
    vertex 4.000000 -0.356242 0.934394
  endloop
endfacet
facet normal 0.000472 -0.344810 0.938672
  outer loop
    vertex 6.000000 -0.302102 0.953276
    vertex 4.000000 -0.356242 0.934394
    vertex 6.000000 -0.386815 0.922157
  endloop
endfacet
facet normal -0.000478 -0.398401 0.917211
  outer loop
    vertex 6.000000 -0.386815 0.922157
    vertex 4.000000 -0.356242 0.934394
    vertex 4.000000 -0.439735 0.898128
  endloop
endfacet
facet normal 0.000467 -0.428033 0.903763
  outer loop
    vertex 6.000000 -0.386815 0.922157
    vertex 4.000000 -0.439735 0.898128
    vertex 6.000000 -0.468378 0.883528
  endloop
endfacet
facet normal -0.000473 -0.480157 0.877182
  outer loop
    vertex 6.000000 -0.468378 0.883528
    vertex 4.000000 -0.439735 0.898128
    vertex 4.000000 -0.519584 0.854419
  endloop
endfacet
facet normal 0.000462 -0.507769 0.861493
  outer loop
    vertex 6.000000 -0.468378 0.883528
    vertex 4.000000 -0.519584 0.854419
    vertex 6.000000 -0.546126 0.837703
  endloop
endfacet
facet normal -0.000468 -0.557934 0.829885
  outer loop
    vertex 6.000000 -0.546126 0.837703
    vertex 4.000000 -0.519584 0.854419
    vertex 4.000000 -0.595128 0.803631
  endloop
endfacet
facet normal 0.000456 -0.583370 0.812206
  outer loop
    vertex 6.000000 -0.546126 0.837703
    vertex 4.000000 -0.595128 0.803631
    vertex 6.000000 -0.619426 0.785055
  endloop
endfacet
facet normal -0.000462 -0.631088 0.775711
  outer loop
    vertex 6.000000 -0.619426 0.785055
    vertex 4.000000 -0.595128 0.803631
    vertex 4.000000 -0.665740 0.746184
  endloop
endfacet
facet normal 0.000451 -0.654219 0.756305
  outer loop
    vertex 6.000000 -0.619426 0.785055
    vertex 4.000000 -0.665740 0.746184
    vertex 6.000000 -0.687681 0.726013
  endloop
endfacet
facet normal -0.000456 -0.699012 0.715109
  outer loop
    vertex 6.000000 -0.687681 0.726013
    vertex 4.000000 -0.665740 0.746184
    vertex 4.000000 -0.730836 0.682553
  endloop
endfacet
facet normal 0.000444 -0.719741 0.694243
  outer loop
    vertex 6.000000 -0.687681 0.726013
    vertex 4.000000 -0.730836 0.682553
    vertex 6.000000 -0.750335 0.661058
  endloop
endfacet
facet normal -0.000450 -0.761145 0.648582
  outer loop
    vertex 6.000000 -0.750335 0.661058
    vertex 4.000000 -0.730836 0.682553
    vertex 4.000000 -0.789876 0.613267
  endloop
endfacet
facet normal 0.000438 -0.779400 0.626527
  outer loop
    vertex 6.000000 -0.750335 0.661058
    vertex 4.000000 -0.789876 0.613267
    vertex 6.000000 -0.806877 0.590719
  endloop
endfacet
facet normal -0.000443 -0.816970 0.576680
  outer loop
    vertex 6.000000 -0.806877 0.590719
    vertex 4.000000 -0.789876 0.613267
    vertex 4.000000 -0.842371 0.538899
  endloop
endfacet
facet normal 0.000431 -0.832711 0.553707
  outer loop
    vertex 6.000000 -0.806877 0.590719
    vertex 4.000000 -0.842371 0.538899
    vertex 6.000000 -0.856848 0.515569
  endloop
endfacet
facet normal -0.000436 -0.866025 0.500000
  outer loop
    vertex 6.000000 -0.856848 0.515569
    vertex 4.000000 -0.842371 0.538899
    vertex 4.000000 -0.887885 0.460065
  endloop
endfacet
facet normal 0.000424 -0.879240 0.476379
  outer loop
    vertex 6.000000 -0.856848 0.515569
    vertex 4.000000 -0.887885 0.460065
    vertex 6.000000 -0.899841 0.436219
  endloop
endfacet
facet normal -0.000429 -0.907905 0.419176
  outer loop
    vertex 6.000000 -0.899841 0.436219
    vertex 4.000000 -0.887885 0.460065
    vertex 4.000000 -0.926042 0.377419
  endloop
endfacet
facet normal 0.000417 -0.918608 0.395170
  outer loop
    vertex 6.000000 -0.899841 0.436219
    vertex 4.000000 -0.926042 0.377419
    vertex 6.000000 -0.935504 0.353317
  endloop
endfacet
facet normal -0.000422 -0.942261 0.334880
  outer loop
    vertex 6.000000 -0.935504 0.353317
    vertex 4.000000 -0.926042 0.377419
    vertex 4.000000 -0.956526 0.291646
  endloop
endfacet
facet normal 0.000409 -0.950494 0.310743
  outer loop
    vertex 6.000000 -0.935504 0.353317
    vertex 4.000000 -0.956526 0.291646
    vertex 6.000000 -0.963548 0.267537
  endloop
endfacet
facet normal -0.000414 -0.968809 0.247808
  outer loop
    vertex 6.000000 -0.963548 0.267537
    vertex 4.000000 -0.956526 0.291646
    vertex 4.000000 -0.979084 0.203456
  endloop
endfacet
facet normal 0.000401 -0.974639 0.223785
  outer loop
    vertex 6.000000 -0.963548 0.267537
    vertex 4.000000 -0.979084 0.203456
    vertex 6.000000 -0.983744 0.179578
  endloop
endfacet
facet normal -0.000406 -0.987329 0.158683
  outer loop
    vertex 6.000000 -0.983744 0.179578
    vertex 4.000000 -0.979084 0.203456
    vertex 4.000000 -0.993529 0.113580
  endloop
endfacet
facet normal 0.000393 -0.990845 0.135005
  outer loop
    vertex 6.000000 -0.983744 0.179578
    vertex 4.000000 -0.993529 0.113580
    vertex 6.000000 -0.995928 0.090156
  endloop
endfacet
facet normal -0.000397 -0.997669 0.068242
  outer loop
    vertex 6.000000 -0.995928 0.090156
    vertex 4.000000 -0.993529 0.113580
    vertex 4.000000 -0.999741 0.022763
  endloop
endfacet
facet normal 0.000384 -0.998981 0.045124
  outer loop
    vertex 6.000000 -0.995928 0.090156
    vertex 4.000000 -0.999741 0.022763
    vertex 6.000000 -1.000000 0.000000
  endloop
endfacet
facet normal -0.000389 -0.999741 -0.022764
  outer loop
    vertex 6.000000 -1.000000 0.000000
    vertex 4.000000 -0.999741 0.022763
    vertex 4.000000 -0.997669 -0.068242
  endloop
endfacet
facet normal 0.000375 -0.998981 -0.045124
  outer loop
    vertex 6.000000 -1.000000 0.000000
    vertex 4.000000 -0.997669 -0.068242
    vertex 6.000000 -0.995928 -0.090156
  endloop
endfacet
facet normal -0.000380 -0.993529 -0.113580
  outer loop
    vertex 6.000000 -0.995928 -0.090156
    vertex 4.000000 -0.997669 -0.068242
    vertex 4.000000 -0.987330 -0.158683
  endloop
endfacet
facet normal 0.000366 -0.990845 -0.135005
  outer loop
    vertex 6.000000 -0.995928 -0.090156
    vertex 4.000000 -0.987330 -0.158683
    vertex 6.000000 -0.983744 -0.179578
  endloop
endfacet
facet normal -0.000370 -0.979084 -0.203456
  outer loop
    vertex 6.000000 -0.983744 -0.179578
    vertex 4.000000 -0.987330 -0.158683
    vertex 4.000000 -0.968809 -0.247808
  endloop
endfacet
facet normal 0.000357 -0.974639 -0.223785
  outer loop
    vertex 6.000000 -0.983744 -0.179578
    vertex 4.000000 -0.968809 -0.247808
    vertex 6.000000 -0.963548 -0.267537
  endloop
endfacet
facet normal -0.000361 -0.956526 -0.291646
  outer loop
    vertex 6.000000 -0.963548 -0.267537
    vertex 4.000000 -0.968809 -0.247808
    vertex 4.000000 -0.942261 -0.334880
  endloop
endfacet
facet normal 0.000347 -0.950494 -0.310743
  outer loop
    vertex 6.000000 -0.963548 -0.267537
    vertex 4.000000 -0.942261 -0.334880
    vertex 6.000000 -0.935504 -0.353317
  endloop
endfacet
facet normal -0.000351 -0.926042 -0.377419
  outer loop
    vertex 6.000000 -0.935504 -0.353317
    vertex 4.000000 -0.942261 -0.334880
    vertex 4.000000 -0.907905 -0.419177
  endloop
endfacet
facet normal 0.000337 -0.918608 -0.395170
  outer loop
    vertex 6.000000 -0.935504 -0.353317
    vertex 4.000000 -0.907905 -0.419177
    vertex 6.000000 -0.899841 -0.436219
  endloop
endfacet
facet normal -0.000340 -0.887885 -0.460065
  outer loop
    vertex 6.000000 -0.899841 -0.436219
    vertex 4.000000 -0.907905 -0.419177
    vertex 4.000000 -0.866025 -0.500000
  endloop
endfacet
facet normal 0.000326 -0.879240 -0.476379
  outer loop
    vertex 6.000000 -0.899841 -0.436219
    vertex 4.000000 -0.866025 -0.500000
    vertex 6.000000 -0.856848 -0.515569
  endloop
endfacet
facet normal -0.000330 -0.842371 -0.538899
  outer loop
    vertex 6.000000 -0.856848 -0.515569
    vertex 4.000000 -0.866025 -0.500000
    vertex 4.000000 -0.816970 -0.576680
  endloop
endfacet
facet normal 0.000315 -0.832711 -0.553707
  outer loop
    vertex 6.000000 -0.856848 -0.515569
    vertex 4.000000 -0.816970 -0.576680
    vertex 6.000000 -0.806877 -0.590719
  endloop
endfacet
facet normal -0.000319 -0.789876 -0.613266
  outer loop
    vertex 6.000000 -0.806877 -0.590719
    vertex 4.000000 -0.816970 -0.576680
    vertex 4.000000 -0.761145 -0.648582
  endloop
endfacet
facet normal 0.000304 -0.779400 -0.626527
  outer loop
    vertex 6.000000 -0.806877 -0.590719
    vertex 4.000000 -0.761145 -0.648582
    vertex 6.000000 -0.750335 -0.661058
  endloop
endfacet
facet normal -0.000308 -0.730836 -0.682553
  outer loop
    vertex 6.000000 -0.750335 -0.661058
    vertex 4.000000 -0.761145 -0.648582
    vertex 4.000000 -0.699012 -0.715110
  endloop
endfacet
facet normal 0.000293 -0.719741 -0.694243
  outer loop
    vertex 6.000000 -0.750335 -0.661058
    vertex 4.000000 -0.699012 -0.715110
    vertex 6.000000 -0.687681 -0.726013
  endloop
endfacet
facet normal -0.000296 -0.665740 -0.746184
  outer loop
    vertex 6.000000 -0.687681 -0.726013
    vertex 4.000000 -0.699012 -0.715110
    vertex 4.000000 -0.631088 -0.775711
  endloop
endfacet
facet normal 0.000281 -0.654220 -0.756305
  outer loop
    vertex 6.000000 -0.687681 -0.726013
    vertex 4.000000 -0.631088 -0.775711
    vertex 6.000000 -0.619426 -0.785055
  endloop
endfacet
facet normal -0.000284 -0.595128 -0.803631
  outer loop
    vertex 6.000000 -0.619426 -0.785055
    vertex 4.000000 -0.631088 -0.775711
    vertex 4.000000 -0.557934 -0.829885
  endloop
endfacet
facet normal 0.000269 -0.583370 -0.812206
  outer loop
    vertex 6.000000 -0.619426 -0.785055
    vertex 4.000000 -0.557934 -0.829885
    vertex 6.000000 -0.546126 -0.837703
  endloop
endfacet
facet normal -0.000272 -0.519584 -0.854419
  outer loop
    vertex 6.000000 -0.546126 -0.837703
    vertex 4.000000 -0.557934 -0.829885
    vertex 4.000000 -0.480157 -0.877183
  endloop
endfacet
facet normal 0.000257 -0.507769 -0.861493
  outer loop
    vertex 6.000000 -0.546126 -0.837703
    vertex 4.000000 -0.480157 -0.877183
    vertex 6.000000 -0.468378 -0.883528
  endloop
endfacet
facet normal -0.000260 -0.439735 -0.898128
  outer loop
    vertex 6.000000 -0.468378 -0.883528
    vertex 4.000000 -0.480157 -0.877183
    vertex 4.000000 -0.398401 -0.917211
  endloop
endfacet
facet normal 0.000245 -0.428033 -0.903763
  outer loop
    vertex 6.000000 -0.468378 -0.883528
    vertex 4.000000 -0.398401 -0.917211
    vertex 6.000000 -0.386815 -0.922157
  endloop
endfacet
facet normal -0.000247 -0.356242 -0.934394
  outer loop
    vertex 6.000000 -0.386815 -0.922157
    vertex 4.000000 -0.398401 -0.917211
    vertex 4.000000 -0.313344 -0.949640
  endloop
endfacet
facet normal 0.000232 -0.344810 -0.938672
  outer loop
    vertex 6.000000 -0.386815 -0.922157
    vertex 4.000000 -0.313344 -0.949640
    vertex 6.000000 -0.302102 -0.953276
  endloop
endfacet
facet normal -0.000234 -0.269797 -0.962917
  outer loop
    vertex 6.000000 -0.302102 -0.953276
    vertex 4.000000 -0.313344 -0.949640
    vertex 4.000000 -0.225690 -0.974199
  endloop
endfacet
facet normal 0.000219 -0.258779 -0.965937
  outer loop
    vertex 6.000000 -0.302102 -0.953276
    vertex 4.000000 -0.225690 -0.974199
    vertex 6.000000 -0.214929 -0.976630
  endloop
endfacet
facet normal -0.000221 -0.181116 -0.983462
  outer loop
    vertex 6.000000 -0.214929 -0.976630
    vertex 4.000000 -0.225690 -0.974199
    vertex 4.000000 -0.136167 -0.990686
  endloop
endfacet
facet normal 0.000205 -0.170640 -0.985333
  outer loop
    vertex 6.000000 -0.214929 -0.976630
    vertex 4.000000 -0.136167 -0.990686
    vertex 6.000000 -0.126004 -0.992030
  endloop
endfacet
facet normal -0.000207 -0.090935 -0.995857
  outer loop
    vertex 6.000000 -0.126004 -0.992030
    vertex 4.000000 -0.136167 -0.990686
    vertex 4.000000 -0.045515 -0.998964
  endloop
endfacet
facet normal 0.000191 -0.081112 -0.996705
  outer loop
    vertex 6.000000 -0.126004 -0.992030
    vertex 4.000000 -0.045515 -0.998964
    vertex 6.000000 -0.036054 -0.999350
  endloop
endfacet
facet normal -0.000193 0.000000 -1.000000
  outer loop
    vertex 6.000000 -0.036054 -0.999350
    vertex 4.000000 -0.045515 -0.998964
    vertex 4.000000 0.045515 -0.998964
  endloop
endfacet
facet normal 0.000177 0.009077 -0.999959
  outer loop
    vertex 6.000000 -0.036054 -0.999350
    vertex 4.000000 0.045515 -0.998964
    vertex 6.000000 0.054190 -0.998531
  endloop
endfacet
facet normal -0.000179 0.090935 -0.995857
  outer loop
    vertex 6.000000 0.054190 -0.998531
    vertex 4.000000 0.045515 -0.998964
    vertex 4.000000 0.136167 -0.990686
  endloop
endfacet
facet normal 0.000163 0.099193 -0.995068
  outer loop
    vertex 6.000000 0.054190 -0.998531
    vertex 4.000000 0.136167 -0.990686
    vertex 6.000000 0.143993 -0.989579
  endloop
endfacet
facet normal -0.000164 0.181116 -0.983462
  outer loop
    vertex 6.000000 0.143993 -0.989579
    vertex 4.000000 0.136167 -0.990686
    vertex 4.000000 0.225690 -0.974199
  endloop
endfacet
facet normal 0.000148 0.188500 -0.982073
  outer loop
    vertex 6.000000 0.143993 -0.989579
    vertex 4.000000 0.225690 -0.974199
    vertex 6.000000 0.232623 -0.972567
  endloop
endfacet
facet normal -0.000149 0.269797 -0.962917
  outer loop
    vertex 6.000000 0.232623 -0.972567
    vertex 4.000000 0.225690 -0.974199
    vertex 4.000000 0.313344 -0.949640
  endloop
endfacet
facet normal 0.000133 0.276272 -0.961079
  outer loop
    vertex 6.000000 0.232623 -0.972567
    vertex 4.000000 0.313344 -0.949640
    vertex 6.000000 0.319358 -0.947634
  endloop
endfacet
facet normal -0.000134 0.356242 -0.934394
  outer loop
    vertex 6.000000 0.319358 -0.947634
    vertex 4.000000 0.313344 -0.949640
    vertex 4.000000 0.398401 -0.917211
  endloop
endfacet
facet normal 0.000118 0.361794 -0.932258
  outer loop
    vertex 6.000000 0.319358 -0.947634
    vertex 4.000000 0.398401 -0.917211
    vertex 6.000000 0.403493 -0.914983
  endloop
endfacet
facet normal -0.000119 0.439735 -0.898128
  outer loop
    vertex 6.000000 0.403493 -0.914983
    vertex 4.000000 0.398401 -0.917211
    vertex 4.000000 0.480157 -0.877183
  endloop
endfacet
facet normal 0.000102 0.444369 -0.895844
  outer loop
    vertex 6.000000 0.403493 -0.914983
    vertex 4.000000 0.480157 -0.877183
    vertex 6.000000 0.484341 -0.874879
  endloop
endfacet
facet normal -0.000103 0.519584 -0.854419
  outer loop
    vertex 6.000000 0.484341 -0.874879
    vertex 4.000000 0.480157 -0.877183
    vertex 4.000000 0.557934 -0.829885
  endloop
endfacet
facet normal 0.000086 0.523326 -0.852133
  outer loop
    vertex 6.000000 0.484341 -0.874879
    vertex 4.000000 0.557934 -0.829885
    vertex 6.000000 0.561244 -0.827650
  endloop
endfacet
facet normal -0.000087 0.595128 -0.803631
  outer loop
    vertex 6.000000 0.561244 -0.827650
    vertex 4.000000 0.557934 -0.829885
    vertex 4.000000 0.631088 -0.775711
  endloop
endfacet
facet normal 0.000070 0.598019 -0.801482
  outer loop
    vertex 6.000000 0.561244 -0.827650
    vertex 4.000000 0.631088 -0.775711
    vertex 6.000000 0.633576 -0.773681
  endloop
endfacet
facet normal -0.000070 0.665740 -0.746184
  outer loop
    vertex 6.000000 0.633576 -0.773681
    vertex 4.000000 0.631088 -0.775711
    vertex 4.000000 0.699012 -0.715110
  endloop
endfacet
facet normal 0.000053 0.667842 -0.744303
  outer loop
    vertex 6.000000 0.633576 -0.773681
    vertex 4.000000 0.699012 -0.715110
    vertex 6.000000 0.700748 -0.713409
  endloop
endfacet
facet normal -0.000054 0.730836 -0.682553
  outer loop
    vertex 6.000000 0.700748 -0.713409
    vertex 4.000000 0.699012 -0.715110
    vertex 4.000000 0.761145 -0.648582
  endloop
endfacet
facet normal 0.000036 0.732225 -0.681063
  outer loop
    vertex 6.000000 0.700748 -0.713409
    vertex 4.000000 0.761145 -0.648582
    vertex 6.000000 0.762212 -0.647327
  endloop
endfacet
facet normal -0.000037 0.790141 -0.612925
  outer loop
    vertex 6.000000 0.762212 -0.647327
    vertex 4.000000 0.761145 -0.648582
    vertex 4.000000 0.817468 -0.575973
  endloop
endfacet
facet normal 0.000000 0.790646 -0.612274
  outer loop
    vertex 6.000000 0.762212 -0.647327
    vertex 4.000000 0.817468 -0.575973
    vertex 6.000000 0.817468 -0.575973
  endloop
endfacet
facet normal 0.000000 0.842626 -0.538499
  outer loop
    vertex 6.000000 0.817468 -0.575973
    vertex 4.000000 0.817468 -0.575973
    vertex 6.000000 0.866067 -0.499928
  endloop
endfacet
facet normal 0.000000 0.842626 -0.538499
  outer loop
    vertex 6.000000 0.866067 -0.499928
    vertex 4.000000 0.817468 -0.575973
    vertex 4.000000 0.866067 -0.499928
  endloop
endfacet
facet normal 0.000000 0.887743 -0.460339
  outer loop
    vertex 6.000000 0.866067 -0.499928
    vertex 4.000000 0.866067 -0.499928
    vertex 6.000000 0.907611 -0.419811
  endloop
endfacet
facet normal 0.000000 0.887743 -0.460339
  outer loop
    vertex 6.000000 0.907611 -0.419811
    vertex 4.000000 0.866067 -0.499928
    vertex 4.000000 0.907611 -0.419811
  endloop
endfacet
facet normal 0.000000 0.925631 -0.378428
  outer loop
    vertex 6.000000 0.907611 -0.419811
    vertex 4.000000 0.907611 -0.419811
    vertex 6.000000 0.941764 -0.336275
  endloop
endfacet
facet normal -0.000033 0.925911 -0.377743
  outer loop
    vertex 6.000000 0.941764 -0.336275
    vertex 4.000000 0.907611 -0.419811
    vertex 4.000000 0.942261 -0.334880
  endloop
endfacet
facet normal 0.000033 0.955978 -0.293437
  outer loop
    vertex 6.000000 0.941764 -0.336275
    vertex 4.000000 0.942261 -0.334880
    vertex 6.000000 0.968246 -0.250000
  endloop
endfacet
facet normal 0.000000 0.956196 -0.292729
  outer loop
    vertex 6.000000 0.968246 -0.250000
    vertex 4.000000 0.942261 -0.334880
    vertex 2.000000 0.942261 -0.334880
  endloop
endfacet
facet normal 0.000000 0.956196 -0.292729
  outer loop
    vertex 6.000000 0.968246 -0.250000
    vertex 2.000000 0.942261 -0.334880
    vertex 0.000000 0.968246 -0.250000
  endloop
endfacet
facet normal -0.000033 0.955978 -0.293437
  outer loop
    vertex 0.000000 0.968246 -0.250000
    vertex 2.000000 0.942261 -0.334880
    vertex 0.000000 0.941764 -0.336275
  endloop
endfacet
facet normal 0.000033 0.925911 -0.377743
  outer loop
    vertex 0.000000 0.941764 -0.336275
    vertex 2.000000 0.942261 -0.334880
    vertex 2.000000 0.907611 -0.419811
  endloop
endfacet
facet normal 0.000000 0.925631 -0.378428
  outer loop
    vertex 0.000000 0.941764 -0.336275
    vertex 2.000000 0.907611 -0.419811
    vertex 0.000000 0.907611 -0.419811
  endloop
endfacet
facet normal 0.000000 0.887743 -0.460339
  outer loop
    vertex 0.000000 0.907611 -0.419811
    vertex 2.000000 0.907611 -0.419811
    vertex 0.000000 0.866067 -0.499928
  endloop
endfacet
facet normal 0.000000 0.887743 -0.460339
  outer loop
    vertex 0.000000 0.866067 -0.499928
    vertex 2.000000 0.907611 -0.419811
    vertex 2.000000 0.866067 -0.499928
  endloop
endfacet
facet normal 0.000000 0.842626 -0.538499
  outer loop
    vertex 0.000000 0.866067 -0.499928
    vertex 2.000000 0.866067 -0.499928
    vertex 0.000000 0.817468 -0.575973
  endloop
endfacet
facet normal 0.000000 0.842626 -0.538499
  outer loop
    vertex 0.000000 0.817468 -0.575973
    vertex 2.000000 0.866067 -0.499928
    vertex 2.000000 0.817468 -0.575973
  endloop
endfacet
facet normal 0.000000 0.790646 -0.612274
  outer loop
    vertex 0.000000 0.817468 -0.575973
    vertex 2.000000 0.817468 -0.575973
    vertex 0.000000 0.762212 -0.647327
  endloop
endfacet
facet normal 0.000037 0.790141 -0.612925
  outer loop
    vertex 0.000000 0.762212 -0.647327
    vertex 2.000000 0.817468 -0.575973
    vertex 2.000000 0.761145 -0.648582
  endloop
endfacet
facet normal -0.000036 0.732225 -0.681063
  outer loop
    vertex 0.000000 0.762212 -0.647327
    vertex 2.000000 0.761145 -0.648582
    vertex 0.000000 0.700748 -0.713409
  endloop
endfacet
facet normal 0.000054 0.730836 -0.682553
  outer loop
    vertex 0.000000 0.700748 -0.713409
    vertex 2.000000 0.761145 -0.648582
    vertex 2.000000 0.699012 -0.715110
  endloop
endfacet
facet normal -0.000053 0.667842 -0.744303
  outer loop
    vertex 0.000000 0.700748 -0.713409
    vertex 2.000000 0.699012 -0.715110
    vertex 0.000000 0.633576 -0.773681
  endloop
endfacet
facet normal 0.000070 0.665740 -0.746184
  outer loop
    vertex 0.000000 0.633576 -0.773681
    vertex 2.000000 0.699012 -0.715110
    vertex 2.000000 0.631088 -0.775711
  endloop
endfacet
facet normal -0.000070 0.598019 -0.801482
  outer loop
    vertex 0.000000 0.633576 -0.773681
    vertex 2.000000 0.631088 -0.775711
    vertex 0.000000 0.561244 -0.827650
  endloop
endfacet
facet normal 0.000087 0.595128 -0.803631
  outer loop
    vertex 0.000000 0.561244 -0.827650
    vertex 2.000000 0.631088 -0.775711
    vertex 2.000000 0.557934 -0.829885
  endloop
endfacet
facet normal -0.000086 0.523326 -0.852133
  outer loop
    vertex 0.000000 0.561244 -0.827650
    vertex 2.000000 0.557934 -0.829885
    vertex 0.000000 0.484341 -0.874879
  endloop
endfacet
facet normal 0.000103 0.519584 -0.854419
  outer loop
    vertex 0.000000 0.484341 -0.874879
    vertex 2.000000 0.557934 -0.829885
    vertex 2.000000 0.480157 -0.877183
  endloop
endfacet
facet normal -0.000102 0.444369 -0.895844
  outer loop
    vertex 0.000000 0.484341 -0.874879
    vertex 2.000000 0.480157 -0.877183
    vertex 0.000000 0.403493 -0.914983
  endloop
endfacet
facet normal 0.000119 0.439735 -0.898128
  outer loop
    vertex 0.000000 0.403493 -0.914983
    vertex 2.000000 0.480157 -0.877183
    vertex 2.000000 0.398401 -0.917211
  endloop
endfacet
facet normal -0.000118 0.361794 -0.932258
  outer loop
    vertex 0.000000 0.403493 -0.914983
    vertex 2.000000 0.398401 -0.917211
    vertex 0.000000 0.319358 -0.947634
  endloop
endfacet
facet normal 0.000134 0.356242 -0.934394
  outer loop
    vertex 0.000000 0.319358 -0.947634
    vertex 2.000000 0.398401 -0.917211
    vertex 2.000000 0.313344 -0.949640
  endloop
endfacet
facet normal -0.000133 0.276272 -0.961079
  outer loop
    vertex 0.000000 0.319358 -0.947634
    vertex 2.000000 0.313344 -0.949640
    vertex 0.000000 0.232623 -0.972567
  endloop
endfacet
facet normal 0.000149 0.269797 -0.962917
  outer loop
    vertex 0.000000 0.232623 -0.972567
    vertex 2.000000 0.313344 -0.949640
    vertex 2.000000 0.225690 -0.974199
  endloop
endfacet
facet normal -0.000148 0.188500 -0.982073
  outer loop
    vertex 0.000000 0.232623 -0.972567
    vertex 2.000000 0.225690 -0.974199
    vertex 0.000000 0.143993 -0.989579
  endloop
endfacet
facet normal 0.000164 0.181116 -0.983462
  outer loop
    vertex 0.000000 0.143993 -0.989579
    vertex 2.000000 0.225690 -0.974199
    vertex 2.000000 0.136167 -0.990686
  endloop
endfacet
facet normal -0.000163 0.099193 -0.995068
  outer loop
    vertex 0.000000 0.143993 -0.989579
    vertex 2.000000 0.136167 -0.990686
    vertex 0.000000 0.054190 -0.998531
  endloop
endfacet
facet normal 0.000179 0.090935 -0.995857
  outer loop
    vertex 0.000000 0.054190 -0.998531
    vertex 2.000000 0.136167 -0.990686
    vertex 2.000000 0.045515 -0.998964
  endloop
endfacet
facet normal -0.000177 0.009077 -0.999959
  outer loop
    vertex 0.000000 0.054190 -0.998531
    vertex 2.000000 0.045515 -0.998964
    vertex 0.000000 -0.036054 -0.999350
  endloop
endfacet
facet normal 0.000193 0.000000 -1.000000
  outer loop
    vertex 0.000000 -0.036054 -0.999350
    vertex 2.000000 0.045515 -0.998964
    vertex 2.000000 -0.045515 -0.998964
  endloop
endfacet
facet normal -0.000191 -0.081112 -0.996705
  outer loop
    vertex 0.000000 -0.036054 -0.999350
    vertex 2.000000 -0.045515 -0.998964
    vertex 0.000000 -0.126004 -0.992030
  endloop
endfacet
facet normal 0.000207 -0.090935 -0.995857
  outer loop
    vertex 0.000000 -0.126004 -0.992030
    vertex 2.000000 -0.045515 -0.998964
    vertex 2.000000 -0.136167 -0.990686
  endloop
endfacet
facet normal -0.000205 -0.170640 -0.985333
  outer loop
    vertex 0.000000 -0.126004 -0.992030
    vertex 2.000000 -0.136167 -0.990686
    vertex 0.000000 -0.214929 -0.976630
  endloop
endfacet
facet normal 0.000221 -0.181116 -0.983462
  outer loop
    vertex 0.000000 -0.214929 -0.976630
    vertex 2.000000 -0.136167 -0.990686
    vertex 2.000000 -0.225690 -0.974199
  endloop
endfacet
facet normal -0.000219 -0.258779 -0.965937
  outer loop
    vertex 0.000000 -0.214929 -0.976630
    vertex 2.000000 -0.225690 -0.974199
    vertex 0.000000 -0.302102 -0.953276
  endloop
endfacet
facet normal 0.000234 -0.269797 -0.962917
  outer loop
    vertex 0.000000 -0.302102 -0.953276
    vertex 2.000000 -0.225690 -0.974199
    vertex 2.000000 -0.313344 -0.949640
  endloop
endfacet
facet normal -0.000232 -0.344810 -0.938672
  outer loop
    vertex 0.000000 -0.302102 -0.953276
    vertex 2.000000 -0.313344 -0.949640
    vertex 0.000000 -0.386815 -0.922157
  endloop
endfacet
facet normal 0.000247 -0.356242 -0.934394
  outer loop
    vertex 0.000000 -0.386815 -0.922157
    vertex 2.000000 -0.313344 -0.949640
    vertex 2.000000 -0.398401 -0.917211
  endloop
endfacet
facet normal -0.000245 -0.428033 -0.903763
  outer loop
    vertex 0.000000 -0.386815 -0.922157
    vertex 2.000000 -0.398401 -0.917211
    vertex 0.000000 -0.468378 -0.883528
  endloop
endfacet
facet normal 0.000260 -0.439735 -0.898128
  outer loop
    vertex 0.000000 -0.468378 -0.883528
    vertex 2.000000 -0.398401 -0.917211
    vertex 2.000000 -0.480157 -0.877183
  endloop
endfacet
facet normal -0.000257 -0.507769 -0.861493
  outer loop
    vertex 0.000000 -0.468378 -0.883528
    vertex 2.000000 -0.480157 -0.877183
    vertex 0.000000 -0.546126 -0.837703
  endloop
endfacet
facet normal 0.000272 -0.519584 -0.854419
  outer loop
    vertex 0.000000 -0.546126 -0.837703
    vertex 2.000000 -0.480157 -0.877183
    vertex 2.000000 -0.557934 -0.829885
  endloop
endfacet
facet normal -0.000269 -0.583370 -0.812206
  outer loop
    vertex 0.000000 -0.546126 -0.837703
    vertex 2.000000 -0.557934 -0.829885
    vertex 0.000000 -0.619426 -0.785055
  endloop
endfacet
facet normal 0.000284 -0.595128 -0.803631
  outer loop
    vertex 0.000000 -0.619426 -0.785055
    vertex 2.000000 -0.557934 -0.829885
    vertex 2.000000 -0.631088 -0.775711
  endloop
endfacet
facet normal -0.000281 -0.654220 -0.756305
  outer loop
    vertex 0.000000 -0.619426 -0.785055
    vertex 2.000000 -0.631088 -0.775711
    vertex 0.000000 -0.687681 -0.726013
  endloop
endfacet
facet normal 0.000296 -0.665740 -0.746184
  outer loop
    vertex 0.000000 -0.687681 -0.726013
    vertex 2.000000 -0.631088 -0.775711
    vertex 2.000000 -0.699012 -0.715110
  endloop
endfacet
facet normal -0.000293 -0.719741 -0.694243
  outer loop
    vertex 0.000000 -0.687681 -0.726013
    vertex 2.000000 -0.699012 -0.715110
    vertex 0.000000 -0.750335 -0.661058
  endloop
endfacet
facet normal 0.000308 -0.730836 -0.682553
  outer loop
    vertex 0.000000 -0.750335 -0.661058
    vertex 2.000000 -0.699012 -0.715110
    vertex 2.000000 -0.761145 -0.648582
  endloop
endfacet
facet normal -0.000304 -0.779400 -0.626527
  outer loop
    vertex 0.000000 -0.750335 -0.661058
    vertex 2.000000 -0.761145 -0.648582
    vertex 0.000000 -0.806877 -0.590719
  endloop
endfacet
facet normal 0.000319 -0.789876 -0.613266
  outer loop
    vertex 0.000000 -0.806877 -0.590719
    vertex 2.000000 -0.761145 -0.648582
    vertex 2.000000 -0.816970 -0.576680
  endloop
endfacet
facet normal -0.000315 -0.832711 -0.553707
  outer loop
    vertex 0.000000 -0.806877 -0.590719
    vertex 2.000000 -0.816970 -0.576680
    vertex 0.000000 -0.856848 -0.515569
  endloop
endfacet
facet normal 0.000330 -0.842371 -0.538899
  outer loop
    vertex 0.000000 -0.856848 -0.515569
    vertex 2.000000 -0.816970 -0.576680
    vertex 2.000000 -0.866025 -0.500000
  endloop
endfacet
facet normal -0.000326 -0.879240 -0.476379
  outer loop
    vertex 0.000000 -0.856848 -0.515569
    vertex 2.000000 -0.866025 -0.500000
    vertex 0.000000 -0.899841 -0.436219
  endloop
endfacet
facet normal 0.000340 -0.887885 -0.460065
  outer loop
    vertex 0.000000 -0.899841 -0.436219
    vertex 2.000000 -0.866025 -0.500000
    vertex 2.000000 -0.907905 -0.419177
  endloop
endfacet
facet normal -0.000337 -0.918608 -0.395170
  outer loop
    vertex 0.000000 -0.899841 -0.436219
    vertex 2.000000 -0.907905 -0.419177
    vertex 0.000000 -0.935504 -0.353317
  endloop
endfacet
facet normal 0.000351 -0.926042 -0.377419
  outer loop
    vertex 0.000000 -0.935504 -0.353317
    vertex 2.000000 -0.907905 -0.419177
    vertex 2.000000 -0.942261 -0.334880
  endloop
endfacet
facet normal -0.000347 -0.950494 -0.310743
  outer loop
    vertex 0.000000 -0.935504 -0.353317
    vertex 2.000000 -0.942261 -0.334880
    vertex 0.000000 -0.963548 -0.267537
  endloop
endfacet
facet normal 0.000361 -0.956526 -0.291646
  outer loop
    vertex 0.000000 -0.963548 -0.267537
    vertex 2.000000 -0.942261 -0.334880
    vertex 2.000000 -0.968809 -0.247808
  endloop
endfacet
facet normal -0.000357 -0.974639 -0.223785
  outer loop
    vertex 0.000000 -0.963548 -0.267537
    vertex 2.000000 -0.968809 -0.247808
    vertex 0.000000 -0.983744 -0.179578
  endloop
endfacet
facet normal 0.000370 -0.979084 -0.203456
  outer loop
    vertex 0.000000 -0.983744 -0.179578
    vertex 2.000000 -0.968809 -0.247808
    vertex 2.000000 -0.987330 -0.158683
  endloop
endfacet
facet normal -0.000366 -0.990845 -0.135005
  outer loop
    vertex 0.000000 -0.983744 -0.179578
    vertex 2.000000 -0.987330 -0.158683
    vertex 0.000000 -0.995928 -0.090156
  endloop
endfacet
facet normal 0.000380 -0.993529 -0.113580
  outer loop
    vertex 0.000000 -0.995928 -0.090156
    vertex 2.000000 -0.987330 -0.158683
    vertex 2.000000 -0.997669 -0.068242
  endloop
endfacet
facet normal -0.000375 -0.998981 -0.045124
  outer loop
    vertex 0.000000 -0.995928 -0.090156
    vertex 2.000000 -0.997669 -0.068242
    vertex 0.000000 -1.000000 0.000000
  endloop
endfacet
facet normal 0.000389 -0.999741 -0.022764
  outer loop
    vertex 0.000000 -1.000000 0.000000
    vertex 2.000000 -0.997669 -0.068242
    vertex 2.000000 -0.999741 0.022763
  endloop
endfacet
facet normal -0.000384 -0.998981 0.045124
  outer loop
    vertex 0.000000 -1.000000 0.000000
    vertex 2.000000 -0.999741 0.022763
    vertex 0.000000 -0.995928 0.090156
  endloop
endfacet
facet normal 0.000397 -0.997669 0.068242
  outer loop
    vertex 0.000000 -0.995928 0.090156
    vertex 2.000000 -0.999741 0.022763
    vertex 2.000000 -0.993529 0.113580
  endloop
endfacet
facet normal -0.000393 -0.990845 0.135005
  outer loop
    vertex 0.000000 -0.995928 0.090156
    vertex 2.000000 -0.993529 0.113580
    vertex 0.000000 -0.983744 0.179578
  endloop
endfacet
facet normal 0.000406 -0.987329 0.158683
  outer loop
    vertex 0.000000 -0.983744 0.179578
    vertex 2.000000 -0.993529 0.113580
    vertex 2.000000 -0.979084 0.203456
  endloop
endfacet
facet normal -0.000401 -0.974639 0.223785
  outer loop
    vertex 0.000000 -0.983744 0.179578
    vertex 2.000000 -0.979084 0.203456
    vertex 0.000000 -0.963548 0.267537
  endloop
endfacet
facet normal 0.000414 -0.968809 0.247808
  outer loop
    vertex 0.000000 -0.963548 0.267537
    vertex 2.000000 -0.979084 0.203456
    vertex 2.000000 -0.956526 0.291646
  endloop
endfacet
facet normal -0.000409 -0.950494 0.310743
  outer loop
    vertex 0.000000 -0.963548 0.267537
    vertex 2.000000 -0.956526 0.291646
    vertex 0.000000 -0.935504 0.353317
  endloop
endfacet
facet normal 0.000422 -0.942261 0.334880
  outer loop
    vertex 0.000000 -0.935504 0.353317
    vertex 2.000000 -0.956526 0.291646
    vertex 2.000000 -0.926042 0.377419
  endloop
endfacet
facet normal -0.000417 -0.918608 0.395170
  outer loop
    vertex 0.000000 -0.935504 0.353317
    vertex 2.000000 -0.926042 0.377419
    vertex 0.000000 -0.899841 0.436219
  endloop
endfacet
facet normal 0.000429 -0.907905 0.419176
  outer loop
    vertex 0.000000 -0.899841 0.436219
    vertex 2.000000 -0.926042 0.377419
    vertex 2.000000 -0.887885 0.460065
  endloop
endfacet
facet normal -0.000424 -0.879240 0.476379
  outer loop
    vertex 0.000000 -0.899841 0.436219
    vertex 2.000000 -0.887885 0.460065
    vertex 0.000000 -0.856848 0.515569
  endloop
endfacet
facet normal 0.000436 -0.866025 0.500000
  outer loop
    vertex 0.000000 -0.856848 0.515569
    vertex 2.000000 -0.887885 0.460065
    vertex 2.000000 -0.842371 0.538899
  endloop
endfacet
facet normal -0.000431 -0.832711 0.553707
  outer loop
    vertex 0.000000 -0.856848 0.515569
    vertex 2.000000 -0.842371 0.538899
    vertex 0.000000 -0.806877 0.590719
  endloop
endfacet
facet normal 0.000443 -0.816970 0.576680
  outer loop
    vertex 0.000000 -0.806877 0.590719
    vertex 2.000000 -0.842371 0.538899
    vertex 2.000000 -0.789876 0.613267
  endloop
endfacet
facet normal -0.000438 -0.779400 0.626527
  outer loop
    vertex 0.000000 -0.806877 0.590719
    vertex 2.000000 -0.789876 0.613267
    vertex 0.000000 -0.750335 0.661058
  endloop
endfacet
facet normal 0.000450 -0.761145 0.648582
  outer loop
    vertex 0.000000 -0.750335 0.661058
    vertex 2.000000 -0.789876 0.613267
    vertex 2.000000 -0.730836 0.682553
  endloop
endfacet
facet normal -0.000444 -0.719741 0.694243
  outer loop
    vertex 0.000000 -0.750335 0.661058
    vertex 2.000000 -0.730836 0.682553
    vertex 0.000000 -0.687681 0.726013
  endloop
endfacet
facet normal 0.000456 -0.699012 0.715109
  outer loop
    vertex 0.000000 -0.687681 0.726013
    vertex 2.000000 -0.730836 0.682553
    vertex 2.000000 -0.665740 0.746184
  endloop
endfacet
facet normal -0.000451 -0.654219 0.756305
  outer loop
    vertex 0.000000 -0.687681 0.726013
    vertex 2.000000 -0.665740 0.746184
    vertex 0.000000 -0.619426 0.785055
  endloop
endfacet
facet normal 0.000462 -0.631088 0.775711
  outer loop
    vertex 0.000000 -0.619426 0.785055
    vertex 2.000000 -0.665740 0.746184
    vertex 2.000000 -0.595128 0.803631
  endloop
endfacet
facet normal -0.000456 -0.583370 0.812206
  outer loop
    vertex 0.000000 -0.619426 0.785055
    vertex 2.000000 -0.595128 0.803631
    vertex 0.000000 -0.546126 0.837703
  endloop
endfacet
facet normal 0.000468 -0.557934 0.829885
  outer loop
    vertex 0.000000 -0.546126 0.837703
    vertex 2.000000 -0.595128 0.803631
    vertex 2.000000 -0.519584 0.854419
  endloop
endfacet
facet normal -0.000462 -0.507769 0.861493
  outer loop
    vertex 0.000000 -0.546126 0.837703
    vertex 2.000000 -0.519584 0.854419
    vertex 0.000000 -0.468378 0.883528
  endloop
endfacet
facet normal 0.000473 -0.480157 0.877182
  outer loop
    vertex 0.000000 -0.468378 0.883528
    vertex 2.000000 -0.519584 0.854419
    vertex 2.000000 -0.439735 0.898128
  endloop
endfacet
facet normal -0.000467 -0.428033 0.903763
  outer loop
    vertex 0.000000 -0.468378 0.883528
    vertex 2.000000 -0.439735 0.898128
    vertex 0.000000 -0.386815 0.922157
  endloop
endfacet
facet normal 0.000478 -0.398401 0.917211
  outer loop
    vertex 0.000000 -0.386815 0.922157
    vertex 2.000000 -0.439735 0.898128
    vertex 2.000000 -0.356242 0.934394
  endloop
endfacet
facet normal -0.000472 -0.344810 0.938672
  outer loop
    vertex 0.000000 -0.386815 0.922157
    vertex 2.000000 -0.356242 0.934394
    vertex 0.000000 -0.302102 0.953276
  endloop
endfacet
facet normal 0.000483 -0.313344 0.949640
  outer loop
    vertex 0.000000 -0.302102 0.953276
    vertex 2.000000 -0.356242 0.934394
    vertex 2.000000 -0.269797 0.962917
  endloop
endfacet
facet normal -0.000477 -0.258779 0.965937
  outer loop
    vertex 0.000000 -0.302102 0.953276
    vertex 2.000000 -0.269797 0.962917
    vertex 0.000000 -0.214929 0.976630
  endloop
endfacet
facet normal 0.000488 -0.225690 0.974199
  outer loop
    vertex 0.000000 -0.214929 0.976630
    vertex 2.000000 -0.269797 0.962917
    vertex 2.000000 -0.181116 0.983462
  endloop
endfacet
facet normal -0.000481 -0.170640 0.985333
  outer loop
    vertex 0.000000 -0.214929 0.976630
    vertex 2.000000 -0.181116 0.983462
    vertex 0.000000 -0.126004 0.992030
  endloop
endfacet
facet normal 0.000492 -0.136167 0.990686
  outer loop
    vertex 0.000000 -0.126004 0.992030
    vertex 2.000000 -0.181116 0.983462
    vertex 2.000000 -0.090935 0.995857
  endloop
endfacet
facet normal -0.000485 -0.081112 0.996705
  outer loop
    vertex 0.000000 -0.126004 0.992030
    vertex 2.000000 -0.090935 0.995857
    vertex 0.000000 -0.036054 0.999350
  endloop
endfacet
facet normal 0.000496 -0.045515 0.998964
  outer loop
    vertex 0.000000 -0.036054 0.999350
    vertex 2.000000 -0.090935 0.995857
    vertex 2.000000 0.000000 1.000000
  endloop
endfacet
facet normal -0.000489 0.009077 0.999959
  outer loop
    vertex 0.000000 -0.036054 0.999350
    vertex 2.000000 0.000000 1.000000
    vertex 0.000000 0.054190 0.998531
  endloop
endfacet
facet normal 0.000499 0.045515 0.998964
  outer loop
    vertex 0.000000 0.054190 0.998531
    vertex 2.000000 0.000000 1.000000
    vertex 2.000000 0.090935 0.995857
  endloop
endfacet
facet normal -0.000492 0.099193 0.995068
  outer loop
    vertex 0.000000 0.054190 0.998531
    vertex 2.000000 0.090935 0.995857
    vertex 0.000000 0.143993 0.989579
  endloop
endfacet
facet normal 0.000503 0.136167 0.990686
  outer loop
    vertex 0.000000 0.143993 0.989579
    vertex 2.000000 0.090935 0.995857
    vertex 2.000000 0.181116 0.983462
  endloop
endfacet
facet normal -0.000495 0.188500 0.982073
  outer loop
    vertex 0.000000 0.143993 0.989579
    vertex 2.000000 0.181116 0.983462
    vertex 0.000000 0.232623 0.972567
  endloop
endfacet
facet normal 0.000505 0.225690 0.974199
  outer loop
    vertex 0.000000 0.232623 0.972567
    vertex 2.000000 0.181116 0.983462
    vertex 2.000000 0.269797 0.962917
  endloop
endfacet
facet normal -0.000498 0.276272 0.961079
  outer loop
    vertex 0.000000 0.232623 0.972567
    vertex 2.000000 0.269797 0.962917
    vertex 0.000000 0.319358 0.947634
  endloop
endfacet
facet normal 0.000508 0.313344 0.949640
  outer loop
    vertex 0.000000 0.319358 0.947634
    vertex 2.000000 0.269797 0.962917
    vertex 2.000000 0.356242 0.934394
  endloop
endfacet
facet normal -0.000500 0.361794 0.932258
  outer loop
    vertex 0.000000 0.319358 0.947634
    vertex 2.000000 0.356242 0.934394
    vertex 0.000000 0.403493 0.914983
  endloop
endfacet
facet normal 0.000510 0.398401 0.917211
  outer loop
    vertex 0.000000 0.403493 0.914983
    vertex 2.000000 0.356242 0.934394
    vertex 2.000000 0.439735 0.898128
  endloop
endfacet
facet normal -0.000503 0.444369 0.895844
  outer loop
    vertex 0.000000 0.403493 0.914983
    vertex 2.000000 0.439735 0.898128
    vertex 0.000000 0.484341 0.874879
  endloop
endfacet
facet normal 0.000512 0.480157 0.877182
  outer loop
    vertex 0.000000 0.484341 0.874879
    vertex 2.000000 0.439735 0.898128
    vertex 2.000000 0.519584 0.854419
  endloop
endfacet
facet normal -0.000504 0.523326 0.852133
  outer loop
    vertex 0.000000 0.484341 0.874879
    vertex 2.000000 0.519584 0.854419
    vertex 0.000000 0.561244 0.827650
  endloop
endfacet
facet normal 0.000514 0.557934 0.829885
  outer loop
    vertex 0.000000 0.561244 0.827650
    vertex 2.000000 0.519584 0.854419
    vertex 2.000000 0.595128 0.803631
  endloop
endfacet
facet normal -0.000506 0.598019 0.801482
  outer loop
    vertex 0.000000 0.561244 0.827650
    vertex 2.000000 0.595128 0.803631
    vertex 0.000000 0.633576 0.773681
  endloop
endfacet
facet normal 0.000516 0.631088 0.775711
  outer loop
    vertex 0.000000 0.633576 0.773681
    vertex 2.000000 0.595128 0.803631
    vertex 2.000000 0.665740 0.746184
  endloop
endfacet
facet normal -0.000507 0.667842 0.744303
  outer loop
    vertex 0.000000 0.633576 0.773681
    vertex 2.000000 0.665740 0.746184
    vertex 0.000000 0.700748 0.713409
  endloop
endfacet
facet normal 0.000517 0.699012 0.715109
  outer loop
    vertex 0.000000 0.700748 0.713409
    vertex 2.000000 0.665740 0.746184
    vertex 2.000000 0.730836 0.682553
  endloop
endfacet
facet normal -0.000508 0.732225 0.681062
  outer loop
    vertex 0.000000 0.700748 0.713409
    vertex 2.000000 0.730836 0.682553
    vertex 0.000000 0.762212 0.647327
  endloop
endfacet
facet normal 0.000517 0.761145 0.648582
  outer loop
    vertex 0.000000 0.762212 0.647327
    vertex 2.000000 0.730836 0.682553
    vertex 2.000000 0.789876 0.613267
  endloop
endfacet
facet normal -0.000509 0.790646 0.612273
  outer loop
    vertex 0.000000 0.762212 0.647327
    vertex 2.000000 0.789876 0.613267
    vertex 0.000000 0.817468 0.575973
  endloop
endfacet
facet normal 0.000518 0.816970 0.576680
  outer loop
    vertex 0.000000 0.817468 0.575973
    vertex 2.000000 0.789876 0.613267
    vertex 2.000000 0.842371 0.538899
  endloop
endfacet
facet normal -0.000509 0.842626 0.538499
  outer loop
    vertex 0.000000 0.817468 0.575973
    vertex 2.000000 0.842371 0.538899
    vertex 0.000000 0.866067 0.499928
  endloop
endfacet
facet normal 0.000518 0.866025 0.500000
  outer loop
    vertex 0.000000 0.866067 0.499928
    vertex 2.000000 0.842371 0.538899
    vertex 2.000000 0.887885 0.460065
  endloop
endfacet
facet normal -0.000509 0.887743 0.460339
  outer loop
    vertex 0.000000 0.866067 0.499928
    vertex 2.000000 0.887885 0.460065
    vertex 0.000000 0.907611 0.419811
  endloop
endfacet
facet normal 0.000518 0.907905 0.419176
  outer loop
    vertex 0.000000 0.907611 0.419811
    vertex 2.000000 0.887885 0.460065
    vertex 2.000000 0.926042 0.377419
  endloop
endfacet
facet normal -0.000509 0.925631 0.378428
  outer loop
    vertex 0.000000 0.907611 0.419811
    vertex 2.000000 0.926042 0.377419
    vertex 0.000000 0.941764 0.336275
  endloop
endfacet
facet normal 0.000518 0.942261 0.334880
  outer loop
    vertex 0.000000 0.941764 0.336275
    vertex 2.000000 0.926042 0.377419
    vertex 2.000000 0.956526 0.291646
  endloop
endfacet
facet normal 0.000000 0.045515 0.998964
  outer loop
    vertex 2.000000 0.000000 1.000000
    vertex 4.000000 -0.000000 1.000000
    vertex 2.000000 0.090935 0.995857
  endloop
endfacet
facet normal -0.000000 0.045515 0.998964
  outer loop
    vertex 2.000000 0.090935 0.995857
    vertex 4.000000 -0.000000 1.000000
    vertex 4.000000 0.090935 0.995857
  endloop
endfacet
facet normal -0.000000 0.136167 0.990686
  outer loop
    vertex 2.000000 0.090935 0.995857
    vertex 4.000000 0.090935 0.995857
    vertex 2.000000 0.181116 0.983462
  endloop
endfacet
facet normal -0.000000 0.136167 0.990686
  outer loop
    vertex 2.000000 0.181116 0.983462
    vertex 4.000000 0.090935 0.995857
    vertex 4.000000 0.181116 0.983462
  endloop
endfacet
facet normal -0.000000 0.225690 0.974199
  outer loop
    vertex 2.000000 0.181116 0.983462
    vertex 4.000000 0.181116 0.983462
    vertex 2.000000 0.269797 0.962917
  endloop
endfacet
facet normal -0.000000 0.225690 0.974199
  outer loop
    vertex 2.000000 0.269797 0.962917
    vertex 4.000000 0.181116 0.983462
    vertex 4.000000 0.269797 0.962917
  endloop
endfacet
facet normal -0.000000 0.313344 0.949640
  outer loop
    vertex 2.000000 0.269797 0.962917
    vertex 4.000000 0.269797 0.962917
    vertex 2.000000 0.356242 0.934394
  endloop
endfacet
facet normal -0.000000 0.313344 0.949640
  outer loop
    vertex 2.000000 0.356242 0.934394
    vertex 4.000000 0.269797 0.962917
    vertex 4.000000 0.356242 0.934394
  endloop
endfacet
facet normal -0.000000 0.398401 0.917211
  outer loop
    vertex 2.000000 0.356242 0.934394
    vertex 4.000000 0.356242 0.934394
    vertex 2.000000 0.439735 0.898128
  endloop
endfacet
facet normal -0.000000 0.398401 0.917211
  outer loop
    vertex 2.000000 0.439735 0.898128
    vertex 4.000000 0.356242 0.934394
    vertex 4.000000 0.439735 0.898128
  endloop
endfacet
facet normal -0.000000 0.480157 0.877182
  outer loop
    vertex 2.000000 0.439735 0.898128
    vertex 4.000000 0.439735 0.898128
    vertex 2.000000 0.519584 0.854419
  endloop
endfacet
facet normal -0.000000 0.480157 0.877182
  outer loop
    vertex 2.000000 0.519584 0.854419
    vertex 4.000000 0.439735 0.898128
    vertex 4.000000 0.519584 0.854419
  endloop
endfacet
facet normal -0.000000 0.557934 0.829885
  outer loop
    vertex 2.000000 0.519584 0.854419
    vertex 4.000000 0.519584 0.854419
    vertex 2.000000 0.595128 0.803631
  endloop
endfacet
facet normal -0.000000 0.557934 0.829885
  outer loop
    vertex 2.000000 0.595128 0.803631
    vertex 4.000000 0.519584 0.854419
    vertex 4.000000 0.595128 0.803631
  endloop
endfacet
facet normal -0.000000 0.631088 0.775711
  outer loop
    vertex 2.000000 0.595128 0.803631
    vertex 4.000000 0.595128 0.803631
    vertex 2.000000 0.665740 0.746184
  endloop
endfacet
facet normal -0.000000 0.631088 0.775711
  outer loop
    vertex 2.000000 0.665740 0.746184
    vertex 4.000000 0.595128 0.803631
    vertex 4.000000 0.665740 0.746184
  endloop
endfacet
facet normal -0.000000 0.699012 0.715110
  outer loop
    vertex 2.000000 0.665740 0.746184
    vertex 4.000000 0.665740 0.746184
    vertex 2.000000 0.730836 0.682553
  endloop
endfacet
facet normal -0.000000 0.699012 0.715110
  outer loop
    vertex 2.000000 0.730836 0.682553
    vertex 4.000000 0.665740 0.746184
    vertex 4.000000 0.730836 0.682553
  endloop
endfacet
facet normal -0.000000 0.761145 0.648582
  outer loop
    vertex 2.000000 0.730836 0.682553
    vertex 4.000000 0.730836 0.682553
    vertex 2.000000 0.789876 0.613267
  endloop
endfacet
facet normal -0.000000 0.761145 0.648582
  outer loop
    vertex 2.000000 0.789876 0.613267
    vertex 4.000000 0.730836 0.682553
    vertex 4.000000 0.789876 0.613267
  endloop
endfacet
facet normal -0.000000 0.816970 0.576680
  outer loop
    vertex 2.000000 0.789876 0.613267
    vertex 4.000000 0.789876 0.613267
    vertex 2.000000 0.842371 0.538899
  endloop
endfacet
facet normal -0.000000 0.816970 0.576680
  outer loop
    vertex 2.000000 0.842371 0.538899
    vertex 4.000000 0.789876 0.613267
    vertex 4.000000 0.842371 0.538899
  endloop
endfacet
facet normal -0.000000 0.866026 0.500000
  outer loop
    vertex 2.000000 0.842371 0.538899
    vertex 4.000000 0.842371 0.538899
    vertex 2.000000 0.887885 0.460065
  endloop
endfacet
facet normal -0.000000 0.866026 0.500000
  outer loop
    vertex 2.000000 0.887885 0.460065
    vertex 4.000000 0.842371 0.538899
    vertex 4.000000 0.887885 0.460065
  endloop
endfacet
facet normal -0.000000 0.907905 0.419176
  outer loop
    vertex 2.000000 0.887885 0.460065
    vertex 4.000000 0.887885 0.460065
    vertex 2.000000 0.926042 0.377419
  endloop
endfacet
facet normal -0.000000 0.907905 0.419176
  outer loop
    vertex 2.000000 0.926042 0.377419
    vertex 4.000000 0.887885 0.460065
    vertex 4.000000 0.926042 0.377419
  endloop
endfacet
facet normal -0.000000 0.942261 0.334880
  outer loop
    vertex 2.000000 0.926042 0.377419
    vertex 4.000000 0.926042 0.377419
    vertex 2.000000 0.956526 0.291646
  endloop
endfacet
facet normal -0.000000 0.942261 0.334880
  outer loop
    vertex 2.000000 0.956526 0.291646
    vertex 4.000000 0.926042 0.377419
    vertex 4.000000 0.956526 0.291646
  endloop
endfacet
facet normal -0.000000 -0.045515 0.998964
  outer loop
    vertex 4.000000 -0.000000 1.000000
    vertex 2.000000 0.000000 1.000000
    vertex 4.000000 -0.090935 0.995857
  endloop
endfacet
facet normal 0.000000 -0.045515 0.998964
  outer loop
    vertex 4.000000 -0.090935 0.995857
    vertex 2.000000 0.000000 1.000000
    vertex 2.000000 -0.090935 0.995857
  endloop
endfacet
facet normal 0.000000 -0.136167 0.990686
  outer loop
    vertex 4.000000 -0.090935 0.995857
    vertex 2.000000 -0.090935 0.995857
    vertex 4.000000 -0.181116 0.983462
  endloop
endfacet
facet normal 0.000000 -0.136167 0.990686
  outer loop
    vertex 4.000000 -0.181116 0.983462
    vertex 2.000000 -0.090935 0.995857
    vertex 2.000000 -0.181116 0.983462
  endloop
endfacet
facet normal 0.000000 -0.225690 0.974199
  outer loop
    vertex 4.000000 -0.181116 0.983462
    vertex 2.000000 -0.181116 0.983462
    vertex 4.000000 -0.269797 0.962917
  endloop
endfacet
facet normal 0.000000 -0.225690 0.974199
  outer loop
    vertex 4.000000 -0.269797 0.962917
    vertex 2.000000 -0.181116 0.983462
    vertex 2.000000 -0.269797 0.962917
  endloop
endfacet
facet normal 0.000000 -0.313344 0.949640
  outer loop
    vertex 4.000000 -0.269797 0.962917
    vertex 2.000000 -0.269797 0.962917
    vertex 4.000000 -0.356242 0.934394
  endloop
endfacet
facet normal 0.000000 -0.313344 0.949640
  outer loop
    vertex 4.000000 -0.356242 0.934394
    vertex 2.000000 -0.269797 0.962917
    vertex 2.000000 -0.356242 0.934394
  endloop
endfacet
facet normal 0.000000 -0.398401 0.917211
  outer loop
    vertex 4.000000 -0.356242 0.934394
    vertex 2.000000 -0.356242 0.934394
    vertex 4.000000 -0.439735 0.898128
  endloop
endfacet
facet normal 0.000000 -0.398401 0.917211
  outer loop
    vertex 4.000000 -0.439735 0.898128
    vertex 2.000000 -0.356242 0.934394
    vertex 2.000000 -0.439735 0.898128
  endloop
endfacet
facet normal 0.000000 -0.480157 0.877182
  outer loop
    vertex 4.000000 -0.439735 0.898128
    vertex 2.000000 -0.439735 0.898128
    vertex 4.000000 -0.519584 0.854419
  endloop
endfacet
facet normal 0.000000 -0.480157 0.877182
  outer loop
    vertex 4.000000 -0.519584 0.854419
    vertex 2.000000 -0.439735 0.898128
    vertex 2.000000 -0.519584 0.854419
  endloop
endfacet
facet normal 0.000000 -0.557934 0.829885
  outer loop
    vertex 4.000000 -0.519584 0.854419
    vertex 2.000000 -0.519584 0.854419
    vertex 4.000000 -0.595128 0.803631
  endloop
endfacet
facet normal 0.000000 -0.557934 0.829885
  outer loop
    vertex 4.000000 -0.595128 0.803631
    vertex 2.000000 -0.519584 0.854419
    vertex 2.000000 -0.595128 0.803631
  endloop
endfacet
facet normal 0.000000 -0.631088 0.775711
  outer loop
    vertex 4.000000 -0.595128 0.803631
    vertex 2.000000 -0.595128 0.803631
    vertex 4.000000 -0.665740 0.746184
  endloop
endfacet
facet normal 0.000000 -0.631088 0.775711
  outer loop
    vertex 4.000000 -0.665740 0.746184
    vertex 2.000000 -0.595128 0.803631
    vertex 2.000000 -0.665740 0.746184
  endloop
endfacet
facet normal 0.000000 -0.699012 0.715110
  outer loop
    vertex 4.000000 -0.665740 0.746184
    vertex 2.000000 -0.665740 0.746184
    vertex 4.000000 -0.730836 0.682553
  endloop
endfacet
facet normal 0.000000 -0.699012 0.715110
  outer loop
    vertex 4.000000 -0.730836 0.682553
    vertex 2.000000 -0.665740 0.746184
    vertex 2.000000 -0.730836 0.682553
  endloop
endfacet
facet normal 0.000000 -0.761145 0.648582
  outer loop
    vertex 4.000000 -0.730836 0.682553
    vertex 2.000000 -0.730836 0.682553
    vertex 4.000000 -0.789876 0.613267
  endloop
endfacet
facet normal 0.000000 -0.761145 0.648582
  outer loop
    vertex 4.000000 -0.789876 0.613267
    vertex 2.000000 -0.730836 0.682553
    vertex 2.000000 -0.789876 0.613267
  endloop
endfacet
facet normal 0.000000 -0.816970 0.576680
  outer loop
    vertex 4.000000 -0.789876 0.613267
    vertex 2.000000 -0.789876 0.613267
    vertex 4.000000 -0.842371 0.538899
  endloop
endfacet
facet normal 0.000000 -0.816970 0.576680
  outer loop
    vertex 4.000000 -0.842371 0.538899
    vertex 2.000000 -0.789876 0.613267
    vertex 2.000000 -0.842371 0.538899
  endloop
endfacet
facet normal 0.000000 -0.866026 0.500000
  outer loop
    vertex 4.000000 -0.842371 0.538899
    vertex 2.000000 -0.842371 0.538899
    vertex 4.000000 -0.887885 0.460065
  endloop
endfacet
facet normal 0.000000 -0.866026 0.500000
  outer loop
    vertex 4.000000 -0.887885 0.460065
    vertex 2.000000 -0.842371 0.538899
    vertex 2.000000 -0.887885 0.460065
  endloop
endfacet
facet normal 0.000000 -0.907905 0.419176
  outer loop
    vertex 4.000000 -0.887885 0.460065
    vertex 2.000000 -0.887885 0.460065
    vertex 4.000000 -0.926042 0.377419
  endloop
endfacet
facet normal 0.000000 -0.907905 0.419176
  outer loop
    vertex 4.000000 -0.926042 0.377419
    vertex 2.000000 -0.887885 0.460065
    vertex 2.000000 -0.926042 0.377419
  endloop
endfacet
facet normal 0.000000 -0.942261 0.334880
  outer loop
    vertex 4.000000 -0.926042 0.377419
    vertex 2.000000 -0.926042 0.377419
    vertex 4.000000 -0.956526 0.291646
  endloop
endfacet
facet normal 0.000000 -0.942261 0.334880
  outer loop
    vertex 4.000000 -0.956526 0.291646
    vertex 2.000000 -0.926042 0.377419
    vertex 2.000000 -0.956526 0.291646
  endloop
endfacet
facet normal 0.000000 -0.968809 0.247808
  outer loop
    vertex 4.000000 -0.956526 0.291646
    vertex 2.000000 -0.956526 0.291646
    vertex 4.000000 -0.979084 0.203456
  endloop
endfacet
facet normal 0.000000 -0.968809 0.247808
  outer loop
    vertex 4.000000 -0.979084 0.203456
    vertex 2.000000 -0.956526 0.291646
    vertex 2.000000 -0.979084 0.203456
  endloop
endfacet
facet normal 0.000000 -0.987330 0.158683
  outer loop
    vertex 4.000000 -0.979084 0.203456
    vertex 2.000000 -0.979084 0.203456
    vertex 4.000000 -0.993529 0.113580
  endloop
endfacet
facet normal 0.000000 -0.987330 0.158683
  outer loop
    vertex 4.000000 -0.993529 0.113580
    vertex 2.000000 -0.979084 0.203456
    vertex 2.000000 -0.993529 0.113580
  endloop
endfacet
facet normal 0.000000 -0.997669 0.068242
  outer loop
    vertex 4.000000 -0.993529 0.113580
    vertex 2.000000 -0.993529 0.113580
    vertex 4.000000 -0.999741 0.022763
  endloop
endfacet
facet normal 0.000000 -0.997669 0.068242
  outer loop
    vertex 4.000000 -0.999741 0.022763
    vertex 2.000000 -0.993529 0.113580
    vertex 2.000000 -0.999741 0.022763
  endloop
endfacet
facet normal -0.000000 -0.999741 -0.022764
  outer loop
    vertex 4.000000 -0.999741 0.022763
    vertex 2.000000 -0.999741 0.022763
    vertex 4.000000 -0.997669 -0.068242
  endloop
endfacet
facet normal -0.000000 -0.999741 -0.022764
  outer loop
    vertex 4.000000 -0.997669 -0.068242
    vertex 2.000000 -0.999741 0.022763
    vertex 2.000000 -0.997669 -0.068242
  endloop
endfacet
facet normal -0.000000 -0.993529 -0.113580
  outer loop
    vertex 4.000000 -0.997669 -0.068242
    vertex 2.000000 -0.997669 -0.068242
    vertex 4.000000 -0.987330 -0.158683
  endloop
endfacet
facet normal -0.000000 -0.993529 -0.113580
  outer loop
    vertex 4.000000 -0.987330 -0.158683
    vertex 2.000000 -0.997669 -0.068242
    vertex 2.000000 -0.987330 -0.158683
  endloop
endfacet
facet normal -0.000000 -0.979084 -0.203456
  outer loop
    vertex 4.000000 -0.987330 -0.158683
    vertex 2.000000 -0.987330 -0.158683
    vertex 4.000000 -0.968809 -0.247808
  endloop
endfacet
facet normal -0.000000 -0.979084 -0.203456
  outer loop
    vertex 4.000000 -0.968809 -0.247808
    vertex 2.000000 -0.987330 -0.158683
    vertex 2.000000 -0.968809 -0.247808
  endloop
endfacet
facet normal -0.000000 -0.956526 -0.291646
  outer loop
    vertex 4.000000 -0.968809 -0.247808
    vertex 2.000000 -0.968809 -0.247808
    vertex 4.000000 -0.942261 -0.334880
  endloop
endfacet
facet normal -0.000000 -0.956526 -0.291646
  outer loop
    vertex 4.000000 -0.942261 -0.334880
    vertex 2.000000 -0.968809 -0.247808
    vertex 2.000000 -0.942261 -0.334880
  endloop
endfacet
facet normal -0.000000 -0.926042 -0.377419
  outer loop
    vertex 4.000000 -0.942261 -0.334880
    vertex 2.000000 -0.942261 -0.334880
    vertex 4.000000 -0.907905 -0.419177
  endloop
endfacet
facet normal -0.000000 -0.926042 -0.377419
  outer loop
    vertex 4.000000 -0.907905 -0.419177
    vertex 2.000000 -0.942261 -0.334880
    vertex 2.000000 -0.907905 -0.419177
  endloop
endfacet
facet normal -0.000000 -0.887885 -0.460065
  outer loop
    vertex 4.000000 -0.907905 -0.419177
    vertex 2.000000 -0.907905 -0.419177
    vertex 4.000000 -0.866025 -0.500000
  endloop
endfacet
facet normal -0.000000 -0.887885 -0.460065
  outer loop
    vertex 4.000000 -0.866025 -0.500000
    vertex 2.000000 -0.907905 -0.419177
    vertex 2.000000 -0.866025 -0.500000
  endloop
endfacet
facet normal -0.000000 -0.842371 -0.538899
  outer loop
    vertex 4.000000 -0.866025 -0.500000
    vertex 2.000000 -0.866025 -0.500000
    vertex 4.000000 -0.816970 -0.576680
  endloop
endfacet
facet normal -0.000000 -0.842371 -0.538899
  outer loop
    vertex 4.000000 -0.816970 -0.576680
    vertex 2.000000 -0.866025 -0.500000
    vertex 2.000000 -0.816970 -0.576680
  endloop
endfacet
facet normal -0.000000 -0.789876 -0.613267
  outer loop
    vertex 4.000000 -0.816970 -0.576680
    vertex 2.000000 -0.816970 -0.576680
    vertex 4.000000 -0.761145 -0.648582
  endloop
endfacet
facet normal -0.000000 -0.789876 -0.613267
  outer loop
    vertex 4.000000 -0.761145 -0.648582
    vertex 2.000000 -0.816970 -0.576680
    vertex 2.000000 -0.761145 -0.648582
  endloop
endfacet
facet normal -0.000000 -0.730836 -0.682553
  outer loop
    vertex 4.000000 -0.761145 -0.648582
    vertex 2.000000 -0.761145 -0.648582
    vertex 4.000000 -0.699012 -0.715110
  endloop
endfacet
facet normal -0.000000 -0.730836 -0.682553
  outer loop
    vertex 4.000000 -0.699012 -0.715110
    vertex 2.000000 -0.761145 -0.648582
    vertex 2.000000 -0.699012 -0.715110
  endloop
endfacet
facet normal -0.000000 -0.665740 -0.746184
  outer loop
    vertex 4.000000 -0.699012 -0.715110
    vertex 2.000000 -0.699012 -0.715110
    vertex 4.000000 -0.631088 -0.775711
  endloop
endfacet
facet normal -0.000000 -0.665740 -0.746184
  outer loop
    vertex 4.000000 -0.631088 -0.775711
    vertex 2.000000 -0.699012 -0.715110
    vertex 2.000000 -0.631088 -0.775711
  endloop
endfacet
facet normal -0.000000 -0.595128 -0.803631
  outer loop
    vertex 4.000000 -0.631088 -0.775711
    vertex 2.000000 -0.631088 -0.775711
    vertex 4.000000 -0.557934 -0.829885
  endloop
endfacet
facet normal -0.000000 -0.595128 -0.803631
  outer loop
    vertex 4.000000 -0.557934 -0.829885
    vertex 2.000000 -0.631088 -0.775711
    vertex 2.000000 -0.557934 -0.829885
  endloop
endfacet
facet normal -0.000000 -0.519584 -0.854419
  outer loop
    vertex 4.000000 -0.557934 -0.829885
    vertex 2.000000 -0.557934 -0.829885
    vertex 4.000000 -0.480157 -0.877183
  endloop
endfacet
facet normal -0.000000 -0.519584 -0.854419
  outer loop
    vertex 4.000000 -0.480157 -0.877183
    vertex 2.000000 -0.557934 -0.829885
    vertex 2.000000 -0.480157 -0.877183
  endloop
endfacet
facet normal -0.000000 -0.439735 -0.898128
  outer loop
    vertex 4.000000 -0.480157 -0.877183
    vertex 2.000000 -0.480157 -0.877183
    vertex 4.000000 -0.398401 -0.917211
  endloop
endfacet
facet normal -0.000000 -0.439735 -0.898128
  outer loop
    vertex 4.000000 -0.398401 -0.917211
    vertex 2.000000 -0.480157 -0.877183
    vertex 2.000000 -0.398401 -0.917211
  endloop
endfacet
facet normal -0.000000 -0.356242 -0.934394
  outer loop
    vertex 4.000000 -0.398401 -0.917211
    vertex 2.000000 -0.398401 -0.917211
    vertex 4.000000 -0.313344 -0.949640
  endloop
endfacet
facet normal -0.000000 -0.356242 -0.934394
  outer loop
    vertex 4.000000 -0.313344 -0.949640
    vertex 2.000000 -0.398401 -0.917211
    vertex 2.000000 -0.313344 -0.949640
  endloop
endfacet
facet normal -0.000000 -0.269797 -0.962917
  outer loop
    vertex 4.000000 -0.313344 -0.949640
    vertex 2.000000 -0.313344 -0.949640
    vertex 4.000000 -0.225690 -0.974199
  endloop
endfacet
facet normal -0.000000 -0.269797 -0.962917
  outer loop
    vertex 4.000000 -0.225690 -0.974199
    vertex 2.000000 -0.313344 -0.949640
    vertex 2.000000 -0.225690 -0.974199
  endloop
endfacet
facet normal -0.000000 -0.181116 -0.983462
  outer loop
    vertex 4.000000 -0.225690 -0.974199
    vertex 2.000000 -0.225690 -0.974199
    vertex 4.000000 -0.136167 -0.990686
  endloop
endfacet
facet normal -0.000000 -0.181116 -0.983462
  outer loop
    vertex 4.000000 -0.136167 -0.990686
    vertex 2.000000 -0.225690 -0.974199
    vertex 2.000000 -0.136167 -0.990686
  endloop
endfacet
facet normal -0.000000 -0.090935 -0.995857
  outer loop
    vertex 4.000000 -0.136167 -0.990686
    vertex 2.000000 -0.136167 -0.990686
    vertex 4.000000 -0.045515 -0.998964
  endloop
endfacet
facet normal -0.000000 -0.090935 -0.995857
  outer loop
    vertex 4.000000 -0.045515 -0.998964
    vertex 2.000000 -0.136167 -0.990686
    vertex 2.000000 -0.045515 -0.998964
  endloop
endfacet
facet normal 0.000000 0.000000 -1.000000
  outer loop
    vertex 4.000000 -0.045515 -0.998964
    vertex 2.000000 -0.045515 -0.998964
    vertex 4.000000 0.045515 -0.998964
  endloop
endfacet
facet normal -0.000000 0.000000 -1.000000
  outer loop
    vertex 4.000000 0.045515 -0.998964
    vertex 2.000000 -0.045515 -0.998964
    vertex 2.000000 0.045515 -0.998964
  endloop
endfacet
facet normal 0.000000 0.090935 -0.995857
  outer loop
    vertex 4.000000 0.045515 -0.998964
    vertex 2.000000 0.045515 -0.998964
    vertex 4.000000 0.136167 -0.990686
  endloop
endfacet
facet normal 0.000000 0.090935 -0.995857
  outer loop
    vertex 4.000000 0.136167 -0.990686
    vertex 2.000000 0.045515 -0.998964
    vertex 2.000000 0.136167 -0.990686
  endloop
endfacet
facet normal 0.000000 0.181116 -0.983462
  outer loop
    vertex 4.000000 0.136167 -0.990686
    vertex 2.000000 0.136167 -0.990686
    vertex 4.000000 0.225690 -0.974199
  endloop
endfacet
facet normal 0.000000 0.181116 -0.983462
  outer loop
    vertex 4.000000 0.225690 -0.974199
    vertex 2.000000 0.136167 -0.990686
    vertex 2.000000 0.225690 -0.974199
  endloop
endfacet
facet normal 0.000000 0.269797 -0.962917
  outer loop
    vertex 4.000000 0.225690 -0.974199
    vertex 2.000000 0.225690 -0.974199
    vertex 4.000000 0.313344 -0.949640
  endloop
endfacet
facet normal 0.000000 0.269797 -0.962917
  outer loop
    vertex 4.000000 0.313344 -0.949640
    vertex 2.000000 0.225690 -0.974199
    vertex 2.000000 0.313344 -0.949640
  endloop
endfacet
facet normal 0.000000 0.356242 -0.934394
  outer loop
    vertex 4.000000 0.313344 -0.949640
    vertex 2.000000 0.313344 -0.949640
    vertex 4.000000 0.398401 -0.917211
  endloop
endfacet
facet normal 0.000000 0.356242 -0.934394
  outer loop
    vertex 4.000000 0.398401 -0.917211
    vertex 2.000000 0.313344 -0.949640
    vertex 2.000000 0.398401 -0.917211
  endloop
endfacet
facet normal 0.000000 0.439735 -0.898128
  outer loop
    vertex 4.000000 0.398401 -0.917211
    vertex 2.000000 0.398401 -0.917211
    vertex 4.000000 0.480157 -0.877183
  endloop
endfacet
facet normal 0.000000 0.439735 -0.898128
  outer loop
    vertex 4.000000 0.480157 -0.877183
    vertex 2.000000 0.398401 -0.917211
    vertex 2.000000 0.480157 -0.877183
  endloop
endfacet
facet normal 0.000000 0.519584 -0.854419
  outer loop
    vertex 4.000000 0.480157 -0.877183
    vertex 2.000000 0.480157 -0.877183
    vertex 4.000000 0.557934 -0.829885
  endloop
endfacet
facet normal 0.000000 0.519584 -0.854419
  outer loop
    vertex 4.000000 0.557934 -0.829885
    vertex 2.000000 0.480157 -0.877183
    vertex 2.000000 0.557934 -0.829885
  endloop
endfacet
facet normal 0.000000 0.595128 -0.803631
  outer loop
    vertex 4.000000 0.557934 -0.829885
    vertex 2.000000 0.557934 -0.829885
    vertex 4.000000 0.631088 -0.775711
  endloop
endfacet
facet normal 0.000000 0.595128 -0.803631
  outer loop
    vertex 4.000000 0.631088 -0.775711
    vertex 2.000000 0.557934 -0.829885
    vertex 2.000000 0.631088 -0.775711
  endloop
endfacet
facet normal 0.000000 0.665740 -0.746184
  outer loop
    vertex 4.000000 0.631088 -0.775711
    vertex 2.000000 0.631088 -0.775711
    vertex 4.000000 0.699012 -0.715110
  endloop
endfacet
facet normal 0.000000 0.665740 -0.746184
  outer loop
    vertex 4.000000 0.699012 -0.715110
    vertex 2.000000 0.631088 -0.775711
    vertex 2.000000 0.699012 -0.715110
  endloop
endfacet
facet normal 0.000000 0.730836 -0.682553
  outer loop
    vertex 4.000000 0.699012 -0.715110
    vertex 2.000000 0.699012 -0.715110
    vertex 4.000000 0.761145 -0.648582
  endloop
endfacet
facet normal 0.000000 0.730836 -0.682553
  outer loop
    vertex 4.000000 0.761145 -0.648582
    vertex 2.000000 0.699012 -0.715110
    vertex 2.000000 0.761145 -0.648582
  endloop
endfacet
facet normal 0.000000 0.790141 -0.612925
  outer loop
    vertex 4.000000 0.761145 -0.648582
    vertex 2.000000 0.761145 -0.648582
    vertex 4.000000 0.817468 -0.575973
  endloop
endfacet
facet normal 0.000000 0.790141 -0.612925
  outer loop
    vertex 4.000000 0.817468 -0.575973
    vertex 2.000000 0.761145 -0.648582
    vertex 2.000000 0.817468 -0.575973
  endloop
endfacet
facet normal 0.000000 0.842626 -0.538499
  outer loop
    vertex 4.000000 0.817468 -0.575973
    vertex 2.000000 0.817468 -0.575973
    vertex 4.000000 0.866067 -0.499928
  endloop
endfacet
facet normal 0.000000 0.842626 -0.538499
  outer loop
    vertex 4.000000 0.866067 -0.499928
    vertex 2.000000 0.817468 -0.575973
    vertex 2.000000 0.866067 -0.499928
  endloop
endfacet
facet normal 0.000000 0.887743 -0.460339
  outer loop
    vertex 4.000000 0.866067 -0.499928
    vertex 2.000000 0.866067 -0.499928
    vertex 4.000000 0.907611 -0.419811
  endloop
endfacet
facet normal 0.000000 0.887743 -0.460339
  outer loop
    vertex 4.000000 0.907611 -0.419811
    vertex 2.000000 0.866067 -0.499928
    vertex 2.000000 0.907611 -0.419811
  endloop
endfacet
facet normal 0.000000 0.925911 -0.377743
  outer loop
    vertex 4.000000 0.907611 -0.419811
    vertex 2.000000 0.907611 -0.419811
    vertex 4.000000 0.942261 -0.334880
  endloop
endfacet
facet normal 0.000000 0.925911 -0.377743
  outer loop
    vertex 4.000000 0.942261 -0.334880
    vertex 2.000000 0.907611 -0.419811
    vertex 2.000000 0.942261 -0.334880
  endloop
endfacet
facet normal 0.000000 0.000000 -1.000000
  outer loop
    vertex 0.000000 0.968246 0.250000
    vertex 6.000000 0.968246 0.250000
    vertex 0.000000 0.750000 0.250000
  endloop
endfacet
facet normal 0.000000 0.000000 -1.000000
  outer loop
    vertex 0.000000 0.750000 0.250000
    vertex 6.000000 0.968246 0.250000
    vertex 6.000000 0.750000 0.250000
  endloop
endfacet
facet normal 1.000000 0.000000 0.000000
  outer loop
    vertex 6.000000 0.968246 0.250000
    vertex 6.000000 0.941764 0.336275
    vertex 6.000000 0.750000 0.250000
  endloop
endfacet
facet normal 1.000000 0.000000 0.000000
  outer loop
    vertex 6.000000 0.750000 0.250000
    vertex 6.000000 0.941764 0.336275
    vertex 6.000000 0.907611 0.419811
  endloop
endfacet
facet normal 1.000000 0.000000 0.000000
  outer loop
    vertex 6.000000 0.750000 0.250000
    vertex 6.000000 0.907611 0.419811
    vertex 6.000000 0.866067 0.499928
  endloop
endfacet
facet normal 1.000000 0.000000 0.000000
  outer loop
    vertex 6.000000 0.866067 0.499928
    vertex 6.000000 0.817468 0.575973
    vertex 6.000000 0.750000 0.250000
  endloop
endfacet
facet normal 1.000000 0.000000 0.000000
  outer loop
    vertex 6.000000 0.750000 0.250000
    vertex 6.000000 0.817468 0.575973
    vertex 6.000000 0.762212 0.647327
  endloop
endfacet
facet normal 1.000000 0.000000 -0.000000
  outer loop
    vertex 6.000000 0.750000 0.250000
    vertex 6.000000 0.762212 0.647327
    vertex 6.000000 0.700748 0.713409
  endloop
endfacet
facet normal 1.000000 0.000000 0.000000
  outer loop
    vertex 6.000000 0.700748 0.713409
    vertex 6.000000 0.633576 0.773681
    vertex 6.000000 0.750000 0.250000
  endloop
endfacet
facet normal 1.000000 0.000000 0.000000
  outer loop
    vertex 6.000000 0.750000 0.250000
    vertex 6.000000 0.633576 0.773681
    vertex 6.000000 0.561244 0.827650
  endloop
endfacet
facet normal 1.000000 0.000000 0.000000
  outer loop
    vertex 6.000000 0.750000 0.250000
    vertex 6.000000 0.561244 0.827650
    vertex 6.000000 0.484341 0.874879
  endloop
endfacet
facet normal 1.000000 0.000000 0.000000
  outer loop
    vertex 6.000000 0.484341 0.874879
    vertex 6.000000 0.403493 0.914983
    vertex 6.000000 0.750000 0.250000
  endloop
endfacet
facet normal 1.000000 0.000000 0.000000
  outer loop
    vertex 6.000000 0.750000 0.250000
    vertex 6.000000 0.403493 0.914983
    vertex 6.000000 0.319358 0.947634
  endloop
endfacet
facet normal 1.000000 0.000000 0.000000
  outer loop
    vertex 6.000000 0.750000 0.250000
    vertex 6.000000 0.319358 0.947634
    vertex 6.000000 0.232623 0.972567
  endloop
endfacet
facet normal 1.000000 0.000000 0.000000
  outer loop
    vertex 6.000000 0.232623 0.972567
    vertex 6.000000 0.143993 0.989579
    vertex 6.000000 0.750000 0.250000
  endloop
endfacet
facet normal 1.000000 0.000000 0.000000
  outer loop
    vertex 6.000000 0.750000 0.250000
    vertex 6.000000 0.143993 0.989579
    vertex 6.000000 0.054190 0.998531
  endloop
endfacet
facet normal 1.000000 0.000000 0.000000
  outer loop
    vertex 6.000000 0.750000 0.250000
    vertex 6.000000 0.054190 0.998531
    vertex 6.000000 -0.036054 0.999350
  endloop
endfacet
facet normal 1.000000 0.000000 0.000000
  outer loop
    vertex 6.000000 -0.036054 0.999350
    vertex 6.000000 -0.126004 0.992030
    vertex 6.000000 0.750000 0.250000
  endloop
endfacet
facet normal 1.000000 0.000000 0.000000
  outer loop
    vertex 6.000000 0.750000 0.250000
    vertex 6.000000 -0.126004 0.992030
    vertex 6.000000 -0.214929 0.976630
  endloop
endfacet
facet normal 1.000000 0.000000 0.000000
  outer loop
    vertex 6.000000 0.750000 0.250000
    vertex 6.000000 -0.214929 0.976630
    vertex 6.000000 -0.302102 0.953276
  endloop
endfacet
facet normal 1.000000 0.000000 0.000000
  outer loop
    vertex 6.000000 -0.302102 0.953276
    vertex 6.000000 -0.386815 0.922157
    vertex 6.000000 0.750000 0.250000
  endloop
endfacet
facet normal 1.000000 0.000000 0.000000
  outer loop
    vertex 6.000000 0.750000 0.250000
    vertex 6.000000 -0.386815 0.922157
    vertex 6.000000 -0.468378 0.883528
  endloop
endfacet
facet normal 1.000000 0.000000 0.000000
  outer loop
    vertex 6.000000 0.750000 0.250000
    vertex 6.000000 -0.468378 0.883528
    vertex 6.000000 -0.468378 -0.883528
  endloop
endfacet
facet normal 1.000000 0.000000 -0.000000
  outer loop
    vertex 6.000000 -0.468378 -0.883528
    vertex 6.000000 -0.468378 0.883528
    vertex 6.000000 -0.546126 -0.837703
  endloop
endfacet
facet normal 1.000000 0.000000 0.000000
  outer loop
    vertex 6.000000 -0.546126 -0.837703
    vertex 6.000000 -0.468378 0.883528
    vertex 6.000000 -0.546126 0.837703
  endloop
endfacet
facet normal 1.000000 0.000000 -0.000000
  outer loop
    vertex 6.000000 -0.546126 -0.837703
    vertex 6.000000 -0.546126 0.837703
    vertex 6.000000 -0.619426 -0.785055
  endloop
endfacet
facet normal 1.000000 0.000000 0.000000
  outer loop
    vertex 6.000000 -0.619426 -0.785055
    vertex 6.000000 -0.546126 0.837703
    vertex 6.000000 -0.619426 0.785055
  endloop
endfacet
facet normal 1.000000 0.000000 -0.000000
  outer loop
    vertex 6.000000 -0.619426 -0.785055
    vertex 6.000000 -0.619426 0.785055
    vertex 6.000000 -0.687681 -0.726013
  endloop
endfacet
facet normal 1.000000 0.000000 0.000000
  outer loop
    vertex 6.000000 -0.687681 -0.726013
    vertex 6.000000 -0.619426 0.785055
    vertex 6.000000 -0.687681 0.726013
  endloop
endfacet
facet normal 1.000000 0.000000 -0.000000
  outer loop
    vertex 6.000000 -0.687681 -0.726013
    vertex 6.000000 -0.687681 0.726013
    vertex 6.000000 -0.750335 -0.661058
  endloop
endfacet
facet normal 1.000000 0.000000 0.000000
  outer loop
    vertex 6.000000 -0.750335 -0.661058
    vertex 6.000000 -0.687681 0.726013
    vertex 6.000000 -0.750335 0.661058
  endloop
endfacet
facet normal 1.000000 0.000000 -0.000000
  outer loop
    vertex 6.000000 -0.750335 -0.661058
    vertex 6.000000 -0.750335 0.661058
    vertex 6.000000 -0.806877 -0.590719
  endloop
endfacet
facet normal 1.000000 0.000000 0.000000
  outer loop
    vertex 6.000000 -0.806877 -0.590719
    vertex 6.000000 -0.750335 0.661058
    vertex 6.000000 -0.806877 0.590719
  endloop
endfacet
facet normal 1.000000 0.000000 -0.000000
  outer loop
    vertex 6.000000 -0.806877 -0.590719
    vertex 6.000000 -0.806877 0.590719
    vertex 6.000000 -0.856848 -0.515569
  endloop
endfacet
facet normal 1.000000 0.000000 0.000000
  outer loop
    vertex 6.000000 -0.856848 -0.515569
    vertex 6.000000 -0.806877 0.590719
    vertex 6.000000 -0.856848 0.515569
  endloop
endfacet
facet normal 1.000000 0.000000 -0.000000
  outer loop
    vertex 6.000000 -0.856848 -0.515569
    vertex 6.000000 -0.856848 0.515569
    vertex 6.000000 -0.899841 -0.436219
  endloop
endfacet
facet normal 1.000000 0.000000 0.000000
  outer loop
    vertex 6.000000 -0.899841 -0.436219
    vertex 6.000000 -0.856848 0.515569
    vertex 6.000000 -0.899841 0.436219
  endloop
endfacet
facet normal 1.000000 0.000000 -0.000000
  outer loop
    vertex 6.000000 -0.899841 -0.436219
    vertex 6.000000 -0.899841 0.436219
    vertex 6.000000 -0.935504 -0.353317
  endloop
endfacet
facet normal 1.000000 0.000000 0.000000
  outer loop
    vertex 6.000000 -0.935504 -0.353317
    vertex 6.000000 -0.899841 0.436219
    vertex 6.000000 -0.935504 0.353317
  endloop
endfacet
facet normal 1.000000 0.000000 -0.000000
  outer loop
    vertex 6.000000 -0.935504 -0.353317
    vertex 6.000000 -0.935504 0.353317
    vertex 6.000000 -0.963548 -0.267537
  endloop
endfacet
facet normal 1.000000 0.000000 0.000000
  outer loop
    vertex 6.000000 -0.963548 -0.267537
    vertex 6.000000 -0.935504 0.353317
    vertex 6.000000 -0.963548 0.267537
  endloop
endfacet
facet normal 1.000000 0.000000 -0.000000
  outer loop
    vertex 6.000000 -0.963548 -0.267537
    vertex 6.000000 -0.963548 0.267537
    vertex 6.000000 -0.983744 -0.179578
  endloop
endfacet
facet normal 1.000000 0.000000 0.000000
  outer loop
    vertex 6.000000 -0.983744 -0.179578
    vertex 6.000000 -0.963548 0.267537
    vertex 6.000000 -0.983744 0.179578
  endloop
endfacet
facet normal 1.000000 0.000000 -0.000000
  outer loop
    vertex 6.000000 -0.983744 -0.179578
    vertex 6.000000 -0.983744 0.179578
    vertex 6.000000 -0.995928 -0.090156
  endloop
endfacet
facet normal 1.000000 0.000000 0.000000
  outer loop
    vertex 6.000000 -0.995928 -0.090156
    vertex 6.000000 -0.983744 0.179578
    vertex 6.000000 -0.995928 0.090156
  endloop
endfacet
facet normal 1.000000 0.000000 -0.000000
  outer loop
    vertex 6.000000 -0.995928 -0.090156
    vertex 6.000000 -0.995928 0.090156
    vertex 6.000000 -1.000000 0.000000
  endloop
endfacet
facet normal 1.000000 0.000000 0.000000
  outer loop
    vertex 6.000000 0.750000 0.250000
    vertex 6.000000 -0.468378 -0.883528
    vertex 6.000000 0.750000 -0.250000
  endloop
endfacet
facet normal 1.000000 0.000000 0.000000
  outer loop
    vertex 6.000000 0.750000 -0.250000
    vertex 6.000000 -0.468378 -0.883528
    vertex 6.000000 -0.386815 -0.922157
  endloop
endfacet
facet normal 1.000000 0.000000 0.000000
  outer loop
    vertex 6.000000 0.750000 -0.250000
    vertex 6.000000 -0.386815 -0.922157
    vertex 6.000000 -0.302102 -0.953276
  endloop
endfacet
facet normal 1.000000 -0.000000 0.000000
  outer loop
    vertex 6.000000 -0.302102 -0.953276
    vertex 6.000000 -0.214929 -0.976630
    vertex 6.000000 0.750000 -0.250000
  endloop
endfacet
facet normal 1.000000 0.000000 0.000000
  outer loop
    vertex 6.000000 0.750000 -0.250000
    vertex 6.000000 -0.214929 -0.976630
    vertex 6.000000 -0.126004 -0.992030
  endloop
endfacet
facet normal 1.000000 0.000000 0.000000
  outer loop
    vertex 6.000000 0.750000 -0.250000
    vertex 6.000000 -0.126004 -0.992030
    vertex 6.000000 -0.036054 -0.999350
  endloop
endfacet
facet normal 1.000000 0.000000 0.000000
  outer loop
    vertex 6.000000 -0.036054 -0.999350
    vertex 6.000000 0.054190 -0.998531
    vertex 6.000000 0.750000 -0.250000
  endloop
endfacet
facet normal 1.000000 0.000000 0.000000
  outer loop
    vertex 6.000000 0.750000 -0.250000
    vertex 6.000000 0.054190 -0.998531
    vertex 6.000000 0.143993 -0.989579
  endloop
endfacet
facet normal 1.000000 0.000000 0.000000
  outer loop
    vertex 6.000000 0.750000 -0.250000
    vertex 6.000000 0.143993 -0.989579
    vertex 6.000000 0.232623 -0.972567
  endloop
endfacet
facet normal 1.000000 0.000000 0.000000
  outer loop
    vertex 6.000000 0.232623 -0.972567
    vertex 6.000000 0.319358 -0.947634
    vertex 6.000000 0.750000 -0.250000
  endloop
endfacet
facet normal 1.000000 0.000000 0.000000
  outer loop
    vertex 6.000000 0.750000 -0.250000
    vertex 6.000000 0.319358 -0.947634
    vertex 6.000000 0.403493 -0.914983
  endloop
endfacet
facet normal 1.000000 0.000000 0.000000
  outer loop
    vertex 6.000000 0.750000 -0.250000
    vertex 6.000000 0.403493 -0.914983
    vertex 6.000000 0.484341 -0.874879
  endloop
endfacet
facet normal 1.000000 0.000000 0.000000
  outer loop
    vertex 6.000000 0.484341 -0.874879
    vertex 6.000000 0.561244 -0.827650
    vertex 6.000000 0.750000 -0.250000
  endloop
endfacet
facet normal 1.000000 0.000000 0.000000
  outer loop
    vertex 6.000000 0.750000 -0.250000
    vertex 6.000000 0.561244 -0.827650
    vertex 6.000000 0.633576 -0.773681
  endloop
endfacet
facet normal 1.000000 0.000000 0.000000
  outer loop
    vertex 6.000000 0.750000 -0.250000
    vertex 6.000000 0.633576 -0.773681
    vertex 6.000000 0.700748 -0.713409
  endloop
endfacet
facet normal 1.000000 0.000000 0.000000
  outer loop
    vertex 6.000000 0.700748 -0.713409
    vertex 6.000000 0.762212 -0.647327
    vertex 6.000000 0.750000 -0.250000
  endloop
endfacet
facet normal 1.000000 0.000000 0.000000
  outer loop
    vertex 6.000000 0.750000 -0.250000
    vertex 6.000000 0.762212 -0.647327
    vertex 6.000000 0.817468 -0.575973
  endloop
endfacet
facet normal 1.000000 0.000000 0.000000
  outer loop
    vertex 6.000000 0.750000 -0.250000
    vertex 6.000000 0.817468 -0.575973
    vertex 6.000000 0.866067 -0.499928
  endloop
endfacet
facet normal 1.000000 0.000000 -0.000000
  outer loop
    vertex 6.000000 0.866067 -0.499928
    vertex 6.000000 0.907611 -0.419811
    vertex 6.000000 0.750000 -0.250000
  endloop
endfacet
facet normal 1.000000 0.000000 0.000000
  outer loop
    vertex 6.000000 0.750000 -0.250000
    vertex 6.000000 0.907611 -0.419811
    vertex 6.000000 0.941764 -0.336275
  endloop
endfacet
facet normal 1.000000 -0.000000 0.000000
  outer loop
    vertex 6.000000 0.750000 -0.250000
    vertex 6.000000 0.941764 -0.336275
    vertex 6.000000 0.968246 -0.250000
  endloop
endfacet
facet normal -1.000000 0.000000 0.000000
  outer loop
    vertex 0.000000 0.968246 0.250000
    vertex 0.000000 0.750000 0.250000
    vertex 0.000000 0.941764 0.336275
  endloop
endfacet
facet normal -1.000000 -0.000000 0.000000
  outer loop
    vertex 0.000000 0.941764 0.336275
    vertex 0.000000 0.750000 0.250000
    vertex 0.000000 0.907611 0.419811
  endloop
endfacet
facet normal -1.000000 -0.000000 0.000000
  outer loop
    vertex 0.000000 0.907611 0.419811
    vertex 0.000000 0.750000 0.250000
    vertex 0.000000 0.866067 0.499928
  endloop
endfacet
facet normal -1.000000 -0.000000 0.000000
  outer loop
    vertex 0.000000 0.866067 0.499928
    vertex 0.000000 0.750000 0.250000
    vertex 0.000000 0.817468 0.575973
  endloop
endfacet
facet normal -1.000000 -0.000000 0.000000
  outer loop
    vertex 0.000000 0.817468 0.575973
    vertex 0.000000 0.750000 0.250000
    vertex 0.000000 0.762212 0.647327
  endloop
endfacet
facet normal -1.000000 -0.000000 0.000000
  outer loop
    vertex 0.000000 0.762212 0.647327
    vertex 0.000000 0.750000 0.250000
    vertex 0.000000 0.700748 0.713409
  endloop
endfacet
facet normal -1.000000 -0.000000 -0.000000
  outer loop
    vertex 0.000000 0.700748 0.713409
    vertex 0.000000 0.750000 0.250000
    vertex 0.000000 0.633576 0.773681
  endloop
endfacet
facet normal -1.000000 -0.000000 -0.000000
  outer loop
    vertex 0.000000 0.633576 0.773681
    vertex 0.000000 0.750000 0.250000
    vertex 0.000000 0.561244 0.827650
  endloop
endfacet
facet normal -1.000000 -0.000000 -0.000000
  outer loop
    vertex 0.000000 0.561244 0.827650
    vertex 0.000000 0.750000 0.250000
    vertex 0.000000 0.484341 0.874879
  endloop
endfacet
facet normal -1.000000 -0.000000 -0.000000
  outer loop
    vertex 0.000000 0.484341 0.874879
    vertex 0.000000 0.750000 0.250000
    vertex 0.000000 0.403493 0.914983
  endloop
endfacet
facet normal -1.000000 -0.000000 -0.000000
  outer loop
    vertex 0.000000 0.403493 0.914983
    vertex 0.000000 0.750000 0.250000
    vertex 0.000000 0.319358 0.947634
  endloop
endfacet
facet normal -1.000000 -0.000000 -0.000000
  outer loop
    vertex 0.000000 0.319358 0.947634
    vertex 0.000000 0.750000 0.250000
    vertex 0.000000 0.232623 0.972567
  endloop
endfacet
facet normal -1.000000 -0.000000 -0.000000
  outer loop
    vertex 0.000000 0.232623 0.972567
    vertex 0.000000 0.750000 0.250000
    vertex 0.000000 0.143993 0.989579
  endloop
endfacet
facet normal -1.000000 -0.000000 -0.000000
  outer loop
    vertex 0.000000 0.143993 0.989579
    vertex 0.000000 0.750000 0.250000
    vertex 0.000000 0.054190 0.998531
  endloop
endfacet
facet normal -1.000000 -0.000000 -0.000000
  outer loop
    vertex 0.000000 0.054190 0.998531
    vertex 0.000000 0.750000 0.250000
    vertex 0.000000 -0.036054 0.999350
  endloop
endfacet
facet normal -1.000000 0.000000 -0.000000
  outer loop
    vertex 0.000000 -0.036054 0.999350
    vertex 0.000000 0.750000 0.250000
    vertex 0.000000 -0.126004 0.992030
  endloop
endfacet
facet normal -1.000000 0.000000 -0.000000
  outer loop
    vertex 0.000000 -0.126004 0.992030
    vertex 0.000000 0.750000 0.250000
    vertex 0.000000 -0.214929 0.976630
  endloop
endfacet
facet normal -1.000000 0.000000 -0.000000
  outer loop
    vertex 0.000000 -0.214929 0.976630
    vertex 0.000000 0.750000 0.250000
    vertex 0.000000 -0.302102 0.953276
  endloop
endfacet
facet normal -1.000000 0.000000 -0.000000
  outer loop
    vertex 0.000000 -0.302102 0.953276
    vertex 0.000000 0.750000 0.250000
    vertex 0.000000 -0.386815 0.922157
  endloop
endfacet
facet normal -1.000000 0.000000 -0.000000
  outer loop
    vertex 0.000000 -0.386815 0.922157
    vertex 0.000000 0.750000 0.250000
    vertex 0.000000 -0.468378 0.883528
  endloop
endfacet
facet normal -1.000000 0.000000 0.000000
  outer loop
    vertex 0.000000 -0.468378 0.883528
    vertex 0.000000 0.750000 0.250000
    vertex 0.000000 0.750000 -0.250000
  endloop
endfacet
facet normal -1.000000 0.000000 0.000000
  outer loop
    vertex 0.000000 -0.468378 0.883528
    vertex 0.000000 0.750000 -0.250000
    vertex 0.000000 -0.468378 -0.883528
  endloop
endfacet
facet normal -1.000000 0.000000 0.000000
  outer loop
    vertex 0.000000 -0.468378 -0.883528
    vertex 0.000000 0.750000 -0.250000
    vertex 0.000000 -0.386815 -0.922157
  endloop
endfacet
facet normal -1.000000 0.000000 0.000000
  outer loop
    vertex 0.000000 -0.386815 -0.922157
    vertex 0.000000 0.750000 -0.250000
    vertex 0.000000 -0.302102 -0.953276
  endloop
endfacet
facet normal -1.000000 0.000000 0.000000
  outer loop
    vertex 0.000000 -0.302102 -0.953276
    vertex 0.000000 0.750000 -0.250000
    vertex 0.000000 -0.214929 -0.976630
  endloop
endfacet
facet normal -1.000000 0.000000 0.000000
  outer loop
    vertex 0.000000 -0.214929 -0.976630
    vertex 0.000000 0.750000 -0.250000
    vertex 0.000000 -0.126004 -0.992030
  endloop
endfacet
facet normal -1.000000 0.000000 0.000000
  outer loop
    vertex 0.000000 -0.126004 -0.992030
    vertex 0.000000 0.750000 -0.250000
    vertex 0.000000 -0.036054 -0.999350
  endloop
endfacet
facet normal -1.000000 0.000000 0.000000
  outer loop
    vertex 0.000000 -0.036054 -0.999350
    vertex 0.000000 0.750000 -0.250000
    vertex 0.000000 0.054190 -0.998531
  endloop
endfacet
facet normal -1.000000 0.000000 0.000000
  outer loop
    vertex 0.000000 0.054190 -0.998531
    vertex 0.000000 0.750000 -0.250000
    vertex 0.000000 0.143993 -0.989579
  endloop
endfacet
facet normal -1.000000 0.000000 0.000000
  outer loop
    vertex 0.000000 0.143993 -0.989579
    vertex 0.000000 0.750000 -0.250000
    vertex 0.000000 0.232623 -0.972567
  endloop
endfacet
facet normal -1.000000 0.000000 0.000000
  outer loop
    vertex 0.000000 0.232623 -0.972567
    vertex 0.000000 0.750000 -0.250000
    vertex 0.000000 0.319358 -0.947634
  endloop
endfacet
facet normal -1.000000 0.000000 0.000000
  outer loop
    vertex 0.000000 0.319358 -0.947634
    vertex 0.000000 0.750000 -0.250000
    vertex 0.000000 0.403493 -0.914983
  endloop
endfacet
facet normal -1.000000 0.000000 0.000000
  outer loop
    vertex 0.000000 0.403493 -0.914983
    vertex 0.000000 0.750000 -0.250000
    vertex 0.000000 0.484341 -0.874879
  endloop
endfacet
facet normal -1.000000 0.000000 0.000000
  outer loop
    vertex 0.000000 0.484341 -0.874879
    vertex 0.000000 0.750000 -0.250000
    vertex 0.000000 0.561244 -0.827650
  endloop
endfacet
facet normal -1.000000 0.000000 0.000000
  outer loop
    vertex 0.000000 0.561244 -0.827650
    vertex 0.000000 0.750000 -0.250000
    vertex 0.000000 0.633576 -0.773681
  endloop
endfacet
facet normal -1.000000 0.000000 0.000000
  outer loop
    vertex 0.000000 0.633576 -0.773681
    vertex 0.000000 0.750000 -0.250000
    vertex 0.000000 0.700748 -0.713409
  endloop
endfacet
facet normal -1.000000 0.000000 0.000000
  outer loop
    vertex 0.000000 0.700748 -0.713409
    vertex 0.000000 0.750000 -0.250000
    vertex 0.000000 0.762212 -0.647327
  endloop
endfacet
facet normal -1.000000 0.000000 0.000000
  outer loop
    vertex 0.000000 0.762212 -0.647327
    vertex 0.000000 0.750000 -0.250000
    vertex 0.000000 0.817468 -0.575973
  endloop
endfacet
facet normal -1.000000 0.000000 0.000000
  outer loop
    vertex 0.000000 0.817468 -0.575973
    vertex 0.000000 0.750000 -0.250000
    vertex 0.000000 0.866067 -0.499928
  endloop
endfacet
facet normal -1.000000 0.000000 0.000000
  outer loop
    vertex 0.000000 0.866067 -0.499928
    vertex 0.000000 0.750000 -0.250000
    vertex 0.000000 0.907611 -0.419811
  endloop
endfacet
facet normal -1.000000 0.000000 0.000000
  outer loop
    vertex 0.000000 0.907611 -0.419811
    vertex 0.000000 0.750000 -0.250000
    vertex 0.000000 0.941764 -0.336275
  endloop
endfacet
facet normal -1.000000 0.000000 0.000000
  outer loop
    vertex 0.000000 0.941764 -0.336275
    vertex 0.000000 0.750000 -0.250000
    vertex 0.000000 0.968246 -0.250000
  endloop
endfacet
facet normal -1.000000 0.000000 -0.000000
  outer loop
    vertex 0.000000 -0.468378 0.883528
    vertex 0.000000 -0.468378 -0.883528
    vertex 0.000000 -0.546126 0.837703
  endloop
endfacet
facet normal -1.000000 0.000000 0.000000
  outer loop
    vertex 0.000000 -0.546126 0.837703
    vertex 0.000000 -0.468378 -0.883528
    vertex 0.000000 -0.546126 -0.837703
  endloop
endfacet
facet normal -1.000000 0.000000 -0.000000
  outer loop
    vertex 0.000000 -0.546126 0.837703
    vertex 0.000000 -0.546126 -0.837703
    vertex 0.000000 -0.619426 0.785055
  endloop
endfacet
facet normal -1.000000 0.000000 0.000000
  outer loop
    vertex 0.000000 -0.619426 0.785055
    vertex 0.000000 -0.546126 -0.837703
    vertex 0.000000 -0.619426 -0.785055
  endloop
endfacet
facet normal -1.000000 0.000000 -0.000000
  outer loop
    vertex 0.000000 -0.619426 0.785055
    vertex 0.000000 -0.619426 -0.785055
    vertex 0.000000 -0.687681 0.726013
  endloop
endfacet
facet normal -1.000000 0.000000 0.000000
  outer loop
    vertex 0.000000 -0.687681 0.726013
    vertex 0.000000 -0.619426 -0.785055
    vertex 0.000000 -0.687681 -0.726013
  endloop
endfacet
facet normal -1.000000 0.000000 -0.000000
  outer loop
    vertex 0.000000 -0.687681 0.726013
    vertex 0.000000 -0.687681 -0.726013
    vertex 0.000000 -0.750335 0.661058
  endloop
endfacet
facet normal -1.000000 0.000000 0.000000
  outer loop
    vertex 0.000000 -0.750335 0.661058
    vertex 0.000000 -0.687681 -0.726013
    vertex 0.000000 -0.750335 -0.661058
  endloop
endfacet
facet normal -1.000000 0.000000 -0.000000
  outer loop
    vertex 0.000000 -0.750335 0.661058
    vertex 0.000000 -0.750335 -0.661058
    vertex 0.000000 -0.806877 0.590719
  endloop
endfacet
facet normal -1.000000 0.000000 0.000000
  outer loop
    vertex 0.000000 -0.806877 0.590719
    vertex 0.000000 -0.750335 -0.661058
    vertex 0.000000 -0.806877 -0.590719
  endloop
endfacet
facet normal -1.000000 0.000000 -0.000000
  outer loop
    vertex 0.000000 -0.806877 0.590719
    vertex 0.000000 -0.806877 -0.590719
    vertex 0.000000 -0.856848 0.515569
  endloop
endfacet
facet normal -1.000000 0.000000 0.000000
  outer loop
    vertex 0.000000 -0.856848 0.515569
    vertex 0.000000 -0.806877 -0.590719
    vertex 0.000000 -0.856848 -0.515569
  endloop
endfacet
facet normal -1.000000 0.000000 -0.000000
  outer loop
    vertex 0.000000 -0.856848 0.515569
    vertex 0.000000 -0.856848 -0.515569
    vertex 0.000000 -0.899841 0.436219
  endloop
endfacet
facet normal -1.000000 0.000000 0.000000
  outer loop
    vertex 0.000000 -0.899841 0.436219
    vertex 0.000000 -0.856848 -0.515569
    vertex 0.000000 -0.899841 -0.436219
  endloop
endfacet
facet normal -1.000000 0.000000 -0.000000
  outer loop
    vertex 0.000000 -0.899841 0.436219
    vertex 0.000000 -0.899841 -0.436219
    vertex 0.000000 -0.935504 0.353317
  endloop
endfacet
facet normal -1.000000 0.000000 0.000000
  outer loop
    vertex 0.000000 -0.935504 0.353317
    vertex 0.000000 -0.899841 -0.436219
    vertex 0.000000 -0.935504 -0.353317
  endloop
endfacet
facet normal -1.000000 0.000000 -0.000000
  outer loop
    vertex 0.000000 -0.935504 0.353317
    vertex 0.000000 -0.935504 -0.353317
    vertex 0.000000 -0.963548 0.267537
  endloop
endfacet
facet normal -1.000000 0.000000 0.000000
  outer loop
    vertex 0.000000 -0.963548 0.267537
    vertex 0.000000 -0.935504 -0.353317
    vertex 0.000000 -0.963548 -0.267537
  endloop
endfacet
facet normal -1.000000 0.000000 -0.000000
  outer loop
    vertex 0.000000 -0.963548 0.267537
    vertex 0.000000 -0.963548 -0.267537
    vertex 0.000000 -0.983744 0.179578
  endloop
endfacet
facet normal -1.000000 0.000000 0.000000
  outer loop
    vertex 0.000000 -0.983744 0.179578
    vertex 0.000000 -0.963548 -0.267537
    vertex 0.000000 -0.983744 -0.179578
  endloop
endfacet
facet normal -1.000000 0.000000 -0.000000
  outer loop
    vertex 0.000000 -0.983744 0.179578
    vertex 0.000000 -0.983744 -0.179578
    vertex 0.000000 -0.995928 0.090156
  endloop
endfacet
facet normal -1.000000 0.000000 0.000000
  outer loop
    vertex 0.000000 -0.995928 0.090156
    vertex 0.000000 -0.983744 -0.179578
    vertex 0.000000 -0.995928 -0.090156
  endloop
endfacet
facet normal -1.000000 0.000000 -0.000000
  outer loop
    vertex 0.000000 -0.995928 0.090156
    vertex 0.000000 -0.995928 -0.090156
    vertex 0.000000 -1.000000 0.000000
  endloop
endfacet
endsolid 8db5d86b-9a9e-479c-b81d-c6406de5a56b-ascii.stl
