solid 925050e7-ccee-431c-aa06-bc87833d71db-ascii.stl
facet normal -0.000000 1.000000 0.000000
  outer loop
    vertex 0.000000 0.343750 0.093750
    vertex 12.000000 0.343750 0.093750
    vertex 0.000000 0.343750 -0.093750
  endloop
endfacet
facet normal 0.000000 1.000000 0.000000
  outer loop
    vertex 0.000000 0.343750 -0.093750
    vertex 12.000000 0.343750 0.093750
    vertex 12.000000 0.343750 -0.093750
  endloop
endfacet
facet normal 0.000000 0.000000 1.000000
  outer loop
    vertex 0.000000 0.343750 -0.093750
    vertex 12.000000 0.343750 -0.093750
    vertex 0.000000 0.427337 -0.093750
  endloop
endfacet
facet normal -0.000000 0.000000 1.000000
  outer loop
    vertex 0.000000 0.427337 -0.093750
    vertex 12.000000 0.343750 -0.093750
    vertex 12.000000 0.427337 -0.093750
  endloop
endfacet
facet normal -0.000950 0.953127 0.302569
  outer loop
    vertex 0.000000 0.403166 0.169892
    vertex 1.714286 0.420799 0.119728
    vertex 0.000000 0.427337 0.093750
  endloop
endfacet
facet normal 0.000000 0.969753 0.244089
  outer loop
    vertex 0.000000 0.427337 0.093750
    vertex 1.714286 0.420799 0.119728
    vertex 3.428571 0.420799 0.119728
  endloop
endfacet
facet normal 0.000000 0.969753 0.244089
  outer loop
    vertex 0.000000 0.427337 0.093750
    vertex 3.428571 0.420799 0.119728
    vertex 5.142857 0.420799 0.119728
  endloop
endfacet
facet normal 0.000000 0.932472 0.361242
  outer loop
    vertex 5.142857 0.420799 0.119728
    vertex 3.428571 0.420799 0.119728
    vertex 5.142857 0.391634 0.195011
  endloop
endfacet
facet normal 0.000000 0.932472 0.361242
  outer loop
    vertex 5.142857 0.420799 0.119728
    vertex 5.142857 0.391634 0.195011
    vertex 6.857143 0.391634 0.195011
  endloop
endfacet
facet normal 0.000000 0.850217 0.526432
  outer loop
    vertex 6.857143 0.391634 0.195011
    vertex 5.142857 0.391634 0.195011
    vertex 6.857143 0.349133 0.263653
  endloop
endfacet
facet normal 0.000000 0.850217 0.526432
  outer loop
    vertex 6.857143 0.391634 0.195011
    vertex 6.857143 0.349133 0.263653
    vertex 8.571428 0.349133 0.263653
  endloop
endfacet
facet normal 0.000000 0.739009 0.673696
  outer loop
    vertex 8.571428 0.349133 0.263653
    vertex 6.857143 0.349133 0.263653
    vertex 8.571428 0.294742 0.323316
  endloop
endfacet
facet normal 0.000000 0.739009 0.673696
  outer loop
    vertex 8.571428 0.349133 0.263653
    vertex 8.571428 0.294742 0.323316
    vertex 10.285714 0.294742 0.323316
  endloop
endfacet
facet normal 0.000000 0.602635 0.798017
  outer loop
    vertex 10.285714 0.294742 0.323316
    vertex 8.571428 0.294742 0.323316
    vertex 10.285714 0.230314 0.371970
  endloop
endfacet
facet normal -0.001019 0.602634 0.798017
  outer loop
    vertex 10.285714 0.294742 0.323316
    vertex 10.285714 0.230314 0.371970
    vertex 12.000000 0.255422 0.355198
  endloop
endfacet
facet normal 0.001002 0.507259 0.861793
  outer loop
    vertex 12.000000 0.255422 0.355198
    vertex 10.285714 0.230314 0.371970
    vertex 12.000000 0.186576 0.395721
  endloop
endfacet
facet normal -0.001030 0.445738 0.895163
  outer loop
    vertex 12.000000 0.186576 0.395721
    vertex 10.285714 0.230314 0.371970
    vertex 10.285714 0.158043 0.407957
  endloop
endfacet
facet normal 0.001013 0.342099 0.939663
  outer loop
    vertex 12.000000 0.186576 0.395721
    vertex 10.285714 0.158043 0.407957
    vertex 12.000000 0.111510 0.423051
  endloop
endfacet
facet normal -0.001040 0.273663 0.961825
  outer loop
    vertex 12.000000 0.111510 0.423051
    vertex 10.285714 0.158043 0.407957
    vertex 10.285714 0.080390 0.430051
  endloop
endfacet
facet normal 0.001022 0.165533 0.986204
  outer loop
    vertex 12.000000 0.111510 0.423051
    vertex 10.285714 0.080390 0.430051
    vertex 12.000000 0.032726 0.436274
  endloop
endfacet
facet normal -0.001049 0.092268 0.995734
  outer loop
    vertex 12.000000 0.032726 0.436274
    vertex 10.285714 0.080390 0.430051
    vertex 10.285714 -0.000000 0.437500
  endloop
endfacet
facet normal 0.001031 -0.016554 0.999862
  outer loop
    vertex 12.000000 0.032726 0.436274
    vertex 10.285714 -0.000000 0.437500
    vertex 12.000000 -0.047150 0.434952
  endloop
endfacet
facet normal -0.001058 -0.092268 0.995734
  outer loop
    vertex 12.000000 -0.047150 0.434952
    vertex 10.285714 -0.000000 0.437500
    vertex 10.285714 -0.080390 0.430051
  endloop
endfacet
facet normal 0.001039 -0.198087 0.980184
  outer loop
    vertex 12.000000 -0.047150 0.434952
    vertex 10.285714 -0.080390 0.430051
    vertex 12.000000 -0.125453 0.419127
  endloop
endfacet
facet normal -0.001065 -0.273663 0.961825
  outer loop
    vertex 12.000000 -0.125453 0.419127
    vertex 10.285714 -0.080390 0.430051
    vertex 10.285714 -0.158043 0.407957
  endloop
endfacet
facet normal 0.001045 -0.373017 0.927824
  outer loop
    vertex 12.000000 -0.125453 0.419127
    vertex 10.285714 -0.158043 0.407957
    vertex 12.000000 -0.199573 0.389328
  endloop
endfacet
facet normal -0.001071 -0.445738 0.895163
  outer loop
    vertex 12.000000 -0.199573 0.389328
    vertex 10.285714 -0.158043 0.407957
    vertex 10.285714 -0.230314 0.371970
  endloop
endfacet
facet normal 0.001051 -0.535509 0.844529
  outer loop
    vertex 12.000000 -0.199573 0.389328
    vertex 10.285714 -0.230314 0.371970
    vertex 12.000000 -0.267040 0.346549
  endloop
endfacet
facet normal -0.001077 -0.602634 0.798017
  outer loop
    vertex 12.000000 -0.267040 0.346549
    vertex 10.285714 -0.230314 0.371970
    vertex 10.285714 -0.294742 0.323316
  endloop
endfacet
facet normal 0.001056 -0.680146 0.733076
  outer loop
    vertex 12.000000 -0.267040 0.346549
    vertex 10.285714 -0.294742 0.323316
    vertex 12.000000 -0.325603 0.292214
  endloop
endfacet
facet normal -0.001081 -0.739008 0.673695
  outer loop
    vertex 12.000000 -0.325603 0.292214
    vertex 10.285714 -0.294742 0.323316
    vertex 10.285714 -0.349133 0.263653
  endloop
endfacet
facet normal 0.001060 -0.802106 0.597181
  outer loop
    vertex 12.000000 -0.325603 0.292214
    vertex 10.285714 -0.349133 0.263653
    vertex 12.000000 -0.373309 0.228137
  endloop
endfacet
facet normal -0.001084 -0.850217 0.526432
  outer loop
    vertex 12.000000 -0.373309 0.228137
    vertex 10.285714 -0.349133 0.263653
    vertex 10.285714 -0.391634 0.195011
  endloop
endfacet
facet normal 0.001063 -0.897322 0.441374
  outer loop
    vertex 12.000000 -0.373309 0.228137
    vertex 10.285714 -0.391634 0.195011
    vertex 12.000000 -0.408569 0.156453
  endloop
endfacet
facet normal -0.001087 -0.932472 0.361242
  outer loop
    vertex 12.000000 -0.408569 0.156453
    vertex 10.285714 -0.391634 0.195011
    vertex 10.285714 -0.420799 0.119728
  endloop
endfacet
facet normal 0.001065 -0.962620 0.270852
  outer loop
    vertex 12.000000 -0.408569 0.156453
    vertex 10.285714 -0.420799 0.119728
    vertex 12.000000 -0.430206 0.079553
  endloop
endfacet
facet normal -0.001088 -0.982973 0.183749
  outer loop
    vertex 12.000000 -0.430206 0.079553
    vertex 10.285714 -0.420799 0.119728
    vertex 10.285714 -0.435634 0.040367
  endloop
endfacet
facet normal 0.001066 -0.995823 0.091299
  outer loop
    vertex 12.000000 -0.430206 0.079553
    vertex 10.285714 -0.435634 0.040367
    vertex 12.000000 -0.437500 0.000000
  endloop
endfacet
facet normal -0.001089 -0.999999 0.000000
  outer loop
    vertex 12.000000 -0.437500 0.000000
    vertex 10.285714 -0.435634 0.040367
    vertex 10.285714 -0.435634 -0.040367
  endloop
endfacet
facet normal 0.001066 -0.995823 -0.091299
  outer loop
    vertex 12.000000 -0.437500 0.000000
    vertex 10.285714 -0.435634 -0.040367
    vertex 12.000000 -0.430206 -0.079553
  endloop
endfacet
facet normal -0.001088 -0.982973 -0.183749
  outer loop
    vertex 12.000000 -0.430206 -0.079553
    vertex 10.285714 -0.435634 -0.040367
    vertex 10.285714 -0.420799 -0.119728
  endloop
endfacet
facet normal 0.001065 -0.962620 -0.270852
  outer loop
    vertex 12.000000 -0.430206 -0.079553
    vertex 10.285714 -0.420799 -0.119728
    vertex 12.000000 -0.408569 -0.156453
  endloop
endfacet
facet normal -0.001087 -0.932472 -0.361242
  outer loop
    vertex 12.000000 -0.408569 -0.156453
    vertex 10.285714 -0.420799 -0.119728
    vertex 10.285714 -0.391634 -0.195011
  endloop
endfacet
facet normal 0.001063 -0.897322 -0.441374
  outer loop
    vertex 12.000000 -0.408569 -0.156453
    vertex 10.285714 -0.391634 -0.195011
    vertex 12.000000 -0.373309 -0.228137
  endloop
endfacet
facet normal -0.001084 -0.850217 -0.526432
  outer loop
    vertex 12.000000 -0.373309 -0.228137
    vertex 10.285714 -0.391634 -0.195011
    vertex 10.285714 -0.349133 -0.263653
  endloop
endfacet
facet normal 0.001060 -0.802106 -0.597181
  outer loop
    vertex 12.000000 -0.373309 -0.228137
    vertex 10.285714 -0.349133 -0.263653
    vertex 12.000000 -0.325603 -0.292214
  endloop
endfacet
facet normal -0.001081 -0.739008 -0.673695
  outer loop
    vertex 12.000000 -0.325603 -0.292214
    vertex 10.285714 -0.349133 -0.263653
    vertex 10.285714 -0.294742 -0.323316
  endloop
endfacet
facet normal 0.001056 -0.680146 -0.733076
  outer loop
    vertex 12.000000 -0.325603 -0.292214
    vertex 10.285714 -0.294742 -0.323316
    vertex 12.000000 -0.267040 -0.346549
  endloop
endfacet
facet normal -0.001077 -0.602634 -0.798017
  outer loop
    vertex 12.000000 -0.267040 -0.346549
    vertex 10.285714 -0.294742 -0.323316
    vertex 10.285714 -0.230314 -0.371970
  endloop
endfacet
facet normal 0.001051 -0.535509 -0.844529
  outer loop
    vertex 12.000000 -0.267040 -0.346549
    vertex 10.285714 -0.230314 -0.371970
    vertex 12.000000 -0.199573 -0.389328
  endloop
endfacet
facet normal -0.001071 -0.445738 -0.895163
  outer loop
    vertex 12.000000 -0.199573 -0.389328
    vertex 10.285714 -0.230314 -0.371970
    vertex 10.285714 -0.158043 -0.407957
  endloop
endfacet
facet normal 0.001045 -0.373017 -0.927824
  outer loop
    vertex 12.000000 -0.199573 -0.389328
    vertex 10.285714 -0.158043 -0.407957
    vertex 12.000000 -0.125453 -0.419127
  endloop
endfacet
facet normal -0.001065 -0.273663 -0.961825
  outer loop
    vertex 12.000000 -0.125453 -0.419127
    vertex 10.285714 -0.158043 -0.407957
    vertex 10.285714 -0.080390 -0.430051
  endloop
endfacet
facet normal 0.001039 -0.198087 -0.980184
  outer loop
    vertex 12.000000 -0.125453 -0.419127
    vertex 10.285714 -0.080390 -0.430051
    vertex 12.000000 -0.047150 -0.434952
  endloop
endfacet
facet normal -0.001058 -0.092268 -0.995734
  outer loop
    vertex 12.000000 -0.047150 -0.434952
    vertex 10.285714 -0.080390 -0.430051
    vertex 10.285714 0.000000 -0.437500
  endloop
endfacet
facet normal 0.001031 -0.016554 -0.999862
  outer loop
    vertex 12.000000 -0.047150 -0.434952
    vertex 10.285714 0.000000 -0.437500
    vertex 12.000000 0.032726 -0.436274
  endloop
endfacet
facet normal -0.001049 0.092268 -0.995734
  outer loop
    vertex 12.000000 0.032726 -0.436274
    vertex 10.285714 0.000000 -0.437500
    vertex 10.285714 0.080390 -0.430051
  endloop
endfacet
facet normal 0.001022 0.165533 -0.986204
  outer loop
    vertex 12.000000 0.032726 -0.436274
    vertex 10.285714 0.080390 -0.430051
    vertex 12.000000 0.111510 -0.423051
  endloop
endfacet
facet normal -0.001040 0.273663 -0.961825
  outer loop
    vertex 12.000000 0.111510 -0.423051
    vertex 10.285714 0.080390 -0.430051
    vertex 10.285714 0.158043 -0.407957
  endloop
endfacet
facet normal 0.001013 0.342099 -0.939663
  outer loop
    vertex 12.000000 0.111510 -0.423051
    vertex 10.285714 0.158043 -0.407957
    vertex 12.000000 0.186576 -0.395721
  endloop
endfacet
facet normal -0.001030 0.445738 -0.895163
  outer loop
    vertex 12.000000 0.186576 -0.395721
    vertex 10.285714 0.158043 -0.407957
    vertex 10.285714 0.230314 -0.371970
  endloop
endfacet
facet normal 0.001002 0.507259 -0.861793
  outer loop
    vertex 12.000000 0.186576 -0.395721
    vertex 10.285714 0.230314 -0.371970
    vertex 12.000000 0.255422 -0.355198
  endloop
endfacet
facet normal -0.001019 0.602634 -0.798017
  outer loop
    vertex 12.000000 0.255422 -0.355198
    vertex 10.285714 0.230314 -0.371970
    vertex 10.285714 0.294742 -0.323316
  endloop
endfacet
facet normal 0.000990 0.655507 -0.755189
  outer loop
    vertex 12.000000 0.255422 -0.355198
    vertex 10.285714 0.294742 -0.323316
    vertex 12.000000 0.315751 -0.302832
  endloop
endfacet
facet normal -0.001007 0.739008 -0.673695
  outer loop
    vertex 12.000000 0.315751 -0.302832
    vertex 10.285714 0.294742 -0.323316
    vertex 10.285714 0.349133 -0.263653
  endloop
endfacet
facet normal 0.000978 0.781898 -0.623405
  outer loop
    vertex 12.000000 0.315751 -0.302832
    vertex 10.285714 0.349133 -0.263653
    vertex 12.000000 0.365553 -0.240369
  endloop
endfacet
facet normal -0.000994 0.850217 -0.526432
  outer loop
    vertex 12.000000 0.365553 -0.240369
    vertex 10.285714 0.349133 -0.263653
    vertex 10.285714 0.391634 -0.195011
  endloop
endfacet
facet normal 0.000964 0.882220 -0.470836
  outer loop
    vertex 12.000000 0.365553 -0.240369
    vertex 10.285714 0.391634 -0.195011
    vertex 12.000000 0.403166 -0.169892
  endloop
endfacet
facet normal -0.000980 0.932472 -0.361242
  outer loop
    vertex 12.000000 0.403166 -0.169892
    vertex 10.285714 0.391634 -0.195011
    vertex 10.285714 0.420799 -0.119728
  endloop
endfacet
facet normal 0.000950 0.953127 -0.302569
  outer loop
    vertex 12.000000 0.403166 -0.169892
    vertex 10.285714 0.420799 -0.119728
    vertex 12.000000 0.427337 -0.093750
  endloop
endfacet
facet normal 0.000000 0.969753 -0.244089
  outer loop
    vertex 12.000000 0.427337 -0.093750
    vertex 10.285714 0.420799 -0.119728
    vertex 8.571428 0.420799 -0.119728
  endloop
endfacet
facet normal 0.000000 0.969753 -0.244089
  outer loop
    vertex 12.000000 0.427337 -0.093750
    vertex 8.571428 0.420799 -0.119728
    vertex 6.857143 0.420799 -0.119728
  endloop
endfacet
facet normal 0.000000 0.932472 -0.361242
  outer loop
    vertex 6.857143 0.420799 -0.119728
    vertex 8.571428 0.420799 -0.119728
    vertex 6.857143 0.391634 -0.195011
  endloop
endfacet
facet normal 0.000000 0.932472 -0.361242
  outer loop
    vertex 6.857143 0.420799 -0.119728
    vertex 6.857143 0.391634 -0.195011
    vertex 5.142857 0.391634 -0.195011
  endloop
endfacet
facet normal 0.000000 0.850217 -0.526432
  outer loop
    vertex 5.142857 0.391634 -0.195011
    vertex 6.857143 0.391634 -0.195011
    vertex 5.142857 0.349133 -0.263653
  endloop
endfacet
facet normal 0.000000 0.850217 -0.526432
  outer loop
    vertex 5.142857 0.391634 -0.195011
    vertex 5.142857 0.349133 -0.263653
    vertex 3.428571 0.349133 -0.263653
  endloop
endfacet
facet normal 0.000000 0.739009 -0.673696
  outer loop
    vertex 3.428571 0.349133 -0.263653
    vertex 5.142857 0.349133 -0.263653
    vertex 3.428571 0.294742 -0.323316
  endloop
endfacet
facet normal 0.000000 0.739009 -0.673696
  outer loop
    vertex 3.428571 0.349133 -0.263653
    vertex 3.428571 0.294742 -0.323316
    vertex 1.714286 0.294742 -0.323316
  endloop
endfacet
facet normal 0.000000 0.602635 -0.798017
  outer loop
    vertex 1.714286 0.294742 -0.323316
    vertex 3.428571 0.294742 -0.323316
    vertex 1.714286 0.230314 -0.371970
  endloop
endfacet
facet normal 0.001019 0.602634 -0.798017
  outer loop
    vertex 1.714286 0.294742 -0.323316
    vertex 1.714286 0.230314 -0.371970
    vertex 0.000000 0.255422 -0.355198
  endloop
endfacet
facet normal -0.001002 0.507259 -0.861793
  outer loop
    vertex 0.000000 0.255422 -0.355198
    vertex 1.714286 0.230314 -0.371970
    vertex 0.000000 0.186576 -0.395721
  endloop
endfacet
facet normal 0.001030 0.445738 -0.895163
  outer loop
    vertex 0.000000 0.186576 -0.395721
    vertex 1.714286 0.230314 -0.371970
    vertex 1.714286 0.158043 -0.407957
  endloop
endfacet
facet normal -0.001013 0.342099 -0.939664
  outer loop
    vertex 0.000000 0.186576 -0.395721
    vertex 1.714286 0.158043 -0.407957
    vertex 0.000000 0.111510 -0.423051
  endloop
endfacet
facet normal 0.001040 0.273663 -0.961825
  outer loop
    vertex 0.000000 0.111510 -0.423051
    vertex 1.714286 0.158043 -0.407957
    vertex 1.714286 0.080390 -0.430051
  endloop
endfacet
facet normal -0.001022 0.165533 -0.986204
  outer loop
    vertex 0.000000 0.111510 -0.423051
    vertex 1.714286 0.080390 -0.430051
    vertex 0.000000 0.032726 -0.436274
  endloop
endfacet
facet normal 0.001049 0.092268 -0.995734
  outer loop
    vertex 0.000000 0.032726 -0.436274
    vertex 1.714286 0.080390 -0.430051
    vertex 1.714286 0.000000 -0.437500
  endloop
endfacet
facet normal -0.001031 -0.016554 -0.999862
  outer loop
    vertex 0.000000 0.032726 -0.436274
    vertex 1.714286 0.000000 -0.437500
    vertex 0.000000 -0.047150 -0.434952
  endloop
endfacet
facet normal 0.001058 -0.092268 -0.995734
  outer loop
    vertex 0.000000 -0.047150 -0.434952
    vertex 1.714286 0.000000 -0.437500
    vertex 1.714286 -0.080390 -0.430051
  endloop
endfacet
facet normal -0.001039 -0.198087 -0.980184
  outer loop
    vertex 0.000000 -0.047150 -0.434952
    vertex 1.714286 -0.080390 -0.430051
    vertex 0.000000 -0.125453 -0.419127
  endloop
endfacet
facet normal 0.001065 -0.273663 -0.961825
  outer loop
    vertex 0.000000 -0.125453 -0.419127
    vertex 1.714286 -0.080390 -0.430051
    vertex 1.714286 -0.158043 -0.407957
  endloop
endfacet
facet normal -0.001045 -0.373017 -0.927824
  outer loop
    vertex 0.000000 -0.125453 -0.419127
    vertex 1.714286 -0.158043 -0.407957
    vertex 0.000000 -0.199573 -0.389328
  endloop
endfacet
facet normal 0.001071 -0.445738 -0.895163
  outer loop
    vertex 0.000000 -0.199573 -0.389328
    vertex 1.714286 -0.158043 -0.407957
    vertex 1.714286 -0.230314 -0.371970
  endloop
endfacet
facet normal -0.001051 -0.535509 -0.844529
  outer loop
    vertex 0.000000 -0.199573 -0.389328
    vertex 1.714286 -0.230314 -0.371970
    vertex 0.000000 -0.267040 -0.346549
  endloop
endfacet
facet normal 0.001077 -0.602634 -0.798017
  outer loop
    vertex 0.000000 -0.267040 -0.346549
    vertex 1.714286 -0.230314 -0.371970
    vertex 1.714286 -0.294742 -0.323316
  endloop
endfacet
facet normal -0.001056 -0.680146 -0.733076
  outer loop
    vertex 0.000000 -0.267040 -0.346549
    vertex 1.714286 -0.294742 -0.323316
    vertex 0.000000 -0.325603 -0.292214
  endloop
endfacet
facet normal 0.001081 -0.739008 -0.673695
  outer loop
    vertex 0.000000 -0.325603 -0.292214
    vertex 1.714286 -0.294742 -0.323316
    vertex 1.714286 -0.349133 -0.263653
  endloop
endfacet
facet normal -0.001060 -0.802106 -0.597181
  outer loop
    vertex 0.000000 -0.325603 -0.292214
    vertex 1.714286 -0.349133 -0.263653
    vertex 0.000000 -0.373309 -0.228137
  endloop
endfacet
facet normal 0.001084 -0.850217 -0.526432
  outer loop
    vertex 0.000000 -0.373309 -0.228137
    vertex 1.714286 -0.349133 -0.263653
    vertex 1.714286 -0.391634 -0.195011
  endloop
endfacet
facet normal -0.001063 -0.897322 -0.441374
  outer loop
    vertex 0.000000 -0.373309 -0.228137
    vertex 1.714286 -0.391634 -0.195011
    vertex 0.000000 -0.408569 -0.156453
  endloop
endfacet
facet normal 0.001087 -0.932472 -0.361242
  outer loop
    vertex 0.000000 -0.408569 -0.156453
    vertex 1.714286 -0.391634 -0.195011
    vertex 1.714286 -0.420799 -0.119728
  endloop
endfacet
facet normal -0.001065 -0.962620 -0.270852
  outer loop
    vertex 0.000000 -0.408569 -0.156453
    vertex 1.714286 -0.420799 -0.119728
    vertex 0.000000 -0.430206 -0.079553
  endloop
endfacet
facet normal 0.001088 -0.982973 -0.183749
  outer loop
    vertex 0.000000 -0.430206 -0.079553
    vertex 1.714286 -0.420799 -0.119728
    vertex 1.714286 -0.435634 -0.040367
  endloop
endfacet
facet normal -0.001066 -0.995823 -0.091299
  outer loop
    vertex 0.000000 -0.430206 -0.079553
    vertex 1.714286 -0.435634 -0.040367
    vertex 0.000000 -0.437500 0.000000
  endloop
endfacet
facet normal 0.001089 -0.999999 0.000000
  outer loop
    vertex 0.000000 -0.437500 0.000000
    vertex 1.714286 -0.435634 -0.040367
    vertex 1.714286 -0.435634 0.040367
  endloop
endfacet
facet normal -0.001066 -0.995823 0.091299
  outer loop
    vertex 0.000000 -0.437500 0.000000
    vertex 1.714286 -0.435634 0.040367
    vertex 0.000000 -0.430206 0.079553
  endloop
endfacet
facet normal 0.001088 -0.982973 0.183749
  outer loop
    vertex 0.000000 -0.430206 0.079553
    vertex 1.714286 -0.435634 0.040367
    vertex 1.714286 -0.420799 0.119728
  endloop
endfacet
facet normal -0.001065 -0.962620 0.270852
  outer loop
    vertex 0.000000 -0.430206 0.079553
    vertex 1.714286 -0.420799 0.119728
    vertex 0.000000 -0.408569 0.156453
  endloop
endfacet
facet normal 0.001087 -0.932472 0.361242
  outer loop
    vertex 0.000000 -0.408569 0.156453
    vertex 1.714286 -0.420799 0.119728
    vertex 1.714286 -0.391634 0.195011
  endloop
endfacet
facet normal -0.001063 -0.897322 0.441374
  outer loop
    vertex 0.000000 -0.408569 0.156453
    vertex 1.714286 -0.391634 0.195011
    vertex 0.000000 -0.373309 0.228137
  endloop
endfacet
facet normal 0.001084 -0.850217 0.526432
  outer loop
    vertex 0.000000 -0.373309 0.228137
    vertex 1.714286 -0.391634 0.195011
    vertex 1.714286 -0.349133 0.263653
  endloop
endfacet
facet normal -0.001060 -0.802106 0.597181
  outer loop
    vertex 0.000000 -0.373309 0.228137
    vertex 1.714286 -0.349133 0.263653
    vertex 0.000000 -0.325603 0.292214
  endloop
endfacet
facet normal 0.001081 -0.739008 0.673695
  outer loop
    vertex 0.000000 -0.325603 0.292214
    vertex 1.714286 -0.349133 0.263653
    vertex 1.714286 -0.294742 0.323316
  endloop
endfacet
facet normal -0.001056 -0.680146 0.733076
  outer loop
    vertex 0.000000 -0.325603 0.292214
    vertex 1.714286 -0.294742 0.323316
    vertex 0.000000 -0.267040 0.346549
  endloop
endfacet
facet normal 0.001077 -0.602634 0.798017
  outer loop
    vertex 0.000000 -0.267040 0.346549
    vertex 1.714286 -0.294742 0.323316
    vertex 1.714286 -0.230314 0.371970
  endloop
endfacet
facet normal -0.001051 -0.535509 0.844529
  outer loop
    vertex 0.000000 -0.267040 0.346549
    vertex 1.714286 -0.230314 0.371970
    vertex 0.000000 -0.199573 0.389328
  endloop
endfacet
facet normal 0.001071 -0.445738 0.895163
  outer loop
    vertex 0.000000 -0.199573 0.389328
    vertex 1.714286 -0.230314 0.371970
    vertex 1.714286 -0.158043 0.407957
  endloop
endfacet
facet normal -0.001045 -0.373017 0.927824
  outer loop
    vertex 0.000000 -0.199573 0.389328
    vertex 1.714286 -0.158043 0.407957
    vertex 0.000000 -0.125453 0.419127
  endloop
endfacet
facet normal 0.001065 -0.273663 0.961825
  outer loop
    vertex 0.000000 -0.125453 0.419127
    vertex 1.714286 -0.158043 0.407957
    vertex 1.714286 -0.080390 0.430051
  endloop
endfacet
facet normal -0.001039 -0.198087 0.980184
  outer loop
    vertex 0.000000 -0.125453 0.419127
    vertex 1.714286 -0.080390 0.430051
    vertex 0.000000 -0.047150 0.434952
  endloop
endfacet
facet normal 0.001058 -0.092268 0.995734
  outer loop
    vertex 0.000000 -0.047150 0.434952
    vertex 1.714286 -0.080390 0.430051
    vertex 1.714286 0.000000 0.437500
  endloop
endfacet
facet normal -0.001031 -0.016554 0.999862
  outer loop
    vertex 0.000000 -0.047150 0.434952
    vertex 1.714286 0.000000 0.437500
    vertex 0.000000 0.032726 0.436274
  endloop
endfacet
facet normal 0.001049 0.092268 0.995734
  outer loop
    vertex 0.000000 0.032726 0.436274
    vertex 1.714286 0.000000 0.437500
    vertex 1.714286 0.080390 0.430051
  endloop
endfacet
facet normal -0.001022 0.165533 0.986204
  outer loop
    vertex 0.000000 0.032726 0.436274
    vertex 1.714286 0.080390 0.430051
    vertex 0.000000 0.111510 0.423051
  endloop
endfacet
facet normal 0.001040 0.273663 0.961825
  outer loop
    vertex 0.000000 0.111510 0.423051
    vertex 1.714286 0.080390 0.430051
    vertex 1.714286 0.158043 0.407957
  endloop
endfacet
facet normal -0.001013 0.342099 0.939664
  outer loop
    vertex 0.000000 0.111510 0.423051
    vertex 1.714286 0.158043 0.407957
    vertex 0.000000 0.186576 0.395721
  endloop
endfacet
facet normal 0.001030 0.445738 0.895163
  outer loop
    vertex 0.000000 0.186576 0.395721
    vertex 1.714286 0.158043 0.407957
    vertex 1.714286 0.230314 0.371970
  endloop
endfacet
facet normal -0.001002 0.507259 0.861793
  outer loop
    vertex 0.000000 0.186576 0.395721
    vertex 1.714286 0.230314 0.371970
    vertex 0.000000 0.255422 0.355198
  endloop
endfacet
facet normal 0.001019 0.602634 0.798017
  outer loop
    vertex 0.000000 0.255422 0.355198
    vertex 1.714286 0.230314 0.371970
    vertex 1.714286 0.294742 0.323316
  endloop
endfacet
facet normal -0.000990 0.655507 0.755189
  outer loop
    vertex 0.000000 0.255422 0.355198
    vertex 1.714286 0.294742 0.323316
    vertex 0.000000 0.315751 0.302832
  endloop
endfacet
facet normal 0.001007 0.739008 0.673695
  outer loop
    vertex 0.000000 0.315751 0.302832
    vertex 1.714286 0.294742 0.323316
    vertex 1.714286 0.349133 0.263653
  endloop
endfacet
facet normal -0.000978 0.781898 0.623405
  outer loop
    vertex 0.000000 0.315751 0.302832
    vertex 1.714286 0.349133 0.263653
    vertex 0.000000 0.365553 0.240369
  endloop
endfacet
facet normal 0.000994 0.850217 0.526432
  outer loop
    vertex 0.000000 0.365553 0.240369
    vertex 1.714286 0.349133 0.263653
    vertex 1.714286 0.391634 0.195011
  endloop
endfacet
facet normal -0.000964 0.882220 0.470836
  outer loop
    vertex 0.000000 0.365553 0.240369
    vertex 1.714286 0.391634 0.195011
    vertex 0.000000 0.403166 0.169892
  endloop
endfacet
facet normal 0.000980 0.932472 0.361242
  outer loop
    vertex 0.000000 0.403166 0.169892
    vertex 1.714286 0.391634 0.195011
    vertex 1.714286 0.420799 0.119728
  endloop
endfacet
facet normal -0.000990 0.655507 -0.755189
  outer loop
    vertex 0.000000 0.255422 -0.355198
    vertex 0.000000 0.315751 -0.302832
    vertex 1.714286 0.294742 -0.323316
  endloop
endfacet
facet normal 0.001007 0.739008 -0.673695
  outer loop
    vertex 1.714286 0.294742 -0.323316
    vertex 0.000000 0.315751 -0.302832
    vertex 1.714286 0.349133 -0.263653
  endloop
endfacet
facet normal 0.000000 0.739009 -0.673696
  outer loop
    vertex 1.714286 0.294742 -0.323316
    vertex 1.714286 0.349133 -0.263653
    vertex 3.428571 0.349133 -0.263653
  endloop
endfacet
facet normal 0.000000 0.850217 -0.526432
  outer loop
    vertex 3.428571 0.349133 -0.263653
    vertex 1.714286 0.349133 -0.263653
    vertex 3.428571 0.391634 -0.195011
  endloop
endfacet
facet normal 0.000000 0.850217 -0.526432
  outer loop
    vertex 3.428571 0.349133 -0.263653
    vertex 3.428571 0.391634 -0.195011
    vertex 5.142857 0.391634 -0.195011
  endloop
endfacet
facet normal 0.000000 0.932472 -0.361242
  outer loop
    vertex 5.142857 0.391634 -0.195011
    vertex 3.428571 0.391634 -0.195011
    vertex 5.142857 0.420799 -0.119728
  endloop
endfacet
facet normal 0.000000 0.932472 -0.361242
  outer loop
    vertex 5.142857 0.391634 -0.195011
    vertex 5.142857 0.420799 -0.119728
    vertex 6.857143 0.420799 -0.119728
  endloop
endfacet
facet normal 0.000000 0.969753 -0.244089
  outer loop
    vertex 6.857143 0.420799 -0.119728
    vertex 5.142857 0.420799 -0.119728
    vertex 12.000000 0.427337 -0.093750
  endloop
endfacet
facet normal -0.000978 0.781898 -0.623405
  outer loop
    vertex 0.000000 0.315751 -0.302832
    vertex 0.000000 0.365553 -0.240369
    vertex 1.714286 0.349133 -0.263653
  endloop
endfacet
facet normal 0.000994 0.850217 -0.526432
  outer loop
    vertex 1.714286 0.349133 -0.263653
    vertex 0.000000 0.365553 -0.240369
    vertex 1.714286 0.391634 -0.195011
  endloop
endfacet
facet normal 0.000000 0.850217 -0.526432
  outer loop
    vertex 1.714286 0.349133 -0.263653
    vertex 1.714286 0.391634 -0.195011
    vertex 3.428571 0.391634 -0.195011
  endloop
endfacet
facet normal 0.000000 0.932472 -0.361242
  outer loop
    vertex 3.428571 0.391634 -0.195011
    vertex 1.714286 0.391634 -0.195011
    vertex 3.428571 0.420799 -0.119728
  endloop
endfacet
facet normal 0.000000 0.932472 -0.361242
  outer loop
    vertex 3.428571 0.391634 -0.195011
    vertex 3.428571 0.420799 -0.119728
    vertex 5.142857 0.420799 -0.119728
  endloop
endfacet
facet normal 0.000000 0.969753 -0.244089
  outer loop
    vertex 5.142857 0.420799 -0.119728
    vertex 3.428571 0.420799 -0.119728
    vertex 0.000000 0.427337 -0.093750
  endloop
endfacet
facet normal 0.000000 0.969753 -0.244089
  outer loop
    vertex 5.142857 0.420799 -0.119728
    vertex 0.000000 0.427337 -0.093750
    vertex 12.000000 0.427337 -0.093750
  endloop
endfacet
facet normal -0.000964 0.882220 -0.470836
  outer loop
    vertex 0.000000 0.365553 -0.240369
    vertex 0.000000 0.403166 -0.169892
    vertex 1.714286 0.391634 -0.195011
  endloop
endfacet
facet normal 0.000980 0.932472 -0.361242
  outer loop
    vertex 1.714286 0.391634 -0.195011
    vertex 0.000000 0.403166 -0.169892
    vertex 1.714286 0.420799 -0.119728
  endloop
endfacet
facet normal 0.000000 0.932472 -0.361242
  outer loop
    vertex 1.714286 0.391634 -0.195011
    vertex 1.714286 0.420799 -0.119728
    vertex 3.428571 0.420799 -0.119728
  endloop
endfacet
facet normal 0.000000 0.969753 -0.244089
  outer loop
    vertex 3.428571 0.420799 -0.119728
    vertex 1.714286 0.420799 -0.119728
    vertex 0.000000 0.427337 -0.093750
  endloop
endfacet
facet normal -0.000950 0.953127 -0.302569
  outer loop
    vertex 0.000000 0.403166 -0.169892
    vertex 0.000000 0.427337 -0.093750
    vertex 1.714286 0.420799 -0.119728
  endloop
endfacet
facet normal 0.000990 0.655507 0.755189
  outer loop
    vertex 12.000000 0.255422 0.355198
    vertex 12.000000 0.315751 0.302832
    vertex 10.285714 0.294742 0.323316
  endloop
endfacet
facet normal -0.001007 0.739008 0.673695
  outer loop
    vertex 10.285714 0.294742 0.323316
    vertex 12.000000 0.315751 0.302832
    vertex 10.285714 0.349133 0.263653
  endloop
endfacet
facet normal 0.000000 0.739009 0.673696
  outer loop
    vertex 10.285714 0.294742 0.323316
    vertex 10.285714 0.349133 0.263653
    vertex 8.571428 0.349133 0.263653
  endloop
endfacet
facet normal -0.000000 0.850217 0.526432
  outer loop
    vertex 8.571428 0.349133 0.263653
    vertex 10.285714 0.349133 0.263653
    vertex 8.571428 0.391634 0.195011
  endloop
endfacet
facet normal 0.000000 0.850217 0.526432
  outer loop
    vertex 8.571428 0.349133 0.263653
    vertex 8.571428 0.391634 0.195011
    vertex 6.857143 0.391634 0.195011
  endloop
endfacet
facet normal -0.000000 0.932472 0.361242
  outer loop
    vertex 6.857143 0.391634 0.195011
    vertex 8.571428 0.391634 0.195011
    vertex 6.857143 0.420799 0.119728
  endloop
endfacet
facet normal 0.000000 0.932472 0.361242
  outer loop
    vertex 6.857143 0.391634 0.195011
    vertex 6.857143 0.420799 0.119728
    vertex 5.142857 0.420799 0.119728
  endloop
endfacet
facet normal -0.000000 0.969753 0.244089
  outer loop
    vertex 5.142857 0.420799 0.119728
    vertex 6.857143 0.420799 0.119728
    vertex 0.000000 0.427337 0.093750
  endloop
endfacet
facet normal 0.000978 0.781898 0.623405
  outer loop
    vertex 12.000000 0.315751 0.302832
    vertex 12.000000 0.365553 0.240369
    vertex 10.285714 0.349133 0.263653
  endloop
endfacet
facet normal -0.000994 0.850217 0.526432
  outer loop
    vertex 10.285714 0.349133 0.263653
    vertex 12.000000 0.365553 0.240369
    vertex 10.285714 0.391634 0.195011
  endloop
endfacet
facet normal 0.000000 0.850217 0.526432
  outer loop
    vertex 10.285714 0.349133 0.263653
    vertex 10.285714 0.391634 0.195011
    vertex 8.571428 0.391634 0.195011
  endloop
endfacet
facet normal -0.000000 0.932472 0.361242
  outer loop
    vertex 8.571428 0.391634 0.195011
    vertex 10.285714 0.391634 0.195011
    vertex 8.571428 0.420799 0.119728
  endloop
endfacet
facet normal 0.000000 0.932472 0.361242
  outer loop
    vertex 8.571428 0.391634 0.195011
    vertex 8.571428 0.420799 0.119728
    vertex 6.857143 0.420799 0.119728
  endloop
endfacet
facet normal -0.000000 0.969753 0.244089
  outer loop
    vertex 6.857143 0.420799 0.119728
    vertex 8.571428 0.420799 0.119728
    vertex 12.000000 0.427337 0.093750
  endloop
endfacet
facet normal 0.000000 0.969753 0.244089
  outer loop
    vertex 6.857143 0.420799 0.119728
    vertex 12.000000 0.427337 0.093750
    vertex 0.000000 0.427337 0.093750
  endloop
endfacet
facet normal 0.000964 0.882220 0.470836
  outer loop
    vertex 12.000000 0.365553 0.240369
    vertex 12.000000 0.403166 0.169892
    vertex 10.285714 0.391634 0.195011
  endloop
endfacet
facet normal -0.000980 0.932472 0.361242
  outer loop
    vertex 10.285714 0.391634 0.195011
    vertex 12.000000 0.403166 0.169892
    vertex 10.285714 0.420799 0.119728
  endloop
endfacet
facet normal 0.000000 0.932472 0.361242
  outer loop
    vertex 10.285714 0.391634 0.195011
    vertex 10.285714 0.420799 0.119728
    vertex 8.571428 0.420799 0.119728
  endloop
endfacet
facet normal -0.000000 0.969753 0.244089
  outer loop
    vertex 8.571428 0.420799 0.119728
    vertex 10.285714 0.420799 0.119728
    vertex 12.000000 0.427337 0.093750
  endloop
endfacet
facet normal 0.000950 0.953127 0.302569
  outer loop
    vertex 12.000000 0.403166 0.169892
    vertex 12.000000 0.427337 0.093750
    vertex 10.285714 0.420799 0.119728
  endloop
endfacet
facet normal -0.000000 0.092268 0.995734
  outer loop
    vertex 1.714286 0.000000 0.437500
    vertex 3.428571 0.000000 0.437500
    vertex 1.714286 0.080390 0.430051
  endloop
endfacet
facet normal -0.000000 0.092268 0.995734
  outer loop
    vertex 1.714286 0.080390 0.430051
    vertex 3.428571 0.000000 0.437500
    vertex 3.428571 0.080390 0.430051
  endloop
endfacet
facet normal -0.000000 0.273663 0.961826
  outer loop
    vertex 1.714286 0.080390 0.430051
    vertex 3.428571 0.080390 0.430051
    vertex 1.714286 0.158043 0.407957
  endloop
endfacet
facet normal -0.000000 0.273663 0.961826
  outer loop
    vertex 1.714286 0.158043 0.407957
    vertex 3.428571 0.080390 0.430051
    vertex 3.428571 0.158043 0.407957
  endloop
endfacet
facet normal -0.000000 0.445738 0.895163
  outer loop
    vertex 1.714286 0.158043 0.407957
    vertex 3.428571 0.158043 0.407957
    vertex 1.714286 0.230314 0.371970
  endloop
endfacet
facet normal -0.000000 0.445738 0.895163
  outer loop
    vertex 1.714286 0.230314 0.371970
    vertex 3.428571 0.158043 0.407957
    vertex 3.428571 0.230314 0.371970
  endloop
endfacet
facet normal -0.000000 0.602635 0.798017
  outer loop
    vertex 1.714286 0.230314 0.371970
    vertex 3.428571 0.230314 0.371970
    vertex 1.714286 0.294742 0.323316
  endloop
endfacet
facet normal -0.000000 0.602635 0.798017
  outer loop
    vertex 1.714286 0.294742 0.323316
    vertex 3.428571 0.230314 0.371970
    vertex 3.428571 0.294742 0.323316
  endloop
endfacet
facet normal -0.000000 0.739009 0.673696
  outer loop
    vertex 1.714286 0.294742 0.323316
    vertex 3.428571 0.294742 0.323316
    vertex 1.714286 0.349133 0.263653
  endloop
endfacet
facet normal -0.000000 0.739009 0.673696
  outer loop
    vertex 1.714286 0.349133 0.263653
    vertex 3.428571 0.294742 0.323316
    vertex 3.428571 0.349133 0.263653
  endloop
endfacet
facet normal -0.000000 0.850217 0.526432
  outer loop
    vertex 1.714286 0.349133 0.263653
    vertex 3.428571 0.349133 0.263653
    vertex 1.714286 0.391634 0.195011
  endloop
endfacet
facet normal -0.000000 0.850217 0.526432
  outer loop
    vertex 1.714286 0.391634 0.195011
    vertex 3.428571 0.349133 0.263653
    vertex 3.428571 0.391634 0.195011
  endloop
endfacet
facet normal -0.000000 0.932472 0.361242
  outer loop
    vertex 1.714286 0.391634 0.195011
    vertex 3.428571 0.391634 0.195011
    vertex 1.714286 0.420799 0.119728
  endloop
endfacet
facet normal -0.000000 0.932472 0.361242
  outer loop
    vertex 1.714286 0.420799 0.119728
    vertex 3.428571 0.391634 0.195011
    vertex 3.428571 0.420799 0.119728
  endloop
endfacet
facet normal -0.000000 0.092268 0.995734
  outer loop
    vertex 3.428571 0.000000 0.437500
    vertex 5.142857 0.000000 0.437500
    vertex 3.428571 0.080390 0.430051
  endloop
endfacet
facet normal -0.000000 0.092268 0.995734
  outer loop
    vertex 3.428571 0.080390 0.430051
    vertex 5.142857 0.000000 0.437500
    vertex 5.142857 0.080390 0.430051
  endloop
endfacet
facet normal -0.000000 0.273663 0.961826
  outer loop
    vertex 3.428571 0.080390 0.430051
    vertex 5.142857 0.080390 0.430051
    vertex 3.428571 0.158043 0.407957
  endloop
endfacet
facet normal -0.000000 0.273663 0.961826
  outer loop
    vertex 3.428571 0.158043 0.407957
    vertex 5.142857 0.080390 0.430051
    vertex 5.142857 0.158043 0.407957
  endloop
endfacet
facet normal -0.000000 0.445738 0.895163
  outer loop
    vertex 3.428571 0.158043 0.407957
    vertex 5.142857 0.158043 0.407957
    vertex 3.428571 0.230314 0.371970
  endloop
endfacet
facet normal -0.000000 0.445738 0.895163
  outer loop
    vertex 3.428571 0.230314 0.371970
    vertex 5.142857 0.158043 0.407957
    vertex 5.142857 0.230314 0.371970
  endloop
endfacet
facet normal -0.000000 0.602635 0.798017
  outer loop
    vertex 3.428571 0.230314 0.371970
    vertex 5.142857 0.230314 0.371970
    vertex 3.428571 0.294742 0.323316
  endloop
endfacet
facet normal -0.000000 0.602635 0.798017
  outer loop
    vertex 3.428571 0.294742 0.323316
    vertex 5.142857 0.230314 0.371970
    vertex 5.142857 0.294742 0.323316
  endloop
endfacet
facet normal -0.000000 0.739009 0.673696
  outer loop
    vertex 3.428571 0.294742 0.323316
    vertex 5.142857 0.294742 0.323316
    vertex 3.428571 0.349133 0.263653
  endloop
endfacet
facet normal -0.000000 0.739009 0.673696
  outer loop
    vertex 3.428571 0.349133 0.263653
    vertex 5.142857 0.294742 0.323316
    vertex 5.142857 0.349133 0.263653
  endloop
endfacet
facet normal -0.000000 0.850217 0.526432
  outer loop
    vertex 3.428571 0.349133 0.263653
    vertex 5.142857 0.349133 0.263653
    vertex 3.428571 0.391634 0.195011
  endloop
endfacet
facet normal -0.000000 0.850217 0.526432
  outer loop
    vertex 3.428571 0.391634 0.195011
    vertex 5.142857 0.349133 0.263653
    vertex 5.142857 0.391634 0.195011
  endloop
endfacet
facet normal -0.000000 0.932472 0.361242
  outer loop
    vertex 3.428571 0.391634 0.195011
    vertex 5.142857 0.391634 0.195011
    vertex 3.428571 0.420799 0.119728
  endloop
endfacet
facet normal 0.000000 -0.092268 0.995734
  outer loop
    vertex 3.428571 0.000000 0.437500
    vertex 1.714286 0.000000 0.437500
    vertex 3.428571 -0.080390 0.430051
  endloop
endfacet
facet normal 0.000000 -0.092268 0.995734
  outer loop
    vertex 3.428571 -0.080390 0.430051
    vertex 1.714286 0.000000 0.437500
    vertex 1.714286 -0.080390 0.430051
  endloop
endfacet
facet normal 0.000000 -0.273663 0.961826
  outer loop
    vertex 3.428571 -0.080390 0.430051
    vertex 1.714286 -0.080390 0.430051
    vertex 3.428571 -0.158043 0.407957
  endloop
endfacet
facet normal 0.000000 -0.273663 0.961826
  outer loop
    vertex 3.428571 -0.158043 0.407957
    vertex 1.714286 -0.080390 0.430051
    vertex 1.714286 -0.158043 0.407957
  endloop
endfacet
facet normal 0.000000 -0.445738 0.895163
  outer loop
    vertex 3.428571 -0.158043 0.407957
    vertex 1.714286 -0.158043 0.407957
    vertex 3.428571 -0.230314 0.371970
  endloop
endfacet
facet normal 0.000000 -0.445738 0.895163
  outer loop
    vertex 3.428571 -0.230314 0.371970
    vertex 1.714286 -0.158043 0.407957
    vertex 1.714286 -0.230314 0.371970
  endloop
endfacet
facet normal 0.000000 -0.602635 0.798017
  outer loop
    vertex 3.428571 -0.230314 0.371970
    vertex 1.714286 -0.230314 0.371970
    vertex 3.428571 -0.294742 0.323316
  endloop
endfacet
facet normal 0.000000 -0.602635 0.798017
  outer loop
    vertex 3.428571 -0.294742 0.323316
    vertex 1.714286 -0.230314 0.371970
    vertex 1.714286 -0.294742 0.323316
  endloop
endfacet
facet normal 0.000000 -0.739009 0.673696
  outer loop
    vertex 3.428571 -0.294742 0.323316
    vertex 1.714286 -0.294742 0.323316
    vertex 3.428571 -0.349133 0.263653
  endloop
endfacet
facet normal 0.000000 -0.739009 0.673696
  outer loop
    vertex 3.428571 -0.349133 0.263653
    vertex 1.714286 -0.294742 0.323316
    vertex 1.714286 -0.349133 0.263653
  endloop
endfacet
facet normal 0.000000 -0.850217 0.526432
  outer loop
    vertex 3.428571 -0.349133 0.263653
    vertex 1.714286 -0.349133 0.263653
    vertex 3.428571 -0.391634 0.195011
  endloop
endfacet
facet normal 0.000000 -0.850217 0.526432
  outer loop
    vertex 3.428571 -0.391634 0.195011
    vertex 1.714286 -0.349133 0.263653
    vertex 1.714286 -0.391634 0.195011
  endloop
endfacet
facet normal 0.000000 -0.932472 0.361242
  outer loop
    vertex 3.428571 -0.391634 0.195011
    vertex 1.714286 -0.391634 0.195011
    vertex 3.428571 -0.420799 0.119728
  endloop
endfacet
facet normal 0.000000 -0.932472 0.361242
  outer loop
    vertex 3.428571 -0.420799 0.119728
    vertex 1.714286 -0.391634 0.195011
    vertex 1.714286 -0.420799 0.119728
  endloop
endfacet
facet normal 0.000000 -0.982973 0.183749
  outer loop
    vertex 3.428571 -0.420799 0.119728
    vertex 1.714286 -0.420799 0.119728
    vertex 3.428571 -0.435634 0.040367
  endloop
endfacet
facet normal 0.000000 -0.982973 0.183749
  outer loop
    vertex 3.428571 -0.435634 0.040367
    vertex 1.714286 -0.420799 0.119728
    vertex 1.714286 -0.435634 0.040367
  endloop
endfacet
facet normal -0.000000 -1.000000 -0.000000
  outer loop
    vertex 3.428571 -0.435634 0.040367
    vertex 1.714286 -0.435634 0.040367
    vertex 3.428571 -0.435634 -0.040367
  endloop
endfacet
facet normal 0.000000 -1.000000 0.000000
  outer loop
    vertex 3.428571 -0.435634 -0.040367
    vertex 1.714286 -0.435634 0.040367
    vertex 1.714286 -0.435634 -0.040367
  endloop
endfacet
facet normal -0.000000 -0.982973 -0.183749
  outer loop
    vertex 3.428571 -0.435634 -0.040367
    vertex 1.714286 -0.435634 -0.040367
    vertex 3.428571 -0.420799 -0.119728
  endloop
endfacet
facet normal -0.000000 -0.982973 -0.183749
  outer loop
    vertex 3.428571 -0.420799 -0.119728
    vertex 1.714286 -0.435634 -0.040367
    vertex 1.714286 -0.420799 -0.119728
  endloop
endfacet
facet normal -0.000000 -0.932472 -0.361242
  outer loop
    vertex 3.428571 -0.420799 -0.119728
    vertex 1.714286 -0.420799 -0.119728
    vertex 3.428571 -0.391634 -0.195011
  endloop
endfacet
facet normal -0.000000 -0.932472 -0.361242
  outer loop
    vertex 3.428571 -0.391634 -0.195011
    vertex 1.714286 -0.420799 -0.119728
    vertex 1.714286 -0.391634 -0.195011
  endloop
endfacet
facet normal -0.000000 -0.850217 -0.526432
  outer loop
    vertex 3.428571 -0.391634 -0.195011
    vertex 1.714286 -0.391634 -0.195011
    vertex 3.428571 -0.349133 -0.263653
  endloop
endfacet
facet normal -0.000000 -0.850217 -0.526432
  outer loop
    vertex 3.428571 -0.349133 -0.263653
    vertex 1.714286 -0.391634 -0.195011
    vertex 1.714286 -0.349133 -0.263653
  endloop
endfacet
facet normal -0.000000 -0.739009 -0.673696
  outer loop
    vertex 3.428571 -0.349133 -0.263653
    vertex 1.714286 -0.349133 -0.263653
    vertex 3.428571 -0.294742 -0.323316
  endloop
endfacet
facet normal -0.000000 -0.739009 -0.673696
  outer loop
    vertex 3.428571 -0.294742 -0.323316
    vertex 1.714286 -0.349133 -0.263653
    vertex 1.714286 -0.294742 -0.323316
  endloop
endfacet
facet normal -0.000000 -0.602635 -0.798017
  outer loop
    vertex 3.428571 -0.294742 -0.323316
    vertex 1.714286 -0.294742 -0.323316
    vertex 3.428571 -0.230314 -0.371970
  endloop
endfacet
facet normal -0.000000 -0.602635 -0.798017
  outer loop
    vertex 3.428571 -0.230314 -0.371970
    vertex 1.714286 -0.294742 -0.323316
    vertex 1.714286 -0.230314 -0.371970
  endloop
endfacet
facet normal -0.000000 -0.445738 -0.895163
  outer loop
    vertex 3.428571 -0.230314 -0.371970
    vertex 1.714286 -0.230314 -0.371970
    vertex 3.428571 -0.158043 -0.407957
  endloop
endfacet
facet normal -0.000000 -0.445738 -0.895163
  outer loop
    vertex 3.428571 -0.158043 -0.407957
    vertex 1.714286 -0.230314 -0.371970
    vertex 1.714286 -0.158043 -0.407957
  endloop
endfacet
facet normal -0.000000 -0.273663 -0.961826
  outer loop
    vertex 3.428571 -0.158043 -0.407957
    vertex 1.714286 -0.158043 -0.407957
    vertex 3.428571 -0.080390 -0.430051
  endloop
endfacet
facet normal -0.000000 -0.273663 -0.961826
  outer loop
    vertex 3.428571 -0.080390 -0.430051
    vertex 1.714286 -0.158043 -0.407957
    vertex 1.714286 -0.080390 -0.430051
  endloop
endfacet
facet normal -0.000000 -0.092268 -0.995734
  outer loop
    vertex 3.428571 -0.080390 -0.430051
    vertex 1.714286 -0.080390 -0.430051
    vertex 3.428571 0.000000 -0.437500
  endloop
endfacet
facet normal -0.000000 -0.092268 -0.995734
  outer loop
    vertex 3.428571 0.000000 -0.437500
    vertex 1.714286 -0.080390 -0.430051
    vertex 1.714286 0.000000 -0.437500
  endloop
endfacet
facet normal 0.000000 0.092268 -0.995734
  outer loop
    vertex 3.428571 0.000000 -0.437500
    vertex 1.714286 0.000000 -0.437500
    vertex 3.428571 0.080390 -0.430051
  endloop
endfacet
facet normal 0.000000 0.092268 -0.995734
  outer loop
    vertex 3.428571 0.080390 -0.430051
    vertex 1.714286 0.000000 -0.437500
    vertex 1.714286 0.080390 -0.430051
  endloop
endfacet
facet normal 0.000000 0.273663 -0.961826
  outer loop
    vertex 3.428571 0.080390 -0.430051
    vertex 1.714286 0.080390 -0.430051
    vertex 3.428571 0.158043 -0.407957
  endloop
endfacet
facet normal 0.000000 0.273663 -0.961826
  outer loop
    vertex 3.428571 0.158043 -0.407957
    vertex 1.714286 0.080390 -0.430051
    vertex 1.714286 0.158043 -0.407957
  endloop
endfacet
facet normal 0.000000 0.445738 -0.895163
  outer loop
    vertex 3.428571 0.158043 -0.407957
    vertex 1.714286 0.158043 -0.407957
    vertex 3.428571 0.230314 -0.371970
  endloop
endfacet
facet normal 0.000000 0.445738 -0.895163
  outer loop
    vertex 3.428571 0.230314 -0.371970
    vertex 1.714286 0.158043 -0.407957
    vertex 1.714286 0.230314 -0.371970
  endloop
endfacet
facet normal 0.000000 0.602635 -0.798017
  outer loop
    vertex 3.428571 0.230314 -0.371970
    vertex 1.714286 0.230314 -0.371970
    vertex 3.428571 0.294742 -0.323316
  endloop
endfacet
facet normal -0.000000 0.092268 0.995734
  outer loop
    vertex 5.142857 0.000000 0.437500
    vertex 6.857143 0.000000 0.437500
    vertex 5.142857 0.080390 0.430051
  endloop
endfacet
facet normal -0.000000 0.092268 0.995734
  outer loop
    vertex 5.142857 0.080390 0.430051
    vertex 6.857143 0.000000 0.437500
    vertex 6.857143 0.080390 0.430051
  endloop
endfacet
facet normal -0.000000 0.273663 0.961826
  outer loop
    vertex 5.142857 0.080390 0.430051
    vertex 6.857143 0.080390 0.430051
    vertex 5.142857 0.158043 0.407957
  endloop
endfacet
facet normal -0.000000 0.273663 0.961826
  outer loop
    vertex 5.142857 0.158043 0.407957
    vertex 6.857143 0.080390 0.430051
    vertex 6.857143 0.158043 0.407957
  endloop
endfacet
facet normal -0.000000 0.445738 0.895163
  outer loop
    vertex 5.142857 0.158043 0.407957
    vertex 6.857143 0.158043 0.407957
    vertex 5.142857 0.230314 0.371970
  endloop
endfacet
facet normal -0.000000 0.445738 0.895163
  outer loop
    vertex 5.142857 0.230314 0.371970
    vertex 6.857143 0.158043 0.407957
    vertex 6.857143 0.230314 0.371970
  endloop
endfacet
facet normal -0.000000 0.602635 0.798017
  outer loop
    vertex 5.142857 0.230314 0.371970
    vertex 6.857143 0.230314 0.371970
    vertex 5.142857 0.294742 0.323316
  endloop
endfacet
facet normal -0.000000 0.602635 0.798017
  outer loop
    vertex 5.142857 0.294742 0.323316
    vertex 6.857143 0.230314 0.371970
    vertex 6.857143 0.294742 0.323316
  endloop
endfacet
facet normal -0.000000 0.739009 0.673696
  outer loop
    vertex 5.142857 0.294742 0.323316
    vertex 6.857143 0.294742 0.323316
    vertex 5.142857 0.349133 0.263653
  endloop
endfacet
facet normal -0.000000 0.739009 0.673696
  outer loop
    vertex 5.142857 0.349133 0.263653
    vertex 6.857143 0.294742 0.323316
    vertex 6.857143 0.349133 0.263653
  endloop
endfacet
facet normal -0.000000 0.850217 0.526432
  outer loop
    vertex 5.142857 0.349133 0.263653
    vertex 6.857143 0.349133 0.263653
    vertex 5.142857 0.391634 0.195011
  endloop
endfacet
facet normal 0.000000 -0.092268 0.995734
  outer loop
    vertex 5.142857 0.000000 0.437500
    vertex 3.428571 0.000000 0.437500
    vertex 5.142857 -0.080390 0.430051
  endloop
endfacet
facet normal 0.000000 -0.092268 0.995734
  outer loop
    vertex 5.142857 -0.080390 0.430051
    vertex 3.428571 0.000000 0.437500
    vertex 3.428571 -0.080390 0.430051
  endloop
endfacet
facet normal 0.000000 -0.273663 0.961826
  outer loop
    vertex 5.142857 -0.080390 0.430051
    vertex 3.428571 -0.080390 0.430051
    vertex 5.142857 -0.158043 0.407957
  endloop
endfacet
facet normal 0.000000 -0.273663 0.961826
  outer loop
    vertex 5.142857 -0.158043 0.407957
    vertex 3.428571 -0.080390 0.430051
    vertex 3.428571 -0.158043 0.407957
  endloop
endfacet
facet normal 0.000000 -0.445738 0.895163
  outer loop
    vertex 5.142857 -0.158043 0.407957
    vertex 3.428571 -0.158043 0.407957
    vertex 5.142857 -0.230314 0.371970
  endloop
endfacet
facet normal 0.000000 -0.445738 0.895163
  outer loop
    vertex 5.142857 -0.230314 0.371970
    vertex 3.428571 -0.158043 0.407957
    vertex 3.428571 -0.230314 0.371970
  endloop
endfacet
facet normal 0.000000 -0.602635 0.798017
  outer loop
    vertex 5.142857 -0.230314 0.371970
    vertex 3.428571 -0.230314 0.371970
    vertex 5.142857 -0.294742 0.323316
  endloop
endfacet
facet normal 0.000000 -0.602635 0.798017
  outer loop
    vertex 5.142857 -0.294742 0.323316
    vertex 3.428571 -0.230314 0.371970
    vertex 3.428571 -0.294742 0.323316
  endloop
endfacet
facet normal 0.000000 -0.739009 0.673696
  outer loop
    vertex 5.142857 -0.294742 0.323316
    vertex 3.428571 -0.294742 0.323316
    vertex 5.142857 -0.349133 0.263653
  endloop
endfacet
facet normal 0.000000 -0.739009 0.673696
  outer loop
    vertex 5.142857 -0.349133 0.263653
    vertex 3.428571 -0.294742 0.323316
    vertex 3.428571 -0.349133 0.263653
  endloop
endfacet
facet normal 0.000000 -0.850217 0.526432
  outer loop
    vertex 5.142857 -0.349133 0.263653
    vertex 3.428571 -0.349133 0.263653
    vertex 5.142857 -0.391634 0.195011
  endloop
endfacet
facet normal 0.000000 -0.850217 0.526432
  outer loop
    vertex 5.142857 -0.391634 0.195011
    vertex 3.428571 -0.349133 0.263653
    vertex 3.428571 -0.391634 0.195011
  endloop
endfacet
facet normal 0.000000 -0.932472 0.361242
  outer loop
    vertex 5.142857 -0.391634 0.195011
    vertex 3.428571 -0.391634 0.195011
    vertex 5.142857 -0.420799 0.119728
  endloop
endfacet
facet normal 0.000000 -0.932472 0.361242
  outer loop
    vertex 5.142857 -0.420799 0.119728
    vertex 3.428571 -0.391634 0.195011
    vertex 3.428571 -0.420799 0.119728
  endloop
endfacet
facet normal 0.000000 -0.982973 0.183749
  outer loop
    vertex 5.142857 -0.420799 0.119728
    vertex 3.428571 -0.420799 0.119728
    vertex 5.142857 -0.435634 0.040367
  endloop
endfacet
facet normal 0.000000 -0.982973 0.183749
  outer loop
    vertex 5.142857 -0.435634 0.040367
    vertex 3.428571 -0.420799 0.119728
    vertex 3.428571 -0.435634 0.040367
  endloop
endfacet
facet normal -0.000000 -1.000000 -0.000000
  outer loop
    vertex 5.142857 -0.435634 0.040367
    vertex 3.428571 -0.435634 0.040367
    vertex 5.142857 -0.435634 -0.040367
  endloop
endfacet
facet normal 0.000000 -1.000000 0.000000
  outer loop
    vertex 5.142857 -0.435634 -0.040367
    vertex 3.428571 -0.435634 0.040367
    vertex 3.428571 -0.435634 -0.040367
  endloop
endfacet
facet normal -0.000000 -0.982973 -0.183749
  outer loop
    vertex 5.142857 -0.435634 -0.040367
    vertex 3.428571 -0.435634 -0.040367
    vertex 5.142857 -0.420799 -0.119728
  endloop
endfacet
facet normal -0.000000 -0.982973 -0.183749
  outer loop
    vertex 5.142857 -0.420799 -0.119728
    vertex 3.428571 -0.435634 -0.040367
    vertex 3.428571 -0.420799 -0.119728
  endloop
endfacet
facet normal -0.000000 -0.932472 -0.361242
  outer loop
    vertex 5.142857 -0.420799 -0.119728
    vertex 3.428571 -0.420799 -0.119728
    vertex 5.142857 -0.391634 -0.195011
  endloop
endfacet
facet normal -0.000000 -0.932472 -0.361242
  outer loop
    vertex 5.142857 -0.391634 -0.195011
    vertex 3.428571 -0.420799 -0.119728
    vertex 3.428571 -0.391634 -0.195011
  endloop
endfacet
facet normal -0.000000 -0.850217 -0.526432
  outer loop
    vertex 5.142857 -0.391634 -0.195011
    vertex 3.428571 -0.391634 -0.195011
    vertex 5.142857 -0.349133 -0.263653
  endloop
endfacet
facet normal -0.000000 -0.850217 -0.526432
  outer loop
    vertex 5.142857 -0.349133 -0.263653
    vertex 3.428571 -0.391634 -0.195011
    vertex 3.428571 -0.349133 -0.263653
  endloop
endfacet
facet normal -0.000000 -0.739009 -0.673696
  outer loop
    vertex 5.142857 -0.349133 -0.263653
    vertex 3.428571 -0.349133 -0.263653
    vertex 5.142857 -0.294742 -0.323316
  endloop
endfacet
facet normal -0.000000 -0.739009 -0.673696
  outer loop
    vertex 5.142857 -0.294742 -0.323316
    vertex 3.428571 -0.349133 -0.263653
    vertex 3.428571 -0.294742 -0.323316
  endloop
endfacet
facet normal -0.000000 -0.602635 -0.798017
  outer loop
    vertex 5.142857 -0.294742 -0.323316
    vertex 3.428571 -0.294742 -0.323316
    vertex 5.142857 -0.230314 -0.371970
  endloop
endfacet
facet normal -0.000000 -0.602635 -0.798017
  outer loop
    vertex 5.142857 -0.230314 -0.371970
    vertex 3.428571 -0.294742 -0.323316
    vertex 3.428571 -0.230314 -0.371970
  endloop
endfacet
facet normal -0.000000 -0.445738 -0.895163
  outer loop
    vertex 5.142857 -0.230314 -0.371970
    vertex 3.428571 -0.230314 -0.371970
    vertex 5.142857 -0.158043 -0.407957
  endloop
endfacet
facet normal -0.000000 -0.445738 -0.895163
  outer loop
    vertex 5.142857 -0.158043 -0.407957
    vertex 3.428571 -0.230314 -0.371970
    vertex 3.428571 -0.158043 -0.407957
  endloop
endfacet
facet normal -0.000000 -0.273663 -0.961826
  outer loop
    vertex 5.142857 -0.158043 -0.407957
    vertex 3.428571 -0.158043 -0.407957
    vertex 5.142857 -0.080390 -0.430051
  endloop
endfacet
facet normal -0.000000 -0.273663 -0.961826
  outer loop
    vertex 5.142857 -0.080390 -0.430051
    vertex 3.428571 -0.158043 -0.407957
    vertex 3.428571 -0.080390 -0.430051
  endloop
endfacet
facet normal -0.000000 -0.092268 -0.995734
  outer loop
    vertex 5.142857 -0.080390 -0.430051
    vertex 3.428571 -0.080390 -0.430051
    vertex 5.142857 0.000000 -0.437500
  endloop
endfacet
facet normal -0.000000 -0.092268 -0.995734
  outer loop
    vertex 5.142857 0.000000 -0.437500
    vertex 3.428571 -0.080390 -0.430051
    vertex 3.428571 0.000000 -0.437500
  endloop
endfacet
facet normal 0.000000 0.092268 -0.995734
  outer loop
    vertex 5.142857 0.000000 -0.437500
    vertex 3.428571 0.000000 -0.437500
    vertex 5.142857 0.080390 -0.430051
  endloop
endfacet
facet normal 0.000000 0.092268 -0.995734
  outer loop
    vertex 5.142857 0.080390 -0.430051
    vertex 3.428571 0.000000 -0.437500
    vertex 3.428571 0.080390 -0.430051
  endloop
endfacet
facet normal 0.000000 0.273663 -0.961826
  outer loop
    vertex 5.142857 0.080390 -0.430051
    vertex 3.428571 0.080390 -0.430051
    vertex 5.142857 0.158043 -0.407957
  endloop
endfacet
facet normal 0.000000 0.273663 -0.961826
  outer loop
    vertex 5.142857 0.158043 -0.407957
    vertex 3.428571 0.080390 -0.430051
    vertex 3.428571 0.158043 -0.407957
  endloop
endfacet
facet normal 0.000000 0.445738 -0.895163
  outer loop
    vertex 5.142857 0.158043 -0.407957
    vertex 3.428571 0.158043 -0.407957
    vertex 5.142857 0.230314 -0.371970
  endloop
endfacet
facet normal 0.000000 0.445738 -0.895163
  outer loop
    vertex 5.142857 0.230314 -0.371970
    vertex 3.428571 0.158043 -0.407957
    vertex 3.428571 0.230314 -0.371970
  endloop
endfacet
facet normal 0.000000 0.602635 -0.798017
  outer loop
    vertex 5.142857 0.230314 -0.371970
    vertex 3.428571 0.230314 -0.371970
    vertex 5.142857 0.294742 -0.323316
  endloop
endfacet
facet normal 0.000000 0.602635 -0.798017
  outer loop
    vertex 5.142857 0.294742 -0.323316
    vertex 3.428571 0.230314 -0.371970
    vertex 3.428571 0.294742 -0.323316
  endloop
endfacet
facet normal 0.000000 0.739009 -0.673696
  outer loop
    vertex 5.142857 0.294742 -0.323316
    vertex 3.428571 0.294742 -0.323316
    vertex 5.142857 0.349133 -0.263653
  endloop
endfacet
facet normal -0.000000 0.092268 0.995734
  outer loop
    vertex 6.857143 0.000000 0.437500
    vertex 8.571428 0.000000 0.437500
    vertex 6.857143 0.080390 0.430051
  endloop
endfacet
facet normal -0.000000 0.092268 0.995734
  outer loop
    vertex 6.857143 0.080390 0.430051
    vertex 8.571428 0.000000 0.437500
    vertex 8.571428 0.080390 0.430051
  endloop
endfacet
facet normal -0.000000 0.273663 0.961826
  outer loop
    vertex 6.857143 0.080390 0.430051
    vertex 8.571428 0.080390 0.430051
    vertex 6.857143 0.158043 0.407957
  endloop
endfacet
facet normal -0.000000 0.273663 0.961826
  outer loop
    vertex 6.857143 0.158043 0.407957
    vertex 8.571428 0.080390 0.430051
    vertex 8.571428 0.158043 0.407957
  endloop
endfacet
facet normal -0.000000 0.445738 0.895163
  outer loop
    vertex 6.857143 0.158043 0.407957
    vertex 8.571428 0.158043 0.407957
    vertex 6.857143 0.230314 0.371970
  endloop
endfacet
facet normal -0.000000 0.445738 0.895163
  outer loop
    vertex 6.857143 0.230314 0.371970
    vertex 8.571428 0.158043 0.407957
    vertex 8.571428 0.230314 0.371970
  endloop
endfacet
facet normal -0.000000 0.602635 0.798017
  outer loop
    vertex 6.857143 0.230314 0.371970
    vertex 8.571428 0.230314 0.371970
    vertex 6.857143 0.294742 0.323316
  endloop
endfacet
facet normal -0.000000 0.602635 0.798017
  outer loop
    vertex 6.857143 0.294742 0.323316
    vertex 8.571428 0.230314 0.371970
    vertex 8.571428 0.294742 0.323316
  endloop
endfacet
facet normal -0.000000 0.739009 0.673696
  outer loop
    vertex 6.857143 0.294742 0.323316
    vertex 8.571428 0.294742 0.323316
    vertex 6.857143 0.349133 0.263653
  endloop
endfacet
facet normal 0.000000 -0.092268 0.995734
  outer loop
    vertex 6.857143 0.000000 0.437500
    vertex 5.142857 0.000000 0.437500
    vertex 6.857143 -0.080390 0.430051
  endloop
endfacet
facet normal 0.000000 -0.092268 0.995734
  outer loop
    vertex 6.857143 -0.080390 0.430051
    vertex 5.142857 0.000000 0.437500
    vertex 5.142857 -0.080390 0.430051
  endloop
endfacet
facet normal 0.000000 -0.273663 0.961826
  outer loop
    vertex 6.857143 -0.080390 0.430051
    vertex 5.142857 -0.080390 0.430051
    vertex 6.857143 -0.158043 0.407957
  endloop
endfacet
facet normal 0.000000 -0.273663 0.961826
  outer loop
    vertex 6.857143 -0.158043 0.407957
    vertex 5.142857 -0.080390 0.430051
    vertex 5.142857 -0.158043 0.407957
  endloop
endfacet
facet normal 0.000000 -0.445738 0.895163
  outer loop
    vertex 6.857143 -0.158043 0.407957
    vertex 5.142857 -0.158043 0.407957
    vertex 6.857143 -0.230314 0.371970
  endloop
endfacet
facet normal 0.000000 -0.445738 0.895163
  outer loop
    vertex 6.857143 -0.230314 0.371970
    vertex 5.142857 -0.158043 0.407957
    vertex 5.142857 -0.230314 0.371970
  endloop
endfacet
facet normal 0.000000 -0.602635 0.798017
  outer loop
    vertex 6.857143 -0.230314 0.371970
    vertex 5.142857 -0.230314 0.371970
    vertex 6.857143 -0.294742 0.323316
  endloop
endfacet
facet normal 0.000000 -0.602635 0.798017
  outer loop
    vertex 6.857143 -0.294742 0.323316
    vertex 5.142857 -0.230314 0.371970
    vertex 5.142857 -0.294742 0.323316
  endloop
endfacet
facet normal 0.000000 -0.739009 0.673696
  outer loop
    vertex 6.857143 -0.294742 0.323316
    vertex 5.142857 -0.294742 0.323316
    vertex 6.857143 -0.349133 0.263653
  endloop
endfacet
facet normal 0.000000 -0.739009 0.673696
  outer loop
    vertex 6.857143 -0.349133 0.263653
    vertex 5.142857 -0.294742 0.323316
    vertex 5.142857 -0.349133 0.263653
  endloop
endfacet
facet normal 0.000000 -0.850217 0.526432
  outer loop
    vertex 6.857143 -0.349133 0.263653
    vertex 5.142857 -0.349133 0.263653
    vertex 6.857143 -0.391634 0.195011
  endloop
endfacet
facet normal 0.000000 -0.850217 0.526432
  outer loop
    vertex 6.857143 -0.391634 0.195011
    vertex 5.142857 -0.349133 0.263653
    vertex 5.142857 -0.391634 0.195011
  endloop
endfacet
facet normal 0.000000 -0.932472 0.361242
  outer loop
    vertex 6.857143 -0.391634 0.195011
    vertex 5.142857 -0.391634 0.195011
    vertex 6.857143 -0.420799 0.119728
  endloop
endfacet
facet normal 0.000000 -0.932472 0.361242
  outer loop
    vertex 6.857143 -0.420799 0.119728
    vertex 5.142857 -0.391634 0.195011
    vertex 5.142857 -0.420799 0.119728
  endloop
endfacet
facet normal 0.000000 -0.982973 0.183749
  outer loop
    vertex 6.857143 -0.420799 0.119728
    vertex 5.142857 -0.420799 0.119728
    vertex 6.857143 -0.435634 0.040367
  endloop
endfacet
facet normal 0.000000 -0.982973 0.183749
  outer loop
    vertex 6.857143 -0.435634 0.040367
    vertex 5.142857 -0.420799 0.119728
    vertex 5.142857 -0.435634 0.040367
  endloop
endfacet
facet normal -0.000000 -1.000000 -0.000000
  outer loop
    vertex 6.857143 -0.435634 0.040367
    vertex 5.142857 -0.435634 0.040367
    vertex 6.857143 -0.435634 -0.040367
  endloop
endfacet
facet normal 0.000000 -1.000000 0.000000
  outer loop
    vertex 6.857143 -0.435634 -0.040367
    vertex 5.142857 -0.435634 0.040367
    vertex 5.142857 -0.435634 -0.040367
  endloop
endfacet
facet normal -0.000000 -0.982973 -0.183749
  outer loop
    vertex 6.857143 -0.435634 -0.040367
    vertex 5.142857 -0.435634 -0.040367
    vertex 6.857143 -0.420799 -0.119728
  endloop
endfacet
facet normal -0.000000 -0.982973 -0.183749
  outer loop
    vertex 6.857143 -0.420799 -0.119728
    vertex 5.142857 -0.435634 -0.040367
    vertex 5.142857 -0.420799 -0.119728
  endloop
endfacet
facet normal -0.000000 -0.932472 -0.361242
  outer loop
    vertex 6.857143 -0.420799 -0.119728
    vertex 5.142857 -0.420799 -0.119728
    vertex 6.857143 -0.391634 -0.195011
  endloop
endfacet
facet normal -0.000000 -0.932472 -0.361242
  outer loop
    vertex 6.857143 -0.391634 -0.195011
    vertex 5.142857 -0.420799 -0.119728
    vertex 5.142857 -0.391634 -0.195011
  endloop
endfacet
facet normal -0.000000 -0.850217 -0.526432
  outer loop
    vertex 6.857143 -0.391634 -0.195011
    vertex 5.142857 -0.391634 -0.195011
    vertex 6.857143 -0.349133 -0.263653
  endloop
endfacet
facet normal -0.000000 -0.850217 -0.526432
  outer loop
    vertex 6.857143 -0.349133 -0.263653
    vertex 5.142857 -0.391634 -0.195011
    vertex 5.142857 -0.349133 -0.263653
  endloop
endfacet
facet normal -0.000000 -0.739009 -0.673696
  outer loop
    vertex 6.857143 -0.349133 -0.263653
    vertex 5.142857 -0.349133 -0.263653
    vertex 6.857143 -0.294742 -0.323316
  endloop
endfacet
facet normal -0.000000 -0.739009 -0.673696
  outer loop
    vertex 6.857143 -0.294742 -0.323316
    vertex 5.142857 -0.349133 -0.263653
    vertex 5.142857 -0.294742 -0.323316
  endloop
endfacet
facet normal -0.000000 -0.602635 -0.798017
  outer loop
    vertex 6.857143 -0.294742 -0.323316
    vertex 5.142857 -0.294742 -0.323316
    vertex 6.857143 -0.230314 -0.371970
  endloop
endfacet
facet normal -0.000000 -0.602635 -0.798017
  outer loop
    vertex 6.857143 -0.230314 -0.371970
    vertex 5.142857 -0.294742 -0.323316
    vertex 5.142857 -0.230314 -0.371970
  endloop
endfacet
facet normal -0.000000 -0.445738 -0.895163
  outer loop
    vertex 6.857143 -0.230314 -0.371970
    vertex 5.142857 -0.230314 -0.371970
    vertex 6.857143 -0.158043 -0.407957
  endloop
endfacet
facet normal -0.000000 -0.445738 -0.895163
  outer loop
    vertex 6.857143 -0.158043 -0.407957
    vertex 5.142857 -0.230314 -0.371970
    vertex 5.142857 -0.158043 -0.407957
  endloop
endfacet
facet normal -0.000000 -0.273663 -0.961826
  outer loop
    vertex 6.857143 -0.158043 -0.407957
    vertex 5.142857 -0.158043 -0.407957
    vertex 6.857143 -0.080390 -0.430051
  endloop
endfacet
facet normal -0.000000 -0.273663 -0.961826
  outer loop
    vertex 6.857143 -0.080390 -0.430051
    vertex 5.142857 -0.158043 -0.407957
    vertex 5.142857 -0.080390 -0.430051
  endloop
endfacet
facet normal -0.000000 -0.092268 -0.995734
  outer loop
    vertex 6.857143 -0.080390 -0.430051
    vertex 5.142857 -0.080390 -0.430051
    vertex 6.857143 0.000000 -0.437500
  endloop
endfacet
facet normal -0.000000 -0.092268 -0.995734
  outer loop
    vertex 6.857143 0.000000 -0.437500
    vertex 5.142857 -0.080390 -0.430051
    vertex 5.142857 0.000000 -0.437500
  endloop
endfacet
facet normal 0.000000 0.092268 -0.995734
  outer loop
    vertex 6.857143 0.000000 -0.437500
    vertex 5.142857 0.000000 -0.437500
    vertex 6.857143 0.080390 -0.430051
  endloop
endfacet
facet normal 0.000000 0.092268 -0.995734
  outer loop
    vertex 6.857143 0.080390 -0.430051
    vertex 5.142857 0.000000 -0.437500
    vertex 5.142857 0.080390 -0.430051
  endloop
endfacet
facet normal 0.000000 0.273663 -0.961826
  outer loop
    vertex 6.857143 0.080390 -0.430051
    vertex 5.142857 0.080390 -0.430051
    vertex 6.857143 0.158043 -0.407957
  endloop
endfacet
facet normal 0.000000 0.273663 -0.961826
  outer loop
    vertex 6.857143 0.158043 -0.407957
    vertex 5.142857 0.080390 -0.430051
    vertex 5.142857 0.158043 -0.407957
  endloop
endfacet
facet normal 0.000000 0.445738 -0.895163
  outer loop
    vertex 6.857143 0.158043 -0.407957
    vertex 5.142857 0.158043 -0.407957
    vertex 6.857143 0.230314 -0.371970
  endloop
endfacet
facet normal 0.000000 0.445738 -0.895163
  outer loop
    vertex 6.857143 0.230314 -0.371970
    vertex 5.142857 0.158043 -0.407957
    vertex 5.142857 0.230314 -0.371970
  endloop
endfacet
facet normal 0.000000 0.602635 -0.798017
  outer loop
    vertex 6.857143 0.230314 -0.371970
    vertex 5.142857 0.230314 -0.371970
    vertex 6.857143 0.294742 -0.323316
  endloop
endfacet
facet normal 0.000000 0.602635 -0.798017
  outer loop
    vertex 6.857143 0.294742 -0.323316
    vertex 5.142857 0.230314 -0.371970
    vertex 5.142857 0.294742 -0.323316
  endloop
endfacet
facet normal 0.000000 0.739009 -0.673696
  outer loop
    vertex 6.857143 0.294742 -0.323316
    vertex 5.142857 0.294742 -0.323316
    vertex 6.857143 0.349133 -0.263653
  endloop
endfacet
facet normal 0.000000 0.739009 -0.673696
  outer loop
    vertex 6.857143 0.349133 -0.263653
    vertex 5.142857 0.294742 -0.323316
    vertex 5.142857 0.349133 -0.263653
  endloop
endfacet
facet normal 0.000000 0.850217 -0.526432
  outer loop
    vertex 6.857143 0.349133 -0.263653
    vertex 5.142857 0.349133 -0.263653
    vertex 6.857143 0.391634 -0.195011
  endloop
endfacet
facet normal 0.000000 0.092268 0.995734
  outer loop
    vertex 8.571428 0.000000 0.437500
    vertex 10.285714 -0.000000 0.437500
    vertex 8.571428 0.080390 0.430051
  endloop
endfacet
facet normal -0.000000 0.092268 0.995734
  outer loop
    vertex 8.571428 0.080390 0.430051
    vertex 10.285714 -0.000000 0.437500
    vertex 10.285714 0.080390 0.430051
  endloop
endfacet
facet normal -0.000000 0.273663 0.961826
  outer loop
    vertex 8.571428 0.080390 0.430051
    vertex 10.285714 0.080390 0.430051
    vertex 8.571428 0.158043 0.407957
  endloop
endfacet
facet normal -0.000000 0.273663 0.961826
  outer loop
    vertex 8.571428 0.158043 0.407957
    vertex 10.285714 0.080390 0.430051
    vertex 10.285714 0.158043 0.407957
  endloop
endfacet
facet normal -0.000000 0.445738 0.895163
  outer loop
    vertex 8.571428 0.158043 0.407957
    vertex 10.285714 0.158043 0.407957
    vertex 8.571428 0.230314 0.371970
  endloop
endfacet
facet normal -0.000000 0.445738 0.895163
  outer loop
    vertex 8.571428 0.230314 0.371970
    vertex 10.285714 0.158043 0.407957
    vertex 10.285714 0.230314 0.371970
  endloop
endfacet
facet normal -0.000000 0.602635 0.798017
  outer loop
    vertex 8.571428 0.230314 0.371970
    vertex 10.285714 0.230314 0.371970
    vertex 8.571428 0.294742 0.323316
  endloop
endfacet
facet normal 0.000000 -0.092268 0.995734
  outer loop
    vertex 8.571428 0.000000 0.437500
    vertex 6.857143 0.000000 0.437500
    vertex 8.571428 -0.080390 0.430051
  endloop
endfacet
facet normal 0.000000 -0.092268 0.995734
  outer loop
    vertex 8.571428 -0.080390 0.430051
    vertex 6.857143 0.000000 0.437500
    vertex 6.857143 -0.080390 0.430051
  endloop
endfacet
facet normal 0.000000 -0.273663 0.961826
  outer loop
    vertex 8.571428 -0.080390 0.430051
    vertex 6.857143 -0.080390 0.430051
    vertex 8.571428 -0.158043 0.407957
  endloop
endfacet
facet normal 0.000000 -0.273663 0.961826
  outer loop
    vertex 8.571428 -0.158043 0.407957
    vertex 6.857143 -0.080390 0.430051
    vertex 6.857143 -0.158043 0.407957
  endloop
endfacet
facet normal 0.000000 -0.445738 0.895163
  outer loop
    vertex 8.571428 -0.158043 0.407957
    vertex 6.857143 -0.158043 0.407957
    vertex 8.571428 -0.230314 0.371970
  endloop
endfacet
facet normal 0.000000 -0.445738 0.895163
  outer loop
    vertex 8.571428 -0.230314 0.371970
    vertex 6.857143 -0.158043 0.407957
    vertex 6.857143 -0.230314 0.371970
  endloop
endfacet
facet normal 0.000000 -0.602635 0.798017
  outer loop
    vertex 8.571428 -0.230314 0.371970
    vertex 6.857143 -0.230314 0.371970
    vertex 8.571428 -0.294742 0.323316
  endloop
endfacet
facet normal 0.000000 -0.602635 0.798017
  outer loop
    vertex 8.571428 -0.294742 0.323316
    vertex 6.857143 -0.230314 0.371970
    vertex 6.857143 -0.294742 0.323316
  endloop
endfacet
facet normal 0.000000 -0.739009 0.673696
  outer loop
    vertex 8.571428 -0.294742 0.323316
    vertex 6.857143 -0.294742 0.323316
    vertex 8.571428 -0.349133 0.263653
  endloop
endfacet
facet normal 0.000000 -0.739009 0.673696
  outer loop
    vertex 8.571428 -0.349133 0.263653
    vertex 6.857143 -0.294742 0.323316
    vertex 6.857143 -0.349133 0.263653
  endloop
endfacet
facet normal 0.000000 -0.850217 0.526432
  outer loop
    vertex 8.571428 -0.349133 0.263653
    vertex 6.857143 -0.349133 0.263653
    vertex 8.571428 -0.391634 0.195011
  endloop
endfacet
facet normal 0.000000 -0.850217 0.526432
  outer loop
    vertex 8.571428 -0.391634 0.195011
    vertex 6.857143 -0.349133 0.263653
    vertex 6.857143 -0.391634 0.195011
  endloop
endfacet
facet normal 0.000000 -0.932472 0.361242
  outer loop
    vertex 8.571428 -0.391634 0.195011
    vertex 6.857143 -0.391634 0.195011
    vertex 8.571428 -0.420799 0.119728
  endloop
endfacet
facet normal 0.000000 -0.932472 0.361242
  outer loop
    vertex 8.571428 -0.420799 0.119728
    vertex 6.857143 -0.391634 0.195011
    vertex 6.857143 -0.420799 0.119728
  endloop
endfacet
facet normal 0.000000 -0.982973 0.183749
  outer loop
    vertex 8.571428 -0.420799 0.119728
    vertex 6.857143 -0.420799 0.119728
    vertex 8.571428 -0.435634 0.040367
  endloop
endfacet
facet normal 0.000000 -0.982973 0.183749
  outer loop
    vertex 8.571428 -0.435634 0.040367
    vertex 6.857143 -0.420799 0.119728
    vertex 6.857143 -0.435634 0.040367
  endloop
endfacet
facet normal -0.000000 -1.000000 -0.000000
  outer loop
    vertex 8.571428 -0.435634 0.040367
    vertex 6.857143 -0.435634 0.040367
    vertex 8.571428 -0.435634 -0.040367
  endloop
endfacet
facet normal 0.000000 -1.000000 0.000000
  outer loop
    vertex 8.571428 -0.435634 -0.040367
    vertex 6.857143 -0.435634 0.040367
    vertex 6.857143 -0.435634 -0.040367
  endloop
endfacet
facet normal -0.000000 -0.982973 -0.183749
  outer loop
    vertex 8.571428 -0.435634 -0.040367
    vertex 6.857143 -0.435634 -0.040367
    vertex 8.571428 -0.420799 -0.119728
  endloop
endfacet
facet normal -0.000000 -0.982973 -0.183749
  outer loop
    vertex 8.571428 -0.420799 -0.119728
    vertex 6.857143 -0.435634 -0.040367
    vertex 6.857143 -0.420799 -0.119728
  endloop
endfacet
facet normal -0.000000 -0.932472 -0.361242
  outer loop
    vertex 8.571428 -0.420799 -0.119728
    vertex 6.857143 -0.420799 -0.119728
    vertex 8.571428 -0.391634 -0.195011
  endloop
endfacet
facet normal -0.000000 -0.932472 -0.361242
  outer loop
    vertex 8.571428 -0.391634 -0.195011
    vertex 6.857143 -0.420799 -0.119728
    vertex 6.857143 -0.391634 -0.195011
  endloop
endfacet
facet normal -0.000000 -0.850217 -0.526432
  outer loop
    vertex 8.571428 -0.391634 -0.195011
    vertex 6.857143 -0.391634 -0.195011
    vertex 8.571428 -0.349133 -0.263653
  endloop
endfacet
facet normal -0.000000 -0.850217 -0.526432
  outer loop
    vertex 8.571428 -0.349133 -0.263653
    vertex 6.857143 -0.391634 -0.195011
    vertex 6.857143 -0.349133 -0.263653
  endloop
endfacet
facet normal -0.000000 -0.739009 -0.673696
  outer loop
    vertex 8.571428 -0.349133 -0.263653
    vertex 6.857143 -0.349133 -0.263653
    vertex 8.571428 -0.294742 -0.323316
  endloop
endfacet
facet normal -0.000000 -0.739009 -0.673696
  outer loop
    vertex 8.571428 -0.294742 -0.323316
    vertex 6.857143 -0.349133 -0.263653
    vertex 6.857143 -0.294742 -0.323316
  endloop
endfacet
facet normal -0.000000 -0.602635 -0.798017
  outer loop
    vertex 8.571428 -0.294742 -0.323316
    vertex 6.857143 -0.294742 -0.323316
    vertex 8.571428 -0.230314 -0.371970
  endloop
endfacet
facet normal -0.000000 -0.602635 -0.798017
  outer loop
    vertex 8.571428 -0.230314 -0.371970
    vertex 6.857143 -0.294742 -0.323316
    vertex 6.857143 -0.230314 -0.371970
  endloop
endfacet
facet normal -0.000000 -0.445738 -0.895163
  outer loop
    vertex 8.571428 -0.230314 -0.371970
    vertex 6.857143 -0.230314 -0.371970
    vertex 8.571428 -0.158043 -0.407957
  endloop
endfacet
facet normal -0.000000 -0.445738 -0.895163
  outer loop
    vertex 8.571428 -0.158043 -0.407957
    vertex 6.857143 -0.230314 -0.371970
    vertex 6.857143 -0.158043 -0.407957
  endloop
endfacet
facet normal -0.000000 -0.273663 -0.961826
  outer loop
    vertex 8.571428 -0.158043 -0.407957
    vertex 6.857143 -0.158043 -0.407957
    vertex 8.571428 -0.080390 -0.430051
  endloop
endfacet
facet normal -0.000000 -0.273663 -0.961826
  outer loop
    vertex 8.571428 -0.080390 -0.430051
    vertex 6.857143 -0.158043 -0.407957
    vertex 6.857143 -0.080390 -0.430051
  endloop
endfacet
facet normal -0.000000 -0.092268 -0.995734
  outer loop
    vertex 8.571428 -0.080390 -0.430051
    vertex 6.857143 -0.080390 -0.430051
    vertex 8.571428 0.000000 -0.437500
  endloop
endfacet
facet normal -0.000000 -0.092268 -0.995734
  outer loop
    vertex 8.571428 0.000000 -0.437500
    vertex 6.857143 -0.080390 -0.430051
    vertex 6.857143 0.000000 -0.437500
  endloop
endfacet
facet normal 0.000000 0.092268 -0.995734
  outer loop
    vertex 8.571428 0.000000 -0.437500
    vertex 6.857143 0.000000 -0.437500
    vertex 8.571428 0.080390 -0.430051
  endloop
endfacet
facet normal 0.000000 0.092268 -0.995734
  outer loop
    vertex 8.571428 0.080390 -0.430051
    vertex 6.857143 0.000000 -0.437500
    vertex 6.857143 0.080390 -0.430051
  endloop
endfacet
facet normal 0.000000 0.273663 -0.961826
  outer loop
    vertex 8.571428 0.080390 -0.430051
    vertex 6.857143 0.080390 -0.430051
    vertex 8.571428 0.158043 -0.407957
  endloop
endfacet
facet normal 0.000000 0.273663 -0.961826
  outer loop
    vertex 8.571428 0.158043 -0.407957
    vertex 6.857143 0.080390 -0.430051
    vertex 6.857143 0.158043 -0.407957
  endloop
endfacet
facet normal 0.000000 0.445738 -0.895163
  outer loop
    vertex 8.571428 0.158043 -0.407957
    vertex 6.857143 0.158043 -0.407957
    vertex 8.571428 0.230314 -0.371970
  endloop
endfacet
facet normal 0.000000 0.445738 -0.895163
  outer loop
    vertex 8.571428 0.230314 -0.371970
    vertex 6.857143 0.158043 -0.407957
    vertex 6.857143 0.230314 -0.371970
  endloop
endfacet
facet normal 0.000000 0.602635 -0.798017
  outer loop
    vertex 8.571428 0.230314 -0.371970
    vertex 6.857143 0.230314 -0.371970
    vertex 8.571428 0.294742 -0.323316
  endloop
endfacet
facet normal 0.000000 0.602635 -0.798017
  outer loop
    vertex 8.571428 0.294742 -0.323316
    vertex 6.857143 0.230314 -0.371970
    vertex 6.857143 0.294742 -0.323316
  endloop
endfacet
facet normal 0.000000 0.739009 -0.673696
  outer loop
    vertex 8.571428 0.294742 -0.323316
    vertex 6.857143 0.294742 -0.323316
    vertex 8.571428 0.349133 -0.263653
  endloop
endfacet
facet normal 0.000000 0.739009 -0.673696
  outer loop
    vertex 8.571428 0.349133 -0.263653
    vertex 6.857143 0.294742 -0.323316
    vertex 6.857143 0.349133 -0.263653
  endloop
endfacet
facet normal 0.000000 0.850217 -0.526432
  outer loop
    vertex 8.571428 0.349133 -0.263653
    vertex 6.857143 0.349133 -0.263653
    vertex 8.571428 0.391634 -0.195011
  endloop
endfacet
facet normal 0.000000 0.850217 -0.526432
  outer loop
    vertex 8.571428 0.391634 -0.195011
    vertex 6.857143 0.349133 -0.263653
    vertex 6.857143 0.391634 -0.195011
  endloop
endfacet
facet normal 0.000000 0.932472 -0.361242
  outer loop
    vertex 8.571428 0.391634 -0.195011
    vertex 6.857143 0.391634 -0.195011
    vertex 8.571428 0.420799 -0.119728
  endloop
endfacet
facet normal -0.000000 -0.092268 0.995734
  outer loop
    vertex 10.285714 -0.000000 0.437500
    vertex 8.571428 0.000000 0.437500
    vertex 10.285714 -0.080390 0.430051
  endloop
endfacet
facet normal 0.000000 -0.092268 0.995734
  outer loop
    vertex 10.285714 -0.080390 0.430051
    vertex 8.571428 0.000000 0.437500
    vertex 8.571428 -0.080390 0.430051
  endloop
endfacet
facet normal 0.000000 -0.273663 0.961826
  outer loop
    vertex 10.285714 -0.080390 0.430051
    vertex 8.571428 -0.080390 0.430051
    vertex 10.285714 -0.158043 0.407957
  endloop
endfacet
facet normal 0.000000 -0.273663 0.961826
  outer loop
    vertex 10.285714 -0.158043 0.407957
    vertex 8.571428 -0.080390 0.430051
    vertex 8.571428 -0.158043 0.407957
  endloop
endfacet
facet normal 0.000000 -0.445738 0.895163
  outer loop
    vertex 10.285714 -0.158043 0.407957
    vertex 8.571428 -0.158043 0.407957
    vertex 10.285714 -0.230314 0.371970
  endloop
endfacet
facet normal 0.000000 -0.445738 0.895163
  outer loop
    vertex 10.285714 -0.230314 0.371970
    vertex 8.571428 -0.158043 0.407957
    vertex 8.571428 -0.230314 0.371970
  endloop
endfacet
facet normal 0.000000 -0.602635 0.798017
  outer loop
    vertex 10.285714 -0.230314 0.371970
    vertex 8.571428 -0.230314 0.371970
    vertex 10.285714 -0.294742 0.323316
  endloop
endfacet
facet normal 0.000000 -0.602635 0.798017
  outer loop
    vertex 10.285714 -0.294742 0.323316
    vertex 8.571428 -0.230314 0.371970
    vertex 8.571428 -0.294742 0.323316
  endloop
endfacet
facet normal 0.000000 -0.739009 0.673696
  outer loop
    vertex 10.285714 -0.294742 0.323316
    vertex 8.571428 -0.294742 0.323316
    vertex 10.285714 -0.349133 0.263653
  endloop
endfacet
facet normal 0.000000 -0.739009 0.673696
  outer loop
    vertex 10.285714 -0.349133 0.263653
    vertex 8.571428 -0.294742 0.323316
    vertex 8.571428 -0.349133 0.263653
  endloop
endfacet
facet normal 0.000000 -0.850217 0.526432
  outer loop
    vertex 10.285714 -0.349133 0.263653
    vertex 8.571428 -0.349133 0.263653
    vertex 10.285714 -0.391634 0.195011
  endloop
endfacet
facet normal 0.000000 -0.850217 0.526432
  outer loop
    vertex 10.285714 -0.391634 0.195011
    vertex 8.571428 -0.349133 0.263653
    vertex 8.571428 -0.391634 0.195011
  endloop
endfacet
facet normal 0.000000 -0.932472 0.361242
  outer loop
    vertex 10.285714 -0.391634 0.195011
    vertex 8.571428 -0.391634 0.195011
    vertex 10.285714 -0.420799 0.119728
  endloop
endfacet
facet normal 0.000000 -0.932472 0.361242
  outer loop
    vertex 10.285714 -0.420799 0.119728
    vertex 8.571428 -0.391634 0.195011
    vertex 8.571428 -0.420799 0.119728
  endloop
endfacet
facet normal 0.000000 -0.982973 0.183749
  outer loop
    vertex 10.285714 -0.420799 0.119728
    vertex 8.571428 -0.420799 0.119728
    vertex 10.285714 -0.435634 0.040367
  endloop
endfacet
facet normal 0.000000 -0.982973 0.183749
  outer loop
    vertex 10.285714 -0.435634 0.040367
    vertex 8.571428 -0.420799 0.119728
    vertex 8.571428 -0.435634 0.040367
  endloop
endfacet
facet normal -0.000000 -1.000000 -0.000000
  outer loop
    vertex 10.285714 -0.435634 0.040367
    vertex 8.571428 -0.435634 0.040367
    vertex 10.285714 -0.435634 -0.040367
  endloop
endfacet
facet normal 0.000000 -1.000000 0.000000
  outer loop
    vertex 10.285714 -0.435634 -0.040367
    vertex 8.571428 -0.435634 0.040367
    vertex 8.571428 -0.435634 -0.040367
  endloop
endfacet
facet normal -0.000000 -0.982973 -0.183749
  outer loop
    vertex 10.285714 -0.435634 -0.040367
    vertex 8.571428 -0.435634 -0.040367
    vertex 10.285714 -0.420799 -0.119728
  endloop
endfacet
facet normal -0.000000 -0.982973 -0.183749
  outer loop
    vertex 10.285714 -0.420799 -0.119728
    vertex 8.571428 -0.435634 -0.040367
    vertex 8.571428 -0.420799 -0.119728
  endloop
endfacet
facet normal -0.000000 -0.932472 -0.361242
  outer loop
    vertex 10.285714 -0.420799 -0.119728
    vertex 8.571428 -0.420799 -0.119728
    vertex 10.285714 -0.391634 -0.195011
  endloop
endfacet
facet normal -0.000000 -0.932472 -0.361242
  outer loop
    vertex 10.285714 -0.391634 -0.195011
    vertex 8.571428 -0.420799 -0.119728
    vertex 8.571428 -0.391634 -0.195011
  endloop
endfacet
facet normal -0.000000 -0.850217 -0.526432
  outer loop
    vertex 10.285714 -0.391634 -0.195011
    vertex 8.571428 -0.391634 -0.195011
    vertex 10.285714 -0.349133 -0.263653
  endloop
endfacet
facet normal -0.000000 -0.850217 -0.526432
  outer loop
    vertex 10.285714 -0.349133 -0.263653
    vertex 8.571428 -0.391634 -0.195011
    vertex 8.571428 -0.349133 -0.263653
  endloop
endfacet
facet normal -0.000000 -0.739009 -0.673696
  outer loop
    vertex 10.285714 -0.349133 -0.263653
    vertex 8.571428 -0.349133 -0.263653
    vertex 10.285714 -0.294742 -0.323316
  endloop
endfacet
facet normal -0.000000 -0.739009 -0.673696
  outer loop
    vertex 10.285714 -0.294742 -0.323316
    vertex 8.571428 -0.349133 -0.263653
    vertex 8.571428 -0.294742 -0.323316
  endloop
endfacet
facet normal -0.000000 -0.602635 -0.798017
  outer loop
    vertex 10.285714 -0.294742 -0.323316
    vertex 8.571428 -0.294742 -0.323316
    vertex 10.285714 -0.230314 -0.371970
  endloop
endfacet
facet normal -0.000000 -0.602635 -0.798017
  outer loop
    vertex 10.285714 -0.230314 -0.371970
    vertex 8.571428 -0.294742 -0.323316
    vertex 8.571428 -0.230314 -0.371970
  endloop
endfacet
facet normal -0.000000 -0.445738 -0.895163
  outer loop
    vertex 10.285714 -0.230314 -0.371970
    vertex 8.571428 -0.230314 -0.371970
    vertex 10.285714 -0.158043 -0.407957
  endloop
endfacet
facet normal -0.000000 -0.445738 -0.895163
  outer loop
    vertex 10.285714 -0.158043 -0.407957
    vertex 8.571428 -0.230314 -0.371970
    vertex 8.571428 -0.158043 -0.407957
  endloop
endfacet
facet normal -0.000000 -0.273663 -0.961826
  outer loop
    vertex 10.285714 -0.158043 -0.407957
    vertex 8.571428 -0.158043 -0.407957
    vertex 10.285714 -0.080390 -0.430051
  endloop
endfacet
facet normal -0.000000 -0.273663 -0.961826
  outer loop
    vertex 10.285714 -0.080390 -0.430051
    vertex 8.571428 -0.158043 -0.407957
    vertex 8.571428 -0.080390 -0.430051
  endloop
endfacet
facet normal -0.000000 -0.092268 -0.995734
  outer loop
    vertex 10.285714 -0.080390 -0.430051
    vertex 8.571428 -0.080390 -0.430051
    vertex 10.285714 0.000000 -0.437500
  endloop
endfacet
facet normal -0.000000 -0.092268 -0.995734
  outer loop
    vertex 10.285714 0.000000 -0.437500
    vertex 8.571428 -0.080390 -0.430051
    vertex 8.571428 0.000000 -0.437500
  endloop
endfacet
facet normal 0.000000 0.092268 -0.995734
  outer loop
    vertex 10.285714 0.000000 -0.437500
    vertex 8.571428 0.000000 -0.437500
    vertex 10.285714 0.080390 -0.430051
  endloop
endfacet
facet normal 0.000000 0.092268 -0.995734
  outer loop
    vertex 10.285714 0.080390 -0.430051
    vertex 8.571428 0.000000 -0.437500
    vertex 8.571428 0.080390 -0.430051
  endloop
endfacet
facet normal 0.000000 0.273663 -0.961826
  outer loop
    vertex 10.285714 0.080390 -0.430051
    vertex 8.571428 0.080390 -0.430051
    vertex 10.285714 0.158043 -0.407957
  endloop
endfacet
facet normal 0.000000 0.273663 -0.961826
  outer loop
    vertex 10.285714 0.158043 -0.407957
    vertex 8.571428 0.080390 -0.430051
    vertex 8.571428 0.158043 -0.407957
  endloop
endfacet
facet normal 0.000000 0.445738 -0.895163
  outer loop
    vertex 10.285714 0.158043 -0.407957
    vertex 8.571428 0.158043 -0.407957
    vertex 10.285714 0.230314 -0.371970
  endloop
endfacet
facet normal 0.000000 0.445738 -0.895163
  outer loop
    vertex 10.285714 0.230314 -0.371970
    vertex 8.571428 0.158043 -0.407957
    vertex 8.571428 0.230314 -0.371970
  endloop
endfacet
facet normal 0.000000 0.602635 -0.798017
  outer loop
    vertex 10.285714 0.230314 -0.371970
    vertex 8.571428 0.230314 -0.371970
    vertex 10.285714 0.294742 -0.323316
  endloop
endfacet
facet normal 0.000000 0.602635 -0.798017
  outer loop
    vertex 10.285714 0.294742 -0.323316
    vertex 8.571428 0.230314 -0.371970
    vertex 8.571428 0.294742 -0.323316
  endloop
endfacet
facet normal 0.000000 0.739009 -0.673696
  outer loop
    vertex 10.285714 0.294742 -0.323316
    vertex 8.571428 0.294742 -0.323316
    vertex 10.285714 0.349133 -0.263653
  endloop
endfacet
facet normal 0.000000 0.739009 -0.673696
  outer loop
    vertex 10.285714 0.349133 -0.263653
    vertex 8.571428 0.294742 -0.323316
    vertex 8.571428 0.349133 -0.263653
  endloop
endfacet
facet normal 0.000000 0.850217 -0.526432
  outer loop
    vertex 10.285714 0.349133 -0.263653
    vertex 8.571428 0.349133 -0.263653
    vertex 10.285714 0.391634 -0.195011
  endloop
endfacet
facet normal 0.000000 0.850217 -0.526432
  outer loop
    vertex 10.285714 0.391634 -0.195011
    vertex 8.571428 0.349133 -0.263653
    vertex 8.571428 0.391634 -0.195011
  endloop
endfacet
facet normal 0.000000 0.932472 -0.361242
  outer loop
    vertex 10.285714 0.391634 -0.195011
    vertex 8.571428 0.391634 -0.195011
    vertex 10.285714 0.420799 -0.119728
  endloop
endfacet
facet normal 0.000000 0.932472 -0.361242
  outer loop
    vertex 10.285714 0.420799 -0.119728
    vertex 8.571428 0.391634 -0.195011
    vertex 8.571428 0.420799 -0.119728
  endloop
endfacet
facet normal 0.000000 0.000000 -1.000000
  outer loop
    vertex 0.000000 0.427337 0.093750
    vertex 12.000000 0.427337 0.093750
    vertex 0.000000 0.343750 0.093750
  endloop
endfacet
facet normal 0.000000 0.000000 -1.000000
  outer loop
    vertex 0.000000 0.343750 0.093750
    vertex 12.000000 0.427337 0.093750
    vertex 12.000000 0.343750 0.093750
  endloop
endfacet
facet normal 1.000000 0.000000 0.000000
  outer loop
    vertex 12.000000 0.427337 0.093750
    vertex 12.000000 0.403166 0.169892
    vertex 12.000000 0.343750 0.093750
  endloop
endfacet
facet normal 1.000000 0.000000 0.000000
  outer loop
    vertex 12.000000 0.343750 0.093750
    vertex 12.000000 0.403166 0.169892
    vertex 12.000000 0.365553 0.240369
  endloop
endfacet
facet normal 1.000000 0.000000 -0.000000
  outer loop
    vertex 12.000000 0.343750 0.093750
    vertex 12.000000 0.365553 0.240369
    vertex 12.000000 0.315751 0.302832
  endloop
endfacet
facet normal 1.000000 0.000000 0.000000
  outer loop
    vertex 12.000000 0.315751 0.302832
    vertex 12.000000 0.255422 0.355198
    vertex 12.000000 0.343750 0.093750
  endloop
endfacet
facet normal 1.000000 0.000000 0.000000
  outer loop
    vertex 12.000000 0.343750 0.093750
    vertex 12.000000 0.255422 0.355198
    vertex 12.000000 0.186576 0.395721
  endloop
endfacet
facet normal 1.000000 0.000000 0.000000
  outer loop
    vertex 12.000000 0.343750 0.093750
    vertex 12.000000 0.186576 0.395721
    vertex 12.000000 0.111510 0.423051
  endloop
endfacet
facet normal 1.000000 0.000000 0.000000
  outer loop
    vertex 12.000000 0.111510 0.423051
    vertex 12.000000 0.032726 0.436274
    vertex 12.000000 0.343750 0.093750
  endloop
endfacet
facet normal 1.000000 0.000000 0.000000
  outer loop
    vertex 12.000000 0.343750 0.093750
    vertex 12.000000 0.032726 0.436274
    vertex 12.000000 -0.047150 0.434952
  endloop
endfacet
facet normal 1.000000 0.000000 0.000000
  outer loop
    vertex 12.000000 0.343750 0.093750
    vertex 12.000000 -0.047150 0.434952
    vertex 12.000000 -0.125453 0.419127
  endloop
endfacet
facet normal 1.000000 0.000000 0.000000
  outer loop
    vertex 12.000000 -0.125453 0.419127
    vertex 12.000000 -0.199573 0.389328
    vertex 12.000000 0.343750 0.093750
  endloop
endfacet
facet normal 1.000000 0.000000 0.000000
  outer loop
    vertex 12.000000 0.343750 0.093750
    vertex 12.000000 -0.199573 0.389328
    vertex 12.000000 -0.199573 -0.389328
  endloop
endfacet
facet normal 1.000000 0.000000 0.000000
  outer loop
    vertex 12.000000 0.343750 0.093750
    vertex 12.000000 -0.199573 -0.389328
    vertex 12.000000 0.343750 -0.093750
  endloop
endfacet
facet normal 1.000000 0.000000 0.000000
  outer loop
    vertex 12.000000 0.343750 -0.093750
    vertex 12.000000 -0.199573 -0.389328
    vertex 12.000000 -0.125453 -0.419127
  endloop
endfacet
facet normal 1.000000 0.000000 0.000000
  outer loop
    vertex 12.000000 0.343750 -0.093750
    vertex 12.000000 -0.125453 -0.419127
    vertex 12.000000 -0.047150 -0.434952
  endloop
endfacet
facet normal 1.000000 0.000000 -0.000000
  outer loop
    vertex 12.000000 -0.199573 -0.389328
    vertex 12.000000 -0.199573 0.389328
    vertex 12.000000 -0.267040 -0.346549
  endloop
endfacet
facet normal 1.000000 0.000000 0.000000
  outer loop
    vertex 12.000000 -0.267040 -0.346549
    vertex 12.000000 -0.199573 0.389328
    vertex 12.000000 -0.267040 0.346549
  endloop
endfacet
facet normal 1.000000 0.000000 -0.000000
  outer loop
    vertex 12.000000 -0.267040 -0.346549
    vertex 12.000000 -0.267040 0.346549
    vertex 12.000000 -0.325603 -0.292214
  endloop
endfacet
facet normal 1.000000 0.000000 0.000000
  outer loop
    vertex 12.000000 -0.325603 -0.292214
    vertex 12.000000 -0.267040 0.346549
    vertex 12.000000 -0.325603 0.292214
  endloop
endfacet
facet normal 1.000000 0.000000 -0.000000
  outer loop
    vertex 12.000000 -0.325603 -0.292214
    vertex 12.000000 -0.325603 0.292214
    vertex 12.000000 -0.373309 -0.228137
  endloop
endfacet
facet normal 1.000000 0.000000 0.000000
  outer loop
    vertex 12.000000 -0.373309 -0.228137
    vertex 12.000000 -0.325603 0.292214
    vertex 12.000000 -0.373309 0.228137
  endloop
endfacet
facet normal 1.000000 0.000000 -0.000000
  outer loop
    vertex 12.000000 -0.373309 -0.228137
    vertex 12.000000 -0.373309 0.228137
    vertex 12.000000 -0.408569 -0.156453
  endloop
endfacet
facet normal 1.000000 0.000000 0.000000
  outer loop
    vertex 12.000000 -0.408569 -0.156453
    vertex 12.000000 -0.373309 0.228137
    vertex 12.000000 -0.408569 0.156453
  endloop
endfacet
facet normal 1.000000 0.000000 -0.000000
  outer loop
    vertex 12.000000 -0.408569 -0.156453
    vertex 12.000000 -0.408569 0.156453
    vertex 12.000000 -0.430206 -0.079553
  endloop
endfacet
facet normal 1.000000 0.000000 0.000000
  outer loop
    vertex 12.000000 -0.430206 -0.079553
    vertex 12.000000 -0.408569 0.156453
    vertex 12.000000 -0.430206 0.079553
  endloop
endfacet
facet normal 1.000000 0.000000 -0.000000
  outer loop
    vertex 12.000000 -0.430206 -0.079553
    vertex 12.000000 -0.430206 0.079553
    vertex 12.000000 -0.437500 0.000000
  endloop
endfacet
facet normal 1.000000 -0.000000 0.000000
  outer loop
    vertex 12.000000 -0.047150 -0.434952
    vertex 12.000000 0.032726 -0.436274
    vertex 12.000000 0.343750 -0.093750
  endloop
endfacet
facet normal 1.000000 0.000000 0.000000
  outer loop
    vertex 12.000000 0.343750 -0.093750
    vertex 12.000000 0.032726 -0.436274
    vertex 12.000000 0.111510 -0.423051
  endloop
endfacet
facet normal 1.000000 0.000000 0.000000
  outer loop
    vertex 12.000000 0.343750 -0.093750
    vertex 12.000000 0.111510 -0.423051
    vertex 12.000000 0.186576 -0.395721
  endloop
endfacet
facet normal 1.000000 0.000000 0.000000
  outer loop
    vertex 12.000000 0.186576 -0.395721
    vertex 12.000000 0.255422 -0.355198
    vertex 12.000000 0.343750 -0.093750
  endloop
endfacet
facet normal 1.000000 0.000000 0.000000
  outer loop
    vertex 12.000000 0.343750 -0.093750
    vertex 12.000000 0.255422 -0.355198
    vertex 12.000000 0.315751 -0.302832
  endloop
endfacet
facet normal 1.000000 0.000000 0.000000
  outer loop
    vertex 12.000000 0.343750 -0.093750
    vertex 12.000000 0.315751 -0.302832
    vertex 12.000000 0.365553 -0.240369
  endloop
endfacet
facet normal 1.000000 0.000000 -0.000000
  outer loop
    vertex 12.000000 0.365553 -0.240369
    vertex 12.000000 0.403166 -0.169892
    vertex 12.000000 0.343750 -0.093750
  endloop
endfacet
facet normal 1.000000 -0.000000 0.000000
  outer loop
    vertex 12.000000 0.343750 -0.093750
    vertex 12.000000 0.403166 -0.169892
    vertex 12.000000 0.427337 -0.093750
  endloop
endfacet
facet normal -1.000000 0.000000 0.000000
  outer loop
    vertex 0.000000 0.427337 0.093750
    vertex 0.000000 0.343750 0.093750
    vertex 0.000000 0.403166 0.169892
  endloop
endfacet
facet normal -1.000000 -0.000000 0.000000
  outer loop
    vertex 0.000000 0.403166 0.169892
    vertex 0.000000 0.343750 0.093750
    vertex 0.000000 0.365553 0.240369
  endloop
endfacet
facet normal -1.000000 -0.000000 0.000000
  outer loop
    vertex 0.000000 0.365553 0.240369
    vertex 0.000000 0.343750 0.093750
    vertex 0.000000 0.315751 0.302832
  endloop
endfacet
facet normal -1.000000 -0.000000 -0.000000
  outer loop
    vertex 0.000000 0.315751 0.302832
    vertex 0.000000 0.343750 0.093750
    vertex 0.000000 0.255422 0.355198
  endloop
endfacet
facet normal -1.000000 -0.000000 -0.000000
  outer loop
    vertex 0.000000 0.255422 0.355198
    vertex 0.000000 0.343750 0.093750
    vertex 0.000000 0.186576 0.395721
  endloop
endfacet
facet normal -1.000000 -0.000000 -0.000000
  outer loop
    vertex 0.000000 0.186576 0.395721
    vertex 0.000000 0.343750 0.093750
    vertex 0.000000 0.111510 0.423051
  endloop
endfacet
facet normal -1.000000 -0.000000 -0.000000
  outer loop
    vertex 0.000000 0.111510 0.423051
    vertex 0.000000 0.343750 0.093750
    vertex 0.000000 0.032726 0.436274
  endloop
endfacet
facet normal -1.000000 0.000000 -0.000000
  outer loop
    vertex 0.000000 0.032726 0.436274
    vertex 0.000000 0.343750 0.093750
    vertex 0.000000 -0.047150 0.434952
  endloop
endfacet
facet normal -1.000000 0.000000 -0.000000
  outer loop
    vertex 0.000000 -0.047150 0.434952
    vertex 0.000000 0.343750 0.093750
    vertex 0.000000 -0.125453 0.419127
  endloop
endfacet
facet normal -1.000000 0.000000 -0.000000
  outer loop
    vertex 0.000000 -0.125453 0.419127
    vertex 0.000000 0.343750 0.093750
    vertex 0.000000 -0.199573 0.389328
  endloop
endfacet
facet normal -1.000000 0.000000 0.000000
  outer loop
    vertex 0.000000 -0.199573 0.389328
    vertex 0.000000 0.343750 0.093750
    vertex 0.000000 0.343750 -0.093750
  endloop
endfacet
facet normal -1.000000 0.000000 0.000000
  outer loop
    vertex 0.000000 -0.199573 0.389328
    vertex 0.000000 0.343750 -0.093750
    vertex 0.000000 -0.199573 -0.389328
  endloop
endfacet
facet normal -1.000000 0.000000 0.000000
  outer loop
    vertex 0.000000 -0.199573 -0.389328
    vertex 0.000000 0.343750 -0.093750
    vertex 0.000000 -0.125453 -0.419127
  endloop
endfacet
facet normal -1.000000 0.000000 0.000000
  outer loop
    vertex 0.000000 -0.125453 -0.419127
    vertex 0.000000 0.343750 -0.093750
    vertex 0.000000 -0.047150 -0.434952
  endloop
endfacet
facet normal -1.000000 0.000000 0.000000
  outer loop
    vertex 0.000000 -0.047150 -0.434952
    vertex 0.000000 0.343750 -0.093750
    vertex 0.000000 0.032726 -0.436274
  endloop
endfacet
facet normal -1.000000 0.000000 0.000000
  outer loop
    vertex 0.000000 0.032726 -0.436274
    vertex 0.000000 0.343750 -0.093750
    vertex 0.000000 0.111510 -0.423051
  endloop
endfacet
facet normal -1.000000 0.000000 0.000000
  outer loop
    vertex 0.000000 0.111510 -0.423051
    vertex 0.000000 0.343750 -0.093750
    vertex 0.000000 0.186576 -0.395721
  endloop
endfacet
facet normal -1.000000 0.000000 0.000000
  outer loop
    vertex 0.000000 0.186576 -0.395721
    vertex 0.000000 0.343750 -0.093750
    vertex 0.000000 0.255422 -0.355198
  endloop
endfacet
facet normal -1.000000 0.000000 0.000000
  outer loop
    vertex 0.000000 0.255422 -0.355198
    vertex 0.000000 0.343750 -0.093750
    vertex 0.000000 0.315751 -0.302832
  endloop
endfacet
facet normal -1.000000 0.000000 0.000000
  outer loop
    vertex 0.000000 0.315751 -0.302832
    vertex 0.000000 0.343750 -0.093750
    vertex 0.000000 0.365553 -0.240369
  endloop
endfacet
facet normal -1.000000 0.000000 0.000000
  outer loop
    vertex 0.000000 0.365553 -0.240369
    vertex 0.000000 0.343750 -0.093750
    vertex 0.000000 0.403166 -0.169892
  endloop
endfacet
facet normal -1.000000 0.000000 0.000000
  outer loop
    vertex 0.000000 0.403166 -0.169892
    vertex 0.000000 0.343750 -0.093750
    vertex 0.000000 0.427337 -0.093750
  endloop
endfacet
facet normal -1.000000 0.000000 -0.000000
  outer loop
    vertex 0.000000 -0.199573 0.389328
    vertex 0.000000 -0.199573 -0.389328
    vertex 0.000000 -0.267040 0.346549
  endloop
endfacet
facet normal -1.000000 0.000000 0.000000
  outer loop
    vertex 0.000000 -0.267040 0.346549
    vertex 0.000000 -0.199573 -0.389328
    vertex 0.000000 -0.267040 -0.346549
  endloop
endfacet
facet normal -1.000000 0.000000 -0.000000
  outer loop
    vertex 0.000000 -0.267040 0.346549
    vertex 0.000000 -0.267040 -0.346549
    vertex 0.000000 -0.325603 0.292214
  endloop
endfacet
facet normal -1.000000 0.000000 0.000000
  outer loop
    vertex 0.000000 -0.325603 0.292214
    vertex 0.000000 -0.267040 -0.346549
    vertex 0.000000 -0.325603 -0.292214
  endloop
endfacet
facet normal -1.000000 0.000000 -0.000000
  outer loop
    vertex 0.000000 -0.325603 0.292214
    vertex 0.000000 -0.325603 -0.292214
    vertex 0.000000 -0.373309 0.228137
  endloop
endfacet
facet normal -1.000000 0.000000 0.000000
  outer loop
    vertex 0.000000 -0.373309 0.228137
    vertex 0.000000 -0.325603 -0.292214
    vertex 0.000000 -0.373309 -0.228137
  endloop
endfacet
facet normal -1.000000 0.000000 -0.000000
  outer loop
    vertex 0.000000 -0.373309 0.228137
    vertex 0.000000 -0.373309 -0.228137
    vertex 0.000000 -0.408569 0.156453
  endloop
endfacet
facet normal -1.000000 0.000000 0.000000
  outer loop
    vertex 0.000000 -0.408569 0.156453
    vertex 0.000000 -0.373309 -0.228137
    vertex 0.000000 -0.408569 -0.156453
  endloop
endfacet
facet normal -1.000000 0.000000 -0.000000
  outer loop
    vertex 0.000000 -0.408569 0.156453
    vertex 0.000000 -0.408569 -0.156453
    vertex 0.000000 -0.430206 0.079553
  endloop
endfacet
facet normal -1.000000 0.000000 0.000000
  outer loop
    vertex 0.000000 -0.430206 0.079553
    vertex 0.000000 -0.408569 -0.156453
    vertex 0.000000 -0.430206 -0.079553
  endloop
endfacet
facet normal -1.000000 0.000000 -0.000000
  outer loop
    vertex 0.000000 -0.430206 0.079553
    vertex 0.000000 -0.430206 -0.079553
    vertex 0.000000 -0.437500 0.000000
  endloop
endfacet
endsolid 925050e7-ccee-431c-aa06-bc87833d71db-ascii.stl
