solid a7febc57-f7d7-40ae-bc76-c87e89540f01-ascii.stl
facet normal -0.000000 1.000000 0.000000
  outer loop
    vertex 0.000000 0.343750 0.125000
    vertex 12.000000 0.343750 0.125000
    vertex 0.000000 0.343750 -0.125000
  endloop
endfacet
facet normal 0.000000 1.000000 0.000000
  outer loop
    vertex 0.000000 0.343750 -0.125000
    vertex 12.000000 0.343750 0.125000
    vertex 12.000000 0.343750 -0.125000
  endloop
endfacet
facet normal 0.000000 0.000000 1.000000
  outer loop
    vertex 0.000000 0.343750 -0.125000
    vertex 12.000000 0.343750 -0.125000
    vertex 0.000000 0.451776 -0.125000
  endloop
endfacet
facet normal -0.000000 0.000000 1.000000
  outer loop
    vertex 0.000000 0.451776 -0.125000
    vertex 12.000000 0.343750 -0.125000
    vertex 12.000000 0.451776 -0.125000
  endloop
endfacet
facet normal -0.000817 0.936012 0.351967
  outer loop
    vertex 0.000000 0.422204 0.203642
    vertex 1.714286 0.445808 0.144852
    vertex 0.000000 0.451776 0.125000
  endloop
endfacet
facet normal 0.000000 0.957657 0.287911
  outer loop
    vertex 0.000000 0.451776 0.125000
    vertex 1.714286 0.445808 0.144852
    vertex 3.428571 0.445808 0.144852
  endloop
endfacet
facet normal 0.000000 0.957657 0.287911
  outer loop
    vertex 0.000000 0.451776 0.125000
    vertex 3.428571 0.445808 0.144852
    vertex 5.142857 0.445808 0.144852
  endloop
endfacet
facet normal 0.000000 0.919528 0.393025
  outer loop
    vertex 5.142857 0.445808 0.144852
    vertex 3.428571 0.445808 0.144852
    vertex 5.142857 0.412779 0.222126
  endloop
endfacet
facet normal 0.000000 0.919528 0.393025
  outer loop
    vertex 5.142857 0.445808 0.144852
    vertex 5.142857 0.412779 0.222126
    vertex 6.857143 0.412779 0.222126
  endloop
endfacet
facet normal 0.000000 0.834573 0.550897
  outer loop
    vertex 6.857143 0.412779 0.222126
    vertex 5.142857 0.412779 0.222126
    vertex 6.857143 0.366484 0.292261
  endloop
endfacet
facet normal 0.000000 0.834573 0.550897
  outer loop
    vertex 6.857143 0.412779 0.222126
    vertex 6.857143 0.366484 0.292261
    vertex 8.571428 0.366484 0.292261
  endloop
endfacet
facet normal 0.000000 0.722795 0.691063
  outer loop
    vertex 8.571428 0.366484 0.292261
    vertex 6.857143 0.366484 0.292261
    vertex 8.571428 0.308409 0.353002
  endloop
endfacet
facet normal 0.000000 0.722795 0.691063
  outer loop
    vertex 8.571428 0.366484 0.292261
    vertex 8.571428 0.308409 0.353002
    vertex 10.285714 0.308409 0.353002
  endloop
endfacet
facet normal 0.000000 0.587785 0.809017
  outer loop
    vertex 10.285714 0.308409 0.353002
    vertex 8.571428 0.308409 0.353002
    vertex 10.285714 0.240422 0.402398
  endloop
endfacet
facet normal -0.000819 0.587785 0.809017
  outer loop
    vertex 10.285714 0.308409 0.353002
    vertex 10.285714 0.240422 0.402398
    vertex 12.000000 0.258041 0.391333
  endloop
endfacet
facet normal 0.000819 0.473455 0.880818
  outer loop
    vertex 12.000000 0.258041 0.391333
    vertex 10.285714 0.240422 0.402398
    vertex 12.000000 0.184037 0.431111
  endloop
endfacet
facet normal -0.000820 0.433884 0.900969
  outer loop
    vertex 12.000000 0.184037 0.431111
    vertex 10.285714 0.240422 0.402398
    vertex 10.285714 0.164707 0.438860
  endloop
endfacet
facet normal 0.000820 0.308609 0.951189
  outer loop
    vertex 12.000000 0.184037 0.431111
    vertex 10.285714 0.164707 0.438860
    vertex 12.000000 0.104120 0.457040
  endloop
endfacet
facet normal -0.000820 0.266037 0.963963
  outer loop
    vertex 12.000000 0.104120 0.457040
    vertex 10.285714 0.164707 0.438860
    vertex 10.285714 0.083699 0.461217
  endloop
endfacet
facet normal 0.000820 0.133849 0.991001
  outer loop
    vertex 12.000000 0.104120 0.457040
    vertex 10.285714 0.083699 0.461217
    vertex 12.000000 0.020858 0.468286
  endloop
endfacet
facet normal -0.000821 0.089639 0.995974
  outer loop
    vertex 12.000000 0.020858 0.468286
    vertex 10.285714 0.083699 0.461217
    vertex 10.285714 -0.000000 0.468750
  endloop
endfacet
facet normal 0.000821 -0.045212 0.998977
  outer loop
    vertex 12.000000 0.020858 0.468286
    vertex 10.285714 -0.000000 0.468750
    vertex 12.000000 -0.063074 0.464487
  endloop
endfacet
facet normal -0.000821 -0.089639 0.995974
  outer loop
    vertex 12.000000 -0.063074 0.464487
    vertex 10.285714 -0.000000 0.468750
    vertex 10.285714 -0.083699 0.461217
  endloop
endfacet
facet normal 0.000821 -0.222820 0.974859
  outer loop
    vertex 12.000000 -0.063074 0.464487
    vertex 10.285714 -0.083699 0.461217
    vertex 12.000000 -0.144979 0.445766
  endloop
endfacet
facet normal -0.000822 -0.266037 0.963963
  outer loop
    vertex 12.000000 -0.144979 0.445766
    vertex 10.285714 -0.083699 0.461217
    vertex 10.285714 -0.164707 0.438860
  endloop
endfacet
facet normal 0.000822 -0.393269 0.919423
  outer loop
    vertex 12.000000 -0.144979 0.445766
    vertex 10.285714 -0.164707 0.438860
    vertex 12.000000 -0.222227 0.412725
  endloop
endfacet
facet normal -0.000822 -0.433884 0.900969
  outer loop
    vertex 12.000000 -0.222227 0.412725
    vertex 10.285714 -0.164707 0.438860
    vertex 10.285714 -0.240422 0.402398
  endloop
endfacet
facet normal 0.000822 -0.551084 0.834449
  outer loop
    vertex 12.000000 -0.222227 0.412725
    vertex 10.285714 -0.240422 0.402398
    vertex 12.000000 -0.292336 0.366424
  endloop
endfacet
facet normal -0.000823 -0.587785 0.809017
  outer loop
    vertex 12.000000 -0.292336 0.366424
    vertex 10.285714 -0.240422 0.402398
    vertex 10.285714 -0.308409 0.353002
  endloop
endfacet
facet normal 0.000823 -0.691195 0.722668
  outer loop
    vertex 12.000000 -0.292336 0.366424
    vertex 10.285714 -0.308409 0.353002
    vertex 12.000000 -0.353053 0.308351
  endloop
endfacet
facet normal -0.000823 -0.722794 0.691063
  outer loop
    vertex 12.000000 -0.353053 0.308351
    vertex 10.285714 -0.308409 0.353002
    vertex 10.285714 -0.366484 0.292261
  endloop
endfacet
facet normal 0.000823 -0.809101 0.587670
  outer loop
    vertex 12.000000 -0.353053 0.308351
    vertex 10.285714 -0.366484 0.292261
    vertex 12.000000 -0.402427 0.240372
  endloop
endfacet
facet normal -0.000824 -0.834573 0.550897
  outer loop
    vertex 12.000000 -0.402427 0.240372
    vertex 10.285714 -0.366484 0.292261
    vertex 10.285714 -0.412779 0.222126
  endloop
endfacet
facet normal 0.000824 -0.901013 0.433792
  outer loop
    vertex 12.000000 -0.402427 0.240372
    vertex 10.285714 -0.412779 0.222126
    vertex 12.000000 -0.438874 0.164671
  endloop
endfacet
facet normal -0.000824 -0.919527 0.393025
  outer loop
    vertex 12.000000 -0.438874 0.164671
    vertex 10.285714 -0.412779 0.222126
    vertex 10.285714 -0.445808 0.144852
  endloop
endfacet
facet normal 0.000824 -0.963979 0.265978
  outer loop
    vertex 12.000000 -0.438874 0.164671
    vertex 10.285714 -0.445808 0.144852
    vertex 12.000000 -0.461220 0.083680
  endloop
endfacet
facet normal -0.000825 -0.974928 0.222521
  outer loop
    vertex 12.000000 -0.461220 0.083680
    vertex 10.285714 -0.445808 0.144852
    vertex 10.285714 -0.464508 0.062922
  endloop
endfacet
facet normal 0.000825 -0.995976 0.089619
  outer loop
    vertex 12.000000 -0.461220 0.083680
    vertex 10.285714 -0.464508 0.062922
    vertex 12.000000 -0.468750 0.000000
  endloop
endfacet
facet normal -0.000825 -0.998993 0.044865
  outer loop
    vertex 12.000000 -0.468750 0.000000
    vertex 10.285714 -0.464508 0.062922
    vertex 10.285714 -0.468278 -0.021030
  endloop
endfacet
facet normal 0.000825 -0.995976 -0.089619
  outer loop
    vertex 12.000000 -0.468750 0.000000
    vertex 10.285714 -0.468278 -0.021030
    vertex 12.000000 -0.461220 -0.083680
  endloop
endfacet
facet normal -0.000826 -0.990949 -0.134233
  outer loop
    vertex 12.000000 -0.461220 -0.083680
    vertex 10.285714 -0.468278 -0.021030
    vertex 10.285714 -0.456997 -0.104307
  endloop
endfacet
facet normal 0.000826 -0.963979 -0.265978
  outer loop
    vertex 12.000000 -0.461220 -0.083680
    vertex 10.285714 -0.456997 -0.104307
    vertex 12.000000 -0.438874 -0.164671
  endloop
endfacet
facet normal -0.000826 -0.951056 -0.309017
  outer loop
    vertex 12.000000 -0.438874 -0.164671
    vertex 10.285714 -0.456997 -0.104307
    vertex 10.285714 -0.431029 -0.184230
  endloop
endfacet
facet normal 0.000826 -0.901013 -0.433792
  outer loop
    vertex 12.000000 -0.438874 -0.164671
    vertex 10.285714 -0.431029 -0.184230
    vertex 12.000000 -0.402427 -0.240372
  endloop
endfacet
facet normal -0.000827 -0.880595 -0.473869
  outer loop
    vertex 12.000000 -0.402427 -0.240372
    vertex 10.285714 -0.431029 -0.184230
    vertex 10.285714 -0.391206 -0.258233
  endloop
endfacet
facet normal 0.000827 -0.809101 -0.587670
  outer loop
    vertex 12.000000 -0.402427 -0.240372
    vertex 10.285714 -0.391206 -0.258233
    vertex 12.000000 -0.353053 -0.308351
  endloop
endfacet
facet normal -0.000827 -0.781831 -0.623489
  outer loop
    vertex 12.000000 -0.353053 -0.308351
    vertex 10.285714 -0.391206 -0.258233
    vertex 10.285714 -0.338810 -0.323936
  endloop
endfacet
facet normal 0.000827 -0.691195 -0.722668
  outer loop
    vertex 12.000000 -0.353053 -0.308351
    vertex 10.285714 -0.338810 -0.323936
    vertex 12.000000 -0.292336 -0.366424
  endloop
endfacet
facet normal -0.000828 -0.657939 -0.753071
  outer loop
    vertex 12.000000 -0.292336 -0.366424
    vertex 10.285714 -0.338810 -0.323936
    vertex 10.285714 -0.275524 -0.379227
  endloop
endfacet
facet normal 0.000828 -0.551084 -0.834449
  outer loop
    vertex 12.000000 -0.292336 -0.366424
    vertex 10.285714 -0.275524 -0.379227
    vertex 12.000000 -0.222227 -0.412725
  endloop
endfacet
facet normal -0.000828 -0.512899 -0.858449
  outer loop
    vertex 12.000000 -0.222227 -0.412725
    vertex 10.285714 -0.275524 -0.379227
    vertex 10.285714 -0.203383 -0.422329
  endloop
endfacet
facet normal 0.000828 -0.393269 -0.919423
  outer loop
    vertex 12.000000 -0.222227 -0.412725
    vertex 10.285714 -0.203383 -0.422329
    vertex 12.000000 -0.144979 -0.445766
  endloop
endfacet
facet normal -0.000829 -0.351375 -0.936235
  outer loop
    vertex 12.000000 -0.144979 -0.445766
    vertex 10.285714 -0.203383 -0.422329
    vertex 10.285714 -0.124705 -0.451858
  endloop
endfacet
facet normal 0.000829 -0.222820 -0.974859
  outer loop
    vertex 12.000000 -0.144979 -0.445766
    vertex 10.285714 -0.124705 -0.451858
    vertex 12.000000 -0.063074 -0.464487
  endloop
endfacet
facet normal -0.000829 -0.178557 -0.983929
  outer loop
    vertex 12.000000 -0.063074 -0.464487
    vertex 10.285714 -0.124705 -0.451858
    vertex 10.285714 -0.042018 -0.466863
  endloop
endfacet
facet normal 0.000829 -0.045212 -0.998977
  outer loop
    vertex 12.000000 -0.063074 -0.464487
    vertex 10.285714 -0.042018 -0.466863
    vertex 12.000000 0.020858 -0.468286
  endloop
endfacet
facet normal -0.000830 0.000000 -1.000000
  outer loop
    vertex 12.000000 0.020858 -0.468286
    vertex 10.285714 -0.042018 -0.466863
    vertex 10.285714 0.042018 -0.466863
  endloop
endfacet
facet normal 0.000830 0.133849 -0.991001
  outer loop
    vertex 12.000000 0.020858 -0.468286
    vertex 10.285714 0.042018 -0.466863
    vertex 12.000000 0.104120 -0.457040
  endloop
endfacet
facet normal -0.000830 0.178557 -0.983929
  outer loop
    vertex 12.000000 0.104120 -0.457040
    vertex 10.285714 0.042018 -0.466863
    vertex 10.285714 0.124705 -0.451858
  endloop
endfacet
facet normal 0.000830 0.308609 -0.951189
  outer loop
    vertex 12.000000 0.104120 -0.457040
    vertex 10.285714 0.124705 -0.451858
    vertex 12.000000 0.184037 -0.431111
  endloop
endfacet
facet normal -0.000831 0.351375 -0.936235
  outer loop
    vertex 12.000000 0.184037 -0.431111
    vertex 10.285714 0.124705 -0.451858
    vertex 10.285714 0.203383 -0.422329
  endloop
endfacet
facet normal 0.000831 0.473455 -0.880818
  outer loop
    vertex 12.000000 0.184037 -0.431111
    vertex 10.285714 0.203383 -0.422329
    vertex 12.000000 0.258041 -0.391333
  endloop
endfacet
facet normal -0.000831 0.512899 -0.858449
  outer loop
    vertex 12.000000 0.258041 -0.391333
    vertex 10.285714 0.203383 -0.422329
    vertex 10.285714 0.275524 -0.379227
  endloop
endfacet
facet normal 0.000831 0.623091 -0.782149
  outer loop
    vertex 12.000000 0.258041 -0.391333
    vertex 10.285714 0.275524 -0.379227
    vertex 12.000000 0.323756 -0.338982
  endloop
endfacet
facet normal -0.000832 0.657939 -0.753071
  outer loop
    vertex 12.000000 0.323756 -0.338982
    vertex 10.285714 0.275524 -0.379227
    vertex 10.285714 0.338810 -0.323936
  endloop
endfacet
facet normal 0.000832 0.752708 -0.658354
  outer loop
    vertex 12.000000 0.323756 -0.338982
    vertex 10.285714 0.338810 -0.323936
    vertex 12.000000 0.379069 -0.275741
  endloop
endfacet
facet normal -0.000832 0.781831 -0.623489
  outer loop
    vertex 12.000000 0.379069 -0.275741
    vertex 10.285714 0.338810 -0.323936
    vertex 10.285714 0.391206 -0.258233
  endloop
endfacet
facet normal 0.000832 0.858145 -0.513408
  outer loop
    vertex 12.000000 0.379069 -0.275741
    vertex 10.285714 0.391206 -0.258233
    vertex 12.000000 0.422204 -0.203642
  endloop
endfacet
facet normal -0.000833 0.880595 -0.473868
  outer loop
    vertex 12.000000 0.422204 -0.203642
    vertex 10.285714 0.391206 -0.258233
    vertex 10.285714 0.431029 -0.184230
  endloop
endfacet
facet normal 0.000833 0.936012 -0.351967
  outer loop
    vertex 12.000000 0.422204 -0.203642
    vertex 10.285714 0.431029 -0.184230
    vertex 12.000000 0.451776 -0.125000
  endloop
endfacet
facet normal 0.000000 0.943775 -0.330587
  outer loop
    vertex 12.000000 0.451776 -0.125000
    vertex 10.285714 0.431029 -0.184230
    vertex 8.571428 0.431029 -0.184230
  endloop
endfacet
facet normal 0.000000 0.943775 -0.330587
  outer loop
    vertex 12.000000 0.451776 -0.125000
    vertex 8.571428 0.431029 -0.184230
    vertex 6.857143 0.431029 -0.184230
  endloop
endfacet
facet normal 0.000000 0.880596 -0.473869
  outer loop
    vertex 6.857143 0.431029 -0.184230
    vertex 8.571428 0.431029 -0.184230
    vertex 6.857143 0.391206 -0.258233
  endloop
endfacet
facet normal 0.000000 0.880596 -0.473869
  outer loop
    vertex 6.857143 0.431029 -0.184230
    vertex 6.857143 0.391206 -0.258233
    vertex 5.142857 0.391206 -0.258233
  endloop
endfacet
facet normal 0.000000 0.781832 -0.623490
  outer loop
    vertex 5.142857 0.391206 -0.258233
    vertex 6.857143 0.391206 -0.258233
    vertex 5.142857 0.338810 -0.323936
  endloop
endfacet
facet normal 0.000000 0.781832 -0.623490
  outer loop
    vertex 5.142857 0.391206 -0.258233
    vertex 5.142857 0.338810 -0.323936
    vertex 3.428571 0.338810 -0.323936
  endloop
endfacet
facet normal 0.000000 0.657939 -0.753071
  outer loop
    vertex 3.428571 0.338810 -0.323936
    vertex 5.142857 0.338810 -0.323936
    vertex 3.428571 0.275524 -0.379227
  endloop
endfacet
facet normal 0.000000 0.657939 -0.753071
  outer loop
    vertex 3.428571 0.338810 -0.323936
    vertex 3.428571 0.275524 -0.379227
    vertex 1.714286 0.275524 -0.379227
  endloop
endfacet
facet normal 0.000000 0.512899 -0.858449
  outer loop
    vertex 1.714286 0.275524 -0.379227
    vertex 3.428571 0.275524 -0.379227
    vertex 1.714286 0.203383 -0.422329
  endloop
endfacet
facet normal 0.000831 0.512899 -0.858449
  outer loop
    vertex 1.714286 0.275524 -0.379227
    vertex 1.714286 0.203383 -0.422329
    vertex 0.000000 0.258041 -0.391333
  endloop
endfacet
facet normal -0.000831 0.473455 -0.880818
  outer loop
    vertex 0.000000 0.258041 -0.391333
    vertex 1.714286 0.203383 -0.422329
    vertex 0.000000 0.184037 -0.431111
  endloop
endfacet
facet normal 0.000831 0.351375 -0.936235
  outer loop
    vertex 0.000000 0.184037 -0.431111
    vertex 1.714286 0.203383 -0.422329
    vertex 1.714286 0.124705 -0.451858
  endloop
endfacet
facet normal -0.000830 0.308609 -0.951189
  outer loop
    vertex 0.000000 0.184037 -0.431111
    vertex 1.714286 0.124705 -0.451858
    vertex 0.000000 0.104120 -0.457040
  endloop
endfacet
facet normal 0.000830 0.178557 -0.983929
  outer loop
    vertex 0.000000 0.104120 -0.457040
    vertex 1.714286 0.124705 -0.451858
    vertex 1.714286 0.042018 -0.466863
  endloop
endfacet
facet normal -0.000830 0.133849 -0.991001
  outer loop
    vertex 0.000000 0.104120 -0.457040
    vertex 1.714286 0.042018 -0.466863
    vertex 0.000000 0.020858 -0.468286
  endloop
endfacet
facet normal 0.000830 0.000000 -1.000000
  outer loop
    vertex 0.000000 0.020858 -0.468286
    vertex 1.714286 0.042018 -0.466863
    vertex 1.714286 -0.042018 -0.466863
  endloop
endfacet
facet normal -0.000829 -0.045212 -0.998977
  outer loop
    vertex 0.000000 0.020858 -0.468286
    vertex 1.714286 -0.042018 -0.466863
    vertex 0.000000 -0.063074 -0.464487
  endloop
endfacet
facet normal 0.000829 -0.178557 -0.983929
  outer loop
    vertex 0.000000 -0.063074 -0.464487
    vertex 1.714286 -0.042018 -0.466863
    vertex 1.714286 -0.124705 -0.451858
  endloop
endfacet
facet normal -0.000829 -0.222819 -0.974859
  outer loop
    vertex 0.000000 -0.063074 -0.464487
    vertex 1.714286 -0.124705 -0.451858
    vertex 0.000000 -0.144979 -0.445766
  endloop
endfacet
facet normal 0.000829 -0.351375 -0.936235
  outer loop
    vertex 0.000000 -0.144979 -0.445766
    vertex 1.714286 -0.124705 -0.451858
    vertex 1.714286 -0.203383 -0.422329
  endloop
endfacet
facet normal -0.000828 -0.393269 -0.919423
  outer loop
    vertex 0.000000 -0.144979 -0.445766
    vertex 1.714286 -0.203383 -0.422329
    vertex 0.000000 -0.222227 -0.412725
  endloop
endfacet
facet normal 0.000828 -0.512899 -0.858449
  outer loop
    vertex 0.000000 -0.222227 -0.412725
    vertex 1.714286 -0.203383 -0.422329
    vertex 1.714286 -0.275524 -0.379227
  endloop
endfacet
facet normal -0.000828 -0.551084 -0.834449
  outer loop
    vertex 0.000000 -0.222227 -0.412725
    vertex 1.714286 -0.275524 -0.379227
    vertex 0.000000 -0.292336 -0.366424
  endloop
endfacet
facet normal 0.000828 -0.657939 -0.753071
  outer loop
    vertex 0.000000 -0.292336 -0.366424
    vertex 1.714286 -0.275524 -0.379227
    vertex 1.714286 -0.338810 -0.323936
  endloop
endfacet
facet normal -0.000827 -0.691195 -0.722668
  outer loop
    vertex 0.000000 -0.292336 -0.366424
    vertex 1.714286 -0.338810 -0.323936
    vertex 0.000000 -0.353053 -0.308351
  endloop
endfacet
facet normal 0.000827 -0.781831 -0.623489
  outer loop
    vertex 0.000000 -0.353053 -0.308351
    vertex 1.714286 -0.338810 -0.323936
    vertex 1.714286 -0.391206 -0.258233
  endloop
endfacet
facet normal -0.000827 -0.809101 -0.587670
  outer loop
    vertex 0.000000 -0.353053 -0.308351
    vertex 1.714286 -0.391206 -0.258233
    vertex 0.000000 -0.402427 -0.240372
  endloop
endfacet
facet normal 0.000827 -0.880595 -0.473868
  outer loop
    vertex 0.000000 -0.402427 -0.240372
    vertex 1.714286 -0.391206 -0.258233
    vertex 1.714286 -0.431029 -0.184230
  endloop
endfacet
facet normal -0.000826 -0.901013 -0.433792
  outer loop
    vertex 0.000000 -0.402427 -0.240372
    vertex 1.714286 -0.431029 -0.184230
    vertex 0.000000 -0.438874 -0.164671
  endloop
endfacet
facet normal 0.000826 -0.951056 -0.309017
  outer loop
    vertex 0.000000 -0.438874 -0.164671
    vertex 1.714286 -0.431029 -0.184230
    vertex 1.714286 -0.456997 -0.104307
  endloop
endfacet
facet normal -0.000826 -0.963979 -0.265978
  outer loop
    vertex 0.000000 -0.438874 -0.164671
    vertex 1.714286 -0.456997 -0.104307
    vertex 0.000000 -0.461220 -0.083680
  endloop
endfacet
facet normal 0.000826 -0.990949 -0.134233
  outer loop
    vertex 0.000000 -0.461220 -0.083680
    vertex 1.714286 -0.456997 -0.104307
    vertex 1.714286 -0.468278 -0.021030
  endloop
endfacet
facet normal -0.000825 -0.995976 -0.089619
  outer loop
    vertex 0.000000 -0.461220 -0.083680
    vertex 1.714286 -0.468278 -0.021030
    vertex 0.000000 -0.468750 0.000000
  endloop
endfacet
facet normal 0.000825 -0.998993 0.044865
  outer loop
    vertex 0.000000 -0.468750 0.000000
    vertex 1.714286 -0.468278 -0.021030
    vertex 1.714286 -0.464508 0.062922
  endloop
endfacet
facet normal -0.000825 -0.995976 0.089619
  outer loop
    vertex 0.000000 -0.468750 0.000000
    vertex 1.714286 -0.464508 0.062922
    vertex 0.000000 -0.461220 0.083680
  endloop
endfacet
facet normal 0.000825 -0.974928 0.222521
  outer loop
    vertex 0.000000 -0.461220 0.083680
    vertex 1.714286 -0.464508 0.062922
    vertex 1.714286 -0.445808 0.144852
  endloop
endfacet
facet normal -0.000824 -0.963979 0.265978
  outer loop
    vertex 0.000000 -0.461220 0.083680
    vertex 1.714286 -0.445808 0.144852
    vertex 0.000000 -0.438874 0.164671
  endloop
endfacet
facet normal 0.000824 -0.919527 0.393025
  outer loop
    vertex 0.000000 -0.438874 0.164671
    vertex 1.714286 -0.445808 0.144852
    vertex 1.714286 -0.412779 0.222126
  endloop
endfacet
facet normal -0.000824 -0.901013 0.433792
  outer loop
    vertex 0.000000 -0.438874 0.164671
    vertex 1.714286 -0.412779 0.222126
    vertex 0.000000 -0.402427 0.240372
  endloop
endfacet
facet normal 0.000824 -0.834573 0.550897
  outer loop
    vertex 0.000000 -0.402427 0.240372
    vertex 1.714286 -0.412779 0.222126
    vertex 1.714286 -0.366484 0.292261
  endloop
endfacet
facet normal -0.000823 -0.809101 0.587670
  outer loop
    vertex 0.000000 -0.402427 0.240372
    vertex 1.714286 -0.366484 0.292261
    vertex 0.000000 -0.353053 0.308351
  endloop
endfacet
facet normal 0.000823 -0.722795 0.691063
  outer loop
    vertex 0.000000 -0.353053 0.308351
    vertex 1.714286 -0.366484 0.292261
    vertex 1.714286 -0.308409 0.353002
  endloop
endfacet
facet normal -0.000823 -0.691195 0.722668
  outer loop
    vertex 0.000000 -0.353053 0.308351
    vertex 1.714286 -0.308409 0.353002
    vertex 0.000000 -0.292336 0.366424
  endloop
endfacet
facet normal 0.000823 -0.587785 0.809017
  outer loop
    vertex 0.000000 -0.292336 0.366424
    vertex 1.714286 -0.308409 0.353002
    vertex 1.714286 -0.240422 0.402398
  endloop
endfacet
facet normal -0.000822 -0.551084 0.834449
  outer loop
    vertex 0.000000 -0.292336 0.366424
    vertex 1.714286 -0.240422 0.402398
    vertex 0.000000 -0.222227 0.412725
  endloop
endfacet
facet normal 0.000822 -0.433884 0.900969
  outer loop
    vertex 0.000000 -0.222227 0.412725
    vertex 1.714286 -0.240422 0.402398
    vertex 1.714286 -0.164707 0.438860
  endloop
endfacet
facet normal -0.000822 -0.393269 0.919423
  outer loop
    vertex 0.000000 -0.222227 0.412725
    vertex 1.714286 -0.164707 0.438860
    vertex 0.000000 -0.144979 0.445766
  endloop
endfacet
facet normal 0.000822 -0.266037 0.963963
  outer loop
    vertex 0.000000 -0.144979 0.445766
    vertex 1.714286 -0.164707 0.438860
    vertex 1.714286 -0.083699 0.461217
  endloop
endfacet
facet normal -0.000821 -0.222819 0.974859
  outer loop
    vertex 0.000000 -0.144979 0.445766
    vertex 1.714286 -0.083699 0.461217
    vertex 0.000000 -0.063074 0.464487
  endloop
endfacet
facet normal 0.000821 -0.089639 0.995974
  outer loop
    vertex 0.000000 -0.063074 0.464487
    vertex 1.714286 -0.083699 0.461217
    vertex 1.714286 0.000000 0.468750
  endloop
endfacet
facet normal -0.000821 -0.045212 0.998977
  outer loop
    vertex 0.000000 -0.063074 0.464487
    vertex 1.714286 0.000000 0.468750
    vertex 0.000000 0.020858 0.468286
  endloop
endfacet
facet normal 0.000821 0.089639 0.995974
  outer loop
    vertex 0.000000 0.020858 0.468286
    vertex 1.714286 0.000000 0.468750
    vertex 1.714286 0.083699 0.461217
  endloop
endfacet
facet normal -0.000820 0.133849 0.991001
  outer loop
    vertex 0.000000 0.020858 0.468286
    vertex 1.714286 0.083699 0.461217
    vertex 0.000000 0.104120 0.457040
  endloop
endfacet
facet normal 0.000820 0.266037 0.963963
  outer loop
    vertex 0.000000 0.104120 0.457040
    vertex 1.714286 0.083699 0.461217
    vertex 1.714286 0.164707 0.438860
  endloop
endfacet
facet normal -0.000820 0.308609 0.951189
  outer loop
    vertex 0.000000 0.104120 0.457040
    vertex 1.714286 0.164707 0.438860
    vertex 0.000000 0.184037 0.431111
  endloop
endfacet
facet normal 0.000820 0.433884 0.900969
  outer loop
    vertex 0.000000 0.184037 0.431111
    vertex 1.714286 0.164707 0.438860
    vertex 1.714286 0.240422 0.402398
  endloop
endfacet
facet normal -0.000819 0.473455 0.880818
  outer loop
    vertex 0.000000 0.184037 0.431111
    vertex 1.714286 0.240422 0.402398
    vertex 0.000000 0.258041 0.391333
  endloop
endfacet
facet normal 0.000819 0.587785 0.809017
  outer loop
    vertex 0.000000 0.258041 0.391333
    vertex 1.714286 0.240422 0.402398
    vertex 1.714286 0.308409 0.353002
  endloop
endfacet
facet normal -0.000819 0.623091 0.782149
  outer loop
    vertex 0.000000 0.258041 0.391333
    vertex 1.714286 0.308409 0.353002
    vertex 0.000000 0.323756 0.338982
  endloop
endfacet
facet normal 0.000819 0.722794 0.691063
  outer loop
    vertex 0.000000 0.323756 0.338982
    vertex 1.714286 0.308409 0.353002
    vertex 1.714286 0.366484 0.292261
  endloop
endfacet
facet normal -0.000818 0.752708 0.658354
  outer loop
    vertex 0.000000 0.323756 0.338982
    vertex 1.714286 0.366484 0.292261
    vertex 0.000000 0.379069 0.275741
  endloop
endfacet
facet normal 0.000818 0.834573 0.550897
  outer loop
    vertex 0.000000 0.379069 0.275741
    vertex 1.714286 0.366484 0.292261
    vertex 1.714286 0.412779 0.222126
  endloop
endfacet
facet normal -0.000818 0.858144 0.513408
  outer loop
    vertex 0.000000 0.379069 0.275741
    vertex 1.714286 0.412779 0.222126
    vertex 0.000000 0.422204 0.203642
  endloop
endfacet
facet normal 0.000818 0.919527 0.393025
  outer loop
    vertex 0.000000 0.422204 0.203642
    vertex 1.714286 0.412779 0.222126
    vertex 1.714286 0.445808 0.144852
  endloop
endfacet
facet normal -0.000831 0.623091 -0.782149
  outer loop
    vertex 0.000000 0.258041 -0.391333
    vertex 0.000000 0.323756 -0.338982
    vertex 1.714286 0.275524 -0.379227
  endloop
endfacet
facet normal 0.000832 0.657939 -0.753071
  outer loop
    vertex 1.714286 0.275524 -0.379227
    vertex 0.000000 0.323756 -0.338982
    vertex 1.714286 0.338810 -0.323936
  endloop
endfacet
facet normal 0.000000 0.657939 -0.753071
  outer loop
    vertex 1.714286 0.275524 -0.379227
    vertex 1.714286 0.338810 -0.323936
    vertex 3.428571 0.338810 -0.323936
  endloop
endfacet
facet normal 0.000000 0.781832 -0.623490
  outer loop
    vertex 3.428571 0.338810 -0.323936
    vertex 1.714286 0.338810 -0.323936
    vertex 3.428571 0.391206 -0.258233
  endloop
endfacet
facet normal 0.000000 0.781832 -0.623490
  outer loop
    vertex 3.428571 0.338810 -0.323936
    vertex 3.428571 0.391206 -0.258233
    vertex 5.142857 0.391206 -0.258233
  endloop
endfacet
facet normal 0.000000 0.880596 -0.473869
  outer loop
    vertex 5.142857 0.391206 -0.258233
    vertex 3.428571 0.391206 -0.258233
    vertex 5.142857 0.431029 -0.184230
  endloop
endfacet
facet normal 0.000000 0.880596 -0.473869
  outer loop
    vertex 5.142857 0.391206 -0.258233
    vertex 5.142857 0.431029 -0.184230
    vertex 6.857143 0.431029 -0.184230
  endloop
endfacet
facet normal 0.000000 0.943775 -0.330587
  outer loop
    vertex 6.857143 0.431029 -0.184230
    vertex 5.142857 0.431029 -0.184230
    vertex 12.000000 0.451776 -0.125000
  endloop
endfacet
facet normal -0.000832 0.752708 -0.658354
  outer loop
    vertex 0.000000 0.323756 -0.338982
    vertex 0.000000 0.379069 -0.275741
    vertex 1.714286 0.338810 -0.323936
  endloop
endfacet
facet normal 0.000832 0.781831 -0.623489
  outer loop
    vertex 1.714286 0.338810 -0.323936
    vertex 0.000000 0.379069 -0.275741
    vertex 1.714286 0.391206 -0.258233
  endloop
endfacet
facet normal 0.000000 0.781832 -0.623490
  outer loop
    vertex 1.714286 0.338810 -0.323936
    vertex 1.714286 0.391206 -0.258233
    vertex 3.428571 0.391206 -0.258233
  endloop
endfacet
facet normal 0.000000 0.880596 -0.473869
  outer loop
    vertex 3.428571 0.391206 -0.258233
    vertex 1.714286 0.391206 -0.258233
    vertex 3.428571 0.431029 -0.184230
  endloop
endfacet
facet normal 0.000000 0.880596 -0.473869
  outer loop
    vertex 3.428571 0.391206 -0.258233
    vertex 3.428571 0.431029 -0.184230
    vertex 5.142857 0.431029 -0.184230
  endloop
endfacet
facet normal 0.000000 0.943775 -0.330587
  outer loop
    vertex 5.142857 0.431029 -0.184230
    vertex 3.428571 0.431029 -0.184230
    vertex 0.000000 0.451776 -0.125000
  endloop
endfacet
facet normal 0.000000 0.943775 -0.330587
  outer loop
    vertex 5.142857 0.431029 -0.184230
    vertex 0.000000 0.451776 -0.125000
    vertex 12.000000 0.451776 -0.125000
  endloop
endfacet
facet normal -0.000832 0.858144 -0.513408
  outer loop
    vertex 0.000000 0.379069 -0.275741
    vertex 0.000000 0.422204 -0.203642
    vertex 1.714286 0.391206 -0.258233
  endloop
endfacet
facet normal 0.000833 0.880595 -0.473868
  outer loop
    vertex 1.714286 0.391206 -0.258233
    vertex 0.000000 0.422204 -0.203642
    vertex 1.714286 0.431029 -0.184230
  endloop
endfacet
facet normal 0.000000 0.880596 -0.473869
  outer loop
    vertex 1.714286 0.391206 -0.258233
    vertex 1.714286 0.431029 -0.184230
    vertex 3.428571 0.431029 -0.184230
  endloop
endfacet
facet normal 0.000000 0.943775 -0.330587
  outer loop
    vertex 3.428571 0.431029 -0.184230
    vertex 1.714286 0.431029 -0.184230
    vertex 0.000000 0.451776 -0.125000
  endloop
endfacet
facet normal -0.000833 0.936012 -0.351967
  outer loop
    vertex 0.000000 0.422204 -0.203642
    vertex 0.000000 0.451776 -0.125000
    vertex 1.714286 0.431029 -0.184230
  endloop
endfacet
facet normal 0.000819 0.623091 0.782149
  outer loop
    vertex 12.000000 0.258041 0.391333
    vertex 12.000000 0.323756 0.338982
    vertex 10.285714 0.308409 0.353002
  endloop
endfacet
facet normal -0.000819 0.722795 0.691063
  outer loop
    vertex 10.285714 0.308409 0.353002
    vertex 12.000000 0.323756 0.338982
    vertex 10.285714 0.366484 0.292261
  endloop
endfacet
facet normal 0.000000 0.722795 0.691063
  outer loop
    vertex 10.285714 0.308409 0.353002
    vertex 10.285714 0.366484 0.292261
    vertex 8.571428 0.366484 0.292261
  endloop
endfacet
facet normal -0.000000 0.834573 0.550897
  outer loop
    vertex 8.571428 0.366484 0.292261
    vertex 10.285714 0.366484 0.292261
    vertex 8.571428 0.412779 0.222126
  endloop
endfacet
facet normal 0.000000 0.834573 0.550897
  outer loop
    vertex 8.571428 0.366484 0.292261
    vertex 8.571428 0.412779 0.222126
    vertex 6.857143 0.412779 0.222126
  endloop
endfacet
facet normal -0.000000 0.919528 0.393025
  outer loop
    vertex 6.857143 0.412779 0.222126
    vertex 8.571428 0.412779 0.222126
    vertex 6.857143 0.445808 0.144852
  endloop
endfacet
facet normal 0.000000 0.919528 0.393025
  outer loop
    vertex 6.857143 0.412779 0.222126
    vertex 6.857143 0.445808 0.144852
    vertex 5.142857 0.445808 0.144852
  endloop
endfacet
facet normal -0.000000 0.957657 0.287911
  outer loop
    vertex 5.142857 0.445808 0.144852
    vertex 6.857143 0.445808 0.144852
    vertex 0.000000 0.451776 0.125000
  endloop
endfacet
facet normal 0.000818 0.752708 0.658354
  outer loop
    vertex 12.000000 0.323756 0.338982
    vertex 12.000000 0.379069 0.275741
    vertex 10.285714 0.366484 0.292261
  endloop
endfacet
facet normal -0.000818 0.834573 0.550897
  outer loop
    vertex 10.285714 0.366484 0.292261
    vertex 12.000000 0.379069 0.275741
    vertex 10.285714 0.412779 0.222126
  endloop
endfacet
facet normal 0.000000 0.834573 0.550897
  outer loop
    vertex 10.285714 0.366484 0.292261
    vertex 10.285714 0.412779 0.222126
    vertex 8.571428 0.412779 0.222126
  endloop
endfacet
facet normal -0.000000 0.919528 0.393025
  outer loop
    vertex 8.571428 0.412779 0.222126
    vertex 10.285714 0.412779 0.222126
    vertex 8.571428 0.445808 0.144852
  endloop
endfacet
facet normal 0.000000 0.919528 0.393025
  outer loop
    vertex 8.571428 0.412779 0.222126
    vertex 8.571428 0.445808 0.144852
    vertex 6.857143 0.445808 0.144852
  endloop
endfacet
facet normal -0.000000 0.957657 0.287911
  outer loop
    vertex 6.857143 0.445808 0.144852
    vertex 8.571428 0.445808 0.144852
    vertex 12.000000 0.451776 0.125000
  endloop
endfacet
facet normal 0.000000 0.957657 0.287911
  outer loop
    vertex 6.857143 0.445808 0.144852
    vertex 12.000000 0.451776 0.125000
    vertex 0.000000 0.451776 0.125000
  endloop
endfacet
facet normal 0.000818 0.858145 0.513408
  outer loop
    vertex 12.000000 0.379069 0.275741
    vertex 12.000000 0.422204 0.203642
    vertex 10.285714 0.412779 0.222126
  endloop
endfacet
facet normal -0.000818 0.919527 0.393025
  outer loop
    vertex 10.285714 0.412779 0.222126
    vertex 12.000000 0.422204 0.203642
    vertex 10.285714 0.445808 0.144852
  endloop
endfacet
facet normal 0.000000 0.919528 0.393025
  outer loop
    vertex 10.285714 0.412779 0.222126
    vertex 10.285714 0.445808 0.144852
    vertex 8.571428 0.445808 0.144852
  endloop
endfacet
facet normal -0.000000 0.957657 0.287911
  outer loop
    vertex 8.571428 0.445808 0.144852
    vertex 10.285714 0.445808 0.144852
    vertex 12.000000 0.451776 0.125000
  endloop
endfacet
facet normal 0.000817 0.936012 0.351967
  outer loop
    vertex 12.000000 0.422204 0.203642
    vertex 12.000000 0.451776 0.125000
    vertex 10.285714 0.445808 0.144852
  endloop
endfacet
facet normal -0.000000 0.089639 0.995974
  outer loop
    vertex 1.714286 0.000000 0.468750
    vertex 3.428571 0.000000 0.468750
    vertex 1.714286 0.083699 0.461217
  endloop
endfacet
facet normal -0.000000 0.089639 0.995974
  outer loop
    vertex 1.714286 0.083699 0.461217
    vertex 3.428571 0.000000 0.468750
    vertex 3.428571 0.083699 0.461217
  endloop
endfacet
facet normal -0.000000 0.266037 0.963963
  outer loop
    vertex 1.714286 0.083699 0.461217
    vertex 3.428571 0.083699 0.461217
    vertex 1.714286 0.164707 0.438860
  endloop
endfacet
facet normal -0.000000 0.266037 0.963963
  outer loop
    vertex 1.714286 0.164707 0.438860
    vertex 3.428571 0.083699 0.461217
    vertex 3.428571 0.164707 0.438860
  endloop
endfacet
facet normal -0.000000 0.433884 0.900969
  outer loop
    vertex 1.714286 0.164707 0.438860
    vertex 3.428571 0.164707 0.438860
    vertex 1.714286 0.240422 0.402398
  endloop
endfacet
facet normal -0.000000 0.433884 0.900969
  outer loop
    vertex 1.714286 0.240422 0.402398
    vertex 3.428571 0.164707 0.438860
    vertex 3.428571 0.240422 0.402398
  endloop
endfacet
facet normal -0.000000 0.587785 0.809017
  outer loop
    vertex 1.714286 0.240422 0.402398
    vertex 3.428571 0.240422 0.402398
    vertex 1.714286 0.308409 0.353002
  endloop
endfacet
facet normal -0.000000 0.587785 0.809017
  outer loop
    vertex 1.714286 0.308409 0.353002
    vertex 3.428571 0.240422 0.402398
    vertex 3.428571 0.308409 0.353002
  endloop
endfacet
facet normal -0.000000 0.722795 0.691063
  outer loop
    vertex 1.714286 0.308409 0.353002
    vertex 3.428571 0.308409 0.353002
    vertex 1.714286 0.366484 0.292261
  endloop
endfacet
facet normal -0.000000 0.722795 0.691063
  outer loop
    vertex 1.714286 0.366484 0.292261
    vertex 3.428571 0.308409 0.353002
    vertex 3.428571 0.366484 0.292261
  endloop
endfacet
facet normal -0.000000 0.834573 0.550897
  outer loop
    vertex 1.714286 0.366484 0.292261
    vertex 3.428571 0.366484 0.292261
    vertex 1.714286 0.412779 0.222126
  endloop
endfacet
facet normal -0.000000 0.834573 0.550897
  outer loop
    vertex 1.714286 0.412779 0.222126
    vertex 3.428571 0.366484 0.292261
    vertex 3.428571 0.412779 0.222126
  endloop
endfacet
facet normal -0.000000 0.919528 0.393025
  outer loop
    vertex 1.714286 0.412779 0.222126
    vertex 3.428571 0.412779 0.222126
    vertex 1.714286 0.445808 0.144852
  endloop
endfacet
facet normal -0.000000 0.919528 0.393025
  outer loop
    vertex 1.714286 0.445808 0.144852
    vertex 3.428571 0.412779 0.222126
    vertex 3.428571 0.445808 0.144852
  endloop
endfacet
facet normal -0.000000 0.089639 0.995974
  outer loop
    vertex 3.428571 0.000000 0.468750
    vertex 5.142857 0.000000 0.468750
    vertex 3.428571 0.083699 0.461217
  endloop
endfacet
facet normal -0.000000 0.089639 0.995974
  outer loop
    vertex 3.428571 0.083699 0.461217
    vertex 5.142857 0.000000 0.468750
    vertex 5.142857 0.083699 0.461217
  endloop
endfacet
facet normal -0.000000 0.266037 0.963963
  outer loop
    vertex 3.428571 0.083699 0.461217
    vertex 5.142857 0.083699 0.461217
    vertex 3.428571 0.164707 0.438860
  endloop
endfacet
facet normal -0.000000 0.266037 0.963963
  outer loop
    vertex 3.428571 0.164707 0.438860
    vertex 5.142857 0.083699 0.461217
    vertex 5.142857 0.164707 0.438860
  endloop
endfacet
facet normal -0.000000 0.433884 0.900969
  outer loop
    vertex 3.428571 0.164707 0.438860
    vertex 5.142857 0.164707 0.438860
    vertex 3.428571 0.240422 0.402398
  endloop
endfacet
facet normal -0.000000 0.433884 0.900969
  outer loop
    vertex 3.428571 0.240422 0.402398
    vertex 5.142857 0.164707 0.438860
    vertex 5.142857 0.240422 0.402398
  endloop
endfacet
facet normal -0.000000 0.587785 0.809017
  outer loop
    vertex 3.428571 0.240422 0.402398
    vertex 5.142857 0.240422 0.402398
    vertex 3.428571 0.308409 0.353002
  endloop
endfacet
facet normal -0.000000 0.587785 0.809017
  outer loop
    vertex 3.428571 0.308409 0.353002
    vertex 5.142857 0.240422 0.402398
    vertex 5.142857 0.308409 0.353002
  endloop
endfacet
facet normal -0.000000 0.722795 0.691063
  outer loop
    vertex 3.428571 0.308409 0.353002
    vertex 5.142857 0.308409 0.353002
    vertex 3.428571 0.366484 0.292261
  endloop
endfacet
facet normal -0.000000 0.722795 0.691063
  outer loop
    vertex 3.428571 0.366484 0.292261
    vertex 5.142857 0.308409 0.353002
    vertex 5.142857 0.366484 0.292261
  endloop
endfacet
facet normal -0.000000 0.834573 0.550897
  outer loop
    vertex 3.428571 0.366484 0.292261
    vertex 5.142857 0.366484 0.292261
    vertex 3.428571 0.412779 0.222126
  endloop
endfacet
facet normal -0.000000 0.834573 0.550897
  outer loop
    vertex 3.428571 0.412779 0.222126
    vertex 5.142857 0.366484 0.292261
    vertex 5.142857 0.412779 0.222126
  endloop
endfacet
facet normal -0.000000 0.919528 0.393025
  outer loop
    vertex 3.428571 0.412779 0.222126
    vertex 5.142857 0.412779 0.222126
    vertex 3.428571 0.445808 0.144852
  endloop
endfacet
facet normal 0.000000 -0.089639 0.995974
  outer loop
    vertex 3.428571 0.000000 0.468750
    vertex 1.714286 0.000000 0.468750
    vertex 3.428571 -0.083699 0.461217
  endloop
endfacet
facet normal 0.000000 -0.089639 0.995974
  outer loop
    vertex 3.428571 -0.083699 0.461217
    vertex 1.714286 0.000000 0.468750
    vertex 1.714286 -0.083699 0.461217
  endloop
endfacet
facet normal 0.000000 -0.266037 0.963963
  outer loop
    vertex 3.428571 -0.083699 0.461217
    vertex 1.714286 -0.083699 0.461217
    vertex 3.428571 -0.164707 0.438860
  endloop
endfacet
facet normal 0.000000 -0.266037 0.963963
  outer loop
    vertex 3.428571 -0.164707 0.438860
    vertex 1.714286 -0.083699 0.461217
    vertex 1.714286 -0.164707 0.438860
  endloop
endfacet
facet normal 0.000000 -0.433884 0.900969
  outer loop
    vertex 3.428571 -0.164707 0.438860
    vertex 1.714286 -0.164707 0.438860
    vertex 3.428571 -0.240422 0.402398
  endloop
endfacet
facet normal 0.000000 -0.433884 0.900969
  outer loop
    vertex 3.428571 -0.240422 0.402398
    vertex 1.714286 -0.164707 0.438860
    vertex 1.714286 -0.240422 0.402398
  endloop
endfacet
facet normal 0.000000 -0.587785 0.809017
  outer loop
    vertex 3.428571 -0.240422 0.402398
    vertex 1.714286 -0.240422 0.402398
    vertex 3.428571 -0.308409 0.353002
  endloop
endfacet
facet normal 0.000000 -0.587785 0.809017
  outer loop
    vertex 3.428571 -0.308409 0.353002
    vertex 1.714286 -0.240422 0.402398
    vertex 1.714286 -0.308409 0.353002
  endloop
endfacet
facet normal 0.000000 -0.722795 0.691063
  outer loop
    vertex 3.428571 -0.308409 0.353002
    vertex 1.714286 -0.308409 0.353002
    vertex 3.428571 -0.366484 0.292261
  endloop
endfacet
facet normal 0.000000 -0.722795 0.691063
  outer loop
    vertex 3.428571 -0.366484 0.292261
    vertex 1.714286 -0.308409 0.353002
    vertex 1.714286 -0.366484 0.292261
  endloop
endfacet
facet normal 0.000000 -0.834573 0.550897
  outer loop
    vertex 3.428571 -0.366484 0.292261
    vertex 1.714286 -0.366484 0.292261
    vertex 3.428571 -0.412779 0.222126
  endloop
endfacet
facet normal 0.000000 -0.834573 0.550897
  outer loop
    vertex 3.428571 -0.412779 0.222126
    vertex 1.714286 -0.366484 0.292261
    vertex 1.714286 -0.412779 0.222126
  endloop
endfacet
facet normal 0.000000 -0.919528 0.393025
  outer loop
    vertex 3.428571 -0.412779 0.222126
    vertex 1.714286 -0.412779 0.222126
    vertex 3.428571 -0.445808 0.144852
  endloop
endfacet
facet normal 0.000000 -0.919528 0.393025
  outer loop
    vertex 3.428571 -0.445808 0.144852
    vertex 1.714286 -0.412779 0.222126
    vertex 1.714286 -0.445808 0.144852
  endloop
endfacet
facet normal 0.000000 -0.974928 0.222521
  outer loop
    vertex 3.428571 -0.445808 0.144852
    vertex 1.714286 -0.445808 0.144852
    vertex 3.428571 -0.464508 0.062922
  endloop
endfacet
facet normal 0.000000 -0.974928 0.222521
  outer loop
    vertex 3.428571 -0.464508 0.062922
    vertex 1.714286 -0.445808 0.144852
    vertex 1.714286 -0.464508 0.062922
  endloop
endfacet
facet normal 0.000000 -0.998993 0.044865
  outer loop
    vertex 3.428571 -0.464508 0.062922
    vertex 1.714286 -0.464508 0.062922
    vertex 3.428571 -0.468278 -0.021030
  endloop
endfacet
facet normal 0.000000 -0.998993 0.044865
  outer loop
    vertex 3.428571 -0.468278 -0.021030
    vertex 1.714286 -0.464508 0.062922
    vertex 1.714286 -0.468278 -0.021030
  endloop
endfacet
facet normal -0.000000 -0.990950 -0.134233
  outer loop
    vertex 3.428571 -0.468278 -0.021030
    vertex 1.714286 -0.468278 -0.021030
    vertex 3.428571 -0.456997 -0.104307
  endloop
endfacet
facet normal -0.000000 -0.990950 -0.134233
  outer loop
    vertex 3.428571 -0.456997 -0.104307
    vertex 1.714286 -0.468278 -0.021030
    vertex 1.714286 -0.456997 -0.104307
  endloop
endfacet
facet normal -0.000000 -0.951056 -0.309017
  outer loop
    vertex 3.428571 -0.456997 -0.104307
    vertex 1.714286 -0.456997 -0.104307
    vertex 3.428571 -0.431029 -0.184230
  endloop
endfacet
facet normal -0.000000 -0.951056 -0.309017
  outer loop
    vertex 3.428571 -0.431029 -0.184230
    vertex 1.714286 -0.456997 -0.104307
    vertex 1.714286 -0.431029 -0.184230
  endloop
endfacet
facet normal -0.000000 -0.880596 -0.473869
  outer loop
    vertex 3.428571 -0.431029 -0.184230
    vertex 1.714286 -0.431029 -0.184230
    vertex 3.428571 -0.391206 -0.258233
  endloop
endfacet
facet normal -0.000000 -0.880596 -0.473869
  outer loop
    vertex 3.428571 -0.391206 -0.258233
    vertex 1.714286 -0.431029 -0.184230
    vertex 1.714286 -0.391206 -0.258233
  endloop
endfacet
facet normal -0.000000 -0.781832 -0.623490
  outer loop
    vertex 3.428571 -0.391206 -0.258233
    vertex 1.714286 -0.391206 -0.258233
    vertex 3.428571 -0.338810 -0.323936
  endloop
endfacet
facet normal -0.000000 -0.781832 -0.623490
  outer loop
    vertex 3.428571 -0.338810 -0.323936
    vertex 1.714286 -0.391206 -0.258233
    vertex 1.714286 -0.338810 -0.323936
  endloop
endfacet
facet normal -0.000000 -0.657939 -0.753071
  outer loop
    vertex 3.428571 -0.338810 -0.323936
    vertex 1.714286 -0.338810 -0.323936
    vertex 3.428571 -0.275524 -0.379227
  endloop
endfacet
facet normal -0.000000 -0.657939 -0.753071
  outer loop
    vertex 3.428571 -0.275524 -0.379227
    vertex 1.714286 -0.338810 -0.323936
    vertex 1.714286 -0.275524 -0.379227
  endloop
endfacet
facet normal -0.000000 -0.512899 -0.858449
  outer loop
    vertex 3.428571 -0.275524 -0.379227
    vertex 1.714286 -0.275524 -0.379227
    vertex 3.428571 -0.203383 -0.422329
  endloop
endfacet
facet normal -0.000000 -0.512899 -0.858449
  outer loop
    vertex 3.428571 -0.203383 -0.422329
    vertex 1.714286 -0.275524 -0.379227
    vertex 1.714286 -0.203383 -0.422329
  endloop
endfacet
facet normal -0.000000 -0.351375 -0.936235
  outer loop
    vertex 3.428571 -0.203383 -0.422329
    vertex 1.714286 -0.203383 -0.422329
    vertex 3.428571 -0.124705 -0.451858
  endloop
endfacet
facet normal -0.000000 -0.351375 -0.936235
  outer loop
    vertex 3.428571 -0.124705 -0.451858
    vertex 1.714286 -0.203383 -0.422329
    vertex 1.714286 -0.124705 -0.451858
  endloop
endfacet
facet normal -0.000000 -0.178557 -0.983930
  outer loop
    vertex 3.428571 -0.124705 -0.451858
    vertex 1.714286 -0.124705 -0.451858
    vertex 3.428571 -0.042018 -0.466863
  endloop
endfacet
facet normal -0.000000 -0.178557 -0.983930
  outer loop
    vertex 3.428571 -0.042018 -0.466863
    vertex 1.714286 -0.124705 -0.451858
    vertex 1.714286 -0.042018 -0.466863
  endloop
endfacet
facet normal 0.000000 0.000000 -1.000000
  outer loop
    vertex 3.428571 -0.042018 -0.466863
    vertex 1.714286 -0.042018 -0.466863
    vertex 3.428571 0.042018 -0.466863
  endloop
endfacet
facet normal -0.000000 0.000000 -1.000000
  outer loop
    vertex 3.428571 0.042018 -0.466863
    vertex 1.714286 -0.042018 -0.466863
    vertex 1.714286 0.042018 -0.466863
  endloop
endfacet
facet normal 0.000000 0.178557 -0.983930
  outer loop
    vertex 3.428571 0.042018 -0.466863
    vertex 1.714286 0.042018 -0.466863
    vertex 3.428571 0.124705 -0.451858
  endloop
endfacet
facet normal 0.000000 0.178557 -0.983930
  outer loop
    vertex 3.428571 0.124705 -0.451858
    vertex 1.714286 0.042018 -0.466863
    vertex 1.714286 0.124705 -0.451858
  endloop
endfacet
facet normal 0.000000 0.351375 -0.936235
  outer loop
    vertex 3.428571 0.124705 -0.451858
    vertex 1.714286 0.124705 -0.451858
    vertex 3.428571 0.203383 -0.422329
  endloop
endfacet
facet normal 0.000000 0.351375 -0.936235
  outer loop
    vertex 3.428571 0.203383 -0.422329
    vertex 1.714286 0.124705 -0.451858
    vertex 1.714286 0.203383 -0.422329
  endloop
endfacet
facet normal 0.000000 0.512899 -0.858449
  outer loop
    vertex 3.428571 0.203383 -0.422329
    vertex 1.714286 0.203383 -0.422329
    vertex 3.428571 0.275524 -0.379227
  endloop
endfacet
facet normal -0.000000 0.089639 0.995974
  outer loop
    vertex 5.142857 0.000000 0.468750
    vertex 6.857143 0.000000 0.468750
    vertex 5.142857 0.083699 0.461217
  endloop
endfacet
facet normal -0.000000 0.089639 0.995974
  outer loop
    vertex 5.142857 0.083699 0.461217
    vertex 6.857143 0.000000 0.468750
    vertex 6.857143 0.083699 0.461217
  endloop
endfacet
facet normal -0.000000 0.266037 0.963963
  outer loop
    vertex 5.142857 0.083699 0.461217
    vertex 6.857143 0.083699 0.461217
    vertex 5.142857 0.164707 0.438860
  endloop
endfacet
facet normal -0.000000 0.266037 0.963963
  outer loop
    vertex 5.142857 0.164707 0.438860
    vertex 6.857143 0.083699 0.461217
    vertex 6.857143 0.164707 0.438860
  endloop
endfacet
facet normal -0.000000 0.433884 0.900969
  outer loop
    vertex 5.142857 0.164707 0.438860
    vertex 6.857143 0.164707 0.438860
    vertex 5.142857 0.240422 0.402398
  endloop
endfacet
facet normal -0.000000 0.433884 0.900969
  outer loop
    vertex 5.142857 0.240422 0.402398
    vertex 6.857143 0.164707 0.438860
    vertex 6.857143 0.240422 0.402398
  endloop
endfacet
facet normal -0.000000 0.587785 0.809017
  outer loop
    vertex 5.142857 0.240422 0.402398
    vertex 6.857143 0.240422 0.402398
    vertex 5.142857 0.308409 0.353002
  endloop
endfacet
facet normal -0.000000 0.587785 0.809017
  outer loop
    vertex 5.142857 0.308409 0.353002
    vertex 6.857143 0.240422 0.402398
    vertex 6.857143 0.308409 0.353002
  endloop
endfacet
facet normal -0.000000 0.722795 0.691063
  outer loop
    vertex 5.142857 0.308409 0.353002
    vertex 6.857143 0.308409 0.353002
    vertex 5.142857 0.366484 0.292261
  endloop
endfacet
facet normal -0.000000 0.722795 0.691063
  outer loop
    vertex 5.142857 0.366484 0.292261
    vertex 6.857143 0.308409 0.353002
    vertex 6.857143 0.366484 0.292261
  endloop
endfacet
facet normal -0.000000 0.834573 0.550897
  outer loop
    vertex 5.142857 0.366484 0.292261
    vertex 6.857143 0.366484 0.292261
    vertex 5.142857 0.412779 0.222126
  endloop
endfacet
facet normal 0.000000 -0.089639 0.995974
  outer loop
    vertex 5.142857 0.000000 0.468750
    vertex 3.428571 0.000000 0.468750
    vertex 5.142857 -0.083699 0.461217
  endloop
endfacet
facet normal 0.000000 -0.089639 0.995974
  outer loop
    vertex 5.142857 -0.083699 0.461217
    vertex 3.428571 0.000000 0.468750
    vertex 3.428571 -0.083699 0.461217
  endloop
endfacet
facet normal 0.000000 -0.266037 0.963963
  outer loop
    vertex 5.142857 -0.083699 0.461217
    vertex 3.428571 -0.083699 0.461217
    vertex 5.142857 -0.164707 0.438860
  endloop
endfacet
facet normal 0.000000 -0.266037 0.963963
  outer loop
    vertex 5.142857 -0.164707 0.438860
    vertex 3.428571 -0.083699 0.461217
    vertex 3.428571 -0.164707 0.438860
  endloop
endfacet
facet normal 0.000000 -0.433884 0.900969
  outer loop
    vertex 5.142857 -0.164707 0.438860
    vertex 3.428571 -0.164707 0.438860
    vertex 5.142857 -0.240422 0.402398
  endloop
endfacet
facet normal 0.000000 -0.433884 0.900969
  outer loop
    vertex 5.142857 -0.240422 0.402398
    vertex 3.428571 -0.164707 0.438860
    vertex 3.428571 -0.240422 0.402398
  endloop
endfacet
facet normal 0.000000 -0.587785 0.809017
  outer loop
    vertex 5.142857 -0.240422 0.402398
    vertex 3.428571 -0.240422 0.402398
    vertex 5.142857 -0.308409 0.353002
  endloop
endfacet
facet normal 0.000000 -0.587785 0.809017
  outer loop
    vertex 5.142857 -0.308409 0.353002
    vertex 3.428571 -0.240422 0.402398
    vertex 3.428571 -0.308409 0.353002
  endloop
endfacet
facet normal 0.000000 -0.722795 0.691063
  outer loop
    vertex 5.142857 -0.308409 0.353002
    vertex 3.428571 -0.308409 0.353002
    vertex 5.142857 -0.366484 0.292261
  endloop
endfacet
facet normal 0.000000 -0.722795 0.691063
  outer loop
    vertex 5.142857 -0.366484 0.292261
    vertex 3.428571 -0.308409 0.353002
    vertex 3.428571 -0.366484 0.292261
  endloop
endfacet
facet normal 0.000000 -0.834573 0.550897
  outer loop
    vertex 5.142857 -0.366484 0.292261
    vertex 3.428571 -0.366484 0.292261
    vertex 5.142857 -0.412779 0.222126
  endloop
endfacet
facet normal 0.000000 -0.834573 0.550897
  outer loop
    vertex 5.142857 -0.412779 0.222126
    vertex 3.428571 -0.366484 0.292261
    vertex 3.428571 -0.412779 0.222126
  endloop
endfacet
facet normal 0.000000 -0.919528 0.393025
  outer loop
    vertex 5.142857 -0.412779 0.222126
    vertex 3.428571 -0.412779 0.222126
    vertex 5.142857 -0.445808 0.144852
  endloop
endfacet
facet normal 0.000000 -0.919528 0.393025
  outer loop
    vertex 5.142857 -0.445808 0.144852
    vertex 3.428571 -0.412779 0.222126
    vertex 3.428571 -0.445808 0.144852
  endloop
endfacet
facet normal 0.000000 -0.974928 0.222521
  outer loop
    vertex 5.142857 -0.445808 0.144852
    vertex 3.428571 -0.445808 0.144852
    vertex 5.142857 -0.464508 0.062922
  endloop
endfacet
facet normal 0.000000 -0.974928 0.222521
  outer loop
    vertex 5.142857 -0.464508 0.062922
    vertex 3.428571 -0.445808 0.144852
    vertex 3.428571 -0.464508 0.062922
  endloop
endfacet
facet normal 0.000000 -0.998993 0.044865
  outer loop
    vertex 5.142857 -0.464508 0.062922
    vertex 3.428571 -0.464508 0.062922
    vertex 5.142857 -0.468278 -0.021030
  endloop
endfacet
facet normal 0.000000 -0.998993 0.044865
  outer loop
    vertex 5.142857 -0.468278 -0.021030
    vertex 3.428571 -0.464508 0.062922
    vertex 3.428571 -0.468278 -0.021030
  endloop
endfacet
facet normal -0.000000 -0.990950 -0.134233
  outer loop
    vertex 5.142857 -0.468278 -0.021030
    vertex 3.428571 -0.468278 -0.021030
    vertex 5.142857 -0.456997 -0.104307
  endloop
endfacet
facet normal -0.000000 -0.990950 -0.134233
  outer loop
    vertex 5.142857 -0.456997 -0.104307
    vertex 3.428571 -0.468278 -0.021030
    vertex 3.428571 -0.456997 -0.104307
  endloop
endfacet
facet normal -0.000000 -0.951056 -0.309017
  outer loop
    vertex 5.142857 -0.456997 -0.104307
    vertex 3.428571 -0.456997 -0.104307
    vertex 5.142857 -0.431029 -0.184230
  endloop
endfacet
facet normal -0.000000 -0.951056 -0.309017
  outer loop
    vertex 5.142857 -0.431029 -0.184230
    vertex 3.428571 -0.456997 -0.104307
    vertex 3.428571 -0.431029 -0.184230
  endloop
endfacet
facet normal -0.000000 -0.880596 -0.473869
  outer loop
    vertex 5.142857 -0.431029 -0.184230
    vertex 3.428571 -0.431029 -0.184230
    vertex 5.142857 -0.391206 -0.258233
  endloop
endfacet
facet normal -0.000000 -0.880596 -0.473869
  outer loop
    vertex 5.142857 -0.391206 -0.258233
    vertex 3.428571 -0.431029 -0.184230
    vertex 3.428571 -0.391206 -0.258233
  endloop
endfacet
facet normal -0.000000 -0.781832 -0.623490
  outer loop
    vertex 5.142857 -0.391206 -0.258233
    vertex 3.428571 -0.391206 -0.258233
    vertex 5.142857 -0.338810 -0.323936
  endloop
endfacet
facet normal -0.000000 -0.781832 -0.623490
  outer loop
    vertex 5.142857 -0.338810 -0.323936
    vertex 3.428571 -0.391206 -0.258233
    vertex 3.428571 -0.338810 -0.323936
  endloop
endfacet
facet normal -0.000000 -0.657939 -0.753071
  outer loop
    vertex 5.142857 -0.338810 -0.323936
    vertex 3.428571 -0.338810 -0.323936
    vertex 5.142857 -0.275524 -0.379227
  endloop
endfacet
facet normal -0.000000 -0.657939 -0.753071
  outer loop
    vertex 5.142857 -0.275524 -0.379227
    vertex 3.428571 -0.338810 -0.323936
    vertex 3.428571 -0.275524 -0.379227
  endloop
endfacet
facet normal -0.000000 -0.512899 -0.858449
  outer loop
    vertex 5.142857 -0.275524 -0.379227
    vertex 3.428571 -0.275524 -0.379227
    vertex 5.142857 -0.203383 -0.422329
  endloop
endfacet
facet normal -0.000000 -0.512899 -0.858449
  outer loop
    vertex 5.142857 -0.203383 -0.422329
    vertex 3.428571 -0.275524 -0.379227
    vertex 3.428571 -0.203383 -0.422329
  endloop
endfacet
facet normal -0.000000 -0.351375 -0.936235
  outer loop
    vertex 5.142857 -0.203383 -0.422329
    vertex 3.428571 -0.203383 -0.422329
    vertex 5.142857 -0.124705 -0.451858
  endloop
endfacet
facet normal -0.000000 -0.351375 -0.936235
  outer loop
    vertex 5.142857 -0.124705 -0.451858
    vertex 3.428571 -0.203383 -0.422329
    vertex 3.428571 -0.124705 -0.451858
  endloop
endfacet
facet normal -0.000000 -0.178557 -0.983930
  outer loop
    vertex 5.142857 -0.124705 -0.451858
    vertex 3.428571 -0.124705 -0.451858
    vertex 5.142857 -0.042018 -0.466863
  endloop
endfacet
facet normal -0.000000 -0.178557 -0.983930
  outer loop
    vertex 5.142857 -0.042018 -0.466863
    vertex 3.428571 -0.124705 -0.451858
    vertex 3.428571 -0.042018 -0.466863
  endloop
endfacet
facet normal 0.000000 0.000000 -1.000000
  outer loop
    vertex 5.142857 -0.042018 -0.466863
    vertex 3.428571 -0.042018 -0.466863
    vertex 5.142857 0.042018 -0.466863
  endloop
endfacet
facet normal -0.000000 0.000000 -1.000000
  outer loop
    vertex 5.142857 0.042018 -0.466863
    vertex 3.428571 -0.042018 -0.466863
    vertex 3.428571 0.042018 -0.466863
  endloop
endfacet
facet normal 0.000000 0.178557 -0.983930
  outer loop
    vertex 5.142857 0.042018 -0.466863
    vertex 3.428571 0.042018 -0.466863
    vertex 5.142857 0.124705 -0.451858
  endloop
endfacet
facet normal 0.000000 0.178557 -0.983930
  outer loop
    vertex 5.142857 0.124705 -0.451858
    vertex 3.428571 0.042018 -0.466863
    vertex 3.428571 0.124705 -0.451858
  endloop
endfacet
facet normal 0.000000 0.351375 -0.936235
  outer loop
    vertex 5.142857 0.124705 -0.451858
    vertex 3.428571 0.124705 -0.451858
    vertex 5.142857 0.203383 -0.422329
  endloop
endfacet
facet normal 0.000000 0.351375 -0.936235
  outer loop
    vertex 5.142857 0.203383 -0.422329
    vertex 3.428571 0.124705 -0.451858
    vertex 3.428571 0.203383 -0.422329
  endloop
endfacet
facet normal 0.000000 0.512899 -0.858449
  outer loop
    vertex 5.142857 0.203383 -0.422329
    vertex 3.428571 0.203383 -0.422329
    vertex 5.142857 0.275524 -0.379227
  endloop
endfacet
facet normal 0.000000 0.512899 -0.858449
  outer loop
    vertex 5.142857 0.275524 -0.379227
    vertex 3.428571 0.203383 -0.422329
    vertex 3.428571 0.275524 -0.379227
  endloop
endfacet
facet normal 0.000000 0.657939 -0.753071
  outer loop
    vertex 5.142857 0.275524 -0.379227
    vertex 3.428571 0.275524 -0.379227
    vertex 5.142857 0.338810 -0.323936
  endloop
endfacet
facet normal -0.000000 0.089639 0.995974
  outer loop
    vertex 6.857143 0.000000 0.468750
    vertex 8.571428 0.000000 0.468750
    vertex 6.857143 0.083699 0.461217
  endloop
endfacet
facet normal -0.000000 0.089639 0.995974
  outer loop
    vertex 6.857143 0.083699 0.461217
    vertex 8.571428 0.000000 0.468750
    vertex 8.571428 0.083699 0.461217
  endloop
endfacet
facet normal -0.000000 0.266037 0.963963
  outer loop
    vertex 6.857143 0.083699 0.461217
    vertex 8.571428 0.083699 0.461217
    vertex 6.857143 0.164707 0.438860
  endloop
endfacet
facet normal -0.000000 0.266037 0.963963
  outer loop
    vertex 6.857143 0.164707 0.438860
    vertex 8.571428 0.083699 0.461217
    vertex 8.571428 0.164707 0.438860
  endloop
endfacet
facet normal -0.000000 0.433884 0.900969
  outer loop
    vertex 6.857143 0.164707 0.438860
    vertex 8.571428 0.164707 0.438860
    vertex 6.857143 0.240422 0.402398
  endloop
endfacet
facet normal -0.000000 0.433884 0.900969
  outer loop
    vertex 6.857143 0.240422 0.402398
    vertex 8.571428 0.164707 0.438860
    vertex 8.571428 0.240422 0.402398
  endloop
endfacet
facet normal -0.000000 0.587785 0.809017
  outer loop
    vertex 6.857143 0.240422 0.402398
    vertex 8.571428 0.240422 0.402398
    vertex 6.857143 0.308409 0.353002
  endloop
endfacet
facet normal -0.000000 0.587785 0.809017
  outer loop
    vertex 6.857143 0.308409 0.353002
    vertex 8.571428 0.240422 0.402398
    vertex 8.571428 0.308409 0.353002
  endloop
endfacet
facet normal -0.000000 0.722795 0.691063
  outer loop
    vertex 6.857143 0.308409 0.353002
    vertex 8.571428 0.308409 0.353002
    vertex 6.857143 0.366484 0.292261
  endloop
endfacet
facet normal 0.000000 -0.089639 0.995974
  outer loop
    vertex 6.857143 0.000000 0.468750
    vertex 5.142857 0.000000 0.468750
    vertex 6.857143 -0.083699 0.461217
  endloop
endfacet
facet normal 0.000000 -0.089639 0.995974
  outer loop
    vertex 6.857143 -0.083699 0.461217
    vertex 5.142857 0.000000 0.468750
    vertex 5.142857 -0.083699 0.461217
  endloop
endfacet
facet normal 0.000000 -0.266037 0.963963
  outer loop
    vertex 6.857143 -0.083699 0.461217
    vertex 5.142857 -0.083699 0.461217
    vertex 6.857143 -0.164707 0.438860
  endloop
endfacet
facet normal 0.000000 -0.266037 0.963963
  outer loop
    vertex 6.857143 -0.164707 0.438860
    vertex 5.142857 -0.083699 0.461217
    vertex 5.142857 -0.164707 0.438860
  endloop
endfacet
facet normal 0.000000 -0.433884 0.900969
  outer loop
    vertex 6.857143 -0.164707 0.438860
    vertex 5.142857 -0.164707 0.438860
    vertex 6.857143 -0.240422 0.402398
  endloop
endfacet
facet normal 0.000000 -0.433884 0.900969
  outer loop
    vertex 6.857143 -0.240422 0.402398
    vertex 5.142857 -0.164707 0.438860
    vertex 5.142857 -0.240422 0.402398
  endloop
endfacet
facet normal 0.000000 -0.587785 0.809017
  outer loop
    vertex 6.857143 -0.240422 0.402398
    vertex 5.142857 -0.240422 0.402398
    vertex 6.857143 -0.308409 0.353002
  endloop
endfacet
facet normal 0.000000 -0.587785 0.809017
  outer loop
    vertex 6.857143 -0.308409 0.353002
    vertex 5.142857 -0.240422 0.402398
    vertex 5.142857 -0.308409 0.353002
  endloop
endfacet
facet normal 0.000000 -0.722795 0.691063
  outer loop
    vertex 6.857143 -0.308409 0.353002
    vertex 5.142857 -0.308409 0.353002
    vertex 6.857143 -0.366484 0.292261
  endloop
endfacet
facet normal 0.000000 -0.722795 0.691063
  outer loop
    vertex 6.857143 -0.366484 0.292261
    vertex 5.142857 -0.308409 0.353002
    vertex 5.142857 -0.366484 0.292261
  endloop
endfacet
facet normal 0.000000 -0.834573 0.550897
  outer loop
    vertex 6.857143 -0.366484 0.292261
    vertex 5.142857 -0.366484 0.292261
    vertex 6.857143 -0.412779 0.222126
  endloop
endfacet
facet normal 0.000000 -0.834573 0.550897
  outer loop
    vertex 6.857143 -0.412779 0.222126
    vertex 5.142857 -0.366484 0.292261
    vertex 5.142857 -0.412779 0.222126
  endloop
endfacet
facet normal 0.000000 -0.919528 0.393025
  outer loop
    vertex 6.857143 -0.412779 0.222126
    vertex 5.142857 -0.412779 0.222126
    vertex 6.857143 -0.445808 0.144852
  endloop
endfacet
facet normal 0.000000 -0.919528 0.393025
  outer loop
    vertex 6.857143 -0.445808 0.144852
    vertex 5.142857 -0.412779 0.222126
    vertex 5.142857 -0.445808 0.144852
  endloop
endfacet
facet normal 0.000000 -0.974928 0.222521
  outer loop
    vertex 6.857143 -0.445808 0.144852
    vertex 5.142857 -0.445808 0.144852
    vertex 6.857143 -0.464508 0.062922
  endloop
endfacet
facet normal 0.000000 -0.974928 0.222521
  outer loop
    vertex 6.857143 -0.464508 0.062922
    vertex 5.142857 -0.445808 0.144852
    vertex 5.142857 -0.464508 0.062922
  endloop
endfacet
facet normal 0.000000 -0.998993 0.044865
  outer loop
    vertex 6.857143 -0.464508 0.062922
    vertex 5.142857 -0.464508 0.062922
    vertex 6.857143 -0.468278 -0.021030
  endloop
endfacet
facet normal 0.000000 -0.998993 0.044865
  outer loop
    vertex 6.857143 -0.468278 -0.021030
    vertex 5.142857 -0.464508 0.062922
    vertex 5.142857 -0.468278 -0.021030
  endloop
endfacet
facet normal -0.000000 -0.990950 -0.134233
  outer loop
    vertex 6.857143 -0.468278 -0.021030
    vertex 5.142857 -0.468278 -0.021030
    vertex 6.857143 -0.456997 -0.104307
  endloop
endfacet
facet normal -0.000000 -0.990950 -0.134233
  outer loop
    vertex 6.857143 -0.456997 -0.104307
    vertex 5.142857 -0.468278 -0.021030
    vertex 5.142857 -0.456997 -0.104307
  endloop
endfacet
facet normal -0.000000 -0.951056 -0.309017
  outer loop
    vertex 6.857143 -0.456997 -0.104307
    vertex 5.142857 -0.456997 -0.104307
    vertex 6.857143 -0.431029 -0.184230
  endloop
endfacet
facet normal -0.000000 -0.951056 -0.309017
  outer loop
    vertex 6.857143 -0.431029 -0.184230
    vertex 5.142857 -0.456997 -0.104307
    vertex 5.142857 -0.431029 -0.184230
  endloop
endfacet
facet normal -0.000000 -0.880596 -0.473869
  outer loop
    vertex 6.857143 -0.431029 -0.184230
    vertex 5.142857 -0.431029 -0.184230
    vertex 6.857143 -0.391206 -0.258233
  endloop
endfacet
facet normal -0.000000 -0.880596 -0.473869
  outer loop
    vertex 6.857143 -0.391206 -0.258233
    vertex 5.142857 -0.431029 -0.184230
    vertex 5.142857 -0.391206 -0.258233
  endloop
endfacet
facet normal -0.000000 -0.781832 -0.623490
  outer loop
    vertex 6.857143 -0.391206 -0.258233
    vertex 5.142857 -0.391206 -0.258233
    vertex 6.857143 -0.338810 -0.323936
  endloop
endfacet
facet normal -0.000000 -0.781832 -0.623490
  outer loop
    vertex 6.857143 -0.338810 -0.323936
    vertex 5.142857 -0.391206 -0.258233
    vertex 5.142857 -0.338810 -0.323936
  endloop
endfacet
facet normal -0.000000 -0.657939 -0.753071
  outer loop
    vertex 6.857143 -0.338810 -0.323936
    vertex 5.142857 -0.338810 -0.323936
    vertex 6.857143 -0.275524 -0.379227
  endloop
endfacet
facet normal -0.000000 -0.657939 -0.753071
  outer loop
    vertex 6.857143 -0.275524 -0.379227
    vertex 5.142857 -0.338810 -0.323936
    vertex 5.142857 -0.275524 -0.379227
  endloop
endfacet
facet normal -0.000000 -0.512899 -0.858449
  outer loop
    vertex 6.857143 -0.275524 -0.379227
    vertex 5.142857 -0.275524 -0.379227
    vertex 6.857143 -0.203383 -0.422329
  endloop
endfacet
facet normal -0.000000 -0.512899 -0.858449
  outer loop
    vertex 6.857143 -0.203383 -0.422329
    vertex 5.142857 -0.275524 -0.379227
    vertex 5.142857 -0.203383 -0.422329
  endloop
endfacet
facet normal -0.000000 -0.351375 -0.936235
  outer loop
    vertex 6.857143 -0.203383 -0.422329
    vertex 5.142857 -0.203383 -0.422329
    vertex 6.857143 -0.124705 -0.451858
  endloop
endfacet
facet normal -0.000000 -0.351375 -0.936235
  outer loop
    vertex 6.857143 -0.124705 -0.451858
    vertex 5.142857 -0.203383 -0.422329
    vertex 5.142857 -0.124705 -0.451858
  endloop
endfacet
facet normal -0.000000 -0.178557 -0.983930
  outer loop
    vertex 6.857143 -0.124705 -0.451858
    vertex 5.142857 -0.124705 -0.451858
    vertex 6.857143 -0.042018 -0.466863
  endloop
endfacet
facet normal -0.000000 -0.178557 -0.983930
  outer loop
    vertex 6.857143 -0.042018 -0.466863
    vertex 5.142857 -0.124705 -0.451858
    vertex 5.142857 -0.042018 -0.466863
  endloop
endfacet
facet normal 0.000000 0.000000 -1.000000
  outer loop
    vertex 6.857143 -0.042018 -0.466863
    vertex 5.142857 -0.042018 -0.466863
    vertex 6.857143 0.042018 -0.466863
  endloop
endfacet
facet normal -0.000000 0.000000 -1.000000
  outer loop
    vertex 6.857143 0.042018 -0.466863
    vertex 5.142857 -0.042018 -0.466863
    vertex 5.142857 0.042018 -0.466863
  endloop
endfacet
facet normal 0.000000 0.178557 -0.983930
  outer loop
    vertex 6.857143 0.042018 -0.466863
    vertex 5.142857 0.042018 -0.466863
    vertex 6.857143 0.124705 -0.451858
  endloop
endfacet
facet normal 0.000000 0.178557 -0.983930
  outer loop
    vertex 6.857143 0.124705 -0.451858
    vertex 5.142857 0.042018 -0.466863
    vertex 5.142857 0.124705 -0.451858
  endloop
endfacet
facet normal 0.000000 0.351375 -0.936235
  outer loop
    vertex 6.857143 0.124705 -0.451858
    vertex 5.142857 0.124705 -0.451858
    vertex 6.857143 0.203383 -0.422329
  endloop
endfacet
facet normal 0.000000 0.351375 -0.936235
  outer loop
    vertex 6.857143 0.203383 -0.422329
    vertex 5.142857 0.124705 -0.451858
    vertex 5.142857 0.203383 -0.422329
  endloop
endfacet
facet normal 0.000000 0.512899 -0.858449
  outer loop
    vertex 6.857143 0.203383 -0.422329
    vertex 5.142857 0.203383 -0.422329
    vertex 6.857143 0.275524 -0.379227
  endloop
endfacet
facet normal 0.000000 0.512899 -0.858449
  outer loop
    vertex 6.857143 0.275524 -0.379227
    vertex 5.142857 0.203383 -0.422329
    vertex 5.142857 0.275524 -0.379227
  endloop
endfacet
facet normal 0.000000 0.657939 -0.753071
  outer loop
    vertex 6.857143 0.275524 -0.379227
    vertex 5.142857 0.275524 -0.379227
    vertex 6.857143 0.338810 -0.323936
  endloop
endfacet
facet normal 0.000000 0.657939 -0.753071
  outer loop
    vertex 6.857143 0.338810 -0.323936
    vertex 5.142857 0.275524 -0.379227
    vertex 5.142857 0.338810 -0.323936
  endloop
endfacet
facet normal 0.000000 0.781832 -0.623490
  outer loop
    vertex 6.857143 0.338810 -0.323936
    vertex 5.142857 0.338810 -0.323936
    vertex 6.857143 0.391206 -0.258233
  endloop
endfacet
facet normal 0.000000 0.089639 0.995974
  outer loop
    vertex 8.571428 0.000000 0.468750
    vertex 10.285714 -0.000000 0.468750
    vertex 8.571428 0.083699 0.461217
  endloop
endfacet
facet normal -0.000000 0.089639 0.995974
  outer loop
    vertex 8.571428 0.083699 0.461217
    vertex 10.285714 -0.000000 0.468750
    vertex 10.285714 0.083699 0.461217
  endloop
endfacet
facet normal -0.000000 0.266037 0.963963
  outer loop
    vertex 8.571428 0.083699 0.461217
    vertex 10.285714 0.083699 0.461217
    vertex 8.571428 0.164707 0.438860
  endloop
endfacet
facet normal -0.000000 0.266037 0.963963
  outer loop
    vertex 8.571428 0.164707 0.438860
    vertex 10.285714 0.083699 0.461217
    vertex 10.285714 0.164707 0.438860
  endloop
endfacet
facet normal -0.000000 0.433884 0.900969
  outer loop
    vertex 8.571428 0.164707 0.438860
    vertex 10.285714 0.164707 0.438860
    vertex 8.571428 0.240422 0.402398
  endloop
endfacet
facet normal -0.000000 0.433884 0.900969
  outer loop
    vertex 8.571428 0.240422 0.402398
    vertex 10.285714 0.164707 0.438860
    vertex 10.285714 0.240422 0.402398
  endloop
endfacet
facet normal -0.000000 0.587785 0.809017
  outer loop
    vertex 8.571428 0.240422 0.402398
    vertex 10.285714 0.240422 0.402398
    vertex 8.571428 0.308409 0.353002
  endloop
endfacet
facet normal 0.000000 -0.089639 0.995974
  outer loop
    vertex 8.571428 0.000000 0.468750
    vertex 6.857143 0.000000 0.468750
    vertex 8.571428 -0.083699 0.461217
  endloop
endfacet
facet normal 0.000000 -0.089639 0.995974
  outer loop
    vertex 8.571428 -0.083699 0.461217
    vertex 6.857143 0.000000 0.468750
    vertex 6.857143 -0.083699 0.461217
  endloop
endfacet
facet normal 0.000000 -0.266037 0.963963
  outer loop
    vertex 8.571428 -0.083699 0.461217
    vertex 6.857143 -0.083699 0.461217
    vertex 8.571428 -0.164707 0.438860
  endloop
endfacet
facet normal 0.000000 -0.266037 0.963963
  outer loop
    vertex 8.571428 -0.164707 0.438860
    vertex 6.857143 -0.083699 0.461217
    vertex 6.857143 -0.164707 0.438860
  endloop
endfacet
facet normal 0.000000 -0.433884 0.900969
  outer loop
    vertex 8.571428 -0.164707 0.438860
    vertex 6.857143 -0.164707 0.438860
    vertex 8.571428 -0.240422 0.402398
  endloop
endfacet
facet normal 0.000000 -0.433884 0.900969
  outer loop
    vertex 8.571428 -0.240422 0.402398
    vertex 6.857143 -0.164707 0.438860
    vertex 6.857143 -0.240422 0.402398
  endloop
endfacet
facet normal 0.000000 -0.587785 0.809017
  outer loop
    vertex 8.571428 -0.240422 0.402398
    vertex 6.857143 -0.240422 0.402398
    vertex 8.571428 -0.308409 0.353002
  endloop
endfacet
facet normal 0.000000 -0.587785 0.809017
  outer loop
    vertex 8.571428 -0.308409 0.353002
    vertex 6.857143 -0.240422 0.402398
    vertex 6.857143 -0.308409 0.353002
  endloop
endfacet
facet normal 0.000000 -0.722795 0.691063
  outer loop
    vertex 8.571428 -0.308409 0.353002
    vertex 6.857143 -0.308409 0.353002
    vertex 8.571428 -0.366484 0.292261
  endloop
endfacet
facet normal 0.000000 -0.722795 0.691063
  outer loop
    vertex 8.571428 -0.366484 0.292261
    vertex 6.857143 -0.308409 0.353002
    vertex 6.857143 -0.366484 0.292261
  endloop
endfacet
facet normal 0.000000 -0.834573 0.550897
  outer loop
    vertex 8.571428 -0.366484 0.292261
    vertex 6.857143 -0.366484 0.292261
    vertex 8.571428 -0.412779 0.222126
  endloop
endfacet
facet normal 0.000000 -0.834573 0.550897
  outer loop
    vertex 8.571428 -0.412779 0.222126
    vertex 6.857143 -0.366484 0.292261
    vertex 6.857143 -0.412779 0.222126
  endloop
endfacet
facet normal 0.000000 -0.919528 0.393025
  outer loop
    vertex 8.571428 -0.412779 0.222126
    vertex 6.857143 -0.412779 0.222126
    vertex 8.571428 -0.445808 0.144852
  endloop
endfacet
facet normal 0.000000 -0.919528 0.393025
  outer loop
    vertex 8.571428 -0.445808 0.144852
    vertex 6.857143 -0.412779 0.222126
    vertex 6.857143 -0.445808 0.144852
  endloop
endfacet
facet normal 0.000000 -0.974928 0.222521
  outer loop
    vertex 8.571428 -0.445808 0.144852
    vertex 6.857143 -0.445808 0.144852
    vertex 8.571428 -0.464508 0.062922
  endloop
endfacet
facet normal 0.000000 -0.974928 0.222521
  outer loop
    vertex 8.571428 -0.464508 0.062922
    vertex 6.857143 -0.445808 0.144852
    vertex 6.857143 -0.464508 0.062922
  endloop
endfacet
facet normal 0.000000 -0.998993 0.044865
  outer loop
    vertex 8.571428 -0.464508 0.062922
    vertex 6.857143 -0.464508 0.062922
    vertex 8.571428 -0.468278 -0.021030
  endloop
endfacet
facet normal 0.000000 -0.998993 0.044865
  outer loop
    vertex 8.571428 -0.468278 -0.021030
    vertex 6.857143 -0.464508 0.062922
    vertex 6.857143 -0.468278 -0.021030
  endloop
endfacet
facet normal -0.000000 -0.990950 -0.134233
  outer loop
    vertex 8.571428 -0.468278 -0.021030
    vertex 6.857143 -0.468278 -0.021030
    vertex 8.571428 -0.456997 -0.104307
  endloop
endfacet
facet normal -0.000000 -0.990950 -0.134233
  outer loop
    vertex 8.571428 -0.456997 -0.104307
    vertex 6.857143 -0.468278 -0.021030
    vertex 6.857143 -0.456997 -0.104307
  endloop
endfacet
facet normal -0.000000 -0.951057 -0.309017
  outer loop
    vertex 8.571428 -0.456997 -0.104307
    vertex 6.857143 -0.456997 -0.104307
    vertex 8.571428 -0.431029 -0.184230
  endloop
endfacet
facet normal -0.000000 -0.951057 -0.309017
  outer loop
    vertex 8.571428 -0.431029 -0.184230
    vertex 6.857143 -0.456997 -0.104307
    vertex 6.857143 -0.431029 -0.184230
  endloop
endfacet
facet normal -0.000000 -0.880596 -0.473869
  outer loop
    vertex 8.571428 -0.431029 -0.184230
    vertex 6.857143 -0.431029 -0.184230
    vertex 8.571428 -0.391206 -0.258233
  endloop
endfacet
facet normal -0.000000 -0.880596 -0.473869
  outer loop
    vertex 8.571428 -0.391206 -0.258233
    vertex 6.857143 -0.431029 -0.184230
    vertex 6.857143 -0.391206 -0.258233
  endloop
endfacet
facet normal -0.000000 -0.781832 -0.623490
  outer loop
    vertex 8.571428 -0.391206 -0.258233
    vertex 6.857143 -0.391206 -0.258233
    vertex 8.571428 -0.338810 -0.323936
  endloop
endfacet
facet normal -0.000000 -0.781832 -0.623490
  outer loop
    vertex 8.571428 -0.338810 -0.323936
    vertex 6.857143 -0.391206 -0.258233
    vertex 6.857143 -0.338810 -0.323936
  endloop
endfacet
facet normal -0.000000 -0.657939 -0.753071
  outer loop
    vertex 8.571428 -0.338810 -0.323936
    vertex 6.857143 -0.338810 -0.323936
    vertex 8.571428 -0.275524 -0.379227
  endloop
endfacet
facet normal -0.000000 -0.657939 -0.753071
  outer loop
    vertex 8.571428 -0.275524 -0.379227
    vertex 6.857143 -0.338810 -0.323936
    vertex 6.857143 -0.275524 -0.379227
  endloop
endfacet
facet normal -0.000000 -0.512899 -0.858449
  outer loop
    vertex 8.571428 -0.275524 -0.379227
    vertex 6.857143 -0.275524 -0.379227
    vertex 8.571428 -0.203383 -0.422329
  endloop
endfacet
facet normal -0.000000 -0.512899 -0.858449
  outer loop
    vertex 8.571428 -0.203383 -0.422329
    vertex 6.857143 -0.275524 -0.379227
    vertex 6.857143 -0.203383 -0.422329
  endloop
endfacet
facet normal -0.000000 -0.351375 -0.936235
  outer loop
    vertex 8.571428 -0.203383 -0.422329
    vertex 6.857143 -0.203383 -0.422329
    vertex 8.571428 -0.124705 -0.451858
  endloop
endfacet
facet normal -0.000000 -0.351375 -0.936235
  outer loop
    vertex 8.571428 -0.124705 -0.451858
    vertex 6.857143 -0.203383 -0.422329
    vertex 6.857143 -0.124705 -0.451858
  endloop
endfacet
facet normal -0.000000 -0.178557 -0.983930
  outer loop
    vertex 8.571428 -0.124705 -0.451858
    vertex 6.857143 -0.124705 -0.451858
    vertex 8.571428 -0.042018 -0.466863
  endloop
endfacet
facet normal -0.000000 -0.178557 -0.983930
  outer loop
    vertex 8.571428 -0.042018 -0.466863
    vertex 6.857143 -0.124705 -0.451858
    vertex 6.857143 -0.042018 -0.466863
  endloop
endfacet
facet normal 0.000000 0.000000 -1.000000
  outer loop
    vertex 8.571428 -0.042018 -0.466863
    vertex 6.857143 -0.042018 -0.466863
    vertex 8.571428 0.042018 -0.466863
  endloop
endfacet
facet normal -0.000000 0.000000 -1.000000
  outer loop
    vertex 8.571428 0.042018 -0.466863
    vertex 6.857143 -0.042018 -0.466863
    vertex 6.857143 0.042018 -0.466863
  endloop
endfacet
facet normal 0.000000 0.178557 -0.983930
  outer loop
    vertex 8.571428 0.042018 -0.466863
    vertex 6.857143 0.042018 -0.466863
    vertex 8.571428 0.124705 -0.451858
  endloop
endfacet
facet normal 0.000000 0.178557 -0.983930
  outer loop
    vertex 8.571428 0.124705 -0.451858
    vertex 6.857143 0.042018 -0.466863
    vertex 6.857143 0.124705 -0.451858
  endloop
endfacet
facet normal 0.000000 0.351375 -0.936235
  outer loop
    vertex 8.571428 0.124705 -0.451858
    vertex 6.857143 0.124705 -0.451858
    vertex 8.571428 0.203383 -0.422329
  endloop
endfacet
facet normal 0.000000 0.351375 -0.936235
  outer loop
    vertex 8.571428 0.203383 -0.422329
    vertex 6.857143 0.124705 -0.451858
    vertex 6.857143 0.203383 -0.422329
  endloop
endfacet
facet normal 0.000000 0.512899 -0.858449
  outer loop
    vertex 8.571428 0.203383 -0.422329
    vertex 6.857143 0.203383 -0.422329
    vertex 8.571428 0.275524 -0.379227
  endloop
endfacet
facet normal 0.000000 0.512899 -0.858449
  outer loop
    vertex 8.571428 0.275524 -0.379227
    vertex 6.857143 0.203383 -0.422329
    vertex 6.857143 0.275524 -0.379227
  endloop
endfacet
facet normal 0.000000 0.657939 -0.753071
  outer loop
    vertex 8.571428 0.275524 -0.379227
    vertex 6.857143 0.275524 -0.379227
    vertex 8.571428 0.338810 -0.323936
  endloop
endfacet
facet normal 0.000000 0.657939 -0.753071
  outer loop
    vertex 8.571428 0.338810 -0.323936
    vertex 6.857143 0.275524 -0.379227
    vertex 6.857143 0.338810 -0.323936
  endloop
endfacet
facet normal 0.000000 0.781832 -0.623490
  outer loop
    vertex 8.571428 0.338810 -0.323936
    vertex 6.857143 0.338810 -0.323936
    vertex 8.571428 0.391206 -0.258233
  endloop
endfacet
facet normal 0.000000 0.781832 -0.623490
  outer loop
    vertex 8.571428 0.391206 -0.258233
    vertex 6.857143 0.338810 -0.323936
    vertex 6.857143 0.391206 -0.258233
  endloop
endfacet
facet normal 0.000000 0.880596 -0.473869
  outer loop
    vertex 8.571428 0.391206 -0.258233
    vertex 6.857143 0.391206 -0.258233
    vertex 8.571428 0.431029 -0.184230
  endloop
endfacet
facet normal -0.000000 -0.089639 0.995974
  outer loop
    vertex 10.285714 -0.000000 0.468750
    vertex 8.571428 0.000000 0.468750
    vertex 10.285714 -0.083699 0.461217
  endloop
endfacet
facet normal 0.000000 -0.089639 0.995974
  outer loop
    vertex 10.285714 -0.083699 0.461217
    vertex 8.571428 0.000000 0.468750
    vertex 8.571428 -0.083699 0.461217
  endloop
endfacet
facet normal 0.000000 -0.266037 0.963963
  outer loop
    vertex 10.285714 -0.083699 0.461217
    vertex 8.571428 -0.083699 0.461217
    vertex 10.285714 -0.164707 0.438860
  endloop
endfacet
facet normal 0.000000 -0.266037 0.963963
  outer loop
    vertex 10.285714 -0.164707 0.438860
    vertex 8.571428 -0.083699 0.461217
    vertex 8.571428 -0.164707 0.438860
  endloop
endfacet
facet normal 0.000000 -0.433884 0.900969
  outer loop
    vertex 10.285714 -0.164707 0.438860
    vertex 8.571428 -0.164707 0.438860
    vertex 10.285714 -0.240422 0.402398
  endloop
endfacet
facet normal 0.000000 -0.433884 0.900969
  outer loop
    vertex 10.285714 -0.240422 0.402398
    vertex 8.571428 -0.164707 0.438860
    vertex 8.571428 -0.240422 0.402398
  endloop
endfacet
facet normal 0.000000 -0.587785 0.809017
  outer loop
    vertex 10.285714 -0.240422 0.402398
    vertex 8.571428 -0.240422 0.402398
    vertex 10.285714 -0.308409 0.353002
  endloop
endfacet
facet normal 0.000000 -0.587785 0.809017
  outer loop
    vertex 10.285714 -0.308409 0.353002
    vertex 8.571428 -0.240422 0.402398
    vertex 8.571428 -0.308409 0.353002
  endloop
endfacet
facet normal 0.000000 -0.722795 0.691063
  outer loop
    vertex 10.285714 -0.308409 0.353002
    vertex 8.571428 -0.308409 0.353002
    vertex 10.285714 -0.366484 0.292261
  endloop
endfacet
facet normal 0.000000 -0.722795 0.691063
  outer loop
    vertex 10.285714 -0.366484 0.292261
    vertex 8.571428 -0.308409 0.353002
    vertex 8.571428 -0.366484 0.292261
  endloop
endfacet
facet normal 0.000000 -0.834573 0.550897
  outer loop
    vertex 10.285714 -0.366484 0.292261
    vertex 8.571428 -0.366484 0.292261
    vertex 10.285714 -0.412779 0.222126
  endloop
endfacet
facet normal 0.000000 -0.834573 0.550897
  outer loop
    vertex 10.285714 -0.412779 0.222126
    vertex 8.571428 -0.366484 0.292261
    vertex 8.571428 -0.412779 0.222126
  endloop
endfacet
facet normal 0.000000 -0.919528 0.393025
  outer loop
    vertex 10.285714 -0.412779 0.222126
    vertex 8.571428 -0.412779 0.222126
    vertex 10.285714 -0.445808 0.144852
  endloop
endfacet
facet normal 0.000000 -0.919528 0.393025
  outer loop
    vertex 10.285714 -0.445808 0.144852
    vertex 8.571428 -0.412779 0.222126
    vertex 8.571428 -0.445808 0.144852
  endloop
endfacet
facet normal 0.000000 -0.974928 0.222521
  outer loop
    vertex 10.285714 -0.445808 0.144852
    vertex 8.571428 -0.445808 0.144852
    vertex 10.285714 -0.464508 0.062922
  endloop
endfacet
facet normal 0.000000 -0.974928 0.222521
  outer loop
    vertex 10.285714 -0.464508 0.062922
    vertex 8.571428 -0.445808 0.144852
    vertex 8.571428 -0.464508 0.062922
  endloop
endfacet
facet normal 0.000000 -0.998993 0.044865
  outer loop
    vertex 10.285714 -0.464508 0.062922
    vertex 8.571428 -0.464508 0.062922
    vertex 10.285714 -0.468278 -0.021030
  endloop
endfacet
facet normal 0.000000 -0.998993 0.044865
  outer loop
    vertex 10.285714 -0.468278 -0.021030
    vertex 8.571428 -0.464508 0.062922
    vertex 8.571428 -0.468278 -0.021030
  endloop
endfacet
facet normal -0.000000 -0.990950 -0.134233
  outer loop
    vertex 10.285714 -0.468278 -0.021030
    vertex 8.571428 -0.468278 -0.021030
    vertex 10.285714 -0.456997 -0.104307
  endloop
endfacet
facet normal -0.000000 -0.990950 -0.134233
  outer loop
    vertex 10.285714 -0.456997 -0.104307
    vertex 8.571428 -0.468278 -0.021030
    vertex 8.571428 -0.456997 -0.104307
  endloop
endfacet
facet normal -0.000000 -0.951056 -0.309017
  outer loop
    vertex 10.285714 -0.456997 -0.104307
    vertex 8.571428 -0.456997 -0.104307
    vertex 10.285714 -0.431029 -0.184230
  endloop
endfacet
facet normal -0.000000 -0.951056 -0.309017
  outer loop
    vertex 10.285714 -0.431029 -0.184230
    vertex 8.571428 -0.456997 -0.104307
    vertex 8.571428 -0.431029 -0.184230
  endloop
endfacet
facet normal -0.000000 -0.880596 -0.473869
  outer loop
    vertex 10.285714 -0.431029 -0.184230
    vertex 8.571428 -0.431029 -0.184230
    vertex 10.285714 -0.391206 -0.258233
  endloop
endfacet
facet normal -0.000000 -0.880596 -0.473869
  outer loop
    vertex 10.285714 -0.391206 -0.258233
    vertex 8.571428 -0.431029 -0.184230
    vertex 8.571428 -0.391206 -0.258233
  endloop
endfacet
facet normal -0.000000 -0.781832 -0.623490
  outer loop
    vertex 10.285714 -0.391206 -0.258233
    vertex 8.571428 -0.391206 -0.258233
    vertex 10.285714 -0.338810 -0.323936
  endloop
endfacet
facet normal -0.000000 -0.781832 -0.623490
  outer loop
    vertex 10.285714 -0.338810 -0.323936
    vertex 8.571428 -0.391206 -0.258233
    vertex 8.571428 -0.338810 -0.323936
  endloop
endfacet
facet normal -0.000000 -0.657939 -0.753071
  outer loop
    vertex 10.285714 -0.338810 -0.323936
    vertex 8.571428 -0.338810 -0.323936
    vertex 10.285714 -0.275524 -0.379227
  endloop
endfacet
facet normal -0.000000 -0.657939 -0.753071
  outer loop
    vertex 10.285714 -0.275524 -0.379227
    vertex 8.571428 -0.338810 -0.323936
    vertex 8.571428 -0.275524 -0.379227
  endloop
endfacet
facet normal -0.000000 -0.512899 -0.858449
  outer loop
    vertex 10.285714 -0.275524 -0.379227
    vertex 8.571428 -0.275524 -0.379227
    vertex 10.285714 -0.203383 -0.422329
  endloop
endfacet
facet normal -0.000000 -0.512899 -0.858449
  outer loop
    vertex 10.285714 -0.203383 -0.422329
    vertex 8.571428 -0.275524 -0.379227
    vertex 8.571428 -0.203383 -0.422329
  endloop
endfacet
facet normal -0.000000 -0.351375 -0.936235
  outer loop
    vertex 10.285714 -0.203383 -0.422329
    vertex 8.571428 -0.203383 -0.422329
    vertex 10.285714 -0.124705 -0.451858
  endloop
endfacet
facet normal -0.000000 -0.351375 -0.936235
  outer loop
    vertex 10.285714 -0.124705 -0.451858
    vertex 8.571428 -0.203383 -0.422329
    vertex 8.571428 -0.124705 -0.451858
  endloop
endfacet
facet normal -0.000000 -0.178557 -0.983930
  outer loop
    vertex 10.285714 -0.124705 -0.451858
    vertex 8.571428 -0.124705 -0.451858
    vertex 10.285714 -0.042018 -0.466863
  endloop
endfacet
facet normal -0.000000 -0.178557 -0.983930
  outer loop
    vertex 10.285714 -0.042018 -0.466863
    vertex 8.571428 -0.124705 -0.451858
    vertex 8.571428 -0.042018 -0.466863
  endloop
endfacet
facet normal 0.000000 0.000000 -1.000000
  outer loop
    vertex 10.285714 -0.042018 -0.466863
    vertex 8.571428 -0.042018 -0.466863
    vertex 10.285714 0.042018 -0.466863
  endloop
endfacet
facet normal -0.000000 0.000000 -1.000000
  outer loop
    vertex 10.285714 0.042018 -0.466863
    vertex 8.571428 -0.042018 -0.466863
    vertex 8.571428 0.042018 -0.466863
  endloop
endfacet
facet normal 0.000000 0.178557 -0.983930
  outer loop
    vertex 10.285714 0.042018 -0.466863
    vertex 8.571428 0.042018 -0.466863
    vertex 10.285714 0.124705 -0.451858
  endloop
endfacet
facet normal 0.000000 0.178557 -0.983930
  outer loop
    vertex 10.285714 0.124705 -0.451858
    vertex 8.571428 0.042018 -0.466863
    vertex 8.571428 0.124705 -0.451858
  endloop
endfacet
facet normal 0.000000 0.351375 -0.936235
  outer loop
    vertex 10.285714 0.124705 -0.451858
    vertex 8.571428 0.124705 -0.451858
    vertex 10.285714 0.203383 -0.422329
  endloop
endfacet
facet normal 0.000000 0.351375 -0.936235
  outer loop
    vertex 10.285714 0.203383 -0.422329
    vertex 8.571428 0.124705 -0.451858
    vertex 8.571428 0.203383 -0.422329
  endloop
endfacet
facet normal 0.000000 0.512899 -0.858449
  outer loop
    vertex 10.285714 0.203383 -0.422329
    vertex 8.571428 0.203383 -0.422329
    vertex 10.285714 0.275524 -0.379227
  endloop
endfacet
facet normal 0.000000 0.512899 -0.858449
  outer loop
    vertex 10.285714 0.275524 -0.379227
    vertex 8.571428 0.203383 -0.422329
    vertex 8.571428 0.275524 -0.379227
  endloop
endfacet
facet normal 0.000000 0.657939 -0.753071
  outer loop
    vertex 10.285714 0.275524 -0.379227
    vertex 8.571428 0.275524 -0.379227
    vertex 10.285714 0.338810 -0.323936
  endloop
endfacet
facet normal 0.000000 0.657939 -0.753071
  outer loop
    vertex 10.285714 0.338810 -0.323936
    vertex 8.571428 0.275524 -0.379227
    vertex 8.571428 0.338810 -0.323936
  endloop
endfacet
facet normal 0.000000 0.781832 -0.623490
  outer loop
    vertex 10.285714 0.338810 -0.323936
    vertex 8.571428 0.338810 -0.323936
    vertex 10.285714 0.391206 -0.258233
  endloop
endfacet
facet normal 0.000000 0.781832 -0.623490
  outer loop
    vertex 10.285714 0.391206 -0.258233
    vertex 8.571428 0.338810 -0.323936
    vertex 8.571428 0.391206 -0.258233
  endloop
endfacet
facet normal 0.000000 0.880596 -0.473869
  outer loop
    vertex 10.285714 0.391206 -0.258233
    vertex 8.571428 0.391206 -0.258233
    vertex 10.285714 0.431029 -0.184230
  endloop
endfacet
facet normal 0.000000 0.880596 -0.473869
  outer loop
    vertex 10.285714 0.431029 -0.184230
    vertex 8.571428 0.391206 -0.258233
    vertex 8.571428 0.431029 -0.184230
  endloop
endfacet
facet normal 0.000000 0.000000 -1.000000
  outer loop
    vertex 0.000000 0.451776 0.125000
    vertex 12.000000 0.451776 0.125000
    vertex 0.000000 0.343750 0.125000
  endloop
endfacet
facet normal 0.000000 0.000000 -1.000000
  outer loop
    vertex 0.000000 0.343750 0.125000
    vertex 12.000000 0.451776 0.125000
    vertex 12.000000 0.343750 0.125000
  endloop
endfacet
facet normal 1.000000 0.000000 0.000000
  outer loop
    vertex 12.000000 0.451776 0.125000
    vertex 12.000000 0.422204 0.203642
    vertex 12.000000 0.343750 0.125000
  endloop
endfacet
facet normal 1.000000 0.000000 0.000000
  outer loop
    vertex 12.000000 0.343750 0.125000
    vertex 12.000000 0.422204 0.203642
    vertex 12.000000 0.379069 0.275741
  endloop
endfacet
facet normal 1.000000 0.000000 -0.000000
  outer loop
    vertex 12.000000 0.343750 0.125000
    vertex 12.000000 0.379069 0.275741
    vertex 12.000000 0.323756 0.338982
  endloop
endfacet
facet normal 1.000000 0.000000 0.000000
  outer loop
    vertex 12.000000 0.323756 0.338982
    vertex 12.000000 0.258041 0.391333
    vertex 12.000000 0.343750 0.125000
  endloop
endfacet
facet normal 1.000000 0.000000 0.000000
  outer loop
    vertex 12.000000 0.343750 0.125000
    vertex 12.000000 0.258041 0.391333
    vertex 12.000000 0.184037 0.431111
  endloop
endfacet
facet normal 1.000000 0.000000 0.000000
  outer loop
    vertex 12.000000 0.343750 0.125000
    vertex 12.000000 0.184037 0.431111
    vertex 12.000000 0.104120 0.457040
  endloop
endfacet
facet normal 1.000000 0.000000 0.000000
  outer loop
    vertex 12.000000 0.104120 0.457040
    vertex 12.000000 0.020858 0.468286
    vertex 12.000000 0.343750 0.125000
  endloop
endfacet
facet normal 1.000000 0.000000 0.000000
  outer loop
    vertex 12.000000 0.343750 0.125000
    vertex 12.000000 0.020858 0.468286
    vertex 12.000000 -0.063074 0.464487
  endloop
endfacet
facet normal 1.000000 0.000000 0.000000
  outer loop
    vertex 12.000000 0.343750 0.125000
    vertex 12.000000 -0.063074 0.464487
    vertex 12.000000 -0.144979 0.445766
  endloop
endfacet
facet normal 1.000000 0.000000 0.000000
  outer loop
    vertex 12.000000 -0.144979 0.445766
    vertex 12.000000 -0.222227 0.412725
    vertex 12.000000 0.343750 0.125000
  endloop
endfacet
facet normal 1.000000 0.000000 0.000000
  outer loop
    vertex 12.000000 0.343750 0.125000
    vertex 12.000000 -0.222227 0.412725
    vertex 12.000000 -0.222227 -0.412725
  endloop
endfacet
facet normal 1.000000 0.000000 0.000000
  outer loop
    vertex 12.000000 0.343750 0.125000
    vertex 12.000000 -0.222227 -0.412725
    vertex 12.000000 0.343750 -0.125000
  endloop
endfacet
facet normal 1.000000 0.000000 0.000000
  outer loop
    vertex 12.000000 0.343750 -0.125000
    vertex 12.000000 -0.222227 -0.412725
    vertex 12.000000 -0.144979 -0.445766
  endloop
endfacet
facet normal 1.000000 0.000000 0.000000
  outer loop
    vertex 12.000000 0.343750 -0.125000
    vertex 12.000000 -0.144979 -0.445766
    vertex 12.000000 -0.063074 -0.464487
  endloop
endfacet
facet normal 1.000000 0.000000 -0.000000
  outer loop
    vertex 12.000000 -0.222227 -0.412725
    vertex 12.000000 -0.222227 0.412725
    vertex 12.000000 -0.292336 -0.366424
  endloop
endfacet
facet normal 1.000000 0.000000 0.000000
  outer loop
    vertex 12.000000 -0.292336 -0.366424
    vertex 12.000000 -0.222227 0.412725
    vertex 12.000000 -0.292336 0.366424
  endloop
endfacet
facet normal 1.000000 0.000000 -0.000000
  outer loop
    vertex 12.000000 -0.292336 -0.366424
    vertex 12.000000 -0.292336 0.366424
    vertex 12.000000 -0.353053 -0.308351
  endloop
endfacet
facet normal 1.000000 0.000000 0.000000
  outer loop
    vertex 12.000000 -0.353053 -0.308351
    vertex 12.000000 -0.292336 0.366424
    vertex 12.000000 -0.353053 0.308351
  endloop
endfacet
facet normal 1.000000 0.000000 -0.000000
  outer loop
    vertex 12.000000 -0.353053 -0.308351
    vertex 12.000000 -0.353053 0.308351
    vertex 12.000000 -0.402427 -0.240372
  endloop
endfacet
facet normal 1.000000 0.000000 0.000000
  outer loop
    vertex 12.000000 -0.402427 -0.240372
    vertex 12.000000 -0.353053 0.308351
    vertex 12.000000 -0.402427 0.240372
  endloop
endfacet
facet normal 1.000000 0.000000 -0.000000
  outer loop
    vertex 12.000000 -0.402427 -0.240372
    vertex 12.000000 -0.402427 0.240372
    vertex 12.000000 -0.438874 -0.164671
  endloop
endfacet
facet normal 1.000000 0.000000 0.000000
  outer loop
    vertex 12.000000 -0.438874 -0.164671
    vertex 12.000000 -0.402427 0.240372
    vertex 12.000000 -0.438874 0.164671
  endloop
endfacet
facet normal 1.000000 0.000000 -0.000000
  outer loop
    vertex 12.000000 -0.438874 -0.164671
    vertex 12.000000 -0.438874 0.164671
    vertex 12.000000 -0.461220 -0.083680
  endloop
endfacet
facet normal 1.000000 0.000000 0.000000
  outer loop
    vertex 12.000000 -0.461220 -0.083680
    vertex 12.000000 -0.438874 0.164671
    vertex 12.000000 -0.461220 0.083680
  endloop
endfacet
facet normal 1.000000 0.000000 -0.000000
  outer loop
    vertex 12.000000 -0.461220 -0.083680
    vertex 12.000000 -0.461220 0.083680
    vertex 12.000000 -0.468750 0.000000
  endloop
endfacet
facet normal 1.000000 -0.000000 0.000000
  outer loop
    vertex 12.000000 -0.063074 -0.464487
    vertex 12.000000 0.020858 -0.468286
    vertex 12.000000 0.343750 -0.125000
  endloop
endfacet
facet normal 1.000000 0.000000 0.000000
  outer loop
    vertex 12.000000 0.343750 -0.125000
    vertex 12.000000 0.020858 -0.468286
    vertex 12.000000 0.104120 -0.457040
  endloop
endfacet
facet normal 1.000000 0.000000 0.000000
  outer loop
    vertex 12.000000 0.343750 -0.125000
    vertex 12.000000 0.104120 -0.457040
    vertex 12.000000 0.184037 -0.431111
  endloop
endfacet
facet normal 1.000000 0.000000 0.000000
  outer loop
    vertex 12.000000 0.184037 -0.431111
    vertex 12.000000 0.258041 -0.391333
    vertex 12.000000 0.343750 -0.125000
  endloop
endfacet
facet normal 1.000000 0.000000 0.000000
  outer loop
    vertex 12.000000 0.343750 -0.125000
    vertex 12.000000 0.258041 -0.391333
    vertex 12.000000 0.323756 -0.338982
  endloop
endfacet
facet normal 1.000000 0.000000 0.000000
  outer loop
    vertex 12.000000 0.343750 -0.125000
    vertex 12.000000 0.323756 -0.338982
    vertex 12.000000 0.379069 -0.275741
  endloop
endfacet
facet normal 1.000000 0.000000 -0.000000
  outer loop
    vertex 12.000000 0.379069 -0.275741
    vertex 12.000000 0.422204 -0.203642
    vertex 12.000000 0.343750 -0.125000
  endloop
endfacet
facet normal 1.000000 -0.000000 0.000000
  outer loop
    vertex 12.000000 0.343750 -0.125000
    vertex 12.000000 0.422204 -0.203642
    vertex 12.000000 0.451776 -0.125000
  endloop
endfacet
facet normal -1.000000 0.000000 0.000000
  outer loop
    vertex 0.000000 0.451776 0.125000
    vertex 0.000000 0.343750 0.125000
    vertex 0.000000 0.422204 0.203642
  endloop
endfacet
facet normal -1.000000 -0.000000 0.000000
  outer loop
    vertex 0.000000 0.422204 0.203642
    vertex 0.000000 0.343750 0.125000
    vertex 0.000000 0.379069 0.275741
  endloop
endfacet
facet normal -1.000000 -0.000000 0.000000
  outer loop
    vertex 0.000000 0.379069 0.275741
    vertex 0.000000 0.343750 0.125000
    vertex 0.000000 0.323756 0.338982
  endloop
endfacet
facet normal -1.000000 -0.000000 -0.000000
  outer loop
    vertex 0.000000 0.323756 0.338982
    vertex 0.000000 0.343750 0.125000
    vertex 0.000000 0.258041 0.391333
  endloop
endfacet
facet normal -1.000000 -0.000000 -0.000000
  outer loop
    vertex 0.000000 0.258041 0.391333
    vertex 0.000000 0.343750 0.125000
    vertex 0.000000 0.184037 0.431111
  endloop
endfacet
facet normal -1.000000 -0.000000 -0.000000
  outer loop
    vertex 0.000000 0.184037 0.431111
    vertex 0.000000 0.343750 0.125000
    vertex 0.000000 0.104120 0.457040
  endloop
endfacet
facet normal -1.000000 -0.000000 -0.000000
  outer loop
    vertex 0.000000 0.104120 0.457040
    vertex 0.000000 0.343750 0.125000
    vertex 0.000000 0.020858 0.468286
  endloop
endfacet
facet normal -1.000000 0.000000 -0.000000
  outer loop
    vertex 0.000000 0.020858 0.468286
    vertex 0.000000 0.343750 0.125000
    vertex 0.000000 -0.063074 0.464487
  endloop
endfacet
facet normal -1.000000 0.000000 -0.000000
  outer loop
    vertex 0.000000 -0.063074 0.464487
    vertex 0.000000 0.343750 0.125000
    vertex 0.000000 -0.144979 0.445766
  endloop
endfacet
facet normal -1.000000 0.000000 -0.000000
  outer loop
    vertex 0.000000 -0.144979 0.445766
    vertex 0.000000 0.343750 0.125000
    vertex 0.000000 -0.222227 0.412725
  endloop
endfacet
facet normal -1.000000 0.000000 0.000000
  outer loop
    vertex 0.000000 -0.222227 0.412725
    vertex 0.000000 0.343750 0.125000
    vertex 0.000000 0.343750 -0.125000
  endloop
endfacet
facet normal -1.000000 0.000000 0.000000
  outer loop
    vertex 0.000000 -0.222227 0.412725
    vertex 0.000000 0.343750 -0.125000
    vertex 0.000000 -0.222227 -0.412725
  endloop
endfacet
facet normal -1.000000 0.000000 0.000000
  outer loop
    vertex 0.000000 -0.222227 -0.412725
    vertex 0.000000 0.343750 -0.125000
    vertex 0.000000 -0.144979 -0.445766
  endloop
endfacet
facet normal -1.000000 0.000000 0.000000
  outer loop
    vertex 0.000000 -0.144979 -0.445766
    vertex 0.000000 0.343750 -0.125000
    vertex 0.000000 -0.063074 -0.464487
  endloop
endfacet
facet normal -1.000000 0.000000 0.000000
  outer loop
    vertex 0.000000 -0.063074 -0.464487
    vertex 0.000000 0.343750 -0.125000
    vertex 0.000000 0.020858 -0.468286
  endloop
endfacet
facet normal -1.000000 0.000000 0.000000
  outer loop
    vertex 0.000000 0.020858 -0.468286
    vertex 0.000000 0.343750 -0.125000
    vertex 0.000000 0.104120 -0.457040
  endloop
endfacet
facet normal -1.000000 0.000000 0.000000
  outer loop
    vertex 0.000000 0.104120 -0.457040
    vertex 0.000000 0.343750 -0.125000
    vertex 0.000000 0.184037 -0.431111
  endloop
endfacet
facet normal -1.000000 0.000000 0.000000
  outer loop
    vertex 0.000000 0.184037 -0.431111
    vertex 0.000000 0.343750 -0.125000
    vertex 0.000000 0.258041 -0.391333
  endloop
endfacet
facet normal -1.000000 0.000000 0.000000
  outer loop
    vertex 0.000000 0.258041 -0.391333
    vertex 0.000000 0.343750 -0.125000
    vertex 0.000000 0.323756 -0.338982
  endloop
endfacet
facet normal -1.000000 0.000000 0.000000
  outer loop
    vertex 0.000000 0.323756 -0.338982
    vertex 0.000000 0.343750 -0.125000
    vertex 0.000000 0.379069 -0.275741
  endloop
endfacet
facet normal -1.000000 0.000000 0.000000
  outer loop
    vertex 0.000000 0.379069 -0.275741
    vertex 0.000000 0.343750 -0.125000
    vertex 0.000000 0.422204 -0.203642
  endloop
endfacet
facet normal -1.000000 0.000000 0.000000
  outer loop
    vertex 0.000000 0.422204 -0.203642
    vertex 0.000000 0.343750 -0.125000
    vertex 0.000000 0.451776 -0.125000
  endloop
endfacet
facet normal -1.000000 0.000000 -0.000000
  outer loop
    vertex 0.000000 -0.222227 0.412725
    vertex 0.000000 -0.222227 -0.412725
    vertex 0.000000 -0.292336 0.366424
  endloop
endfacet
facet normal -1.000000 0.000000 0.000000
  outer loop
    vertex 0.000000 -0.292336 0.366424
    vertex 0.000000 -0.222227 -0.412725
    vertex 0.000000 -0.292336 -0.366424
  endloop
endfacet
facet normal -1.000000 0.000000 -0.000000
  outer loop
    vertex 0.000000 -0.292336 0.366424
    vertex 0.000000 -0.292336 -0.366424
    vertex 0.000000 -0.353053 0.308351
  endloop
endfacet
facet normal -1.000000 0.000000 0.000000
  outer loop
    vertex 0.000000 -0.353053 0.308351
    vertex 0.000000 -0.292336 -0.366424
    vertex 0.000000 -0.353053 -0.308351
  endloop
endfacet
facet normal -1.000000 0.000000 -0.000000
  outer loop
    vertex 0.000000 -0.353053 0.308351
    vertex 0.000000 -0.353053 -0.308351
    vertex 0.000000 -0.402427 0.240372
  endloop
endfacet
facet normal -1.000000 0.000000 0.000000
  outer loop
    vertex 0.000000 -0.402427 0.240372
    vertex 0.000000 -0.353053 -0.308351
    vertex 0.000000 -0.402427 -0.240372
  endloop
endfacet
facet normal -1.000000 0.000000 -0.000000
  outer loop
    vertex 0.000000 -0.402427 0.240372
    vertex 0.000000 -0.402427 -0.240372
    vertex 0.000000 -0.438874 0.164671
  endloop
endfacet
facet normal -1.000000 0.000000 0.000000
  outer loop
    vertex 0.000000 -0.438874 0.164671
    vertex 0.000000 -0.402427 -0.240372
    vertex 0.000000 -0.438874 -0.164671
  endloop
endfacet
facet normal -1.000000 0.000000 -0.000000
  outer loop
    vertex 0.000000 -0.438874 0.164671
    vertex 0.000000 -0.438874 -0.164671
    vertex 0.000000 -0.461220 0.083680
  endloop
endfacet
facet normal -1.000000 0.000000 0.000000
  outer loop
    vertex 0.000000 -0.461220 0.083680
    vertex 0.000000 -0.438874 -0.164671
    vertex 0.000000 -0.461220 -0.083680
  endloop
endfacet
facet normal -1.000000 0.000000 -0.000000
  outer loop
    vertex 0.000000 -0.461220 0.083680
    vertex 0.000000 -0.461220 -0.083680
    vertex 0.000000 -0.468750 0.000000
  endloop
endfacet
endsolid a7febc57-f7d7-40ae-bc76-c87e89540f01-ascii.stl
