solid b9c77a85-4d31-4be5-b67c-c0aef3136e3a-ascii.stl
facet normal 0.000000 1.000000 0.000000
  outer loop
    vertex 0.000000 0.718750 -0.250000
    vertex 0.000000 0.718750 0.250000
    vertex 3.000000 0.718750 -0.250000
  endloop
endfacet
facet normal 0.000000 1.000000 -0.000000
  outer loop
    vertex 3.000000 0.718750 -0.250000
    vertex 0.000000 0.718750 0.250000
    vertex 3.000000 0.718750 0.250000
  endloop
endfacet
facet normal -0.000000 0.000000 1.000000
  outer loop
    vertex 0.000000 0.935936 -0.250000
    vertex 0.000000 0.718750 -0.250000
    vertex 3.000000 0.935936 -0.250000
  endloop
endfacet
facet normal 0.000000 0.000000 1.000000
  outer loop
    vertex 3.000000 0.935936 -0.250000
    vertex 0.000000 0.718750 -0.250000
    vertex 3.000000 0.718750 -0.250000
  endloop
endfacet
facet normal 0.000000 0.964851 0.262799
  outer loop
    vertex 3.000000 0.935936 0.250000
    vertex 0.000000 0.935936 0.250000
    vertex 1.500000 0.933439 0.259168
  endloop
endfacet
facet normal -0.000197 0.956211 0.292678
  outer loop
    vertex 1.500000 0.933439 0.259168
    vertex 0.000000 0.935936 0.250000
    vertex 0.000000 0.915522 0.316695
  endloop
endfacet
facet normal 0.000201 0.953263 0.302141
  outer loop
    vertex 1.500000 0.933439 0.259168
    vertex 0.000000 0.915522 0.316695
    vertex 1.500000 0.912305 0.325847
  endloop
endfacet
facet normal -0.000200 0.932674 0.360720
  outer loop
    vertex 1.500000 0.912305 0.325847
    vertex 0.000000 0.915522 0.316695
    vertex 0.000000 0.890363 0.381748
  endloop
endfacet
facet normal 0.000205 0.928977 0.370138
  outer loop
    vertex 1.500000 0.912305 0.325847
    vertex 0.000000 0.890363 0.381748
    vertex 1.500000 0.886414 0.390828
  endloop
endfacet
facet normal -0.000204 0.904302 0.426893
  outer loop
    vertex 1.500000 0.886414 0.390828
    vertex 0.000000 0.890363 0.381748
    vertex 0.000000 0.860587 0.444822
  endloop
endfacet
facet normal 0.000208 0.899847 0.436206
  outer loop
    vertex 1.500000 0.886414 0.390828
    vertex 0.000000 0.860587 0.444822
    vertex 1.500000 0.855902 0.453771
  endloop
endfacet
facet normal -0.000207 0.871242 0.490853
  outer loop
    vertex 1.500000 0.855902 0.453771
    vertex 0.000000 0.860587 0.444822
    vertex 0.000000 0.826351 0.505590
  endloop
endfacet
facet normal 0.000211 0.866025 0.500000
  outer loop
    vertex 1.500000 0.855902 0.453771
    vertex 0.000000 0.826351 0.505590
    vertex 1.500000 0.820928 0.514348
  endloop
endfacet
facet normal -0.000211 0.833667 0.552268
  outer loop
    vertex 1.500000 0.820928 0.514348
    vertex 0.000000 0.826351 0.505590
    vertex 0.000000 0.787831 0.563737
  endloop
endfacet
facet normal 0.000215 0.827689 0.561187
  outer loop
    vertex 1.500000 0.820928 0.514348
    vertex 0.000000 0.787831 0.563737
    vertex 1.500000 0.781674 0.572243
  endloop
endfacet
facet normal -0.000214 0.791769 0.610821
  outer loop
    vertex 1.500000 0.781674 0.572243
    vertex 0.000000 0.787831 0.563737
    vertex 0.000000 0.745227 0.618962
  endloop
endfacet
facet normal 0.000218 0.785038 0.619448
  outer loop
    vertex 1.500000 0.781674 0.572243
    vertex 0.000000 0.745227 0.618962
    vertex 1.500000 0.738344 0.627155
  endloop
endfacet
facet normal -0.000217 0.745766 0.666208
  outer loop
    vertex 1.500000 0.738344 0.627155
    vertex 0.000000 0.745227 0.618962
    vertex 0.000000 0.698759 0.670978
  endloop
endfacet
facet normal 0.000221 0.738293 0.674480
  outer loop
    vertex 1.500000 0.738344 0.627155
    vertex 0.000000 0.698759 0.670978
    vertex 1.500000 0.691166 0.678798
  endloop
endfacet
facet normal -0.000221 0.695899 0.718140
  outer loop
    vertex 1.500000 0.691166 0.678798
    vertex 0.000000 0.698759 0.670978
    vertex 0.000000 0.648670 0.719516
  endloop
endfacet
facet normal 0.000225 0.687699 0.725995
  outer loop
    vertex 1.500000 0.691166 0.678798
    vertex 0.000000 0.648670 0.719516
    vertex 1.500000 0.640383 0.726901
  endloop
endfacet
facet normal -0.000224 0.642422 0.766351
  outer loop
    vertex 1.500000 0.640383 0.726901
    vertex 0.000000 0.648670 0.719516
    vertex 0.000000 0.595218 0.764325
  endloop
endfacet
facet normal 0.000228 0.633520 0.773726
  outer loop
    vertex 1.500000 0.640383 0.726901
    vertex 0.000000 0.595218 0.764325
    vertex 1.500000 0.586263 0.771215
  endloop
endfacet
facet normal -0.000227 0.585618 0.810587
  outer loop
    vertex 1.500000 0.586263 0.771215
    vertex 0.000000 0.595218 0.764325
    vertex 0.000000 0.538680 0.805171
  endloop
endfacet
facet normal 0.000231 0.576039 0.817422
  outer loop
    vertex 1.500000 0.586263 0.771215
    vertex 0.000000 0.538680 0.805171
    vertex 1.500000 0.529085 0.811508
  endloop
endfacet
facet normal -0.000231 0.525776 0.850623
  outer loop
    vertex 1.500000 0.529085 0.811508
    vertex 0.000000 0.538680 0.805171
    vertex 0.000000 0.479350 0.841843
  endloop
endfacet
facet normal 0.000234 0.515554 0.856857
  outer loop
    vertex 1.500000 0.529085 0.811508
    vertex 0.000000 0.479350 0.841843
    vertex 1.500000 0.469149 0.847570
  endloop
endfacet
facet normal -0.000234 0.463210 0.886249
  outer loop
    vertex 1.500000 0.469149 0.847570
    vertex 0.000000 0.479350 0.841843
    vertex 0.000000 0.417536 0.874151
  endloop
endfacet
facet normal 0.000238 0.452381 0.891825
  outer loop
    vertex 1.500000 0.469149 0.847570
    vertex 0.000000 0.417536 0.874151
    vertex 1.500000 0.406768 0.879214
  endloop
endfacet
facet normal -0.000237 0.398241 0.917281
  outer loop
    vertex 1.500000 0.406768 0.879214
    vertex 0.000000 0.417536 0.874151
    vertex 0.000000 0.353556 0.901928
  endloop
endfacet
facet normal 0.000241 0.386850 0.922143
  outer loop
    vertex 1.500000 0.406768 0.879214
    vertex 0.000000 0.353556 0.901928
    vertex 1.500000 0.342265 0.906273
  endloop
endfacet
facet normal -0.000240 0.331208 0.943558
  outer loop
    vertex 1.500000 0.342265 0.906273
    vertex 0.000000 0.353556 0.901928
    vertex 0.000000 0.287744 0.925030
  endloop
endfacet
facet normal 0.000244 0.319302 0.947653
  outer loop
    vertex 1.500000 0.342265 0.906273
    vertex 0.000000 0.287744 0.925030
    vertex 1.500000 0.275978 0.928608
  endloop
endfacet
facet normal -0.000243 0.262460 0.964943
  outer loop
    vertex 1.500000 0.275978 0.928608
    vertex 0.000000 0.287744 0.925030
    vertex 0.000000 0.220441 0.943336
  endloop
endfacet
facet normal 0.000247 0.250089 0.968223
  outer loop
    vertex 1.500000 0.275978 0.928608
    vertex 0.000000 0.220441 0.943336
    vertex 1.500000 0.208253 0.946101
  endloop
endfacet
facet normal -0.000246 0.192349 0.981327
  outer loop
    vertex 1.500000 0.208253 0.946101
    vertex 0.000000 0.220441 0.943336
    vertex 0.000000 0.151994 0.956752
  endloop
endfacet
facet normal 0.000250 0.179571 0.983745
  outer loop
    vertex 1.500000 0.208253 0.946101
    vertex 0.000000 0.151994 0.956752
    vertex 1.500000 0.139441 0.958662
  endloop
endfacet
facet normal -0.000249 0.121243 0.992623
  outer loop
    vertex 1.500000 0.139441 0.958662
    vertex 0.000000 0.151994 0.956752
    vertex 0.000000 0.082760 0.965208
  endloop
endfacet
facet normal 0.000253 0.108119 0.994138
  outer loop
    vertex 1.500000 0.139441 0.958662
    vertex 0.000000 0.082760 0.965208
    vertex 1.500000 0.069903 0.966225
  endloop
endfacet
facet normal -0.000252 0.049506 0.998774
  outer loop
    vertex 1.500000 0.069903 0.966225
    vertex 0.000000 0.082760 0.965208
    vertex 0.000000 0.013097 0.968661
  endloop
endfacet
facet normal 0.000256 0.036103 0.999348
  outer loop
    vertex 1.500000 0.069903 0.966225
    vertex 0.000000 0.013097 0.968661
    vertex 1.500000 0.000000 0.968750
  endloop
endfacet
facet normal -0.000255 -0.022486 0.999747
  outer loop
    vertex 1.500000 0.000000 0.968750
    vertex 0.000000 0.013097 0.968661
    vertex 0.000000 -0.056635 0.967093
  endloop
endfacet
facet normal 0.000259 -0.036103 0.999348
  outer loop
    vertex 1.500000 0.000000 0.968750
    vertex 0.000000 -0.056635 0.967093
    vertex 1.500000 -0.069903 0.966225
  endloop
endfacet
facet normal -0.000258 -0.094361 0.995538
  outer loop
    vertex 1.500000 -0.069903 0.966225
    vertex 0.000000 -0.056635 0.967093
    vertex 0.000000 -0.126072 0.960512
  endloop
endfacet
facet normal 0.000262 -0.108119 0.994138
  outer loop
    vertex 1.500000 -0.069903 0.966225
    vertex 0.000000 -0.126072 0.960512
    vertex 1.500000 -0.139441 0.958662
  endloop
endfacet
facet normal -0.000261 -0.165748 0.986168
  outer loop
    vertex 1.500000 -0.139441 0.958662
    vertex 0.000000 -0.126072 0.960512
    vertex 0.000000 -0.194856 0.948951
  endloop
endfacet
facet normal 0.000265 -0.179571 0.983745
  outer loop
    vertex 1.500000 -0.139441 0.958662
    vertex 0.000000 -0.194856 0.948951
    vertex 1.500000 -0.208253 0.946101
  endloop
endfacet
facet normal -0.000264 -0.236275 0.971686
  outer loop
    vertex 1.500000 -0.208253 0.946101
    vertex 0.000000 -0.194856 0.948951
    vertex 0.000000 -0.262630 0.932471
  endloop
endfacet
facet normal 0.000268 -0.250089 0.968223
  outer loop
    vertex 1.500000 -0.208253 0.946101
    vertex 0.000000 -0.262630 0.932471
    vertex 1.500000 -0.275978 0.928608
  endloop
endfacet
facet normal -0.000267 -0.305577 0.952167
  outer loop
    vertex 1.500000 -0.275978 0.928608
    vertex 0.000000 -0.262630 0.932471
    vertex 0.000000 -0.329043 0.911157
  endloop
endfacet
facet normal 0.000271 -0.319302 0.947653
  outer loop
    vertex 1.500000 -0.275978 0.928608
    vertex 0.000000 -0.329043 0.911157
    vertex 1.500000 -0.342265 0.906273
  endloop
endfacet
facet normal -0.000270 -0.373296 0.927712
  outer loop
    vertex 1.500000 -0.342265 0.906273
    vertex 0.000000 -0.329043 0.911157
    vertex 0.000000 -0.393750 0.885120
  endloop
endfacet
facet normal 0.000274 -0.386850 0.922143
  outer loop
    vertex 1.500000 -0.342265 0.906273
    vertex 0.000000 -0.393750 0.885120
    vertex 1.500000 -0.406768 0.879214
  endloop
endfacet
facet normal -0.000273 -0.439079 0.898448
  outer loop
    vertex 1.500000 -0.406768 0.879214
    vertex 0.000000 -0.393750 0.885120
    vertex 0.000000 -0.456415 0.854495
  endloop
endfacet
facet normal 0.000277 -0.452381 0.891825
  outer loop
    vertex 1.500000 -0.406768 0.879214
    vertex 0.000000 -0.456415 0.854495
    vertex 1.500000 -0.469149 0.847570
  endloop
endfacet
facet normal -0.000276 -0.502586 0.864527
  outer loop
    vertex 1.500000 -0.469149 0.847570
    vertex 0.000000 -0.456415 0.854495
    vertex 0.000000 -0.516715 0.819440
  endloop
endfacet
facet normal 0.000279 -0.515554 0.856857
  outer loop
    vertex 1.500000 -0.469149 0.847570
    vertex 0.000000 -0.516715 0.819440
    vertex 1.500000 -0.529085 0.811508
  endloop
endfacet
facet normal -0.000278 -0.563489 0.826124
  outer loop
    vertex 1.500000 -0.529085 0.811508
    vertex 0.000000 -0.516715 0.819440
    vertex 0.000000 -0.574336 0.780137
  endloop
endfacet
facet normal 0.000282 -0.576039 0.817422
  outer loop
    vertex 1.500000 -0.529085 0.811508
    vertex 0.000000 -0.574336 0.780137
    vertex 1.500000 -0.586263 0.771215
  endloop
endfacet
facet normal -0.000281 -0.621469 0.783439
  outer loop
    vertex 1.500000 -0.586263 0.771215
    vertex 0.000000 -0.574336 0.780137
    vertex 0.000000 -0.628980 0.736791
  endloop
endfacet
facet normal 0.000285 -0.633520 0.773726
  outer loop
    vertex 1.500000 -0.586263 0.771215
    vertex 0.000000 -0.628980 0.736791
    vertex 1.500000 -0.640383 0.726901
  endloop
endfacet
facet normal -0.000284 -0.676228 0.736692
  outer loop
    vertex 1.500000 -0.640383 0.726901
    vertex 0.000000 -0.628980 0.736791
    vertex 0.000000 -0.680364 0.689625
  endloop
endfacet
facet normal 0.000288 -0.687699 0.725995
  outer loop
    vertex 1.500000 -0.640383 0.726901
    vertex 0.000000 -0.680364 0.689625
    vertex 1.500000 -0.691166 0.678798
  endloop
endfacet
facet normal -0.000287 -0.727483 0.686126
  outer loop
    vertex 1.500000 -0.691166 0.678798
    vertex 0.000000 -0.680364 0.689625
    vertex 0.000000 -0.728220 0.638883
  endloop
endfacet
facet normal 0.000290 -0.738293 0.674480
  outer loop
    vertex 1.500000 -0.691166 0.678798
    vertex 0.000000 -0.728220 0.638883
    vertex 1.500000 -0.738344 0.627155
  endloop
endfacet
facet normal -0.000289 -0.774965 0.632004
  outer loop
    vertex 1.500000 -0.738344 0.627155
    vertex 0.000000 -0.728220 0.638883
    vertex 0.000000 -0.772302 0.584831
  endloop
endfacet
facet normal 0.000293 -0.785038 0.619448
  outer loop
    vertex 1.500000 -0.738344 0.627155
    vertex 0.000000 -0.772302 0.584831
    vertex 1.500000 -0.781674 0.572243
  endloop
endfacet
facet normal -0.000292 -0.818431 0.574605
  outer loop
    vertex 1.500000 -0.781674 0.572243
    vertex 0.000000 -0.772302 0.584831
    vertex 0.000000 -0.812380 0.527746
  endloop
endfacet
facet normal 0.000296 -0.827689 0.561187
  outer loop
    vertex 1.500000 -0.781674 0.572243
    vertex 0.000000 -0.812380 0.527746
    vertex 1.500000 -0.820928 0.514348
  endloop
endfacet
facet normal -0.000295 -0.857653 0.514229
  outer loop
    vertex 1.500000 -0.820928 0.514348
    vertex 0.000000 -0.812380 0.527746
    vertex 0.000000 -0.848247 0.467926
  endloop
endfacet
facet normal 0.000298 -0.866025 0.500000
  outer loop
    vertex 1.500000 -0.820928 0.514348
    vertex 0.000000 -0.848247 0.467926
    vertex 1.500000 -0.855902 0.453771
  endloop
endfacet
facet normal -0.000297 -0.892430 0.451185
  outer loop
    vertex 1.500000 -0.855902 0.453771
    vertex 0.000000 -0.848247 0.467926
    vertex 0.000000 -0.879716 0.405680
  endloop
endfacet
facet normal 0.000301 -0.899847 0.436206
  outer loop
    vertex 1.500000 -0.855902 0.453771
    vertex 0.000000 -0.879716 0.405680
    vertex 1.500000 -0.886414 0.390828
  endloop
endfacet
facet normal -0.000300 -0.922581 0.385804
  outer loop
    vertex 1.500000 -0.886414 0.390828
    vertex 0.000000 -0.879716 0.405680
    vertex 0.000000 -0.906626 0.341331
  endloop
endfacet
facet normal 0.000303 -0.928977 0.370138
  outer loop
    vertex 1.500000 -0.886414 0.390828
    vertex 0.000000 -0.906626 0.341331
    vertex 1.500000 -0.912305 0.325847
  endloop
endfacet
facet normal -0.000302 -0.947949 0.318422
  outer loop
    vertex 1.500000 -0.912305 0.325847
    vertex 0.000000 -0.906626 0.341331
    vertex 0.000000 -0.928835 0.275212
  endloop
endfacet
facet normal 0.000306 -0.953263 0.302141
  outer loop
    vertex 1.500000 -0.912305 0.325847
    vertex 0.000000 -0.928835 0.275212
    vertex 1.500000 -0.933439 0.259168
  endloop
endfacet
facet normal -0.000305 -0.968403 0.249389
  outer loop
    vertex 1.500000 -0.933439 0.259168
    vertex 0.000000 -0.928835 0.275212
    vertex 0.000000 -0.946230 0.207667
  endloop
endfacet
facet normal 0.000308 -0.972580 0.232567
  outer loop
    vertex 1.500000 -0.933439 0.259168
    vertex 0.000000 -0.946230 0.207667
    vertex 1.500000 -0.949707 0.191138
  endloop
endfacet
facet normal -0.000307 -0.983837 0.179066
  outer loop
    vertex 1.500000 -0.949707 0.191138
    vertex 0.000000 -0.946230 0.207667
    vertex 0.000000 -0.958719 0.139046
  endloop
endfacet
facet normal 0.000311 -0.986827 0.161781
  outer loop
    vertex 1.500000 -0.949707 0.191138
    vertex 0.000000 -0.958719 0.139046
    vertex 1.500000 -0.961023 0.122111
  endloop
endfacet
facet normal -0.000310 -0.994171 0.107811
  outer loop
    vertex 1.500000 -0.961023 0.122111
    vertex 0.000000 -0.958719 0.139046
    vertex 0.000000 -0.966239 0.069704
  endloop
endfacet
facet normal 0.000313 -0.995928 0.090154
  outer loop
    vertex 1.500000 -0.961023 0.122111
    vertex 0.000000 -0.966239 0.069704
    vertex 1.500000 -0.967329 0.052447
  endloop
endfacet
facet normal -0.000312 -0.999352 0.035999
  outer loop
    vertex 1.500000 -0.967329 0.052447
    vertex 0.000000 -0.966239 0.069704
    vertex 0.000000 -0.968750 0.000000
  endloop
endfacet
facet normal 0.000316 -0.999837 0.018054
  outer loop
    vertex 1.500000 -0.967329 0.052447
    vertex 0.000000 -0.968750 0.000000
    vertex 1.500000 -0.968592 -0.017490
  endloop
endfacet
facet normal -0.000315 -0.999352 -0.035999
  outer loop
    vertex 1.500000 -0.968592 -0.017490
    vertex 0.000000 -0.968750 0.000000
    vertex 0.000000 -0.966239 -0.069704
  endloop
endfacet
facet normal 0.000318 -0.998533 -0.054139
  outer loop
    vertex 1.500000 -0.968592 -0.017490
    vertex 0.000000 -0.966239 -0.069704
    vertex 1.500000 -0.964805 -0.087336
  endloop
endfacet
facet normal -0.000317 -0.994171 -0.107811
  outer loop
    vertex 1.500000 -0.964805 -0.087336
    vertex 0.000000 -0.966239 -0.069704
    vertex 0.000000 -0.958719 -0.139046
  endloop
endfacet
facet normal 0.000321 -0.992024 -0.126050
  outer loop
    vertex 1.500000 -0.964805 -0.087336
    vertex 0.000000 -0.958719 -0.139046
    vertex 1.500000 -0.955988 -0.156726
  endloop
endfacet
facet normal -0.000319 -0.983837 -0.179066
  outer loop
    vertex 1.500000 -0.955988 -0.156726
    vertex 0.000000 -0.958719 -0.139046
    vertex 0.000000 -0.946230 -0.207667
  endloop
endfacet
facet normal 0.000323 -0.980342 -0.197303
  outer loop
    vertex 1.500000 -0.955988 -0.156726
    vertex 0.000000 -0.946230 -0.207667
    vertex 1.500000 -0.942187 -0.225300
  endloop
endfacet
facet normal -0.000322 -0.968403 -0.249389
  outer loop
    vertex 1.500000 -0.942187 -0.225300
    vertex 0.000000 -0.946230 -0.207667
    vertex 0.000000 -0.928835 -0.275212
  endloop
endfacet
facet normal 0.000325 -0.963550 -0.267528
  outer loop
    vertex 1.500000 -0.942187 -0.225300
    vertex 0.000000 -0.928835 -0.275212
    vertex 1.500000 -0.923474 -0.292699
  endloop
endfacet
facet normal -0.000324 -0.947949 -0.318422
  outer loop
    vertex 1.500000 -0.923474 -0.292699
    vertex 0.000000 -0.928835 -0.275212
    vertex 0.000000 -0.906626 -0.341331
  endloop
endfacet
facet normal 0.000327 -0.941734 -0.336358
  outer loop
    vertex 1.500000 -0.923474 -0.292699
    vertex 0.000000 -0.906626 -0.341331
    vertex 1.500000 -0.899946 -0.358571
  endloop
endfacet
facet normal -0.000326 -0.922581 -0.385804
  outer loop
    vertex 1.500000 -0.899946 -0.358571
    vertex 0.000000 -0.906626 -0.341331
    vertex 0.000000 -0.879716 -0.405680
  endloop
endfacet
facet normal 0.000330 -0.915008 -0.403435
  outer loop
    vertex 1.500000 -0.899946 -0.358571
    vertex 0.000000 -0.879716 -0.405680
    vertex 1.500000 -0.871727 -0.422575
  endloop
endfacet
facet normal -0.000328 -0.892430 -0.451185
  outer loop
    vertex 1.500000 -0.871727 -0.422575
    vertex 0.000000 -0.879716 -0.405680
    vertex 0.000000 -0.848247 -0.467926
  endloop
endfacet
facet normal 0.000332 -0.883512 -0.468408
  outer loop
    vertex 1.500000 -0.871727 -0.422575
    vertex 0.000000 -0.848247 -0.467926
    vertex 1.500000 -0.838962 -0.484375
  endloop
endfacet
facet normal -0.000331 -0.857653 -0.514229
  outer loop
    vertex 1.500000 -0.838962 -0.484375
    vertex 0.000000 -0.848247 -0.467926
    vertex 0.000000 -0.812380 -0.527746
  endloop
endfacet
facet normal 0.000334 -0.847410 -0.530940
  outer loop
    vertex 1.500000 -0.838962 -0.484375
    vertex 0.000000 -0.812380 -0.527746
    vertex 1.500000 -0.801824 -0.543650
  endloop
endfacet
facet normal -0.000333 -0.818431 -0.574605
  outer loop
    vertex 1.500000 -0.801824 -0.543650
    vertex 0.000000 -0.812380 -0.527746
    vertex 0.000000 -0.772302 -0.584831
  endloop
endfacet
facet normal 0.000336 -0.806889 -0.590703
  outer loop
    vertex 1.500000 -0.801824 -0.543650
    vertex 0.000000 -0.772302 -0.584831
    vertex 1.500000 -0.760505 -0.600091
  endloop
endfacet
facet normal -0.000335 -0.774965 -0.632004
  outer loop
    vertex 1.500000 -0.760505 -0.600091
    vertex 0.000000 -0.772302 -0.584831
    vertex 0.000000 -0.728220 -0.638883
  endloop
endfacet
facet normal 0.000338 -0.762162 -0.647386
  outer loop
    vertex 1.500000 -0.760505 -0.600091
    vertex 0.000000 -0.728220 -0.638883
    vertex 1.500000 -0.715221 -0.653403
  endloop
endfacet
facet normal -0.000337 -0.727483 -0.686126
  outer loop
    vertex 1.500000 -0.715221 -0.653403
    vertex 0.000000 -0.728220 -0.638883
    vertex 0.000000 -0.680364 -0.689625
  endloop
endfacet
facet normal 0.000341 -0.713461 -0.700695
  outer loop
    vertex 1.500000 -0.715221 -0.653403
    vertex 0.000000 -0.680364 -0.689625
    vertex 1.500000 -0.666209 -0.703308
  endloop
endfacet
facet normal -0.000339 -0.676228 -0.736692
  outer loop
    vertex 1.500000 -0.666209 -0.703308
    vertex 0.000000 -0.680364 -0.689625
    vertex 0.000000 -0.628980 -0.736791
  endloop
endfacet
facet normal 0.000343 -0.661041 -0.750350
  outer loop
    vertex 1.500000 -0.666209 -0.703308
    vertex 0.000000 -0.628980 -0.736791
    vertex 1.500000 -0.613723 -0.749547
  endloop
endfacet
facet normal -0.000341 -0.621469 -0.783439
  outer loop
    vertex 1.500000 -0.613723 -0.749547
    vertex 0.000000 -0.628980 -0.736791
    vertex 0.000000 -0.574336 -0.780137
  endloop
endfacet
facet normal 0.000345 -0.605174 -0.796093
  outer loop
    vertex 1.500000 -0.613723 -0.749547
    vertex 0.000000 -0.574336 -0.780137
    vertex 1.500000 -0.558038 -0.791878
  endloop
endfacet
facet normal -0.000343 -0.563489 -0.826124
  outer loop
    vertex 1.500000 -0.558038 -0.791878
    vertex 0.000000 -0.574336 -0.780137
    vertex 0.000000 -0.516715 -0.819440
  endloop
endfacet
facet normal 0.000347 -0.546153 -0.837686
  outer loop
    vertex 1.500000 -0.558038 -0.791878
    vertex 0.000000 -0.516715 -0.819440
    vertex 1.500000 -0.499443 -0.830080
  endloop
endfacet
facet normal -0.000345 -0.502586 -0.864527
  outer loop
    vertex 1.500000 -0.499443 -0.830080
    vertex 0.000000 -0.516715 -0.819440
    vertex 0.000000 -0.456415 -0.854495
  endloop
endfacet
facet normal 0.000349 -0.484284 -0.874911
  outer loop
    vertex 1.500000 -0.499443 -0.830080
    vertex 0.000000 -0.456415 -0.854495
    vertex 1.500000 -0.438244 -0.863955
  endloop
endfacet
facet normal -0.000347 -0.439079 -0.898448
  outer loop
    vertex 1.500000 -0.438244 -0.863955
    vertex 0.000000 -0.456415 -0.854495
    vertex 0.000000 -0.393750 -0.885120
  endloop
endfacet
facet normal 0.000351 -0.419889 -0.907576
  outer loop
    vertex 1.500000 -0.438244 -0.863955
    vertex 0.000000 -0.393750 -0.885120
    vertex 1.500000 -0.374761 -0.893326
  endloop
endfacet
facet normal -0.000349 -0.373296 -0.927712
  outer loop
    vertex 1.500000 -0.374761 -0.893326
    vertex 0.000000 -0.393750 -0.885120
    vertex 0.000000 -0.329043 -0.911157
  endloop
endfacet
facet normal 0.000353 -0.353306 -0.935508
  outer loop
    vertex 1.500000 -0.374761 -0.893326
    vertex 0.000000 -0.329043 -0.911157
    vertex 1.500000 -0.309323 -0.918039
  endloop
endfacet
facet normal -0.000351 -0.305577 -0.952167
  outer loop
    vertex 1.500000 -0.309323 -0.918039
    vertex 0.000000 -0.329043 -0.911157
    vertex 0.000000 -0.262630 -0.932471
  endloop
endfacet
facet normal 0.000355 -0.284881 -0.958563
  outer loop
    vertex 1.500000 -0.309323 -0.918039
    vertex 0.000000 -0.262630 -0.932471
    vertex 1.500000 -0.242273 -0.937966
  endloop
endfacet
facet normal -0.000353 -0.236275 -0.971686
  outer loop
    vertex 1.500000 -0.242273 -0.937966
    vertex 0.000000 -0.262630 -0.932471
    vertex 0.000000 -0.194856 -0.948951
  endloop
endfacet
facet normal 0.000356 -0.214970 -0.976621
  outer loop
    vertex 1.500000 -0.242273 -0.937966
    vertex 0.000000 -0.194856 -0.948951
    vertex 1.500000 -0.173960 -0.953003
  endloop
endfacet
facet normal -0.000355 -0.165748 -0.986168
  outer loop
    vertex 1.500000 -0.173960 -0.953003
    vertex 0.000000 -0.194856 -0.948951
    vertex 0.000000 -0.126072 -0.960512
  endloop
endfacet
facet normal 0.000358 -0.143940 -0.989586
  outer loop
    vertex 1.500000 -0.173960 -0.953003
    vertex 0.000000 -0.126072 -0.960512
    vertex 1.500000 -0.104740 -0.963071
  endloop
endfacet
facet normal -0.000357 -0.094361 -0.995538
  outer loop
    vertex 1.500000 -0.104740 -0.963071
    vertex 0.000000 -0.126072 -0.960512
    vertex 0.000000 -0.056635 -0.967093
  endloop
endfacet
facet normal 0.000360 -0.072158 -0.997393
  outer loop
    vertex 1.500000 -0.104740 -0.963071
    vertex 0.000000 -0.056635 -0.967093
    vertex 1.500000 -0.034974 -0.968118
  endloop
endfacet
facet normal -0.000359 -0.022486 -0.999747
  outer loop
    vertex 1.500000 -0.034974 -0.968118
    vertex 0.000000 -0.056635 -0.967093
    vertex 0.000000 0.013097 -0.968661
  endloop
endfacet
facet normal 0.000362 0.000000 -1.000000
  outer loop
    vertex 1.500000 -0.034974 -0.968118
    vertex 0.000000 0.013097 -0.968661
    vertex 1.500000 0.034974 -0.968118
  endloop
endfacet
facet normal -0.000360 0.049506 -0.998774
  outer loop
    vertex 1.500000 0.034974 -0.968118
    vertex 0.000000 0.013097 -0.968661
    vertex 0.000000 0.082760 -0.965208
  endloop
endfacet
facet normal 0.000364 0.072158 -0.997393
  outer loop
    vertex 1.500000 0.034974 -0.968118
    vertex 0.000000 0.082760 -0.965208
    vertex 1.500000 0.104740 -0.963071
  endloop
endfacet
facet normal -0.000362 0.121243 -0.992623
  outer loop
    vertex 1.500000 0.104740 -0.963071
    vertex 0.000000 0.082760 -0.965208
    vertex 0.000000 0.151994 -0.956752
  endloop
endfacet
facet normal 0.000366 0.143940 -0.989586
  outer loop
    vertex 1.500000 0.104740 -0.963071
    vertex 0.000000 0.151994 -0.956752
    vertex 1.500000 0.173960 -0.953003
  endloop
endfacet
facet normal -0.000364 0.192349 -0.981327
  outer loop
    vertex 1.500000 0.173960 -0.953003
    vertex 0.000000 0.151994 -0.956752
    vertex 0.000000 0.220441 -0.943336
  endloop
endfacet
facet normal 0.000367 0.214970 -0.976621
  outer loop
    vertex 1.500000 0.173960 -0.953003
    vertex 0.000000 0.220441 -0.943336
    vertex 1.500000 0.242273 -0.937966
  endloop
endfacet
facet normal -0.000366 0.262460 -0.964943
  outer loop
    vertex 1.500000 0.242273 -0.937966
    vertex 0.000000 0.220441 -0.943336
    vertex 0.000000 0.287744 -0.925030
  endloop
endfacet
facet normal 0.000369 0.284881 -0.958563
  outer loop
    vertex 1.500000 0.242273 -0.937966
    vertex 0.000000 0.287744 -0.925030
    vertex 1.500000 0.309323 -0.918039
  endloop
endfacet
facet normal -0.000367 0.331208 -0.943558
  outer loop
    vertex 1.500000 0.309323 -0.918039
    vertex 0.000000 0.287744 -0.925030
    vertex 0.000000 0.353556 -0.901928
  endloop
endfacet
facet normal 0.000371 0.353306 -0.935508
  outer loop
    vertex 1.500000 0.309323 -0.918039
    vertex 0.000000 0.353556 -0.901928
    vertex 1.500000 0.374761 -0.893326
  endloop
endfacet
facet normal -0.000369 0.398241 -0.917281
  outer loop
    vertex 1.500000 0.374761 -0.893326
    vertex 0.000000 0.353556 -0.901928
    vertex 0.000000 0.417536 -0.874151
  endloop
endfacet
facet normal 0.000372 0.419889 -0.907576
  outer loop
    vertex 1.500000 0.374761 -0.893326
    vertex 0.000000 0.417536 -0.874151
    vertex 1.500000 0.438244 -0.863955
  endloop
endfacet
facet normal -0.000371 0.463210 -0.886249
  outer loop
    vertex 1.500000 0.438244 -0.863955
    vertex 0.000000 0.417536 -0.874151
    vertex 0.000000 0.479350 -0.841843
  endloop
endfacet
facet normal 0.000374 0.484284 -0.874911
  outer loop
    vertex 1.500000 0.438244 -0.863955
    vertex 0.000000 0.479350 -0.841843
    vertex 1.500000 0.499443 -0.830080
  endloop
endfacet
facet normal -0.000372 0.525775 -0.850623
  outer loop
    vertex 1.500000 0.499443 -0.830080
    vertex 0.000000 0.479350 -0.841843
    vertex 0.000000 0.538680 -0.805171
  endloop
endfacet
facet normal 0.000376 0.546153 -0.837686
  outer loop
    vertex 1.500000 0.499443 -0.830080
    vertex 0.000000 0.538680 -0.805171
    vertex 1.500000 0.558038 -0.791878
  endloop
endfacet
facet normal -0.000374 0.585618 -0.810587
  outer loop
    vertex 1.500000 0.558038 -0.791878
    vertex 0.000000 0.538680 -0.805171
    vertex 0.000000 0.595218 -0.764325
  endloop
endfacet
facet normal 0.000377 0.605174 -0.796093
  outer loop
    vertex 1.500000 0.558038 -0.791878
    vertex 0.000000 0.595218 -0.764325
    vertex 1.500000 0.613723 -0.749547
  endloop
endfacet
facet normal -0.000375 0.642422 -0.766351
  outer loop
    vertex 1.500000 0.613723 -0.749547
    vertex 0.000000 0.595218 -0.764325
    vertex 0.000000 0.648670 -0.719516
  endloop
endfacet
facet normal 0.000379 0.661041 -0.750350
  outer loop
    vertex 1.500000 0.613723 -0.749547
    vertex 0.000000 0.648670 -0.719516
    vertex 1.500000 0.666209 -0.703308
  endloop
endfacet
facet normal -0.000377 0.695899 -0.718140
  outer loop
    vertex 1.500000 0.666209 -0.703308
    vertex 0.000000 0.648670 -0.719516
    vertex 0.000000 0.698759 -0.670978
  endloop
endfacet
facet normal 0.000380 0.713461 -0.700695
  outer loop
    vertex 1.500000 0.666209 -0.703308
    vertex 0.000000 0.698759 -0.670978
    vertex 1.500000 0.715221 -0.653403
  endloop
endfacet
facet normal -0.000378 0.745766 -0.666208
  outer loop
    vertex 1.500000 0.715221 -0.653403
    vertex 0.000000 0.698759 -0.670978
    vertex 0.000000 0.745227 -0.618962
  endloop
endfacet
facet normal 0.000382 0.762162 -0.647386
  outer loop
    vertex 1.500000 0.715221 -0.653403
    vertex 0.000000 0.745227 -0.618962
    vertex 1.500000 0.760505 -0.600091
  endloop
endfacet
facet normal -0.000380 0.791768 -0.610821
  outer loop
    vertex 1.500000 0.760505 -0.600091
    vertex 0.000000 0.745227 -0.618962
    vertex 0.000000 0.787831 -0.563737
  endloop
endfacet
facet normal 0.000383 0.806889 -0.590703
  outer loop
    vertex 1.500000 0.760505 -0.600091
    vertex 0.000000 0.787831 -0.563737
    vertex 1.500000 0.801824 -0.543650
  endloop
endfacet
facet normal -0.000381 0.833667 -0.552268
  outer loop
    vertex 1.500000 0.801824 -0.543650
    vertex 0.000000 0.787831 -0.563737
    vertex 0.000000 0.826351 -0.505590
  endloop
endfacet
facet normal 0.000384 0.847409 -0.530940
  outer loop
    vertex 1.500000 0.801824 -0.543650
    vertex 0.000000 0.826351 -0.505590
    vertex 1.500000 0.838962 -0.484375
  endloop
endfacet
facet normal -0.000383 0.871242 -0.490853
  outer loop
    vertex 1.500000 0.838962 -0.484375
    vertex 0.000000 0.826351 -0.505590
    vertex 0.000000 0.860587 -0.444822
  endloop
endfacet
facet normal 0.000386 0.883512 -0.468408
  outer loop
    vertex 1.500000 0.838962 -0.484375
    vertex 0.000000 0.860587 -0.444822
    vertex 1.500000 0.871727 -0.422575
  endloop
endfacet
facet normal -0.000384 0.904302 -0.426893
  outer loop
    vertex 1.500000 0.871727 -0.422575
    vertex 0.000000 0.860587 -0.444822
    vertex 0.000000 0.890363 -0.381748
  endloop
endfacet
facet normal 0.000387 0.915008 -0.403435
  outer loop
    vertex 1.500000 0.871727 -0.422575
    vertex 0.000000 0.890363 -0.381748
    vertex 1.500000 0.899946 -0.358571
  endloop
endfacet
facet normal -0.000386 0.932674 -0.360720
  outer loop
    vertex 1.500000 0.899946 -0.358571
    vertex 0.000000 0.890363 -0.381748
    vertex 0.000000 0.915522 -0.316695
  endloop
endfacet
facet normal 0.000389 0.941734 -0.336358
  outer loop
    vertex 1.500000 0.899946 -0.358571
    vertex 0.000000 0.915522 -0.316695
    vertex 1.500000 0.923474 -0.292699
  endloop
endfacet
facet normal -0.000387 0.956211 -0.292678
  outer loop
    vertex 1.500000 0.923474 -0.292699
    vertex 0.000000 0.915522 -0.316695
    vertex 0.000000 0.935936 -0.250000
  endloop
endfacet
facet normal 0.000000 0.959948 -0.280177
  outer loop
    vertex 1.500000 0.923474 -0.292699
    vertex 0.000000 0.935936 -0.250000
    vertex 3.000000 0.935936 -0.250000
  endloop
endfacet
facet normal 0.000387 0.956211 -0.292678
  outer loop
    vertex 3.000000 0.935936 -0.250000
    vertex 3.000000 0.915522 -0.316695
    vertex 1.500000 0.923474 -0.292699
  endloop
endfacet
facet normal -0.000389 0.941734 -0.336358
  outer loop
    vertex 1.500000 0.923474 -0.292699
    vertex 3.000000 0.915522 -0.316695
    vertex 1.500000 0.899946 -0.358571
  endloop
endfacet
facet normal 0.000386 0.932674 -0.360720
  outer loop
    vertex 3.000000 0.915522 -0.316695
    vertex 3.000000 0.890363 -0.381748
    vertex 1.500000 0.899946 -0.358571
  endloop
endfacet
facet normal -0.000387 0.915008 -0.403435
  outer loop
    vertex 1.500000 0.899946 -0.358571
    vertex 3.000000 0.890363 -0.381748
    vertex 1.500000 0.871727 -0.422575
  endloop
endfacet
facet normal 0.000384 0.904302 -0.426893
  outer loop
    vertex 3.000000 0.890363 -0.381748
    vertex 3.000000 0.860587 -0.444822
    vertex 1.500000 0.871727 -0.422575
  endloop
endfacet
facet normal -0.000386 0.883512 -0.468408
  outer loop
    vertex 1.500000 0.871727 -0.422575
    vertex 3.000000 0.860587 -0.444822
    vertex 1.500000 0.838962 -0.484375
  endloop
endfacet
facet normal 0.000383 0.871242 -0.490853
  outer loop
    vertex 3.000000 0.860587 -0.444822
    vertex 3.000000 0.826351 -0.505590
    vertex 1.500000 0.838962 -0.484375
  endloop
endfacet
facet normal -0.000384 0.847409 -0.530940
  outer loop
    vertex 1.500000 0.838962 -0.484375
    vertex 3.000000 0.826351 -0.505590
    vertex 1.500000 0.801824 -0.543650
  endloop
endfacet
facet normal 0.000381 0.833667 -0.552268
  outer loop
    vertex 3.000000 0.826351 -0.505590
    vertex 3.000000 0.787831 -0.563737
    vertex 1.500000 0.801824 -0.543650
  endloop
endfacet
facet normal -0.000383 0.806889 -0.590703
  outer loop
    vertex 1.500000 0.801824 -0.543650
    vertex 3.000000 0.787831 -0.563737
    vertex 1.500000 0.760505 -0.600091
  endloop
endfacet
facet normal 0.000380 0.791768 -0.610821
  outer loop
    vertex 3.000000 0.787831 -0.563737
    vertex 3.000000 0.745227 -0.618962
    vertex 1.500000 0.760505 -0.600091
  endloop
endfacet
facet normal -0.000382 0.762162 -0.647386
  outer loop
    vertex 1.500000 0.760505 -0.600091
    vertex 3.000000 0.745227 -0.618962
    vertex 1.500000 0.715221 -0.653403
  endloop
endfacet
facet normal 0.000378 0.745766 -0.666208
  outer loop
    vertex 3.000000 0.745227 -0.618962
    vertex 3.000000 0.698759 -0.670978
    vertex 1.500000 0.715221 -0.653403
  endloop
endfacet
facet normal -0.000380 0.713461 -0.700695
  outer loop
    vertex 1.500000 0.715221 -0.653403
    vertex 3.000000 0.698759 -0.670978
    vertex 1.500000 0.666209 -0.703308
  endloop
endfacet
facet normal 0.000377 0.695899 -0.718140
  outer loop
    vertex 3.000000 0.698759 -0.670978
    vertex 3.000000 0.648670 -0.719516
    vertex 1.500000 0.666209 -0.703308
  endloop
endfacet
facet normal -0.000379 0.661041 -0.750350
  outer loop
    vertex 1.500000 0.666209 -0.703308
    vertex 3.000000 0.648670 -0.719516
    vertex 1.500000 0.613723 -0.749547
  endloop
endfacet
facet normal 0.000375 0.642422 -0.766351
  outer loop
    vertex 3.000000 0.648670 -0.719516
    vertex 3.000000 0.595218 -0.764325
    vertex 1.500000 0.613723 -0.749547
  endloop
endfacet
facet normal -0.000377 0.605174 -0.796093
  outer loop
    vertex 1.500000 0.613723 -0.749547
    vertex 3.000000 0.595218 -0.764325
    vertex 1.500000 0.558038 -0.791878
  endloop
endfacet
facet normal 0.000374 0.585618 -0.810587
  outer loop
    vertex 3.000000 0.595218 -0.764325
    vertex 3.000000 0.538680 -0.805171
    vertex 1.500000 0.558038 -0.791878
  endloop
endfacet
facet normal -0.000376 0.546153 -0.837686
  outer loop
    vertex 1.500000 0.558038 -0.791878
    vertex 3.000000 0.538680 -0.805171
    vertex 1.500000 0.499443 -0.830080
  endloop
endfacet
facet normal 0.000372 0.525775 -0.850623
  outer loop
    vertex 3.000000 0.538680 -0.805171
    vertex 3.000000 0.479350 -0.841843
    vertex 1.500000 0.499443 -0.830080
  endloop
endfacet
facet normal -0.000374 0.484284 -0.874911
  outer loop
    vertex 1.500000 0.499443 -0.830080
    vertex 3.000000 0.479350 -0.841843
    vertex 1.500000 0.438244 -0.863955
  endloop
endfacet
facet normal 0.000371 0.463210 -0.886249
  outer loop
    vertex 3.000000 0.479350 -0.841843
    vertex 3.000000 0.417536 -0.874151
    vertex 1.500000 0.438244 -0.863955
  endloop
endfacet
facet normal -0.000372 0.419889 -0.907576
  outer loop
    vertex 1.500000 0.438244 -0.863955
    vertex 3.000000 0.417536 -0.874151
    vertex 1.500000 0.374761 -0.893326
  endloop
endfacet
facet normal 0.000369 0.398241 -0.917281
  outer loop
    vertex 3.000000 0.417536 -0.874151
    vertex 3.000000 0.353556 -0.901928
    vertex 1.500000 0.374761 -0.893326
  endloop
endfacet
facet normal -0.000371 0.353306 -0.935508
  outer loop
    vertex 1.500000 0.374761 -0.893326
    vertex 3.000000 0.353556 -0.901928
    vertex 1.500000 0.309323 -0.918039
  endloop
endfacet
facet normal 0.000367 0.331208 -0.943558
  outer loop
    vertex 3.000000 0.353556 -0.901928
    vertex 3.000000 0.287744 -0.925030
    vertex 1.500000 0.309323 -0.918039
  endloop
endfacet
facet normal -0.000369 0.284881 -0.958563
  outer loop
    vertex 1.500000 0.309323 -0.918039
    vertex 3.000000 0.287744 -0.925030
    vertex 1.500000 0.242273 -0.937966
  endloop
endfacet
facet normal 0.000366 0.262460 -0.964943
  outer loop
    vertex 3.000000 0.287744 -0.925030
    vertex 3.000000 0.220441 -0.943336
    vertex 1.500000 0.242273 -0.937966
  endloop
endfacet
facet normal -0.000367 0.214970 -0.976621
  outer loop
    vertex 1.500000 0.242273 -0.937966
    vertex 3.000000 0.220441 -0.943336
    vertex 1.500000 0.173960 -0.953003
  endloop
endfacet
facet normal 0.000364 0.192349 -0.981327
  outer loop
    vertex 3.000000 0.220441 -0.943336
    vertex 3.000000 0.151994 -0.956752
    vertex 1.500000 0.173960 -0.953003
  endloop
endfacet
facet normal -0.000366 0.143940 -0.989586
  outer loop
    vertex 1.500000 0.173960 -0.953003
    vertex 3.000000 0.151994 -0.956752
    vertex 1.500000 0.104740 -0.963071
  endloop
endfacet
facet normal 0.000362 0.121243 -0.992623
  outer loop
    vertex 3.000000 0.151994 -0.956752
    vertex 3.000000 0.082760 -0.965208
    vertex 1.500000 0.104740 -0.963071
  endloop
endfacet
facet normal -0.000364 0.072158 -0.997393
  outer loop
    vertex 1.500000 0.104740 -0.963071
    vertex 3.000000 0.082760 -0.965208
    vertex 1.500000 0.034974 -0.968118
  endloop
endfacet
facet normal 0.000360 0.049506 -0.998774
  outer loop
    vertex 3.000000 0.082760 -0.965208
    vertex 3.000000 0.013097 -0.968661
    vertex 1.500000 0.034974 -0.968118
  endloop
endfacet
facet normal -0.000362 -0.000000 -1.000000
  outer loop
    vertex 1.500000 0.034974 -0.968118
    vertex 3.000000 0.013097 -0.968661
    vertex 1.500000 -0.034974 -0.968118
  endloop
endfacet
facet normal 0.000359 -0.022486 -0.999747
  outer loop
    vertex 3.000000 0.013097 -0.968661
    vertex 3.000000 -0.056635 -0.967093
    vertex 1.500000 -0.034974 -0.968118
  endloop
endfacet
facet normal -0.000360 -0.072158 -0.997393
  outer loop
    vertex 1.500000 -0.034974 -0.968118
    vertex 3.000000 -0.056635 -0.967093
    vertex 1.500000 -0.104740 -0.963071
  endloop
endfacet
facet normal 0.000357 -0.094361 -0.995538
  outer loop
    vertex 3.000000 -0.056635 -0.967093
    vertex 3.000000 -0.126072 -0.960512
    vertex 1.500000 -0.104740 -0.963071
  endloop
endfacet
facet normal -0.000358 -0.143940 -0.989586
  outer loop
    vertex 1.500000 -0.104740 -0.963071
    vertex 3.000000 -0.126072 -0.960512
    vertex 1.500000 -0.173960 -0.953003
  endloop
endfacet
facet normal 0.000355 -0.165748 -0.986168
  outer loop
    vertex 3.000000 -0.126072 -0.960512
    vertex 3.000000 -0.194856 -0.948951
    vertex 1.500000 -0.173960 -0.953003
  endloop
endfacet
facet normal -0.000356 -0.214970 -0.976621
  outer loop
    vertex 1.500000 -0.173960 -0.953003
    vertex 3.000000 -0.194856 -0.948951
    vertex 1.500000 -0.242273 -0.937966
  endloop
endfacet
facet normal 0.000353 -0.236275 -0.971686
  outer loop
    vertex 3.000000 -0.194856 -0.948951
    vertex 3.000000 -0.262630 -0.932471
    vertex 1.500000 -0.242273 -0.937966
  endloop
endfacet
facet normal -0.000355 -0.284881 -0.958563
  outer loop
    vertex 1.500000 -0.242273 -0.937966
    vertex 3.000000 -0.262630 -0.932471
    vertex 1.500000 -0.309323 -0.918039
  endloop
endfacet
facet normal 0.000351 -0.305577 -0.952167
  outer loop
    vertex 3.000000 -0.262630 -0.932471
    vertex 3.000000 -0.329043 -0.911157
    vertex 1.500000 -0.309323 -0.918039
  endloop
endfacet
facet normal -0.000353 -0.353306 -0.935508
  outer loop
    vertex 1.500000 -0.309323 -0.918039
    vertex 3.000000 -0.329043 -0.911157
    vertex 1.500000 -0.374761 -0.893326
  endloop
endfacet
facet normal 0.000349 -0.373296 -0.927712
  outer loop
    vertex 3.000000 -0.329043 -0.911157
    vertex 3.000000 -0.393750 -0.885120
    vertex 1.500000 -0.374761 -0.893326
  endloop
endfacet
facet normal -0.000351 -0.419889 -0.907576
  outer loop
    vertex 1.500000 -0.374761 -0.893326
    vertex 3.000000 -0.393750 -0.885120
    vertex 1.500000 -0.438244 -0.863955
  endloop
endfacet
facet normal 0.000347 -0.439079 -0.898448
  outer loop
    vertex 3.000000 -0.393750 -0.885120
    vertex 3.000000 -0.456415 -0.854495
    vertex 1.500000 -0.438244 -0.863955
  endloop
endfacet
facet normal -0.000349 -0.484284 -0.874911
  outer loop
    vertex 1.500000 -0.438244 -0.863955
    vertex 3.000000 -0.456415 -0.854495
    vertex 1.500000 -0.499443 -0.830080
  endloop
endfacet
facet normal 0.000345 -0.502586 -0.864527
  outer loop
    vertex 3.000000 -0.456415 -0.854495
    vertex 3.000000 -0.516715 -0.819440
    vertex 1.500000 -0.499443 -0.830080
  endloop
endfacet
facet normal -0.000347 -0.546153 -0.837686
  outer loop
    vertex 1.500000 -0.499443 -0.830080
    vertex 3.000000 -0.516715 -0.819440
    vertex 1.500000 -0.558038 -0.791878
  endloop
endfacet
facet normal 0.000343 -0.563489 -0.826124
  outer loop
    vertex 3.000000 -0.516715 -0.819440
    vertex 3.000000 -0.574336 -0.780137
    vertex 1.500000 -0.558038 -0.791878
  endloop
endfacet
facet normal -0.000345 -0.605174 -0.796093
  outer loop
    vertex 1.500000 -0.558038 -0.791878
    vertex 3.000000 -0.574336 -0.780137
    vertex 1.500000 -0.613723 -0.749547
  endloop
endfacet
facet normal 0.000341 -0.621469 -0.783439
  outer loop
    vertex 3.000000 -0.574336 -0.780137
    vertex 3.000000 -0.628980 -0.736791
    vertex 1.500000 -0.613723 -0.749547
  endloop
endfacet
facet normal -0.000343 -0.661041 -0.750350
  outer loop
    vertex 1.500000 -0.613723 -0.749547
    vertex 3.000000 -0.628980 -0.736791
    vertex 1.500000 -0.666209 -0.703308
  endloop
endfacet
facet normal 0.000339 -0.676228 -0.736692
  outer loop
    vertex 3.000000 -0.628980 -0.736791
    vertex 3.000000 -0.680364 -0.689625
    vertex 1.500000 -0.666209 -0.703308
  endloop
endfacet
facet normal -0.000341 -0.713461 -0.700695
  outer loop
    vertex 1.500000 -0.666209 -0.703308
    vertex 3.000000 -0.680364 -0.689625
    vertex 1.500000 -0.715221 -0.653403
  endloop
endfacet
facet normal 0.000337 -0.727483 -0.686126
  outer loop
    vertex 3.000000 -0.680364 -0.689625
    vertex 3.000000 -0.728220 -0.638883
    vertex 1.500000 -0.715221 -0.653403
  endloop
endfacet
facet normal -0.000338 -0.762162 -0.647386
  outer loop
    vertex 1.500000 -0.715221 -0.653403
    vertex 3.000000 -0.728220 -0.638883
    vertex 1.500000 -0.760505 -0.600091
  endloop
endfacet
facet normal 0.000335 -0.774965 -0.632004
  outer loop
    vertex 3.000000 -0.728220 -0.638883
    vertex 3.000000 -0.772302 -0.584831
    vertex 1.500000 -0.760505 -0.600091
  endloop
endfacet
facet normal -0.000336 -0.806889 -0.590703
  outer loop
    vertex 1.500000 -0.760505 -0.600091
    vertex 3.000000 -0.772302 -0.584831
    vertex 1.500000 -0.801824 -0.543650
  endloop
endfacet
facet normal 0.000333 -0.818431 -0.574605
  outer loop
    vertex 3.000000 -0.772302 -0.584831
    vertex 3.000000 -0.812380 -0.527746
    vertex 1.500000 -0.801824 -0.543650
  endloop
endfacet
facet normal -0.000334 -0.847410 -0.530940
  outer loop
    vertex 1.500000 -0.801824 -0.543650
    vertex 3.000000 -0.812380 -0.527746
    vertex 1.500000 -0.838962 -0.484375
  endloop
endfacet
facet normal 0.000331 -0.857653 -0.514229
  outer loop
    vertex 3.000000 -0.812380 -0.527746
    vertex 3.000000 -0.848247 -0.467926
    vertex 1.500000 -0.838962 -0.484375
  endloop
endfacet
facet normal -0.000332 -0.883512 -0.468408
  outer loop
    vertex 1.500000 -0.838962 -0.484375
    vertex 3.000000 -0.848247 -0.467926
    vertex 1.500000 -0.871727 -0.422575
  endloop
endfacet
facet normal 0.000328 -0.892430 -0.451185
  outer loop
    vertex 3.000000 -0.848247 -0.467926
    vertex 3.000000 -0.879716 -0.405680
    vertex 1.500000 -0.871727 -0.422575
  endloop
endfacet
facet normal -0.000330 -0.915008 -0.403435
  outer loop
    vertex 1.500000 -0.871727 -0.422575
    vertex 3.000000 -0.879716 -0.405680
    vertex 1.500000 -0.899946 -0.358571
  endloop
endfacet
facet normal 0.000326 -0.922581 -0.385804
  outer loop
    vertex 3.000000 -0.879716 -0.405680
    vertex 3.000000 -0.906626 -0.341331
    vertex 1.500000 -0.899946 -0.358571
  endloop
endfacet
facet normal -0.000327 -0.941734 -0.336358
  outer loop
    vertex 1.500000 -0.899946 -0.358571
    vertex 3.000000 -0.906626 -0.341331
    vertex 1.500000 -0.923474 -0.292699
  endloop
endfacet
facet normal 0.000324 -0.947949 -0.318422
  outer loop
    vertex 3.000000 -0.906626 -0.341331
    vertex 3.000000 -0.928835 -0.275212
    vertex 1.500000 -0.923474 -0.292699
  endloop
endfacet
facet normal -0.000325 -0.963550 -0.267528
  outer loop
    vertex 1.500000 -0.923474 -0.292699
    vertex 3.000000 -0.928835 -0.275212
    vertex 1.500000 -0.942187 -0.225300
  endloop
endfacet
facet normal 0.000322 -0.968403 -0.249389
  outer loop
    vertex 3.000000 -0.928835 -0.275212
    vertex 3.000000 -0.946230 -0.207667
    vertex 1.500000 -0.942187 -0.225300
  endloop
endfacet
facet normal -0.000323 -0.980342 -0.197303
  outer loop
    vertex 1.500000 -0.942187 -0.225300
    vertex 3.000000 -0.946230 -0.207667
    vertex 1.500000 -0.955988 -0.156726
  endloop
endfacet
facet normal 0.000319 -0.983837 -0.179066
  outer loop
    vertex 3.000000 -0.946230 -0.207667
    vertex 3.000000 -0.958719 -0.139046
    vertex 1.500000 -0.955988 -0.156726
  endloop
endfacet
facet normal -0.000321 -0.992024 -0.126050
  outer loop
    vertex 1.500000 -0.955988 -0.156726
    vertex 3.000000 -0.958719 -0.139046
    vertex 1.500000 -0.964805 -0.087336
  endloop
endfacet
facet normal 0.000317 -0.994171 -0.107811
  outer loop
    vertex 3.000000 -0.958719 -0.139046
    vertex 3.000000 -0.966239 -0.069704
    vertex 1.500000 -0.964805 -0.087336
  endloop
endfacet
facet normal -0.000318 -0.998533 -0.054139
  outer loop
    vertex 1.500000 -0.964805 -0.087336
    vertex 3.000000 -0.966239 -0.069704
    vertex 1.500000 -0.968592 -0.017490
  endloop
endfacet
facet normal 0.000315 -0.999352 -0.035999
  outer loop
    vertex 3.000000 -0.966239 -0.069704
    vertex 3.000000 -0.968750 0.000000
    vertex 1.500000 -0.968592 -0.017490
  endloop
endfacet
facet normal -0.000316 -0.999837 0.018054
  outer loop
    vertex 1.500000 -0.968592 -0.017490
    vertex 3.000000 -0.968750 0.000000
    vertex 1.500000 -0.967329 0.052447
  endloop
endfacet
facet normal 0.000312 -0.999352 0.035999
  outer loop
    vertex 3.000000 -0.968750 0.000000
    vertex 3.000000 -0.966239 0.069704
    vertex 1.500000 -0.967329 0.052447
  endloop
endfacet
facet normal -0.000313 -0.995928 0.090154
  outer loop
    vertex 1.500000 -0.967329 0.052447
    vertex 3.000000 -0.966239 0.069704
    vertex 1.500000 -0.961023 0.122111
  endloop
endfacet
facet normal 0.000310 -0.994171 0.107811
  outer loop
    vertex 3.000000 -0.966239 0.069704
    vertex 3.000000 -0.958719 0.139046
    vertex 1.500000 -0.961023 0.122111
  endloop
endfacet
facet normal -0.000311 -0.986827 0.161781
  outer loop
    vertex 1.500000 -0.961023 0.122111
    vertex 3.000000 -0.958719 0.139046
    vertex 1.500000 -0.949707 0.191138
  endloop
endfacet
facet normal 0.000307 -0.983837 0.179066
  outer loop
    vertex 3.000000 -0.958719 0.139046
    vertex 3.000000 -0.946230 0.207667
    vertex 1.500000 -0.949707 0.191138
  endloop
endfacet
facet normal -0.000308 -0.972580 0.232567
  outer loop
    vertex 1.500000 -0.949707 0.191138
    vertex 3.000000 -0.946230 0.207667
    vertex 1.500000 -0.933439 0.259168
  endloop
endfacet
facet normal 0.000305 -0.968403 0.249389
  outer loop
    vertex 3.000000 -0.946230 0.207667
    vertex 3.000000 -0.928835 0.275212
    vertex 1.500000 -0.933439 0.259168
  endloop
endfacet
facet normal -0.000306 -0.953263 0.302141
  outer loop
    vertex 1.500000 -0.933439 0.259168
    vertex 3.000000 -0.928835 0.275212
    vertex 1.500000 -0.912305 0.325847
  endloop
endfacet
facet normal 0.000302 -0.947949 0.318422
  outer loop
    vertex 3.000000 -0.928835 0.275212
    vertex 3.000000 -0.906626 0.341331
    vertex 1.500000 -0.912305 0.325847
  endloop
endfacet
facet normal -0.000303 -0.928977 0.370138
  outer loop
    vertex 1.500000 -0.912305 0.325847
    vertex 3.000000 -0.906626 0.341331
    vertex 1.500000 -0.886414 0.390828
  endloop
endfacet
facet normal 0.000300 -0.922581 0.385804
  outer loop
    vertex 3.000000 -0.906626 0.341331
    vertex 3.000000 -0.879716 0.405680
    vertex 1.500000 -0.886414 0.390828
  endloop
endfacet
facet normal -0.000301 -0.899847 0.436206
  outer loop
    vertex 1.500000 -0.886414 0.390828
    vertex 3.000000 -0.879716 0.405680
    vertex 1.500000 -0.855902 0.453771
  endloop
endfacet
facet normal 0.000297 -0.892430 0.451185
  outer loop
    vertex 3.000000 -0.879716 0.405680
    vertex 3.000000 -0.848247 0.467926
    vertex 1.500000 -0.855902 0.453771
  endloop
endfacet
facet normal -0.000298 -0.866025 0.500000
  outer loop
    vertex 1.500000 -0.855902 0.453771
    vertex 3.000000 -0.848247 0.467926
    vertex 1.500000 -0.820928 0.514348
  endloop
endfacet
facet normal 0.000295 -0.857653 0.514229
  outer loop
    vertex 3.000000 -0.848247 0.467926
    vertex 3.000000 -0.812380 0.527746
    vertex 1.500000 -0.820928 0.514348
  endloop
endfacet
facet normal -0.000296 -0.827689 0.561187
  outer loop
    vertex 1.500000 -0.820928 0.514348
    vertex 3.000000 -0.812380 0.527746
    vertex 1.500000 -0.781674 0.572243
  endloop
endfacet
facet normal 0.000292 -0.818431 0.574605
  outer loop
    vertex 3.000000 -0.812380 0.527746
    vertex 3.000000 -0.772302 0.584831
    vertex 1.500000 -0.781674 0.572243
  endloop
endfacet
facet normal -0.000293 -0.785038 0.619448
  outer loop
    vertex 1.500000 -0.781674 0.572243
    vertex 3.000000 -0.772302 0.584831
    vertex 1.500000 -0.738344 0.627155
  endloop
endfacet
facet normal 0.000289 -0.774965 0.632004
  outer loop
    vertex 3.000000 -0.772302 0.584831
    vertex 3.000000 -0.728220 0.638883
    vertex 1.500000 -0.738344 0.627155
  endloop
endfacet
facet normal -0.000290 -0.738293 0.674480
  outer loop
    vertex 1.500000 -0.738344 0.627155
    vertex 3.000000 -0.728220 0.638883
    vertex 1.500000 -0.691166 0.678798
  endloop
endfacet
facet normal 0.000287 -0.727483 0.686126
  outer loop
    vertex 3.000000 -0.728220 0.638883
    vertex 3.000000 -0.680364 0.689625
    vertex 1.500000 -0.691166 0.678798
  endloop
endfacet
facet normal -0.000288 -0.687699 0.725995
  outer loop
    vertex 1.500000 -0.691166 0.678798
    vertex 3.000000 -0.680364 0.689625
    vertex 1.500000 -0.640383 0.726901
  endloop
endfacet
facet normal 0.000284 -0.676228 0.736692
  outer loop
    vertex 3.000000 -0.680364 0.689625
    vertex 3.000000 -0.628980 0.736791
    vertex 1.500000 -0.640383 0.726901
  endloop
endfacet
facet normal -0.000285 -0.633520 0.773726
  outer loop
    vertex 1.500000 -0.640383 0.726901
    vertex 3.000000 -0.628980 0.736791
    vertex 1.500000 -0.586263 0.771215
  endloop
endfacet
facet normal 0.000281 -0.621469 0.783439
  outer loop
    vertex 3.000000 -0.628980 0.736791
    vertex 3.000000 -0.574336 0.780137
    vertex 1.500000 -0.586263 0.771215
  endloop
endfacet
facet normal -0.000282 -0.576039 0.817422
  outer loop
    vertex 1.500000 -0.586263 0.771215
    vertex 3.000000 -0.574336 0.780137
    vertex 1.500000 -0.529085 0.811508
  endloop
endfacet
facet normal 0.000278 -0.563489 0.826124
  outer loop
    vertex 3.000000 -0.574336 0.780137
    vertex 3.000000 -0.516715 0.819440
    vertex 1.500000 -0.529085 0.811508
  endloop
endfacet
facet normal -0.000279 -0.515554 0.856857
  outer loop
    vertex 1.500000 -0.529085 0.811508
    vertex 3.000000 -0.516715 0.819440
    vertex 1.500000 -0.469149 0.847570
  endloop
endfacet
facet normal 0.000276 -0.502586 0.864527
  outer loop
    vertex 3.000000 -0.516715 0.819440
    vertex 3.000000 -0.456415 0.854495
    vertex 1.500000 -0.469149 0.847570
  endloop
endfacet
facet normal -0.000277 -0.452381 0.891825
  outer loop
    vertex 1.500000 -0.469149 0.847570
    vertex 3.000000 -0.456415 0.854495
    vertex 1.500000 -0.406768 0.879214
  endloop
endfacet
facet normal 0.000273 -0.439079 0.898448
  outer loop
    vertex 3.000000 -0.456415 0.854495
    vertex 3.000000 -0.393750 0.885120
    vertex 1.500000 -0.406768 0.879214
  endloop
endfacet
facet normal -0.000274 -0.386850 0.922143
  outer loop
    vertex 1.500000 -0.406768 0.879214
    vertex 3.000000 -0.393750 0.885120
    vertex 1.500000 -0.342265 0.906273
  endloop
endfacet
facet normal 0.000270 -0.373296 0.927712
  outer loop
    vertex 3.000000 -0.393750 0.885120
    vertex 3.000000 -0.329043 0.911157
    vertex 1.500000 -0.342265 0.906273
  endloop
endfacet
facet normal -0.000271 -0.319302 0.947653
  outer loop
    vertex 1.500000 -0.342265 0.906273
    vertex 3.000000 -0.329043 0.911157
    vertex 1.500000 -0.275978 0.928608
  endloop
endfacet
facet normal 0.000267 -0.305577 0.952167
  outer loop
    vertex 3.000000 -0.329043 0.911157
    vertex 3.000000 -0.262630 0.932471
    vertex 1.500000 -0.275978 0.928608
  endloop
endfacet
facet normal -0.000268 -0.250089 0.968223
  outer loop
    vertex 1.500000 -0.275978 0.928608
    vertex 3.000000 -0.262630 0.932471
    vertex 1.500000 -0.208253 0.946101
  endloop
endfacet
facet normal 0.000264 -0.236275 0.971686
  outer loop
    vertex 3.000000 -0.262630 0.932471
    vertex 3.000000 -0.194856 0.948951
    vertex 1.500000 -0.208253 0.946101
  endloop
endfacet
facet normal -0.000265 -0.179571 0.983745
  outer loop
    vertex 1.500000 -0.208253 0.946101
    vertex 3.000000 -0.194856 0.948951
    vertex 1.500000 -0.139441 0.958662
  endloop
endfacet
facet normal 0.000261 -0.165748 0.986168
  outer loop
    vertex 3.000000 -0.194856 0.948951
    vertex 3.000000 -0.126072 0.960512
    vertex 1.500000 -0.139441 0.958662
  endloop
endfacet
facet normal -0.000262 -0.108119 0.994138
  outer loop
    vertex 1.500000 -0.139441 0.958662
    vertex 3.000000 -0.126072 0.960512
    vertex 1.500000 -0.069903 0.966225
  endloop
endfacet
facet normal 0.000258 -0.094361 0.995538
  outer loop
    vertex 3.000000 -0.126072 0.960512
    vertex 3.000000 -0.056635 0.967093
    vertex 1.500000 -0.069903 0.966225
  endloop
endfacet
facet normal -0.000259 -0.036103 0.999348
  outer loop
    vertex 1.500000 -0.069903 0.966225
    vertex 3.000000 -0.056635 0.967093
    vertex 1.500000 0.000000 0.968750
  endloop
endfacet
facet normal 0.000255 -0.022486 0.999747
  outer loop
    vertex 3.000000 -0.056635 0.967093
    vertex 3.000000 0.013097 0.968661
    vertex 1.500000 0.000000 0.968750
  endloop
endfacet
facet normal -0.000256 0.036103 0.999348
  outer loop
    vertex 1.500000 0.000000 0.968750
    vertex 3.000000 0.013097 0.968661
    vertex 1.500000 0.069903 0.966225
  endloop
endfacet
facet normal 0.000252 0.049506 0.998774
  outer loop
    vertex 3.000000 0.013097 0.968661
    vertex 3.000000 0.082760 0.965208
    vertex 1.500000 0.069903 0.966225
  endloop
endfacet
facet normal -0.000253 0.108119 0.994138
  outer loop
    vertex 1.500000 0.069903 0.966225
    vertex 3.000000 0.082760 0.965208
    vertex 1.500000 0.139441 0.958662
  endloop
endfacet
facet normal 0.000249 0.121243 0.992623
  outer loop
    vertex 3.000000 0.082760 0.965208
    vertex 3.000000 0.151994 0.956752
    vertex 1.500000 0.139441 0.958662
  endloop
endfacet
facet normal -0.000250 0.179571 0.983745
  outer loop
    vertex 1.500000 0.139441 0.958662
    vertex 3.000000 0.151994 0.956752
    vertex 1.500000 0.208253 0.946101
  endloop
endfacet
facet normal 0.000246 0.192349 0.981327
  outer loop
    vertex 3.000000 0.151994 0.956752
    vertex 3.000000 0.220441 0.943336
    vertex 1.500000 0.208253 0.946101
  endloop
endfacet
facet normal -0.000247 0.250089 0.968223
  outer loop
    vertex 1.500000 0.208253 0.946101
    vertex 3.000000 0.220441 0.943336
    vertex 1.500000 0.275978 0.928608
  endloop
endfacet
facet normal 0.000243 0.262460 0.964943
  outer loop
    vertex 3.000000 0.220441 0.943336
    vertex 3.000000 0.287744 0.925030
    vertex 1.500000 0.275978 0.928608
  endloop
endfacet
facet normal -0.000244 0.319302 0.947653
  outer loop
    vertex 1.500000 0.275978 0.928608
    vertex 3.000000 0.287744 0.925030
    vertex 1.500000 0.342265 0.906273
  endloop
endfacet
facet normal 0.000240 0.331208 0.943558
  outer loop
    vertex 3.000000 0.287744 0.925030
    vertex 3.000000 0.353556 0.901928
    vertex 1.500000 0.342265 0.906273
  endloop
endfacet
facet normal -0.000241 0.386850 0.922143
  outer loop
    vertex 1.500000 0.342265 0.906273
    vertex 3.000000 0.353556 0.901928
    vertex 1.500000 0.406768 0.879214
  endloop
endfacet
facet normal 0.000237 0.398241 0.917281
  outer loop
    vertex 3.000000 0.353556 0.901928
    vertex 3.000000 0.417536 0.874151
    vertex 1.500000 0.406768 0.879214
  endloop
endfacet
facet normal -0.000238 0.452381 0.891825
  outer loop
    vertex 1.500000 0.406768 0.879214
    vertex 3.000000 0.417536 0.874151
    vertex 1.500000 0.469149 0.847570
  endloop
endfacet
facet normal 0.000234 0.463210 0.886249
  outer loop
    vertex 3.000000 0.417536 0.874151
    vertex 3.000000 0.479350 0.841843
    vertex 1.500000 0.469149 0.847570
  endloop
endfacet
facet normal -0.000234 0.515554 0.856857
  outer loop
    vertex 1.500000 0.469149 0.847570
    vertex 3.000000 0.479350 0.841843
    vertex 1.500000 0.529085 0.811508
  endloop
endfacet
facet normal 0.000231 0.525776 0.850623
  outer loop
    vertex 3.000000 0.479350 0.841843
    vertex 3.000000 0.538680 0.805171
    vertex 1.500000 0.529085 0.811508
  endloop
endfacet
facet normal -0.000231 0.576039 0.817422
  outer loop
    vertex 1.500000 0.529085 0.811508
    vertex 3.000000 0.538680 0.805171
    vertex 1.500000 0.586263 0.771215
  endloop
endfacet
facet normal 0.000227 0.585618 0.810587
  outer loop
    vertex 3.000000 0.538680 0.805171
    vertex 3.000000 0.595218 0.764325
    vertex 1.500000 0.586263 0.771215
  endloop
endfacet
facet normal -0.000228 0.633520 0.773726
  outer loop
    vertex 1.500000 0.586263 0.771215
    vertex 3.000000 0.595218 0.764325
    vertex 1.500000 0.640383 0.726901
  endloop
endfacet
facet normal 0.000224 0.642422 0.766351
  outer loop
    vertex 3.000000 0.595218 0.764325
    vertex 3.000000 0.648670 0.719516
    vertex 1.500000 0.640383 0.726901
  endloop
endfacet
facet normal -0.000225 0.687699 0.725995
  outer loop
    vertex 1.500000 0.640383 0.726901
    vertex 3.000000 0.648670 0.719516
    vertex 1.500000 0.691166 0.678798
  endloop
endfacet
facet normal 0.000221 0.695899 0.718140
  outer loop
    vertex 3.000000 0.648670 0.719516
    vertex 3.000000 0.698759 0.670978
    vertex 1.500000 0.691166 0.678798
  endloop
endfacet
facet normal -0.000221 0.738293 0.674480
  outer loop
    vertex 1.500000 0.691166 0.678798
    vertex 3.000000 0.698759 0.670978
    vertex 1.500000 0.738344 0.627155
  endloop
endfacet
facet normal 0.000217 0.745766 0.666208
  outer loop
    vertex 3.000000 0.698759 0.670978
    vertex 3.000000 0.745227 0.618962
    vertex 1.500000 0.738344 0.627155
  endloop
endfacet
facet normal -0.000218 0.785038 0.619448
  outer loop
    vertex 1.500000 0.738344 0.627155
    vertex 3.000000 0.745227 0.618962
    vertex 1.500000 0.781674 0.572243
  endloop
endfacet
facet normal 0.000214 0.791769 0.610821
  outer loop
    vertex 3.000000 0.745227 0.618962
    vertex 3.000000 0.787831 0.563737
    vertex 1.500000 0.781674 0.572243
  endloop
endfacet
facet normal -0.000215 0.827689 0.561187
  outer loop
    vertex 1.500000 0.781674 0.572243
    vertex 3.000000 0.787831 0.563737
    vertex 1.500000 0.820928 0.514348
  endloop
endfacet
facet normal 0.000211 0.833667 0.552268
  outer loop
    vertex 3.000000 0.787831 0.563737
    vertex 3.000000 0.826351 0.505590
    vertex 1.500000 0.820928 0.514348
  endloop
endfacet
facet normal -0.000211 0.866025 0.500000
  outer loop
    vertex 1.500000 0.820928 0.514348
    vertex 3.000000 0.826351 0.505590
    vertex 1.500000 0.855902 0.453771
  endloop
endfacet
facet normal 0.000207 0.871242 0.490853
  outer loop
    vertex 3.000000 0.826351 0.505590
    vertex 3.000000 0.860587 0.444822
    vertex 1.500000 0.855902 0.453771
  endloop
endfacet
facet normal -0.000208 0.899847 0.436206
  outer loop
    vertex 1.500000 0.855902 0.453771
    vertex 3.000000 0.860587 0.444822
    vertex 1.500000 0.886414 0.390828
  endloop
endfacet
facet normal 0.000204 0.904302 0.426893
  outer loop
    vertex 3.000000 0.860587 0.444822
    vertex 3.000000 0.890363 0.381748
    vertex 1.500000 0.886414 0.390828
  endloop
endfacet
facet normal -0.000205 0.928977 0.370138
  outer loop
    vertex 1.500000 0.886414 0.390828
    vertex 3.000000 0.890363 0.381748
    vertex 1.500000 0.912305 0.325847
  endloop
endfacet
facet normal 0.000200 0.932674 0.360720
  outer loop
    vertex 3.000000 0.890363 0.381748
    vertex 3.000000 0.915522 0.316695
    vertex 1.500000 0.912305 0.325847
  endloop
endfacet
facet normal -0.000201 0.953263 0.302141
  outer loop
    vertex 1.500000 0.912305 0.325847
    vertex 3.000000 0.915522 0.316695
    vertex 1.500000 0.933439 0.259168
  endloop
endfacet
facet normal 0.000197 0.956211 0.292678
  outer loop
    vertex 3.000000 0.915522 0.316695
    vertex 3.000000 0.935936 0.250000
    vertex 1.500000 0.933439 0.259168
  endloop
endfacet
facet normal 0.000000 0.000000 -1.000000
  outer loop
    vertex 0.000000 0.718750 0.250000
    vertex 0.000000 0.935936 0.250000
    vertex 3.000000 0.718750 0.250000
  endloop
endfacet
facet normal 0.000000 0.000000 -1.000000
  outer loop
    vertex 3.000000 0.718750 0.250000
    vertex 0.000000 0.935936 0.250000
    vertex 3.000000 0.935936 0.250000
  endloop
endfacet
facet normal 1.000000 0.000000 0.000000
  outer loop
    vertex 3.000000 0.935936 0.250000
    vertex 3.000000 0.915522 0.316695
    vertex 3.000000 0.718750 0.250000
  endloop
endfacet
facet normal 1.000000 0.000000 0.000000
  outer loop
    vertex 3.000000 0.718750 0.250000
    vertex 3.000000 0.915522 0.316695
    vertex 3.000000 0.890363 0.381748
  endloop
endfacet
facet normal 1.000000 0.000000 0.000000
  outer loop
    vertex 3.000000 0.718750 0.250000
    vertex 3.000000 0.890363 0.381748
    vertex 3.000000 0.860587 0.444822
  endloop
endfacet
facet normal 1.000000 0.000000 0.000000
  outer loop
    vertex 3.000000 0.860587 0.444822
    vertex 3.000000 0.826351 0.505590
    vertex 3.000000 0.718750 0.250000
  endloop
endfacet
facet normal 1.000000 0.000000 0.000000
  outer loop
    vertex 3.000000 0.718750 0.250000
    vertex 3.000000 0.826351 0.505590
    vertex 3.000000 0.787831 0.563737
  endloop
endfacet
facet normal 1.000000 0.000000 0.000000
  outer loop
    vertex 3.000000 0.718750 0.250000
    vertex 3.000000 0.787831 0.563737
    vertex 3.000000 0.745227 0.618962
  endloop
endfacet
facet normal 1.000000 0.000000 0.000000
  outer loop
    vertex 3.000000 0.745227 0.618962
    vertex 3.000000 0.698759 0.670978
    vertex 3.000000 0.718750 0.250000
  endloop
endfacet
facet normal 1.000000 0.000000 0.000000
  outer loop
    vertex 3.000000 0.718750 0.250000
    vertex 3.000000 0.698759 0.670978
    vertex 3.000000 0.648670 0.719516
  endloop
endfacet
facet normal 1.000000 0.000000 0.000000
  outer loop
    vertex 3.000000 0.718750 0.250000
    vertex 3.000000 0.648670 0.719516
    vertex 3.000000 0.595218 0.764325
  endloop
endfacet
facet normal 1.000000 0.000000 0.000000
  outer loop
    vertex 3.000000 0.595218 0.764325
    vertex 3.000000 0.538680 0.805171
    vertex 3.000000 0.718750 0.250000
  endloop
endfacet
facet normal 1.000000 0.000000 0.000000
  outer loop
    vertex 3.000000 0.718750 0.250000
    vertex 3.000000 0.538680 0.805171
    vertex 3.000000 0.479350 0.841843
  endloop
endfacet
facet normal 1.000000 0.000000 0.000000
  outer loop
    vertex 3.000000 0.718750 0.250000
    vertex 3.000000 0.479350 0.841843
    vertex 3.000000 0.417536 0.874151
  endloop
endfacet
facet normal 1.000000 0.000000 0.000000
  outer loop
    vertex 3.000000 0.417536 0.874151
    vertex 3.000000 0.353556 0.901928
    vertex 3.000000 0.718750 0.250000
  endloop
endfacet
facet normal 1.000000 0.000000 0.000000
  outer loop
    vertex 3.000000 0.718750 0.250000
    vertex 3.000000 0.353556 0.901928
    vertex 3.000000 0.287744 0.925030
  endloop
endfacet
facet normal 1.000000 0.000000 0.000000
  outer loop
    vertex 3.000000 0.718750 0.250000
    vertex 3.000000 0.287744 0.925030
    vertex 3.000000 0.220441 0.943336
  endloop
endfacet
facet normal 1.000000 0.000000 0.000000
  outer loop
    vertex 3.000000 0.220441 0.943336
    vertex 3.000000 0.151994 0.956752
    vertex 3.000000 0.718750 0.250000
  endloop
endfacet
facet normal 1.000000 0.000000 0.000000
  outer loop
    vertex 3.000000 0.718750 0.250000
    vertex 3.000000 0.151994 0.956752
    vertex 3.000000 0.082760 0.965208
  endloop
endfacet
facet normal 1.000000 0.000000 0.000000
  outer loop
    vertex 3.000000 0.718750 0.250000
    vertex 3.000000 0.082760 0.965208
    vertex 3.000000 0.013097 0.968661
  endloop
endfacet
facet normal 1.000000 0.000000 0.000000
  outer loop
    vertex 3.000000 0.013097 0.968661
    vertex 3.000000 -0.056635 0.967093
    vertex 3.000000 0.718750 0.250000
  endloop
endfacet
facet normal 1.000000 0.000000 0.000000
  outer loop
    vertex 3.000000 0.718750 0.250000
    vertex 3.000000 -0.056635 0.967093
    vertex 3.000000 -0.126072 0.960512
  endloop
endfacet
facet normal 1.000000 0.000000 0.000000
  outer loop
    vertex 3.000000 0.718750 0.250000
    vertex 3.000000 -0.126072 0.960512
    vertex 3.000000 -0.194856 0.948951
  endloop
endfacet
facet normal 1.000000 0.000000 0.000000
  outer loop
    vertex 3.000000 -0.194856 0.948951
    vertex 3.000000 -0.262630 0.932471
    vertex 3.000000 0.718750 0.250000
  endloop
endfacet
facet normal 1.000000 0.000000 0.000000
  outer loop
    vertex 3.000000 0.718750 0.250000
    vertex 3.000000 -0.262630 0.932471
    vertex 3.000000 -0.329043 0.911157
  endloop
endfacet
facet normal 1.000000 0.000000 0.000000
  outer loop
    vertex 3.000000 0.718750 0.250000
    vertex 3.000000 -0.329043 0.911157
    vertex 3.000000 -0.393750 0.885120
  endloop
endfacet
facet normal 1.000000 0.000000 0.000000
  outer loop
    vertex 3.000000 -0.393750 0.885120
    vertex 3.000000 -0.456415 0.854495
    vertex 3.000000 0.718750 0.250000
  endloop
endfacet
facet normal 1.000000 0.000000 0.000000
  outer loop
    vertex 3.000000 0.718750 0.250000
    vertex 3.000000 -0.456415 0.854495
    vertex 3.000000 -0.456415 -0.854495
  endloop
endfacet
facet normal 1.000000 0.000000 0.000000
  outer loop
    vertex 3.000000 0.718750 0.250000
    vertex 3.000000 -0.456415 -0.854495
    vertex 3.000000 0.718750 -0.250000
  endloop
endfacet
facet normal 1.000000 0.000000 0.000000
  outer loop
    vertex 3.000000 0.718750 -0.250000
    vertex 3.000000 -0.456415 -0.854495
    vertex 3.000000 -0.393750 -0.885120
  endloop
endfacet
facet normal 1.000000 0.000000 0.000000
  outer loop
    vertex 3.000000 0.718750 -0.250000
    vertex 3.000000 -0.393750 -0.885120
    vertex 3.000000 -0.329043 -0.911157
  endloop
endfacet
facet normal 1.000000 0.000000 -0.000000
  outer loop
    vertex 3.000000 -0.456415 -0.854495
    vertex 3.000000 -0.456415 0.854495
    vertex 3.000000 -0.516715 -0.819440
  endloop
endfacet
facet normal 1.000000 0.000000 0.000000
  outer loop
    vertex 3.000000 -0.516715 -0.819440
    vertex 3.000000 -0.456415 0.854495
    vertex 3.000000 -0.516715 0.819440
  endloop
endfacet
facet normal 1.000000 0.000000 -0.000000
  outer loop
    vertex 3.000000 -0.516715 -0.819440
    vertex 3.000000 -0.516715 0.819440
    vertex 3.000000 -0.574336 -0.780137
  endloop
endfacet
facet normal 1.000000 0.000000 0.000000
  outer loop
    vertex 3.000000 -0.574336 -0.780137
    vertex 3.000000 -0.516715 0.819440
    vertex 3.000000 -0.574336 0.780137
  endloop
endfacet
facet normal 1.000000 0.000000 -0.000000
  outer loop
    vertex 3.000000 -0.574336 -0.780137
    vertex 3.000000 -0.574336 0.780137
    vertex 3.000000 -0.628980 -0.736791
  endloop
endfacet
facet normal 1.000000 0.000000 0.000000
  outer loop
    vertex 3.000000 -0.628980 -0.736791
    vertex 3.000000 -0.574336 0.780137
    vertex 3.000000 -0.628980 0.736791
  endloop
endfacet
facet normal 1.000000 0.000000 -0.000000
  outer loop
    vertex 3.000000 -0.628980 -0.736791
    vertex 3.000000 -0.628980 0.736791
    vertex 3.000000 -0.680364 -0.689625
  endloop
endfacet
facet normal 1.000000 0.000000 0.000000
  outer loop
    vertex 3.000000 -0.680364 -0.689625
    vertex 3.000000 -0.628980 0.736791
    vertex 3.000000 -0.680364 0.689625
  endloop
endfacet
facet normal 1.000000 0.000000 -0.000000
  outer loop
    vertex 3.000000 -0.680364 -0.689625
    vertex 3.000000 -0.680364 0.689625
    vertex 3.000000 -0.728220 -0.638883
  endloop
endfacet
facet normal 1.000000 0.000000 0.000000
  outer loop
    vertex 3.000000 -0.728220 -0.638883
    vertex 3.000000 -0.680364 0.689625
    vertex 3.000000 -0.728220 0.638883
  endloop
endfacet
facet normal 1.000000 0.000000 -0.000000
  outer loop
    vertex 3.000000 -0.728220 -0.638883
    vertex 3.000000 -0.728220 0.638883
    vertex 3.000000 -0.772302 -0.584831
  endloop
endfacet
facet normal 1.000000 0.000000 0.000000
  outer loop
    vertex 3.000000 -0.772302 -0.584831
    vertex 3.000000 -0.728220 0.638883
    vertex 3.000000 -0.772302 0.584831
  endloop
endfacet
facet normal 1.000000 0.000000 -0.000000
  outer loop
    vertex 3.000000 -0.772302 -0.584831
    vertex 3.000000 -0.772302 0.584831
    vertex 3.000000 -0.812380 -0.527746
  endloop
endfacet
facet normal 1.000000 0.000000 0.000000
  outer loop
    vertex 3.000000 -0.812380 -0.527746
    vertex 3.000000 -0.772302 0.584831
    vertex 3.000000 -0.812380 0.527746
  endloop
endfacet
facet normal 1.000000 0.000000 -0.000000
  outer loop
    vertex 3.000000 -0.812380 -0.527746
    vertex 3.000000 -0.812380 0.527746
    vertex 3.000000 -0.848247 -0.467926
  endloop
endfacet
facet normal 1.000000 0.000000 0.000000
  outer loop
    vertex 3.000000 -0.848247 -0.467926
    vertex 3.000000 -0.812380 0.527746
    vertex 3.000000 -0.848247 0.467926
  endloop
endfacet
facet normal 1.000000 0.000000 -0.000000
  outer loop
    vertex 3.000000 -0.848247 -0.467926
    vertex 3.000000 -0.848247 0.467926
    vertex 3.000000 -0.879716 -0.405680
  endloop
endfacet
facet normal 1.000000 0.000000 0.000000
  outer loop
    vertex 3.000000 -0.879716 -0.405680
    vertex 3.000000 -0.848247 0.467926
    vertex 3.000000 -0.879716 0.405680
  endloop
endfacet
facet normal 1.000000 0.000000 -0.000000
  outer loop
    vertex 3.000000 -0.879716 -0.405680
    vertex 3.000000 -0.879716 0.405680
    vertex 3.000000 -0.906626 -0.341331
  endloop
endfacet
facet normal 1.000000 0.000000 0.000000
  outer loop
    vertex 3.000000 -0.906626 -0.341331
    vertex 3.000000 -0.879716 0.405680
    vertex 3.000000 -0.906626 0.341331
  endloop
endfacet
facet normal 1.000000 0.000000 -0.000000
  outer loop
    vertex 3.000000 -0.906626 -0.341331
    vertex 3.000000 -0.906626 0.341331
    vertex 3.000000 -0.928835 -0.275212
  endloop
endfacet
facet normal 1.000000 0.000000 0.000000
  outer loop
    vertex 3.000000 -0.928835 -0.275212
    vertex 3.000000 -0.906626 0.341331
    vertex 3.000000 -0.928835 0.275212
  endloop
endfacet
facet normal 1.000000 0.000000 -0.000000
  outer loop
    vertex 3.000000 -0.928835 -0.275212
    vertex 3.000000 -0.928835 0.275212
    vertex 3.000000 -0.946230 -0.207667
  endloop
endfacet
facet normal 1.000000 0.000000 0.000000
  outer loop
    vertex 3.000000 -0.946230 -0.207667
    vertex 3.000000 -0.928835 0.275212
    vertex 3.000000 -0.946230 0.207667
  endloop
endfacet
facet normal 1.000000 0.000000 -0.000000
  outer loop
    vertex 3.000000 -0.946230 -0.207667
    vertex 3.000000 -0.946230 0.207667
    vertex 3.000000 -0.958719 -0.139046
  endloop
endfacet
facet normal 1.000000 0.000000 0.000000
  outer loop
    vertex 3.000000 -0.958719 -0.139046
    vertex 3.000000 -0.946230 0.207667
    vertex 3.000000 -0.958719 0.139046
  endloop
endfacet
facet normal 1.000000 0.000000 -0.000000
  outer loop
    vertex 3.000000 -0.958719 -0.139046
    vertex 3.000000 -0.958719 0.139046
    vertex 3.000000 -0.966239 -0.069704
  endloop
endfacet
facet normal 1.000000 0.000000 0.000000
  outer loop
    vertex 3.000000 -0.966239 -0.069704
    vertex 3.000000 -0.958719 0.139046
    vertex 3.000000 -0.966239 0.069704
  endloop
endfacet
facet normal 1.000000 0.000000 -0.000000
  outer loop
    vertex 3.000000 -0.966239 -0.069704
    vertex 3.000000 -0.966239 0.069704
    vertex 3.000000 -0.968750 0.000000
  endloop
endfacet
facet normal 1.000000 -0.000000 0.000000
  outer loop
    vertex 3.000000 -0.329043 -0.911157
    vertex 3.000000 -0.262630 -0.932471
    vertex 3.000000 0.718750 -0.250000
  endloop
endfacet
facet normal 1.000000 0.000000 0.000000
  outer loop
    vertex 3.000000 0.718750 -0.250000
    vertex 3.000000 -0.262630 -0.932471
    vertex 3.000000 -0.194856 -0.948951
  endloop
endfacet
facet normal 1.000000 0.000000 0.000000
  outer loop
    vertex 3.000000 0.718750 -0.250000
    vertex 3.000000 -0.194856 -0.948951
    vertex 3.000000 -0.126072 -0.960512
  endloop
endfacet
facet normal 1.000000 -0.000000 0.000000
  outer loop
    vertex 3.000000 -0.126072 -0.960512
    vertex 3.000000 -0.056635 -0.967093
    vertex 3.000000 0.718750 -0.250000
  endloop
endfacet
facet normal 1.000000 0.000000 0.000000
  outer loop
    vertex 3.000000 0.718750 -0.250000
    vertex 3.000000 -0.056635 -0.967093
    vertex 3.000000 0.013097 -0.968661
  endloop
endfacet
facet normal 1.000000 0.000000 0.000000
  outer loop
    vertex 3.000000 0.718750 -0.250000
    vertex 3.000000 0.013097 -0.968661
    vertex 3.000000 0.082760 -0.965208
  endloop
endfacet
facet normal 1.000000 0.000000 0.000000
  outer loop
    vertex 3.000000 0.082760 -0.965208
    vertex 3.000000 0.151994 -0.956752
    vertex 3.000000 0.718750 -0.250000
  endloop
endfacet
facet normal 1.000000 0.000000 0.000000
  outer loop
    vertex 3.000000 0.718750 -0.250000
    vertex 3.000000 0.151994 -0.956752
    vertex 3.000000 0.220441 -0.943336
  endloop
endfacet
facet normal 1.000000 0.000000 0.000000
  outer loop
    vertex 3.000000 0.718750 -0.250000
    vertex 3.000000 0.220441 -0.943336
    vertex 3.000000 0.287744 -0.925030
  endloop
endfacet
facet normal 1.000000 0.000000 0.000000
  outer loop
    vertex 3.000000 0.287744 -0.925030
    vertex 3.000000 0.353556 -0.901928
    vertex 3.000000 0.718750 -0.250000
  endloop
endfacet
facet normal 1.000000 0.000000 0.000000
  outer loop
    vertex 3.000000 0.718750 -0.250000
    vertex 3.000000 0.353556 -0.901928
    vertex 3.000000 0.417536 -0.874151
  endloop
endfacet
facet normal 1.000000 0.000000 0.000000
  outer loop
    vertex 3.000000 0.718750 -0.250000
    vertex 3.000000 0.417536 -0.874151
    vertex 3.000000 0.479350 -0.841843
  endloop
endfacet
facet normal 1.000000 0.000000 0.000000
  outer loop
    vertex 3.000000 0.479350 -0.841843
    vertex 3.000000 0.538680 -0.805171
    vertex 3.000000 0.718750 -0.250000
  endloop
endfacet
facet normal 1.000000 0.000000 0.000000
  outer loop
    vertex 3.000000 0.718750 -0.250000
    vertex 3.000000 0.538680 -0.805171
    vertex 3.000000 0.595218 -0.764325
  endloop
endfacet
facet normal 1.000000 0.000000 0.000000
  outer loop
    vertex 3.000000 0.718750 -0.250000
    vertex 3.000000 0.595218 -0.764325
    vertex 3.000000 0.648670 -0.719516
  endloop
endfacet
facet normal 1.000000 0.000000 0.000000
  outer loop
    vertex 3.000000 0.648670 -0.719516
    vertex 3.000000 0.698759 -0.670978
    vertex 3.000000 0.718750 -0.250000
  endloop
endfacet
facet normal 1.000000 0.000000 0.000000
  outer loop
    vertex 3.000000 0.718750 -0.250000
    vertex 3.000000 0.698759 -0.670978
    vertex 3.000000 0.745227 -0.618962
  endloop
endfacet
facet normal 1.000000 0.000000 0.000000
  outer loop
    vertex 3.000000 0.718750 -0.250000
    vertex 3.000000 0.745227 -0.618962
    vertex 3.000000 0.787831 -0.563737
  endloop
endfacet
facet normal 1.000000 0.000000 -0.000000
  outer loop
    vertex 3.000000 0.787831 -0.563737
    vertex 3.000000 0.826351 -0.505590
    vertex 3.000000 0.718750 -0.250000
  endloop
endfacet
facet normal 1.000000 0.000000 0.000000
  outer loop
    vertex 3.000000 0.718750 -0.250000
    vertex 3.000000 0.826351 -0.505590
    vertex 3.000000 0.860587 -0.444822
  endloop
endfacet
facet normal 1.000000 0.000000 0.000000
  outer loop
    vertex 3.000000 0.718750 -0.250000
    vertex 3.000000 0.860587 -0.444822
    vertex 3.000000 0.890363 -0.381748
  endloop
endfacet
facet normal 1.000000 0.000000 -0.000000
  outer loop
    vertex 3.000000 0.890363 -0.381748
    vertex 3.000000 0.915522 -0.316695
    vertex 3.000000 0.718750 -0.250000
  endloop
endfacet
facet normal 1.000000 -0.000000 0.000000
  outer loop
    vertex 3.000000 0.718750 -0.250000
    vertex 3.000000 0.915522 -0.316695
    vertex 3.000000 0.935936 -0.250000
  endloop
endfacet
facet normal -1.000000 0.000000 0.000000
  outer loop
    vertex 0.000000 0.935936 0.250000
    vertex 0.000000 0.718750 0.250000
    vertex 0.000000 0.915522 0.316695
  endloop
endfacet
facet normal -1.000000 -0.000000 0.000000
  outer loop
    vertex 0.000000 0.915522 0.316695
    vertex 0.000000 0.718750 0.250000
    vertex 0.000000 0.890363 0.381748
  endloop
endfacet
facet normal -1.000000 -0.000000 0.000000
  outer loop
    vertex 0.000000 0.890363 0.381748
    vertex 0.000000 0.718750 0.250000
    vertex 0.000000 0.860587 0.444822
  endloop
endfacet
facet normal -1.000000 -0.000000 0.000000
  outer loop
    vertex 0.000000 0.860587 0.444822
    vertex 0.000000 0.718750 0.250000
    vertex 0.000000 0.826351 0.505590
  endloop
endfacet
facet normal -1.000000 -0.000000 0.000000
  outer loop
    vertex 0.000000 0.826351 0.505590
    vertex 0.000000 0.718750 0.250000
    vertex 0.000000 0.787831 0.563737
  endloop
endfacet
facet normal -1.000000 -0.000000 0.000000
  outer loop
    vertex 0.000000 0.787831 0.563737
    vertex 0.000000 0.718750 0.250000
    vertex 0.000000 0.745227 0.618962
  endloop
endfacet
facet normal -1.000000 -0.000000 0.000000
  outer loop
    vertex 0.000000 0.745227 0.618962
    vertex 0.000000 0.718750 0.250000
    vertex 0.000000 0.698759 0.670978
  endloop
endfacet
facet normal -1.000000 -0.000000 -0.000000
  outer loop
    vertex 0.000000 0.698759 0.670978
    vertex 0.000000 0.718750 0.250000
    vertex 0.000000 0.648670 0.719516
  endloop
endfacet
facet normal -1.000000 -0.000000 -0.000000
  outer loop
    vertex 0.000000 0.648670 0.719516
    vertex 0.000000 0.718750 0.250000
    vertex 0.000000 0.595218 0.764325
  endloop
endfacet
facet normal -1.000000 -0.000000 -0.000000
  outer loop
    vertex 0.000000 0.595218 0.764325
    vertex 0.000000 0.718750 0.250000
    vertex 0.000000 0.538680 0.805171
  endloop
endfacet
facet normal -1.000000 -0.000000 -0.000000
  outer loop
    vertex 0.000000 0.538680 0.805171
    vertex 0.000000 0.718750 0.250000
    vertex 0.000000 0.479350 0.841843
  endloop
endfacet
facet normal -1.000000 -0.000000 -0.000000
  outer loop
    vertex 0.000000 0.479350 0.841843
    vertex 0.000000 0.718750 0.250000
    vertex 0.000000 0.417536 0.874151
  endloop
endfacet
facet normal -1.000000 -0.000000 -0.000000
  outer loop
    vertex 0.000000 0.417536 0.874151
    vertex 0.000000 0.718750 0.250000
    vertex 0.000000 0.353556 0.901928
  endloop
endfacet
facet normal -1.000000 -0.000000 -0.000000
  outer loop
    vertex 0.000000 0.353556 0.901928
    vertex 0.000000 0.718750 0.250000
    vertex 0.000000 0.287744 0.925030
  endloop
endfacet
facet normal -1.000000 -0.000000 -0.000000
  outer loop
    vertex 0.000000 0.287744 0.925030
    vertex 0.000000 0.718750 0.250000
    vertex 0.000000 0.220441 0.943336
  endloop
endfacet
facet normal -1.000000 -0.000000 -0.000000
  outer loop
    vertex 0.000000 0.220441 0.943336
    vertex 0.000000 0.718750 0.250000
    vertex 0.000000 0.151994 0.956752
  endloop
endfacet
facet normal -1.000000 -0.000000 -0.000000
  outer loop
    vertex 0.000000 0.151994 0.956752
    vertex 0.000000 0.718750 0.250000
    vertex 0.000000 0.082760 0.965208
  endloop
endfacet
facet normal -1.000000 -0.000000 -0.000000
  outer loop
    vertex 0.000000 0.082760 0.965208
    vertex 0.000000 0.718750 0.250000
    vertex 0.000000 0.013097 0.968661
  endloop
endfacet
facet normal -1.000000 0.000000 -0.000000
  outer loop
    vertex 0.000000 0.013097 0.968661
    vertex 0.000000 0.718750 0.250000
    vertex 0.000000 -0.056635 0.967093
  endloop
endfacet
facet normal -1.000000 0.000000 -0.000000
  outer loop
    vertex 0.000000 -0.056635 0.967093
    vertex 0.000000 0.718750 0.250000
    vertex 0.000000 -0.126072 0.960512
  endloop
endfacet
facet normal -1.000000 0.000000 -0.000000
  outer loop
    vertex 0.000000 -0.126072 0.960512
    vertex 0.000000 0.718750 0.250000
    vertex 0.000000 -0.194856 0.948951
  endloop
endfacet
facet normal -1.000000 0.000000 -0.000000
  outer loop
    vertex 0.000000 -0.194856 0.948951
    vertex 0.000000 0.718750 0.250000
    vertex 0.000000 -0.262630 0.932471
  endloop
endfacet
facet normal -1.000000 0.000000 -0.000000
  outer loop
    vertex 0.000000 -0.262630 0.932471
    vertex 0.000000 0.718750 0.250000
    vertex 0.000000 -0.329043 0.911157
  endloop
endfacet
facet normal -1.000000 0.000000 -0.000000
  outer loop
    vertex 0.000000 -0.329043 0.911157
    vertex 0.000000 0.718750 0.250000
    vertex 0.000000 -0.393750 0.885120
  endloop
endfacet
facet normal -1.000000 0.000000 -0.000000
  outer loop
    vertex 0.000000 -0.393750 0.885120
    vertex 0.000000 0.718750 0.250000
    vertex 0.000000 -0.456415 0.854495
  endloop
endfacet
facet normal -1.000000 0.000000 0.000000
  outer loop
    vertex 0.000000 -0.456415 0.854495
    vertex 0.000000 0.718750 0.250000
    vertex 0.000000 0.718750 -0.250000
  endloop
endfacet
facet normal -1.000000 0.000000 0.000000
  outer loop
    vertex 0.000000 -0.456415 0.854495
    vertex 0.000000 0.718750 -0.250000
    vertex 0.000000 -0.456415 -0.854495
  endloop
endfacet
facet normal -1.000000 0.000000 0.000000
  outer loop
    vertex 0.000000 -0.456415 -0.854495
    vertex 0.000000 0.718750 -0.250000
    vertex 0.000000 -0.393750 -0.885120
  endloop
endfacet
facet normal -1.000000 0.000000 0.000000
  outer loop
    vertex 0.000000 -0.393750 -0.885120
    vertex 0.000000 0.718750 -0.250000
    vertex 0.000000 -0.329043 -0.911157
  endloop
endfacet
facet normal -1.000000 0.000000 0.000000
  outer loop
    vertex 0.000000 -0.329043 -0.911157
    vertex 0.000000 0.718750 -0.250000
    vertex 0.000000 -0.262630 -0.932471
  endloop
endfacet
facet normal -1.000000 0.000000 0.000000
  outer loop
    vertex 0.000000 -0.262630 -0.932471
    vertex 0.000000 0.718750 -0.250000
    vertex 0.000000 -0.194856 -0.948951
  endloop
endfacet
facet normal -1.000000 0.000000 0.000000
  outer loop
    vertex 0.000000 -0.194856 -0.948951
    vertex 0.000000 0.718750 -0.250000
    vertex 0.000000 -0.126072 -0.960512
  endloop
endfacet
facet normal -1.000000 0.000000 0.000000
  outer loop
    vertex 0.000000 -0.126072 -0.960512
    vertex 0.000000 0.718750 -0.250000
    vertex 0.000000 -0.056635 -0.967093
  endloop
endfacet
facet normal -1.000000 0.000000 0.000000
  outer loop
    vertex 0.000000 -0.056635 -0.967093
    vertex 0.000000 0.718750 -0.250000
    vertex 0.000000 0.013097 -0.968661
  endloop
endfacet
facet normal -1.000000 0.000000 0.000000
  outer loop
    vertex 0.000000 0.013097 -0.968661
    vertex 0.000000 0.718750 -0.250000
    vertex 0.000000 0.082760 -0.965208
  endloop
endfacet
facet normal -1.000000 0.000000 0.000000
  outer loop
    vertex 0.000000 0.082760 -0.965208
    vertex 0.000000 0.718750 -0.250000
    vertex 0.000000 0.151994 -0.956752
  endloop
endfacet
facet normal -1.000000 0.000000 0.000000
  outer loop
    vertex 0.000000 0.151994 -0.956752
    vertex 0.000000 0.718750 -0.250000
    vertex 0.000000 0.220441 -0.943336
  endloop
endfacet
facet normal -1.000000 0.000000 0.000000
  outer loop
    vertex 0.000000 0.220441 -0.943336
    vertex 0.000000 0.718750 -0.250000
    vertex 0.000000 0.287744 -0.925030
  endloop
endfacet
facet normal -1.000000 0.000000 0.000000
  outer loop
    vertex 0.000000 0.287744 -0.925030
    vertex 0.000000 0.718750 -0.250000
    vertex 0.000000 0.353556 -0.901928
  endloop
endfacet
facet normal -1.000000 0.000000 0.000000
  outer loop
    vertex 0.000000 0.353556 -0.901928
    vertex 0.000000 0.718750 -0.250000
    vertex 0.000000 0.417536 -0.874151
  endloop
endfacet
facet normal -1.000000 0.000000 0.000000
  outer loop
    vertex 0.000000 0.417536 -0.874151
    vertex 0.000000 0.718750 -0.250000
    vertex 0.000000 0.479350 -0.841843
  endloop
endfacet
facet normal -1.000000 0.000000 0.000000
  outer loop
    vertex 0.000000 0.479350 -0.841843
    vertex 0.000000 0.718750 -0.250000
    vertex 0.000000 0.538680 -0.805171
  endloop
endfacet
facet normal -1.000000 0.000000 0.000000
  outer loop
    vertex 0.000000 0.538680 -0.805171
    vertex 0.000000 0.718750 -0.250000
    vertex 0.000000 0.595218 -0.764325
  endloop
endfacet
facet normal -1.000000 0.000000 0.000000
  outer loop
    vertex 0.000000 0.595218 -0.764325
    vertex 0.000000 0.718750 -0.250000
    vertex 0.000000 0.648670 -0.719516
  endloop
endfacet
facet normal -1.000000 0.000000 0.000000
  outer loop
    vertex 0.000000 0.648670 -0.719516
    vertex 0.000000 0.718750 -0.250000
    vertex 0.000000 0.698759 -0.670978
  endloop
endfacet
facet normal -1.000000 0.000000 0.000000
  outer loop
    vertex 0.000000 0.698759 -0.670978
    vertex 0.000000 0.718750 -0.250000
    vertex 0.000000 0.745227 -0.618962
  endloop
endfacet
facet normal -1.000000 0.000000 0.000000
  outer loop
    vertex 0.000000 0.745227 -0.618962
    vertex 0.000000 0.718750 -0.250000
    vertex 0.000000 0.787831 -0.563737
  endloop
endfacet
facet normal -1.000000 0.000000 0.000000
  outer loop
    vertex 0.000000 0.787831 -0.563737
    vertex 0.000000 0.718750 -0.250000
    vertex 0.000000 0.826351 -0.505590
  endloop
endfacet
facet normal -1.000000 0.000000 0.000000
  outer loop
    vertex 0.000000 0.826351 -0.505590
    vertex 0.000000 0.718750 -0.250000
    vertex 0.000000 0.860587 -0.444822
  endloop
endfacet
facet normal -1.000000 0.000000 0.000000
  outer loop
    vertex 0.000000 0.860587 -0.444822
    vertex 0.000000 0.718750 -0.250000
    vertex 0.000000 0.890363 -0.381748
  endloop
endfacet
facet normal -1.000000 0.000000 0.000000
  outer loop
    vertex 0.000000 0.890363 -0.381748
    vertex 0.000000 0.718750 -0.250000
    vertex 0.000000 0.915522 -0.316695
  endloop
endfacet
facet normal -1.000000 0.000000 0.000000
  outer loop
    vertex 0.000000 0.915522 -0.316695
    vertex 0.000000 0.718750 -0.250000
    vertex 0.000000 0.935936 -0.250000
  endloop
endfacet
facet normal -1.000000 0.000000 -0.000000
  outer loop
    vertex 0.000000 -0.456415 0.854495
    vertex 0.000000 -0.456415 -0.854495
    vertex 0.000000 -0.516715 0.819440
  endloop
endfacet
facet normal -1.000000 0.000000 0.000000
  outer loop
    vertex 0.000000 -0.516715 0.819440
    vertex 0.000000 -0.456415 -0.854495
    vertex 0.000000 -0.516715 -0.819440
  endloop
endfacet
facet normal -1.000000 0.000000 -0.000000
  outer loop
    vertex 0.000000 -0.516715 0.819440
    vertex 0.000000 -0.516715 -0.819440
    vertex 0.000000 -0.574336 0.780137
  endloop
endfacet
facet normal -1.000000 0.000000 0.000000
  outer loop
    vertex 0.000000 -0.574336 0.780137
    vertex 0.000000 -0.516715 -0.819440
    vertex 0.000000 -0.574336 -0.780137
  endloop
endfacet
facet normal -1.000000 0.000000 -0.000000
  outer loop
    vertex 0.000000 -0.574336 0.780137
    vertex 0.000000 -0.574336 -0.780137
    vertex 0.000000 -0.628980 0.736791
  endloop
endfacet
facet normal -1.000000 0.000000 0.000000
  outer loop
    vertex 0.000000 -0.628980 0.736791
    vertex 0.000000 -0.574336 -0.780137
    vertex 0.000000 -0.628980 -0.736791
  endloop
endfacet
facet normal -1.000000 0.000000 -0.000000
  outer loop
    vertex 0.000000 -0.628980 0.736791
    vertex 0.000000 -0.628980 -0.736791
    vertex 0.000000 -0.680364 0.689625
  endloop
endfacet
facet normal -1.000000 0.000000 0.000000
  outer loop
    vertex 0.000000 -0.680364 0.689625
    vertex 0.000000 -0.628980 -0.736791
    vertex 0.000000 -0.680364 -0.689625
  endloop
endfacet
facet normal -1.000000 0.000000 -0.000000
  outer loop
    vertex 0.000000 -0.680364 0.689625
    vertex 0.000000 -0.680364 -0.689625
    vertex 0.000000 -0.728220 0.638883
  endloop
endfacet
facet normal -1.000000 0.000000 0.000000
  outer loop
    vertex 0.000000 -0.728220 0.638883
    vertex 0.000000 -0.680364 -0.689625
    vertex 0.000000 -0.728220 -0.638883
  endloop
endfacet
facet normal -1.000000 0.000000 -0.000000
  outer loop
    vertex 0.000000 -0.728220 0.638883
    vertex 0.000000 -0.728220 -0.638883
    vertex 0.000000 -0.772302 0.584831
  endloop
endfacet
facet normal -1.000000 0.000000 0.000000
  outer loop
    vertex 0.000000 -0.772302 0.584831
    vertex 0.000000 -0.728220 -0.638883
    vertex 0.000000 -0.772302 -0.584831
  endloop
endfacet
facet normal -1.000000 0.000000 -0.000000
  outer loop
    vertex 0.000000 -0.772302 0.584831
    vertex 0.000000 -0.772302 -0.584831
    vertex 0.000000 -0.812380 0.527746
  endloop
endfacet
facet normal -1.000000 0.000000 0.000000
  outer loop
    vertex 0.000000 -0.812380 0.527746
    vertex 0.000000 -0.772302 -0.584831
    vertex 0.000000 -0.812380 -0.527746
  endloop
endfacet
facet normal -1.000000 0.000000 -0.000000
  outer loop
    vertex 0.000000 -0.812380 0.527746
    vertex 0.000000 -0.812380 -0.527746
    vertex 0.000000 -0.848247 0.467926
  endloop
endfacet
facet normal -1.000000 0.000000 0.000000
  outer loop
    vertex 0.000000 -0.848247 0.467926
    vertex 0.000000 -0.812380 -0.527746
    vertex 0.000000 -0.848247 -0.467926
  endloop
endfacet
facet normal -1.000000 0.000000 -0.000000
  outer loop
    vertex 0.000000 -0.848247 0.467926
    vertex 0.000000 -0.848247 -0.467926
    vertex 0.000000 -0.879716 0.405680
  endloop
endfacet
facet normal -1.000000 0.000000 0.000000
  outer loop
    vertex 0.000000 -0.879716 0.405680
    vertex 0.000000 -0.848247 -0.467926
    vertex 0.000000 -0.879716 -0.405680
  endloop
endfacet
facet normal -1.000000 0.000000 -0.000000
  outer loop
    vertex 0.000000 -0.879716 0.405680
    vertex 0.000000 -0.879716 -0.405680
    vertex 0.000000 -0.906626 0.341331
  endloop
endfacet
facet normal -1.000000 0.000000 0.000000
  outer loop
    vertex 0.000000 -0.906626 0.341331
    vertex 0.000000 -0.879716 -0.405680
    vertex 0.000000 -0.906626 -0.341331
  endloop
endfacet
facet normal -1.000000 0.000000 -0.000000
  outer loop
    vertex 0.000000 -0.906626 0.341331
    vertex 0.000000 -0.906626 -0.341331
    vertex 0.000000 -0.928835 0.275212
  endloop
endfacet
facet normal -1.000000 0.000000 0.000000
  outer loop
    vertex 0.000000 -0.928835 0.275212
    vertex 0.000000 -0.906626 -0.341331
    vertex 0.000000 -0.928835 -0.275212
  endloop
endfacet
facet normal -1.000000 0.000000 -0.000000
  outer loop
    vertex 0.000000 -0.928835 0.275212
    vertex 0.000000 -0.928835 -0.275212
    vertex 0.000000 -0.946230 0.207667
  endloop
endfacet
facet normal -1.000000 0.000000 0.000000
  outer loop
    vertex 0.000000 -0.946230 0.207667
    vertex 0.000000 -0.928835 -0.275212
    vertex 0.000000 -0.946230 -0.207667
  endloop
endfacet
facet normal -1.000000 0.000000 -0.000000
  outer loop
    vertex 0.000000 -0.946230 0.207667
    vertex 0.000000 -0.946230 -0.207667
    vertex 0.000000 -0.958719 0.139046
  endloop
endfacet
facet normal -1.000000 0.000000 0.000000
  outer loop
    vertex 0.000000 -0.958719 0.139046
    vertex 0.000000 -0.946230 -0.207667
    vertex 0.000000 -0.958719 -0.139046
  endloop
endfacet
facet normal -1.000000 0.000000 -0.000000
  outer loop
    vertex 0.000000 -0.958719 0.139046
    vertex 0.000000 -0.958719 -0.139046
    vertex 0.000000 -0.966239 0.069704
  endloop
endfacet
facet normal -1.000000 0.000000 0.000000
  outer loop
    vertex 0.000000 -0.966239 0.069704
    vertex 0.000000 -0.958719 -0.139046
    vertex 0.000000 -0.966239 -0.069704
  endloop
endfacet
facet normal -1.000000 0.000000 -0.000000
  outer loop
    vertex 0.000000 -0.966239 0.069704
    vertex 0.000000 -0.966239 -0.069704
    vertex 0.000000 -0.968750 0.000000
  endloop
endfacet
endsolid b9c77a85-4d31-4be5-b67c-c0aef3136e3a-ascii.stl
