solid be9f89e5-1f62-4c76-819a-ed0b9bbf9815-ascii.stl
facet normal -0.000000 1.000000 0.000000
  outer loop
    vertex 0.000000 0.343750 0.093750
    vertex 24.000000 0.343750 0.093750
    vertex 0.000000 0.343750 -0.093750
  endloop
endfacet
facet normal 0.000000 1.000000 0.000000
  outer loop
    vertex 0.000000 0.343750 -0.093750
    vertex 24.000000 0.343750 0.093750
    vertex 24.000000 0.343750 -0.093750
  endloop
endfacet
facet normal 0.000000 0.000000 1.000000
  outer loop
    vertex 0.000000 0.343750 -0.093750
    vertex 24.000000 0.343750 -0.093750
    vertex 0.000000 0.427337 -0.093750
  endloop
endfacet
facet normal -0.000000 0.000000 1.000000
  outer loop
    vertex 0.000000 0.427337 -0.093750
    vertex 24.000000 0.343750 -0.093750
    vertex 24.000000 0.427337 -0.093750
  endloop
endfacet
facet normal -0.000870 0.941695 0.336466
  outer loop
    vertex 0.000000 0.389989 0.198279
    vertex 2.400000 0.422593 0.113233
    vertex 0.000000 0.427337 0.093750
  endloop
endfacet
facet normal 0.000000 0.971604 0.236614
  outer loop
    vertex 0.000000 0.427337 0.093750
    vertex 2.400000 0.422593 0.113233
    vertex 4.800000 0.422593 0.113233
  endloop
endfacet
facet normal 0.000000 0.971604 0.236614
  outer loop
    vertex 0.000000 0.427337 0.093750
    vertex 4.800000 0.422593 0.113233
    vertex 7.200000 0.422593 0.113233
  endloop
endfacet
facet normal 0.000000 0.923880 0.382684
  outer loop
    vertex 7.200000 0.422593 0.113233
    vertex 4.800000 0.422593 0.113233
    vertex 7.200000 0.378886 0.218750
  endloop
endfacet
facet normal 0.000000 0.923879 0.382684
  outer loop
    vertex 7.200000 0.422593 0.113233
    vertex 7.200000 0.378886 0.218750
    vertex 9.600000 0.378886 0.218750
  endloop
endfacet
facet normal 0.000000 0.793353 0.608761
  outer loop
    vertex 9.600000 0.378886 0.218750
    vertex 7.200000 0.378886 0.218750
    vertex 9.600000 0.309359 0.309359
  endloop
endfacet
facet normal 0.000000 0.793353 0.608761
  outer loop
    vertex 9.600000 0.378886 0.218750
    vertex 9.600000 0.309359 0.309359
    vertex 12.000000 0.309359 0.309359
  endloop
endfacet
facet normal 0.000000 0.608761 0.793353
  outer loop
    vertex 12.000000 0.309359 0.309359
    vertex 9.600000 0.309359 0.309359
    vertex 12.000000 0.218750 0.378886
  endloop
endfacet
facet normal 0.000000 0.608761 0.793353
  outer loop
    vertex 12.000000 0.309359 0.309359
    vertex 12.000000 0.218750 0.378886
    vertex 14.400000 0.218750 0.378886
  endloop
endfacet
facet normal 0.000000 0.382684 0.923880
  outer loop
    vertex 14.400000 0.218750 0.378886
    vertex 12.000000 0.218750 0.378886
    vertex 14.400000 0.113233 0.422593
  endloop
endfacet
facet normal 0.000000 0.382684 0.923880
  outer loop
    vertex 14.400000 0.218750 0.378886
    vertex 14.400000 0.113233 0.422593
    vertex 16.799999 0.113233 0.422593
  endloop
endfacet
facet normal 0.000000 0.130526 0.991445
  outer loop
    vertex 16.799999 0.113233 0.422593
    vertex 14.400000 0.113233 0.422593
    vertex 16.799999 0.000000 0.437500
  endloop
endfacet
facet normal 0.000000 0.130526 0.991445
  outer loop
    vertex 16.799999 0.113233 0.422593
    vertex 16.799999 0.000000 0.437500
    vertex 19.200001 0.000000 0.437500
  endloop
endfacet
facet normal 0.000000 -0.130526 0.991445
  outer loop
    vertex 19.200001 0.000000 0.437500
    vertex 16.799999 0.000000 0.437500
    vertex 19.200001 -0.113233 0.422593
  endloop
endfacet
facet normal 0.000000 -0.130526 0.991445
  outer loop
    vertex 19.200001 0.000000 0.437500
    vertex 19.200001 -0.113233 0.422593
    vertex 21.600000 -0.113233 0.422593
  endloop
endfacet
facet normal 0.000000 -0.382684 0.923880
  outer loop
    vertex 21.600000 -0.113233 0.422593
    vertex 19.200001 -0.113233 0.422593
    vertex 21.600000 -0.218750 0.378886
  endloop
endfacet
facet normal -0.001459 -0.382683 0.923879
  outer loop
    vertex 21.600000 -0.113233 0.422593
    vertex 21.600000 -0.218750 0.378886
    vertex 24.000000 -0.180782 0.398402
  endloop
endfacet
facet normal 0.001393 -0.525400 0.850855
  outer loop
    vertex 24.000000 -0.180782 0.398402
    vertex 21.600000 -0.218750 0.378886
    vertex 24.000000 -0.275228 0.340082
  endloop
endfacet
facet normal -0.001498 -0.608761 0.793353
  outer loop
    vertex 24.000000 -0.275228 0.340082
    vertex 21.600000 -0.218750 0.378886
    vertex 21.600000 -0.309359 0.309359
  endloop
endfacet
facet normal 0.001428 -0.722621 0.691243
  outer loop
    vertex 24.000000 -0.275228 0.340082
    vertex 21.600000 -0.309359 0.309359
    vertex 24.000000 -0.351957 0.259870
  endloop
endfacet
facet normal -0.001528 -0.793353 0.608761
  outer loop
    vertex 24.000000 -0.351957 0.259870
    vertex 21.600000 -0.309359 0.309359
    vertex 21.600000 -0.378886 0.218750
  endloop
endfacet
facet normal 0.001453 -0.873326 0.487134
  outer loop
    vertex 24.000000 -0.351957 0.259870
    vertex 21.600000 -0.378886 0.218750
    vertex 24.000000 -0.406030 0.162929
  endloop
endfacet
facet normal -0.001548 -0.923878 0.382683
  outer loop
    vertex 24.000000 -0.406030 0.162929
    vertex 21.600000 -0.378886 0.218750
    vertex 21.600000 -0.422593 0.113233
  endloop
endfacet
facet normal 0.001468 -0.967813 0.251667
  outer loop
    vertex 24.000000 -0.406030 0.162929
    vertex 21.600000 -0.422593 0.113233
    vertex 24.000000 -0.433965 0.055501
  endloop
endfacet
facet normal -0.001558 -0.991444 0.130526
  outer loop
    vertex 24.000000 -0.433965 0.055501
    vertex 21.600000 -0.422593 0.113233
    vertex 21.600000 -0.437500 -0.000000
  endloop
endfacet
facet normal 0.001473 -0.999999 0.000000
  outer loop
    vertex 24.000000 -0.433965 0.055501
    vertex 21.600000 -0.437500 -0.000000
    vertex 24.000000 -0.433965 -0.055501
  endloop
endfacet
facet normal -0.001558 -0.991444 -0.130526
  outer loop
    vertex 24.000000 -0.433965 -0.055501
    vertex 21.600000 -0.437500 -0.000000
    vertex 21.600000 -0.422593 -0.113233
  endloop
endfacet
facet normal 0.001468 -0.967813 -0.251667
  outer loop
    vertex 24.000000 -0.433965 -0.055501
    vertex 21.600000 -0.422593 -0.113233
    vertex 24.000000 -0.406030 -0.162929
  endloop
endfacet
facet normal -0.001548 -0.923878 -0.382683
  outer loop
    vertex 24.000000 -0.406030 -0.162929
    vertex 21.600000 -0.422593 -0.113233
    vertex 21.600000 -0.378886 -0.218750
  endloop
endfacet
facet normal 0.001453 -0.873326 -0.487134
  outer loop
    vertex 24.000000 -0.406030 -0.162929
    vertex 21.600000 -0.378886 -0.218750
    vertex 24.000000 -0.351957 -0.259870
  endloop
endfacet
facet normal -0.001528 -0.793353 -0.608761
  outer loop
    vertex 24.000000 -0.351957 -0.259870
    vertex 21.600000 -0.378886 -0.218750
    vertex 21.600000 -0.309359 -0.309359
  endloop
endfacet
facet normal 0.001428 -0.722621 -0.691243
  outer loop
    vertex 24.000000 -0.351957 -0.259870
    vertex 21.600000 -0.309359 -0.309359
    vertex 24.000000 -0.275228 -0.340082
  endloop
endfacet
facet normal -0.001498 -0.608761 -0.793353
  outer loop
    vertex 24.000000 -0.275228 -0.340082
    vertex 21.600000 -0.309359 -0.309359
    vertex 21.600000 -0.218750 -0.378886
  endloop
endfacet
facet normal 0.001393 -0.525400 -0.850855
  outer loop
    vertex 24.000000 -0.275228 -0.340082
    vertex 21.600000 -0.218750 -0.378886
    vertex 24.000000 -0.180782 -0.398402
  endloop
endfacet
facet normal -0.001459 -0.382683 -0.923879
  outer loop
    vertex 24.000000 -0.180782 -0.398402
    vertex 21.600000 -0.218750 -0.378886
    vertex 21.600000 -0.113233 -0.422593
  endloop
endfacet
facet normal 0.001348 -0.294356 -0.955695
  outer loop
    vertex 24.000000 -0.180782 -0.398402
    vertex 21.600000 -0.113233 -0.422593
    vertex 24.000000 -0.074699 -0.431076
  endloop
endfacet
facet normal -0.001409 -0.130526 -0.991444
  outer loop
    vertex 24.000000 -0.074699 -0.431076
    vertex 21.600000 -0.113233 -0.422593
    vertex 21.600000 0.000000 -0.437500
  endloop
endfacet
facet normal 0.001293 -0.044365 -0.999015
  outer loop
    vertex 24.000000 -0.074699 -0.431076
    vertex 21.600000 0.000000 -0.437500
    vertex 24.000000 0.036193 -0.436000
  endloop
endfacet
facet normal -0.001349 0.130526 -0.991444
  outer loop
    vertex 24.000000 0.036193 -0.436000
    vertex 21.600000 0.000000 -0.437500
    vertex 21.600000 0.113233 -0.422593
  endloop
endfacet
facet normal 0.001228 0.208482 -0.978025
  outer loop
    vertex 24.000000 0.036193 -0.436000
    vertex 21.600000 0.113233 -0.422593
    vertex 24.000000 0.144755 -0.412859
  endloop
endfacet
facet normal -0.001279 0.382683 -0.923879
  outer loop
    vertex 24.000000 0.144755 -0.412859
    vertex 21.600000 0.113233 -0.422593
    vertex 21.600000 0.218750 -0.378886
  endloop
endfacet
facet normal 0.001154 0.447910 -0.894078
  outer loop
    vertex 24.000000 0.144755 -0.412859
    vertex 21.600000 0.218750 -0.378886
    vertex 24.000000 0.243999 -0.363140
  endloop
endfacet
facet normal -0.001199 0.608761 -0.793353
  outer loop
    vertex 24.000000 0.243999 -0.363140
    vertex 21.600000 0.218750 -0.378886
    vertex 21.600000 0.309359 -0.309359
  endloop
endfacet
facet normal 0.001069 0.658503 -0.752577
  outer loop
    vertex 24.000000 0.243999 -0.363140
    vertex 21.600000 0.309359 -0.309359
    vertex 24.000000 0.327536 -0.290045
  endloop
endfacet
facet normal -0.001110 0.793353 -0.608761
  outer loop
    vertex 24.000000 0.327536 -0.290045
    vertex 21.600000 0.309359 -0.309359
    vertex 21.600000 0.378886 -0.218750
  endloop
endfacet
facet normal 0.000974 0.826708 -0.562631
  outer loop
    vertex 24.000000 0.327536 -0.290045
    vertex 21.600000 0.378886 -0.218750
    vertex 24.000000 0.389989 -0.198279
  endloop
endfacet
facet normal -0.001010 0.923879 -0.382683
  outer loop
    vertex 24.000000 0.389989 -0.198279
    vertex 21.600000 0.378886 -0.218750
    vertex 21.600000 0.422593 -0.113233
  endloop
endfacet
facet normal 0.000870 0.941695 -0.336466
  outer loop
    vertex 24.000000 0.389989 -0.198279
    vertex 21.600000 0.422593 -0.113233
    vertex 24.000000 0.427337 -0.093750
  endloop
endfacet
facet normal 0.000000 0.971604 -0.236614
  outer loop
    vertex 24.000000 0.427337 -0.093750
    vertex 21.600000 0.422593 -0.113233
    vertex 19.200001 0.422593 -0.113233
  endloop
endfacet
facet normal 0.000000 0.971604 -0.236614
  outer loop
    vertex 24.000000 0.427337 -0.093750
    vertex 19.200001 0.422593 -0.113233
    vertex 16.799999 0.422593 -0.113233
  endloop
endfacet
facet normal 0.000000 0.923880 -0.382684
  outer loop
    vertex 16.799999 0.422593 -0.113233
    vertex 19.200001 0.422593 -0.113233
    vertex 16.799999 0.378886 -0.218750
  endloop
endfacet
facet normal 0.000000 0.923880 -0.382684
  outer loop
    vertex 16.799999 0.422593 -0.113233
    vertex 16.799999 0.378886 -0.218750
    vertex 14.400000 0.378886 -0.218750
  endloop
endfacet
facet normal 0.000000 0.793353 -0.608761
  outer loop
    vertex 14.400000 0.378886 -0.218750
    vertex 16.799999 0.378886 -0.218750
    vertex 14.400000 0.309359 -0.309359
  endloop
endfacet
facet normal 0.000000 0.793353 -0.608761
  outer loop
    vertex 14.400000 0.378886 -0.218750
    vertex 14.400000 0.309359 -0.309359
    vertex 12.000000 0.309359 -0.309359
  endloop
endfacet
facet normal 0.000000 0.608761 -0.793353
  outer loop
    vertex 12.000000 0.309359 -0.309359
    vertex 14.400000 0.309359 -0.309359
    vertex 12.000000 0.218750 -0.378886
  endloop
endfacet
facet normal 0.000000 0.608761 -0.793353
  outer loop
    vertex 12.000000 0.309359 -0.309359
    vertex 12.000000 0.218750 -0.378886
    vertex 9.600000 0.218750 -0.378886
  endloop
endfacet
facet normal 0.000000 0.382684 -0.923880
  outer loop
    vertex 9.600000 0.218750 -0.378886
    vertex 12.000000 0.218750 -0.378886
    vertex 9.600000 0.113233 -0.422593
  endloop
endfacet
facet normal 0.000000 0.382684 -0.923879
  outer loop
    vertex 9.600000 0.218750 -0.378886
    vertex 9.600000 0.113233 -0.422593
    vertex 7.200000 0.113233 -0.422593
  endloop
endfacet
facet normal 0.000000 0.130526 -0.991445
  outer loop
    vertex 7.200000 0.113233 -0.422593
    vertex 9.600000 0.113233 -0.422593
    vertex 7.200000 0.000000 -0.437500
  endloop
endfacet
facet normal 0.000000 0.130526 -0.991445
  outer loop
    vertex 7.200000 0.113233 -0.422593
    vertex 7.200000 0.000000 -0.437500
    vertex 4.800000 0.000000 -0.437500
  endloop
endfacet
facet normal 0.000000 -0.130526 -0.991445
  outer loop
    vertex 4.800000 0.000000 -0.437500
    vertex 7.200000 0.000000 -0.437500
    vertex 4.800000 -0.113233 -0.422593
  endloop
endfacet
facet normal 0.000000 -0.130526 -0.991445
  outer loop
    vertex 4.800000 0.000000 -0.437500
    vertex 4.800000 -0.113233 -0.422593
    vertex 2.400000 -0.113233 -0.422593
  endloop
endfacet
facet normal 0.000000 -0.382684 -0.923879
  outer loop
    vertex 2.400000 -0.113233 -0.422593
    vertex 4.800000 -0.113233 -0.422593
    vertex 2.400000 -0.218750 -0.378886
  endloop
endfacet
facet normal 0.001459 -0.382683 -0.923879
  outer loop
    vertex 2.400000 -0.113233 -0.422593
    vertex 2.400000 -0.218750 -0.378886
    vertex 0.000000 -0.180782 -0.398402
  endloop
endfacet
facet normal -0.001393 -0.525400 -0.850855
  outer loop
    vertex 0.000000 -0.180782 -0.398402
    vertex 2.400000 -0.218750 -0.378886
    vertex 0.000000 -0.275228 -0.340082
  endloop
endfacet
facet normal 0.001498 -0.608761 -0.793353
  outer loop
    vertex 0.000000 -0.275228 -0.340082
    vertex 2.400000 -0.218750 -0.378886
    vertex 2.400000 -0.309359 -0.309359
  endloop
endfacet
facet normal -0.001428 -0.722621 -0.691243
  outer loop
    vertex 0.000000 -0.275228 -0.340082
    vertex 2.400000 -0.309359 -0.309359
    vertex 0.000000 -0.351957 -0.259870
  endloop
endfacet
facet normal 0.001528 -0.793353 -0.608761
  outer loop
    vertex 0.000000 -0.351957 -0.259870
    vertex 2.400000 -0.309359 -0.309359
    vertex 2.400000 -0.378886 -0.218750
  endloop
endfacet
facet normal -0.001453 -0.873326 -0.487134
  outer loop
    vertex 0.000000 -0.351957 -0.259870
    vertex 2.400000 -0.378886 -0.218750
    vertex 0.000000 -0.406030 -0.162929
  endloop
endfacet
facet normal 0.001548 -0.923878 -0.382683
  outer loop
    vertex 0.000000 -0.406030 -0.162929
    vertex 2.400000 -0.378886 -0.218750
    vertex 2.400000 -0.422593 -0.113233
  endloop
endfacet
facet normal -0.001468 -0.967813 -0.251667
  outer loop
    vertex 0.000000 -0.406030 -0.162929
    vertex 2.400000 -0.422593 -0.113233
    vertex 0.000000 -0.433965 -0.055501
  endloop
endfacet
facet normal 0.001558 -0.991444 -0.130526
  outer loop
    vertex 0.000000 -0.433965 -0.055501
    vertex 2.400000 -0.422593 -0.113233
    vertex 2.400000 -0.437500 -0.000000
  endloop
endfacet
facet normal -0.001473 -0.999999 0.000000
  outer loop
    vertex 0.000000 -0.433965 -0.055501
    vertex 2.400000 -0.437500 -0.000000
    vertex 0.000000 -0.433965 0.055501
  endloop
endfacet
facet normal 0.001558 -0.991444 0.130526
  outer loop
    vertex 0.000000 -0.433965 0.055501
    vertex 2.400000 -0.437500 -0.000000
    vertex 2.400000 -0.422593 0.113233
  endloop
endfacet
facet normal -0.001468 -0.967813 0.251667
  outer loop
    vertex 0.000000 -0.433965 0.055501
    vertex 2.400000 -0.422593 0.113233
    vertex 0.000000 -0.406030 0.162929
  endloop
endfacet
facet normal 0.001548 -0.923878 0.382683
  outer loop
    vertex 0.000000 -0.406030 0.162929
    vertex 2.400000 -0.422593 0.113233
    vertex 2.400000 -0.378886 0.218750
  endloop
endfacet
facet normal -0.001453 -0.873326 0.487134
  outer loop
    vertex 0.000000 -0.406030 0.162929
    vertex 2.400000 -0.378886 0.218750
    vertex 0.000000 -0.351957 0.259870
  endloop
endfacet
facet normal 0.001528 -0.793353 0.608761
  outer loop
    vertex 0.000000 -0.351957 0.259870
    vertex 2.400000 -0.378886 0.218750
    vertex 2.400000 -0.309359 0.309359
  endloop
endfacet
facet normal -0.001428 -0.722621 0.691243
  outer loop
    vertex 0.000000 -0.351957 0.259870
    vertex 2.400000 -0.309359 0.309359
    vertex 0.000000 -0.275228 0.340082
  endloop
endfacet
facet normal 0.001498 -0.608761 0.793353
  outer loop
    vertex 0.000000 -0.275228 0.340082
    vertex 2.400000 -0.309359 0.309359
    vertex 2.400000 -0.218750 0.378886
  endloop
endfacet
facet normal -0.001393 -0.525400 0.850855
  outer loop
    vertex 0.000000 -0.275228 0.340082
    vertex 2.400000 -0.218750 0.378886
    vertex 0.000000 -0.180782 0.398402
  endloop
endfacet
facet normal 0.001459 -0.382683 0.923879
  outer loop
    vertex 0.000000 -0.180782 0.398402
    vertex 2.400000 -0.218750 0.378886
    vertex 2.400000 -0.113233 0.422593
  endloop
endfacet
facet normal -0.001348 -0.294356 0.955695
  outer loop
    vertex 0.000000 -0.180782 0.398402
    vertex 2.400000 -0.113233 0.422593
    vertex 0.000000 -0.074699 0.431076
  endloop
endfacet
facet normal 0.001409 -0.130526 0.991444
  outer loop
    vertex 0.000000 -0.074699 0.431076
    vertex 2.400000 -0.113233 0.422593
    vertex 2.400000 0.000000 0.437500
  endloop
endfacet
facet normal -0.001293 -0.044365 0.999015
  outer loop
    vertex 0.000000 -0.074699 0.431076
    vertex 2.400000 0.000000 0.437500
    vertex 0.000000 0.036193 0.436000
  endloop
endfacet
facet normal 0.001349 0.130526 0.991444
  outer loop
    vertex 0.000000 0.036193 0.436000
    vertex 2.400000 0.000000 0.437500
    vertex 2.400000 0.113233 0.422593
  endloop
endfacet
facet normal -0.001228 0.208482 0.978025
  outer loop
    vertex 0.000000 0.036193 0.436000
    vertex 2.400000 0.113233 0.422593
    vertex 0.000000 0.144755 0.412859
  endloop
endfacet
facet normal 0.001279 0.382683 0.923879
  outer loop
    vertex 0.000000 0.144755 0.412859
    vertex 2.400000 0.113233 0.422593
    vertex 2.400000 0.218750 0.378886
  endloop
endfacet
facet normal -0.001154 0.447910 0.894078
  outer loop
    vertex 0.000000 0.144755 0.412859
    vertex 2.400000 0.218750 0.378886
    vertex 0.000000 0.243999 0.363140
  endloop
endfacet
facet normal 0.001199 0.608761 0.793353
  outer loop
    vertex 0.000000 0.243999 0.363140
    vertex 2.400000 0.218750 0.378886
    vertex 2.400000 0.309359 0.309359
  endloop
endfacet
facet normal -0.001069 0.658503 0.752577
  outer loop
    vertex 0.000000 0.243999 0.363140
    vertex 2.400000 0.309359 0.309359
    vertex 0.000000 0.327536 0.290045
  endloop
endfacet
facet normal 0.001110 0.793353 0.608761
  outer loop
    vertex 0.000000 0.327536 0.290045
    vertex 2.400000 0.309359 0.309359
    vertex 2.400000 0.378886 0.218750
  endloop
endfacet
facet normal -0.000974 0.826708 0.562631
  outer loop
    vertex 0.000000 0.327536 0.290045
    vertex 2.400000 0.378886 0.218750
    vertex 0.000000 0.389989 0.198279
  endloop
endfacet
facet normal 0.001010 0.923879 0.382683
  outer loop
    vertex 0.000000 0.389989 0.198279
    vertex 2.400000 0.378886 0.218750
    vertex 2.400000 0.422593 0.113233
  endloop
endfacet
facet normal -0.001348 -0.294356 -0.955695
  outer loop
    vertex 0.000000 -0.180782 -0.398402
    vertex 0.000000 -0.074699 -0.431076
    vertex 2.400000 -0.113233 -0.422593
  endloop
endfacet
facet normal 0.001409 -0.130526 -0.991444
  outer loop
    vertex 2.400000 -0.113233 -0.422593
    vertex 0.000000 -0.074699 -0.431076
    vertex 2.400000 0.000000 -0.437500
  endloop
endfacet
facet normal 0.000000 -0.130526 -0.991445
  outer loop
    vertex 2.400000 -0.113233 -0.422593
    vertex 2.400000 0.000000 -0.437500
    vertex 4.800000 0.000000 -0.437500
  endloop
endfacet
facet normal 0.000000 0.130526 -0.991445
  outer loop
    vertex 4.800000 0.000000 -0.437500
    vertex 2.400000 0.000000 -0.437500
    vertex 4.800000 0.113233 -0.422593
  endloop
endfacet
facet normal 0.000000 0.130526 -0.991445
  outer loop
    vertex 4.800000 0.000000 -0.437500
    vertex 4.800000 0.113233 -0.422593
    vertex 7.200000 0.113233 -0.422593
  endloop
endfacet
facet normal 0.000000 0.382684 -0.923880
  outer loop
    vertex 7.200000 0.113233 -0.422593
    vertex 4.800000 0.113233 -0.422593
    vertex 7.200000 0.218750 -0.378886
  endloop
endfacet
facet normal 0.000000 0.382684 -0.923879
  outer loop
    vertex 7.200000 0.113233 -0.422593
    vertex 7.200000 0.218750 -0.378886
    vertex 9.600000 0.218750 -0.378886
  endloop
endfacet
facet normal 0.000000 0.608761 -0.793353
  outer loop
    vertex 9.600000 0.218750 -0.378886
    vertex 7.200000 0.218750 -0.378886
    vertex 9.600000 0.309359 -0.309359
  endloop
endfacet
facet normal 0.000000 0.608761 -0.793353
  outer loop
    vertex 9.600000 0.218750 -0.378886
    vertex 9.600000 0.309359 -0.309359
    vertex 12.000000 0.309359 -0.309359
  endloop
endfacet
facet normal 0.000000 0.793353 -0.608761
  outer loop
    vertex 12.000000 0.309359 -0.309359
    vertex 9.600000 0.309359 -0.309359
    vertex 12.000000 0.378886 -0.218750
  endloop
endfacet
facet normal 0.000000 0.793353 -0.608761
  outer loop
    vertex 12.000000 0.309359 -0.309359
    vertex 12.000000 0.378886 -0.218750
    vertex 14.400000 0.378886 -0.218750
  endloop
endfacet
facet normal 0.000000 0.923880 -0.382684
  outer loop
    vertex 14.400000 0.378886 -0.218750
    vertex 12.000000 0.378886 -0.218750
    vertex 14.400000 0.422593 -0.113233
  endloop
endfacet
facet normal 0.000000 0.923880 -0.382684
  outer loop
    vertex 14.400000 0.378886 -0.218750
    vertex 14.400000 0.422593 -0.113233
    vertex 16.799999 0.422593 -0.113233
  endloop
endfacet
facet normal 0.000000 0.971604 -0.236614
  outer loop
    vertex 16.799999 0.422593 -0.113233
    vertex 14.400000 0.422593 -0.113233
    vertex 24.000000 0.427337 -0.093750
  endloop
endfacet
facet normal -0.001293 -0.044365 -0.999015
  outer loop
    vertex 0.000000 -0.074699 -0.431076
    vertex 0.000000 0.036193 -0.436000
    vertex 2.400000 0.000000 -0.437500
  endloop
endfacet
facet normal 0.001349 0.130526 -0.991444
  outer loop
    vertex 2.400000 0.000000 -0.437500
    vertex 0.000000 0.036193 -0.436000
    vertex 2.400000 0.113233 -0.422593
  endloop
endfacet
facet normal 0.000000 0.130526 -0.991445
  outer loop
    vertex 2.400000 0.000000 -0.437500
    vertex 2.400000 0.113233 -0.422593
    vertex 4.800000 0.113233 -0.422593
  endloop
endfacet
facet normal 0.000000 0.382684 -0.923879
  outer loop
    vertex 4.800000 0.113233 -0.422593
    vertex 2.400000 0.113233 -0.422593
    vertex 4.800000 0.218750 -0.378886
  endloop
endfacet
facet normal 0.000000 0.382684 -0.923880
  outer loop
    vertex 4.800000 0.113233 -0.422593
    vertex 4.800000 0.218750 -0.378886
    vertex 7.200000 0.218750 -0.378886
  endloop
endfacet
facet normal 0.000000 0.608761 -0.793353
  outer loop
    vertex 7.200000 0.218750 -0.378886
    vertex 4.800000 0.218750 -0.378886
    vertex 7.200000 0.309359 -0.309359
  endloop
endfacet
facet normal 0.000000 0.608761 -0.793353
  outer loop
    vertex 7.200000 0.218750 -0.378886
    vertex 7.200000 0.309359 -0.309359
    vertex 9.600000 0.309359 -0.309359
  endloop
endfacet
facet normal 0.000000 0.793353 -0.608761
  outer loop
    vertex 9.600000 0.309359 -0.309359
    vertex 7.200000 0.309359 -0.309359
    vertex 9.600000 0.378886 -0.218750
  endloop
endfacet
facet normal 0.000000 0.793353 -0.608761
  outer loop
    vertex 9.600000 0.309359 -0.309359
    vertex 9.600000 0.378886 -0.218750
    vertex 12.000000 0.378886 -0.218750
  endloop
endfacet
facet normal 0.000000 0.923880 -0.382684
  outer loop
    vertex 12.000000 0.378886 -0.218750
    vertex 9.600000 0.378886 -0.218750
    vertex 12.000000 0.422593 -0.113233
  endloop
endfacet
facet normal 0.000000 0.923880 -0.382684
  outer loop
    vertex 12.000000 0.378886 -0.218750
    vertex 12.000000 0.422593 -0.113233
    vertex 14.400000 0.422593 -0.113233
  endloop
endfacet
facet normal 0.000000 0.971604 -0.236614
  outer loop
    vertex 14.400000 0.422593 -0.113233
    vertex 12.000000 0.422593 -0.113233
    vertex 24.000000 0.427337 -0.093750
  endloop
endfacet
facet normal -0.001228 0.208482 -0.978025
  outer loop
    vertex 0.000000 0.036193 -0.436000
    vertex 0.000000 0.144755 -0.412859
    vertex 2.400000 0.113233 -0.422593
  endloop
endfacet
facet normal 0.001279 0.382683 -0.923879
  outer loop
    vertex 2.400000 0.113233 -0.422593
    vertex 0.000000 0.144755 -0.412859
    vertex 2.400000 0.218750 -0.378886
  endloop
endfacet
facet normal 0.000000 0.382684 -0.923879
  outer loop
    vertex 2.400000 0.113233 -0.422593
    vertex 2.400000 0.218750 -0.378886
    vertex 4.800000 0.218750 -0.378886
  endloop
endfacet
facet normal 0.000000 0.608761 -0.793353
  outer loop
    vertex 4.800000 0.218750 -0.378886
    vertex 2.400000 0.218750 -0.378886
    vertex 4.800000 0.309359 -0.309359
  endloop
endfacet
facet normal 0.000000 0.608761 -0.793353
  outer loop
    vertex 4.800000 0.218750 -0.378886
    vertex 4.800000 0.309359 -0.309359
    vertex 7.200000 0.309359 -0.309359
  endloop
endfacet
facet normal 0.000000 0.793353 -0.608761
  outer loop
    vertex 7.200000 0.309359 -0.309359
    vertex 4.800000 0.309359 -0.309359
    vertex 7.200000 0.378886 -0.218750
  endloop
endfacet
facet normal 0.000000 0.793353 -0.608761
  outer loop
    vertex 7.200000 0.309359 -0.309359
    vertex 7.200000 0.378886 -0.218750
    vertex 9.600000 0.378886 -0.218750
  endloop
endfacet
facet normal 0.000000 0.923879 -0.382684
  outer loop
    vertex 9.600000 0.378886 -0.218750
    vertex 7.200000 0.378886 -0.218750
    vertex 9.600000 0.422593 -0.113233
  endloop
endfacet
facet normal 0.000000 0.923880 -0.382684
  outer loop
    vertex 9.600000 0.378886 -0.218750
    vertex 9.600000 0.422593 -0.113233
    vertex 12.000000 0.422593 -0.113233
  endloop
endfacet
facet normal 0.000000 0.971604 -0.236614
  outer loop
    vertex 12.000000 0.422593 -0.113233
    vertex 9.600000 0.422593 -0.113233
    vertex 0.000000 0.427337 -0.093750
  endloop
endfacet
facet normal 0.000000 0.971604 -0.236614
  outer loop
    vertex 12.000000 0.422593 -0.113233
    vertex 0.000000 0.427337 -0.093750
    vertex 24.000000 0.427337 -0.093750
  endloop
endfacet
facet normal -0.001154 0.447910 -0.894078
  outer loop
    vertex 0.000000 0.144755 -0.412859
    vertex 0.000000 0.243999 -0.363140
    vertex 2.400000 0.218750 -0.378886
  endloop
endfacet
facet normal 0.001199 0.608761 -0.793353
  outer loop
    vertex 2.400000 0.218750 -0.378886
    vertex 0.000000 0.243999 -0.363140
    vertex 2.400000 0.309359 -0.309359
  endloop
endfacet
facet normal 0.000000 0.608761 -0.793353
  outer loop
    vertex 2.400000 0.218750 -0.378886
    vertex 2.400000 0.309359 -0.309359
    vertex 4.800000 0.309359 -0.309359
  endloop
endfacet
facet normal 0.000000 0.793353 -0.608761
  outer loop
    vertex 4.800000 0.309359 -0.309359
    vertex 2.400000 0.309359 -0.309359
    vertex 4.800000 0.378886 -0.218750
  endloop
endfacet
facet normal 0.000000 0.793353 -0.608761
  outer loop
    vertex 4.800000 0.309359 -0.309359
    vertex 4.800000 0.378886 -0.218750
    vertex 7.200000 0.378886 -0.218750
  endloop
endfacet
facet normal 0.000000 0.923880 -0.382684
  outer loop
    vertex 7.200000 0.378886 -0.218750
    vertex 4.800000 0.378886 -0.218750
    vertex 7.200000 0.422593 -0.113233
  endloop
endfacet
facet normal 0.000000 0.923879 -0.382684
  outer loop
    vertex 7.200000 0.378886 -0.218750
    vertex 7.200000 0.422593 -0.113233
    vertex 9.600000 0.422593 -0.113233
  endloop
endfacet
facet normal 0.000000 0.971604 -0.236614
  outer loop
    vertex 9.600000 0.422593 -0.113233
    vertex 7.200000 0.422593 -0.113233
    vertex 0.000000 0.427337 -0.093750
  endloop
endfacet
facet normal -0.001069 0.658503 -0.752577
  outer loop
    vertex 0.000000 0.243999 -0.363140
    vertex 0.000000 0.327536 -0.290045
    vertex 2.400000 0.309359 -0.309359
  endloop
endfacet
facet normal 0.001110 0.793353 -0.608761
  outer loop
    vertex 2.400000 0.309359 -0.309359
    vertex 0.000000 0.327536 -0.290045
    vertex 2.400000 0.378886 -0.218750
  endloop
endfacet
facet normal 0.000000 0.793353 -0.608761
  outer loop
    vertex 2.400000 0.309359 -0.309359
    vertex 2.400000 0.378886 -0.218750
    vertex 4.800000 0.378886 -0.218750
  endloop
endfacet
facet normal 0.000000 0.923879 -0.382684
  outer loop
    vertex 4.800000 0.378886 -0.218750
    vertex 2.400000 0.378886 -0.218750
    vertex 4.800000 0.422593 -0.113233
  endloop
endfacet
facet normal 0.000000 0.923880 -0.382684
  outer loop
    vertex 4.800000 0.378886 -0.218750
    vertex 4.800000 0.422593 -0.113233
    vertex 7.200000 0.422593 -0.113233
  endloop
endfacet
facet normal 0.000000 0.971604 -0.236614
  outer loop
    vertex 7.200000 0.422593 -0.113233
    vertex 4.800000 0.422593 -0.113233
    vertex 0.000000 0.427337 -0.093750
  endloop
endfacet
facet normal -0.000974 0.826708 -0.562631
  outer loop
    vertex 0.000000 0.327536 -0.290045
    vertex 0.000000 0.389989 -0.198279
    vertex 2.400000 0.378886 -0.218750
  endloop
endfacet
facet normal 0.001010 0.923879 -0.382683
  outer loop
    vertex 2.400000 0.378886 -0.218750
    vertex 0.000000 0.389989 -0.198279
    vertex 2.400000 0.422593 -0.113233
  endloop
endfacet
facet normal 0.000000 0.923879 -0.382684
  outer loop
    vertex 2.400000 0.378886 -0.218750
    vertex 2.400000 0.422593 -0.113233
    vertex 4.800000 0.422593 -0.113233
  endloop
endfacet
facet normal 0.000000 0.971604 -0.236614
  outer loop
    vertex 4.800000 0.422593 -0.113233
    vertex 2.400000 0.422593 -0.113233
    vertex 0.000000 0.427337 -0.093750
  endloop
endfacet
facet normal -0.000870 0.941695 -0.336466
  outer loop
    vertex 0.000000 0.389989 -0.198279
    vertex 0.000000 0.427337 -0.093750
    vertex 2.400000 0.422593 -0.113233
  endloop
endfacet
facet normal 0.001348 -0.294356 0.955695
  outer loop
    vertex 24.000000 -0.180782 0.398402
    vertex 24.000000 -0.074699 0.431076
    vertex 21.600000 -0.113233 0.422593
  endloop
endfacet
facet normal -0.001409 -0.130526 0.991444
  outer loop
    vertex 21.600000 -0.113233 0.422593
    vertex 24.000000 -0.074699 0.431076
    vertex 21.600000 -0.000000 0.437500
  endloop
endfacet
facet normal 0.000000 -0.130526 0.991445
  outer loop
    vertex 21.600000 -0.113233 0.422593
    vertex 21.600000 -0.000000 0.437500
    vertex 19.200001 0.000000 0.437500
  endloop
endfacet
facet normal 0.000000 0.130526 0.991445
  outer loop
    vertex 19.200001 0.000000 0.437500
    vertex 21.600000 -0.000000 0.437500
    vertex 19.200001 0.113233 0.422593
  endloop
endfacet
facet normal 0.000000 0.130526 0.991445
  outer loop
    vertex 19.200001 0.000000 0.437500
    vertex 19.200001 0.113233 0.422593
    vertex 16.799999 0.113233 0.422593
  endloop
endfacet
facet normal -0.000000 0.382684 0.923880
  outer loop
    vertex 16.799999 0.113233 0.422593
    vertex 19.200001 0.113233 0.422593
    vertex 16.799999 0.218750 0.378886
  endloop
endfacet
facet normal 0.000000 0.382684 0.923880
  outer loop
    vertex 16.799999 0.113233 0.422593
    vertex 16.799999 0.218750 0.378886
    vertex 14.400000 0.218750 0.378886
  endloop
endfacet
facet normal -0.000000 0.608761 0.793353
  outer loop
    vertex 14.400000 0.218750 0.378886
    vertex 16.799999 0.218750 0.378886
    vertex 14.400000 0.309359 0.309359
  endloop
endfacet
facet normal 0.000000 0.608761 0.793353
  outer loop
    vertex 14.400000 0.218750 0.378886
    vertex 14.400000 0.309359 0.309359
    vertex 12.000000 0.309359 0.309359
  endloop
endfacet
facet normal -0.000000 0.793353 0.608761
  outer loop
    vertex 12.000000 0.309359 0.309359
    vertex 14.400000 0.309359 0.309359
    vertex 12.000000 0.378886 0.218750
  endloop
endfacet
facet normal 0.000000 0.793353 0.608761
  outer loop
    vertex 12.000000 0.309359 0.309359
    vertex 12.000000 0.378886 0.218750
    vertex 9.600000 0.378886 0.218750
  endloop
endfacet
facet normal -0.000000 0.923880 0.382684
  outer loop
    vertex 9.600000 0.378886 0.218750
    vertex 12.000000 0.378886 0.218750
    vertex 9.600000 0.422593 0.113233
  endloop
endfacet
facet normal 0.000000 0.923879 0.382684
  outer loop
    vertex 9.600000 0.378886 0.218750
    vertex 9.600000 0.422593 0.113233
    vertex 7.200000 0.422593 0.113233
  endloop
endfacet
facet normal -0.000000 0.971604 0.236614
  outer loop
    vertex 7.200000 0.422593 0.113233
    vertex 9.600000 0.422593 0.113233
    vertex 0.000000 0.427337 0.093750
  endloop
endfacet
facet normal 0.001293 -0.044365 0.999015
  outer loop
    vertex 24.000000 -0.074699 0.431076
    vertex 24.000000 0.036193 0.436000
    vertex 21.600000 -0.000000 0.437500
  endloop
endfacet
facet normal -0.001349 0.130526 0.991444
  outer loop
    vertex 21.600000 -0.000000 0.437500
    vertex 24.000000 0.036193 0.436000
    vertex 21.600000 0.113233 0.422593
  endloop
endfacet
facet normal 0.000000 0.130526 0.991445
  outer loop
    vertex 21.600000 -0.000000 0.437500
    vertex 21.600000 0.113233 0.422593
    vertex 19.200001 0.113233 0.422593
  endloop
endfacet
facet normal -0.000000 0.382684 0.923880
  outer loop
    vertex 19.200001 0.113233 0.422593
    vertex 21.600000 0.113233 0.422593
    vertex 19.200001 0.218750 0.378886
  endloop
endfacet
facet normal 0.000000 0.382684 0.923880
  outer loop
    vertex 19.200001 0.113233 0.422593
    vertex 19.200001 0.218750 0.378886
    vertex 16.799999 0.218750 0.378886
  endloop
endfacet
facet normal -0.000000 0.608761 0.793353
  outer loop
    vertex 16.799999 0.218750 0.378886
    vertex 19.200001 0.218750 0.378886
    vertex 16.799999 0.309359 0.309359
  endloop
endfacet
facet normal 0.000000 0.608761 0.793353
  outer loop
    vertex 16.799999 0.218750 0.378886
    vertex 16.799999 0.309359 0.309359
    vertex 14.400000 0.309359 0.309359
  endloop
endfacet
facet normal -0.000000 0.793353 0.608761
  outer loop
    vertex 14.400000 0.309359 0.309359
    vertex 16.799999 0.309359 0.309359
    vertex 14.400000 0.378886 0.218750
  endloop
endfacet
facet normal 0.000000 0.793353 0.608761
  outer loop
    vertex 14.400000 0.309359 0.309359
    vertex 14.400000 0.378886 0.218750
    vertex 12.000000 0.378886 0.218750
  endloop
endfacet
facet normal -0.000000 0.923880 0.382684
  outer loop
    vertex 12.000000 0.378886 0.218750
    vertex 14.400000 0.378886 0.218750
    vertex 12.000000 0.422593 0.113233
  endloop
endfacet
facet normal 0.000000 0.923880 0.382684
  outer loop
    vertex 12.000000 0.378886 0.218750
    vertex 12.000000 0.422593 0.113233
    vertex 9.600000 0.422593 0.113233
  endloop
endfacet
facet normal -0.000000 0.971604 0.236614
  outer loop
    vertex 9.600000 0.422593 0.113233
    vertex 12.000000 0.422593 0.113233
    vertex 0.000000 0.427337 0.093750
  endloop
endfacet
facet normal 0.001228 0.208482 0.978025
  outer loop
    vertex 24.000000 0.036193 0.436000
    vertex 24.000000 0.144755 0.412859
    vertex 21.600000 0.113233 0.422593
  endloop
endfacet
facet normal -0.001279 0.382683 0.923879
  outer loop
    vertex 21.600000 0.113233 0.422593
    vertex 24.000000 0.144755 0.412859
    vertex 21.600000 0.218750 0.378886
  endloop
endfacet
facet normal 0.000000 0.382684 0.923880
  outer loop
    vertex 21.600000 0.113233 0.422593
    vertex 21.600000 0.218750 0.378886
    vertex 19.200001 0.218750 0.378886
  endloop
endfacet
facet normal -0.000000 0.608761 0.793353
  outer loop
    vertex 19.200001 0.218750 0.378886
    vertex 21.600000 0.218750 0.378886
    vertex 19.200001 0.309359 0.309359
  endloop
endfacet
facet normal 0.000000 0.608761 0.793353
  outer loop
    vertex 19.200001 0.218750 0.378886
    vertex 19.200001 0.309359 0.309359
    vertex 16.799999 0.309359 0.309359
  endloop
endfacet
facet normal -0.000000 0.793353 0.608761
  outer loop
    vertex 16.799999 0.309359 0.309359
    vertex 19.200001 0.309359 0.309359
    vertex 16.799999 0.378886 0.218750
  endloop
endfacet
facet normal 0.000000 0.793353 0.608761
  outer loop
    vertex 16.799999 0.309359 0.309359
    vertex 16.799999 0.378886 0.218750
    vertex 14.400000 0.378886 0.218750
  endloop
endfacet
facet normal -0.000000 0.923880 0.382684
  outer loop
    vertex 14.400000 0.378886 0.218750
    vertex 16.799999 0.378886 0.218750
    vertex 14.400000 0.422593 0.113233
  endloop
endfacet
facet normal 0.000000 0.923880 0.382684
  outer loop
    vertex 14.400000 0.378886 0.218750
    vertex 14.400000 0.422593 0.113233
    vertex 12.000000 0.422593 0.113233
  endloop
endfacet
facet normal -0.000000 0.971604 0.236614
  outer loop
    vertex 12.000000 0.422593 0.113233
    vertex 14.400000 0.422593 0.113233
    vertex 24.000000 0.427337 0.093750
  endloop
endfacet
facet normal 0.000000 0.971604 0.236614
  outer loop
    vertex 12.000000 0.422593 0.113233
    vertex 24.000000 0.427337 0.093750
    vertex 0.000000 0.427337 0.093750
  endloop
endfacet
facet normal 0.001154 0.447910 0.894078
  outer loop
    vertex 24.000000 0.144755 0.412859
    vertex 24.000000 0.243999 0.363140
    vertex 21.600000 0.218750 0.378886
  endloop
endfacet
facet normal -0.001199 0.608761 0.793353
  outer loop
    vertex 21.600000 0.218750 0.378886
    vertex 24.000000 0.243999 0.363140
    vertex 21.600000 0.309359 0.309359
  endloop
endfacet
facet normal 0.000000 0.608761 0.793353
  outer loop
    vertex 21.600000 0.218750 0.378886
    vertex 21.600000 0.309359 0.309359
    vertex 19.200001 0.309359 0.309359
  endloop
endfacet
facet normal -0.000000 0.793353 0.608761
  outer loop
    vertex 19.200001 0.309359 0.309359
    vertex 21.600000 0.309359 0.309359
    vertex 19.200001 0.378886 0.218750
  endloop
endfacet
facet normal 0.000000 0.793353 0.608761
  outer loop
    vertex 19.200001 0.309359 0.309359
    vertex 19.200001 0.378886 0.218750
    vertex 16.799999 0.378886 0.218750
  endloop
endfacet
facet normal -0.000000 0.923880 0.382684
  outer loop
    vertex 16.799999 0.378886 0.218750
    vertex 19.200001 0.378886 0.218750
    vertex 16.799999 0.422593 0.113233
  endloop
endfacet
facet normal 0.000000 0.923880 0.382684
  outer loop
    vertex 16.799999 0.378886 0.218750
    vertex 16.799999 0.422593 0.113233
    vertex 14.400000 0.422593 0.113233
  endloop
endfacet
facet normal -0.000000 0.971604 0.236614
  outer loop
    vertex 14.400000 0.422593 0.113233
    vertex 16.799999 0.422593 0.113233
    vertex 24.000000 0.427337 0.093750
  endloop
endfacet
facet normal 0.001069 0.658503 0.752577
  outer loop
    vertex 24.000000 0.243999 0.363140
    vertex 24.000000 0.327536 0.290045
    vertex 21.600000 0.309359 0.309359
  endloop
endfacet
facet normal -0.001110 0.793353 0.608761
  outer loop
    vertex 21.600000 0.309359 0.309359
    vertex 24.000000 0.327536 0.290045
    vertex 21.600000 0.378886 0.218750
  endloop
endfacet
facet normal 0.000000 0.793353 0.608761
  outer loop
    vertex 21.600000 0.309359 0.309359
    vertex 21.600000 0.378886 0.218750
    vertex 19.200001 0.378886 0.218750
  endloop
endfacet
facet normal -0.000000 0.923880 0.382684
  outer loop
    vertex 19.200001 0.378886 0.218750
    vertex 21.600000 0.378886 0.218750
    vertex 19.200001 0.422593 0.113233
  endloop
endfacet
facet normal 0.000000 0.923880 0.382684
  outer loop
    vertex 19.200001 0.378886 0.218750
    vertex 19.200001 0.422593 0.113233
    vertex 16.799999 0.422593 0.113233
  endloop
endfacet
facet normal -0.000000 0.971604 0.236614
  outer loop
    vertex 16.799999 0.422593 0.113233
    vertex 19.200001 0.422593 0.113233
    vertex 24.000000 0.427337 0.093750
  endloop
endfacet
facet normal 0.000974 0.826708 0.562631
  outer loop
    vertex 24.000000 0.327536 0.290045
    vertex 24.000000 0.389989 0.198279
    vertex 21.600000 0.378886 0.218750
  endloop
endfacet
facet normal -0.001010 0.923879 0.382683
  outer loop
    vertex 21.600000 0.378886 0.218750
    vertex 24.000000 0.389989 0.198279
    vertex 21.600000 0.422593 0.113233
  endloop
endfacet
facet normal 0.000000 0.923880 0.382684
  outer loop
    vertex 21.600000 0.378886 0.218750
    vertex 21.600000 0.422593 0.113233
    vertex 19.200001 0.422593 0.113233
  endloop
endfacet
facet normal -0.000000 0.971604 0.236614
  outer loop
    vertex 19.200001 0.422593 0.113233
    vertex 21.600000 0.422593 0.113233
    vertex 24.000000 0.427337 0.093750
  endloop
endfacet
facet normal 0.000870 0.941695 0.336466
  outer loop
    vertex 24.000000 0.389989 0.198279
    vertex 24.000000 0.427337 0.093750
    vertex 21.600000 0.422593 0.113233
  endloop
endfacet
facet normal -0.000000 0.130526 0.991445
  outer loop
    vertex 2.400000 0.000000 0.437500
    vertex 4.800000 0.000000 0.437500
    vertex 2.400000 0.113233 0.422593
  endloop
endfacet
facet normal -0.000000 0.130526 0.991445
  outer loop
    vertex 2.400000 0.113233 0.422593
    vertex 4.800000 0.000000 0.437500
    vertex 4.800000 0.113233 0.422593
  endloop
endfacet
facet normal -0.000000 0.382684 0.923879
  outer loop
    vertex 2.400000 0.113233 0.422593
    vertex 4.800000 0.113233 0.422593
    vertex 2.400000 0.218750 0.378886
  endloop
endfacet
facet normal -0.000000 0.382684 0.923879
  outer loop
    vertex 2.400000 0.218750 0.378886
    vertex 4.800000 0.113233 0.422593
    vertex 4.800000 0.218750 0.378886
  endloop
endfacet
facet normal -0.000000 0.608761 0.793353
  outer loop
    vertex 2.400000 0.218750 0.378886
    vertex 4.800000 0.218750 0.378886
    vertex 2.400000 0.309359 0.309359
  endloop
endfacet
facet normal -0.000000 0.608761 0.793353
  outer loop
    vertex 2.400000 0.309359 0.309359
    vertex 4.800000 0.218750 0.378886
    vertex 4.800000 0.309359 0.309359
  endloop
endfacet
facet normal -0.000000 0.793353 0.608761
  outer loop
    vertex 2.400000 0.309359 0.309359
    vertex 4.800000 0.309359 0.309359
    vertex 2.400000 0.378886 0.218750
  endloop
endfacet
facet normal -0.000000 0.793353 0.608761
  outer loop
    vertex 2.400000 0.378886 0.218750
    vertex 4.800000 0.309359 0.309359
    vertex 4.800000 0.378886 0.218750
  endloop
endfacet
facet normal -0.000000 0.923879 0.382684
  outer loop
    vertex 2.400000 0.378886 0.218750
    vertex 4.800000 0.378886 0.218750
    vertex 2.400000 0.422593 0.113233
  endloop
endfacet
facet normal -0.000000 0.923879 0.382684
  outer loop
    vertex 2.400000 0.422593 0.113233
    vertex 4.800000 0.378886 0.218750
    vertex 4.800000 0.422593 0.113233
  endloop
endfacet
facet normal -0.000000 0.130526 0.991445
  outer loop
    vertex 4.800000 0.000000 0.437500
    vertex 7.200000 0.000000 0.437500
    vertex 4.800000 0.113233 0.422593
  endloop
endfacet
facet normal -0.000000 0.130526 0.991445
  outer loop
    vertex 4.800000 0.113233 0.422593
    vertex 7.200000 0.000000 0.437500
    vertex 7.200000 0.113233 0.422593
  endloop
endfacet
facet normal -0.000000 0.382684 0.923880
  outer loop
    vertex 4.800000 0.113233 0.422593
    vertex 7.200000 0.113233 0.422593
    vertex 4.800000 0.218750 0.378886
  endloop
endfacet
facet normal -0.000000 0.382684 0.923880
  outer loop
    vertex 4.800000 0.218750 0.378886
    vertex 7.200000 0.113233 0.422593
    vertex 7.200000 0.218750 0.378886
  endloop
endfacet
facet normal -0.000000 0.608761 0.793353
  outer loop
    vertex 4.800000 0.218750 0.378886
    vertex 7.200000 0.218750 0.378886
    vertex 4.800000 0.309359 0.309359
  endloop
endfacet
facet normal -0.000000 0.608761 0.793353
  outer loop
    vertex 4.800000 0.309359 0.309359
    vertex 7.200000 0.218750 0.378886
    vertex 7.200000 0.309359 0.309359
  endloop
endfacet
facet normal -0.000000 0.793353 0.608761
  outer loop
    vertex 4.800000 0.309359 0.309359
    vertex 7.200000 0.309359 0.309359
    vertex 4.800000 0.378886 0.218750
  endloop
endfacet
facet normal -0.000000 0.793353 0.608761
  outer loop
    vertex 4.800000 0.378886 0.218750
    vertex 7.200000 0.309359 0.309359
    vertex 7.200000 0.378886 0.218750
  endloop
endfacet
facet normal -0.000000 0.923880 0.382684
  outer loop
    vertex 4.800000 0.378886 0.218750
    vertex 7.200000 0.378886 0.218750
    vertex 4.800000 0.422593 0.113233
  endloop
endfacet
facet normal 0.000000 -0.130526 0.991445
  outer loop
    vertex 4.800000 0.000000 0.437500
    vertex 2.400000 0.000000 0.437500
    vertex 4.800000 -0.113233 0.422593
  endloop
endfacet
facet normal 0.000000 -0.130526 0.991445
  outer loop
    vertex 4.800000 -0.113233 0.422593
    vertex 2.400000 0.000000 0.437500
    vertex 2.400000 -0.113233 0.422593
  endloop
endfacet
facet normal 0.000000 -0.382684 0.923879
  outer loop
    vertex 4.800000 -0.113233 0.422593
    vertex 2.400000 -0.113233 0.422593
    vertex 4.800000 -0.218750 0.378886
  endloop
endfacet
facet normal 0.000000 -0.382684 0.923879
  outer loop
    vertex 4.800000 -0.218750 0.378886
    vertex 2.400000 -0.113233 0.422593
    vertex 2.400000 -0.218750 0.378886
  endloop
endfacet
facet normal 0.000000 -0.608761 0.793353
  outer loop
    vertex 4.800000 -0.218750 0.378886
    vertex 2.400000 -0.218750 0.378886
    vertex 4.800000 -0.309359 0.309359
  endloop
endfacet
facet normal 0.000000 -0.608761 0.793353
  outer loop
    vertex 4.800000 -0.309359 0.309359
    vertex 2.400000 -0.218750 0.378886
    vertex 2.400000 -0.309359 0.309359
  endloop
endfacet
facet normal 0.000000 -0.793353 0.608761
  outer loop
    vertex 4.800000 -0.309359 0.309359
    vertex 2.400000 -0.309359 0.309359
    vertex 4.800000 -0.378886 0.218750
  endloop
endfacet
facet normal 0.000000 -0.793353 0.608761
  outer loop
    vertex 4.800000 -0.378886 0.218750
    vertex 2.400000 -0.309359 0.309359
    vertex 2.400000 -0.378886 0.218750
  endloop
endfacet
facet normal 0.000000 -0.923879 0.382684
  outer loop
    vertex 4.800000 -0.378886 0.218750
    vertex 2.400000 -0.378886 0.218750
    vertex 4.800000 -0.422593 0.113233
  endloop
endfacet
facet normal 0.000000 -0.923879 0.382684
  outer loop
    vertex 4.800000 -0.422593 0.113233
    vertex 2.400000 -0.378886 0.218750
    vertex 2.400000 -0.422593 0.113233
  endloop
endfacet
facet normal 0.000000 -0.991445 0.130526
  outer loop
    vertex 4.800000 -0.422593 0.113233
    vertex 2.400000 -0.422593 0.113233
    vertex 4.800000 -0.437500 -0.000000
  endloop
endfacet
facet normal 0.000000 -0.991445 0.130526
  outer loop
    vertex 4.800000 -0.437500 -0.000000
    vertex 2.400000 -0.422593 0.113233
    vertex 2.400000 -0.437500 -0.000000
  endloop
endfacet
facet normal -0.000000 -0.991445 -0.130526
  outer loop
    vertex 4.800000 -0.437500 -0.000000
    vertex 2.400000 -0.437500 -0.000000
    vertex 4.800000 -0.422593 -0.113233
  endloop
endfacet
facet normal -0.000000 -0.991445 -0.130526
  outer loop
    vertex 4.800000 -0.422593 -0.113233
    vertex 2.400000 -0.437500 -0.000000
    vertex 2.400000 -0.422593 -0.113233
  endloop
endfacet
facet normal -0.000000 -0.923879 -0.382684
  outer loop
    vertex 4.800000 -0.422593 -0.113233
    vertex 2.400000 -0.422593 -0.113233
    vertex 4.800000 -0.378886 -0.218750
  endloop
endfacet
facet normal -0.000000 -0.923879 -0.382684
  outer loop
    vertex 4.800000 -0.378886 -0.218750
    vertex 2.400000 -0.422593 -0.113233
    vertex 2.400000 -0.378886 -0.218750
  endloop
endfacet
facet normal -0.000000 -0.793353 -0.608761
  outer loop
    vertex 4.800000 -0.378886 -0.218750
    vertex 2.400000 -0.378886 -0.218750
    vertex 4.800000 -0.309359 -0.309359
  endloop
endfacet
facet normal -0.000000 -0.793353 -0.608761
  outer loop
    vertex 4.800000 -0.309359 -0.309359
    vertex 2.400000 -0.378886 -0.218750
    vertex 2.400000 -0.309359 -0.309359
  endloop
endfacet
facet normal -0.000000 -0.608761 -0.793353
  outer loop
    vertex 4.800000 -0.309359 -0.309359
    vertex 2.400000 -0.309359 -0.309359
    vertex 4.800000 -0.218750 -0.378886
  endloop
endfacet
facet normal -0.000000 -0.608761 -0.793353
  outer loop
    vertex 4.800000 -0.218750 -0.378886
    vertex 2.400000 -0.309359 -0.309359
    vertex 2.400000 -0.218750 -0.378886
  endloop
endfacet
facet normal -0.000000 -0.382684 -0.923879
  outer loop
    vertex 4.800000 -0.218750 -0.378886
    vertex 2.400000 -0.218750 -0.378886
    vertex 4.800000 -0.113233 -0.422593
  endloop
endfacet
facet normal -0.000000 0.130526 0.991445
  outer loop
    vertex 7.200000 0.000000 0.437500
    vertex 9.600000 0.000000 0.437500
    vertex 7.200000 0.113233 0.422593
  endloop
endfacet
facet normal -0.000000 0.130526 0.991445
  outer loop
    vertex 7.200000 0.113233 0.422593
    vertex 9.600000 0.000000 0.437500
    vertex 9.600000 0.113233 0.422593
  endloop
endfacet
facet normal -0.000000 0.382684 0.923879
  outer loop
    vertex 7.200000 0.113233 0.422593
    vertex 9.600000 0.113233 0.422593
    vertex 7.200000 0.218750 0.378886
  endloop
endfacet
facet normal -0.000000 0.382684 0.923879
  outer loop
    vertex 7.200000 0.218750 0.378886
    vertex 9.600000 0.113233 0.422593
    vertex 9.600000 0.218750 0.378886
  endloop
endfacet
facet normal -0.000000 0.608761 0.793353
  outer loop
    vertex 7.200000 0.218750 0.378886
    vertex 9.600000 0.218750 0.378886
    vertex 7.200000 0.309359 0.309359
  endloop
endfacet
facet normal -0.000000 0.608761 0.793353
  outer loop
    vertex 7.200000 0.309359 0.309359
    vertex 9.600000 0.218750 0.378886
    vertex 9.600000 0.309359 0.309359
  endloop
endfacet
facet normal -0.000000 0.793353 0.608761
  outer loop
    vertex 7.200000 0.309359 0.309359
    vertex 9.600000 0.309359 0.309359
    vertex 7.200000 0.378886 0.218750
  endloop
endfacet
facet normal 0.000000 -0.130526 0.991445
  outer loop
    vertex 7.200000 0.000000 0.437500
    vertex 4.800000 0.000000 0.437500
    vertex 7.200000 -0.113233 0.422593
  endloop
endfacet
facet normal 0.000000 -0.130526 0.991445
  outer loop
    vertex 7.200000 -0.113233 0.422593
    vertex 4.800000 0.000000 0.437500
    vertex 4.800000 -0.113233 0.422593
  endloop
endfacet
facet normal 0.000000 -0.382684 0.923880
  outer loop
    vertex 7.200000 -0.113233 0.422593
    vertex 4.800000 -0.113233 0.422593
    vertex 7.200000 -0.218750 0.378886
  endloop
endfacet
facet normal 0.000000 -0.382684 0.923880
  outer loop
    vertex 7.200000 -0.218750 0.378886
    vertex 4.800000 -0.113233 0.422593
    vertex 4.800000 -0.218750 0.378886
  endloop
endfacet
facet normal 0.000000 -0.608761 0.793353
  outer loop
    vertex 7.200000 -0.218750 0.378886
    vertex 4.800000 -0.218750 0.378886
    vertex 7.200000 -0.309359 0.309359
  endloop
endfacet
facet normal 0.000000 -0.608761 0.793353
  outer loop
    vertex 7.200000 -0.309359 0.309359
    vertex 4.800000 -0.218750 0.378886
    vertex 4.800000 -0.309359 0.309359
  endloop
endfacet
facet normal 0.000000 -0.793353 0.608761
  outer loop
    vertex 7.200000 -0.309359 0.309359
    vertex 4.800000 -0.309359 0.309359
    vertex 7.200000 -0.378886 0.218750
  endloop
endfacet
facet normal 0.000000 -0.793353 0.608761
  outer loop
    vertex 7.200000 -0.378886 0.218750
    vertex 4.800000 -0.309359 0.309359
    vertex 4.800000 -0.378886 0.218750
  endloop
endfacet
facet normal 0.000000 -0.923880 0.382684
  outer loop
    vertex 7.200000 -0.378886 0.218750
    vertex 4.800000 -0.378886 0.218750
    vertex 7.200000 -0.422593 0.113233
  endloop
endfacet
facet normal 0.000000 -0.923880 0.382684
  outer loop
    vertex 7.200000 -0.422593 0.113233
    vertex 4.800000 -0.378886 0.218750
    vertex 4.800000 -0.422593 0.113233
  endloop
endfacet
facet normal 0.000000 -0.991445 0.130526
  outer loop
    vertex 7.200000 -0.422593 0.113233
    vertex 4.800000 -0.422593 0.113233
    vertex 7.200000 -0.437500 -0.000000
  endloop
endfacet
facet normal 0.000000 -0.991445 0.130526
  outer loop
    vertex 7.200000 -0.437500 -0.000000
    vertex 4.800000 -0.422593 0.113233
    vertex 4.800000 -0.437500 -0.000000
  endloop
endfacet
facet normal -0.000000 -0.991445 -0.130526
  outer loop
    vertex 7.200000 -0.437500 -0.000000
    vertex 4.800000 -0.437500 -0.000000
    vertex 7.200000 -0.422593 -0.113233
  endloop
endfacet
facet normal -0.000000 -0.991445 -0.130526
  outer loop
    vertex 7.200000 -0.422593 -0.113233
    vertex 4.800000 -0.437500 -0.000000
    vertex 4.800000 -0.422593 -0.113233
  endloop
endfacet
facet normal -0.000000 -0.923880 -0.382684
  outer loop
    vertex 7.200000 -0.422593 -0.113233
    vertex 4.800000 -0.422593 -0.113233
    vertex 7.200000 -0.378886 -0.218750
  endloop
endfacet
facet normal -0.000000 -0.923880 -0.382684
  outer loop
    vertex 7.200000 -0.378886 -0.218750
    vertex 4.800000 -0.422593 -0.113233
    vertex 4.800000 -0.378886 -0.218750
  endloop
endfacet
facet normal -0.000000 -0.793353 -0.608761
  outer loop
    vertex 7.200000 -0.378886 -0.218750
    vertex 4.800000 -0.378886 -0.218750
    vertex 7.200000 -0.309359 -0.309359
  endloop
endfacet
facet normal -0.000000 -0.793353 -0.608761
  outer loop
    vertex 7.200000 -0.309359 -0.309359
    vertex 4.800000 -0.378886 -0.218750
    vertex 4.800000 -0.309359 -0.309359
  endloop
endfacet
facet normal -0.000000 -0.608761 -0.793353
  outer loop
    vertex 7.200000 -0.309359 -0.309359
    vertex 4.800000 -0.309359 -0.309359
    vertex 7.200000 -0.218750 -0.378886
  endloop
endfacet
facet normal -0.000000 -0.608761 -0.793353
  outer loop
    vertex 7.200000 -0.218750 -0.378886
    vertex 4.800000 -0.309359 -0.309359
    vertex 4.800000 -0.218750 -0.378886
  endloop
endfacet
facet normal -0.000000 -0.382684 -0.923880
  outer loop
    vertex 7.200000 -0.218750 -0.378886
    vertex 4.800000 -0.218750 -0.378886
    vertex 7.200000 -0.113233 -0.422593
  endloop
endfacet
facet normal -0.000000 -0.382684 -0.923880
  outer loop
    vertex 7.200000 -0.113233 -0.422593
    vertex 4.800000 -0.218750 -0.378886
    vertex 4.800000 -0.113233 -0.422593
  endloop
endfacet
facet normal -0.000000 -0.130526 -0.991445
  outer loop
    vertex 7.200000 -0.113233 -0.422593
    vertex 4.800000 -0.113233 -0.422593
    vertex 7.200000 0.000000 -0.437500
  endloop
endfacet
facet normal -0.000000 0.130526 0.991445
  outer loop
    vertex 9.600000 0.000000 0.437500
    vertex 12.000000 0.000000 0.437500
    vertex 9.600000 0.113233 0.422593
  endloop
endfacet
facet normal -0.000000 0.130526 0.991445
  outer loop
    vertex 9.600000 0.113233 0.422593
    vertex 12.000000 0.000000 0.437500
    vertex 12.000000 0.113233 0.422593
  endloop
endfacet
facet normal -0.000000 0.382684 0.923880
  outer loop
    vertex 9.600000 0.113233 0.422593
    vertex 12.000000 0.113233 0.422593
    vertex 9.600000 0.218750 0.378886
  endloop
endfacet
facet normal -0.000000 0.382684 0.923880
  outer loop
    vertex 9.600000 0.218750 0.378886
    vertex 12.000000 0.113233 0.422593
    vertex 12.000000 0.218750 0.378886
  endloop
endfacet
facet normal -0.000000 0.608761 0.793353
  outer loop
    vertex 9.600000 0.218750 0.378886
    vertex 12.000000 0.218750 0.378886
    vertex 9.600000 0.309359 0.309359
  endloop
endfacet
facet normal 0.000000 -0.130526 0.991445
  outer loop
    vertex 9.600000 0.000000 0.437500
    vertex 7.200000 0.000000 0.437500
    vertex 9.600000 -0.113233 0.422593
  endloop
endfacet
facet normal 0.000000 -0.130526 0.991445
  outer loop
    vertex 9.600000 -0.113233 0.422593
    vertex 7.200000 0.000000 0.437500
    vertex 7.200000 -0.113233 0.422593
  endloop
endfacet
facet normal 0.000000 -0.382684 0.923879
  outer loop
    vertex 9.600000 -0.113233 0.422593
    vertex 7.200000 -0.113233 0.422593
    vertex 9.600000 -0.218750 0.378886
  endloop
endfacet
facet normal 0.000000 -0.382684 0.923879
  outer loop
    vertex 9.600000 -0.218750 0.378886
    vertex 7.200000 -0.113233 0.422593
    vertex 7.200000 -0.218750 0.378886
  endloop
endfacet
facet normal 0.000000 -0.608761 0.793353
  outer loop
    vertex 9.600000 -0.218750 0.378886
    vertex 7.200000 -0.218750 0.378886
    vertex 9.600000 -0.309359 0.309359
  endloop
endfacet
facet normal 0.000000 -0.608761 0.793353
  outer loop
    vertex 9.600000 -0.309359 0.309359
    vertex 7.200000 -0.218750 0.378886
    vertex 7.200000 -0.309359 0.309359
  endloop
endfacet
facet normal 0.000000 -0.793353 0.608761
  outer loop
    vertex 9.600000 -0.309359 0.309359
    vertex 7.200000 -0.309359 0.309359
    vertex 9.600000 -0.378886 0.218750
  endloop
endfacet
facet normal 0.000000 -0.793353 0.608761
  outer loop
    vertex 9.600000 -0.378886 0.218750
    vertex 7.200000 -0.309359 0.309359
    vertex 7.200000 -0.378886 0.218750
  endloop
endfacet
facet normal 0.000000 -0.923879 0.382684
  outer loop
    vertex 9.600000 -0.378886 0.218750
    vertex 7.200000 -0.378886 0.218750
    vertex 9.600000 -0.422593 0.113233
  endloop
endfacet
facet normal 0.000000 -0.923879 0.382684
  outer loop
    vertex 9.600000 -0.422593 0.113233
    vertex 7.200000 -0.378886 0.218750
    vertex 7.200000 -0.422593 0.113233
  endloop
endfacet
facet normal 0.000000 -0.991445 0.130526
  outer loop
    vertex 9.600000 -0.422593 0.113233
    vertex 7.200000 -0.422593 0.113233
    vertex 9.600000 -0.437500 -0.000000
  endloop
endfacet
facet normal 0.000000 -0.991445 0.130526
  outer loop
    vertex 9.600000 -0.437500 -0.000000
    vertex 7.200000 -0.422593 0.113233
    vertex 7.200000 -0.437500 -0.000000
  endloop
endfacet
facet normal -0.000000 -0.991445 -0.130526
  outer loop
    vertex 9.600000 -0.437500 -0.000000
    vertex 7.200000 -0.437500 -0.000000
    vertex 9.600000 -0.422593 -0.113233
  endloop
endfacet
facet normal -0.000000 -0.991445 -0.130526
  outer loop
    vertex 9.600000 -0.422593 -0.113233
    vertex 7.200000 -0.437500 -0.000000
    vertex 7.200000 -0.422593 -0.113233
  endloop
endfacet
facet normal -0.000000 -0.923879 -0.382684
  outer loop
    vertex 9.600000 -0.422593 -0.113233
    vertex 7.200000 -0.422593 -0.113233
    vertex 9.600000 -0.378886 -0.218750
  endloop
endfacet
facet normal -0.000000 -0.923879 -0.382684
  outer loop
    vertex 9.600000 -0.378886 -0.218750
    vertex 7.200000 -0.422593 -0.113233
    vertex 7.200000 -0.378886 -0.218750
  endloop
endfacet
facet normal -0.000000 -0.793353 -0.608761
  outer loop
    vertex 9.600000 -0.378886 -0.218750
    vertex 7.200000 -0.378886 -0.218750
    vertex 9.600000 -0.309359 -0.309359
  endloop
endfacet
facet normal -0.000000 -0.793353 -0.608761
  outer loop
    vertex 9.600000 -0.309359 -0.309359
    vertex 7.200000 -0.378886 -0.218750
    vertex 7.200000 -0.309359 -0.309359
  endloop
endfacet
facet normal -0.000000 -0.608761 -0.793353
  outer loop
    vertex 9.600000 -0.309359 -0.309359
    vertex 7.200000 -0.309359 -0.309359
    vertex 9.600000 -0.218750 -0.378886
  endloop
endfacet
facet normal -0.000000 -0.608761 -0.793353
  outer loop
    vertex 9.600000 -0.218750 -0.378886
    vertex 7.200000 -0.309359 -0.309359
    vertex 7.200000 -0.218750 -0.378886
  endloop
endfacet
facet normal -0.000000 -0.382684 -0.923879
  outer loop
    vertex 9.600000 -0.218750 -0.378886
    vertex 7.200000 -0.218750 -0.378886
    vertex 9.600000 -0.113233 -0.422593
  endloop
endfacet
facet normal -0.000000 -0.382684 -0.923879
  outer loop
    vertex 9.600000 -0.113233 -0.422593
    vertex 7.200000 -0.218750 -0.378886
    vertex 7.200000 -0.113233 -0.422593
  endloop
endfacet
facet normal -0.000000 -0.130526 -0.991445
  outer loop
    vertex 9.600000 -0.113233 -0.422593
    vertex 7.200000 -0.113233 -0.422593
    vertex 9.600000 0.000000 -0.437500
  endloop
endfacet
facet normal -0.000000 -0.130526 -0.991445
  outer loop
    vertex 9.600000 0.000000 -0.437500
    vertex 7.200000 -0.113233 -0.422593
    vertex 7.200000 0.000000 -0.437500
  endloop
endfacet
facet normal 0.000000 0.130526 -0.991445
  outer loop
    vertex 9.600000 0.000000 -0.437500
    vertex 7.200000 0.000000 -0.437500
    vertex 9.600000 0.113233 -0.422593
  endloop
endfacet
facet normal -0.000000 0.130526 0.991445
  outer loop
    vertex 12.000000 0.000000 0.437500
    vertex 14.400000 0.000000 0.437500
    vertex 12.000000 0.113233 0.422593
  endloop
endfacet
facet normal -0.000000 0.130526 0.991445
  outer loop
    vertex 12.000000 0.113233 0.422593
    vertex 14.400000 0.000000 0.437500
    vertex 14.400000 0.113233 0.422593
  endloop
endfacet
facet normal -0.000000 0.382684 0.923880
  outer loop
    vertex 12.000000 0.113233 0.422593
    vertex 14.400000 0.113233 0.422593
    vertex 12.000000 0.218750 0.378886
  endloop
endfacet
facet normal 0.000000 -0.130526 0.991445
  outer loop
    vertex 12.000000 0.000000 0.437500
    vertex 9.600000 0.000000 0.437500
    vertex 12.000000 -0.113233 0.422593
  endloop
endfacet
facet normal 0.000000 -0.130526 0.991445
  outer loop
    vertex 12.000000 -0.113233 0.422593
    vertex 9.600000 0.000000 0.437500
    vertex 9.600000 -0.113233 0.422593
  endloop
endfacet
facet normal 0.000000 -0.382684 0.923880
  outer loop
    vertex 12.000000 -0.113233 0.422593
    vertex 9.600000 -0.113233 0.422593
    vertex 12.000000 -0.218750 0.378886
  endloop
endfacet
facet normal 0.000000 -0.382684 0.923880
  outer loop
    vertex 12.000000 -0.218750 0.378886
    vertex 9.600000 -0.113233 0.422593
    vertex 9.600000 -0.218750 0.378886
  endloop
endfacet
facet normal 0.000000 -0.608761 0.793353
  outer loop
    vertex 12.000000 -0.218750 0.378886
    vertex 9.600000 -0.218750 0.378886
    vertex 12.000000 -0.309359 0.309359
  endloop
endfacet
facet normal 0.000000 -0.608761 0.793353
  outer loop
    vertex 12.000000 -0.309359 0.309359
    vertex 9.600000 -0.218750 0.378886
    vertex 9.600000 -0.309359 0.309359
  endloop
endfacet
facet normal 0.000000 -0.793353 0.608761
  outer loop
    vertex 12.000000 -0.309359 0.309359
    vertex 9.600000 -0.309359 0.309359
    vertex 12.000000 -0.378886 0.218750
  endloop
endfacet
facet normal 0.000000 -0.793353 0.608761
  outer loop
    vertex 12.000000 -0.378886 0.218750
    vertex 9.600000 -0.309359 0.309359
    vertex 9.600000 -0.378886 0.218750
  endloop
endfacet
facet normal 0.000000 -0.923880 0.382684
  outer loop
    vertex 12.000000 -0.378886 0.218750
    vertex 9.600000 -0.378886 0.218750
    vertex 12.000000 -0.422593 0.113233
  endloop
endfacet
facet normal 0.000000 -0.923880 0.382684
  outer loop
    vertex 12.000000 -0.422593 0.113233
    vertex 9.600000 -0.378886 0.218750
    vertex 9.600000 -0.422593 0.113233
  endloop
endfacet
facet normal 0.000000 -0.991445 0.130526
  outer loop
    vertex 12.000000 -0.422593 0.113233
    vertex 9.600000 -0.422593 0.113233
    vertex 12.000000 -0.437500 -0.000000
  endloop
endfacet
facet normal 0.000000 -0.991445 0.130526
  outer loop
    vertex 12.000000 -0.437500 -0.000000
    vertex 9.600000 -0.422593 0.113233
    vertex 9.600000 -0.437500 -0.000000
  endloop
endfacet
facet normal -0.000000 -0.991445 -0.130526
  outer loop
    vertex 12.000000 -0.437500 -0.000000
    vertex 9.600000 -0.437500 -0.000000
    vertex 12.000000 -0.422593 -0.113233
  endloop
endfacet
facet normal -0.000000 -0.991445 -0.130526
  outer loop
    vertex 12.000000 -0.422593 -0.113233
    vertex 9.600000 -0.437500 -0.000000
    vertex 9.600000 -0.422593 -0.113233
  endloop
endfacet
facet normal -0.000000 -0.923880 -0.382684
  outer loop
    vertex 12.000000 -0.422593 -0.113233
    vertex 9.600000 -0.422593 -0.113233
    vertex 12.000000 -0.378886 -0.218750
  endloop
endfacet
facet normal -0.000000 -0.923880 -0.382684
  outer loop
    vertex 12.000000 -0.378886 -0.218750
    vertex 9.600000 -0.422593 -0.113233
    vertex 9.600000 -0.378886 -0.218750
  endloop
endfacet
facet normal -0.000000 -0.793353 -0.608761
  outer loop
    vertex 12.000000 -0.378886 -0.218750
    vertex 9.600000 -0.378886 -0.218750
    vertex 12.000000 -0.309359 -0.309359
  endloop
endfacet
facet normal -0.000000 -0.793353 -0.608761
  outer loop
    vertex 12.000000 -0.309359 -0.309359
    vertex 9.600000 -0.378886 -0.218750
    vertex 9.600000 -0.309359 -0.309359
  endloop
endfacet
facet normal -0.000000 -0.608761 -0.793353
  outer loop
    vertex 12.000000 -0.309359 -0.309359
    vertex 9.600000 -0.309359 -0.309359
    vertex 12.000000 -0.218750 -0.378886
  endloop
endfacet
facet normal -0.000000 -0.608761 -0.793353
  outer loop
    vertex 12.000000 -0.218750 -0.378886
    vertex 9.600000 -0.309359 -0.309359
    vertex 9.600000 -0.218750 -0.378886
  endloop
endfacet
facet normal -0.000000 -0.382684 -0.923880
  outer loop
    vertex 12.000000 -0.218750 -0.378886
    vertex 9.600000 -0.218750 -0.378886
    vertex 12.000000 -0.113233 -0.422593
  endloop
endfacet
facet normal -0.000000 -0.382684 -0.923880
  outer loop
    vertex 12.000000 -0.113233 -0.422593
    vertex 9.600000 -0.218750 -0.378886
    vertex 9.600000 -0.113233 -0.422593
  endloop
endfacet
facet normal -0.000000 -0.130526 -0.991445
  outer loop
    vertex 12.000000 -0.113233 -0.422593
    vertex 9.600000 -0.113233 -0.422593
    vertex 12.000000 0.000000 -0.437500
  endloop
endfacet
facet normal -0.000000 -0.130526 -0.991445
  outer loop
    vertex 12.000000 0.000000 -0.437500
    vertex 9.600000 -0.113233 -0.422593
    vertex 9.600000 0.000000 -0.437500
  endloop
endfacet
facet normal 0.000000 0.130526 -0.991445
  outer loop
    vertex 12.000000 0.000000 -0.437500
    vertex 9.600000 0.000000 -0.437500
    vertex 12.000000 0.113233 -0.422593
  endloop
endfacet
facet normal 0.000000 0.130526 -0.991445
  outer loop
    vertex 12.000000 0.113233 -0.422593
    vertex 9.600000 0.000000 -0.437500
    vertex 9.600000 0.113233 -0.422593
  endloop
endfacet
facet normal 0.000000 0.382684 -0.923880
  outer loop
    vertex 12.000000 0.113233 -0.422593
    vertex 9.600000 0.113233 -0.422593
    vertex 12.000000 0.218750 -0.378886
  endloop
endfacet
facet normal 0.000000 0.130526 0.991445
  outer loop
    vertex 14.400000 0.113233 0.422593
    vertex 14.400000 0.000000 0.437500
    vertex 16.799999 0.000000 0.437500
  endloop
endfacet
facet normal 0.000000 -0.130526 0.991445
  outer loop
    vertex 16.799999 0.000000 0.437500
    vertex 14.400000 0.000000 0.437500
    vertex 16.799999 -0.113233 0.422593
  endloop
endfacet
facet normal 0.000000 -0.130526 0.991445
  outer loop
    vertex 16.799999 0.000000 0.437500
    vertex 16.799999 -0.113233 0.422593
    vertex 19.200001 -0.113233 0.422593
  endloop
endfacet
facet normal 0.000000 -0.382684 0.923880
  outer loop
    vertex 19.200001 -0.113233 0.422593
    vertex 16.799999 -0.113233 0.422593
    vertex 19.200001 -0.218750 0.378886
  endloop
endfacet
facet normal 0.000000 -0.382684 0.923880
  outer loop
    vertex 19.200001 -0.113233 0.422593
    vertex 19.200001 -0.218750 0.378886
    vertex 21.600000 -0.218750 0.378886
  endloop
endfacet
facet normal 0.000000 -0.608761 0.793353
  outer loop
    vertex 21.600000 -0.218750 0.378886
    vertex 19.200001 -0.218750 0.378886
    vertex 21.600000 -0.309359 0.309359
  endloop
endfacet
facet normal 0.000000 -0.130526 0.991445
  outer loop
    vertex 14.400000 0.000000 0.437500
    vertex 12.000000 0.000000 0.437500
    vertex 14.400000 -0.113233 0.422593
  endloop
endfacet
facet normal 0.000000 -0.130526 0.991445
  outer loop
    vertex 14.400000 -0.113233 0.422593
    vertex 12.000000 0.000000 0.437500
    vertex 12.000000 -0.113233 0.422593
  endloop
endfacet
facet normal 0.000000 -0.382684 0.923880
  outer loop
    vertex 14.400000 -0.113233 0.422593
    vertex 12.000000 -0.113233 0.422593
    vertex 14.400000 -0.218750 0.378886
  endloop
endfacet
facet normal 0.000000 -0.382684 0.923880
  outer loop
    vertex 14.400000 -0.218750 0.378886
    vertex 12.000000 -0.113233 0.422593
    vertex 12.000000 -0.218750 0.378886
  endloop
endfacet
facet normal 0.000000 -0.608761 0.793353
  outer loop
    vertex 14.400000 -0.218750 0.378886
    vertex 12.000000 -0.218750 0.378886
    vertex 14.400000 -0.309359 0.309359
  endloop
endfacet
facet normal 0.000000 -0.608761 0.793353
  outer loop
    vertex 14.400000 -0.309359 0.309359
    vertex 12.000000 -0.218750 0.378886
    vertex 12.000000 -0.309359 0.309359
  endloop
endfacet
facet normal 0.000000 -0.793353 0.608761
  outer loop
    vertex 14.400000 -0.309359 0.309359
    vertex 12.000000 -0.309359 0.309359
    vertex 14.400000 -0.378886 0.218750
  endloop
endfacet
facet normal 0.000000 -0.793353 0.608761
  outer loop
    vertex 14.400000 -0.378886 0.218750
    vertex 12.000000 -0.309359 0.309359
    vertex 12.000000 -0.378886 0.218750
  endloop
endfacet
facet normal 0.000000 -0.923880 0.382684
  outer loop
    vertex 14.400000 -0.378886 0.218750
    vertex 12.000000 -0.378886 0.218750
    vertex 14.400000 -0.422593 0.113233
  endloop
endfacet
facet normal 0.000000 -0.923880 0.382684
  outer loop
    vertex 14.400000 -0.422593 0.113233
    vertex 12.000000 -0.378886 0.218750
    vertex 12.000000 -0.422593 0.113233
  endloop
endfacet
facet normal 0.000000 -0.991445 0.130526
  outer loop
    vertex 14.400000 -0.422593 0.113233
    vertex 12.000000 -0.422593 0.113233
    vertex 14.400000 -0.437500 -0.000000
  endloop
endfacet
facet normal 0.000000 -0.991445 0.130526
  outer loop
    vertex 14.400000 -0.437500 -0.000000
    vertex 12.000000 -0.422593 0.113233
    vertex 12.000000 -0.437500 -0.000000
  endloop
endfacet
facet normal -0.000000 -0.991445 -0.130526
  outer loop
    vertex 14.400000 -0.437500 -0.000000
    vertex 12.000000 -0.437500 -0.000000
    vertex 14.400000 -0.422593 -0.113233
  endloop
endfacet
facet normal -0.000000 -0.991445 -0.130526
  outer loop
    vertex 14.400000 -0.422593 -0.113233
    vertex 12.000000 -0.437500 -0.000000
    vertex 12.000000 -0.422593 -0.113233
  endloop
endfacet
facet normal -0.000000 -0.923880 -0.382684
  outer loop
    vertex 14.400000 -0.422593 -0.113233
    vertex 12.000000 -0.422593 -0.113233
    vertex 14.400000 -0.378886 -0.218750
  endloop
endfacet
facet normal -0.000000 -0.923880 -0.382684
  outer loop
    vertex 14.400000 -0.378886 -0.218750
    vertex 12.000000 -0.422593 -0.113233
    vertex 12.000000 -0.378886 -0.218750
  endloop
endfacet
facet normal -0.000000 -0.793353 -0.608761
  outer loop
    vertex 14.400000 -0.378886 -0.218750
    vertex 12.000000 -0.378886 -0.218750
    vertex 14.400000 -0.309359 -0.309359
  endloop
endfacet
facet normal -0.000000 -0.793353 -0.608761
  outer loop
    vertex 14.400000 -0.309359 -0.309359
    vertex 12.000000 -0.378886 -0.218750
    vertex 12.000000 -0.309359 -0.309359
  endloop
endfacet
facet normal -0.000000 -0.608761 -0.793353
  outer loop
    vertex 14.400000 -0.309359 -0.309359
    vertex 12.000000 -0.309359 -0.309359
    vertex 14.400000 -0.218750 -0.378886
  endloop
endfacet
facet normal -0.000000 -0.608761 -0.793353
  outer loop
    vertex 14.400000 -0.218750 -0.378886
    vertex 12.000000 -0.309359 -0.309359
    vertex 12.000000 -0.218750 -0.378886
  endloop
endfacet
facet normal -0.000000 -0.382684 -0.923880
  outer loop
    vertex 14.400000 -0.218750 -0.378886
    vertex 12.000000 -0.218750 -0.378886
    vertex 14.400000 -0.113233 -0.422593
  endloop
endfacet
facet normal -0.000000 -0.382684 -0.923880
  outer loop
    vertex 14.400000 -0.113233 -0.422593
    vertex 12.000000 -0.218750 -0.378886
    vertex 12.000000 -0.113233 -0.422593
  endloop
endfacet
facet normal -0.000000 -0.130526 -0.991445
  outer loop
    vertex 14.400000 -0.113233 -0.422593
    vertex 12.000000 -0.113233 -0.422593
    vertex 14.400000 0.000000 -0.437500
  endloop
endfacet
facet normal -0.000000 -0.130526 -0.991445
  outer loop
    vertex 14.400000 0.000000 -0.437500
    vertex 12.000000 -0.113233 -0.422593
    vertex 12.000000 0.000000 -0.437500
  endloop
endfacet
facet normal 0.000000 0.130526 -0.991445
  outer loop
    vertex 14.400000 0.000000 -0.437500
    vertex 12.000000 0.000000 -0.437500
    vertex 14.400000 0.113233 -0.422593
  endloop
endfacet
facet normal 0.000000 0.130526 -0.991445
  outer loop
    vertex 14.400000 0.113233 -0.422593
    vertex 12.000000 0.000000 -0.437500
    vertex 12.000000 0.113233 -0.422593
  endloop
endfacet
facet normal 0.000000 0.382684 -0.923880
  outer loop
    vertex 14.400000 0.113233 -0.422593
    vertex 12.000000 0.113233 -0.422593
    vertex 14.400000 0.218750 -0.378886
  endloop
endfacet
facet normal 0.000000 0.382684 -0.923880
  outer loop
    vertex 14.400000 0.218750 -0.378886
    vertex 12.000000 0.113233 -0.422593
    vertex 12.000000 0.218750 -0.378886
  endloop
endfacet
facet normal 0.000000 0.608761 -0.793353
  outer loop
    vertex 14.400000 0.218750 -0.378886
    vertex 12.000000 0.218750 -0.378886
    vertex 14.400000 0.309359 -0.309359
  endloop
endfacet
facet normal 0.000000 -0.130526 0.991445
  outer loop
    vertex 14.400000 0.000000 0.437500
    vertex 14.400000 -0.113233 0.422593
    vertex 16.799999 -0.113233 0.422593
  endloop
endfacet
facet normal 0.000000 -0.382684 0.923880
  outer loop
    vertex 16.799999 -0.113233 0.422593
    vertex 14.400000 -0.113233 0.422593
    vertex 16.799999 -0.218750 0.378886
  endloop
endfacet
facet normal 0.000000 -0.382684 0.923880
  outer loop
    vertex 16.799999 -0.113233 0.422593
    vertex 16.799999 -0.218750 0.378886
    vertex 19.200001 -0.218750 0.378886
  endloop
endfacet
facet normal 0.000000 -0.608761 0.793353
  outer loop
    vertex 19.200001 -0.218750 0.378886
    vertex 16.799999 -0.218750 0.378886
    vertex 19.200001 -0.309359 0.309359
  endloop
endfacet
facet normal 0.000000 -0.608761 0.793353
  outer loop
    vertex 19.200001 -0.218750 0.378886
    vertex 19.200001 -0.309359 0.309359
    vertex 21.600000 -0.309359 0.309359
  endloop
endfacet
facet normal 0.000000 -0.793353 0.608761
  outer loop
    vertex 21.600000 -0.309359 0.309359
    vertex 19.200001 -0.309359 0.309359
    vertex 21.600000 -0.378886 0.218750
  endloop
endfacet
facet normal 0.000000 -0.382684 0.923880
  outer loop
    vertex 16.799999 -0.218750 0.378886
    vertex 14.400000 -0.113233 0.422593
    vertex 14.400000 -0.218750 0.378886
  endloop
endfacet
facet normal 0.000000 -0.608761 0.793353
  outer loop
    vertex 16.799999 -0.218750 0.378886
    vertex 14.400000 -0.218750 0.378886
    vertex 16.799999 -0.309359 0.309359
  endloop
endfacet
facet normal 0.000000 -0.608761 0.793353
  outer loop
    vertex 16.799999 -0.309359 0.309359
    vertex 14.400000 -0.218750 0.378886
    vertex 14.400000 -0.309359 0.309359
  endloop
endfacet
facet normal 0.000000 -0.793353 0.608761
  outer loop
    vertex 16.799999 -0.309359 0.309359
    vertex 14.400000 -0.309359 0.309359
    vertex 16.799999 -0.378886 0.218750
  endloop
endfacet
facet normal 0.000000 -0.793353 0.608761
  outer loop
    vertex 16.799999 -0.378886 0.218750
    vertex 14.400000 -0.309359 0.309359
    vertex 14.400000 -0.378886 0.218750
  endloop
endfacet
facet normal 0.000000 -0.923880 0.382684
  outer loop
    vertex 16.799999 -0.378886 0.218750
    vertex 14.400000 -0.378886 0.218750
    vertex 16.799999 -0.422593 0.113233
  endloop
endfacet
facet normal 0.000000 -0.923880 0.382684
  outer loop
    vertex 16.799999 -0.422593 0.113233
    vertex 14.400000 -0.378886 0.218750
    vertex 14.400000 -0.422593 0.113233
  endloop
endfacet
facet normal 0.000000 -0.991445 0.130526
  outer loop
    vertex 16.799999 -0.422593 0.113233
    vertex 14.400000 -0.422593 0.113233
    vertex 16.799999 -0.437500 -0.000000
  endloop
endfacet
facet normal 0.000000 -0.991445 0.130526
  outer loop
    vertex 16.799999 -0.437500 -0.000000
    vertex 14.400000 -0.422593 0.113233
    vertex 14.400000 -0.437500 -0.000000
  endloop
endfacet
facet normal -0.000000 -0.991445 -0.130526
  outer loop
    vertex 16.799999 -0.437500 -0.000000
    vertex 14.400000 -0.437500 -0.000000
    vertex 16.799999 -0.422593 -0.113233
  endloop
endfacet
facet normal -0.000000 -0.991445 -0.130526
  outer loop
    vertex 16.799999 -0.422593 -0.113233
    vertex 14.400000 -0.437500 -0.000000
    vertex 14.400000 -0.422593 -0.113233
  endloop
endfacet
facet normal -0.000000 -0.923880 -0.382684
  outer loop
    vertex 16.799999 -0.422593 -0.113233
    vertex 14.400000 -0.422593 -0.113233
    vertex 16.799999 -0.378886 -0.218750
  endloop
endfacet
facet normal -0.000000 -0.923880 -0.382684
  outer loop
    vertex 16.799999 -0.378886 -0.218750
    vertex 14.400000 -0.422593 -0.113233
    vertex 14.400000 -0.378886 -0.218750
  endloop
endfacet
facet normal -0.000000 -0.793353 -0.608761
  outer loop
    vertex 16.799999 -0.378886 -0.218750
    vertex 14.400000 -0.378886 -0.218750
    vertex 16.799999 -0.309359 -0.309359
  endloop
endfacet
facet normal -0.000000 -0.793353 -0.608761
  outer loop
    vertex 16.799999 -0.309359 -0.309359
    vertex 14.400000 -0.378886 -0.218750
    vertex 14.400000 -0.309359 -0.309359
  endloop
endfacet
facet normal -0.000000 -0.608761 -0.793353
  outer loop
    vertex 16.799999 -0.309359 -0.309359
    vertex 14.400000 -0.309359 -0.309359
    vertex 16.799999 -0.218750 -0.378886
  endloop
endfacet
facet normal -0.000000 -0.608761 -0.793353
  outer loop
    vertex 16.799999 -0.218750 -0.378886
    vertex 14.400000 -0.309359 -0.309359
    vertex 14.400000 -0.218750 -0.378886
  endloop
endfacet
facet normal -0.000000 -0.382684 -0.923880
  outer loop
    vertex 16.799999 -0.218750 -0.378886
    vertex 14.400000 -0.218750 -0.378886
    vertex 16.799999 -0.113233 -0.422593
  endloop
endfacet
facet normal -0.000000 -0.382684 -0.923880
  outer loop
    vertex 16.799999 -0.113233 -0.422593
    vertex 14.400000 -0.218750 -0.378886
    vertex 14.400000 -0.113233 -0.422593
  endloop
endfacet
facet normal -0.000000 -0.130526 -0.991445
  outer loop
    vertex 16.799999 -0.113233 -0.422593
    vertex 14.400000 -0.113233 -0.422593
    vertex 16.799999 0.000000 -0.437500
  endloop
endfacet
facet normal -0.000000 -0.130526 -0.991445
  outer loop
    vertex 16.799999 0.000000 -0.437500
    vertex 14.400000 -0.113233 -0.422593
    vertex 14.400000 0.000000 -0.437500
  endloop
endfacet
facet normal 0.000000 0.130526 -0.991445
  outer loop
    vertex 16.799999 0.000000 -0.437500
    vertex 14.400000 0.000000 -0.437500
    vertex 16.799999 0.113233 -0.422593
  endloop
endfacet
facet normal 0.000000 0.130526 -0.991445
  outer loop
    vertex 16.799999 0.113233 -0.422593
    vertex 14.400000 0.000000 -0.437500
    vertex 14.400000 0.113233 -0.422593
  endloop
endfacet
facet normal 0.000000 0.382684 -0.923880
  outer loop
    vertex 16.799999 0.113233 -0.422593
    vertex 14.400000 0.113233 -0.422593
    vertex 16.799999 0.218750 -0.378886
  endloop
endfacet
facet normal 0.000000 0.382684 -0.923880
  outer loop
    vertex 16.799999 0.218750 -0.378886
    vertex 14.400000 0.113233 -0.422593
    vertex 14.400000 0.218750 -0.378886
  endloop
endfacet
facet normal 0.000000 0.608761 -0.793353
  outer loop
    vertex 16.799999 0.218750 -0.378886
    vertex 14.400000 0.218750 -0.378886
    vertex 16.799999 0.309359 -0.309359
  endloop
endfacet
facet normal 0.000000 0.608761 -0.793353
  outer loop
    vertex 16.799999 0.309359 -0.309359
    vertex 14.400000 0.218750 -0.378886
    vertex 14.400000 0.309359 -0.309359
  endloop
endfacet
facet normal 0.000000 0.793353 -0.608761
  outer loop
    vertex 16.799999 0.309359 -0.309359
    vertex 14.400000 0.309359 -0.309359
    vertex 16.799999 0.378886 -0.218750
  endloop
endfacet
facet normal 0.000000 -0.608761 0.793353
  outer loop
    vertex 16.799999 -0.218750 0.378886
    vertex 16.799999 -0.309359 0.309359
    vertex 19.200001 -0.309359 0.309359
  endloop
endfacet
facet normal 0.000000 -0.793353 0.608761
  outer loop
    vertex 19.200001 -0.309359 0.309359
    vertex 16.799999 -0.309359 0.309359
    vertex 19.200001 -0.378886 0.218750
  endloop
endfacet
facet normal 0.000000 -0.793353 0.608761
  outer loop
    vertex 19.200001 -0.309359 0.309359
    vertex 19.200001 -0.378886 0.218750
    vertex 21.600000 -0.378886 0.218750
  endloop
endfacet
facet normal 0.000000 -0.923880 0.382684
  outer loop
    vertex 21.600000 -0.378886 0.218750
    vertex 19.200001 -0.378886 0.218750
    vertex 21.600000 -0.422593 0.113233
  endloop
endfacet
facet normal 0.000000 -0.793353 0.608761
  outer loop
    vertex 19.200001 -0.378886 0.218750
    vertex 16.799999 -0.309359 0.309359
    vertex 16.799999 -0.378886 0.218750
  endloop
endfacet
facet normal 0.000000 -0.923880 0.382684
  outer loop
    vertex 19.200001 -0.378886 0.218750
    vertex 16.799999 -0.378886 0.218750
    vertex 19.200001 -0.422593 0.113233
  endloop
endfacet
facet normal 0.000000 -0.923880 0.382684
  outer loop
    vertex 19.200001 -0.422593 0.113233
    vertex 16.799999 -0.378886 0.218750
    vertex 16.799999 -0.422593 0.113233
  endloop
endfacet
facet normal 0.000000 -0.991445 0.130526
  outer loop
    vertex 19.200001 -0.422593 0.113233
    vertex 16.799999 -0.422593 0.113233
    vertex 19.200001 -0.437500 -0.000000
  endloop
endfacet
facet normal 0.000000 -0.991445 0.130526
  outer loop
    vertex 19.200001 -0.437500 -0.000000
    vertex 16.799999 -0.422593 0.113233
    vertex 16.799999 -0.437500 -0.000000
  endloop
endfacet
facet normal -0.000000 -0.991445 -0.130526
  outer loop
    vertex 19.200001 -0.437500 -0.000000
    vertex 16.799999 -0.437500 -0.000000
    vertex 19.200001 -0.422593 -0.113233
  endloop
endfacet
facet normal -0.000000 -0.991445 -0.130526
  outer loop
    vertex 19.200001 -0.422593 -0.113233
    vertex 16.799999 -0.437500 -0.000000
    vertex 16.799999 -0.422593 -0.113233
  endloop
endfacet
facet normal -0.000000 -0.923880 -0.382684
  outer loop
    vertex 19.200001 -0.422593 -0.113233
    vertex 16.799999 -0.422593 -0.113233
    vertex 19.200001 -0.378886 -0.218750
  endloop
endfacet
facet normal -0.000000 -0.923880 -0.382684
  outer loop
    vertex 19.200001 -0.378886 -0.218750
    vertex 16.799999 -0.422593 -0.113233
    vertex 16.799999 -0.378886 -0.218750
  endloop
endfacet
facet normal -0.000000 -0.793353 -0.608761
  outer loop
    vertex 19.200001 -0.378886 -0.218750
    vertex 16.799999 -0.378886 -0.218750
    vertex 19.200001 -0.309359 -0.309359
  endloop
endfacet
facet normal -0.000000 -0.793353 -0.608761
  outer loop
    vertex 19.200001 -0.309359 -0.309359
    vertex 16.799999 -0.378886 -0.218750
    vertex 16.799999 -0.309359 -0.309359
  endloop
endfacet
facet normal -0.000000 -0.608761 -0.793353
  outer loop
    vertex 19.200001 -0.309359 -0.309359
    vertex 16.799999 -0.309359 -0.309359
    vertex 19.200001 -0.218750 -0.378886
  endloop
endfacet
facet normal -0.000000 -0.608761 -0.793353
  outer loop
    vertex 19.200001 -0.218750 -0.378886
    vertex 16.799999 -0.309359 -0.309359
    vertex 16.799999 -0.218750 -0.378886
  endloop
endfacet
facet normal -0.000000 -0.382684 -0.923880
  outer loop
    vertex 19.200001 -0.218750 -0.378886
    vertex 16.799999 -0.218750 -0.378886
    vertex 19.200001 -0.113233 -0.422593
  endloop
endfacet
facet normal -0.000000 -0.382684 -0.923880
  outer loop
    vertex 19.200001 -0.113233 -0.422593
    vertex 16.799999 -0.218750 -0.378886
    vertex 16.799999 -0.113233 -0.422593
  endloop
endfacet
facet normal -0.000000 -0.130526 -0.991445
  outer loop
    vertex 19.200001 -0.113233 -0.422593
    vertex 16.799999 -0.113233 -0.422593
    vertex 19.200001 0.000000 -0.437500
  endloop
endfacet
facet normal -0.000000 -0.130526 -0.991445
  outer loop
    vertex 19.200001 0.000000 -0.437500
    vertex 16.799999 -0.113233 -0.422593
    vertex 16.799999 0.000000 -0.437500
  endloop
endfacet
facet normal 0.000000 0.130526 -0.991445
  outer loop
    vertex 19.200001 0.000000 -0.437500
    vertex 16.799999 0.000000 -0.437500
    vertex 19.200001 0.113233 -0.422593
  endloop
endfacet
facet normal 0.000000 0.130526 -0.991445
  outer loop
    vertex 19.200001 0.113233 -0.422593
    vertex 16.799999 0.000000 -0.437500
    vertex 16.799999 0.113233 -0.422593
  endloop
endfacet
facet normal 0.000000 0.382684 -0.923880
  outer loop
    vertex 19.200001 0.113233 -0.422593
    vertex 16.799999 0.113233 -0.422593
    vertex 19.200001 0.218750 -0.378886
  endloop
endfacet
facet normal 0.000000 0.382684 -0.923880
  outer loop
    vertex 19.200001 0.218750 -0.378886
    vertex 16.799999 0.113233 -0.422593
    vertex 16.799999 0.218750 -0.378886
  endloop
endfacet
facet normal 0.000000 0.608761 -0.793353
  outer loop
    vertex 19.200001 0.218750 -0.378886
    vertex 16.799999 0.218750 -0.378886
    vertex 19.200001 0.309359 -0.309359
  endloop
endfacet
facet normal 0.000000 0.608761 -0.793353
  outer loop
    vertex 19.200001 0.309359 -0.309359
    vertex 16.799999 0.218750 -0.378886
    vertex 16.799999 0.309359 -0.309359
  endloop
endfacet
facet normal 0.000000 0.793353 -0.608761
  outer loop
    vertex 19.200001 0.309359 -0.309359
    vertex 16.799999 0.309359 -0.309359
    vertex 19.200001 0.378886 -0.218750
  endloop
endfacet
facet normal 0.000000 0.793353 -0.608761
  outer loop
    vertex 19.200001 0.378886 -0.218750
    vertex 16.799999 0.309359 -0.309359
    vertex 16.799999 0.378886 -0.218750
  endloop
endfacet
facet normal 0.000000 0.923880 -0.382684
  outer loop
    vertex 19.200001 0.378886 -0.218750
    vertex 16.799999 0.378886 -0.218750
    vertex 19.200001 0.422593 -0.113233
  endloop
endfacet
facet normal 0.000000 -0.991445 0.130526
  outer loop
    vertex 21.600000 -0.437500 -0.000000
    vertex 21.600000 -0.422593 0.113233
    vertex 19.200001 -0.422593 0.113233
  endloop
endfacet
facet normal 0.000000 -0.923880 0.382684
  outer loop
    vertex 19.200001 -0.422593 0.113233
    vertex 21.600000 -0.422593 0.113233
    vertex 19.200001 -0.378886 0.218750
  endloop
endfacet
facet normal 0.000000 -0.991445 0.130526
  outer loop
    vertex 21.600000 -0.437500 -0.000000
    vertex 19.200001 -0.422593 0.113233
    vertex 19.200001 -0.437500 -0.000000
  endloop
endfacet
facet normal 0.000000 -0.991445 -0.130526
  outer loop
    vertex 21.600000 -0.422593 -0.113233
    vertex 21.600000 -0.437500 -0.000000
    vertex 19.200001 -0.437500 -0.000000
  endloop
endfacet
facet normal -0.000000 -0.991445 -0.130526
  outer loop
    vertex 21.600000 -0.422593 -0.113233
    vertex 19.200001 -0.437500 -0.000000
    vertex 19.200001 -0.422593 -0.113233
  endloop
endfacet
facet normal 0.000000 -0.923880 -0.382684
  outer loop
    vertex 21.600000 -0.378886 -0.218750
    vertex 21.600000 -0.422593 -0.113233
    vertex 19.200001 -0.422593 -0.113233
  endloop
endfacet
facet normal -0.000000 -0.923880 -0.382684
  outer loop
    vertex 21.600000 -0.378886 -0.218750
    vertex 19.200001 -0.422593 -0.113233
    vertex 19.200001 -0.378886 -0.218750
  endloop
endfacet
facet normal 0.000000 -0.793353 -0.608761
  outer loop
    vertex 21.600000 -0.309359 -0.309359
    vertex 21.600000 -0.378886 -0.218750
    vertex 19.200001 -0.378886 -0.218750
  endloop
endfacet
facet normal -0.000000 -0.793353 -0.608761
  outer loop
    vertex 21.600000 -0.309359 -0.309359
    vertex 19.200001 -0.378886 -0.218750
    vertex 19.200001 -0.309359 -0.309359
  endloop
endfacet
facet normal 0.000000 -0.608761 -0.793353
  outer loop
    vertex 21.600000 -0.218750 -0.378886
    vertex 21.600000 -0.309359 -0.309359
    vertex 19.200001 -0.309359 -0.309359
  endloop
endfacet
facet normal -0.000000 -0.608761 -0.793353
  outer loop
    vertex 21.600000 -0.218750 -0.378886
    vertex 19.200001 -0.309359 -0.309359
    vertex 19.200001 -0.218750 -0.378886
  endloop
endfacet
facet normal 0.000000 -0.382684 -0.923880
  outer loop
    vertex 21.600000 -0.113233 -0.422593
    vertex 21.600000 -0.218750 -0.378886
    vertex 19.200001 -0.218750 -0.378886
  endloop
endfacet
facet normal -0.000000 -0.382684 -0.923880
  outer loop
    vertex 21.600000 -0.113233 -0.422593
    vertex 19.200001 -0.218750 -0.378886
    vertex 19.200001 -0.113233 -0.422593
  endloop
endfacet
facet normal 0.000000 -0.130526 -0.991445
  outer loop
    vertex 21.600000 0.000000 -0.437500
    vertex 21.600000 -0.113233 -0.422593
    vertex 19.200001 -0.113233 -0.422593
  endloop
endfacet
facet normal -0.000000 -0.130526 -0.991445
  outer loop
    vertex 21.600000 0.000000 -0.437500
    vertex 19.200001 -0.113233 -0.422593
    vertex 19.200001 0.000000 -0.437500
  endloop
endfacet
facet normal 0.000000 0.130526 -0.991445
  outer loop
    vertex 21.600000 0.113233 -0.422593
    vertex 21.600000 0.000000 -0.437500
    vertex 19.200001 0.000000 -0.437500
  endloop
endfacet
facet normal 0.000000 0.130526 -0.991445
  outer loop
    vertex 21.600000 0.113233 -0.422593
    vertex 19.200001 0.000000 -0.437500
    vertex 19.200001 0.113233 -0.422593
  endloop
endfacet
facet normal 0.000000 0.382684 -0.923880
  outer loop
    vertex 21.600000 0.218750 -0.378886
    vertex 21.600000 0.113233 -0.422593
    vertex 19.200001 0.113233 -0.422593
  endloop
endfacet
facet normal 0.000000 0.382684 -0.923880
  outer loop
    vertex 21.600000 0.218750 -0.378886
    vertex 19.200001 0.113233 -0.422593
    vertex 19.200001 0.218750 -0.378886
  endloop
endfacet
facet normal 0.000000 0.608761 -0.793353
  outer loop
    vertex 21.600000 0.309359 -0.309359
    vertex 21.600000 0.218750 -0.378886
    vertex 19.200001 0.218750 -0.378886
  endloop
endfacet
facet normal 0.000000 0.608761 -0.793353
  outer loop
    vertex 21.600000 0.309359 -0.309359
    vertex 19.200001 0.218750 -0.378886
    vertex 19.200001 0.309359 -0.309359
  endloop
endfacet
facet normal 0.000000 0.793353 -0.608761
  outer loop
    vertex 21.600000 0.378886 -0.218750
    vertex 21.600000 0.309359 -0.309359
    vertex 19.200001 0.309359 -0.309359
  endloop
endfacet
facet normal 0.000000 0.793353 -0.608761
  outer loop
    vertex 21.600000 0.378886 -0.218750
    vertex 19.200001 0.309359 -0.309359
    vertex 19.200001 0.378886 -0.218750
  endloop
endfacet
facet normal 0.000000 0.923880 -0.382684
  outer loop
    vertex 21.600000 0.422593 -0.113233
    vertex 21.600000 0.378886 -0.218750
    vertex 19.200001 0.378886 -0.218750
  endloop
endfacet
facet normal 0.000000 0.923880 -0.382684
  outer loop
    vertex 21.600000 0.422593 -0.113233
    vertex 19.200001 0.378886 -0.218750
    vertex 19.200001 0.422593 -0.113233
  endloop
endfacet
facet normal 0.000000 0.000000 -1.000000
  outer loop
    vertex 0.000000 0.427337 0.093750
    vertex 24.000000 0.427337 0.093750
    vertex 0.000000 0.343750 0.093750
  endloop
endfacet
facet normal 0.000000 0.000000 -1.000000
  outer loop
    vertex 0.000000 0.343750 0.093750
    vertex 24.000000 0.427337 0.093750
    vertex 24.000000 0.343750 0.093750
  endloop
endfacet
facet normal 1.000000 0.000000 0.000000
  outer loop
    vertex 24.000000 0.427337 0.093750
    vertex 24.000000 0.389989 0.198279
    vertex 24.000000 0.343750 0.093750
  endloop
endfacet
facet normal 1.000000 0.000000 -0.000000
  outer loop
    vertex 24.000000 0.343750 0.093750
    vertex 24.000000 0.389989 0.198279
    vertex 24.000000 0.327536 0.290045
  endloop
endfacet
facet normal 1.000000 0.000000 0.000000
  outer loop
    vertex 24.000000 0.343750 0.093750
    vertex 24.000000 0.327536 0.290045
    vertex 24.000000 0.243999 0.363140
  endloop
endfacet
facet normal 1.000000 0.000000 0.000000
  outer loop
    vertex 24.000000 0.243999 0.363140
    vertex 24.000000 0.144755 0.412859
    vertex 24.000000 0.343750 0.093750
  endloop
endfacet
facet normal 1.000000 0.000000 0.000000
  outer loop
    vertex 24.000000 0.343750 0.093750
    vertex 24.000000 0.144755 0.412859
    vertex 24.000000 0.036193 0.436000
  endloop
endfacet
facet normal 1.000000 0.000000 0.000000
  outer loop
    vertex 24.000000 0.343750 0.093750
    vertex 24.000000 0.036193 0.436000
    vertex 24.000000 -0.074699 0.431076
  endloop
endfacet
facet normal 1.000000 0.000000 0.000000
  outer loop
    vertex 24.000000 -0.074699 0.431076
    vertex 24.000000 -0.180782 0.398402
    vertex 24.000000 0.343750 0.093750
  endloop
endfacet
facet normal 1.000000 0.000000 0.000000
  outer loop
    vertex 24.000000 0.343750 0.093750
    vertex 24.000000 -0.180782 0.398402
    vertex 24.000000 -0.180782 -0.398402
  endloop
endfacet
facet normal 1.000000 0.000000 0.000000
  outer loop
    vertex 24.000000 0.343750 0.093750
    vertex 24.000000 -0.180782 -0.398402
    vertex 24.000000 0.343750 -0.093750
  endloop
endfacet
facet normal 1.000000 0.000000 0.000000
  outer loop
    vertex 24.000000 0.343750 -0.093750
    vertex 24.000000 -0.180782 -0.398402
    vertex 24.000000 -0.074699 -0.431076
  endloop
endfacet
facet normal 1.000000 0.000000 0.000000
  outer loop
    vertex 24.000000 0.343750 -0.093750
    vertex 24.000000 -0.074699 -0.431076
    vertex 24.000000 0.036193 -0.436000
  endloop
endfacet
facet normal 1.000000 0.000000 -0.000000
  outer loop
    vertex 24.000000 -0.180782 -0.398402
    vertex 24.000000 -0.180782 0.398402
    vertex 24.000000 -0.275228 -0.340082
  endloop
endfacet
facet normal 1.000000 0.000000 0.000000
  outer loop
    vertex 24.000000 -0.275228 -0.340082
    vertex 24.000000 -0.180782 0.398402
    vertex 24.000000 -0.275228 0.340082
  endloop
endfacet
facet normal 1.000000 0.000000 -0.000000
  outer loop
    vertex 24.000000 -0.275228 -0.340082
    vertex 24.000000 -0.275228 0.340082
    vertex 24.000000 -0.351957 -0.259870
  endloop
endfacet
facet normal 1.000000 0.000000 0.000000
  outer loop
    vertex 24.000000 -0.351957 -0.259870
    vertex 24.000000 -0.275228 0.340082
    vertex 24.000000 -0.351957 0.259870
  endloop
endfacet
facet normal 1.000000 0.000000 -0.000000
  outer loop
    vertex 24.000000 -0.351957 -0.259870
    vertex 24.000000 -0.351957 0.259870
    vertex 24.000000 -0.406030 -0.162929
  endloop
endfacet
facet normal 1.000000 0.000000 0.000000
  outer loop
    vertex 24.000000 -0.406030 -0.162929
    vertex 24.000000 -0.351957 0.259870
    vertex 24.000000 -0.406030 0.162929
  endloop
endfacet
facet normal 1.000000 0.000000 -0.000000
  outer loop
    vertex 24.000000 -0.406030 -0.162929
    vertex 24.000000 -0.406030 0.162929
    vertex 24.000000 -0.433965 -0.055501
  endloop
endfacet
facet normal 1.000000 0.000000 0.000000
  outer loop
    vertex 24.000000 -0.433965 -0.055501
    vertex 24.000000 -0.406030 0.162929
    vertex 24.000000 -0.433965 0.055501
  endloop
endfacet
facet normal 1.000000 0.000000 0.000000
  outer loop
    vertex 24.000000 0.036193 -0.436000
    vertex 24.000000 0.144755 -0.412859
    vertex 24.000000 0.343750 -0.093750
  endloop
endfacet
facet normal 1.000000 0.000000 0.000000
  outer loop
    vertex 24.000000 0.343750 -0.093750
    vertex 24.000000 0.144755 -0.412859
    vertex 24.000000 0.243999 -0.363140
  endloop
endfacet
facet normal 1.000000 0.000000 0.000000
  outer loop
    vertex 24.000000 0.343750 -0.093750
    vertex 24.000000 0.243999 -0.363140
    vertex 24.000000 0.327536 -0.290045
  endloop
endfacet
facet normal 1.000000 0.000000 0.000000
  outer loop
    vertex 24.000000 0.327536 -0.290045
    vertex 24.000000 0.389989 -0.198279
    vertex 24.000000 0.343750 -0.093750
  endloop
endfacet
facet normal 1.000000 -0.000000 0.000000
  outer loop
    vertex 24.000000 0.343750 -0.093750
    vertex 24.000000 0.389989 -0.198279
    vertex 24.000000 0.427337 -0.093750
  endloop
endfacet
facet normal -1.000000 0.000000 0.000000
  outer loop
    vertex 0.000000 0.427337 0.093750
    vertex 0.000000 0.343750 0.093750
    vertex 0.000000 0.389989 0.198279
  endloop
endfacet
facet normal -1.000000 -0.000000 0.000000
  outer loop
    vertex 0.000000 0.389989 0.198279
    vertex 0.000000 0.343750 0.093750
    vertex 0.000000 0.327536 0.290045
  endloop
endfacet
facet normal -1.000000 -0.000000 -0.000000
  outer loop
    vertex 0.000000 0.327536 0.290045
    vertex 0.000000 0.343750 0.093750
    vertex 0.000000 0.243999 0.363140
  endloop
endfacet
facet normal -1.000000 -0.000000 -0.000000
  outer loop
    vertex 0.000000 0.243999 0.363140
    vertex 0.000000 0.343750 0.093750
    vertex 0.000000 0.144755 0.412859
  endloop
endfacet
facet normal -1.000000 -0.000000 -0.000000
  outer loop
    vertex 0.000000 0.144755 0.412859
    vertex 0.000000 0.343750 0.093750
    vertex 0.000000 0.036193 0.436000
  endloop
endfacet
facet normal -1.000000 0.000000 -0.000000
  outer loop
    vertex 0.000000 0.036193 0.436000
    vertex 0.000000 0.343750 0.093750
    vertex 0.000000 -0.074699 0.431076
  endloop
endfacet
facet normal -1.000000 0.000000 -0.000000
  outer loop
    vertex 0.000000 -0.074699 0.431076
    vertex 0.000000 0.343750 0.093750
    vertex 0.000000 -0.180782 0.398402
  endloop
endfacet
facet normal -1.000000 0.000000 0.000000
  outer loop
    vertex 0.000000 -0.180782 0.398402
    vertex 0.000000 0.343750 0.093750
    vertex 0.000000 0.343750 -0.093750
  endloop
endfacet
facet normal -1.000000 0.000000 0.000000
  outer loop
    vertex 0.000000 -0.180782 0.398402
    vertex 0.000000 0.343750 -0.093750
    vertex 0.000000 -0.180782 -0.398402
  endloop
endfacet
facet normal -1.000000 0.000000 0.000000
  outer loop
    vertex 0.000000 -0.180782 -0.398402
    vertex 0.000000 0.343750 -0.093750
    vertex 0.000000 -0.074699 -0.431076
  endloop
endfacet
facet normal -1.000000 0.000000 0.000000
  outer loop
    vertex 0.000000 -0.074699 -0.431076
    vertex 0.000000 0.343750 -0.093750
    vertex 0.000000 0.036193 -0.436000
  endloop
endfacet
facet normal -1.000000 0.000000 0.000000
  outer loop
    vertex 0.000000 0.036193 -0.436000
    vertex 0.000000 0.343750 -0.093750
    vertex 0.000000 0.144755 -0.412859
  endloop
endfacet
facet normal -1.000000 0.000000 0.000000
  outer loop
    vertex 0.000000 0.144755 -0.412859
    vertex 0.000000 0.343750 -0.093750
    vertex 0.000000 0.243999 -0.363140
  endloop
endfacet
facet normal -1.000000 0.000000 0.000000
  outer loop
    vertex 0.000000 0.243999 -0.363140
    vertex 0.000000 0.343750 -0.093750
    vertex 0.000000 0.327536 -0.290045
  endloop
endfacet
facet normal -1.000000 0.000000 0.000000
  outer loop
    vertex 0.000000 0.327536 -0.290045
    vertex 0.000000 0.343750 -0.093750
    vertex 0.000000 0.389989 -0.198279
  endloop
endfacet
facet normal -1.000000 0.000000 0.000000
  outer loop
    vertex 0.000000 0.389989 -0.198279
    vertex 0.000000 0.343750 -0.093750
    vertex 0.000000 0.427337 -0.093750
  endloop
endfacet
facet normal -1.000000 0.000000 -0.000000
  outer loop
    vertex 0.000000 -0.180782 0.398402
    vertex 0.000000 -0.180782 -0.398402
    vertex 0.000000 -0.275228 0.340082
  endloop
endfacet
facet normal -1.000000 0.000000 0.000000
  outer loop
    vertex 0.000000 -0.275228 0.340082
    vertex 0.000000 -0.180782 -0.398402
    vertex 0.000000 -0.275228 -0.340082
  endloop
endfacet
facet normal -1.000000 0.000000 -0.000000
  outer loop
    vertex 0.000000 -0.275228 0.340082
    vertex 0.000000 -0.275228 -0.340082
    vertex 0.000000 -0.351957 0.259870
  endloop
endfacet
facet normal -1.000000 0.000000 0.000000
  outer loop
    vertex 0.000000 -0.351957 0.259870
    vertex 0.000000 -0.275228 -0.340082
    vertex 0.000000 -0.351957 -0.259870
  endloop
endfacet
facet normal -1.000000 0.000000 -0.000000
  outer loop
    vertex 0.000000 -0.351957 0.259870
    vertex 0.000000 -0.351957 -0.259870
    vertex 0.000000 -0.406030 0.162929
  endloop
endfacet
facet normal -1.000000 0.000000 0.000000
  outer loop
    vertex 0.000000 -0.406030 0.162929
    vertex 0.000000 -0.351957 -0.259870
    vertex 0.000000 -0.406030 -0.162929
  endloop
endfacet
facet normal -1.000000 0.000000 -0.000000
  outer loop
    vertex 0.000000 -0.406030 0.162929
    vertex 0.000000 -0.406030 -0.162929
    vertex 0.000000 -0.433965 0.055501
  endloop
endfacet
facet normal -1.000000 0.000000 0.000000
  outer loop
    vertex 0.000000 -0.433965 0.055501
    vertex 0.000000 -0.406030 -0.162929
    vertex 0.000000 -0.433965 -0.055501
  endloop
endfacet
endsolid be9f89e5-1f62-4c76-819a-ed0b9bbf9815-ascii.stl
