solid d4d2e894-1fc4-4dde-b3a7-9a157a7a04ef-ascii.stl
facet normal -0.000000 1.000000 0.000000
  outer loop
    vertex 0.000000 0.625000 0.187500
    vertex 12.000000 0.625000 0.187500
    vertex 0.000000 0.625000 -0.187500
  endloop
endfacet
facet normal 0.000000 1.000000 0.000000
  outer loop
    vertex 0.000000 0.625000 -0.187500
    vertex 12.000000 0.625000 0.187500
    vertex 12.000000 0.625000 -0.187500
  endloop
endfacet
facet normal 0.000000 0.000000 1.000000
  outer loop
    vertex 0.000000 0.625000 -0.187500
    vertex 12.000000 0.625000 -0.187500
    vertex 0.000000 0.790569 -0.187500
  endloop
endfacet
facet normal -0.000000 0.000000 1.000000
  outer loop
    vertex 0.000000 0.790569 -0.187500
    vertex 12.000000 0.625000 -0.187500
    vertex 12.000000 0.790569 -0.187500
  endloop
endfacet
facet normal -0.000490 0.955185 0.296010
  outer loop
    vertex 0.000000 0.758056 0.292416
    vertex 2.400000 0.765587 0.272090
    vertex 0.000000 0.790569 0.187500
  endloop
endfacet
facet normal 0.000000 0.959048 0.283242
  outer loop
    vertex 0.000000 0.790569 0.187500
    vertex 2.400000 0.765587 0.272090
    vertex 4.800000 0.765587 0.272090
  endloop
endfacet
facet normal 0.000000 0.959048 0.283242
  outer loop
    vertex 0.000000 0.790569 0.187500
    vertex 4.800000 0.765587 0.272090
    vertex 7.200000 0.765587 0.272090
  endloop
endfacet
facet normal 0.000000 0.917211 0.398401
  outer loop
    vertex 7.200000 0.765587 0.272090
    vertex 4.800000 0.765587 0.272090
    vertex 7.200000 0.721407 0.373803
  endloop
endfacet
facet normal 0.000000 0.917211 0.398401
  outer loop
    vertex 7.200000 0.765587 0.272090
    vertex 7.200000 0.721407 0.373803
    vertex 9.600000 0.721407 0.373803
  endloop
endfacet
facet normal 0.000000 0.854419 0.519584
  outer loop
    vertex 9.600000 0.721407 0.373803
    vertex 7.200000 0.721407 0.373803
    vertex 9.600000 0.663788 0.468553
  endloop
endfacet
facet normal -0.000477 0.854419 0.519584
  outer loop
    vertex 9.600000 0.721407 0.373803
    vertex 9.600000 0.663788 0.468553
    vertex 12.000000 0.711689 0.391989
  endloop
endfacet
facet normal 0.000453 0.841311 0.540551
  outer loop
    vertex 12.000000 0.711689 0.391989
    vertex 9.600000 0.663788 0.468553
    vertex 12.000000 0.652315 0.484398
  endloop
endfacet
facet normal -0.000458 0.775711 0.631088
  outer loop
    vertex 12.000000 0.652315 0.484398
    vertex 9.600000 0.663788 0.468553
    vertex 9.600000 0.593804 0.554574
  endloop
endfacet
facet normal 0.000434 0.760715 0.649086
  outer loop
    vertex 12.000000 0.652315 0.484398
    vertex 9.600000 0.593804 0.554574
    vertex 12.000000 0.581020 0.567954
  endloop
endfacet
facet normal -0.000439 0.682553 0.730836
  outer loop
    vertex 12.000000 0.581020 0.567954
    vertex 9.600000 0.593804 0.554574
    vertex 9.600000 0.512759 0.630265
  endloop
endfacet
facet normal 0.000413 0.666218 0.745757
  outer loop
    vertex 12.000000 0.581020 0.567954
    vertex 9.600000 0.512759 0.630265
    vertex 12.000000 0.499107 0.641130
  endloop
endfacet
facet normal -0.000418 0.576680 0.816970
  outer loop
    vertex 12.000000 0.499107 0.641130
    vertex 9.600000 0.512759 0.630265
    vertex 9.600000 0.422162 0.694216
  endloop
endfacet
facet normal 0.000393 0.559545 0.828800
  outer loop
    vertex 12.000000 0.499107 0.641130
    vertex 9.600000 0.422162 0.694216
    vertex 12.000000 0.408073 0.702590
  endloop
endfacet
facet normal -0.000397 0.460065 0.887885
  outer loop
    vertex 12.000000 0.408073 0.702590
    vertex 9.600000 0.422162 0.694216
    vertex 9.600000 0.323701 0.745234
  endloop
endfacet
facet normal 0.000372 0.442645 0.896697
  outer loop
    vertex 12.000000 0.408073 0.702590
    vertex 9.600000 0.323701 0.745234
    vertex 12.000000 0.309580 0.751210
  endloop
endfacet
facet normal -0.000376 0.334879 0.942261
  outer loop
    vertex 12.000000 0.309580 0.751210
    vertex 9.600000 0.323701 0.745234
    vertex 9.600000 0.219210 0.782370
  endloop
endfacet
facet normal 0.000350 0.317657 0.948206
  outer loop
    vertex 12.000000 0.309580 0.751210
    vertex 9.600000 0.219210 0.782370
    vertex 12.000000 0.205431 0.786101
  endloop
endfacet
facet normal -0.000354 0.203456 0.979084
  outer loop
    vertex 12.000000 0.205431 0.786101
    vertex 9.600000 0.219210 0.782370
    vertex 9.600000 0.110635 0.804932
  endloop
endfacet
facet normal 0.000328 0.186862 0.982386
  outer loop
    vertex 12.000000 0.205431 0.786101
    vertex 9.600000 0.110635 0.804932
    vertex 12.000000 0.097526 0.806626
  endloop
endfacet
facet normal -0.000331 0.068242 0.997669
  outer loop
    vertex 12.000000 0.097526 0.806626
    vertex 9.600000 0.110635 0.804932
    vertex 9.600000 -0.000000 0.812500
  endloop
endfacet
facet normal 0.000305 0.052653 0.998613
  outer loop
    vertex 12.000000 0.097526 0.806626
    vertex 9.600000 -0.000000 0.812500
    vertex 12.000000 -0.012160 0.812409
  endloop
endfacet
facet normal -0.000308 -0.068242 0.997669
  outer loop
    vertex 12.000000 -0.012160 0.812409
    vertex 9.600000 -0.000000 0.812500
    vertex 9.600000 -0.110635 0.804932
  endloop
endfacet
facet normal 0.000281 -0.082518 0.996590
  outer loop
    vertex 12.000000 -0.012160 0.812409
    vertex 9.600000 -0.110635 0.804932
    vertex 12.000000 -0.121625 0.803345
  endloop
endfacet
facet normal -0.000284 -0.203456 0.979084
  outer loop
    vertex 12.000000 -0.121625 0.803345
    vertex 9.600000 -0.110635 0.804932
    vertex 9.600000 -0.219210 0.782370
  endloop
endfacet
facet normal 0.000257 -0.216181 0.976353
  outer loop
    vertex 12.000000 -0.121625 0.803345
    vertex 9.600000 -0.219210 0.782370
    vertex 12.000000 -0.228866 0.779600
  endloop
endfacet
facet normal -0.000260 -0.334879 0.942261
  outer loop
    vertex 12.000000 -0.228866 0.779600
    vertex 9.600000 -0.219210 0.782370
    vertex 9.600000 -0.323701 0.745234
  endloop
endfacet
facet normal 0.000232 -0.345893 0.938274
  outer loop
    vertex 12.000000 -0.228866 0.779600
    vertex 9.600000 -0.323701 0.745234
    vertex 12.000000 -0.331925 0.741608
  endloop
endfacet
facet normal -0.000235 -0.460065 0.887885
  outer loop
    vertex 12.000000 -0.331925 0.741608
    vertex 9.600000 -0.323701 0.745234
    vertex 9.600000 -0.422162 0.694216
  endloop
endfacet
facet normal 0.000207 -0.469285 0.883047
  outer loop
    vertex 12.000000 -0.331925 0.741608
    vertex 9.600000 -0.422162 0.694216
    vertex 12.000000 -0.428918 0.690062
  endloop
endfacet
facet normal -0.000209 -0.576680 0.816970
  outer loop
    vertex 12.000000 -0.428918 0.690062
    vertex 9.600000 -0.422162 0.694216
    vertex 9.600000 -0.512759 0.630265
  endloop
endfacet
facet normal 0.000181 -0.584099 0.811682
  outer loop
    vertex 12.000000 -0.428918 0.690062
    vertex 9.600000 -0.512759 0.630265
    vertex 12.000000 -0.518072 0.625905
  endloop
endfacet
facet normal -0.000183 -0.682553 0.730836
  outer loop
    vertex 12.000000 -0.518072 0.625905
    vertex 9.600000 -0.512759 0.630265
    vertex 9.600000 -0.593804 0.554574
  endloop
endfacet
facet normal 0.000155 -0.688240 0.725484
  outer loop
    vertex 12.000000 -0.518072 0.625905
    vertex 9.600000 -0.593804 0.554574
    vertex 12.000000 -0.597759 0.550310
  endloop
endfacet
facet normal -0.000157 -0.775711 0.631088
  outer loop
    vertex 12.000000 -0.597759 0.550310
    vertex 9.600000 -0.593804 0.554574
    vertex 9.600000 -0.663788 0.468553
  endloop
endfacet
facet normal 0.000128 -0.779801 0.626027
  outer loop
    vertex 12.000000 -0.597759 0.550310
    vertex 9.600000 -0.663788 0.468553
    vertex 12.000000 -0.666521 0.464657
  endloop
endfacet
facet normal -0.000130 -0.854419 0.519584
  outer loop
    vertex 12.000000 -0.666521 0.464657
    vertex 9.600000 -0.663788 0.468553
    vertex 9.600000 -0.721407 0.373803
  endloop
endfacet
facet normal 0.000101 -0.857113 0.515129
  outer loop
    vertex 12.000000 -0.666521 0.464657
    vertex 9.600000 -0.721407 0.373803
    vertex 12.000000 -0.723102 0.370513
  endloop
endfacet
facet normal -0.000102 -0.917211 0.398401
  outer loop
    vertex 12.000000 -0.723102 0.370513
    vertex 9.600000 -0.721407 0.373803
    vertex 9.600000 -0.765587 0.272090
  endloop
endfacet
facet normal 0.000073 -0.918760 0.394817
  outer loop
    vertex 12.000000 -0.723102 0.370513
    vertex 9.600000 -0.765587 0.272090
    vertex 12.000000 -0.766468 0.269597
  endloop
endfacet
facet normal -0.000073 -0.962917 0.269797
  outer loop
    vertex 12.000000 -0.766468 0.269597
    vertex 9.600000 -0.765587 0.272090
    vertex 9.600000 -0.795506 0.165308
  endloop
endfacet
facet normal 0.000044 -0.963616 0.267290
  outer loop
    vertex 12.000000 -0.766468 0.269597
    vertex 9.600000 -0.795506 0.165308
    vertex 12.000000 -0.795827 0.163755
  endloop
endfacet
facet normal -0.000045 -0.990730 0.135844
  outer loop
    vertex 12.000000 -0.795827 0.163755
    vertex 9.600000 -0.795506 0.165308
    vertex 9.600000 -0.810642 0.054919
  endloop
endfacet
facet normal 0.000000 -0.990862 0.134877
  outer loop
    vertex 12.000000 -0.795827 0.163755
    vertex 9.600000 -0.810642 0.054919
    vertex 12.000000 -0.810642 0.054919
  endloop
endfacet
facet normal -0.000000 -1.000000 -0.000000
  outer loop
    vertex 12.000000 -0.810642 0.054919
    vertex 9.600000 -0.810642 0.054919
    vertex 12.000000 -0.810642 -0.054919
  endloop
endfacet
facet normal 0.000000 -1.000000 0.000000
  outer loop
    vertex 12.000000 -0.810642 -0.054919
    vertex 9.600000 -0.810642 0.054919
    vertex 9.600000 -0.810642 -0.054919
  endloop
endfacet
facet normal -0.000000 -0.990862 -0.134877
  outer loop
    vertex 12.000000 -0.810642 -0.054919
    vertex 9.600000 -0.810642 -0.054919
    vertex 12.000000 -0.795827 -0.163755
  endloop
endfacet
facet normal -0.000045 -0.990730 -0.135844
  outer loop
    vertex 12.000000 -0.795827 -0.163755
    vertex 9.600000 -0.810642 -0.054919
    vertex 9.600000 -0.795506 -0.165308
  endloop
endfacet
facet normal 0.000044 -0.963616 -0.267290
  outer loop
    vertex 12.000000 -0.795827 -0.163755
    vertex 9.600000 -0.795506 -0.165308
    vertex 12.000000 -0.766468 -0.269597
  endloop
endfacet
facet normal -0.000073 -0.962917 -0.269797
  outer loop
    vertex 12.000000 -0.766468 -0.269597
    vertex 9.600000 -0.795506 -0.165308
    vertex 9.600000 -0.765587 -0.272090
  endloop
endfacet
facet normal 0.000073 -0.918760 -0.394817
  outer loop
    vertex 12.000000 -0.766468 -0.269597
    vertex 9.600000 -0.765587 -0.272090
    vertex 12.000000 -0.723102 -0.370513
  endloop
endfacet
facet normal -0.000102 -0.917211 -0.398401
  outer loop
    vertex 12.000000 -0.723102 -0.370513
    vertex 9.600000 -0.765587 -0.272090
    vertex 9.600000 -0.721407 -0.373803
  endloop
endfacet
facet normal 0.000101 -0.857113 -0.515129
  outer loop
    vertex 12.000000 -0.723102 -0.370513
    vertex 9.600000 -0.721407 -0.373803
    vertex 12.000000 -0.666521 -0.464657
  endloop
endfacet
facet normal -0.000130 -0.854419 -0.519584
  outer loop
    vertex 12.000000 -0.666521 -0.464657
    vertex 9.600000 -0.721407 -0.373803
    vertex 9.600000 -0.663788 -0.468553
  endloop
endfacet
facet normal 0.000128 -0.779801 -0.626027
  outer loop
    vertex 12.000000 -0.666521 -0.464657
    vertex 9.600000 -0.663788 -0.468553
    vertex 12.000000 -0.597759 -0.550310
  endloop
endfacet
facet normal -0.000157 -0.775711 -0.631088
  outer loop
    vertex 12.000000 -0.597759 -0.550310
    vertex 9.600000 -0.663788 -0.468553
    vertex 9.600000 -0.593804 -0.554574
  endloop
endfacet
facet normal 0.000155 -0.688240 -0.725484
  outer loop
    vertex 12.000000 -0.597759 -0.550310
    vertex 9.600000 -0.593804 -0.554574
    vertex 12.000000 -0.518072 -0.625905
  endloop
endfacet
facet normal -0.000183 -0.682553 -0.730836
  outer loop
    vertex 12.000000 -0.518072 -0.625905
    vertex 9.600000 -0.593804 -0.554574
    vertex 9.600000 -0.512759 -0.630265
  endloop
endfacet
facet normal 0.000181 -0.584099 -0.811682
  outer loop
    vertex 12.000000 -0.518072 -0.625905
    vertex 9.600000 -0.512759 -0.630265
    vertex 12.000000 -0.428918 -0.690062
  endloop
endfacet
facet normal -0.000209 -0.576680 -0.816970
  outer loop
    vertex 12.000000 -0.428918 -0.690062
    vertex 9.600000 -0.512759 -0.630265
    vertex 9.600000 -0.422162 -0.694216
  endloop
endfacet
facet normal 0.000207 -0.469285 -0.883047
  outer loop
    vertex 12.000000 -0.428918 -0.690062
    vertex 9.600000 -0.422162 -0.694216
    vertex 12.000000 -0.331925 -0.741608
  endloop
endfacet
facet normal -0.000235 -0.460065 -0.887885
  outer loop
    vertex 12.000000 -0.331925 -0.741608
    vertex 9.600000 -0.422162 -0.694216
    vertex 9.600000 -0.323701 -0.745234
  endloop
endfacet
facet normal 0.000232 -0.345893 -0.938274
  outer loop
    vertex 12.000000 -0.331925 -0.741608
    vertex 9.600000 -0.323701 -0.745234
    vertex 12.000000 -0.228866 -0.779600
  endloop
endfacet
facet normal -0.000260 -0.334879 -0.942261
  outer loop
    vertex 12.000000 -0.228866 -0.779600
    vertex 9.600000 -0.323701 -0.745234
    vertex 9.600000 -0.219210 -0.782370
  endloop
endfacet
facet normal 0.000257 -0.216181 -0.976353
  outer loop
    vertex 12.000000 -0.228866 -0.779600
    vertex 9.600000 -0.219210 -0.782370
    vertex 12.000000 -0.121625 -0.803345
  endloop
endfacet
facet normal -0.000284 -0.203456 -0.979084
  outer loop
    vertex 12.000000 -0.121625 -0.803345
    vertex 9.600000 -0.219210 -0.782370
    vertex 9.600000 -0.110635 -0.804932
  endloop
endfacet
facet normal 0.000281 -0.082518 -0.996590
  outer loop
    vertex 12.000000 -0.121625 -0.803345
    vertex 9.600000 -0.110635 -0.804932
    vertex 12.000000 -0.012160 -0.812409
  endloop
endfacet
facet normal -0.000308 -0.068242 -0.997669
  outer loop
    vertex 12.000000 -0.012160 -0.812409
    vertex 9.600000 -0.110635 -0.804932
    vertex 9.600000 0.000000 -0.812500
  endloop
endfacet
facet normal 0.000305 0.052653 -0.998613
  outer loop
    vertex 12.000000 -0.012160 -0.812409
    vertex 9.600000 0.000000 -0.812500
    vertex 12.000000 0.097526 -0.806626
  endloop
endfacet
facet normal -0.000331 0.068242 -0.997669
  outer loop
    vertex 12.000000 0.097526 -0.806626
    vertex 9.600000 0.000000 -0.812500
    vertex 9.600000 0.110635 -0.804932
  endloop
endfacet
facet normal 0.000328 0.186862 -0.982386
  outer loop
    vertex 12.000000 0.097526 -0.806626
    vertex 9.600000 0.110635 -0.804932
    vertex 12.000000 0.205431 -0.786101
  endloop
endfacet
facet normal -0.000354 0.203456 -0.979084
  outer loop
    vertex 12.000000 0.205431 -0.786101
    vertex 9.600000 0.110635 -0.804932
    vertex 9.600000 0.219210 -0.782370
  endloop
endfacet
facet normal 0.000350 0.317657 -0.948206
  outer loop
    vertex 12.000000 0.205431 -0.786101
    vertex 9.600000 0.219210 -0.782370
    vertex 12.000000 0.309580 -0.751210
  endloop
endfacet
facet normal -0.000376 0.334879 -0.942261
  outer loop
    vertex 12.000000 0.309580 -0.751210
    vertex 9.600000 0.219210 -0.782370
    vertex 9.600000 0.323701 -0.745234
  endloop
endfacet
facet normal 0.000372 0.442645 -0.896697
  outer loop
    vertex 12.000000 0.309580 -0.751210
    vertex 9.600000 0.323701 -0.745234
    vertex 12.000000 0.408073 -0.702590
  endloop
endfacet
facet normal -0.000397 0.460065 -0.887885
  outer loop
    vertex 12.000000 0.408073 -0.702590
    vertex 9.600000 0.323701 -0.745234
    vertex 9.600000 0.422162 -0.694216
  endloop
endfacet
facet normal 0.000393 0.559545 -0.828800
  outer loop
    vertex 12.000000 0.408073 -0.702590
    vertex 9.600000 0.422162 -0.694216
    vertex 12.000000 0.499107 -0.641130
  endloop
endfacet
facet normal -0.000418 0.576680 -0.816970
  outer loop
    vertex 12.000000 0.499107 -0.641130
    vertex 9.600000 0.422162 -0.694216
    vertex 9.600000 0.512759 -0.630265
  endloop
endfacet
facet normal 0.000413 0.666218 -0.745757
  outer loop
    vertex 12.000000 0.499107 -0.641130
    vertex 9.600000 0.512759 -0.630265
    vertex 12.000000 0.581020 -0.567954
  endloop
endfacet
facet normal -0.000439 0.682553 -0.730836
  outer loop
    vertex 12.000000 0.581020 -0.567954
    vertex 9.600000 0.512759 -0.630265
    vertex 9.600000 0.593804 -0.554574
  endloop
endfacet
facet normal 0.000434 0.760715 -0.649086
  outer loop
    vertex 12.000000 0.581020 -0.567954
    vertex 9.600000 0.593804 -0.554574
    vertex 12.000000 0.652315 -0.484398
  endloop
endfacet
facet normal -0.000458 0.775711 -0.631088
  outer loop
    vertex 12.000000 0.652315 -0.484398
    vertex 9.600000 0.593804 -0.554574
    vertex 9.600000 0.663788 -0.468553
  endloop
endfacet
facet normal 0.000453 0.841311 -0.540551
  outer loop
    vertex 12.000000 0.652315 -0.484398
    vertex 9.600000 0.663788 -0.468553
    vertex 12.000000 0.711689 -0.391989
  endloop
endfacet
facet normal -0.000477 0.854419 -0.519584
  outer loop
    vertex 12.000000 0.711689 -0.391989
    vertex 9.600000 0.663788 -0.468553
    vertex 9.600000 0.721407 -0.373803
  endloop
endfacet
facet normal 0.000472 0.906532 -0.422138
  outer loop
    vertex 12.000000 0.711689 -0.391989
    vertex 9.600000 0.721407 -0.373803
    vertex 12.000000 0.758056 -0.292416
  endloop
endfacet
facet normal -0.000496 0.917211 -0.398401
  outer loop
    vertex 12.000000 0.758056 -0.292416
    vertex 9.600000 0.721407 -0.373803
    vertex 9.600000 0.765587 -0.272090
  endloop
endfacet
facet normal 0.000490 0.955185 -0.296010
  outer loop
    vertex 12.000000 0.758056 -0.292416
    vertex 9.600000 0.765587 -0.272090
    vertex 12.000000 0.790569 -0.187500
  endloop
endfacet
facet normal 0.000000 0.959048 -0.283242
  outer loop
    vertex 12.000000 0.790569 -0.187500
    vertex 9.600000 0.765587 -0.272090
    vertex 7.200000 0.765587 -0.272090
  endloop
endfacet
facet normal 0.000000 0.959048 -0.283242
  outer loop
    vertex 12.000000 0.790569 -0.187500
    vertex 7.200000 0.765587 -0.272090
    vertex 4.800000 0.765587 -0.272090
  endloop
endfacet
facet normal 0.000000 0.917211 -0.398401
  outer loop
    vertex 4.800000 0.765587 -0.272090
    vertex 7.200000 0.765587 -0.272090
    vertex 4.800000 0.721407 -0.373803
  endloop
endfacet
facet normal 0.000000 0.917211 -0.398401
  outer loop
    vertex 4.800000 0.765587 -0.272090
    vertex 4.800000 0.721407 -0.373803
    vertex 2.400000 0.721407 -0.373803
  endloop
endfacet
facet normal 0.000000 0.854419 -0.519584
  outer loop
    vertex 2.400000 0.721407 -0.373803
    vertex 4.800000 0.721407 -0.373803
    vertex 2.400000 0.663788 -0.468553
  endloop
endfacet
facet normal 0.000477 0.854419 -0.519584
  outer loop
    vertex 2.400000 0.721407 -0.373803
    vertex 2.400000 0.663788 -0.468553
    vertex 0.000000 0.711689 -0.391989
  endloop
endfacet
facet normal -0.000453 0.841311 -0.540551
  outer loop
    vertex 0.000000 0.711689 -0.391989
    vertex 2.400000 0.663788 -0.468553
    vertex 0.000000 0.652315 -0.484398
  endloop
endfacet
facet normal 0.000458 0.775711 -0.631088
  outer loop
    vertex 0.000000 0.652315 -0.484398
    vertex 2.400000 0.663788 -0.468553
    vertex 2.400000 0.593804 -0.554574
  endloop
endfacet
facet normal -0.000434 0.760715 -0.649085
  outer loop
    vertex 0.000000 0.652315 -0.484398
    vertex 2.400000 0.593804 -0.554574
    vertex 0.000000 0.581020 -0.567954
  endloop
endfacet
facet normal 0.000439 0.682553 -0.730836
  outer loop
    vertex 0.000000 0.581020 -0.567954
    vertex 2.400000 0.593804 -0.554574
    vertex 2.400000 0.512759 -0.630265
  endloop
endfacet
facet normal -0.000413 0.666218 -0.745757
  outer loop
    vertex 0.000000 0.581020 -0.567954
    vertex 2.400000 0.512759 -0.630265
    vertex 0.000000 0.499107 -0.641130
  endloop
endfacet
facet normal 0.000418 0.576680 -0.816970
  outer loop
    vertex 0.000000 0.499107 -0.641130
    vertex 2.400000 0.512759 -0.630265
    vertex 2.400000 0.422162 -0.694216
  endloop
endfacet
facet normal -0.000393 0.559545 -0.828800
  outer loop
    vertex 0.000000 0.499107 -0.641130
    vertex 2.400000 0.422162 -0.694216
    vertex 0.000000 0.408073 -0.702590
  endloop
endfacet
facet normal 0.000397 0.460065 -0.887885
  outer loop
    vertex 0.000000 0.408073 -0.702590
    vertex 2.400000 0.422162 -0.694216
    vertex 2.400000 0.323701 -0.745234
  endloop
endfacet
facet normal -0.000372 0.442645 -0.896697
  outer loop
    vertex 0.000000 0.408073 -0.702590
    vertex 2.400000 0.323701 -0.745234
    vertex 0.000000 0.309580 -0.751210
  endloop
endfacet
facet normal 0.000376 0.334879 -0.942261
  outer loop
    vertex 0.000000 0.309580 -0.751210
    vertex 2.400000 0.323701 -0.745234
    vertex 2.400000 0.219210 -0.782370
  endloop
endfacet
facet normal -0.000350 0.317657 -0.948206
  outer loop
    vertex 0.000000 0.309580 -0.751210
    vertex 2.400000 0.219210 -0.782370
    vertex 0.000000 0.205431 -0.786101
  endloop
endfacet
facet normal 0.000354 0.203456 -0.979084
  outer loop
    vertex 0.000000 0.205431 -0.786101
    vertex 2.400000 0.219210 -0.782370
    vertex 2.400000 0.110635 -0.804932
  endloop
endfacet
facet normal -0.000328 0.186862 -0.982386
  outer loop
    vertex 0.000000 0.205431 -0.786101
    vertex 2.400000 0.110635 -0.804932
    vertex 0.000000 0.097526 -0.806626
  endloop
endfacet
facet normal 0.000331 0.068242 -0.997669
  outer loop
    vertex 0.000000 0.097526 -0.806626
    vertex 2.400000 0.110635 -0.804932
    vertex 2.400000 0.000000 -0.812500
  endloop
endfacet
facet normal -0.000305 0.052653 -0.998613
  outer loop
    vertex 0.000000 0.097526 -0.806626
    vertex 2.400000 0.000000 -0.812500
    vertex 0.000000 -0.012160 -0.812409
  endloop
endfacet
facet normal 0.000308 -0.068242 -0.997669
  outer loop
    vertex 0.000000 -0.012160 -0.812409
    vertex 2.400000 0.000000 -0.812500
    vertex 2.400000 -0.110635 -0.804932
  endloop
endfacet
facet normal -0.000281 -0.082518 -0.996590
  outer loop
    vertex 0.000000 -0.012160 -0.812409
    vertex 2.400000 -0.110635 -0.804932
    vertex 0.000000 -0.121625 -0.803345
  endloop
endfacet
facet normal 0.000284 -0.203456 -0.979084
  outer loop
    vertex 0.000000 -0.121625 -0.803345
    vertex 2.400000 -0.110635 -0.804932
    vertex 2.400000 -0.219210 -0.782370
  endloop
endfacet
facet normal -0.000257 -0.216181 -0.976353
  outer loop
    vertex 0.000000 -0.121625 -0.803345
    vertex 2.400000 -0.219210 -0.782370
    vertex 0.000000 -0.228866 -0.779600
  endloop
endfacet
facet normal 0.000260 -0.334879 -0.942261
  outer loop
    vertex 0.000000 -0.228866 -0.779600
    vertex 2.400000 -0.219210 -0.782370
    vertex 2.400000 -0.323701 -0.745234
  endloop
endfacet
facet normal -0.000232 -0.345893 -0.938274
  outer loop
    vertex 0.000000 -0.228866 -0.779600
    vertex 2.400000 -0.323701 -0.745234
    vertex 0.000000 -0.331925 -0.741608
  endloop
endfacet
facet normal 0.000235 -0.460065 -0.887885
  outer loop
    vertex 0.000000 -0.331925 -0.741608
    vertex 2.400000 -0.323701 -0.745234
    vertex 2.400000 -0.422162 -0.694216
  endloop
endfacet
facet normal -0.000207 -0.469285 -0.883047
  outer loop
    vertex 0.000000 -0.331925 -0.741608
    vertex 2.400000 -0.422162 -0.694216
    vertex 0.000000 -0.428918 -0.690062
  endloop
endfacet
facet normal 0.000209 -0.576680 -0.816970
  outer loop
    vertex 0.000000 -0.428918 -0.690062
    vertex 2.400000 -0.422162 -0.694216
    vertex 2.400000 -0.512759 -0.630265
  endloop
endfacet
facet normal -0.000181 -0.584099 -0.811682
  outer loop
    vertex 0.000000 -0.428918 -0.690062
    vertex 2.400000 -0.512759 -0.630265
    vertex 0.000000 -0.518072 -0.625905
  endloop
endfacet
facet normal 0.000183 -0.682553 -0.730836
  outer loop
    vertex 0.000000 -0.518072 -0.625905
    vertex 2.400000 -0.512759 -0.630265
    vertex 2.400000 -0.593804 -0.554574
  endloop
endfacet
facet normal -0.000155 -0.688240 -0.725484
  outer loop
    vertex 0.000000 -0.518072 -0.625905
    vertex 2.400000 -0.593804 -0.554574
    vertex 0.000000 -0.597759 -0.550310
  endloop
endfacet
facet normal 0.000157 -0.775711 -0.631088
  outer loop
    vertex 0.000000 -0.597759 -0.550310
    vertex 2.400000 -0.593804 -0.554574
    vertex 2.400000 -0.663788 -0.468553
  endloop
endfacet
facet normal -0.000128 -0.779801 -0.626027
  outer loop
    vertex 0.000000 -0.597759 -0.550310
    vertex 2.400000 -0.663788 -0.468553
    vertex 0.000000 -0.666521 -0.464657
  endloop
endfacet
facet normal 0.000130 -0.854419 -0.519584
  outer loop
    vertex 0.000000 -0.666521 -0.464657
    vertex 2.400000 -0.663788 -0.468553
    vertex 2.400000 -0.721407 -0.373803
  endloop
endfacet
facet normal -0.000101 -0.857113 -0.515129
  outer loop
    vertex 0.000000 -0.666521 -0.464657
    vertex 2.400000 -0.721407 -0.373803
    vertex 0.000000 -0.723102 -0.370513
  endloop
endfacet
facet normal 0.000102 -0.917211 -0.398401
  outer loop
    vertex 0.000000 -0.723102 -0.370513
    vertex 2.400000 -0.721407 -0.373803
    vertex 2.400000 -0.765587 -0.272090
  endloop
endfacet
facet normal -0.000073 -0.918760 -0.394817
  outer loop
    vertex 0.000000 -0.723102 -0.370513
    vertex 2.400000 -0.765587 -0.272090
    vertex 0.000000 -0.766468 -0.269597
  endloop
endfacet
facet normal 0.000073 -0.962917 -0.269797
  outer loop
    vertex 0.000000 -0.766468 -0.269597
    vertex 2.400000 -0.765587 -0.272090
    vertex 2.400000 -0.795506 -0.165308
  endloop
endfacet
facet normal -0.000044 -0.963616 -0.267290
  outer loop
    vertex 0.000000 -0.766468 -0.269597
    vertex 2.400000 -0.795506 -0.165308
    vertex 0.000000 -0.795827 -0.163755
  endloop
endfacet
facet normal 0.000045 -0.990730 -0.135844
  outer loop
    vertex 0.000000 -0.795827 -0.163755
    vertex 2.400000 -0.795506 -0.165308
    vertex 2.400000 -0.810642 -0.054919
  endloop
endfacet
facet normal 0.000000 -0.990862 -0.134877
  outer loop
    vertex 0.000000 -0.795827 -0.163755
    vertex 2.400000 -0.810642 -0.054919
    vertex 0.000000 -0.810642 -0.054919
  endloop
endfacet
facet normal 0.000000 -1.000000 0.000000
  outer loop
    vertex 0.000000 -0.810642 -0.054919
    vertex 2.400000 -0.810642 -0.054919
    vertex 0.000000 -0.810642 0.054919
  endloop
endfacet
facet normal 0.000000 -1.000000 0.000000
  outer loop
    vertex 0.000000 -0.810642 0.054919
    vertex 2.400000 -0.810642 -0.054919
    vertex 2.400000 -0.810642 0.054919
  endloop
endfacet
facet normal 0.000000 -0.990862 0.134877
  outer loop
    vertex 0.000000 -0.810642 0.054919
    vertex 2.400000 -0.810642 0.054919
    vertex 0.000000 -0.795827 0.163755
  endloop
endfacet
facet normal 0.000045 -0.990730 0.135844
  outer loop
    vertex 0.000000 -0.795827 0.163755
    vertex 2.400000 -0.810642 0.054919
    vertex 2.400000 -0.795506 0.165308
  endloop
endfacet
facet normal -0.000044 -0.963616 0.267290
  outer loop
    vertex 0.000000 -0.795827 0.163755
    vertex 2.400000 -0.795506 0.165308
    vertex 0.000000 -0.766468 0.269597
  endloop
endfacet
facet normal 0.000073 -0.962917 0.269797
  outer loop
    vertex 0.000000 -0.766468 0.269597
    vertex 2.400000 -0.795506 0.165308
    vertex 2.400000 -0.765587 0.272090
  endloop
endfacet
facet normal -0.000073 -0.918760 0.394817
  outer loop
    vertex 0.000000 -0.766468 0.269597
    vertex 2.400000 -0.765587 0.272090
    vertex 0.000000 -0.723102 0.370513
  endloop
endfacet
facet normal 0.000102 -0.917211 0.398401
  outer loop
    vertex 0.000000 -0.723102 0.370513
    vertex 2.400000 -0.765587 0.272090
    vertex 2.400000 -0.721407 0.373803
  endloop
endfacet
facet normal -0.000101 -0.857113 0.515129
  outer loop
    vertex 0.000000 -0.723102 0.370513
    vertex 2.400000 -0.721407 0.373803
    vertex 0.000000 -0.666521 0.464657
  endloop
endfacet
facet normal 0.000130 -0.854419 0.519584
  outer loop
    vertex 0.000000 -0.666521 0.464657
    vertex 2.400000 -0.721407 0.373803
    vertex 2.400000 -0.663788 0.468553
  endloop
endfacet
facet normal -0.000128 -0.779801 0.626027
  outer loop
    vertex 0.000000 -0.666521 0.464657
    vertex 2.400000 -0.663788 0.468553
    vertex 0.000000 -0.597759 0.550310
  endloop
endfacet
facet normal 0.000157 -0.775711 0.631088
  outer loop
    vertex 0.000000 -0.597759 0.550310
    vertex 2.400000 -0.663788 0.468553
    vertex 2.400000 -0.593804 0.554574
  endloop
endfacet
facet normal -0.000155 -0.688240 0.725484
  outer loop
    vertex 0.000000 -0.597759 0.550310
    vertex 2.400000 -0.593804 0.554574
    vertex 0.000000 -0.518072 0.625905
  endloop
endfacet
facet normal 0.000183 -0.682553 0.730836
  outer loop
    vertex 0.000000 -0.518072 0.625905
    vertex 2.400000 -0.593804 0.554574
    vertex 2.400000 -0.512759 0.630265
  endloop
endfacet
facet normal -0.000181 -0.584099 0.811682
  outer loop
    vertex 0.000000 -0.518072 0.625905
    vertex 2.400000 -0.512759 0.630265
    vertex 0.000000 -0.428918 0.690062
  endloop
endfacet
facet normal 0.000209 -0.576680 0.816970
  outer loop
    vertex 0.000000 -0.428918 0.690062
    vertex 2.400000 -0.512759 0.630265
    vertex 2.400000 -0.422162 0.694216
  endloop
endfacet
facet normal -0.000207 -0.469285 0.883047
  outer loop
    vertex 0.000000 -0.428918 0.690062
    vertex 2.400000 -0.422162 0.694216
    vertex 0.000000 -0.331925 0.741608
  endloop
endfacet
facet normal 0.000235 -0.460065 0.887885
  outer loop
    vertex 0.000000 -0.331925 0.741608
    vertex 2.400000 -0.422162 0.694216
    vertex 2.400000 -0.323701 0.745234
  endloop
endfacet
facet normal -0.000232 -0.345893 0.938274
  outer loop
    vertex 0.000000 -0.331925 0.741608
    vertex 2.400000 -0.323701 0.745234
    vertex 0.000000 -0.228866 0.779600
  endloop
endfacet
facet normal 0.000260 -0.334879 0.942261
  outer loop
    vertex 0.000000 -0.228866 0.779600
    vertex 2.400000 -0.323701 0.745234
    vertex 2.400000 -0.219210 0.782370
  endloop
endfacet
facet normal -0.000257 -0.216181 0.976353
  outer loop
    vertex 0.000000 -0.228866 0.779600
    vertex 2.400000 -0.219210 0.782370
    vertex 0.000000 -0.121625 0.803345
  endloop
endfacet
facet normal 0.000284 -0.203456 0.979084
  outer loop
    vertex 0.000000 -0.121625 0.803345
    vertex 2.400000 -0.219210 0.782370
    vertex 2.400000 -0.110635 0.804932
  endloop
endfacet
facet normal -0.000281 -0.082518 0.996590
  outer loop
    vertex 0.000000 -0.121625 0.803345
    vertex 2.400000 -0.110635 0.804932
    vertex 0.000000 -0.012160 0.812409
  endloop
endfacet
facet normal 0.000308 -0.068242 0.997669
  outer loop
    vertex 0.000000 -0.012160 0.812409
    vertex 2.400000 -0.110635 0.804932
    vertex 2.400000 0.000000 0.812500
  endloop
endfacet
facet normal -0.000305 0.052653 0.998613
  outer loop
    vertex 0.000000 -0.012160 0.812409
    vertex 2.400000 0.000000 0.812500
    vertex 0.000000 0.097526 0.806626
  endloop
endfacet
facet normal 0.000331 0.068242 0.997669
  outer loop
    vertex 0.000000 0.097526 0.806626
    vertex 2.400000 0.000000 0.812500
    vertex 2.400000 0.110635 0.804932
  endloop
endfacet
facet normal -0.000328 0.186862 0.982386
  outer loop
    vertex 0.000000 0.097526 0.806626
    vertex 2.400000 0.110635 0.804932
    vertex 0.000000 0.205431 0.786101
  endloop
endfacet
facet normal 0.000354 0.203456 0.979084
  outer loop
    vertex 0.000000 0.205431 0.786101
    vertex 2.400000 0.110635 0.804932
    vertex 2.400000 0.219210 0.782370
  endloop
endfacet
facet normal -0.000350 0.317657 0.948206
  outer loop
    vertex 0.000000 0.205431 0.786101
    vertex 2.400000 0.219210 0.782370
    vertex 0.000000 0.309580 0.751210
  endloop
endfacet
facet normal 0.000376 0.334879 0.942261
  outer loop
    vertex 0.000000 0.309580 0.751210
    vertex 2.400000 0.219210 0.782370
    vertex 2.400000 0.323701 0.745234
  endloop
endfacet
facet normal -0.000372 0.442645 0.896697
  outer loop
    vertex 0.000000 0.309580 0.751210
    vertex 2.400000 0.323701 0.745234
    vertex 0.000000 0.408073 0.702590
  endloop
endfacet
facet normal 0.000397 0.460065 0.887885
  outer loop
    vertex 0.000000 0.408073 0.702590
    vertex 2.400000 0.323701 0.745234
    vertex 2.400000 0.422162 0.694216
  endloop
endfacet
facet normal -0.000393 0.559545 0.828800
  outer loop
    vertex 0.000000 0.408073 0.702590
    vertex 2.400000 0.422162 0.694216
    vertex 0.000000 0.499107 0.641130
  endloop
endfacet
facet normal 0.000418 0.576680 0.816970
  outer loop
    vertex 0.000000 0.499107 0.641130
    vertex 2.400000 0.422162 0.694216
    vertex 2.400000 0.512759 0.630265
  endloop
endfacet
facet normal -0.000413 0.666218 0.745757
  outer loop
    vertex 0.000000 0.499107 0.641130
    vertex 2.400000 0.512759 0.630265
    vertex 0.000000 0.581020 0.567954
  endloop
endfacet
facet normal 0.000439 0.682553 0.730836
  outer loop
    vertex 0.000000 0.581020 0.567954
    vertex 2.400000 0.512759 0.630265
    vertex 2.400000 0.593804 0.554574
  endloop
endfacet
facet normal -0.000434 0.760715 0.649085
  outer loop
    vertex 0.000000 0.581020 0.567954
    vertex 2.400000 0.593804 0.554574
    vertex 0.000000 0.652315 0.484398
  endloop
endfacet
facet normal 0.000458 0.775711 0.631088
  outer loop
    vertex 0.000000 0.652315 0.484398
    vertex 2.400000 0.593804 0.554574
    vertex 2.400000 0.663788 0.468553
  endloop
endfacet
facet normal -0.000453 0.841311 0.540551
  outer loop
    vertex 0.000000 0.652315 0.484398
    vertex 2.400000 0.663788 0.468553
    vertex 0.000000 0.711689 0.391989
  endloop
endfacet
facet normal 0.000477 0.854419 0.519584
  outer loop
    vertex 0.000000 0.711689 0.391989
    vertex 2.400000 0.663788 0.468553
    vertex 2.400000 0.721407 0.373803
  endloop
endfacet
facet normal -0.000472 0.906532 0.422138
  outer loop
    vertex 0.000000 0.711689 0.391989
    vertex 2.400000 0.721407 0.373803
    vertex 0.000000 0.758056 0.292416
  endloop
endfacet
facet normal 0.000496 0.917211 0.398401
  outer loop
    vertex 0.000000 0.758056 0.292416
    vertex 2.400000 0.721407 0.373803
    vertex 2.400000 0.765587 0.272090
  endloop
endfacet
facet normal -0.000472 0.906532 -0.422138
  outer loop
    vertex 0.000000 0.711689 -0.391989
    vertex 0.000000 0.758056 -0.292416
    vertex 2.400000 0.721407 -0.373803
  endloop
endfacet
facet normal 0.000496 0.917211 -0.398401
  outer loop
    vertex 2.400000 0.721407 -0.373803
    vertex 0.000000 0.758056 -0.292416
    vertex 2.400000 0.765587 -0.272090
  endloop
endfacet
facet normal 0.000000 0.917211 -0.398401
  outer loop
    vertex 2.400000 0.721407 -0.373803
    vertex 2.400000 0.765587 -0.272090
    vertex 4.800000 0.765587 -0.272090
  endloop
endfacet
facet normal 0.000000 0.959048 -0.283242
  outer loop
    vertex 4.800000 0.765587 -0.272090
    vertex 2.400000 0.765587 -0.272090
    vertex 0.000000 0.790569 -0.187500
  endloop
endfacet
facet normal 0.000000 0.959048 -0.283242
  outer loop
    vertex 4.800000 0.765587 -0.272090
    vertex 0.000000 0.790569 -0.187500
    vertex 12.000000 0.790569 -0.187500
  endloop
endfacet
facet normal -0.000490 0.955185 -0.296010
  outer loop
    vertex 0.000000 0.758056 -0.292416
    vertex 0.000000 0.790569 -0.187500
    vertex 2.400000 0.765587 -0.272090
  endloop
endfacet
facet normal 0.000472 0.906532 0.422138
  outer loop
    vertex 12.000000 0.711689 0.391989
    vertex 12.000000 0.758056 0.292416
    vertex 9.600000 0.721407 0.373803
  endloop
endfacet
facet normal -0.000496 0.917211 0.398401
  outer loop
    vertex 9.600000 0.721407 0.373803
    vertex 12.000000 0.758056 0.292416
    vertex 9.600000 0.765587 0.272090
  endloop
endfacet
facet normal 0.000000 0.917211 0.398401
  outer loop
    vertex 9.600000 0.721407 0.373803
    vertex 9.600000 0.765587 0.272090
    vertex 7.200000 0.765587 0.272090
  endloop
endfacet
facet normal -0.000000 0.959048 0.283242
  outer loop
    vertex 7.200000 0.765587 0.272090
    vertex 9.600000 0.765587 0.272090
    vertex 12.000000 0.790569 0.187500
  endloop
endfacet
facet normal 0.000000 0.959048 0.283242
  outer loop
    vertex 7.200000 0.765587 0.272090
    vertex 12.000000 0.790569 0.187500
    vertex 0.000000 0.790569 0.187500
  endloop
endfacet
facet normal 0.000490 0.955185 0.296010
  outer loop
    vertex 12.000000 0.758056 0.292416
    vertex 12.000000 0.790569 0.187500
    vertex 9.600000 0.765587 0.272090
  endloop
endfacet
facet normal -0.000000 0.068242 0.997669
  outer loop
    vertex 2.400000 0.000000 0.812500
    vertex 4.800000 0.000000 0.812500
    vertex 2.400000 0.110635 0.804932
  endloop
endfacet
facet normal -0.000000 0.068242 0.997669
  outer loop
    vertex 2.400000 0.110635 0.804932
    vertex 4.800000 0.000000 0.812500
    vertex 4.800000 0.110635 0.804932
  endloop
endfacet
facet normal -0.000000 0.203456 0.979084
  outer loop
    vertex 2.400000 0.110635 0.804932
    vertex 4.800000 0.110635 0.804932
    vertex 2.400000 0.219210 0.782370
  endloop
endfacet
facet normal -0.000000 0.203456 0.979084
  outer loop
    vertex 2.400000 0.219210 0.782370
    vertex 4.800000 0.110635 0.804932
    vertex 4.800000 0.219210 0.782370
  endloop
endfacet
facet normal -0.000000 0.334879 0.942261
  outer loop
    vertex 2.400000 0.219210 0.782370
    vertex 4.800000 0.219210 0.782370
    vertex 2.400000 0.323701 0.745234
  endloop
endfacet
facet normal -0.000000 0.334879 0.942261
  outer loop
    vertex 2.400000 0.323701 0.745234
    vertex 4.800000 0.219210 0.782370
    vertex 4.800000 0.323701 0.745234
  endloop
endfacet
facet normal -0.000000 0.460065 0.887885
  outer loop
    vertex 2.400000 0.323701 0.745234
    vertex 4.800000 0.323701 0.745234
    vertex 2.400000 0.422162 0.694216
  endloop
endfacet
facet normal -0.000000 0.460065 0.887885
  outer loop
    vertex 2.400000 0.422162 0.694216
    vertex 4.800000 0.323701 0.745234
    vertex 4.800000 0.422162 0.694216
  endloop
endfacet
facet normal -0.000000 0.576680 0.816970
  outer loop
    vertex 2.400000 0.422162 0.694216
    vertex 4.800000 0.422162 0.694216
    vertex 2.400000 0.512759 0.630265
  endloop
endfacet
facet normal -0.000000 0.576680 0.816970
  outer loop
    vertex 2.400000 0.512759 0.630265
    vertex 4.800000 0.422162 0.694216
    vertex 4.800000 0.512759 0.630265
  endloop
endfacet
facet normal -0.000000 0.682553 0.730836
  outer loop
    vertex 2.400000 0.512759 0.630265
    vertex 4.800000 0.512759 0.630265
    vertex 2.400000 0.593804 0.554574
  endloop
endfacet
facet normal -0.000000 0.682553 0.730836
  outer loop
    vertex 2.400000 0.593804 0.554574
    vertex 4.800000 0.512759 0.630265
    vertex 4.800000 0.593804 0.554574
  endloop
endfacet
facet normal -0.000000 0.775711 0.631088
  outer loop
    vertex 2.400000 0.593804 0.554574
    vertex 4.800000 0.593804 0.554574
    vertex 2.400000 0.663788 0.468553
  endloop
endfacet
facet normal -0.000000 0.775711 0.631088
  outer loop
    vertex 2.400000 0.663788 0.468553
    vertex 4.800000 0.593804 0.554574
    vertex 4.800000 0.663788 0.468553
  endloop
endfacet
facet normal -0.000000 0.854419 0.519584
  outer loop
    vertex 2.400000 0.663788 0.468553
    vertex 4.800000 0.663788 0.468553
    vertex 2.400000 0.721407 0.373803
  endloop
endfacet
facet normal -0.000000 0.854419 0.519584
  outer loop
    vertex 2.400000 0.721407 0.373803
    vertex 4.800000 0.663788 0.468553
    vertex 4.800000 0.721407 0.373803
  endloop
endfacet
facet normal -0.000000 0.917211 0.398401
  outer loop
    vertex 2.400000 0.721407 0.373803
    vertex 4.800000 0.721407 0.373803
    vertex 2.400000 0.765587 0.272090
  endloop
endfacet
facet normal -0.000000 0.917211 0.398401
  outer loop
    vertex 2.400000 0.765587 0.272090
    vertex 4.800000 0.721407 0.373803
    vertex 4.800000 0.765587 0.272090
  endloop
endfacet
facet normal -0.000000 0.068242 0.997669
  outer loop
    vertex 4.800000 0.000000 0.812500
    vertex 7.200000 0.000000 0.812500
    vertex 4.800000 0.110635 0.804932
  endloop
endfacet
facet normal -0.000000 0.068242 0.997669
  outer loop
    vertex 4.800000 0.110635 0.804932
    vertex 7.200000 0.000000 0.812500
    vertex 7.200000 0.110635 0.804932
  endloop
endfacet
facet normal -0.000000 0.203456 0.979084
  outer loop
    vertex 4.800000 0.110635 0.804932
    vertex 7.200000 0.110635 0.804932
    vertex 4.800000 0.219210 0.782370
  endloop
endfacet
facet normal -0.000000 0.203456 0.979084
  outer loop
    vertex 4.800000 0.219210 0.782370
    vertex 7.200000 0.110635 0.804932
    vertex 7.200000 0.219210 0.782370
  endloop
endfacet
facet normal -0.000000 0.334879 0.942261
  outer loop
    vertex 4.800000 0.219210 0.782370
    vertex 7.200000 0.219210 0.782370
    vertex 4.800000 0.323701 0.745234
  endloop
endfacet
facet normal -0.000000 0.334879 0.942261
  outer loop
    vertex 4.800000 0.323701 0.745234
    vertex 7.200000 0.219210 0.782370
    vertex 7.200000 0.323701 0.745234
  endloop
endfacet
facet normal -0.000000 0.460065 0.887885
  outer loop
    vertex 4.800000 0.323701 0.745234
    vertex 7.200000 0.323701 0.745234
    vertex 4.800000 0.422162 0.694216
  endloop
endfacet
facet normal -0.000000 0.460065 0.887885
  outer loop
    vertex 4.800000 0.422162 0.694216
    vertex 7.200000 0.323701 0.745234
    vertex 7.200000 0.422162 0.694216
  endloop
endfacet
facet normal -0.000000 0.576680 0.816970
  outer loop
    vertex 4.800000 0.422162 0.694216
    vertex 7.200000 0.422162 0.694216
    vertex 4.800000 0.512759 0.630265
  endloop
endfacet
facet normal -0.000000 0.576680 0.816970
  outer loop
    vertex 4.800000 0.512759 0.630265
    vertex 7.200000 0.422162 0.694216
    vertex 7.200000 0.512759 0.630265
  endloop
endfacet
facet normal -0.000000 0.682553 0.730836
  outer loop
    vertex 4.800000 0.512759 0.630265
    vertex 7.200000 0.512759 0.630265
    vertex 4.800000 0.593804 0.554574
  endloop
endfacet
facet normal -0.000000 0.682553 0.730836
  outer loop
    vertex 4.800000 0.593804 0.554574
    vertex 7.200000 0.512759 0.630265
    vertex 7.200000 0.593804 0.554574
  endloop
endfacet
facet normal -0.000000 0.775711 0.631088
  outer loop
    vertex 4.800000 0.593804 0.554574
    vertex 7.200000 0.593804 0.554574
    vertex 4.800000 0.663788 0.468553
  endloop
endfacet
facet normal -0.000000 0.775711 0.631088
  outer loop
    vertex 4.800000 0.663788 0.468553
    vertex 7.200000 0.593804 0.554574
    vertex 7.200000 0.663788 0.468553
  endloop
endfacet
facet normal -0.000000 0.854419 0.519584
  outer loop
    vertex 4.800000 0.663788 0.468553
    vertex 7.200000 0.663788 0.468553
    vertex 4.800000 0.721407 0.373803
  endloop
endfacet
facet normal -0.000000 0.854419 0.519584
  outer loop
    vertex 4.800000 0.721407 0.373803
    vertex 7.200000 0.663788 0.468553
    vertex 7.200000 0.721407 0.373803
  endloop
endfacet
facet normal -0.000000 0.917211 0.398401
  outer loop
    vertex 4.800000 0.721407 0.373803
    vertex 7.200000 0.721407 0.373803
    vertex 4.800000 0.765587 0.272090
  endloop
endfacet
facet normal 0.000000 -0.068242 0.997669
  outer loop
    vertex 4.800000 0.000000 0.812500
    vertex 2.400000 0.000000 0.812500
    vertex 4.800000 -0.110635 0.804932
  endloop
endfacet
facet normal 0.000000 -0.068242 0.997669
  outer loop
    vertex 4.800000 -0.110635 0.804932
    vertex 2.400000 0.000000 0.812500
    vertex 2.400000 -0.110635 0.804932
  endloop
endfacet
facet normal 0.000000 -0.203456 0.979084
  outer loop
    vertex 4.800000 -0.110635 0.804932
    vertex 2.400000 -0.110635 0.804932
    vertex 4.800000 -0.219210 0.782370
  endloop
endfacet
facet normal 0.000000 -0.203456 0.979084
  outer loop
    vertex 4.800000 -0.219210 0.782370
    vertex 2.400000 -0.110635 0.804932
    vertex 2.400000 -0.219210 0.782370
  endloop
endfacet
facet normal 0.000000 -0.334879 0.942261
  outer loop
    vertex 4.800000 -0.219210 0.782370
    vertex 2.400000 -0.219210 0.782370
    vertex 4.800000 -0.323701 0.745234
  endloop
endfacet
facet normal 0.000000 -0.334879 0.942261
  outer loop
    vertex 4.800000 -0.323701 0.745234
    vertex 2.400000 -0.219210 0.782370
    vertex 2.400000 -0.323701 0.745234
  endloop
endfacet
facet normal 0.000000 -0.460065 0.887885
  outer loop
    vertex 4.800000 -0.323701 0.745234
    vertex 2.400000 -0.323701 0.745234
    vertex 4.800000 -0.422162 0.694216
  endloop
endfacet
facet normal 0.000000 -0.460065 0.887885
  outer loop
    vertex 4.800000 -0.422162 0.694216
    vertex 2.400000 -0.323701 0.745234
    vertex 2.400000 -0.422162 0.694216
  endloop
endfacet
facet normal 0.000000 -0.576680 0.816970
  outer loop
    vertex 4.800000 -0.422162 0.694216
    vertex 2.400000 -0.422162 0.694216
    vertex 4.800000 -0.512759 0.630265
  endloop
endfacet
facet normal 0.000000 -0.576680 0.816970
  outer loop
    vertex 4.800000 -0.512759 0.630265
    vertex 2.400000 -0.422162 0.694216
    vertex 2.400000 -0.512759 0.630265
  endloop
endfacet
facet normal 0.000000 -0.682553 0.730836
  outer loop
    vertex 4.800000 -0.512759 0.630265
    vertex 2.400000 -0.512759 0.630265
    vertex 4.800000 -0.593804 0.554574
  endloop
endfacet
facet normal 0.000000 -0.682553 0.730836
  outer loop
    vertex 4.800000 -0.593804 0.554574
    vertex 2.400000 -0.512759 0.630265
    vertex 2.400000 -0.593804 0.554574
  endloop
endfacet
facet normal 0.000000 -0.775711 0.631088
  outer loop
    vertex 4.800000 -0.593804 0.554574
    vertex 2.400000 -0.593804 0.554574
    vertex 4.800000 -0.663788 0.468553
  endloop
endfacet
facet normal 0.000000 -0.775711 0.631088
  outer loop
    vertex 4.800000 -0.663788 0.468553
    vertex 2.400000 -0.593804 0.554574
    vertex 2.400000 -0.663788 0.468553
  endloop
endfacet
facet normal 0.000000 -0.854419 0.519584
  outer loop
    vertex 4.800000 -0.663788 0.468553
    vertex 2.400000 -0.663788 0.468553
    vertex 4.800000 -0.721407 0.373803
  endloop
endfacet
facet normal 0.000000 -0.854419 0.519584
  outer loop
    vertex 4.800000 -0.721407 0.373803
    vertex 2.400000 -0.663788 0.468553
    vertex 2.400000 -0.721407 0.373803
  endloop
endfacet
facet normal 0.000000 -0.917211 0.398401
  outer loop
    vertex 4.800000 -0.721407 0.373803
    vertex 2.400000 -0.721407 0.373803
    vertex 4.800000 -0.765587 0.272090
  endloop
endfacet
facet normal 0.000000 -0.917211 0.398401
  outer loop
    vertex 4.800000 -0.765587 0.272090
    vertex 2.400000 -0.721407 0.373803
    vertex 2.400000 -0.765587 0.272090
  endloop
endfacet
facet normal 0.000000 -0.962917 0.269797
  outer loop
    vertex 4.800000 -0.765587 0.272090
    vertex 2.400000 -0.765587 0.272090
    vertex 4.800000 -0.795506 0.165308
  endloop
endfacet
facet normal 0.000000 -0.962917 0.269797
  outer loop
    vertex 4.800000 -0.795506 0.165308
    vertex 2.400000 -0.765587 0.272090
    vertex 2.400000 -0.795506 0.165308
  endloop
endfacet
facet normal 0.000000 -0.990730 0.135844
  outer loop
    vertex 4.800000 -0.795506 0.165308
    vertex 2.400000 -0.795506 0.165308
    vertex 4.800000 -0.810642 0.054919
  endloop
endfacet
facet normal 0.000000 -0.990730 0.135844
  outer loop
    vertex 4.800000 -0.810642 0.054919
    vertex 2.400000 -0.795506 0.165308
    vertex 2.400000 -0.810642 0.054919
  endloop
endfacet
facet normal -0.000000 -1.000000 -0.000000
  outer loop
    vertex 4.800000 -0.810642 0.054919
    vertex 2.400000 -0.810642 0.054919
    vertex 4.800000 -0.810642 -0.054919
  endloop
endfacet
facet normal 0.000000 -1.000000 0.000000
  outer loop
    vertex 4.800000 -0.810642 -0.054919
    vertex 2.400000 -0.810642 0.054919
    vertex 2.400000 -0.810642 -0.054919
  endloop
endfacet
facet normal -0.000000 -0.990730 -0.135844
  outer loop
    vertex 4.800000 -0.810642 -0.054919
    vertex 2.400000 -0.810642 -0.054919
    vertex 4.800000 -0.795506 -0.165308
  endloop
endfacet
facet normal -0.000000 -0.990730 -0.135844
  outer loop
    vertex 4.800000 -0.795506 -0.165308
    vertex 2.400000 -0.810642 -0.054919
    vertex 2.400000 -0.795506 -0.165308
  endloop
endfacet
facet normal -0.000000 -0.962917 -0.269797
  outer loop
    vertex 4.800000 -0.795506 -0.165308
    vertex 2.400000 -0.795506 -0.165308
    vertex 4.800000 -0.765587 -0.272090
  endloop
endfacet
facet normal -0.000000 -0.962917 -0.269797
  outer loop
    vertex 4.800000 -0.765587 -0.272090
    vertex 2.400000 -0.795506 -0.165308
    vertex 2.400000 -0.765587 -0.272090
  endloop
endfacet
facet normal -0.000000 -0.917211 -0.398401
  outer loop
    vertex 4.800000 -0.765587 -0.272090
    vertex 2.400000 -0.765587 -0.272090
    vertex 4.800000 -0.721407 -0.373803
  endloop
endfacet
facet normal -0.000000 -0.917211 -0.398401
  outer loop
    vertex 4.800000 -0.721407 -0.373803
    vertex 2.400000 -0.765587 -0.272090
    vertex 2.400000 -0.721407 -0.373803
  endloop
endfacet
facet normal -0.000000 -0.854419 -0.519584
  outer loop
    vertex 4.800000 -0.721407 -0.373803
    vertex 2.400000 -0.721407 -0.373803
    vertex 4.800000 -0.663788 -0.468553
  endloop
endfacet
facet normal -0.000000 -0.854419 -0.519584
  outer loop
    vertex 4.800000 -0.663788 -0.468553
    vertex 2.400000 -0.721407 -0.373803
    vertex 2.400000 -0.663788 -0.468553
  endloop
endfacet
facet normal -0.000000 -0.775711 -0.631088
  outer loop
    vertex 4.800000 -0.663788 -0.468553
    vertex 2.400000 -0.663788 -0.468553
    vertex 4.800000 -0.593804 -0.554574
  endloop
endfacet
facet normal -0.000000 -0.775711 -0.631088
  outer loop
    vertex 4.800000 -0.593804 -0.554574
    vertex 2.400000 -0.663788 -0.468553
    vertex 2.400000 -0.593804 -0.554574
  endloop
endfacet
facet normal -0.000000 -0.682553 -0.730836
  outer loop
    vertex 4.800000 -0.593804 -0.554574
    vertex 2.400000 -0.593804 -0.554574
    vertex 4.800000 -0.512759 -0.630265
  endloop
endfacet
facet normal -0.000000 -0.682553 -0.730836
  outer loop
    vertex 4.800000 -0.512759 -0.630265
    vertex 2.400000 -0.593804 -0.554574
    vertex 2.400000 -0.512759 -0.630265
  endloop
endfacet
facet normal -0.000000 -0.576680 -0.816970
  outer loop
    vertex 4.800000 -0.512759 -0.630265
    vertex 2.400000 -0.512759 -0.630265
    vertex 4.800000 -0.422162 -0.694216
  endloop
endfacet
facet normal -0.000000 -0.576680 -0.816970
  outer loop
    vertex 4.800000 -0.422162 -0.694216
    vertex 2.400000 -0.512759 -0.630265
    vertex 2.400000 -0.422162 -0.694216
  endloop
endfacet
facet normal -0.000000 -0.460065 -0.887885
  outer loop
    vertex 4.800000 -0.422162 -0.694216
    vertex 2.400000 -0.422162 -0.694216
    vertex 4.800000 -0.323701 -0.745234
  endloop
endfacet
facet normal -0.000000 -0.460065 -0.887885
  outer loop
    vertex 4.800000 -0.323701 -0.745234
    vertex 2.400000 -0.422162 -0.694216
    vertex 2.400000 -0.323701 -0.745234
  endloop
endfacet
facet normal -0.000000 -0.334879 -0.942261
  outer loop
    vertex 4.800000 -0.323701 -0.745234
    vertex 2.400000 -0.323701 -0.745234
    vertex 4.800000 -0.219210 -0.782370
  endloop
endfacet
facet normal -0.000000 -0.334879 -0.942261
  outer loop
    vertex 4.800000 -0.219210 -0.782370
    vertex 2.400000 -0.323701 -0.745234
    vertex 2.400000 -0.219210 -0.782370
  endloop
endfacet
facet normal -0.000000 -0.203456 -0.979084
  outer loop
    vertex 4.800000 -0.219210 -0.782370
    vertex 2.400000 -0.219210 -0.782370
    vertex 4.800000 -0.110635 -0.804932
  endloop
endfacet
facet normal -0.000000 -0.203456 -0.979084
  outer loop
    vertex 4.800000 -0.110635 -0.804932
    vertex 2.400000 -0.219210 -0.782370
    vertex 2.400000 -0.110635 -0.804932
  endloop
endfacet
facet normal -0.000000 -0.068242 -0.997669
  outer loop
    vertex 4.800000 -0.110635 -0.804932
    vertex 2.400000 -0.110635 -0.804932
    vertex 4.800000 0.000000 -0.812500
  endloop
endfacet
facet normal -0.000000 -0.068242 -0.997669
  outer loop
    vertex 4.800000 0.000000 -0.812500
    vertex 2.400000 -0.110635 -0.804932
    vertex 2.400000 0.000000 -0.812500
  endloop
endfacet
facet normal 0.000000 0.068242 -0.997669
  outer loop
    vertex 4.800000 0.000000 -0.812500
    vertex 2.400000 0.000000 -0.812500
    vertex 4.800000 0.110635 -0.804932
  endloop
endfacet
facet normal 0.000000 0.068242 -0.997669
  outer loop
    vertex 4.800000 0.110635 -0.804932
    vertex 2.400000 0.000000 -0.812500
    vertex 2.400000 0.110635 -0.804932
  endloop
endfacet
facet normal 0.000000 0.203456 -0.979084
  outer loop
    vertex 4.800000 0.110635 -0.804932
    vertex 2.400000 0.110635 -0.804932
    vertex 4.800000 0.219210 -0.782370
  endloop
endfacet
facet normal 0.000000 0.203456 -0.979084
  outer loop
    vertex 4.800000 0.219210 -0.782370
    vertex 2.400000 0.110635 -0.804932
    vertex 2.400000 0.219210 -0.782370
  endloop
endfacet
facet normal 0.000000 0.334879 -0.942261
  outer loop
    vertex 4.800000 0.219210 -0.782370
    vertex 2.400000 0.219210 -0.782370
    vertex 4.800000 0.323701 -0.745234
  endloop
endfacet
facet normal 0.000000 0.334879 -0.942261
  outer loop
    vertex 4.800000 0.323701 -0.745234
    vertex 2.400000 0.219210 -0.782370
    vertex 2.400000 0.323701 -0.745234
  endloop
endfacet
facet normal 0.000000 0.460065 -0.887885
  outer loop
    vertex 4.800000 0.323701 -0.745234
    vertex 2.400000 0.323701 -0.745234
    vertex 4.800000 0.422162 -0.694216
  endloop
endfacet
facet normal 0.000000 0.460065 -0.887885
  outer loop
    vertex 4.800000 0.422162 -0.694216
    vertex 2.400000 0.323701 -0.745234
    vertex 2.400000 0.422162 -0.694216
  endloop
endfacet
facet normal 0.000000 0.576680 -0.816970
  outer loop
    vertex 4.800000 0.422162 -0.694216
    vertex 2.400000 0.422162 -0.694216
    vertex 4.800000 0.512759 -0.630265
  endloop
endfacet
facet normal 0.000000 0.576680 -0.816970
  outer loop
    vertex 4.800000 0.512759 -0.630265
    vertex 2.400000 0.422162 -0.694216
    vertex 2.400000 0.512759 -0.630265
  endloop
endfacet
facet normal 0.000000 0.682553 -0.730836
  outer loop
    vertex 4.800000 0.512759 -0.630265
    vertex 2.400000 0.512759 -0.630265
    vertex 4.800000 0.593804 -0.554574
  endloop
endfacet
facet normal 0.000000 0.682553 -0.730836
  outer loop
    vertex 4.800000 0.593804 -0.554574
    vertex 2.400000 0.512759 -0.630265
    vertex 2.400000 0.593804 -0.554574
  endloop
endfacet
facet normal 0.000000 0.775711 -0.631088
  outer loop
    vertex 4.800000 0.593804 -0.554574
    vertex 2.400000 0.593804 -0.554574
    vertex 4.800000 0.663788 -0.468553
  endloop
endfacet
facet normal 0.000000 0.775711 -0.631088
  outer loop
    vertex 4.800000 0.663788 -0.468553
    vertex 2.400000 0.593804 -0.554574
    vertex 2.400000 0.663788 -0.468553
  endloop
endfacet
facet normal 0.000000 0.854419 -0.519584
  outer loop
    vertex 4.800000 0.663788 -0.468553
    vertex 2.400000 0.663788 -0.468553
    vertex 4.800000 0.721407 -0.373803
  endloop
endfacet
facet normal 0.000000 0.068242 0.997669
  outer loop
    vertex 7.200000 0.000000 0.812500
    vertex 9.600000 -0.000000 0.812500
    vertex 7.200000 0.110635 0.804932
  endloop
endfacet
facet normal -0.000000 0.068242 0.997669
  outer loop
    vertex 7.200000 0.110635 0.804932
    vertex 9.600000 -0.000000 0.812500
    vertex 9.600000 0.110635 0.804932
  endloop
endfacet
facet normal -0.000000 0.203456 0.979084
  outer loop
    vertex 7.200000 0.110635 0.804932
    vertex 9.600000 0.110635 0.804932
    vertex 7.200000 0.219210 0.782370
  endloop
endfacet
facet normal -0.000000 0.203456 0.979084
  outer loop
    vertex 7.200000 0.219210 0.782370
    vertex 9.600000 0.110635 0.804932
    vertex 9.600000 0.219210 0.782370
  endloop
endfacet
facet normal -0.000000 0.334879 0.942261
  outer loop
    vertex 7.200000 0.219210 0.782370
    vertex 9.600000 0.219210 0.782370
    vertex 7.200000 0.323701 0.745234
  endloop
endfacet
facet normal -0.000000 0.334879 0.942261
  outer loop
    vertex 7.200000 0.323701 0.745234
    vertex 9.600000 0.219210 0.782370
    vertex 9.600000 0.323701 0.745234
  endloop
endfacet
facet normal -0.000000 0.460065 0.887885
  outer loop
    vertex 7.200000 0.323701 0.745234
    vertex 9.600000 0.323701 0.745234
    vertex 7.200000 0.422162 0.694216
  endloop
endfacet
facet normal -0.000000 0.460065 0.887885
  outer loop
    vertex 7.200000 0.422162 0.694216
    vertex 9.600000 0.323701 0.745234
    vertex 9.600000 0.422162 0.694216
  endloop
endfacet
facet normal -0.000000 0.576680 0.816970
  outer loop
    vertex 7.200000 0.422162 0.694216
    vertex 9.600000 0.422162 0.694216
    vertex 7.200000 0.512759 0.630265
  endloop
endfacet
facet normal -0.000000 0.576680 0.816970
  outer loop
    vertex 7.200000 0.512759 0.630265
    vertex 9.600000 0.422162 0.694216
    vertex 9.600000 0.512759 0.630265
  endloop
endfacet
facet normal -0.000000 0.682553 0.730836
  outer loop
    vertex 7.200000 0.512759 0.630265
    vertex 9.600000 0.512759 0.630265
    vertex 7.200000 0.593804 0.554574
  endloop
endfacet
facet normal -0.000000 0.682553 0.730836
  outer loop
    vertex 7.200000 0.593804 0.554574
    vertex 9.600000 0.512759 0.630265
    vertex 9.600000 0.593804 0.554574
  endloop
endfacet
facet normal -0.000000 0.775711 0.631088
  outer loop
    vertex 7.200000 0.593804 0.554574
    vertex 9.600000 0.593804 0.554574
    vertex 7.200000 0.663788 0.468553
  endloop
endfacet
facet normal -0.000000 0.775711 0.631088
  outer loop
    vertex 7.200000 0.663788 0.468553
    vertex 9.600000 0.593804 0.554574
    vertex 9.600000 0.663788 0.468553
  endloop
endfacet
facet normal -0.000000 0.854419 0.519584
  outer loop
    vertex 7.200000 0.663788 0.468553
    vertex 9.600000 0.663788 0.468553
    vertex 7.200000 0.721407 0.373803
  endloop
endfacet
facet normal 0.000000 -0.068242 0.997669
  outer loop
    vertex 7.200000 0.000000 0.812500
    vertex 4.800000 0.000000 0.812500
    vertex 7.200000 -0.110635 0.804932
  endloop
endfacet
facet normal 0.000000 -0.068242 0.997669
  outer loop
    vertex 7.200000 -0.110635 0.804932
    vertex 4.800000 0.000000 0.812500
    vertex 4.800000 -0.110635 0.804932
  endloop
endfacet
facet normal 0.000000 -0.203456 0.979084
  outer loop
    vertex 7.200000 -0.110635 0.804932
    vertex 4.800000 -0.110635 0.804932
    vertex 7.200000 -0.219210 0.782370
  endloop
endfacet
facet normal 0.000000 -0.203456 0.979084
  outer loop
    vertex 7.200000 -0.219210 0.782370
    vertex 4.800000 -0.110635 0.804932
    vertex 4.800000 -0.219210 0.782370
  endloop
endfacet
facet normal 0.000000 -0.334879 0.942261
  outer loop
    vertex 7.200000 -0.219210 0.782370
    vertex 4.800000 -0.219210 0.782370
    vertex 7.200000 -0.323701 0.745234
  endloop
endfacet
facet normal 0.000000 -0.334879 0.942261
  outer loop
    vertex 7.200000 -0.323701 0.745234
    vertex 4.800000 -0.219210 0.782370
    vertex 4.800000 -0.323701 0.745234
  endloop
endfacet
facet normal 0.000000 -0.460065 0.887885
  outer loop
    vertex 7.200000 -0.323701 0.745234
    vertex 4.800000 -0.323701 0.745234
    vertex 7.200000 -0.422162 0.694216
  endloop
endfacet
facet normal 0.000000 -0.460065 0.887885
  outer loop
    vertex 7.200000 -0.422162 0.694216
    vertex 4.800000 -0.323701 0.745234
    vertex 4.800000 -0.422162 0.694216
  endloop
endfacet
facet normal 0.000000 -0.576680 0.816970
  outer loop
    vertex 7.200000 -0.422162 0.694216
    vertex 4.800000 -0.422162 0.694216
    vertex 7.200000 -0.512759 0.630265
  endloop
endfacet
facet normal 0.000000 -0.576680 0.816970
  outer loop
    vertex 7.200000 -0.512759 0.630265
    vertex 4.800000 -0.422162 0.694216
    vertex 4.800000 -0.512759 0.630265
  endloop
endfacet
facet normal 0.000000 -0.682553 0.730836
  outer loop
    vertex 7.200000 -0.512759 0.630265
    vertex 4.800000 -0.512759 0.630265
    vertex 7.200000 -0.593804 0.554574
  endloop
endfacet
facet normal 0.000000 -0.682553 0.730836
  outer loop
    vertex 7.200000 -0.593804 0.554574
    vertex 4.800000 -0.512759 0.630265
    vertex 4.800000 -0.593804 0.554574
  endloop
endfacet
facet normal 0.000000 -0.775711 0.631088
  outer loop
    vertex 7.200000 -0.593804 0.554574
    vertex 4.800000 -0.593804 0.554574
    vertex 7.200000 -0.663788 0.468553
  endloop
endfacet
facet normal 0.000000 -0.775711 0.631088
  outer loop
    vertex 7.200000 -0.663788 0.468553
    vertex 4.800000 -0.593804 0.554574
    vertex 4.800000 -0.663788 0.468553
  endloop
endfacet
facet normal 0.000000 -0.854419 0.519584
  outer loop
    vertex 7.200000 -0.663788 0.468553
    vertex 4.800000 -0.663788 0.468553
    vertex 7.200000 -0.721407 0.373803
  endloop
endfacet
facet normal 0.000000 -0.854419 0.519584
  outer loop
    vertex 7.200000 -0.721407 0.373803
    vertex 4.800000 -0.663788 0.468553
    vertex 4.800000 -0.721407 0.373803
  endloop
endfacet
facet normal 0.000000 -0.917211 0.398401
  outer loop
    vertex 7.200000 -0.721407 0.373803
    vertex 4.800000 -0.721407 0.373803
    vertex 7.200000 -0.765587 0.272090
  endloop
endfacet
facet normal 0.000000 -0.917211 0.398401
  outer loop
    vertex 7.200000 -0.765587 0.272090
    vertex 4.800000 -0.721407 0.373803
    vertex 4.800000 -0.765587 0.272090
  endloop
endfacet
facet normal 0.000000 -0.962917 0.269797
  outer loop
    vertex 7.200000 -0.765587 0.272090
    vertex 4.800000 -0.765587 0.272090
    vertex 7.200000 -0.795506 0.165308
  endloop
endfacet
facet normal 0.000000 -0.962917 0.269797
  outer loop
    vertex 7.200000 -0.795506 0.165308
    vertex 4.800000 -0.765587 0.272090
    vertex 4.800000 -0.795506 0.165308
  endloop
endfacet
facet normal 0.000000 -0.990730 0.135844
  outer loop
    vertex 7.200000 -0.795506 0.165308
    vertex 4.800000 -0.795506 0.165308
    vertex 7.200000 -0.810642 0.054919
  endloop
endfacet
facet normal 0.000000 -0.990730 0.135844
  outer loop
    vertex 7.200000 -0.810642 0.054919
    vertex 4.800000 -0.795506 0.165308
    vertex 4.800000 -0.810642 0.054919
  endloop
endfacet
facet normal -0.000000 -1.000000 -0.000000
  outer loop
    vertex 7.200000 -0.810642 0.054919
    vertex 4.800000 -0.810642 0.054919
    vertex 7.200000 -0.810642 -0.054919
  endloop
endfacet
facet normal 0.000000 -1.000000 0.000000
  outer loop
    vertex 7.200000 -0.810642 -0.054919
    vertex 4.800000 -0.810642 0.054919
    vertex 4.800000 -0.810642 -0.054919
  endloop
endfacet
facet normal -0.000000 -0.990730 -0.135844
  outer loop
    vertex 7.200000 -0.810642 -0.054919
    vertex 4.800000 -0.810642 -0.054919
    vertex 7.200000 -0.795506 -0.165308
  endloop
endfacet
facet normal -0.000000 -0.990730 -0.135844
  outer loop
    vertex 7.200000 -0.795506 -0.165308
    vertex 4.800000 -0.810642 -0.054919
    vertex 4.800000 -0.795506 -0.165308
  endloop
endfacet
facet normal -0.000000 -0.962917 -0.269797
  outer loop
    vertex 7.200000 -0.795506 -0.165308
    vertex 4.800000 -0.795506 -0.165308
    vertex 7.200000 -0.765587 -0.272090
  endloop
endfacet
facet normal -0.000000 -0.962917 -0.269797
  outer loop
    vertex 7.200000 -0.765587 -0.272090
    vertex 4.800000 -0.795506 -0.165308
    vertex 4.800000 -0.765587 -0.272090
  endloop
endfacet
facet normal -0.000000 -0.917211 -0.398401
  outer loop
    vertex 7.200000 -0.765587 -0.272090
    vertex 4.800000 -0.765587 -0.272090
    vertex 7.200000 -0.721407 -0.373803
  endloop
endfacet
facet normal -0.000000 -0.917211 -0.398401
  outer loop
    vertex 7.200000 -0.721407 -0.373803
    vertex 4.800000 -0.765587 -0.272090
    vertex 4.800000 -0.721407 -0.373803
  endloop
endfacet
facet normal -0.000000 -0.854419 -0.519584
  outer loop
    vertex 7.200000 -0.721407 -0.373803
    vertex 4.800000 -0.721407 -0.373803
    vertex 7.200000 -0.663788 -0.468553
  endloop
endfacet
facet normal -0.000000 -0.854419 -0.519584
  outer loop
    vertex 7.200000 -0.663788 -0.468553
    vertex 4.800000 -0.721407 -0.373803
    vertex 4.800000 -0.663788 -0.468553
  endloop
endfacet
facet normal -0.000000 -0.775711 -0.631088
  outer loop
    vertex 7.200000 -0.663788 -0.468553
    vertex 4.800000 -0.663788 -0.468553
    vertex 7.200000 -0.593804 -0.554574
  endloop
endfacet
facet normal -0.000000 -0.775711 -0.631088
  outer loop
    vertex 7.200000 -0.593804 -0.554574
    vertex 4.800000 -0.663788 -0.468553
    vertex 4.800000 -0.593804 -0.554574
  endloop
endfacet
facet normal -0.000000 -0.682553 -0.730836
  outer loop
    vertex 7.200000 -0.593804 -0.554574
    vertex 4.800000 -0.593804 -0.554574
    vertex 7.200000 -0.512759 -0.630265
  endloop
endfacet
facet normal -0.000000 -0.682553 -0.730836
  outer loop
    vertex 7.200000 -0.512759 -0.630265
    vertex 4.800000 -0.593804 -0.554574
    vertex 4.800000 -0.512759 -0.630265
  endloop
endfacet
facet normal -0.000000 -0.576680 -0.816970
  outer loop
    vertex 7.200000 -0.512759 -0.630265
    vertex 4.800000 -0.512759 -0.630265
    vertex 7.200000 -0.422162 -0.694216
  endloop
endfacet
facet normal -0.000000 -0.576680 -0.816970
  outer loop
    vertex 7.200000 -0.422162 -0.694216
    vertex 4.800000 -0.512759 -0.630265
    vertex 4.800000 -0.422162 -0.694216
  endloop
endfacet
facet normal -0.000000 -0.460065 -0.887885
  outer loop
    vertex 7.200000 -0.422162 -0.694216
    vertex 4.800000 -0.422162 -0.694216
    vertex 7.200000 -0.323701 -0.745234
  endloop
endfacet
facet normal -0.000000 -0.460065 -0.887885
  outer loop
    vertex 7.200000 -0.323701 -0.745234
    vertex 4.800000 -0.422162 -0.694216
    vertex 4.800000 -0.323701 -0.745234
  endloop
endfacet
facet normal -0.000000 -0.334879 -0.942261
  outer loop
    vertex 7.200000 -0.323701 -0.745234
    vertex 4.800000 -0.323701 -0.745234
    vertex 7.200000 -0.219210 -0.782370
  endloop
endfacet
facet normal -0.000000 -0.334879 -0.942261
  outer loop
    vertex 7.200000 -0.219210 -0.782370
    vertex 4.800000 -0.323701 -0.745234
    vertex 4.800000 -0.219210 -0.782370
  endloop
endfacet
facet normal -0.000000 -0.203456 -0.979084
  outer loop
    vertex 7.200000 -0.219210 -0.782370
    vertex 4.800000 -0.219210 -0.782370
    vertex 7.200000 -0.110635 -0.804932
  endloop
endfacet
facet normal -0.000000 -0.203456 -0.979084
  outer loop
    vertex 7.200000 -0.110635 -0.804932
    vertex 4.800000 -0.219210 -0.782370
    vertex 4.800000 -0.110635 -0.804932
  endloop
endfacet
facet normal -0.000000 -0.068242 -0.997669
  outer loop
    vertex 7.200000 -0.110635 -0.804932
    vertex 4.800000 -0.110635 -0.804932
    vertex 7.200000 0.000000 -0.812500
  endloop
endfacet
facet normal -0.000000 -0.068242 -0.997669
  outer loop
    vertex 7.200000 0.000000 -0.812500
    vertex 4.800000 -0.110635 -0.804932
    vertex 4.800000 0.000000 -0.812500
  endloop
endfacet
facet normal 0.000000 0.068242 -0.997669
  outer loop
    vertex 7.200000 0.000000 -0.812500
    vertex 4.800000 0.000000 -0.812500
    vertex 7.200000 0.110635 -0.804932
  endloop
endfacet
facet normal 0.000000 0.068242 -0.997669
  outer loop
    vertex 7.200000 0.110635 -0.804932
    vertex 4.800000 0.000000 -0.812500
    vertex 4.800000 0.110635 -0.804932
  endloop
endfacet
facet normal 0.000000 0.203456 -0.979084
  outer loop
    vertex 7.200000 0.110635 -0.804932
    vertex 4.800000 0.110635 -0.804932
    vertex 7.200000 0.219210 -0.782370
  endloop
endfacet
facet normal 0.000000 0.203456 -0.979084
  outer loop
    vertex 7.200000 0.219210 -0.782370
    vertex 4.800000 0.110635 -0.804932
    vertex 4.800000 0.219210 -0.782370
  endloop
endfacet
facet normal 0.000000 0.334879 -0.942261
  outer loop
    vertex 7.200000 0.219210 -0.782370
    vertex 4.800000 0.219210 -0.782370
    vertex 7.200000 0.323701 -0.745234
  endloop
endfacet
facet normal 0.000000 0.334879 -0.942261
  outer loop
    vertex 7.200000 0.323701 -0.745234
    vertex 4.800000 0.219210 -0.782370
    vertex 4.800000 0.323701 -0.745234
  endloop
endfacet
facet normal 0.000000 0.460065 -0.887885
  outer loop
    vertex 7.200000 0.323701 -0.745234
    vertex 4.800000 0.323701 -0.745234
    vertex 7.200000 0.422162 -0.694216
  endloop
endfacet
facet normal 0.000000 0.460065 -0.887885
  outer loop
    vertex 7.200000 0.422162 -0.694216
    vertex 4.800000 0.323701 -0.745234
    vertex 4.800000 0.422162 -0.694216
  endloop
endfacet
facet normal 0.000000 0.576680 -0.816970
  outer loop
    vertex 7.200000 0.422162 -0.694216
    vertex 4.800000 0.422162 -0.694216
    vertex 7.200000 0.512759 -0.630265
  endloop
endfacet
facet normal 0.000000 0.576680 -0.816970
  outer loop
    vertex 7.200000 0.512759 -0.630265
    vertex 4.800000 0.422162 -0.694216
    vertex 4.800000 0.512759 -0.630265
  endloop
endfacet
facet normal 0.000000 0.682553 -0.730836
  outer loop
    vertex 7.200000 0.512759 -0.630265
    vertex 4.800000 0.512759 -0.630265
    vertex 7.200000 0.593804 -0.554574
  endloop
endfacet
facet normal 0.000000 0.682553 -0.730836
  outer loop
    vertex 7.200000 0.593804 -0.554574
    vertex 4.800000 0.512759 -0.630265
    vertex 4.800000 0.593804 -0.554574
  endloop
endfacet
facet normal 0.000000 0.775711 -0.631088
  outer loop
    vertex 7.200000 0.593804 -0.554574
    vertex 4.800000 0.593804 -0.554574
    vertex 7.200000 0.663788 -0.468553
  endloop
endfacet
facet normal 0.000000 0.775711 -0.631088
  outer loop
    vertex 7.200000 0.663788 -0.468553
    vertex 4.800000 0.593804 -0.554574
    vertex 4.800000 0.663788 -0.468553
  endloop
endfacet
facet normal 0.000000 0.854419 -0.519584
  outer loop
    vertex 7.200000 0.663788 -0.468553
    vertex 4.800000 0.663788 -0.468553
    vertex 7.200000 0.721407 -0.373803
  endloop
endfacet
facet normal 0.000000 0.854419 -0.519584
  outer loop
    vertex 7.200000 0.721407 -0.373803
    vertex 4.800000 0.663788 -0.468553
    vertex 4.800000 0.721407 -0.373803
  endloop
endfacet
facet normal 0.000000 0.917211 -0.398401
  outer loop
    vertex 7.200000 0.721407 -0.373803
    vertex 4.800000 0.721407 -0.373803
    vertex 7.200000 0.765587 -0.272090
  endloop
endfacet
facet normal -0.000000 -0.068242 0.997669
  outer loop
    vertex 9.600000 -0.000000 0.812500
    vertex 7.200000 0.000000 0.812500
    vertex 9.600000 -0.110635 0.804932
  endloop
endfacet
facet normal 0.000000 -0.068242 0.997669
  outer loop
    vertex 9.600000 -0.110635 0.804932
    vertex 7.200000 0.000000 0.812500
    vertex 7.200000 -0.110635 0.804932
  endloop
endfacet
facet normal 0.000000 -0.203456 0.979084
  outer loop
    vertex 9.600000 -0.110635 0.804932
    vertex 7.200000 -0.110635 0.804932
    vertex 9.600000 -0.219210 0.782370
  endloop
endfacet
facet normal 0.000000 -0.203456 0.979084
  outer loop
    vertex 9.600000 -0.219210 0.782370
    vertex 7.200000 -0.110635 0.804932
    vertex 7.200000 -0.219210 0.782370
  endloop
endfacet
facet normal 0.000000 -0.334879 0.942261
  outer loop
    vertex 9.600000 -0.219210 0.782370
    vertex 7.200000 -0.219210 0.782370
    vertex 9.600000 -0.323701 0.745234
  endloop
endfacet
facet normal 0.000000 -0.334879 0.942261
  outer loop
    vertex 9.600000 -0.323701 0.745234
    vertex 7.200000 -0.219210 0.782370
    vertex 7.200000 -0.323701 0.745234
  endloop
endfacet
facet normal 0.000000 -0.460065 0.887885
  outer loop
    vertex 9.600000 -0.323701 0.745234
    vertex 7.200000 -0.323701 0.745234
    vertex 9.600000 -0.422162 0.694216
  endloop
endfacet
facet normal 0.000000 -0.460065 0.887885
  outer loop
    vertex 9.600000 -0.422162 0.694216
    vertex 7.200000 -0.323701 0.745234
    vertex 7.200000 -0.422162 0.694216
  endloop
endfacet
facet normal 0.000000 -0.576680 0.816970
  outer loop
    vertex 9.600000 -0.422162 0.694216
    vertex 7.200000 -0.422162 0.694216
    vertex 9.600000 -0.512759 0.630265
  endloop
endfacet
facet normal 0.000000 -0.576680 0.816970
  outer loop
    vertex 9.600000 -0.512759 0.630265
    vertex 7.200000 -0.422162 0.694216
    vertex 7.200000 -0.512759 0.630265
  endloop
endfacet
facet normal 0.000000 -0.682553 0.730836
  outer loop
    vertex 9.600000 -0.512759 0.630265
    vertex 7.200000 -0.512759 0.630265
    vertex 9.600000 -0.593804 0.554574
  endloop
endfacet
facet normal 0.000000 -0.682553 0.730836
  outer loop
    vertex 9.600000 -0.593804 0.554574
    vertex 7.200000 -0.512759 0.630265
    vertex 7.200000 -0.593804 0.554574
  endloop
endfacet
facet normal 0.000000 -0.775711 0.631088
  outer loop
    vertex 9.600000 -0.593804 0.554574
    vertex 7.200000 -0.593804 0.554574
    vertex 9.600000 -0.663788 0.468553
  endloop
endfacet
facet normal 0.000000 -0.775711 0.631088
  outer loop
    vertex 9.600000 -0.663788 0.468553
    vertex 7.200000 -0.593804 0.554574
    vertex 7.200000 -0.663788 0.468553
  endloop
endfacet
facet normal 0.000000 -0.854419 0.519584
  outer loop
    vertex 9.600000 -0.663788 0.468553
    vertex 7.200000 -0.663788 0.468553
    vertex 9.600000 -0.721407 0.373803
  endloop
endfacet
facet normal 0.000000 -0.854419 0.519584
  outer loop
    vertex 9.600000 -0.721407 0.373803
    vertex 7.200000 -0.663788 0.468553
    vertex 7.200000 -0.721407 0.373803
  endloop
endfacet
facet normal 0.000000 -0.917211 0.398401
  outer loop
    vertex 9.600000 -0.721407 0.373803
    vertex 7.200000 -0.721407 0.373803
    vertex 9.600000 -0.765587 0.272090
  endloop
endfacet
facet normal 0.000000 -0.917211 0.398401
  outer loop
    vertex 9.600000 -0.765587 0.272090
    vertex 7.200000 -0.721407 0.373803
    vertex 7.200000 -0.765587 0.272090
  endloop
endfacet
facet normal 0.000000 -0.962917 0.269797
  outer loop
    vertex 9.600000 -0.765587 0.272090
    vertex 7.200000 -0.765587 0.272090
    vertex 9.600000 -0.795506 0.165308
  endloop
endfacet
facet normal 0.000000 -0.962917 0.269797
  outer loop
    vertex 9.600000 -0.795506 0.165308
    vertex 7.200000 -0.765587 0.272090
    vertex 7.200000 -0.795506 0.165308
  endloop
endfacet
facet normal 0.000000 -0.990730 0.135844
  outer loop
    vertex 9.600000 -0.795506 0.165308
    vertex 7.200000 -0.795506 0.165308
    vertex 9.600000 -0.810642 0.054919
  endloop
endfacet
facet normal 0.000000 -0.990730 0.135844
  outer loop
    vertex 9.600000 -0.810642 0.054919
    vertex 7.200000 -0.795506 0.165308
    vertex 7.200000 -0.810642 0.054919
  endloop
endfacet
facet normal -0.000000 -1.000000 -0.000000
  outer loop
    vertex 9.600000 -0.810642 0.054919
    vertex 7.200000 -0.810642 0.054919
    vertex 9.600000 -0.810642 -0.054919
  endloop
endfacet
facet normal 0.000000 -1.000000 0.000000
  outer loop
    vertex 9.600000 -0.810642 -0.054919
    vertex 7.200000 -0.810642 0.054919
    vertex 7.200000 -0.810642 -0.054919
  endloop
endfacet
facet normal -0.000000 -0.990730 -0.135844
  outer loop
    vertex 9.600000 -0.810642 -0.054919
    vertex 7.200000 -0.810642 -0.054919
    vertex 9.600000 -0.795506 -0.165308
  endloop
endfacet
facet normal -0.000000 -0.990730 -0.135844
  outer loop
    vertex 9.600000 -0.795506 -0.165308
    vertex 7.200000 -0.810642 -0.054919
    vertex 7.200000 -0.795506 -0.165308
  endloop
endfacet
facet normal -0.000000 -0.962917 -0.269797
  outer loop
    vertex 9.600000 -0.795506 -0.165308
    vertex 7.200000 -0.795506 -0.165308
    vertex 9.600000 -0.765587 -0.272090
  endloop
endfacet
facet normal -0.000000 -0.962917 -0.269797
  outer loop
    vertex 9.600000 -0.765587 -0.272090
    vertex 7.200000 -0.795506 -0.165308
    vertex 7.200000 -0.765587 -0.272090
  endloop
endfacet
facet normal -0.000000 -0.917211 -0.398401
  outer loop
    vertex 9.600000 -0.765587 -0.272090
    vertex 7.200000 -0.765587 -0.272090
    vertex 9.600000 -0.721407 -0.373803
  endloop
endfacet
facet normal -0.000000 -0.917211 -0.398401
  outer loop
    vertex 9.600000 -0.721407 -0.373803
    vertex 7.200000 -0.765587 -0.272090
    vertex 7.200000 -0.721407 -0.373803
  endloop
endfacet
facet normal -0.000000 -0.854419 -0.519584
  outer loop
    vertex 9.600000 -0.721407 -0.373803
    vertex 7.200000 -0.721407 -0.373803
    vertex 9.600000 -0.663788 -0.468553
  endloop
endfacet
facet normal -0.000000 -0.854419 -0.519584
  outer loop
    vertex 9.600000 -0.663788 -0.468553
    vertex 7.200000 -0.721407 -0.373803
    vertex 7.200000 -0.663788 -0.468553
  endloop
endfacet
facet normal -0.000000 -0.775711 -0.631088
  outer loop
    vertex 9.600000 -0.663788 -0.468553
    vertex 7.200000 -0.663788 -0.468553
    vertex 9.600000 -0.593804 -0.554574
  endloop
endfacet
facet normal -0.000000 -0.775711 -0.631088
  outer loop
    vertex 9.600000 -0.593804 -0.554574
    vertex 7.200000 -0.663788 -0.468553
    vertex 7.200000 -0.593804 -0.554574
  endloop
endfacet
facet normal -0.000000 -0.682553 -0.730836
  outer loop
    vertex 9.600000 -0.593804 -0.554574
    vertex 7.200000 -0.593804 -0.554574
    vertex 9.600000 -0.512759 -0.630265
  endloop
endfacet
facet normal -0.000000 -0.682553 -0.730836
  outer loop
    vertex 9.600000 -0.512759 -0.630265
    vertex 7.200000 -0.593804 -0.554574
    vertex 7.200000 -0.512759 -0.630265
  endloop
endfacet
facet normal -0.000000 -0.576680 -0.816970
  outer loop
    vertex 9.600000 -0.512759 -0.630265
    vertex 7.200000 -0.512759 -0.630265
    vertex 9.600000 -0.422162 -0.694216
  endloop
endfacet
facet normal -0.000000 -0.576680 -0.816970
  outer loop
    vertex 9.600000 -0.422162 -0.694216
    vertex 7.200000 -0.512759 -0.630265
    vertex 7.200000 -0.422162 -0.694216
  endloop
endfacet
facet normal -0.000000 -0.460065 -0.887885
  outer loop
    vertex 9.600000 -0.422162 -0.694216
    vertex 7.200000 -0.422162 -0.694216
    vertex 9.600000 -0.323701 -0.745234
  endloop
endfacet
facet normal -0.000000 -0.460065 -0.887885
  outer loop
    vertex 9.600000 -0.323701 -0.745234
    vertex 7.200000 -0.422162 -0.694216
    vertex 7.200000 -0.323701 -0.745234
  endloop
endfacet
facet normal -0.000000 -0.334879 -0.942261
  outer loop
    vertex 9.600000 -0.323701 -0.745234
    vertex 7.200000 -0.323701 -0.745234
    vertex 9.600000 -0.219210 -0.782370
  endloop
endfacet
facet normal -0.000000 -0.334879 -0.942261
  outer loop
    vertex 9.600000 -0.219210 -0.782370
    vertex 7.200000 -0.323701 -0.745234
    vertex 7.200000 -0.219210 -0.782370
  endloop
endfacet
facet normal -0.000000 -0.203456 -0.979084
  outer loop
    vertex 9.600000 -0.219210 -0.782370
    vertex 7.200000 -0.219210 -0.782370
    vertex 9.600000 -0.110635 -0.804932
  endloop
endfacet
facet normal -0.000000 -0.203456 -0.979084
  outer loop
    vertex 9.600000 -0.110635 -0.804932
    vertex 7.200000 -0.219210 -0.782370
    vertex 7.200000 -0.110635 -0.804932
  endloop
endfacet
facet normal -0.000000 -0.068242 -0.997669
  outer loop
    vertex 9.600000 -0.110635 -0.804932
    vertex 7.200000 -0.110635 -0.804932
    vertex 9.600000 0.000000 -0.812500
  endloop
endfacet
facet normal -0.000000 -0.068242 -0.997669
  outer loop
    vertex 9.600000 0.000000 -0.812500
    vertex 7.200000 -0.110635 -0.804932
    vertex 7.200000 0.000000 -0.812500
  endloop
endfacet
facet normal 0.000000 0.068242 -0.997669
  outer loop
    vertex 9.600000 0.000000 -0.812500
    vertex 7.200000 0.000000 -0.812500
    vertex 9.600000 0.110635 -0.804932
  endloop
endfacet
facet normal 0.000000 0.068242 -0.997669
  outer loop
    vertex 9.600000 0.110635 -0.804932
    vertex 7.200000 0.000000 -0.812500
    vertex 7.200000 0.110635 -0.804932
  endloop
endfacet
facet normal 0.000000 0.203456 -0.979084
  outer loop
    vertex 9.600000 0.110635 -0.804932
    vertex 7.200000 0.110635 -0.804932
    vertex 9.600000 0.219210 -0.782370
  endloop
endfacet
facet normal 0.000000 0.203456 -0.979084
  outer loop
    vertex 9.600000 0.219210 -0.782370
    vertex 7.200000 0.110635 -0.804932
    vertex 7.200000 0.219210 -0.782370
  endloop
endfacet
facet normal 0.000000 0.334879 -0.942261
  outer loop
    vertex 9.600000 0.219210 -0.782370
    vertex 7.200000 0.219210 -0.782370
    vertex 9.600000 0.323701 -0.745234
  endloop
endfacet
facet normal 0.000000 0.334879 -0.942261
  outer loop
    vertex 9.600000 0.323701 -0.745234
    vertex 7.200000 0.219210 -0.782370
    vertex 7.200000 0.323701 -0.745234
  endloop
endfacet
facet normal 0.000000 0.460065 -0.887885
  outer loop
    vertex 9.600000 0.323701 -0.745234
    vertex 7.200000 0.323701 -0.745234
    vertex 9.600000 0.422162 -0.694216
  endloop
endfacet
facet normal 0.000000 0.460065 -0.887885
  outer loop
    vertex 9.600000 0.422162 -0.694216
    vertex 7.200000 0.323701 -0.745234
    vertex 7.200000 0.422162 -0.694216
  endloop
endfacet
facet normal 0.000000 0.576680 -0.816970
  outer loop
    vertex 9.600000 0.422162 -0.694216
    vertex 7.200000 0.422162 -0.694216
    vertex 9.600000 0.512759 -0.630265
  endloop
endfacet
facet normal 0.000000 0.576680 -0.816970
  outer loop
    vertex 9.600000 0.512759 -0.630265
    vertex 7.200000 0.422162 -0.694216
    vertex 7.200000 0.512759 -0.630265
  endloop
endfacet
facet normal 0.000000 0.682553 -0.730836
  outer loop
    vertex 9.600000 0.512759 -0.630265
    vertex 7.200000 0.512759 -0.630265
    vertex 9.600000 0.593804 -0.554574
  endloop
endfacet
facet normal 0.000000 0.682553 -0.730836
  outer loop
    vertex 9.600000 0.593804 -0.554574
    vertex 7.200000 0.512759 -0.630265
    vertex 7.200000 0.593804 -0.554574
  endloop
endfacet
facet normal 0.000000 0.775711 -0.631088
  outer loop
    vertex 9.600000 0.593804 -0.554574
    vertex 7.200000 0.593804 -0.554574
    vertex 9.600000 0.663788 -0.468553
  endloop
endfacet
facet normal 0.000000 0.775711 -0.631088
  outer loop
    vertex 9.600000 0.663788 -0.468553
    vertex 7.200000 0.593804 -0.554574
    vertex 7.200000 0.663788 -0.468553
  endloop
endfacet
facet normal 0.000000 0.854419 -0.519584
  outer loop
    vertex 9.600000 0.663788 -0.468553
    vertex 7.200000 0.663788 -0.468553
    vertex 9.600000 0.721407 -0.373803
  endloop
endfacet
facet normal 0.000000 0.854419 -0.519584
  outer loop
    vertex 9.600000 0.721407 -0.373803
    vertex 7.200000 0.663788 -0.468553
    vertex 7.200000 0.721407 -0.373803
  endloop
endfacet
facet normal 0.000000 0.917211 -0.398401
  outer loop
    vertex 9.600000 0.721407 -0.373803
    vertex 7.200000 0.721407 -0.373803
    vertex 9.600000 0.765587 -0.272090
  endloop
endfacet
facet normal 0.000000 0.917211 -0.398401
  outer loop
    vertex 9.600000 0.765587 -0.272090
    vertex 7.200000 0.721407 -0.373803
    vertex 7.200000 0.765587 -0.272090
  endloop
endfacet
facet normal 0.000000 0.000000 -1.000000
  outer loop
    vertex 0.000000 0.790569 0.187500
    vertex 12.000000 0.790569 0.187500
    vertex 0.000000 0.625000 0.187500
  endloop
endfacet
facet normal 0.000000 0.000000 -1.000000
  outer loop
    vertex 0.000000 0.625000 0.187500
    vertex 12.000000 0.790569 0.187500
    vertex 12.000000 0.625000 0.187500
  endloop
endfacet
facet normal 1.000000 0.000000 0.000000
  outer loop
    vertex 12.000000 0.790569 0.187500
    vertex 12.000000 0.758056 0.292416
    vertex 12.000000 0.625000 0.187500
  endloop
endfacet
facet normal 1.000000 0.000000 0.000000
  outer loop
    vertex 12.000000 0.625000 0.187500
    vertex 12.000000 0.758056 0.292416
    vertex 12.000000 0.711689 0.391989
  endloop
endfacet
facet normal 1.000000 0.000000 0.000000
  outer loop
    vertex 12.000000 0.625000 0.187500
    vertex 12.000000 0.711689 0.391989
    vertex 12.000000 0.652315 0.484398
  endloop
endfacet
facet normal 1.000000 0.000000 0.000000
  outer loop
    vertex 12.000000 0.652315 0.484398
    vertex 12.000000 0.581020 0.567954
    vertex 12.000000 0.625000 0.187500
  endloop
endfacet
facet normal 1.000000 0.000000 0.000000
  outer loop
    vertex 12.000000 0.625000 0.187500
    vertex 12.000000 0.581020 0.567954
    vertex 12.000000 0.499107 0.641130
  endloop
endfacet
facet normal 1.000000 0.000000 0.000000
  outer loop
    vertex 12.000000 0.625000 0.187500
    vertex 12.000000 0.499107 0.641130
    vertex 12.000000 0.408073 0.702590
  endloop
endfacet
facet normal 1.000000 0.000000 0.000000
  outer loop
    vertex 12.000000 0.408073 0.702590
    vertex 12.000000 0.309580 0.751210
    vertex 12.000000 0.625000 0.187500
  endloop
endfacet
facet normal 1.000000 0.000000 0.000000
  outer loop
    vertex 12.000000 0.625000 0.187500
    vertex 12.000000 0.309580 0.751210
    vertex 12.000000 0.205431 0.786101
  endloop
endfacet
facet normal 1.000000 0.000000 0.000000
  outer loop
    vertex 12.000000 0.625000 0.187500
    vertex 12.000000 0.205431 0.786101
    vertex 12.000000 0.097526 0.806626
  endloop
endfacet
facet normal 1.000000 0.000000 0.000000
  outer loop
    vertex 12.000000 0.097526 0.806626
    vertex 12.000000 -0.012160 0.812409
    vertex 12.000000 0.625000 0.187500
  endloop
endfacet
facet normal 1.000000 0.000000 0.000000
  outer loop
    vertex 12.000000 0.625000 0.187500
    vertex 12.000000 -0.012160 0.812409
    vertex 12.000000 -0.121625 0.803345
  endloop
endfacet
facet normal 1.000000 0.000000 0.000000
  outer loop
    vertex 12.000000 0.625000 0.187500
    vertex 12.000000 -0.121625 0.803345
    vertex 12.000000 -0.228866 0.779600
  endloop
endfacet
facet normal 1.000000 0.000000 0.000000
  outer loop
    vertex 12.000000 -0.228866 0.779600
    vertex 12.000000 -0.331925 0.741608
    vertex 12.000000 0.625000 0.187500
  endloop
endfacet
facet normal 1.000000 0.000000 0.000000
  outer loop
    vertex 12.000000 0.625000 0.187500
    vertex 12.000000 -0.331925 0.741608
    vertex 12.000000 -0.331925 -0.741608
  endloop
endfacet
facet normal 1.000000 0.000000 0.000000
  outer loop
    vertex 12.000000 0.625000 0.187500
    vertex 12.000000 -0.331925 -0.741608
    vertex 12.000000 0.625000 -0.187500
  endloop
endfacet
facet normal 1.000000 0.000000 0.000000
  outer loop
    vertex 12.000000 0.625000 -0.187500
    vertex 12.000000 -0.331925 -0.741608
    vertex 12.000000 -0.228866 -0.779600
  endloop
endfacet
facet normal 1.000000 0.000000 0.000000
  outer loop
    vertex 12.000000 0.625000 -0.187500
    vertex 12.000000 -0.228866 -0.779600
    vertex 12.000000 -0.121625 -0.803345
  endloop
endfacet
facet normal 1.000000 0.000000 -0.000000
  outer loop
    vertex 12.000000 -0.331925 -0.741608
    vertex 12.000000 -0.331925 0.741608
    vertex 12.000000 -0.428918 -0.690062
  endloop
endfacet
facet normal 1.000000 0.000000 0.000000
  outer loop
    vertex 12.000000 -0.428918 -0.690062
    vertex 12.000000 -0.331925 0.741608
    vertex 12.000000 -0.428918 0.690062
  endloop
endfacet
facet normal 1.000000 0.000000 -0.000000
  outer loop
    vertex 12.000000 -0.428918 -0.690062
    vertex 12.000000 -0.428918 0.690062
    vertex 12.000000 -0.518072 -0.625905
  endloop
endfacet
facet normal 1.000000 0.000000 0.000000
  outer loop
    vertex 12.000000 -0.518072 -0.625905
    vertex 12.000000 -0.428918 0.690062
    vertex 12.000000 -0.518072 0.625905
  endloop
endfacet
facet normal 1.000000 0.000000 -0.000000
  outer loop
    vertex 12.000000 -0.518072 -0.625905
    vertex 12.000000 -0.518072 0.625905
    vertex 12.000000 -0.597759 -0.550310
  endloop
endfacet
facet normal 1.000000 0.000000 0.000000
  outer loop
    vertex 12.000000 -0.597759 -0.550310
    vertex 12.000000 -0.518072 0.625905
    vertex 12.000000 -0.597759 0.550310
  endloop
endfacet
facet normal 1.000000 0.000000 -0.000000
  outer loop
    vertex 12.000000 -0.597759 -0.550310
    vertex 12.000000 -0.597759 0.550310
    vertex 12.000000 -0.666521 -0.464657
  endloop
endfacet
facet normal 1.000000 0.000000 0.000000
  outer loop
    vertex 12.000000 -0.666521 -0.464657
    vertex 12.000000 -0.597759 0.550310
    vertex 12.000000 -0.666521 0.464657
  endloop
endfacet
facet normal 1.000000 0.000000 -0.000000
  outer loop
    vertex 12.000000 -0.666521 -0.464657
    vertex 12.000000 -0.666521 0.464657
    vertex 12.000000 -0.723102 -0.370513
  endloop
endfacet
facet normal 1.000000 0.000000 0.000000
  outer loop
    vertex 12.000000 -0.723102 -0.370513
    vertex 12.000000 -0.666521 0.464657
    vertex 12.000000 -0.723102 0.370513
  endloop
endfacet
facet normal 1.000000 0.000000 -0.000000
  outer loop
    vertex 12.000000 -0.723102 -0.370513
    vertex 12.000000 -0.723102 0.370513
    vertex 12.000000 -0.766468 -0.269597
  endloop
endfacet
facet normal 1.000000 0.000000 0.000000
  outer loop
    vertex 12.000000 -0.766468 -0.269597
    vertex 12.000000 -0.723102 0.370513
    vertex 12.000000 -0.766468 0.269597
  endloop
endfacet
facet normal 1.000000 0.000000 -0.000000
  outer loop
    vertex 12.000000 -0.766468 -0.269597
    vertex 12.000000 -0.766468 0.269597
    vertex 12.000000 -0.795827 -0.163755
  endloop
endfacet
facet normal 1.000000 0.000000 0.000000
  outer loop
    vertex 12.000000 -0.795827 -0.163755
    vertex 12.000000 -0.766468 0.269597
    vertex 12.000000 -0.795827 0.163755
  endloop
endfacet
facet normal 1.000000 0.000000 -0.000000
  outer loop
    vertex 12.000000 -0.795827 -0.163755
    vertex 12.000000 -0.795827 0.163755
    vertex 12.000000 -0.810642 -0.054919
  endloop
endfacet
facet normal 1.000000 0.000000 0.000000
  outer loop
    vertex 12.000000 -0.810642 -0.054919
    vertex 12.000000 -0.795827 0.163755
    vertex 12.000000 -0.810642 0.054919
  endloop
endfacet
facet normal 1.000000 -0.000000 0.000000
  outer loop
    vertex 12.000000 -0.121625 -0.803345
    vertex 12.000000 -0.012160 -0.812409
    vertex 12.000000 0.625000 -0.187500
  endloop
endfacet
facet normal 1.000000 0.000000 0.000000
  outer loop
    vertex 12.000000 0.625000 -0.187500
    vertex 12.000000 -0.012160 -0.812409
    vertex 12.000000 0.097526 -0.806626
  endloop
endfacet
facet normal 1.000000 0.000000 0.000000
  outer loop
    vertex 12.000000 0.625000 -0.187500
    vertex 12.000000 0.097526 -0.806626
    vertex 12.000000 0.205431 -0.786101
  endloop
endfacet
facet normal 1.000000 0.000000 0.000000
  outer loop
    vertex 12.000000 0.205431 -0.786101
    vertex 12.000000 0.309580 -0.751210
    vertex 12.000000 0.625000 -0.187500
  endloop
endfacet
facet normal 1.000000 0.000000 0.000000
  outer loop
    vertex 12.000000 0.625000 -0.187500
    vertex 12.000000 0.309580 -0.751210
    vertex 12.000000 0.408073 -0.702590
  endloop
endfacet
facet normal 1.000000 0.000000 0.000000
  outer loop
    vertex 12.000000 0.625000 -0.187500
    vertex 12.000000 0.408073 -0.702590
    vertex 12.000000 0.499107 -0.641130
  endloop
endfacet
facet normal 1.000000 0.000000 0.000000
  outer loop
    vertex 12.000000 0.499107 -0.641130
    vertex 12.000000 0.581020 -0.567954
    vertex 12.000000 0.625000 -0.187500
  endloop
endfacet
facet normal 1.000000 0.000000 0.000000
  outer loop
    vertex 12.000000 0.625000 -0.187500
    vertex 12.000000 0.581020 -0.567954
    vertex 12.000000 0.652315 -0.484398
  endloop
endfacet
facet normal 1.000000 0.000000 0.000000
  outer loop
    vertex 12.000000 0.625000 -0.187500
    vertex 12.000000 0.652315 -0.484398
    vertex 12.000000 0.711689 -0.391989
  endloop
endfacet
facet normal 1.000000 0.000000 -0.000000
  outer loop
    vertex 12.000000 0.711689 -0.391989
    vertex 12.000000 0.758056 -0.292416
    vertex 12.000000 0.625000 -0.187500
  endloop
endfacet
facet normal 1.000000 -0.000000 0.000000
  outer loop
    vertex 12.000000 0.625000 -0.187500
    vertex 12.000000 0.758056 -0.292416
    vertex 12.000000 0.790569 -0.187500
  endloop
endfacet
facet normal -1.000000 0.000000 0.000000
  outer loop
    vertex 0.000000 0.790569 0.187500
    vertex 0.000000 0.625000 0.187500
    vertex 0.000000 0.758056 0.292416
  endloop
endfacet
facet normal -1.000000 -0.000000 0.000000
  outer loop
    vertex 0.000000 0.758056 0.292416
    vertex 0.000000 0.625000 0.187500
    vertex 0.000000 0.711689 0.391989
  endloop
endfacet
facet normal -1.000000 -0.000000 0.000000
  outer loop
    vertex 0.000000 0.711689 0.391989
    vertex 0.000000 0.625000 0.187500
    vertex 0.000000 0.652315 0.484398
  endloop
endfacet
facet normal -1.000000 -0.000000 0.000000
  outer loop
    vertex 0.000000 0.652315 0.484398
    vertex 0.000000 0.625000 0.187500
    vertex 0.000000 0.581020 0.567954
  endloop
endfacet
facet normal -1.000000 -0.000000 -0.000000
  outer loop
    vertex 0.000000 0.581020 0.567954
    vertex 0.000000 0.625000 0.187500
    vertex 0.000000 0.499107 0.641130
  endloop
endfacet
facet normal -1.000000 -0.000000 -0.000000
  outer loop
    vertex 0.000000 0.499107 0.641130
    vertex 0.000000 0.625000 0.187500
    vertex 0.000000 0.408073 0.702590
  endloop
endfacet
facet normal -1.000000 -0.000000 -0.000000
  outer loop
    vertex 0.000000 0.408073 0.702590
    vertex 0.000000 0.625000 0.187500
    vertex 0.000000 0.309580 0.751210
  endloop
endfacet
facet normal -1.000000 -0.000000 -0.000000
  outer loop
    vertex 0.000000 0.309580 0.751210
    vertex 0.000000 0.625000 0.187500
    vertex 0.000000 0.205431 0.786101
  endloop
endfacet
facet normal -1.000000 -0.000000 -0.000000
  outer loop
    vertex 0.000000 0.205431 0.786101
    vertex 0.000000 0.625000 0.187500
    vertex 0.000000 0.097526 0.806626
  endloop
endfacet
facet normal -1.000000 -0.000000 -0.000000
  outer loop
    vertex 0.000000 0.097526 0.806626
    vertex 0.000000 0.625000 0.187500
    vertex 0.000000 -0.012160 0.812409
  endloop
endfacet
facet normal -1.000000 0.000000 -0.000000
  outer loop
    vertex 0.000000 -0.012160 0.812409
    vertex 0.000000 0.625000 0.187500
    vertex 0.000000 -0.121625 0.803345
  endloop
endfacet
facet normal -1.000000 0.000000 -0.000000
  outer loop
    vertex 0.000000 -0.121625 0.803345
    vertex 0.000000 0.625000 0.187500
    vertex 0.000000 -0.228866 0.779600
  endloop
endfacet
facet normal -1.000000 0.000000 -0.000000
  outer loop
    vertex 0.000000 -0.228866 0.779600
    vertex 0.000000 0.625000 0.187500
    vertex 0.000000 -0.331925 0.741608
  endloop
endfacet
facet normal -1.000000 0.000000 0.000000
  outer loop
    vertex 0.000000 -0.331925 0.741608
    vertex 0.000000 0.625000 0.187500
    vertex 0.000000 0.625000 -0.187500
  endloop
endfacet
facet normal -1.000000 0.000000 0.000000
  outer loop
    vertex 0.000000 -0.331925 0.741608
    vertex 0.000000 0.625000 -0.187500
    vertex 0.000000 -0.331925 -0.741608
  endloop
endfacet
facet normal -1.000000 0.000000 0.000000
  outer loop
    vertex 0.000000 -0.331925 -0.741608
    vertex 0.000000 0.625000 -0.187500
    vertex 0.000000 -0.228866 -0.779600
  endloop
endfacet
facet normal -1.000000 0.000000 0.000000
  outer loop
    vertex 0.000000 -0.228866 -0.779600
    vertex 0.000000 0.625000 -0.187500
    vertex 0.000000 -0.121625 -0.803345
  endloop
endfacet
facet normal -1.000000 0.000000 0.000000
  outer loop
    vertex 0.000000 -0.121625 -0.803345
    vertex 0.000000 0.625000 -0.187500
    vertex 0.000000 -0.012160 -0.812409
  endloop
endfacet
facet normal -1.000000 0.000000 0.000000
  outer loop
    vertex 0.000000 -0.012160 -0.812409
    vertex 0.000000 0.625000 -0.187500
    vertex 0.000000 0.097526 -0.806626
  endloop
endfacet
facet normal -1.000000 0.000000 0.000000
  outer loop
    vertex 0.000000 0.097526 -0.806626
    vertex 0.000000 0.625000 -0.187500
    vertex 0.000000 0.205431 -0.786101
  endloop
endfacet
facet normal -1.000000 0.000000 0.000000
  outer loop
    vertex 0.000000 0.205431 -0.786101
    vertex 0.000000 0.625000 -0.187500
    vertex 0.000000 0.309580 -0.751210
  endloop
endfacet
facet normal -1.000000 0.000000 0.000000
  outer loop
    vertex 0.000000 0.309580 -0.751210
    vertex 0.000000 0.625000 -0.187500
    vertex 0.000000 0.408073 -0.702590
  endloop
endfacet
facet normal -1.000000 0.000000 0.000000
  outer loop
    vertex 0.000000 0.408073 -0.702590
    vertex 0.000000 0.625000 -0.187500
    vertex 0.000000 0.499107 -0.641130
  endloop
endfacet
facet normal -1.000000 0.000000 0.000000
  outer loop
    vertex 0.000000 0.499107 -0.641130
    vertex 0.000000 0.625000 -0.187500
    vertex 0.000000 0.581020 -0.567954
  endloop
endfacet
facet normal -1.000000 0.000000 0.000000
  outer loop
    vertex 0.000000 0.581020 -0.567954
    vertex 0.000000 0.625000 -0.187500
    vertex 0.000000 0.652315 -0.484398
  endloop
endfacet
facet normal -1.000000 0.000000 0.000000
  outer loop
    vertex 0.000000 0.652315 -0.484398
    vertex 0.000000 0.625000 -0.187500
    vertex 0.000000 0.711689 -0.391989
  endloop
endfacet
facet normal -1.000000 0.000000 0.000000
  outer loop
    vertex 0.000000 0.711689 -0.391989
    vertex 0.000000 0.625000 -0.187500
    vertex 0.000000 0.758056 -0.292416
  endloop
endfacet
facet normal -1.000000 0.000000 0.000000
  outer loop
    vertex 0.000000 0.758056 -0.292416
    vertex 0.000000 0.625000 -0.187500
    vertex 0.000000 0.790569 -0.187500
  endloop
endfacet
facet normal -1.000000 0.000000 -0.000000
  outer loop
    vertex 0.000000 -0.331925 0.741608
    vertex 0.000000 -0.331925 -0.741608
    vertex 0.000000 -0.428918 0.690062
  endloop
endfacet
facet normal -1.000000 0.000000 0.000000
  outer loop
    vertex 0.000000 -0.428918 0.690062
    vertex 0.000000 -0.331925 -0.741608
    vertex 0.000000 -0.428918 -0.690062
  endloop
endfacet
facet normal -1.000000 0.000000 -0.000000
  outer loop
    vertex 0.000000 -0.428918 0.690062
    vertex 0.000000 -0.428918 -0.690062
    vertex 0.000000 -0.518072 0.625905
  endloop
endfacet
facet normal -1.000000 0.000000 0.000000
  outer loop
    vertex 0.000000 -0.518072 0.625905
    vertex 0.000000 -0.428918 -0.690062
    vertex 0.000000 -0.518072 -0.625905
  endloop
endfacet
facet normal -1.000000 0.000000 -0.000000
  outer loop
    vertex 0.000000 -0.518072 0.625905
    vertex 0.000000 -0.518072 -0.625905
    vertex 0.000000 -0.597759 0.550310
  endloop
endfacet
facet normal -1.000000 0.000000 0.000000
  outer loop
    vertex 0.000000 -0.597759 0.550310
    vertex 0.000000 -0.518072 -0.625905
    vertex 0.000000 -0.597759 -0.550310
  endloop
endfacet
facet normal -1.000000 0.000000 -0.000000
  outer loop
    vertex 0.000000 -0.597759 0.550310
    vertex 0.000000 -0.597759 -0.550310
    vertex 0.000000 -0.666521 0.464657
  endloop
endfacet
facet normal -1.000000 0.000000 0.000000
  outer loop
    vertex 0.000000 -0.666521 0.464657
    vertex 0.000000 -0.597759 -0.550310
    vertex 0.000000 -0.666521 -0.464657
  endloop
endfacet
facet normal -1.000000 0.000000 -0.000000
  outer loop
    vertex 0.000000 -0.666521 0.464657
    vertex 0.000000 -0.666521 -0.464657
    vertex 0.000000 -0.723102 0.370513
  endloop
endfacet
facet normal -1.000000 0.000000 0.000000
  outer loop
    vertex 0.000000 -0.723102 0.370513
    vertex 0.000000 -0.666521 -0.464657
    vertex 0.000000 -0.723102 -0.370513
  endloop
endfacet
facet normal -1.000000 0.000000 -0.000000
  outer loop
    vertex 0.000000 -0.723102 0.370513
    vertex 0.000000 -0.723102 -0.370513
    vertex 0.000000 -0.766468 0.269597
  endloop
endfacet
facet normal -1.000000 0.000000 0.000000
  outer loop
    vertex 0.000000 -0.766468 0.269597
    vertex 0.000000 -0.723102 -0.370513
    vertex 0.000000 -0.766468 -0.269597
  endloop
endfacet
facet normal -1.000000 0.000000 -0.000000
  outer loop
    vertex 0.000000 -0.766468 0.269597
    vertex 0.000000 -0.766468 -0.269597
    vertex 0.000000 -0.795827 0.163755
  endloop
endfacet
facet normal -1.000000 0.000000 0.000000
  outer loop
    vertex 0.000000 -0.795827 0.163755
    vertex 0.000000 -0.766468 -0.269597
    vertex 0.000000 -0.795827 -0.163755
  endloop
endfacet
facet normal -1.000000 0.000000 -0.000000
  outer loop
    vertex 0.000000 -0.795827 0.163755
    vertex 0.000000 -0.795827 -0.163755
    vertex 0.000000 -0.810642 0.054919
  endloop
endfacet
facet normal -1.000000 0.000000 0.000000
  outer loop
    vertex 0.000000 -0.810642 0.054919
    vertex 0.000000 -0.795827 -0.163755
    vertex 0.000000 -0.810642 -0.054919
  endloop
endfacet
endsolid d4d2e894-1fc4-4dde-b3a7-9a157a7a04ef-ascii.stl
