solid e5d68a0a-a54b-4500-ad14-c36d99f52065-ascii.stl
facet normal -0.000000 1.000000 0.000000
  outer loop
    vertex 0.000000 0.187500 0.062500
    vertex 9.000000 0.187500 0.062500
    vertex 0.000000 0.187500 -0.062500
  endloop
endfacet
facet normal 0.000000 1.000000 0.000000
  outer loop
    vertex 0.000000 0.187500 -0.062500
    vertex 9.000000 0.187500 0.062500
    vertex 9.000000 0.187500 -0.062500
  endloop
endfacet
facet normal 0.000000 0.000000 1.000000
  outer loop
    vertex 0.000000 0.187500 -0.062500
    vertex 9.000000 0.187500 -0.062500
    vertex 0.000000 0.242061 -0.062500
  endloop
endfacet
facet normal -0.000000 0.000000 1.000000
  outer loop
    vertex 0.000000 0.242061 -0.062500
    vertex 9.000000 0.187500 -0.062500
    vertex 9.000000 0.242061 -0.062500
  endloop
endfacet
facet normal -0.000989 0.937348 0.348392
  outer loop
    vertex 0.000000 0.224121 0.110770
    vertex 1.125000 0.237764 0.077254
    vertex 0.000000 0.242061 0.062500
  endloop
endfacet
facet normal 0.000000 0.960105 0.279641
  outer loop
    vertex 0.000000 0.242061 0.062500
    vertex 1.125000 0.237764 0.077254
    vertex 2.250000 0.237764 0.077254
  endloop
endfacet
facet normal 0.000000 0.960105 0.279641
  outer loop
    vertex 0.000000 0.242061 0.062500
    vertex 2.250000 0.237764 0.077254
    vertex 3.375000 0.237764 0.077254
  endloop
endfacet
facet normal 0.000000 0.913545 0.406737
  outer loop
    vertex 3.375000 0.237764 0.077254
    vertex 2.250000 0.237764 0.077254
    vertex 3.375000 0.216506 0.125000
  endloop
endfacet
facet normal 0.000000 0.913545 0.406737
  outer loop
    vertex 3.375000 0.237764 0.077254
    vertex 3.375000 0.216506 0.125000
    vertex 4.500000 0.216506 0.125000
  endloop
endfacet
facet normal 0.000000 0.809017 0.587785
  outer loop
    vertex 4.500000 0.216506 0.125000
    vertex 3.375000 0.216506 0.125000
    vertex 4.500000 0.185786 0.167283
  endloop
endfacet
facet normal 0.000000 0.809017 0.587785
  outer loop
    vertex 4.500000 0.216506 0.125000
    vertex 4.500000 0.185786 0.167283
    vertex 5.625000 0.185786 0.167283
  endloop
endfacet
facet normal 0.000000 0.669131 0.743145
  outer loop
    vertex 5.625000 0.185786 0.167283
    vertex 4.500000 0.185786 0.167283
    vertex 5.625000 0.146946 0.202254
  endloop
endfacet
facet normal 0.000000 0.669131 0.743145
  outer loop
    vertex 5.625000 0.185786 0.167283
    vertex 5.625000 0.146946 0.202254
    vertex 6.750000 0.146946 0.202254
  endloop
endfacet
facet normal 0.000000 0.500000 0.866025
  outer loop
    vertex 6.750000 0.146946 0.202254
    vertex 5.625000 0.146946 0.202254
    vertex 6.750000 0.101684 0.228386
  endloop
endfacet
facet normal 0.000000 0.500000 0.866025
  outer loop
    vertex 6.750000 0.146946 0.202254
    vertex 6.750000 0.101684 0.228386
    vertex 7.875000 0.101684 0.228386
  endloop
endfacet
facet normal 0.000000 0.309017 0.951056
  outer loop
    vertex 7.875000 0.101684 0.228386
    vertex 6.750000 0.101684 0.228386
    vertex 7.875000 0.051978 0.244537
  endloop
endfacet
facet normal -0.001132 0.309017 0.951056
  outer loop
    vertex 7.875000 0.101684 0.228386
    vertex 7.875000 0.051978 0.244537
    vertex 9.000000 0.070616 0.239819
  endloop
endfacet
facet normal 0.001105 0.182163 0.983268
  outer loop
    vertex 9.000000 0.070616 0.239819
    vertex 7.875000 0.051978 0.244537
    vertex 9.000000 0.019981 0.249200
  endloop
endfacet
facet normal -0.001150 0.104528 0.994521
  outer loop
    vertex 9.000000 0.019981 0.249200
    vertex 7.875000 0.051978 0.244537
    vertex 7.875000 -0.000000 0.250000
  endloop
endfacet
facet normal 0.001122 -0.023163 0.999731
  outer loop
    vertex 9.000000 0.019981 0.249200
    vertex 7.875000 -0.000000 0.250000
    vertex 9.000000 -0.031501 0.248007
  endloop
endfacet
facet normal -0.001165 -0.104528 0.994521
  outer loop
    vertex 9.000000 -0.031501 0.248007
    vertex 7.875000 -0.000000 0.250000
    vertex 7.875000 -0.051978 0.244537
  endloop
endfacet
facet normal 0.001137 -0.227506 0.973776
  outer loop
    vertex 9.000000 -0.031501 0.248007
    vertex 7.875000 -0.051978 0.244537
    vertex 9.000000 -0.081647 0.236292
  endloop
endfacet
facet normal -0.001179 -0.309017 0.951056
  outer loop
    vertex 9.000000 -0.081647 0.236292
    vertex 7.875000 -0.051978 0.244537
    vertex 7.875000 -0.101684 0.228386
  endloop
endfacet
facet normal 0.001150 -0.422195 0.906504
  outer loop
    vertex 9.000000 -0.081647 0.236292
    vertex 7.875000 -0.101684 0.228386
    vertex 9.000000 -0.128329 0.214550
  endloop
endfacet
facet normal -0.001191 -0.500000 0.866025
  outer loop
    vertex 9.000000 -0.128329 0.214550
    vertex 7.875000 -0.101684 0.228386
    vertex 7.875000 -0.146946 0.202254
  endloop
endfacet
facet normal 0.001160 -0.598972 0.800769
  outer loop
    vertex 9.000000 -0.128329 0.214550
    vertex 7.875000 -0.146946 0.202254
    vertex 9.000000 -0.169565 0.183705
  endloop
endfacet
facet normal -0.001200 -0.669130 0.743144
  outer loop
    vertex 9.000000 -0.169565 0.183705
    vertex 7.875000 -0.146946 0.202254
    vertex 7.875000 -0.185786 0.167283
  endloop
endfacet
facet normal 0.001169 -0.750334 0.661058
  outer loop
    vertex 9.000000 -0.169565 0.183705
    vertex 7.875000 -0.185786 0.167283
    vertex 9.000000 -0.203607 0.145066
  endloop
endfacet
facet normal -0.001208 -0.809016 0.587785
  outer loop
    vertex 9.000000 -0.203607 0.145066
    vertex 7.875000 -0.185786 0.167283
    vertex 7.875000 -0.216506 0.125000
  endloop
endfacet
facet normal 0.001175 -0.869860 0.493298
  outer loop
    vertex 9.000000 -0.203607 0.145066
    vertex 7.875000 -0.216506 0.125000
    vertex 9.000000 -0.229010 0.100271
  endloop
endfacet
facet normal -0.001213 -0.913545 0.406736
  outer loop
    vertex 9.000000 -0.229010 0.100271
    vertex 7.875000 -0.216506 0.125000
    vertex 7.875000 -0.237764 0.077254
  endloop
endfacet
facet normal 0.001179 -0.952477 0.304607
  outer loop
    vertex 9.000000 -0.229010 0.100271
    vertex 7.875000 -0.237764 0.077254
    vertex 9.000000 -0.244696 0.051222
  endloop
endfacet
facet normal -0.001216 -0.978147 0.207912
  outer loop
    vertex 9.000000 -0.244696 0.051222
    vertex 7.875000 -0.237764 0.077254
    vertex 7.875000 -0.248630 0.026132
  endloop
endfacet
facet normal 0.001181 -0.994681 0.102992
  outer loop
    vertex 9.000000 -0.244696 0.051222
    vertex 7.875000 -0.248630 0.026132
    vertex 9.000000 -0.250000 0.000000
  endloop
endfacet
facet normal -0.001217 -0.999999 0.000000
  outer loop
    vertex 9.000000 -0.250000 0.000000
    vertex 7.875000 -0.248630 0.026132
    vertex 7.875000 -0.248630 -0.026132
  endloop
endfacet
facet normal 0.001181 -0.994681 -0.102992
  outer loop
    vertex 9.000000 -0.250000 0.000000
    vertex 7.875000 -0.248630 -0.026132
    vertex 9.000000 -0.244696 -0.051222
  endloop
endfacet
facet normal -0.001216 -0.978147 -0.207912
  outer loop
    vertex 9.000000 -0.244696 -0.051222
    vertex 7.875000 -0.248630 -0.026132
    vertex 7.875000 -0.237764 -0.077254
  endloop
endfacet
facet normal 0.001179 -0.952477 -0.304607
  outer loop
    vertex 9.000000 -0.244696 -0.051222
    vertex 7.875000 -0.237764 -0.077254
    vertex 9.000000 -0.229010 -0.100271
  endloop
endfacet
facet normal -0.001213 -0.913545 -0.406736
  outer loop
    vertex 9.000000 -0.229010 -0.100271
    vertex 7.875000 -0.237764 -0.077254
    vertex 7.875000 -0.216506 -0.125000
  endloop
endfacet
facet normal 0.001175 -0.869860 -0.493298
  outer loop
    vertex 9.000000 -0.229010 -0.100271
    vertex 7.875000 -0.216506 -0.125000
    vertex 9.000000 -0.203607 -0.145066
  endloop
endfacet
facet normal -0.001208 -0.809016 -0.587785
  outer loop
    vertex 9.000000 -0.203607 -0.145066
    vertex 7.875000 -0.216506 -0.125000
    vertex 7.875000 -0.185786 -0.167283
  endloop
endfacet
facet normal 0.001169 -0.750334 -0.661058
  outer loop
    vertex 9.000000 -0.203607 -0.145066
    vertex 7.875000 -0.185786 -0.167283
    vertex 9.000000 -0.169565 -0.183705
  endloop
endfacet
facet normal -0.001200 -0.669130 -0.743144
  outer loop
    vertex 9.000000 -0.169565 -0.183705
    vertex 7.875000 -0.185786 -0.167283
    vertex 7.875000 -0.146946 -0.202254
  endloop
endfacet
facet normal 0.001160 -0.598972 -0.800769
  outer loop
    vertex 9.000000 -0.169565 -0.183705
    vertex 7.875000 -0.146946 -0.202254
    vertex 9.000000 -0.128329 -0.214550
  endloop
endfacet
facet normal -0.001191 -0.500000 -0.866025
  outer loop
    vertex 9.000000 -0.128329 -0.214550
    vertex 7.875000 -0.146946 -0.202254
    vertex 7.875000 -0.101684 -0.228386
  endloop
endfacet
facet normal 0.001150 -0.422195 -0.906504
  outer loop
    vertex 9.000000 -0.128329 -0.214550
    vertex 7.875000 -0.101684 -0.228386
    vertex 9.000000 -0.081647 -0.236292
  endloop
endfacet
facet normal -0.001179 -0.309017 -0.951056
  outer loop
    vertex 9.000000 -0.081647 -0.236292
    vertex 7.875000 -0.101684 -0.228386
    vertex 7.875000 -0.051978 -0.244537
  endloop
endfacet
facet normal 0.001137 -0.227506 -0.973776
  outer loop
    vertex 9.000000 -0.081647 -0.236292
    vertex 7.875000 -0.051978 -0.244537
    vertex 9.000000 -0.031501 -0.248007
  endloop
endfacet
facet normal -0.001165 -0.104528 -0.994521
  outer loop
    vertex 9.000000 -0.031501 -0.248007
    vertex 7.875000 -0.051978 -0.244537
    vertex 7.875000 0.000000 -0.250000
  endloop
endfacet
facet normal 0.001122 -0.023163 -0.999731
  outer loop
    vertex 9.000000 -0.031501 -0.248007
    vertex 7.875000 0.000000 -0.250000
    vertex 9.000000 0.019981 -0.249200
  endloop
endfacet
facet normal -0.001150 0.104528 -0.994521
  outer loop
    vertex 9.000000 0.019981 -0.249200
    vertex 7.875000 0.000000 -0.250000
    vertex 7.875000 0.051978 -0.244537
  endloop
endfacet
facet normal 0.001105 0.182163 -0.983268
  outer loop
    vertex 9.000000 0.019981 -0.249200
    vertex 7.875000 0.051978 -0.244537
    vertex 9.000000 0.070616 -0.239819
  endloop
endfacet
facet normal -0.001132 0.309017 -0.951056
  outer loop
    vertex 9.000000 0.070616 -0.239819
    vertex 7.875000 0.051978 -0.244537
    vertex 7.875000 0.101684 -0.228386
  endloop
endfacet
facet normal 0.001086 0.379760 -0.925084
  outer loop
    vertex 9.000000 0.070616 -0.239819
    vertex 7.875000 0.101684 -0.228386
    vertex 9.000000 0.118254 -0.220263
  endloop
endfacet
facet normal -0.001111 0.500000 -0.866025
  outer loop
    vertex 9.000000 0.118254 -0.220263
    vertex 7.875000 0.101684 -0.228386
    vertex 7.875000 0.146946 -0.202254
  endloop
endfacet
facet normal 0.001065 0.561244 -0.827650
  outer loop
    vertex 9.000000 0.118254 -0.220263
    vertex 7.875000 0.146946 -0.202254
    vertex 9.000000 0.160875 -0.191361
  endloop
endfacet
facet normal -0.001089 0.669130 -0.743144
  outer loop
    vertex 9.000000 0.160875 -0.191361
    vertex 7.875000 0.146946 -0.202254
    vertex 7.875000 0.185786 -0.167283
  endloop
endfacet
facet normal 0.001042 0.718914 -0.695098
  outer loop
    vertex 9.000000 0.160875 -0.191361
    vertex 7.875000 0.185786 -0.167283
    vertex 9.000000 0.196670 -0.154340
  endloop
endfacet
facet normal -0.001065 0.809017 -0.587785
  outer loop
    vertex 9.000000 0.196670 -0.154340
    vertex 7.875000 0.185786 -0.167283
    vertex 7.875000 0.216506 -0.125000
  endloop
endfacet
facet normal 0.001016 0.846080 -0.533054
  outer loop
    vertex 9.000000 0.196670 -0.154340
    vertex 7.875000 0.216506 -0.125000
    vertex 9.000000 0.224121 -0.110770
  endloop
endfacet
facet normal -0.001038 0.913545 -0.406737
  outer loop
    vertex 9.000000 0.224121 -0.110770
    vertex 7.875000 0.216506 -0.125000
    vertex 7.875000 0.237764 -0.077254
  endloop
endfacet
facet normal 0.000989 0.937348 -0.348392
  outer loop
    vertex 9.000000 0.224121 -0.110770
    vertex 7.875000 0.237764 -0.077254
    vertex 9.000000 0.242061 -0.062500
  endloop
endfacet
facet normal 0.000000 0.960105 -0.279641
  outer loop
    vertex 9.000000 0.242061 -0.062500
    vertex 7.875000 0.237764 -0.077254
    vertex 6.750000 0.237764 -0.077254
  endloop
endfacet
facet normal 0.000000 0.960105 -0.279641
  outer loop
    vertex 9.000000 0.242061 -0.062500
    vertex 6.750000 0.237764 -0.077254
    vertex 5.625000 0.237764 -0.077254
  endloop
endfacet
facet normal 0.000000 0.913545 -0.406737
  outer loop
    vertex 5.625000 0.237764 -0.077254
    vertex 6.750000 0.237764 -0.077254
    vertex 5.625000 0.216506 -0.125000
  endloop
endfacet
facet normal 0.000000 0.913545 -0.406737
  outer loop
    vertex 5.625000 0.237764 -0.077254
    vertex 5.625000 0.216506 -0.125000
    vertex 4.500000 0.216506 -0.125000
  endloop
endfacet
facet normal 0.000000 0.809017 -0.587785
  outer loop
    vertex 4.500000 0.216506 -0.125000
    vertex 5.625000 0.216506 -0.125000
    vertex 4.500000 0.185786 -0.167283
  endloop
endfacet
facet normal 0.000000 0.809017 -0.587785
  outer loop
    vertex 4.500000 0.216506 -0.125000
    vertex 4.500000 0.185786 -0.167283
    vertex 3.375000 0.185786 -0.167283
  endloop
endfacet
facet normal 0.000000 0.669131 -0.743145
  outer loop
    vertex 3.375000 0.185786 -0.167283
    vertex 4.500000 0.185786 -0.167283
    vertex 3.375000 0.146946 -0.202254
  endloop
endfacet
facet normal 0.000000 0.669131 -0.743145
  outer loop
    vertex 3.375000 0.185786 -0.167283
    vertex 3.375000 0.146946 -0.202254
    vertex 2.250000 0.146946 -0.202254
  endloop
endfacet
facet normal 0.000000 0.500000 -0.866025
  outer loop
    vertex 2.250000 0.146946 -0.202254
    vertex 3.375000 0.146946 -0.202254
    vertex 2.250000 0.101684 -0.228386
  endloop
endfacet
facet normal 0.000000 0.500000 -0.866025
  outer loop
    vertex 2.250000 0.146946 -0.202254
    vertex 2.250000 0.101684 -0.228386
    vertex 1.125000 0.101684 -0.228386
  endloop
endfacet
facet normal 0.000000 0.309017 -0.951056
  outer loop
    vertex 1.125000 0.101684 -0.228386
    vertex 2.250000 0.101684 -0.228386
    vertex 1.125000 0.051978 -0.244537
  endloop
endfacet
facet normal 0.001132 0.309017 -0.951056
  outer loop
    vertex 1.125000 0.101684 -0.228386
    vertex 1.125000 0.051978 -0.244537
    vertex 0.000000 0.070616 -0.239819
  endloop
endfacet
facet normal -0.001105 0.182163 -0.983268
  outer loop
    vertex 0.000000 0.070616 -0.239819
    vertex 1.125000 0.051978 -0.244537
    vertex 0.000000 0.019981 -0.249200
  endloop
endfacet
facet normal 0.001150 0.104528 -0.994521
  outer loop
    vertex 0.000000 0.019981 -0.249200
    vertex 1.125000 0.051978 -0.244537
    vertex 1.125000 0.000000 -0.250000
  endloop
endfacet
facet normal -0.001122 -0.023163 -0.999731
  outer loop
    vertex 0.000000 0.019981 -0.249200
    vertex 1.125000 0.000000 -0.250000
    vertex 0.000000 -0.031501 -0.248007
  endloop
endfacet
facet normal 0.001165 -0.104528 -0.994521
  outer loop
    vertex 0.000000 -0.031501 -0.248007
    vertex 1.125000 0.000000 -0.250000
    vertex 1.125000 -0.051978 -0.244537
  endloop
endfacet
facet normal -0.001137 -0.227506 -0.973776
  outer loop
    vertex 0.000000 -0.031501 -0.248007
    vertex 1.125000 -0.051978 -0.244537
    vertex 0.000000 -0.081647 -0.236292
  endloop
endfacet
facet normal 0.001179 -0.309017 -0.951056
  outer loop
    vertex 0.000000 -0.081647 -0.236292
    vertex 1.125000 -0.051978 -0.244537
    vertex 1.125000 -0.101684 -0.228386
  endloop
endfacet
facet normal -0.001150 -0.422195 -0.906504
  outer loop
    vertex 0.000000 -0.081647 -0.236292
    vertex 1.125000 -0.101684 -0.228386
    vertex 0.000000 -0.128329 -0.214550
  endloop
endfacet
facet normal 0.001191 -0.500000 -0.866025
  outer loop
    vertex 0.000000 -0.128329 -0.214550
    vertex 1.125000 -0.101684 -0.228386
    vertex 1.125000 -0.146946 -0.202254
  endloop
endfacet
facet normal -0.001160 -0.598972 -0.800769
  outer loop
    vertex 0.000000 -0.128329 -0.214550
    vertex 1.125000 -0.146946 -0.202254
    vertex 0.000000 -0.169565 -0.183705
  endloop
endfacet
facet normal 0.001200 -0.669130 -0.743144
  outer loop
    vertex 0.000000 -0.169565 -0.183705
    vertex 1.125000 -0.146946 -0.202254
    vertex 1.125000 -0.185786 -0.167283
  endloop
endfacet
facet normal -0.001169 -0.750334 -0.661058
  outer loop
    vertex 0.000000 -0.169565 -0.183705
    vertex 1.125000 -0.185786 -0.167283
    vertex 0.000000 -0.203607 -0.145066
  endloop
endfacet
facet normal 0.001208 -0.809016 -0.587785
  outer loop
    vertex 0.000000 -0.203607 -0.145066
    vertex 1.125000 -0.185786 -0.167283
    vertex 1.125000 -0.216506 -0.125000
  endloop
endfacet
facet normal -0.001175 -0.869860 -0.493298
  outer loop
    vertex 0.000000 -0.203607 -0.145066
    vertex 1.125000 -0.216506 -0.125000
    vertex 0.000000 -0.229010 -0.100271
  endloop
endfacet
facet normal 0.001213 -0.913545 -0.406736
  outer loop
    vertex 0.000000 -0.229010 -0.100271
    vertex 1.125000 -0.216506 -0.125000
    vertex 1.125000 -0.237764 -0.077254
  endloop
endfacet
facet normal -0.001179 -0.952477 -0.304607
  outer loop
    vertex 0.000000 -0.229010 -0.100271
    vertex 1.125000 -0.237764 -0.077254
    vertex 0.000000 -0.244696 -0.051222
  endloop
endfacet
facet normal 0.001216 -0.978147 -0.207912
  outer loop
    vertex 0.000000 -0.244696 -0.051222
    vertex 1.125000 -0.237764 -0.077254
    vertex 1.125000 -0.248630 -0.026132
  endloop
endfacet
facet normal -0.001181 -0.994681 -0.102992
  outer loop
    vertex 0.000000 -0.244696 -0.051222
    vertex 1.125000 -0.248630 -0.026132
    vertex 0.000000 -0.250000 0.000000
  endloop
endfacet
facet normal 0.001217 -0.999999 0.000000
  outer loop
    vertex 0.000000 -0.250000 0.000000
    vertex 1.125000 -0.248630 -0.026132
    vertex 1.125000 -0.248630 0.026132
  endloop
endfacet
facet normal -0.001181 -0.994681 0.102992
  outer loop
    vertex 0.000000 -0.250000 0.000000
    vertex 1.125000 -0.248630 0.026132
    vertex 0.000000 -0.244696 0.051222
  endloop
endfacet
facet normal 0.001216 -0.978147 0.207912
  outer loop
    vertex 0.000000 -0.244696 0.051222
    vertex 1.125000 -0.248630 0.026132
    vertex 1.125000 -0.237764 0.077254
  endloop
endfacet
facet normal -0.001179 -0.952477 0.304607
  outer loop
    vertex 0.000000 -0.244696 0.051222
    vertex 1.125000 -0.237764 0.077254
    vertex 0.000000 -0.229010 0.100271
  endloop
endfacet
facet normal 0.001213 -0.913545 0.406736
  outer loop
    vertex 0.000000 -0.229010 0.100271
    vertex 1.125000 -0.237764 0.077254
    vertex 1.125000 -0.216506 0.125000
  endloop
endfacet
facet normal -0.001175 -0.869860 0.493298
  outer loop
    vertex 0.000000 -0.229010 0.100271
    vertex 1.125000 -0.216506 0.125000
    vertex 0.000000 -0.203607 0.145066
  endloop
endfacet
facet normal 0.001208 -0.809016 0.587785
  outer loop
    vertex 0.000000 -0.203607 0.145066
    vertex 1.125000 -0.216506 0.125000
    vertex 1.125000 -0.185786 0.167283
  endloop
endfacet
facet normal -0.001169 -0.750334 0.661058
  outer loop
    vertex 0.000000 -0.203607 0.145066
    vertex 1.125000 -0.185786 0.167283
    vertex 0.000000 -0.169565 0.183705
  endloop
endfacet
facet normal 0.001200 -0.669130 0.743144
  outer loop
    vertex 0.000000 -0.169565 0.183705
    vertex 1.125000 -0.185786 0.167283
    vertex 1.125000 -0.146946 0.202254
  endloop
endfacet
facet normal -0.001160 -0.598972 0.800769
  outer loop
    vertex 0.000000 -0.169565 0.183705
    vertex 1.125000 -0.146946 0.202254
    vertex 0.000000 -0.128329 0.214550
  endloop
endfacet
facet normal 0.001191 -0.500000 0.866025
  outer loop
    vertex 0.000000 -0.128329 0.214550
    vertex 1.125000 -0.146946 0.202254
    vertex 1.125000 -0.101684 0.228386
  endloop
endfacet
facet normal -0.001150 -0.422195 0.906504
  outer loop
    vertex 0.000000 -0.128329 0.214550
    vertex 1.125000 -0.101684 0.228386
    vertex 0.000000 -0.081647 0.236292
  endloop
endfacet
facet normal 0.001179 -0.309017 0.951056
  outer loop
    vertex 0.000000 -0.081647 0.236292
    vertex 1.125000 -0.101684 0.228386
    vertex 1.125000 -0.051978 0.244537
  endloop
endfacet
facet normal -0.001137 -0.227506 0.973776
  outer loop
    vertex 0.000000 -0.081647 0.236292
    vertex 1.125000 -0.051978 0.244537
    vertex 0.000000 -0.031501 0.248007
  endloop
endfacet
facet normal 0.001165 -0.104528 0.994521
  outer loop
    vertex 0.000000 -0.031501 0.248007
    vertex 1.125000 -0.051978 0.244537
    vertex 1.125000 0.000000 0.250000
  endloop
endfacet
facet normal -0.001122 -0.023163 0.999731
  outer loop
    vertex 0.000000 -0.031501 0.248007
    vertex 1.125000 0.000000 0.250000
    vertex 0.000000 0.019981 0.249200
  endloop
endfacet
facet normal 0.001150 0.104528 0.994521
  outer loop
    vertex 0.000000 0.019981 0.249200
    vertex 1.125000 0.000000 0.250000
    vertex 1.125000 0.051978 0.244537
  endloop
endfacet
facet normal -0.001105 0.182163 0.983268
  outer loop
    vertex 0.000000 0.019981 0.249200
    vertex 1.125000 0.051978 0.244537
    vertex 0.000000 0.070616 0.239819
  endloop
endfacet
facet normal 0.001132 0.309017 0.951056
  outer loop
    vertex 0.000000 0.070616 0.239819
    vertex 1.125000 0.051978 0.244537
    vertex 1.125000 0.101684 0.228386
  endloop
endfacet
facet normal -0.001086 0.379760 0.925084
  outer loop
    vertex 0.000000 0.070616 0.239819
    vertex 1.125000 0.101684 0.228386
    vertex 0.000000 0.118254 0.220263
  endloop
endfacet
facet normal 0.001111 0.500000 0.866025
  outer loop
    vertex 0.000000 0.118254 0.220263
    vertex 1.125000 0.101684 0.228386
    vertex 1.125000 0.146946 0.202254
  endloop
endfacet
facet normal -0.001065 0.561244 0.827650
  outer loop
    vertex 0.000000 0.118254 0.220263
    vertex 1.125000 0.146946 0.202254
    vertex 0.000000 0.160875 0.191361
  endloop
endfacet
facet normal 0.001089 0.669130 0.743144
  outer loop
    vertex 0.000000 0.160875 0.191361
    vertex 1.125000 0.146946 0.202254
    vertex 1.125000 0.185786 0.167283
  endloop
endfacet
facet normal -0.001042 0.718914 0.695098
  outer loop
    vertex 0.000000 0.160875 0.191361
    vertex 1.125000 0.185786 0.167283
    vertex 0.000000 0.196670 0.154340
  endloop
endfacet
facet normal 0.001065 0.809017 0.587785
  outer loop
    vertex 0.000000 0.196670 0.154340
    vertex 1.125000 0.185786 0.167283
    vertex 1.125000 0.216506 0.125000
  endloop
endfacet
facet normal -0.001016 0.846080 0.533054
  outer loop
    vertex 0.000000 0.196670 0.154340
    vertex 1.125000 0.216506 0.125000
    vertex 0.000000 0.224121 0.110770
  endloop
endfacet
facet normal 0.001038 0.913545 0.406737
  outer loop
    vertex 0.000000 0.224121 0.110770
    vertex 1.125000 0.216506 0.125000
    vertex 1.125000 0.237764 0.077254
  endloop
endfacet
facet normal -0.001086 0.379760 -0.925084
  outer loop
    vertex 0.000000 0.070616 -0.239819
    vertex 0.000000 0.118254 -0.220263
    vertex 1.125000 0.101684 -0.228386
  endloop
endfacet
facet normal 0.001111 0.500000 -0.866025
  outer loop
    vertex 1.125000 0.101684 -0.228386
    vertex 0.000000 0.118254 -0.220263
    vertex 1.125000 0.146946 -0.202254
  endloop
endfacet
facet normal 0.000000 0.500000 -0.866025
  outer loop
    vertex 1.125000 0.101684 -0.228386
    vertex 1.125000 0.146946 -0.202254
    vertex 2.250000 0.146946 -0.202254
  endloop
endfacet
facet normal 0.000000 0.669131 -0.743145
  outer loop
    vertex 2.250000 0.146946 -0.202254
    vertex 1.125000 0.146946 -0.202254
    vertex 2.250000 0.185786 -0.167283
  endloop
endfacet
facet normal 0.000000 0.669131 -0.743145
  outer loop
    vertex 2.250000 0.146946 -0.202254
    vertex 2.250000 0.185786 -0.167283
    vertex 3.375000 0.185786 -0.167283
  endloop
endfacet
facet normal 0.000000 0.809017 -0.587785
  outer loop
    vertex 3.375000 0.185786 -0.167283
    vertex 2.250000 0.185786 -0.167283
    vertex 3.375000 0.216506 -0.125000
  endloop
endfacet
facet normal 0.000000 0.809017 -0.587785
  outer loop
    vertex 3.375000 0.185786 -0.167283
    vertex 3.375000 0.216506 -0.125000
    vertex 4.500000 0.216506 -0.125000
  endloop
endfacet
facet normal 0.000000 0.913545 -0.406737
  outer loop
    vertex 4.500000 0.216506 -0.125000
    vertex 3.375000 0.216506 -0.125000
    vertex 4.500000 0.237764 -0.077254
  endloop
endfacet
facet normal 0.000000 0.913545 -0.406737
  outer loop
    vertex 4.500000 0.216506 -0.125000
    vertex 4.500000 0.237764 -0.077254
    vertex 5.625000 0.237764 -0.077254
  endloop
endfacet
facet normal 0.000000 0.960105 -0.279641
  outer loop
    vertex 5.625000 0.237764 -0.077254
    vertex 4.500000 0.237764 -0.077254
    vertex 9.000000 0.242061 -0.062500
  endloop
endfacet
facet normal -0.001065 0.561244 -0.827650
  outer loop
    vertex 0.000000 0.118254 -0.220263
    vertex 0.000000 0.160875 -0.191361
    vertex 1.125000 0.146946 -0.202254
  endloop
endfacet
facet normal 0.001089 0.669130 -0.743144
  outer loop
    vertex 1.125000 0.146946 -0.202254
    vertex 0.000000 0.160875 -0.191361
    vertex 1.125000 0.185786 -0.167283
  endloop
endfacet
facet normal 0.000000 0.669131 -0.743145
  outer loop
    vertex 1.125000 0.146946 -0.202254
    vertex 1.125000 0.185786 -0.167283
    vertex 2.250000 0.185786 -0.167283
  endloop
endfacet
facet normal 0.000000 0.809017 -0.587785
  outer loop
    vertex 2.250000 0.185786 -0.167283
    vertex 1.125000 0.185786 -0.167283
    vertex 2.250000 0.216506 -0.125000
  endloop
endfacet
facet normal 0.000000 0.809017 -0.587785
  outer loop
    vertex 2.250000 0.185786 -0.167283
    vertex 2.250000 0.216506 -0.125000
    vertex 3.375000 0.216506 -0.125000
  endloop
endfacet
facet normal 0.000000 0.913545 -0.406737
  outer loop
    vertex 3.375000 0.216506 -0.125000
    vertex 2.250000 0.216506 -0.125000
    vertex 3.375000 0.237764 -0.077254
  endloop
endfacet
facet normal 0.000000 0.913545 -0.406737
  outer loop
    vertex 3.375000 0.216506 -0.125000
    vertex 3.375000 0.237764 -0.077254
    vertex 4.500000 0.237764 -0.077254
  endloop
endfacet
facet normal 0.000000 0.960105 -0.279641
  outer loop
    vertex 4.500000 0.237764 -0.077254
    vertex 3.375000 0.237764 -0.077254
    vertex 0.000000 0.242061 -0.062500
  endloop
endfacet
facet normal 0.000000 0.960105 -0.279641
  outer loop
    vertex 4.500000 0.237764 -0.077254
    vertex 0.000000 0.242061 -0.062500
    vertex 9.000000 0.242061 -0.062500
  endloop
endfacet
facet normal -0.001042 0.718914 -0.695098
  outer loop
    vertex 0.000000 0.160875 -0.191361
    vertex 0.000000 0.196670 -0.154340
    vertex 1.125000 0.185786 -0.167283
  endloop
endfacet
facet normal 0.001065 0.809017 -0.587785
  outer loop
    vertex 1.125000 0.185786 -0.167283
    vertex 0.000000 0.196670 -0.154340
    vertex 1.125000 0.216506 -0.125000
  endloop
endfacet
facet normal 0.000000 0.809017 -0.587785
  outer loop
    vertex 1.125000 0.185786 -0.167283
    vertex 1.125000 0.216506 -0.125000
    vertex 2.250000 0.216506 -0.125000
  endloop
endfacet
facet normal 0.000000 0.913545 -0.406737
  outer loop
    vertex 2.250000 0.216506 -0.125000
    vertex 1.125000 0.216506 -0.125000
    vertex 2.250000 0.237764 -0.077254
  endloop
endfacet
facet normal 0.000000 0.913545 -0.406737
  outer loop
    vertex 2.250000 0.216506 -0.125000
    vertex 2.250000 0.237764 -0.077254
    vertex 3.375000 0.237764 -0.077254
  endloop
endfacet
facet normal 0.000000 0.960105 -0.279641
  outer loop
    vertex 3.375000 0.237764 -0.077254
    vertex 2.250000 0.237764 -0.077254
    vertex 0.000000 0.242061 -0.062500
  endloop
endfacet
facet normal -0.001016 0.846080 -0.533054
  outer loop
    vertex 0.000000 0.196670 -0.154340
    vertex 0.000000 0.224121 -0.110770
    vertex 1.125000 0.216506 -0.125000
  endloop
endfacet
facet normal 0.001038 0.913545 -0.406737
  outer loop
    vertex 1.125000 0.216506 -0.125000
    vertex 0.000000 0.224121 -0.110770
    vertex 1.125000 0.237764 -0.077254
  endloop
endfacet
facet normal 0.000000 0.913545 -0.406737
  outer loop
    vertex 1.125000 0.216506 -0.125000
    vertex 1.125000 0.237764 -0.077254
    vertex 2.250000 0.237764 -0.077254
  endloop
endfacet
facet normal 0.000000 0.960105 -0.279641
  outer loop
    vertex 2.250000 0.237764 -0.077254
    vertex 1.125000 0.237764 -0.077254
    vertex 0.000000 0.242061 -0.062500
  endloop
endfacet
facet normal -0.000989 0.937348 -0.348392
  outer loop
    vertex 0.000000 0.224121 -0.110770
    vertex 0.000000 0.242061 -0.062500
    vertex 1.125000 0.237764 -0.077254
  endloop
endfacet
facet normal 0.001086 0.379760 0.925084
  outer loop
    vertex 9.000000 0.070616 0.239819
    vertex 9.000000 0.118254 0.220263
    vertex 7.875000 0.101684 0.228386
  endloop
endfacet
facet normal -0.001111 0.500000 0.866025
  outer loop
    vertex 7.875000 0.101684 0.228386
    vertex 9.000000 0.118254 0.220263
    vertex 7.875000 0.146946 0.202254
  endloop
endfacet
facet normal 0.000000 0.500000 0.866025
  outer loop
    vertex 7.875000 0.101684 0.228386
    vertex 7.875000 0.146946 0.202254
    vertex 6.750000 0.146946 0.202254
  endloop
endfacet
facet normal -0.000000 0.669131 0.743145
  outer loop
    vertex 6.750000 0.146946 0.202254
    vertex 7.875000 0.146946 0.202254
    vertex 6.750000 0.185786 0.167283
  endloop
endfacet
facet normal 0.000000 0.669131 0.743145
  outer loop
    vertex 6.750000 0.146946 0.202254
    vertex 6.750000 0.185786 0.167283
    vertex 5.625000 0.185786 0.167283
  endloop
endfacet
facet normal -0.000000 0.809017 0.587785
  outer loop
    vertex 5.625000 0.185786 0.167283
    vertex 6.750000 0.185786 0.167283
    vertex 5.625000 0.216506 0.125000
  endloop
endfacet
facet normal 0.000000 0.809017 0.587785
  outer loop
    vertex 5.625000 0.185786 0.167283
    vertex 5.625000 0.216506 0.125000
    vertex 4.500000 0.216506 0.125000
  endloop
endfacet
facet normal -0.000000 0.913545 0.406737
  outer loop
    vertex 4.500000 0.216506 0.125000
    vertex 5.625000 0.216506 0.125000
    vertex 4.500000 0.237764 0.077254
  endloop
endfacet
facet normal 0.000000 0.913545 0.406737
  outer loop
    vertex 4.500000 0.216506 0.125000
    vertex 4.500000 0.237764 0.077254
    vertex 3.375000 0.237764 0.077254
  endloop
endfacet
facet normal -0.000000 0.960105 0.279641
  outer loop
    vertex 3.375000 0.237764 0.077254
    vertex 4.500000 0.237764 0.077254
    vertex 0.000000 0.242061 0.062500
  endloop
endfacet
facet normal 0.001065 0.561244 0.827650
  outer loop
    vertex 9.000000 0.118254 0.220263
    vertex 9.000000 0.160875 0.191361
    vertex 7.875000 0.146946 0.202254
  endloop
endfacet
facet normal -0.001089 0.669130 0.743144
  outer loop
    vertex 7.875000 0.146946 0.202254
    vertex 9.000000 0.160875 0.191361
    vertex 7.875000 0.185786 0.167283
  endloop
endfacet
facet normal 0.000000 0.669131 0.743145
  outer loop
    vertex 7.875000 0.146946 0.202254
    vertex 7.875000 0.185786 0.167283
    vertex 6.750000 0.185786 0.167283
  endloop
endfacet
facet normal -0.000000 0.809017 0.587785
  outer loop
    vertex 6.750000 0.185786 0.167283
    vertex 7.875000 0.185786 0.167283
    vertex 6.750000 0.216506 0.125000
  endloop
endfacet
facet normal 0.000000 0.809017 0.587785
  outer loop
    vertex 6.750000 0.185786 0.167283
    vertex 6.750000 0.216506 0.125000
    vertex 5.625000 0.216506 0.125000
  endloop
endfacet
facet normal -0.000000 0.913545 0.406737
  outer loop
    vertex 5.625000 0.216506 0.125000
    vertex 6.750000 0.216506 0.125000
    vertex 5.625000 0.237764 0.077254
  endloop
endfacet
facet normal 0.000000 0.913545 0.406737
  outer loop
    vertex 5.625000 0.216506 0.125000
    vertex 5.625000 0.237764 0.077254
    vertex 4.500000 0.237764 0.077254
  endloop
endfacet
facet normal -0.000000 0.960105 0.279641
  outer loop
    vertex 4.500000 0.237764 0.077254
    vertex 5.625000 0.237764 0.077254
    vertex 9.000000 0.242061 0.062500
  endloop
endfacet
facet normal 0.000000 0.960105 0.279641
  outer loop
    vertex 4.500000 0.237764 0.077254
    vertex 9.000000 0.242061 0.062500
    vertex 0.000000 0.242061 0.062500
  endloop
endfacet
facet normal 0.001042 0.718914 0.695098
  outer loop
    vertex 9.000000 0.160875 0.191361
    vertex 9.000000 0.196670 0.154340
    vertex 7.875000 0.185786 0.167283
  endloop
endfacet
facet normal -0.001065 0.809017 0.587785
  outer loop
    vertex 7.875000 0.185786 0.167283
    vertex 9.000000 0.196670 0.154340
    vertex 7.875000 0.216506 0.125000
  endloop
endfacet
facet normal 0.000000 0.809017 0.587785
  outer loop
    vertex 7.875000 0.185786 0.167283
    vertex 7.875000 0.216506 0.125000
    vertex 6.750000 0.216506 0.125000
  endloop
endfacet
facet normal -0.000000 0.913545 0.406737
  outer loop
    vertex 6.750000 0.216506 0.125000
    vertex 7.875000 0.216506 0.125000
    vertex 6.750000 0.237764 0.077254
  endloop
endfacet
facet normal 0.000000 0.913545 0.406737
  outer loop
    vertex 6.750000 0.216506 0.125000
    vertex 6.750000 0.237764 0.077254
    vertex 5.625000 0.237764 0.077254
  endloop
endfacet
facet normal -0.000000 0.960105 0.279641
  outer loop
    vertex 5.625000 0.237764 0.077254
    vertex 6.750000 0.237764 0.077254
    vertex 9.000000 0.242061 0.062500
  endloop
endfacet
facet normal 0.001016 0.846080 0.533054
  outer loop
    vertex 9.000000 0.196670 0.154340
    vertex 9.000000 0.224121 0.110770
    vertex 7.875000 0.216506 0.125000
  endloop
endfacet
facet normal -0.001038 0.913545 0.406737
  outer loop
    vertex 7.875000 0.216506 0.125000
    vertex 9.000000 0.224121 0.110770
    vertex 7.875000 0.237764 0.077254
  endloop
endfacet
facet normal 0.000000 0.913545 0.406737
  outer loop
    vertex 7.875000 0.216506 0.125000
    vertex 7.875000 0.237764 0.077254
    vertex 6.750000 0.237764 0.077254
  endloop
endfacet
facet normal -0.000000 0.960105 0.279641
  outer loop
    vertex 6.750000 0.237764 0.077254
    vertex 7.875000 0.237764 0.077254
    vertex 9.000000 0.242061 0.062500
  endloop
endfacet
facet normal 0.000989 0.937348 0.348392
  outer loop
    vertex 9.000000 0.224121 0.110770
    vertex 9.000000 0.242061 0.062500
    vertex 7.875000 0.237764 0.077254
  endloop
endfacet
facet normal -0.000000 0.104528 0.994522
  outer loop
    vertex 1.125000 0.000000 0.250000
    vertex 2.250000 0.000000 0.250000
    vertex 1.125000 0.051978 0.244537
  endloop
endfacet
facet normal -0.000000 0.104528 0.994522
  outer loop
    vertex 1.125000 0.051978 0.244537
    vertex 2.250000 0.000000 0.250000
    vertex 2.250000 0.051978 0.244537
  endloop
endfacet
facet normal -0.000000 0.309017 0.951056
  outer loop
    vertex 1.125000 0.051978 0.244537
    vertex 2.250000 0.051978 0.244537
    vertex 1.125000 0.101684 0.228386
  endloop
endfacet
facet normal -0.000000 0.309017 0.951056
  outer loop
    vertex 1.125000 0.101684 0.228386
    vertex 2.250000 0.051978 0.244537
    vertex 2.250000 0.101684 0.228386
  endloop
endfacet
facet normal -0.000000 0.500000 0.866025
  outer loop
    vertex 1.125000 0.101684 0.228386
    vertex 2.250000 0.101684 0.228386
    vertex 1.125000 0.146946 0.202254
  endloop
endfacet
facet normal -0.000000 0.500000 0.866025
  outer loop
    vertex 1.125000 0.146946 0.202254
    vertex 2.250000 0.101684 0.228386
    vertex 2.250000 0.146946 0.202254
  endloop
endfacet
facet normal -0.000000 0.669131 0.743145
  outer loop
    vertex 1.125000 0.146946 0.202254
    vertex 2.250000 0.146946 0.202254
    vertex 1.125000 0.185786 0.167283
  endloop
endfacet
facet normal -0.000000 0.669131 0.743145
  outer loop
    vertex 1.125000 0.185786 0.167283
    vertex 2.250000 0.146946 0.202254
    vertex 2.250000 0.185786 0.167283
  endloop
endfacet
facet normal -0.000000 0.809017 0.587785
  outer loop
    vertex 1.125000 0.185786 0.167283
    vertex 2.250000 0.185786 0.167283
    vertex 1.125000 0.216506 0.125000
  endloop
endfacet
facet normal -0.000000 0.809017 0.587785
  outer loop
    vertex 1.125000 0.216506 0.125000
    vertex 2.250000 0.185786 0.167283
    vertex 2.250000 0.216506 0.125000
  endloop
endfacet
facet normal -0.000000 0.913545 0.406737
  outer loop
    vertex 1.125000 0.216506 0.125000
    vertex 2.250000 0.216506 0.125000
    vertex 1.125000 0.237764 0.077254
  endloop
endfacet
facet normal -0.000000 0.913545 0.406737
  outer loop
    vertex 1.125000 0.237764 0.077254
    vertex 2.250000 0.216506 0.125000
    vertex 2.250000 0.237764 0.077254
  endloop
endfacet
facet normal -0.000000 0.104528 0.994522
  outer loop
    vertex 2.250000 0.000000 0.250000
    vertex 3.375000 0.000000 0.250000
    vertex 2.250000 0.051978 0.244537
  endloop
endfacet
facet normal -0.000000 0.104528 0.994522
  outer loop
    vertex 2.250000 0.051978 0.244537
    vertex 3.375000 0.000000 0.250000
    vertex 3.375000 0.051978 0.244537
  endloop
endfacet
facet normal -0.000000 0.309017 0.951056
  outer loop
    vertex 2.250000 0.051978 0.244537
    vertex 3.375000 0.051978 0.244537
    vertex 2.250000 0.101684 0.228386
  endloop
endfacet
facet normal -0.000000 0.309017 0.951056
  outer loop
    vertex 2.250000 0.101684 0.228386
    vertex 3.375000 0.051978 0.244537
    vertex 3.375000 0.101684 0.228386
  endloop
endfacet
facet normal -0.000000 0.500000 0.866025
  outer loop
    vertex 2.250000 0.101684 0.228386
    vertex 3.375000 0.101684 0.228386
    vertex 2.250000 0.146946 0.202254
  endloop
endfacet
facet normal -0.000000 0.500000 0.866025
  outer loop
    vertex 2.250000 0.146946 0.202254
    vertex 3.375000 0.101684 0.228386
    vertex 3.375000 0.146946 0.202254
  endloop
endfacet
facet normal -0.000000 0.669131 0.743145
  outer loop
    vertex 2.250000 0.146946 0.202254
    vertex 3.375000 0.146946 0.202254
    vertex 2.250000 0.185786 0.167283
  endloop
endfacet
facet normal -0.000000 0.669131 0.743145
  outer loop
    vertex 2.250000 0.185786 0.167283
    vertex 3.375000 0.146946 0.202254
    vertex 3.375000 0.185786 0.167283
  endloop
endfacet
facet normal -0.000000 0.809017 0.587785
  outer loop
    vertex 2.250000 0.185786 0.167283
    vertex 3.375000 0.185786 0.167283
    vertex 2.250000 0.216506 0.125000
  endloop
endfacet
facet normal -0.000000 0.809017 0.587785
  outer loop
    vertex 2.250000 0.216506 0.125000
    vertex 3.375000 0.185786 0.167283
    vertex 3.375000 0.216506 0.125000
  endloop
endfacet
facet normal -0.000000 0.913545 0.406737
  outer loop
    vertex 2.250000 0.216506 0.125000
    vertex 3.375000 0.216506 0.125000
    vertex 2.250000 0.237764 0.077254
  endloop
endfacet
facet normal 0.000000 -0.104528 0.994522
  outer loop
    vertex 2.250000 0.000000 0.250000
    vertex 1.125000 0.000000 0.250000
    vertex 2.250000 -0.051978 0.244537
  endloop
endfacet
facet normal 0.000000 -0.104528 0.994522
  outer loop
    vertex 2.250000 -0.051978 0.244537
    vertex 1.125000 0.000000 0.250000
    vertex 1.125000 -0.051978 0.244537
  endloop
endfacet
facet normal 0.000000 -0.309017 0.951056
  outer loop
    vertex 2.250000 -0.051978 0.244537
    vertex 1.125000 -0.051978 0.244537
    vertex 2.250000 -0.101684 0.228386
  endloop
endfacet
facet normal 0.000000 -0.309017 0.951056
  outer loop
    vertex 2.250000 -0.101684 0.228386
    vertex 1.125000 -0.051978 0.244537
    vertex 1.125000 -0.101684 0.228386
  endloop
endfacet
facet normal 0.000000 -0.500000 0.866025
  outer loop
    vertex 2.250000 -0.101684 0.228386
    vertex 1.125000 -0.101684 0.228386
    vertex 2.250000 -0.146946 0.202254
  endloop
endfacet
facet normal 0.000000 -0.500000 0.866025
  outer loop
    vertex 2.250000 -0.146946 0.202254
    vertex 1.125000 -0.101684 0.228386
    vertex 1.125000 -0.146946 0.202254
  endloop
endfacet
facet normal 0.000000 -0.669131 0.743145
  outer loop
    vertex 2.250000 -0.146946 0.202254
    vertex 1.125000 -0.146946 0.202254
    vertex 2.250000 -0.185786 0.167283
  endloop
endfacet
facet normal 0.000000 -0.669131 0.743145
  outer loop
    vertex 2.250000 -0.185786 0.167283
    vertex 1.125000 -0.146946 0.202254
    vertex 1.125000 -0.185786 0.167283
  endloop
endfacet
facet normal 0.000000 -0.809017 0.587785
  outer loop
    vertex 2.250000 -0.185786 0.167283
    vertex 1.125000 -0.185786 0.167283
    vertex 2.250000 -0.216506 0.125000
  endloop
endfacet
facet normal 0.000000 -0.809017 0.587785
  outer loop
    vertex 2.250000 -0.216506 0.125000
    vertex 1.125000 -0.185786 0.167283
    vertex 1.125000 -0.216506 0.125000
  endloop
endfacet
facet normal 0.000000 -0.913545 0.406737
  outer loop
    vertex 2.250000 -0.216506 0.125000
    vertex 1.125000 -0.216506 0.125000
    vertex 2.250000 -0.237764 0.077254
  endloop
endfacet
facet normal 0.000000 -0.913545 0.406737
  outer loop
    vertex 2.250000 -0.237764 0.077254
    vertex 1.125000 -0.216506 0.125000
    vertex 1.125000 -0.237764 0.077254
  endloop
endfacet
facet normal 0.000000 -0.978148 0.207912
  outer loop
    vertex 2.250000 -0.237764 0.077254
    vertex 1.125000 -0.237764 0.077254
    vertex 2.250000 -0.248630 0.026132
  endloop
endfacet
facet normal 0.000000 -0.978148 0.207912
  outer loop
    vertex 2.250000 -0.248630 0.026132
    vertex 1.125000 -0.237764 0.077254
    vertex 1.125000 -0.248630 0.026132
  endloop
endfacet
facet normal -0.000000 -1.000000 -0.000000
  outer loop
    vertex 2.250000 -0.248630 0.026132
    vertex 1.125000 -0.248630 0.026132
    vertex 2.250000 -0.248630 -0.026132
  endloop
endfacet
facet normal 0.000000 -1.000000 0.000000
  outer loop
    vertex 2.250000 -0.248630 -0.026132
    vertex 1.125000 -0.248630 0.026132
    vertex 1.125000 -0.248630 -0.026132
  endloop
endfacet
facet normal -0.000000 -0.978148 -0.207912
  outer loop
    vertex 2.250000 -0.248630 -0.026132
    vertex 1.125000 -0.248630 -0.026132
    vertex 2.250000 -0.237764 -0.077254
  endloop
endfacet
facet normal -0.000000 -0.978148 -0.207912
  outer loop
    vertex 2.250000 -0.237764 -0.077254
    vertex 1.125000 -0.248630 -0.026132
    vertex 1.125000 -0.237764 -0.077254
  endloop
endfacet
facet normal -0.000000 -0.913545 -0.406737
  outer loop
    vertex 2.250000 -0.237764 -0.077254
    vertex 1.125000 -0.237764 -0.077254
    vertex 2.250000 -0.216506 -0.125000
  endloop
endfacet
facet normal -0.000000 -0.913545 -0.406737
  outer loop
    vertex 2.250000 -0.216506 -0.125000
    vertex 1.125000 -0.237764 -0.077254
    vertex 1.125000 -0.216506 -0.125000
  endloop
endfacet
facet normal -0.000000 -0.809017 -0.587785
  outer loop
    vertex 2.250000 -0.216506 -0.125000
    vertex 1.125000 -0.216506 -0.125000
    vertex 2.250000 -0.185786 -0.167283
  endloop
endfacet
facet normal -0.000000 -0.809017 -0.587785
  outer loop
    vertex 2.250000 -0.185786 -0.167283
    vertex 1.125000 -0.216506 -0.125000
    vertex 1.125000 -0.185786 -0.167283
  endloop
endfacet
facet normal -0.000000 -0.669131 -0.743145
  outer loop
    vertex 2.250000 -0.185786 -0.167283
    vertex 1.125000 -0.185786 -0.167283
    vertex 2.250000 -0.146946 -0.202254
  endloop
endfacet
facet normal -0.000000 -0.669131 -0.743145
  outer loop
    vertex 2.250000 -0.146946 -0.202254
    vertex 1.125000 -0.185786 -0.167283
    vertex 1.125000 -0.146946 -0.202254
  endloop
endfacet
facet normal -0.000000 -0.500000 -0.866025
  outer loop
    vertex 2.250000 -0.146946 -0.202254
    vertex 1.125000 -0.146946 -0.202254
    vertex 2.250000 -0.101684 -0.228386
  endloop
endfacet
facet normal -0.000000 -0.500000 -0.866025
  outer loop
    vertex 2.250000 -0.101684 -0.228386
    vertex 1.125000 -0.146946 -0.202254
    vertex 1.125000 -0.101684 -0.228386
  endloop
endfacet
facet normal -0.000000 -0.309017 -0.951056
  outer loop
    vertex 2.250000 -0.101684 -0.228386
    vertex 1.125000 -0.101684 -0.228386
    vertex 2.250000 -0.051978 -0.244537
  endloop
endfacet
facet normal -0.000000 -0.309017 -0.951056
  outer loop
    vertex 2.250000 -0.051978 -0.244537
    vertex 1.125000 -0.101684 -0.228386
    vertex 1.125000 -0.051978 -0.244537
  endloop
endfacet
facet normal -0.000000 -0.104528 -0.994522
  outer loop
    vertex 2.250000 -0.051978 -0.244537
    vertex 1.125000 -0.051978 -0.244537
    vertex 2.250000 0.000000 -0.250000
  endloop
endfacet
facet normal -0.000000 -0.104528 -0.994522
  outer loop
    vertex 2.250000 0.000000 -0.250000
    vertex 1.125000 -0.051978 -0.244537
    vertex 1.125000 0.000000 -0.250000
  endloop
endfacet
facet normal 0.000000 0.104528 -0.994522
  outer loop
    vertex 2.250000 0.000000 -0.250000
    vertex 1.125000 0.000000 -0.250000
    vertex 2.250000 0.051978 -0.244537
  endloop
endfacet
facet normal 0.000000 0.104528 -0.994522
  outer loop
    vertex 2.250000 0.051978 -0.244537
    vertex 1.125000 0.000000 -0.250000
    vertex 1.125000 0.051978 -0.244537
  endloop
endfacet
facet normal 0.000000 0.309017 -0.951056
  outer loop
    vertex 2.250000 0.051978 -0.244537
    vertex 1.125000 0.051978 -0.244537
    vertex 2.250000 0.101684 -0.228386
  endloop
endfacet
facet normal -0.000000 0.104528 0.994522
  outer loop
    vertex 3.375000 0.000000 0.250000
    vertex 4.500000 0.000000 0.250000
    vertex 3.375000 0.051978 0.244537
  endloop
endfacet
facet normal -0.000000 0.104528 0.994522
  outer loop
    vertex 3.375000 0.051978 0.244537
    vertex 4.500000 0.000000 0.250000
    vertex 4.500000 0.051978 0.244537
  endloop
endfacet
facet normal -0.000000 0.309017 0.951056
  outer loop
    vertex 3.375000 0.051978 0.244537
    vertex 4.500000 0.051978 0.244537
    vertex 3.375000 0.101684 0.228386
  endloop
endfacet
facet normal -0.000000 0.309017 0.951056
  outer loop
    vertex 3.375000 0.101684 0.228386
    vertex 4.500000 0.051978 0.244537
    vertex 4.500000 0.101684 0.228386
  endloop
endfacet
facet normal -0.000000 0.500000 0.866025
  outer loop
    vertex 3.375000 0.101684 0.228386
    vertex 4.500000 0.101684 0.228386
    vertex 3.375000 0.146946 0.202254
  endloop
endfacet
facet normal -0.000000 0.500000 0.866025
  outer loop
    vertex 3.375000 0.146946 0.202254
    vertex 4.500000 0.101684 0.228386
    vertex 4.500000 0.146946 0.202254
  endloop
endfacet
facet normal -0.000000 0.669131 0.743145
  outer loop
    vertex 3.375000 0.146946 0.202254
    vertex 4.500000 0.146946 0.202254
    vertex 3.375000 0.185786 0.167283
  endloop
endfacet
facet normal -0.000000 0.669131 0.743145
  outer loop
    vertex 3.375000 0.185786 0.167283
    vertex 4.500000 0.146946 0.202254
    vertex 4.500000 0.185786 0.167283
  endloop
endfacet
facet normal -0.000000 0.809017 0.587785
  outer loop
    vertex 3.375000 0.185786 0.167283
    vertex 4.500000 0.185786 0.167283
    vertex 3.375000 0.216506 0.125000
  endloop
endfacet
facet normal 0.000000 -0.104528 0.994522
  outer loop
    vertex 3.375000 0.000000 0.250000
    vertex 2.250000 0.000000 0.250000
    vertex 3.375000 -0.051978 0.244537
  endloop
endfacet
facet normal 0.000000 -0.104528 0.994522
  outer loop
    vertex 3.375000 -0.051978 0.244537
    vertex 2.250000 0.000000 0.250000
    vertex 2.250000 -0.051978 0.244537
  endloop
endfacet
facet normal 0.000000 -0.309017 0.951056
  outer loop
    vertex 3.375000 -0.051978 0.244537
    vertex 2.250000 -0.051978 0.244537
    vertex 3.375000 -0.101684 0.228386
  endloop
endfacet
facet normal 0.000000 -0.309017 0.951056
  outer loop
    vertex 3.375000 -0.101684 0.228386
    vertex 2.250000 -0.051978 0.244537
    vertex 2.250000 -0.101684 0.228386
  endloop
endfacet
facet normal 0.000000 -0.500000 0.866025
  outer loop
    vertex 3.375000 -0.101684 0.228386
    vertex 2.250000 -0.101684 0.228386
    vertex 3.375000 -0.146946 0.202254
  endloop
endfacet
facet normal 0.000000 -0.500000 0.866025
  outer loop
    vertex 3.375000 -0.146946 0.202254
    vertex 2.250000 -0.101684 0.228386
    vertex 2.250000 -0.146946 0.202254
  endloop
endfacet
facet normal 0.000000 -0.669131 0.743145
  outer loop
    vertex 3.375000 -0.146946 0.202254
    vertex 2.250000 -0.146946 0.202254
    vertex 3.375000 -0.185786 0.167283
  endloop
endfacet
facet normal 0.000000 -0.669131 0.743145
  outer loop
    vertex 3.375000 -0.185786 0.167283
    vertex 2.250000 -0.146946 0.202254
    vertex 2.250000 -0.185786 0.167283
  endloop
endfacet
facet normal 0.000000 -0.809017 0.587785
  outer loop
    vertex 3.375000 -0.185786 0.167283
    vertex 2.250000 -0.185786 0.167283
    vertex 3.375000 -0.216506 0.125000
  endloop
endfacet
facet normal 0.000000 -0.809017 0.587785
  outer loop
    vertex 3.375000 -0.216506 0.125000
    vertex 2.250000 -0.185786 0.167283
    vertex 2.250000 -0.216506 0.125000
  endloop
endfacet
facet normal 0.000000 -0.913545 0.406737
  outer loop
    vertex 3.375000 -0.216506 0.125000
    vertex 2.250000 -0.216506 0.125000
    vertex 3.375000 -0.237764 0.077254
  endloop
endfacet
facet normal 0.000000 -0.913545 0.406737
  outer loop
    vertex 3.375000 -0.237764 0.077254
    vertex 2.250000 -0.216506 0.125000
    vertex 2.250000 -0.237764 0.077254
  endloop
endfacet
facet normal 0.000000 -0.978148 0.207912
  outer loop
    vertex 3.375000 -0.237764 0.077254
    vertex 2.250000 -0.237764 0.077254
    vertex 3.375000 -0.248630 0.026132
  endloop
endfacet
facet normal 0.000000 -0.978148 0.207912
  outer loop
    vertex 3.375000 -0.248630 0.026132
    vertex 2.250000 -0.237764 0.077254
    vertex 2.250000 -0.248630 0.026132
  endloop
endfacet
facet normal -0.000000 -1.000000 -0.000000
  outer loop
    vertex 3.375000 -0.248630 0.026132
    vertex 2.250000 -0.248630 0.026132
    vertex 3.375000 -0.248630 -0.026132
  endloop
endfacet
facet normal 0.000000 -1.000000 0.000000
  outer loop
    vertex 3.375000 -0.248630 -0.026132
    vertex 2.250000 -0.248630 0.026132
    vertex 2.250000 -0.248630 -0.026132
  endloop
endfacet
facet normal -0.000000 -0.978148 -0.207912
  outer loop
    vertex 3.375000 -0.248630 -0.026132
    vertex 2.250000 -0.248630 -0.026132
    vertex 3.375000 -0.237764 -0.077254
  endloop
endfacet
facet normal -0.000000 -0.978148 -0.207912
  outer loop
    vertex 3.375000 -0.237764 -0.077254
    vertex 2.250000 -0.248630 -0.026132
    vertex 2.250000 -0.237764 -0.077254
  endloop
endfacet
facet normal -0.000000 -0.913545 -0.406737
  outer loop
    vertex 3.375000 -0.237764 -0.077254
    vertex 2.250000 -0.237764 -0.077254
    vertex 3.375000 -0.216506 -0.125000
  endloop
endfacet
facet normal -0.000000 -0.913545 -0.406737
  outer loop
    vertex 3.375000 -0.216506 -0.125000
    vertex 2.250000 -0.237764 -0.077254
    vertex 2.250000 -0.216506 -0.125000
  endloop
endfacet
facet normal -0.000000 -0.809017 -0.587785
  outer loop
    vertex 3.375000 -0.216506 -0.125000
    vertex 2.250000 -0.216506 -0.125000
    vertex 3.375000 -0.185786 -0.167283
  endloop
endfacet
facet normal -0.000000 -0.809017 -0.587785
  outer loop
    vertex 3.375000 -0.185786 -0.167283
    vertex 2.250000 -0.216506 -0.125000
    vertex 2.250000 -0.185786 -0.167283
  endloop
endfacet
facet normal -0.000000 -0.669131 -0.743145
  outer loop
    vertex 3.375000 -0.185786 -0.167283
    vertex 2.250000 -0.185786 -0.167283
    vertex 3.375000 -0.146946 -0.202254
  endloop
endfacet
facet normal -0.000000 -0.669131 -0.743145
  outer loop
    vertex 3.375000 -0.146946 -0.202254
    vertex 2.250000 -0.185786 -0.167283
    vertex 2.250000 -0.146946 -0.202254
  endloop
endfacet
facet normal -0.000000 -0.500000 -0.866025
  outer loop
    vertex 3.375000 -0.146946 -0.202254
    vertex 2.250000 -0.146946 -0.202254
    vertex 3.375000 -0.101684 -0.228386
  endloop
endfacet
facet normal -0.000000 -0.500000 -0.866025
  outer loop
    vertex 3.375000 -0.101684 -0.228386
    vertex 2.250000 -0.146946 -0.202254
    vertex 2.250000 -0.101684 -0.228386
  endloop
endfacet
facet normal -0.000000 -0.309017 -0.951056
  outer loop
    vertex 3.375000 -0.101684 -0.228386
    vertex 2.250000 -0.101684 -0.228386
    vertex 3.375000 -0.051978 -0.244537
  endloop
endfacet
facet normal -0.000000 -0.309017 -0.951056
  outer loop
    vertex 3.375000 -0.051978 -0.244537
    vertex 2.250000 -0.101684 -0.228386
    vertex 2.250000 -0.051978 -0.244537
  endloop
endfacet
facet normal -0.000000 -0.104528 -0.994522
  outer loop
    vertex 3.375000 -0.051978 -0.244537
    vertex 2.250000 -0.051978 -0.244537
    vertex 3.375000 0.000000 -0.250000
  endloop
endfacet
facet normal -0.000000 -0.104528 -0.994522
  outer loop
    vertex 3.375000 0.000000 -0.250000
    vertex 2.250000 -0.051978 -0.244537
    vertex 2.250000 0.000000 -0.250000
  endloop
endfacet
facet normal 0.000000 0.104528 -0.994522
  outer loop
    vertex 3.375000 0.000000 -0.250000
    vertex 2.250000 0.000000 -0.250000
    vertex 3.375000 0.051978 -0.244537
  endloop
endfacet
facet normal 0.000000 0.104528 -0.994522
  outer loop
    vertex 3.375000 0.051978 -0.244537
    vertex 2.250000 0.000000 -0.250000
    vertex 2.250000 0.051978 -0.244537
  endloop
endfacet
facet normal 0.000000 0.309017 -0.951056
  outer loop
    vertex 3.375000 0.051978 -0.244537
    vertex 2.250000 0.051978 -0.244537
    vertex 3.375000 0.101684 -0.228386
  endloop
endfacet
facet normal 0.000000 0.309017 -0.951056
  outer loop
    vertex 3.375000 0.101684 -0.228386
    vertex 2.250000 0.051978 -0.244537
    vertex 2.250000 0.101684 -0.228386
  endloop
endfacet
facet normal 0.000000 0.500000 -0.866025
  outer loop
    vertex 3.375000 0.101684 -0.228386
    vertex 2.250000 0.101684 -0.228386
    vertex 3.375000 0.146946 -0.202254
  endloop
endfacet
facet normal -0.000000 0.104528 0.994522
  outer loop
    vertex 4.500000 0.000000 0.250000
    vertex 5.625000 0.000000 0.250000
    vertex 4.500000 0.051978 0.244537
  endloop
endfacet
facet normal -0.000000 0.104528 0.994522
  outer loop
    vertex 4.500000 0.051978 0.244537
    vertex 5.625000 0.000000 0.250000
    vertex 5.625000 0.051978 0.244537
  endloop
endfacet
facet normal -0.000000 0.309017 0.951056
  outer loop
    vertex 4.500000 0.051978 0.244537
    vertex 5.625000 0.051978 0.244537
    vertex 4.500000 0.101684 0.228386
  endloop
endfacet
facet normal -0.000000 0.309017 0.951056
  outer loop
    vertex 4.500000 0.101684 0.228386
    vertex 5.625000 0.051978 0.244537
    vertex 5.625000 0.101684 0.228386
  endloop
endfacet
facet normal -0.000000 0.500000 0.866025
  outer loop
    vertex 4.500000 0.101684 0.228386
    vertex 5.625000 0.101684 0.228386
    vertex 4.500000 0.146946 0.202254
  endloop
endfacet
facet normal -0.000000 0.500000 0.866025
  outer loop
    vertex 4.500000 0.146946 0.202254
    vertex 5.625000 0.101684 0.228386
    vertex 5.625000 0.146946 0.202254
  endloop
endfacet
facet normal -0.000000 0.669131 0.743145
  outer loop
    vertex 4.500000 0.146946 0.202254
    vertex 5.625000 0.146946 0.202254
    vertex 4.500000 0.185786 0.167283
  endloop
endfacet
facet normal 0.000000 -0.104528 0.994522
  outer loop
    vertex 4.500000 0.000000 0.250000
    vertex 3.375000 0.000000 0.250000
    vertex 4.500000 -0.051978 0.244537
  endloop
endfacet
facet normal 0.000000 -0.104528 0.994522
  outer loop
    vertex 4.500000 -0.051978 0.244537
    vertex 3.375000 0.000000 0.250000
    vertex 3.375000 -0.051978 0.244537
  endloop
endfacet
facet normal 0.000000 -0.309017 0.951056
  outer loop
    vertex 4.500000 -0.051978 0.244537
    vertex 3.375000 -0.051978 0.244537
    vertex 4.500000 -0.101684 0.228386
  endloop
endfacet
facet normal 0.000000 -0.309017 0.951056
  outer loop
    vertex 4.500000 -0.101684 0.228386
    vertex 3.375000 -0.051978 0.244537
    vertex 3.375000 -0.101684 0.228386
  endloop
endfacet
facet normal 0.000000 -0.500000 0.866025
  outer loop
    vertex 4.500000 -0.101684 0.228386
    vertex 3.375000 -0.101684 0.228386
    vertex 4.500000 -0.146946 0.202254
  endloop
endfacet
facet normal 0.000000 -0.500000 0.866025
  outer loop
    vertex 4.500000 -0.146946 0.202254
    vertex 3.375000 -0.101684 0.228386
    vertex 3.375000 -0.146946 0.202254
  endloop
endfacet
facet normal 0.000000 -0.669131 0.743145
  outer loop
    vertex 4.500000 -0.146946 0.202254
    vertex 3.375000 -0.146946 0.202254
    vertex 4.500000 -0.185786 0.167283
  endloop
endfacet
facet normal 0.000000 -0.669131 0.743145
  outer loop
    vertex 4.500000 -0.185786 0.167283
    vertex 3.375000 -0.146946 0.202254
    vertex 3.375000 -0.185786 0.167283
  endloop
endfacet
facet normal 0.000000 -0.809017 0.587785
  outer loop
    vertex 4.500000 -0.185786 0.167283
    vertex 3.375000 -0.185786 0.167283
    vertex 4.500000 -0.216506 0.125000
  endloop
endfacet
facet normal 0.000000 -0.809017 0.587785
  outer loop
    vertex 4.500000 -0.216506 0.125000
    vertex 3.375000 -0.185786 0.167283
    vertex 3.375000 -0.216506 0.125000
  endloop
endfacet
facet normal 0.000000 -0.913545 0.406737
  outer loop
    vertex 4.500000 -0.216506 0.125000
    vertex 3.375000 -0.216506 0.125000
    vertex 4.500000 -0.237764 0.077254
  endloop
endfacet
facet normal 0.000000 -0.913545 0.406737
  outer loop
    vertex 4.500000 -0.237764 0.077254
    vertex 3.375000 -0.216506 0.125000
    vertex 3.375000 -0.237764 0.077254
  endloop
endfacet
facet normal 0.000000 -0.978148 0.207912
  outer loop
    vertex 4.500000 -0.237764 0.077254
    vertex 3.375000 -0.237764 0.077254
    vertex 4.500000 -0.248630 0.026132
  endloop
endfacet
facet normal 0.000000 -0.978148 0.207912
  outer loop
    vertex 4.500000 -0.248630 0.026132
    vertex 3.375000 -0.237764 0.077254
    vertex 3.375000 -0.248630 0.026132
  endloop
endfacet
facet normal -0.000000 -1.000000 -0.000000
  outer loop
    vertex 4.500000 -0.248630 0.026132
    vertex 3.375000 -0.248630 0.026132
    vertex 4.500000 -0.248630 -0.026132
  endloop
endfacet
facet normal 0.000000 -1.000000 0.000000
  outer loop
    vertex 4.500000 -0.248630 -0.026132
    vertex 3.375000 -0.248630 0.026132
    vertex 3.375000 -0.248630 -0.026132
  endloop
endfacet
facet normal -0.000000 -0.978148 -0.207912
  outer loop
    vertex 4.500000 -0.248630 -0.026132
    vertex 3.375000 -0.248630 -0.026132
    vertex 4.500000 -0.237764 -0.077254
  endloop
endfacet
facet normal -0.000000 -0.978148 -0.207912
  outer loop
    vertex 4.500000 -0.237764 -0.077254
    vertex 3.375000 -0.248630 -0.026132
    vertex 3.375000 -0.237764 -0.077254
  endloop
endfacet
facet normal -0.000000 -0.913545 -0.406737
  outer loop
    vertex 4.500000 -0.237764 -0.077254
    vertex 3.375000 -0.237764 -0.077254
    vertex 4.500000 -0.216506 -0.125000
  endloop
endfacet
facet normal -0.000000 -0.913545 -0.406737
  outer loop
    vertex 4.500000 -0.216506 -0.125000
    vertex 3.375000 -0.237764 -0.077254
    vertex 3.375000 -0.216506 -0.125000
  endloop
endfacet
facet normal -0.000000 -0.809017 -0.587785
  outer loop
    vertex 4.500000 -0.216506 -0.125000
    vertex 3.375000 -0.216506 -0.125000
    vertex 4.500000 -0.185786 -0.167283
  endloop
endfacet
facet normal -0.000000 -0.809017 -0.587785
  outer loop
    vertex 4.500000 -0.185786 -0.167283
    vertex 3.375000 -0.216506 -0.125000
    vertex 3.375000 -0.185786 -0.167283
  endloop
endfacet
facet normal -0.000000 -0.669131 -0.743145
  outer loop
    vertex 4.500000 -0.185786 -0.167283
    vertex 3.375000 -0.185786 -0.167283
    vertex 4.500000 -0.146946 -0.202254
  endloop
endfacet
facet normal -0.000000 -0.669131 -0.743145
  outer loop
    vertex 4.500000 -0.146946 -0.202254
    vertex 3.375000 -0.185786 -0.167283
    vertex 3.375000 -0.146946 -0.202254
  endloop
endfacet
facet normal -0.000000 -0.500000 -0.866025
  outer loop
    vertex 4.500000 -0.146946 -0.202254
    vertex 3.375000 -0.146946 -0.202254
    vertex 4.500000 -0.101684 -0.228386
  endloop
endfacet
facet normal -0.000000 -0.500000 -0.866025
  outer loop
    vertex 4.500000 -0.101684 -0.228386
    vertex 3.375000 -0.146946 -0.202254
    vertex 3.375000 -0.101684 -0.228386
  endloop
endfacet
facet normal -0.000000 -0.309017 -0.951056
  outer loop
    vertex 4.500000 -0.101684 -0.228386
    vertex 3.375000 -0.101684 -0.228386
    vertex 4.500000 -0.051978 -0.244537
  endloop
endfacet
facet normal -0.000000 -0.309017 -0.951056
  outer loop
    vertex 4.500000 -0.051978 -0.244537
    vertex 3.375000 -0.101684 -0.228386
    vertex 3.375000 -0.051978 -0.244537
  endloop
endfacet
facet normal -0.000000 -0.104528 -0.994522
  outer loop
    vertex 4.500000 -0.051978 -0.244537
    vertex 3.375000 -0.051978 -0.244537
    vertex 4.500000 0.000000 -0.250000
  endloop
endfacet
facet normal -0.000000 -0.104528 -0.994522
  outer loop
    vertex 4.500000 0.000000 -0.250000
    vertex 3.375000 -0.051978 -0.244537
    vertex 3.375000 0.000000 -0.250000
  endloop
endfacet
facet normal 0.000000 0.104528 -0.994522
  outer loop
    vertex 4.500000 0.000000 -0.250000
    vertex 3.375000 0.000000 -0.250000
    vertex 4.500000 0.051978 -0.244537
  endloop
endfacet
facet normal 0.000000 0.104528 -0.994522
  outer loop
    vertex 4.500000 0.051978 -0.244537
    vertex 3.375000 0.000000 -0.250000
    vertex 3.375000 0.051978 -0.244537
  endloop
endfacet
facet normal 0.000000 0.309017 -0.951056
  outer loop
    vertex 4.500000 0.051978 -0.244537
    vertex 3.375000 0.051978 -0.244537
    vertex 4.500000 0.101684 -0.228386
  endloop
endfacet
facet normal 0.000000 0.309017 -0.951056
  outer loop
    vertex 4.500000 0.101684 -0.228386
    vertex 3.375000 0.051978 -0.244537
    vertex 3.375000 0.101684 -0.228386
  endloop
endfacet
facet normal 0.000000 0.500000 -0.866025
  outer loop
    vertex 4.500000 0.101684 -0.228386
    vertex 3.375000 0.101684 -0.228386
    vertex 4.500000 0.146946 -0.202254
  endloop
endfacet
facet normal 0.000000 0.500000 -0.866025
  outer loop
    vertex 4.500000 0.146946 -0.202254
    vertex 3.375000 0.101684 -0.228386
    vertex 3.375000 0.146946 -0.202254
  endloop
endfacet
facet normal 0.000000 0.669131 -0.743145
  outer loop
    vertex 4.500000 0.146946 -0.202254
    vertex 3.375000 0.146946 -0.202254
    vertex 4.500000 0.185786 -0.167283
  endloop
endfacet
facet normal -0.000000 0.104528 0.994522
  outer loop
    vertex 5.625000 0.000000 0.250000
    vertex 6.750000 0.000000 0.250000
    vertex 5.625000 0.051978 0.244537
  endloop
endfacet
facet normal -0.000000 0.104528 0.994522
  outer loop
    vertex 5.625000 0.051978 0.244537
    vertex 6.750000 0.000000 0.250000
    vertex 6.750000 0.051978 0.244537
  endloop
endfacet
facet normal -0.000000 0.309017 0.951056
  outer loop
    vertex 5.625000 0.051978 0.244537
    vertex 6.750000 0.051978 0.244537
    vertex 5.625000 0.101684 0.228386
  endloop
endfacet
facet normal -0.000000 0.309017 0.951056
  outer loop
    vertex 5.625000 0.101684 0.228386
    vertex 6.750000 0.051978 0.244537
    vertex 6.750000 0.101684 0.228386
  endloop
endfacet
facet normal -0.000000 0.500000 0.866025
  outer loop
    vertex 5.625000 0.101684 0.228386
    vertex 6.750000 0.101684 0.228386
    vertex 5.625000 0.146946 0.202254
  endloop
endfacet
facet normal 0.000000 -0.104528 0.994522
  outer loop
    vertex 5.625000 0.000000 0.250000
    vertex 4.500000 0.000000 0.250000
    vertex 5.625000 -0.051978 0.244537
  endloop
endfacet
facet normal 0.000000 -0.104528 0.994522
  outer loop
    vertex 5.625000 -0.051978 0.244537
    vertex 4.500000 0.000000 0.250000
    vertex 4.500000 -0.051978 0.244537
  endloop
endfacet
facet normal 0.000000 -0.309017 0.951056
  outer loop
    vertex 5.625000 -0.051978 0.244537
    vertex 4.500000 -0.051978 0.244537
    vertex 5.625000 -0.101684 0.228386
  endloop
endfacet
facet normal 0.000000 -0.309017 0.951056
  outer loop
    vertex 5.625000 -0.101684 0.228386
    vertex 4.500000 -0.051978 0.244537
    vertex 4.500000 -0.101684 0.228386
  endloop
endfacet
facet normal 0.000000 -0.500000 0.866025
  outer loop
    vertex 5.625000 -0.101684 0.228386
    vertex 4.500000 -0.101684 0.228386
    vertex 5.625000 -0.146946 0.202254
  endloop
endfacet
facet normal 0.000000 -0.500000 0.866025
  outer loop
    vertex 5.625000 -0.146946 0.202254
    vertex 4.500000 -0.101684 0.228386
    vertex 4.500000 -0.146946 0.202254
  endloop
endfacet
facet normal 0.000000 -0.669131 0.743145
  outer loop
    vertex 5.625000 -0.146946 0.202254
    vertex 4.500000 -0.146946 0.202254
    vertex 5.625000 -0.185786 0.167283
  endloop
endfacet
facet normal 0.000000 -0.669131 0.743145
  outer loop
    vertex 5.625000 -0.185786 0.167283
    vertex 4.500000 -0.146946 0.202254
    vertex 4.500000 -0.185786 0.167283
  endloop
endfacet
facet normal 0.000000 -0.809017 0.587785
  outer loop
    vertex 5.625000 -0.185786 0.167283
    vertex 4.500000 -0.185786 0.167283
    vertex 5.625000 -0.216506 0.125000
  endloop
endfacet
facet normal 0.000000 -0.809017 0.587785
  outer loop
    vertex 5.625000 -0.216506 0.125000
    vertex 4.500000 -0.185786 0.167283
    vertex 4.500000 -0.216506 0.125000
  endloop
endfacet
facet normal 0.000000 -0.913545 0.406737
  outer loop
    vertex 5.625000 -0.216506 0.125000
    vertex 4.500000 -0.216506 0.125000
    vertex 5.625000 -0.237764 0.077254
  endloop
endfacet
facet normal 0.000000 -0.913545 0.406737
  outer loop
    vertex 5.625000 -0.237764 0.077254
    vertex 4.500000 -0.216506 0.125000
    vertex 4.500000 -0.237764 0.077254
  endloop
endfacet
facet normal 0.000000 -0.978148 0.207912
  outer loop
    vertex 5.625000 -0.237764 0.077254
    vertex 4.500000 -0.237764 0.077254
    vertex 5.625000 -0.248630 0.026132
  endloop
endfacet
facet normal 0.000000 -0.978148 0.207912
  outer loop
    vertex 5.625000 -0.248630 0.026132
    vertex 4.500000 -0.237764 0.077254
    vertex 4.500000 -0.248630 0.026132
  endloop
endfacet
facet normal -0.000000 -1.000000 -0.000000
  outer loop
    vertex 5.625000 -0.248630 0.026132
    vertex 4.500000 -0.248630 0.026132
    vertex 5.625000 -0.248630 -0.026132
  endloop
endfacet
facet normal 0.000000 -1.000000 0.000000
  outer loop
    vertex 5.625000 -0.248630 -0.026132
    vertex 4.500000 -0.248630 0.026132
    vertex 4.500000 -0.248630 -0.026132
  endloop
endfacet
facet normal -0.000000 -0.978148 -0.207912
  outer loop
    vertex 5.625000 -0.248630 -0.026132
    vertex 4.500000 -0.248630 -0.026132
    vertex 5.625000 -0.237764 -0.077254
  endloop
endfacet
facet normal -0.000000 -0.978148 -0.207912
  outer loop
    vertex 5.625000 -0.237764 -0.077254
    vertex 4.500000 -0.248630 -0.026132
    vertex 4.500000 -0.237764 -0.077254
  endloop
endfacet
facet normal -0.000000 -0.913545 -0.406737
  outer loop
    vertex 5.625000 -0.237764 -0.077254
    vertex 4.500000 -0.237764 -0.077254
    vertex 5.625000 -0.216506 -0.125000
  endloop
endfacet
facet normal -0.000000 -0.913545 -0.406737
  outer loop
    vertex 5.625000 -0.216506 -0.125000
    vertex 4.500000 -0.237764 -0.077254
    vertex 4.500000 -0.216506 -0.125000
  endloop
endfacet
facet normal -0.000000 -0.809017 -0.587785
  outer loop
    vertex 5.625000 -0.216506 -0.125000
    vertex 4.500000 -0.216506 -0.125000
    vertex 5.625000 -0.185786 -0.167283
  endloop
endfacet
facet normal -0.000000 -0.809017 -0.587785
  outer loop
    vertex 5.625000 -0.185786 -0.167283
    vertex 4.500000 -0.216506 -0.125000
    vertex 4.500000 -0.185786 -0.167283
  endloop
endfacet
facet normal -0.000000 -0.669131 -0.743145
  outer loop
    vertex 5.625000 -0.185786 -0.167283
    vertex 4.500000 -0.185786 -0.167283
    vertex 5.625000 -0.146946 -0.202254
  endloop
endfacet
facet normal -0.000000 -0.669131 -0.743145
  outer loop
    vertex 5.625000 -0.146946 -0.202254
    vertex 4.500000 -0.185786 -0.167283
    vertex 4.500000 -0.146946 -0.202254
  endloop
endfacet
facet normal -0.000000 -0.500000 -0.866025
  outer loop
    vertex 5.625000 -0.146946 -0.202254
    vertex 4.500000 -0.146946 -0.202254
    vertex 5.625000 -0.101684 -0.228386
  endloop
endfacet
facet normal -0.000000 -0.500000 -0.866025
  outer loop
    vertex 5.625000 -0.101684 -0.228386
    vertex 4.500000 -0.146946 -0.202254
    vertex 4.500000 -0.101684 -0.228386
  endloop
endfacet
facet normal -0.000000 -0.309017 -0.951056
  outer loop
    vertex 5.625000 -0.101684 -0.228386
    vertex 4.500000 -0.101684 -0.228386
    vertex 5.625000 -0.051978 -0.244537
  endloop
endfacet
facet normal -0.000000 -0.309017 -0.951056
  outer loop
    vertex 5.625000 -0.051978 -0.244537
    vertex 4.500000 -0.101684 -0.228386
    vertex 4.500000 -0.051978 -0.244537
  endloop
endfacet
facet normal -0.000000 -0.104528 -0.994522
  outer loop
    vertex 5.625000 -0.051978 -0.244537
    vertex 4.500000 -0.051978 -0.244537
    vertex 5.625000 0.000000 -0.250000
  endloop
endfacet
facet normal -0.000000 -0.104528 -0.994522
  outer loop
    vertex 5.625000 0.000000 -0.250000
    vertex 4.500000 -0.051978 -0.244537
    vertex 4.500000 0.000000 -0.250000
  endloop
endfacet
facet normal 0.000000 0.104528 -0.994522
  outer loop
    vertex 5.625000 0.000000 -0.250000
    vertex 4.500000 0.000000 -0.250000
    vertex 5.625000 0.051978 -0.244537
  endloop
endfacet
facet normal 0.000000 0.104528 -0.994522
  outer loop
    vertex 5.625000 0.051978 -0.244537
    vertex 4.500000 0.000000 -0.250000
    vertex 4.500000 0.051978 -0.244537
  endloop
endfacet
facet normal 0.000000 0.309017 -0.951056
  outer loop
    vertex 5.625000 0.051978 -0.244537
    vertex 4.500000 0.051978 -0.244537
    vertex 5.625000 0.101684 -0.228386
  endloop
endfacet
facet normal 0.000000 0.309017 -0.951056
  outer loop
    vertex 5.625000 0.101684 -0.228386
    vertex 4.500000 0.051978 -0.244537
    vertex 4.500000 0.101684 -0.228386
  endloop
endfacet
facet normal 0.000000 0.500000 -0.866025
  outer loop
    vertex 5.625000 0.101684 -0.228386
    vertex 4.500000 0.101684 -0.228386
    vertex 5.625000 0.146946 -0.202254
  endloop
endfacet
facet normal 0.000000 0.500000 -0.866025
  outer loop
    vertex 5.625000 0.146946 -0.202254
    vertex 4.500000 0.101684 -0.228386
    vertex 4.500000 0.146946 -0.202254
  endloop
endfacet
facet normal 0.000000 0.669131 -0.743145
  outer loop
    vertex 5.625000 0.146946 -0.202254
    vertex 4.500000 0.146946 -0.202254
    vertex 5.625000 0.185786 -0.167283
  endloop
endfacet
facet normal 0.000000 0.669131 -0.743145
  outer loop
    vertex 5.625000 0.185786 -0.167283
    vertex 4.500000 0.146946 -0.202254
    vertex 4.500000 0.185786 -0.167283
  endloop
endfacet
facet normal 0.000000 0.809017 -0.587785
  outer loop
    vertex 5.625000 0.185786 -0.167283
    vertex 4.500000 0.185786 -0.167283
    vertex 5.625000 0.216506 -0.125000
  endloop
endfacet
facet normal 0.000000 0.104528 0.994522
  outer loop
    vertex 6.750000 0.000000 0.250000
    vertex 7.875000 -0.000000 0.250000
    vertex 6.750000 0.051978 0.244537
  endloop
endfacet
facet normal -0.000000 0.104528 0.994522
  outer loop
    vertex 6.750000 0.051978 0.244537
    vertex 7.875000 -0.000000 0.250000
    vertex 7.875000 0.051978 0.244537
  endloop
endfacet
facet normal -0.000000 0.309017 0.951056
  outer loop
    vertex 6.750000 0.051978 0.244537
    vertex 7.875000 0.051978 0.244537
    vertex 6.750000 0.101684 0.228386
  endloop
endfacet
facet normal 0.000000 -0.104528 0.994522
  outer loop
    vertex 6.750000 0.000000 0.250000
    vertex 5.625000 0.000000 0.250000
    vertex 6.750000 -0.051978 0.244537
  endloop
endfacet
facet normal 0.000000 -0.104528 0.994522
  outer loop
    vertex 6.750000 -0.051978 0.244537
    vertex 5.625000 0.000000 0.250000
    vertex 5.625000 -0.051978 0.244537
  endloop
endfacet
facet normal 0.000000 -0.309017 0.951056
  outer loop
    vertex 6.750000 -0.051978 0.244537
    vertex 5.625000 -0.051978 0.244537
    vertex 6.750000 -0.101684 0.228386
  endloop
endfacet
facet normal 0.000000 -0.309017 0.951056
  outer loop
    vertex 6.750000 -0.101684 0.228386
    vertex 5.625000 -0.051978 0.244537
    vertex 5.625000 -0.101684 0.228386
  endloop
endfacet
facet normal 0.000000 -0.500000 0.866025
  outer loop
    vertex 6.750000 -0.101684 0.228386
    vertex 5.625000 -0.101684 0.228386
    vertex 6.750000 -0.146946 0.202254
  endloop
endfacet
facet normal 0.000000 -0.500000 0.866025
  outer loop
    vertex 6.750000 -0.146946 0.202254
    vertex 5.625000 -0.101684 0.228386
    vertex 5.625000 -0.146946 0.202254
  endloop
endfacet
facet normal 0.000000 -0.669131 0.743145
  outer loop
    vertex 6.750000 -0.146946 0.202254
    vertex 5.625000 -0.146946 0.202254
    vertex 6.750000 -0.185786 0.167283
  endloop
endfacet
facet normal 0.000000 -0.669131 0.743145
  outer loop
    vertex 6.750000 -0.185786 0.167283
    vertex 5.625000 -0.146946 0.202254
    vertex 5.625000 -0.185786 0.167283
  endloop
endfacet
facet normal 0.000000 -0.809017 0.587785
  outer loop
    vertex 6.750000 -0.185786 0.167283
    vertex 5.625000 -0.185786 0.167283
    vertex 6.750000 -0.216506 0.125000
  endloop
endfacet
facet normal 0.000000 -0.809017 0.587785
  outer loop
    vertex 6.750000 -0.216506 0.125000
    vertex 5.625000 -0.185786 0.167283
    vertex 5.625000 -0.216506 0.125000
  endloop
endfacet
facet normal 0.000000 -0.913545 0.406737
  outer loop
    vertex 6.750000 -0.216506 0.125000
    vertex 5.625000 -0.216506 0.125000
    vertex 6.750000 -0.237764 0.077254
  endloop
endfacet
facet normal 0.000000 -0.913545 0.406737
  outer loop
    vertex 6.750000 -0.237764 0.077254
    vertex 5.625000 -0.216506 0.125000
    vertex 5.625000 -0.237764 0.077254
  endloop
endfacet
facet normal 0.000000 -0.978148 0.207912
  outer loop
    vertex 6.750000 -0.237764 0.077254
    vertex 5.625000 -0.237764 0.077254
    vertex 6.750000 -0.248630 0.026132
  endloop
endfacet
facet normal 0.000000 -0.978148 0.207912
  outer loop
    vertex 6.750000 -0.248630 0.026132
    vertex 5.625000 -0.237764 0.077254
    vertex 5.625000 -0.248630 0.026132
  endloop
endfacet
facet normal -0.000000 -1.000000 -0.000000
  outer loop
    vertex 6.750000 -0.248630 0.026132
    vertex 5.625000 -0.248630 0.026132
    vertex 6.750000 -0.248630 -0.026132
  endloop
endfacet
facet normal 0.000000 -1.000000 0.000000
  outer loop
    vertex 6.750000 -0.248630 -0.026132
    vertex 5.625000 -0.248630 0.026132
    vertex 5.625000 -0.248630 -0.026132
  endloop
endfacet
facet normal -0.000000 -0.978148 -0.207912
  outer loop
    vertex 6.750000 -0.248630 -0.026132
    vertex 5.625000 -0.248630 -0.026132
    vertex 6.750000 -0.237764 -0.077254
  endloop
endfacet
facet normal -0.000000 -0.978148 -0.207912
  outer loop
    vertex 6.750000 -0.237764 -0.077254
    vertex 5.625000 -0.248630 -0.026132
    vertex 5.625000 -0.237764 -0.077254
  endloop
endfacet
facet normal -0.000000 -0.913545 -0.406737
  outer loop
    vertex 6.750000 -0.237764 -0.077254
    vertex 5.625000 -0.237764 -0.077254
    vertex 6.750000 -0.216506 -0.125000
  endloop
endfacet
facet normal -0.000000 -0.913545 -0.406737
  outer loop
    vertex 6.750000 -0.216506 -0.125000
    vertex 5.625000 -0.237764 -0.077254
    vertex 5.625000 -0.216506 -0.125000
  endloop
endfacet
facet normal -0.000000 -0.809017 -0.587785
  outer loop
    vertex 6.750000 -0.216506 -0.125000
    vertex 5.625000 -0.216506 -0.125000
    vertex 6.750000 -0.185786 -0.167283
  endloop
endfacet
facet normal -0.000000 -0.809017 -0.587785
  outer loop
    vertex 6.750000 -0.185786 -0.167283
    vertex 5.625000 -0.216506 -0.125000
    vertex 5.625000 -0.185786 -0.167283
  endloop
endfacet
facet normal -0.000000 -0.669131 -0.743145
  outer loop
    vertex 6.750000 -0.185786 -0.167283
    vertex 5.625000 -0.185786 -0.167283
    vertex 6.750000 -0.146946 -0.202254
  endloop
endfacet
facet normal -0.000000 -0.669131 -0.743145
  outer loop
    vertex 6.750000 -0.146946 -0.202254
    vertex 5.625000 -0.185786 -0.167283
    vertex 5.625000 -0.146946 -0.202254
  endloop
endfacet
facet normal -0.000000 -0.500000 -0.866025
  outer loop
    vertex 6.750000 -0.146946 -0.202254
    vertex 5.625000 -0.146946 -0.202254
    vertex 6.750000 -0.101684 -0.228386
  endloop
endfacet
facet normal -0.000000 -0.500000 -0.866025
  outer loop
    vertex 6.750000 -0.101684 -0.228386
    vertex 5.625000 -0.146946 -0.202254
    vertex 5.625000 -0.101684 -0.228386
  endloop
endfacet
facet normal -0.000000 -0.309017 -0.951056
  outer loop
    vertex 6.750000 -0.101684 -0.228386
    vertex 5.625000 -0.101684 -0.228386
    vertex 6.750000 -0.051978 -0.244537
  endloop
endfacet
facet normal -0.000000 -0.309017 -0.951056
  outer loop
    vertex 6.750000 -0.051978 -0.244537
    vertex 5.625000 -0.101684 -0.228386
    vertex 5.625000 -0.051978 -0.244537
  endloop
endfacet
facet normal -0.000000 -0.104528 -0.994522
  outer loop
    vertex 6.750000 -0.051978 -0.244537
    vertex 5.625000 -0.051978 -0.244537
    vertex 6.750000 0.000000 -0.250000
  endloop
endfacet
facet normal -0.000000 -0.104528 -0.994522
  outer loop
    vertex 6.750000 0.000000 -0.250000
    vertex 5.625000 -0.051978 -0.244537
    vertex 5.625000 0.000000 -0.250000
  endloop
endfacet
facet normal 0.000000 0.104528 -0.994522
  outer loop
    vertex 6.750000 0.000000 -0.250000
    vertex 5.625000 0.000000 -0.250000
    vertex 6.750000 0.051978 -0.244537
  endloop
endfacet
facet normal 0.000000 0.104528 -0.994522
  outer loop
    vertex 6.750000 0.051978 -0.244537
    vertex 5.625000 0.000000 -0.250000
    vertex 5.625000 0.051978 -0.244537
  endloop
endfacet
facet normal 0.000000 0.309017 -0.951056
  outer loop
    vertex 6.750000 0.051978 -0.244537
    vertex 5.625000 0.051978 -0.244537
    vertex 6.750000 0.101684 -0.228386
  endloop
endfacet
facet normal 0.000000 0.309017 -0.951056
  outer loop
    vertex 6.750000 0.101684 -0.228386
    vertex 5.625000 0.051978 -0.244537
    vertex 5.625000 0.101684 -0.228386
  endloop
endfacet
facet normal 0.000000 0.500000 -0.866025
  outer loop
    vertex 6.750000 0.101684 -0.228386
    vertex 5.625000 0.101684 -0.228386
    vertex 6.750000 0.146946 -0.202254
  endloop
endfacet
facet normal 0.000000 0.500000 -0.866025
  outer loop
    vertex 6.750000 0.146946 -0.202254
    vertex 5.625000 0.101684 -0.228386
    vertex 5.625000 0.146946 -0.202254
  endloop
endfacet
facet normal 0.000000 0.669131 -0.743145
  outer loop
    vertex 6.750000 0.146946 -0.202254
    vertex 5.625000 0.146946 -0.202254
    vertex 6.750000 0.185786 -0.167283
  endloop
endfacet
facet normal 0.000000 0.669131 -0.743145
  outer loop
    vertex 6.750000 0.185786 -0.167283
    vertex 5.625000 0.146946 -0.202254
    vertex 5.625000 0.185786 -0.167283
  endloop
endfacet
facet normal 0.000000 0.809017 -0.587785
  outer loop
    vertex 6.750000 0.185786 -0.167283
    vertex 5.625000 0.185786 -0.167283
    vertex 6.750000 0.216506 -0.125000
  endloop
endfacet
facet normal 0.000000 0.809017 -0.587785
  outer loop
    vertex 6.750000 0.216506 -0.125000
    vertex 5.625000 0.185786 -0.167283
    vertex 5.625000 0.216506 -0.125000
  endloop
endfacet
facet normal 0.000000 0.913545 -0.406737
  outer loop
    vertex 6.750000 0.216506 -0.125000
    vertex 5.625000 0.216506 -0.125000
    vertex 6.750000 0.237764 -0.077254
  endloop
endfacet
facet normal -0.000000 -0.104528 0.994522
  outer loop
    vertex 7.875000 -0.000000 0.250000
    vertex 6.750000 0.000000 0.250000
    vertex 7.875000 -0.051978 0.244537
  endloop
endfacet
facet normal 0.000000 -0.104528 0.994522
  outer loop
    vertex 7.875000 -0.051978 0.244537
    vertex 6.750000 0.000000 0.250000
    vertex 6.750000 -0.051978 0.244537
  endloop
endfacet
facet normal 0.000000 -0.309017 0.951056
  outer loop
    vertex 7.875000 -0.051978 0.244537
    vertex 6.750000 -0.051978 0.244537
    vertex 7.875000 -0.101684 0.228386
  endloop
endfacet
facet normal 0.000000 -0.309017 0.951056
  outer loop
    vertex 7.875000 -0.101684 0.228386
    vertex 6.750000 -0.051978 0.244537
    vertex 6.750000 -0.101684 0.228386
  endloop
endfacet
facet normal 0.000000 -0.500000 0.866025
  outer loop
    vertex 7.875000 -0.101684 0.228386
    vertex 6.750000 -0.101684 0.228386
    vertex 7.875000 -0.146946 0.202254
  endloop
endfacet
facet normal 0.000000 -0.500000 0.866025
  outer loop
    vertex 7.875000 -0.146946 0.202254
    vertex 6.750000 -0.101684 0.228386
    vertex 6.750000 -0.146946 0.202254
  endloop
endfacet
facet normal 0.000000 -0.669131 0.743145
  outer loop
    vertex 7.875000 -0.146946 0.202254
    vertex 6.750000 -0.146946 0.202254
    vertex 7.875000 -0.185786 0.167283
  endloop
endfacet
facet normal 0.000000 -0.669131 0.743145
  outer loop
    vertex 7.875000 -0.185786 0.167283
    vertex 6.750000 -0.146946 0.202254
    vertex 6.750000 -0.185786 0.167283
  endloop
endfacet
facet normal 0.000000 -0.809017 0.587785
  outer loop
    vertex 7.875000 -0.185786 0.167283
    vertex 6.750000 -0.185786 0.167283
    vertex 7.875000 -0.216506 0.125000
  endloop
endfacet
facet normal 0.000000 -0.809017 0.587785
  outer loop
    vertex 7.875000 -0.216506 0.125000
    vertex 6.750000 -0.185786 0.167283
    vertex 6.750000 -0.216506 0.125000
  endloop
endfacet
facet normal 0.000000 -0.913545 0.406737
  outer loop
    vertex 7.875000 -0.216506 0.125000
    vertex 6.750000 -0.216506 0.125000
    vertex 7.875000 -0.237764 0.077254
  endloop
endfacet
facet normal 0.000000 -0.913545 0.406737
  outer loop
    vertex 7.875000 -0.237764 0.077254
    vertex 6.750000 -0.216506 0.125000
    vertex 6.750000 -0.237764 0.077254
  endloop
endfacet
facet normal 0.000000 -0.978148 0.207912
  outer loop
    vertex 7.875000 -0.237764 0.077254
    vertex 6.750000 -0.237764 0.077254
    vertex 7.875000 -0.248630 0.026132
  endloop
endfacet
facet normal 0.000000 -0.978148 0.207912
  outer loop
    vertex 7.875000 -0.248630 0.026132
    vertex 6.750000 -0.237764 0.077254
    vertex 6.750000 -0.248630 0.026132
  endloop
endfacet
facet normal -0.000000 -1.000000 -0.000000
  outer loop
    vertex 7.875000 -0.248630 0.026132
    vertex 6.750000 -0.248630 0.026132
    vertex 7.875000 -0.248630 -0.026132
  endloop
endfacet
facet normal 0.000000 -1.000000 0.000000
  outer loop
    vertex 7.875000 -0.248630 -0.026132
    vertex 6.750000 -0.248630 0.026132
    vertex 6.750000 -0.248630 -0.026132
  endloop
endfacet
facet normal -0.000000 -0.978148 -0.207912
  outer loop
    vertex 7.875000 -0.248630 -0.026132
    vertex 6.750000 -0.248630 -0.026132
    vertex 7.875000 -0.237764 -0.077254
  endloop
endfacet
facet normal -0.000000 -0.978148 -0.207912
  outer loop
    vertex 7.875000 -0.237764 -0.077254
    vertex 6.750000 -0.248630 -0.026132
    vertex 6.750000 -0.237764 -0.077254
  endloop
endfacet
facet normal -0.000000 -0.913545 -0.406737
  outer loop
    vertex 7.875000 -0.237764 -0.077254
    vertex 6.750000 -0.237764 -0.077254
    vertex 7.875000 -0.216506 -0.125000
  endloop
endfacet
facet normal -0.000000 -0.913545 -0.406737
  outer loop
    vertex 7.875000 -0.216506 -0.125000
    vertex 6.750000 -0.237764 -0.077254
    vertex 6.750000 -0.216506 -0.125000
  endloop
endfacet
facet normal -0.000000 -0.809017 -0.587785
  outer loop
    vertex 7.875000 -0.216506 -0.125000
    vertex 6.750000 -0.216506 -0.125000
    vertex 7.875000 -0.185786 -0.167283
  endloop
endfacet
facet normal -0.000000 -0.809017 -0.587785
  outer loop
    vertex 7.875000 -0.185786 -0.167283
    vertex 6.750000 -0.216506 -0.125000
    vertex 6.750000 -0.185786 -0.167283
  endloop
endfacet
facet normal -0.000000 -0.669131 -0.743145
  outer loop
    vertex 7.875000 -0.185786 -0.167283
    vertex 6.750000 -0.185786 -0.167283
    vertex 7.875000 -0.146946 -0.202254
  endloop
endfacet
facet normal -0.000000 -0.669131 -0.743145
  outer loop
    vertex 7.875000 -0.146946 -0.202254
    vertex 6.750000 -0.185786 -0.167283
    vertex 6.750000 -0.146946 -0.202254
  endloop
endfacet
facet normal -0.000000 -0.500000 -0.866025
  outer loop
    vertex 7.875000 -0.146946 -0.202254
    vertex 6.750000 -0.146946 -0.202254
    vertex 7.875000 -0.101684 -0.228386
  endloop
endfacet
facet normal -0.000000 -0.500000 -0.866025
  outer loop
    vertex 7.875000 -0.101684 -0.228386
    vertex 6.750000 -0.146946 -0.202254
    vertex 6.750000 -0.101684 -0.228386
  endloop
endfacet
facet normal -0.000000 -0.309017 -0.951056
  outer loop
    vertex 7.875000 -0.101684 -0.228386
    vertex 6.750000 -0.101684 -0.228386
    vertex 7.875000 -0.051978 -0.244537
  endloop
endfacet
facet normal -0.000000 -0.309017 -0.951056
  outer loop
    vertex 7.875000 -0.051978 -0.244537
    vertex 6.750000 -0.101684 -0.228386
    vertex 6.750000 -0.051978 -0.244537
  endloop
endfacet
facet normal -0.000000 -0.104528 -0.994522
  outer loop
    vertex 7.875000 -0.051978 -0.244537
    vertex 6.750000 -0.051978 -0.244537
    vertex 7.875000 0.000000 -0.250000
  endloop
endfacet
facet normal -0.000000 -0.104528 -0.994522
  outer loop
    vertex 7.875000 0.000000 -0.250000
    vertex 6.750000 -0.051978 -0.244537
    vertex 6.750000 0.000000 -0.250000
  endloop
endfacet
facet normal 0.000000 0.104528 -0.994522
  outer loop
    vertex 7.875000 0.000000 -0.250000
    vertex 6.750000 0.000000 -0.250000
    vertex 7.875000 0.051978 -0.244537
  endloop
endfacet
facet normal 0.000000 0.104528 -0.994522
  outer loop
    vertex 7.875000 0.051978 -0.244537
    vertex 6.750000 0.000000 -0.250000
    vertex 6.750000 0.051978 -0.244537
  endloop
endfacet
facet normal 0.000000 0.309017 -0.951056
  outer loop
    vertex 7.875000 0.051978 -0.244537
    vertex 6.750000 0.051978 -0.244537
    vertex 7.875000 0.101684 -0.228386
  endloop
endfacet
facet normal 0.000000 0.309017 -0.951056
  outer loop
    vertex 7.875000 0.101684 -0.228386
    vertex 6.750000 0.051978 -0.244537
    vertex 6.750000 0.101684 -0.228386
  endloop
endfacet
facet normal 0.000000 0.500000 -0.866025
  outer loop
    vertex 7.875000 0.101684 -0.228386
    vertex 6.750000 0.101684 -0.228386
    vertex 7.875000 0.146946 -0.202254
  endloop
endfacet
facet normal 0.000000 0.500000 -0.866025
  outer loop
    vertex 7.875000 0.146946 -0.202254
    vertex 6.750000 0.101684 -0.228386
    vertex 6.750000 0.146946 -0.202254
  endloop
endfacet
facet normal 0.000000 0.669131 -0.743145
  outer loop
    vertex 7.875000 0.146946 -0.202254
    vertex 6.750000 0.146946 -0.202254
    vertex 7.875000 0.185786 -0.167283
  endloop
endfacet
facet normal 0.000000 0.669131 -0.743145
  outer loop
    vertex 7.875000 0.185786 -0.167283
    vertex 6.750000 0.146946 -0.202254
    vertex 6.750000 0.185786 -0.167283
  endloop
endfacet
facet normal 0.000000 0.809017 -0.587785
  outer loop
    vertex 7.875000 0.185786 -0.167283
    vertex 6.750000 0.185786 -0.167283
    vertex 7.875000 0.216506 -0.125000
  endloop
endfacet
facet normal 0.000000 0.809017 -0.587785
  outer loop
    vertex 7.875000 0.216506 -0.125000
    vertex 6.750000 0.185786 -0.167283
    vertex 6.750000 0.216506 -0.125000
  endloop
endfacet
facet normal 0.000000 0.913545 -0.406737
  outer loop
    vertex 7.875000 0.216506 -0.125000
    vertex 6.750000 0.216506 -0.125000
    vertex 7.875000 0.237764 -0.077254
  endloop
endfacet
facet normal 0.000000 0.913545 -0.406737
  outer loop
    vertex 7.875000 0.237764 -0.077254
    vertex 6.750000 0.216506 -0.125000
    vertex 6.750000 0.237764 -0.077254
  endloop
endfacet
facet normal 0.000000 0.000000 -1.000000
  outer loop
    vertex 0.000000 0.242061 0.062500
    vertex 9.000000 0.242061 0.062500
    vertex 0.000000 0.187500 0.062500
  endloop
endfacet
facet normal 0.000000 0.000000 -1.000000
  outer loop
    vertex 0.000000 0.187500 0.062500
    vertex 9.000000 0.242061 0.062500
    vertex 9.000000 0.187500 0.062500
  endloop
endfacet
facet normal 1.000000 0.000000 0.000000
  outer loop
    vertex 9.000000 0.242061 0.062500
    vertex 9.000000 0.224121 0.110770
    vertex 9.000000 0.187500 0.062500
  endloop
endfacet
facet normal 1.000000 0.000000 0.000000
  outer loop
    vertex 9.000000 0.187500 0.062500
    vertex 9.000000 0.224121 0.110770
    vertex 9.000000 0.196670 0.154340
  endloop
endfacet
facet normal 1.000000 0.000000 -0.000000
  outer loop
    vertex 9.000000 0.187500 0.062500
    vertex 9.000000 0.196670 0.154340
    vertex 9.000000 0.160875 0.191361
  endloop
endfacet
facet normal 1.000000 0.000000 0.000000
  outer loop
    vertex 9.000000 0.160875 0.191361
    vertex 9.000000 0.118254 0.220263
    vertex 9.000000 0.187500 0.062500
  endloop
endfacet
facet normal 1.000000 0.000000 0.000000
  outer loop
    vertex 9.000000 0.187500 0.062500
    vertex 9.000000 0.118254 0.220263
    vertex 9.000000 0.070616 0.239819
  endloop
endfacet
facet normal 1.000000 0.000000 0.000000
  outer loop
    vertex 9.000000 0.187500 0.062500
    vertex 9.000000 0.070616 0.239819
    vertex 9.000000 0.019981 0.249200
  endloop
endfacet
facet normal 1.000000 0.000000 0.000000
  outer loop
    vertex 9.000000 0.019981 0.249200
    vertex 9.000000 -0.031501 0.248007
    vertex 9.000000 0.187500 0.062500
  endloop
endfacet
facet normal 1.000000 0.000000 0.000000
  outer loop
    vertex 9.000000 0.187500 0.062500
    vertex 9.000000 -0.031501 0.248007
    vertex 9.000000 -0.081647 0.236292
  endloop
endfacet
facet normal 1.000000 0.000000 0.000000
  outer loop
    vertex 9.000000 0.187500 0.062500
    vertex 9.000000 -0.081647 0.236292
    vertex 9.000000 -0.128329 0.214550
  endloop
endfacet
facet normal 1.000000 -0.000000 0.000000
  outer loop
    vertex 9.000000 -0.169565 0.183705
    vertex 9.000000 -0.169565 -0.183705
    vertex 9.000000 -0.128329 0.214550
  endloop
endfacet
facet normal 1.000000 0.000000 0.000000
  outer loop
    vertex 9.000000 -0.128329 0.214550
    vertex 9.000000 -0.169565 -0.183705
    vertex 9.000000 -0.128329 -0.214550
  endloop
endfacet
facet normal 1.000000 0.000000 0.000000
  outer loop
    vertex 9.000000 -0.128329 0.214550
    vertex 9.000000 -0.128329 -0.214550
    vertex 9.000000 0.187500 0.062500
  endloop
endfacet
facet normal 1.000000 0.000000 0.000000
  outer loop
    vertex 9.000000 0.187500 0.062500
    vertex 9.000000 -0.128329 -0.214550
    vertex 9.000000 -0.081647 -0.236292
  endloop
endfacet
facet normal 1.000000 0.000000 0.000000
  outer loop
    vertex 9.000000 0.187500 0.062500
    vertex 9.000000 -0.081647 -0.236292
    vertex 9.000000 0.187500 -0.062500
  endloop
endfacet
facet normal 1.000000 0.000000 0.000000
  outer loop
    vertex 9.000000 0.187500 -0.062500
    vertex 9.000000 -0.081647 -0.236292
    vertex 9.000000 -0.031501 -0.248007
  endloop
endfacet
facet normal 1.000000 0.000000 0.000000
  outer loop
    vertex 9.000000 0.187500 -0.062500
    vertex 9.000000 -0.031501 -0.248007
    vertex 9.000000 0.019981 -0.249200
  endloop
endfacet
facet normal 1.000000 0.000000 -0.000000
  outer loop
    vertex 9.000000 -0.169565 -0.183705
    vertex 9.000000 -0.169565 0.183705
    vertex 9.000000 -0.203607 -0.145066
  endloop
endfacet
facet normal 1.000000 0.000000 0.000000
  outer loop
    vertex 9.000000 -0.203607 -0.145066
    vertex 9.000000 -0.169565 0.183705
    vertex 9.000000 -0.203607 0.145066
  endloop
endfacet
facet normal 1.000000 0.000000 -0.000000
  outer loop
    vertex 9.000000 -0.203607 -0.145066
    vertex 9.000000 -0.203607 0.145066
    vertex 9.000000 -0.229010 -0.100271
  endloop
endfacet
facet normal 1.000000 0.000000 0.000000
  outer loop
    vertex 9.000000 -0.229010 -0.100271
    vertex 9.000000 -0.203607 0.145066
    vertex 9.000000 -0.229010 0.100271
  endloop
endfacet
facet normal 1.000000 0.000000 -0.000000
  outer loop
    vertex 9.000000 -0.229010 -0.100271
    vertex 9.000000 -0.229010 0.100271
    vertex 9.000000 -0.244696 -0.051222
  endloop
endfacet
facet normal 1.000000 0.000000 0.000000
  outer loop
    vertex 9.000000 -0.244696 -0.051222
    vertex 9.000000 -0.229010 0.100271
    vertex 9.000000 -0.244696 0.051222
  endloop
endfacet
facet normal 1.000000 0.000000 -0.000000
  outer loop
    vertex 9.000000 -0.244696 -0.051222
    vertex 9.000000 -0.244696 0.051222
    vertex 9.000000 -0.250000 0.000000
  endloop
endfacet
facet normal 1.000000 0.000000 0.000000
  outer loop
    vertex 9.000000 0.019981 -0.249200
    vertex 9.000000 0.070616 -0.239819
    vertex 9.000000 0.187500 -0.062500
  endloop
endfacet
facet normal 1.000000 0.000000 0.000000
  outer loop
    vertex 9.000000 0.187500 -0.062500
    vertex 9.000000 0.070616 -0.239819
    vertex 9.000000 0.118254 -0.220263
  endloop
endfacet
facet normal 1.000000 0.000000 0.000000
  outer loop
    vertex 9.000000 0.187500 -0.062500
    vertex 9.000000 0.118254 -0.220263
    vertex 9.000000 0.160875 -0.191361
  endloop
endfacet
facet normal 1.000000 0.000000 0.000000
  outer loop
    vertex 9.000000 0.160875 -0.191361
    vertex 9.000000 0.196670 -0.154340
    vertex 9.000000 0.187500 -0.062500
  endloop
endfacet
facet normal 1.000000 0.000000 0.000000
  outer loop
    vertex 9.000000 0.187500 -0.062500
    vertex 9.000000 0.196670 -0.154340
    vertex 9.000000 0.224121 -0.110770
  endloop
endfacet
facet normal 1.000000 -0.000000 0.000000
  outer loop
    vertex 9.000000 0.187500 -0.062500
    vertex 9.000000 0.224121 -0.110770
    vertex 9.000000 0.242061 -0.062500
  endloop
endfacet
facet normal -1.000000 0.000000 0.000000
  outer loop
    vertex 0.000000 0.242061 0.062500
    vertex 0.000000 0.187500 0.062500
    vertex 0.000000 0.224121 0.110770
  endloop
endfacet
facet normal -1.000000 -0.000000 0.000000
  outer loop
    vertex 0.000000 0.224121 0.110770
    vertex 0.000000 0.187500 0.062500
    vertex 0.000000 0.196670 0.154340
  endloop
endfacet
facet normal -1.000000 -0.000000 0.000000
  outer loop
    vertex 0.000000 0.196670 0.154340
    vertex 0.000000 0.187500 0.062500
    vertex 0.000000 0.160875 0.191361
  endloop
endfacet
facet normal -1.000000 -0.000000 -0.000000
  outer loop
    vertex 0.000000 0.160875 0.191361
    vertex 0.000000 0.187500 0.062500
    vertex 0.000000 0.118254 0.220263
  endloop
endfacet
facet normal -1.000000 -0.000000 -0.000000
  outer loop
    vertex 0.000000 0.118254 0.220263
    vertex 0.000000 0.187500 0.062500
    vertex 0.000000 0.070616 0.239819
  endloop
endfacet
facet normal -1.000000 -0.000000 -0.000000
  outer loop
    vertex 0.000000 0.070616 0.239819
    vertex 0.000000 0.187500 0.062500
    vertex 0.000000 0.019981 0.249200
  endloop
endfacet
facet normal -1.000000 0.000000 -0.000000
  outer loop
    vertex 0.000000 0.019981 0.249200
    vertex 0.000000 0.187500 0.062500
    vertex 0.000000 -0.031501 0.248007
  endloop
endfacet
facet normal -1.000000 0.000000 -0.000000
  outer loop
    vertex 0.000000 -0.031501 0.248007
    vertex 0.000000 0.187500 0.062500
    vertex 0.000000 -0.081647 0.236292
  endloop
endfacet
facet normal -1.000000 0.000000 0.000000
  outer loop
    vertex 0.000000 -0.081647 0.236292
    vertex 0.000000 0.187500 0.062500
    vertex 0.000000 0.187500 -0.062500
  endloop
endfacet
facet normal -1.000000 0.000000 -0.000000
  outer loop
    vertex 0.000000 -0.081647 0.236292
    vertex 0.000000 0.187500 -0.062500
    vertex 0.000000 -0.128329 0.214550
  endloop
endfacet
facet normal -1.000000 0.000000 0.000000
  outer loop
    vertex 0.000000 -0.128329 0.214550
    vertex 0.000000 0.187500 -0.062500
    vertex 0.000000 -0.128329 -0.214550
  endloop
endfacet
facet normal -1.000000 0.000000 -0.000000
  outer loop
    vertex 0.000000 -0.128329 0.214550
    vertex 0.000000 -0.128329 -0.214550
    vertex 0.000000 -0.169565 0.183705
  endloop
endfacet
facet normal -1.000000 0.000000 0.000000
  outer loop
    vertex 0.000000 -0.169565 0.183705
    vertex 0.000000 -0.128329 -0.214550
    vertex 0.000000 -0.169565 -0.183705
  endloop
endfacet
facet normal -1.000000 0.000000 -0.000000
  outer loop
    vertex 0.000000 -0.169565 0.183705
    vertex 0.000000 -0.169565 -0.183705
    vertex 0.000000 -0.203607 0.145066
  endloop
endfacet
facet normal -1.000000 0.000000 0.000000
  outer loop
    vertex 0.000000 -0.203607 0.145066
    vertex 0.000000 -0.169565 -0.183705
    vertex 0.000000 -0.203607 -0.145066
  endloop
endfacet
facet normal -1.000000 0.000000 -0.000000
  outer loop
    vertex 0.000000 -0.203607 0.145066
    vertex 0.000000 -0.203607 -0.145066
    vertex 0.000000 -0.229010 0.100271
  endloop
endfacet
facet normal -1.000000 0.000000 0.000000
  outer loop
    vertex 0.000000 -0.229010 0.100271
    vertex 0.000000 -0.203607 -0.145066
    vertex 0.000000 -0.229010 -0.100271
  endloop
endfacet
facet normal -1.000000 0.000000 -0.000000
  outer loop
    vertex 0.000000 -0.229010 0.100271
    vertex 0.000000 -0.229010 -0.100271
    vertex 0.000000 -0.244696 0.051222
  endloop
endfacet
facet normal -1.000000 0.000000 0.000000
  outer loop
    vertex 0.000000 -0.244696 0.051222
    vertex 0.000000 -0.229010 -0.100271
    vertex 0.000000 -0.244696 -0.051222
  endloop
endfacet
facet normal -1.000000 0.000000 -0.000000
  outer loop
    vertex 0.000000 -0.244696 0.051222
    vertex 0.000000 -0.244696 -0.051222
    vertex 0.000000 -0.250000 0.000000
  endloop
endfacet
facet normal -1.000000 -0.000000 0.000000
  outer loop
    vertex 0.000000 0.242061 -0.062500
    vertex 0.000000 0.224121 -0.110770
    vertex 0.000000 0.187500 -0.062500
  endloop
endfacet
facet normal -1.000000 0.000000 0.000000
  outer loop
    vertex 0.000000 0.187500 -0.062500
    vertex 0.000000 0.224121 -0.110770
    vertex 0.000000 0.196670 -0.154340
  endloop
endfacet
facet normal -1.000000 0.000000 -0.000000
  outer loop
    vertex 0.000000 0.187500 -0.062500
    vertex 0.000000 0.196670 -0.154340
    vertex 0.000000 0.160875 -0.191361
  endloop
endfacet
facet normal -1.000000 -0.000000 0.000000
  outer loop
    vertex 0.000000 0.160875 -0.191361
    vertex 0.000000 0.118254 -0.220263
    vertex 0.000000 0.187500 -0.062500
  endloop
endfacet
facet normal -1.000000 0.000000 0.000000
  outer loop
    vertex 0.000000 0.187500 -0.062500
    vertex 0.000000 0.118254 -0.220263
    vertex 0.000000 0.070616 -0.239819
  endloop
endfacet
facet normal -1.000000 0.000000 0.000000
  outer loop
    vertex 0.000000 0.187500 -0.062500
    vertex 0.000000 0.070616 -0.239819
    vertex 0.000000 0.019981 -0.249200
  endloop
endfacet
facet normal -1.000000 0.000000 0.000000
  outer loop
    vertex 0.000000 0.019981 -0.249200
    vertex 0.000000 -0.031501 -0.248007
    vertex 0.000000 0.187500 -0.062500
  endloop
endfacet
facet normal -1.000000 0.000000 0.000000
  outer loop
    vertex 0.000000 0.187500 -0.062500
    vertex 0.000000 -0.031501 -0.248007
    vertex 0.000000 -0.081647 -0.236292
  endloop
endfacet
facet normal -1.000000 0.000000 0.000000
  outer loop
    vertex 0.000000 0.187500 -0.062500
    vertex 0.000000 -0.081647 -0.236292
    vertex 0.000000 -0.128329 -0.214550
  endloop
endfacet
endsolid e5d68a0a-a54b-4500-ad14-c36d99f52065-ascii.stl
