solid 143b8618-d9c4-4474-b4f0-10bba1bb3714-ascii.stl
facet normal -0.000000 0.843750 0.000000
  outer loop
    vertex 0.000000 0.109375 0.046875
    vertex 9.000000 0.109375 0.046875
    vertex 0.000000 0.109375 -0.046875
  endloop
endfacet
facet normal 0.000000 0.843750 0.000000
  outer loop
    vertex 0.000000 0.109375 -0.046875
    vertex 9.000000 0.109375 0.046875
    vertex 9.000000 0.109375 -0.046875
  endloop
endfacet
facet normal 0.000000 0.000000 0.357102
  outer loop
    vertex 0.000000 0.109375 -0.046875
    vertex 9.000000 0.109375 -0.046875
    vertex 0.000000 0.149053 -0.046875
  endloop
endfacet
facet normal -0.000000 0.000000 0.357102
  outer loop
    vertex 0.000000 0.149053 -0.046875
    vertex 9.000000 0.109375 -0.046875
    vertex 9.000000 0.149053 -0.046875
  endloop
endfacet
facet normal -0.000027 0.029836 0.013815
  outer loop
    vertex 0.000000 0.132168 0.083341
    vertex 0.818182 0.135316 0.078125
    vertex 0.000000 0.149053 0.046875
  endloop
endfacet
facet normal 0.000000 0.025568 0.011239
  outer loop
    vertex 0.000000 0.149053 0.046875
    vertex 0.818182 0.135316 0.078125
    vertex 1.636364 0.135316 0.078125
  endloop
endfacet
facet normal 0.000000 0.025568 0.011239
  outer loop
    vertex 0.000000 0.149053 0.046875
    vertex 1.636364 0.135316 0.078125
    vertex 2.454545 0.135316 0.078125
  endloop
endfacet
facet normal 0.000000 0.026477 0.020316
  outer loop
    vertex 2.454545 0.135316 0.078125
    vertex 1.636364 0.135316 0.078125
    vertex 2.454545 0.110485 0.110485
  endloop
endfacet
facet normal 0.000000 0.026477 0.020316
  outer loop
    vertex 2.454545 0.135316 0.078125
    vertex 2.454545 0.110485 0.110485
    vertex 3.272727 0.110485 0.110485
  endloop
endfacet
facet normal 0.000000 0.020316 0.026477
  outer loop
    vertex 3.272727 0.110485 0.110485
    vertex 2.454545 0.110485 0.110485
    vertex 3.272727 0.078125 0.135316
  endloop
endfacet
facet normal 0.000000 0.020316 0.026477
  outer loop
    vertex 3.272727 0.110485 0.110485
    vertex 3.272727 0.078125 0.135316
    vertex 4.090909 0.078125 0.135316
  endloop
endfacet
facet normal 0.000000 0.012771 0.030833
  outer loop
    vertex 4.090909 0.078125 0.135316
    vertex 3.272727 0.078125 0.135316
    vertex 4.090909 0.040440 0.150926
  endloop
endfacet
facet normal 0.000000 0.012771 0.030833
  outer loop
    vertex 4.090909 0.078125 0.135316
    vertex 4.090909 0.040440 0.150926
    vertex 4.909091 0.040440 0.150926
  endloop
endfacet
facet normal 0.000000 0.004356 0.033088
  outer loop
    vertex 4.909091 0.040440 0.150926
    vertex 4.090909 0.040440 0.150926
    vertex 4.909091 0.000000 0.156250
  endloop
endfacet
facet normal 0.000000 0.004356 0.033088
  outer loop
    vertex 4.909091 0.040440 0.150926
    vertex 4.909091 0.000000 0.156250
    vertex 5.727273 0.000000 0.156250
  endloop
endfacet
facet normal 0.000000 -0.004356 0.033088
  outer loop
    vertex 5.727273 0.000000 0.156250
    vertex 4.909091 0.000000 0.156250
    vertex 5.727273 -0.040440 0.150926
  endloop
endfacet
facet normal 0.000000 -0.004356 0.033088
  outer loop
    vertex 5.727273 0.000000 0.156250
    vertex 5.727273 -0.040440 0.150926
    vertex 6.545455 -0.040440 0.150926
  endloop
endfacet
facet normal 0.000000 -0.012771 0.030833
  outer loop
    vertex 6.545455 -0.040440 0.150926
    vertex 5.727273 -0.040440 0.150926
    vertex 6.545455 -0.078125 0.135316
  endloop
endfacet
facet normal 0.000000 -0.012771 0.030833
  outer loop
    vertex 6.545455 -0.040440 0.150926
    vertex 6.545455 -0.078125 0.135316
    vertex 7.363636 -0.078125 0.135316
  endloop
endfacet
facet normal 0.000000 -0.020316 0.026477
  outer loop
    vertex 7.363636 -0.078125 0.135316
    vertex 6.545455 -0.078125 0.135316
    vertex 7.363636 -0.110485 0.110485
  endloop
endfacet
facet normal 0.000000 -0.020316 0.026477
  outer loop
    vertex 7.363636 -0.078125 0.135316
    vertex 7.363636 -0.110485 0.110485
    vertex 8.181818 -0.110485 0.110485
  endloop
endfacet
facet normal 0.000000 -0.026477 0.020316
  outer loop
    vertex 8.181818 -0.110485 0.110485
    vertex 7.363636 -0.110485 0.110485
    vertex 8.181818 -0.135316 0.078125
  endloop
endfacet
facet normal -0.000009 -0.026477 0.020316
  outer loop
    vertex 8.181818 -0.110485 0.110485
    vertex 8.181818 -0.135316 0.078125
    vertex 9.000000 -0.111770 0.109185
  endloop
endfacet
facet normal 0.000006 -0.026278 0.019760
  outer loop
    vertex 9.000000 -0.111770 0.109185
    vertex 8.181818 -0.135316 0.078125
    vertex 9.000000 -0.135922 0.077067
  endloop
endfacet
facet normal -0.000006 -0.030833 0.012771
  outer loop
    vertex 9.000000 -0.135922 0.077067
    vertex 8.181818 -0.135316 0.078125
    vertex 8.181818 -0.150926 0.040440
  endloop
endfacet
facet normal 0.000003 -0.030449 0.012404
  outer loop
    vertex 9.000000 -0.135922 0.077067
    vertex 8.181818 -0.150926 0.040440
    vertex 9.000000 -0.151082 0.039852
  endloop
endfacet
facet normal -0.000003 -0.033088 0.004356
  outer loop
    vertex 9.000000 -0.151082 0.039852
    vertex 8.181818 -0.150926 0.040440
    vertex 8.181818 -0.156250 0.000000
  endloop
endfacet
facet normal 0.000000 -0.032606 0.004228
  outer loop
    vertex 9.000000 -0.151082 0.039852
    vertex 8.181818 -0.156250 0.000000
    vertex 9.000000 -0.156250 0.000000
  endloop
endfacet
facet normal 0.000000 -0.032606 -0.004228
  outer loop
    vertex 9.000000 -0.156250 0.000000
    vertex 8.181818 -0.156250 0.000000
    vertex 9.000000 -0.151082 -0.039852
  endloop
endfacet
facet normal -0.000003 -0.033088 -0.004356
  outer loop
    vertex 9.000000 -0.151082 -0.039852
    vertex 8.181818 -0.156250 0.000000
    vertex 8.181818 -0.150926 -0.040440
  endloop
endfacet
facet normal 0.000003 -0.030449 -0.012404
  outer loop
    vertex 9.000000 -0.151082 -0.039852
    vertex 8.181818 -0.150926 -0.040440
    vertex 9.000000 -0.135922 -0.077067
  endloop
endfacet
facet normal -0.000006 -0.030833 -0.012771
  outer loop
    vertex 9.000000 -0.135922 -0.077067
    vertex 8.181818 -0.150926 -0.040440
    vertex 8.181818 -0.135316 -0.078125
  endloop
endfacet
facet normal 0.000006 -0.026278 -0.019760
  outer loop
    vertex 9.000000 -0.135922 -0.077067
    vertex 8.181818 -0.135316 -0.078125
    vertex 9.000000 -0.111770 -0.109185
  endloop
endfacet
facet normal -0.000009 -0.026477 -0.020316
  outer loop
    vertex 9.000000 -0.111770 -0.109185
    vertex 8.181818 -0.135316 -0.078125
    vertex 8.181818 -0.110485 -0.110485
  endloop
endfacet
facet normal 0.000009 -0.020370 -0.025809
  outer loop
    vertex 9.000000 -0.111770 -0.109185
    vertex 8.181818 -0.110485 -0.110485
    vertex 9.000000 -0.080226 -0.134081
  endloop
endfacet
facet normal -0.000012 -0.020316 -0.026477
  outer loop
    vertex 9.000000 -0.080226 -0.134081
    vertex 8.181818 -0.110485 -0.110485
    vertex 8.181818 -0.078125 -0.135316
  endloop
endfacet
facet normal 0.000012 -0.013113 -0.030151
  outer loop
    vertex 9.000000 -0.080226 -0.134081
    vertex 8.181818 -0.078125 -0.135316
    vertex 9.000000 -0.043375 -0.150109
  endloop
endfacet
facet normal -0.000015 -0.012771 -0.030833
  outer loop
    vertex 9.000000 -0.043375 -0.150109
    vertex 8.181818 -0.078125 -0.135316
    vertex 8.181818 -0.040440 -0.150926
  endloop
endfacet
facet normal 0.000015 -0.004990 -0.032498
  outer loop
    vertex 9.000000 -0.043375 -0.150109
    vertex 8.181818 -0.040440 -0.150926
    vertex 9.000000 -0.003655 -0.156207
  endloop
endfacet
facet normal -0.000018 -0.004356 -0.033088
  outer loop
    vertex 9.000000 -0.003655 -0.156207
    vertex 8.181818 -0.040440 -0.150926
    vertex 8.181818 0.000000 -0.156250
  endloop
endfacet
facet normal 0.000017 0.003464 -0.032696
  outer loop
    vertex 9.000000 -0.003655 -0.156207
    vertex 8.181818 0.000000 -0.156250
    vertex 9.000000 0.036306 -0.151973
  endloop
endfacet
facet normal -0.000020 0.004356 -0.033088
  outer loop
    vertex 9.000000 0.036306 -0.151973
    vertex 8.181818 0.000000 -0.156250
    vertex 8.181818 0.040440 -0.150926
  endloop
endfacet
facet normal 0.000020 0.011689 -0.030731
  outer loop
    vertex 9.000000 0.036306 -0.151973
    vertex 8.181818 0.040440 -0.150926
    vertex 9.000000 0.073866 -0.137687
  endloop
endfacet
facet normal -0.000023 0.012771 -0.030833
  outer loop
    vertex 9.000000 0.073866 -0.137687
    vertex 8.181818 0.040440 -0.150926
    vertex 8.181818 0.078125 -0.135316
  endloop
endfacet
facet normal 0.000022 0.019140 -0.026734
  outer loop
    vertex 9.000000 0.073866 -0.137687
    vertex 8.181818 0.078125 -0.135316
    vertex 9.000000 0.106541 -0.114294
  endloop
endfacet
facet normal -0.000025 0.020316 -0.026477
  outer loop
    vertex 9.000000 0.106541 -0.114294
    vertex 8.181818 0.078125 -0.135316
    vertex 8.181818 0.110485 -0.110485
  endloop
endfacet
facet normal 0.000024 0.025325 -0.020968
  outer loop
    vertex 9.000000 0.106541 -0.114294
    vertex 8.181818 0.110485 -0.110485
    vertex 9.000000 0.132168 -0.083341
  endloop
endfacet
facet normal -0.000028 0.026477 -0.020316
  outer loop
    vertex 9.000000 0.132168 -0.083341
    vertex 8.181818 0.110485 -0.110485
    vertex 8.181818 0.135316 -0.078125
  endloop
endfacet
facet normal 0.000027 0.029836 -0.013815
  outer loop
    vertex 9.000000 0.132168 -0.083341
    vertex 8.181818 0.135316 -0.078125
    vertex 9.000000 0.149053 -0.046875
  endloop
endfacet
facet normal 0.000000 0.025568 -0.011239
  outer loop
    vertex 9.000000 0.149053 -0.046875
    vertex 8.181818 0.135316 -0.078125
    vertex 7.363636 0.135316 -0.078125
  endloop
endfacet
facet normal 0.000000 0.025568 -0.011239
  outer loop
    vertex 9.000000 0.149053 -0.046875
    vertex 7.363636 0.135316 -0.078125
    vertex 6.545455 0.135316 -0.078125
  endloop
endfacet
facet normal 0.000000 0.026477 -0.020316
  outer loop
    vertex 6.545455 0.135316 -0.078125
    vertex 7.363636 0.135316 -0.078125
    vertex 6.545455 0.110485 -0.110485
  endloop
endfacet
facet normal 0.000000 0.026477 -0.020316
  outer loop
    vertex 6.545455 0.135316 -0.078125
    vertex 6.545455 0.110485 -0.110485
    vertex 5.727273 0.110485 -0.110485
  endloop
endfacet
facet normal 0.000000 0.020316 -0.026477
  outer loop
    vertex 5.727273 0.110485 -0.110485
    vertex 6.545455 0.110485 -0.110485
    vertex 5.727273 0.078125 -0.135316
  endloop
endfacet
facet normal 0.000000 0.020316 -0.026477
  outer loop
    vertex 5.727273 0.110485 -0.110485
    vertex 5.727273 0.078125 -0.135316
    vertex 4.909091 0.078125 -0.135316
  endloop
endfacet
facet normal 0.000000 0.012771 -0.030833
  outer loop
    vertex 4.909091 0.078125 -0.135316
    vertex 5.727273 0.078125 -0.135316
    vertex 4.909091 0.040440 -0.150926
  endloop
endfacet
facet normal 0.000000 0.012771 -0.030833
  outer loop
    vertex 4.909091 0.078125 -0.135316
    vertex 4.909091 0.040440 -0.150926
    vertex 4.090909 0.040440 -0.150926
  endloop
endfacet
facet normal 0.000000 0.004356 -0.033088
  outer loop
    vertex 4.090909 0.040440 -0.150926
    vertex 4.909091 0.040440 -0.150926
    vertex 4.090909 0.000000 -0.156250
  endloop
endfacet
facet normal 0.000000 0.004356 -0.033088
  outer loop
    vertex 4.090909 0.040440 -0.150926
    vertex 4.090909 0.000000 -0.156250
    vertex 3.272727 0.000000 -0.156250
  endloop
endfacet
facet normal 0.000000 -0.004356 -0.033088
  outer loop
    vertex 3.272727 0.000000 -0.156250
    vertex 4.090909 0.000000 -0.156250
    vertex 3.272727 -0.040440 -0.150926
  endloop
endfacet
facet normal 0.000000 -0.004356 -0.033088
  outer loop
    vertex 3.272727 0.000000 -0.156250
    vertex 3.272727 -0.040440 -0.150926
    vertex 2.454545 -0.040440 -0.150926
  endloop
endfacet
facet normal 0.000000 -0.012771 -0.030833
  outer loop
    vertex 2.454545 -0.040440 -0.150926
    vertex 3.272727 -0.040440 -0.150926
    vertex 2.454545 -0.078125 -0.135316
  endloop
endfacet
facet normal 0.000000 -0.012771 -0.030833
  outer loop
    vertex 2.454545 -0.040440 -0.150926
    vertex 2.454545 -0.078125 -0.135316
    vertex 1.636364 -0.078125 -0.135316
  endloop
endfacet
facet normal 0.000000 -0.020316 -0.026477
  outer loop
    vertex 1.636364 -0.078125 -0.135316
    vertex 2.454545 -0.078125 -0.135316
    vertex 1.636364 -0.110485 -0.110485
  endloop
endfacet
facet normal 0.000000 -0.020316 -0.026477
  outer loop
    vertex 1.636364 -0.078125 -0.135316
    vertex 1.636364 -0.110485 -0.110485
    vertex 0.818182 -0.110485 -0.110485
  endloop
endfacet
facet normal 0.000000 -0.026477 -0.020316
  outer loop
    vertex 0.818182 -0.110485 -0.110485
    vertex 1.636364 -0.110485 -0.110485
    vertex 0.818182 -0.135316 -0.078125
  endloop
endfacet
facet normal 0.000009 -0.026477 -0.020316
  outer loop
    vertex 0.818182 -0.110485 -0.110485
    vertex 0.818182 -0.135316 -0.078125
    vertex 0.000000 -0.111770 -0.109185
  endloop
endfacet
facet normal -0.000006 -0.026278 -0.019760
  outer loop
    vertex 0.000000 -0.111770 -0.109185
    vertex 0.818182 -0.135316 -0.078125
    vertex 0.000000 -0.135922 -0.077067
  endloop
endfacet
facet normal 0.000006 -0.030833 -0.012771
  outer loop
    vertex 0.000000 -0.135922 -0.077067
    vertex 0.818182 -0.135316 -0.078125
    vertex 0.818182 -0.150926 -0.040440
  endloop
endfacet
facet normal -0.000003 -0.030449 -0.012404
  outer loop
    vertex 0.000000 -0.135922 -0.077067
    vertex 0.818182 -0.150926 -0.040440
    vertex 0.000000 -0.151082 -0.039852
  endloop
endfacet
facet normal 0.000003 -0.033088 -0.004356
  outer loop
    vertex 0.000000 -0.151082 -0.039852
    vertex 0.818182 -0.150926 -0.040440
    vertex 0.818182 -0.156250 0.000000
  endloop
endfacet
facet normal 0.000000 -0.032606 -0.004228
  outer loop
    vertex 0.000000 -0.151082 -0.039852
    vertex 0.818182 -0.156250 0.000000
    vertex 0.000000 -0.156250 0.000000
  endloop
endfacet
facet normal 0.000000 -0.032606 0.004228
  outer loop
    vertex 0.000000 -0.156250 0.000000
    vertex 0.818182 -0.156250 0.000000
    vertex 0.000000 -0.151082 0.039852
  endloop
endfacet
facet normal 0.000003 -0.033088 0.004356
  outer loop
    vertex 0.000000 -0.151082 0.039852
    vertex 0.818182 -0.156250 0.000000
    vertex 0.818182 -0.150926 0.040440
  endloop
endfacet
facet normal -0.000003 -0.030449 0.012404
  outer loop
    vertex 0.000000 -0.151082 0.039852
    vertex 0.818182 -0.150926 0.040440
    vertex 0.000000 -0.135922 0.077067
  endloop
endfacet
facet normal 0.000006 -0.030833 0.012771
  outer loop
    vertex 0.000000 -0.135922 0.077067
    vertex 0.818182 -0.150926 0.040440
    vertex 0.818182 -0.135316 0.078125
  endloop
endfacet
facet normal -0.000006 -0.026278 0.019760
  outer loop
    vertex 0.000000 -0.135922 0.077067
    vertex 0.818182 -0.135316 0.078125
    vertex 0.000000 -0.111770 0.109185
  endloop
endfacet
facet normal 0.000009 -0.026477 0.020316
  outer loop
    vertex 0.000000 -0.111770 0.109185
    vertex 0.818182 -0.135316 0.078125
    vertex 0.818182 -0.110485 0.110485
  endloop
endfacet
facet normal -0.000009 -0.020370 0.025809
  outer loop
    vertex 0.000000 -0.111770 0.109185
    vertex 0.818182 -0.110485 0.110485
    vertex 0.000000 -0.080226 0.134081
  endloop
endfacet
facet normal 0.000012 -0.020316 0.026477
  outer loop
    vertex 0.000000 -0.080226 0.134081
    vertex 0.818182 -0.110485 0.110485
    vertex 0.818182 -0.078125 0.135316
  endloop
endfacet
facet normal -0.000012 -0.013113 0.030151
  outer loop
    vertex 0.000000 -0.080226 0.134081
    vertex 0.818182 -0.078125 0.135316
    vertex 0.000000 -0.043375 0.150109
  endloop
endfacet
facet normal 0.000015 -0.012771 0.030833
  outer loop
    vertex 0.000000 -0.043375 0.150109
    vertex 0.818182 -0.078125 0.135316
    vertex 0.818182 -0.040440 0.150926
  endloop
endfacet
facet normal -0.000015 -0.004990 0.032498
  outer loop
    vertex 0.000000 -0.043375 0.150109
    vertex 0.818182 -0.040440 0.150926
    vertex 0.000000 -0.003655 0.156207
  endloop
endfacet
facet normal 0.000018 -0.004356 0.033088
  outer loop
    vertex 0.000000 -0.003655 0.156207
    vertex 0.818182 -0.040440 0.150926
    vertex 0.818182 0.000000 0.156250
  endloop
endfacet
facet normal -0.000017 0.003464 0.032696
  outer loop
    vertex 0.000000 -0.003655 0.156207
    vertex 0.818182 0.000000 0.156250
    vertex 0.000000 0.036306 0.151973
  endloop
endfacet
facet normal 0.000020 0.004356 0.033088
  outer loop
    vertex 0.000000 0.036306 0.151973
    vertex 0.818182 0.000000 0.156250
    vertex 0.818182 0.040440 0.150926
  endloop
endfacet
facet normal -0.000020 0.011689 0.030731
  outer loop
    vertex 0.000000 0.036306 0.151973
    vertex 0.818182 0.040440 0.150926
    vertex 0.000000 0.073866 0.137687
  endloop
endfacet
facet normal 0.000023 0.012771 0.030833
  outer loop
    vertex 0.000000 0.073866 0.137687
    vertex 0.818182 0.040440 0.150926
    vertex 0.818182 0.078125 0.135316
  endloop
endfacet
facet normal -0.000022 0.019140 0.026734
  outer loop
    vertex 0.000000 0.073866 0.137687
    vertex 0.818182 0.078125 0.135316
    vertex 0.000000 0.106541 0.114294
  endloop
endfacet
facet normal 0.000025 0.020316 0.026477
  outer loop
    vertex 0.000000 0.106541 0.114294
    vertex 0.818182 0.078125 0.135316
    vertex 0.818182 0.110485 0.110485
  endloop
endfacet
facet normal -0.000024 0.025325 0.020968
  outer loop
    vertex 0.000000 0.106541 0.114294
    vertex 0.818182 0.110485 0.110485
    vertex 0.000000 0.132168 0.083341
  endloop
endfacet
facet normal 0.000028 0.026477 0.020316
  outer loop
    vertex 0.000000 0.132168 0.083341
    vertex 0.818182 0.110485 0.110485
    vertex 0.818182 0.135316 0.078125
  endloop
endfacet
facet normal -0.000009 -0.020370 -0.025809
  outer loop
    vertex 0.000000 -0.111770 -0.109185
    vertex 0.000000 -0.080226 -0.134081
    vertex 0.818182 -0.110485 -0.110485
  endloop
endfacet
facet normal 0.000012 -0.020316 -0.026477
  outer loop
    vertex 0.818182 -0.110485 -0.110485
    vertex 0.000000 -0.080226 -0.134081
    vertex 0.818182 -0.078125 -0.135316
  endloop
endfacet
facet normal 0.000000 -0.020316 -0.026477
  outer loop
    vertex 0.818182 -0.110485 -0.110485
    vertex 0.818182 -0.078125 -0.135316
    vertex 1.636364 -0.078125 -0.135316
  endloop
endfacet
facet normal -0.000000 -0.012771 -0.030833
  outer loop
    vertex 1.636364 -0.078125 -0.135316
    vertex 0.818182 -0.078125 -0.135316
    vertex 1.636364 -0.040440 -0.150926
  endloop
endfacet
facet normal 0.000000 -0.012771 -0.030833
  outer loop
    vertex 1.636364 -0.078125 -0.135316
    vertex 1.636364 -0.040440 -0.150926
    vertex 2.454545 -0.040440 -0.150926
  endloop
endfacet
facet normal -0.000000 -0.004356 -0.033088
  outer loop
    vertex 2.454545 -0.040440 -0.150926
    vertex 1.636364 -0.040440 -0.150926
    vertex 2.454545 0.000000 -0.156250
  endloop
endfacet
facet normal 0.000000 -0.004356 -0.033088
  outer loop
    vertex 2.454545 -0.040440 -0.150926
    vertex 2.454545 0.000000 -0.156250
    vertex 3.272727 0.000000 -0.156250
  endloop
endfacet
facet normal 0.000000 0.004356 -0.033088
  outer loop
    vertex 3.272727 0.000000 -0.156250
    vertex 2.454545 0.000000 -0.156250
    vertex 3.272727 0.040440 -0.150926
  endloop
endfacet
facet normal 0.000000 0.004356 -0.033088
  outer loop
    vertex 3.272727 0.000000 -0.156250
    vertex 3.272727 0.040440 -0.150926
    vertex 4.090909 0.040440 -0.150926
  endloop
endfacet
facet normal 0.000000 0.012771 -0.030833
  outer loop
    vertex 4.090909 0.040440 -0.150926
    vertex 3.272727 0.040440 -0.150926
    vertex 4.090909 0.078125 -0.135316
  endloop
endfacet
facet normal 0.000000 0.012771 -0.030833
  outer loop
    vertex 4.090909 0.040440 -0.150926
    vertex 4.090909 0.078125 -0.135316
    vertex 4.909091 0.078125 -0.135316
  endloop
endfacet
facet normal 0.000000 0.020316 -0.026477
  outer loop
    vertex 4.909091 0.078125 -0.135316
    vertex 4.090909 0.078125 -0.135316
    vertex 4.909091 0.110485 -0.110485
  endloop
endfacet
facet normal 0.000000 0.020316 -0.026477
  outer loop
    vertex 4.909091 0.078125 -0.135316
    vertex 4.909091 0.110485 -0.110485
    vertex 5.727273 0.110485 -0.110485
  endloop
endfacet
facet normal 0.000000 0.026477 -0.020316
  outer loop
    vertex 5.727273 0.110485 -0.110485
    vertex 4.909091 0.110485 -0.110485
    vertex 5.727273 0.135316 -0.078125
  endloop
endfacet
facet normal 0.000000 0.026477 -0.020316
  outer loop
    vertex 5.727273 0.110485 -0.110485
    vertex 5.727273 0.135316 -0.078125
    vertex 6.545455 0.135316 -0.078125
  endloop
endfacet
facet normal 0.000000 0.025568 -0.011239
  outer loop
    vertex 6.545455 0.135316 -0.078125
    vertex 5.727273 0.135316 -0.078125
    vertex 9.000000 0.149053 -0.046875
  endloop
endfacet
facet normal -0.000012 -0.013113 -0.030151
  outer loop
    vertex 0.000000 -0.080226 -0.134081
    vertex 0.000000 -0.043375 -0.150109
    vertex 0.818182 -0.078125 -0.135316
  endloop
endfacet
facet normal 0.000015 -0.012771 -0.030833
  outer loop
    vertex 0.818182 -0.078125 -0.135316
    vertex 0.000000 -0.043375 -0.150109
    vertex 0.818182 -0.040440 -0.150926
  endloop
endfacet
facet normal 0.000000 -0.012771 -0.030833
  outer loop
    vertex 0.818182 -0.078125 -0.135316
    vertex 0.818182 -0.040440 -0.150926
    vertex 1.636364 -0.040440 -0.150926
  endloop
endfacet
facet normal -0.000000 -0.004356 -0.033088
  outer loop
    vertex 1.636364 -0.040440 -0.150926
    vertex 0.818182 -0.040440 -0.150926
    vertex 1.636364 0.000000 -0.156250
  endloop
endfacet
facet normal 0.000000 -0.004356 -0.033088
  outer loop
    vertex 1.636364 -0.040440 -0.150926
    vertex 1.636364 0.000000 -0.156250
    vertex 2.454545 0.000000 -0.156250
  endloop
endfacet
facet normal 0.000000 0.004356 -0.033088
  outer loop
    vertex 2.454545 0.000000 -0.156250
    vertex 1.636364 0.000000 -0.156250
    vertex 2.454545 0.040440 -0.150926
  endloop
endfacet
facet normal 0.000000 0.004356 -0.033088
  outer loop
    vertex 2.454545 0.000000 -0.156250
    vertex 2.454545 0.040440 -0.150926
    vertex 3.272727 0.040440 -0.150926
  endloop
endfacet
facet normal 0.000000 0.012771 -0.030833
  outer loop
    vertex 3.272727 0.040440 -0.150926
    vertex 2.454545 0.040440 -0.150926
    vertex 3.272727 0.078125 -0.135316
  endloop
endfacet
facet normal 0.000000 0.012771 -0.030833
  outer loop
    vertex 3.272727 0.040440 -0.150926
    vertex 3.272727 0.078125 -0.135316
    vertex 4.090909 0.078125 -0.135316
  endloop
endfacet
facet normal 0.000000 0.020316 -0.026477
  outer loop
    vertex 4.090909 0.078125 -0.135316
    vertex 3.272727 0.078125 -0.135316
    vertex 4.090909 0.110485 -0.110485
  endloop
endfacet
facet normal 0.000000 0.020316 -0.026477
  outer loop
    vertex 4.090909 0.078125 -0.135316
    vertex 4.090909 0.110485 -0.110485
    vertex 4.909091 0.110485 -0.110485
  endloop
endfacet
facet normal 0.000000 0.026477 -0.020316
  outer loop
    vertex 4.909091 0.110485 -0.110485
    vertex 4.090909 0.110485 -0.110485
    vertex 4.909091 0.135316 -0.078125
  endloop
endfacet
facet normal 0.000000 0.026477 -0.020316
  outer loop
    vertex 4.909091 0.110485 -0.110485
    vertex 4.909091 0.135316 -0.078125
    vertex 5.727273 0.135316 -0.078125
  endloop
endfacet
facet normal 0.000000 0.025568 -0.011239
  outer loop
    vertex 5.727273 0.135316 -0.078125
    vertex 4.909091 0.135316 -0.078125
    vertex 9.000000 0.149053 -0.046875
  endloop
endfacet
facet normal -0.000015 -0.004990 -0.032498
  outer loop
    vertex 0.000000 -0.043375 -0.150109
    vertex 0.000000 -0.003655 -0.156207
    vertex 0.818182 -0.040440 -0.150926
  endloop
endfacet
facet normal 0.000018 -0.004356 -0.033088
  outer loop
    vertex 0.818182 -0.040440 -0.150926
    vertex 0.000000 -0.003655 -0.156207
    vertex 0.818182 0.000000 -0.156250
  endloop
endfacet
facet normal 0.000000 -0.004356 -0.033088
  outer loop
    vertex 0.818182 -0.040440 -0.150926
    vertex 0.818182 0.000000 -0.156250
    vertex 1.636364 0.000000 -0.156250
  endloop
endfacet
facet normal 0.000000 0.004356 -0.033088
  outer loop
    vertex 1.636364 0.000000 -0.156250
    vertex 0.818182 0.000000 -0.156250
    vertex 1.636364 0.040440 -0.150926
  endloop
endfacet
facet normal 0.000000 0.004356 -0.033088
  outer loop
    vertex 1.636364 0.000000 -0.156250
    vertex 1.636364 0.040440 -0.150926
    vertex 2.454545 0.040440 -0.150926
  endloop
endfacet
facet normal 0.000000 0.012771 -0.030833
  outer loop
    vertex 2.454545 0.040440 -0.150926
    vertex 1.636364 0.040440 -0.150926
    vertex 2.454545 0.078125 -0.135316
  endloop
endfacet
facet normal 0.000000 0.012771 -0.030833
  outer loop
    vertex 2.454545 0.040440 -0.150926
    vertex 2.454545 0.078125 -0.135316
    vertex 3.272727 0.078125 -0.135316
  endloop
endfacet
facet normal 0.000000 0.020316 -0.026477
  outer loop
    vertex 3.272727 0.078125 -0.135316
    vertex 2.454545 0.078125 -0.135316
    vertex 3.272727 0.110485 -0.110485
  endloop
endfacet
facet normal 0.000000 0.020316 -0.026477
  outer loop
    vertex 3.272727 0.078125 -0.135316
    vertex 3.272727 0.110485 -0.110485
    vertex 4.090909 0.110485 -0.110485
  endloop
endfacet
facet normal 0.000000 0.026477 -0.020316
  outer loop
    vertex 4.090909 0.110485 -0.110485
    vertex 3.272727 0.110485 -0.110485
    vertex 4.090909 0.135316 -0.078125
  endloop
endfacet
facet normal 0.000000 0.026477 -0.020316
  outer loop
    vertex 4.090909 0.110485 -0.110485
    vertex 4.090909 0.135316 -0.078125
    vertex 4.909091 0.135316 -0.078125
  endloop
endfacet
facet normal 0.000000 0.025568 -0.011239
  outer loop
    vertex 4.909091 0.135316 -0.078125
    vertex 4.090909 0.135316 -0.078125
    vertex 9.000000 0.149053 -0.046875
  endloop
endfacet
facet normal -0.000017 0.003464 -0.032696
  outer loop
    vertex 0.000000 -0.003655 -0.156207
    vertex 0.000000 0.036306 -0.151973
    vertex 0.818182 0.000000 -0.156250
  endloop
endfacet
facet normal 0.000020 0.004356 -0.033088
  outer loop
    vertex 0.818182 0.000000 -0.156250
    vertex 0.000000 0.036306 -0.151973
    vertex 0.818182 0.040440 -0.150926
  endloop
endfacet
facet normal 0.000000 0.004356 -0.033088
  outer loop
    vertex 0.818182 0.000000 -0.156250
    vertex 0.818182 0.040440 -0.150926
    vertex 1.636364 0.040440 -0.150926
  endloop
endfacet
facet normal 0.000000 0.012771 -0.030833
  outer loop
    vertex 1.636364 0.040440 -0.150926
    vertex 0.818182 0.040440 -0.150926
    vertex 1.636364 0.078125 -0.135316
  endloop
endfacet
facet normal 0.000000 0.012771 -0.030833
  outer loop
    vertex 1.636364 0.040440 -0.150926
    vertex 1.636364 0.078125 -0.135316
    vertex 2.454545 0.078125 -0.135316
  endloop
endfacet
facet normal 0.000000 0.020316 -0.026477
  outer loop
    vertex 2.454545 0.078125 -0.135316
    vertex 1.636364 0.078125 -0.135316
    vertex 2.454545 0.110485 -0.110485
  endloop
endfacet
facet normal 0.000000 0.020316 -0.026477
  outer loop
    vertex 2.454545 0.078125 -0.135316
    vertex 2.454545 0.110485 -0.110485
    vertex 3.272727 0.110485 -0.110485
  endloop
endfacet
facet normal 0.000000 0.026477 -0.020316
  outer loop
    vertex 3.272727 0.110485 -0.110485
    vertex 2.454545 0.110485 -0.110485
    vertex 3.272727 0.135316 -0.078125
  endloop
endfacet
facet normal 0.000000 0.026477 -0.020316
  outer loop
    vertex 3.272727 0.110485 -0.110485
    vertex 3.272727 0.135316 -0.078125
    vertex 4.090909 0.135316 -0.078125
  endloop
endfacet
facet normal 0.000000 0.025568 -0.011239
  outer loop
    vertex 4.090909 0.135316 -0.078125
    vertex 3.272727 0.135316 -0.078125
    vertex 0.000000 0.149053 -0.046875
  endloop
endfacet
facet normal 0.000000 0.281250 -0.123629
  outer loop
    vertex 4.090909 0.135316 -0.078125
    vertex 0.000000 0.149053 -0.046875
    vertex 9.000000 0.149053 -0.046875
  endloop
endfacet
facet normal -0.000020 0.011689 -0.030731
  outer loop
    vertex 0.000000 0.036306 -0.151973
    vertex 0.000000 0.073866 -0.137687
    vertex 0.818182 0.040440 -0.150926
  endloop
endfacet
facet normal 0.000023 0.012771 -0.030833
  outer loop
    vertex 0.818182 0.040440 -0.150926
    vertex 0.000000 0.073866 -0.137687
    vertex 0.818182 0.078125 -0.135316
  endloop
endfacet
facet normal 0.000000 0.012771 -0.030833
  outer loop
    vertex 0.818182 0.040440 -0.150926
    vertex 0.818182 0.078125 -0.135316
    vertex 1.636364 0.078125 -0.135316
  endloop
endfacet
facet normal 0.000000 0.020316 -0.026477
  outer loop
    vertex 1.636364 0.078125 -0.135316
    vertex 0.818182 0.078125 -0.135316
    vertex 1.636364 0.110485 -0.110485
  endloop
endfacet
facet normal 0.000000 0.020316 -0.026477
  outer loop
    vertex 1.636364 0.078125 -0.135316
    vertex 1.636364 0.110485 -0.110485
    vertex 2.454545 0.110485 -0.110485
  endloop
endfacet
facet normal 0.000000 0.026477 -0.020316
  outer loop
    vertex 2.454545 0.110485 -0.110485
    vertex 1.636364 0.110485 -0.110485
    vertex 2.454545 0.135316 -0.078125
  endloop
endfacet
facet normal 0.000000 0.026477 -0.020316
  outer loop
    vertex 2.454545 0.110485 -0.110485
    vertex 2.454545 0.135316 -0.078125
    vertex 3.272727 0.135316 -0.078125
  endloop
endfacet
facet normal 0.000000 0.025568 -0.011239
  outer loop
    vertex 3.272727 0.135316 -0.078125
    vertex 2.454545 0.135316 -0.078125
    vertex 0.000000 0.149053 -0.046875
  endloop
endfacet
facet normal -0.000022 0.019140 -0.026734
  outer loop
    vertex 0.000000 0.073866 -0.137687
    vertex 0.000000 0.106541 -0.114294
    vertex 0.818182 0.078125 -0.135316
  endloop
endfacet
facet normal 0.000025 0.020316 -0.026477
  outer loop
    vertex 0.818182 0.078125 -0.135316
    vertex 0.000000 0.106541 -0.114294
    vertex 0.818182 0.110485 -0.110485
  endloop
endfacet
facet normal 0.000000 0.020316 -0.026477
  outer loop
    vertex 0.818182 0.078125 -0.135316
    vertex 0.818182 0.110485 -0.110485
    vertex 1.636364 0.110485 -0.110485
  endloop
endfacet
facet normal 0.000000 0.026477 -0.020316
  outer loop
    vertex 1.636364 0.110485 -0.110485
    vertex 0.818182 0.110485 -0.110485
    vertex 1.636364 0.135316 -0.078125
  endloop
endfacet
facet normal 0.000000 0.026477 -0.020316
  outer loop
    vertex 1.636364 0.110485 -0.110485
    vertex 1.636364 0.135316 -0.078125
    vertex 2.454545 0.135316 -0.078125
  endloop
endfacet
facet normal 0.000000 0.025568 -0.011239
  outer loop
    vertex 2.454545 0.135316 -0.078125
    vertex 1.636364 0.135316 -0.078125
    vertex 0.000000 0.149053 -0.046875
  endloop
endfacet
facet normal -0.000024 0.025325 -0.020968
  outer loop
    vertex 0.000000 0.106541 -0.114294
    vertex 0.000000 0.132168 -0.083341
    vertex 0.818182 0.110485 -0.110485
  endloop
endfacet
facet normal 0.000028 0.026477 -0.020316
  outer loop
    vertex 0.818182 0.110485 -0.110485
    vertex 0.000000 0.132168 -0.083341
    vertex 0.818182 0.135316 -0.078125
  endloop
endfacet
facet normal 0.000000 0.026477 -0.020316
  outer loop
    vertex 0.818182 0.110485 -0.110485
    vertex 0.818182 0.135316 -0.078125
    vertex 1.636364 0.135316 -0.078125
  endloop
endfacet
facet normal 0.000000 0.025568 -0.011239
  outer loop
    vertex 1.636364 0.135316 -0.078125
    vertex 0.818182 0.135316 -0.078125
    vertex 0.000000 0.149053 -0.046875
  endloop
endfacet
facet normal -0.000027 0.029836 -0.013815
  outer loop
    vertex 0.000000 0.132168 -0.083341
    vertex 0.000000 0.149053 -0.046875
    vertex 0.818182 0.135316 -0.078125
  endloop
endfacet
facet normal 0.000009 -0.020370 0.025809
  outer loop
    vertex 9.000000 -0.111770 0.109185
    vertex 9.000000 -0.080226 0.134081
    vertex 8.181818 -0.110485 0.110485
  endloop
endfacet
facet normal -0.000012 -0.020316 0.026477
  outer loop
    vertex 8.181818 -0.110485 0.110485
    vertex 9.000000 -0.080226 0.134081
    vertex 8.181818 -0.078125 0.135316
  endloop
endfacet
facet normal 0.000000 -0.020316 0.026477
  outer loop
    vertex 8.181818 -0.110485 0.110485
    vertex 8.181818 -0.078125 0.135316
    vertex 7.363636 -0.078125 0.135316
  endloop
endfacet
facet normal 0.000000 -0.012771 0.030833
  outer loop
    vertex 7.363636 -0.078125 0.135316
    vertex 8.181818 -0.078125 0.135316
    vertex 7.363636 -0.040440 0.150926
  endloop
endfacet
facet normal 0.000000 -0.012771 0.030833
  outer loop
    vertex 7.363636 -0.078125 0.135316
    vertex 7.363636 -0.040440 0.150926
    vertex 6.545455 -0.040440 0.150926
  endloop
endfacet
facet normal 0.000000 -0.004356 0.033088
  outer loop
    vertex 6.545455 -0.040440 0.150926
    vertex 7.363636 -0.040440 0.150926
    vertex 6.545455 0.000000 0.156250
  endloop
endfacet
facet normal 0.000000 -0.004356 0.033088
  outer loop
    vertex 6.545455 -0.040440 0.150926
    vertex 6.545455 0.000000 0.156250
    vertex 5.727273 0.000000 0.156250
  endloop
endfacet
facet normal -0.000000 0.004356 0.033088
  outer loop
    vertex 5.727273 0.000000 0.156250
    vertex 6.545455 0.000000 0.156250
    vertex 5.727273 0.040440 0.150926
  endloop
endfacet
facet normal 0.000000 0.004356 0.033088
  outer loop
    vertex 5.727273 0.000000 0.156250
    vertex 5.727273 0.040440 0.150926
    vertex 4.909091 0.040440 0.150926
  endloop
endfacet
facet normal -0.000000 0.012771 0.030833
  outer loop
    vertex 4.909091 0.040440 0.150926
    vertex 5.727273 0.040440 0.150926
    vertex 4.909091 0.078125 0.135316
  endloop
endfacet
facet normal 0.000000 0.012771 0.030833
  outer loop
    vertex 4.909091 0.040440 0.150926
    vertex 4.909091 0.078125 0.135316
    vertex 4.090909 0.078125 0.135316
  endloop
endfacet
facet normal -0.000000 0.020316 0.026477
  outer loop
    vertex 4.090909 0.078125 0.135316
    vertex 4.909091 0.078125 0.135316
    vertex 4.090909 0.110485 0.110485
  endloop
endfacet
facet normal 0.000000 0.020316 0.026477
  outer loop
    vertex 4.090909 0.078125 0.135316
    vertex 4.090909 0.110485 0.110485
    vertex 3.272727 0.110485 0.110485
  endloop
endfacet
facet normal -0.000000 0.026477 0.020316
  outer loop
    vertex 3.272727 0.110485 0.110485
    vertex 4.090909 0.110485 0.110485
    vertex 3.272727 0.135316 0.078125
  endloop
endfacet
facet normal 0.000000 0.026477 0.020316
  outer loop
    vertex 3.272727 0.110485 0.110485
    vertex 3.272727 0.135316 0.078125
    vertex 2.454545 0.135316 0.078125
  endloop
endfacet
facet normal -0.000000 0.025568 0.011239
  outer loop
    vertex 2.454545 0.135316 0.078125
    vertex 3.272727 0.135316 0.078125
    vertex 0.000000 0.149053 0.046875
  endloop
endfacet
facet normal 0.000012 -0.013113 0.030151
  outer loop
    vertex 9.000000 -0.080226 0.134081
    vertex 9.000000 -0.043375 0.150109
    vertex 8.181818 -0.078125 0.135316
  endloop
endfacet
facet normal -0.000015 -0.012771 0.030833
  outer loop
    vertex 8.181818 -0.078125 0.135316
    vertex 9.000000 -0.043375 0.150109
    vertex 8.181818 -0.040440 0.150926
  endloop
endfacet
facet normal 0.000000 -0.012771 0.030833
  outer loop
    vertex 8.181818 -0.078125 0.135316
    vertex 8.181818 -0.040440 0.150926
    vertex 7.363636 -0.040440 0.150926
  endloop
endfacet
facet normal 0.000000 -0.004356 0.033088
  outer loop
    vertex 7.363636 -0.040440 0.150926
    vertex 8.181818 -0.040440 0.150926
    vertex 7.363636 0.000000 0.156250
  endloop
endfacet
facet normal 0.000000 -0.004356 0.033088
  outer loop
    vertex 7.363636 -0.040440 0.150926
    vertex 7.363636 0.000000 0.156250
    vertex 6.545455 0.000000 0.156250
  endloop
endfacet
facet normal -0.000000 0.004356 0.033088
  outer loop
    vertex 6.545455 0.000000 0.156250
    vertex 7.363636 0.000000 0.156250
    vertex 6.545455 0.040440 0.150926
  endloop
endfacet
facet normal 0.000000 0.004356 0.033088
  outer loop
    vertex 6.545455 0.000000 0.156250
    vertex 6.545455 0.040440 0.150926
    vertex 5.727273 0.040440 0.150926
  endloop
endfacet
facet normal -0.000000 0.012771 0.030833
  outer loop
    vertex 5.727273 0.040440 0.150926
    vertex 6.545455 0.040440 0.150926
    vertex 5.727273 0.078125 0.135316
  endloop
endfacet
facet normal 0.000000 0.012771 0.030833
  outer loop
    vertex 5.727273 0.040440 0.150926
    vertex 5.727273 0.078125 0.135316
    vertex 4.909091 0.078125 0.135316
  endloop
endfacet
facet normal -0.000000 0.020316 0.026477
  outer loop
    vertex 4.909091 0.078125 0.135316
    vertex 5.727273 0.078125 0.135316
    vertex 4.909091 0.110485 0.110485
  endloop
endfacet
facet normal 0.000000 0.020316 0.026477
  outer loop
    vertex 4.909091 0.078125 0.135316
    vertex 4.909091 0.110485 0.110485
    vertex 4.090909 0.110485 0.110485
  endloop
endfacet
facet normal -0.000000 0.026477 0.020316
  outer loop
    vertex 4.090909 0.110485 0.110485
    vertex 4.909091 0.110485 0.110485
    vertex 4.090909 0.135316 0.078125
  endloop
endfacet
facet normal 0.000000 0.026477 0.020316
  outer loop
    vertex 4.090909 0.110485 0.110485
    vertex 4.090909 0.135316 0.078125
    vertex 3.272727 0.135316 0.078125
  endloop
endfacet
facet normal -0.000000 0.025568 0.011239
  outer loop
    vertex 3.272727 0.135316 0.078125
    vertex 4.090909 0.135316 0.078125
    vertex 0.000000 0.149053 0.046875
  endloop
endfacet
facet normal 0.000015 -0.004990 0.032498
  outer loop
    vertex 9.000000 -0.043375 0.150109
    vertex 9.000000 -0.003655 0.156207
    vertex 8.181818 -0.040440 0.150926
  endloop
endfacet
facet normal -0.000018 -0.004356 0.033088
  outer loop
    vertex 8.181818 -0.040440 0.150926
    vertex 9.000000 -0.003655 0.156207
    vertex 8.181818 -0.000000 0.156250
  endloop
endfacet
facet normal 0.000000 -0.004356 0.033088
  outer loop
    vertex 8.181818 -0.040440 0.150926
    vertex 8.181818 -0.000000 0.156250
    vertex 7.363636 0.000000 0.156250
  endloop
endfacet
facet normal 0.000000 0.004356 0.033088
  outer loop
    vertex 7.363636 0.000000 0.156250
    vertex 8.181818 -0.000000 0.156250
    vertex 7.363636 0.040440 0.150926
  endloop
endfacet
facet normal 0.000000 0.004356 0.033088
  outer loop
    vertex 7.363636 0.000000 0.156250
    vertex 7.363636 0.040440 0.150926
    vertex 6.545455 0.040440 0.150926
  endloop
endfacet
facet normal -0.000000 0.012771 0.030833
  outer loop
    vertex 6.545455 0.040440 0.150926
    vertex 7.363636 0.040440 0.150926
    vertex 6.545455 0.078125 0.135316
  endloop
endfacet
facet normal 0.000000 0.012771 0.030833
  outer loop
    vertex 6.545455 0.040440 0.150926
    vertex 6.545455 0.078125 0.135316
    vertex 5.727273 0.078125 0.135316
  endloop
endfacet
facet normal -0.000000 0.020316 0.026477
  outer loop
    vertex 5.727273 0.078125 0.135316
    vertex 6.545455 0.078125 0.135316
    vertex 5.727273 0.110485 0.110485
  endloop
endfacet
facet normal 0.000000 0.020316 0.026477
  outer loop
    vertex 5.727273 0.078125 0.135316
    vertex 5.727273 0.110485 0.110485
    vertex 4.909091 0.110485 0.110485
  endloop
endfacet
facet normal -0.000000 0.026477 0.020316
  outer loop
    vertex 4.909091 0.110485 0.110485
    vertex 5.727273 0.110485 0.110485
    vertex 4.909091 0.135316 0.078125
  endloop
endfacet
facet normal 0.000000 0.026477 0.020316
  outer loop
    vertex 4.909091 0.110485 0.110485
    vertex 4.909091 0.135316 0.078125
    vertex 4.090909 0.135316 0.078125
  endloop
endfacet
facet normal -0.000000 0.025568 0.011239
  outer loop
    vertex 4.090909 0.135316 0.078125
    vertex 4.909091 0.135316 0.078125
    vertex 0.000000 0.149053 0.046875
  endloop
endfacet
facet normal 0.000017 0.003464 0.032696
  outer loop
    vertex 9.000000 -0.003655 0.156207
    vertex 9.000000 0.036306 0.151973
    vertex 8.181818 -0.000000 0.156250
  endloop
endfacet
facet normal -0.000020 0.004356 0.033088
  outer loop
    vertex 8.181818 -0.000000 0.156250
    vertex 9.000000 0.036306 0.151973
    vertex 8.181818 0.040440 0.150926
  endloop
endfacet
facet normal 0.000000 0.004356 0.033088
  outer loop
    vertex 8.181818 -0.000000 0.156250
    vertex 8.181818 0.040440 0.150926
    vertex 7.363636 0.040440 0.150926
  endloop
endfacet
facet normal -0.000000 0.012771 0.030833
  outer loop
    vertex 7.363636 0.040440 0.150926
    vertex 8.181818 0.040440 0.150926
    vertex 7.363636 0.078125 0.135316
  endloop
endfacet
facet normal 0.000000 0.012771 0.030833
  outer loop
    vertex 7.363636 0.040440 0.150926
    vertex 7.363636 0.078125 0.135316
    vertex 6.545455 0.078125 0.135316
  endloop
endfacet
facet normal -0.000000 0.020316 0.026477
  outer loop
    vertex 6.545455 0.078125 0.135316
    vertex 7.363636 0.078125 0.135316
    vertex 6.545455 0.110485 0.110485
  endloop
endfacet
facet normal 0.000000 0.020316 0.026477
  outer loop
    vertex 6.545455 0.078125 0.135316
    vertex 6.545455 0.110485 0.110485
    vertex 5.727273 0.110485 0.110485
  endloop
endfacet
facet normal -0.000000 0.026477 0.020316
  outer loop
    vertex 5.727273 0.110485 0.110485
    vertex 6.545455 0.110485 0.110485
    vertex 5.727273 0.135316 0.078125
  endloop
endfacet
facet normal 0.000000 0.026477 0.020316
  outer loop
    vertex 5.727273 0.110485 0.110485
    vertex 5.727273 0.135316 0.078125
    vertex 4.909091 0.135316 0.078125
  endloop
endfacet
facet normal -0.000000 0.025568 0.011239
  outer loop
    vertex 4.909091 0.135316 0.078125
    vertex 5.727273 0.135316 0.078125
    vertex 9.000000 0.149053 0.046875
  endloop
endfacet
facet normal 0.000000 0.281250 0.123629
  outer loop
    vertex 4.909091 0.135316 0.078125
    vertex 9.000000 0.149053 0.046875
    vertex 0.000000 0.149053 0.046875
  endloop
endfacet
facet normal 0.000020 0.011689 0.030731
  outer loop
    vertex 9.000000 0.036306 0.151973
    vertex 9.000000 0.073866 0.137687
    vertex 8.181818 0.040440 0.150926
  endloop
endfacet
facet normal -0.000023 0.012771 0.030833
  outer loop
    vertex 8.181818 0.040440 0.150926
    vertex 9.000000 0.073866 0.137687
    vertex 8.181818 0.078125 0.135316
  endloop
endfacet
facet normal 0.000000 0.012771 0.030833
  outer loop
    vertex 8.181818 0.040440 0.150926
    vertex 8.181818 0.078125 0.135316
    vertex 7.363636 0.078125 0.135316
  endloop
endfacet
facet normal -0.000000 0.020316 0.026477
  outer loop
    vertex 7.363636 0.078125 0.135316
    vertex 8.181818 0.078125 0.135316
    vertex 7.363636 0.110485 0.110485
  endloop
endfacet
facet normal 0.000000 0.020316 0.026477
  outer loop
    vertex 7.363636 0.078125 0.135316
    vertex 7.363636 0.110485 0.110485
    vertex 6.545455 0.110485 0.110485
  endloop
endfacet
facet normal -0.000000 0.026477 0.020316
  outer loop
    vertex 6.545455 0.110485 0.110485
    vertex 7.363636 0.110485 0.110485
    vertex 6.545455 0.135316 0.078125
  endloop
endfacet
facet normal 0.000000 0.026477 0.020316
  outer loop
    vertex 6.545455 0.110485 0.110485
    vertex 6.545455 0.135316 0.078125
    vertex 5.727273 0.135316 0.078125
  endloop
endfacet
facet normal -0.000000 0.025568 0.011239
  outer loop
    vertex 5.727273 0.135316 0.078125
    vertex 6.545455 0.135316 0.078125
    vertex 9.000000 0.149053 0.046875
  endloop
endfacet
facet normal 0.000022 0.019140 0.026734
  outer loop
    vertex 9.000000 0.073866 0.137687
    vertex 9.000000 0.106541 0.114294
    vertex 8.181818 0.078125 0.135316
  endloop
endfacet
facet normal -0.000025 0.020316 0.026477
  outer loop
    vertex 8.181818 0.078125 0.135316
    vertex 9.000000 0.106541 0.114294
    vertex 8.181818 0.110485 0.110485
  endloop
endfacet
facet normal 0.000000 0.020316 0.026477
  outer loop
    vertex 8.181818 0.078125 0.135316
    vertex 8.181818 0.110485 0.110485
    vertex 7.363636 0.110485 0.110485
  endloop
endfacet
facet normal -0.000000 0.026477 0.020316
  outer loop
    vertex 7.363636 0.110485 0.110485
    vertex 8.181818 0.110485 0.110485
    vertex 7.363636 0.135316 0.078125
  endloop
endfacet
facet normal 0.000000 0.026477 0.020316
  outer loop
    vertex 7.363636 0.110485 0.110485
    vertex 7.363636 0.135316 0.078125
    vertex 6.545455 0.135316 0.078125
  endloop
endfacet
facet normal -0.000000 0.025568 0.011239
  outer loop
    vertex 6.545455 0.135316 0.078125
    vertex 7.363636 0.135316 0.078125
    vertex 9.000000 0.149053 0.046875
  endloop
endfacet
facet normal 0.000024 0.025325 0.020968
  outer loop
    vertex 9.000000 0.106541 0.114294
    vertex 9.000000 0.132168 0.083341
    vertex 8.181818 0.110485 0.110485
  endloop
endfacet
facet normal -0.000028 0.026477 0.020316
  outer loop
    vertex 8.181818 0.110485 0.110485
    vertex 9.000000 0.132168 0.083341
    vertex 8.181818 0.135316 0.078125
  endloop
endfacet
facet normal 0.000000 0.026477 0.020316
  outer loop
    vertex 8.181818 0.110485 0.110485
    vertex 8.181818 0.135316 0.078125
    vertex 7.363636 0.135316 0.078125
  endloop
endfacet
facet normal -0.000000 0.025568 0.011239
  outer loop
    vertex 7.363636 0.135316 0.078125
    vertex 8.181818 0.135316 0.078125
    vertex 9.000000 0.149053 0.046875
  endloop
endfacet
facet normal 0.000027 0.029836 0.013815
  outer loop
    vertex 9.000000 0.132168 0.083341
    vertex 9.000000 0.149053 0.046875
    vertex 8.181818 0.135316 0.078125
  endloop
endfacet
facet normal -0.000000 0.004356 0.033088
  outer loop
    vertex 0.818182 0.000000 0.156250
    vertex 1.636364 0.000000 0.156250
    vertex 0.818182 0.040440 0.150926
  endloop
endfacet
facet normal -0.000000 0.004356 0.033088
  outer loop
    vertex 0.818182 0.040440 0.150926
    vertex 1.636364 0.000000 0.156250
    vertex 1.636364 0.040440 0.150926
  endloop
endfacet
facet normal -0.000000 0.012771 0.030833
  outer loop
    vertex 0.818182 0.040440 0.150926
    vertex 1.636364 0.040440 0.150926
    vertex 0.818182 0.078125 0.135316
  endloop
endfacet
facet normal -0.000000 0.012771 0.030833
  outer loop
    vertex 0.818182 0.078125 0.135316
    vertex 1.636364 0.040440 0.150926
    vertex 1.636364 0.078125 0.135316
  endloop
endfacet
facet normal -0.000000 0.020316 0.026477
  outer loop
    vertex 0.818182 0.078125 0.135316
    vertex 1.636364 0.078125 0.135316
    vertex 0.818182 0.110485 0.110485
  endloop
endfacet
facet normal -0.000000 0.020316 0.026477
  outer loop
    vertex 0.818182 0.110485 0.110485
    vertex 1.636364 0.078125 0.135316
    vertex 1.636364 0.110485 0.110485
  endloop
endfacet
facet normal -0.000000 0.026477 0.020316
  outer loop
    vertex 0.818182 0.110485 0.110485
    vertex 1.636364 0.110485 0.110485
    vertex 0.818182 0.135316 0.078125
  endloop
endfacet
facet normal -0.000000 0.026477 0.020316
  outer loop
    vertex 0.818182 0.135316 0.078125
    vertex 1.636364 0.110485 0.110485
    vertex 1.636364 0.135316 0.078125
  endloop
endfacet
facet normal -0.000000 0.004356 0.033088
  outer loop
    vertex 1.636364 0.000000 0.156250
    vertex 2.454545 0.000000 0.156250
    vertex 1.636364 0.040440 0.150926
  endloop
endfacet
facet normal -0.000000 0.004356 0.033088
  outer loop
    vertex 1.636364 0.040440 0.150926
    vertex 2.454545 0.000000 0.156250
    vertex 2.454545 0.040440 0.150926
  endloop
endfacet
facet normal -0.000000 0.012771 0.030833
  outer loop
    vertex 1.636364 0.040440 0.150926
    vertex 2.454545 0.040440 0.150926
    vertex 1.636364 0.078125 0.135316
  endloop
endfacet
facet normal -0.000000 0.012771 0.030833
  outer loop
    vertex 1.636364 0.078125 0.135316
    vertex 2.454545 0.040440 0.150926
    vertex 2.454545 0.078125 0.135316
  endloop
endfacet
facet normal -0.000000 0.020316 0.026477
  outer loop
    vertex 1.636364 0.078125 0.135316
    vertex 2.454545 0.078125 0.135316
    vertex 1.636364 0.110485 0.110485
  endloop
endfacet
facet normal -0.000000 0.020316 0.026477
  outer loop
    vertex 1.636364 0.110485 0.110485
    vertex 2.454545 0.078125 0.135316
    vertex 2.454545 0.110485 0.110485
  endloop
endfacet
facet normal -0.000000 0.026477 0.020316
  outer loop
    vertex 1.636364 0.110485 0.110485
    vertex 2.454545 0.110485 0.110485
    vertex 1.636364 0.135316 0.078125
  endloop
endfacet
facet normal 0.000000 -0.004356 0.033088
  outer loop
    vertex 1.636364 0.000000 0.156250
    vertex 0.818182 0.000000 0.156250
    vertex 1.636364 -0.040440 0.150926
  endloop
endfacet
facet normal 0.000000 -0.004356 0.033088
  outer loop
    vertex 1.636364 -0.040440 0.150926
    vertex 0.818182 0.000000 0.156250
    vertex 0.818182 -0.040440 0.150926
  endloop
endfacet
facet normal 0.000000 -0.012771 0.030833
  outer loop
    vertex 1.636364 -0.040440 0.150926
    vertex 0.818182 -0.040440 0.150926
    vertex 1.636364 -0.078125 0.135316
  endloop
endfacet
facet normal 0.000000 -0.012771 0.030833
  outer loop
    vertex 1.636364 -0.078125 0.135316
    vertex 0.818182 -0.040440 0.150926
    vertex 0.818182 -0.078125 0.135316
  endloop
endfacet
facet normal 0.000000 -0.020316 0.026477
  outer loop
    vertex 1.636364 -0.078125 0.135316
    vertex 0.818182 -0.078125 0.135316
    vertex 1.636364 -0.110485 0.110485
  endloop
endfacet
facet normal 0.000000 -0.020316 0.026477
  outer loop
    vertex 1.636364 -0.110485 0.110485
    vertex 0.818182 -0.078125 0.135316
    vertex 0.818182 -0.110485 0.110485
  endloop
endfacet
facet normal 0.000000 -0.026477 0.020316
  outer loop
    vertex 1.636364 -0.110485 0.110485
    vertex 0.818182 -0.110485 0.110485
    vertex 1.636364 -0.135316 0.078125
  endloop
endfacet
facet normal 0.000000 -0.026477 0.020316
  outer loop
    vertex 1.636364 -0.135316 0.078125
    vertex 0.818182 -0.110485 0.110485
    vertex 0.818182 -0.135316 0.078125
  endloop
endfacet
facet normal 0.000000 -0.030833 0.012771
  outer loop
    vertex 1.636364 -0.135316 0.078125
    vertex 0.818182 -0.135316 0.078125
    vertex 1.636364 -0.150926 0.040440
  endloop
endfacet
facet normal 0.000000 -0.030833 0.012771
  outer loop
    vertex 1.636364 -0.150926 0.040440
    vertex 0.818182 -0.135316 0.078125
    vertex 0.818182 -0.150926 0.040440
  endloop
endfacet
facet normal 0.000000 -0.033088 0.004356
  outer loop
    vertex 1.636364 -0.150926 0.040440
    vertex 0.818182 -0.150926 0.040440
    vertex 1.636364 -0.156250 0.000000
  endloop
endfacet
facet normal 0.000000 -0.033088 0.004356
  outer loop
    vertex 1.636364 -0.156250 0.000000
    vertex 0.818182 -0.150926 0.040440
    vertex 0.818182 -0.156250 0.000000
  endloop
endfacet
facet normal -0.000000 -0.033088 -0.004356
  outer loop
    vertex 1.636364 -0.156250 0.000000
    vertex 0.818182 -0.156250 0.000000
    vertex 1.636364 -0.150926 -0.040440
  endloop
endfacet
facet normal -0.000000 -0.033088 -0.004356
  outer loop
    vertex 1.636364 -0.150926 -0.040440
    vertex 0.818182 -0.156250 0.000000
    vertex 0.818182 -0.150926 -0.040440
  endloop
endfacet
facet normal -0.000000 -0.030833 -0.012771
  outer loop
    vertex 1.636364 -0.150926 -0.040440
    vertex 0.818182 -0.150926 -0.040440
    vertex 1.636364 -0.135316 -0.078125
  endloop
endfacet
facet normal -0.000000 -0.030833 -0.012771
  outer loop
    vertex 1.636364 -0.135316 -0.078125
    vertex 0.818182 -0.150926 -0.040440
    vertex 0.818182 -0.135316 -0.078125
  endloop
endfacet
facet normal -0.000000 -0.026477 -0.020316
  outer loop
    vertex 1.636364 -0.135316 -0.078125
    vertex 0.818182 -0.135316 -0.078125
    vertex 1.636364 -0.110485 -0.110485
  endloop
endfacet
facet normal -0.000000 0.004356 0.033088
  outer loop
    vertex 2.454545 0.000000 0.156250
    vertex 3.272727 0.000000 0.156250
    vertex 2.454545 0.040440 0.150926
  endloop
endfacet
facet normal -0.000000 0.004356 0.033088
  outer loop
    vertex 2.454545 0.040440 0.150926
    vertex 3.272727 0.000000 0.156250
    vertex 3.272727 0.040440 0.150926
  endloop
endfacet
facet normal -0.000000 0.012771 0.030833
  outer loop
    vertex 2.454545 0.040440 0.150926
    vertex 3.272727 0.040440 0.150926
    vertex 2.454545 0.078125 0.135316
  endloop
endfacet
facet normal -0.000000 0.012771 0.030833
  outer loop
    vertex 2.454545 0.078125 0.135316
    vertex 3.272727 0.040440 0.150926
    vertex 3.272727 0.078125 0.135316
  endloop
endfacet
facet normal -0.000000 0.020316 0.026477
  outer loop
    vertex 2.454545 0.078125 0.135316
    vertex 3.272727 0.078125 0.135316
    vertex 2.454545 0.110485 0.110485
  endloop
endfacet
facet normal 0.000000 -0.004356 0.033088
  outer loop
    vertex 2.454545 0.000000 0.156250
    vertex 1.636364 0.000000 0.156250
    vertex 2.454545 -0.040440 0.150926
  endloop
endfacet
facet normal 0.000000 -0.004356 0.033088
  outer loop
    vertex 2.454545 -0.040440 0.150926
    vertex 1.636364 0.000000 0.156250
    vertex 1.636364 -0.040440 0.150926
  endloop
endfacet
facet normal 0.000000 -0.012771 0.030833
  outer loop
    vertex 2.454545 -0.040440 0.150926
    vertex 1.636364 -0.040440 0.150926
    vertex 2.454545 -0.078125 0.135316
  endloop
endfacet
facet normal 0.000000 -0.012771 0.030833
  outer loop
    vertex 2.454545 -0.078125 0.135316
    vertex 1.636364 -0.040440 0.150926
    vertex 1.636364 -0.078125 0.135316
  endloop
endfacet
facet normal 0.000000 -0.020316 0.026477
  outer loop
    vertex 2.454545 -0.078125 0.135316
    vertex 1.636364 -0.078125 0.135316
    vertex 2.454545 -0.110485 0.110485
  endloop
endfacet
facet normal 0.000000 -0.020316 0.026477
  outer loop
    vertex 2.454545 -0.110485 0.110485
    vertex 1.636364 -0.078125 0.135316
    vertex 1.636364 -0.110485 0.110485
  endloop
endfacet
facet normal 0.000000 -0.026477 0.020316
  outer loop
    vertex 2.454545 -0.110485 0.110485
    vertex 1.636364 -0.110485 0.110485
    vertex 2.454545 -0.135316 0.078125
  endloop
endfacet
facet normal 0.000000 -0.026477 0.020316
  outer loop
    vertex 2.454545 -0.135316 0.078125
    vertex 1.636364 -0.110485 0.110485
    vertex 1.636364 -0.135316 0.078125
  endloop
endfacet
facet normal 0.000000 -0.030833 0.012771
  outer loop
    vertex 2.454545 -0.135316 0.078125
    vertex 1.636364 -0.135316 0.078125
    vertex 2.454545 -0.150926 0.040440
  endloop
endfacet
facet normal 0.000000 -0.030833 0.012771
  outer loop
    vertex 2.454545 -0.150926 0.040440
    vertex 1.636364 -0.135316 0.078125
    vertex 1.636364 -0.150926 0.040440
  endloop
endfacet
facet normal 0.000000 -0.033088 0.004356
  outer loop
    vertex 2.454545 -0.150926 0.040440
    vertex 1.636364 -0.150926 0.040440
    vertex 2.454545 -0.156250 0.000000
  endloop
endfacet
facet normal 0.000000 -0.033088 0.004356
  outer loop
    vertex 2.454545 -0.156250 0.000000
    vertex 1.636364 -0.150926 0.040440
    vertex 1.636364 -0.156250 0.000000
  endloop
endfacet
facet normal -0.000000 -0.033088 -0.004356
  outer loop
    vertex 2.454545 -0.156250 0.000000
    vertex 1.636364 -0.156250 0.000000
    vertex 2.454545 -0.150926 -0.040440
  endloop
endfacet
facet normal -0.000000 -0.033088 -0.004356
  outer loop
    vertex 2.454545 -0.150926 -0.040440
    vertex 1.636364 -0.156250 0.000000
    vertex 1.636364 -0.150926 -0.040440
  endloop
endfacet
facet normal -0.000000 -0.030833 -0.012771
  outer loop
    vertex 2.454545 -0.150926 -0.040440
    vertex 1.636364 -0.150926 -0.040440
    vertex 2.454545 -0.135316 -0.078125
  endloop
endfacet
facet normal -0.000000 -0.030833 -0.012771
  outer loop
    vertex 2.454545 -0.135316 -0.078125
    vertex 1.636364 -0.150926 -0.040440
    vertex 1.636364 -0.135316 -0.078125
  endloop
endfacet
facet normal -0.000000 -0.026477 -0.020316
  outer loop
    vertex 2.454545 -0.135316 -0.078125
    vertex 1.636364 -0.135316 -0.078125
    vertex 2.454545 -0.110485 -0.110485
  endloop
endfacet
facet normal -0.000000 -0.026477 -0.020316
  outer loop
    vertex 2.454545 -0.110485 -0.110485
    vertex 1.636364 -0.135316 -0.078125
    vertex 1.636364 -0.110485 -0.110485
  endloop
endfacet
facet normal -0.000000 -0.020316 -0.026477
  outer loop
    vertex 2.454545 -0.110485 -0.110485
    vertex 1.636364 -0.110485 -0.110485
    vertex 2.454545 -0.078125 -0.135316
  endloop
endfacet
facet normal -0.000000 0.004356 0.033088
  outer loop
    vertex 3.272727 0.000000 0.156250
    vertex 4.090909 0.000000 0.156250
    vertex 3.272727 0.040440 0.150926
  endloop
endfacet
facet normal -0.000000 0.004356 0.033088
  outer loop
    vertex 3.272727 0.040440 0.150926
    vertex 4.090909 0.000000 0.156250
    vertex 4.090909 0.040440 0.150926
  endloop
endfacet
facet normal -0.000000 0.012771 0.030833
  outer loop
    vertex 3.272727 0.040440 0.150926
    vertex 4.090909 0.040440 0.150926
    vertex 3.272727 0.078125 0.135316
  endloop
endfacet
facet normal 0.000000 -0.004356 0.033088
  outer loop
    vertex 3.272727 0.000000 0.156250
    vertex 2.454545 0.000000 0.156250
    vertex 3.272727 -0.040440 0.150926
  endloop
endfacet
facet normal 0.000000 -0.004356 0.033088
  outer loop
    vertex 3.272727 -0.040440 0.150926
    vertex 2.454545 0.000000 0.156250
    vertex 2.454545 -0.040440 0.150926
  endloop
endfacet
facet normal 0.000000 -0.012771 0.030833
  outer loop
    vertex 3.272727 -0.040440 0.150926
    vertex 2.454545 -0.040440 0.150926
    vertex 3.272727 -0.078125 0.135316
  endloop
endfacet
facet normal 0.000000 -0.012771 0.030833
  outer loop
    vertex 3.272727 -0.078125 0.135316
    vertex 2.454545 -0.040440 0.150926
    vertex 2.454545 -0.078125 0.135316
  endloop
endfacet
facet normal 0.000000 -0.020316 0.026477
  outer loop
    vertex 3.272727 -0.078125 0.135316
    vertex 2.454545 -0.078125 0.135316
    vertex 3.272727 -0.110485 0.110485
  endloop
endfacet
facet normal 0.000000 -0.020316 0.026477
  outer loop
    vertex 3.272727 -0.110485 0.110485
    vertex 2.454545 -0.078125 0.135316
    vertex 2.454545 -0.110485 0.110485
  endloop
endfacet
facet normal 0.000000 -0.026477 0.020316
  outer loop
    vertex 3.272727 -0.110485 0.110485
    vertex 2.454545 -0.110485 0.110485
    vertex 3.272727 -0.135316 0.078125
  endloop
endfacet
facet normal 0.000000 -0.026477 0.020316
  outer loop
    vertex 3.272727 -0.135316 0.078125
    vertex 2.454545 -0.110485 0.110485
    vertex 2.454545 -0.135316 0.078125
  endloop
endfacet
facet normal 0.000000 -0.030833 0.012771
  outer loop
    vertex 3.272727 -0.135316 0.078125
    vertex 2.454545 -0.135316 0.078125
    vertex 3.272727 -0.150926 0.040440
  endloop
endfacet
facet normal 0.000000 -0.030833 0.012771
  outer loop
    vertex 3.272727 -0.150926 0.040440
    vertex 2.454545 -0.135316 0.078125
    vertex 2.454545 -0.150926 0.040440
  endloop
endfacet
facet normal 0.000000 -0.033088 0.004356
  outer loop
    vertex 3.272727 -0.150926 0.040440
    vertex 2.454545 -0.150926 0.040440
    vertex 3.272727 -0.156250 0.000000
  endloop
endfacet
facet normal 0.000000 -0.033088 0.004356
  outer loop
    vertex 3.272727 -0.156250 0.000000
    vertex 2.454545 -0.150926 0.040440
    vertex 2.454545 -0.156250 0.000000
  endloop
endfacet
facet normal -0.000000 -0.033088 -0.004356
  outer loop
    vertex 3.272727 -0.156250 0.000000
    vertex 2.454545 -0.156250 0.000000
    vertex 3.272727 -0.150926 -0.040440
  endloop
endfacet
facet normal -0.000000 -0.033088 -0.004356
  outer loop
    vertex 3.272727 -0.150926 -0.040440
    vertex 2.454545 -0.156250 0.000000
    vertex 2.454545 -0.150926 -0.040440
  endloop
endfacet
facet normal -0.000000 -0.030833 -0.012771
  outer loop
    vertex 3.272727 -0.150926 -0.040440
    vertex 2.454545 -0.150926 -0.040440
    vertex 3.272727 -0.135316 -0.078125
  endloop
endfacet
facet normal -0.000000 -0.030833 -0.012771
  outer loop
    vertex 3.272727 -0.135316 -0.078125
    vertex 2.454545 -0.150926 -0.040440
    vertex 2.454545 -0.135316 -0.078125
  endloop
endfacet
facet normal -0.000000 -0.026477 -0.020316
  outer loop
    vertex 3.272727 -0.135316 -0.078125
    vertex 2.454545 -0.135316 -0.078125
    vertex 3.272727 -0.110485 -0.110485
  endloop
endfacet
facet normal -0.000000 -0.026477 -0.020316
  outer loop
    vertex 3.272727 -0.110485 -0.110485
    vertex 2.454545 -0.135316 -0.078125
    vertex 2.454545 -0.110485 -0.110485
  endloop
endfacet
facet normal -0.000000 -0.020316 -0.026477
  outer loop
    vertex 3.272727 -0.110485 -0.110485
    vertex 2.454545 -0.110485 -0.110485
    vertex 3.272727 -0.078125 -0.135316
  endloop
endfacet
facet normal -0.000000 -0.020316 -0.026477
  outer loop
    vertex 3.272727 -0.078125 -0.135316
    vertex 2.454545 -0.110485 -0.110485
    vertex 2.454545 -0.078125 -0.135316
  endloop
endfacet
facet normal -0.000000 -0.012771 -0.030833
  outer loop
    vertex 3.272727 -0.078125 -0.135316
    vertex 2.454545 -0.078125 -0.135316
    vertex 3.272727 -0.040440 -0.150926
  endloop
endfacet
facet normal 0.000000 0.004356 0.033088
  outer loop
    vertex 4.090909 0.040440 0.150926
    vertex 4.090909 0.000000 0.156250
    vertex 4.909091 0.000000 0.156250
  endloop
endfacet
facet normal 0.000000 -0.004356 0.033088
  outer loop
    vertex 4.909091 0.000000 0.156250
    vertex 4.090909 0.000000 0.156250
    vertex 4.909091 -0.040440 0.150926
  endloop
endfacet
facet normal 0.000000 -0.004356 0.033088
  outer loop
    vertex 4.909091 0.000000 0.156250
    vertex 4.909091 -0.040440 0.150926
    vertex 5.727273 -0.040440 0.150926
  endloop
endfacet
facet normal 0.000000 -0.012771 0.030833
  outer loop
    vertex 5.727273 -0.040440 0.150926
    vertex 4.909091 -0.040440 0.150926
    vertex 5.727273 -0.078125 0.135316
  endloop
endfacet
facet normal 0.000000 -0.012771 0.030833
  outer loop
    vertex 5.727273 -0.040440 0.150926
    vertex 5.727273 -0.078125 0.135316
    vertex 6.545455 -0.078125 0.135316
  endloop
endfacet
facet normal 0.000000 -0.020316 0.026477
  outer loop
    vertex 6.545455 -0.078125 0.135316
    vertex 5.727273 -0.078125 0.135316
    vertex 6.545455 -0.110485 0.110485
  endloop
endfacet
facet normal 0.000000 -0.020316 0.026477
  outer loop
    vertex 6.545455 -0.078125 0.135316
    vertex 6.545455 -0.110485 0.110485
    vertex 7.363636 -0.110485 0.110485
  endloop
endfacet
facet normal 0.000000 -0.026477 0.020316
  outer loop
    vertex 7.363636 -0.110485 0.110485
    vertex 6.545455 -0.110485 0.110485
    vertex 7.363636 -0.135316 0.078125
  endloop
endfacet
facet normal 0.000000 -0.026477 0.020316
  outer loop
    vertex 7.363636 -0.110485 0.110485
    vertex 7.363636 -0.135316 0.078125
    vertex 8.181818 -0.135316 0.078125
  endloop
endfacet
facet normal 0.000000 -0.030833 0.012771
  outer loop
    vertex 8.181818 -0.135316 0.078125
    vertex 7.363636 -0.135316 0.078125
    vertex 8.181818 -0.150926 0.040440
  endloop
endfacet
facet normal 0.000000 -0.004356 0.033088
  outer loop
    vertex 4.090909 0.000000 0.156250
    vertex 3.272727 0.000000 0.156250
    vertex 4.090909 -0.040440 0.150926
  endloop
endfacet
facet normal 0.000000 -0.004356 0.033088
  outer loop
    vertex 4.090909 -0.040440 0.150926
    vertex 3.272727 0.000000 0.156250
    vertex 3.272727 -0.040440 0.150926
  endloop
endfacet
facet normal 0.000000 -0.012771 0.030833
  outer loop
    vertex 4.090909 -0.040440 0.150926
    vertex 3.272727 -0.040440 0.150926
    vertex 4.090909 -0.078125 0.135316
  endloop
endfacet
facet normal 0.000000 -0.012771 0.030833
  outer loop
    vertex 4.090909 -0.078125 0.135316
    vertex 3.272727 -0.040440 0.150926
    vertex 3.272727 -0.078125 0.135316
  endloop
endfacet
facet normal 0.000000 -0.020316 0.026477
  outer loop
    vertex 4.090909 -0.078125 0.135316
    vertex 3.272727 -0.078125 0.135316
    vertex 4.090909 -0.110485 0.110485
  endloop
endfacet
facet normal 0.000000 -0.020316 0.026477
  outer loop
    vertex 4.090909 -0.110485 0.110485
    vertex 3.272727 -0.078125 0.135316
    vertex 3.272727 -0.110485 0.110485
  endloop
endfacet
facet normal 0.000000 -0.026477 0.020316
  outer loop
    vertex 4.090909 -0.110485 0.110485
    vertex 3.272727 -0.110485 0.110485
    vertex 4.090909 -0.135316 0.078125
  endloop
endfacet
facet normal 0.000000 -0.026477 0.020316
  outer loop
    vertex 4.090909 -0.135316 0.078125
    vertex 3.272727 -0.110485 0.110485
    vertex 3.272727 -0.135316 0.078125
  endloop
endfacet
facet normal 0.000000 -0.030833 0.012771
  outer loop
    vertex 4.090909 -0.135316 0.078125
    vertex 3.272727 -0.135316 0.078125
    vertex 4.090909 -0.150926 0.040440
  endloop
endfacet
facet normal 0.000000 -0.030833 0.012771
  outer loop
    vertex 4.090909 -0.150926 0.040440
    vertex 3.272727 -0.135316 0.078125
    vertex 3.272727 -0.150926 0.040440
  endloop
endfacet
facet normal 0.000000 -0.033088 0.004356
  outer loop
    vertex 4.090909 -0.150926 0.040440
    vertex 3.272727 -0.150926 0.040440
    vertex 4.090909 -0.156250 0.000000
  endloop
endfacet
facet normal 0.000000 -0.033088 0.004356
  outer loop
    vertex 4.090909 -0.156250 0.000000
    vertex 3.272727 -0.150926 0.040440
    vertex 3.272727 -0.156250 0.000000
  endloop
endfacet
facet normal -0.000000 -0.033088 -0.004356
  outer loop
    vertex 4.090909 -0.156250 0.000000
    vertex 3.272727 -0.156250 0.000000
    vertex 4.090909 -0.150926 -0.040440
  endloop
endfacet
facet normal -0.000000 -0.033088 -0.004356
  outer loop
    vertex 4.090909 -0.150926 -0.040440
    vertex 3.272727 -0.156250 0.000000
    vertex 3.272727 -0.150926 -0.040440
  endloop
endfacet
facet normal -0.000000 -0.030833 -0.012771
  outer loop
    vertex 4.090909 -0.150926 -0.040440
    vertex 3.272727 -0.150926 -0.040440
    vertex 4.090909 -0.135316 -0.078125
  endloop
endfacet
facet normal -0.000000 -0.030833 -0.012771
  outer loop
    vertex 4.090909 -0.135316 -0.078125
    vertex 3.272727 -0.150926 -0.040440
    vertex 3.272727 -0.135316 -0.078125
  endloop
endfacet
facet normal -0.000000 -0.026477 -0.020316
  outer loop
    vertex 4.090909 -0.135316 -0.078125
    vertex 3.272727 -0.135316 -0.078125
    vertex 4.090909 -0.110485 -0.110485
  endloop
endfacet
facet normal -0.000000 -0.026477 -0.020316
  outer loop
    vertex 4.090909 -0.110485 -0.110485
    vertex 3.272727 -0.135316 -0.078125
    vertex 3.272727 -0.110485 -0.110485
  endloop
endfacet
facet normal -0.000000 -0.020316 -0.026477
  outer loop
    vertex 4.090909 -0.110485 -0.110485
    vertex 3.272727 -0.110485 -0.110485
    vertex 4.090909 -0.078125 -0.135316
  endloop
endfacet
facet normal -0.000000 -0.020316 -0.026477
  outer loop
    vertex 4.090909 -0.078125 -0.135316
    vertex 3.272727 -0.110485 -0.110485
    vertex 3.272727 -0.078125 -0.135316
  endloop
endfacet
facet normal -0.000000 -0.012771 -0.030833
  outer loop
    vertex 4.090909 -0.078125 -0.135316
    vertex 3.272727 -0.078125 -0.135316
    vertex 4.090909 -0.040440 -0.150926
  endloop
endfacet
facet normal -0.000000 -0.012771 -0.030833
  outer loop
    vertex 4.090909 -0.040440 -0.150926
    vertex 3.272727 -0.078125 -0.135316
    vertex 3.272727 -0.040440 -0.150926
  endloop
endfacet
facet normal -0.000000 -0.004356 -0.033088
  outer loop
    vertex 4.090909 -0.040440 -0.150926
    vertex 3.272727 -0.040440 -0.150926
    vertex 4.090909 0.000000 -0.156250
  endloop
endfacet
facet normal 0.000000 -0.004356 0.033088
  outer loop
    vertex 4.090909 0.000000 0.156250
    vertex 4.090909 -0.040440 0.150926
    vertex 4.909091 -0.040440 0.150926
  endloop
endfacet
facet normal 0.000000 -0.012771 0.030833
  outer loop
    vertex 4.909091 -0.040440 0.150926
    vertex 4.090909 -0.040440 0.150926
    vertex 4.909091 -0.078125 0.135316
  endloop
endfacet
facet normal 0.000000 -0.012771 0.030833
  outer loop
    vertex 4.909091 -0.040440 0.150926
    vertex 4.909091 -0.078125 0.135316
    vertex 5.727273 -0.078125 0.135316
  endloop
endfacet
facet normal 0.000000 -0.020316 0.026477
  outer loop
    vertex 5.727273 -0.078125 0.135316
    vertex 4.909091 -0.078125 0.135316
    vertex 5.727273 -0.110485 0.110485
  endloop
endfacet
facet normal 0.000000 -0.020316 0.026477
  outer loop
    vertex 5.727273 -0.078125 0.135316
    vertex 5.727273 -0.110485 0.110485
    vertex 6.545455 -0.110485 0.110485
  endloop
endfacet
facet normal 0.000000 -0.026477 0.020316
  outer loop
    vertex 6.545455 -0.110485 0.110485
    vertex 5.727273 -0.110485 0.110485
    vertex 6.545455 -0.135316 0.078125
  endloop
endfacet
facet normal 0.000000 -0.026477 0.020316
  outer loop
    vertex 6.545455 -0.110485 0.110485
    vertex 6.545455 -0.135316 0.078125
    vertex 7.363636 -0.135316 0.078125
  endloop
endfacet
facet normal 0.000000 -0.030833 0.012771
  outer loop
    vertex 7.363636 -0.135316 0.078125
    vertex 6.545455 -0.135316 0.078125
    vertex 7.363636 -0.150926 0.040440
  endloop
endfacet
facet normal 0.000000 -0.030833 0.012771
  outer loop
    vertex 7.363636 -0.135316 0.078125
    vertex 7.363636 -0.150926 0.040440
    vertex 8.181818 -0.150926 0.040440
  endloop
endfacet
facet normal 0.000000 -0.033088 0.004356
  outer loop
    vertex 8.181818 -0.150926 0.040440
    vertex 7.363636 -0.150926 0.040440
    vertex 8.181818 -0.156250 0.000000
  endloop
endfacet
facet normal 0.000000 -0.012771 0.030833
  outer loop
    vertex 4.909091 -0.078125 0.135316
    vertex 4.090909 -0.040440 0.150926
    vertex 4.090909 -0.078125 0.135316
  endloop
endfacet
facet normal 0.000000 -0.020316 0.026477
  outer loop
    vertex 4.909091 -0.078125 0.135316
    vertex 4.090909 -0.078125 0.135316
    vertex 4.909091 -0.110485 0.110485
  endloop
endfacet
facet normal 0.000000 -0.020316 0.026477
  outer loop
    vertex 4.909091 -0.110485 0.110485
    vertex 4.090909 -0.078125 0.135316
    vertex 4.090909 -0.110485 0.110485
  endloop
endfacet
facet normal 0.000000 -0.026477 0.020316
  outer loop
    vertex 4.909091 -0.110485 0.110485
    vertex 4.090909 -0.110485 0.110485
    vertex 4.909091 -0.135316 0.078125
  endloop
endfacet
facet normal 0.000000 -0.026477 0.020316
  outer loop
    vertex 4.909091 -0.135316 0.078125
    vertex 4.090909 -0.110485 0.110485
    vertex 4.090909 -0.135316 0.078125
  endloop
endfacet
facet normal 0.000000 -0.030833 0.012771
  outer loop
    vertex 4.909091 -0.135316 0.078125
    vertex 4.090909 -0.135316 0.078125
    vertex 4.909091 -0.150926 0.040440
  endloop
endfacet
facet normal 0.000000 -0.030833 0.012771
  outer loop
    vertex 4.909091 -0.150926 0.040440
    vertex 4.090909 -0.135316 0.078125
    vertex 4.090909 -0.150926 0.040440
  endloop
endfacet
facet normal 0.000000 -0.033088 0.004356
  outer loop
    vertex 4.909091 -0.150926 0.040440
    vertex 4.090909 -0.150926 0.040440
    vertex 4.909091 -0.156250 0.000000
  endloop
endfacet
facet normal 0.000000 -0.033088 0.004356
  outer loop
    vertex 4.909091 -0.156250 0.000000
    vertex 4.090909 -0.150926 0.040440
    vertex 4.090909 -0.156250 0.000000
  endloop
endfacet
facet normal -0.000000 -0.033088 -0.004356
  outer loop
    vertex 4.909091 -0.156250 0.000000
    vertex 4.090909 -0.156250 0.000000
    vertex 4.909091 -0.150926 -0.040440
  endloop
endfacet
facet normal -0.000000 -0.033088 -0.004356
  outer loop
    vertex 4.909091 -0.150926 -0.040440
    vertex 4.090909 -0.156250 0.000000
    vertex 4.090909 -0.150926 -0.040440
  endloop
endfacet
facet normal -0.000000 -0.030833 -0.012771
  outer loop
    vertex 4.909091 -0.150926 -0.040440
    vertex 4.090909 -0.150926 -0.040440
    vertex 4.909091 -0.135316 -0.078125
  endloop
endfacet
facet normal -0.000000 -0.030833 -0.012771
  outer loop
    vertex 4.909091 -0.135316 -0.078125
    vertex 4.090909 -0.150926 -0.040440
    vertex 4.090909 -0.135316 -0.078125
  endloop
endfacet
facet normal -0.000000 -0.026477 -0.020316
  outer loop
    vertex 4.909091 -0.135316 -0.078125
    vertex 4.090909 -0.135316 -0.078125
    vertex 4.909091 -0.110485 -0.110485
  endloop
endfacet
facet normal -0.000000 -0.026477 -0.020316
  outer loop
    vertex 4.909091 -0.110485 -0.110485
    vertex 4.090909 -0.135316 -0.078125
    vertex 4.090909 -0.110485 -0.110485
  endloop
endfacet
facet normal -0.000000 -0.020316 -0.026477
  outer loop
    vertex 4.909091 -0.110485 -0.110485
    vertex 4.090909 -0.110485 -0.110485
    vertex 4.909091 -0.078125 -0.135316
  endloop
endfacet
facet normal -0.000000 -0.020316 -0.026477
  outer loop
    vertex 4.909091 -0.078125 -0.135316
    vertex 4.090909 -0.110485 -0.110485
    vertex 4.090909 -0.078125 -0.135316
  endloop
endfacet
facet normal -0.000000 -0.012771 -0.030833
  outer loop
    vertex 4.909091 -0.078125 -0.135316
    vertex 4.090909 -0.078125 -0.135316
    vertex 4.909091 -0.040440 -0.150926
  endloop
endfacet
facet normal -0.000000 -0.012771 -0.030833
  outer loop
    vertex 4.909091 -0.040440 -0.150926
    vertex 4.090909 -0.078125 -0.135316
    vertex 4.090909 -0.040440 -0.150926
  endloop
endfacet
facet normal -0.000000 -0.004356 -0.033088
  outer loop
    vertex 4.909091 -0.040440 -0.150926
    vertex 4.090909 -0.040440 -0.150926
    vertex 4.909091 0.000000 -0.156250
  endloop
endfacet
facet normal -0.000000 -0.004356 -0.033088
  outer loop
    vertex 4.909091 0.000000 -0.156250
    vertex 4.090909 -0.040440 -0.150926
    vertex 4.090909 0.000000 -0.156250
  endloop
endfacet
facet normal 0.000000 0.004356 -0.033088
  outer loop
    vertex 4.909091 0.000000 -0.156250
    vertex 4.090909 0.000000 -0.156250
    vertex 4.909091 0.040440 -0.150926
  endloop
endfacet
facet normal 0.000000 -0.020316 0.026477
  outer loop
    vertex 4.909091 -0.078125 0.135316
    vertex 4.909091 -0.110485 0.110485
    vertex 5.727273 -0.110485 0.110485
  endloop
endfacet
facet normal 0.000000 -0.026477 0.020316
  outer loop
    vertex 5.727273 -0.110485 0.110485
    vertex 4.909091 -0.110485 0.110485
    vertex 5.727273 -0.135316 0.078125
  endloop
endfacet
facet normal 0.000000 -0.026477 0.020316
  outer loop
    vertex 5.727273 -0.110485 0.110485
    vertex 5.727273 -0.135316 0.078125
    vertex 6.545455 -0.135316 0.078125
  endloop
endfacet
facet normal 0.000000 -0.030833 0.012771
  outer loop
    vertex 6.545455 -0.135316 0.078125
    vertex 5.727273 -0.135316 0.078125
    vertex 6.545455 -0.150926 0.040440
  endloop
endfacet
facet normal 0.000000 -0.030833 0.012771
  outer loop
    vertex 6.545455 -0.135316 0.078125
    vertex 6.545455 -0.150926 0.040440
    vertex 7.363636 -0.150926 0.040440
  endloop
endfacet
facet normal 0.000000 -0.033088 0.004356
  outer loop
    vertex 7.363636 -0.150926 0.040440
    vertex 6.545455 -0.150926 0.040440
    vertex 7.363636 -0.156250 0.000000
  endloop
endfacet
facet normal 0.000000 -0.033088 0.004356
  outer loop
    vertex 7.363636 -0.150926 0.040440
    vertex 7.363636 -0.156250 0.000000
    vertex 8.181818 -0.156250 0.000000
  endloop
endfacet
facet normal -0.000000 -0.033088 -0.004356
  outer loop
    vertex 8.181818 -0.156250 0.000000
    vertex 7.363636 -0.156250 0.000000
    vertex 8.181818 -0.150926 -0.040440
  endloop
endfacet
facet normal 0.000000 -0.026477 0.020316
  outer loop
    vertex 5.727273 -0.135316 0.078125
    vertex 4.909091 -0.110485 0.110485
    vertex 4.909091 -0.135316 0.078125
  endloop
endfacet
facet normal 0.000000 -0.030833 0.012771
  outer loop
    vertex 5.727273 -0.135316 0.078125
    vertex 4.909091 -0.135316 0.078125
    vertex 5.727273 -0.150926 0.040440
  endloop
endfacet
facet normal 0.000000 -0.030833 0.012771
  outer loop
    vertex 5.727273 -0.150926 0.040440
    vertex 4.909091 -0.135316 0.078125
    vertex 4.909091 -0.150926 0.040440
  endloop
endfacet
facet normal 0.000000 -0.033088 0.004356
  outer loop
    vertex 5.727273 -0.150926 0.040440
    vertex 4.909091 -0.150926 0.040440
    vertex 5.727273 -0.156250 0.000000
  endloop
endfacet
facet normal 0.000000 -0.033088 0.004356
  outer loop
    vertex 5.727273 -0.156250 0.000000
    vertex 4.909091 -0.150926 0.040440
    vertex 4.909091 -0.156250 0.000000
  endloop
endfacet
facet normal -0.000000 -0.033088 -0.004356
  outer loop
    vertex 5.727273 -0.156250 0.000000
    vertex 4.909091 -0.156250 0.000000
    vertex 5.727273 -0.150926 -0.040440
  endloop
endfacet
facet normal -0.000000 -0.033088 -0.004356
  outer loop
    vertex 5.727273 -0.150926 -0.040440
    vertex 4.909091 -0.156250 0.000000
    vertex 4.909091 -0.150926 -0.040440
  endloop
endfacet
facet normal -0.000000 -0.030833 -0.012771
  outer loop
    vertex 5.727273 -0.150926 -0.040440
    vertex 4.909091 -0.150926 -0.040440
    vertex 5.727273 -0.135316 -0.078125
  endloop
endfacet
facet normal -0.000000 -0.030833 -0.012771
  outer loop
    vertex 5.727273 -0.135316 -0.078125
    vertex 4.909091 -0.150926 -0.040440
    vertex 4.909091 -0.135316 -0.078125
  endloop
endfacet
facet normal -0.000000 -0.026477 -0.020316
  outer loop
    vertex 5.727273 -0.135316 -0.078125
    vertex 4.909091 -0.135316 -0.078125
    vertex 5.727273 -0.110485 -0.110485
  endloop
endfacet
facet normal -0.000000 -0.026477 -0.020316
  outer loop
    vertex 5.727273 -0.110485 -0.110485
    vertex 4.909091 -0.135316 -0.078125
    vertex 4.909091 -0.110485 -0.110485
  endloop
endfacet
facet normal -0.000000 -0.020316 -0.026477
  outer loop
    vertex 5.727273 -0.110485 -0.110485
    vertex 4.909091 -0.110485 -0.110485
    vertex 5.727273 -0.078125 -0.135316
  endloop
endfacet
facet normal -0.000000 -0.020316 -0.026477
  outer loop
    vertex 5.727273 -0.078125 -0.135316
    vertex 4.909091 -0.110485 -0.110485
    vertex 4.909091 -0.078125 -0.135316
  endloop
endfacet
facet normal -0.000000 -0.012771 -0.030833
  outer loop
    vertex 5.727273 -0.078125 -0.135316
    vertex 4.909091 -0.078125 -0.135316
    vertex 5.727273 -0.040440 -0.150926
  endloop
endfacet
facet normal -0.000000 -0.012771 -0.030833
  outer loop
    vertex 5.727273 -0.040440 -0.150926
    vertex 4.909091 -0.078125 -0.135316
    vertex 4.909091 -0.040440 -0.150926
  endloop
endfacet
facet normal -0.000000 -0.004356 -0.033088
  outer loop
    vertex 5.727273 -0.040440 -0.150926
    vertex 4.909091 -0.040440 -0.150926
    vertex 5.727273 0.000000 -0.156250
  endloop
endfacet
facet normal -0.000000 -0.004356 -0.033088
  outer loop
    vertex 5.727273 0.000000 -0.156250
    vertex 4.909091 -0.040440 -0.150926
    vertex 4.909091 0.000000 -0.156250
  endloop
endfacet
facet normal 0.000000 0.004356 -0.033088
  outer loop
    vertex 5.727273 0.000000 -0.156250
    vertex 4.909091 0.000000 -0.156250
    vertex 5.727273 0.040440 -0.150926
  endloop
endfacet
facet normal 0.000000 0.004356 -0.033088
  outer loop
    vertex 5.727273 0.040440 -0.150926
    vertex 4.909091 0.000000 -0.156250
    vertex 4.909091 0.040440 -0.150926
  endloop
endfacet
facet normal 0.000000 0.012771 -0.030833
  outer loop
    vertex 5.727273 0.040440 -0.150926
    vertex 4.909091 0.040440 -0.150926
    vertex 5.727273 0.078125 -0.135316
  endloop
endfacet
facet normal 0.000000 -0.030833 0.012771
  outer loop
    vertex 5.727273 -0.135316 0.078125
    vertex 5.727273 -0.150926 0.040440
    vertex 6.545455 -0.150926 0.040440
  endloop
endfacet
facet normal 0.000000 -0.033088 0.004356
  outer loop
    vertex 6.545455 -0.150926 0.040440
    vertex 5.727273 -0.150926 0.040440
    vertex 6.545455 -0.156250 0.000000
  endloop
endfacet
facet normal 0.000000 -0.033088 0.004356
  outer loop
    vertex 6.545455 -0.150926 0.040440
    vertex 6.545455 -0.156250 0.000000
    vertex 7.363636 -0.156250 0.000000
  endloop
endfacet
facet normal -0.000000 -0.033088 -0.004356
  outer loop
    vertex 7.363636 -0.156250 0.000000
    vertex 6.545455 -0.156250 0.000000
    vertex 7.363636 -0.150926 -0.040440
  endloop
endfacet
facet normal 0.000000 -0.033088 -0.004356
  outer loop
    vertex 7.363636 -0.156250 0.000000
    vertex 7.363636 -0.150926 -0.040440
    vertex 8.181818 -0.150926 -0.040440
  endloop
endfacet
facet normal -0.000000 -0.030833 -0.012771
  outer loop
    vertex 8.181818 -0.150926 -0.040440
    vertex 7.363636 -0.150926 -0.040440
    vertex 8.181818 -0.135316 -0.078125
  endloop
endfacet
facet normal 0.000000 -0.033088 0.004356
  outer loop
    vertex 6.545455 -0.156250 0.000000
    vertex 5.727273 -0.150926 0.040440
    vertex 5.727273 -0.156250 0.000000
  endloop
endfacet
facet normal -0.000000 -0.033088 -0.004356
  outer loop
    vertex 6.545455 -0.156250 0.000000
    vertex 5.727273 -0.156250 0.000000
    vertex 6.545455 -0.150926 -0.040440
  endloop
endfacet
facet normal -0.000000 -0.033088 -0.004356
  outer loop
    vertex 6.545455 -0.150926 -0.040440
    vertex 5.727273 -0.156250 0.000000
    vertex 5.727273 -0.150926 -0.040440
  endloop
endfacet
facet normal -0.000000 -0.030833 -0.012771
  outer loop
    vertex 6.545455 -0.150926 -0.040440
    vertex 5.727273 -0.150926 -0.040440
    vertex 6.545455 -0.135316 -0.078125
  endloop
endfacet
facet normal -0.000000 -0.030833 -0.012771
  outer loop
    vertex 6.545455 -0.135316 -0.078125
    vertex 5.727273 -0.150926 -0.040440
    vertex 5.727273 -0.135316 -0.078125
  endloop
endfacet
facet normal -0.000000 -0.026477 -0.020316
  outer loop
    vertex 6.545455 -0.135316 -0.078125
    vertex 5.727273 -0.135316 -0.078125
    vertex 6.545455 -0.110485 -0.110485
  endloop
endfacet
facet normal -0.000000 -0.026477 -0.020316
  outer loop
    vertex 6.545455 -0.110485 -0.110485
    vertex 5.727273 -0.135316 -0.078125
    vertex 5.727273 -0.110485 -0.110485
  endloop
endfacet
facet normal -0.000000 -0.020316 -0.026477
  outer loop
    vertex 6.545455 -0.110485 -0.110485
    vertex 5.727273 -0.110485 -0.110485
    vertex 6.545455 -0.078125 -0.135316
  endloop
endfacet
facet normal -0.000000 -0.020316 -0.026477
  outer loop
    vertex 6.545455 -0.078125 -0.135316
    vertex 5.727273 -0.110485 -0.110485
    vertex 5.727273 -0.078125 -0.135316
  endloop
endfacet
facet normal -0.000000 -0.012771 -0.030833
  outer loop
    vertex 6.545455 -0.078125 -0.135316
    vertex 5.727273 -0.078125 -0.135316
    vertex 6.545455 -0.040440 -0.150926
  endloop
endfacet
facet normal -0.000000 -0.012771 -0.030833
  outer loop
    vertex 6.545455 -0.040440 -0.150926
    vertex 5.727273 -0.078125 -0.135316
    vertex 5.727273 -0.040440 -0.150926
  endloop
endfacet
facet normal -0.000000 -0.004356 -0.033088
  outer loop
    vertex 6.545455 -0.040440 -0.150926
    vertex 5.727273 -0.040440 -0.150926
    vertex 6.545455 0.000000 -0.156250
  endloop
endfacet
facet normal -0.000000 -0.004356 -0.033088
  outer loop
    vertex 6.545455 0.000000 -0.156250
    vertex 5.727273 -0.040440 -0.150926
    vertex 5.727273 0.000000 -0.156250
  endloop
endfacet
facet normal 0.000000 0.004356 -0.033088
  outer loop
    vertex 6.545455 0.000000 -0.156250
    vertex 5.727273 0.000000 -0.156250
    vertex 6.545455 0.040440 -0.150926
  endloop
endfacet
facet normal 0.000000 0.004356 -0.033088
  outer loop
    vertex 6.545455 0.040440 -0.150926
    vertex 5.727273 0.000000 -0.156250
    vertex 5.727273 0.040440 -0.150926
  endloop
endfacet
facet normal 0.000000 0.012771 -0.030833
  outer loop
    vertex 6.545455 0.040440 -0.150926
    vertex 5.727273 0.040440 -0.150926
    vertex 6.545455 0.078125 -0.135316
  endloop
endfacet
facet normal 0.000000 0.012771 -0.030833
  outer loop
    vertex 6.545455 0.078125 -0.135316
    vertex 5.727273 0.040440 -0.150926
    vertex 5.727273 0.078125 -0.135316
  endloop
endfacet
facet normal 0.000000 0.020316 -0.026477
  outer loop
    vertex 6.545455 0.078125 -0.135316
    vertex 5.727273 0.078125 -0.135316
    vertex 6.545455 0.110485 -0.110485
  endloop
endfacet
facet normal 0.000000 -0.033088 -0.004356
  outer loop
    vertex 6.545455 -0.156250 0.000000
    vertex 6.545455 -0.150926 -0.040440
    vertex 7.363636 -0.150926 -0.040440
  endloop
endfacet
facet normal -0.000000 -0.030833 -0.012771
  outer loop
    vertex 7.363636 -0.150926 -0.040440
    vertex 6.545455 -0.150926 -0.040440
    vertex 7.363636 -0.135316 -0.078125
  endloop
endfacet
facet normal 0.000000 -0.030833 -0.012771
  outer loop
    vertex 7.363636 -0.150926 -0.040440
    vertex 7.363636 -0.135316 -0.078125
    vertex 8.181818 -0.135316 -0.078125
  endloop
endfacet
facet normal -0.000000 -0.026477 -0.020316
  outer loop
    vertex 8.181818 -0.135316 -0.078125
    vertex 7.363636 -0.135316 -0.078125
    vertex 8.181818 -0.110485 -0.110485
  endloop
endfacet
facet normal -0.000000 -0.030833 -0.012771
  outer loop
    vertex 7.363636 -0.135316 -0.078125
    vertex 6.545455 -0.150926 -0.040440
    vertex 6.545455 -0.135316 -0.078125
  endloop
endfacet
facet normal -0.000000 -0.026477 -0.020316
  outer loop
    vertex 7.363636 -0.135316 -0.078125
    vertex 6.545455 -0.135316 -0.078125
    vertex 7.363636 -0.110485 -0.110485
  endloop
endfacet
facet normal -0.000000 -0.026477 -0.020316
  outer loop
    vertex 7.363636 -0.110485 -0.110485
    vertex 6.545455 -0.135316 -0.078125
    vertex 6.545455 -0.110485 -0.110485
  endloop
endfacet
facet normal -0.000000 -0.020316 -0.026477
  outer loop
    vertex 7.363636 -0.110485 -0.110485
    vertex 6.545455 -0.110485 -0.110485
    vertex 7.363636 -0.078125 -0.135316
  endloop
endfacet
facet normal -0.000000 -0.020316 -0.026477
  outer loop
    vertex 7.363636 -0.078125 -0.135316
    vertex 6.545455 -0.110485 -0.110485
    vertex 6.545455 -0.078125 -0.135316
  endloop
endfacet
facet normal -0.000000 -0.012771 -0.030833
  outer loop
    vertex 7.363636 -0.078125 -0.135316
    vertex 6.545455 -0.078125 -0.135316
    vertex 7.363636 -0.040440 -0.150926
  endloop
endfacet
facet normal -0.000000 -0.012771 -0.030833
  outer loop
    vertex 7.363636 -0.040440 -0.150926
    vertex 6.545455 -0.078125 -0.135316
    vertex 6.545455 -0.040440 -0.150926
  endloop
endfacet
facet normal -0.000000 -0.004356 -0.033088
  outer loop
    vertex 7.363636 -0.040440 -0.150926
    vertex 6.545455 -0.040440 -0.150926
    vertex 7.363636 0.000000 -0.156250
  endloop
endfacet
facet normal -0.000000 -0.004356 -0.033088
  outer loop
    vertex 7.363636 0.000000 -0.156250
    vertex 6.545455 -0.040440 -0.150926
    vertex 6.545455 0.000000 -0.156250
  endloop
endfacet
facet normal 0.000000 0.004356 -0.033088
  outer loop
    vertex 7.363636 0.000000 -0.156250
    vertex 6.545455 0.000000 -0.156250
    vertex 7.363636 0.040440 -0.150926
  endloop
endfacet
facet normal 0.000000 0.004356 -0.033088
  outer loop
    vertex 7.363636 0.040440 -0.150926
    vertex 6.545455 0.000000 -0.156250
    vertex 6.545455 0.040440 -0.150926
  endloop
endfacet
facet normal 0.000000 0.012771 -0.030833
  outer loop
    vertex 7.363636 0.040440 -0.150926
    vertex 6.545455 0.040440 -0.150926
    vertex 7.363636 0.078125 -0.135316
  endloop
endfacet
facet normal 0.000000 0.012771 -0.030833
  outer loop
    vertex 7.363636 0.078125 -0.135316
    vertex 6.545455 0.040440 -0.150926
    vertex 6.545455 0.078125 -0.135316
  endloop
endfacet
facet normal 0.000000 0.020316 -0.026477
  outer loop
    vertex 7.363636 0.078125 -0.135316
    vertex 6.545455 0.078125 -0.135316
    vertex 7.363636 0.110485 -0.110485
  endloop
endfacet
facet normal 0.000000 0.020316 -0.026477
  outer loop
    vertex 7.363636 0.110485 -0.110485
    vertex 6.545455 0.078125 -0.135316
    vertex 6.545455 0.110485 -0.110485
  endloop
endfacet
facet normal 0.000000 0.026477 -0.020316
  outer loop
    vertex 7.363636 0.110485 -0.110485
    vertex 6.545455 0.110485 -0.110485
    vertex 7.363636 0.135316 -0.078125
  endloop
endfacet
facet normal 0.000000 -0.020316 -0.026477
  outer loop
    vertex 8.181818 -0.078125 -0.135316
    vertex 8.181818 -0.110485 -0.110485
    vertex 7.363636 -0.110485 -0.110485
  endloop
endfacet
facet normal 0.000000 -0.026477 -0.020316
  outer loop
    vertex 7.363636 -0.110485 -0.110485
    vertex 8.181818 -0.110485 -0.110485
    vertex 7.363636 -0.135316 -0.078125
  endloop
endfacet
facet normal -0.000000 -0.020316 -0.026477
  outer loop
    vertex 8.181818 -0.078125 -0.135316
    vertex 7.363636 -0.110485 -0.110485
    vertex 7.363636 -0.078125 -0.135316
  endloop
endfacet
facet normal 0.000000 -0.012771 -0.030833
  outer loop
    vertex 8.181818 -0.040440 -0.150926
    vertex 8.181818 -0.078125 -0.135316
    vertex 7.363636 -0.078125 -0.135316
  endloop
endfacet
facet normal -0.000000 -0.012771 -0.030833
  outer loop
    vertex 8.181818 -0.040440 -0.150926
    vertex 7.363636 -0.078125 -0.135316
    vertex 7.363636 -0.040440 -0.150926
  endloop
endfacet
facet normal 0.000000 -0.004356 -0.033088
  outer loop
    vertex 8.181818 0.000000 -0.156250
    vertex 8.181818 -0.040440 -0.150926
    vertex 7.363636 -0.040440 -0.150926
  endloop
endfacet
facet normal -0.000000 -0.004356 -0.033088
  outer loop
    vertex 8.181818 0.000000 -0.156250
    vertex 7.363636 -0.040440 -0.150926
    vertex 7.363636 0.000000 -0.156250
  endloop
endfacet
facet normal 0.000000 0.004356 -0.033088
  outer loop
    vertex 8.181818 0.040440 -0.150926
    vertex 8.181818 0.000000 -0.156250
    vertex 7.363636 0.000000 -0.156250
  endloop
endfacet
facet normal 0.000000 0.004356 -0.033088
  outer loop
    vertex 8.181818 0.040440 -0.150926
    vertex 7.363636 0.000000 -0.156250
    vertex 7.363636 0.040440 -0.150926
  endloop
endfacet
facet normal 0.000000 0.012771 -0.030833
  outer loop
    vertex 8.181818 0.078125 -0.135316
    vertex 8.181818 0.040440 -0.150926
    vertex 7.363636 0.040440 -0.150926
  endloop
endfacet
facet normal 0.000000 0.012771 -0.030833
  outer loop
    vertex 8.181818 0.078125 -0.135316
    vertex 7.363636 0.040440 -0.150926
    vertex 7.363636 0.078125 -0.135316
  endloop
endfacet
facet normal 0.000000 0.020316 -0.026477
  outer loop
    vertex 8.181818 0.110485 -0.110485
    vertex 8.181818 0.078125 -0.135316
    vertex 7.363636 0.078125 -0.135316
  endloop
endfacet
facet normal 0.000000 0.020316 -0.026477
  outer loop
    vertex 8.181818 0.110485 -0.110485
    vertex 7.363636 0.078125 -0.135316
    vertex 7.363636 0.110485 -0.110485
  endloop
endfacet
facet normal 0.000000 0.026477 -0.020316
  outer loop
    vertex 8.181818 0.135316 -0.078125
    vertex 8.181818 0.110485 -0.110485
    vertex 7.363636 0.110485 -0.110485
  endloop
endfacet
facet normal 0.000000 0.026477 -0.020316
  outer loop
    vertex 8.181818 0.135316 -0.078125
    vertex 7.363636 0.110485 -0.110485
    vertex 7.363636 0.135316 -0.078125
  endloop
endfacet
facet normal 0.000000 0.000000 -0.357102
  outer loop
    vertex 0.000000 0.149053 0.046875
    vertex 9.000000 0.149053 0.046875
    vertex 0.000000 0.109375 0.046875
  endloop
endfacet
facet normal 0.000000 0.000000 -0.357102
  outer loop
    vertex 0.000000 0.109375 0.046875
    vertex 9.000000 0.149053 0.046875
    vertex 9.000000 0.109375 0.046875
  endloop
endfacet
facet normal 0.001447 0.000000 0.000000
  outer loop
    vertex 9.000000 0.149053 0.046875
    vertex 9.000000 0.132168 0.083341
    vertex 9.000000 0.109375 0.046875
  endloop
endfacet
facet normal 0.001640 0.000000 -0.000000
  outer loop
    vertex 9.000000 0.109375 0.046875
    vertex 9.000000 0.132168 0.083341
    vertex 9.000000 0.106541 0.114294
  endloop
endfacet
facet normal 0.002137 0.000000 0.000000
  outer loop
    vertex 9.000000 0.109375 0.046875
    vertex 9.000000 0.106541 0.114294
    vertex 9.000000 0.073866 0.137687
  endloop
endfacet
facet normal 0.002904 0.000000 0.000000
  outer loop
    vertex 9.000000 0.073866 0.137687
    vertex 9.000000 0.036306 0.151973
    vertex 9.000000 0.109375 0.046875
  endloop
endfacet
facet normal 0.003891 0.000000 0.000000
  outer loop
    vertex 9.000000 0.109375 0.046875
    vertex 9.000000 0.036306 0.151973
    vertex 9.000000 -0.003655 0.156207
  endloop
endfacet
facet normal 0.005032 0.000000 0.000000
  outer loop
    vertex 9.000000 0.109375 0.046875
    vertex 9.000000 -0.003655 0.156207
    vertex 9.000000 -0.043375 0.150109
  endloop
endfacet
facet normal 0.006252 0.000000 0.000000
  outer loop
    vertex 9.000000 -0.043375 0.150109
    vertex 9.000000 -0.080226 0.134081
    vertex 9.000000 0.109375 0.046875
  endloop
endfacet
facet normal 0.050844 0.000000 0.000000
  outer loop
    vertex 9.000000 0.109375 0.046875
    vertex 9.000000 -0.080226 0.134081
    vertex 9.000000 -0.080226 -0.134081
  endloop
endfacet
facet normal 0.009707 0.000000 0.000000
  outer loop
    vertex 9.000000 0.109375 0.046875
    vertex 9.000000 -0.080226 -0.134081
    vertex 9.000000 -0.043375 -0.150109
  endloop
endfacet
facet normal 0.008459 0.000000 -0.000000
  outer loop
    vertex 9.000000 -0.080226 -0.134081
    vertex 9.000000 -0.080226 0.134081
    vertex 9.000000 -0.111770 -0.109185
  endloop
endfacet
facet normal 0.006888 0.000000 0.000000
  outer loop
    vertex 9.000000 -0.111770 -0.109185
    vertex 9.000000 -0.080226 0.134081
    vertex 9.000000 -0.111770 0.109185
  endloop
endfacet
facet normal 0.005274 0.000000 -0.000000
  outer loop
    vertex 9.000000 -0.111770 -0.109185
    vertex 9.000000 -0.111770 0.109185
    vertex 9.000000 -0.135922 -0.077067
  endloop
endfacet
facet normal 0.003723 0.000000 0.000000
  outer loop
    vertex 9.000000 -0.135922 -0.077067
    vertex 9.000000 -0.111770 0.109185
    vertex 9.000000 -0.135922 0.077067
  endloop
endfacet
facet normal 0.002337 0.000000 -0.000000
  outer loop
    vertex 9.000000 -0.135922 -0.077067
    vertex 9.000000 -0.135922 0.077067
    vertex 9.000000 -0.151082 -0.039852
  endloop
endfacet
facet normal 0.001208 0.000000 0.000000
  outer loop
    vertex 9.000000 -0.151082 -0.039852
    vertex 9.000000 -0.135922 0.077067
    vertex 9.000000 -0.151082 0.039852
  endloop
endfacet
facet normal 0.000412 0.000000 -0.000000
  outer loop
    vertex 9.000000 -0.151082 -0.039852
    vertex 9.000000 -0.151082 0.039852
    vertex 9.000000 -0.156250 0.000000
  endloop
endfacet
facet normal 0.014320 0.000000 0.000000
  outer loop
    vertex 9.000000 0.109375 0.046875
    vertex 9.000000 -0.043375 -0.150109
    vertex 9.000000 0.109375 -0.046875
  endloop
endfacet
facet normal 0.005032 0.000000 0.000000
  outer loop
    vertex 9.000000 0.109375 -0.046875
    vertex 9.000000 -0.043375 -0.150109
    vertex 9.000000 -0.003655 -0.156207
  endloop
endfacet
facet normal 0.003891 0.000000 0.000000
  outer loop
    vertex 9.000000 0.109375 -0.046875
    vertex 9.000000 -0.003655 -0.156207
    vertex 9.000000 0.036306 -0.151973
  endloop
endfacet
facet normal 0.002904 0.000000 0.000000
  outer loop
    vertex 9.000000 0.036306 -0.151973
    vertex 9.000000 0.073866 -0.137687
    vertex 9.000000 0.109375 -0.046875
  endloop
endfacet
facet normal 0.002137 0.000000 0.000000
  outer loop
    vertex 9.000000 0.109375 -0.046875
    vertex 9.000000 0.073866 -0.137687
    vertex 9.000000 0.106541 -0.114294
  endloop
endfacet
facet normal 0.001640 0.000000 0.000000
  outer loop
    vertex 9.000000 0.109375 -0.046875
    vertex 9.000000 0.106541 -0.114294
    vertex 9.000000 0.132168 -0.083341
  endloop
endfacet
facet normal 0.001447 0.000000 -0.000000
  outer loop
    vertex 9.000000 0.132168 -0.083341
    vertex 9.000000 0.149053 -0.046875
    vertex 9.000000 0.109375 -0.046875
  endloop
endfacet
facet normal -0.001447 0.000000 0.000000
  outer loop
    vertex 0.000000 0.149053 0.046875
    vertex 0.000000 0.109375 0.046875
    vertex 0.000000 0.132168 0.083341
  endloop
endfacet
facet normal -0.001640 -0.000000 0.000000
  outer loop
    vertex 0.000000 0.132168 0.083341
    vertex 0.000000 0.109375 0.046875
    vertex 0.000000 0.106541 0.114294
  endloop
endfacet
facet normal -0.002137 -0.000000 -0.000000
  outer loop
    vertex 0.000000 0.106541 0.114294
    vertex 0.000000 0.109375 0.046875
    vertex 0.000000 0.073866 0.137687
  endloop
endfacet
facet normal -0.002904 -0.000000 -0.000000
  outer loop
    vertex 0.000000 0.073866 0.137687
    vertex 0.000000 0.109375 0.046875
    vertex 0.000000 0.036306 0.151973
  endloop
endfacet
facet normal -0.003891 -0.000000 -0.000000
  outer loop
    vertex 0.000000 0.036306 0.151973
    vertex 0.000000 0.109375 0.046875
    vertex 0.000000 -0.003655 0.156207
  endloop
endfacet
facet normal -0.005032 0.000000 -0.000000
  outer loop
    vertex 0.000000 -0.003655 0.156207
    vertex 0.000000 0.109375 0.046875
    vertex 0.000000 -0.043375 0.150109
  endloop
endfacet
facet normal -0.014320 0.000000 0.000000
  outer loop
    vertex 0.000000 -0.043375 0.150109
    vertex 0.000000 0.109375 0.046875
    vertex 0.000000 0.109375 -0.046875
  endloop
endfacet
facet normal -0.009707 0.000000 -0.000000
  outer loop
    vertex 0.000000 -0.043375 0.150109
    vertex 0.000000 0.109375 -0.046875
    vertex 0.000000 -0.080226 0.134081
  endloop
endfacet
facet normal -0.050844 0.000000 0.000000
  outer loop
    vertex 0.000000 -0.080226 0.134081
    vertex 0.000000 0.109375 -0.046875
    vertex 0.000000 -0.080226 -0.134081
  endloop
endfacet
facet normal -0.008459 0.000000 -0.000000
  outer loop
    vertex 0.000000 -0.080226 0.134081
    vertex 0.000000 -0.080226 -0.134081
    vertex 0.000000 -0.111770 0.109185
  endloop
endfacet
facet normal -0.006888 0.000000 0.000000
  outer loop
    vertex 0.000000 -0.111770 0.109185
    vertex 0.000000 -0.080226 -0.134081
    vertex 0.000000 -0.111770 -0.109185
  endloop
endfacet
facet normal -0.005274 0.000000 -0.000000
  outer loop
    vertex 0.000000 -0.111770 0.109185
    vertex 0.000000 -0.111770 -0.109185
    vertex 0.000000 -0.135922 0.077067
  endloop
endfacet
facet normal -0.003723 0.000000 0.000000
  outer loop
    vertex 0.000000 -0.135922 0.077067
    vertex 0.000000 -0.111770 -0.109185
    vertex 0.000000 -0.135922 -0.077067
  endloop
endfacet
facet normal -0.002337 0.000000 -0.000000
  outer loop
    vertex 0.000000 -0.135922 0.077067
    vertex 0.000000 -0.135922 -0.077067
    vertex 0.000000 -0.151082 0.039852
  endloop
endfacet
facet normal -0.001208 0.000000 0.000000
  outer loop
    vertex 0.000000 -0.151082 0.039852
    vertex 0.000000 -0.135922 -0.077067
    vertex 0.000000 -0.151082 -0.039852
  endloop
endfacet
facet normal -0.000412 0.000000 -0.000000
  outer loop
    vertex 0.000000 -0.151082 0.039852
    vertex 0.000000 -0.151082 -0.039852
    vertex 0.000000 -0.156250 0.000000
  endloop
endfacet
facet normal -0.001447 -0.000000 0.000000
  outer loop
    vertex 0.000000 0.149053 -0.046875
    vertex 0.000000 0.132168 -0.083341
    vertex 0.000000 0.109375 -0.046875
  endloop
endfacet
facet normal -0.001640 0.000000 -0.000000
  outer loop
    vertex 0.000000 0.109375 -0.046875
    vertex 0.000000 0.132168 -0.083341
    vertex 0.000000 0.106541 -0.114294
  endloop
endfacet
facet normal -0.002137 0.000000 0.000000
  outer loop
    vertex 0.000000 0.109375 -0.046875
    vertex 0.000000 0.106541 -0.114294
    vertex 0.000000 0.073866 -0.137687
  endloop
endfacet
facet normal -0.002904 -0.000000 0.000000
  outer loop
    vertex 0.000000 0.073866 -0.137687
    vertex 0.000000 0.036306 -0.151973
    vertex 0.000000 0.109375 -0.046875
  endloop
endfacet
facet normal -0.003891 0.000000 0.000000
  outer loop
    vertex 0.000000 0.109375 -0.046875
    vertex 0.000000 0.036306 -0.151973
    vertex 0.000000 -0.003655 -0.156207
  endloop
endfacet
facet normal -0.005032 0.000000 0.000000
  outer loop
    vertex 0.000000 0.109375 -0.046875
    vertex 0.000000 -0.003655 -0.156207
    vertex 0.000000 -0.043375 -0.150109
  endloop
endfacet
facet normal -0.006252 0.000000 0.000000
  outer loop
    vertex 0.000000 -0.043375 -0.150109
    vertex 0.000000 -0.080226 -0.134081
    vertex 0.000000 0.109375 -0.046875
  endloop
endfacet
endsolid 143b8618-d9c4-4474-b4f0-10bba1bb3714-ascii.stl
