solid 79a2bf0d-df03-4e38-8de4-65d4f4ab95d6-ascii.stl
facet normal 0.000000 7.500000 0.000000
  outer loop
    vertex 0.000000 0.937500 -0.312500
    vertex 0.000000 0.937500 0.312500
    vertex 12.000000 0.937500 -0.312500
  endloop
endfacet
facet normal 0.000000 7.500000 -0.000000
  outer loop
    vertex 12.000000 0.937500 -0.312500
    vertex 0.000000 0.937500 0.312500
    vertex 12.000000 0.937500 0.312500
  endloop
endfacet
facet normal 0.000000 0.000000 3.273687
  outer loop
    vertex 0.000000 0.937500 -0.312500
    vertex 12.000000 0.937500 -0.312500
    vertex 0.000000 1.210307 -0.312500
  endloop
endfacet
facet normal -0.000000 0.000000 3.273687
  outer loop
    vertex 0.000000 1.210307 -0.312500
    vertex 12.000000 0.937500 -0.312500
    vertex 12.000000 1.210307 -0.312500
  endloop
endfacet
facet normal -0.000198 0.396828 0.126343
  outer loop
    vertex 0.000000 1.168193 0.444776
    vertex 3.000000 1.179854 0.412849
    vertex 0.000000 1.210307 0.312500
  endloop
endfacet
facet normal 0.000000 0.301046 0.091359
  outer loop
    vertex 0.000000 1.210307 0.312500
    vertex 3.000000 1.179854 0.412849
    vertex 6.000000 1.179854 0.412849
  endloop
endfacet
facet normal -0.000000 1.204186 0.365437
  outer loop
    vertex 0.000000 1.210307 0.312500
    vertex 6.000000 1.179854 0.412849
    vertex 12.000000 1.210307 0.312500
  endloop
endfacet
facet normal 0.000000 0.301046 0.091359
  outer loop
    vertex 12.000000 1.210307 0.312500
    vertex 6.000000 1.179854 0.412849
    vertex 9.000000 1.179854 0.412849
  endloop
endfacet
facet normal 0.000198 0.396828 0.126343
  outer loop
    vertex 12.000000 1.210307 0.312500
    vertex 9.000000 1.179854 0.412849
    vertex 12.000000 1.168193 0.444776
  endloop
endfacet
facet normal -0.000202 0.388518 0.160929
  outer loop
    vertex 12.000000 1.168193 0.444776
    vertex 9.000000 1.179854 0.412849
    vertex 9.000000 1.126211 0.542355
  endloop
endfacet
facet normal 0.000192 0.380372 0.169566
  outer loop
    vertex 12.000000 1.168193 0.444776
    vertex 9.000000 1.126211 0.542355
    vertex 12.000000 1.111671 0.571567
  endloop
endfacet
facet normal -0.000197 0.368056 0.203417
  outer loop
    vertex 12.000000 1.111671 0.571567
    vertex 9.000000 1.126211 0.542355
    vertex 9.000000 1.058405 0.665040
  endloop
endfacet
facet normal 0.000187 0.359224 0.210698
  outer loop
    vertex 12.000000 1.111671 0.571567
    vertex 9.000000 1.058405 0.665040
    vertex 12.000000 1.041438 0.691308
  endloop
endfacet
facet normal -0.000191 0.342967 0.243348
  outer loop
    vertex 12.000000 1.041438 0.691308
    vertex 9.000000 1.058405 0.665040
    vertex 9.000000 0.977289 0.779362
  endloop
endfacet
facet normal 0.000181 0.333646 0.249231
  outer loop
    vertex 12.000000 1.041438 0.691308
    vertex 9.000000 0.977289 0.779362
    vertex 12.000000 0.958361 0.802523
  endloop
endfacet
facet normal -0.000185 0.313564 0.280218
  outer loop
    vertex 12.000000 0.958361 0.802523
    vertex 9.000000 0.977289 0.779362
    vertex 9.000000 0.883883 0.883883
  endloop
endfacet
facet normal 0.000175 0.303953 0.284689
  outer loop
    vertex 12.000000 0.958361 0.802523
    vertex 9.000000 0.883883 0.883883
    vertex 12.000000 0.863465 0.903841
  endloop
endfacet
facet normal -0.000179 0.280218 0.313564
  outer loop
    vertex 12.000000 0.863465 0.903841
    vertex 9.000000 0.883883 0.883883
    vertex 9.000000 0.779362 0.977289
  endloop
endfacet
facet normal 0.000169 0.270511 0.316637
  outer loop
    vertex 12.000000 0.863465 0.903841
    vertex 9.000000 0.779362 0.977289
    vertex 12.000000 0.757919 0.994011
  endloop
endfacet
facet normal -0.000172 0.243348 0.342967
  outer loop
    vertex 12.000000 0.757919 0.994011
    vertex 9.000000 0.779362 0.977289
    vertex 9.000000 0.665040 1.058405
  endloop
endfacet
facet normal 0.000162 0.233733 0.344680
  outer loop
    vertex 12.000000 0.757919 0.994011
    vertex 9.000000 0.665040 1.058405
    vertex 12.000000 0.643026 1.071922
  endloop
endfacet
facet normal -0.000166 0.203417 0.368056
  outer loop
    vertex 12.000000 0.643026 1.071922
    vertex 9.000000 0.665040 1.058405
    vertex 9.000000 0.542355 1.126211
  endloop
endfacet
facet normal 0.000155 0.194073 0.368472
  outer loop
    vertex 12.000000 0.643026 1.071922
    vertex 9.000000 0.542355 1.126211
    vertex 12.000000 0.520202 1.136613
  endloop
endfacet
facet normal -0.000159 0.160929 0.388518
  outer loop
    vertex 12.000000 0.520202 1.136613
    vertex 9.000000 0.542355 1.126211
    vertex 9.000000 0.412849 1.179854
  endloop
endfacet
facet normal 0.000149 0.152018 0.387719
  outer loop
    vertex 12.000000 0.520202 1.136613
    vertex 9.000000 0.412849 1.179854
    vertex 12.000000 0.390962 1.187286
  endloop
endfacet
facet normal -0.000152 0.116417 0.404093
  outer loop
    vertex 12.000000 0.390962 1.187286
    vertex 9.000000 0.412849 1.179854
    vertex 9.000000 0.278151 1.218660
  endloop
endfacet
facet normal 0.000141 0.108089 0.402184
  outer loop
    vertex 12.000000 0.390962 1.187286
    vertex 9.000000 0.278151 1.218660
    vertex 12.000000 0.256901 1.223316
  endloop
endfacet
facet normal -0.000144 0.070441 0.414587
  outer loop
    vertex 12.000000 0.256901 1.223316
    vertex 9.000000 0.278151 1.218660
    vertex 9.000000 0.139956 1.242140
  endloop
endfacet
facet normal 0.000134 0.062827 0.411689
  outer loop
    vertex 12.000000 0.256901 1.223316
    vertex 9.000000 0.139956 1.242140
    vertex 12.000000 0.119671 1.244258
  endloop
endfacet
facet normal -0.000137 0.023579 0.419867
  outer loop
    vertex 12.000000 0.119671 1.244258
    vertex 9.000000 0.139956 1.242140
    vertex 9.000000 -0.000000 1.250000
  endloop
endfacet
facet normal 0.000127 0.016790 0.416117
  outer loop
    vertex 12.000000 0.119671 1.244258
    vertex 9.000000 -0.000000 1.250000
    vertex 12.000000 -0.019034 1.249855
  endloop
endfacet
facet normal -0.000129 -0.023579 0.419867
  outer loop
    vertex 12.000000 -0.019034 1.249855
    vertex 9.000000 -0.000000 1.250000
    vertex 9.000000 -0.139956 1.242140
  endloop
endfacet
facet normal 0.000119 -0.029454 0.415413
  outer loop
    vertex 12.000000 -0.019034 1.249855
    vertex 9.000000 -0.139956 1.242140
    vertex 12.000000 -0.157505 1.240037
  endloop
endfacet
facet normal -0.000121 -0.070441 0.414587
  outer loop
    vertex 12.000000 -0.157505 1.240037
    vertex 9.000000 -0.139956 1.242140
    vertex 9.000000 -0.278151 1.218660
  endloop
endfacet
facet normal 0.000111 -0.075335 0.409585
  outer loop
    vertex 12.000000 -0.157505 1.240037
    vertex 9.000000 -0.278151 1.218660
    vertex 12.000000 -0.294034 1.214926
  endloop
endfacet
facet normal -0.000113 -0.116417 0.404093
  outer loop
    vertex 12.000000 -0.294034 1.214926
    vertex 9.000000 -0.278151 1.218660
    vertex 9.000000 -0.412849 1.179854
  endloop
endfacet
facet normal 0.000103 -0.120286 0.398706
  outer loop
    vertex 12.000000 -0.294034 1.214926
    vertex 9.000000 -0.412849 1.179854
    vertex 12.000000 -0.426936 1.174830
  endloop
endfacet
facet normal -0.000105 -0.160929 0.388518
  outer loop
    vertex 12.000000 -0.426936 1.174830
    vertex 9.000000 -0.412849 1.179854
    vertex 9.000000 -0.542355 1.126211
  endloop
endfacet
facet normal 0.000095 -0.163755 0.382910
  outer loop
    vertex 12.000000 -0.426936 1.174830
    vertex 9.000000 -0.542355 1.126211
    vertex 12.000000 -0.554572 1.120245
  endloop
endfacet
facet normal -0.000097 -0.203417 0.368056
  outer loop
    vertex 12.000000 -0.554572 1.120245
    vertex 9.000000 -0.542355 1.126211
    vertex 9.000000 -0.665040 1.058405
  endloop
endfacet
facet normal 0.000086 -0.205203 0.362391
  outer loop
    vertex 12.000000 -0.554572 1.120245
    vertex 9.000000 -0.665040 1.058405
    vertex 12.000000 -0.675369 1.051844
  endloop
endfacet
facet normal -0.000088 -0.243348 0.342967
  outer loop
    vertex 12.000000 -0.675369 1.051844
    vertex 9.000000 -0.665040 1.058405
    vertex 9.000000 -0.779362 0.977289
  endloop
endfacet
facet normal 0.000077 -0.244121 0.337402
  outer loop
    vertex 12.000000 -0.675369 1.051844
    vertex 9.000000 -0.779362 0.977289
    vertex 12.000000 -0.787837 0.970471
  endloop
endfacet
facet normal -0.000079 -0.280218 0.313564
  outer loop
    vertex 12.000000 -0.787837 0.970471
    vertex 9.000000 -0.779362 0.977289
    vertex 9.000000 -0.883883 0.883883
  endloop
endfacet
facet normal 0.000068 -0.280028 0.308253
  outer loop
    vertex 12.000000 -0.787837 0.970471
    vertex 9.000000 -0.883883 0.883883
    vertex 12.000000 -0.890588 0.877128
  endloop
endfacet
facet normal -0.000070 -0.313564 0.280218
  outer loop
    vertex 12.000000 -0.890588 0.877128
    vertex 9.000000 -0.883883 0.883883
    vertex 9.000000 -0.977289 0.779362
  endloop
endfacet
facet normal 0.000059 -0.312481 0.275301
  outer loop
    vertex 12.000000 -0.890588 0.877128
    vertex 9.000000 -0.977289 0.779362
    vertex 12.000000 -0.982355 0.772968
  endloop
endfacet
facet normal -0.000060 -0.342967 0.243348
  outer loop
    vertex 12.000000 -0.982355 0.772968
    vertex 9.000000 -0.977289 0.779362
    vertex 9.000000 -1.058405 0.665040
  endloop
endfacet
facet normal 0.000050 -0.341081 0.238955
  outer loop
    vertex 12.000000 -0.982355 0.772968
    vertex 9.000000 -1.058405 0.665040
    vertex 12.000000 -1.062006 0.659274
  endloop
endfacet
facet normal -0.000051 -0.368056 0.203417
  outer loop
    vertex 12.000000 -1.062006 0.659274
    vertex 9.000000 -1.058405 0.665040
    vertex 9.000000 -1.126211 0.542355
  endloop
endfacet
facet normal 0.000040 -0.365474 0.199661
  outer loop
    vertex 12.000000 -1.062006 0.659274
    vertex 9.000000 -1.126211 0.542355
    vertex 12.000000 -1.128560 0.537450
  endloop
endfacet
facet normal -0.000041 -0.388518 0.160929
  outer loop
    vertex 12.000000 -1.128560 0.537450
    vertex 9.000000 -1.126211 0.542355
    vertex 9.000000 -1.179854 0.412849
  endloop
endfacet
facet normal 0.000031 -0.385359 0.157905
  outer loop
    vertex 12.000000 -1.128560 0.537450
    vertex 9.000000 -1.179854 0.412849
    vertex 12.000000 -1.181195 0.408997
  endloop
endfacet
facet normal -0.000031 -0.404093 0.116417
  outer loop
    vertex 12.000000 -1.181195 0.408997
    vertex 9.000000 -1.179854 0.412849
    vertex 9.000000 -1.218660 0.278151
  endloop
endfacet
facet normal 0.000021 -0.400492 0.114201
  outer loop
    vertex 12.000000 -1.181195 0.408997
    vertex 9.000000 -1.218660 0.278151
    vertex 12.000000 -1.219262 0.275499
  endloop
endfacet
facet normal -0.000021 -0.418640 0.070896
  outer loop
    vertex 12.000000 -1.219262 0.275499
    vertex 9.000000 -1.218660 0.278151
    vertex 9.000000 -1.242292 0.138604
  endloop
endfacet
facet normal 0.000000 -0.410685 0.069089
  outer loop
    vertex 12.000000 -1.219262 0.275499
    vertex 9.000000 -1.242292 0.138604
    vertex 12.000000 -1.242292 0.138604
  endloop
endfacet
facet normal 0.000000 -0.415813 0.023125
  outer loop
    vertex 12.000000 -1.242292 0.138604
    vertex 9.000000 -1.242292 0.138604
    vertex 12.000000 -1.250000 0.000000
  endloop
endfacet
facet normal -0.000000 -0.415813 0.023125
  outer loop
    vertex 12.000000 -1.250000 0.000000
    vertex 9.000000 -1.242292 0.138604
    vertex 9.000000 -1.250000 0.000000
  endloop
endfacet
facet normal 0.000000 -0.415813 -0.023125
  outer loop
    vertex 12.000000 -1.250000 0.000000
    vertex 9.000000 -1.250000 0.000000
    vertex 12.000000 -1.242292 -0.138604
  endloop
endfacet
facet normal -0.000000 -0.415813 -0.023125
  outer loop
    vertex 12.000000 -1.242292 -0.138604
    vertex 9.000000 -1.250000 0.000000
    vertex 9.000000 -1.242292 -0.138604
  endloop
endfacet
facet normal -0.000000 -0.410685 -0.069089
  outer loop
    vertex 12.000000 -1.242292 -0.138604
    vertex 9.000000 -1.242292 -0.138604
    vertex 12.000000 -1.219262 -0.275499
  endloop
endfacet
facet normal -0.000021 -0.418640 -0.070896
  outer loop
    vertex 12.000000 -1.219262 -0.275499
    vertex 9.000000 -1.242292 -0.138604
    vertex 9.000000 -1.218660 -0.278151
  endloop
endfacet
facet normal 0.000021 -0.400492 -0.114201
  outer loop
    vertex 12.000000 -1.219262 -0.275499
    vertex 9.000000 -1.218660 -0.278151
    vertex 12.000000 -1.181195 -0.408997
  endloop
endfacet
facet normal -0.000031 -0.404093 -0.116417
  outer loop
    vertex 12.000000 -1.181195 -0.408997
    vertex 9.000000 -1.218660 -0.278151
    vertex 9.000000 -1.179854 -0.412849
  endloop
endfacet
facet normal 0.000031 -0.385359 -0.157905
  outer loop
    vertex 12.000000 -1.181195 -0.408997
    vertex 9.000000 -1.179854 -0.412849
    vertex 12.000000 -1.128560 -0.537450
  endloop
endfacet
facet normal -0.000041 -0.388518 -0.160929
  outer loop
    vertex 12.000000 -1.128560 -0.537450
    vertex 9.000000 -1.179854 -0.412849
    vertex 9.000000 -1.126211 -0.542355
  endloop
endfacet
facet normal 0.000040 -0.365474 -0.199661
  outer loop
    vertex 12.000000 -1.128560 -0.537450
    vertex 9.000000 -1.126211 -0.542355
    vertex 12.000000 -1.062006 -0.659274
  endloop
endfacet
facet normal -0.000051 -0.368056 -0.203417
  outer loop
    vertex 12.000000 -1.062006 -0.659274
    vertex 9.000000 -1.126211 -0.542355
    vertex 9.000000 -1.058405 -0.665040
  endloop
endfacet
facet normal 0.000050 -0.341081 -0.238955
  outer loop
    vertex 12.000000 -1.062006 -0.659274
    vertex 9.000000 -1.058405 -0.665040
    vertex 12.000000 -0.982355 -0.772968
  endloop
endfacet
facet normal -0.000060 -0.342967 -0.243348
  outer loop
    vertex 12.000000 -0.982355 -0.772968
    vertex 9.000000 -1.058405 -0.665040
    vertex 9.000000 -0.977289 -0.779362
  endloop
endfacet
facet normal 0.000059 -0.312481 -0.275301
  outer loop
    vertex 12.000000 -0.982355 -0.772968
    vertex 9.000000 -0.977289 -0.779362
    vertex 12.000000 -0.890588 -0.877128
  endloop
endfacet
facet normal -0.000070 -0.313564 -0.280218
  outer loop
    vertex 12.000000 -0.890588 -0.877128
    vertex 9.000000 -0.977289 -0.779362
    vertex 9.000000 -0.883883 -0.883883
  endloop
endfacet
facet normal 0.000068 -0.280028 -0.308253
  outer loop
    vertex 12.000000 -0.890588 -0.877128
    vertex 9.000000 -0.883883 -0.883883
    vertex 12.000000 -0.787837 -0.970471
  endloop
endfacet
facet normal -0.000079 -0.280218 -0.313564
  outer loop
    vertex 12.000000 -0.787837 -0.970471
    vertex 9.000000 -0.883883 -0.883883
    vertex 9.000000 -0.779362 -0.977289
  endloop
endfacet
facet normal 0.000077 -0.244121 -0.337402
  outer loop
    vertex 12.000000 -0.787837 -0.970471
    vertex 9.000000 -0.779362 -0.977289
    vertex 12.000000 -0.675369 -1.051844
  endloop
endfacet
facet normal -0.000088 -0.243348 -0.342967
  outer loop
    vertex 12.000000 -0.675369 -1.051844
    vertex 9.000000 -0.779362 -0.977289
    vertex 9.000000 -0.665040 -1.058405
  endloop
endfacet
facet normal 0.000086 -0.205203 -0.362391
  outer loop
    vertex 12.000000 -0.675369 -1.051844
    vertex 9.000000 -0.665040 -1.058405
    vertex 12.000000 -0.554572 -1.120245
  endloop
endfacet
facet normal -0.000097 -0.203417 -0.368056
  outer loop
    vertex 12.000000 -0.554572 -1.120245
    vertex 9.000000 -0.665040 -1.058405
    vertex 9.000000 -0.542355 -1.126211
  endloop
endfacet
facet normal 0.000095 -0.163755 -0.382910
  outer loop
    vertex 12.000000 -0.554572 -1.120245
    vertex 9.000000 -0.542355 -1.126211
    vertex 12.000000 -0.426936 -1.174830
  endloop
endfacet
facet normal -0.000105 -0.160929 -0.388518
  outer loop
    vertex 12.000000 -0.426936 -1.174830
    vertex 9.000000 -0.542355 -1.126211
    vertex 9.000000 -0.412849 -1.179854
  endloop
endfacet
facet normal 0.000103 -0.120286 -0.398706
  outer loop
    vertex 12.000000 -0.426936 -1.174830
    vertex 9.000000 -0.412849 -1.179854
    vertex 12.000000 -0.294034 -1.214926
  endloop
endfacet
facet normal -0.000113 -0.116417 -0.404093
  outer loop
    vertex 12.000000 -0.294034 -1.214926
    vertex 9.000000 -0.412849 -1.179854
    vertex 9.000000 -0.278151 -1.218660
  endloop
endfacet
facet normal 0.000111 -0.075335 -0.409585
  outer loop
    vertex 12.000000 -0.294034 -1.214926
    vertex 9.000000 -0.278151 -1.218660
    vertex 12.000000 -0.157505 -1.240037
  endloop
endfacet
facet normal -0.000121 -0.070441 -0.414587
  outer loop
    vertex 12.000000 -0.157505 -1.240037
    vertex 9.000000 -0.278151 -1.218660
    vertex 9.000000 -0.139956 -1.242140
  endloop
endfacet
facet normal 0.000119 -0.029454 -0.415413
  outer loop
    vertex 12.000000 -0.157505 -1.240037
    vertex 9.000000 -0.139956 -1.242140
    vertex 12.000000 -0.019034 -1.249855
  endloop
endfacet
facet normal -0.000129 -0.023579 -0.419867
  outer loop
    vertex 12.000000 -0.019034 -1.249855
    vertex 9.000000 -0.139956 -1.242140
    vertex 9.000000 0.000000 -1.250000
  endloop
endfacet
facet normal 0.000127 0.016790 -0.416117
  outer loop
    vertex 12.000000 -0.019034 -1.249855
    vertex 9.000000 0.000000 -1.250000
    vertex 12.000000 0.119671 -1.244258
  endloop
endfacet
facet normal -0.000137 0.023579 -0.419867
  outer loop
    vertex 12.000000 0.119671 -1.244258
    vertex 9.000000 0.000000 -1.250000
    vertex 9.000000 0.139956 -1.242140
  endloop
endfacet
facet normal 0.000134 0.062827 -0.411689
  outer loop
    vertex 12.000000 0.119671 -1.244258
    vertex 9.000000 0.139956 -1.242140
    vertex 12.000000 0.256901 -1.223316
  endloop
endfacet
facet normal -0.000144 0.070441 -0.414587
  outer loop
    vertex 12.000000 0.256901 -1.223316
    vertex 9.000000 0.139956 -1.242140
    vertex 9.000000 0.278151 -1.218660
  endloop
endfacet
facet normal 0.000141 0.108089 -0.402184
  outer loop
    vertex 12.000000 0.256901 -1.223316
    vertex 9.000000 0.278151 -1.218660
    vertex 12.000000 0.390962 -1.187286
  endloop
endfacet
facet normal -0.000152 0.116417 -0.404093
  outer loop
    vertex 12.000000 0.390962 -1.187286
    vertex 9.000000 0.278151 -1.218660
    vertex 9.000000 0.412849 -1.179854
  endloop
endfacet
facet normal 0.000149 0.152018 -0.387719
  outer loop
    vertex 12.000000 0.390962 -1.187286
    vertex 9.000000 0.412849 -1.179854
    vertex 12.000000 0.520202 -1.136613
  endloop
endfacet
facet normal -0.000159 0.160929 -0.388518
  outer loop
    vertex 12.000000 0.520202 -1.136613
    vertex 9.000000 0.412849 -1.179854
    vertex 9.000000 0.542355 -1.126211
  endloop
endfacet
facet normal 0.000155 0.194073 -0.368472
  outer loop
    vertex 12.000000 0.520202 -1.136613
    vertex 9.000000 0.542355 -1.126211
    vertex 12.000000 0.643026 -1.071922
  endloop
endfacet
facet normal -0.000166 0.203417 -0.368056
  outer loop
    vertex 12.000000 0.643026 -1.071922
    vertex 9.000000 0.542355 -1.126211
    vertex 9.000000 0.665040 -1.058405
  endloop
endfacet
facet normal 0.000162 0.233733 -0.344680
  outer loop
    vertex 12.000000 0.643026 -1.071922
    vertex 9.000000 0.665040 -1.058405
    vertex 12.000000 0.757919 -0.994011
  endloop
endfacet
facet normal -0.000172 0.243348 -0.342967
  outer loop
    vertex 12.000000 0.757919 -0.994011
    vertex 9.000000 0.665040 -1.058405
    vertex 9.000000 0.779362 -0.977289
  endloop
endfacet
facet normal 0.000169 0.270511 -0.316637
  outer loop
    vertex 12.000000 0.757919 -0.994011
    vertex 9.000000 0.779362 -0.977289
    vertex 12.000000 0.863465 -0.903841
  endloop
endfacet
facet normal -0.000179 0.280218 -0.313564
  outer loop
    vertex 12.000000 0.863465 -0.903841
    vertex 9.000000 0.779362 -0.977289
    vertex 9.000000 0.883883 -0.883883
  endloop
endfacet
facet normal 0.000175 0.303953 -0.284689
  outer loop
    vertex 12.000000 0.863465 -0.903841
    vertex 9.000000 0.883883 -0.883883
    vertex 12.000000 0.958361 -0.802523
  endloop
endfacet
facet normal -0.000185 0.313564 -0.280218
  outer loop
    vertex 12.000000 0.958361 -0.802523
    vertex 9.000000 0.883883 -0.883883
    vertex 9.000000 0.977289 -0.779362
  endloop
endfacet
facet normal 0.000181 0.333646 -0.249231
  outer loop
    vertex 12.000000 0.958361 -0.802523
    vertex 9.000000 0.977289 -0.779362
    vertex 12.000000 1.041438 -0.691308
  endloop
endfacet
facet normal -0.000191 0.342967 -0.243348
  outer loop
    vertex 12.000000 1.041438 -0.691308
    vertex 9.000000 0.977289 -0.779362
    vertex 9.000000 1.058405 -0.665040
  endloop
endfacet
facet normal 0.000187 0.359224 -0.210698
  outer loop
    vertex 12.000000 1.041438 -0.691308
    vertex 9.000000 1.058405 -0.665040
    vertex 12.000000 1.111671 -0.571567
  endloop
endfacet
facet normal -0.000197 0.368056 -0.203417
  outer loop
    vertex 12.000000 1.111671 -0.571567
    vertex 9.000000 1.058405 -0.665040
    vertex 9.000000 1.126211 -0.542355
  endloop
endfacet
facet normal 0.000192 0.380372 -0.169566
  outer loop
    vertex 12.000000 1.111671 -0.571567
    vertex 9.000000 1.126211 -0.542355
    vertex 12.000000 1.168193 -0.444776
  endloop
endfacet
facet normal -0.000202 0.388518 -0.160929
  outer loop
    vertex 12.000000 1.168193 -0.444776
    vertex 9.000000 1.126211 -0.542355
    vertex 9.000000 1.179854 -0.412849
  endloop
endfacet
facet normal 0.000198 0.396828 -0.126343
  outer loop
    vertex 12.000000 1.168193 -0.444776
    vertex 9.000000 1.179854 -0.412849
    vertex 12.000000 1.210307 -0.312500
  endloop
endfacet
facet normal 0.000000 0.301046 -0.091359
  outer loop
    vertex 12.000000 1.210307 -0.312500
    vertex 9.000000 1.179854 -0.412849
    vertex 6.000000 1.179854 -0.412849
  endloop
endfacet
facet normal 0.000000 1.204186 -0.365437
  outer loop
    vertex 12.000000 1.210307 -0.312500
    vertex 6.000000 1.179854 -0.412849
    vertex 0.000000 1.210307 -0.312500
  endloop
endfacet
facet normal 0.000000 0.301046 -0.091359
  outer loop
    vertex 0.000000 1.210307 -0.312500
    vertex 6.000000 1.179854 -0.412849
    vertex 3.000000 1.179854 -0.412849
  endloop
endfacet
facet normal -0.000198 0.396828 -0.126343
  outer loop
    vertex 0.000000 1.210307 -0.312500
    vertex 3.000000 1.179854 -0.412849
    vertex 0.000000 1.168193 -0.444776
  endloop
endfacet
facet normal 0.000202 0.388518 -0.160929
  outer loop
    vertex 0.000000 1.168193 -0.444776
    vertex 3.000000 1.179854 -0.412849
    vertex 3.000000 1.126211 -0.542355
  endloop
endfacet
facet normal -0.000192 0.380372 -0.169566
  outer loop
    vertex 0.000000 1.168193 -0.444776
    vertex 3.000000 1.126211 -0.542355
    vertex 0.000000 1.111671 -0.571567
  endloop
endfacet
facet normal 0.000197 0.368056 -0.203417
  outer loop
    vertex 0.000000 1.111671 -0.571567
    vertex 3.000000 1.126211 -0.542355
    vertex 3.000000 1.058405 -0.665040
  endloop
endfacet
facet normal -0.000187 0.359224 -0.210698
  outer loop
    vertex 0.000000 1.111671 -0.571567
    vertex 3.000000 1.058405 -0.665040
    vertex 0.000000 1.041438 -0.691308
  endloop
endfacet
facet normal 0.000191 0.342967 -0.243348
  outer loop
    vertex 0.000000 1.041438 -0.691308
    vertex 3.000000 1.058405 -0.665040
    vertex 3.000000 0.977289 -0.779362
  endloop
endfacet
facet normal -0.000181 0.333646 -0.249231
  outer loop
    vertex 0.000000 1.041438 -0.691308
    vertex 3.000000 0.977289 -0.779362
    vertex 0.000000 0.958361 -0.802523
  endloop
endfacet
facet normal 0.000185 0.313564 -0.280218
  outer loop
    vertex 0.000000 0.958361 -0.802523
    vertex 3.000000 0.977289 -0.779362
    vertex 3.000000 0.883883 -0.883883
  endloop
endfacet
facet normal -0.000175 0.303953 -0.284689
  outer loop
    vertex 0.000000 0.958361 -0.802523
    vertex 3.000000 0.883883 -0.883883
    vertex 0.000000 0.863465 -0.903841
  endloop
endfacet
facet normal 0.000179 0.280218 -0.313564
  outer loop
    vertex 0.000000 0.863465 -0.903841
    vertex 3.000000 0.883883 -0.883883
    vertex 3.000000 0.779362 -0.977289
  endloop
endfacet
facet normal -0.000169 0.270511 -0.316637
  outer loop
    vertex 0.000000 0.863465 -0.903841
    vertex 3.000000 0.779362 -0.977289
    vertex 0.000000 0.757919 -0.994011
  endloop
endfacet
facet normal 0.000172 0.243348 -0.342967
  outer loop
    vertex 0.000000 0.757919 -0.994011
    vertex 3.000000 0.779362 -0.977289
    vertex 3.000000 0.665040 -1.058405
  endloop
endfacet
facet normal -0.000162 0.233733 -0.344680
  outer loop
    vertex 0.000000 0.757919 -0.994011
    vertex 3.000000 0.665040 -1.058405
    vertex 0.000000 0.643026 -1.071922
  endloop
endfacet
facet normal 0.000166 0.203417 -0.368056
  outer loop
    vertex 0.000000 0.643026 -1.071922
    vertex 3.000000 0.665040 -1.058405
    vertex 3.000000 0.542355 -1.126211
  endloop
endfacet
facet normal -0.000155 0.194073 -0.368472
  outer loop
    vertex 0.000000 0.643026 -1.071922
    vertex 3.000000 0.542355 -1.126211
    vertex 0.000000 0.520202 -1.136613
  endloop
endfacet
facet normal 0.000159 0.160929 -0.388518
  outer loop
    vertex 0.000000 0.520202 -1.136613
    vertex 3.000000 0.542355 -1.126211
    vertex 3.000000 0.412849 -1.179854
  endloop
endfacet
facet normal -0.000149 0.152018 -0.387719
  outer loop
    vertex 0.000000 0.520202 -1.136613
    vertex 3.000000 0.412849 -1.179854
    vertex 0.000000 0.390962 -1.187286
  endloop
endfacet
facet normal 0.000152 0.116417 -0.404093
  outer loop
    vertex 0.000000 0.390962 -1.187286
    vertex 3.000000 0.412849 -1.179854
    vertex 3.000000 0.278151 -1.218660
  endloop
endfacet
facet normal -0.000141 0.108089 -0.402184
  outer loop
    vertex 0.000000 0.390962 -1.187286
    vertex 3.000000 0.278151 -1.218660
    vertex 0.000000 0.256901 -1.223316
  endloop
endfacet
facet normal 0.000144 0.070441 -0.414587
  outer loop
    vertex 0.000000 0.256901 -1.223316
    vertex 3.000000 0.278151 -1.218660
    vertex 3.000000 0.139956 -1.242140
  endloop
endfacet
facet normal -0.000134 0.062827 -0.411689
  outer loop
    vertex 0.000000 0.256901 -1.223316
    vertex 3.000000 0.139956 -1.242140
    vertex 0.000000 0.119671 -1.244258
  endloop
endfacet
facet normal 0.000137 0.023579 -0.419867
  outer loop
    vertex 0.000000 0.119671 -1.244258
    vertex 3.000000 0.139956 -1.242140
    vertex 3.000000 0.000000 -1.250000
  endloop
endfacet
facet normal -0.000127 0.016790 -0.416117
  outer loop
    vertex 0.000000 0.119671 -1.244258
    vertex 3.000000 0.000000 -1.250000
    vertex 0.000000 -0.019034 -1.249855
  endloop
endfacet
facet normal 0.000129 -0.023579 -0.419867
  outer loop
    vertex 0.000000 -0.019034 -1.249855
    vertex 3.000000 0.000000 -1.250000
    vertex 3.000000 -0.139956 -1.242140
  endloop
endfacet
facet normal -0.000119 -0.029454 -0.415413
  outer loop
    vertex 0.000000 -0.019034 -1.249855
    vertex 3.000000 -0.139956 -1.242140
    vertex 0.000000 -0.157505 -1.240037
  endloop
endfacet
facet normal 0.000121 -0.070441 -0.414587
  outer loop
    vertex 0.000000 -0.157505 -1.240037
    vertex 3.000000 -0.139956 -1.242140
    vertex 3.000000 -0.278151 -1.218660
  endloop
endfacet
facet normal -0.000111 -0.075335 -0.409585
  outer loop
    vertex 0.000000 -0.157505 -1.240037
    vertex 3.000000 -0.278151 -1.218660
    vertex 0.000000 -0.294034 -1.214926
  endloop
endfacet
facet normal 0.000113 -0.116417 -0.404093
  outer loop
    vertex 0.000000 -0.294034 -1.214926
    vertex 3.000000 -0.278151 -1.218660
    vertex 3.000000 -0.412849 -1.179854
  endloop
endfacet
facet normal -0.000103 -0.120286 -0.398706
  outer loop
    vertex 0.000000 -0.294034 -1.214926
    vertex 3.000000 -0.412849 -1.179854
    vertex 0.000000 -0.426936 -1.174830
  endloop
endfacet
facet normal 0.000105 -0.160929 -0.388518
  outer loop
    vertex 0.000000 -0.426936 -1.174830
    vertex 3.000000 -0.412849 -1.179854
    vertex 3.000000 -0.542355 -1.126211
  endloop
endfacet
facet normal -0.000095 -0.163755 -0.382910
  outer loop
    vertex 0.000000 -0.426936 -1.174830
    vertex 3.000000 -0.542355 -1.126211
    vertex 0.000000 -0.554572 -1.120245
  endloop
endfacet
facet normal 0.000097 -0.203417 -0.368056
  outer loop
    vertex 0.000000 -0.554572 -1.120245
    vertex 3.000000 -0.542355 -1.126211
    vertex 3.000000 -0.665040 -1.058405
  endloop
endfacet
facet normal -0.000086 -0.205203 -0.362391
  outer loop
    vertex 0.000000 -0.554572 -1.120245
    vertex 3.000000 -0.665040 -1.058405
    vertex 0.000000 -0.675369 -1.051844
  endloop
endfacet
facet normal 0.000088 -0.243348 -0.342967
  outer loop
    vertex 0.000000 -0.675369 -1.051844
    vertex 3.000000 -0.665040 -1.058405
    vertex 3.000000 -0.779362 -0.977289
  endloop
endfacet
facet normal -0.000077 -0.244121 -0.337402
  outer loop
    vertex 0.000000 -0.675369 -1.051844
    vertex 3.000000 -0.779362 -0.977289
    vertex 0.000000 -0.787837 -0.970471
  endloop
endfacet
facet normal 0.000079 -0.280218 -0.313564
  outer loop
    vertex 0.000000 -0.787837 -0.970471
    vertex 3.000000 -0.779362 -0.977289
    vertex 3.000000 -0.883883 -0.883883
  endloop
endfacet
facet normal -0.000068 -0.280028 -0.308253
  outer loop
    vertex 0.000000 -0.787837 -0.970471
    vertex 3.000000 -0.883883 -0.883883
    vertex 0.000000 -0.890588 -0.877128
  endloop
endfacet
facet normal 0.000070 -0.313564 -0.280218
  outer loop
    vertex 0.000000 -0.890588 -0.877128
    vertex 3.000000 -0.883883 -0.883883
    vertex 3.000000 -0.977289 -0.779362
  endloop
endfacet
facet normal -0.000059 -0.312481 -0.275301
  outer loop
    vertex 0.000000 -0.890588 -0.877128
    vertex 3.000000 -0.977289 -0.779362
    vertex 0.000000 -0.982355 -0.772968
  endloop
endfacet
facet normal 0.000060 -0.342967 -0.243348
  outer loop
    vertex 0.000000 -0.982355 -0.772968
    vertex 3.000000 -0.977289 -0.779362
    vertex 3.000000 -1.058405 -0.665040
  endloop
endfacet
facet normal -0.000050 -0.341081 -0.238955
  outer loop
    vertex 0.000000 -0.982355 -0.772968
    vertex 3.000000 -1.058405 -0.665040
    vertex 0.000000 -1.062006 -0.659274
  endloop
endfacet
facet normal 0.000051 -0.368056 -0.203417
  outer loop
    vertex 0.000000 -1.062006 -0.659274
    vertex 3.000000 -1.058405 -0.665040
    vertex 3.000000 -1.126211 -0.542355
  endloop
endfacet
facet normal -0.000040 -0.365474 -0.199661
  outer loop
    vertex 0.000000 -1.062006 -0.659274
    vertex 3.000000 -1.126211 -0.542355
    vertex 0.000000 -1.128560 -0.537450
  endloop
endfacet
facet normal 0.000041 -0.388518 -0.160929
  outer loop
    vertex 0.000000 -1.128560 -0.537450
    vertex 3.000000 -1.126211 -0.542355
    vertex 3.000000 -1.179854 -0.412849
  endloop
endfacet
facet normal -0.000031 -0.385359 -0.157905
  outer loop
    vertex 0.000000 -1.128560 -0.537450
    vertex 3.000000 -1.179854 -0.412849
    vertex 0.000000 -1.181195 -0.408997
  endloop
endfacet
facet normal 0.000031 -0.404093 -0.116417
  outer loop
    vertex 0.000000 -1.181195 -0.408997
    vertex 3.000000 -1.179854 -0.412849
    vertex 3.000000 -1.218660 -0.278151
  endloop
endfacet
facet normal -0.000021 -0.400492 -0.114201
  outer loop
    vertex 0.000000 -1.181195 -0.408997
    vertex 3.000000 -1.218660 -0.278151
    vertex 0.000000 -1.219262 -0.275499
  endloop
endfacet
facet normal 0.000021 -0.418640 -0.070896
  outer loop
    vertex 0.000000 -1.219262 -0.275499
    vertex 3.000000 -1.218660 -0.278151
    vertex 3.000000 -1.242292 -0.138604
  endloop
endfacet
facet normal 0.000000 -0.410685 -0.069089
  outer loop
    vertex 0.000000 -1.219262 -0.275499
    vertex 3.000000 -1.242292 -0.138604
    vertex 0.000000 -1.242292 -0.138604
  endloop
endfacet
facet normal 0.000000 -0.415813 -0.023125
  outer loop
    vertex 0.000000 -1.242292 -0.138604
    vertex 3.000000 -1.242292 -0.138604
    vertex 0.000000 -1.250000 0.000000
  endloop
endfacet
facet normal -0.000000 -0.415813 -0.023125
  outer loop
    vertex 0.000000 -1.250000 0.000000
    vertex 3.000000 -1.242292 -0.138604
    vertex 3.000000 -1.250000 0.000000
  endloop
endfacet
facet normal 0.000000 -0.415813 0.023125
  outer loop
    vertex 0.000000 -1.250000 0.000000
    vertex 3.000000 -1.250000 0.000000
    vertex 0.000000 -1.242292 0.138604
  endloop
endfacet
facet normal 0.000000 -0.415813 0.023125
  outer loop
    vertex 0.000000 -1.242292 0.138604
    vertex 3.000000 -1.250000 0.000000
    vertex 3.000000 -1.242292 0.138604
  endloop
endfacet
facet normal 0.000000 -0.410685 0.069089
  outer loop
    vertex 0.000000 -1.242292 0.138604
    vertex 3.000000 -1.242292 0.138604
    vertex 0.000000 -1.219262 0.275499
  endloop
endfacet
facet normal 0.000021 -0.418640 0.070896
  outer loop
    vertex 0.000000 -1.219262 0.275499
    vertex 3.000000 -1.242292 0.138604
    vertex 3.000000 -1.218660 0.278151
  endloop
endfacet
facet normal -0.000021 -0.400492 0.114201
  outer loop
    vertex 0.000000 -1.219262 0.275499
    vertex 3.000000 -1.218660 0.278151
    vertex 0.000000 -1.181195 0.408997
  endloop
endfacet
facet normal 0.000031 -0.404093 0.116417
  outer loop
    vertex 0.000000 -1.181195 0.408997
    vertex 3.000000 -1.218660 0.278151
    vertex 3.000000 -1.179854 0.412849
  endloop
endfacet
facet normal -0.000031 -0.385359 0.157905
  outer loop
    vertex 0.000000 -1.181195 0.408997
    vertex 3.000000 -1.179854 0.412849
    vertex 0.000000 -1.128560 0.537450
  endloop
endfacet
facet normal 0.000041 -0.388518 0.160929
  outer loop
    vertex 0.000000 -1.128560 0.537450
    vertex 3.000000 -1.179854 0.412849
    vertex 3.000000 -1.126211 0.542355
  endloop
endfacet
facet normal -0.000040 -0.365474 0.199661
  outer loop
    vertex 0.000000 -1.128560 0.537450
    vertex 3.000000 -1.126211 0.542355
    vertex 0.000000 -1.062006 0.659274
  endloop
endfacet
facet normal 0.000051 -0.368056 0.203417
  outer loop
    vertex 0.000000 -1.062006 0.659274
    vertex 3.000000 -1.126211 0.542355
    vertex 3.000000 -1.058405 0.665040
  endloop
endfacet
facet normal -0.000050 -0.341081 0.238955
  outer loop
    vertex 0.000000 -1.062006 0.659274
    vertex 3.000000 -1.058405 0.665040
    vertex 0.000000 -0.982355 0.772968
  endloop
endfacet
facet normal 0.000060 -0.342967 0.243348
  outer loop
    vertex 0.000000 -0.982355 0.772968
    vertex 3.000000 -1.058405 0.665040
    vertex 3.000000 -0.977289 0.779362
  endloop
endfacet
facet normal -0.000059 -0.312481 0.275301
  outer loop
    vertex 0.000000 -0.982355 0.772968
    vertex 3.000000 -0.977289 0.779362
    vertex 0.000000 -0.890588 0.877128
  endloop
endfacet
facet normal 0.000070 -0.313564 0.280218
  outer loop
    vertex 0.000000 -0.890588 0.877128
    vertex 3.000000 -0.977289 0.779362
    vertex 3.000000 -0.883883 0.883883
  endloop
endfacet
facet normal -0.000068 -0.280028 0.308253
  outer loop
    vertex 0.000000 -0.890588 0.877128
    vertex 3.000000 -0.883883 0.883883
    vertex 0.000000 -0.787837 0.970471
  endloop
endfacet
facet normal 0.000079 -0.280218 0.313564
  outer loop
    vertex 0.000000 -0.787837 0.970471
    vertex 3.000000 -0.883883 0.883883
    vertex 3.000000 -0.779362 0.977289
  endloop
endfacet
facet normal -0.000077 -0.244121 0.337402
  outer loop
    vertex 0.000000 -0.787837 0.970471
    vertex 3.000000 -0.779362 0.977289
    vertex 0.000000 -0.675369 1.051844
  endloop
endfacet
facet normal 0.000088 -0.243348 0.342967
  outer loop
    vertex 0.000000 -0.675369 1.051844
    vertex 3.000000 -0.779362 0.977289
    vertex 3.000000 -0.665040 1.058405
  endloop
endfacet
facet normal -0.000086 -0.205203 0.362391
  outer loop
    vertex 0.000000 -0.675369 1.051844
    vertex 3.000000 -0.665040 1.058405
    vertex 0.000000 -0.554572 1.120245
  endloop
endfacet
facet normal 0.000097 -0.203417 0.368056
  outer loop
    vertex 0.000000 -0.554572 1.120245
    vertex 3.000000 -0.665040 1.058405
    vertex 3.000000 -0.542355 1.126211
  endloop
endfacet
facet normal -0.000095 -0.163755 0.382910
  outer loop
    vertex 0.000000 -0.554572 1.120245
    vertex 3.000000 -0.542355 1.126211
    vertex 0.000000 -0.426936 1.174830
  endloop
endfacet
facet normal 0.000105 -0.160929 0.388518
  outer loop
    vertex 0.000000 -0.426936 1.174830
    vertex 3.000000 -0.542355 1.126211
    vertex 3.000000 -0.412849 1.179854
  endloop
endfacet
facet normal -0.000103 -0.120286 0.398706
  outer loop
    vertex 0.000000 -0.426936 1.174830
    vertex 3.000000 -0.412849 1.179854
    vertex 0.000000 -0.294034 1.214926
  endloop
endfacet
facet normal 0.000113 -0.116417 0.404093
  outer loop
    vertex 0.000000 -0.294034 1.214926
    vertex 3.000000 -0.412849 1.179854
    vertex 3.000000 -0.278151 1.218660
  endloop
endfacet
facet normal -0.000111 -0.075335 0.409585
  outer loop
    vertex 0.000000 -0.294034 1.214926
    vertex 3.000000 -0.278151 1.218660
    vertex 0.000000 -0.157505 1.240037
  endloop
endfacet
facet normal 0.000121 -0.070441 0.414587
  outer loop
    vertex 0.000000 -0.157505 1.240037
    vertex 3.000000 -0.278151 1.218660
    vertex 3.000000 -0.139956 1.242140
  endloop
endfacet
facet normal -0.000119 -0.029454 0.415413
  outer loop
    vertex 0.000000 -0.157505 1.240037
    vertex 3.000000 -0.139956 1.242140
    vertex 0.000000 -0.019034 1.249855
  endloop
endfacet
facet normal 0.000129 -0.023579 0.419867
  outer loop
    vertex 0.000000 -0.019034 1.249855
    vertex 3.000000 -0.139956 1.242140
    vertex 3.000000 0.000000 1.250000
  endloop
endfacet
facet normal -0.000127 0.016790 0.416117
  outer loop
    vertex 0.000000 -0.019034 1.249855
    vertex 3.000000 0.000000 1.250000
    vertex 0.000000 0.119671 1.244258
  endloop
endfacet
facet normal 0.000137 0.023579 0.419867
  outer loop
    vertex 0.000000 0.119671 1.244258
    vertex 3.000000 0.000000 1.250000
    vertex 3.000000 0.139956 1.242140
  endloop
endfacet
facet normal -0.000134 0.062827 0.411689
  outer loop
    vertex 0.000000 0.119671 1.244258
    vertex 3.000000 0.139956 1.242140
    vertex 0.000000 0.256901 1.223316
  endloop
endfacet
facet normal 0.000144 0.070441 0.414587
  outer loop
    vertex 0.000000 0.256901 1.223316
    vertex 3.000000 0.139956 1.242140
    vertex 3.000000 0.278151 1.218660
  endloop
endfacet
facet normal -0.000141 0.108089 0.402184
  outer loop
    vertex 0.000000 0.256901 1.223316
    vertex 3.000000 0.278151 1.218660
    vertex 0.000000 0.390962 1.187286
  endloop
endfacet
facet normal 0.000152 0.116417 0.404093
  outer loop
    vertex 0.000000 0.390962 1.187286
    vertex 3.000000 0.278151 1.218660
    vertex 3.000000 0.412849 1.179854
  endloop
endfacet
facet normal -0.000149 0.152018 0.387719
  outer loop
    vertex 0.000000 0.390962 1.187286
    vertex 3.000000 0.412849 1.179854
    vertex 0.000000 0.520202 1.136613
  endloop
endfacet
facet normal 0.000159 0.160929 0.388518
  outer loop
    vertex 0.000000 0.520202 1.136613
    vertex 3.000000 0.412849 1.179854
    vertex 3.000000 0.542355 1.126211
  endloop
endfacet
facet normal -0.000155 0.194073 0.368472
  outer loop
    vertex 0.000000 0.520202 1.136613
    vertex 3.000000 0.542355 1.126211
    vertex 0.000000 0.643026 1.071922
  endloop
endfacet
facet normal 0.000166 0.203417 0.368056
  outer loop
    vertex 0.000000 0.643026 1.071922
    vertex 3.000000 0.542355 1.126211
    vertex 3.000000 0.665040 1.058405
  endloop
endfacet
facet normal -0.000162 0.233733 0.344680
  outer loop
    vertex 0.000000 0.643026 1.071922
    vertex 3.000000 0.665040 1.058405
    vertex 0.000000 0.757919 0.994011
  endloop
endfacet
facet normal 0.000172 0.243348 0.342967
  outer loop
    vertex 0.000000 0.757919 0.994011
    vertex 3.000000 0.665040 1.058405
    vertex 3.000000 0.779362 0.977289
  endloop
endfacet
facet normal -0.000169 0.270511 0.316637
  outer loop
    vertex 0.000000 0.757919 0.994011
    vertex 3.000000 0.779362 0.977289
    vertex 0.000000 0.863465 0.903841
  endloop
endfacet
facet normal 0.000179 0.280218 0.313564
  outer loop
    vertex 0.000000 0.863465 0.903841
    vertex 3.000000 0.779362 0.977289
    vertex 3.000000 0.883883 0.883883
  endloop
endfacet
facet normal -0.000175 0.303953 0.284689
  outer loop
    vertex 0.000000 0.863465 0.903841
    vertex 3.000000 0.883883 0.883883
    vertex 0.000000 0.958361 0.802523
  endloop
endfacet
facet normal 0.000185 0.313564 0.280218
  outer loop
    vertex 0.000000 0.958361 0.802523
    vertex 3.000000 0.883883 0.883883
    vertex 3.000000 0.977289 0.779362
  endloop
endfacet
facet normal -0.000181 0.333646 0.249231
  outer loop
    vertex 0.000000 0.958361 0.802523
    vertex 3.000000 0.977289 0.779362
    vertex 0.000000 1.041438 0.691308
  endloop
endfacet
facet normal 0.000191 0.342967 0.243348
  outer loop
    vertex 0.000000 1.041438 0.691308
    vertex 3.000000 0.977289 0.779362
    vertex 3.000000 1.058405 0.665040
  endloop
endfacet
facet normal -0.000187 0.359224 0.210698
  outer loop
    vertex 0.000000 1.041438 0.691308
    vertex 3.000000 1.058405 0.665040
    vertex 0.000000 1.111671 0.571567
  endloop
endfacet
facet normal 0.000197 0.368056 0.203417
  outer loop
    vertex 0.000000 1.111671 0.571567
    vertex 3.000000 1.058405 0.665040
    vertex 3.000000 1.126211 0.542355
  endloop
endfacet
facet normal -0.000192 0.380372 0.169566
  outer loop
    vertex 0.000000 1.111671 0.571567
    vertex 3.000000 1.126211 0.542355
    vertex 0.000000 1.168193 0.444776
  endloop
endfacet
facet normal 0.000202 0.388518 0.160929
  outer loop
    vertex 0.000000 1.168193 0.444776
    vertex 3.000000 1.126211 0.542355
    vertex 3.000000 1.179854 0.412849
  endloop
endfacet
facet normal -0.000000 0.023579 0.419867
  outer loop
    vertex 3.000000 0.000000 1.250000
    vertex 6.000000 0.000000 1.250000
    vertex 3.000000 0.139956 1.242140
  endloop
endfacet
facet normal -0.000000 0.023579 0.419867
  outer loop
    vertex 3.000000 0.139956 1.242140
    vertex 6.000000 0.000000 1.250000
    vertex 6.000000 0.139956 1.242140
  endloop
endfacet
facet normal -0.000000 0.070441 0.414587
  outer loop
    vertex 3.000000 0.139956 1.242140
    vertex 6.000000 0.139956 1.242140
    vertex 3.000000 0.278151 1.218660
  endloop
endfacet
facet normal -0.000000 0.070441 0.414587
  outer loop
    vertex 3.000000 0.278151 1.218660
    vertex 6.000000 0.139956 1.242140
    vertex 6.000000 0.278151 1.218660
  endloop
endfacet
facet normal -0.000000 0.116417 0.404093
  outer loop
    vertex 3.000000 0.278151 1.218660
    vertex 6.000000 0.278151 1.218660
    vertex 3.000000 0.412849 1.179854
  endloop
endfacet
facet normal -0.000000 0.116417 0.404093
  outer loop
    vertex 3.000000 0.412849 1.179854
    vertex 6.000000 0.278151 1.218660
    vertex 6.000000 0.412849 1.179854
  endloop
endfacet
facet normal -0.000000 0.160929 0.388518
  outer loop
    vertex 3.000000 0.412849 1.179854
    vertex 6.000000 0.412849 1.179854
    vertex 3.000000 0.542355 1.126211
  endloop
endfacet
facet normal -0.000000 0.160929 0.388518
  outer loop
    vertex 3.000000 0.542355 1.126211
    vertex 6.000000 0.412849 1.179854
    vertex 6.000000 0.542355 1.126211
  endloop
endfacet
facet normal -0.000000 0.203417 0.368056
  outer loop
    vertex 3.000000 0.542355 1.126211
    vertex 6.000000 0.542355 1.126211
    vertex 3.000000 0.665040 1.058405
  endloop
endfacet
facet normal -0.000000 0.203417 0.368056
  outer loop
    vertex 3.000000 0.665040 1.058405
    vertex 6.000000 0.542355 1.126211
    vertex 6.000000 0.665040 1.058405
  endloop
endfacet
facet normal -0.000000 0.243348 0.342967
  outer loop
    vertex 3.000000 0.665040 1.058405
    vertex 6.000000 0.665040 1.058405
    vertex 3.000000 0.779362 0.977289
  endloop
endfacet
facet normal -0.000000 0.243348 0.342967
  outer loop
    vertex 3.000000 0.779362 0.977289
    vertex 6.000000 0.665040 1.058405
    vertex 6.000000 0.779362 0.977289
  endloop
endfacet
facet normal -0.000000 0.280218 0.313564
  outer loop
    vertex 3.000000 0.779362 0.977289
    vertex 6.000000 0.779362 0.977289
    vertex 3.000000 0.883883 0.883883
  endloop
endfacet
facet normal -0.000000 0.280218 0.313564
  outer loop
    vertex 3.000000 0.883883 0.883883
    vertex 6.000000 0.779362 0.977289
    vertex 6.000000 0.883883 0.883883
  endloop
endfacet
facet normal -0.000000 0.313564 0.280218
  outer loop
    vertex 3.000000 0.883883 0.883883
    vertex 6.000000 0.883883 0.883883
    vertex 3.000000 0.977289 0.779362
  endloop
endfacet
facet normal -0.000000 0.313564 0.280218
  outer loop
    vertex 3.000000 0.977289 0.779362
    vertex 6.000000 0.883883 0.883883
    vertex 6.000000 0.977289 0.779362
  endloop
endfacet
facet normal -0.000000 0.342967 0.243348
  outer loop
    vertex 3.000000 0.977289 0.779362
    vertex 6.000000 0.977289 0.779362
    vertex 3.000000 1.058405 0.665040
  endloop
endfacet
facet normal -0.000000 0.342967 0.243348
  outer loop
    vertex 3.000000 1.058405 0.665040
    vertex 6.000000 0.977289 0.779362
    vertex 6.000000 1.058405 0.665040
  endloop
endfacet
facet normal -0.000000 0.368056 0.203417
  outer loop
    vertex 3.000000 1.058405 0.665040
    vertex 6.000000 1.058405 0.665040
    vertex 3.000000 1.126211 0.542355
  endloop
endfacet
facet normal -0.000000 0.368056 0.203417
  outer loop
    vertex 3.000000 1.126211 0.542355
    vertex 6.000000 1.058405 0.665040
    vertex 6.000000 1.126211 0.542355
  endloop
endfacet
facet normal -0.000000 0.388518 0.160929
  outer loop
    vertex 3.000000 1.126211 0.542355
    vertex 6.000000 1.126211 0.542355
    vertex 3.000000 1.179854 0.412849
  endloop
endfacet
facet normal -0.000000 0.388518 0.160929
  outer loop
    vertex 3.000000 1.179854 0.412849
    vertex 6.000000 1.126211 0.542355
    vertex 6.000000 1.179854 0.412849
  endloop
endfacet
facet normal 0.000000 0.023579 0.419867
  outer loop
    vertex 6.000000 0.000000 1.250000
    vertex 9.000000 -0.000000 1.250000
    vertex 6.000000 0.139956 1.242140
  endloop
endfacet
facet normal -0.000000 0.023579 0.419867
  outer loop
    vertex 6.000000 0.139956 1.242140
    vertex 9.000000 -0.000000 1.250000
    vertex 9.000000 0.139956 1.242140
  endloop
endfacet
facet normal -0.000000 0.070441 0.414587
  outer loop
    vertex 6.000000 0.139956 1.242140
    vertex 9.000000 0.139956 1.242140
    vertex 6.000000 0.278151 1.218660
  endloop
endfacet
facet normal -0.000000 0.070441 0.414587
  outer loop
    vertex 6.000000 0.278151 1.218660
    vertex 9.000000 0.139956 1.242140
    vertex 9.000000 0.278151 1.218660
  endloop
endfacet
facet normal -0.000000 0.116417 0.404093
  outer loop
    vertex 6.000000 0.278151 1.218660
    vertex 9.000000 0.278151 1.218660
    vertex 6.000000 0.412849 1.179854
  endloop
endfacet
facet normal -0.000000 0.116417 0.404093
  outer loop
    vertex 6.000000 0.412849 1.179854
    vertex 9.000000 0.278151 1.218660
    vertex 9.000000 0.412849 1.179854
  endloop
endfacet
facet normal -0.000000 0.160929 0.388518
  outer loop
    vertex 6.000000 0.412849 1.179854
    vertex 9.000000 0.412849 1.179854
    vertex 6.000000 0.542355 1.126211
  endloop
endfacet
facet normal -0.000000 0.160929 0.388518
  outer loop
    vertex 6.000000 0.542355 1.126211
    vertex 9.000000 0.412849 1.179854
    vertex 9.000000 0.542355 1.126211
  endloop
endfacet
facet normal -0.000000 0.203417 0.368056
  outer loop
    vertex 6.000000 0.542355 1.126211
    vertex 9.000000 0.542355 1.126211
    vertex 6.000000 0.665040 1.058405
  endloop
endfacet
facet normal -0.000000 0.203417 0.368056
  outer loop
    vertex 6.000000 0.665040 1.058405
    vertex 9.000000 0.542355 1.126211
    vertex 9.000000 0.665040 1.058405
  endloop
endfacet
facet normal -0.000000 0.243348 0.342967
  outer loop
    vertex 6.000000 0.665040 1.058405
    vertex 9.000000 0.665040 1.058405
    vertex 6.000000 0.779362 0.977289
  endloop
endfacet
facet normal -0.000000 0.243348 0.342967
  outer loop
    vertex 6.000000 0.779362 0.977289
    vertex 9.000000 0.665040 1.058405
    vertex 9.000000 0.779362 0.977289
  endloop
endfacet
facet normal -0.000000 0.280218 0.313564
  outer loop
    vertex 6.000000 0.779362 0.977289
    vertex 9.000000 0.779362 0.977289
    vertex 6.000000 0.883883 0.883883
  endloop
endfacet
facet normal -0.000000 0.280218 0.313564
  outer loop
    vertex 6.000000 0.883883 0.883883
    vertex 9.000000 0.779362 0.977289
    vertex 9.000000 0.883883 0.883883
  endloop
endfacet
facet normal -0.000000 0.313564 0.280218
  outer loop
    vertex 6.000000 0.883883 0.883883
    vertex 9.000000 0.883883 0.883883
    vertex 6.000000 0.977289 0.779362
  endloop
endfacet
facet normal -0.000000 0.313564 0.280218
  outer loop
    vertex 6.000000 0.977289 0.779362
    vertex 9.000000 0.883883 0.883883
    vertex 9.000000 0.977289 0.779362
  endloop
endfacet
facet normal -0.000000 0.342967 0.243348
  outer loop
    vertex 6.000000 0.977289 0.779362
    vertex 9.000000 0.977289 0.779362
    vertex 6.000000 1.058405 0.665040
  endloop
endfacet
facet normal -0.000000 0.342967 0.243348
  outer loop
    vertex 6.000000 1.058405 0.665040
    vertex 9.000000 0.977289 0.779362
    vertex 9.000000 1.058405 0.665040
  endloop
endfacet
facet normal -0.000000 0.368056 0.203417
  outer loop
    vertex 6.000000 1.058405 0.665040
    vertex 9.000000 1.058405 0.665040
    vertex 6.000000 1.126211 0.542355
  endloop
endfacet
facet normal -0.000000 0.368056 0.203417
  outer loop
    vertex 6.000000 1.126211 0.542355
    vertex 9.000000 1.058405 0.665040
    vertex 9.000000 1.126211 0.542355
  endloop
endfacet
facet normal -0.000000 0.388518 0.160929
  outer loop
    vertex 6.000000 1.126211 0.542355
    vertex 9.000000 1.126211 0.542355
    vertex 6.000000 1.179854 0.412849
  endloop
endfacet
facet normal -0.000000 0.388518 0.160929
  outer loop
    vertex 6.000000 1.179854 0.412849
    vertex 9.000000 1.126211 0.542355
    vertex 9.000000 1.179854 0.412849
  endloop
endfacet
facet normal 0.000000 -0.023579 0.419867
  outer loop
    vertex 6.000000 0.000000 1.250000
    vertex 3.000000 0.000000 1.250000
    vertex 6.000000 -0.139956 1.242140
  endloop
endfacet
facet normal 0.000000 -0.023579 0.419867
  outer loop
    vertex 6.000000 -0.139956 1.242140
    vertex 3.000000 0.000000 1.250000
    vertex 3.000000 -0.139956 1.242140
  endloop
endfacet
facet normal 0.000000 -0.070441 0.414587
  outer loop
    vertex 6.000000 -0.139956 1.242140
    vertex 3.000000 -0.139956 1.242140
    vertex 6.000000 -0.278151 1.218660
  endloop
endfacet
facet normal 0.000000 -0.070441 0.414587
  outer loop
    vertex 6.000000 -0.278151 1.218660
    vertex 3.000000 -0.139956 1.242140
    vertex 3.000000 -0.278151 1.218660
  endloop
endfacet
facet normal 0.000000 -0.116417 0.404093
  outer loop
    vertex 6.000000 -0.278151 1.218660
    vertex 3.000000 -0.278151 1.218660
    vertex 6.000000 -0.412849 1.179854
  endloop
endfacet
facet normal 0.000000 -0.116417 0.404093
  outer loop
    vertex 6.000000 -0.412849 1.179854
    vertex 3.000000 -0.278151 1.218660
    vertex 3.000000 -0.412849 1.179854
  endloop
endfacet
facet normal 0.000000 -0.160929 0.388518
  outer loop
    vertex 6.000000 -0.412849 1.179854
    vertex 3.000000 -0.412849 1.179854
    vertex 6.000000 -0.542355 1.126211
  endloop
endfacet
facet normal 0.000000 -0.160929 0.388518
  outer loop
    vertex 6.000000 -0.542355 1.126211
    vertex 3.000000 -0.412849 1.179854
    vertex 3.000000 -0.542355 1.126211
  endloop
endfacet
facet normal 0.000000 -0.203417 0.368056
  outer loop
    vertex 6.000000 -0.542355 1.126211
    vertex 3.000000 -0.542355 1.126211
    vertex 6.000000 -0.665040 1.058405
  endloop
endfacet
facet normal 0.000000 -0.203417 0.368056
  outer loop
    vertex 6.000000 -0.665040 1.058405
    vertex 3.000000 -0.542355 1.126211
    vertex 3.000000 -0.665040 1.058405
  endloop
endfacet
facet normal 0.000000 -0.243348 0.342967
  outer loop
    vertex 6.000000 -0.665040 1.058405
    vertex 3.000000 -0.665040 1.058405
    vertex 6.000000 -0.779362 0.977289
  endloop
endfacet
facet normal 0.000000 -0.243348 0.342967
  outer loop
    vertex 6.000000 -0.779362 0.977289
    vertex 3.000000 -0.665040 1.058405
    vertex 3.000000 -0.779362 0.977289
  endloop
endfacet
facet normal 0.000000 -0.280218 0.313564
  outer loop
    vertex 6.000000 -0.779362 0.977289
    vertex 3.000000 -0.779362 0.977289
    vertex 6.000000 -0.883883 0.883883
  endloop
endfacet
facet normal 0.000000 -0.280218 0.313564
  outer loop
    vertex 6.000000 -0.883883 0.883883
    vertex 3.000000 -0.779362 0.977289
    vertex 3.000000 -0.883883 0.883883
  endloop
endfacet
facet normal 0.000000 -0.313564 0.280218
  outer loop
    vertex 6.000000 -0.883883 0.883883
    vertex 3.000000 -0.883883 0.883883
    vertex 6.000000 -0.977289 0.779362
  endloop
endfacet
facet normal 0.000000 -0.313564 0.280218
  outer loop
    vertex 6.000000 -0.977289 0.779362
    vertex 3.000000 -0.883883 0.883883
    vertex 3.000000 -0.977289 0.779362
  endloop
endfacet
facet normal 0.000000 -0.342967 0.243348
  outer loop
    vertex 6.000000 -0.977289 0.779362
    vertex 3.000000 -0.977289 0.779362
    vertex 6.000000 -1.058405 0.665040
  endloop
endfacet
facet normal 0.000000 -0.342967 0.243348
  outer loop
    vertex 6.000000 -1.058405 0.665040
    vertex 3.000000 -0.977289 0.779362
    vertex 3.000000 -1.058405 0.665040
  endloop
endfacet
facet normal 0.000000 -0.368056 0.203417
  outer loop
    vertex 6.000000 -1.058405 0.665040
    vertex 3.000000 -1.058405 0.665040
    vertex 6.000000 -1.126211 0.542355
  endloop
endfacet
facet normal 0.000000 -0.368056 0.203417
  outer loop
    vertex 6.000000 -1.126211 0.542355
    vertex 3.000000 -1.058405 0.665040
    vertex 3.000000 -1.126211 0.542355
  endloop
endfacet
facet normal 0.000000 -0.388518 0.160929
  outer loop
    vertex 6.000000 -1.126211 0.542355
    vertex 3.000000 -1.126211 0.542355
    vertex 6.000000 -1.179854 0.412849
  endloop
endfacet
facet normal 0.000000 -0.388518 0.160929
  outer loop
    vertex 6.000000 -1.179854 0.412849
    vertex 3.000000 -1.126211 0.542355
    vertex 3.000000 -1.179854 0.412849
  endloop
endfacet
facet normal 0.000000 -0.404093 0.116417
  outer loop
    vertex 6.000000 -1.179854 0.412849
    vertex 3.000000 -1.179854 0.412849
    vertex 6.000000 -1.218660 0.278151
  endloop
endfacet
facet normal 0.000000 -0.404093 0.116417
  outer loop
    vertex 6.000000 -1.218660 0.278151
    vertex 3.000000 -1.179854 0.412849
    vertex 3.000000 -1.218660 0.278151
  endloop
endfacet
facet normal 0.000000 -0.418640 0.070896
  outer loop
    vertex 6.000000 -1.218660 0.278151
    vertex 3.000000 -1.218660 0.278151
    vertex 6.000000 -1.242292 0.138604
  endloop
endfacet
facet normal 0.000000 -0.418640 0.070896
  outer loop
    vertex 6.000000 -1.242292 0.138604
    vertex 3.000000 -1.218660 0.278151
    vertex 3.000000 -1.242292 0.138604
  endloop
endfacet
facet normal 0.000000 -0.415813 0.023125
  outer loop
    vertex 6.000000 -1.242292 0.138604
    vertex 3.000000 -1.242292 0.138604
    vertex 6.000000 -1.250000 0.000000
  endloop
endfacet
facet normal 0.000000 -0.415813 0.023125
  outer loop
    vertex 6.000000 -1.250000 0.000000
    vertex 3.000000 -1.242292 0.138604
    vertex 3.000000 -1.250000 0.000000
  endloop
endfacet
facet normal -0.000000 -0.415813 -0.023125
  outer loop
    vertex 6.000000 -1.250000 0.000000
    vertex 3.000000 -1.250000 0.000000
    vertex 6.000000 -1.242292 -0.138604
  endloop
endfacet
facet normal -0.000000 -0.415813 -0.023125
  outer loop
    vertex 6.000000 -1.242292 -0.138604
    vertex 3.000000 -1.250000 0.000000
    vertex 3.000000 -1.242292 -0.138604
  endloop
endfacet
facet normal -0.000000 -0.418640 -0.070896
  outer loop
    vertex 6.000000 -1.242292 -0.138604
    vertex 3.000000 -1.242292 -0.138604
    vertex 6.000000 -1.218660 -0.278151
  endloop
endfacet
facet normal -0.000000 -0.418640 -0.070896
  outer loop
    vertex 6.000000 -1.218660 -0.278151
    vertex 3.000000 -1.242292 -0.138604
    vertex 3.000000 -1.218660 -0.278151
  endloop
endfacet
facet normal -0.000000 -0.404093 -0.116417
  outer loop
    vertex 6.000000 -1.218660 -0.278151
    vertex 3.000000 -1.218660 -0.278151
    vertex 6.000000 -1.179854 -0.412849
  endloop
endfacet
facet normal -0.000000 -0.404093 -0.116417
  outer loop
    vertex 6.000000 -1.179854 -0.412849
    vertex 3.000000 -1.218660 -0.278151
    vertex 3.000000 -1.179854 -0.412849
  endloop
endfacet
facet normal -0.000000 -0.388518 -0.160929
  outer loop
    vertex 6.000000 -1.179854 -0.412849
    vertex 3.000000 -1.179854 -0.412849
    vertex 6.000000 -1.126211 -0.542355
  endloop
endfacet
facet normal -0.000000 -0.388518 -0.160929
  outer loop
    vertex 6.000000 -1.126211 -0.542355
    vertex 3.000000 -1.179854 -0.412849
    vertex 3.000000 -1.126211 -0.542355
  endloop
endfacet
facet normal -0.000000 -0.368056 -0.203417
  outer loop
    vertex 6.000000 -1.126211 -0.542355
    vertex 3.000000 -1.126211 -0.542355
    vertex 6.000000 -1.058405 -0.665040
  endloop
endfacet
facet normal -0.000000 -0.368056 -0.203417
  outer loop
    vertex 6.000000 -1.058405 -0.665040
    vertex 3.000000 -1.126211 -0.542355
    vertex 3.000000 -1.058405 -0.665040
  endloop
endfacet
facet normal -0.000000 -0.342967 -0.243348
  outer loop
    vertex 6.000000 -1.058405 -0.665040
    vertex 3.000000 -1.058405 -0.665040
    vertex 6.000000 -0.977289 -0.779362
  endloop
endfacet
facet normal -0.000000 -0.342967 -0.243348
  outer loop
    vertex 6.000000 -0.977289 -0.779362
    vertex 3.000000 -1.058405 -0.665040
    vertex 3.000000 -0.977289 -0.779362
  endloop
endfacet
facet normal -0.000000 -0.313564 -0.280218
  outer loop
    vertex 6.000000 -0.977289 -0.779362
    vertex 3.000000 -0.977289 -0.779362
    vertex 6.000000 -0.883883 -0.883883
  endloop
endfacet
facet normal -0.000000 -0.313564 -0.280218
  outer loop
    vertex 6.000000 -0.883883 -0.883883
    vertex 3.000000 -0.977289 -0.779362
    vertex 3.000000 -0.883883 -0.883883
  endloop
endfacet
facet normal -0.000000 -0.280218 -0.313564
  outer loop
    vertex 6.000000 -0.883883 -0.883883
    vertex 3.000000 -0.883883 -0.883883
    vertex 6.000000 -0.779362 -0.977289
  endloop
endfacet
facet normal -0.000000 -0.280218 -0.313564
  outer loop
    vertex 6.000000 -0.779362 -0.977289
    vertex 3.000000 -0.883883 -0.883883
    vertex 3.000000 -0.779362 -0.977289
  endloop
endfacet
facet normal -0.000000 -0.243348 -0.342967
  outer loop
    vertex 6.000000 -0.779362 -0.977289
    vertex 3.000000 -0.779362 -0.977289
    vertex 6.000000 -0.665040 -1.058405
  endloop
endfacet
facet normal -0.000000 -0.243348 -0.342967
  outer loop
    vertex 6.000000 -0.665040 -1.058405
    vertex 3.000000 -0.779362 -0.977289
    vertex 3.000000 -0.665040 -1.058405
  endloop
endfacet
facet normal -0.000000 -0.203417 -0.368056
  outer loop
    vertex 6.000000 -0.665040 -1.058405
    vertex 3.000000 -0.665040 -1.058405
    vertex 6.000000 -0.542355 -1.126211
  endloop
endfacet
facet normal -0.000000 -0.203417 -0.368056
  outer loop
    vertex 6.000000 -0.542355 -1.126211
    vertex 3.000000 -0.665040 -1.058405
    vertex 3.000000 -0.542355 -1.126211
  endloop
endfacet
facet normal -0.000000 -0.160929 -0.388518
  outer loop
    vertex 6.000000 -0.542355 -1.126211
    vertex 3.000000 -0.542355 -1.126211
    vertex 6.000000 -0.412849 -1.179854
  endloop
endfacet
facet normal -0.000000 -0.160929 -0.388518
  outer loop
    vertex 6.000000 -0.412849 -1.179854
    vertex 3.000000 -0.542355 -1.126211
    vertex 3.000000 -0.412849 -1.179854
  endloop
endfacet
facet normal -0.000000 -0.116417 -0.404093
  outer loop
    vertex 6.000000 -0.412849 -1.179854
    vertex 3.000000 -0.412849 -1.179854
    vertex 6.000000 -0.278151 -1.218660
  endloop
endfacet
facet normal -0.000000 -0.116417 -0.404093
  outer loop
    vertex 6.000000 -0.278151 -1.218660
    vertex 3.000000 -0.412849 -1.179854
    vertex 3.000000 -0.278151 -1.218660
  endloop
endfacet
facet normal -0.000000 -0.070441 -0.414587
  outer loop
    vertex 6.000000 -0.278151 -1.218660
    vertex 3.000000 -0.278151 -1.218660
    vertex 6.000000 -0.139956 -1.242140
  endloop
endfacet
facet normal -0.000000 -0.070441 -0.414587
  outer loop
    vertex 6.000000 -0.139956 -1.242140
    vertex 3.000000 -0.278151 -1.218660
    vertex 3.000000 -0.139956 -1.242140
  endloop
endfacet
facet normal -0.000000 -0.023579 -0.419867
  outer loop
    vertex 6.000000 -0.139956 -1.242140
    vertex 3.000000 -0.139956 -1.242140
    vertex 6.000000 0.000000 -1.250000
  endloop
endfacet
facet normal -0.000000 -0.023579 -0.419867
  outer loop
    vertex 6.000000 0.000000 -1.250000
    vertex 3.000000 -0.139956 -1.242140
    vertex 3.000000 0.000000 -1.250000
  endloop
endfacet
facet normal 0.000000 0.023579 -0.419867
  outer loop
    vertex 6.000000 0.000000 -1.250000
    vertex 3.000000 0.000000 -1.250000
    vertex 6.000000 0.139956 -1.242140
  endloop
endfacet
facet normal 0.000000 0.023579 -0.419867
  outer loop
    vertex 6.000000 0.139956 -1.242140
    vertex 3.000000 0.000000 -1.250000
    vertex 3.000000 0.139956 -1.242140
  endloop
endfacet
facet normal 0.000000 0.070441 -0.414587
  outer loop
    vertex 6.000000 0.139956 -1.242140
    vertex 3.000000 0.139956 -1.242140
    vertex 6.000000 0.278151 -1.218660
  endloop
endfacet
facet normal 0.000000 0.070441 -0.414587
  outer loop
    vertex 6.000000 0.278151 -1.218660
    vertex 3.000000 0.139956 -1.242140
    vertex 3.000000 0.278151 -1.218660
  endloop
endfacet
facet normal 0.000000 0.116417 -0.404093
  outer loop
    vertex 6.000000 0.278151 -1.218660
    vertex 3.000000 0.278151 -1.218660
    vertex 6.000000 0.412849 -1.179854
  endloop
endfacet
facet normal 0.000000 0.116417 -0.404093
  outer loop
    vertex 6.000000 0.412849 -1.179854
    vertex 3.000000 0.278151 -1.218660
    vertex 3.000000 0.412849 -1.179854
  endloop
endfacet
facet normal 0.000000 0.160929 -0.388518
  outer loop
    vertex 6.000000 0.412849 -1.179854
    vertex 3.000000 0.412849 -1.179854
    vertex 6.000000 0.542355 -1.126211
  endloop
endfacet
facet normal 0.000000 0.160929 -0.388518
  outer loop
    vertex 6.000000 0.542355 -1.126211
    vertex 3.000000 0.412849 -1.179854
    vertex 3.000000 0.542355 -1.126211
  endloop
endfacet
facet normal 0.000000 0.203417 -0.368056
  outer loop
    vertex 6.000000 0.542355 -1.126211
    vertex 3.000000 0.542355 -1.126211
    vertex 6.000000 0.665040 -1.058405
  endloop
endfacet
facet normal 0.000000 0.203417 -0.368056
  outer loop
    vertex 6.000000 0.665040 -1.058405
    vertex 3.000000 0.542355 -1.126211
    vertex 3.000000 0.665040 -1.058405
  endloop
endfacet
facet normal 0.000000 0.243348 -0.342967
  outer loop
    vertex 6.000000 0.665040 -1.058405
    vertex 3.000000 0.665040 -1.058405
    vertex 6.000000 0.779362 -0.977289
  endloop
endfacet
facet normal 0.000000 0.243348 -0.342967
  outer loop
    vertex 6.000000 0.779362 -0.977289
    vertex 3.000000 0.665040 -1.058405
    vertex 3.000000 0.779362 -0.977289
  endloop
endfacet
facet normal 0.000000 0.280218 -0.313564
  outer loop
    vertex 6.000000 0.779362 -0.977289
    vertex 3.000000 0.779362 -0.977289
    vertex 6.000000 0.883883 -0.883883
  endloop
endfacet
facet normal 0.000000 0.280218 -0.313564
  outer loop
    vertex 6.000000 0.883883 -0.883883
    vertex 3.000000 0.779362 -0.977289
    vertex 3.000000 0.883883 -0.883883
  endloop
endfacet
facet normal 0.000000 0.313564 -0.280218
  outer loop
    vertex 6.000000 0.883883 -0.883883
    vertex 3.000000 0.883883 -0.883883
    vertex 6.000000 0.977289 -0.779362
  endloop
endfacet
facet normal 0.000000 0.313564 -0.280218
  outer loop
    vertex 6.000000 0.977289 -0.779362
    vertex 3.000000 0.883883 -0.883883
    vertex 3.000000 0.977289 -0.779362
  endloop
endfacet
facet normal 0.000000 0.342967 -0.243348
  outer loop
    vertex 6.000000 0.977289 -0.779362
    vertex 3.000000 0.977289 -0.779362
    vertex 6.000000 1.058405 -0.665040
  endloop
endfacet
facet normal 0.000000 0.342967 -0.243348
  outer loop
    vertex 6.000000 1.058405 -0.665040
    vertex 3.000000 0.977289 -0.779362
    vertex 3.000000 1.058405 -0.665040
  endloop
endfacet
facet normal 0.000000 0.368056 -0.203417
  outer loop
    vertex 6.000000 1.058405 -0.665040
    vertex 3.000000 1.058405 -0.665040
    vertex 6.000000 1.126211 -0.542355
  endloop
endfacet
facet normal 0.000000 0.368056 -0.203417
  outer loop
    vertex 6.000000 1.126211 -0.542355
    vertex 3.000000 1.058405 -0.665040
    vertex 3.000000 1.126211 -0.542355
  endloop
endfacet
facet normal 0.000000 0.388518 -0.160929
  outer loop
    vertex 6.000000 1.126211 -0.542355
    vertex 3.000000 1.126211 -0.542355
    vertex 6.000000 1.179854 -0.412849
  endloop
endfacet
facet normal 0.000000 0.388518 -0.160929
  outer loop
    vertex 6.000000 1.179854 -0.412849
    vertex 3.000000 1.126211 -0.542355
    vertex 3.000000 1.179854 -0.412849
  endloop
endfacet
facet normal -0.000000 -0.023579 0.419867
  outer loop
    vertex 9.000000 -0.000000 1.250000
    vertex 6.000000 0.000000 1.250000
    vertex 9.000000 -0.139956 1.242140
  endloop
endfacet
facet normal 0.000000 -0.023579 0.419867
  outer loop
    vertex 9.000000 -0.139956 1.242140
    vertex 6.000000 0.000000 1.250000
    vertex 6.000000 -0.139956 1.242140
  endloop
endfacet
facet normal 0.000000 -0.070441 0.414587
  outer loop
    vertex 9.000000 -0.139956 1.242140
    vertex 6.000000 -0.139956 1.242140
    vertex 9.000000 -0.278151 1.218660
  endloop
endfacet
facet normal 0.000000 -0.070441 0.414587
  outer loop
    vertex 9.000000 -0.278151 1.218660
    vertex 6.000000 -0.139956 1.242140
    vertex 6.000000 -0.278151 1.218660
  endloop
endfacet
facet normal 0.000000 -0.116417 0.404093
  outer loop
    vertex 9.000000 -0.278151 1.218660
    vertex 6.000000 -0.278151 1.218660
    vertex 9.000000 -0.412849 1.179854
  endloop
endfacet
facet normal 0.000000 -0.116417 0.404093
  outer loop
    vertex 9.000000 -0.412849 1.179854
    vertex 6.000000 -0.278151 1.218660
    vertex 6.000000 -0.412849 1.179854
  endloop
endfacet
facet normal 0.000000 -0.160929 0.388518
  outer loop
    vertex 9.000000 -0.412849 1.179854
    vertex 6.000000 -0.412849 1.179854
    vertex 9.000000 -0.542355 1.126211
  endloop
endfacet
facet normal 0.000000 -0.160929 0.388518
  outer loop
    vertex 9.000000 -0.542355 1.126211
    vertex 6.000000 -0.412849 1.179854
    vertex 6.000000 -0.542355 1.126211
  endloop
endfacet
facet normal 0.000000 -0.203417 0.368056
  outer loop
    vertex 9.000000 -0.542355 1.126211
    vertex 6.000000 -0.542355 1.126211
    vertex 9.000000 -0.665040 1.058405
  endloop
endfacet
facet normal 0.000000 -0.203417 0.368056
  outer loop
    vertex 9.000000 -0.665040 1.058405
    vertex 6.000000 -0.542355 1.126211
    vertex 6.000000 -0.665040 1.058405
  endloop
endfacet
facet normal 0.000000 -0.243348 0.342967
  outer loop
    vertex 9.000000 -0.665040 1.058405
    vertex 6.000000 -0.665040 1.058405
    vertex 9.000000 -0.779362 0.977289
  endloop
endfacet
facet normal 0.000000 -0.243348 0.342967
  outer loop
    vertex 9.000000 -0.779362 0.977289
    vertex 6.000000 -0.665040 1.058405
    vertex 6.000000 -0.779362 0.977289
  endloop
endfacet
facet normal 0.000000 -0.280218 0.313564
  outer loop
    vertex 9.000000 -0.779362 0.977289
    vertex 6.000000 -0.779362 0.977289
    vertex 9.000000 -0.883883 0.883883
  endloop
endfacet
facet normal 0.000000 -0.280218 0.313564
  outer loop
    vertex 9.000000 -0.883883 0.883883
    vertex 6.000000 -0.779362 0.977289
    vertex 6.000000 -0.883883 0.883883
  endloop
endfacet
facet normal 0.000000 -0.313564 0.280218
  outer loop
    vertex 9.000000 -0.883883 0.883883
    vertex 6.000000 -0.883883 0.883883
    vertex 9.000000 -0.977289 0.779362
  endloop
endfacet
facet normal 0.000000 -0.313564 0.280218
  outer loop
    vertex 9.000000 -0.977289 0.779362
    vertex 6.000000 -0.883883 0.883883
    vertex 6.000000 -0.977289 0.779362
  endloop
endfacet
facet normal 0.000000 -0.342967 0.243348
  outer loop
    vertex 9.000000 -0.977289 0.779362
    vertex 6.000000 -0.977289 0.779362
    vertex 9.000000 -1.058405 0.665040
  endloop
endfacet
facet normal 0.000000 -0.342967 0.243348
  outer loop
    vertex 9.000000 -1.058405 0.665040
    vertex 6.000000 -0.977289 0.779362
    vertex 6.000000 -1.058405 0.665040
  endloop
endfacet
facet normal 0.000000 -0.368056 0.203417
  outer loop
    vertex 9.000000 -1.058405 0.665040
    vertex 6.000000 -1.058405 0.665040
    vertex 9.000000 -1.126211 0.542355
  endloop
endfacet
facet normal 0.000000 -0.368056 0.203417
  outer loop
    vertex 9.000000 -1.126211 0.542355
    vertex 6.000000 -1.058405 0.665040
    vertex 6.000000 -1.126211 0.542355
  endloop
endfacet
facet normal 0.000000 -0.388518 0.160929
  outer loop
    vertex 9.000000 -1.126211 0.542355
    vertex 6.000000 -1.126211 0.542355
    vertex 9.000000 -1.179854 0.412849
  endloop
endfacet
facet normal 0.000000 -0.388518 0.160929
  outer loop
    vertex 9.000000 -1.179854 0.412849
    vertex 6.000000 -1.126211 0.542355
    vertex 6.000000 -1.179854 0.412849
  endloop
endfacet
facet normal 0.000000 -0.404093 0.116417
  outer loop
    vertex 9.000000 -1.179854 0.412849
    vertex 6.000000 -1.179854 0.412849
    vertex 9.000000 -1.218660 0.278151
  endloop
endfacet
facet normal 0.000000 -0.404093 0.116417
  outer loop
    vertex 9.000000 -1.218660 0.278151
    vertex 6.000000 -1.179854 0.412849
    vertex 6.000000 -1.218660 0.278151
  endloop
endfacet
facet normal 0.000000 -0.418640 0.070896
  outer loop
    vertex 9.000000 -1.218660 0.278151
    vertex 6.000000 -1.218660 0.278151
    vertex 9.000000 -1.242292 0.138604
  endloop
endfacet
facet normal 0.000000 -0.418640 0.070896
  outer loop
    vertex 9.000000 -1.242292 0.138604
    vertex 6.000000 -1.218660 0.278151
    vertex 6.000000 -1.242292 0.138604
  endloop
endfacet
facet normal 0.000000 -0.415813 0.023125
  outer loop
    vertex 9.000000 -1.242292 0.138604
    vertex 6.000000 -1.242292 0.138604
    vertex 9.000000 -1.250000 0.000000
  endloop
endfacet
facet normal 0.000000 -0.415813 0.023125
  outer loop
    vertex 9.000000 -1.250000 0.000000
    vertex 6.000000 -1.242292 0.138604
    vertex 6.000000 -1.250000 0.000000
  endloop
endfacet
facet normal -0.000000 -0.415813 -0.023125
  outer loop
    vertex 9.000000 -1.250000 0.000000
    vertex 6.000000 -1.250000 0.000000
    vertex 9.000000 -1.242292 -0.138604
  endloop
endfacet
facet normal -0.000000 -0.415813 -0.023125
  outer loop
    vertex 9.000000 -1.242292 -0.138604
    vertex 6.000000 -1.250000 0.000000
    vertex 6.000000 -1.242292 -0.138604
  endloop
endfacet
facet normal -0.000000 -0.418640 -0.070896
  outer loop
    vertex 9.000000 -1.242292 -0.138604
    vertex 6.000000 -1.242292 -0.138604
    vertex 9.000000 -1.218660 -0.278151
  endloop
endfacet
facet normal -0.000000 -0.418640 -0.070896
  outer loop
    vertex 9.000000 -1.218660 -0.278151
    vertex 6.000000 -1.242292 -0.138604
    vertex 6.000000 -1.218660 -0.278151
  endloop
endfacet
facet normal -0.000000 -0.404093 -0.116417
  outer loop
    vertex 9.000000 -1.218660 -0.278151
    vertex 6.000000 -1.218660 -0.278151
    vertex 9.000000 -1.179854 -0.412849
  endloop
endfacet
facet normal -0.000000 -0.404093 -0.116417
  outer loop
    vertex 9.000000 -1.179854 -0.412849
    vertex 6.000000 -1.218660 -0.278151
    vertex 6.000000 -1.179854 -0.412849
  endloop
endfacet
facet normal -0.000000 -0.388518 -0.160929
  outer loop
    vertex 9.000000 -1.179854 -0.412849
    vertex 6.000000 -1.179854 -0.412849
    vertex 9.000000 -1.126211 -0.542355
  endloop
endfacet
facet normal -0.000000 -0.388518 -0.160929
  outer loop
    vertex 9.000000 -1.126211 -0.542355
    vertex 6.000000 -1.179854 -0.412849
    vertex 6.000000 -1.126211 -0.542355
  endloop
endfacet
facet normal -0.000000 -0.368056 -0.203417
  outer loop
    vertex 9.000000 -1.126211 -0.542355
    vertex 6.000000 -1.126211 -0.542355
    vertex 9.000000 -1.058405 -0.665040
  endloop
endfacet
facet normal -0.000000 -0.368056 -0.203417
  outer loop
    vertex 9.000000 -1.058405 -0.665040
    vertex 6.000000 -1.126211 -0.542355
    vertex 6.000000 -1.058405 -0.665040
  endloop
endfacet
facet normal -0.000000 -0.342967 -0.243348
  outer loop
    vertex 9.000000 -1.058405 -0.665040
    vertex 6.000000 -1.058405 -0.665040
    vertex 9.000000 -0.977289 -0.779362
  endloop
endfacet
facet normal -0.000000 -0.342967 -0.243348
  outer loop
    vertex 9.000000 -0.977289 -0.779362
    vertex 6.000000 -1.058405 -0.665040
    vertex 6.000000 -0.977289 -0.779362
  endloop
endfacet
facet normal -0.000000 -0.313564 -0.280218
  outer loop
    vertex 9.000000 -0.977289 -0.779362
    vertex 6.000000 -0.977289 -0.779362
    vertex 9.000000 -0.883883 -0.883883
  endloop
endfacet
facet normal -0.000000 -0.313564 -0.280218
  outer loop
    vertex 9.000000 -0.883883 -0.883883
    vertex 6.000000 -0.977289 -0.779362
    vertex 6.000000 -0.883883 -0.883883
  endloop
endfacet
facet normal -0.000000 -0.280218 -0.313564
  outer loop
    vertex 9.000000 -0.883883 -0.883883
    vertex 6.000000 -0.883883 -0.883883
    vertex 9.000000 -0.779362 -0.977289
  endloop
endfacet
facet normal -0.000000 -0.280218 -0.313564
  outer loop
    vertex 9.000000 -0.779362 -0.977289
    vertex 6.000000 -0.883883 -0.883883
    vertex 6.000000 -0.779362 -0.977289
  endloop
endfacet
facet normal -0.000000 -0.243348 -0.342967
  outer loop
    vertex 9.000000 -0.779362 -0.977289
    vertex 6.000000 -0.779362 -0.977289
    vertex 9.000000 -0.665040 -1.058405
  endloop
endfacet
facet normal -0.000000 -0.243348 -0.342967
  outer loop
    vertex 9.000000 -0.665040 -1.058405
    vertex 6.000000 -0.779362 -0.977289
    vertex 6.000000 -0.665040 -1.058405
  endloop
endfacet
facet normal -0.000000 -0.203417 -0.368056
  outer loop
    vertex 9.000000 -0.665040 -1.058405
    vertex 6.000000 -0.665040 -1.058405
    vertex 9.000000 -0.542355 -1.126211
  endloop
endfacet
facet normal -0.000000 -0.203417 -0.368056
  outer loop
    vertex 9.000000 -0.542355 -1.126211
    vertex 6.000000 -0.665040 -1.058405
    vertex 6.000000 -0.542355 -1.126211
  endloop
endfacet
facet normal -0.000000 -0.160929 -0.388518
  outer loop
    vertex 9.000000 -0.542355 -1.126211
    vertex 6.000000 -0.542355 -1.126211
    vertex 9.000000 -0.412849 -1.179854
  endloop
endfacet
facet normal -0.000000 -0.160929 -0.388518
  outer loop
    vertex 9.000000 -0.412849 -1.179854
    vertex 6.000000 -0.542355 -1.126211
    vertex 6.000000 -0.412849 -1.179854
  endloop
endfacet
facet normal -0.000000 -0.116417 -0.404093
  outer loop
    vertex 9.000000 -0.412849 -1.179854
    vertex 6.000000 -0.412849 -1.179854
    vertex 9.000000 -0.278151 -1.218660
  endloop
endfacet
facet normal -0.000000 -0.116417 -0.404093
  outer loop
    vertex 9.000000 -0.278151 -1.218660
    vertex 6.000000 -0.412849 -1.179854
    vertex 6.000000 -0.278151 -1.218660
  endloop
endfacet
facet normal -0.000000 -0.070441 -0.414587
  outer loop
    vertex 9.000000 -0.278151 -1.218660
    vertex 6.000000 -0.278151 -1.218660
    vertex 9.000000 -0.139956 -1.242140
  endloop
endfacet
facet normal -0.000000 -0.070441 -0.414587
  outer loop
    vertex 9.000000 -0.139956 -1.242140
    vertex 6.000000 -0.278151 -1.218660
    vertex 6.000000 -0.139956 -1.242140
  endloop
endfacet
facet normal -0.000000 -0.023579 -0.419867
  outer loop
    vertex 9.000000 -0.139956 -1.242140
    vertex 6.000000 -0.139956 -1.242140
    vertex 9.000000 0.000000 -1.250000
  endloop
endfacet
facet normal -0.000000 -0.023579 -0.419867
  outer loop
    vertex 9.000000 0.000000 -1.250000
    vertex 6.000000 -0.139956 -1.242140
    vertex 6.000000 0.000000 -1.250000
  endloop
endfacet
facet normal 0.000000 0.023579 -0.419867
  outer loop
    vertex 9.000000 0.000000 -1.250000
    vertex 6.000000 0.000000 -1.250000
    vertex 9.000000 0.139956 -1.242140
  endloop
endfacet
facet normal 0.000000 0.023579 -0.419867
  outer loop
    vertex 9.000000 0.139956 -1.242140
    vertex 6.000000 0.000000 -1.250000
    vertex 6.000000 0.139956 -1.242140
  endloop
endfacet
facet normal 0.000000 0.070441 -0.414587
  outer loop
    vertex 9.000000 0.139956 -1.242140
    vertex 6.000000 0.139956 -1.242140
    vertex 9.000000 0.278151 -1.218660
  endloop
endfacet
facet normal 0.000000 0.070441 -0.414587
  outer loop
    vertex 9.000000 0.278151 -1.218660
    vertex 6.000000 0.139956 -1.242140
    vertex 6.000000 0.278151 -1.218660
  endloop
endfacet
facet normal 0.000000 0.116417 -0.404093
  outer loop
    vertex 9.000000 0.278151 -1.218660
    vertex 6.000000 0.278151 -1.218660
    vertex 9.000000 0.412849 -1.179854
  endloop
endfacet
facet normal 0.000000 0.116417 -0.404093
  outer loop
    vertex 9.000000 0.412849 -1.179854
    vertex 6.000000 0.278151 -1.218660
    vertex 6.000000 0.412849 -1.179854
  endloop
endfacet
facet normal 0.000000 0.160929 -0.388518
  outer loop
    vertex 9.000000 0.412849 -1.179854
    vertex 6.000000 0.412849 -1.179854
    vertex 9.000000 0.542355 -1.126211
  endloop
endfacet
facet normal 0.000000 0.160929 -0.388518
  outer loop
    vertex 9.000000 0.542355 -1.126211
    vertex 6.000000 0.412849 -1.179854
    vertex 6.000000 0.542355 -1.126211
  endloop
endfacet
facet normal 0.000000 0.203417 -0.368056
  outer loop
    vertex 9.000000 0.542355 -1.126211
    vertex 6.000000 0.542355 -1.126211
    vertex 9.000000 0.665040 -1.058405
  endloop
endfacet
facet normal 0.000000 0.203417 -0.368056
  outer loop
    vertex 9.000000 0.665040 -1.058405
    vertex 6.000000 0.542355 -1.126211
    vertex 6.000000 0.665040 -1.058405
  endloop
endfacet
facet normal 0.000000 0.243348 -0.342967
  outer loop
    vertex 9.000000 0.665040 -1.058405
    vertex 6.000000 0.665040 -1.058405
    vertex 9.000000 0.779362 -0.977289
  endloop
endfacet
facet normal 0.000000 0.243348 -0.342967
  outer loop
    vertex 9.000000 0.779362 -0.977289
    vertex 6.000000 0.665040 -1.058405
    vertex 6.000000 0.779362 -0.977289
  endloop
endfacet
facet normal 0.000000 0.280218 -0.313564
  outer loop
    vertex 9.000000 0.779362 -0.977289
    vertex 6.000000 0.779362 -0.977289
    vertex 9.000000 0.883883 -0.883883
  endloop
endfacet
facet normal 0.000000 0.280218 -0.313564
  outer loop
    vertex 9.000000 0.883883 -0.883883
    vertex 6.000000 0.779362 -0.977289
    vertex 6.000000 0.883883 -0.883883
  endloop
endfacet
facet normal 0.000000 0.313564 -0.280218
  outer loop
    vertex 9.000000 0.883883 -0.883883
    vertex 6.000000 0.883883 -0.883883
    vertex 9.000000 0.977289 -0.779362
  endloop
endfacet
facet normal 0.000000 0.313564 -0.280218
  outer loop
    vertex 9.000000 0.977289 -0.779362
    vertex 6.000000 0.883883 -0.883883
    vertex 6.000000 0.977289 -0.779362
  endloop
endfacet
facet normal 0.000000 0.342967 -0.243348
  outer loop
    vertex 9.000000 0.977289 -0.779362
    vertex 6.000000 0.977289 -0.779362
    vertex 9.000000 1.058405 -0.665040
  endloop
endfacet
facet normal 0.000000 0.342967 -0.243348
  outer loop
    vertex 9.000000 1.058405 -0.665040
    vertex 6.000000 0.977289 -0.779362
    vertex 6.000000 1.058405 -0.665040
  endloop
endfacet
facet normal 0.000000 0.368056 -0.203417
  outer loop
    vertex 9.000000 1.058405 -0.665040
    vertex 6.000000 1.058405 -0.665040
    vertex 9.000000 1.126211 -0.542355
  endloop
endfacet
facet normal 0.000000 0.368056 -0.203417
  outer loop
    vertex 9.000000 1.126211 -0.542355
    vertex 6.000000 1.058405 -0.665040
    vertex 6.000000 1.126211 -0.542355
  endloop
endfacet
facet normal 0.000000 0.388518 -0.160929
  outer loop
    vertex 9.000000 1.126211 -0.542355
    vertex 6.000000 1.126211 -0.542355
    vertex 9.000000 1.179854 -0.412849
  endloop
endfacet
facet normal 0.000000 0.388518 -0.160929
  outer loop
    vertex 9.000000 1.179854 -0.412849
    vertex 6.000000 1.126211 -0.542355
    vertex 6.000000 1.179854 -0.412849
  endloop
endfacet
facet normal 0.000000 0.000000 -3.273687
  outer loop
    vertex 0.000000 1.210307 0.312500
    vertex 12.000000 1.210307 0.312500
    vertex 0.000000 0.937500 0.312500
  endloop
endfacet
facet normal 0.000000 0.000000 -3.273687
  outer loop
    vertex 0.000000 0.937500 0.312500
    vertex 12.000000 1.210307 0.312500
    vertex 12.000000 0.937500 0.312500
  endloop
endfacet
facet normal 0.036086 0.000000 0.000000
  outer loop
    vertex 12.000000 1.210307 0.312500
    vertex 12.000000 1.168193 0.444776
    vertex 12.000000 0.937500 0.312500
  endloop
endfacet
facet normal 0.036726 0.000000 0.000000
  outer loop
    vertex 12.000000 0.937500 0.312500
    vertex 12.000000 1.168193 0.444776
    vertex 12.000000 1.111671 0.571567
  endloop
endfacet
facet normal 0.039050 0.000000 0.000000
  outer loop
    vertex 12.000000 0.937500 0.312500
    vertex 12.000000 1.111671 0.571567
    vertex 12.000000 1.041438 0.691308
  endloop
endfacet
facet normal 0.043030 0.000000 0.000000
  outer loop
    vertex 12.000000 1.041438 0.691308
    vertex 12.000000 0.958361 0.802523
    vertex 12.000000 0.937500 0.312500
  endloop
endfacet
facet normal 0.048615 0.000000 -0.000000
  outer loop
    vertex 12.000000 0.937500 0.312500
    vertex 12.000000 0.958361 0.802523
    vertex 12.000000 0.863465 0.903841
  endloop
endfacet
facet normal 0.055738 0.000000 0.000000
  outer loop
    vertex 12.000000 0.937500 0.312500
    vertex 12.000000 0.863465 0.903841
    vertex 12.000000 0.757919 0.994011
  endloop
endfacet
facet normal 0.064310 0.000000 0.000000
  outer loop
    vertex 12.000000 0.757919 0.994011
    vertex 12.000000 0.643026 1.071922
    vertex 12.000000 0.937500 0.312500
  endloop
endfacet
facet normal 0.074225 0.000000 0.000000
  outer loop
    vertex 12.000000 0.937500 0.312500
    vertex 12.000000 0.643026 1.071922
    vertex 12.000000 0.520202 1.136613
  endloop
endfacet
facet normal 0.085362 0.000000 0.000000
  outer loop
    vertex 12.000000 0.937500 0.312500
    vertex 12.000000 0.520202 1.136613
    vertex 12.000000 0.390962 1.187286
  endloop
endfacet
facet normal 0.097583 0.000000 0.000000
  outer loop
    vertex 12.000000 0.390962 1.187286
    vertex 12.000000 0.256901 1.223316
    vertex 12.000000 0.937500 0.312500
  endloop
endfacet
facet normal 0.110738 0.000000 0.000000
  outer loop
    vertex 12.000000 0.937500 0.312500
    vertex 12.000000 0.256901 1.223316
    vertex 12.000000 0.119671 1.244258
  endloop
endfacet
facet normal 0.124663 0.000000 0.000000
  outer loop
    vertex 12.000000 0.937500 0.312500
    vertex 12.000000 0.119671 1.244258
    vertex 12.000000 -0.019034 1.249855
  endloop
endfacet
facet normal 0.139188 0.000000 0.000000
  outer loop
    vertex 12.000000 -0.019034 1.249855
    vertex 12.000000 -0.157505 1.240037
    vertex 12.000000 0.937500 0.312500
  endloop
endfacet
facet normal 0.154132 0.000000 0.000000
  outer loop
    vertex 12.000000 0.937500 0.312500
    vertex 12.000000 -0.157505 1.240037
    vertex 12.000000 -0.294034 1.214926
  endloop
endfacet
facet normal 0.169313 0.000000 0.000000
  outer loop
    vertex 12.000000 0.937500 0.312500
    vertex 12.000000 -0.294034 1.214926
    vertex 12.000000 -0.426936 1.174830
  endloop
endfacet
facet normal 0.184542 0.000000 0.000000
  outer loop
    vertex 12.000000 -0.426936 1.174830
    vertex 12.000000 -0.554572 1.120245
    vertex 12.000000 0.937500 0.312500
  endloop
endfacet
facet normal 3.342974 0.000000 0.000000
  outer loop
    vertex 12.000000 0.937500 0.312500
    vertex 12.000000 -0.554572 1.120245
    vertex 12.000000 -0.554572 -1.120245
  endloop
endfacet
facet normal 0.932545 0.000000 0.000000
  outer loop
    vertex 12.000000 0.937500 0.312500
    vertex 12.000000 -0.554572 -1.120245
    vertex 12.000000 0.937500 -0.312500
  endloop
endfacet
facet normal 0.184542 0.000000 0.000000
  outer loop
    vertex 12.000000 0.937500 -0.312500
    vertex 12.000000 -0.554572 -1.120245
    vertex 12.000000 -0.426936 -1.174830
  endloop
endfacet
facet normal 0.169313 0.000000 0.000000
  outer loop
    vertex 12.000000 0.937500 -0.312500
    vertex 12.000000 -0.426936 -1.174830
    vertex 12.000000 -0.294034 -1.214926
  endloop
endfacet
facet normal 0.270644 0.000000 -0.000000
  outer loop
    vertex 12.000000 -0.554572 -1.120245
    vertex 12.000000 -0.554572 1.120245
    vertex 12.000000 -0.675369 -1.051844
  endloop
endfacet
facet normal 0.254119 0.000000 0.000000
  outer loop
    vertex 12.000000 -0.675369 -1.051844
    vertex 12.000000 -0.554572 1.120245
    vertex 12.000000 -0.675369 1.051844
  endloop
endfacet
facet normal 0.236597 0.000000 -0.000000
  outer loop
    vertex 12.000000 -0.675369 -1.051844
    vertex 12.000000 -0.675369 1.051844
    vertex 12.000000 -0.787837 -0.970471
  endloop
endfacet
facet normal 0.218293 0.000000 0.000000
  outer loop
    vertex 12.000000 -0.787837 -0.970471
    vertex 12.000000 -0.675369 1.051844
    vertex 12.000000 -0.787837 0.970471
  endloop
endfacet
facet normal 0.199434 0.000000 -0.000000
  outer loop
    vertex 12.000000 -0.787837 -0.970471
    vertex 12.000000 -0.787837 0.970471
    vertex 12.000000 -0.890588 -0.877128
  endloop
endfacet
facet normal 0.180251 0.000000 0.000000
  outer loop
    vertex 12.000000 -0.890588 -0.877128
    vertex 12.000000 -0.787837 0.970471
    vertex 12.000000 -0.890588 0.877128
  endloop
endfacet
facet normal 0.160983 0.000000 -0.000000
  outer loop
    vertex 12.000000 -0.890588 -0.877128
    vertex 12.000000 -0.890588 0.877128
    vertex 12.000000 -0.982355 -0.772968
  endloop
endfacet
facet normal 0.141866 0.000000 0.000000
  outer loop
    vertex 12.000000 -0.982355 -0.772968
    vertex 12.000000 -0.890588 0.877128
    vertex 12.000000 -0.982355 0.772968
  endloop
endfacet
facet normal 0.123136 0.000000 -0.000000
  outer loop
    vertex 12.000000 -0.982355 -0.772968
    vertex 12.000000 -0.982355 0.772968
    vertex 12.000000 -1.062006 -0.659274
  endloop
endfacet
facet normal 0.105024 0.000000 0.000000
  outer loop
    vertex 12.000000 -1.062006 -0.659274
    vertex 12.000000 -0.982355 0.772968
    vertex 12.000000 -1.062006 0.659274
  endloop
endfacet
facet normal 0.087754 0.000000 -0.000000
  outer loop
    vertex 12.000000 -1.062006 -0.659274
    vertex 12.000000 -1.062006 0.659274
    vertex 12.000000 -1.128560 -0.537450
  endloop
endfacet
facet normal 0.071539 0.000000 0.000000
  outer loop
    vertex 12.000000 -1.128560 -0.537450
    vertex 12.000000 -1.062006 0.659274
    vertex 12.000000 -1.128560 0.537450
  endloop
endfacet
facet normal 0.056577 0.000000 -0.000000
  outer loop
    vertex 12.000000 -1.128560 -0.537450
    vertex 12.000000 -1.128560 0.537450
    vertex 12.000000 -1.181195 -0.408997
  endloop
endfacet
facet normal 0.043055 0.000000 0.000000
  outer loop
    vertex 12.000000 -1.181195 -0.408997
    vertex 12.000000 -1.128560 0.537450
    vertex 12.000000 -1.181195 0.408997
  endloop
endfacet
facet normal 0.031139 0.000000 -0.000000
  outer loop
    vertex 12.000000 -1.181195 -0.408997
    vertex 12.000000 -1.181195 0.408997
    vertex 12.000000 -1.219262 -0.275499
  endloop
endfacet
facet normal 0.020975 0.000000 0.000000
  outer loop
    vertex 12.000000 -1.219262 -0.275499
    vertex 12.000000 -1.181195 0.408997
    vertex 12.000000 -1.219262 0.275499
  endloop
endfacet
facet normal 0.012689 0.000000 -0.000000
  outer loop
    vertex 12.000000 -1.219262 -0.275499
    vertex 12.000000 -1.219262 0.275499
    vertex 12.000000 -1.242292 -0.138604
  endloop
endfacet
facet normal 0.006384 0.000000 0.000000
  outer loop
    vertex 12.000000 -1.242292 -0.138604
    vertex 12.000000 -1.219262 0.275499
    vertex 12.000000 -1.242292 0.138604
  endloop
endfacet
facet normal 0.002137 0.000000 -0.000000
  outer loop
    vertex 12.000000 -1.242292 -0.138604
    vertex 12.000000 -1.242292 0.138604
    vertex 12.000000 -1.250000 0.000000
  endloop
endfacet
facet normal 0.154132 -0.000000 0.000000
  outer loop
    vertex 12.000000 -0.294034 -1.214926
    vertex 12.000000 -0.157505 -1.240037
    vertex 12.000000 0.937500 -0.312500
  endloop
endfacet
facet normal 0.139188 0.000000 0.000000
  outer loop
    vertex 12.000000 0.937500 -0.312500
    vertex 12.000000 -0.157505 -1.240037
    vertex 12.000000 -0.019034 -1.249855
  endloop
endfacet
facet normal 0.124663 0.000000 0.000000
  outer loop
    vertex 12.000000 0.937500 -0.312500
    vertex 12.000000 -0.019034 -1.249855
    vertex 12.000000 0.119671 -1.244258
  endloop
endfacet
facet normal 0.110738 0.000000 0.000000
  outer loop
    vertex 12.000000 0.119671 -1.244258
    vertex 12.000000 0.256901 -1.223316
    vertex 12.000000 0.937500 -0.312500
  endloop
endfacet
facet normal 0.097583 0.000000 0.000000
  outer loop
    vertex 12.000000 0.937500 -0.312500
    vertex 12.000000 0.256901 -1.223316
    vertex 12.000000 0.390962 -1.187286
  endloop
endfacet
facet normal 0.085362 0.000000 0.000000
  outer loop
    vertex 12.000000 0.937500 -0.312500
    vertex 12.000000 0.390962 -1.187286
    vertex 12.000000 0.520202 -1.136613
  endloop
endfacet
facet normal 0.074225 0.000000 0.000000
  outer loop
    vertex 12.000000 0.520202 -1.136613
    vertex 12.000000 0.643026 -1.071922
    vertex 12.000000 0.937500 -0.312500
  endloop
endfacet
facet normal 0.064310 0.000000 0.000000
  outer loop
    vertex 12.000000 0.937500 -0.312500
    vertex 12.000000 0.643026 -1.071922
    vertex 12.000000 0.757919 -0.994011
  endloop
endfacet
facet normal 0.055738 0.000000 0.000000
  outer loop
    vertex 12.000000 0.937500 -0.312500
    vertex 12.000000 0.757919 -0.994011
    vertex 12.000000 0.863465 -0.903841
  endloop
endfacet
facet normal 0.048615 0.000000 0.000000
  outer loop
    vertex 12.000000 0.863465 -0.903841
    vertex 12.000000 0.958361 -0.802523
    vertex 12.000000 0.937500 -0.312500
  endloop
endfacet
facet normal 0.043030 0.000000 0.000000
  outer loop
    vertex 12.000000 0.937500 -0.312500
    vertex 12.000000 0.958361 -0.802523
    vertex 12.000000 1.041438 -0.691308
  endloop
endfacet
facet normal 0.039050 0.000000 0.000000
  outer loop
    vertex 12.000000 0.937500 -0.312500
    vertex 12.000000 1.041438 -0.691308
    vertex 12.000000 1.111671 -0.571567
  endloop
endfacet
facet normal 0.036726 0.000000 -0.000000
  outer loop
    vertex 12.000000 1.111671 -0.571567
    vertex 12.000000 1.168193 -0.444776
    vertex 12.000000 0.937500 -0.312500
  endloop
endfacet
facet normal 0.036086 -0.000000 0.000000
  outer loop
    vertex 12.000000 0.937500 -0.312500
    vertex 12.000000 1.168193 -0.444776
    vertex 12.000000 1.210307 -0.312500
  endloop
endfacet
facet normal -0.036086 0.000000 0.000000
  outer loop
    vertex 0.000000 1.210307 0.312500
    vertex 0.000000 0.937500 0.312500
    vertex 0.000000 1.168193 0.444776
  endloop
endfacet
facet normal -0.036726 -0.000000 0.000000
  outer loop
    vertex 0.000000 1.168193 0.444776
    vertex 0.000000 0.937500 0.312500
    vertex 0.000000 1.111671 0.571567
  endloop
endfacet
facet normal -0.039050 -0.000000 0.000000
  outer loop
    vertex 0.000000 1.111671 0.571567
    vertex 0.000000 0.937500 0.312500
    vertex 0.000000 1.041438 0.691308
  endloop
endfacet
facet normal -0.043030 -0.000000 0.000000
  outer loop
    vertex 0.000000 1.041438 0.691308
    vertex 0.000000 0.937500 0.312500
    vertex 0.000000 0.958361 0.802523
  endloop
endfacet
facet normal -0.048615 -0.000000 0.000000
  outer loop
    vertex 0.000000 0.958361 0.802523
    vertex 0.000000 0.937500 0.312500
    vertex 0.000000 0.863465 0.903841
  endloop
endfacet
facet normal -0.055738 -0.000000 -0.000000
  outer loop
    vertex 0.000000 0.863465 0.903841
    vertex 0.000000 0.937500 0.312500
    vertex 0.000000 0.757919 0.994011
  endloop
endfacet
facet normal -0.064310 -0.000000 -0.000000
  outer loop
    vertex 0.000000 0.757919 0.994011
    vertex 0.000000 0.937500 0.312500
    vertex 0.000000 0.643026 1.071922
  endloop
endfacet
facet normal -0.074225 -0.000000 -0.000000
  outer loop
    vertex 0.000000 0.643026 1.071922
    vertex 0.000000 0.937500 0.312500
    vertex 0.000000 0.520202 1.136613
  endloop
endfacet
facet normal -0.085362 -0.000000 -0.000000
  outer loop
    vertex 0.000000 0.520202 1.136613
    vertex 0.000000 0.937500 0.312500
    vertex 0.000000 0.390962 1.187286
  endloop
endfacet
facet normal -0.097583 -0.000000 -0.000000
  outer loop
    vertex 0.000000 0.390962 1.187286
    vertex 0.000000 0.937500 0.312500
    vertex 0.000000 0.256901 1.223316
  endloop
endfacet
facet normal -0.110738 -0.000000 -0.000000
  outer loop
    vertex 0.000000 0.256901 1.223316
    vertex 0.000000 0.937500 0.312500
    vertex 0.000000 0.119671 1.244258
  endloop
endfacet
facet normal -0.124663 -0.000000 -0.000000
  outer loop
    vertex 0.000000 0.119671 1.244258
    vertex 0.000000 0.937500 0.312500
    vertex 0.000000 -0.019034 1.249855
  endloop
endfacet
facet normal -0.139188 0.000000 -0.000000
  outer loop
    vertex 0.000000 -0.019034 1.249855
    vertex 0.000000 0.937500 0.312500
    vertex 0.000000 -0.157505 1.240037
  endloop
endfacet
facet normal -0.154132 0.000000 -0.000000
  outer loop
    vertex 0.000000 -0.157505 1.240037
    vertex 0.000000 0.937500 0.312500
    vertex 0.000000 -0.294034 1.214926
  endloop
endfacet
facet normal -0.169313 0.000000 -0.000000
  outer loop
    vertex 0.000000 -0.294034 1.214926
    vertex 0.000000 0.937500 0.312500
    vertex 0.000000 -0.426936 1.174830
  endloop
endfacet
facet normal -0.184542 0.000000 -0.000000
  outer loop
    vertex 0.000000 -0.426936 1.174830
    vertex 0.000000 0.937500 0.312500
    vertex 0.000000 -0.554572 1.120245
  endloop
endfacet
facet normal -0.932545 0.000000 0.000000
  outer loop
    vertex 0.000000 -0.554572 1.120245
    vertex 0.000000 0.937500 0.312500
    vertex 0.000000 0.937500 -0.312500
  endloop
endfacet
facet normal -3.342974 0.000000 0.000000
  outer loop
    vertex 0.000000 -0.554572 1.120245
    vertex 0.000000 0.937500 -0.312500
    vertex 0.000000 -0.554572 -1.120245
  endloop
endfacet
facet normal -0.184542 0.000000 0.000000
  outer loop
    vertex 0.000000 -0.554572 -1.120245
    vertex 0.000000 0.937500 -0.312500
    vertex 0.000000 -0.426936 -1.174830
  endloop
endfacet
facet normal -0.169313 0.000000 0.000000
  outer loop
    vertex 0.000000 -0.426936 -1.174830
    vertex 0.000000 0.937500 -0.312500
    vertex 0.000000 -0.294034 -1.214926
  endloop
endfacet
facet normal -0.154132 0.000000 0.000000
  outer loop
    vertex 0.000000 -0.294034 -1.214926
    vertex 0.000000 0.937500 -0.312500
    vertex 0.000000 -0.157505 -1.240037
  endloop
endfacet
facet normal -0.139188 0.000000 0.000000
  outer loop
    vertex 0.000000 -0.157505 -1.240037
    vertex 0.000000 0.937500 -0.312500
    vertex 0.000000 -0.019034 -1.249855
  endloop
endfacet
facet normal -0.124663 0.000000 0.000000
  outer loop
    vertex 0.000000 -0.019034 -1.249855
    vertex 0.000000 0.937500 -0.312500
    vertex 0.000000 0.119671 -1.244258
  endloop
endfacet
facet normal -0.110738 0.000000 0.000000
  outer loop
    vertex 0.000000 0.119671 -1.244258
    vertex 0.000000 0.937500 -0.312500
    vertex 0.000000 0.256901 -1.223316
  endloop
endfacet
facet normal -0.097583 0.000000 0.000000
  outer loop
    vertex 0.000000 0.256901 -1.223316
    vertex 0.000000 0.937500 -0.312500
    vertex 0.000000 0.390962 -1.187286
  endloop
endfacet
facet normal -0.085362 0.000000 0.000000
  outer loop
    vertex 0.000000 0.390962 -1.187286
    vertex 0.000000 0.937500 -0.312500
    vertex 0.000000 0.520202 -1.136613
  endloop
endfacet
facet normal -0.074225 0.000000 0.000000
  outer loop
    vertex 0.000000 0.520202 -1.136613
    vertex 0.000000 0.937500 -0.312500
    vertex 0.000000 0.643026 -1.071922
  endloop
endfacet
facet normal -0.064310 0.000000 0.000000
  outer loop
    vertex 0.000000 0.643026 -1.071922
    vertex 0.000000 0.937500 -0.312500
    vertex 0.000000 0.757919 -0.994011
  endloop
endfacet
facet normal -0.055738 0.000000 0.000000
  outer loop
    vertex 0.000000 0.757919 -0.994011
    vertex 0.000000 0.937500 -0.312500
    vertex 0.000000 0.863465 -0.903841
  endloop
endfacet
facet normal -0.048615 0.000000 0.000000
  outer loop
    vertex 0.000000 0.863465 -0.903841
    vertex 0.000000 0.937500 -0.312500
    vertex 0.000000 0.958361 -0.802523
  endloop
endfacet
facet normal -0.043030 0.000000 0.000000
  outer loop
    vertex 0.000000 0.958361 -0.802523
    vertex 0.000000 0.937500 -0.312500
    vertex 0.000000 1.041438 -0.691308
  endloop
endfacet
facet normal -0.039050 0.000000 0.000000
  outer loop
    vertex 0.000000 1.041438 -0.691308
    vertex 0.000000 0.937500 -0.312500
    vertex 0.000000 1.111671 -0.571567
  endloop
endfacet
facet normal -0.036726 0.000000 0.000000
  outer loop
    vertex 0.000000 1.111671 -0.571567
    vertex 0.000000 0.937500 -0.312500
    vertex 0.000000 1.168193 -0.444776
  endloop
endfacet
facet normal -0.036086 0.000000 0.000000
  outer loop
    vertex 0.000000 1.168193 -0.444776
    vertex 0.000000 0.937500 -0.312500
    vertex 0.000000 1.210307 -0.312500
  endloop
endfacet
facet normal -0.270644 0.000000 -0.000000
  outer loop
    vertex 0.000000 -0.554572 1.120245
    vertex 0.000000 -0.554572 -1.120245
    vertex 0.000000 -0.675369 1.051844
  endloop
endfacet
facet normal -0.254119 0.000000 0.000000
  outer loop
    vertex 0.000000 -0.675369 1.051844
    vertex 0.000000 -0.554572 -1.120245
    vertex 0.000000 -0.675369 -1.051844
  endloop
endfacet
facet normal -0.236597 0.000000 -0.000000
  outer loop
    vertex 0.000000 -0.675369 1.051844
    vertex 0.000000 -0.675369 -1.051844
    vertex 0.000000 -0.787837 0.970471
  endloop
endfacet
facet normal -0.218293 0.000000 0.000000
  outer loop
    vertex 0.000000 -0.787837 0.970471
    vertex 0.000000 -0.675369 -1.051844
    vertex 0.000000 -0.787837 -0.970471
  endloop
endfacet
facet normal -0.199434 0.000000 -0.000000
  outer loop
    vertex 0.000000 -0.787837 0.970471
    vertex 0.000000 -0.787837 -0.970471
    vertex 0.000000 -0.890588 0.877128
  endloop
endfacet
facet normal -0.180251 0.000000 0.000000
  outer loop
    vertex 0.000000 -0.890588 0.877128
    vertex 0.000000 -0.787837 -0.970471
    vertex 0.000000 -0.890588 -0.877128
  endloop
endfacet
facet normal -0.160983 0.000000 -0.000000
  outer loop
    vertex 0.000000 -0.890588 0.877128
    vertex 0.000000 -0.890588 -0.877128
    vertex 0.000000 -0.982355 0.772968
  endloop
endfacet
facet normal -0.141866 0.000000 0.000000
  outer loop
    vertex 0.000000 -0.982355 0.772968
    vertex 0.000000 -0.890588 -0.877128
    vertex 0.000000 -0.982355 -0.772968
  endloop
endfacet
facet normal -0.123136 0.000000 -0.000000
  outer loop
    vertex 0.000000 -0.982355 0.772968
    vertex 0.000000 -0.982355 -0.772968
    vertex 0.000000 -1.062006 0.659274
  endloop
endfacet
facet normal -0.105024 0.000000 0.000000
  outer loop
    vertex 0.000000 -1.062006 0.659274
    vertex 0.000000 -0.982355 -0.772968
    vertex 0.000000 -1.062006 -0.659274
  endloop
endfacet
facet normal -0.087754 0.000000 -0.000000
  outer loop
    vertex 0.000000 -1.062006 0.659274
    vertex 0.000000 -1.062006 -0.659274
    vertex 0.000000 -1.128560 0.537450
  endloop
endfacet
facet normal -0.071539 0.000000 0.000000
  outer loop
    vertex 0.000000 -1.128560 0.537450
    vertex 0.000000 -1.062006 -0.659274
    vertex 0.000000 -1.128560 -0.537450
  endloop
endfacet
facet normal -0.056577 0.000000 -0.000000
  outer loop
    vertex 0.000000 -1.128560 0.537450
    vertex 0.000000 -1.128560 -0.537450
    vertex 0.000000 -1.181195 0.408997
  endloop
endfacet
facet normal -0.043055 0.000000 0.000000
  outer loop
    vertex 0.000000 -1.181195 0.408997
    vertex 0.000000 -1.128560 -0.537450
    vertex 0.000000 -1.181195 -0.408997
  endloop
endfacet
facet normal -0.031139 0.000000 -0.000000
  outer loop
    vertex 0.000000 -1.181195 0.408997
    vertex 0.000000 -1.181195 -0.408997
    vertex 0.000000 -1.219262 0.275499
  endloop
endfacet
facet normal -0.020975 0.000000 0.000000
  outer loop
    vertex 0.000000 -1.219262 0.275499
    vertex 0.000000 -1.181195 -0.408997
    vertex 0.000000 -1.219262 -0.275499
  endloop
endfacet
facet normal -0.012689 0.000000 -0.000000
  outer loop
    vertex 0.000000 -1.219262 0.275499
    vertex 0.000000 -1.219262 -0.275499
    vertex 0.000000 -1.242292 0.138604
  endloop
endfacet
facet normal -0.006384 0.000000 0.000000
  outer loop
    vertex 0.000000 -1.242292 0.138604
    vertex 0.000000 -1.219262 -0.275499
    vertex 0.000000 -1.242292 -0.138604
  endloop
endfacet
facet normal -0.002137 0.000000 -0.000000
  outer loop
    vertex 0.000000 -1.242292 0.138604
    vertex 0.000000 -1.242292 -0.138604
    vertex 0.000000 -1.250000 0.000000
  endloop
endfacet
endsolid 79a2bf0d-df03-4e38-8de4-65d4f4ab95d6-ascii.stl
