solid 824f198b-aa63-42dc-ad6c-b5336fab88d4-ascii.stl
facet normal -0.000000 1.687500 0.000000
  outer loop
    vertex 0.000000 0.343750 0.093750
    vertex 9.000000 0.343750 0.093750
    vertex 0.000000 0.343750 -0.093750
  endloop
endfacet
facet normal 0.000000 1.687500 0.000000
  outer loop
    vertex 0.000000 0.343750 -0.093750
    vertex 9.000000 0.343750 0.093750
    vertex 9.000000 0.343750 -0.093750
  endloop
endfacet
facet normal 0.000000 0.000000 0.752286
  outer loop
    vertex 0.000000 0.343750 -0.093750
    vertex 9.000000 0.343750 -0.093750
    vertex 0.000000 0.427337 -0.093750
  endloop
endfacet
facet normal -0.000000 0.000000 0.752286
  outer loop
    vertex 0.000000 0.427337 -0.093750
    vertex 9.000000 0.343750 -0.093750
    vertex 9.000000 0.427337 -0.093750
  endloop
endfacet
facet normal -0.000092 0.099193 0.030145
  outer loop
    vertex 0.000000 0.407241 0.159879
    vertex 1.500000 0.420227 0.121720
    vertex 0.000000 0.427337 0.093750
  endloop
endfacet
facet normal 0.000000 0.041955 0.010666
  outer loop
    vertex 0.000000 0.427337 0.093750
    vertex 1.500000 0.420227 0.121720
    vertex 3.000000 0.420227 0.121720
  endloop
endfacet
facet normal 0.000000 0.041955 0.010666
  outer loop
    vertex 0.000000 0.427337 0.093750
    vertex 3.000000 0.420227 0.121720
    vertex 4.500000 0.420227 0.121720
  endloop
endfacet
facet normal 0.000000 0.098749 0.037451
  outer loop
    vertex 4.500000 0.420227 0.121720
    vertex 3.000000 0.420227 0.121720
    vertex 4.500000 0.395260 0.187553
  endloop
endfacet
facet normal 0.000000 0.098749 0.037451
  outer loop
    vertex 4.500000 0.420227 0.121720
    vertex 4.500000 0.395260 0.187553
    vertex 6.000000 0.395260 0.187553
  endloop
endfacet
facet normal 0.000000 0.091463 0.052806
  outer loop
    vertex 6.000000 0.395260 0.187553
    vertex 4.500000 0.395260 0.187553
    vertex 6.000000 0.360055 0.248528
  endloop
endfacet
facet normal 0.000000 0.091463 0.052806
  outer loop
    vertex 6.000000 0.395260 0.187553
    vertex 6.000000 0.360055 0.248528
    vertex 7.500000 0.360055 0.248528
  endloop
endfacet
facet normal 0.000000 0.081808 0.066794
  outer loop
    vertex 7.500000 0.360055 0.248528
    vertex 6.000000 0.360055 0.248528
    vertex 7.500000 0.315526 0.303067
  endloop
endfacet
facet normal -0.000099 0.081808 0.066794
  outer loop
    vertex 7.500000 0.360055 0.248528
    vertex 7.500000 0.315526 0.303067
    vertex 9.000000 0.337312 0.278616
  endloop
endfacet
facet normal 0.000094 0.074467 0.072130
  outer loop
    vertex 9.000000 0.337312 0.278616
    vertex 7.500000 0.315526 0.303067
    vertex 9.000000 0.289226 0.328260
  endloop
endfacet
facet normal -0.000100 0.070034 0.079052
  outer loop
    vertex 9.000000 0.289226 0.328260
    vertex 7.500000 0.315526 0.303067
    vertex 7.500000 0.262825 0.349756
  endloop
endfacet
facet normal 0.000094 0.062178 0.082957
  outer loop
    vertex 9.000000 0.289226 0.328260
    vertex 7.500000 0.262825 0.349756
    vertex 9.000000 0.233921 0.369712
  endloop
endfacet
facet normal -0.000100 0.056446 0.089263
  outer loop
    vertex 9.000000 0.233921 0.369712
    vertex 7.500000 0.262825 0.349756
    vertex 7.500000 0.203316 0.387387
  endloop
endfacet
facet normal 0.000094 0.048338 0.091714
  outer loop
    vertex 9.000000 0.233921 0.369712
    vertex 7.500000 0.203316 0.387387
    vertex 9.000000 0.172778 0.401938
  endloop
endfacet
facet normal -0.000100 0.041397 0.097161
  outer loop
    vertex 9.000000 0.172778 0.401938
    vertex 7.500000 0.203316 0.387387
    vertex 7.500000 0.138542 0.414985
  endloop
endfacet
facet normal 0.000094 0.033291 0.098182
  outer loop
    vertex 9.000000 0.172778 0.401938
    vertex 7.500000 0.138542 0.414985
    vertex 9.000000 0.107323 0.424132
  endloop
endfacet
facet normal -0.000099 0.025275 0.102543
  outer loop
    vertex 9.000000 0.107323 0.424132
    vertex 7.500000 0.138542 0.414985
    vertex 7.500000 0.070180 0.431834
  endloop
endfacet
facet normal 0.000094 0.017414 0.102200
  outer loop
    vertex 9.000000 0.107323 0.424132
    vertex 7.500000 0.070180 0.431834
    vertex 9.000000 0.039190 0.435741
  endloop
endfacet
facet normal -0.000099 0.008498 0.105270
  outer loop
    vertex 9.000000 0.039190 0.435741
    vertex 7.500000 0.070180 0.431834
    vertex 7.500000 -0.000000 0.437500
  endloop
endfacet
facet normal 0.000093 0.001102 0.103667
  outer loop
    vertex 9.000000 0.039190 0.435741
    vertex 7.500000 -0.000000 0.437500
    vertex 9.000000 -0.029921 0.436476
  endloop
endfacet
facet normal -0.000098 -0.008498 0.105270
  outer loop
    vertex 9.000000 -0.029921 0.436476
    vertex 7.500000 -0.000000 0.437500
    vertex 7.500000 -0.070180 0.431834
  endloop
endfacet
facet normal 0.000092 -0.015238 0.102547
  outer loop
    vertex 9.000000 -0.029921 0.436476
    vertex 7.500000 -0.070180 0.431834
    vertex 9.000000 -0.098286 0.426317
  endloop
endfacet
facet normal -0.000096 -0.025275 0.102543
  outer loop
    vertex 9.000000 -0.098286 0.426317
    vertex 7.500000 -0.070180 0.431834
    vertex 7.500000 -0.138542 0.414985
  endloop
endfacet
facet normal 0.000090 -0.031197 0.098867
  outer loop
    vertex 9.000000 -0.098286 0.426317
    vertex 7.500000 -0.138542 0.414985
    vertex 9.000000 -0.164197 0.405519
  endloop
endfacet
facet normal -0.000095 -0.041397 0.097161
  outer loop
    vertex 9.000000 -0.164197 0.405519
    vertex 7.500000 -0.138542 0.414985
    vertex 7.500000 -0.203316 0.387387
  endloop
endfacet
facet normal 0.000089 -0.046378 0.092721
  outer loop
    vertex 9.000000 -0.164197 0.405519
    vertex 7.500000 -0.203316 0.387387
    vertex 9.000000 -0.226011 0.374600
  endloop
endfacet
facet normal -0.000093 -0.056446 0.089263
  outer loop
    vertex 9.000000 -0.226011 0.374600
    vertex 7.500000 -0.203316 0.387387
    vertex 7.500000 -0.262825 0.349756
  endloop
endfacet
facet normal 0.000087 -0.060401 0.084260
  outer loop
    vertex 9.000000 -0.226011 0.374600
    vertex 7.500000 -0.262825 0.349756
    vertex 9.000000 -0.282184 0.334333
  endloop
endfacet
facet normal -0.000091 -0.070034 0.079052
  outer loop
    vertex 9.000000 -0.282184 0.334333
    vertex 7.500000 -0.262825 0.349756
    vertex 7.500000 -0.315526 0.303067
  endloop
endfacet
facet normal 0.000085 -0.072917 0.073696
  outer loop
    vertex 9.000000 -0.282184 0.334333
    vertex 7.500000 -0.315526 0.303067
    vertex 9.000000 -0.331315 0.285721
  endloop
endfacet
facet normal -0.000089 -0.081808 0.066794
  outer loop
    vertex 9.000000 -0.331315 0.285721
    vertex 7.500000 -0.315526 0.303067
    vertex 7.500000 -0.360055 0.248528
  endloop
endfacet
facet normal 0.000082 -0.083613 0.061293
  outer loop
    vertex 9.000000 -0.331315 0.285721
    vertex 7.500000 -0.360055 0.248528
    vertex 9.000000 -0.372177 0.229979
  endloop
endfacet
facet normal -0.000086 -0.091463 0.052806
  outer loop
    vertex 9.000000 -0.372177 0.229979
    vertex 7.500000 -0.360055 0.248528
    vertex 7.500000 -0.395260 0.187553
  endloop
endfacet
facet normal 0.000080 -0.092223 0.047361
  outer loop
    vertex 9.000000 -0.372177 0.229979
    vertex 7.500000 -0.395260 0.187553
    vertex 9.000000 -0.403751 0.168497
  endloop
endfacet
facet normal -0.000083 -0.098749 0.037451
  outer loop
    vertex 9.000000 -0.403751 0.168497
    vertex 7.500000 -0.395260 0.187553
    vertex 7.500000 -0.420227 0.121720
  endloop
endfacet
facet normal 0.000077 -0.098530 0.032246
  outer loop
    vertex 9.000000 -0.403751 0.168497
    vertex 7.500000 -0.420227 0.121720
    vertex 9.000000 -0.425249 0.102810
  endloop
endfacet
facet normal -0.000080 -0.103478 0.021125
  outer loop
    vertex 9.000000 -0.425249 0.102810
    vertex 7.500000 -0.420227 0.121720
    vertex 7.500000 -0.434310 0.052735
  endloop
endfacet
facet normal 0.000073 -0.102379 0.016327
  outer loop
    vertex 9.000000 -0.425249 0.102810
    vertex 7.500000 -0.434310 0.052735
    vertex 9.000000 -0.436133 0.034558
  endloop
endfacet
facet normal -0.000077 -0.105527 0.004253
  outer loop
    vertex 9.000000 -0.436133 0.034558
    vertex 7.500000 -0.434310 0.052735
    vertex 7.500000 -0.437145 -0.017616
  endloop
endfacet
facet normal 0.000070 -0.103673 0.000000
  outer loop
    vertex 9.000000 -0.436133 0.034558
    vertex 7.500000 -0.437145 -0.017616
    vertex 9.000000 -0.436133 -0.034558
  endloop
endfacet
facet normal -0.000073 -0.104842 -0.012730
  outer loop
    vertex 9.000000 -0.436133 -0.034558
    vertex 7.500000 -0.437145 -0.017616
    vertex 7.500000 -0.428658 -0.087511
  endloop
endfacet
facet normal 0.000066 -0.102379 -0.016327
  outer loop
    vertex 9.000000 -0.436133 -0.034558
    vertex 7.500000 -0.428658 -0.087511
    vertex 9.000000 -0.425249 -0.102810
  endloop
endfacet
facet normal -0.000069 -0.101443 -0.029383
  outer loop
    vertex 9.000000 -0.425249 -0.102810
    vertex 7.500000 -0.428658 -0.087511
    vertex 7.500000 -0.409070 -0.155140
  endloop
endfacet
facet normal 0.000062 -0.098530 -0.032246
  outer loop
    vertex 9.000000 -0.425249 -0.102810
    vertex 7.500000 -0.409070 -0.155140
    vertex 9.000000 -0.403751 -0.168497
  endloop
endfacet
facet normal -0.000065 -0.095416 -0.045275
  outer loop
    vertex 9.000000 -0.403751 -0.168497
    vertex 7.500000 -0.409070 -0.155140
    vertex 7.500000 -0.378886 -0.218750
  endloop
endfacet
facet normal 0.000058 -0.092223 -0.047361
  outer loop
    vertex 9.000000 -0.403751 -0.168497
    vertex 7.500000 -0.378886 -0.218750
    vertex 9.000000 -0.372177 -0.229979
  endloop
endfacet
facet normal -0.000060 -0.086917 -0.059995
  outer loop
    vertex 9.000000 -0.372177 -0.229979
    vertex 7.500000 -0.378886 -0.218750
    vertex 7.500000 -0.338890 -0.276695
  endloop
endfacet
facet normal 0.000053 -0.083613 -0.061293
  outer loop
    vertex 9.000000 -0.372177 -0.229979
    vertex 7.500000 -0.338890 -0.276695
    vertex 9.000000 -0.331315 -0.285721
  endloop
endfacet
facet normal -0.000056 -0.076168 -0.073160
  outer loop
    vertex 9.000000 -0.331315 -0.285721
    vertex 7.500000 -0.338890 -0.276695
    vertex 7.500000 -0.290116 -0.327473
  endloop
endfacet
facet normal 0.000049 -0.072917 -0.073696
  outer loop
    vertex 9.000000 -0.331315 -0.285721
    vertex 7.500000 -0.290116 -0.327473
    vertex 9.000000 -0.282184 -0.334333
  endloop
endfacet
facet normal -0.000051 -0.063446 -0.084431
  outer loop
    vertex 9.000000 -0.282184 -0.334333
    vertex 7.500000 -0.290116 -0.327473
    vertex 7.500000 -0.233829 -0.369771
  endloop
endfacet
facet normal 0.000044 -0.060401 -0.084260
  outer loop
    vertex 9.000000 -0.282184 -0.334333
    vertex 7.500000 -0.233829 -0.369771
    vertex 9.000000 -0.226011 -0.374600
  endloop
endfacet
facet normal -0.000045 -0.049080 -0.093515
  outer loop
    vertex 9.000000 -0.226011 -0.374600
    vertex 7.500000 -0.233829 -0.369771
    vertex 7.500000 -0.171485 -0.402491
  endloop
endfacet
facet normal 0.000038 -0.046378 -0.092721
  outer loop
    vertex 9.000000 -0.226011 -0.374600
    vertex 7.500000 -0.171485 -0.402491
    vertex 9.000000 -0.164197 -0.405519
  endloop
endfacet
facet normal -0.000040 -0.033444 -0.100177
  outer loop
    vertex 9.000000 -0.164197 -0.405519
    vertex 7.500000 -0.171485 -0.402491
    vertex 7.500000 -0.104701 -0.424787
  endloop
endfacet
facet normal 0.000033 -0.031197 -0.098867
  outer loop
    vertex 9.000000 -0.164197 -0.405519
    vertex 7.500000 -0.104701 -0.424787
    vertex 9.000000 -0.098286 -0.426317
  endloop
endfacet
facet normal -0.000034 -0.016941 -0.104245
  outer loop
    vertex 9.000000 -0.098286 -0.426317
    vertex 7.500000 -0.104701 -0.424787
    vertex 7.500000 -0.035204 -0.436081
  endloop
endfacet
facet normal 0.000027 -0.015238 -0.102547
  outer loop
    vertex 9.000000 -0.098286 -0.426317
    vertex 7.500000 -0.035204 -0.436081
    vertex 9.000000 -0.029921 -0.436476
  endloop
endfacet
facet normal -0.000028 0.000000 -0.105612
  outer loop
    vertex 9.000000 -0.029921 -0.436476
    vertex 7.500000 -0.035204 -0.436081
    vertex 7.500000 0.035204 -0.436081
  endloop
endfacet
facet normal 0.000021 0.001102 -0.103667
  outer loop
    vertex 9.000000 -0.029921 -0.436476
    vertex 7.500000 0.035204 -0.436081
    vertex 9.000000 0.039190 -0.435741
  endloop
endfacet
facet normal -0.000021 0.016941 -0.104245
  outer loop
    vertex 9.000000 0.039190 -0.435741
    vertex 7.500000 0.035204 -0.436081
    vertex 7.500000 0.104701 -0.424787
  endloop
endfacet
facet normal 0.000014 0.017414 -0.102200
  outer loop
    vertex 9.000000 0.039190 -0.435741
    vertex 7.500000 0.104701 -0.424787
    vertex 9.000000 0.107323 -0.424132
  endloop
endfacet
facet normal -0.000015 0.033444 -0.100177
  outer loop
    vertex 9.000000 0.107323 -0.424132
    vertex 7.500000 0.104701 -0.424787
    vertex 7.500000 0.171485 -0.402491
  endloop
endfacet
facet normal 0.000008 0.033291 -0.098182
  outer loop
    vertex 9.000000 0.107323 -0.424132
    vertex 7.500000 0.171485 -0.402491
    vertex 9.000000 0.172778 -0.401938
  endloop
endfacet
facet normal -0.000008 0.049168 -0.093653
  outer loop
    vertex 9.000000 0.172778 -0.401938
    vertex 7.500000 0.171485 -0.402491
    vertex 7.500000 0.233921 -0.369712
  endloop
endfacet
facet normal 0.000000 0.048338 -0.091714
  outer loop
    vertex 9.000000 0.172778 -0.401938
    vertex 7.500000 0.233921 -0.369712
    vertex 9.000000 0.233921 -0.369712
  endloop
endfacet
facet normal 0.000000 0.062178 -0.082957
  outer loop
    vertex 9.000000 0.233921 -0.369712
    vertex 7.500000 0.233921 -0.369712
    vertex 9.000000 0.289226 -0.328260
  endloop
endfacet
facet normal -0.000007 0.063359 -0.084293
  outer loop
    vertex 9.000000 0.289226 -0.328260
    vertex 7.500000 0.233921 -0.369712
    vertex 7.500000 0.290116 -0.327473
  endloop
endfacet
facet normal 0.000006 0.074467 -0.072130
  outer loop
    vertex 9.000000 0.289226 -0.328260
    vertex 7.500000 0.290116 -0.327473
    vertex 9.000000 0.337312 -0.278616
  endloop
endfacet
facet normal -0.000014 0.076168 -0.073160
  outer loop
    vertex 9.000000 0.337312 -0.278616
    vertex 7.500000 0.290116 -0.327473
    vertex 7.500000 0.338890 -0.276695
  endloop
endfacet
facet normal 0.000013 0.084897 -0.059503
  outer loop
    vertex 9.000000 0.337312 -0.278616
    vertex 7.500000 0.338890 -0.276695
    vertex 9.000000 0.376981 -0.222018
  endloop
endfacet
facet normal -0.000020 0.086917 -0.059995
  outer loop
    vertex 9.000000 0.376981 -0.222018
    vertex 7.500000 0.338890 -0.276695
    vertex 7.500000 0.378886 -0.218750
  endloop
endfacet
facet normal 0.000020 0.093208 -0.045390
  outer loop
    vertex 9.000000 0.376981 -0.222018
    vertex 7.500000 0.378886 -0.218750
    vertex 9.000000 0.407241 -0.159879
  endloop
endfacet
facet normal -0.000027 0.095416 -0.045275
  outer loop
    vertex 9.000000 0.407241 -0.159879
    vertex 7.500000 0.378886 -0.218750
    vertex 7.500000 0.409070 -0.155140
  endloop
endfacet
facet normal 0.000026 0.099193 -0.030145
  outer loop
    vertex 9.000000 0.407241 -0.159879
    vertex 7.500000 0.409070 -0.155140
    vertex 9.000000 0.427337 -0.093750
  endloop
endfacet
facet normal 0.000000 0.092084 -0.027402
  outer loop
    vertex 9.000000 0.427337 -0.093750
    vertex 7.500000 0.409070 -0.155140
    vertex 6.000000 0.409070 -0.155140
  endloop
endfacet
facet normal 0.000000 0.092084 -0.027402
  outer loop
    vertex 9.000000 0.427337 -0.093750
    vertex 6.000000 0.409070 -0.155140
    vertex 4.500000 0.409070 -0.155140
  endloop
endfacet
facet normal 0.000000 0.095416 -0.045275
  outer loop
    vertex 4.500000 0.409070 -0.155140
    vertex 6.000000 0.409070 -0.155140
    vertex 4.500000 0.378886 -0.218750
  endloop
endfacet
facet normal 0.000000 0.095416 -0.045275
  outer loop
    vertex 4.500000 0.409070 -0.155140
    vertex 4.500000 0.378886 -0.218750
    vertex 3.000000 0.378886 -0.218750
  endloop
endfacet
facet normal 0.000000 0.086917 -0.059995
  outer loop
    vertex 3.000000 0.378886 -0.218750
    vertex 4.500000 0.378886 -0.218750
    vertex 3.000000 0.338890 -0.276695
  endloop
endfacet
facet normal 0.000000 0.086917 -0.059995
  outer loop
    vertex 3.000000 0.378886 -0.218750
    vertex 3.000000 0.338890 -0.276695
    vertex 1.500000 0.338890 -0.276695
  endloop
endfacet
facet normal 0.000000 0.076168 -0.073160
  outer loop
    vertex 1.500000 0.338890 -0.276695
    vertex 3.000000 0.338890 -0.276695
    vertex 1.500000 0.290116 -0.327473
  endloop
endfacet
facet normal 0.000014 0.076168 -0.073160
  outer loop
    vertex 1.500000 0.338890 -0.276695
    vertex 1.500000 0.290116 -0.327473
    vertex 0.000000 0.337312 -0.278616
  endloop
endfacet
facet normal -0.000006 0.074467 -0.072130
  outer loop
    vertex 0.000000 0.337312 -0.278616
    vertex 1.500000 0.290116 -0.327473
    vertex 0.000000 0.289226 -0.328260
  endloop
endfacet
facet normal 0.000007 0.063359 -0.084293
  outer loop
    vertex 0.000000 0.289226 -0.328260
    vertex 1.500000 0.290116 -0.327473
    vertex 1.500000 0.233921 -0.369712
  endloop
endfacet
facet normal 0.000000 0.062178 -0.082957
  outer loop
    vertex 0.000000 0.289226 -0.328260
    vertex 1.500000 0.233921 -0.369712
    vertex 0.000000 0.233921 -0.369712
  endloop
endfacet
facet normal 0.000000 0.048338 -0.091714
  outer loop
    vertex 0.000000 0.233921 -0.369712
    vertex 1.500000 0.233921 -0.369712
    vertex 0.000000 0.172778 -0.401938
  endloop
endfacet
facet normal 0.000008 0.049168 -0.093653
  outer loop
    vertex 0.000000 0.172778 -0.401938
    vertex 1.500000 0.233921 -0.369712
    vertex 1.500000 0.171485 -0.402491
  endloop
endfacet
facet normal -0.000008 0.033291 -0.098182
  outer loop
    vertex 0.000000 0.172778 -0.401938
    vertex 1.500000 0.171485 -0.402491
    vertex 0.000000 0.107323 -0.424132
  endloop
endfacet
facet normal 0.000015 0.033444 -0.100177
  outer loop
    vertex 0.000000 0.107323 -0.424132
    vertex 1.500000 0.171485 -0.402491
    vertex 1.500000 0.104701 -0.424787
  endloop
endfacet
facet normal -0.000014 0.017414 -0.102200
  outer loop
    vertex 0.000000 0.107323 -0.424132
    vertex 1.500000 0.104701 -0.424787
    vertex 0.000000 0.039190 -0.435741
  endloop
endfacet
facet normal 0.000021 0.016941 -0.104245
  outer loop
    vertex 0.000000 0.039190 -0.435741
    vertex 1.500000 0.104701 -0.424787
    vertex 1.500000 0.035204 -0.436081
  endloop
endfacet
facet normal -0.000021 0.001102 -0.103667
  outer loop
    vertex 0.000000 0.039190 -0.435741
    vertex 1.500000 0.035204 -0.436081
    vertex 0.000000 -0.029921 -0.436476
  endloop
endfacet
facet normal 0.000028 0.000000 -0.105612
  outer loop
    vertex 0.000000 -0.029921 -0.436476
    vertex 1.500000 0.035204 -0.436081
    vertex 1.500000 -0.035204 -0.436081
  endloop
endfacet
facet normal -0.000027 -0.015238 -0.102547
  outer loop
    vertex 0.000000 -0.029921 -0.436476
    vertex 1.500000 -0.035204 -0.436081
    vertex 0.000000 -0.098286 -0.426317
  endloop
endfacet
facet normal 0.000034 -0.016941 -0.104245
  outer loop
    vertex 0.000000 -0.098286 -0.426317
    vertex 1.500000 -0.035204 -0.436081
    vertex 1.500000 -0.104701 -0.424787
  endloop
endfacet
facet normal -0.000033 -0.031197 -0.098867
  outer loop
    vertex 0.000000 -0.098286 -0.426317
    vertex 1.500000 -0.104701 -0.424787
    vertex 0.000000 -0.164197 -0.405519
  endloop
endfacet
facet normal 0.000040 -0.033444 -0.100177
  outer loop
    vertex 0.000000 -0.164197 -0.405519
    vertex 1.500000 -0.104701 -0.424787
    vertex 1.500000 -0.171485 -0.402491
  endloop
endfacet
facet normal -0.000038 -0.046378 -0.092721
  outer loop
    vertex 0.000000 -0.164197 -0.405519
    vertex 1.500000 -0.171485 -0.402491
    vertex 0.000000 -0.226011 -0.374600
  endloop
endfacet
facet normal 0.000045 -0.049080 -0.093515
  outer loop
    vertex 0.000000 -0.226011 -0.374600
    vertex 1.500000 -0.171485 -0.402491
    vertex 1.500000 -0.233829 -0.369771
  endloop
endfacet
facet normal -0.000044 -0.060401 -0.084260
  outer loop
    vertex 0.000000 -0.226011 -0.374600
    vertex 1.500000 -0.233829 -0.369771
    vertex 0.000000 -0.282184 -0.334333
  endloop
endfacet
facet normal 0.000051 -0.063446 -0.084431
  outer loop
    vertex 0.000000 -0.282184 -0.334333
    vertex 1.500000 -0.233829 -0.369771
    vertex 1.500000 -0.290116 -0.327473
  endloop
endfacet
facet normal -0.000049 -0.072917 -0.073696
  outer loop
    vertex 0.000000 -0.282184 -0.334333
    vertex 1.500000 -0.290116 -0.327473
    vertex 0.000000 -0.331315 -0.285721
  endloop
endfacet
facet normal 0.000056 -0.076168 -0.073160
  outer loop
    vertex 0.000000 -0.331315 -0.285721
    vertex 1.500000 -0.290116 -0.327473
    vertex 1.500000 -0.338890 -0.276695
  endloop
endfacet
facet normal -0.000053 -0.083613 -0.061293
  outer loop
    vertex 0.000000 -0.331315 -0.285721
    vertex 1.500000 -0.338890 -0.276695
    vertex 0.000000 -0.372177 -0.229979
  endloop
endfacet
facet normal 0.000060 -0.086917 -0.059995
  outer loop
    vertex 0.000000 -0.372177 -0.229979
    vertex 1.500000 -0.338890 -0.276695
    vertex 1.500000 -0.378886 -0.218750
  endloop
endfacet
facet normal -0.000058 -0.092223 -0.047361
  outer loop
    vertex 0.000000 -0.372177 -0.229979
    vertex 1.500000 -0.378886 -0.218750
    vertex 0.000000 -0.403751 -0.168497
  endloop
endfacet
facet normal 0.000065 -0.095416 -0.045275
  outer loop
    vertex 0.000000 -0.403751 -0.168497
    vertex 1.500000 -0.378886 -0.218750
    vertex 1.500000 -0.409070 -0.155140
  endloop
endfacet
facet normal -0.000062 -0.098530 -0.032246
  outer loop
    vertex 0.000000 -0.403751 -0.168497
    vertex 1.500000 -0.409070 -0.155140
    vertex 0.000000 -0.425249 -0.102810
  endloop
endfacet
facet normal 0.000069 -0.101443 -0.029383
  outer loop
    vertex 0.000000 -0.425249 -0.102810
    vertex 1.500000 -0.409070 -0.155140
    vertex 1.500000 -0.428658 -0.087511
  endloop
endfacet
facet normal -0.000066 -0.102379 -0.016327
  outer loop
    vertex 0.000000 -0.425249 -0.102810
    vertex 1.500000 -0.428658 -0.087511
    vertex 0.000000 -0.436133 -0.034558
  endloop
endfacet
facet normal 0.000073 -0.104842 -0.012730
  outer loop
    vertex 0.000000 -0.436133 -0.034558
    vertex 1.500000 -0.428658 -0.087511
    vertex 1.500000 -0.437145 -0.017616
  endloop
endfacet
facet normal -0.000070 -0.103673 0.000000
  outer loop
    vertex 0.000000 -0.436133 -0.034558
    vertex 1.500000 -0.437145 -0.017616
    vertex 0.000000 -0.436133 0.034558
  endloop
endfacet
facet normal 0.000077 -0.105527 0.004253
  outer loop
    vertex 0.000000 -0.436133 0.034558
    vertex 1.500000 -0.437145 -0.017616
    vertex 1.500000 -0.434310 0.052735
  endloop
endfacet
facet normal -0.000073 -0.102379 0.016327
  outer loop
    vertex 0.000000 -0.436133 0.034558
    vertex 1.500000 -0.434310 0.052735
    vertex 0.000000 -0.425249 0.102810
  endloop
endfacet
facet normal 0.000080 -0.103478 0.021125
  outer loop
    vertex 0.000000 -0.425249 0.102810
    vertex 1.500000 -0.434310 0.052735
    vertex 1.500000 -0.420227 0.121720
  endloop
endfacet
facet normal -0.000077 -0.098530 0.032246
  outer loop
    vertex 0.000000 -0.425249 0.102810
    vertex 1.500000 -0.420227 0.121720
    vertex 0.000000 -0.403751 0.168497
  endloop
endfacet
facet normal 0.000083 -0.098749 0.037451
  outer loop
    vertex 0.000000 -0.403751 0.168497
    vertex 1.500000 -0.420227 0.121720
    vertex 1.500000 -0.395260 0.187553
  endloop
endfacet
facet normal -0.000080 -0.092223 0.047361
  outer loop
    vertex 0.000000 -0.403751 0.168497
    vertex 1.500000 -0.395260 0.187553
    vertex 0.000000 -0.372177 0.229979
  endloop
endfacet
facet normal 0.000086 -0.091463 0.052806
  outer loop
    vertex 0.000000 -0.372177 0.229979
    vertex 1.500000 -0.395260 0.187553
    vertex 1.500000 -0.360055 0.248528
  endloop
endfacet
facet normal -0.000082 -0.083613 0.061293
  outer loop
    vertex 0.000000 -0.372177 0.229979
    vertex 1.500000 -0.360055 0.248528
    vertex 0.000000 -0.331315 0.285721
  endloop
endfacet
facet normal 0.000089 -0.081808 0.066794
  outer loop
    vertex 0.000000 -0.331315 0.285721
    vertex 1.500000 -0.360055 0.248528
    vertex 1.500000 -0.315526 0.303067
  endloop
endfacet
facet normal -0.000085 -0.072917 0.073696
  outer loop
    vertex 0.000000 -0.331315 0.285721
    vertex 1.500000 -0.315526 0.303067
    vertex 0.000000 -0.282184 0.334333
  endloop
endfacet
facet normal 0.000091 -0.070034 0.079052
  outer loop
    vertex 0.000000 -0.282184 0.334333
    vertex 1.500000 -0.315526 0.303067
    vertex 1.500000 -0.262825 0.349756
  endloop
endfacet
facet normal -0.000087 -0.060401 0.084260
  outer loop
    vertex 0.000000 -0.282184 0.334333
    vertex 1.500000 -0.262825 0.349756
    vertex 0.000000 -0.226011 0.374600
  endloop
endfacet
facet normal 0.000093 -0.056446 0.089263
  outer loop
    vertex 0.000000 -0.226011 0.374600
    vertex 1.500000 -0.262825 0.349756
    vertex 1.500000 -0.203316 0.387387
  endloop
endfacet
facet normal -0.000089 -0.046378 0.092721
  outer loop
    vertex 0.000000 -0.226011 0.374600
    vertex 1.500000 -0.203316 0.387387
    vertex 0.000000 -0.164197 0.405519
  endloop
endfacet
facet normal 0.000095 -0.041397 0.097161
  outer loop
    vertex 0.000000 -0.164197 0.405519
    vertex 1.500000 -0.203316 0.387387
    vertex 1.500000 -0.138542 0.414985
  endloop
endfacet
facet normal -0.000090 -0.031197 0.098867
  outer loop
    vertex 0.000000 -0.164197 0.405519
    vertex 1.500000 -0.138542 0.414985
    vertex 0.000000 -0.098286 0.426317
  endloop
endfacet
facet normal 0.000096 -0.025275 0.102543
  outer loop
    vertex 0.000000 -0.098286 0.426317
    vertex 1.500000 -0.138542 0.414985
    vertex 1.500000 -0.070180 0.431834
  endloop
endfacet
facet normal -0.000092 -0.015238 0.102547
  outer loop
    vertex 0.000000 -0.098286 0.426317
    vertex 1.500000 -0.070180 0.431834
    vertex 0.000000 -0.029921 0.436476
  endloop
endfacet
facet normal 0.000098 -0.008498 0.105270
  outer loop
    vertex 0.000000 -0.029921 0.436476
    vertex 1.500000 -0.070180 0.431834
    vertex 1.500000 0.000000 0.437500
  endloop
endfacet
facet normal -0.000093 0.001102 0.103667
  outer loop
    vertex 0.000000 -0.029921 0.436476
    vertex 1.500000 0.000000 0.437500
    vertex 0.000000 0.039190 0.435741
  endloop
endfacet
facet normal 0.000099 0.008498 0.105270
  outer loop
    vertex 0.000000 0.039190 0.435741
    vertex 1.500000 0.000000 0.437500
    vertex 1.500000 0.070180 0.431834
  endloop
endfacet
facet normal -0.000094 0.017414 0.102200
  outer loop
    vertex 0.000000 0.039190 0.435741
    vertex 1.500000 0.070180 0.431834
    vertex 0.000000 0.107323 0.424132
  endloop
endfacet
facet normal 0.000099 0.025275 0.102543
  outer loop
    vertex 0.000000 0.107323 0.424132
    vertex 1.500000 0.070180 0.431834
    vertex 1.500000 0.138542 0.414985
  endloop
endfacet
facet normal -0.000094 0.033291 0.098182
  outer loop
    vertex 0.000000 0.107323 0.424132
    vertex 1.500000 0.138542 0.414985
    vertex 0.000000 0.172778 0.401938
  endloop
endfacet
facet normal 0.000100 0.041397 0.097161
  outer loop
    vertex 0.000000 0.172778 0.401938
    vertex 1.500000 0.138542 0.414985
    vertex 1.500000 0.203316 0.387387
  endloop
endfacet
facet normal -0.000094 0.048338 0.091714
  outer loop
    vertex 0.000000 0.172778 0.401938
    vertex 1.500000 0.203316 0.387387
    vertex 0.000000 0.233921 0.369712
  endloop
endfacet
facet normal 0.000100 0.056446 0.089263
  outer loop
    vertex 0.000000 0.233921 0.369712
    vertex 1.500000 0.203316 0.387387
    vertex 1.500000 0.262825 0.349756
  endloop
endfacet
facet normal -0.000094 0.062178 0.082957
  outer loop
    vertex 0.000000 0.233921 0.369712
    vertex 1.500000 0.262825 0.349756
    vertex 0.000000 0.289226 0.328260
  endloop
endfacet
facet normal 0.000100 0.070034 0.079052
  outer loop
    vertex 0.000000 0.289226 0.328260
    vertex 1.500000 0.262825 0.349756
    vertex 1.500000 0.315526 0.303067
  endloop
endfacet
facet normal -0.000094 0.074467 0.072130
  outer loop
    vertex 0.000000 0.289226 0.328260
    vertex 1.500000 0.315526 0.303067
    vertex 0.000000 0.337312 0.278616
  endloop
endfacet
facet normal 0.000099 0.081808 0.066794
  outer loop
    vertex 0.000000 0.337312 0.278616
    vertex 1.500000 0.315526 0.303067
    vertex 1.500000 0.360055 0.248528
  endloop
endfacet
facet normal -0.000094 0.084897 0.059503
  outer loop
    vertex 0.000000 0.337312 0.278616
    vertex 1.500000 0.360055 0.248528
    vertex 0.000000 0.376981 0.222018
  endloop
endfacet
facet normal 0.000099 0.091463 0.052806
  outer loop
    vertex 0.000000 0.376981 0.222018
    vertex 1.500000 0.360055 0.248528
    vertex 1.500000 0.395260 0.187553
  endloop
endfacet
facet normal -0.000093 0.093208 0.045390
  outer loop
    vertex 0.000000 0.376981 0.222018
    vertex 1.500000 0.395260 0.187553
    vertex 0.000000 0.407241 0.159879
  endloop
endfacet
facet normal 0.000098 0.098749 0.037451
  outer loop
    vertex 0.000000 0.407241 0.159879
    vertex 1.500000 0.395260 0.187553
    vertex 1.500000 0.420227 0.121720
  endloop
endfacet
facet normal -0.000013 0.084897 -0.059503
  outer loop
    vertex 0.000000 0.337312 -0.278616
    vertex 0.000000 0.376981 -0.222018
    vertex 1.500000 0.338890 -0.276695
  endloop
endfacet
facet normal 0.000020 0.086917 -0.059995
  outer loop
    vertex 1.500000 0.338890 -0.276695
    vertex 0.000000 0.376981 -0.222018
    vertex 1.500000 0.378886 -0.218750
  endloop
endfacet
facet normal 0.000000 0.086917 -0.059995
  outer loop
    vertex 1.500000 0.338890 -0.276695
    vertex 1.500000 0.378886 -0.218750
    vertex 3.000000 0.378886 -0.218750
  endloop
endfacet
facet normal 0.000000 0.095416 -0.045275
  outer loop
    vertex 3.000000 0.378886 -0.218750
    vertex 1.500000 0.378886 -0.218750
    vertex 3.000000 0.409070 -0.155140
  endloop
endfacet
facet normal 0.000000 0.095416 -0.045275
  outer loop
    vertex 3.000000 0.378886 -0.218750
    vertex 3.000000 0.409070 -0.155140
    vertex 4.500000 0.409070 -0.155140
  endloop
endfacet
facet normal 0.000000 0.092084 -0.027402
  outer loop
    vertex 4.500000 0.409070 -0.155140
    vertex 3.000000 0.409070 -0.155140
    vertex 0.000000 0.427337 -0.093750
  endloop
endfacet
facet normal 0.000000 0.552507 -0.164409
  outer loop
    vertex 4.500000 0.409070 -0.155140
    vertex 0.000000 0.427337 -0.093750
    vertex 9.000000 0.427337 -0.093750
  endloop
endfacet
facet normal -0.000020 0.093208 -0.045390
  outer loop
    vertex 0.000000 0.376981 -0.222018
    vertex 0.000000 0.407241 -0.159879
    vertex 1.500000 0.378886 -0.218750
  endloop
endfacet
facet normal 0.000027 0.095416 -0.045275
  outer loop
    vertex 1.500000 0.378886 -0.218750
    vertex 0.000000 0.407241 -0.159879
    vertex 1.500000 0.409070 -0.155140
  endloop
endfacet
facet normal 0.000000 0.095416 -0.045275
  outer loop
    vertex 1.500000 0.378886 -0.218750
    vertex 1.500000 0.409070 -0.155140
    vertex 3.000000 0.409070 -0.155140
  endloop
endfacet
facet normal 0.000000 0.092084 -0.027402
  outer loop
    vertex 3.000000 0.409070 -0.155140
    vertex 1.500000 0.409070 -0.155140
    vertex 0.000000 0.427337 -0.093750
  endloop
endfacet
facet normal -0.000026 0.099193 -0.030145
  outer loop
    vertex 0.000000 0.407241 -0.159879
    vertex 0.000000 0.427337 -0.093750
    vertex 1.500000 0.409070 -0.155140
  endloop
endfacet
facet normal 0.000094 0.084897 0.059503
  outer loop
    vertex 9.000000 0.337312 0.278616
    vertex 9.000000 0.376981 0.222018
    vertex 7.500000 0.360055 0.248528
  endloop
endfacet
facet normal -0.000099 0.091463 0.052806
  outer loop
    vertex 7.500000 0.360055 0.248528
    vertex 9.000000 0.376981 0.222018
    vertex 7.500000 0.395260 0.187553
  endloop
endfacet
facet normal 0.000000 0.091463 0.052806
  outer loop
    vertex 7.500000 0.360055 0.248528
    vertex 7.500000 0.395260 0.187553
    vertex 6.000000 0.395260 0.187553
  endloop
endfacet
facet normal -0.000000 0.098749 0.037451
  outer loop
    vertex 6.000000 0.395260 0.187553
    vertex 7.500000 0.395260 0.187553
    vertex 6.000000 0.420227 0.121720
  endloop
endfacet
facet normal 0.000000 0.098749 0.037451
  outer loop
    vertex 6.000000 0.395260 0.187553
    vertex 6.000000 0.420227 0.121720
    vertex 4.500000 0.420227 0.121720
  endloop
endfacet
facet normal -0.000000 0.041955 0.010666
  outer loop
    vertex 4.500000 0.420227 0.121720
    vertex 6.000000 0.420227 0.121720
    vertex 9.000000 0.427337 0.093750
  endloop
endfacet
facet normal 0.000000 0.251731 0.063996
  outer loop
    vertex 4.500000 0.420227 0.121720
    vertex 9.000000 0.427337 0.093750
    vertex 0.000000 0.427337 0.093750
  endloop
endfacet
facet normal 0.000093 0.093208 0.045390
  outer loop
    vertex 9.000000 0.376981 0.222018
    vertex 9.000000 0.407241 0.159879
    vertex 7.500000 0.395260 0.187553
  endloop
endfacet
facet normal -0.000098 0.098749 0.037451
  outer loop
    vertex 7.500000 0.395260 0.187553
    vertex 9.000000 0.407241 0.159879
    vertex 7.500000 0.420227 0.121720
  endloop
endfacet
facet normal 0.000000 0.098749 0.037451
  outer loop
    vertex 7.500000 0.395260 0.187553
    vertex 7.500000 0.420227 0.121720
    vertex 6.000000 0.420227 0.121720
  endloop
endfacet
facet normal -0.000000 0.041955 0.010666
  outer loop
    vertex 6.000000 0.420227 0.121720
    vertex 7.500000 0.420227 0.121720
    vertex 9.000000 0.427337 0.093750
  endloop
endfacet
facet normal 0.000092 0.099193 0.030145
  outer loop
    vertex 9.000000 0.407241 0.159879
    vertex 9.000000 0.427337 0.093750
    vertex 7.500000 0.420227 0.121720
  endloop
endfacet
facet normal -0.000000 0.008498 0.105270
  outer loop
    vertex 1.500000 0.000000 0.437500
    vertex 3.000000 0.000000 0.437500
    vertex 1.500000 0.070180 0.431834
  endloop
endfacet
facet normal -0.000000 0.008498 0.105270
  outer loop
    vertex 1.500000 0.070180 0.431834
    vertex 3.000000 0.000000 0.437500
    vertex 3.000000 0.070180 0.431834
  endloop
endfacet
facet normal -0.000000 0.025275 0.102543
  outer loop
    vertex 1.500000 0.070180 0.431834
    vertex 3.000000 0.070180 0.431834
    vertex 1.500000 0.138542 0.414985
  endloop
endfacet
facet normal -0.000000 0.025275 0.102543
  outer loop
    vertex 1.500000 0.138542 0.414985
    vertex 3.000000 0.070180 0.431834
    vertex 3.000000 0.138542 0.414985
  endloop
endfacet
facet normal -0.000000 0.041397 0.097161
  outer loop
    vertex 1.500000 0.138542 0.414985
    vertex 3.000000 0.138542 0.414985
    vertex 1.500000 0.203316 0.387387
  endloop
endfacet
facet normal -0.000000 0.041397 0.097161
  outer loop
    vertex 1.500000 0.203316 0.387387
    vertex 3.000000 0.138542 0.414985
    vertex 3.000000 0.203316 0.387387
  endloop
endfacet
facet normal -0.000000 0.056446 0.089263
  outer loop
    vertex 1.500000 0.203316 0.387387
    vertex 3.000000 0.203316 0.387387
    vertex 1.500000 0.262825 0.349756
  endloop
endfacet
facet normal -0.000000 0.056446 0.089263
  outer loop
    vertex 1.500000 0.262825 0.349756
    vertex 3.000000 0.203316 0.387387
    vertex 3.000000 0.262825 0.349756
  endloop
endfacet
facet normal -0.000000 0.070034 0.079052
  outer loop
    vertex 1.500000 0.262825 0.349756
    vertex 3.000000 0.262825 0.349756
    vertex 1.500000 0.315526 0.303067
  endloop
endfacet
facet normal -0.000000 0.070034 0.079052
  outer loop
    vertex 1.500000 0.315526 0.303067
    vertex 3.000000 0.262825 0.349756
    vertex 3.000000 0.315526 0.303067
  endloop
endfacet
facet normal -0.000000 0.081808 0.066794
  outer loop
    vertex 1.500000 0.315526 0.303067
    vertex 3.000000 0.315526 0.303067
    vertex 1.500000 0.360055 0.248528
  endloop
endfacet
facet normal -0.000000 0.081808 0.066794
  outer loop
    vertex 1.500000 0.360055 0.248528
    vertex 3.000000 0.315526 0.303067
    vertex 3.000000 0.360055 0.248528
  endloop
endfacet
facet normal -0.000000 0.091463 0.052806
  outer loop
    vertex 1.500000 0.360055 0.248528
    vertex 3.000000 0.360055 0.248528
    vertex 1.500000 0.395260 0.187553
  endloop
endfacet
facet normal -0.000000 0.091463 0.052806
  outer loop
    vertex 1.500000 0.395260 0.187553
    vertex 3.000000 0.360055 0.248528
    vertex 3.000000 0.395260 0.187553
  endloop
endfacet
facet normal -0.000000 0.098749 0.037451
  outer loop
    vertex 1.500000 0.395260 0.187553
    vertex 3.000000 0.395260 0.187553
    vertex 1.500000 0.420227 0.121720
  endloop
endfacet
facet normal -0.000000 0.098749 0.037451
  outer loop
    vertex 1.500000 0.420227 0.121720
    vertex 3.000000 0.395260 0.187553
    vertex 3.000000 0.420227 0.121720
  endloop
endfacet
facet normal -0.000000 0.008498 0.105270
  outer loop
    vertex 3.000000 0.000000 0.437500
    vertex 4.500000 0.000000 0.437500
    vertex 3.000000 0.070180 0.431834
  endloop
endfacet
facet normal -0.000000 0.008498 0.105270
  outer loop
    vertex 3.000000 0.070180 0.431834
    vertex 4.500000 0.000000 0.437500
    vertex 4.500000 0.070180 0.431834
  endloop
endfacet
facet normal -0.000000 0.025275 0.102543
  outer loop
    vertex 3.000000 0.070180 0.431834
    vertex 4.500000 0.070180 0.431834
    vertex 3.000000 0.138542 0.414985
  endloop
endfacet
facet normal -0.000000 0.025275 0.102543
  outer loop
    vertex 3.000000 0.138542 0.414985
    vertex 4.500000 0.070180 0.431834
    vertex 4.500000 0.138542 0.414985
  endloop
endfacet
facet normal -0.000000 0.041397 0.097161
  outer loop
    vertex 3.000000 0.138542 0.414985
    vertex 4.500000 0.138542 0.414985
    vertex 3.000000 0.203316 0.387387
  endloop
endfacet
facet normal -0.000000 0.041397 0.097161
  outer loop
    vertex 3.000000 0.203316 0.387387
    vertex 4.500000 0.138542 0.414985
    vertex 4.500000 0.203316 0.387387
  endloop
endfacet
facet normal -0.000000 0.056446 0.089263
  outer loop
    vertex 3.000000 0.203316 0.387387
    vertex 4.500000 0.203316 0.387387
    vertex 3.000000 0.262825 0.349756
  endloop
endfacet
facet normal -0.000000 0.056446 0.089263
  outer loop
    vertex 3.000000 0.262825 0.349756
    vertex 4.500000 0.203316 0.387387
    vertex 4.500000 0.262825 0.349756
  endloop
endfacet
facet normal -0.000000 0.070034 0.079052
  outer loop
    vertex 3.000000 0.262825 0.349756
    vertex 4.500000 0.262825 0.349756
    vertex 3.000000 0.315526 0.303067
  endloop
endfacet
facet normal -0.000000 0.070034 0.079052
  outer loop
    vertex 3.000000 0.315526 0.303067
    vertex 4.500000 0.262825 0.349756
    vertex 4.500000 0.315526 0.303067
  endloop
endfacet
facet normal -0.000000 0.081808 0.066794
  outer loop
    vertex 3.000000 0.315526 0.303067
    vertex 4.500000 0.315526 0.303067
    vertex 3.000000 0.360055 0.248528
  endloop
endfacet
facet normal -0.000000 0.081808 0.066794
  outer loop
    vertex 3.000000 0.360055 0.248528
    vertex 4.500000 0.315526 0.303067
    vertex 4.500000 0.360055 0.248528
  endloop
endfacet
facet normal -0.000000 0.091463 0.052806
  outer loop
    vertex 3.000000 0.360055 0.248528
    vertex 4.500000 0.360055 0.248528
    vertex 3.000000 0.395260 0.187553
  endloop
endfacet
facet normal -0.000000 0.091463 0.052806
  outer loop
    vertex 3.000000 0.395260 0.187553
    vertex 4.500000 0.360055 0.248528
    vertex 4.500000 0.395260 0.187553
  endloop
endfacet
facet normal -0.000000 0.098749 0.037451
  outer loop
    vertex 3.000000 0.395260 0.187553
    vertex 4.500000 0.395260 0.187553
    vertex 3.000000 0.420227 0.121720
  endloop
endfacet
facet normal 0.000000 -0.008498 0.105270
  outer loop
    vertex 3.000000 0.000000 0.437500
    vertex 1.500000 0.000000 0.437500
    vertex 3.000000 -0.070180 0.431834
  endloop
endfacet
facet normal 0.000000 -0.008498 0.105270
  outer loop
    vertex 3.000000 -0.070180 0.431834
    vertex 1.500000 0.000000 0.437500
    vertex 1.500000 -0.070180 0.431834
  endloop
endfacet
facet normal 0.000000 -0.025275 0.102543
  outer loop
    vertex 3.000000 -0.070180 0.431834
    vertex 1.500000 -0.070180 0.431834
    vertex 3.000000 -0.138542 0.414985
  endloop
endfacet
facet normal 0.000000 -0.025275 0.102543
  outer loop
    vertex 3.000000 -0.138542 0.414985
    vertex 1.500000 -0.070180 0.431834
    vertex 1.500000 -0.138542 0.414985
  endloop
endfacet
facet normal 0.000000 -0.041397 0.097161
  outer loop
    vertex 3.000000 -0.138542 0.414985
    vertex 1.500000 -0.138542 0.414985
    vertex 3.000000 -0.203316 0.387387
  endloop
endfacet
facet normal 0.000000 -0.041397 0.097161
  outer loop
    vertex 3.000000 -0.203316 0.387387
    vertex 1.500000 -0.138542 0.414985
    vertex 1.500000 -0.203316 0.387387
  endloop
endfacet
facet normal 0.000000 -0.056446 0.089263
  outer loop
    vertex 3.000000 -0.203316 0.387387
    vertex 1.500000 -0.203316 0.387387
    vertex 3.000000 -0.262825 0.349756
  endloop
endfacet
facet normal 0.000000 -0.056446 0.089263
  outer loop
    vertex 3.000000 -0.262825 0.349756
    vertex 1.500000 -0.203316 0.387387
    vertex 1.500000 -0.262825 0.349756
  endloop
endfacet
facet normal 0.000000 -0.070034 0.079052
  outer loop
    vertex 3.000000 -0.262825 0.349756
    vertex 1.500000 -0.262825 0.349756
    vertex 3.000000 -0.315526 0.303067
  endloop
endfacet
facet normal 0.000000 -0.070034 0.079052
  outer loop
    vertex 3.000000 -0.315526 0.303067
    vertex 1.500000 -0.262825 0.349756
    vertex 1.500000 -0.315526 0.303067
  endloop
endfacet
facet normal 0.000000 -0.081808 0.066794
  outer loop
    vertex 3.000000 -0.315526 0.303067
    vertex 1.500000 -0.315526 0.303067
    vertex 3.000000 -0.360055 0.248528
  endloop
endfacet
facet normal 0.000000 -0.081808 0.066794
  outer loop
    vertex 3.000000 -0.360055 0.248528
    vertex 1.500000 -0.315526 0.303067
    vertex 1.500000 -0.360055 0.248528
  endloop
endfacet
facet normal 0.000000 -0.091463 0.052806
  outer loop
    vertex 3.000000 -0.360055 0.248528
    vertex 1.500000 -0.360055 0.248528
    vertex 3.000000 -0.395260 0.187553
  endloop
endfacet
facet normal 0.000000 -0.091463 0.052806
  outer loop
    vertex 3.000000 -0.395260 0.187553
    vertex 1.500000 -0.360055 0.248528
    vertex 1.500000 -0.395260 0.187553
  endloop
endfacet
facet normal 0.000000 -0.098749 0.037451
  outer loop
    vertex 3.000000 -0.395260 0.187553
    vertex 1.500000 -0.395260 0.187553
    vertex 3.000000 -0.420227 0.121720
  endloop
endfacet
facet normal 0.000000 -0.098749 0.037451
  outer loop
    vertex 3.000000 -0.420227 0.121720
    vertex 1.500000 -0.395260 0.187553
    vertex 1.500000 -0.420227 0.121720
  endloop
endfacet
facet normal 0.000000 -0.103478 0.021125
  outer loop
    vertex 3.000000 -0.420227 0.121720
    vertex 1.500000 -0.420227 0.121720
    vertex 3.000000 -0.434310 0.052735
  endloop
endfacet
facet normal 0.000000 -0.103478 0.021125
  outer loop
    vertex 3.000000 -0.434310 0.052735
    vertex 1.500000 -0.420227 0.121720
    vertex 1.500000 -0.434310 0.052735
  endloop
endfacet
facet normal 0.000000 -0.105527 0.004253
  outer loop
    vertex 3.000000 -0.434310 0.052735
    vertex 1.500000 -0.434310 0.052735
    vertex 3.000000 -0.437145 -0.017616
  endloop
endfacet
facet normal 0.000000 -0.105527 0.004253
  outer loop
    vertex 3.000000 -0.437145 -0.017616
    vertex 1.500000 -0.434310 0.052735
    vertex 1.500000 -0.437145 -0.017616
  endloop
endfacet
facet normal -0.000000 -0.104842 -0.012730
  outer loop
    vertex 3.000000 -0.437145 -0.017616
    vertex 1.500000 -0.437145 -0.017616
    vertex 3.000000 -0.428658 -0.087511
  endloop
endfacet
facet normal -0.000000 -0.104842 -0.012730
  outer loop
    vertex 3.000000 -0.428658 -0.087511
    vertex 1.500000 -0.437145 -0.017616
    vertex 1.500000 -0.428658 -0.087511
  endloop
endfacet
facet normal -0.000000 -0.101443 -0.029383
  outer loop
    vertex 3.000000 -0.428658 -0.087511
    vertex 1.500000 -0.428658 -0.087511
    vertex 3.000000 -0.409070 -0.155140
  endloop
endfacet
facet normal -0.000000 -0.101443 -0.029383
  outer loop
    vertex 3.000000 -0.409070 -0.155140
    vertex 1.500000 -0.428658 -0.087511
    vertex 1.500000 -0.409070 -0.155140
  endloop
endfacet
facet normal -0.000000 -0.095416 -0.045275
  outer loop
    vertex 3.000000 -0.409070 -0.155140
    vertex 1.500000 -0.409070 -0.155140
    vertex 3.000000 -0.378886 -0.218750
  endloop
endfacet
facet normal -0.000000 -0.095416 -0.045275
  outer loop
    vertex 3.000000 -0.378886 -0.218750
    vertex 1.500000 -0.409070 -0.155140
    vertex 1.500000 -0.378886 -0.218750
  endloop
endfacet
facet normal -0.000000 -0.086917 -0.059995
  outer loop
    vertex 3.000000 -0.378886 -0.218750
    vertex 1.500000 -0.378886 -0.218750
    vertex 3.000000 -0.338890 -0.276695
  endloop
endfacet
facet normal -0.000000 -0.086917 -0.059995
  outer loop
    vertex 3.000000 -0.338890 -0.276695
    vertex 1.500000 -0.378886 -0.218750
    vertex 1.500000 -0.338890 -0.276695
  endloop
endfacet
facet normal -0.000000 -0.076168 -0.073160
  outer loop
    vertex 3.000000 -0.338890 -0.276695
    vertex 1.500000 -0.338890 -0.276695
    vertex 3.000000 -0.290116 -0.327473
  endloop
endfacet
facet normal -0.000000 -0.076168 -0.073160
  outer loop
    vertex 3.000000 -0.290116 -0.327473
    vertex 1.500000 -0.338890 -0.276695
    vertex 1.500000 -0.290116 -0.327473
  endloop
endfacet
facet normal -0.000000 -0.063446 -0.084431
  outer loop
    vertex 3.000000 -0.290116 -0.327473
    vertex 1.500000 -0.290116 -0.327473
    vertex 3.000000 -0.233829 -0.369771
  endloop
endfacet
facet normal -0.000000 -0.063446 -0.084431
  outer loop
    vertex 3.000000 -0.233829 -0.369771
    vertex 1.500000 -0.290116 -0.327473
    vertex 1.500000 -0.233829 -0.369771
  endloop
endfacet
facet normal -0.000000 -0.049080 -0.093515
  outer loop
    vertex 3.000000 -0.233829 -0.369771
    vertex 1.500000 -0.233829 -0.369771
    vertex 3.000000 -0.171485 -0.402491
  endloop
endfacet
facet normal -0.000000 -0.049080 -0.093515
  outer loop
    vertex 3.000000 -0.171485 -0.402491
    vertex 1.500000 -0.233829 -0.369771
    vertex 1.500000 -0.171485 -0.402491
  endloop
endfacet
facet normal -0.000000 -0.033444 -0.100177
  outer loop
    vertex 3.000000 -0.171485 -0.402491
    vertex 1.500000 -0.171485 -0.402491
    vertex 3.000000 -0.104701 -0.424787
  endloop
endfacet
facet normal -0.000000 -0.033444 -0.100177
  outer loop
    vertex 3.000000 -0.104701 -0.424787
    vertex 1.500000 -0.171485 -0.402491
    vertex 1.500000 -0.104701 -0.424787
  endloop
endfacet
facet normal -0.000000 -0.016941 -0.104245
  outer loop
    vertex 3.000000 -0.104701 -0.424787
    vertex 1.500000 -0.104701 -0.424787
    vertex 3.000000 -0.035204 -0.436081
  endloop
endfacet
facet normal -0.000000 -0.016941 -0.104245
  outer loop
    vertex 3.000000 -0.035204 -0.436081
    vertex 1.500000 -0.104701 -0.424787
    vertex 1.500000 -0.035204 -0.436081
  endloop
endfacet
facet normal 0.000000 0.000000 -0.105612
  outer loop
    vertex 3.000000 -0.035204 -0.436081
    vertex 1.500000 -0.035204 -0.436081
    vertex 3.000000 0.035204 -0.436081
  endloop
endfacet
facet normal -0.000000 0.000000 -0.105612
  outer loop
    vertex 3.000000 0.035204 -0.436081
    vertex 1.500000 -0.035204 -0.436081
    vertex 1.500000 0.035204 -0.436081
  endloop
endfacet
facet normal 0.000000 0.016941 -0.104245
  outer loop
    vertex 3.000000 0.035204 -0.436081
    vertex 1.500000 0.035204 -0.436081
    vertex 3.000000 0.104701 -0.424787
  endloop
endfacet
facet normal 0.000000 0.016941 -0.104245
  outer loop
    vertex 3.000000 0.104701 -0.424787
    vertex 1.500000 0.035204 -0.436081
    vertex 1.500000 0.104701 -0.424787
  endloop
endfacet
facet normal 0.000000 0.033444 -0.100177
  outer loop
    vertex 3.000000 0.104701 -0.424787
    vertex 1.500000 0.104701 -0.424787
    vertex 3.000000 0.171485 -0.402491
  endloop
endfacet
facet normal 0.000000 0.033444 -0.100177
  outer loop
    vertex 3.000000 0.171485 -0.402491
    vertex 1.500000 0.104701 -0.424787
    vertex 1.500000 0.171485 -0.402491
  endloop
endfacet
facet normal 0.000000 0.049168 -0.093653
  outer loop
    vertex 3.000000 0.171485 -0.402491
    vertex 1.500000 0.171485 -0.402491
    vertex 3.000000 0.233921 -0.369712
  endloop
endfacet
facet normal 0.000000 0.049168 -0.093653
  outer loop
    vertex 3.000000 0.233921 -0.369712
    vertex 1.500000 0.171485 -0.402491
    vertex 1.500000 0.233921 -0.369712
  endloop
endfacet
facet normal 0.000000 0.063359 -0.084293
  outer loop
    vertex 3.000000 0.233921 -0.369712
    vertex 1.500000 0.233921 -0.369712
    vertex 3.000000 0.290116 -0.327473
  endloop
endfacet
facet normal 0.000000 0.063359 -0.084293
  outer loop
    vertex 3.000000 0.290116 -0.327473
    vertex 1.500000 0.233921 -0.369712
    vertex 1.500000 0.290116 -0.327473
  endloop
endfacet
facet normal 0.000000 0.076168 -0.073160
  outer loop
    vertex 3.000000 0.290116 -0.327473
    vertex 1.500000 0.290116 -0.327473
    vertex 3.000000 0.338890 -0.276695
  endloop
endfacet
facet normal -0.000000 0.008498 0.105270
  outer loop
    vertex 4.500000 0.000000 0.437500
    vertex 6.000000 0.000000 0.437500
    vertex 4.500000 0.070180 0.431834
  endloop
endfacet
facet normal -0.000000 0.008498 0.105270
  outer loop
    vertex 4.500000 0.070180 0.431834
    vertex 6.000000 0.000000 0.437500
    vertex 6.000000 0.070180 0.431834
  endloop
endfacet
facet normal -0.000000 0.025275 0.102543
  outer loop
    vertex 4.500000 0.070180 0.431834
    vertex 6.000000 0.070180 0.431834
    vertex 4.500000 0.138542 0.414985
  endloop
endfacet
facet normal -0.000000 0.025275 0.102543
  outer loop
    vertex 4.500000 0.138542 0.414985
    vertex 6.000000 0.070180 0.431834
    vertex 6.000000 0.138542 0.414985
  endloop
endfacet
facet normal -0.000000 0.041397 0.097161
  outer loop
    vertex 4.500000 0.138542 0.414985
    vertex 6.000000 0.138542 0.414985
    vertex 4.500000 0.203316 0.387387
  endloop
endfacet
facet normal -0.000000 0.041397 0.097161
  outer loop
    vertex 4.500000 0.203316 0.387387
    vertex 6.000000 0.138542 0.414985
    vertex 6.000000 0.203316 0.387387
  endloop
endfacet
facet normal -0.000000 0.056446 0.089263
  outer loop
    vertex 4.500000 0.203316 0.387387
    vertex 6.000000 0.203316 0.387387
    vertex 4.500000 0.262825 0.349756
  endloop
endfacet
facet normal -0.000000 0.056446 0.089263
  outer loop
    vertex 4.500000 0.262825 0.349756
    vertex 6.000000 0.203316 0.387387
    vertex 6.000000 0.262825 0.349756
  endloop
endfacet
facet normal -0.000000 0.070034 0.079052
  outer loop
    vertex 4.500000 0.262825 0.349756
    vertex 6.000000 0.262825 0.349756
    vertex 4.500000 0.315526 0.303067
  endloop
endfacet
facet normal -0.000000 0.070034 0.079052
  outer loop
    vertex 4.500000 0.315526 0.303067
    vertex 6.000000 0.262825 0.349756
    vertex 6.000000 0.315526 0.303067
  endloop
endfacet
facet normal -0.000000 0.081808 0.066794
  outer loop
    vertex 4.500000 0.315526 0.303067
    vertex 6.000000 0.315526 0.303067
    vertex 4.500000 0.360055 0.248528
  endloop
endfacet
facet normal -0.000000 0.081808 0.066794
  outer loop
    vertex 4.500000 0.360055 0.248528
    vertex 6.000000 0.315526 0.303067
    vertex 6.000000 0.360055 0.248528
  endloop
endfacet
facet normal -0.000000 0.091463 0.052806
  outer loop
    vertex 4.500000 0.360055 0.248528
    vertex 6.000000 0.360055 0.248528
    vertex 4.500000 0.395260 0.187553
  endloop
endfacet
facet normal 0.000000 -0.008498 0.105270
  outer loop
    vertex 4.500000 0.000000 0.437500
    vertex 3.000000 0.000000 0.437500
    vertex 4.500000 -0.070180 0.431834
  endloop
endfacet
facet normal 0.000000 -0.008498 0.105270
  outer loop
    vertex 4.500000 -0.070180 0.431834
    vertex 3.000000 0.000000 0.437500
    vertex 3.000000 -0.070180 0.431834
  endloop
endfacet
facet normal 0.000000 -0.025275 0.102543
  outer loop
    vertex 4.500000 -0.070180 0.431834
    vertex 3.000000 -0.070180 0.431834
    vertex 4.500000 -0.138542 0.414985
  endloop
endfacet
facet normal 0.000000 -0.025275 0.102543
  outer loop
    vertex 4.500000 -0.138542 0.414985
    vertex 3.000000 -0.070180 0.431834
    vertex 3.000000 -0.138542 0.414985
  endloop
endfacet
facet normal 0.000000 -0.041397 0.097161
  outer loop
    vertex 4.500000 -0.138542 0.414985
    vertex 3.000000 -0.138542 0.414985
    vertex 4.500000 -0.203316 0.387387
  endloop
endfacet
facet normal 0.000000 -0.041397 0.097161
  outer loop
    vertex 4.500000 -0.203316 0.387387
    vertex 3.000000 -0.138542 0.414985
    vertex 3.000000 -0.203316 0.387387
  endloop
endfacet
facet normal 0.000000 -0.056446 0.089263
  outer loop
    vertex 4.500000 -0.203316 0.387387
    vertex 3.000000 -0.203316 0.387387
    vertex 4.500000 -0.262825 0.349756
  endloop
endfacet
facet normal 0.000000 -0.056446 0.089263
  outer loop
    vertex 4.500000 -0.262825 0.349756
    vertex 3.000000 -0.203316 0.387387
    vertex 3.000000 -0.262825 0.349756
  endloop
endfacet
facet normal 0.000000 -0.070034 0.079052
  outer loop
    vertex 4.500000 -0.262825 0.349756
    vertex 3.000000 -0.262825 0.349756
    vertex 4.500000 -0.315526 0.303067
  endloop
endfacet
facet normal 0.000000 -0.070034 0.079052
  outer loop
    vertex 4.500000 -0.315526 0.303067
    vertex 3.000000 -0.262825 0.349756
    vertex 3.000000 -0.315526 0.303067
  endloop
endfacet
facet normal 0.000000 -0.081808 0.066794
  outer loop
    vertex 4.500000 -0.315526 0.303067
    vertex 3.000000 -0.315526 0.303067
    vertex 4.500000 -0.360055 0.248528
  endloop
endfacet
facet normal 0.000000 -0.081808 0.066794
  outer loop
    vertex 4.500000 -0.360055 0.248528
    vertex 3.000000 -0.315526 0.303067
    vertex 3.000000 -0.360055 0.248528
  endloop
endfacet
facet normal 0.000000 -0.091463 0.052806
  outer loop
    vertex 4.500000 -0.360055 0.248528
    vertex 3.000000 -0.360055 0.248528
    vertex 4.500000 -0.395260 0.187553
  endloop
endfacet
facet normal 0.000000 -0.091463 0.052806
  outer loop
    vertex 4.500000 -0.395260 0.187553
    vertex 3.000000 -0.360055 0.248528
    vertex 3.000000 -0.395260 0.187553
  endloop
endfacet
facet normal 0.000000 -0.098749 0.037451
  outer loop
    vertex 4.500000 -0.395260 0.187553
    vertex 3.000000 -0.395260 0.187553
    vertex 4.500000 -0.420227 0.121720
  endloop
endfacet
facet normal 0.000000 -0.098749 0.037451
  outer loop
    vertex 4.500000 -0.420227 0.121720
    vertex 3.000000 -0.395260 0.187553
    vertex 3.000000 -0.420227 0.121720
  endloop
endfacet
facet normal 0.000000 -0.103478 0.021125
  outer loop
    vertex 4.500000 -0.420227 0.121720
    vertex 3.000000 -0.420227 0.121720
    vertex 4.500000 -0.434310 0.052735
  endloop
endfacet
facet normal 0.000000 -0.103478 0.021125
  outer loop
    vertex 4.500000 -0.434310 0.052735
    vertex 3.000000 -0.420227 0.121720
    vertex 3.000000 -0.434310 0.052735
  endloop
endfacet
facet normal 0.000000 -0.105527 0.004253
  outer loop
    vertex 4.500000 -0.434310 0.052735
    vertex 3.000000 -0.434310 0.052735
    vertex 4.500000 -0.437145 -0.017616
  endloop
endfacet
facet normal 0.000000 -0.105527 0.004253
  outer loop
    vertex 4.500000 -0.437145 -0.017616
    vertex 3.000000 -0.434310 0.052735
    vertex 3.000000 -0.437145 -0.017616
  endloop
endfacet
facet normal -0.000000 -0.104842 -0.012730
  outer loop
    vertex 4.500000 -0.437145 -0.017616
    vertex 3.000000 -0.437145 -0.017616
    vertex 4.500000 -0.428658 -0.087511
  endloop
endfacet
facet normal -0.000000 -0.104842 -0.012730
  outer loop
    vertex 4.500000 -0.428658 -0.087511
    vertex 3.000000 -0.437145 -0.017616
    vertex 3.000000 -0.428658 -0.087511
  endloop
endfacet
facet normal -0.000000 -0.101443 -0.029383
  outer loop
    vertex 4.500000 -0.428658 -0.087511
    vertex 3.000000 -0.428658 -0.087511
    vertex 4.500000 -0.409070 -0.155140
  endloop
endfacet
facet normal -0.000000 -0.101443 -0.029383
  outer loop
    vertex 4.500000 -0.409070 -0.155140
    vertex 3.000000 -0.428658 -0.087511
    vertex 3.000000 -0.409070 -0.155140
  endloop
endfacet
facet normal -0.000000 -0.095416 -0.045275
  outer loop
    vertex 4.500000 -0.409070 -0.155140
    vertex 3.000000 -0.409070 -0.155140
    vertex 4.500000 -0.378886 -0.218750
  endloop
endfacet
facet normal -0.000000 -0.095416 -0.045275
  outer loop
    vertex 4.500000 -0.378886 -0.218750
    vertex 3.000000 -0.409070 -0.155140
    vertex 3.000000 -0.378886 -0.218750
  endloop
endfacet
facet normal -0.000000 -0.086917 -0.059995
  outer loop
    vertex 4.500000 -0.378886 -0.218750
    vertex 3.000000 -0.378886 -0.218750
    vertex 4.500000 -0.338890 -0.276695
  endloop
endfacet
facet normal -0.000000 -0.086917 -0.059995
  outer loop
    vertex 4.500000 -0.338890 -0.276695
    vertex 3.000000 -0.378886 -0.218750
    vertex 3.000000 -0.338890 -0.276695
  endloop
endfacet
facet normal -0.000000 -0.076168 -0.073160
  outer loop
    vertex 4.500000 -0.338890 -0.276695
    vertex 3.000000 -0.338890 -0.276695
    vertex 4.500000 -0.290116 -0.327473
  endloop
endfacet
facet normal -0.000000 -0.076168 -0.073160
  outer loop
    vertex 4.500000 -0.290116 -0.327473
    vertex 3.000000 -0.338890 -0.276695
    vertex 3.000000 -0.290116 -0.327473
  endloop
endfacet
facet normal -0.000000 -0.063446 -0.084431
  outer loop
    vertex 4.500000 -0.290116 -0.327473
    vertex 3.000000 -0.290116 -0.327473
    vertex 4.500000 -0.233829 -0.369771
  endloop
endfacet
facet normal -0.000000 -0.063446 -0.084431
  outer loop
    vertex 4.500000 -0.233829 -0.369771
    vertex 3.000000 -0.290116 -0.327473
    vertex 3.000000 -0.233829 -0.369771
  endloop
endfacet
facet normal -0.000000 -0.049080 -0.093515
  outer loop
    vertex 4.500000 -0.233829 -0.369771
    vertex 3.000000 -0.233829 -0.369771
    vertex 4.500000 -0.171485 -0.402491
  endloop
endfacet
facet normal -0.000000 -0.049080 -0.093515
  outer loop
    vertex 4.500000 -0.171485 -0.402491
    vertex 3.000000 -0.233829 -0.369771
    vertex 3.000000 -0.171485 -0.402491
  endloop
endfacet
facet normal -0.000000 -0.033444 -0.100177
  outer loop
    vertex 4.500000 -0.171485 -0.402491
    vertex 3.000000 -0.171485 -0.402491
    vertex 4.500000 -0.104701 -0.424787
  endloop
endfacet
facet normal -0.000000 -0.033444 -0.100177
  outer loop
    vertex 4.500000 -0.104701 -0.424787
    vertex 3.000000 -0.171485 -0.402491
    vertex 3.000000 -0.104701 -0.424787
  endloop
endfacet
facet normal -0.000000 -0.016941 -0.104245
  outer loop
    vertex 4.500000 -0.104701 -0.424787
    vertex 3.000000 -0.104701 -0.424787
    vertex 4.500000 -0.035204 -0.436081
  endloop
endfacet
facet normal -0.000000 -0.016941 -0.104245
  outer loop
    vertex 4.500000 -0.035204 -0.436081
    vertex 3.000000 -0.104701 -0.424787
    vertex 3.000000 -0.035204 -0.436081
  endloop
endfacet
facet normal 0.000000 0.000000 -0.105612
  outer loop
    vertex 4.500000 -0.035204 -0.436081
    vertex 3.000000 -0.035204 -0.436081
    vertex 4.500000 0.035204 -0.436081
  endloop
endfacet
facet normal -0.000000 0.000000 -0.105612
  outer loop
    vertex 4.500000 0.035204 -0.436081
    vertex 3.000000 -0.035204 -0.436081
    vertex 3.000000 0.035204 -0.436081
  endloop
endfacet
facet normal 0.000000 0.016941 -0.104245
  outer loop
    vertex 4.500000 0.035204 -0.436081
    vertex 3.000000 0.035204 -0.436081
    vertex 4.500000 0.104701 -0.424787
  endloop
endfacet
facet normal 0.000000 0.016941 -0.104245
  outer loop
    vertex 4.500000 0.104701 -0.424787
    vertex 3.000000 0.035204 -0.436081
    vertex 3.000000 0.104701 -0.424787
  endloop
endfacet
facet normal 0.000000 0.033444 -0.100177
  outer loop
    vertex 4.500000 0.104701 -0.424787
    vertex 3.000000 0.104701 -0.424787
    vertex 4.500000 0.171485 -0.402491
  endloop
endfacet
facet normal 0.000000 0.033444 -0.100177
  outer loop
    vertex 4.500000 0.171485 -0.402491
    vertex 3.000000 0.104701 -0.424787
    vertex 3.000000 0.171485 -0.402491
  endloop
endfacet
facet normal 0.000000 0.049168 -0.093653
  outer loop
    vertex 4.500000 0.171485 -0.402491
    vertex 3.000000 0.171485 -0.402491
    vertex 4.500000 0.233921 -0.369712
  endloop
endfacet
facet normal 0.000000 0.049168 -0.093653
  outer loop
    vertex 4.500000 0.233921 -0.369712
    vertex 3.000000 0.171485 -0.402491
    vertex 3.000000 0.233921 -0.369712
  endloop
endfacet
facet normal 0.000000 0.063359 -0.084293
  outer loop
    vertex 4.500000 0.233921 -0.369712
    vertex 3.000000 0.233921 -0.369712
    vertex 4.500000 0.290116 -0.327473
  endloop
endfacet
facet normal 0.000000 0.063359 -0.084293
  outer loop
    vertex 4.500000 0.290116 -0.327473
    vertex 3.000000 0.233921 -0.369712
    vertex 3.000000 0.290116 -0.327473
  endloop
endfacet
facet normal 0.000000 0.076168 -0.073160
  outer loop
    vertex 4.500000 0.290116 -0.327473
    vertex 3.000000 0.290116 -0.327473
    vertex 4.500000 0.338890 -0.276695
  endloop
endfacet
facet normal 0.000000 0.076168 -0.073160
  outer loop
    vertex 4.500000 0.338890 -0.276695
    vertex 3.000000 0.290116 -0.327473
    vertex 3.000000 0.338890 -0.276695
  endloop
endfacet
facet normal 0.000000 0.086917 -0.059995
  outer loop
    vertex 4.500000 0.338890 -0.276695
    vertex 3.000000 0.338890 -0.276695
    vertex 4.500000 0.378886 -0.218750
  endloop
endfacet
facet normal 0.000000 0.008498 0.105270
  outer loop
    vertex 6.000000 0.000000 0.437500
    vertex 7.500000 -0.000000 0.437500
    vertex 6.000000 0.070180 0.431834
  endloop
endfacet
facet normal -0.000000 0.008498 0.105270
  outer loop
    vertex 6.000000 0.070180 0.431834
    vertex 7.500000 -0.000000 0.437500
    vertex 7.500000 0.070180 0.431834
  endloop
endfacet
facet normal -0.000000 0.025275 0.102543
  outer loop
    vertex 6.000000 0.070180 0.431834
    vertex 7.500000 0.070180 0.431834
    vertex 6.000000 0.138542 0.414985
  endloop
endfacet
facet normal -0.000000 0.025275 0.102543
  outer loop
    vertex 6.000000 0.138542 0.414985
    vertex 7.500000 0.070180 0.431834
    vertex 7.500000 0.138542 0.414985
  endloop
endfacet
facet normal -0.000000 0.041397 0.097161
  outer loop
    vertex 6.000000 0.138542 0.414985
    vertex 7.500000 0.138542 0.414985
    vertex 6.000000 0.203316 0.387387
  endloop
endfacet
facet normal -0.000000 0.041397 0.097161
  outer loop
    vertex 6.000000 0.203316 0.387387
    vertex 7.500000 0.138542 0.414985
    vertex 7.500000 0.203316 0.387387
  endloop
endfacet
facet normal -0.000000 0.056446 0.089263
  outer loop
    vertex 6.000000 0.203316 0.387387
    vertex 7.500000 0.203316 0.387387
    vertex 6.000000 0.262825 0.349756
  endloop
endfacet
facet normal -0.000000 0.056446 0.089263
  outer loop
    vertex 6.000000 0.262825 0.349756
    vertex 7.500000 0.203316 0.387387
    vertex 7.500000 0.262825 0.349756
  endloop
endfacet
facet normal -0.000000 0.070034 0.079052
  outer loop
    vertex 6.000000 0.262825 0.349756
    vertex 7.500000 0.262825 0.349756
    vertex 6.000000 0.315526 0.303067
  endloop
endfacet
facet normal -0.000000 0.070034 0.079052
  outer loop
    vertex 6.000000 0.315526 0.303067
    vertex 7.500000 0.262825 0.349756
    vertex 7.500000 0.315526 0.303067
  endloop
endfacet
facet normal -0.000000 0.081808 0.066794
  outer loop
    vertex 6.000000 0.315526 0.303067
    vertex 7.500000 0.315526 0.303067
    vertex 6.000000 0.360055 0.248528
  endloop
endfacet
facet normal 0.000000 -0.008498 0.105270
  outer loop
    vertex 6.000000 0.000000 0.437500
    vertex 4.500000 0.000000 0.437500
    vertex 6.000000 -0.070180 0.431834
  endloop
endfacet
facet normal 0.000000 -0.008498 0.105270
  outer loop
    vertex 6.000000 -0.070180 0.431834
    vertex 4.500000 0.000000 0.437500
    vertex 4.500000 -0.070180 0.431834
  endloop
endfacet
facet normal 0.000000 -0.025275 0.102543
  outer loop
    vertex 6.000000 -0.070180 0.431834
    vertex 4.500000 -0.070180 0.431834
    vertex 6.000000 -0.138542 0.414985
  endloop
endfacet
facet normal 0.000000 -0.025275 0.102543
  outer loop
    vertex 6.000000 -0.138542 0.414985
    vertex 4.500000 -0.070180 0.431834
    vertex 4.500000 -0.138542 0.414985
  endloop
endfacet
facet normal 0.000000 -0.041397 0.097161
  outer loop
    vertex 6.000000 -0.138542 0.414985
    vertex 4.500000 -0.138542 0.414985
    vertex 6.000000 -0.203316 0.387387
  endloop
endfacet
facet normal 0.000000 -0.041397 0.097161
  outer loop
    vertex 6.000000 -0.203316 0.387387
    vertex 4.500000 -0.138542 0.414985
    vertex 4.500000 -0.203316 0.387387
  endloop
endfacet
facet normal 0.000000 -0.056446 0.089263
  outer loop
    vertex 6.000000 -0.203316 0.387387
    vertex 4.500000 -0.203316 0.387387
    vertex 6.000000 -0.262825 0.349756
  endloop
endfacet
facet normal 0.000000 -0.056446 0.089263
  outer loop
    vertex 6.000000 -0.262825 0.349756
    vertex 4.500000 -0.203316 0.387387
    vertex 4.500000 -0.262825 0.349756
  endloop
endfacet
facet normal 0.000000 -0.070034 0.079052
  outer loop
    vertex 6.000000 -0.262825 0.349756
    vertex 4.500000 -0.262825 0.349756
    vertex 6.000000 -0.315526 0.303067
  endloop
endfacet
facet normal 0.000000 -0.070034 0.079052
  outer loop
    vertex 6.000000 -0.315526 0.303067
    vertex 4.500000 -0.262825 0.349756
    vertex 4.500000 -0.315526 0.303067
  endloop
endfacet
facet normal 0.000000 -0.081808 0.066794
  outer loop
    vertex 6.000000 -0.315526 0.303067
    vertex 4.500000 -0.315526 0.303067
    vertex 6.000000 -0.360055 0.248528
  endloop
endfacet
facet normal 0.000000 -0.081808 0.066794
  outer loop
    vertex 6.000000 -0.360055 0.248528
    vertex 4.500000 -0.315526 0.303067
    vertex 4.500000 -0.360055 0.248528
  endloop
endfacet
facet normal 0.000000 -0.091463 0.052806
  outer loop
    vertex 6.000000 -0.360055 0.248528
    vertex 4.500000 -0.360055 0.248528
    vertex 6.000000 -0.395260 0.187553
  endloop
endfacet
facet normal 0.000000 -0.091463 0.052806
  outer loop
    vertex 6.000000 -0.395260 0.187553
    vertex 4.500000 -0.360055 0.248528
    vertex 4.500000 -0.395260 0.187553
  endloop
endfacet
facet normal 0.000000 -0.098749 0.037451
  outer loop
    vertex 6.000000 -0.395260 0.187553
    vertex 4.500000 -0.395260 0.187553
    vertex 6.000000 -0.420227 0.121720
  endloop
endfacet
facet normal 0.000000 -0.098749 0.037451
  outer loop
    vertex 6.000000 -0.420227 0.121720
    vertex 4.500000 -0.395260 0.187553
    vertex 4.500000 -0.420227 0.121720
  endloop
endfacet
facet normal 0.000000 -0.103478 0.021125
  outer loop
    vertex 6.000000 -0.420227 0.121720
    vertex 4.500000 -0.420227 0.121720
    vertex 6.000000 -0.434310 0.052735
  endloop
endfacet
facet normal 0.000000 -0.103478 0.021125
  outer loop
    vertex 6.000000 -0.434310 0.052735
    vertex 4.500000 -0.420227 0.121720
    vertex 4.500000 -0.434310 0.052735
  endloop
endfacet
facet normal 0.000000 -0.105527 0.004253
  outer loop
    vertex 6.000000 -0.434310 0.052735
    vertex 4.500000 -0.434310 0.052735
    vertex 6.000000 -0.437145 -0.017616
  endloop
endfacet
facet normal 0.000000 -0.105527 0.004253
  outer loop
    vertex 6.000000 -0.437145 -0.017616
    vertex 4.500000 -0.434310 0.052735
    vertex 4.500000 -0.437145 -0.017616
  endloop
endfacet
facet normal -0.000000 -0.104842 -0.012730
  outer loop
    vertex 6.000000 -0.437145 -0.017616
    vertex 4.500000 -0.437145 -0.017616
    vertex 6.000000 -0.428658 -0.087511
  endloop
endfacet
facet normal -0.000000 -0.104842 -0.012730
  outer loop
    vertex 6.000000 -0.428658 -0.087511
    vertex 4.500000 -0.437145 -0.017616
    vertex 4.500000 -0.428658 -0.087511
  endloop
endfacet
facet normal -0.000000 -0.101443 -0.029383
  outer loop
    vertex 6.000000 -0.428658 -0.087511
    vertex 4.500000 -0.428658 -0.087511
    vertex 6.000000 -0.409070 -0.155140
  endloop
endfacet
facet normal -0.000000 -0.101443 -0.029383
  outer loop
    vertex 6.000000 -0.409070 -0.155140
    vertex 4.500000 -0.428658 -0.087511
    vertex 4.500000 -0.409070 -0.155140
  endloop
endfacet
facet normal -0.000000 -0.095416 -0.045275
  outer loop
    vertex 6.000000 -0.409070 -0.155140
    vertex 4.500000 -0.409070 -0.155140
    vertex 6.000000 -0.378886 -0.218750
  endloop
endfacet
facet normal -0.000000 -0.095416 -0.045275
  outer loop
    vertex 6.000000 -0.378886 -0.218750
    vertex 4.500000 -0.409070 -0.155140
    vertex 4.500000 -0.378886 -0.218750
  endloop
endfacet
facet normal -0.000000 -0.086917 -0.059995
  outer loop
    vertex 6.000000 -0.378886 -0.218750
    vertex 4.500000 -0.378886 -0.218750
    vertex 6.000000 -0.338890 -0.276695
  endloop
endfacet
facet normal -0.000000 -0.086917 -0.059995
  outer loop
    vertex 6.000000 -0.338890 -0.276695
    vertex 4.500000 -0.378886 -0.218750
    vertex 4.500000 -0.338890 -0.276695
  endloop
endfacet
facet normal -0.000000 -0.076168 -0.073160
  outer loop
    vertex 6.000000 -0.338890 -0.276695
    vertex 4.500000 -0.338890 -0.276695
    vertex 6.000000 -0.290116 -0.327473
  endloop
endfacet
facet normal -0.000000 -0.076168 -0.073160
  outer loop
    vertex 6.000000 -0.290116 -0.327473
    vertex 4.500000 -0.338890 -0.276695
    vertex 4.500000 -0.290116 -0.327473
  endloop
endfacet
facet normal -0.000000 -0.063446 -0.084431
  outer loop
    vertex 6.000000 -0.290116 -0.327473
    vertex 4.500000 -0.290116 -0.327473
    vertex 6.000000 -0.233829 -0.369771
  endloop
endfacet
facet normal -0.000000 -0.063446 -0.084431
  outer loop
    vertex 6.000000 -0.233829 -0.369771
    vertex 4.500000 -0.290116 -0.327473
    vertex 4.500000 -0.233829 -0.369771
  endloop
endfacet
facet normal -0.000000 -0.049080 -0.093515
  outer loop
    vertex 6.000000 -0.233829 -0.369771
    vertex 4.500000 -0.233829 -0.369771
    vertex 6.000000 -0.171485 -0.402491
  endloop
endfacet
facet normal -0.000000 -0.049080 -0.093515
  outer loop
    vertex 6.000000 -0.171485 -0.402491
    vertex 4.500000 -0.233829 -0.369771
    vertex 4.500000 -0.171485 -0.402491
  endloop
endfacet
facet normal -0.000000 -0.033444 -0.100177
  outer loop
    vertex 6.000000 -0.171485 -0.402491
    vertex 4.500000 -0.171485 -0.402491
    vertex 6.000000 -0.104701 -0.424787
  endloop
endfacet
facet normal -0.000000 -0.033444 -0.100177
  outer loop
    vertex 6.000000 -0.104701 -0.424787
    vertex 4.500000 -0.171485 -0.402491
    vertex 4.500000 -0.104701 -0.424787
  endloop
endfacet
facet normal -0.000000 -0.016941 -0.104245
  outer loop
    vertex 6.000000 -0.104701 -0.424787
    vertex 4.500000 -0.104701 -0.424787
    vertex 6.000000 -0.035204 -0.436081
  endloop
endfacet
facet normal -0.000000 -0.016941 -0.104245
  outer loop
    vertex 6.000000 -0.035204 -0.436081
    vertex 4.500000 -0.104701 -0.424787
    vertex 4.500000 -0.035204 -0.436081
  endloop
endfacet
facet normal 0.000000 0.000000 -0.105612
  outer loop
    vertex 6.000000 -0.035204 -0.436081
    vertex 4.500000 -0.035204 -0.436081
    vertex 6.000000 0.035204 -0.436081
  endloop
endfacet
facet normal -0.000000 0.000000 -0.105612
  outer loop
    vertex 6.000000 0.035204 -0.436081
    vertex 4.500000 -0.035204 -0.436081
    vertex 4.500000 0.035204 -0.436081
  endloop
endfacet
facet normal 0.000000 0.016941 -0.104245
  outer loop
    vertex 6.000000 0.035204 -0.436081
    vertex 4.500000 0.035204 -0.436081
    vertex 6.000000 0.104701 -0.424787
  endloop
endfacet
facet normal 0.000000 0.016941 -0.104245
  outer loop
    vertex 6.000000 0.104701 -0.424787
    vertex 4.500000 0.035204 -0.436081
    vertex 4.500000 0.104701 -0.424787
  endloop
endfacet
facet normal 0.000000 0.033444 -0.100177
  outer loop
    vertex 6.000000 0.104701 -0.424787
    vertex 4.500000 0.104701 -0.424787
    vertex 6.000000 0.171485 -0.402491
  endloop
endfacet
facet normal 0.000000 0.033444 -0.100177
  outer loop
    vertex 6.000000 0.171485 -0.402491
    vertex 4.500000 0.104701 -0.424787
    vertex 4.500000 0.171485 -0.402491
  endloop
endfacet
facet normal 0.000000 0.049168 -0.093653
  outer loop
    vertex 6.000000 0.171485 -0.402491
    vertex 4.500000 0.171485 -0.402491
    vertex 6.000000 0.233921 -0.369712
  endloop
endfacet
facet normal 0.000000 0.049168 -0.093653
  outer loop
    vertex 6.000000 0.233921 -0.369712
    vertex 4.500000 0.171485 -0.402491
    vertex 4.500000 0.233921 -0.369712
  endloop
endfacet
facet normal 0.000000 0.063359 -0.084293
  outer loop
    vertex 6.000000 0.233921 -0.369712
    vertex 4.500000 0.233921 -0.369712
    vertex 6.000000 0.290116 -0.327473
  endloop
endfacet
facet normal 0.000000 0.063359 -0.084293
  outer loop
    vertex 6.000000 0.290116 -0.327473
    vertex 4.500000 0.233921 -0.369712
    vertex 4.500000 0.290116 -0.327473
  endloop
endfacet
facet normal 0.000000 0.076168 -0.073160
  outer loop
    vertex 6.000000 0.290116 -0.327473
    vertex 4.500000 0.290116 -0.327473
    vertex 6.000000 0.338890 -0.276695
  endloop
endfacet
facet normal 0.000000 0.076168 -0.073160
  outer loop
    vertex 6.000000 0.338890 -0.276695
    vertex 4.500000 0.290116 -0.327473
    vertex 4.500000 0.338890 -0.276695
  endloop
endfacet
facet normal 0.000000 0.086917 -0.059995
  outer loop
    vertex 6.000000 0.338890 -0.276695
    vertex 4.500000 0.338890 -0.276695
    vertex 6.000000 0.378886 -0.218750
  endloop
endfacet
facet normal 0.000000 0.086917 -0.059995
  outer loop
    vertex 6.000000 0.378886 -0.218750
    vertex 4.500000 0.338890 -0.276695
    vertex 4.500000 0.378886 -0.218750
  endloop
endfacet
facet normal 0.000000 0.095416 -0.045275
  outer loop
    vertex 6.000000 0.378886 -0.218750
    vertex 4.500000 0.378886 -0.218750
    vertex 6.000000 0.409070 -0.155140
  endloop
endfacet
facet normal -0.000000 -0.008498 0.105270
  outer loop
    vertex 7.500000 -0.000000 0.437500
    vertex 6.000000 0.000000 0.437500
    vertex 7.500000 -0.070180 0.431834
  endloop
endfacet
facet normal 0.000000 -0.008498 0.105270
  outer loop
    vertex 7.500000 -0.070180 0.431834
    vertex 6.000000 0.000000 0.437500
    vertex 6.000000 -0.070180 0.431834
  endloop
endfacet
facet normal 0.000000 -0.025275 0.102543
  outer loop
    vertex 7.500000 -0.070180 0.431834
    vertex 6.000000 -0.070180 0.431834
    vertex 7.500000 -0.138542 0.414985
  endloop
endfacet
facet normal 0.000000 -0.025275 0.102543
  outer loop
    vertex 7.500000 -0.138542 0.414985
    vertex 6.000000 -0.070180 0.431834
    vertex 6.000000 -0.138542 0.414985
  endloop
endfacet
facet normal 0.000000 -0.041397 0.097161
  outer loop
    vertex 7.500000 -0.138542 0.414985
    vertex 6.000000 -0.138542 0.414985
    vertex 7.500000 -0.203316 0.387387
  endloop
endfacet
facet normal 0.000000 -0.041397 0.097161
  outer loop
    vertex 7.500000 -0.203316 0.387387
    vertex 6.000000 -0.138542 0.414985
    vertex 6.000000 -0.203316 0.387387
  endloop
endfacet
facet normal 0.000000 -0.056446 0.089263
  outer loop
    vertex 7.500000 -0.203316 0.387387
    vertex 6.000000 -0.203316 0.387387
    vertex 7.500000 -0.262825 0.349756
  endloop
endfacet
facet normal 0.000000 -0.056446 0.089263
  outer loop
    vertex 7.500000 -0.262825 0.349756
    vertex 6.000000 -0.203316 0.387387
    vertex 6.000000 -0.262825 0.349756
  endloop
endfacet
facet normal 0.000000 -0.070034 0.079052
  outer loop
    vertex 7.500000 -0.262825 0.349756
    vertex 6.000000 -0.262825 0.349756
    vertex 7.500000 -0.315526 0.303067
  endloop
endfacet
facet normal 0.000000 -0.070034 0.079052
  outer loop
    vertex 7.500000 -0.315526 0.303067
    vertex 6.000000 -0.262825 0.349756
    vertex 6.000000 -0.315526 0.303067
  endloop
endfacet
facet normal 0.000000 -0.081808 0.066794
  outer loop
    vertex 7.500000 -0.315526 0.303067
    vertex 6.000000 -0.315526 0.303067
    vertex 7.500000 -0.360055 0.248528
  endloop
endfacet
facet normal 0.000000 -0.081808 0.066794
  outer loop
    vertex 7.500000 -0.360055 0.248528
    vertex 6.000000 -0.315526 0.303067
    vertex 6.000000 -0.360055 0.248528
  endloop
endfacet
facet normal 0.000000 -0.091463 0.052806
  outer loop
    vertex 7.500000 -0.360055 0.248528
    vertex 6.000000 -0.360055 0.248528
    vertex 7.500000 -0.395260 0.187553
  endloop
endfacet
facet normal 0.000000 -0.091463 0.052806
  outer loop
    vertex 7.500000 -0.395260 0.187553
    vertex 6.000000 -0.360055 0.248528
    vertex 6.000000 -0.395260 0.187553
  endloop
endfacet
facet normal 0.000000 -0.098749 0.037451
  outer loop
    vertex 7.500000 -0.395260 0.187553
    vertex 6.000000 -0.395260 0.187553
    vertex 7.500000 -0.420227 0.121720
  endloop
endfacet
facet normal 0.000000 -0.098749 0.037451
  outer loop
    vertex 7.500000 -0.420227 0.121720
    vertex 6.000000 -0.395260 0.187553
    vertex 6.000000 -0.420227 0.121720
  endloop
endfacet
facet normal 0.000000 -0.103478 0.021125
  outer loop
    vertex 7.500000 -0.420227 0.121720
    vertex 6.000000 -0.420227 0.121720
    vertex 7.500000 -0.434310 0.052735
  endloop
endfacet
facet normal 0.000000 -0.103478 0.021125
  outer loop
    vertex 7.500000 -0.434310 0.052735
    vertex 6.000000 -0.420227 0.121720
    vertex 6.000000 -0.434310 0.052735
  endloop
endfacet
facet normal 0.000000 -0.105527 0.004253
  outer loop
    vertex 7.500000 -0.434310 0.052735
    vertex 6.000000 -0.434310 0.052735
    vertex 7.500000 -0.437145 -0.017616
  endloop
endfacet
facet normal 0.000000 -0.105527 0.004253
  outer loop
    vertex 7.500000 -0.437145 -0.017616
    vertex 6.000000 -0.434310 0.052735
    vertex 6.000000 -0.437145 -0.017616
  endloop
endfacet
facet normal -0.000000 -0.104842 -0.012730
  outer loop
    vertex 7.500000 -0.437145 -0.017616
    vertex 6.000000 -0.437145 -0.017616
    vertex 7.500000 -0.428658 -0.087511
  endloop
endfacet
facet normal -0.000000 -0.104842 -0.012730
  outer loop
    vertex 7.500000 -0.428658 -0.087511
    vertex 6.000000 -0.437145 -0.017616
    vertex 6.000000 -0.428658 -0.087511
  endloop
endfacet
facet normal -0.000000 -0.101443 -0.029383
  outer loop
    vertex 7.500000 -0.428658 -0.087511
    vertex 6.000000 -0.428658 -0.087511
    vertex 7.500000 -0.409070 -0.155140
  endloop
endfacet
facet normal -0.000000 -0.101443 -0.029383
  outer loop
    vertex 7.500000 -0.409070 -0.155140
    vertex 6.000000 -0.428658 -0.087511
    vertex 6.000000 -0.409070 -0.155140
  endloop
endfacet
facet normal -0.000000 -0.095416 -0.045275
  outer loop
    vertex 7.500000 -0.409070 -0.155140
    vertex 6.000000 -0.409070 -0.155140
    vertex 7.500000 -0.378886 -0.218750
  endloop
endfacet
facet normal -0.000000 -0.095416 -0.045275
  outer loop
    vertex 7.500000 -0.378886 -0.218750
    vertex 6.000000 -0.409070 -0.155140
    vertex 6.000000 -0.378886 -0.218750
  endloop
endfacet
facet normal -0.000000 -0.086917 -0.059995
  outer loop
    vertex 7.500000 -0.378886 -0.218750
    vertex 6.000000 -0.378886 -0.218750
    vertex 7.500000 -0.338890 -0.276695
  endloop
endfacet
facet normal -0.000000 -0.086917 -0.059995
  outer loop
    vertex 7.500000 -0.338890 -0.276695
    vertex 6.000000 -0.378886 -0.218750
    vertex 6.000000 -0.338890 -0.276695
  endloop
endfacet
facet normal -0.000000 -0.076168 -0.073160
  outer loop
    vertex 7.500000 -0.338890 -0.276695
    vertex 6.000000 -0.338890 -0.276695
    vertex 7.500000 -0.290116 -0.327473
  endloop
endfacet
facet normal -0.000000 -0.076168 -0.073160
  outer loop
    vertex 7.500000 -0.290116 -0.327473
    vertex 6.000000 -0.338890 -0.276695
    vertex 6.000000 -0.290116 -0.327473
  endloop
endfacet
facet normal -0.000000 -0.063446 -0.084431
  outer loop
    vertex 7.500000 -0.290116 -0.327473
    vertex 6.000000 -0.290116 -0.327473
    vertex 7.500000 -0.233829 -0.369771
  endloop
endfacet
facet normal -0.000000 -0.063446 -0.084431
  outer loop
    vertex 7.500000 -0.233829 -0.369771
    vertex 6.000000 -0.290116 -0.327473
    vertex 6.000000 -0.233829 -0.369771
  endloop
endfacet
facet normal -0.000000 -0.049080 -0.093515
  outer loop
    vertex 7.500000 -0.233829 -0.369771
    vertex 6.000000 -0.233829 -0.369771
    vertex 7.500000 -0.171485 -0.402491
  endloop
endfacet
facet normal -0.000000 -0.049080 -0.093515
  outer loop
    vertex 7.500000 -0.171485 -0.402491
    vertex 6.000000 -0.233829 -0.369771
    vertex 6.000000 -0.171485 -0.402491
  endloop
endfacet
facet normal -0.000000 -0.033444 -0.100177
  outer loop
    vertex 7.500000 -0.171485 -0.402491
    vertex 6.000000 -0.171485 -0.402491
    vertex 7.500000 -0.104701 -0.424787
  endloop
endfacet
facet normal -0.000000 -0.033444 -0.100177
  outer loop
    vertex 7.500000 -0.104701 -0.424787
    vertex 6.000000 -0.171485 -0.402491
    vertex 6.000000 -0.104701 -0.424787
  endloop
endfacet
facet normal -0.000000 -0.016941 -0.104245
  outer loop
    vertex 7.500000 -0.104701 -0.424787
    vertex 6.000000 -0.104701 -0.424787
    vertex 7.500000 -0.035204 -0.436081
  endloop
endfacet
facet normal -0.000000 -0.016941 -0.104245
  outer loop
    vertex 7.500000 -0.035204 -0.436081
    vertex 6.000000 -0.104701 -0.424787
    vertex 6.000000 -0.035204 -0.436081
  endloop
endfacet
facet normal 0.000000 0.000000 -0.105612
  outer loop
    vertex 7.500000 -0.035204 -0.436081
    vertex 6.000000 -0.035204 -0.436081
    vertex 7.500000 0.035204 -0.436081
  endloop
endfacet
facet normal -0.000000 0.000000 -0.105612
  outer loop
    vertex 7.500000 0.035204 -0.436081
    vertex 6.000000 -0.035204 -0.436081
    vertex 6.000000 0.035204 -0.436081
  endloop
endfacet
facet normal 0.000000 0.016941 -0.104245
  outer loop
    vertex 7.500000 0.035204 -0.436081
    vertex 6.000000 0.035204 -0.436081
    vertex 7.500000 0.104701 -0.424787
  endloop
endfacet
facet normal 0.000000 0.016941 -0.104245
  outer loop
    vertex 7.500000 0.104701 -0.424787
    vertex 6.000000 0.035204 -0.436081
    vertex 6.000000 0.104701 -0.424787
  endloop
endfacet
facet normal 0.000000 0.033444 -0.100177
  outer loop
    vertex 7.500000 0.104701 -0.424787
    vertex 6.000000 0.104701 -0.424787
    vertex 7.500000 0.171485 -0.402491
  endloop
endfacet
facet normal 0.000000 0.033444 -0.100177
  outer loop
    vertex 7.500000 0.171485 -0.402491
    vertex 6.000000 0.104701 -0.424787
    vertex 6.000000 0.171485 -0.402491
  endloop
endfacet
facet normal 0.000000 0.049168 -0.093653
  outer loop
    vertex 7.500000 0.171485 -0.402491
    vertex 6.000000 0.171485 -0.402491
    vertex 7.500000 0.233921 -0.369712
  endloop
endfacet
facet normal 0.000000 0.049168 -0.093653
  outer loop
    vertex 7.500000 0.233921 -0.369712
    vertex 6.000000 0.171485 -0.402491
    vertex 6.000000 0.233921 -0.369712
  endloop
endfacet
facet normal 0.000000 0.063359 -0.084293
  outer loop
    vertex 7.500000 0.233921 -0.369712
    vertex 6.000000 0.233921 -0.369712
    vertex 7.500000 0.290116 -0.327473
  endloop
endfacet
facet normal 0.000000 0.063359 -0.084293
  outer loop
    vertex 7.500000 0.290116 -0.327473
    vertex 6.000000 0.233921 -0.369712
    vertex 6.000000 0.290116 -0.327473
  endloop
endfacet
facet normal 0.000000 0.076168 -0.073160
  outer loop
    vertex 7.500000 0.290116 -0.327473
    vertex 6.000000 0.290116 -0.327473
    vertex 7.500000 0.338890 -0.276695
  endloop
endfacet
facet normal 0.000000 0.076168 -0.073160
  outer loop
    vertex 7.500000 0.338890 -0.276695
    vertex 6.000000 0.290116 -0.327473
    vertex 6.000000 0.338890 -0.276695
  endloop
endfacet
facet normal 0.000000 0.086917 -0.059995
  outer loop
    vertex 7.500000 0.338890 -0.276695
    vertex 6.000000 0.338890 -0.276695
    vertex 7.500000 0.378886 -0.218750
  endloop
endfacet
facet normal 0.000000 0.086917 -0.059995
  outer loop
    vertex 7.500000 0.378886 -0.218750
    vertex 6.000000 0.338890 -0.276695
    vertex 6.000000 0.378886 -0.218750
  endloop
endfacet
facet normal 0.000000 0.095416 -0.045275
  outer loop
    vertex 7.500000 0.378886 -0.218750
    vertex 6.000000 0.378886 -0.218750
    vertex 7.500000 0.409070 -0.155140
  endloop
endfacet
facet normal 0.000000 0.095416 -0.045275
  outer loop
    vertex 7.500000 0.409070 -0.155140
    vertex 6.000000 0.378886 -0.218750
    vertex 6.000000 0.409070 -0.155140
  endloop
endfacet
facet normal 0.000000 0.000000 -0.752286
  outer loop
    vertex 0.000000 0.427337 0.093750
    vertex 9.000000 0.427337 0.093750
    vertex 0.000000 0.343750 0.093750
  endloop
endfacet
facet normal 0.000000 0.000000 -0.752286
  outer loop
    vertex 0.000000 0.343750 0.093750
    vertex 9.000000 0.427337 0.093750
    vertex 9.000000 0.343750 0.093750
  endloop
endfacet
facet normal 0.005528 0.000000 0.000000
  outer loop
    vertex 9.000000 0.427337 0.093750
    vertex 9.000000 0.407241 0.159879
    vertex 9.000000 0.343750 0.093750
  endloop
endfacet
facet normal 0.005946 0.000000 0.000000
  outer loop
    vertex 9.000000 0.343750 0.093750
    vertex 9.000000 0.407241 0.159879
    vertex 9.000000 0.376981 0.222018
  endloop
endfacet
facet normal 0.006969 0.000000 -0.000000
  outer loop
    vertex 9.000000 0.343750 0.093750
    vertex 9.000000 0.376981 0.222018
    vertex 9.000000 0.337312 0.278616
  endloop
endfacet
facet normal 0.008570 0.000000 0.000000
  outer loop
    vertex 9.000000 0.337312 0.278616
    vertex 9.000000 0.289226 0.328260
    vertex 9.000000 0.343750 0.093750
  endloop
endfacet
facet normal 0.010709 0.000000 0.000000
  outer loop
    vertex 9.000000 0.343750 0.093750
    vertex 9.000000 0.289226 0.328260
    vertex 9.000000 0.233921 0.369712
  endloop
endfacet
facet normal 0.013334 0.000000 0.000000
  outer loop
    vertex 9.000000 0.343750 0.093750
    vertex 9.000000 0.233921 0.369712
    vertex 9.000000 0.172778 0.401938
  endloop
endfacet
facet normal 0.016378 0.000000 0.000000
  outer loop
    vertex 9.000000 0.172778 0.401938
    vertex 9.000000 0.107323 0.424132
    vertex 9.000000 0.343750 0.093750
  endloop
endfacet
facet normal 0.019765 0.000000 0.000000
  outer loop
    vertex 9.000000 0.343750 0.093750
    vertex 9.000000 0.107323 0.424132
    vertex 9.000000 0.039190 0.435741
  endloop
endfacet
facet normal 0.023412 0.000000 0.000000
  outer loop
    vertex 9.000000 0.343750 0.093750
    vertex 9.000000 0.039190 0.435741
    vertex 9.000000 -0.029921 0.436476
  endloop
endfacet
facet normal 0.027226 0.000000 0.000000
  outer loop
    vertex 9.000000 -0.029921 0.436476
    vertex 9.000000 -0.098286 0.426317
    vertex 9.000000 0.343750 0.093750
  endloop
endfacet
facet normal 0.031114 0.000000 0.000000
  outer loop
    vertex 9.000000 0.343750 0.093750
    vertex 9.000000 -0.098286 0.426317
    vertex 9.000000 -0.164197 0.405519
  endloop
endfacet
facet normal 0.415531 0.000000 0.000000
  outer loop
    vertex 9.000000 0.343750 0.093750
    vertex 9.000000 -0.164197 0.405519
    vertex 9.000000 -0.226011 -0.374600
  endloop
endfacet
facet normal 0.046311 0.000000 0.000000
  outer loop
    vertex 9.000000 -0.226011 -0.374600
    vertex 9.000000 -0.164197 0.405519
    vertex 9.000000 -0.226011 0.374600
  endloop
endfacet
facet normal 0.042085 0.000000 -0.000000
  outer loop
    vertex 9.000000 -0.226011 -0.374600
    vertex 9.000000 -0.226011 0.374600
    vertex 9.000000 -0.282184 -0.334333
  endloop
endfacet
facet normal 0.037561 0.000000 0.000000
  outer loop
    vertex 9.000000 -0.282184 -0.334333
    vertex 9.000000 -0.226011 0.374600
    vertex 9.000000 -0.282184 0.334333
  endloop
endfacet
facet normal 0.032852 0.000000 -0.000000
  outer loop
    vertex 9.000000 -0.282184 -0.334333
    vertex 9.000000 -0.282184 0.334333
    vertex 9.000000 -0.331315 -0.285721
  endloop
endfacet
facet normal 0.028075 0.000000 0.000000
  outer loop
    vertex 9.000000 -0.331315 -0.285721
    vertex 9.000000 -0.282184 0.334333
    vertex 9.000000 -0.331315 0.285721
  endloop
endfacet
facet normal 0.023350 0.000000 -0.000000
  outer loop
    vertex 9.000000 -0.331315 -0.285721
    vertex 9.000000 -0.331315 0.285721
    vertex 9.000000 -0.372177 -0.229979
  endloop
endfacet
facet normal 0.018795 0.000000 0.000000
  outer loop
    vertex 9.000000 -0.372177 -0.229979
    vertex 9.000000 -0.331315 0.285721
    vertex 9.000000 -0.372177 0.229979
  endloop
endfacet
facet normal 0.014523 0.000000 -0.000000
  outer loop
    vertex 9.000000 -0.372177 -0.229979
    vertex 9.000000 -0.372177 0.229979
    vertex 9.000000 -0.403751 -0.168497
  endloop
endfacet
facet normal 0.010640 0.000000 0.000000
  outer loop
    vertex 9.000000 -0.403751 -0.168497
    vertex 9.000000 -0.372177 0.229979
    vertex 9.000000 -0.403751 0.168497
  endloop
endfacet
facet normal 0.007245 0.000000 -0.000000
  outer loop
    vertex 9.000000 -0.403751 -0.168497
    vertex 9.000000 -0.403751 0.168497
    vertex 9.000000 -0.425249 -0.102810
  endloop
endfacet
facet normal 0.004420 0.000000 0.000000
  outer loop
    vertex 9.000000 -0.425249 -0.102810
    vertex 9.000000 -0.403751 0.168497
    vertex 9.000000 -0.425249 0.102810
  endloop
endfacet
facet normal 0.002238 0.000000 -0.000000
  outer loop
    vertex 9.000000 -0.425249 -0.102810
    vertex 9.000000 -0.425249 0.102810
    vertex 9.000000 -0.436133 -0.034558
  endloop
endfacet
facet normal 0.000752 0.000000 0.000000
  outer loop
    vertex 9.000000 -0.436133 -0.034558
    vertex 9.000000 -0.425249 0.102810
    vertex 9.000000 -0.436133 0.034558
  endloop
endfacet
facet normal 0.046567 -0.000000 0.000000
  outer loop
    vertex 9.000000 -0.226011 -0.374600
    vertex 9.000000 -0.164197 -0.405519
    vertex 9.000000 0.343750 0.093750
  endloop
endfacet
facet normal 0.095240 0.000000 0.000000
  outer loop
    vertex 9.000000 0.343750 0.093750
    vertex 9.000000 -0.164197 -0.405519
    vertex 9.000000 0.343750 -0.093750
  endloop
endfacet
facet normal 0.031114 0.000000 0.000000
  outer loop
    vertex 9.000000 0.343750 -0.093750
    vertex 9.000000 -0.164197 -0.405519
    vertex 9.000000 -0.098286 -0.426317
  endloop
endfacet
facet normal 0.027226 0.000000 0.000000
  outer loop
    vertex 9.000000 0.343750 -0.093750
    vertex 9.000000 -0.098286 -0.426317
    vertex 9.000000 -0.029921 -0.436476
  endloop
endfacet
facet normal 0.023412 0.000000 0.000000
  outer loop
    vertex 9.000000 -0.029921 -0.436476
    vertex 9.000000 0.039190 -0.435741
    vertex 9.000000 0.343750 -0.093750
  endloop
endfacet
facet normal 0.019765 0.000000 0.000000
  outer loop
    vertex 9.000000 0.343750 -0.093750
    vertex 9.000000 0.039190 -0.435741
    vertex 9.000000 0.107323 -0.424132
  endloop
endfacet
facet normal 0.016378 0.000000 0.000000
  outer loop
    vertex 9.000000 0.343750 -0.093750
    vertex 9.000000 0.107323 -0.424132
    vertex 9.000000 0.172778 -0.401938
  endloop
endfacet
facet normal 0.013334 0.000000 0.000000
  outer loop
    vertex 9.000000 0.172778 -0.401938
    vertex 9.000000 0.233921 -0.369712
    vertex 9.000000 0.343750 -0.093750
  endloop
endfacet
facet normal 0.010709 0.000000 0.000000
  outer loop
    vertex 9.000000 0.343750 -0.093750
    vertex 9.000000 0.233921 -0.369712
    vertex 9.000000 0.289226 -0.328260
  endloop
endfacet
facet normal 0.008570 0.000000 0.000000
  outer loop
    vertex 9.000000 0.343750 -0.093750
    vertex 9.000000 0.289226 -0.328260
    vertex 9.000000 0.337312 -0.278616
  endloop
endfacet
facet normal 0.006969 0.000000 0.000000
  outer loop
    vertex 9.000000 0.337312 -0.278616
    vertex 9.000000 0.376981 -0.222018
    vertex 9.000000 0.343750 -0.093750
  endloop
endfacet
facet normal 0.005946 0.000000 0.000000
  outer loop
    vertex 9.000000 0.343750 -0.093750
    vertex 9.000000 0.376981 -0.222018
    vertex 9.000000 0.407241 -0.159879
  endloop
endfacet
facet normal 0.005528 -0.000000 0.000000
  outer loop
    vertex 9.000000 0.343750 -0.093750
    vertex 9.000000 0.407241 -0.159879
    vertex 9.000000 0.427337 -0.093750
  endloop
endfacet
facet normal -0.005528 0.000000 0.000000
  outer loop
    vertex 0.000000 0.427337 0.093750
    vertex 0.000000 0.343750 0.093750
    vertex 0.000000 0.407241 0.159879
  endloop
endfacet
facet normal -0.005946 -0.000000 0.000000
  outer loop
    vertex 0.000000 0.407241 0.159879
    vertex 0.000000 0.343750 0.093750
    vertex 0.000000 0.376981 0.222018
  endloop
endfacet
facet normal -0.006969 -0.000000 0.000000
  outer loop
    vertex 0.000000 0.376981 0.222018
    vertex 0.000000 0.343750 0.093750
    vertex 0.000000 0.337312 0.278616
  endloop
endfacet
facet normal -0.008570 -0.000000 -0.000000
  outer loop
    vertex 0.000000 0.337312 0.278616
    vertex 0.000000 0.343750 0.093750
    vertex 0.000000 0.289226 0.328260
  endloop
endfacet
facet normal -0.010709 -0.000000 -0.000000
  outer loop
    vertex 0.000000 0.289226 0.328260
    vertex 0.000000 0.343750 0.093750
    vertex 0.000000 0.233921 0.369712
  endloop
endfacet
facet normal -0.013334 -0.000000 -0.000000
  outer loop
    vertex 0.000000 0.233921 0.369712
    vertex 0.000000 0.343750 0.093750
    vertex 0.000000 0.172778 0.401938
  endloop
endfacet
facet normal -0.016378 -0.000000 -0.000000
  outer loop
    vertex 0.000000 0.172778 0.401938
    vertex 0.000000 0.343750 0.093750
    vertex 0.000000 0.107323 0.424132
  endloop
endfacet
facet normal -0.019765 -0.000000 -0.000000
  outer loop
    vertex 0.000000 0.107323 0.424132
    vertex 0.000000 0.343750 0.093750
    vertex 0.000000 0.039190 0.435741
  endloop
endfacet
facet normal -0.023412 -0.000000 -0.000000
  outer loop
    vertex 0.000000 0.039190 0.435741
    vertex 0.000000 0.343750 0.093750
    vertex 0.000000 -0.029921 0.436476
  endloop
endfacet
facet normal -0.027226 0.000000 -0.000000
  outer loop
    vertex 0.000000 -0.029921 0.436476
    vertex 0.000000 0.343750 0.093750
    vertex 0.000000 -0.098286 0.426317
  endloop
endfacet
facet normal -0.031114 0.000000 -0.000000
  outer loop
    vertex 0.000000 -0.098286 0.426317
    vertex 0.000000 0.343750 0.093750
    vertex 0.000000 -0.164197 0.405519
  endloop
endfacet
facet normal -0.095240 0.000000 0.000000
  outer loop
    vertex 0.000000 -0.164197 0.405519
    vertex 0.000000 0.343750 0.093750
    vertex 0.000000 0.343750 -0.093750
  endloop
endfacet
facet normal -0.046567 0.000000 -0.000000
  outer loop
    vertex 0.000000 -0.164197 0.405519
    vertex 0.000000 0.343750 -0.093750
    vertex 0.000000 -0.226011 0.374600
  endloop
endfacet
facet normal -0.415531 0.000000 0.000000
  outer loop
    vertex 0.000000 -0.226011 0.374600
    vertex 0.000000 0.343750 -0.093750
    vertex 0.000000 -0.164197 -0.405519
  endloop
endfacet
facet normal -0.046311 0.000000 0.000000
  outer loop
    vertex 0.000000 -0.226011 0.374600
    vertex 0.000000 -0.164197 -0.405519
    vertex 0.000000 -0.226011 -0.374600
  endloop
endfacet
facet normal -0.005528 -0.000000 0.000000
  outer loop
    vertex 0.000000 0.427337 -0.093750
    vertex 0.000000 0.407241 -0.159879
    vertex 0.000000 0.343750 -0.093750
  endloop
endfacet
facet normal -0.005946 0.000000 0.000000
  outer loop
    vertex 0.000000 0.343750 -0.093750
    vertex 0.000000 0.407241 -0.159879
    vertex 0.000000 0.376981 -0.222018
  endloop
endfacet
facet normal -0.006969 0.000000 -0.000000
  outer loop
    vertex 0.000000 0.343750 -0.093750
    vertex 0.000000 0.376981 -0.222018
    vertex 0.000000 0.337312 -0.278616
  endloop
endfacet
facet normal -0.008570 -0.000000 0.000000
  outer loop
    vertex 0.000000 0.337312 -0.278616
    vertex 0.000000 0.289226 -0.328260
    vertex 0.000000 0.343750 -0.093750
  endloop
endfacet
facet normal -0.010709 0.000000 0.000000
  outer loop
    vertex 0.000000 0.343750 -0.093750
    vertex 0.000000 0.289226 -0.328260
    vertex 0.000000 0.233921 -0.369712
  endloop
endfacet
facet normal -0.013334 0.000000 0.000000
  outer loop
    vertex 0.000000 0.343750 -0.093750
    vertex 0.000000 0.233921 -0.369712
    vertex 0.000000 0.172778 -0.401938
  endloop
endfacet
facet normal -0.016378 -0.000000 0.000000
  outer loop
    vertex 0.000000 0.172778 -0.401938
    vertex 0.000000 0.107323 -0.424132
    vertex 0.000000 0.343750 -0.093750
  endloop
endfacet
facet normal -0.019765 0.000000 0.000000
  outer loop
    vertex 0.000000 0.343750 -0.093750
    vertex 0.000000 0.107323 -0.424132
    vertex 0.000000 0.039190 -0.435741
  endloop
endfacet
facet normal -0.023412 0.000000 0.000000
  outer loop
    vertex 0.000000 0.343750 -0.093750
    vertex 0.000000 0.039190 -0.435741
    vertex 0.000000 -0.029921 -0.436476
  endloop
endfacet
facet normal -0.027226 0.000000 0.000000
  outer loop
    vertex 0.000000 -0.029921 -0.436476
    vertex 0.000000 -0.098286 -0.426317
    vertex 0.000000 0.343750 -0.093750
  endloop
endfacet
facet normal -0.031114 0.000000 0.000000
  outer loop
    vertex 0.000000 0.343750 -0.093750
    vertex 0.000000 -0.098286 -0.426317
    vertex 0.000000 -0.164197 -0.405519
  endloop
endfacet
facet normal -0.042085 0.000000 -0.000000
  outer loop
    vertex 0.000000 -0.226011 0.374600
    vertex 0.000000 -0.226011 -0.374600
    vertex 0.000000 -0.282184 0.334333
  endloop
endfacet
facet normal -0.037561 0.000000 0.000000
  outer loop
    vertex 0.000000 -0.282184 0.334333
    vertex 0.000000 -0.226011 -0.374600
    vertex 0.000000 -0.282184 -0.334333
  endloop
endfacet
facet normal -0.032852 0.000000 -0.000000
  outer loop
    vertex 0.000000 -0.282184 0.334333
    vertex 0.000000 -0.282184 -0.334333
    vertex 0.000000 -0.331315 0.285721
  endloop
endfacet
facet normal -0.028075 0.000000 0.000000
  outer loop
    vertex 0.000000 -0.331315 0.285721
    vertex 0.000000 -0.282184 -0.334333
    vertex 0.000000 -0.331315 -0.285721
  endloop
endfacet
facet normal -0.023350 0.000000 -0.000000
  outer loop
    vertex 0.000000 -0.331315 0.285721
    vertex 0.000000 -0.331315 -0.285721
    vertex 0.000000 -0.372177 0.229979
  endloop
endfacet
facet normal -0.018795 0.000000 0.000000
  outer loop
    vertex 0.000000 -0.372177 0.229979
    vertex 0.000000 -0.331315 -0.285721
    vertex 0.000000 -0.372177 -0.229979
  endloop
endfacet
facet normal -0.014523 0.000000 -0.000000
  outer loop
    vertex 0.000000 -0.372177 0.229979
    vertex 0.000000 -0.372177 -0.229979
    vertex 0.000000 -0.403751 0.168497
  endloop
endfacet
facet normal -0.010640 0.000000 0.000000
  outer loop
    vertex 0.000000 -0.403751 0.168497
    vertex 0.000000 -0.372177 -0.229979
    vertex 0.000000 -0.403751 -0.168497
  endloop
endfacet
facet normal -0.007245 0.000000 -0.000000
  outer loop
    vertex 0.000000 -0.403751 0.168497
    vertex 0.000000 -0.403751 -0.168497
    vertex 0.000000 -0.425249 0.102810
  endloop
endfacet
facet normal -0.004420 0.000000 0.000000
  outer loop
    vertex 0.000000 -0.425249 0.102810
    vertex 0.000000 -0.403751 -0.168497
    vertex 0.000000 -0.425249 -0.102810
  endloop
endfacet
facet normal -0.002238 0.000000 -0.000000
  outer loop
    vertex 0.000000 -0.425249 0.102810
    vertex 0.000000 -0.425249 -0.102810
    vertex 0.000000 -0.436133 0.034558
  endloop
endfacet
facet normal -0.000752 0.000000 0.000000
  outer loop
    vertex 0.000000 -0.436133 0.034558
    vertex 0.000000 -0.425249 -0.102810
    vertex 0.000000 -0.436133 -0.034558
  endloop
endfacet
endsolid 824f198b-aa63-42dc-ad6c-b5336fab88d4-ascii.stl
