solid 875351e9-e329-4f54-8c3b-6f90925c144f-ascii.stl
facet normal -0.000000 4.500000 0.000000
  outer loop
    vertex 0.000000 0.500000 0.125000
    vertex 18.000000 0.500000 0.125000
    vertex 0.000000 0.500000 -0.125000
  endloop
endfacet
facet normal 0.000000 4.500000 0.000000
  outer loop
    vertex 0.000000 0.500000 -0.125000
    vertex 18.000000 0.500000 0.125000
    vertex 18.000000 0.500000 -0.125000
  endloop
endfacet
facet normal 0.000000 0.000000 2.022704
  outer loop
    vertex 0.000000 0.500000 -0.125000
    vertex 18.000000 0.500000 -0.125000
    vertex 0.000000 0.612372 -0.125000
  endloop
endfacet
facet normal -0.000000 0.000000 2.022704
  outer loop
    vertex 0.000000 0.612372 -0.125000
    vertex 18.000000 0.500000 -0.125000
    vertex 18.000000 0.612372 -0.125000
  endloop
endfacet
facet normal -0.000207 0.291150 0.088854
  outer loop
    vertex 0.000000 0.577818 0.238225
    vertex 2.571429 0.607382 0.147349
    vertex 0.000000 0.612372 0.125000
  endloop
endfacet
facet normal 0.000000 0.057470 0.012832
  outer loop
    vertex 0.000000 0.612372 0.125000
    vertex 2.571429 0.607382 0.147349
    vertex 5.142857 0.607382 0.147349
  endloop
endfacet
facet normal 0.000000 0.057470 0.012832
  outer loop
    vertex 0.000000 0.612372 0.125000
    vertex 5.142857 0.607382 0.147349
    vertex 7.714286 0.607382 0.147349
  endloop
endfacet
facet normal 0.000000 0.288733 0.099931
  outer loop
    vertex 7.714286 0.607382 0.147349
    vertex 5.142857 0.607382 0.147349
    vertex 7.714286 0.568520 0.259634
  endloop
endfacet
facet normal 0.000000 0.288733 0.099931
  outer loop
    vertex 7.714286 0.607382 0.147349
    vertex 7.714286 0.568520 0.259634
    vertex 10.285714 0.568520 0.259634
  endloop
endfacet
facet normal 0.000000 0.264603 0.152769
  outer loop
    vertex 10.285714 0.568520 0.259634
    vertex 7.714286 0.568520 0.259634
    vertex 10.285714 0.509110 0.362536
  endloop
endfacet
facet normal 0.000000 0.264603 0.152769
  outer loop
    vertex 10.285714 0.568520 0.259634
    vertex 10.285714 0.509110 0.362536
    vertex 12.857142 0.509110 0.362536
  endloop
endfacet
facet normal 0.000000 0.230910 0.200084
  outer loop
    vertex 12.857142 0.509110 0.362536
    vertex 10.285714 0.509110 0.362536
    vertex 12.857142 0.431299 0.452334
  endloop
endfacet
facet normal 0.000000 0.230910 0.200084
  outer loop
    vertex 12.857142 0.509110 0.362536
    vertex 12.857142 0.431299 0.452334
    vertex 15.428572 0.431299 0.452334
  endloop
endfacet
facet normal 0.000000 0.188871 0.240169
  outer loop
    vertex 15.428572 0.431299 0.452334
    vertex 12.857142 0.431299 0.452334
    vertex 15.428572 0.337901 0.525783
  endloop
endfacet
facet normal -0.000221 0.188871 0.240168
  outer loop
    vertex 15.428572 0.431299 0.452334
    vertex 15.428572 0.337901 0.525783
    vertex 18.000000 0.358384 0.512041
  endloop
endfacet
facet normal 0.000219 0.150148 0.264799
  outer loop
    vertex 18.000000 0.358384 0.512041
    vertex 15.428572 0.337901 0.525783
    vertex 18.000000 0.255407 0.570432
  endloop
endfacet
facet normal -0.000224 0.140005 0.271572
  outer loop
    vertex 18.000000 0.255407 0.570432
    vertex 15.428572 0.337901 0.525783
    vertex 15.428572 0.232289 0.580230
  endloop
endfacet
facet normal 0.000222 0.097525 0.288361
  outer loop
    vertex 18.000000 0.255407 0.570432
    vertex 15.428572 0.232289 0.580230
    vertex 18.000000 0.143267 0.608358
  endloop
endfacet
facet normal -0.000227 0.086080 0.293161
  outer loop
    vertex 18.000000 0.143267 0.608358
    vertex 15.428572 0.232289 0.580230
    vertex 15.428572 0.118282 0.613705
  endloop
endfacet
facet normal 0.000225 0.041403 0.301577
  outer loop
    vertex 18.000000 0.143267 0.608358
    vertex 15.428572 0.118282 0.613705
    vertex 18.000000 0.025987 0.624460
  endloop
endfacet
facet normal -0.000230 0.029043 0.304154
  outer loop
    vertex 18.000000 0.025987 0.624460
    vertex 15.428572 0.118282 0.613705
    vertex 15.428572 -0.000000 0.625000
  endloop
endfacet
facet normal 0.000228 -0.016204 0.303975
  outer loop
    vertex 18.000000 0.025987 0.624460
    vertex 15.428572 -0.000000 0.625000
    vertex 18.000000 -0.092226 0.618158
  endloop
endfacet
facet normal -0.000232 -0.029043 0.304154
  outer loop
    vertex 18.000000 -0.092226 0.618158
    vertex 15.428572 -0.000000 0.625000
    vertex 15.428572 -0.118282 0.613705
  endloop
endfacet
facet normal 0.000230 -0.073230 0.295467
  outer loop
    vertex 18.000000 -0.092226 0.618158
    vertex 15.428572 -0.118282 0.613705
    vertex 18.000000 -0.207129 0.589680
  endloop
endfacet
facet normal -0.000235 -0.086080 0.293161
  outer loop
    vertex 18.000000 -0.207129 0.589680
    vertex 15.428572 -0.118282 0.613705
    vertex 15.428572 -0.232289 0.580230
  endloop
endfacet
facet normal 0.000233 -0.127628 0.276359
  outer loop
    vertex 18.000000 -0.207129 0.589680
    vertex 15.428572 -0.232289 0.580230
    vertex 18.000000 -0.314602 0.540047
  endloop
endfacet
facet normal -0.000238 -0.140005 0.271572
  outer loop
    vertex 18.000000 -0.314602 0.540047
    vertex 15.428572 -0.232289 0.580230
    vertex 15.428572 -0.337901 0.525783
  endloop
endfacet
facet normal 0.000236 -0.177448 0.247336
  outer loop
    vertex 18.000000 -0.314602 0.540047
    vertex 15.428572 -0.337901 0.525783
    vertex 18.000000 -0.410789 0.471039
  endloop
endfacet
facet normal -0.000241 -0.188871 0.240168
  outer loop
    vertex 18.000000 -0.410789 0.471039
    vertex 15.428572 -0.337901 0.525783
    vertex 15.428572 -0.431299 0.452334
  endloop
endfacet
facet normal 0.000238 -0.220902 0.209440
  outer loop
    vertex 18.000000 -0.410789 0.471039
    vertex 15.428572 -0.431299 0.452334
    vertex 18.000000 -0.492238 0.385133
  endloop
endfacet
facet normal -0.000243 -0.230910 0.200084
  outer loop
    vertex 18.000000 -0.492238 0.385133
    vertex 15.428572 -0.431299 0.452334
    vertex 15.428572 -0.509110 0.362536
  endloop
endfacet
facet normal 0.000241 -0.256431 0.164031
  outer loop
    vertex 18.000000 -0.492238 0.385133
    vertex 15.428572 -0.509110 0.362536
    vertex 18.000000 -0.556027 0.285409
  endloop
endfacet
facet normal -0.000246 -0.264603 0.152769
  outer loop
    vertex 18.000000 -0.556027 0.285409
    vertex 15.428572 -0.509110 0.362536
    vertex 15.428572 -0.568520 0.259634
  endloop
endfacet
facet normal 0.000244 -0.282761 0.112737
  outer loop
    vertex 18.000000 -0.556027 0.285409
    vertex 15.428572 -0.568520 0.259634
    vertex 18.000000 -0.599869 0.175447
  endloop
endfacet
facet normal -0.000248 -0.288733 0.099931
  outer loop
    vertex 18.000000 -0.599869 0.175447
    vertex 15.428572 -0.568520 0.259634
    vertex 15.428572 -0.607382 0.147349
  endloop
endfacet
facet normal 0.000246 -0.298946 0.057398
  outer loop
    vertex 18.000000 -0.599869 0.175447
    vertex 15.428572 -0.607382 0.147349
    vertex 18.000000 -0.622191 0.059190
  endloop
endfacet
facet normal -0.000251 -0.302427 0.043482
  outer loop
    vertex 18.000000 -0.622191 0.059190
    vertex 15.428572 -0.607382 0.147349
    vertex 15.428572 -0.624292 0.029739
  endloop
endfacet
facet normal 0.000249 -0.304406 0.000000
  outer loop
    vertex 18.000000 -0.622191 0.059190
    vertex 15.428572 -0.624292 0.029739
    vertex 18.000000 -0.622191 -0.059190
  endloop
endfacet
facet normal -0.000253 -0.305191 -0.014538
  outer loop
    vertex 18.000000 -0.622191 -0.059190
    vertex 15.428572 -0.624292 0.029739
    vertex 15.428572 -0.618638 -0.088947
  endloop
endfacet
facet normal 0.000251 -0.298946 -0.057398
  outer loop
    vertex 18.000000 -0.622191 -0.059190
    vertex 15.428572 -0.618638 -0.088947
    vertex 18.000000 -0.599869 -0.175447
  endloop
endfacet
facet normal -0.000256 -0.296925 -0.072033
  outer loop
    vertex 18.000000 -0.599869 -0.175447
    vertex 15.428572 -0.618638 -0.088947
    vertex 15.428572 -0.590626 -0.204417
  endloop
endfacet
facet normal 0.000254 -0.282761 -0.112737
  outer loop
    vertex 18.000000 -0.599869 -0.175447
    vertex 15.428572 -0.590626 -0.204417
    vertex 18.000000 -0.556027 -0.285409
  endloop
endfacet
facet normal -0.000258 -0.277926 -0.126925
  outer loop
    vertex 18.000000 -0.556027 -0.285409
    vertex 15.428572 -0.590626 -0.204417
    vertex 15.428572 -0.541266 -0.312500
  endloop
endfacet
facet normal 0.000256 -0.256431 -0.164031
  outer loop
    vertex 18.000000 -0.556027 -0.285409
    vertex 15.428572 -0.541266 -0.312500
    vertex 18.000000 -0.492238 -0.385133
  endloop
endfacet
facet normal -0.000261 -0.248883 -0.177229
  outer loop
    vertex 18.000000 -0.492238 -0.385133
    vertex 15.428572 -0.541266 -0.312500
    vertex 15.428572 -0.472343 -0.409288
  endloop
endfacet
facet normal 0.000258 -0.220902 -0.209440
  outer loop
    vertex 18.000000 -0.492238 -0.385133
    vertex 15.428572 -0.472343 -0.409288
    vertex 18.000000 -0.410789 -0.471039
  endloop
endfacet
facet normal -0.000263 -0.210845 -0.221128
  outer loop
    vertex 18.000000 -0.410789 -0.471039
    vertex 15.428572 -0.472343 -0.409288
    vertex 15.428572 -0.386349 -0.491283
  endloop
endfacet
facet normal 0.000261 -0.177448 -0.247336
  outer loop
    vertex 18.000000 -0.410789 -0.471039
    vertex 15.428572 -0.386349 -0.491283
    vertex 18.000000 -0.314602 -0.540047
  endloop
endfacet
facet normal -0.000265 -0.165186 -0.257034
  outer loop
    vertex 18.000000 -0.314602 -0.540047
    vertex 15.428572 -0.386349 -0.491283
    vertex 15.428572 -0.286392 -0.555522
  endloop
endfacet
facet normal 0.000263 -0.127628 -0.276359
  outer loop
    vertex 18.000000 -0.314602 -0.540047
    vertex 15.428572 -0.286392 -0.555522
    vertex 18.000000 -0.207129 -0.589680
  endloop
endfacet
facet normal -0.000268 -0.113557 -0.283651
  outer loop
    vertex 18.000000 -0.207129 -0.589680
    vertex 15.428572 -0.286392 -0.555522
    vertex 15.428572 -0.176083 -0.599683
  endloop
endfacet
facet normal 0.000265 -0.073230 -0.295467
  outer loop
    vertex 18.000000 -0.207129 -0.589680
    vertex 15.428572 -0.176083 -0.599683
    vertex 18.000000 -0.092226 -0.618158
  endloop
endfacet
facet normal -0.000270 -0.057823 -0.300016
  outer loop
    vertex 18.000000 -0.092226 -0.618158
    vertex 15.428572 -0.176083 -0.599683
    vertex 15.428572 -0.059410 -0.622170
  endloop
endfacet
facet normal 0.000267 -0.016204 -0.303975
  outer loop
    vertex 18.000000 -0.092226 -0.618158
    vertex 15.428572 -0.059410 -0.622170
    vertex 18.000000 0.025987 -0.624460
  endloop
endfacet
facet normal -0.000272 0.000000 -0.305537
  outer loop
    vertex 18.000000 0.025987 -0.624460
    vertex 15.428572 -0.059410 -0.622170
    vertex 15.428572 0.059410 -0.622170
  endloop
endfacet
facet normal 0.000270 0.041403 -0.301577
  outer loop
    vertex 18.000000 0.025987 -0.624460
    vertex 15.428572 0.059410 -0.622170
    vertex 18.000000 0.143267 -0.608358
  endloop
endfacet
facet normal -0.000274 0.057823 -0.300016
  outer loop
    vertex 18.000000 0.143267 -0.608358
    vertex 15.428572 0.059410 -0.622170
    vertex 15.428572 0.176083 -0.599683
  endloop
endfacet
facet normal 0.000272 0.097525 -0.288361
  outer loop
    vertex 18.000000 0.143267 -0.608358
    vertex 15.428572 0.176083 -0.599683
    vertex 18.000000 0.255407 -0.570432
  endloop
endfacet
facet normal -0.000276 0.113557 -0.283651
  outer loop
    vertex 18.000000 0.255407 -0.570432
    vertex 15.428572 0.176083 -0.599683
    vertex 15.428572 0.286392 -0.555522
  endloop
endfacet
facet normal 0.000274 0.150148 -0.264799
  outer loop
    vertex 18.000000 0.255407 -0.570432
    vertex 15.428572 0.286392 -0.555522
    vertex 18.000000 0.358384 -0.512041
  endloop
endfacet
facet normal -0.000278 0.165186 -0.257034
  outer loop
    vertex 18.000000 0.358384 -0.512041
    vertex 15.428572 0.286392 -0.555522
    vertex 15.428572 0.386349 -0.491283
  endloop
endfacet
facet normal 0.000276 0.197385 -0.231738
  outer loop
    vertex 18.000000 0.358384 -0.512041
    vertex 15.428572 0.386349 -0.491283
    vertex 18.000000 0.448505 -0.435280
  endloop
endfacet
facet normal -0.000280 0.210845 -0.221128
  outer loop
    vertex 18.000000 0.448505 -0.435280
    vertex 15.428572 0.386349 -0.491283
    vertex 15.428572 0.472343 -0.409288
  endloop
endfacet
facet normal 0.000278 0.237540 -0.190363
  outer loop
    vertex 18.000000 0.448505 -0.435280
    vertex 15.428572 0.472343 -0.409288
    vertex 18.000000 0.522534 -0.342903
  endloop
endfacet
facet normal -0.000282 0.248883 -0.177229
  outer loop
    vertex 18.000000 0.522534 -0.342903
    vertex 15.428572 0.472343 -0.409288
    vertex 15.428572 0.541266 -0.312500
  endloop
endfacet
facet normal 0.000280 0.269173 -0.142158
  outer loop
    vertex 18.000000 0.522534 -0.342903
    vertex 15.428572 0.541266 -0.312500
    vertex 18.000000 0.577818 -0.238225
  endloop
endfacet
facet normal -0.000284 0.277926 -0.126925
  outer loop
    vertex 18.000000 0.577818 -0.238225
    vertex 15.428572 0.541266 -0.312500
    vertex 15.428572 0.590626 -0.204417
  endloop
endfacet
facet normal 0.000282 0.291150 -0.088854
  outer loop
    vertex 18.000000 0.577818 -0.238225
    vertex 15.428572 0.590626 -0.204417
    vertex 18.000000 0.612372 -0.125000
  endloop
endfacet
facet normal 0.000000 0.204216 -0.055921
  outer loop
    vertex 18.000000 0.612372 -0.125000
    vertex 15.428572 0.590626 -0.204417
    vertex 12.857142 0.590626 -0.204417
  endloop
endfacet
facet normal 0.000000 0.204216 -0.055921
  outer loop
    vertex 18.000000 0.612372 -0.125000
    vertex 12.857142 0.590626 -0.204417
    vertex 10.285714 0.590626 -0.204417
  endloop
endfacet
facet normal 0.000000 0.277926 -0.126925
  outer loop
    vertex 10.285714 0.590626 -0.204417
    vertex 12.857142 0.590626 -0.204417
    vertex 10.285714 0.541266 -0.312500
  endloop
endfacet
facet normal 0.000000 0.277926 -0.126925
  outer loop
    vertex 10.285714 0.590626 -0.204417
    vertex 10.285714 0.541266 -0.312500
    vertex 7.714286 0.541266 -0.312500
  endloop
endfacet
facet normal 0.000000 0.248883 -0.177229
  outer loop
    vertex 7.714286 0.541266 -0.312500
    vertex 10.285714 0.541266 -0.312500
    vertex 7.714286 0.472343 -0.409288
  endloop
endfacet
facet normal 0.000000 0.248883 -0.177229
  outer loop
    vertex 7.714286 0.541266 -0.312500
    vertex 7.714286 0.472343 -0.409288
    vertex 5.142857 0.472343 -0.409288
  endloop
endfacet
facet normal 0.000000 0.210845 -0.221128
  outer loop
    vertex 5.142857 0.472343 -0.409288
    vertex 7.714286 0.472343 -0.409288
    vertex 5.142857 0.386349 -0.491283
  endloop
endfacet
facet normal 0.000000 0.210845 -0.221128
  outer loop
    vertex 5.142857 0.472343 -0.409288
    vertex 5.142857 0.386349 -0.491283
    vertex 2.571429 0.386349 -0.491283
  endloop
endfacet
facet normal 0.000000 0.165186 -0.257034
  outer loop
    vertex 2.571429 0.386349 -0.491283
    vertex 5.142857 0.386349 -0.491283
    vertex 2.571429 0.286392 -0.555522
  endloop
endfacet
facet normal 0.000278 0.165186 -0.257034
  outer loop
    vertex 2.571429 0.386349 -0.491283
    vertex 2.571429 0.286392 -0.555522
    vertex 0.000000 0.358384 -0.512041
  endloop
endfacet
facet normal -0.000274 0.150148 -0.264799
  outer loop
    vertex 0.000000 0.358384 -0.512041
    vertex 2.571429 0.286392 -0.555522
    vertex 0.000000 0.255407 -0.570432
  endloop
endfacet
facet normal 0.000276 0.113557 -0.283651
  outer loop
    vertex 0.000000 0.255407 -0.570432
    vertex 2.571429 0.286392 -0.555522
    vertex 2.571429 0.176083 -0.599683
  endloop
endfacet
facet normal -0.000272 0.097525 -0.288361
  outer loop
    vertex 0.000000 0.255407 -0.570432
    vertex 2.571429 0.176083 -0.599683
    vertex 0.000000 0.143267 -0.608358
  endloop
endfacet
facet normal 0.000274 0.057823 -0.300016
  outer loop
    vertex 0.000000 0.143267 -0.608358
    vertex 2.571429 0.176083 -0.599683
    vertex 2.571429 0.059410 -0.622170
  endloop
endfacet
facet normal -0.000270 0.041403 -0.301577
  outer loop
    vertex 0.000000 0.143267 -0.608358
    vertex 2.571429 0.059410 -0.622170
    vertex 0.000000 0.025987 -0.624460
  endloop
endfacet
facet normal 0.000272 0.000000 -0.305537
  outer loop
    vertex 0.000000 0.025987 -0.624460
    vertex 2.571429 0.059410 -0.622170
    vertex 2.571429 -0.059410 -0.622170
  endloop
endfacet
facet normal -0.000267 -0.016204 -0.303975
  outer loop
    vertex 0.000000 0.025987 -0.624460
    vertex 2.571429 -0.059410 -0.622170
    vertex 0.000000 -0.092226 -0.618158
  endloop
endfacet
facet normal 0.000270 -0.057823 -0.300016
  outer loop
    vertex 0.000000 -0.092226 -0.618158
    vertex 2.571429 -0.059410 -0.622170
    vertex 2.571429 -0.176083 -0.599683
  endloop
endfacet
facet normal -0.000265 -0.073230 -0.295467
  outer loop
    vertex 0.000000 -0.092226 -0.618158
    vertex 2.571429 -0.176083 -0.599683
    vertex 0.000000 -0.207129 -0.589680
  endloop
endfacet
facet normal 0.000268 -0.113557 -0.283651
  outer loop
    vertex 0.000000 -0.207129 -0.589680
    vertex 2.571429 -0.176083 -0.599683
    vertex 2.571429 -0.286392 -0.555522
  endloop
endfacet
facet normal -0.000263 -0.127628 -0.276359
  outer loop
    vertex 0.000000 -0.207129 -0.589680
    vertex 2.571429 -0.286392 -0.555522
    vertex 0.000000 -0.314602 -0.540047
  endloop
endfacet
facet normal 0.000265 -0.165186 -0.257034
  outer loop
    vertex 0.000000 -0.314602 -0.540047
    vertex 2.571429 -0.286392 -0.555522
    vertex 2.571429 -0.386349 -0.491283
  endloop
endfacet
facet normal -0.000261 -0.177448 -0.247336
  outer loop
    vertex 0.000000 -0.314602 -0.540047
    vertex 2.571429 -0.386349 -0.491283
    vertex 0.000000 -0.410789 -0.471039
  endloop
endfacet
facet normal 0.000263 -0.210845 -0.221128
  outer loop
    vertex 0.000000 -0.410789 -0.471039
    vertex 2.571429 -0.386349 -0.491283
    vertex 2.571429 -0.472343 -0.409288
  endloop
endfacet
facet normal -0.000258 -0.220902 -0.209440
  outer loop
    vertex 0.000000 -0.410789 -0.471039
    vertex 2.571429 -0.472343 -0.409288
    vertex 0.000000 -0.492238 -0.385133
  endloop
endfacet
facet normal 0.000261 -0.248883 -0.177229
  outer loop
    vertex 0.000000 -0.492238 -0.385133
    vertex 2.571429 -0.472343 -0.409288
    vertex 2.571429 -0.541266 -0.312500
  endloop
endfacet
facet normal -0.000256 -0.256431 -0.164031
  outer loop
    vertex 0.000000 -0.492238 -0.385133
    vertex 2.571429 -0.541266 -0.312500
    vertex 0.000000 -0.556027 -0.285409
  endloop
endfacet
facet normal 0.000258 -0.277926 -0.126925
  outer loop
    vertex 0.000000 -0.556027 -0.285409
    vertex 2.571429 -0.541266 -0.312500
    vertex 2.571429 -0.590626 -0.204417
  endloop
endfacet
facet normal -0.000254 -0.282761 -0.112737
  outer loop
    vertex 0.000000 -0.556027 -0.285409
    vertex 2.571429 -0.590626 -0.204417
    vertex 0.000000 -0.599869 -0.175447
  endloop
endfacet
facet normal 0.000256 -0.296925 -0.072033
  outer loop
    vertex 0.000000 -0.599869 -0.175447
    vertex 2.571429 -0.590626 -0.204417
    vertex 2.571429 -0.618638 -0.088947
  endloop
endfacet
facet normal -0.000251 -0.298946 -0.057398
  outer loop
    vertex 0.000000 -0.599869 -0.175447
    vertex 2.571429 -0.618638 -0.088947
    vertex 0.000000 -0.622191 -0.059190
  endloop
endfacet
facet normal 0.000253 -0.305191 -0.014538
  outer loop
    vertex 0.000000 -0.622191 -0.059190
    vertex 2.571429 -0.618638 -0.088947
    vertex 2.571429 -0.624292 0.029739
  endloop
endfacet
facet normal -0.000249 -0.304406 0.000000
  outer loop
    vertex 0.000000 -0.622191 -0.059190
    vertex 2.571429 -0.624292 0.029739
    vertex 0.000000 -0.622191 0.059190
  endloop
endfacet
facet normal 0.000251 -0.302427 0.043482
  outer loop
    vertex 0.000000 -0.622191 0.059190
    vertex 2.571429 -0.624292 0.029739
    vertex 2.571429 -0.607382 0.147349
  endloop
endfacet
facet normal -0.000246 -0.298946 0.057398
  outer loop
    vertex 0.000000 -0.622191 0.059190
    vertex 2.571429 -0.607382 0.147349
    vertex 0.000000 -0.599869 0.175447
  endloop
endfacet
facet normal 0.000248 -0.288733 0.099931
  outer loop
    vertex 0.000000 -0.599869 0.175447
    vertex 2.571429 -0.607382 0.147349
    vertex 2.571429 -0.568520 0.259634
  endloop
endfacet
facet normal -0.000244 -0.282761 0.112737
  outer loop
    vertex 0.000000 -0.599869 0.175447
    vertex 2.571429 -0.568520 0.259634
    vertex 0.000000 -0.556027 0.285409
  endloop
endfacet
facet normal 0.000246 -0.264603 0.152769
  outer loop
    vertex 0.000000 -0.556027 0.285409
    vertex 2.571429 -0.568520 0.259634
    vertex 2.571429 -0.509110 0.362536
  endloop
endfacet
facet normal -0.000241 -0.256431 0.164031
  outer loop
    vertex 0.000000 -0.556027 0.285409
    vertex 2.571429 -0.509110 0.362536
    vertex 0.000000 -0.492238 0.385133
  endloop
endfacet
facet normal 0.000243 -0.230910 0.200084
  outer loop
    vertex 0.000000 -0.492238 0.385133
    vertex 2.571429 -0.509110 0.362536
    vertex 2.571429 -0.431299 0.452334
  endloop
endfacet
facet normal -0.000238 -0.220902 0.209440
  outer loop
    vertex 0.000000 -0.492238 0.385133
    vertex 2.571429 -0.431299 0.452334
    vertex 0.000000 -0.410789 0.471039
  endloop
endfacet
facet normal 0.000241 -0.188871 0.240169
  outer loop
    vertex 0.000000 -0.410789 0.471039
    vertex 2.571429 -0.431299 0.452334
    vertex 2.571429 -0.337901 0.525783
  endloop
endfacet
facet normal -0.000236 -0.177448 0.247336
  outer loop
    vertex 0.000000 -0.410789 0.471039
    vertex 2.571429 -0.337901 0.525783
    vertex 0.000000 -0.314602 0.540047
  endloop
endfacet
facet normal 0.000238 -0.140005 0.271572
  outer loop
    vertex 0.000000 -0.314602 0.540047
    vertex 2.571429 -0.337901 0.525783
    vertex 2.571429 -0.232289 0.580230
  endloop
endfacet
facet normal -0.000233 -0.127628 0.276359
  outer loop
    vertex 0.000000 -0.314602 0.540047
    vertex 2.571429 -0.232289 0.580230
    vertex 0.000000 -0.207129 0.589680
  endloop
endfacet
facet normal 0.000235 -0.086080 0.293161
  outer loop
    vertex 0.000000 -0.207129 0.589680
    vertex 2.571429 -0.232289 0.580230
    vertex 2.571429 -0.118282 0.613705
  endloop
endfacet
facet normal -0.000230 -0.073230 0.295467
  outer loop
    vertex 0.000000 -0.207129 0.589680
    vertex 2.571429 -0.118282 0.613705
    vertex 0.000000 -0.092226 0.618158
  endloop
endfacet
facet normal 0.000232 -0.029043 0.304154
  outer loop
    vertex 0.000000 -0.092226 0.618158
    vertex 2.571429 -0.118282 0.613705
    vertex 2.571429 0.000000 0.625000
  endloop
endfacet
facet normal -0.000228 -0.016204 0.303975
  outer loop
    vertex 0.000000 -0.092226 0.618158
    vertex 2.571429 0.000000 0.625000
    vertex 0.000000 0.025987 0.624460
  endloop
endfacet
facet normal 0.000230 0.029043 0.304154
  outer loop
    vertex 0.000000 0.025987 0.624460
    vertex 2.571429 0.000000 0.625000
    vertex 2.571429 0.118282 0.613705
  endloop
endfacet
facet normal -0.000225 0.041403 0.301577
  outer loop
    vertex 0.000000 0.025987 0.624460
    vertex 2.571429 0.118282 0.613705
    vertex 0.000000 0.143267 0.608358
  endloop
endfacet
facet normal 0.000227 0.086080 0.293161
  outer loop
    vertex 0.000000 0.143267 0.608358
    vertex 2.571429 0.118282 0.613705
    vertex 2.571429 0.232289 0.580230
  endloop
endfacet
facet normal -0.000222 0.097525 0.288361
  outer loop
    vertex 0.000000 0.143267 0.608358
    vertex 2.571429 0.232289 0.580230
    vertex 0.000000 0.255407 0.570432
  endloop
endfacet
facet normal 0.000224 0.140005 0.271572
  outer loop
    vertex 0.000000 0.255407 0.570432
    vertex 2.571429 0.232289 0.580230
    vertex 2.571429 0.337901 0.525783
  endloop
endfacet
facet normal -0.000219 0.150148 0.264799
  outer loop
    vertex 0.000000 0.255407 0.570432
    vertex 2.571429 0.337901 0.525783
    vertex 0.000000 0.358384 0.512041
  endloop
endfacet
facet normal 0.000221 0.188871 0.240169
  outer loop
    vertex 0.000000 0.358384 0.512041
    vertex 2.571429 0.337901 0.525783
    vertex 2.571429 0.431299 0.452334
  endloop
endfacet
facet normal -0.000216 0.197385 0.231738
  outer loop
    vertex 0.000000 0.358384 0.512041
    vertex 2.571429 0.431299 0.452334
    vertex 0.000000 0.448505 0.435280
  endloop
endfacet
facet normal 0.000218 0.230910 0.200084
  outer loop
    vertex 0.000000 0.448505 0.435280
    vertex 2.571429 0.431299 0.452334
    vertex 2.571429 0.509110 0.362536
  endloop
endfacet
facet normal -0.000213 0.237540 0.190363
  outer loop
    vertex 0.000000 0.448505 0.435280
    vertex 2.571429 0.509110 0.362536
    vertex 0.000000 0.522534 0.342903
  endloop
endfacet
facet normal 0.000215 0.264603 0.152769
  outer loop
    vertex 0.000000 0.522534 0.342903
    vertex 2.571429 0.509110 0.362536
    vertex 2.571429 0.568520 0.259634
  endloop
endfacet
facet normal -0.000210 0.269173 0.142158
  outer loop
    vertex 0.000000 0.522534 0.342903
    vertex 2.571429 0.568520 0.259634
    vertex 0.000000 0.577818 0.238225
  endloop
endfacet
facet normal 0.000212 0.288733 0.099931
  outer loop
    vertex 0.000000 0.577818 0.238225
    vertex 2.571429 0.568520 0.259634
    vertex 2.571429 0.607382 0.147349
  endloop
endfacet
facet normal -0.000276 0.197385 -0.231738
  outer loop
    vertex 0.000000 0.358384 -0.512041
    vertex 0.000000 0.448505 -0.435280
    vertex 2.571429 0.386349 -0.491283
  endloop
endfacet
facet normal 0.000280 0.210845 -0.221128
  outer loop
    vertex 2.571429 0.386349 -0.491283
    vertex 0.000000 0.448505 -0.435280
    vertex 2.571429 0.472343 -0.409288
  endloop
endfacet
facet normal 0.000000 0.210845 -0.221128
  outer loop
    vertex 2.571429 0.386349 -0.491283
    vertex 2.571429 0.472343 -0.409288
    vertex 5.142857 0.472343 -0.409288
  endloop
endfacet
facet normal 0.000000 0.248883 -0.177229
  outer loop
    vertex 5.142857 0.472343 -0.409288
    vertex 2.571429 0.472343 -0.409288
    vertex 5.142857 0.541266 -0.312500
  endloop
endfacet
facet normal 0.000000 0.248883 -0.177229
  outer loop
    vertex 5.142857 0.472343 -0.409288
    vertex 5.142857 0.541266 -0.312500
    vertex 7.714286 0.541266 -0.312500
  endloop
endfacet
facet normal 0.000000 0.277927 -0.126925
  outer loop
    vertex 7.714286 0.541266 -0.312500
    vertex 5.142857 0.541266 -0.312500
    vertex 7.714286 0.590626 -0.204417
  endloop
endfacet
facet normal 0.000000 0.277926 -0.126925
  outer loop
    vertex 7.714286 0.541266 -0.312500
    vertex 7.714286 0.590626 -0.204417
    vertex 10.285714 0.590626 -0.204417
  endloop
endfacet
facet normal 0.000000 0.204216 -0.055921
  outer loop
    vertex 10.285714 0.590626 -0.204417
    vertex 7.714286 0.590626 -0.204417
    vertex 18.000000 0.612372 -0.125000
  endloop
endfacet
facet normal -0.000278 0.237540 -0.190363
  outer loop
    vertex 0.000000 0.448505 -0.435280
    vertex 0.000000 0.522534 -0.342903
    vertex 2.571429 0.472343 -0.409288
  endloop
endfacet
facet normal 0.000282 0.248883 -0.177229
  outer loop
    vertex 2.571429 0.472343 -0.409288
    vertex 0.000000 0.522534 -0.342903
    vertex 2.571429 0.541266 -0.312500
  endloop
endfacet
facet normal 0.000000 0.248883 -0.177229
  outer loop
    vertex 2.571429 0.472343 -0.409288
    vertex 2.571429 0.541266 -0.312500
    vertex 5.142857 0.541266 -0.312500
  endloop
endfacet
facet normal 0.000000 0.277926 -0.126925
  outer loop
    vertex 5.142857 0.541266 -0.312500
    vertex 2.571429 0.541266 -0.312500
    vertex 5.142857 0.590626 -0.204417
  endloop
endfacet
facet normal 0.000000 0.277927 -0.126925
  outer loop
    vertex 5.142857 0.541266 -0.312500
    vertex 5.142857 0.590626 -0.204417
    vertex 7.714286 0.590626 -0.204417
  endloop
endfacet
facet normal 0.000000 0.204216 -0.055921
  outer loop
    vertex 7.714286 0.590626 -0.204417
    vertex 5.142857 0.590626 -0.204417
    vertex 0.000000 0.612372 -0.125000
  endloop
endfacet
facet normal 0.000000 1.429515 -0.391445
  outer loop
    vertex 7.714286 0.590626 -0.204417
    vertex 0.000000 0.612372 -0.125000
    vertex 18.000000 0.612372 -0.125000
  endloop
endfacet
facet normal -0.000280 0.269173 -0.142158
  outer loop
    vertex 0.000000 0.522534 -0.342903
    vertex 0.000000 0.577818 -0.238225
    vertex 2.571429 0.541266 -0.312500
  endloop
endfacet
facet normal 0.000284 0.277926 -0.126925
  outer loop
    vertex 2.571429 0.541266 -0.312500
    vertex 0.000000 0.577818 -0.238225
    vertex 2.571429 0.590626 -0.204417
  endloop
endfacet
facet normal 0.000000 0.277926 -0.126925
  outer loop
    vertex 2.571429 0.541266 -0.312500
    vertex 2.571429 0.590626 -0.204417
    vertex 5.142857 0.590626 -0.204417
  endloop
endfacet
facet normal 0.000000 0.204216 -0.055921
  outer loop
    vertex 5.142857 0.590626 -0.204417
    vertex 2.571429 0.590626 -0.204417
    vertex 0.000000 0.612372 -0.125000
  endloop
endfacet
facet normal -0.000282 0.291150 -0.088854
  outer loop
    vertex 0.000000 0.577818 -0.238225
    vertex 0.000000 0.612372 -0.125000
    vertex 2.571429 0.590626 -0.204417
  endloop
endfacet
facet normal 0.000216 0.197385 0.231738
  outer loop
    vertex 18.000000 0.358384 0.512041
    vertex 18.000000 0.448505 0.435280
    vertex 15.428572 0.431299 0.452334
  endloop
endfacet
facet normal -0.000218 0.230910 0.200084
  outer loop
    vertex 15.428572 0.431299 0.452334
    vertex 18.000000 0.448505 0.435280
    vertex 15.428572 0.509110 0.362536
  endloop
endfacet
facet normal 0.000000 0.230910 0.200084
  outer loop
    vertex 15.428572 0.431299 0.452334
    vertex 15.428572 0.509110 0.362536
    vertex 12.857142 0.509110 0.362536
  endloop
endfacet
facet normal -0.000000 0.264603 0.152769
  outer loop
    vertex 12.857142 0.509110 0.362536
    vertex 15.428572 0.509110 0.362536
    vertex 12.857142 0.568520 0.259634
  endloop
endfacet
facet normal 0.000000 0.264603 0.152769
  outer loop
    vertex 12.857142 0.509110 0.362536
    vertex 12.857142 0.568520 0.259634
    vertex 10.285714 0.568520 0.259634
  endloop
endfacet
facet normal -0.000000 0.288733 0.099931
  outer loop
    vertex 10.285714 0.568520 0.259634
    vertex 12.857142 0.568520 0.259634
    vertex 10.285714 0.607382 0.147349
  endloop
endfacet
facet normal 0.000000 0.288733 0.099931
  outer loop
    vertex 10.285714 0.568520 0.259634
    vertex 10.285714 0.607382 0.147349
    vertex 7.714286 0.607382 0.147349
  endloop
endfacet
facet normal -0.000000 0.057470 0.012832
  outer loop
    vertex 7.714286 0.607382 0.147349
    vertex 10.285714 0.607382 0.147349
    vertex 0.000000 0.612372 0.125000
  endloop
endfacet
facet normal 0.000213 0.237540 0.190363
  outer loop
    vertex 18.000000 0.448505 0.435280
    vertex 18.000000 0.522534 0.342903
    vertex 15.428572 0.509110 0.362536
  endloop
endfacet
facet normal -0.000215 0.264603 0.152769
  outer loop
    vertex 15.428572 0.509110 0.362536
    vertex 18.000000 0.522534 0.342903
    vertex 15.428572 0.568520 0.259634
  endloop
endfacet
facet normal 0.000000 0.264603 0.152769
  outer loop
    vertex 15.428572 0.509110 0.362536
    vertex 15.428572 0.568520 0.259634
    vertex 12.857142 0.568520 0.259634
  endloop
endfacet
facet normal -0.000000 0.288733 0.099931
  outer loop
    vertex 12.857142 0.568520 0.259634
    vertex 15.428572 0.568520 0.259634
    vertex 12.857142 0.607382 0.147349
  endloop
endfacet
facet normal 0.000000 0.288733 0.099931
  outer loop
    vertex 12.857142 0.568520 0.259634
    vertex 12.857142 0.607382 0.147349
    vertex 10.285714 0.607382 0.147349
  endloop
endfacet
facet normal -0.000000 0.057470 0.012832
  outer loop
    vertex 10.285714 0.607382 0.147349
    vertex 12.857142 0.607382 0.147349
    vertex 18.000000 0.612372 0.125000
  endloop
endfacet
facet normal 0.000000 0.402288 0.089824
  outer loop
    vertex 10.285714 0.607382 0.147349
    vertex 18.000000 0.612372 0.125000
    vertex 0.000000 0.612372 0.125000
  endloop
endfacet
facet normal 0.000210 0.269173 0.142158
  outer loop
    vertex 18.000000 0.522534 0.342903
    vertex 18.000000 0.577818 0.238225
    vertex 15.428572 0.568520 0.259634
  endloop
endfacet
facet normal -0.000212 0.288733 0.099931
  outer loop
    vertex 15.428572 0.568520 0.259634
    vertex 18.000000 0.577818 0.238225
    vertex 15.428572 0.607382 0.147349
  endloop
endfacet
facet normal 0.000000 0.288733 0.099931
  outer loop
    vertex 15.428572 0.568520 0.259634
    vertex 15.428572 0.607382 0.147349
    vertex 12.857142 0.607382 0.147349
  endloop
endfacet
facet normal -0.000000 0.057470 0.012832
  outer loop
    vertex 12.857142 0.607382 0.147349
    vertex 15.428572 0.607382 0.147349
    vertex 18.000000 0.612372 0.125000
  endloop
endfacet
facet normal 0.000207 0.291150 0.088854
  outer loop
    vertex 18.000000 0.577818 0.238225
    vertex 18.000000 0.612372 0.125000
    vertex 15.428572 0.607382 0.147349
  endloop
endfacet
facet normal -0.000000 0.029043 0.304154
  outer loop
    vertex 2.571429 0.000000 0.625000
    vertex 5.142857 0.000000 0.625000
    vertex 2.571429 0.118282 0.613705
  endloop
endfacet
facet normal -0.000000 0.029043 0.304154
  outer loop
    vertex 2.571429 0.118282 0.613705
    vertex 5.142857 0.000000 0.625000
    vertex 5.142857 0.118282 0.613705
  endloop
endfacet
facet normal -0.000000 0.086080 0.293161
  outer loop
    vertex 2.571429 0.118282 0.613705
    vertex 5.142857 0.118282 0.613705
    vertex 2.571429 0.232289 0.580230
  endloop
endfacet
facet normal -0.000000 0.086080 0.293161
  outer loop
    vertex 2.571429 0.232289 0.580230
    vertex 5.142857 0.118282 0.613705
    vertex 5.142857 0.232289 0.580230
  endloop
endfacet
facet normal -0.000000 0.140005 0.271572
  outer loop
    vertex 2.571429 0.232289 0.580230
    vertex 5.142857 0.232289 0.580230
    vertex 2.571429 0.337901 0.525783
  endloop
endfacet
facet normal -0.000000 0.140005 0.271572
  outer loop
    vertex 2.571429 0.337901 0.525783
    vertex 5.142857 0.232289 0.580230
    vertex 5.142857 0.337901 0.525783
  endloop
endfacet
facet normal -0.000000 0.188871 0.240169
  outer loop
    vertex 2.571429 0.337901 0.525783
    vertex 5.142857 0.337901 0.525783
    vertex 2.571429 0.431299 0.452334
  endloop
endfacet
facet normal -0.000000 0.188871 0.240169
  outer loop
    vertex 2.571429 0.431299 0.452334
    vertex 5.142857 0.337901 0.525783
    vertex 5.142857 0.431299 0.452334
  endloop
endfacet
facet normal -0.000000 0.230910 0.200084
  outer loop
    vertex 2.571429 0.431299 0.452334
    vertex 5.142857 0.431299 0.452334
    vertex 2.571429 0.509110 0.362536
  endloop
endfacet
facet normal -0.000000 0.230910 0.200084
  outer loop
    vertex 2.571429 0.509110 0.362536
    vertex 5.142857 0.431299 0.452334
    vertex 5.142857 0.509110 0.362536
  endloop
endfacet
facet normal -0.000000 0.264603 0.152769
  outer loop
    vertex 2.571429 0.509110 0.362536
    vertex 5.142857 0.509110 0.362536
    vertex 2.571429 0.568520 0.259634
  endloop
endfacet
facet normal -0.000000 0.264603 0.152769
  outer loop
    vertex 2.571429 0.568520 0.259634
    vertex 5.142857 0.509110 0.362536
    vertex 5.142857 0.568520 0.259634
  endloop
endfacet
facet normal -0.000000 0.288733 0.099931
  outer loop
    vertex 2.571429 0.568520 0.259634
    vertex 5.142857 0.568520 0.259634
    vertex 2.571429 0.607382 0.147349
  endloop
endfacet
facet normal -0.000000 0.288733 0.099931
  outer loop
    vertex 2.571429 0.607382 0.147349
    vertex 5.142857 0.568520 0.259634
    vertex 5.142857 0.607382 0.147349
  endloop
endfacet
facet normal -0.000000 0.029043 0.304154
  outer loop
    vertex 5.142857 0.000000 0.625000
    vertex 7.714286 0.000000 0.625000
    vertex 5.142857 0.118282 0.613705
  endloop
endfacet
facet normal -0.000000 0.029043 0.304154
  outer loop
    vertex 5.142857 0.118282 0.613705
    vertex 7.714286 0.000000 0.625000
    vertex 7.714286 0.118282 0.613705
  endloop
endfacet
facet normal -0.000000 0.086080 0.293161
  outer loop
    vertex 5.142857 0.118282 0.613705
    vertex 7.714286 0.118282 0.613705
    vertex 5.142857 0.232289 0.580230
  endloop
endfacet
facet normal -0.000000 0.086080 0.293161
  outer loop
    vertex 5.142857 0.232289 0.580230
    vertex 7.714286 0.118282 0.613705
    vertex 7.714286 0.232289 0.580230
  endloop
endfacet
facet normal -0.000000 0.140005 0.271572
  outer loop
    vertex 5.142857 0.232289 0.580230
    vertex 7.714286 0.232289 0.580230
    vertex 5.142857 0.337901 0.525783
  endloop
endfacet
facet normal -0.000000 0.140005 0.271572
  outer loop
    vertex 5.142857 0.337901 0.525783
    vertex 7.714286 0.232289 0.580230
    vertex 7.714286 0.337901 0.525783
  endloop
endfacet
facet normal -0.000000 0.188871 0.240169
  outer loop
    vertex 5.142857 0.337901 0.525783
    vertex 7.714286 0.337901 0.525783
    vertex 5.142857 0.431299 0.452334
  endloop
endfacet
facet normal -0.000000 0.188871 0.240169
  outer loop
    vertex 5.142857 0.431299 0.452334
    vertex 7.714286 0.337901 0.525783
    vertex 7.714286 0.431299 0.452334
  endloop
endfacet
facet normal -0.000000 0.230910 0.200084
  outer loop
    vertex 5.142857 0.431299 0.452334
    vertex 7.714286 0.431299 0.452334
    vertex 5.142857 0.509110 0.362536
  endloop
endfacet
facet normal -0.000000 0.230910 0.200084
  outer loop
    vertex 5.142857 0.509110 0.362536
    vertex 7.714286 0.431299 0.452334
    vertex 7.714286 0.509110 0.362536
  endloop
endfacet
facet normal -0.000000 0.264603 0.152769
  outer loop
    vertex 5.142857 0.509110 0.362536
    vertex 7.714286 0.509110 0.362536
    vertex 5.142857 0.568520 0.259634
  endloop
endfacet
facet normal -0.000000 0.264603 0.152769
  outer loop
    vertex 5.142857 0.568520 0.259634
    vertex 7.714286 0.509110 0.362536
    vertex 7.714286 0.568520 0.259634
  endloop
endfacet
facet normal -0.000000 0.288733 0.099931
  outer loop
    vertex 5.142857 0.568520 0.259634
    vertex 7.714286 0.568520 0.259634
    vertex 5.142857 0.607382 0.147349
  endloop
endfacet
facet normal 0.000000 -0.029043 0.304154
  outer loop
    vertex 5.142857 0.000000 0.625000
    vertex 2.571429 0.000000 0.625000
    vertex 5.142857 -0.118282 0.613705
  endloop
endfacet
facet normal 0.000000 -0.029043 0.304154
  outer loop
    vertex 5.142857 -0.118282 0.613705
    vertex 2.571429 0.000000 0.625000
    vertex 2.571429 -0.118282 0.613705
  endloop
endfacet
facet normal 0.000000 -0.086080 0.293161
  outer loop
    vertex 5.142857 -0.118282 0.613705
    vertex 2.571429 -0.118282 0.613705
    vertex 5.142857 -0.232289 0.580230
  endloop
endfacet
facet normal 0.000000 -0.086080 0.293161
  outer loop
    vertex 5.142857 -0.232289 0.580230
    vertex 2.571429 -0.118282 0.613705
    vertex 2.571429 -0.232289 0.580230
  endloop
endfacet
facet normal 0.000000 -0.140005 0.271572
  outer loop
    vertex 5.142857 -0.232289 0.580230
    vertex 2.571429 -0.232289 0.580230
    vertex 5.142857 -0.337901 0.525783
  endloop
endfacet
facet normal 0.000000 -0.140005 0.271572
  outer loop
    vertex 5.142857 -0.337901 0.525783
    vertex 2.571429 -0.232289 0.580230
    vertex 2.571429 -0.337901 0.525783
  endloop
endfacet
facet normal 0.000000 -0.188871 0.240169
  outer loop
    vertex 5.142857 -0.337901 0.525783
    vertex 2.571429 -0.337901 0.525783
    vertex 5.142857 -0.431299 0.452334
  endloop
endfacet
facet normal 0.000000 -0.188871 0.240169
  outer loop
    vertex 5.142857 -0.431299 0.452334
    vertex 2.571429 -0.337901 0.525783
    vertex 2.571429 -0.431299 0.452334
  endloop
endfacet
facet normal 0.000000 -0.230910 0.200084
  outer loop
    vertex 5.142857 -0.431299 0.452334
    vertex 2.571429 -0.431299 0.452334
    vertex 5.142857 -0.509110 0.362536
  endloop
endfacet
facet normal 0.000000 -0.230910 0.200084
  outer loop
    vertex 5.142857 -0.509110 0.362536
    vertex 2.571429 -0.431299 0.452334
    vertex 2.571429 -0.509110 0.362536
  endloop
endfacet
facet normal 0.000000 -0.264603 0.152769
  outer loop
    vertex 5.142857 -0.509110 0.362536
    vertex 2.571429 -0.509110 0.362536
    vertex 5.142857 -0.568520 0.259634
  endloop
endfacet
facet normal 0.000000 -0.264603 0.152769
  outer loop
    vertex 5.142857 -0.568520 0.259634
    vertex 2.571429 -0.509110 0.362536
    vertex 2.571429 -0.568520 0.259634
  endloop
endfacet
facet normal 0.000000 -0.288733 0.099931
  outer loop
    vertex 5.142857 -0.568520 0.259634
    vertex 2.571429 -0.568520 0.259634
    vertex 5.142857 -0.607382 0.147349
  endloop
endfacet
facet normal 0.000000 -0.288733 0.099931
  outer loop
    vertex 5.142857 -0.607382 0.147349
    vertex 2.571429 -0.568520 0.259634
    vertex 2.571429 -0.607382 0.147349
  endloop
endfacet
facet normal 0.000000 -0.302427 0.043482
  outer loop
    vertex 5.142857 -0.607382 0.147349
    vertex 2.571429 -0.607382 0.147349
    vertex 5.142857 -0.624292 0.029739
  endloop
endfacet
facet normal 0.000000 -0.302427 0.043482
  outer loop
    vertex 5.142857 -0.624292 0.029739
    vertex 2.571429 -0.607382 0.147349
    vertex 2.571429 -0.624292 0.029739
  endloop
endfacet
facet normal -0.000000 -0.305191 -0.014538
  outer loop
    vertex 5.142857 -0.624292 0.029739
    vertex 2.571429 -0.624292 0.029739
    vertex 5.142857 -0.618638 -0.088947
  endloop
endfacet
facet normal -0.000000 -0.305191 -0.014538
  outer loop
    vertex 5.142857 -0.618638 -0.088947
    vertex 2.571429 -0.624292 0.029739
    vertex 2.571429 -0.618638 -0.088947
  endloop
endfacet
facet normal -0.000000 -0.296925 -0.072033
  outer loop
    vertex 5.142857 -0.618638 -0.088947
    vertex 2.571429 -0.618638 -0.088947
    vertex 5.142857 -0.590626 -0.204417
  endloop
endfacet
facet normal -0.000000 -0.296925 -0.072033
  outer loop
    vertex 5.142857 -0.590626 -0.204417
    vertex 2.571429 -0.618638 -0.088947
    vertex 2.571429 -0.590626 -0.204417
  endloop
endfacet
facet normal -0.000000 -0.277926 -0.126925
  outer loop
    vertex 5.142857 -0.590626 -0.204417
    vertex 2.571429 -0.590626 -0.204417
    vertex 5.142857 -0.541266 -0.312500
  endloop
endfacet
facet normal -0.000000 -0.277926 -0.126925
  outer loop
    vertex 5.142857 -0.541266 -0.312500
    vertex 2.571429 -0.590626 -0.204417
    vertex 2.571429 -0.541266 -0.312500
  endloop
endfacet
facet normal -0.000000 -0.248883 -0.177229
  outer loop
    vertex 5.142857 -0.541266 -0.312500
    vertex 2.571429 -0.541266 -0.312500
    vertex 5.142857 -0.472343 -0.409288
  endloop
endfacet
facet normal -0.000000 -0.248883 -0.177229
  outer loop
    vertex 5.142857 -0.472343 -0.409288
    vertex 2.571429 -0.541266 -0.312500
    vertex 2.571429 -0.472343 -0.409288
  endloop
endfacet
facet normal -0.000000 -0.210845 -0.221128
  outer loop
    vertex 5.142857 -0.472343 -0.409288
    vertex 2.571429 -0.472343 -0.409288
    vertex 5.142857 -0.386349 -0.491283
  endloop
endfacet
facet normal -0.000000 -0.210845 -0.221128
  outer loop
    vertex 5.142857 -0.386349 -0.491283
    vertex 2.571429 -0.472343 -0.409288
    vertex 2.571429 -0.386349 -0.491283
  endloop
endfacet
facet normal -0.000000 -0.165186 -0.257034
  outer loop
    vertex 5.142857 -0.386349 -0.491283
    vertex 2.571429 -0.386349 -0.491283
    vertex 5.142857 -0.286392 -0.555522
  endloop
endfacet
facet normal -0.000000 -0.165186 -0.257034
  outer loop
    vertex 5.142857 -0.286392 -0.555522
    vertex 2.571429 -0.386349 -0.491283
    vertex 2.571429 -0.286392 -0.555522
  endloop
endfacet
facet normal -0.000000 -0.113557 -0.283651
  outer loop
    vertex 5.142857 -0.286392 -0.555522
    vertex 2.571429 -0.286392 -0.555522
    vertex 5.142857 -0.176083 -0.599683
  endloop
endfacet
facet normal -0.000000 -0.113557 -0.283651
  outer loop
    vertex 5.142857 -0.176083 -0.599683
    vertex 2.571429 -0.286392 -0.555522
    vertex 2.571429 -0.176083 -0.599683
  endloop
endfacet
facet normal -0.000000 -0.057823 -0.300016
  outer loop
    vertex 5.142857 -0.176083 -0.599683
    vertex 2.571429 -0.176083 -0.599683
    vertex 5.142857 -0.059410 -0.622170
  endloop
endfacet
facet normal -0.000000 -0.057823 -0.300016
  outer loop
    vertex 5.142857 -0.059410 -0.622170
    vertex 2.571429 -0.176083 -0.599683
    vertex 2.571429 -0.059410 -0.622170
  endloop
endfacet
facet normal 0.000000 0.000000 -0.305537
  outer loop
    vertex 5.142857 -0.059410 -0.622170
    vertex 2.571429 -0.059410 -0.622170
    vertex 5.142857 0.059410 -0.622170
  endloop
endfacet
facet normal -0.000000 0.000000 -0.305537
  outer loop
    vertex 5.142857 0.059410 -0.622170
    vertex 2.571429 -0.059410 -0.622170
    vertex 2.571429 0.059410 -0.622170
  endloop
endfacet
facet normal 0.000000 0.057823 -0.300016
  outer loop
    vertex 5.142857 0.059410 -0.622170
    vertex 2.571429 0.059410 -0.622170
    vertex 5.142857 0.176083 -0.599683
  endloop
endfacet
facet normal 0.000000 0.057823 -0.300016
  outer loop
    vertex 5.142857 0.176083 -0.599683
    vertex 2.571429 0.059410 -0.622170
    vertex 2.571429 0.176083 -0.599683
  endloop
endfacet
facet normal 0.000000 0.113557 -0.283651
  outer loop
    vertex 5.142857 0.176083 -0.599683
    vertex 2.571429 0.176083 -0.599683
    vertex 5.142857 0.286392 -0.555522
  endloop
endfacet
facet normal 0.000000 0.113557 -0.283651
  outer loop
    vertex 5.142857 0.286392 -0.555522
    vertex 2.571429 0.176083 -0.599683
    vertex 2.571429 0.286392 -0.555522
  endloop
endfacet
facet normal 0.000000 0.165186 -0.257034
  outer loop
    vertex 5.142857 0.286392 -0.555522
    vertex 2.571429 0.286392 -0.555522
    vertex 5.142857 0.386349 -0.491283
  endloop
endfacet
facet normal -0.000000 0.029043 0.304154
  outer loop
    vertex 7.714286 0.000000 0.625000
    vertex 10.285714 0.000000 0.625000
    vertex 7.714286 0.118282 0.613705
  endloop
endfacet
facet normal -0.000000 0.029043 0.304154
  outer loop
    vertex 7.714286 0.118282 0.613705
    vertex 10.285714 0.000000 0.625000
    vertex 10.285714 0.118282 0.613705
  endloop
endfacet
facet normal -0.000000 0.086080 0.293161
  outer loop
    vertex 7.714286 0.118282 0.613705
    vertex 10.285714 0.118282 0.613705
    vertex 7.714286 0.232289 0.580230
  endloop
endfacet
facet normal -0.000000 0.086080 0.293161
  outer loop
    vertex 7.714286 0.232289 0.580230
    vertex 10.285714 0.118282 0.613705
    vertex 10.285714 0.232289 0.580230
  endloop
endfacet
facet normal -0.000000 0.140005 0.271572
  outer loop
    vertex 7.714286 0.232289 0.580230
    vertex 10.285714 0.232289 0.580230
    vertex 7.714286 0.337901 0.525783
  endloop
endfacet
facet normal -0.000000 0.140005 0.271572
  outer loop
    vertex 7.714286 0.337901 0.525783
    vertex 10.285714 0.232289 0.580230
    vertex 10.285714 0.337901 0.525783
  endloop
endfacet
facet normal -0.000000 0.188871 0.240168
  outer loop
    vertex 7.714286 0.337901 0.525783
    vertex 10.285714 0.337901 0.525783
    vertex 7.714286 0.431299 0.452334
  endloop
endfacet
facet normal -0.000000 0.188871 0.240168
  outer loop
    vertex 7.714286 0.431299 0.452334
    vertex 10.285714 0.337901 0.525783
    vertex 10.285714 0.431299 0.452334
  endloop
endfacet
facet normal -0.000000 0.230910 0.200084
  outer loop
    vertex 7.714286 0.431299 0.452334
    vertex 10.285714 0.431299 0.452334
    vertex 7.714286 0.509110 0.362536
  endloop
endfacet
facet normal -0.000000 0.230910 0.200084
  outer loop
    vertex 7.714286 0.509110 0.362536
    vertex 10.285714 0.431299 0.452334
    vertex 10.285714 0.509110 0.362536
  endloop
endfacet
facet normal -0.000000 0.264603 0.152769
  outer loop
    vertex 7.714286 0.509110 0.362536
    vertex 10.285714 0.509110 0.362536
    vertex 7.714286 0.568520 0.259634
  endloop
endfacet
facet normal 0.000000 -0.029043 0.304154
  outer loop
    vertex 7.714286 0.000000 0.625000
    vertex 5.142857 0.000000 0.625000
    vertex 7.714286 -0.118282 0.613705
  endloop
endfacet
facet normal 0.000000 -0.029043 0.304154
  outer loop
    vertex 7.714286 -0.118282 0.613705
    vertex 5.142857 0.000000 0.625000
    vertex 5.142857 -0.118282 0.613705
  endloop
endfacet
facet normal 0.000000 -0.086080 0.293161
  outer loop
    vertex 7.714286 -0.118282 0.613705
    vertex 5.142857 -0.118282 0.613705
    vertex 7.714286 -0.232289 0.580230
  endloop
endfacet
facet normal 0.000000 -0.086080 0.293161
  outer loop
    vertex 7.714286 -0.232289 0.580230
    vertex 5.142857 -0.118282 0.613705
    vertex 5.142857 -0.232289 0.580230
  endloop
endfacet
facet normal 0.000000 -0.140005 0.271572
  outer loop
    vertex 7.714286 -0.232289 0.580230
    vertex 5.142857 -0.232289 0.580230
    vertex 7.714286 -0.337901 0.525783
  endloop
endfacet
facet normal 0.000000 -0.140005 0.271572
  outer loop
    vertex 7.714286 -0.337901 0.525783
    vertex 5.142857 -0.232289 0.580230
    vertex 5.142857 -0.337901 0.525783
  endloop
endfacet
facet normal 0.000000 -0.188871 0.240169
  outer loop
    vertex 7.714286 -0.337901 0.525783
    vertex 5.142857 -0.337901 0.525783
    vertex 7.714286 -0.431299 0.452334
  endloop
endfacet
facet normal 0.000000 -0.188871 0.240169
  outer loop
    vertex 7.714286 -0.431299 0.452334
    vertex 5.142857 -0.337901 0.525783
    vertex 5.142857 -0.431299 0.452334
  endloop
endfacet
facet normal 0.000000 -0.230910 0.200084
  outer loop
    vertex 7.714286 -0.431299 0.452334
    vertex 5.142857 -0.431299 0.452334
    vertex 7.714286 -0.509110 0.362536
  endloop
endfacet
facet normal 0.000000 -0.230910 0.200084
  outer loop
    vertex 7.714286 -0.509110 0.362536
    vertex 5.142857 -0.431299 0.452334
    vertex 5.142857 -0.509110 0.362536
  endloop
endfacet
facet normal 0.000000 -0.264603 0.152769
  outer loop
    vertex 7.714286 -0.509110 0.362536
    vertex 5.142857 -0.509110 0.362536
    vertex 7.714286 -0.568520 0.259634
  endloop
endfacet
facet normal 0.000000 -0.264603 0.152769
  outer loop
    vertex 7.714286 -0.568520 0.259634
    vertex 5.142857 -0.509110 0.362536
    vertex 5.142857 -0.568520 0.259634
  endloop
endfacet
facet normal 0.000000 -0.288733 0.099931
  outer loop
    vertex 7.714286 -0.568520 0.259634
    vertex 5.142857 -0.568520 0.259634
    vertex 7.714286 -0.607382 0.147349
  endloop
endfacet
facet normal 0.000000 -0.288733 0.099931
  outer loop
    vertex 7.714286 -0.607382 0.147349
    vertex 5.142857 -0.568520 0.259634
    vertex 5.142857 -0.607382 0.147349
  endloop
endfacet
facet normal 0.000000 -0.302427 0.043482
  outer loop
    vertex 7.714286 -0.607382 0.147349
    vertex 5.142857 -0.607382 0.147349
    vertex 7.714286 -0.624292 0.029739
  endloop
endfacet
facet normal 0.000000 -0.302427 0.043482
  outer loop
    vertex 7.714286 -0.624292 0.029739
    vertex 5.142857 -0.607382 0.147349
    vertex 5.142857 -0.624292 0.029739
  endloop
endfacet
facet normal -0.000000 -0.305191 -0.014538
  outer loop
    vertex 7.714286 -0.624292 0.029739
    vertex 5.142857 -0.624292 0.029739
    vertex 7.714286 -0.618638 -0.088947
  endloop
endfacet
facet normal -0.000000 -0.305191 -0.014538
  outer loop
    vertex 7.714286 -0.618638 -0.088947
    vertex 5.142857 -0.624292 0.029739
    vertex 5.142857 -0.618638 -0.088947
  endloop
endfacet
facet normal -0.000000 -0.296925 -0.072033
  outer loop
    vertex 7.714286 -0.618638 -0.088947
    vertex 5.142857 -0.618638 -0.088947
    vertex 7.714286 -0.590626 -0.204417
  endloop
endfacet
facet normal -0.000000 -0.296925 -0.072033
  outer loop
    vertex 7.714286 -0.590626 -0.204417
    vertex 5.142857 -0.618638 -0.088947
    vertex 5.142857 -0.590626 -0.204417
  endloop
endfacet
facet normal -0.000000 -0.277927 -0.126925
  outer loop
    vertex 7.714286 -0.590626 -0.204417
    vertex 5.142857 -0.590626 -0.204417
    vertex 7.714286 -0.541266 -0.312500
  endloop
endfacet
facet normal -0.000000 -0.277927 -0.126925
  outer loop
    vertex 7.714286 -0.541266 -0.312500
    vertex 5.142857 -0.590626 -0.204417
    vertex 5.142857 -0.541266 -0.312500
  endloop
endfacet
facet normal -0.000000 -0.248883 -0.177229
  outer loop
    vertex 7.714286 -0.541266 -0.312500
    vertex 5.142857 -0.541266 -0.312500
    vertex 7.714286 -0.472343 -0.409288
  endloop
endfacet
facet normal -0.000000 -0.248883 -0.177229
  outer loop
    vertex 7.714286 -0.472343 -0.409288
    vertex 5.142857 -0.541266 -0.312500
    vertex 5.142857 -0.472343 -0.409288
  endloop
endfacet
facet normal -0.000000 -0.210845 -0.221128
  outer loop
    vertex 7.714286 -0.472343 -0.409288
    vertex 5.142857 -0.472343 -0.409288
    vertex 7.714286 -0.386349 -0.491283
  endloop
endfacet
facet normal -0.000000 -0.210845 -0.221128
  outer loop
    vertex 7.714286 -0.386349 -0.491283
    vertex 5.142857 -0.472343 -0.409288
    vertex 5.142857 -0.386349 -0.491283
  endloop
endfacet
facet normal -0.000000 -0.165186 -0.257034
  outer loop
    vertex 7.714286 -0.386349 -0.491283
    vertex 5.142857 -0.386349 -0.491283
    vertex 7.714286 -0.286392 -0.555522
  endloop
endfacet
facet normal -0.000000 -0.165186 -0.257034
  outer loop
    vertex 7.714286 -0.286392 -0.555522
    vertex 5.142857 -0.386349 -0.491283
    vertex 5.142857 -0.286392 -0.555522
  endloop
endfacet
facet normal -0.000000 -0.113557 -0.283651
  outer loop
    vertex 7.714286 -0.286392 -0.555522
    vertex 5.142857 -0.286392 -0.555522
    vertex 7.714286 -0.176083 -0.599683
  endloop
endfacet
facet normal -0.000000 -0.113557 -0.283651
  outer loop
    vertex 7.714286 -0.176083 -0.599683
    vertex 5.142857 -0.286392 -0.555522
    vertex 5.142857 -0.176083 -0.599683
  endloop
endfacet
facet normal -0.000000 -0.057823 -0.300016
  outer loop
    vertex 7.714286 -0.176083 -0.599683
    vertex 5.142857 -0.176083 -0.599683
    vertex 7.714286 -0.059410 -0.622170
  endloop
endfacet
facet normal -0.000000 -0.057823 -0.300016
  outer loop
    vertex 7.714286 -0.059410 -0.622170
    vertex 5.142857 -0.176083 -0.599683
    vertex 5.142857 -0.059410 -0.622170
  endloop
endfacet
facet normal 0.000000 0.000000 -0.305537
  outer loop
    vertex 7.714286 -0.059410 -0.622170
    vertex 5.142857 -0.059410 -0.622170
    vertex 7.714286 0.059410 -0.622170
  endloop
endfacet
facet normal -0.000000 0.000000 -0.305537
  outer loop
    vertex 7.714286 0.059410 -0.622170
    vertex 5.142857 -0.059410 -0.622170
    vertex 5.142857 0.059410 -0.622170
  endloop
endfacet
facet normal 0.000000 0.057823 -0.300016
  outer loop
    vertex 7.714286 0.059410 -0.622170
    vertex 5.142857 0.059410 -0.622170
    vertex 7.714286 0.176083 -0.599683
  endloop
endfacet
facet normal 0.000000 0.057823 -0.300016
  outer loop
    vertex 7.714286 0.176083 -0.599683
    vertex 5.142857 0.059410 -0.622170
    vertex 5.142857 0.176083 -0.599683
  endloop
endfacet
facet normal 0.000000 0.113557 -0.283651
  outer loop
    vertex 7.714286 0.176083 -0.599683
    vertex 5.142857 0.176083 -0.599683
    vertex 7.714286 0.286392 -0.555522
  endloop
endfacet
facet normal 0.000000 0.113557 -0.283651
  outer loop
    vertex 7.714286 0.286392 -0.555522
    vertex 5.142857 0.176083 -0.599683
    vertex 5.142857 0.286392 -0.555522
  endloop
endfacet
facet normal 0.000000 0.165186 -0.257034
  outer loop
    vertex 7.714286 0.286392 -0.555522
    vertex 5.142857 0.286392 -0.555522
    vertex 7.714286 0.386349 -0.491283
  endloop
endfacet
facet normal 0.000000 0.165186 -0.257034
  outer loop
    vertex 7.714286 0.386349 -0.491283
    vertex 5.142857 0.286392 -0.555522
    vertex 5.142857 0.386349 -0.491283
  endloop
endfacet
facet normal 0.000000 0.210845 -0.221128
  outer loop
    vertex 7.714286 0.386349 -0.491283
    vertex 5.142857 0.386349 -0.491283
    vertex 7.714286 0.472343 -0.409288
  endloop
endfacet
facet normal -0.000000 0.029043 0.304154
  outer loop
    vertex 10.285714 0.000000 0.625000
    vertex 12.857142 0.000000 0.625000
    vertex 10.285714 0.118282 0.613705
  endloop
endfacet
facet normal -0.000000 0.029043 0.304154
  outer loop
    vertex 10.285714 0.118282 0.613705
    vertex 12.857142 0.000000 0.625000
    vertex 12.857142 0.118282 0.613705
  endloop
endfacet
facet normal -0.000000 0.086080 0.293161
  outer loop
    vertex 10.285714 0.118282 0.613705
    vertex 12.857142 0.118282 0.613705
    vertex 10.285714 0.232289 0.580230
  endloop
endfacet
facet normal -0.000000 0.086080 0.293161
  outer loop
    vertex 10.285714 0.232289 0.580230
    vertex 12.857142 0.118282 0.613705
    vertex 12.857142 0.232289 0.580230
  endloop
endfacet
facet normal -0.000000 0.140005 0.271572
  outer loop
    vertex 10.285714 0.232289 0.580230
    vertex 12.857142 0.232289 0.580230
    vertex 10.285714 0.337901 0.525783
  endloop
endfacet
facet normal -0.000000 0.140005 0.271572
  outer loop
    vertex 10.285714 0.337901 0.525783
    vertex 12.857142 0.232289 0.580230
    vertex 12.857142 0.337901 0.525783
  endloop
endfacet
facet normal -0.000000 0.188871 0.240168
  outer loop
    vertex 10.285714 0.337901 0.525783
    vertex 12.857142 0.337901 0.525783
    vertex 10.285714 0.431299 0.452334
  endloop
endfacet
facet normal -0.000000 0.188871 0.240168
  outer loop
    vertex 10.285714 0.431299 0.452334
    vertex 12.857142 0.337901 0.525783
    vertex 12.857142 0.431299 0.452334
  endloop
endfacet
facet normal -0.000000 0.230910 0.200084
  outer loop
    vertex 10.285714 0.431299 0.452334
    vertex 12.857142 0.431299 0.452334
    vertex 10.285714 0.509110 0.362536
  endloop
endfacet
facet normal 0.000000 -0.029043 0.304154
  outer loop
    vertex 10.285714 0.000000 0.625000
    vertex 7.714286 0.000000 0.625000
    vertex 10.285714 -0.118282 0.613705
  endloop
endfacet
facet normal 0.000000 -0.029043 0.304154
  outer loop
    vertex 10.285714 -0.118282 0.613705
    vertex 7.714286 0.000000 0.625000
    vertex 7.714286 -0.118282 0.613705
  endloop
endfacet
facet normal 0.000000 -0.086080 0.293161
  outer loop
    vertex 10.285714 -0.118282 0.613705
    vertex 7.714286 -0.118282 0.613705
    vertex 10.285714 -0.232289 0.580230
  endloop
endfacet
facet normal 0.000000 -0.086080 0.293161
  outer loop
    vertex 10.285714 -0.232289 0.580230
    vertex 7.714286 -0.118282 0.613705
    vertex 7.714286 -0.232289 0.580230
  endloop
endfacet
facet normal 0.000000 -0.140005 0.271572
  outer loop
    vertex 10.285714 -0.232289 0.580230
    vertex 7.714286 -0.232289 0.580230
    vertex 10.285714 -0.337901 0.525783
  endloop
endfacet
facet normal 0.000000 -0.140005 0.271572
  outer loop
    vertex 10.285714 -0.337901 0.525783
    vertex 7.714286 -0.232289 0.580230
    vertex 7.714286 -0.337901 0.525783
  endloop
endfacet
facet normal 0.000000 -0.188871 0.240168
  outer loop
    vertex 10.285714 -0.337901 0.525783
    vertex 7.714286 -0.337901 0.525783
    vertex 10.285714 -0.431299 0.452334
  endloop
endfacet
facet normal 0.000000 -0.188871 0.240168
  outer loop
    vertex 10.285714 -0.431299 0.452334
    vertex 7.714286 -0.337901 0.525783
    vertex 7.714286 -0.431299 0.452334
  endloop
endfacet
facet normal 0.000000 -0.230910 0.200084
  outer loop
    vertex 10.285714 -0.431299 0.452334
    vertex 7.714286 -0.431299 0.452334
    vertex 10.285714 -0.509110 0.362536
  endloop
endfacet
facet normal 0.000000 -0.230910 0.200084
  outer loop
    vertex 10.285714 -0.509110 0.362536
    vertex 7.714286 -0.431299 0.452334
    vertex 7.714286 -0.509110 0.362536
  endloop
endfacet
facet normal 0.000000 -0.264603 0.152769
  outer loop
    vertex 10.285714 -0.509110 0.362536
    vertex 7.714286 -0.509110 0.362536
    vertex 10.285714 -0.568520 0.259634
  endloop
endfacet
facet normal 0.000000 -0.264603 0.152769
  outer loop
    vertex 10.285714 -0.568520 0.259634
    vertex 7.714286 -0.509110 0.362536
    vertex 7.714286 -0.568520 0.259634
  endloop
endfacet
facet normal 0.000000 -0.288733 0.099931
  outer loop
    vertex 10.285714 -0.568520 0.259634
    vertex 7.714286 -0.568520 0.259634
    vertex 10.285714 -0.607382 0.147349
  endloop
endfacet
facet normal 0.000000 -0.288733 0.099931
  outer loop
    vertex 10.285714 -0.607382 0.147349
    vertex 7.714286 -0.568520 0.259634
    vertex 7.714286 -0.607382 0.147349
  endloop
endfacet
facet normal 0.000000 -0.302427 0.043482
  outer loop
    vertex 10.285714 -0.607382 0.147349
    vertex 7.714286 -0.607382 0.147349
    vertex 10.285714 -0.624292 0.029739
  endloop
endfacet
facet normal 0.000000 -0.302427 0.043482
  outer loop
    vertex 10.285714 -0.624292 0.029739
    vertex 7.714286 -0.607382 0.147349
    vertex 7.714286 -0.624292 0.029739
  endloop
endfacet
facet normal -0.000000 -0.305191 -0.014538
  outer loop
    vertex 10.285714 -0.624292 0.029739
    vertex 7.714286 -0.624292 0.029739
    vertex 10.285714 -0.618638 -0.088947
  endloop
endfacet
facet normal -0.000000 -0.305191 -0.014538
  outer loop
    vertex 10.285714 -0.618638 -0.088947
    vertex 7.714286 -0.624292 0.029739
    vertex 7.714286 -0.618638 -0.088947
  endloop
endfacet
facet normal -0.000000 -0.296925 -0.072033
  outer loop
    vertex 10.285714 -0.618638 -0.088947
    vertex 7.714286 -0.618638 -0.088947
    vertex 10.285714 -0.590626 -0.204417
  endloop
endfacet
facet normal -0.000000 -0.296925 -0.072033
  outer loop
    vertex 10.285714 -0.590626 -0.204417
    vertex 7.714286 -0.618638 -0.088947
    vertex 7.714286 -0.590626 -0.204417
  endloop
endfacet
facet normal -0.000000 -0.277926 -0.126925
  outer loop
    vertex 10.285714 -0.590626 -0.204417
    vertex 7.714286 -0.590626 -0.204417
    vertex 10.285714 -0.541266 -0.312500
  endloop
endfacet
facet normal -0.000000 -0.277926 -0.126925
  outer loop
    vertex 10.285714 -0.541266 -0.312500
    vertex 7.714286 -0.590626 -0.204417
    vertex 7.714286 -0.541266 -0.312500
  endloop
endfacet
facet normal -0.000000 -0.248883 -0.177229
  outer loop
    vertex 10.285714 -0.541266 -0.312500
    vertex 7.714286 -0.541266 -0.312500
    vertex 10.285714 -0.472343 -0.409288
  endloop
endfacet
facet normal -0.000000 -0.248883 -0.177229
  outer loop
    vertex 10.285714 -0.472343 -0.409288
    vertex 7.714286 -0.541266 -0.312500
    vertex 7.714286 -0.472343 -0.409288
  endloop
endfacet
facet normal -0.000000 -0.210845 -0.221128
  outer loop
    vertex 10.285714 -0.472343 -0.409288
    vertex 7.714286 -0.472343 -0.409288
    vertex 10.285714 -0.386349 -0.491283
  endloop
endfacet
facet normal -0.000000 -0.210845 -0.221128
  outer loop
    vertex 10.285714 -0.386349 -0.491283
    vertex 7.714286 -0.472343 -0.409288
    vertex 7.714286 -0.386349 -0.491283
  endloop
endfacet
facet normal -0.000000 -0.165186 -0.257034
  outer loop
    vertex 10.285714 -0.386349 -0.491283
    vertex 7.714286 -0.386349 -0.491283
    vertex 10.285714 -0.286392 -0.555522
  endloop
endfacet
facet normal -0.000000 -0.165186 -0.257034
  outer loop
    vertex 10.285714 -0.286392 -0.555522
    vertex 7.714286 -0.386349 -0.491283
    vertex 7.714286 -0.286392 -0.555522
  endloop
endfacet
facet normal -0.000000 -0.113557 -0.283651
  outer loop
    vertex 10.285714 -0.286392 -0.555522
    vertex 7.714286 -0.286392 -0.555522
    vertex 10.285714 -0.176083 -0.599683
  endloop
endfacet
facet normal -0.000000 -0.113557 -0.283651
  outer loop
    vertex 10.285714 -0.176083 -0.599683
    vertex 7.714286 -0.286392 -0.555522
    vertex 7.714286 -0.176083 -0.599683
  endloop
endfacet
facet normal -0.000000 -0.057823 -0.300016
  outer loop
    vertex 10.285714 -0.176083 -0.599683
    vertex 7.714286 -0.176083 -0.599683
    vertex 10.285714 -0.059410 -0.622170
  endloop
endfacet
facet normal -0.000000 -0.057823 -0.300016
  outer loop
    vertex 10.285714 -0.059410 -0.622170
    vertex 7.714286 -0.176083 -0.599683
    vertex 7.714286 -0.059410 -0.622170
  endloop
endfacet
facet normal 0.000000 0.000000 -0.305537
  outer loop
    vertex 10.285714 -0.059410 -0.622170
    vertex 7.714286 -0.059410 -0.622170
    vertex 10.285714 0.059410 -0.622170
  endloop
endfacet
facet normal -0.000000 0.000000 -0.305537
  outer loop
    vertex 10.285714 0.059410 -0.622170
    vertex 7.714286 -0.059410 -0.622170
    vertex 7.714286 0.059410 -0.622170
  endloop
endfacet
facet normal 0.000000 0.057823 -0.300016
  outer loop
    vertex 10.285714 0.059410 -0.622170
    vertex 7.714286 0.059410 -0.622170
    vertex 10.285714 0.176083 -0.599683
  endloop
endfacet
facet normal 0.000000 0.057823 -0.300016
  outer loop
    vertex 10.285714 0.176083 -0.599683
    vertex 7.714286 0.059410 -0.622170
    vertex 7.714286 0.176083 -0.599683
  endloop
endfacet
facet normal 0.000000 0.113557 -0.283651
  outer loop
    vertex 10.285714 0.176083 -0.599683
    vertex 7.714286 0.176083 -0.599683
    vertex 10.285714 0.286392 -0.555522
  endloop
endfacet
facet normal 0.000000 0.113557 -0.283651
  outer loop
    vertex 10.285714 0.286392 -0.555522
    vertex 7.714286 0.176083 -0.599683
    vertex 7.714286 0.286392 -0.555522
  endloop
endfacet
facet normal 0.000000 0.165186 -0.257034
  outer loop
    vertex 10.285714 0.286392 -0.555522
    vertex 7.714286 0.286392 -0.555522
    vertex 10.285714 0.386349 -0.491283
  endloop
endfacet
facet normal 0.000000 0.165186 -0.257034
  outer loop
    vertex 10.285714 0.386349 -0.491283
    vertex 7.714286 0.286392 -0.555522
    vertex 7.714286 0.386349 -0.491283
  endloop
endfacet
facet normal 0.000000 0.210845 -0.221128
  outer loop
    vertex 10.285714 0.386349 -0.491283
    vertex 7.714286 0.386349 -0.491283
    vertex 10.285714 0.472343 -0.409288
  endloop
endfacet
facet normal 0.000000 0.210845 -0.221128
  outer loop
    vertex 10.285714 0.472343 -0.409288
    vertex 7.714286 0.386349 -0.491283
    vertex 7.714286 0.472343 -0.409288
  endloop
endfacet
facet normal 0.000000 0.248883 -0.177229
  outer loop
    vertex 10.285714 0.472343 -0.409288
    vertex 7.714286 0.472343 -0.409288
    vertex 10.285714 0.541266 -0.312500
  endloop
endfacet
facet normal 0.000000 0.029043 0.304154
  outer loop
    vertex 12.857142 0.000000 0.625000
    vertex 15.428572 -0.000000 0.625000
    vertex 12.857142 0.118282 0.613705
  endloop
endfacet
facet normal -0.000000 0.029043 0.304154
  outer loop
    vertex 12.857142 0.118282 0.613705
    vertex 15.428572 -0.000000 0.625000
    vertex 15.428572 0.118282 0.613705
  endloop
endfacet
facet normal -0.000000 0.086080 0.293161
  outer loop
    vertex 12.857142 0.118282 0.613705
    vertex 15.428572 0.118282 0.613705
    vertex 12.857142 0.232289 0.580230
  endloop
endfacet
facet normal -0.000000 0.086080 0.293161
  outer loop
    vertex 12.857142 0.232289 0.580230
    vertex 15.428572 0.118282 0.613705
    vertex 15.428572 0.232289 0.580230
  endloop
endfacet
facet normal -0.000000 0.140005 0.271572
  outer loop
    vertex 12.857142 0.232289 0.580230
    vertex 15.428572 0.232289 0.580230
    vertex 12.857142 0.337901 0.525783
  endloop
endfacet
facet normal -0.000000 0.140005 0.271572
  outer loop
    vertex 12.857142 0.337901 0.525783
    vertex 15.428572 0.232289 0.580230
    vertex 15.428572 0.337901 0.525783
  endloop
endfacet
facet normal -0.000000 0.188871 0.240169
  outer loop
    vertex 12.857142 0.337901 0.525783
    vertex 15.428572 0.337901 0.525783
    vertex 12.857142 0.431299 0.452334
  endloop
endfacet
facet normal 0.000000 -0.029043 0.304154
  outer loop
    vertex 12.857142 0.000000 0.625000
    vertex 10.285714 0.000000 0.625000
    vertex 12.857142 -0.118282 0.613705
  endloop
endfacet
facet normal 0.000000 -0.029043 0.304154
  outer loop
    vertex 12.857142 -0.118282 0.613705
    vertex 10.285714 0.000000 0.625000
    vertex 10.285714 -0.118282 0.613705
  endloop
endfacet
facet normal 0.000000 -0.086080 0.293161
  outer loop
    vertex 12.857142 -0.118282 0.613705
    vertex 10.285714 -0.118282 0.613705
    vertex 12.857142 -0.232289 0.580230
  endloop
endfacet
facet normal 0.000000 -0.086080 0.293161
  outer loop
    vertex 12.857142 -0.232289 0.580230
    vertex 10.285714 -0.118282 0.613705
    vertex 10.285714 -0.232289 0.580230
  endloop
endfacet
facet normal 0.000000 -0.140005 0.271572
  outer loop
    vertex 12.857142 -0.232289 0.580230
    vertex 10.285714 -0.232289 0.580230
    vertex 12.857142 -0.337901 0.525783
  endloop
endfacet
facet normal 0.000000 -0.140005 0.271572
  outer loop
    vertex 12.857142 -0.337901 0.525783
    vertex 10.285714 -0.232289 0.580230
    vertex 10.285714 -0.337901 0.525783
  endloop
endfacet
facet normal 0.000000 -0.188871 0.240168
  outer loop
    vertex 12.857142 -0.337901 0.525783
    vertex 10.285714 -0.337901 0.525783
    vertex 12.857142 -0.431299 0.452334
  endloop
endfacet
facet normal 0.000000 -0.188871 0.240168
  outer loop
    vertex 12.857142 -0.431299 0.452334
    vertex 10.285714 -0.337901 0.525783
    vertex 10.285714 -0.431299 0.452334
  endloop
endfacet
facet normal 0.000000 -0.230910 0.200084
  outer loop
    vertex 12.857142 -0.431299 0.452334
    vertex 10.285714 -0.431299 0.452334
    vertex 12.857142 -0.509110 0.362536
  endloop
endfacet
facet normal 0.000000 -0.230910 0.200084
  outer loop
    vertex 12.857142 -0.509110 0.362536
    vertex 10.285714 -0.431299 0.452334
    vertex 10.285714 -0.509110 0.362536
  endloop
endfacet
facet normal 0.000000 -0.264603 0.152769
  outer loop
    vertex 12.857142 -0.509110 0.362536
    vertex 10.285714 -0.509110 0.362536
    vertex 12.857142 -0.568520 0.259634
  endloop
endfacet
facet normal 0.000000 -0.264603 0.152769
  outer loop
    vertex 12.857142 -0.568520 0.259634
    vertex 10.285714 -0.509110 0.362536
    vertex 10.285714 -0.568520 0.259634
  endloop
endfacet
facet normal 0.000000 -0.288733 0.099931
  outer loop
    vertex 12.857142 -0.568520 0.259634
    vertex 10.285714 -0.568520 0.259634
    vertex 12.857142 -0.607382 0.147349
  endloop
endfacet
facet normal 0.000000 -0.288733 0.099931
  outer loop
    vertex 12.857142 -0.607382 0.147349
    vertex 10.285714 -0.568520 0.259634
    vertex 10.285714 -0.607382 0.147349
  endloop
endfacet
facet normal 0.000000 -0.302427 0.043482
  outer loop
    vertex 12.857142 -0.607382 0.147349
    vertex 10.285714 -0.607382 0.147349
    vertex 12.857142 -0.624292 0.029739
  endloop
endfacet
facet normal 0.000000 -0.302427 0.043482
  outer loop
    vertex 12.857142 -0.624292 0.029739
    vertex 10.285714 -0.607382 0.147349
    vertex 10.285714 -0.624292 0.029739
  endloop
endfacet
facet normal -0.000000 -0.305191 -0.014538
  outer loop
    vertex 12.857142 -0.624292 0.029739
    vertex 10.285714 -0.624292 0.029739
    vertex 12.857142 -0.618638 -0.088947
  endloop
endfacet
facet normal -0.000000 -0.305191 -0.014538
  outer loop
    vertex 12.857142 -0.618638 -0.088947
    vertex 10.285714 -0.624292 0.029739
    vertex 10.285714 -0.618638 -0.088947
  endloop
endfacet
facet normal -0.000000 -0.296925 -0.072033
  outer loop
    vertex 12.857142 -0.618638 -0.088947
    vertex 10.285714 -0.618638 -0.088947
    vertex 12.857142 -0.590626 -0.204417
  endloop
endfacet
facet normal -0.000000 -0.296925 -0.072033
  outer loop
    vertex 12.857142 -0.590626 -0.204417
    vertex 10.285714 -0.618638 -0.088947
    vertex 10.285714 -0.590626 -0.204417
  endloop
endfacet
facet normal -0.000000 -0.277926 -0.126925
  outer loop
    vertex 12.857142 -0.590626 -0.204417
    vertex 10.285714 -0.590626 -0.204417
    vertex 12.857142 -0.541266 -0.312500
  endloop
endfacet
facet normal -0.000000 -0.277926 -0.126925
  outer loop
    vertex 12.857142 -0.541266 -0.312500
    vertex 10.285714 -0.590626 -0.204417
    vertex 10.285714 -0.541266 -0.312500
  endloop
endfacet
facet normal -0.000000 -0.248883 -0.177229
  outer loop
    vertex 12.857142 -0.541266 -0.312500
    vertex 10.285714 -0.541266 -0.312500
    vertex 12.857142 -0.472343 -0.409288
  endloop
endfacet
facet normal -0.000000 -0.248883 -0.177229
  outer loop
    vertex 12.857142 -0.472343 -0.409288
    vertex 10.285714 -0.541266 -0.312500
    vertex 10.285714 -0.472343 -0.409288
  endloop
endfacet
facet normal -0.000000 -0.210845 -0.221128
  outer loop
    vertex 12.857142 -0.472343 -0.409288
    vertex 10.285714 -0.472343 -0.409288
    vertex 12.857142 -0.386349 -0.491283
  endloop
endfacet
facet normal -0.000000 -0.210845 -0.221128
  outer loop
    vertex 12.857142 -0.386349 -0.491283
    vertex 10.285714 -0.472343 -0.409288
    vertex 10.285714 -0.386349 -0.491283
  endloop
endfacet
facet normal -0.000000 -0.165186 -0.257034
  outer loop
    vertex 12.857142 -0.386349 -0.491283
    vertex 10.285714 -0.386349 -0.491283
    vertex 12.857142 -0.286392 -0.555522
  endloop
endfacet
facet normal -0.000000 -0.165186 -0.257034
  outer loop
    vertex 12.857142 -0.286392 -0.555522
    vertex 10.285714 -0.386349 -0.491283
    vertex 10.285714 -0.286392 -0.555522
  endloop
endfacet
facet normal -0.000000 -0.113557 -0.283651
  outer loop
    vertex 12.857142 -0.286392 -0.555522
    vertex 10.285714 -0.286392 -0.555522
    vertex 12.857142 -0.176083 -0.599683
  endloop
endfacet
facet normal -0.000000 -0.113557 -0.283651
  outer loop
    vertex 12.857142 -0.176083 -0.599683
    vertex 10.285714 -0.286392 -0.555522
    vertex 10.285714 -0.176083 -0.599683
  endloop
endfacet
facet normal -0.000000 -0.057823 -0.300016
  outer loop
    vertex 12.857142 -0.176083 -0.599683
    vertex 10.285714 -0.176083 -0.599683
    vertex 12.857142 -0.059410 -0.622170
  endloop
endfacet
facet normal -0.000000 -0.057823 -0.300016
  outer loop
    vertex 12.857142 -0.059410 -0.622170
    vertex 10.285714 -0.176083 -0.599683
    vertex 10.285714 -0.059410 -0.622170
  endloop
endfacet
facet normal 0.000000 0.000000 -0.305537
  outer loop
    vertex 12.857142 -0.059410 -0.622170
    vertex 10.285714 -0.059410 -0.622170
    vertex 12.857142 0.059410 -0.622170
  endloop
endfacet
facet normal -0.000000 0.000000 -0.305537
  outer loop
    vertex 12.857142 0.059410 -0.622170
    vertex 10.285714 -0.059410 -0.622170
    vertex 10.285714 0.059410 -0.622170
  endloop
endfacet
facet normal 0.000000 0.057823 -0.300016
  outer loop
    vertex 12.857142 0.059410 -0.622170
    vertex 10.285714 0.059410 -0.622170
    vertex 12.857142 0.176083 -0.599683
  endloop
endfacet
facet normal 0.000000 0.057823 -0.300016
  outer loop
    vertex 12.857142 0.176083 -0.599683
    vertex 10.285714 0.059410 -0.622170
    vertex 10.285714 0.176083 -0.599683
  endloop
endfacet
facet normal 0.000000 0.113557 -0.283651
  outer loop
    vertex 12.857142 0.176083 -0.599683
    vertex 10.285714 0.176083 -0.599683
    vertex 12.857142 0.286392 -0.555522
  endloop
endfacet
facet normal 0.000000 0.113557 -0.283651
  outer loop
    vertex 12.857142 0.286392 -0.555522
    vertex 10.285714 0.176083 -0.599683
    vertex 10.285714 0.286392 -0.555522
  endloop
endfacet
facet normal 0.000000 0.165186 -0.257034
  outer loop
    vertex 12.857142 0.286392 -0.555522
    vertex 10.285714 0.286392 -0.555522
    vertex 12.857142 0.386349 -0.491283
  endloop
endfacet
facet normal 0.000000 0.165186 -0.257034
  outer loop
    vertex 12.857142 0.386349 -0.491283
    vertex 10.285714 0.286392 -0.555522
    vertex 10.285714 0.386349 -0.491283
  endloop
endfacet
facet normal 0.000000 0.210845 -0.221128
  outer loop
    vertex 12.857142 0.386349 -0.491283
    vertex 10.285714 0.386349 -0.491283
    vertex 12.857142 0.472343 -0.409288
  endloop
endfacet
facet normal 0.000000 0.210845 -0.221128
  outer loop
    vertex 12.857142 0.472343 -0.409288
    vertex 10.285714 0.386349 -0.491283
    vertex 10.285714 0.472343 -0.409288
  endloop
endfacet
facet normal 0.000000 0.248883 -0.177229
  outer loop
    vertex 12.857142 0.472343 -0.409288
    vertex 10.285714 0.472343 -0.409288
    vertex 12.857142 0.541266 -0.312500
  endloop
endfacet
facet normal 0.000000 0.248883 -0.177229
  outer loop
    vertex 12.857142 0.541266 -0.312500
    vertex 10.285714 0.472343 -0.409288
    vertex 10.285714 0.541266 -0.312500
  endloop
endfacet
facet normal 0.000000 0.277926 -0.126925
  outer loop
    vertex 12.857142 0.541266 -0.312500
    vertex 10.285714 0.541266 -0.312500
    vertex 12.857142 0.590626 -0.204417
  endloop
endfacet
facet normal -0.000000 -0.029043 0.304154
  outer loop
    vertex 15.428572 -0.000000 0.625000
    vertex 12.857142 0.000000 0.625000
    vertex 15.428572 -0.118282 0.613705
  endloop
endfacet
facet normal 0.000000 -0.029043 0.304154
  outer loop
    vertex 15.428572 -0.118282 0.613705
    vertex 12.857142 0.000000 0.625000
    vertex 12.857142 -0.118282 0.613705
  endloop
endfacet
facet normal 0.000000 -0.086080 0.293161
  outer loop
    vertex 15.428572 -0.118282 0.613705
    vertex 12.857142 -0.118282 0.613705
    vertex 15.428572 -0.232289 0.580230
  endloop
endfacet
facet normal 0.000000 -0.086080 0.293161
  outer loop
    vertex 15.428572 -0.232289 0.580230
    vertex 12.857142 -0.118282 0.613705
    vertex 12.857142 -0.232289 0.580230
  endloop
endfacet
facet normal 0.000000 -0.140005 0.271572
  outer loop
    vertex 15.428572 -0.232289 0.580230
    vertex 12.857142 -0.232289 0.580230
    vertex 15.428572 -0.337901 0.525783
  endloop
endfacet
facet normal 0.000000 -0.140005 0.271572
  outer loop
    vertex 15.428572 -0.337901 0.525783
    vertex 12.857142 -0.232289 0.580230
    vertex 12.857142 -0.337901 0.525783
  endloop
endfacet
facet normal 0.000000 -0.188871 0.240169
  outer loop
    vertex 15.428572 -0.337901 0.525783
    vertex 12.857142 -0.337901 0.525783
    vertex 15.428572 -0.431299 0.452334
  endloop
endfacet
facet normal 0.000000 -0.188871 0.240169
  outer loop
    vertex 15.428572 -0.431299 0.452334
    vertex 12.857142 -0.337901 0.525783
    vertex 12.857142 -0.431299 0.452334
  endloop
endfacet
facet normal 0.000000 -0.230910 0.200084
  outer loop
    vertex 15.428572 -0.431299 0.452334
    vertex 12.857142 -0.431299 0.452334
    vertex 15.428572 -0.509110 0.362536
  endloop
endfacet
facet normal 0.000000 -0.230910 0.200084
  outer loop
    vertex 15.428572 -0.509110 0.362536
    vertex 12.857142 -0.431299 0.452334
    vertex 12.857142 -0.509110 0.362536
  endloop
endfacet
facet normal 0.000000 -0.264603 0.152769
  outer loop
    vertex 15.428572 -0.509110 0.362536
    vertex 12.857142 -0.509110 0.362536
    vertex 15.428572 -0.568520 0.259634
  endloop
endfacet
facet normal 0.000000 -0.264603 0.152769
  outer loop
    vertex 15.428572 -0.568520 0.259634
    vertex 12.857142 -0.509110 0.362536
    vertex 12.857142 -0.568520 0.259634
  endloop
endfacet
facet normal 0.000000 -0.288733 0.099931
  outer loop
    vertex 15.428572 -0.568520 0.259634
    vertex 12.857142 -0.568520 0.259634
    vertex 15.428572 -0.607382 0.147349
  endloop
endfacet
facet normal 0.000000 -0.288733 0.099931
  outer loop
    vertex 15.428572 -0.607382 0.147349
    vertex 12.857142 -0.568520 0.259634
    vertex 12.857142 -0.607382 0.147349
  endloop
endfacet
facet normal 0.000000 -0.302427 0.043482
  outer loop
    vertex 15.428572 -0.607382 0.147349
    vertex 12.857142 -0.607382 0.147349
    vertex 15.428572 -0.624292 0.029739
  endloop
endfacet
facet normal 0.000000 -0.302427 0.043482
  outer loop
    vertex 15.428572 -0.624292 0.029739
    vertex 12.857142 -0.607382 0.147349
    vertex 12.857142 -0.624292 0.029739
  endloop
endfacet
facet normal -0.000000 -0.305191 -0.014538
  outer loop
    vertex 15.428572 -0.624292 0.029739
    vertex 12.857142 -0.624292 0.029739
    vertex 15.428572 -0.618638 -0.088947
  endloop
endfacet
facet normal -0.000000 -0.305191 -0.014538
  outer loop
    vertex 15.428572 -0.618638 -0.088947
    vertex 12.857142 -0.624292 0.029739
    vertex 12.857142 -0.618638 -0.088947
  endloop
endfacet
facet normal -0.000000 -0.296925 -0.072033
  outer loop
    vertex 15.428572 -0.618638 -0.088947
    vertex 12.857142 -0.618638 -0.088947
    vertex 15.428572 -0.590626 -0.204417
  endloop
endfacet
facet normal -0.000000 -0.296925 -0.072033
  outer loop
    vertex 15.428572 -0.590626 -0.204417
    vertex 12.857142 -0.618638 -0.088947
    vertex 12.857142 -0.590626 -0.204417
  endloop
endfacet
facet normal -0.000000 -0.277927 -0.126925
  outer loop
    vertex 15.428572 -0.590626 -0.204417
    vertex 12.857142 -0.590626 -0.204417
    vertex 15.428572 -0.541266 -0.312500
  endloop
endfacet
facet normal -0.000000 -0.277927 -0.126925
  outer loop
    vertex 15.428572 -0.541266 -0.312500
    vertex 12.857142 -0.590626 -0.204417
    vertex 12.857142 -0.541266 -0.312500
  endloop
endfacet
facet normal -0.000000 -0.248883 -0.177229
  outer loop
    vertex 15.428572 -0.541266 -0.312500
    vertex 12.857142 -0.541266 -0.312500
    vertex 15.428572 -0.472343 -0.409288
  endloop
endfacet
facet normal -0.000000 -0.248883 -0.177229
  outer loop
    vertex 15.428572 -0.472343 -0.409288
    vertex 12.857142 -0.541266 -0.312500
    vertex 12.857142 -0.472343 -0.409288
  endloop
endfacet
facet normal -0.000000 -0.210845 -0.221128
  outer loop
    vertex 15.428572 -0.472343 -0.409288
    vertex 12.857142 -0.472343 -0.409288
    vertex 15.428572 -0.386349 -0.491283
  endloop
endfacet
facet normal -0.000000 -0.210845 -0.221128
  outer loop
    vertex 15.428572 -0.386349 -0.491283
    vertex 12.857142 -0.472343 -0.409288
    vertex 12.857142 -0.386349 -0.491283
  endloop
endfacet
facet normal -0.000000 -0.165186 -0.257034
  outer loop
    vertex 15.428572 -0.386349 -0.491283
    vertex 12.857142 -0.386349 -0.491283
    vertex 15.428572 -0.286392 -0.555522
  endloop
endfacet
facet normal -0.000000 -0.165186 -0.257034
  outer loop
    vertex 15.428572 -0.286392 -0.555522
    vertex 12.857142 -0.386349 -0.491283
    vertex 12.857142 -0.286392 -0.555522
  endloop
endfacet
facet normal -0.000000 -0.113557 -0.283651
  outer loop
    vertex 15.428572 -0.286392 -0.555522
    vertex 12.857142 -0.286392 -0.555522
    vertex 15.428572 -0.176083 -0.599683
  endloop
endfacet
facet normal -0.000000 -0.113557 -0.283651
  outer loop
    vertex 15.428572 -0.176083 -0.599683
    vertex 12.857142 -0.286392 -0.555522
    vertex 12.857142 -0.176083 -0.599683
  endloop
endfacet
facet normal -0.000000 -0.057823 -0.300016
  outer loop
    vertex 15.428572 -0.176083 -0.599683
    vertex 12.857142 -0.176083 -0.599683
    vertex 15.428572 -0.059410 -0.622170
  endloop
endfacet
facet normal -0.000000 -0.057823 -0.300016
  outer loop
    vertex 15.428572 -0.059410 -0.622170
    vertex 12.857142 -0.176083 -0.599683
    vertex 12.857142 -0.059410 -0.622170
  endloop
endfacet
facet normal 0.000000 0.000000 -0.305537
  outer loop
    vertex 15.428572 -0.059410 -0.622170
    vertex 12.857142 -0.059410 -0.622170
    vertex 15.428572 0.059410 -0.622170
  endloop
endfacet
facet normal -0.000000 0.000000 -0.305537
  outer loop
    vertex 15.428572 0.059410 -0.622170
    vertex 12.857142 -0.059410 -0.622170
    vertex 12.857142 0.059410 -0.622170
  endloop
endfacet
facet normal 0.000000 0.057823 -0.300016
  outer loop
    vertex 15.428572 0.059410 -0.622170
    vertex 12.857142 0.059410 -0.622170
    vertex 15.428572 0.176083 -0.599683
  endloop
endfacet
facet normal 0.000000 0.057823 -0.300016
  outer loop
    vertex 15.428572 0.176083 -0.599683
    vertex 12.857142 0.059410 -0.622170
    vertex 12.857142 0.176083 -0.599683
  endloop
endfacet
facet normal 0.000000 0.113557 -0.283651
  outer loop
    vertex 15.428572 0.176083 -0.599683
    vertex 12.857142 0.176083 -0.599683
    vertex 15.428572 0.286392 -0.555522
  endloop
endfacet
facet normal 0.000000 0.113557 -0.283651
  outer loop
    vertex 15.428572 0.286392 -0.555522
    vertex 12.857142 0.176083 -0.599683
    vertex 12.857142 0.286392 -0.555522
  endloop
endfacet
facet normal 0.000000 0.165186 -0.257034
  outer loop
    vertex 15.428572 0.286392 -0.555522
    vertex 12.857142 0.286392 -0.555522
    vertex 15.428572 0.386349 -0.491283
  endloop
endfacet
facet normal 0.000000 0.165186 -0.257034
  outer loop
    vertex 15.428572 0.386349 -0.491283
    vertex 12.857142 0.286392 -0.555522
    vertex 12.857142 0.386349 -0.491283
  endloop
endfacet
facet normal 0.000000 0.210845 -0.221128
  outer loop
    vertex 15.428572 0.386349 -0.491283
    vertex 12.857142 0.386349 -0.491283
    vertex 15.428572 0.472343 -0.409288
  endloop
endfacet
facet normal 0.000000 0.210845 -0.221128
  outer loop
    vertex 15.428572 0.472343 -0.409288
    vertex 12.857142 0.386349 -0.491283
    vertex 12.857142 0.472343 -0.409288
  endloop
endfacet
facet normal 0.000000 0.248883 -0.177229
  outer loop
    vertex 15.428572 0.472343 -0.409288
    vertex 12.857142 0.472343 -0.409288
    vertex 15.428572 0.541266 -0.312500
  endloop
endfacet
facet normal 0.000000 0.248883 -0.177229
  outer loop
    vertex 15.428572 0.541266 -0.312500
    vertex 12.857142 0.472343 -0.409288
    vertex 12.857142 0.541266 -0.312500
  endloop
endfacet
facet normal 0.000000 0.277927 -0.126925
  outer loop
    vertex 15.428572 0.541266 -0.312500
    vertex 12.857142 0.541266 -0.312500
    vertex 15.428572 0.590626 -0.204417
  endloop
endfacet
facet normal 0.000000 0.277927 -0.126925
  outer loop
    vertex 15.428572 0.590626 -0.204417
    vertex 12.857142 0.541266 -0.312500
    vertex 12.857142 0.590626 -0.204417
  endloop
endfacet
facet normal 0.000000 0.000000 -2.022704
  outer loop
    vertex 0.000000 0.612372 0.125000
    vertex 18.000000 0.612372 0.125000
    vertex 0.000000 0.500000 0.125000
  endloop
endfacet
facet normal 0.000000 0.000000 -2.022704
  outer loop
    vertex 0.000000 0.500000 0.125000
    vertex 18.000000 0.612372 0.125000
    vertex 18.000000 0.500000 0.125000
  endloop
endfacet
facet normal 0.012723 0.000000 0.000000
  outer loop
    vertex 18.000000 0.612372 0.125000
    vertex 18.000000 0.577818 0.238225
    vertex 18.000000 0.500000 0.125000
  endloop
endfacet
facet normal 0.014405 0.000000 0.000000
  outer loop
    vertex 18.000000 0.500000 0.125000
    vertex 18.000000 0.577818 0.238225
    vertex 18.000000 0.522534 0.342903
  endloop
endfacet
facet normal 0.018213 0.000000 -0.000000
  outer loop
    vertex 18.000000 0.500000 0.125000
    vertex 18.000000 0.522534 0.342903
    vertex 18.000000 0.448505 0.435280
  endloop
endfacet
facet normal 0.024010 0.000000 0.000000
  outer loop
    vertex 18.000000 0.448505 0.435280
    vertex 18.000000 0.358384 0.512041
    vertex 18.000000 0.500000 0.125000
  endloop
endfacet
facet normal 0.031587 0.000000 0.000000
  outer loop
    vertex 18.000000 0.500000 0.125000
    vertex 18.000000 0.358384 0.512041
    vertex 18.000000 0.255407 0.570432
  endloop
endfacet
facet normal 0.040674 0.000000 0.000000
  outer loop
    vertex 18.000000 0.500000 0.125000
    vertex 18.000000 0.255407 0.570432
    vertex 18.000000 0.143267 0.608358
  endloop
endfacet
facet normal 0.050944 0.000000 0.000000
  outer loop
    vertex 18.000000 0.143267 0.608358
    vertex 18.000000 0.025987 0.624460
    vertex 18.000000 0.500000 0.125000
  endloop
endfacet
facet normal 0.062029 0.000000 0.000000
  outer loop
    vertex 18.000000 0.500000 0.125000
    vertex 18.000000 0.025987 0.624460
    vertex 18.000000 -0.092226 0.618158
  endloop
endfacet
facet normal 0.073531 0.000000 0.000000
  outer loop
    vertex 18.000000 0.500000 0.125000
    vertex 18.000000 -0.092226 0.618158
    vertex 18.000000 -0.207129 0.589680
  endloop
endfacet
facet normal 0.085038 0.000000 0.000000
  outer loop
    vertex 18.000000 -0.207129 0.589680
    vertex 18.000000 -0.314602 0.540047
    vertex 18.000000 0.500000 0.125000
  endloop
endfacet
facet normal 0.879846 0.000000 0.000000
  outer loop
    vertex 18.000000 0.500000 0.125000
    vertex 18.000000 -0.314602 0.540047
    vertex 18.000000 -0.314602 -0.540047
  endloop
endfacet
facet normal 0.111906 0.000000 0.000000
  outer loop
    vertex 18.000000 0.500000 0.125000
    vertex 18.000000 -0.314602 -0.540047
    vertex 18.000000 -0.207129 -0.589680
  endloop
endfacet
facet normal 0.103890 0.000000 -0.000000
  outer loop
    vertex 18.000000 -0.314602 -0.540047
    vertex 18.000000 -0.314602 0.540047
    vertex 18.000000 -0.410789 -0.471039
  endloop
endfacet
facet normal 0.090615 0.000000 0.000000
  outer loop
    vertex 18.000000 -0.410789 -0.471039
    vertex 18.000000 -0.314602 0.540047
    vertex 18.000000 -0.410789 0.471039
  endloop
endfacet
facet normal 0.076731 0.000000 -0.000000
  outer loop
    vertex 18.000000 -0.410789 -0.471039
    vertex 18.000000 -0.410789 0.471039
    vertex 18.000000 -0.492238 -0.385133
  endloop
endfacet
facet normal 0.062737 0.000000 0.000000
  outer loop
    vertex 18.000000 -0.492238 -0.385133
    vertex 18.000000 -0.410789 0.471039
    vertex 18.000000 -0.492238 0.385133
  endloop
endfacet
facet normal 0.049135 0.000000 -0.000000
  outer loop
    vertex 18.000000 -0.492238 -0.385133
    vertex 18.000000 -0.492238 0.385133
    vertex 18.000000 -0.556027 -0.285409
  endloop
endfacet
facet normal 0.036412 0.000000 0.000000
  outer loop
    vertex 18.000000 -0.556027 -0.285409
    vertex 18.000000 -0.492238 0.385133
    vertex 18.000000 -0.556027 0.285409
  endloop
endfacet
facet normal 0.025026 0.000000 -0.000000
  outer loop
    vertex 18.000000 -0.556027 -0.285409
    vertex 18.000000 -0.556027 0.285409
    vertex 18.000000 -0.599869 -0.175447
  endloop
endfacet
facet normal 0.015384 0.000000 0.000000
  outer loop
    vertex 18.000000 -0.599869 -0.175447
    vertex 18.000000 -0.556027 0.285409
    vertex 18.000000 -0.599869 0.175447
  endloop
endfacet
facet normal 0.007832 0.000000 -0.000000
  outer loop
    vertex 18.000000 -0.599869 -0.175447
    vertex 18.000000 -0.599869 0.175447
    vertex 18.000000 -0.622191 -0.059190
  endloop
endfacet
facet normal 0.002642 0.000000 0.000000
  outer loop
    vertex 18.000000 -0.622191 -0.059190
    vertex 18.000000 -0.599869 0.175447
    vertex 18.000000 -0.622191 0.059190
  endloop
endfacet
facet normal 0.176782 0.000000 0.000000
  outer loop
    vertex 18.000000 0.500000 0.125000
    vertex 18.000000 -0.207129 -0.589680
    vertex 18.000000 0.500000 -0.125000
  endloop
endfacet
facet normal 0.073531 0.000000 0.000000
  outer loop
    vertex 18.000000 0.500000 -0.125000
    vertex 18.000000 -0.207129 -0.589680
    vertex 18.000000 -0.092226 -0.618158
  endloop
endfacet
facet normal 0.062029 0.000000 0.000000
  outer loop
    vertex 18.000000 0.500000 -0.125000
    vertex 18.000000 -0.092226 -0.618158
    vertex 18.000000 0.025987 -0.624460
  endloop
endfacet
facet normal 0.050944 0.000000 0.000000
  outer loop
    vertex 18.000000 0.025987 -0.624460
    vertex 18.000000 0.143267 -0.608358
    vertex 18.000000 0.500000 -0.125000
  endloop
endfacet
facet normal 0.040674 0.000000 0.000000
  outer loop
    vertex 18.000000 0.500000 -0.125000
    vertex 18.000000 0.143267 -0.608358
    vertex 18.000000 0.255407 -0.570432
  endloop
endfacet
facet normal 0.031587 0.000000 0.000000
  outer loop
    vertex 18.000000 0.500000 -0.125000
    vertex 18.000000 0.255407 -0.570432
    vertex 18.000000 0.358384 -0.512041
  endloop
endfacet
facet normal 0.024010 0.000000 0.000000
  outer loop
    vertex 18.000000 0.358384 -0.512041
    vertex 18.000000 0.448505 -0.435280
    vertex 18.000000 0.500000 -0.125000
  endloop
endfacet
facet normal 0.018213 0.000000 0.000000
  outer loop
    vertex 18.000000 0.500000 -0.125000
    vertex 18.000000 0.448505 -0.435280
    vertex 18.000000 0.522534 -0.342903
  endloop
endfacet
facet normal 0.014405 0.000000 0.000000
  outer loop
    vertex 18.000000 0.500000 -0.125000
    vertex 18.000000 0.522534 -0.342903
    vertex 18.000000 0.577818 -0.238225
  endloop
endfacet
facet normal 0.012723 0.000000 -0.000000
  outer loop
    vertex 18.000000 0.577818 -0.238225
    vertex 18.000000 0.612372 -0.125000
    vertex 18.000000 0.500000 -0.125000
  endloop
endfacet
facet normal -0.012723 0.000000 0.000000
  outer loop
    vertex 0.000000 0.612372 0.125000
    vertex 0.000000 0.500000 0.125000
    vertex 0.000000 0.577818 0.238225
  endloop
endfacet
facet normal -0.014405 -0.000000 0.000000
  outer loop
    vertex 0.000000 0.577818 0.238225
    vertex 0.000000 0.500000 0.125000
    vertex 0.000000 0.522534 0.342903
  endloop
endfacet
facet normal -0.018213 -0.000000 0.000000
  outer loop
    vertex 0.000000 0.522534 0.342903
    vertex 0.000000 0.500000 0.125000
    vertex 0.000000 0.448505 0.435280
  endloop
endfacet
facet normal -0.024010 -0.000000 -0.000000
  outer loop
    vertex 0.000000 0.448505 0.435280
    vertex 0.000000 0.500000 0.125000
    vertex 0.000000 0.358384 0.512041
  endloop
endfacet
facet normal -0.031587 -0.000000 -0.000000
  outer loop
    vertex 0.000000 0.358384 0.512041
    vertex 0.000000 0.500000 0.125000
    vertex 0.000000 0.255407 0.570432
  endloop
endfacet
facet normal -0.040674 -0.000000 -0.000000
  outer loop
    vertex 0.000000 0.255407 0.570432
    vertex 0.000000 0.500000 0.125000
    vertex 0.000000 0.143267 0.608358
  endloop
endfacet
facet normal -0.050944 -0.000000 -0.000000
  outer loop
    vertex 0.000000 0.143267 0.608358
    vertex 0.000000 0.500000 0.125000
    vertex 0.000000 0.025987 0.624460
  endloop
endfacet
facet normal -0.062029 0.000000 -0.000000
  outer loop
    vertex 0.000000 0.025987 0.624460
    vertex 0.000000 0.500000 0.125000
    vertex 0.000000 -0.092226 0.618158
  endloop
endfacet
facet normal -0.073531 0.000000 -0.000000
  outer loop
    vertex 0.000000 -0.092226 0.618158
    vertex 0.000000 0.500000 0.125000
    vertex 0.000000 -0.207129 0.589680
  endloop
endfacet
facet normal -0.176782 0.000000 0.000000
  outer loop
    vertex 0.000000 -0.207129 0.589680
    vertex 0.000000 0.500000 0.125000
    vertex 0.000000 0.500000 -0.125000
  endloop
endfacet
facet normal -0.111906 0.000000 -0.000000
  outer loop
    vertex 0.000000 -0.207129 0.589680
    vertex 0.000000 0.500000 -0.125000
    vertex 0.000000 -0.314602 0.540047
  endloop
endfacet
facet normal -0.879846 0.000000 0.000000
  outer loop
    vertex 0.000000 -0.314602 0.540047
    vertex 0.000000 0.500000 -0.125000
    vertex 0.000000 -0.314602 -0.540047
  endloop
endfacet
facet normal -0.103890 0.000000 -0.000000
  outer loop
    vertex 0.000000 -0.314602 0.540047
    vertex 0.000000 -0.314602 -0.540047
    vertex 0.000000 -0.410789 0.471039
  endloop
endfacet
facet normal -0.090615 0.000000 0.000000
  outer loop
    vertex 0.000000 -0.410789 0.471039
    vertex 0.000000 -0.314602 -0.540047
    vertex 0.000000 -0.410789 -0.471039
  endloop
endfacet
facet normal -0.076731 0.000000 -0.000000
  outer loop
    vertex 0.000000 -0.410789 0.471039
    vertex 0.000000 -0.410789 -0.471039
    vertex 0.000000 -0.492238 0.385133
  endloop
endfacet
facet normal -0.062737 0.000000 0.000000
  outer loop
    vertex 0.000000 -0.492238 0.385133
    vertex 0.000000 -0.410789 -0.471039
    vertex 0.000000 -0.492238 -0.385133
  endloop
endfacet
facet normal -0.049135 0.000000 -0.000000
  outer loop
    vertex 0.000000 -0.492238 0.385133
    vertex 0.000000 -0.492238 -0.385133
    vertex 0.000000 -0.556027 0.285409
  endloop
endfacet
facet normal -0.036412 0.000000 0.000000
  outer loop
    vertex 0.000000 -0.556027 0.285409
    vertex 0.000000 -0.492238 -0.385133
    vertex 0.000000 -0.556027 -0.285409
  endloop
endfacet
facet normal -0.025026 0.000000 -0.000000
  outer loop
    vertex 0.000000 -0.556027 0.285409
    vertex 0.000000 -0.556027 -0.285409
    vertex 0.000000 -0.599869 0.175447
  endloop
endfacet
facet normal -0.015384 0.000000 0.000000
  outer loop
    vertex 0.000000 -0.599869 0.175447
    vertex 0.000000 -0.556027 -0.285409
    vertex 0.000000 -0.599869 -0.175447
  endloop
endfacet
facet normal -0.007832 0.000000 -0.000000
  outer loop
    vertex 0.000000 -0.599869 0.175447
    vertex 0.000000 -0.599869 -0.175447
    vertex 0.000000 -0.622191 0.059190
  endloop
endfacet
facet normal -0.002642 0.000000 0.000000
  outer loop
    vertex 0.000000 -0.622191 0.059190
    vertex 0.000000 -0.599869 -0.175447
    vertex 0.000000 -0.622191 -0.059190
  endloop
endfacet
facet normal -0.012723 -0.000000 0.000000
  outer loop
    vertex 0.000000 0.612372 -0.125000
    vertex 0.000000 0.577818 -0.238225
    vertex 0.000000 0.500000 -0.125000
  endloop
endfacet
facet normal -0.014405 0.000000 0.000000
  outer loop
    vertex 0.000000 0.500000 -0.125000
    vertex 0.000000 0.577818 -0.238225
    vertex 0.000000 0.522534 -0.342903
  endloop
endfacet
facet normal -0.018213 0.000000 -0.000000
  outer loop
    vertex 0.000000 0.500000 -0.125000
    vertex 0.000000 0.522534 -0.342903
    vertex 0.000000 0.448505 -0.435280
  endloop
endfacet
facet normal -0.024010 -0.000000 0.000000
  outer loop
    vertex 0.000000 0.448505 -0.435280
    vertex 0.000000 0.358384 -0.512041
    vertex 0.000000 0.500000 -0.125000
  endloop
endfacet
facet normal -0.031587 0.000000 0.000000
  outer loop
    vertex 0.000000 0.500000 -0.125000
    vertex 0.000000 0.358384 -0.512041
    vertex 0.000000 0.255407 -0.570432
  endloop
endfacet
facet normal -0.040674 0.000000 0.000000
  outer loop
    vertex 0.000000 0.500000 -0.125000
    vertex 0.000000 0.255407 -0.570432
    vertex 0.000000 0.143267 -0.608358
  endloop
endfacet
facet normal -0.050944 -0.000000 0.000000
  outer loop
    vertex 0.000000 0.143267 -0.608358
    vertex 0.000000 0.025987 -0.624460
    vertex 0.000000 0.500000 -0.125000
  endloop
endfacet
facet normal -0.062029 0.000000 0.000000
  outer loop
    vertex 0.000000 0.500000 -0.125000
    vertex 0.000000 0.025987 -0.624460
    vertex 0.000000 -0.092226 -0.618158
  endloop
endfacet
facet normal -0.073531 0.000000 0.000000
  outer loop
    vertex 0.000000 0.500000 -0.125000
    vertex 0.000000 -0.092226 -0.618158
    vertex 0.000000 -0.207129 -0.589680
  endloop
endfacet
facet normal -0.085038 0.000000 0.000000
  outer loop
    vertex 0.000000 -0.207129 -0.589680
    vertex 0.000000 -0.314602 -0.540047
    vertex 0.000000 0.500000 -0.125000
  endloop
endfacet
endsolid 875351e9-e329-4f54-8c3b-6f90925c144f-ascii.stl
