solid a086284d-5dec-4253-9c48-953fc9ca5252-ascii.stl
facet normal -0.000000 1.687500 0.000000
  outer loop
    vertex 0.000000 0.250000 0.093750
    vertex 9.000000 0.250000 0.093750
    vertex 0.000000 0.250000 -0.093750
  endloop
endfacet
facet normal 0.000000 1.687500 0.000000
  outer loop
    vertex 0.000000 0.250000 -0.093750
    vertex 9.000000 0.250000 0.093750
    vertex 9.000000 0.250000 -0.093750
  endloop
endfacet
facet normal 0.000000 0.000000 0.726470
  outer loop
    vertex 0.000000 0.250000 -0.093750
    vertex 9.000000 0.250000 -0.093750
    vertex 0.000000 0.330719 -0.093750
  endloop
endfacet
facet normal -0.000000 0.000000 0.726470
  outer loop
    vertex 0.000000 0.330719 -0.093750
    vertex 9.000000 0.250000 -0.093750
    vertex 9.000000 0.330719 -0.093750
  endloop
endfacet
facet normal -0.000057 0.073815 0.028271
  outer loop
    vertex 0.000000 0.308730 0.151162
    vertex 1.285714 0.326926 0.106225
    vertex 0.000000 0.330719 0.093750
  endloop
endfacet
facet normal 0.000000 0.016039 0.004877
  outer loop
    vertex 0.000000 0.330719 0.093750
    vertex 1.285714 0.326926 0.106225
    vertex 2.571429 0.326926 0.106225
  endloop
endfacet
facet normal 0.000000 0.016039 0.004877
  outer loop
    vertex 0.000000 0.330719 0.093750
    vertex 2.571429 0.326926 0.106225
    vertex 3.857143 0.326926 0.106225
  endloop
endfacet
facet normal 0.000000 0.072859 0.031141
  outer loop
    vertex 3.857143 0.326926 0.106225
    vertex 2.571429 0.326926 0.106225
    vertex 3.857143 0.302705 0.162892
  endloop
endfacet
facet normal 0.000000 0.072859 0.031141
  outer loop
    vertex 3.857143 0.326926 0.106225
    vertex 3.857143 0.302705 0.162892
    vertex 5.142857 0.302705 0.162892
  endloop
endfacet
facet normal 0.000000 0.066127 0.043650
  outer loop
    vertex 5.142857 0.302705 0.162892
    vertex 3.857143 0.302705 0.162892
    vertex 5.142857 0.268755 0.214325
  endloop
endfacet
facet normal 0.000000 0.066127 0.043650
  outer loop
    vertex 5.142857 0.302705 0.162892
    vertex 5.142857 0.268755 0.214325
    vertex 6.428571 0.268755 0.214325
  endloop
endfacet
facet normal 0.000000 0.057270 0.054756
  outer loop
    vertex 6.428571 0.268755 0.214325
    vertex 5.142857 0.268755 0.214325
    vertex 6.428571 0.226166 0.258868
  endloop
endfacet
facet normal 0.000000 0.057270 0.054756
  outer loop
    vertex 6.428571 0.268755 0.214325
    vertex 6.428571 0.226166 0.258868
    vertex 7.714286 0.226166 0.258868
  endloop
endfacet
facet normal 0.000000 0.046573 0.064102
  outer loop
    vertex 7.714286 0.226166 0.258868
    vertex 6.428571 0.226166 0.258868
    vertex 7.714286 0.176309 0.295092
  endloop
endfacet
facet normal -0.000059 0.046573 0.064102
  outer loop
    vertex 7.714286 0.226166 0.258868
    vertex 7.714286 0.176309 0.295092
    vertex 9.000000 0.187873 0.287867
  endloop
endfacet
facet normal 0.000058 0.037108 0.069792
  outer loop
    vertex 9.000000 0.187873 0.287867
    vertex 7.714286 0.176309 0.295092
    vertex 9.000000 0.133591 0.316729
  endloop
endfacet
facet normal -0.000059 0.034379 0.071388
  outer loop
    vertex 9.000000 0.133591 0.316729
    vertex 7.714286 0.176309 0.295092
    vertex 7.714286 0.120785 0.321831
  endloop
endfacet
facet normal 0.000059 0.024083 0.075286
  outer loop
    vertex 9.000000 0.133591 0.316729
    vertex 7.714286 0.120785 0.321831
    vertex 9.000000 0.075036 0.335460
  endloop
endfacet
facet normal -0.000060 0.021079 0.076379
  outer loop
    vertex 9.000000 0.075036 0.335460
    vertex 7.714286 0.120785 0.321831
    vertex 7.714286 0.061379 0.338226
  endloop
endfacet
facet normal 0.000059 0.010287 0.078371
  outer loop
    vertex 9.000000 0.075036 0.335460
    vertex 7.714286 0.061379 0.338226
    vertex 9.000000 0.014080 0.343462
  endloop
endfacet
facet normal -0.000060 0.007103 0.078916
  outer loop
    vertex 9.000000 0.014080 0.343462
    vertex 7.714286 0.061379 0.338226
    vertex 7.714286 -0.000000 0.343750
  endloop
endfacet
facet normal 0.000060 -0.003838 0.078950
  outer loop
    vertex 9.000000 0.014080 0.343462
    vertex 7.714286 -0.000000 0.343750
    vertex 9.000000 -0.047326 0.340477
  endloop
endfacet
facet normal -0.000061 -0.007103 0.078916
  outer loop
    vertex 9.000000 -0.047326 0.340477
    vertex 7.714286 -0.000000 0.343750
    vertex 7.714286 -0.061379 0.338226
  endloop
endfacet
facet normal 0.000060 -0.017840 0.077004
  outer loop
    vertex 9.000000 -0.047326 0.340477
    vertex 7.714286 -0.061379 0.338226
    vertex 9.000000 -0.107218 0.326601
  endloop
endfacet
facet normal -0.000061 -0.021079 0.076379
  outer loop
    vertex 9.000000 -0.107218 0.326601
    vertex 7.714286 -0.061379 0.338226
    vertex 7.714286 -0.120785 0.321831
  endloop
endfacet
facet normal 0.000061 -0.031271 0.072595
  outer loop
    vertex 9.000000 -0.107218 0.326601
    vertex 7.714286 -0.120785 0.321831
    vertex 9.000000 -0.163680 0.302279
  endloop
endfacet
facet normal -0.000061 -0.034379 0.071388
  outer loop
    vertex 9.000000 -0.163680 0.302279
    vertex 7.714286 -0.120785 0.321831
    vertex 7.714286 -0.176309 0.295092
  endloop
endfacet
facet normal 0.000061 -0.043702 0.065863
  outer loop
    vertex 9.000000 -0.163680 0.302279
    vertex 7.714286 -0.176309 0.295092
    vertex 9.000000 -0.214908 0.268289
  endloop
endfacet
facet normal -0.000062 -0.046573 0.064102
  outer loop
    vertex 9.000000 -0.214908 0.268289
    vertex 7.714286 -0.176309 0.295092
    vertex 7.714286 -0.226166 0.258868
  endloop
endfacet
facet normal 0.000061 -0.054736 0.057025
  outer loop
    vertex 9.000000 -0.214908 0.268289
    vertex 7.714286 -0.226166 0.258868
    vertex 9.000000 -0.259261 0.225716
  endloop
endfacet
facet normal -0.000062 -0.057270 0.054756
  outer loop
    vertex 9.000000 -0.259261 0.225716
    vertex 7.714286 -0.226166 0.258868
    vertex 7.714286 -0.268755 0.214325
  endloop
endfacet
facet normal 0.000062 -0.064018 0.046363
  outer loop
    vertex 9.000000 -0.259261 0.225716
    vertex 7.714286 -0.268755 0.214325
    vertex 9.000000 -0.295321 0.175925
  endloop
endfacet
facet normal -0.000063 -0.066127 0.043650
  outer loop
    vertex 9.000000 -0.295321 0.175925
    vertex 7.714286 -0.268755 0.214325
    vertex 7.714286 -0.302705 0.162892
  endloop
endfacet
facet normal 0.000062 -0.071253 0.034218
  outer loop
    vertex 9.000000 -0.295321 0.175925
    vertex 7.714286 -0.302705 0.162892
    vertex 9.000000 -0.321936 0.120506
  endloop
endfacet
facet normal -0.000063 -0.072859 0.031141
  outer loop
    vertex 9.000000 -0.321936 0.120506
    vertex 7.714286 -0.302705 0.162892
    vertex 7.714286 -0.326926 0.106225
  endloop
endfacet
facet normal 0.000063 -0.076209 0.020979
  outer loop
    vertex 9.000000 -0.321936 0.120506
    vertex 7.714286 -0.326926 0.106225
    vertex 9.000000 -0.338252 0.061232
  endloop
endfacet
facet normal -0.000064 -0.077248 0.017631
  outer loop
    vertex 9.000000 -0.338252 0.061232
    vertex 7.714286 -0.326926 0.106225
    vertex 7.714286 -0.340639 0.046143
  endloop
endfacet
facet normal 0.000063 -0.078727 0.007068
  outer loop
    vertex 9.000000 -0.338252 0.061232
    vertex 7.714286 -0.340639 0.046143
    vertex 9.000000 -0.343750 0.000000
  endloop
endfacet
facet normal -0.000064 -0.079155 0.003555
  outer loop
    vertex 9.000000 -0.343750 0.000000
    vertex 7.714286 -0.340639 0.046143
    vertex 7.714286 -0.343404 -0.015422
  endloop
endfacet
facet normal 0.000064 -0.078727 -0.007068
  outer loop
    vertex 9.000000 -0.343750 0.000000
    vertex 7.714286 -0.343404 -0.015422
    vertex 9.000000 -0.338252 -0.061232
  endloop
endfacet
facet normal -0.000064 -0.078518 -0.010636
  outer loop
    vertex 9.000000 -0.338252 -0.061232
    vertex 7.714286 -0.343404 -0.015422
    vertex 7.714286 -0.335131 -0.076492
  endloop
endfacet
facet normal 0.000064 -0.076209 -0.020979
  outer loop
    vertex 9.000000 -0.338252 -0.061232
    vertex 7.714286 -0.335131 -0.076492
    vertex 9.000000 -0.321936 -0.120506
  endloop
endfacet
facet normal -0.000065 -0.075357 -0.024485
  outer loop
    vertex 9.000000 -0.321936 -0.120506
    vertex 7.714286 -0.335131 -0.076492
    vertex 7.714286 -0.316088 -0.135102
  endloop
endfacet
facet normal 0.000064 -0.071253 -0.034218
  outer loop
    vertex 9.000000 -0.321936 -0.120506
    vertex 7.714286 -0.316088 -0.135102
    vertex 9.000000 -0.295321 -0.175925
  endloop
endfacet
facet normal -0.000065 -0.069774 -0.037547
  outer loop
    vertex 9.000000 -0.295321 -0.175925
    vertex 7.714286 -0.316088 -0.135102
    vertex 7.714286 -0.286885 -0.189371
  endloop
endfacet
facet normal 0.000065 -0.064018 -0.046363
  outer loop
    vertex 9.000000 -0.295321 -0.175925
    vertex 7.714286 -0.286885 -0.189371
    vertex 9.000000 -0.259261 -0.225716
  endloop
endfacet
facet normal -0.000066 -0.061948 -0.049402
  outer loop
    vertex 9.000000 -0.259261 -0.225716
    vertex 7.714286 -0.286885 -0.189371
    vertex 7.714286 -0.248461 -0.237553
  endloop
endfacet
facet normal 0.000065 -0.054736 -0.057025
  outer loop
    vertex 9.000000 -0.259261 -0.225716
    vertex 7.714286 -0.248461 -0.237553
    vertex 9.000000 -0.214908 -0.268289
  endloop
endfacet
facet normal -0.000066 -0.052132 -0.059669
  outer loop
    vertex 9.000000 -0.214908 -0.268289
    vertex 7.714286 -0.248461 -0.237553
    vertex 7.714286 -0.202051 -0.278100
  endloop
endfacet
facet normal 0.000066 -0.043702 -0.065863
  outer loop
    vertex 9.000000 -0.214908 -0.268289
    vertex 7.714286 -0.202051 -0.278100
    vertex 9.000000 -0.163680 -0.302279
  endloop
endfacet
facet normal -0.000066 -0.040639 -0.068019
  outer loop
    vertex 9.000000 -0.163680 -0.302279
    vertex 7.714286 -0.202051 -0.278100
    vertex 7.714286 -0.149148 -0.309708
  endloop
endfacet
facet normal 0.000066 -0.031271 -0.072595
  outer loop
    vertex 9.000000 -0.163680 -0.302279
    vertex 7.714286 -0.149148 -0.309708
    vertex 9.000000 -0.107218 -0.326601
  endloop
endfacet
facet normal -0.000067 -0.027841 -0.074182
  outer loop
    vertex 9.000000 -0.107218 -0.326601
    vertex 7.714286 -0.149148 -0.309708
    vertex 7.714286 -0.091450 -0.331362
  endloop
endfacet
facet normal 0.000066 -0.017840 -0.077004
  outer loop
    vertex 9.000000 -0.107218 -0.326601
    vertex 7.714286 -0.091450 -0.331362
    vertex 9.000000 -0.047326 -0.340477
  endloop
endfacet
facet normal -0.000067 -0.014148 -0.077961
  outer loop
    vertex 9.000000 -0.047326 -0.340477
    vertex 7.714286 -0.091450 -0.331362
    vertex 7.714286 -0.030814 -0.342366
  endloop
endfacet
facet normal 0.000067 -0.003838 -0.078950
  outer loop
    vertex 9.000000 -0.047326 -0.340477
    vertex 7.714286 -0.030814 -0.342366
    vertex 9.000000 0.014080 -0.343462
  endloop
endfacet
facet normal -0.000068 0.000000 -0.079235
  outer loop
    vertex 9.000000 0.014080 -0.343462
    vertex 7.714286 -0.030814 -0.342366
    vertex 7.714286 0.030814 -0.342366
  endloop
endfacet
facet normal 0.000067 0.010287 -0.078371
  outer loop
    vertex 9.000000 0.014080 -0.343462
    vertex 7.714286 0.030814 -0.342366
    vertex 9.000000 0.075036 -0.335460
  endloop
endfacet
facet normal -0.000068 0.014148 -0.077961
  outer loop
    vertex 9.000000 0.075036 -0.335460
    vertex 7.714286 0.030814 -0.342366
    vertex 7.714286 0.091450 -0.331362
  endloop
endfacet
facet normal 0.000067 0.024083 -0.075286
  outer loop
    vertex 9.000000 0.075036 -0.335460
    vertex 7.714286 0.091450 -0.331362
    vertex 9.000000 0.133591 -0.316729
  endloop
endfacet
facet normal -0.000068 0.027841 -0.074182
  outer loop
    vertex 9.000000 0.133591 -0.316729
    vertex 7.714286 0.091450 -0.331362
    vertex 7.714286 0.149148 -0.309708
  endloop
endfacet
facet normal 0.000068 0.037108 -0.069792
  outer loop
    vertex 9.000000 0.133591 -0.316729
    vertex 7.714286 0.149148 -0.309708
    vertex 9.000000 0.187873 -0.287867
  endloop
endfacet
facet normal -0.000069 0.040639 -0.068019
  outer loop
    vertex 9.000000 0.187873 -0.287867
    vertex 7.714286 0.149148 -0.309708
    vertex 7.714286 0.202051 -0.278100
  endloop
endfacet
facet normal 0.000068 0.048947 -0.062065
  outer loop
    vertex 9.000000 0.187873 -0.287867
    vertex 7.714286 0.202051 -0.278100
    vertex 9.000000 0.236147 -0.249798
  endloop
endfacet
facet normal -0.000069 0.052132 -0.059669
  outer loop
    vertex 9.000000 0.236147 -0.249798
    vertex 7.714286 0.202051 -0.278100
    vertex 7.714286 0.248461 -0.237553
  endloop
endfacet
facet normal 0.000069 0.059220 -0.052354
  outer loop
    vertex 9.000000 0.236147 -0.249798
    vertex 7.714286 0.248461 -0.237553
    vertex 9.000000 0.276866 -0.203738
  endloop
endfacet
facet normal -0.000069 0.061948 -0.049402
  outer loop
    vertex 9.000000 0.276866 -0.203738
    vertex 7.714286 0.248461 -0.237553
    vertex 7.714286 0.286885 -0.189371
  endloop
endfacet
facet normal 0.000069 0.067598 -0.040968
  outer loop
    vertex 9.000000 0.276866 -0.203738
    vertex 7.714286 0.286885 -0.189371
    vertex 9.000000 0.308730 -0.151162
  endloop
endfacet
facet normal -0.000070 0.069774 -0.037547
  outer loop
    vertex 9.000000 0.308730 -0.151162
    vertex 7.714286 0.286885 -0.189371
    vertex 7.714286 0.316088 -0.135102
  endloop
endfacet
facet normal 0.000069 0.073815 -0.028271
  outer loop
    vertex 9.000000 0.308730 -0.151162
    vertex 7.714286 0.316088 -0.135102
    vertex 9.000000 0.330719 -0.093750
  endloop
endfacet
facet normal 0.000000 0.053167 -0.018812
  outer loop
    vertex 9.000000 0.330719 -0.093750
    vertex 7.714286 0.316088 -0.135102
    vertex 6.428571 0.316088 -0.135102
  endloop
endfacet
facet normal 0.000000 0.053167 -0.018812
  outer loop
    vertex 9.000000 0.330719 -0.093750
    vertex 6.428571 0.316088 -0.135102
    vertex 5.142857 0.316088 -0.135102
  endloop
endfacet
facet normal 0.000000 0.069774 -0.037547
  outer loop
    vertex 5.142857 0.316088 -0.135102
    vertex 6.428571 0.316088 -0.135102
    vertex 5.142857 0.286885 -0.189371
  endloop
endfacet
facet normal 0.000000 0.069774 -0.037547
  outer loop
    vertex 5.142857 0.316088 -0.135102
    vertex 5.142857 0.286885 -0.189371
    vertex 3.857143 0.286885 -0.189371
  endloop
endfacet
facet normal 0.000000 0.061948 -0.049402
  outer loop
    vertex 3.857143 0.286885 -0.189371
    vertex 5.142857 0.286885 -0.189371
    vertex 3.857143 0.248461 -0.237553
  endloop
endfacet
facet normal 0.000000 0.061948 -0.049402
  outer loop
    vertex 3.857143 0.286885 -0.189371
    vertex 3.857143 0.248461 -0.237553
    vertex 2.571429 0.248461 -0.237553
  endloop
endfacet
facet normal 0.000000 0.052132 -0.059669
  outer loop
    vertex 2.571429 0.248461 -0.237553
    vertex 3.857143 0.248461 -0.237553
    vertex 2.571429 0.202051 -0.278100
  endloop
endfacet
facet normal 0.000000 0.052132 -0.059669
  outer loop
    vertex 2.571429 0.248461 -0.237553
    vertex 2.571429 0.202051 -0.278100
    vertex 1.285714 0.202051 -0.278100
  endloop
endfacet
facet normal 0.000000 0.040639 -0.068019
  outer loop
    vertex 1.285714 0.202051 -0.278100
    vertex 2.571429 0.202051 -0.278100
    vertex 1.285714 0.149148 -0.309708
  endloop
endfacet
facet normal 0.000069 0.040639 -0.068019
  outer loop
    vertex 1.285714 0.202051 -0.278100
    vertex 1.285714 0.149148 -0.309708
    vertex 0.000000 0.187873 -0.287867
  endloop
endfacet
facet normal -0.000068 0.037108 -0.069792
  outer loop
    vertex 0.000000 0.187873 -0.287867
    vertex 1.285714 0.149148 -0.309708
    vertex 0.000000 0.133591 -0.316729
  endloop
endfacet
facet normal 0.000068 0.027841 -0.074182
  outer loop
    vertex 0.000000 0.133591 -0.316729
    vertex 1.285714 0.149148 -0.309708
    vertex 1.285714 0.091450 -0.331362
  endloop
endfacet
facet normal -0.000067 0.024083 -0.075286
  outer loop
    vertex 0.000000 0.133591 -0.316729
    vertex 1.285714 0.091450 -0.331362
    vertex 0.000000 0.075036 -0.335460
  endloop
endfacet
facet normal 0.000068 0.014148 -0.077961
  outer loop
    vertex 0.000000 0.075036 -0.335460
    vertex 1.285714 0.091450 -0.331362
    vertex 1.285714 0.030814 -0.342366
  endloop
endfacet
facet normal -0.000067 0.010287 -0.078371
  outer loop
    vertex 0.000000 0.075036 -0.335460
    vertex 1.285714 0.030814 -0.342366
    vertex 0.000000 0.014080 -0.343462
  endloop
endfacet
facet normal 0.000068 0.000000 -0.079235
  outer loop
    vertex 0.000000 0.014080 -0.343462
    vertex 1.285714 0.030814 -0.342366
    vertex 1.285714 -0.030814 -0.342366
  endloop
endfacet
facet normal -0.000067 -0.003838 -0.078950
  outer loop
    vertex 0.000000 0.014080 -0.343462
    vertex 1.285714 -0.030814 -0.342366
    vertex 0.000000 -0.047326 -0.340477
  endloop
endfacet
facet normal 0.000067 -0.014148 -0.077961
  outer loop
    vertex 0.000000 -0.047326 -0.340477
    vertex 1.285714 -0.030814 -0.342366
    vertex 1.285714 -0.091450 -0.331362
  endloop
endfacet
facet normal -0.000066 -0.017840 -0.077004
  outer loop
    vertex 0.000000 -0.047326 -0.340477
    vertex 1.285714 -0.091450 -0.331362
    vertex 0.000000 -0.107218 -0.326601
  endloop
endfacet
facet normal 0.000067 -0.027841 -0.074182
  outer loop
    vertex 0.000000 -0.107218 -0.326601
    vertex 1.285714 -0.091450 -0.331362
    vertex 1.285714 -0.149148 -0.309708
  endloop
endfacet
facet normal -0.000066 -0.031271 -0.072595
  outer loop
    vertex 0.000000 -0.107218 -0.326601
    vertex 1.285714 -0.149148 -0.309708
    vertex 0.000000 -0.163680 -0.302279
  endloop
endfacet
facet normal 0.000066 -0.040639 -0.068019
  outer loop
    vertex 0.000000 -0.163680 -0.302279
    vertex 1.285714 -0.149148 -0.309708
    vertex 1.285714 -0.202051 -0.278100
  endloop
endfacet
facet normal -0.000066 -0.043702 -0.065863
  outer loop
    vertex 0.000000 -0.163680 -0.302279
    vertex 1.285714 -0.202051 -0.278100
    vertex 0.000000 -0.214908 -0.268289
  endloop
endfacet
facet normal 0.000066 -0.052132 -0.059669
  outer loop
    vertex 0.000000 -0.214908 -0.268289
    vertex 1.285714 -0.202051 -0.278100
    vertex 1.285714 -0.248461 -0.237553
  endloop
endfacet
facet normal -0.000065 -0.054736 -0.057025
  outer loop
    vertex 0.000000 -0.214908 -0.268289
    vertex 1.285714 -0.248461 -0.237553
    vertex 0.000000 -0.259261 -0.225716
  endloop
endfacet
facet normal 0.000066 -0.061948 -0.049402
  outer loop
    vertex 0.000000 -0.259261 -0.225716
    vertex 1.285714 -0.248461 -0.237553
    vertex 1.285714 -0.286885 -0.189371
  endloop
endfacet
facet normal -0.000065 -0.064018 -0.046363
  outer loop
    vertex 0.000000 -0.259261 -0.225716
    vertex 1.285714 -0.286885 -0.189371
    vertex 0.000000 -0.295321 -0.175925
  endloop
endfacet
facet normal 0.000065 -0.069774 -0.037547
  outer loop
    vertex 0.000000 -0.295321 -0.175925
    vertex 1.285714 -0.286885 -0.189371
    vertex 1.285714 -0.316088 -0.135102
  endloop
endfacet
facet normal -0.000064 -0.071253 -0.034218
  outer loop
    vertex 0.000000 -0.295321 -0.175925
    vertex 1.285714 -0.316088 -0.135102
    vertex 0.000000 -0.321936 -0.120506
  endloop
endfacet
facet normal 0.000065 -0.075357 -0.024485
  outer loop
    vertex 0.000000 -0.321936 -0.120506
    vertex 1.285714 -0.316088 -0.135102
    vertex 1.285714 -0.335131 -0.076492
  endloop
endfacet
facet normal -0.000064 -0.076209 -0.020979
  outer loop
    vertex 0.000000 -0.321936 -0.120506
    vertex 1.285714 -0.335131 -0.076492
    vertex 0.000000 -0.338252 -0.061232
  endloop
endfacet
facet normal 0.000064 -0.078518 -0.010636
  outer loop
    vertex 0.000000 -0.338252 -0.061232
    vertex 1.285714 -0.335131 -0.076492
    vertex 1.285714 -0.343404 -0.015422
  endloop
endfacet
facet normal -0.000064 -0.078727 -0.007068
  outer loop
    vertex 0.000000 -0.338252 -0.061232
    vertex 1.285714 -0.343404 -0.015422
    vertex 0.000000 -0.343750 0.000000
  endloop
endfacet
facet normal 0.000064 -0.079155 0.003555
  outer loop
    vertex 0.000000 -0.343750 0.000000
    vertex 1.285714 -0.343404 -0.015422
    vertex 1.285714 -0.340639 0.046143
  endloop
endfacet
facet normal -0.000063 -0.078727 0.007068
  outer loop
    vertex 0.000000 -0.343750 0.000000
    vertex 1.285714 -0.340639 0.046143
    vertex 0.000000 -0.338252 0.061232
  endloop
endfacet
facet normal 0.000064 -0.077248 0.017631
  outer loop
    vertex 0.000000 -0.338252 0.061232
    vertex 1.285714 -0.340639 0.046143
    vertex 1.285714 -0.326926 0.106225
  endloop
endfacet
facet normal -0.000063 -0.076209 0.020979
  outer loop
    vertex 0.000000 -0.338252 0.061232
    vertex 1.285714 -0.326926 0.106225
    vertex 0.000000 -0.321936 0.120506
  endloop
endfacet
facet normal 0.000063 -0.072859 0.031141
  outer loop
    vertex 0.000000 -0.321936 0.120506
    vertex 1.285714 -0.326926 0.106225
    vertex 1.285714 -0.302705 0.162892
  endloop
endfacet
facet normal -0.000062 -0.071253 0.034218
  outer loop
    vertex 0.000000 -0.321936 0.120506
    vertex 1.285714 -0.302705 0.162892
    vertex 0.000000 -0.295321 0.175925
  endloop
endfacet
facet normal 0.000063 -0.066127 0.043650
  outer loop
    vertex 0.000000 -0.295321 0.175925
    vertex 1.285714 -0.302705 0.162892
    vertex 1.285714 -0.268755 0.214325
  endloop
endfacet
facet normal -0.000062 -0.064018 0.046363
  outer loop
    vertex 0.000000 -0.295321 0.175925
    vertex 1.285714 -0.268755 0.214325
    vertex 0.000000 -0.259261 0.225716
  endloop
endfacet
facet normal 0.000062 -0.057270 0.054756
  outer loop
    vertex 0.000000 -0.259261 0.225716
    vertex 1.285714 -0.268755 0.214325
    vertex 1.285714 -0.226166 0.258868
  endloop
endfacet
facet normal -0.000061 -0.054736 0.057025
  outer loop
    vertex 0.000000 -0.259261 0.225716
    vertex 1.285714 -0.226166 0.258868
    vertex 0.000000 -0.214908 0.268289
  endloop
endfacet
facet normal 0.000062 -0.046573 0.064102
  outer loop
    vertex 0.000000 -0.214908 0.268289
    vertex 1.285714 -0.226166 0.258868
    vertex 1.285714 -0.176309 0.295092
  endloop
endfacet
facet normal -0.000061 -0.043702 0.065863
  outer loop
    vertex 0.000000 -0.214908 0.268289
    vertex 1.285714 -0.176309 0.295092
    vertex 0.000000 -0.163680 0.302279
  endloop
endfacet
facet normal 0.000061 -0.034379 0.071388
  outer loop
    vertex 0.000000 -0.163680 0.302279
    vertex 1.285714 -0.176309 0.295092
    vertex 1.285714 -0.120785 0.321831
  endloop
endfacet
facet normal -0.000061 -0.031271 0.072595
  outer loop
    vertex 0.000000 -0.163680 0.302279
    vertex 1.285714 -0.120785 0.321831
    vertex 0.000000 -0.107218 0.326601
  endloop
endfacet
facet normal 0.000061 -0.021079 0.076379
  outer loop
    vertex 0.000000 -0.107218 0.326601
    vertex 1.285714 -0.120785 0.321831
    vertex 1.285714 -0.061379 0.338226
  endloop
endfacet
facet normal -0.000060 -0.017840 0.077004
  outer loop
    vertex 0.000000 -0.107218 0.326601
    vertex 1.285714 -0.061379 0.338226
    vertex 0.000000 -0.047326 0.340477
  endloop
endfacet
facet normal 0.000061 -0.007103 0.078916
  outer loop
    vertex 0.000000 -0.047326 0.340477
    vertex 1.285714 -0.061379 0.338226
    vertex 1.285714 0.000000 0.343750
  endloop
endfacet
facet normal -0.000060 -0.003838 0.078950
  outer loop
    vertex 0.000000 -0.047326 0.340477
    vertex 1.285714 0.000000 0.343750
    vertex 0.000000 0.014080 0.343462
  endloop
endfacet
facet normal 0.000060 0.007103 0.078916
  outer loop
    vertex 0.000000 0.014080 0.343462
    vertex 1.285714 0.000000 0.343750
    vertex 1.285714 0.061379 0.338226
  endloop
endfacet
facet normal -0.000059 0.010287 0.078371
  outer loop
    vertex 0.000000 0.014080 0.343462
    vertex 1.285714 0.061379 0.338226
    vertex 0.000000 0.075036 0.335460
  endloop
endfacet
facet normal 0.000060 0.021079 0.076379
  outer loop
    vertex 0.000000 0.075036 0.335460
    vertex 1.285714 0.061379 0.338226
    vertex 1.285714 0.120785 0.321831
  endloop
endfacet
facet normal -0.000059 0.024083 0.075286
  outer loop
    vertex 0.000000 0.075036 0.335460
    vertex 1.285714 0.120785 0.321831
    vertex 0.000000 0.133591 0.316729
  endloop
endfacet
facet normal 0.000059 0.034379 0.071388
  outer loop
    vertex 0.000000 0.133591 0.316729
    vertex 1.285714 0.120785 0.321831
    vertex 1.285714 0.176309 0.295092
  endloop
endfacet
facet normal -0.000058 0.037108 0.069792
  outer loop
    vertex 0.000000 0.133591 0.316729
    vertex 1.285714 0.176309 0.295092
    vertex 0.000000 0.187873 0.287867
  endloop
endfacet
facet normal 0.000059 0.046573 0.064102
  outer loop
    vertex 0.000000 0.187873 0.287867
    vertex 1.285714 0.176309 0.295092
    vertex 1.285714 0.226166 0.258868
  endloop
endfacet
facet normal -0.000058 0.048947 0.062065
  outer loop
    vertex 0.000000 0.187873 0.287867
    vertex 1.285714 0.226166 0.258868
    vertex 0.000000 0.236147 0.249798
  endloop
endfacet
facet normal 0.000058 0.057270 0.054756
  outer loop
    vertex 0.000000 0.236147 0.249798
    vertex 1.285714 0.226166 0.258868
    vertex 1.285714 0.268755 0.214325
  endloop
endfacet
facet normal -0.000057 0.059220 0.052354
  outer loop
    vertex 0.000000 0.236147 0.249798
    vertex 1.285714 0.268755 0.214325
    vertex 0.000000 0.276866 0.203738
  endloop
endfacet
facet normal 0.000058 0.066127 0.043650
  outer loop
    vertex 0.000000 0.276866 0.203738
    vertex 1.285714 0.268755 0.214325
    vertex 1.285714 0.302705 0.162892
  endloop
endfacet
facet normal -0.000057 0.067598 0.040968
  outer loop
    vertex 0.000000 0.276866 0.203738
    vertex 1.285714 0.302705 0.162892
    vertex 0.000000 0.308730 0.151162
  endloop
endfacet
facet normal 0.000057 0.072859 0.031141
  outer loop
    vertex 0.000000 0.308730 0.151162
    vertex 1.285714 0.302705 0.162892
    vertex 1.285714 0.326926 0.106225
  endloop
endfacet
facet normal -0.000068 0.048947 -0.062065
  outer loop
    vertex 0.000000 0.187873 -0.287867
    vertex 0.000000 0.236147 -0.249798
    vertex 1.285714 0.202051 -0.278100
  endloop
endfacet
facet normal 0.000069 0.052132 -0.059669
  outer loop
    vertex 1.285714 0.202051 -0.278100
    vertex 0.000000 0.236147 -0.249798
    vertex 1.285714 0.248461 -0.237553
  endloop
endfacet
facet normal 0.000000 0.052132 -0.059669
  outer loop
    vertex 1.285714 0.202051 -0.278100
    vertex 1.285714 0.248461 -0.237553
    vertex 2.571429 0.248461 -0.237553
  endloop
endfacet
facet normal 0.000000 0.061948 -0.049402
  outer loop
    vertex 2.571429 0.248461 -0.237553
    vertex 1.285714 0.248461 -0.237553
    vertex 2.571429 0.286885 -0.189371
  endloop
endfacet
facet normal 0.000000 0.061948 -0.049402
  outer loop
    vertex 2.571429 0.248461 -0.237553
    vertex 2.571429 0.286885 -0.189371
    vertex 3.857143 0.286885 -0.189371
  endloop
endfacet
facet normal 0.000000 0.069774 -0.037547
  outer loop
    vertex 3.857143 0.286885 -0.189371
    vertex 2.571429 0.286885 -0.189371
    vertex 3.857143 0.316088 -0.135102
  endloop
endfacet
facet normal 0.000000 0.069774 -0.037547
  outer loop
    vertex 3.857143 0.286885 -0.189371
    vertex 3.857143 0.316088 -0.135102
    vertex 5.142857 0.316088 -0.135102
  endloop
endfacet
facet normal 0.000000 0.053167 -0.018812
  outer loop
    vertex 5.142857 0.316088 -0.135102
    vertex 3.857143 0.316088 -0.135102
    vertex 9.000000 0.330719 -0.093750
  endloop
endfacet
facet normal -0.000069 0.059220 -0.052354
  outer loop
    vertex 0.000000 0.236147 -0.249798
    vertex 0.000000 0.276866 -0.203738
    vertex 1.285714 0.248461 -0.237553
  endloop
endfacet
facet normal 0.000069 0.061948 -0.049402
  outer loop
    vertex 1.285714 0.248461 -0.237553
    vertex 0.000000 0.276866 -0.203738
    vertex 1.285714 0.286885 -0.189371
  endloop
endfacet
facet normal 0.000000 0.061948 -0.049402
  outer loop
    vertex 1.285714 0.248461 -0.237553
    vertex 1.285714 0.286885 -0.189371
    vertex 2.571429 0.286885 -0.189371
  endloop
endfacet
facet normal 0.000000 0.069774 -0.037547
  outer loop
    vertex 2.571429 0.286885 -0.189371
    vertex 1.285714 0.286885 -0.189371
    vertex 2.571429 0.316088 -0.135102
  endloop
endfacet
facet normal 0.000000 0.069774 -0.037547
  outer loop
    vertex 2.571429 0.286885 -0.189371
    vertex 2.571429 0.316088 -0.135102
    vertex 3.857143 0.316088 -0.135102
  endloop
endfacet
facet normal 0.000000 0.053167 -0.018812
  outer loop
    vertex 3.857143 0.316088 -0.135102
    vertex 2.571429 0.316088 -0.135102
    vertex 0.000000 0.330719 -0.093750
  endloop
endfacet
facet normal 0.000000 0.372171 -0.131681
  outer loop
    vertex 3.857143 0.316088 -0.135102
    vertex 0.000000 0.330719 -0.093750
    vertex 9.000000 0.330719 -0.093750
  endloop
endfacet
facet normal -0.000069 0.067598 -0.040968
  outer loop
    vertex 0.000000 0.276866 -0.203738
    vertex 0.000000 0.308730 -0.151162
    vertex 1.285714 0.286885 -0.189371
  endloop
endfacet
facet normal 0.000070 0.069774 -0.037547
  outer loop
    vertex 1.285714 0.286885 -0.189371
    vertex 0.000000 0.308730 -0.151162
    vertex 1.285714 0.316088 -0.135102
  endloop
endfacet
facet normal 0.000000 0.069774 -0.037547
  outer loop
    vertex 1.285714 0.286885 -0.189371
    vertex 1.285714 0.316088 -0.135102
    vertex 2.571429 0.316088 -0.135102
  endloop
endfacet
facet normal 0.000000 0.053167 -0.018812
  outer loop
    vertex 2.571429 0.316088 -0.135102
    vertex 1.285714 0.316088 -0.135102
    vertex 0.000000 0.330719 -0.093750
  endloop
endfacet
facet normal -0.000069 0.073815 -0.028271
  outer loop
    vertex 0.000000 0.308730 -0.151162
    vertex 0.000000 0.330719 -0.093750
    vertex 1.285714 0.316088 -0.135102
  endloop
endfacet
facet normal 0.000058 0.048947 0.062065
  outer loop
    vertex 9.000000 0.187873 0.287867
    vertex 9.000000 0.236147 0.249798
    vertex 7.714286 0.226166 0.258868
  endloop
endfacet
facet normal -0.000058 0.057270 0.054756
  outer loop
    vertex 7.714286 0.226166 0.258868
    vertex 9.000000 0.236147 0.249798
    vertex 7.714286 0.268755 0.214325
  endloop
endfacet
facet normal 0.000000 0.057270 0.054756
  outer loop
    vertex 7.714286 0.226166 0.258868
    vertex 7.714286 0.268755 0.214325
    vertex 6.428571 0.268755 0.214325
  endloop
endfacet
facet normal -0.000000 0.066127 0.043650
  outer loop
    vertex 6.428571 0.268755 0.214325
    vertex 7.714286 0.268755 0.214325
    vertex 6.428571 0.302705 0.162892
  endloop
endfacet
facet normal 0.000000 0.066127 0.043650
  outer loop
    vertex 6.428571 0.268755 0.214325
    vertex 6.428571 0.302705 0.162892
    vertex 5.142857 0.302705 0.162892
  endloop
endfacet
facet normal -0.000000 0.072859 0.031141
  outer loop
    vertex 5.142857 0.302705 0.162892
    vertex 6.428571 0.302705 0.162892
    vertex 5.142857 0.326926 0.106225
  endloop
endfacet
facet normal 0.000000 0.072859 0.031141
  outer loop
    vertex 5.142857 0.302705 0.162892
    vertex 5.142857 0.326926 0.106225
    vertex 3.857143 0.326926 0.106225
  endloop
endfacet
facet normal -0.000000 0.016039 0.004877
  outer loop
    vertex 3.857143 0.326926 0.106225
    vertex 5.142857 0.326926 0.106225
    vertex 0.000000 0.330719 0.093750
  endloop
endfacet
facet normal 0.000057 0.059220 0.052354
  outer loop
    vertex 9.000000 0.236147 0.249798
    vertex 9.000000 0.276866 0.203738
    vertex 7.714286 0.268755 0.214325
  endloop
endfacet
facet normal -0.000058 0.066127 0.043650
  outer loop
    vertex 7.714286 0.268755 0.214325
    vertex 9.000000 0.276866 0.203738
    vertex 7.714286 0.302705 0.162892
  endloop
endfacet
facet normal 0.000000 0.066127 0.043650
  outer loop
    vertex 7.714286 0.268755 0.214325
    vertex 7.714286 0.302705 0.162892
    vertex 6.428571 0.302705 0.162892
  endloop
endfacet
facet normal -0.000000 0.072859 0.031141
  outer loop
    vertex 6.428571 0.302705 0.162892
    vertex 7.714286 0.302705 0.162892
    vertex 6.428571 0.326926 0.106225
  endloop
endfacet
facet normal 0.000000 0.072859 0.031141
  outer loop
    vertex 6.428571 0.302705 0.162892
    vertex 6.428571 0.326926 0.106225
    vertex 5.142857 0.326926 0.106225
  endloop
endfacet
facet normal -0.000000 0.016039 0.004877
  outer loop
    vertex 5.142857 0.326926 0.106225
    vertex 6.428571 0.326926 0.106225
    vertex 9.000000 0.330719 0.093750
  endloop
endfacet
facet normal 0.000000 0.112271 0.034139
  outer loop
    vertex 5.142857 0.326926 0.106225
    vertex 9.000000 0.330719 0.093750
    vertex 0.000000 0.330719 0.093750
  endloop
endfacet
facet normal 0.000057 0.067598 0.040968
  outer loop
    vertex 9.000000 0.276866 0.203738
    vertex 9.000000 0.308730 0.151162
    vertex 7.714286 0.302705 0.162892
  endloop
endfacet
facet normal -0.000057 0.072859 0.031141
  outer loop
    vertex 7.714286 0.302705 0.162892
    vertex 9.000000 0.308730 0.151162
    vertex 7.714286 0.326926 0.106225
  endloop
endfacet
facet normal 0.000000 0.072859 0.031141
  outer loop
    vertex 7.714286 0.302705 0.162892
    vertex 7.714286 0.326926 0.106225
    vertex 6.428571 0.326926 0.106225
  endloop
endfacet
facet normal -0.000000 0.016039 0.004877
  outer loop
    vertex 6.428571 0.326926 0.106225
    vertex 7.714286 0.326926 0.106225
    vertex 9.000000 0.330719 0.093750
  endloop
endfacet
facet normal 0.000057 0.073815 0.028271
  outer loop
    vertex 9.000000 0.308730 0.151162
    vertex 9.000000 0.330719 0.093750
    vertex 7.714286 0.326926 0.106225
  endloop
endfacet
facet normal -0.000000 0.007103 0.078916
  outer loop
    vertex 1.285714 0.000000 0.343750
    vertex 2.571429 0.000000 0.343750
    vertex 1.285714 0.061379 0.338226
  endloop
endfacet
facet normal -0.000000 0.007103 0.078916
  outer loop
    vertex 1.285714 0.061379 0.338226
    vertex 2.571429 0.000000 0.343750
    vertex 2.571429 0.061379 0.338226
  endloop
endfacet
facet normal -0.000000 0.021079 0.076379
  outer loop
    vertex 1.285714 0.061379 0.338226
    vertex 2.571429 0.061379 0.338226
    vertex 1.285714 0.120785 0.321831
  endloop
endfacet
facet normal -0.000000 0.021079 0.076379
  outer loop
    vertex 1.285714 0.120785 0.321831
    vertex 2.571429 0.061379 0.338226
    vertex 2.571429 0.120785 0.321831
  endloop
endfacet
facet normal -0.000000 0.034379 0.071388
  outer loop
    vertex 1.285714 0.120785 0.321831
    vertex 2.571429 0.120785 0.321831
    vertex 1.285714 0.176309 0.295092
  endloop
endfacet
facet normal -0.000000 0.034379 0.071388
  outer loop
    vertex 1.285714 0.176309 0.295092
    vertex 2.571429 0.120785 0.321831
    vertex 2.571429 0.176309 0.295092
  endloop
endfacet
facet normal -0.000000 0.046573 0.064102
  outer loop
    vertex 1.285714 0.176309 0.295092
    vertex 2.571429 0.176309 0.295092
    vertex 1.285714 0.226166 0.258868
  endloop
endfacet
facet normal -0.000000 0.046573 0.064102
  outer loop
    vertex 1.285714 0.226166 0.258868
    vertex 2.571429 0.176309 0.295092
    vertex 2.571429 0.226166 0.258868
  endloop
endfacet
facet normal -0.000000 0.057270 0.054756
  outer loop
    vertex 1.285714 0.226166 0.258868
    vertex 2.571429 0.226166 0.258868
    vertex 1.285714 0.268755 0.214325
  endloop
endfacet
facet normal -0.000000 0.057270 0.054756
  outer loop
    vertex 1.285714 0.268755 0.214325
    vertex 2.571429 0.226166 0.258868
    vertex 2.571429 0.268755 0.214325
  endloop
endfacet
facet normal -0.000000 0.066127 0.043650
  outer loop
    vertex 1.285714 0.268755 0.214325
    vertex 2.571429 0.268755 0.214325
    vertex 1.285714 0.302705 0.162892
  endloop
endfacet
facet normal -0.000000 0.066127 0.043650
  outer loop
    vertex 1.285714 0.302705 0.162892
    vertex 2.571429 0.268755 0.214325
    vertex 2.571429 0.302705 0.162892
  endloop
endfacet
facet normal -0.000000 0.072859 0.031141
  outer loop
    vertex 1.285714 0.302705 0.162892
    vertex 2.571429 0.302705 0.162892
    vertex 1.285714 0.326926 0.106225
  endloop
endfacet
facet normal -0.000000 0.072859 0.031141
  outer loop
    vertex 1.285714 0.326926 0.106225
    vertex 2.571429 0.302705 0.162892
    vertex 2.571429 0.326926 0.106225
  endloop
endfacet
facet normal -0.000000 0.007103 0.078916
  outer loop
    vertex 2.571429 0.000000 0.343750
    vertex 3.857143 0.000000 0.343750
    vertex 2.571429 0.061379 0.338226
  endloop
endfacet
facet normal -0.000000 0.007103 0.078916
  outer loop
    vertex 2.571429 0.061379 0.338226
    vertex 3.857143 0.000000 0.343750
    vertex 3.857143 0.061379 0.338226
  endloop
endfacet
facet normal -0.000000 0.021079 0.076379
  outer loop
    vertex 2.571429 0.061379 0.338226
    vertex 3.857143 0.061379 0.338226
    vertex 2.571429 0.120785 0.321831
  endloop
endfacet
facet normal -0.000000 0.021079 0.076379
  outer loop
    vertex 2.571429 0.120785 0.321831
    vertex 3.857143 0.061379 0.338226
    vertex 3.857143 0.120785 0.321831
  endloop
endfacet
facet normal -0.000000 0.034379 0.071388
  outer loop
    vertex 2.571429 0.120785 0.321831
    vertex 3.857143 0.120785 0.321831
    vertex 2.571429 0.176309 0.295092
  endloop
endfacet
facet normal -0.000000 0.034379 0.071388
  outer loop
    vertex 2.571429 0.176309 0.295092
    vertex 3.857143 0.120785 0.321831
    vertex 3.857143 0.176309 0.295092
  endloop
endfacet
facet normal -0.000000 0.046573 0.064102
  outer loop
    vertex 2.571429 0.176309 0.295092
    vertex 3.857143 0.176309 0.295092
    vertex 2.571429 0.226166 0.258868
  endloop
endfacet
facet normal -0.000000 0.046573 0.064102
  outer loop
    vertex 2.571429 0.226166 0.258868
    vertex 3.857143 0.176309 0.295092
    vertex 3.857143 0.226166 0.258868
  endloop
endfacet
facet normal -0.000000 0.057270 0.054756
  outer loop
    vertex 2.571429 0.226166 0.258868
    vertex 3.857143 0.226166 0.258868
    vertex 2.571429 0.268755 0.214325
  endloop
endfacet
facet normal -0.000000 0.057270 0.054756
  outer loop
    vertex 2.571429 0.268755 0.214325
    vertex 3.857143 0.226166 0.258868
    vertex 3.857143 0.268755 0.214325
  endloop
endfacet
facet normal -0.000000 0.066127 0.043650
  outer loop
    vertex 2.571429 0.268755 0.214325
    vertex 3.857143 0.268755 0.214325
    vertex 2.571429 0.302705 0.162892
  endloop
endfacet
facet normal -0.000000 0.066127 0.043650
  outer loop
    vertex 2.571429 0.302705 0.162892
    vertex 3.857143 0.268755 0.214325
    vertex 3.857143 0.302705 0.162892
  endloop
endfacet
facet normal -0.000000 0.072859 0.031141
  outer loop
    vertex 2.571429 0.302705 0.162892
    vertex 3.857143 0.302705 0.162892
    vertex 2.571429 0.326926 0.106225
  endloop
endfacet
facet normal 0.000000 -0.007103 0.078916
  outer loop
    vertex 2.571429 0.000000 0.343750
    vertex 1.285714 0.000000 0.343750
    vertex 2.571429 -0.061379 0.338226
  endloop
endfacet
facet normal 0.000000 -0.007103 0.078916
  outer loop
    vertex 2.571429 -0.061379 0.338226
    vertex 1.285714 0.000000 0.343750
    vertex 1.285714 -0.061379 0.338226
  endloop
endfacet
facet normal 0.000000 -0.021079 0.076379
  outer loop
    vertex 2.571429 -0.061379 0.338226
    vertex 1.285714 -0.061379 0.338226
    vertex 2.571429 -0.120785 0.321831
  endloop
endfacet
facet normal 0.000000 -0.021079 0.076379
  outer loop
    vertex 2.571429 -0.120785 0.321831
    vertex 1.285714 -0.061379 0.338226
    vertex 1.285714 -0.120785 0.321831
  endloop
endfacet
facet normal 0.000000 -0.034379 0.071388
  outer loop
    vertex 2.571429 -0.120785 0.321831
    vertex 1.285714 -0.120785 0.321831
    vertex 2.571429 -0.176309 0.295092
  endloop
endfacet
facet normal 0.000000 -0.034379 0.071388
  outer loop
    vertex 2.571429 -0.176309 0.295092
    vertex 1.285714 -0.120785 0.321831
    vertex 1.285714 -0.176309 0.295092
  endloop
endfacet
facet normal 0.000000 -0.046573 0.064102
  outer loop
    vertex 2.571429 -0.176309 0.295092
    vertex 1.285714 -0.176309 0.295092
    vertex 2.571429 -0.226166 0.258868
  endloop
endfacet
facet normal 0.000000 -0.046573 0.064102
  outer loop
    vertex 2.571429 -0.226166 0.258868
    vertex 1.285714 -0.176309 0.295092
    vertex 1.285714 -0.226166 0.258868
  endloop
endfacet
facet normal 0.000000 -0.057270 0.054756
  outer loop
    vertex 2.571429 -0.226166 0.258868
    vertex 1.285714 -0.226166 0.258868
    vertex 2.571429 -0.268755 0.214325
  endloop
endfacet
facet normal 0.000000 -0.057270 0.054756
  outer loop
    vertex 2.571429 -0.268755 0.214325
    vertex 1.285714 -0.226166 0.258868
    vertex 1.285714 -0.268755 0.214325
  endloop
endfacet
facet normal 0.000000 -0.066127 0.043650
  outer loop
    vertex 2.571429 -0.268755 0.214325
    vertex 1.285714 -0.268755 0.214325
    vertex 2.571429 -0.302705 0.162892
  endloop
endfacet
facet normal 0.000000 -0.066127 0.043650
  outer loop
    vertex 2.571429 -0.302705 0.162892
    vertex 1.285714 -0.268755 0.214325
    vertex 1.285714 -0.302705 0.162892
  endloop
endfacet
facet normal 0.000000 -0.072859 0.031141
  outer loop
    vertex 2.571429 -0.302705 0.162892
    vertex 1.285714 -0.302705 0.162892
    vertex 2.571429 -0.326926 0.106225
  endloop
endfacet
facet normal 0.000000 -0.072859 0.031141
  outer loop
    vertex 2.571429 -0.326926 0.106225
    vertex 1.285714 -0.302705 0.162892
    vertex 1.285714 -0.326926 0.106225
  endloop
endfacet
facet normal 0.000000 -0.077248 0.017631
  outer loop
    vertex 2.571429 -0.326926 0.106225
    vertex 1.285714 -0.326926 0.106225
    vertex 2.571429 -0.340639 0.046143
  endloop
endfacet
facet normal 0.000000 -0.077248 0.017631
  outer loop
    vertex 2.571429 -0.340639 0.046143
    vertex 1.285714 -0.326926 0.106225
    vertex 1.285714 -0.340639 0.046143
  endloop
endfacet
facet normal 0.000000 -0.079155 0.003555
  outer loop
    vertex 2.571429 -0.340639 0.046143
    vertex 1.285714 -0.340639 0.046143
    vertex 2.571429 -0.343404 -0.015422
  endloop
endfacet
facet normal 0.000000 -0.079155 0.003555
  outer loop
    vertex 2.571429 -0.343404 -0.015422
    vertex 1.285714 -0.340639 0.046143
    vertex 1.285714 -0.343404 -0.015422
  endloop
endfacet
facet normal -0.000000 -0.078518 -0.010636
  outer loop
    vertex 2.571429 -0.343404 -0.015422
    vertex 1.285714 -0.343404 -0.015422
    vertex 2.571429 -0.335131 -0.076492
  endloop
endfacet
facet normal -0.000000 -0.078518 -0.010636
  outer loop
    vertex 2.571429 -0.335131 -0.076492
    vertex 1.285714 -0.343404 -0.015422
    vertex 1.285714 -0.335131 -0.076492
  endloop
endfacet
facet normal -0.000000 -0.075357 -0.024485
  outer loop
    vertex 2.571429 -0.335131 -0.076492
    vertex 1.285714 -0.335131 -0.076492
    vertex 2.571429 -0.316088 -0.135102
  endloop
endfacet
facet normal -0.000000 -0.075357 -0.024485
  outer loop
    vertex 2.571429 -0.316088 -0.135102
    vertex 1.285714 -0.335131 -0.076492
    vertex 1.285714 -0.316088 -0.135102
  endloop
endfacet
facet normal -0.000000 -0.069774 -0.037547
  outer loop
    vertex 2.571429 -0.316088 -0.135102
    vertex 1.285714 -0.316088 -0.135102
    vertex 2.571429 -0.286885 -0.189371
  endloop
endfacet
facet normal -0.000000 -0.069774 -0.037547
  outer loop
    vertex 2.571429 -0.286885 -0.189371
    vertex 1.285714 -0.316088 -0.135102
    vertex 1.285714 -0.286885 -0.189371
  endloop
endfacet
facet normal -0.000000 -0.061948 -0.049402
  outer loop
    vertex 2.571429 -0.286885 -0.189371
    vertex 1.285714 -0.286885 -0.189371
    vertex 2.571429 -0.248461 -0.237553
  endloop
endfacet
facet normal -0.000000 -0.061948 -0.049402
  outer loop
    vertex 2.571429 -0.248461 -0.237553
    vertex 1.285714 -0.286885 -0.189371
    vertex 1.285714 -0.248461 -0.237553
  endloop
endfacet
facet normal -0.000000 -0.052132 -0.059669
  outer loop
    vertex 2.571429 -0.248461 -0.237553
    vertex 1.285714 -0.248461 -0.237553
    vertex 2.571429 -0.202051 -0.278100
  endloop
endfacet
facet normal -0.000000 -0.052132 -0.059669
  outer loop
    vertex 2.571429 -0.202051 -0.278100
    vertex 1.285714 -0.248461 -0.237553
    vertex 1.285714 -0.202051 -0.278100
  endloop
endfacet
facet normal -0.000000 -0.040639 -0.068019
  outer loop
    vertex 2.571429 -0.202051 -0.278100
    vertex 1.285714 -0.202051 -0.278100
    vertex 2.571429 -0.149148 -0.309708
  endloop
endfacet
facet normal -0.000000 -0.040639 -0.068019
  outer loop
    vertex 2.571429 -0.149148 -0.309708
    vertex 1.285714 -0.202051 -0.278100
    vertex 1.285714 -0.149148 -0.309708
  endloop
endfacet
facet normal -0.000000 -0.027841 -0.074182
  outer loop
    vertex 2.571429 -0.149148 -0.309708
    vertex 1.285714 -0.149148 -0.309708
    vertex 2.571429 -0.091450 -0.331362
  endloop
endfacet
facet normal -0.000000 -0.027841 -0.074182
  outer loop
    vertex 2.571429 -0.091450 -0.331362
    vertex 1.285714 -0.149148 -0.309708
    vertex 1.285714 -0.091450 -0.331362
  endloop
endfacet
facet normal -0.000000 -0.014148 -0.077961
  outer loop
    vertex 2.571429 -0.091450 -0.331362
    vertex 1.285714 -0.091450 -0.331362
    vertex 2.571429 -0.030814 -0.342366
  endloop
endfacet
facet normal -0.000000 -0.014148 -0.077961
  outer loop
    vertex 2.571429 -0.030814 -0.342366
    vertex 1.285714 -0.091450 -0.331362
    vertex 1.285714 -0.030814 -0.342366
  endloop
endfacet
facet normal 0.000000 0.000000 -0.079235
  outer loop
    vertex 2.571429 -0.030814 -0.342366
    vertex 1.285714 -0.030814 -0.342366
    vertex 2.571429 0.030814 -0.342366
  endloop
endfacet
facet normal -0.000000 0.000000 -0.079235
  outer loop
    vertex 2.571429 0.030814 -0.342366
    vertex 1.285714 -0.030814 -0.342366
    vertex 1.285714 0.030814 -0.342366
  endloop
endfacet
facet normal 0.000000 0.014148 -0.077961
  outer loop
    vertex 2.571429 0.030814 -0.342366
    vertex 1.285714 0.030814 -0.342366
    vertex 2.571429 0.091450 -0.331362
  endloop
endfacet
facet normal 0.000000 0.014148 -0.077961
  outer loop
    vertex 2.571429 0.091450 -0.331362
    vertex 1.285714 0.030814 -0.342366
    vertex 1.285714 0.091450 -0.331362
  endloop
endfacet
facet normal 0.000000 0.027841 -0.074182
  outer loop
    vertex 2.571429 0.091450 -0.331362
    vertex 1.285714 0.091450 -0.331362
    vertex 2.571429 0.149148 -0.309708
  endloop
endfacet
facet normal 0.000000 0.027841 -0.074182
  outer loop
    vertex 2.571429 0.149148 -0.309708
    vertex 1.285714 0.091450 -0.331362
    vertex 1.285714 0.149148 -0.309708
  endloop
endfacet
facet normal 0.000000 0.040639 -0.068019
  outer loop
    vertex 2.571429 0.149148 -0.309708
    vertex 1.285714 0.149148 -0.309708
    vertex 2.571429 0.202051 -0.278100
  endloop
endfacet
facet normal -0.000000 0.007103 0.078916
  outer loop
    vertex 3.857143 0.000000 0.343750
    vertex 5.142857 0.000000 0.343750
    vertex 3.857143 0.061379 0.338226
  endloop
endfacet
facet normal -0.000000 0.007103 0.078916
  outer loop
    vertex 3.857143 0.061379 0.338226
    vertex 5.142857 0.000000 0.343750
    vertex 5.142857 0.061379 0.338226
  endloop
endfacet
facet normal -0.000000 0.021079 0.076379
  outer loop
    vertex 3.857143 0.061379 0.338226
    vertex 5.142857 0.061379 0.338226
    vertex 3.857143 0.120785 0.321831
  endloop
endfacet
facet normal -0.000000 0.021079 0.076379
  outer loop
    vertex 3.857143 0.120785 0.321831
    vertex 5.142857 0.061379 0.338226
    vertex 5.142857 0.120785 0.321831
  endloop
endfacet
facet normal -0.000000 0.034379 0.071388
  outer loop
    vertex 3.857143 0.120785 0.321831
    vertex 5.142857 0.120785 0.321831
    vertex 3.857143 0.176309 0.295092
  endloop
endfacet
facet normal -0.000000 0.034379 0.071388
  outer loop
    vertex 3.857143 0.176309 0.295092
    vertex 5.142857 0.120785 0.321831
    vertex 5.142857 0.176309 0.295092
  endloop
endfacet
facet normal -0.000000 0.046573 0.064102
  outer loop
    vertex 3.857143 0.176309 0.295092
    vertex 5.142857 0.176309 0.295092
    vertex 3.857143 0.226166 0.258868
  endloop
endfacet
facet normal -0.000000 0.046573 0.064102
  outer loop
    vertex 3.857143 0.226166 0.258868
    vertex 5.142857 0.176309 0.295092
    vertex 5.142857 0.226166 0.258868
  endloop
endfacet
facet normal -0.000000 0.057270 0.054756
  outer loop
    vertex 3.857143 0.226166 0.258868
    vertex 5.142857 0.226166 0.258868
    vertex 3.857143 0.268755 0.214325
  endloop
endfacet
facet normal -0.000000 0.057270 0.054756
  outer loop
    vertex 3.857143 0.268755 0.214325
    vertex 5.142857 0.226166 0.258868
    vertex 5.142857 0.268755 0.214325
  endloop
endfacet
facet normal -0.000000 0.066127 0.043650
  outer loop
    vertex 3.857143 0.268755 0.214325
    vertex 5.142857 0.268755 0.214325
    vertex 3.857143 0.302705 0.162892
  endloop
endfacet
facet normal 0.000000 -0.007103 0.078916
  outer loop
    vertex 3.857143 0.000000 0.343750
    vertex 2.571429 0.000000 0.343750
    vertex 3.857143 -0.061379 0.338226
  endloop
endfacet
facet normal 0.000000 -0.007103 0.078916
  outer loop
    vertex 3.857143 -0.061379 0.338226
    vertex 2.571429 0.000000 0.343750
    vertex 2.571429 -0.061379 0.338226
  endloop
endfacet
facet normal 0.000000 -0.021079 0.076379
  outer loop
    vertex 3.857143 -0.061379 0.338226
    vertex 2.571429 -0.061379 0.338226
    vertex 3.857143 -0.120785 0.321831
  endloop
endfacet
facet normal 0.000000 -0.021079 0.076379
  outer loop
    vertex 3.857143 -0.120785 0.321831
    vertex 2.571429 -0.061379 0.338226
    vertex 2.571429 -0.120785 0.321831
  endloop
endfacet
facet normal 0.000000 -0.034379 0.071388
  outer loop
    vertex 3.857143 -0.120785 0.321831
    vertex 2.571429 -0.120785 0.321831
    vertex 3.857143 -0.176309 0.295092
  endloop
endfacet
facet normal 0.000000 -0.034379 0.071388
  outer loop
    vertex 3.857143 -0.176309 0.295092
    vertex 2.571429 -0.120785 0.321831
    vertex 2.571429 -0.176309 0.295092
  endloop
endfacet
facet normal 0.000000 -0.046573 0.064102
  outer loop
    vertex 3.857143 -0.176309 0.295092
    vertex 2.571429 -0.176309 0.295092
    vertex 3.857143 -0.226166 0.258868
  endloop
endfacet
facet normal 0.000000 -0.046573 0.064102
  outer loop
    vertex 3.857143 -0.226166 0.258868
    vertex 2.571429 -0.176309 0.295092
    vertex 2.571429 -0.226166 0.258868
  endloop
endfacet
facet normal 0.000000 -0.057270 0.054756
  outer loop
    vertex 3.857143 -0.226166 0.258868
    vertex 2.571429 -0.226166 0.258868
    vertex 3.857143 -0.268755 0.214325
  endloop
endfacet
facet normal 0.000000 -0.057270 0.054756
  outer loop
    vertex 3.857143 -0.268755 0.214325
    vertex 2.571429 -0.226166 0.258868
    vertex 2.571429 -0.268755 0.214325
  endloop
endfacet
facet normal 0.000000 -0.066127 0.043650
  outer loop
    vertex 3.857143 -0.268755 0.214325
    vertex 2.571429 -0.268755 0.214325
    vertex 3.857143 -0.302705 0.162892
  endloop
endfacet
facet normal 0.000000 -0.066127 0.043650
  outer loop
    vertex 3.857143 -0.302705 0.162892
    vertex 2.571429 -0.268755 0.214325
    vertex 2.571429 -0.302705 0.162892
  endloop
endfacet
facet normal 0.000000 -0.072859 0.031141
  outer loop
    vertex 3.857143 -0.302705 0.162892
    vertex 2.571429 -0.302705 0.162892
    vertex 3.857143 -0.326926 0.106225
  endloop
endfacet
facet normal 0.000000 -0.072859 0.031141
  outer loop
    vertex 3.857143 -0.326926 0.106225
    vertex 2.571429 -0.302705 0.162892
    vertex 2.571429 -0.326926 0.106225
  endloop
endfacet
facet normal 0.000000 -0.077248 0.017631
  outer loop
    vertex 3.857143 -0.326926 0.106225
    vertex 2.571429 -0.326926 0.106225
    vertex 3.857143 -0.340639 0.046143
  endloop
endfacet
facet normal 0.000000 -0.077248 0.017631
  outer loop
    vertex 3.857143 -0.340639 0.046143
    vertex 2.571429 -0.326926 0.106225
    vertex 2.571429 -0.340639 0.046143
  endloop
endfacet
facet normal 0.000000 -0.079155 0.003555
  outer loop
    vertex 3.857143 -0.340639 0.046143
    vertex 2.571429 -0.340639 0.046143
    vertex 3.857143 -0.343404 -0.015422
  endloop
endfacet
facet normal 0.000000 -0.079155 0.003555
  outer loop
    vertex 3.857143 -0.343404 -0.015422
    vertex 2.571429 -0.340639 0.046143
    vertex 2.571429 -0.343404 -0.015422
  endloop
endfacet
facet normal -0.000000 -0.078518 -0.010636
  outer loop
    vertex 3.857143 -0.343404 -0.015422
    vertex 2.571429 -0.343404 -0.015422
    vertex 3.857143 -0.335131 -0.076492
  endloop
endfacet
facet normal -0.000000 -0.078518 -0.010636
  outer loop
    vertex 3.857143 -0.335131 -0.076492
    vertex 2.571429 -0.343404 -0.015422
    vertex 2.571429 -0.335131 -0.076492
  endloop
endfacet
facet normal -0.000000 -0.075357 -0.024485
  outer loop
    vertex 3.857143 -0.335131 -0.076492
    vertex 2.571429 -0.335131 -0.076492
    vertex 3.857143 -0.316088 -0.135102
  endloop
endfacet
facet normal -0.000000 -0.075357 -0.024485
  outer loop
    vertex 3.857143 -0.316088 -0.135102
    vertex 2.571429 -0.335131 -0.076492
    vertex 2.571429 -0.316088 -0.135102
  endloop
endfacet
facet normal -0.000000 -0.069774 -0.037547
  outer loop
    vertex 3.857143 -0.316088 -0.135102
    vertex 2.571429 -0.316088 -0.135102
    vertex 3.857143 -0.286885 -0.189371
  endloop
endfacet
facet normal -0.000000 -0.069774 -0.037547
  outer loop
    vertex 3.857143 -0.286885 -0.189371
    vertex 2.571429 -0.316088 -0.135102
    vertex 2.571429 -0.286885 -0.189371
  endloop
endfacet
facet normal -0.000000 -0.061948 -0.049402
  outer loop
    vertex 3.857143 -0.286885 -0.189371
    vertex 2.571429 -0.286885 -0.189371
    vertex 3.857143 -0.248461 -0.237553
  endloop
endfacet
facet normal -0.000000 -0.061948 -0.049402
  outer loop
    vertex 3.857143 -0.248461 -0.237553
    vertex 2.571429 -0.286885 -0.189371
    vertex 2.571429 -0.248461 -0.237553
  endloop
endfacet
facet normal -0.000000 -0.052132 -0.059669
  outer loop
    vertex 3.857143 -0.248461 -0.237553
    vertex 2.571429 -0.248461 -0.237553
    vertex 3.857143 -0.202051 -0.278100
  endloop
endfacet
facet normal -0.000000 -0.052132 -0.059669
  outer loop
    vertex 3.857143 -0.202051 -0.278100
    vertex 2.571429 -0.248461 -0.237553
    vertex 2.571429 -0.202051 -0.278100
  endloop
endfacet
facet normal -0.000000 -0.040639 -0.068019
  outer loop
    vertex 3.857143 -0.202051 -0.278100
    vertex 2.571429 -0.202051 -0.278100
    vertex 3.857143 -0.149148 -0.309708
  endloop
endfacet
facet normal -0.000000 -0.040639 -0.068019
  outer loop
    vertex 3.857143 -0.149148 -0.309708
    vertex 2.571429 -0.202051 -0.278100
    vertex 2.571429 -0.149148 -0.309708
  endloop
endfacet
facet normal -0.000000 -0.027841 -0.074182
  outer loop
    vertex 3.857143 -0.149148 -0.309708
    vertex 2.571429 -0.149148 -0.309708
    vertex 3.857143 -0.091450 -0.331362
  endloop
endfacet
facet normal -0.000000 -0.027841 -0.074182
  outer loop
    vertex 3.857143 -0.091450 -0.331362
    vertex 2.571429 -0.149148 -0.309708
    vertex 2.571429 -0.091450 -0.331362
  endloop
endfacet
facet normal -0.000000 -0.014148 -0.077961
  outer loop
    vertex 3.857143 -0.091450 -0.331362
    vertex 2.571429 -0.091450 -0.331362
    vertex 3.857143 -0.030814 -0.342366
  endloop
endfacet
facet normal -0.000000 -0.014148 -0.077961
  outer loop
    vertex 3.857143 -0.030814 -0.342366
    vertex 2.571429 -0.091450 -0.331362
    vertex 2.571429 -0.030814 -0.342366
  endloop
endfacet
facet normal 0.000000 0.000000 -0.079235
  outer loop
    vertex 3.857143 -0.030814 -0.342366
    vertex 2.571429 -0.030814 -0.342366
    vertex 3.857143 0.030814 -0.342366
  endloop
endfacet
facet normal -0.000000 0.000000 -0.079235
  outer loop
    vertex 3.857143 0.030814 -0.342366
    vertex 2.571429 -0.030814 -0.342366
    vertex 2.571429 0.030814 -0.342366
  endloop
endfacet
facet normal 0.000000 0.014148 -0.077961
  outer loop
    vertex 3.857143 0.030814 -0.342366
    vertex 2.571429 0.030814 -0.342366
    vertex 3.857143 0.091450 -0.331362
  endloop
endfacet
facet normal 0.000000 0.014148 -0.077961
  outer loop
    vertex 3.857143 0.091450 -0.331362
    vertex 2.571429 0.030814 -0.342366
    vertex 2.571429 0.091450 -0.331362
  endloop
endfacet
facet normal 0.000000 0.027841 -0.074182
  outer loop
    vertex 3.857143 0.091450 -0.331362
    vertex 2.571429 0.091450 -0.331362
    vertex 3.857143 0.149148 -0.309708
  endloop
endfacet
facet normal 0.000000 0.027841 -0.074182
  outer loop
    vertex 3.857143 0.149148 -0.309708
    vertex 2.571429 0.091450 -0.331362
    vertex 2.571429 0.149148 -0.309708
  endloop
endfacet
facet normal 0.000000 0.040639 -0.068019
  outer loop
    vertex 3.857143 0.149148 -0.309708
    vertex 2.571429 0.149148 -0.309708
    vertex 3.857143 0.202051 -0.278100
  endloop
endfacet
facet normal 0.000000 0.040639 -0.068019
  outer loop
    vertex 3.857143 0.202051 -0.278100
    vertex 2.571429 0.149148 -0.309708
    vertex 2.571429 0.202051 -0.278100
  endloop
endfacet
facet normal 0.000000 0.052132 -0.059669
  outer loop
    vertex 3.857143 0.202051 -0.278100
    vertex 2.571429 0.202051 -0.278100
    vertex 3.857143 0.248461 -0.237553
  endloop
endfacet
facet normal -0.000000 0.007103 0.078916
  outer loop
    vertex 5.142857 0.000000 0.343750
    vertex 6.428571 0.000000 0.343750
    vertex 5.142857 0.061379 0.338226
  endloop
endfacet
facet normal -0.000000 0.007103 0.078916
  outer loop
    vertex 5.142857 0.061379 0.338226
    vertex 6.428571 0.000000 0.343750
    vertex 6.428571 0.061379 0.338226
  endloop
endfacet
facet normal -0.000000 0.021079 0.076379
  outer loop
    vertex 5.142857 0.061379 0.338226
    vertex 6.428571 0.061379 0.338226
    vertex 5.142857 0.120785 0.321831
  endloop
endfacet
facet normal -0.000000 0.021079 0.076379
  outer loop
    vertex 5.142857 0.120785 0.321831
    vertex 6.428571 0.061379 0.338226
    vertex 6.428571 0.120785 0.321831
  endloop
endfacet
facet normal -0.000000 0.034379 0.071388
  outer loop
    vertex 5.142857 0.120785 0.321831
    vertex 6.428571 0.120785 0.321831
    vertex 5.142857 0.176309 0.295092
  endloop
endfacet
facet normal -0.000000 0.034379 0.071388
  outer loop
    vertex 5.142857 0.176309 0.295092
    vertex 6.428571 0.120785 0.321831
    vertex 6.428571 0.176309 0.295092
  endloop
endfacet
facet normal -0.000000 0.046573 0.064102
  outer loop
    vertex 5.142857 0.176309 0.295092
    vertex 6.428571 0.176309 0.295092
    vertex 5.142857 0.226166 0.258868
  endloop
endfacet
facet normal -0.000000 0.046573 0.064102
  outer loop
    vertex 5.142857 0.226166 0.258868
    vertex 6.428571 0.176309 0.295092
    vertex 6.428571 0.226166 0.258868
  endloop
endfacet
facet normal -0.000000 0.057270 0.054756
  outer loop
    vertex 5.142857 0.226166 0.258868
    vertex 6.428571 0.226166 0.258868
    vertex 5.142857 0.268755 0.214325
  endloop
endfacet
facet normal 0.000000 -0.007103 0.078916
  outer loop
    vertex 5.142857 0.000000 0.343750
    vertex 3.857143 0.000000 0.343750
    vertex 5.142857 -0.061379 0.338226
  endloop
endfacet
facet normal 0.000000 -0.007103 0.078916
  outer loop
    vertex 5.142857 -0.061379 0.338226
    vertex 3.857143 0.000000 0.343750
    vertex 3.857143 -0.061379 0.338226
  endloop
endfacet
facet normal 0.000000 -0.021079 0.076379
  outer loop
    vertex 5.142857 -0.061379 0.338226
    vertex 3.857143 -0.061379 0.338226
    vertex 5.142857 -0.120785 0.321831
  endloop
endfacet
facet normal 0.000000 -0.021079 0.076379
  outer loop
    vertex 5.142857 -0.120785 0.321831
    vertex 3.857143 -0.061379 0.338226
    vertex 3.857143 -0.120785 0.321831
  endloop
endfacet
facet normal 0.000000 -0.034379 0.071388
  outer loop
    vertex 5.142857 -0.120785 0.321831
    vertex 3.857143 -0.120785 0.321831
    vertex 5.142857 -0.176309 0.295092
  endloop
endfacet
facet normal 0.000000 -0.034379 0.071388
  outer loop
    vertex 5.142857 -0.176309 0.295092
    vertex 3.857143 -0.120785 0.321831
    vertex 3.857143 -0.176309 0.295092
  endloop
endfacet
facet normal 0.000000 -0.046573 0.064102
  outer loop
    vertex 5.142857 -0.176309 0.295092
    vertex 3.857143 -0.176309 0.295092
    vertex 5.142857 -0.226166 0.258868
  endloop
endfacet
facet normal 0.000000 -0.046573 0.064102
  outer loop
    vertex 5.142857 -0.226166 0.258868
    vertex 3.857143 -0.176309 0.295092
    vertex 3.857143 -0.226166 0.258868
  endloop
endfacet
facet normal 0.000000 -0.057270 0.054756
  outer loop
    vertex 5.142857 -0.226166 0.258868
    vertex 3.857143 -0.226166 0.258868
    vertex 5.142857 -0.268755 0.214325
  endloop
endfacet
facet normal 0.000000 -0.057270 0.054756
  outer loop
    vertex 5.142857 -0.268755 0.214325
    vertex 3.857143 -0.226166 0.258868
    vertex 3.857143 -0.268755 0.214325
  endloop
endfacet
facet normal 0.000000 -0.066127 0.043650
  outer loop
    vertex 5.142857 -0.268755 0.214325
    vertex 3.857143 -0.268755 0.214325
    vertex 5.142857 -0.302705 0.162892
  endloop
endfacet
facet normal 0.000000 -0.066127 0.043650
  outer loop
    vertex 5.142857 -0.302705 0.162892
    vertex 3.857143 -0.268755 0.214325
    vertex 3.857143 -0.302705 0.162892
  endloop
endfacet
facet normal 0.000000 -0.072859 0.031141
  outer loop
    vertex 5.142857 -0.302705 0.162892
    vertex 3.857143 -0.302705 0.162892
    vertex 5.142857 -0.326926 0.106225
  endloop
endfacet
facet normal 0.000000 -0.072859 0.031141
  outer loop
    vertex 5.142857 -0.326926 0.106225
    vertex 3.857143 -0.302705 0.162892
    vertex 3.857143 -0.326926 0.106225
  endloop
endfacet
facet normal 0.000000 -0.077248 0.017631
  outer loop
    vertex 5.142857 -0.326926 0.106225
    vertex 3.857143 -0.326926 0.106225
    vertex 5.142857 -0.340639 0.046143
  endloop
endfacet
facet normal 0.000000 -0.077248 0.017631
  outer loop
    vertex 5.142857 -0.340639 0.046143
    vertex 3.857143 -0.326926 0.106225
    vertex 3.857143 -0.340639 0.046143
  endloop
endfacet
facet normal 0.000000 -0.079155 0.003555
  outer loop
    vertex 5.142857 -0.340639 0.046143
    vertex 3.857143 -0.340639 0.046143
    vertex 5.142857 -0.343404 -0.015422
  endloop
endfacet
facet normal 0.000000 -0.079155 0.003555
  outer loop
    vertex 5.142857 -0.343404 -0.015422
    vertex 3.857143 -0.340639 0.046143
    vertex 3.857143 -0.343404 -0.015422
  endloop
endfacet
facet normal -0.000000 -0.078518 -0.010636
  outer loop
    vertex 5.142857 -0.343404 -0.015422
    vertex 3.857143 -0.343404 -0.015422
    vertex 5.142857 -0.335131 -0.076492
  endloop
endfacet
facet normal -0.000000 -0.078518 -0.010636
  outer loop
    vertex 5.142857 -0.335131 -0.076492
    vertex 3.857143 -0.343404 -0.015422
    vertex 3.857143 -0.335131 -0.076492
  endloop
endfacet
facet normal -0.000000 -0.075357 -0.024485
  outer loop
    vertex 5.142857 -0.335131 -0.076492
    vertex 3.857143 -0.335131 -0.076492
    vertex 5.142857 -0.316088 -0.135102
  endloop
endfacet
facet normal -0.000000 -0.075357 -0.024485
  outer loop
    vertex 5.142857 -0.316088 -0.135102
    vertex 3.857143 -0.335131 -0.076492
    vertex 3.857143 -0.316088 -0.135102
  endloop
endfacet
facet normal -0.000000 -0.069774 -0.037547
  outer loop
    vertex 5.142857 -0.316088 -0.135102
    vertex 3.857143 -0.316088 -0.135102
    vertex 5.142857 -0.286885 -0.189371
  endloop
endfacet
facet normal -0.000000 -0.069774 -0.037547
  outer loop
    vertex 5.142857 -0.286885 -0.189371
    vertex 3.857143 -0.316088 -0.135102
    vertex 3.857143 -0.286885 -0.189371
  endloop
endfacet
facet normal -0.000000 -0.061948 -0.049402
  outer loop
    vertex 5.142857 -0.286885 -0.189371
    vertex 3.857143 -0.286885 -0.189371
    vertex 5.142857 -0.248461 -0.237553
  endloop
endfacet
facet normal -0.000000 -0.061948 -0.049402
  outer loop
    vertex 5.142857 -0.248461 -0.237553
    vertex 3.857143 -0.286885 -0.189371
    vertex 3.857143 -0.248461 -0.237553
  endloop
endfacet
facet normal -0.000000 -0.052132 -0.059669
  outer loop
    vertex 5.142857 -0.248461 -0.237553
    vertex 3.857143 -0.248461 -0.237553
    vertex 5.142857 -0.202051 -0.278100
  endloop
endfacet
facet normal -0.000000 -0.052132 -0.059669
  outer loop
    vertex 5.142857 -0.202051 -0.278100
    vertex 3.857143 -0.248461 -0.237553
    vertex 3.857143 -0.202051 -0.278100
  endloop
endfacet
facet normal -0.000000 -0.040639 -0.068019
  outer loop
    vertex 5.142857 -0.202051 -0.278100
    vertex 3.857143 -0.202051 -0.278100
    vertex 5.142857 -0.149148 -0.309708
  endloop
endfacet
facet normal -0.000000 -0.040639 -0.068019
  outer loop
    vertex 5.142857 -0.149148 -0.309708
    vertex 3.857143 -0.202051 -0.278100
    vertex 3.857143 -0.149148 -0.309708
  endloop
endfacet
facet normal -0.000000 -0.027841 -0.074182
  outer loop
    vertex 5.142857 -0.149148 -0.309708
    vertex 3.857143 -0.149148 -0.309708
    vertex 5.142857 -0.091450 -0.331362
  endloop
endfacet
facet normal -0.000000 -0.027841 -0.074182
  outer loop
    vertex 5.142857 -0.091450 -0.331362
    vertex 3.857143 -0.149148 -0.309708
    vertex 3.857143 -0.091450 -0.331362
  endloop
endfacet
facet normal -0.000000 -0.014148 -0.077961
  outer loop
    vertex 5.142857 -0.091450 -0.331362
    vertex 3.857143 -0.091450 -0.331362
    vertex 5.142857 -0.030814 -0.342366
  endloop
endfacet
facet normal -0.000000 -0.014148 -0.077961
  outer loop
    vertex 5.142857 -0.030814 -0.342366
    vertex 3.857143 -0.091450 -0.331362
    vertex 3.857143 -0.030814 -0.342366
  endloop
endfacet
facet normal 0.000000 0.000000 -0.079235
  outer loop
    vertex 5.142857 -0.030814 -0.342366
    vertex 3.857143 -0.030814 -0.342366
    vertex 5.142857 0.030814 -0.342366
  endloop
endfacet
facet normal -0.000000 0.000000 -0.079235
  outer loop
    vertex 5.142857 0.030814 -0.342366
    vertex 3.857143 -0.030814 -0.342366
    vertex 3.857143 0.030814 -0.342366
  endloop
endfacet
facet normal 0.000000 0.014148 -0.077961
  outer loop
    vertex 5.142857 0.030814 -0.342366
    vertex 3.857143 0.030814 -0.342366
    vertex 5.142857 0.091450 -0.331362
  endloop
endfacet
facet normal 0.000000 0.014148 -0.077961
  outer loop
    vertex 5.142857 0.091450 -0.331362
    vertex 3.857143 0.030814 -0.342366
    vertex 3.857143 0.091450 -0.331362
  endloop
endfacet
facet normal 0.000000 0.027841 -0.074182
  outer loop
    vertex 5.142857 0.091450 -0.331362
    vertex 3.857143 0.091450 -0.331362
    vertex 5.142857 0.149148 -0.309708
  endloop
endfacet
facet normal 0.000000 0.027841 -0.074182
  outer loop
    vertex 5.142857 0.149148 -0.309708
    vertex 3.857143 0.091450 -0.331362
    vertex 3.857143 0.149148 -0.309708
  endloop
endfacet
facet normal 0.000000 0.040639 -0.068019
  outer loop
    vertex 5.142857 0.149148 -0.309708
    vertex 3.857143 0.149148 -0.309708
    vertex 5.142857 0.202051 -0.278100
  endloop
endfacet
facet normal 0.000000 0.040639 -0.068019
  outer loop
    vertex 5.142857 0.202051 -0.278100
    vertex 3.857143 0.149148 -0.309708
    vertex 3.857143 0.202051 -0.278100
  endloop
endfacet
facet normal 0.000000 0.052132 -0.059669
  outer loop
    vertex 5.142857 0.202051 -0.278100
    vertex 3.857143 0.202051 -0.278100
    vertex 5.142857 0.248461 -0.237553
  endloop
endfacet
facet normal 0.000000 0.052132 -0.059669
  outer loop
    vertex 5.142857 0.248461 -0.237553
    vertex 3.857143 0.202051 -0.278100
    vertex 3.857143 0.248461 -0.237553
  endloop
endfacet
facet normal 0.000000 0.061948 -0.049402
  outer loop
    vertex 5.142857 0.248461 -0.237553
    vertex 3.857143 0.248461 -0.237553
    vertex 5.142857 0.286885 -0.189371
  endloop
endfacet
facet normal 0.000000 0.007103 0.078916
  outer loop
    vertex 6.428571 0.000000 0.343750
    vertex 7.714286 -0.000000 0.343750
    vertex 6.428571 0.061379 0.338226
  endloop
endfacet
facet normal -0.000000 0.007103 0.078916
  outer loop
    vertex 6.428571 0.061379 0.338226
    vertex 7.714286 -0.000000 0.343750
    vertex 7.714286 0.061379 0.338226
  endloop
endfacet
facet normal -0.000000 0.021079 0.076379
  outer loop
    vertex 6.428571 0.061379 0.338226
    vertex 7.714286 0.061379 0.338226
    vertex 6.428571 0.120785 0.321831
  endloop
endfacet
facet normal -0.000000 0.021079 0.076379
  outer loop
    vertex 6.428571 0.120785 0.321831
    vertex 7.714286 0.061379 0.338226
    vertex 7.714286 0.120785 0.321831
  endloop
endfacet
facet normal -0.000000 0.034379 0.071388
  outer loop
    vertex 6.428571 0.120785 0.321831
    vertex 7.714286 0.120785 0.321831
    vertex 6.428571 0.176309 0.295092
  endloop
endfacet
facet normal -0.000000 0.034379 0.071388
  outer loop
    vertex 6.428571 0.176309 0.295092
    vertex 7.714286 0.120785 0.321831
    vertex 7.714286 0.176309 0.295092
  endloop
endfacet
facet normal -0.000000 0.046573 0.064102
  outer loop
    vertex 6.428571 0.176309 0.295092
    vertex 7.714286 0.176309 0.295092
    vertex 6.428571 0.226166 0.258868
  endloop
endfacet
facet normal 0.000000 -0.007103 0.078916
  outer loop
    vertex 6.428571 0.000000 0.343750
    vertex 5.142857 0.000000 0.343750
    vertex 6.428571 -0.061379 0.338226
  endloop
endfacet
facet normal 0.000000 -0.007103 0.078916
  outer loop
    vertex 6.428571 -0.061379 0.338226
    vertex 5.142857 0.000000 0.343750
    vertex 5.142857 -0.061379 0.338226
  endloop
endfacet
facet normal 0.000000 -0.021079 0.076379
  outer loop
    vertex 6.428571 -0.061379 0.338226
    vertex 5.142857 -0.061379 0.338226
    vertex 6.428571 -0.120785 0.321831
  endloop
endfacet
facet normal 0.000000 -0.021079 0.076379
  outer loop
    vertex 6.428571 -0.120785 0.321831
    vertex 5.142857 -0.061379 0.338226
    vertex 5.142857 -0.120785 0.321831
  endloop
endfacet
facet normal 0.000000 -0.034379 0.071388
  outer loop
    vertex 6.428571 -0.120785 0.321831
    vertex 5.142857 -0.120785 0.321831
    vertex 6.428571 -0.176309 0.295092
  endloop
endfacet
facet normal 0.000000 -0.034379 0.071388
  outer loop
    vertex 6.428571 -0.176309 0.295092
    vertex 5.142857 -0.120785 0.321831
    vertex 5.142857 -0.176309 0.295092
  endloop
endfacet
facet normal 0.000000 -0.046573 0.064102
  outer loop
    vertex 6.428571 -0.176309 0.295092
    vertex 5.142857 -0.176309 0.295092
    vertex 6.428571 -0.226166 0.258868
  endloop
endfacet
facet normal 0.000000 -0.046573 0.064102
  outer loop
    vertex 6.428571 -0.226166 0.258868
    vertex 5.142857 -0.176309 0.295092
    vertex 5.142857 -0.226166 0.258868
  endloop
endfacet
facet normal 0.000000 -0.057270 0.054756
  outer loop
    vertex 6.428571 -0.226166 0.258868
    vertex 5.142857 -0.226166 0.258868
    vertex 6.428571 -0.268755 0.214325
  endloop
endfacet
facet normal 0.000000 -0.057270 0.054756
  outer loop
    vertex 6.428571 -0.268755 0.214325
    vertex 5.142857 -0.226166 0.258868
    vertex 5.142857 -0.268755 0.214325
  endloop
endfacet
facet normal 0.000000 -0.066127 0.043650
  outer loop
    vertex 6.428571 -0.268755 0.214325
    vertex 5.142857 -0.268755 0.214325
    vertex 6.428571 -0.302705 0.162892
  endloop
endfacet
facet normal 0.000000 -0.066127 0.043650
  outer loop
    vertex 6.428571 -0.302705 0.162892
    vertex 5.142857 -0.268755 0.214325
    vertex 5.142857 -0.302705 0.162892
  endloop
endfacet
facet normal 0.000000 -0.072859 0.031141
  outer loop
    vertex 6.428571 -0.302705 0.162892
    vertex 5.142857 -0.302705 0.162892
    vertex 6.428571 -0.326926 0.106225
  endloop
endfacet
facet normal 0.000000 -0.072859 0.031141
  outer loop
    vertex 6.428571 -0.326926 0.106225
    vertex 5.142857 -0.302705 0.162892
    vertex 5.142857 -0.326926 0.106225
  endloop
endfacet
facet normal 0.000000 -0.077248 0.017631
  outer loop
    vertex 6.428571 -0.326926 0.106225
    vertex 5.142857 -0.326926 0.106225
    vertex 6.428571 -0.340639 0.046143
  endloop
endfacet
facet normal 0.000000 -0.077248 0.017631
  outer loop
    vertex 6.428571 -0.340639 0.046143
    vertex 5.142857 -0.326926 0.106225
    vertex 5.142857 -0.340639 0.046143
  endloop
endfacet
facet normal 0.000000 -0.079155 0.003555
  outer loop
    vertex 6.428571 -0.340639 0.046143
    vertex 5.142857 -0.340639 0.046143
    vertex 6.428571 -0.343404 -0.015422
  endloop
endfacet
facet normal 0.000000 -0.079155 0.003555
  outer loop
    vertex 6.428571 -0.343404 -0.015422
    vertex 5.142857 -0.340639 0.046143
    vertex 5.142857 -0.343404 -0.015422
  endloop
endfacet
facet normal -0.000000 -0.078518 -0.010636
  outer loop
    vertex 6.428571 -0.343404 -0.015422
    vertex 5.142857 -0.343404 -0.015422
    vertex 6.428571 -0.335131 -0.076492
  endloop
endfacet
facet normal -0.000000 -0.078518 -0.010636
  outer loop
    vertex 6.428571 -0.335131 -0.076492
    vertex 5.142857 -0.343404 -0.015422
    vertex 5.142857 -0.335131 -0.076492
  endloop
endfacet
facet normal -0.000000 -0.075357 -0.024485
  outer loop
    vertex 6.428571 -0.335131 -0.076492
    vertex 5.142857 -0.335131 -0.076492
    vertex 6.428571 -0.316088 -0.135102
  endloop
endfacet
facet normal -0.000000 -0.075357 -0.024485
  outer loop
    vertex 6.428571 -0.316088 -0.135102
    vertex 5.142857 -0.335131 -0.076492
    vertex 5.142857 -0.316088 -0.135102
  endloop
endfacet
facet normal -0.000000 -0.069774 -0.037547
  outer loop
    vertex 6.428571 -0.316088 -0.135102
    vertex 5.142857 -0.316088 -0.135102
    vertex 6.428571 -0.286885 -0.189371
  endloop
endfacet
facet normal -0.000000 -0.069774 -0.037547
  outer loop
    vertex 6.428571 -0.286885 -0.189371
    vertex 5.142857 -0.316088 -0.135102
    vertex 5.142857 -0.286885 -0.189371
  endloop
endfacet
facet normal -0.000000 -0.061948 -0.049402
  outer loop
    vertex 6.428571 -0.286885 -0.189371
    vertex 5.142857 -0.286885 -0.189371
    vertex 6.428571 -0.248461 -0.237553
  endloop
endfacet
facet normal -0.000000 -0.061948 -0.049402
  outer loop
    vertex 6.428571 -0.248461 -0.237553
    vertex 5.142857 -0.286885 -0.189371
    vertex 5.142857 -0.248461 -0.237553
  endloop
endfacet
facet normal -0.000000 -0.052132 -0.059669
  outer loop
    vertex 6.428571 -0.248461 -0.237553
    vertex 5.142857 -0.248461 -0.237553
    vertex 6.428571 -0.202051 -0.278100
  endloop
endfacet
facet normal -0.000000 -0.052132 -0.059669
  outer loop
    vertex 6.428571 -0.202051 -0.278100
    vertex 5.142857 -0.248461 -0.237553
    vertex 5.142857 -0.202051 -0.278100
  endloop
endfacet
facet normal -0.000000 -0.040639 -0.068019
  outer loop
    vertex 6.428571 -0.202051 -0.278100
    vertex 5.142857 -0.202051 -0.278100
    vertex 6.428571 -0.149148 -0.309708
  endloop
endfacet
facet normal -0.000000 -0.040639 -0.068019
  outer loop
    vertex 6.428571 -0.149148 -0.309708
    vertex 5.142857 -0.202051 -0.278100
    vertex 5.142857 -0.149148 -0.309708
  endloop
endfacet
facet normal -0.000000 -0.027841 -0.074182
  outer loop
    vertex 6.428571 -0.149148 -0.309708
    vertex 5.142857 -0.149148 -0.309708
    vertex 6.428571 -0.091450 -0.331362
  endloop
endfacet
facet normal -0.000000 -0.027841 -0.074182
  outer loop
    vertex 6.428571 -0.091450 -0.331362
    vertex 5.142857 -0.149148 -0.309708
    vertex 5.142857 -0.091450 -0.331362
  endloop
endfacet
facet normal -0.000000 -0.014148 -0.077961
  outer loop
    vertex 6.428571 -0.091450 -0.331362
    vertex 5.142857 -0.091450 -0.331362
    vertex 6.428571 -0.030814 -0.342366
  endloop
endfacet
facet normal -0.000000 -0.014148 -0.077961
  outer loop
    vertex 6.428571 -0.030814 -0.342366
    vertex 5.142857 -0.091450 -0.331362
    vertex 5.142857 -0.030814 -0.342366
  endloop
endfacet
facet normal 0.000000 0.000000 -0.079235
  outer loop
    vertex 6.428571 -0.030814 -0.342366
    vertex 5.142857 -0.030814 -0.342366
    vertex 6.428571 0.030814 -0.342366
  endloop
endfacet
facet normal -0.000000 0.000000 -0.079235
  outer loop
    vertex 6.428571 0.030814 -0.342366
    vertex 5.142857 -0.030814 -0.342366
    vertex 5.142857 0.030814 -0.342366
  endloop
endfacet
facet normal 0.000000 0.014148 -0.077961
  outer loop
    vertex 6.428571 0.030814 -0.342366
    vertex 5.142857 0.030814 -0.342366
    vertex 6.428571 0.091450 -0.331362
  endloop
endfacet
facet normal 0.000000 0.014148 -0.077961
  outer loop
    vertex 6.428571 0.091450 -0.331362
    vertex 5.142857 0.030814 -0.342366
    vertex 5.142857 0.091450 -0.331362
  endloop
endfacet
facet normal 0.000000 0.027841 -0.074182
  outer loop
    vertex 6.428571 0.091450 -0.331362
    vertex 5.142857 0.091450 -0.331362
    vertex 6.428571 0.149148 -0.309708
  endloop
endfacet
facet normal 0.000000 0.027841 -0.074182
  outer loop
    vertex 6.428571 0.149148 -0.309708
    vertex 5.142857 0.091450 -0.331362
    vertex 5.142857 0.149148 -0.309708
  endloop
endfacet
facet normal 0.000000 0.040639 -0.068019
  outer loop
    vertex 6.428571 0.149148 -0.309708
    vertex 5.142857 0.149148 -0.309708
    vertex 6.428571 0.202051 -0.278100
  endloop
endfacet
facet normal 0.000000 0.040639 -0.068019
  outer loop
    vertex 6.428571 0.202051 -0.278100
    vertex 5.142857 0.149148 -0.309708
    vertex 5.142857 0.202051 -0.278100
  endloop
endfacet
facet normal 0.000000 0.052132 -0.059669
  outer loop
    vertex 6.428571 0.202051 -0.278100
    vertex 5.142857 0.202051 -0.278100
    vertex 6.428571 0.248461 -0.237553
  endloop
endfacet
facet normal 0.000000 0.052132 -0.059669
  outer loop
    vertex 6.428571 0.248461 -0.237553
    vertex 5.142857 0.202051 -0.278100
    vertex 5.142857 0.248461 -0.237553
  endloop
endfacet
facet normal 0.000000 0.061948 -0.049402
  outer loop
    vertex 6.428571 0.248461 -0.237553
    vertex 5.142857 0.248461 -0.237553
    vertex 6.428571 0.286885 -0.189371
  endloop
endfacet
facet normal 0.000000 0.061948 -0.049402
  outer loop
    vertex 6.428571 0.286885 -0.189371
    vertex 5.142857 0.248461 -0.237553
    vertex 5.142857 0.286885 -0.189371
  endloop
endfacet
facet normal 0.000000 0.069774 -0.037547
  outer loop
    vertex 6.428571 0.286885 -0.189371
    vertex 5.142857 0.286885 -0.189371
    vertex 6.428571 0.316088 -0.135102
  endloop
endfacet
facet normal -0.000000 -0.007103 0.078916
  outer loop
    vertex 7.714286 -0.000000 0.343750
    vertex 6.428571 0.000000 0.343750
    vertex 7.714286 -0.061379 0.338226
  endloop
endfacet
facet normal 0.000000 -0.007103 0.078916
  outer loop
    vertex 7.714286 -0.061379 0.338226
    vertex 6.428571 0.000000 0.343750
    vertex 6.428571 -0.061379 0.338226
  endloop
endfacet
facet normal 0.000000 -0.021079 0.076379
  outer loop
    vertex 7.714286 -0.061379 0.338226
    vertex 6.428571 -0.061379 0.338226
    vertex 7.714286 -0.120785 0.321831
  endloop
endfacet
facet normal 0.000000 -0.021079 0.076379
  outer loop
    vertex 7.714286 -0.120785 0.321831
    vertex 6.428571 -0.061379 0.338226
    vertex 6.428571 -0.120785 0.321831
  endloop
endfacet
facet normal 0.000000 -0.034379 0.071388
  outer loop
    vertex 7.714286 -0.120785 0.321831
    vertex 6.428571 -0.120785 0.321831
    vertex 7.714286 -0.176309 0.295092
  endloop
endfacet
facet normal 0.000000 -0.034379 0.071388
  outer loop
    vertex 7.714286 -0.176309 0.295092
    vertex 6.428571 -0.120785 0.321831
    vertex 6.428571 -0.176309 0.295092
  endloop
endfacet
facet normal 0.000000 -0.046573 0.064102
  outer loop
    vertex 7.714286 -0.176309 0.295092
    vertex 6.428571 -0.176309 0.295092
    vertex 7.714286 -0.226166 0.258868
  endloop
endfacet
facet normal 0.000000 -0.046573 0.064102
  outer loop
    vertex 7.714286 -0.226166 0.258868
    vertex 6.428571 -0.176309 0.295092
    vertex 6.428571 -0.226166 0.258868
  endloop
endfacet
facet normal 0.000000 -0.057270 0.054756
  outer loop
    vertex 7.714286 -0.226166 0.258868
    vertex 6.428571 -0.226166 0.258868
    vertex 7.714286 -0.268755 0.214325
  endloop
endfacet
facet normal 0.000000 -0.057270 0.054756
  outer loop
    vertex 7.714286 -0.268755 0.214325
    vertex 6.428571 -0.226166 0.258868
    vertex 6.428571 -0.268755 0.214325
  endloop
endfacet
facet normal 0.000000 -0.066127 0.043650
  outer loop
    vertex 7.714286 -0.268755 0.214325
    vertex 6.428571 -0.268755 0.214325
    vertex 7.714286 -0.302705 0.162892
  endloop
endfacet
facet normal 0.000000 -0.066127 0.043650
  outer loop
    vertex 7.714286 -0.302705 0.162892
    vertex 6.428571 -0.268755 0.214325
    vertex 6.428571 -0.302705 0.162892
  endloop
endfacet
facet normal 0.000000 -0.072859 0.031141
  outer loop
    vertex 7.714286 -0.302705 0.162892
    vertex 6.428571 -0.302705 0.162892
    vertex 7.714286 -0.326926 0.106225
  endloop
endfacet
facet normal 0.000000 -0.072859 0.031141
  outer loop
    vertex 7.714286 -0.326926 0.106225
    vertex 6.428571 -0.302705 0.162892
    vertex 6.428571 -0.326926 0.106225
  endloop
endfacet
facet normal 0.000000 -0.077248 0.017631
  outer loop
    vertex 7.714286 -0.326926 0.106225
    vertex 6.428571 -0.326926 0.106225
    vertex 7.714286 -0.340639 0.046143
  endloop
endfacet
facet normal 0.000000 -0.077248 0.017631
  outer loop
    vertex 7.714286 -0.340639 0.046143
    vertex 6.428571 -0.326926 0.106225
    vertex 6.428571 -0.340639 0.046143
  endloop
endfacet
facet normal 0.000000 -0.079155 0.003555
  outer loop
    vertex 7.714286 -0.340639 0.046143
    vertex 6.428571 -0.340639 0.046143
    vertex 7.714286 -0.343404 -0.015422
  endloop
endfacet
facet normal 0.000000 -0.079155 0.003555
  outer loop
    vertex 7.714286 -0.343404 -0.015422
    vertex 6.428571 -0.340639 0.046143
    vertex 6.428571 -0.343404 -0.015422
  endloop
endfacet
facet normal -0.000000 -0.078518 -0.010636
  outer loop
    vertex 7.714286 -0.343404 -0.015422
    vertex 6.428571 -0.343404 -0.015422
    vertex 7.714286 -0.335131 -0.076492
  endloop
endfacet
facet normal -0.000000 -0.078518 -0.010636
  outer loop
    vertex 7.714286 -0.335131 -0.076492
    vertex 6.428571 -0.343404 -0.015422
    vertex 6.428571 -0.335131 -0.076492
  endloop
endfacet
facet normal -0.000000 -0.075357 -0.024485
  outer loop
    vertex 7.714286 -0.335131 -0.076492
    vertex 6.428571 -0.335131 -0.076492
    vertex 7.714286 -0.316088 -0.135102
  endloop
endfacet
facet normal -0.000000 -0.075357 -0.024485
  outer loop
    vertex 7.714286 -0.316088 -0.135102
    vertex 6.428571 -0.335131 -0.076492
    vertex 6.428571 -0.316088 -0.135102
  endloop
endfacet
facet normal -0.000000 -0.069774 -0.037547
  outer loop
    vertex 7.714286 -0.316088 -0.135102
    vertex 6.428571 -0.316088 -0.135102
    vertex 7.714286 -0.286885 -0.189371
  endloop
endfacet
facet normal -0.000000 -0.069774 -0.037547
  outer loop
    vertex 7.714286 -0.286885 -0.189371
    vertex 6.428571 -0.316088 -0.135102
    vertex 6.428571 -0.286885 -0.189371
  endloop
endfacet
facet normal -0.000000 -0.061948 -0.049402
  outer loop
    vertex 7.714286 -0.286885 -0.189371
    vertex 6.428571 -0.286885 -0.189371
    vertex 7.714286 -0.248461 -0.237553
  endloop
endfacet
facet normal -0.000000 -0.061948 -0.049402
  outer loop
    vertex 7.714286 -0.248461 -0.237553
    vertex 6.428571 -0.286885 -0.189371
    vertex 6.428571 -0.248461 -0.237553
  endloop
endfacet
facet normal -0.000000 -0.052132 -0.059669
  outer loop
    vertex 7.714286 -0.248461 -0.237553
    vertex 6.428571 -0.248461 -0.237553
    vertex 7.714286 -0.202051 -0.278100
  endloop
endfacet
facet normal -0.000000 -0.052132 -0.059669
  outer loop
    vertex 7.714286 -0.202051 -0.278100
    vertex 6.428571 -0.248461 -0.237553
    vertex 6.428571 -0.202051 -0.278100
  endloop
endfacet
facet normal -0.000000 -0.040639 -0.068019
  outer loop
    vertex 7.714286 -0.202051 -0.278100
    vertex 6.428571 -0.202051 -0.278100
    vertex 7.714286 -0.149148 -0.309708
  endloop
endfacet
facet normal -0.000000 -0.040639 -0.068019
  outer loop
    vertex 7.714286 -0.149148 -0.309708
    vertex 6.428571 -0.202051 -0.278100
    vertex 6.428571 -0.149148 -0.309708
  endloop
endfacet
facet normal -0.000000 -0.027841 -0.074182
  outer loop
    vertex 7.714286 -0.149148 -0.309708
    vertex 6.428571 -0.149148 -0.309708
    vertex 7.714286 -0.091450 -0.331362
  endloop
endfacet
facet normal -0.000000 -0.027841 -0.074182
  outer loop
    vertex 7.714286 -0.091450 -0.331362
    vertex 6.428571 -0.149148 -0.309708
    vertex 6.428571 -0.091450 -0.331362
  endloop
endfacet
facet normal -0.000000 -0.014148 -0.077961
  outer loop
    vertex 7.714286 -0.091450 -0.331362
    vertex 6.428571 -0.091450 -0.331362
    vertex 7.714286 -0.030814 -0.342366
  endloop
endfacet
facet normal -0.000000 -0.014148 -0.077961
  outer loop
    vertex 7.714286 -0.030814 -0.342366
    vertex 6.428571 -0.091450 -0.331362
    vertex 6.428571 -0.030814 -0.342366
  endloop
endfacet
facet normal 0.000000 0.000000 -0.079235
  outer loop
    vertex 7.714286 -0.030814 -0.342366
    vertex 6.428571 -0.030814 -0.342366
    vertex 7.714286 0.030814 -0.342366
  endloop
endfacet
facet normal -0.000000 0.000000 -0.079235
  outer loop
    vertex 7.714286 0.030814 -0.342366
    vertex 6.428571 -0.030814 -0.342366
    vertex 6.428571 0.030814 -0.342366
  endloop
endfacet
facet normal 0.000000 0.014148 -0.077961
  outer loop
    vertex 7.714286 0.030814 -0.342366
    vertex 6.428571 0.030814 -0.342366
    vertex 7.714286 0.091450 -0.331362
  endloop
endfacet
facet normal 0.000000 0.014148 -0.077961
  outer loop
    vertex 7.714286 0.091450 -0.331362
    vertex 6.428571 0.030814 -0.342366
    vertex 6.428571 0.091450 -0.331362
  endloop
endfacet
facet normal 0.000000 0.027841 -0.074182
  outer loop
    vertex 7.714286 0.091450 -0.331362
    vertex 6.428571 0.091450 -0.331362
    vertex 7.714286 0.149148 -0.309708
  endloop
endfacet
facet normal 0.000000 0.027841 -0.074182
  outer loop
    vertex 7.714286 0.149148 -0.309708
    vertex 6.428571 0.091450 -0.331362
    vertex 6.428571 0.149148 -0.309708
  endloop
endfacet
facet normal 0.000000 0.040639 -0.068019
  outer loop
    vertex 7.714286 0.149148 -0.309708
    vertex 6.428571 0.149148 -0.309708
    vertex 7.714286 0.202051 -0.278100
  endloop
endfacet
facet normal 0.000000 0.040639 -0.068019
  outer loop
    vertex 7.714286 0.202051 -0.278100
    vertex 6.428571 0.149148 -0.309708
    vertex 6.428571 0.202051 -0.278100
  endloop
endfacet
facet normal 0.000000 0.052132 -0.059669
  outer loop
    vertex 7.714286 0.202051 -0.278100
    vertex 6.428571 0.202051 -0.278100
    vertex 7.714286 0.248461 -0.237553
  endloop
endfacet
facet normal 0.000000 0.052132 -0.059669
  outer loop
    vertex 7.714286 0.248461 -0.237553
    vertex 6.428571 0.202051 -0.278100
    vertex 6.428571 0.248461 -0.237553
  endloop
endfacet
facet normal 0.000000 0.061948 -0.049402
  outer loop
    vertex 7.714286 0.248461 -0.237553
    vertex 6.428571 0.248461 -0.237553
    vertex 7.714286 0.286885 -0.189371
  endloop
endfacet
facet normal 0.000000 0.061948 -0.049402
  outer loop
    vertex 7.714286 0.286885 -0.189371
    vertex 6.428571 0.248461 -0.237553
    vertex 6.428571 0.286885 -0.189371
  endloop
endfacet
facet normal 0.000000 0.069774 -0.037547
  outer loop
    vertex 7.714286 0.286885 -0.189371
    vertex 6.428571 0.286885 -0.189371
    vertex 7.714286 0.316088 -0.135102
  endloop
endfacet
facet normal 0.000000 0.069774 -0.037547
  outer loop
    vertex 7.714286 0.316088 -0.135102
    vertex 6.428571 0.286885 -0.189371
    vertex 6.428571 0.316088 -0.135102
  endloop
endfacet
facet normal 0.000000 0.000000 -0.726470
  outer loop
    vertex 0.000000 0.330719 0.093750
    vertex 9.000000 0.330719 0.093750
    vertex 0.000000 0.250000 0.093750
  endloop
endfacet
facet normal 0.000000 0.000000 -0.726470
  outer loop
    vertex 0.000000 0.250000 0.093750
    vertex 9.000000 0.330719 0.093750
    vertex 9.000000 0.250000 0.093750
  endloop
endfacet
facet normal 0.004634 0.000000 0.000000
  outer loop
    vertex 9.000000 0.330719 0.093750
    vertex 9.000000 0.308730 0.151162
    vertex 9.000000 0.250000 0.093750
  endloop
endfacet
facet normal 0.004917 0.000000 0.000000
  outer loop
    vertex 9.000000 0.250000 0.093750
    vertex 9.000000 0.308730 0.151162
    vertex 9.000000 0.276866 0.203738
  endloop
endfacet
facet normal 0.005716 0.000000 -0.000000
  outer loop
    vertex 9.000000 0.250000 0.093750
    vertex 9.000000 0.276866 0.203738
    vertex 9.000000 0.236147 0.249798
  endloop
endfacet
facet normal 0.007006 0.000000 0.000000
  outer loop
    vertex 9.000000 0.236147 0.249798
    vertex 9.000000 0.187873 0.287867
    vertex 9.000000 0.250000 0.093750
  endloop
endfacet
facet normal 0.008744 0.000000 0.000000
  outer loop
    vertex 9.000000 0.250000 0.093750
    vertex 9.000000 0.187873 0.287867
    vertex 9.000000 0.133591 0.316729
  endloop
endfacet
facet normal 0.010876 0.000000 0.000000
  outer loop
    vertex 9.000000 0.250000 0.093750
    vertex 9.000000 0.133591 0.316729
    vertex 9.000000 0.075036 0.335460
  endloop
endfacet
facet normal 0.013334 0.000000 0.000000
  outer loop
    vertex 9.000000 0.075036 0.335460
    vertex 9.000000 0.014080 0.343462
    vertex 9.000000 0.250000 0.093750
  endloop
endfacet
facet normal 0.016038 0.000000 0.000000
  outer loop
    vertex 9.000000 0.250000 0.093750
    vertex 9.000000 0.014080 0.343462
    vertex 9.000000 -0.047326 0.340477
  endloop
endfacet
facet normal 0.018902 0.000000 0.000000
  outer loop
    vertex 9.000000 0.250000 0.093750
    vertex 9.000000 -0.047326 0.340477
    vertex 9.000000 -0.107218 0.326601
  endloop
endfacet
facet normal 0.021836 0.000000 0.000000
  outer loop
    vertex 9.000000 -0.107218 0.326601
    vertex 9.000000 -0.163680 0.302279
    vertex 9.000000 0.250000 0.093750
  endloop
endfacet
facet normal 0.250094 0.000000 0.000000
  outer loop
    vertex 9.000000 0.250000 0.093750
    vertex 9.000000 -0.163680 0.302279
    vertex 9.000000 -0.163680 -0.302279
  endloop
endfacet
facet normal 0.077565 0.000000 0.000000
  outer loop
    vertex 9.000000 0.250000 0.093750
    vertex 9.000000 -0.163680 -0.302279
    vertex 9.000000 0.250000 -0.093750
  endloop
endfacet
facet normal 0.021836 0.000000 0.000000
  outer loop
    vertex 9.000000 0.250000 -0.093750
    vertex 9.000000 -0.163680 -0.302279
    vertex 9.000000 -0.107218 -0.326601
  endloop
endfacet
facet normal 0.018902 0.000000 0.000000
  outer loop
    vertex 9.000000 0.250000 -0.093750
    vertex 9.000000 -0.107218 -0.326601
    vertex 9.000000 -0.047326 -0.340477
  endloop
endfacet
facet normal 0.030970 0.000000 -0.000000
  outer loop
    vertex 9.000000 -0.163680 -0.302279
    vertex 9.000000 -0.163680 0.302279
    vertex 9.000000 -0.214908 -0.268289
  endloop
endfacet
facet normal 0.027487 0.000000 0.000000
  outer loop
    vertex 9.000000 -0.214908 -0.268289
    vertex 9.000000 -0.163680 0.302279
    vertex 9.000000 -0.214908 0.268289
  endloop
endfacet
facet normal 0.023799 0.000000 -0.000000
  outer loop
    vertex 9.000000 -0.214908 -0.268289
    vertex 9.000000 -0.214908 0.268289
    vertex 9.000000 -0.259261 -0.225716
  endloop
endfacet
facet normal 0.020022 0.000000 0.000000
  outer loop
    vertex 9.000000 -0.259261 -0.225716
    vertex 9.000000 -0.214908 0.268289
    vertex 9.000000 -0.259261 0.225716
  endloop
endfacet
facet normal 0.016279 0.000000 -0.000000
  outer loop
    vertex 9.000000 -0.259261 -0.225716
    vertex 9.000000 -0.259261 0.225716
    vertex 9.000000 -0.295321 -0.175925
  endloop
endfacet
facet normal 0.012688 0.000000 0.000000
  outer loop
    vertex 9.000000 -0.295321 -0.175925
    vertex 9.000000 -0.259261 0.225716
    vertex 9.000000 -0.295321 0.175925
  endloop
endfacet
facet normal 0.009364 0.000000 -0.000000
  outer loop
    vertex 9.000000 -0.295321 -0.175925
    vertex 9.000000 -0.295321 0.175925
    vertex 9.000000 -0.321936 -0.120506
  endloop
endfacet
facet normal 0.006414 0.000000 0.000000
  outer loop
    vertex 9.000000 -0.321936 -0.120506
    vertex 9.000000 -0.295321 0.175925
    vertex 9.000000 -0.321936 0.120506
  endloop
endfacet
facet normal 0.003933 0.000000 -0.000000
  outer loop
    vertex 9.000000 -0.321936 -0.120506
    vertex 9.000000 -0.321936 0.120506
    vertex 9.000000 -0.338252 -0.061232
  endloop
endfacet
facet normal 0.001998 0.000000 0.000000
  outer loop
    vertex 9.000000 -0.338252 -0.061232
    vertex 9.000000 -0.321936 0.120506
    vertex 9.000000 -0.338252 0.061232
  endloop
endfacet
facet normal 0.000673 0.000000 -0.000000
  outer loop
    vertex 9.000000 -0.338252 -0.061232
    vertex 9.000000 -0.338252 0.061232
    vertex 9.000000 -0.343750 0.000000
  endloop
endfacet
facet normal 0.016038 -0.000000 0.000000
  outer loop
    vertex 9.000000 -0.047326 -0.340477
    vertex 9.000000 0.014080 -0.343462
    vertex 9.000000 0.250000 -0.093750
  endloop
endfacet
facet normal 0.013334 0.000000 0.000000
  outer loop
    vertex 9.000000 0.250000 -0.093750
    vertex 9.000000 0.014080 -0.343462
    vertex 9.000000 0.075036 -0.335460
  endloop
endfacet
facet normal 0.010876 0.000000 0.000000
  outer loop
    vertex 9.000000 0.250000 -0.093750
    vertex 9.000000 0.075036 -0.335460
    vertex 9.000000 0.133591 -0.316729
  endloop
endfacet
facet normal 0.008744 0.000000 0.000000
  outer loop
    vertex 9.000000 0.133591 -0.316729
    vertex 9.000000 0.187873 -0.287867
    vertex 9.000000 0.250000 -0.093750
  endloop
endfacet
facet normal 0.007006 0.000000 0.000000
  outer loop
    vertex 9.000000 0.250000 -0.093750
    vertex 9.000000 0.187873 -0.287867
    vertex 9.000000 0.236147 -0.249798
  endloop
endfacet
facet normal 0.005716 0.000000 0.000000
  outer loop
    vertex 9.000000 0.250000 -0.093750
    vertex 9.000000 0.236147 -0.249798
    vertex 9.000000 0.276866 -0.203738
  endloop
endfacet
facet normal 0.004917 0.000000 -0.000000
  outer loop
    vertex 9.000000 0.276866 -0.203738
    vertex 9.000000 0.308730 -0.151162
    vertex 9.000000 0.250000 -0.093750
  endloop
endfacet
facet normal 0.004634 -0.000000 0.000000
  outer loop
    vertex 9.000000 0.250000 -0.093750
    vertex 9.000000 0.308730 -0.151162
    vertex 9.000000 0.330719 -0.093750
  endloop
endfacet
facet normal -0.004634 0.000000 0.000000
  outer loop
    vertex 0.000000 0.330719 0.093750
    vertex 0.000000 0.250000 0.093750
    vertex 0.000000 0.308730 0.151162
  endloop
endfacet
facet normal -0.004917 -0.000000 0.000000
  outer loop
    vertex 0.000000 0.308730 0.151162
    vertex 0.000000 0.250000 0.093750
    vertex 0.000000 0.276866 0.203738
  endloop
endfacet
facet normal -0.005716 -0.000000 0.000000
  outer loop
    vertex 0.000000 0.276866 0.203738
    vertex 0.000000 0.250000 0.093750
    vertex 0.000000 0.236147 0.249798
  endloop
endfacet
facet normal -0.007006 -0.000000 -0.000000
  outer loop
    vertex 0.000000 0.236147 0.249798
    vertex 0.000000 0.250000 0.093750
    vertex 0.000000 0.187873 0.287867
  endloop
endfacet
facet normal -0.008744 -0.000000 -0.000000
  outer loop
    vertex 0.000000 0.187873 0.287867
    vertex 0.000000 0.250000 0.093750
    vertex 0.000000 0.133591 0.316729
  endloop
endfacet
facet normal -0.010876 -0.000000 -0.000000
  outer loop
    vertex 0.000000 0.133591 0.316729
    vertex 0.000000 0.250000 0.093750
    vertex 0.000000 0.075036 0.335460
  endloop
endfacet
facet normal -0.013334 -0.000000 -0.000000
  outer loop
    vertex 0.000000 0.075036 0.335460
    vertex 0.000000 0.250000 0.093750
    vertex 0.000000 0.014080 0.343462
  endloop
endfacet
facet normal -0.016038 0.000000 -0.000000
  outer loop
    vertex 0.000000 0.014080 0.343462
    vertex 0.000000 0.250000 0.093750
    vertex 0.000000 -0.047326 0.340477
  endloop
endfacet
facet normal -0.018902 0.000000 -0.000000
  outer loop
    vertex 0.000000 -0.047326 0.340477
    vertex 0.000000 0.250000 0.093750
    vertex 0.000000 -0.107218 0.326601
  endloop
endfacet
facet normal -0.021836 0.000000 -0.000000
  outer loop
    vertex 0.000000 -0.107218 0.326601
    vertex 0.000000 0.250000 0.093750
    vertex 0.000000 -0.163680 0.302279
  endloop
endfacet
facet normal -0.077565 0.000000 0.000000
  outer loop
    vertex 0.000000 -0.163680 0.302279
    vertex 0.000000 0.250000 0.093750
    vertex 0.000000 0.250000 -0.093750
  endloop
endfacet
facet normal -0.250094 0.000000 0.000000
  outer loop
    vertex 0.000000 -0.163680 0.302279
    vertex 0.000000 0.250000 -0.093750
    vertex 0.000000 -0.163680 -0.302279
  endloop
endfacet
facet normal -0.021836 0.000000 0.000000
  outer loop
    vertex 0.000000 -0.163680 -0.302279
    vertex 0.000000 0.250000 -0.093750
    vertex 0.000000 -0.107218 -0.326601
  endloop
endfacet
facet normal -0.018902 0.000000 0.000000
  outer loop
    vertex 0.000000 -0.107218 -0.326601
    vertex 0.000000 0.250000 -0.093750
    vertex 0.000000 -0.047326 -0.340477
  endloop
endfacet
facet normal -0.016038 0.000000 0.000000
  outer loop
    vertex 0.000000 -0.047326 -0.340477
    vertex 0.000000 0.250000 -0.093750
    vertex 0.000000 0.014080 -0.343462
  endloop
endfacet
facet normal -0.013334 0.000000 0.000000
  outer loop
    vertex 0.000000 0.014080 -0.343462
    vertex 0.000000 0.250000 -0.093750
    vertex 0.000000 0.075036 -0.335460
  endloop
endfacet
facet normal -0.010876 0.000000 0.000000
  outer loop
    vertex 0.000000 0.075036 -0.335460
    vertex 0.000000 0.250000 -0.093750
    vertex 0.000000 0.133591 -0.316729
  endloop
endfacet
facet normal -0.008744 0.000000 0.000000
  outer loop
    vertex 0.000000 0.133591 -0.316729
    vertex 0.000000 0.250000 -0.093750
    vertex 0.000000 0.187873 -0.287867
  endloop
endfacet
facet normal -0.007006 0.000000 0.000000
  outer loop
    vertex 0.000000 0.187873 -0.287867
    vertex 0.000000 0.250000 -0.093750
    vertex 0.000000 0.236147 -0.249798
  endloop
endfacet
facet normal -0.005716 0.000000 0.000000
  outer loop
    vertex 0.000000 0.236147 -0.249798
    vertex 0.000000 0.250000 -0.093750
    vertex 0.000000 0.276866 -0.203738
  endloop
endfacet
facet normal -0.004917 0.000000 0.000000
  outer loop
    vertex 0.000000 0.276866 -0.203738
    vertex 0.000000 0.250000 -0.093750
    vertex 0.000000 0.308730 -0.151162
  endloop
endfacet
facet normal -0.004634 0.000000 0.000000
  outer loop
    vertex 0.000000 0.308730 -0.151162
    vertex 0.000000 0.250000 -0.093750
    vertex 0.000000 0.330719 -0.093750
  endloop
endfacet
facet normal -0.030970 0.000000 -0.000000
  outer loop
    vertex 0.000000 -0.163680 0.302279
    vertex 0.000000 -0.163680 -0.302279
    vertex 0.000000 -0.214908 0.268289
  endloop
endfacet
facet normal -0.027487 0.000000 0.000000
  outer loop
    vertex 0.000000 -0.214908 0.268289
    vertex 0.000000 -0.163680 -0.302279
    vertex 0.000000 -0.214908 -0.268289
  endloop
endfacet
facet normal -0.023799 0.000000 -0.000000
  outer loop
    vertex 0.000000 -0.214908 0.268289
    vertex 0.000000 -0.214908 -0.268289
    vertex 0.000000 -0.259261 0.225716
  endloop
endfacet
facet normal -0.020022 0.000000 0.000000
  outer loop
    vertex 0.000000 -0.259261 0.225716
    vertex 0.000000 -0.214908 -0.268289
    vertex 0.000000 -0.259261 -0.225716
  endloop
endfacet
facet normal -0.016279 0.000000 -0.000000
  outer loop
    vertex 0.000000 -0.259261 0.225716
    vertex 0.000000 -0.259261 -0.225716
    vertex 0.000000 -0.295321 0.175925
  endloop
endfacet
facet normal -0.012688 0.000000 0.000000
  outer loop
    vertex 0.000000 -0.295321 0.175925
    vertex 0.000000 -0.259261 -0.225716
    vertex 0.000000 -0.295321 -0.175925
  endloop
endfacet
facet normal -0.009364 0.000000 -0.000000
  outer loop
    vertex 0.000000 -0.295321 0.175925
    vertex 0.000000 -0.295321 -0.175925
    vertex 0.000000 -0.321936 0.120506
  endloop
endfacet
facet normal -0.006414 0.000000 0.000000
  outer loop
    vertex 0.000000 -0.321936 0.120506
    vertex 0.000000 -0.295321 -0.175925
    vertex 0.000000 -0.321936 -0.120506
  endloop
endfacet
facet normal -0.003933 0.000000 -0.000000
  outer loop
    vertex 0.000000 -0.321936 0.120506
    vertex 0.000000 -0.321936 -0.120506
    vertex 0.000000 -0.338252 0.061232
  endloop
endfacet
facet normal -0.001998 0.000000 0.000000
  outer loop
    vertex 0.000000 -0.338252 0.061232
    vertex 0.000000 -0.321936 -0.120506
    vertex 0.000000 -0.338252 -0.061232
  endloop
endfacet
facet normal -0.000673 0.000000 -0.000000
  outer loop
    vertex 0.000000 -0.338252 0.061232
    vertex 0.000000 -0.338252 -0.061232
    vertex 0.000000 -0.343750 0.000000
  endloop
endfacet
endsolid a086284d-5dec-4253-9c48-953fc9ca5252-ascii.stl
