solid dee7547d-a902-49fc-862a-52a746a12e8b-ascii.stl
facet normal -0.000000 4.500000 0.000000
  outer loop
    vertex 0.000000 0.625000 0.187500
    vertex 12.000000 0.625000 0.187500
    vertex 0.000000 0.625000 -0.187500
  endloop
endfacet
facet normal 0.000000 4.500000 0.000000
  outer loop
    vertex 0.000000 0.625000 -0.187500
    vertex 12.000000 0.625000 0.187500
    vertex 12.000000 0.625000 -0.187500
  endloop
endfacet
facet normal 0.000000 0.000000 1.986833
  outer loop
    vertex 0.000000 0.625000 -0.187500
    vertex 12.000000 0.625000 -0.187500
    vertex 0.000000 0.790569 -0.187500
  endloop
endfacet
facet normal -0.000000 0.000000 1.986833
  outer loop
    vertex 0.000000 0.790569 -0.187500
    vertex 12.000000 0.625000 -0.187500
    vertex 12.000000 0.790569 -0.187500
  endloop
endfacet
facet normal -0.000129 0.251799 0.078032
  outer loop
    vertex 0.000000 0.758056 0.292416
    vertex 2.400000 0.765587 0.272090
    vertex 0.000000 0.790569 0.187500
  endloop
endfacet
facet normal 0.000000 0.203015 0.059958
  outer loop
    vertex 0.000000 0.790569 0.187500
    vertex 2.400000 0.765587 0.272090
    vertex 4.800000 0.765587 0.272090
  endloop
endfacet
facet normal 0.000000 0.203015 0.059958
  outer loop
    vertex 0.000000 0.790569 0.187500
    vertex 4.800000 0.765587 0.272090
    vertex 7.200000 0.765587 0.272090
  endloop
endfacet
facet normal 0.000000 0.244112 0.106032
  outer loop
    vertex 7.200000 0.765587 0.272090
    vertex 4.800000 0.765587 0.272090
    vertex 7.200000 0.721407 0.373803
  endloop
endfacet
facet normal 0.000000 0.244112 0.106033
  outer loop
    vertex 7.200000 0.765587 0.272090
    vertex 7.200000 0.721407 0.373803
    vertex 9.600000 0.721407 0.373803
  endloop
endfacet
facet normal 0.000000 0.227400 0.138285
  outer loop
    vertex 9.600000 0.721407 0.373803
    vertex 7.200000 0.721407 0.373803
    vertex 9.600000 0.663788 0.468553
  endloop
endfacet
facet normal -0.000127 0.227400 0.138285
  outer loop
    vertex 9.600000 0.721407 0.373803
    vertex 9.600000 0.663788 0.468553
    vertex 12.000000 0.711689 0.391989
  endloop
endfacet
facet normal 0.000119 0.221781 0.142497
  outer loop
    vertex 12.000000 0.711689 0.391989
    vertex 9.600000 0.663788 0.468553
    vertex 12.000000 0.652315 0.484398
  endloop
endfacet
facet normal -0.000122 0.206452 0.167961
  outer loop
    vertex 12.000000 0.652315 0.484398
    vertex 9.600000 0.663788 0.468553
    vertex 9.600000 0.593804 0.554574
  endloop
endfacet
facet normal 0.000114 0.200535 0.171108
  outer loop
    vertex 12.000000 0.652315 0.484398
    vertex 9.600000 0.593804 0.554574
    vertex 12.000000 0.581020 0.567954
  endloop
endfacet
facet normal -0.000117 0.181658 0.194509
  outer loop
    vertex 12.000000 0.581020 0.567954
    vertex 9.600000 0.593804 0.554574
    vertex 9.600000 0.512759 0.630265
  endloop
endfacet
facet normal 0.000109 0.175624 0.196592
  outer loop
    vertex 12.000000 0.581020 0.567954
    vertex 9.600000 0.512759 0.630265
    vertex 12.000000 0.499107 0.641130
  endloop
endfacet
facet normal -0.000111 0.153481 0.217433
  outer loop
    vertex 12.000000 0.499107 0.641130
    vertex 9.600000 0.512759 0.630265
    vertex 9.600000 0.422162 0.694216
  endloop
endfacet
facet normal 0.000104 0.147503 0.218483
  outer loop
    vertex 12.000000 0.499107 0.641130
    vertex 9.600000 0.422162 0.694216
    vertex 12.000000 0.408073 0.702590
  endloop
endfacet
facet normal -0.000106 0.122444 0.236307
  outer loop
    vertex 12.000000 0.408073 0.702590
    vertex 9.600000 0.422162 0.694216
    vertex 9.600000 0.323701 0.745234
  endloop
endfacet
facet normal 0.000098 0.116687 0.236381
  outer loop
    vertex 12.000000 0.408073 0.702590
    vertex 9.600000 0.323701 0.745234
    vertex 12.000000 0.309580 0.751210
  endloop
endfacet
facet normal -0.000100 0.089127 0.250778
  outer loop
    vertex 12.000000 0.309580 0.751210
    vertex 9.600000 0.323701 0.745234
    vertex 9.600000 0.219210 0.782370
  endloop
endfacet
facet normal 0.000092 0.083739 0.249960
  outer loop
    vertex 12.000000 0.309580 0.751210
    vertex 9.600000 0.219210 0.782370
    vertex 12.000000 0.205431 0.786101
  endloop
endfacet
facet normal -0.000094 0.054149 0.260579
  outer loop
    vertex 12.000000 0.205431 0.786101
    vertex 9.600000 0.219210 0.782370
    vertex 9.600000 0.110635 0.804932
  endloop
endfacet
facet normal 0.000086 0.049259 0.258970
  outer loop
    vertex 12.000000 0.205431 0.786101
    vertex 9.600000 0.110635 0.804932
    vertex 12.000000 0.097526 0.806626
  endloop
endfacet
facet normal -0.000088 0.018162 0.265525
  outer loop
    vertex 12.000000 0.097526 0.806626
    vertex 9.600000 0.110635 0.804932
    vertex 9.600000 -0.000000 0.812500
  endloop
endfacet
facet normal 0.000080 0.013880 0.263248
  outer loop
    vertex 12.000000 0.097526 0.806626
    vertex 9.600000 -0.000000 0.812500
    vertex 12.000000 -0.012160 0.812409
  endloop
endfacet
facet normal -0.000082 -0.018162 0.265525
  outer loop
    vertex 12.000000 -0.012160 0.812409
    vertex 9.600000 -0.000000 0.812500
    vertex 9.600000 -0.110635 0.804932
  endloop
endfacet
facet normal 0.000074 -0.021753 0.262714
  outer loop
    vertex 12.000000 -0.012160 0.812409
    vertex 9.600000 -0.110635 0.804932
    vertex 12.000000 -0.121625 0.803345
  endloop
endfacet
facet normal -0.000076 -0.054149 0.260579
  outer loop
    vertex 12.000000 -0.121625 0.803345
    vertex 9.600000 -0.110635 0.804932
    vertex 9.600000 -0.219210 0.782370
  endloop
endfacet
facet normal 0.000068 -0.056988 0.257380
  outer loop
    vertex 12.000000 -0.121625 0.803345
    vertex 9.600000 -0.219210 0.782370
    vertex 12.000000 -0.228866 0.779600
  endloop
endfacet
facet normal -0.000069 -0.089127 0.250778
  outer loop
    vertex 12.000000 -0.228866 0.779600
    vertex 9.600000 -0.219210 0.782370
    vertex 9.600000 -0.323701 0.745234
  endloop
endfacet
facet normal 0.000061 -0.091182 0.247342
  outer loop
    vertex 12.000000 -0.228866 0.779600
    vertex 9.600000 -0.323701 0.745234
    vertex 12.000000 -0.331925 0.741608
  endloop
endfacet
facet normal -0.000063 -0.122444 0.236307
  outer loop
    vertex 12.000000 -0.331925 0.741608
    vertex 9.600000 -0.323701 0.745234
    vertex 9.600000 -0.422162 0.694216
  endloop
endfacet
facet normal 0.000055 -0.123710 0.232783
  outer loop
    vertex 12.000000 -0.331925 0.741608
    vertex 9.600000 -0.422162 0.694216
    vertex 12.000000 -0.428918 0.690062
  endloop
endfacet
facet normal -0.000056 -0.153481 0.217433
  outer loop
    vertex 12.000000 -0.428918 0.690062
    vertex 9.600000 -0.422162 0.694216
    vertex 9.600000 -0.512759 0.630265
  endloop
endfacet
facet normal 0.000048 -0.153976 0.213970
  outer loop
    vertex 12.000000 -0.428918 0.690062
    vertex 9.600000 -0.512759 0.630265
    vertex 12.000000 -0.518072 0.625905
  endloop
endfacet
facet normal -0.000049 -0.181658 0.194509
  outer loop
    vertex 12.000000 -0.518072 0.625905
    vertex 9.600000 -0.512759 0.630265
    vertex 9.600000 -0.593804 0.554574
  endloop
endfacet
facet normal 0.000041 -0.181429 0.191247
  outer loop
    vertex 12.000000 -0.518072 0.625905
    vertex 9.600000 -0.593804 0.554574
    vertex 12.000000 -0.597759 0.550310
  endloop
endfacet
facet normal -0.000042 -0.206452 0.167961
  outer loop
    vertex 12.000000 -0.597759 0.550310
    vertex 9.600000 -0.593804 0.554574
    vertex 9.600000 -0.663788 0.468553
  endloop
endfacet
facet normal 0.000034 -0.205566 0.165029
  outer loop
    vertex 12.000000 -0.597759 0.550310
    vertex 9.600000 -0.663788 0.468553
    vertex 12.000000 -0.666521 0.464657
  endloop
endfacet
facet normal -0.000034 -0.227400 0.138285
  outer loop
    vertex 12.000000 -0.666521 0.464657
    vertex 9.600000 -0.663788 0.468553
    vertex 9.600000 -0.721407 0.373803
  endloop
endfacet
facet normal 0.000027 -0.225946 0.135795
  outer loop
    vertex 12.000000 -0.666521 0.464657
    vertex 9.600000 -0.721407 0.373803
    vertex 12.000000 -0.723102 0.370513
  endloop
endfacet
facet normal -0.000027 -0.244112 0.106032
  outer loop
    vertex 12.000000 -0.723102 0.370513
    vertex 9.600000 -0.721407 0.373803
    vertex 9.600000 -0.765587 0.272090
  endloop
endfacet
facet normal 0.000019 -0.242197 0.104079
  outer loop
    vertex 12.000000 -0.723102 0.370513
    vertex 9.600000 -0.765587 0.272090
    vertex 12.000000 -0.766468 0.269597
  endloop
endfacet
facet normal -0.000020 -0.256276 0.071805
  outer loop
    vertex 12.000000 -0.766468 0.269597
    vertex 9.600000 -0.765587 0.272090
    vertex 9.600000 -0.795506 0.165308
  endloop
endfacet
facet normal 0.000012 -0.254022 0.070461
  outer loop
    vertex 12.000000 -0.766468 0.269597
    vertex 9.600000 -0.795506 0.165308
    vertex 12.000000 -0.795827 0.163755
  endloop
endfacet
facet normal -0.000012 -0.264932 0.036326
  outer loop
    vertex 12.000000 -0.795827 0.163755
    vertex 9.600000 -0.795506 0.165308
    vertex 9.600000 -0.810642 0.054919
  endloop
endfacet
facet normal 0.000000 -0.261205 0.035555
  outer loop
    vertex 12.000000 -0.795827 0.163755
    vertex 9.600000 -0.810642 0.054919
    vertex 12.000000 -0.810642 0.054919
  endloop
endfacet
facet normal -0.000000 -0.263613 -0.000000
  outer loop
    vertex 12.000000 -0.810642 0.054919
    vertex 9.600000 -0.810642 0.054919
    vertex 12.000000 -0.810642 -0.054919
  endloop
endfacet
facet normal 0.000000 -0.263613 0.000000
  outer loop
    vertex 12.000000 -0.810642 -0.054919
    vertex 9.600000 -0.810642 0.054919
    vertex 9.600000 -0.810642 -0.054919
  endloop
endfacet
facet normal -0.000000 -0.261205 -0.035555
  outer loop
    vertex 12.000000 -0.810642 -0.054919
    vertex 9.600000 -0.810642 -0.054919
    vertex 12.000000 -0.795827 -0.163755
  endloop
endfacet
facet normal -0.000012 -0.264932 -0.036326
  outer loop
    vertex 12.000000 -0.795827 -0.163755
    vertex 9.600000 -0.810642 -0.054919
    vertex 9.600000 -0.795506 -0.165308
  endloop
endfacet
facet normal 0.000012 -0.254022 -0.070461
  outer loop
    vertex 12.000000 -0.795827 -0.163755
    vertex 9.600000 -0.795506 -0.165308
    vertex 12.000000 -0.766468 -0.269597
  endloop
endfacet
facet normal -0.000020 -0.256276 -0.071805
  outer loop
    vertex 12.000000 -0.766468 -0.269597
    vertex 9.600000 -0.795506 -0.165308
    vertex 9.600000 -0.765587 -0.272090
  endloop
endfacet
facet normal 0.000019 -0.242197 -0.104079
  outer loop
    vertex 12.000000 -0.766468 -0.269597
    vertex 9.600000 -0.765587 -0.272090
    vertex 12.000000 -0.723102 -0.370513
  endloop
endfacet
facet normal -0.000027 -0.244112 -0.106032
  outer loop
    vertex 12.000000 -0.723102 -0.370513
    vertex 9.600000 -0.765587 -0.272090
    vertex 9.600000 -0.721407 -0.373803
  endloop
endfacet
facet normal 0.000027 -0.225946 -0.135795
  outer loop
    vertex 12.000000 -0.723102 -0.370513
    vertex 9.600000 -0.721407 -0.373803
    vertex 12.000000 -0.666521 -0.464657
  endloop
endfacet
facet normal -0.000034 -0.227400 -0.138285
  outer loop
    vertex 12.000000 -0.666521 -0.464657
    vertex 9.600000 -0.721407 -0.373803
    vertex 9.600000 -0.663788 -0.468553
  endloop
endfacet
facet normal 0.000034 -0.205566 -0.165029
  outer loop
    vertex 12.000000 -0.666521 -0.464657
    vertex 9.600000 -0.663788 -0.468553
    vertex 12.000000 -0.597759 -0.550310
  endloop
endfacet
facet normal -0.000042 -0.206452 -0.167961
  outer loop
    vertex 12.000000 -0.597759 -0.550310
    vertex 9.600000 -0.663788 -0.468553
    vertex 9.600000 -0.593804 -0.554574
  endloop
endfacet
facet normal 0.000041 -0.181429 -0.191247
  outer loop
    vertex 12.000000 -0.597759 -0.550310
    vertex 9.600000 -0.593804 -0.554574
    vertex 12.000000 -0.518072 -0.625905
  endloop
endfacet
facet normal -0.000049 -0.181658 -0.194509
  outer loop
    vertex 12.000000 -0.518072 -0.625905
    vertex 9.600000 -0.593804 -0.554574
    vertex 9.600000 -0.512759 -0.630265
  endloop
endfacet
facet normal 0.000048 -0.153976 -0.213970
  outer loop
    vertex 12.000000 -0.518072 -0.625905
    vertex 9.600000 -0.512759 -0.630265
    vertex 12.000000 -0.428918 -0.690062
  endloop
endfacet
facet normal -0.000056 -0.153481 -0.217433
  outer loop
    vertex 12.000000 -0.428918 -0.690062
    vertex 9.600000 -0.512759 -0.630265
    vertex 9.600000 -0.422162 -0.694216
  endloop
endfacet
facet normal 0.000055 -0.123710 -0.232783
  outer loop
    vertex 12.000000 -0.428918 -0.690062
    vertex 9.600000 -0.422162 -0.694216
    vertex 12.000000 -0.331925 -0.741608
  endloop
endfacet
facet normal -0.000063 -0.122444 -0.236307
  outer loop
    vertex 12.000000 -0.331925 -0.741608
    vertex 9.600000 -0.422162 -0.694216
    vertex 9.600000 -0.323701 -0.745234
  endloop
endfacet
facet normal 0.000061 -0.091182 -0.247342
  outer loop
    vertex 12.000000 -0.331925 -0.741608
    vertex 9.600000 -0.323701 -0.745234
    vertex 12.000000 -0.228866 -0.779600
  endloop
endfacet
facet normal -0.000069 -0.089127 -0.250778
  outer loop
    vertex 12.000000 -0.228866 -0.779600
    vertex 9.600000 -0.323701 -0.745234
    vertex 9.600000 -0.219210 -0.782370
  endloop
endfacet
facet normal 0.000068 -0.056988 -0.257380
  outer loop
    vertex 12.000000 -0.228866 -0.779600
    vertex 9.600000 -0.219210 -0.782370
    vertex 12.000000 -0.121625 -0.803345
  endloop
endfacet
facet normal -0.000076 -0.054149 -0.260579
  outer loop
    vertex 12.000000 -0.121625 -0.803345
    vertex 9.600000 -0.219210 -0.782370
    vertex 9.600000 -0.110635 -0.804932
  endloop
endfacet
facet normal 0.000074 -0.021753 -0.262714
  outer loop
    vertex 12.000000 -0.121625 -0.803345
    vertex 9.600000 -0.110635 -0.804932
    vertex 12.000000 -0.012160 -0.812409
  endloop
endfacet
facet normal -0.000082 -0.018162 -0.265525
  outer loop
    vertex 12.000000 -0.012160 -0.812409
    vertex 9.600000 -0.110635 -0.804932
    vertex 9.600000 0.000000 -0.812500
  endloop
endfacet
facet normal 0.000080 0.013880 -0.263248
  outer loop
    vertex 12.000000 -0.012160 -0.812409
    vertex 9.600000 0.000000 -0.812500
    vertex 12.000000 0.097526 -0.806626
  endloop
endfacet
facet normal -0.000088 0.018162 -0.265525
  outer loop
    vertex 12.000000 0.097526 -0.806626
    vertex 9.600000 0.000000 -0.812500
    vertex 9.600000 0.110635 -0.804932
  endloop
endfacet
facet normal 0.000086 0.049259 -0.258970
  outer loop
    vertex 12.000000 0.097526 -0.806626
    vertex 9.600000 0.110635 -0.804932
    vertex 12.000000 0.205431 -0.786101
  endloop
endfacet
facet normal -0.000094 0.054149 -0.260579
  outer loop
    vertex 12.000000 0.205431 -0.786101
    vertex 9.600000 0.110635 -0.804932
    vertex 9.600000 0.219210 -0.782370
  endloop
endfacet
facet normal 0.000092 0.083739 -0.249960
  outer loop
    vertex 12.000000 0.205431 -0.786101
    vertex 9.600000 0.219210 -0.782370
    vertex 12.000000 0.309580 -0.751210
  endloop
endfacet
facet normal -0.000100 0.089127 -0.250778
  outer loop
    vertex 12.000000 0.309580 -0.751210
    vertex 9.600000 0.219210 -0.782370
    vertex 9.600000 0.323701 -0.745234
  endloop
endfacet
facet normal 0.000098 0.116687 -0.236381
  outer loop
    vertex 12.000000 0.309580 -0.751210
    vertex 9.600000 0.323701 -0.745234
    vertex 12.000000 0.408073 -0.702590
  endloop
endfacet
facet normal -0.000106 0.122444 -0.236307
  outer loop
    vertex 12.000000 0.408073 -0.702590
    vertex 9.600000 0.323701 -0.745234
    vertex 9.600000 0.422162 -0.694216
  endloop
endfacet
facet normal 0.000104 0.147503 -0.218483
  outer loop
    vertex 12.000000 0.408073 -0.702590
    vertex 9.600000 0.422162 -0.694216
    vertex 12.000000 0.499107 -0.641130
  endloop
endfacet
facet normal -0.000111 0.153481 -0.217433
  outer loop
    vertex 12.000000 0.499107 -0.641130
    vertex 9.600000 0.422162 -0.694216
    vertex 9.600000 0.512759 -0.630265
  endloop
endfacet
facet normal 0.000109 0.175624 -0.196592
  outer loop
    vertex 12.000000 0.499107 -0.641130
    vertex 9.600000 0.512759 -0.630265
    vertex 12.000000 0.581020 -0.567954
  endloop
endfacet
facet normal -0.000117 0.181658 -0.194509
  outer loop
    vertex 12.000000 0.581020 -0.567954
    vertex 9.600000 0.512759 -0.630265
    vertex 9.600000 0.593804 -0.554574
  endloop
endfacet
facet normal 0.000114 0.200535 -0.171108
  outer loop
    vertex 12.000000 0.581020 -0.567954
    vertex 9.600000 0.593804 -0.554574
    vertex 12.000000 0.652315 -0.484398
  endloop
endfacet
facet normal -0.000122 0.206452 -0.167961
  outer loop
    vertex 12.000000 0.652315 -0.484398
    vertex 9.600000 0.593804 -0.554574
    vertex 9.600000 0.663788 -0.468553
  endloop
endfacet
facet normal 0.000119 0.221781 -0.142497
  outer loop
    vertex 12.000000 0.652315 -0.484398
    vertex 9.600000 0.663788 -0.468553
    vertex 12.000000 0.711689 -0.391989
  endloop
endfacet
facet normal -0.000127 0.227400 -0.138285
  outer loop
    vertex 12.000000 0.711689 -0.391989
    vertex 9.600000 0.663788 -0.468553
    vertex 9.600000 0.721407 -0.373803
  endloop
endfacet
facet normal 0.000124 0.238974 -0.111281
  outer loop
    vertex 12.000000 0.711689 -0.391989
    vertex 9.600000 0.721407 -0.373803
    vertex 12.000000 0.758056 -0.292416
  endloop
endfacet
facet normal -0.000132 0.244112 -0.106033
  outer loop
    vertex 12.000000 0.758056 -0.292416
    vertex 9.600000 0.721407 -0.373803
    vertex 9.600000 0.765587 -0.272090
  endloop
endfacet
facet normal 0.000129 0.251799 -0.078032
  outer loop
    vertex 12.000000 0.758056 -0.292416
    vertex 9.600000 0.765587 -0.272090
    vertex 12.000000 0.790569 -0.187500
  endloop
endfacet
facet normal 0.000000 0.203015 -0.059958
  outer loop
    vertex 12.000000 0.790569 -0.187500
    vertex 9.600000 0.765587 -0.272090
    vertex 7.200000 0.765587 -0.272090
  endloop
endfacet
facet normal 0.000000 0.203015 -0.059958
  outer loop
    vertex 12.000000 0.790569 -0.187500
    vertex 7.200000 0.765587 -0.272090
    vertex 4.800000 0.765587 -0.272090
  endloop
endfacet
facet normal 0.000000 0.244112 -0.106032
  outer loop
    vertex 4.800000 0.765587 -0.272090
    vertex 7.200000 0.765587 -0.272090
    vertex 4.800000 0.721407 -0.373803
  endloop
endfacet
facet normal 0.000000 0.244112 -0.106033
  outer loop
    vertex 4.800000 0.765587 -0.272090
    vertex 4.800000 0.721407 -0.373803
    vertex 2.400000 0.721407 -0.373803
  endloop
endfacet
facet normal 0.000000 0.227400 -0.138285
  outer loop
    vertex 2.400000 0.721407 -0.373803
    vertex 4.800000 0.721407 -0.373803
    vertex 2.400000 0.663788 -0.468553
  endloop
endfacet
facet normal 0.000127 0.227400 -0.138285
  outer loop
    vertex 2.400000 0.721407 -0.373803
    vertex 2.400000 0.663788 -0.468553
    vertex 0.000000 0.711689 -0.391989
  endloop
endfacet
facet normal -0.000119 0.221781 -0.142497
  outer loop
    vertex 0.000000 0.711689 -0.391989
    vertex 2.400000 0.663788 -0.468553
    vertex 0.000000 0.652315 -0.484398
  endloop
endfacet
facet normal 0.000122 0.206452 -0.167961
  outer loop
    vertex 0.000000 0.652315 -0.484398
    vertex 2.400000 0.663788 -0.468553
    vertex 2.400000 0.593804 -0.554574
  endloop
endfacet
facet normal -0.000114 0.200535 -0.171108
  outer loop
    vertex 0.000000 0.652315 -0.484398
    vertex 2.400000 0.593804 -0.554574
    vertex 0.000000 0.581020 -0.567954
  endloop
endfacet
facet normal 0.000117 0.181658 -0.194509
  outer loop
    vertex 0.000000 0.581020 -0.567954
    vertex 2.400000 0.593804 -0.554574
    vertex 2.400000 0.512759 -0.630265
  endloop
endfacet
facet normal -0.000109 0.175624 -0.196592
  outer loop
    vertex 0.000000 0.581020 -0.567954
    vertex 2.400000 0.512759 -0.630265
    vertex 0.000000 0.499107 -0.641130
  endloop
endfacet
facet normal 0.000111 0.153481 -0.217433
  outer loop
    vertex 0.000000 0.499107 -0.641130
    vertex 2.400000 0.512759 -0.630265
    vertex 2.400000 0.422162 -0.694216
  endloop
endfacet
facet normal -0.000104 0.147503 -0.218483
  outer loop
    vertex 0.000000 0.499107 -0.641130
    vertex 2.400000 0.422162 -0.694216
    vertex 0.000000 0.408073 -0.702590
  endloop
endfacet
facet normal 0.000106 0.122444 -0.236307
  outer loop
    vertex 0.000000 0.408073 -0.702590
    vertex 2.400000 0.422162 -0.694216
    vertex 2.400000 0.323701 -0.745234
  endloop
endfacet
facet normal -0.000098 0.116687 -0.236381
  outer loop
    vertex 0.000000 0.408073 -0.702590
    vertex 2.400000 0.323701 -0.745234
    vertex 0.000000 0.309580 -0.751210
  endloop
endfacet
facet normal 0.000100 0.089127 -0.250778
  outer loop
    vertex 0.000000 0.309580 -0.751210
    vertex 2.400000 0.323701 -0.745234
    vertex 2.400000 0.219210 -0.782370
  endloop
endfacet
facet normal -0.000092 0.083739 -0.249960
  outer loop
    vertex 0.000000 0.309580 -0.751210
    vertex 2.400000 0.219210 -0.782370
    vertex 0.000000 0.205431 -0.786101
  endloop
endfacet
facet normal 0.000094 0.054149 -0.260579
  outer loop
    vertex 0.000000 0.205431 -0.786101
    vertex 2.400000 0.219210 -0.782370
    vertex 2.400000 0.110635 -0.804932
  endloop
endfacet
facet normal -0.000086 0.049259 -0.258970
  outer loop
    vertex 0.000000 0.205431 -0.786101
    vertex 2.400000 0.110635 -0.804932
    vertex 0.000000 0.097526 -0.806626
  endloop
endfacet
facet normal 0.000088 0.018162 -0.265525
  outer loop
    vertex 0.000000 0.097526 -0.806626
    vertex 2.400000 0.110635 -0.804932
    vertex 2.400000 0.000000 -0.812500
  endloop
endfacet
facet normal -0.000080 0.013880 -0.263248
  outer loop
    vertex 0.000000 0.097526 -0.806626
    vertex 2.400000 0.000000 -0.812500
    vertex 0.000000 -0.012160 -0.812409
  endloop
endfacet
facet normal 0.000082 -0.018162 -0.265525
  outer loop
    vertex 0.000000 -0.012160 -0.812409
    vertex 2.400000 0.000000 -0.812500
    vertex 2.400000 -0.110635 -0.804932
  endloop
endfacet
facet normal -0.000074 -0.021753 -0.262714
  outer loop
    vertex 0.000000 -0.012160 -0.812409
    vertex 2.400000 -0.110635 -0.804932
    vertex 0.000000 -0.121625 -0.803345
  endloop
endfacet
facet normal 0.000076 -0.054149 -0.260579
  outer loop
    vertex 0.000000 -0.121625 -0.803345
    vertex 2.400000 -0.110635 -0.804932
    vertex 2.400000 -0.219210 -0.782370
  endloop
endfacet
facet normal -0.000068 -0.056988 -0.257380
  outer loop
    vertex 0.000000 -0.121625 -0.803345
    vertex 2.400000 -0.219210 -0.782370
    vertex 0.000000 -0.228866 -0.779600
  endloop
endfacet
facet normal 0.000069 -0.089127 -0.250778
  outer loop
    vertex 0.000000 -0.228866 -0.779600
    vertex 2.400000 -0.219210 -0.782370
    vertex 2.400000 -0.323701 -0.745234
  endloop
endfacet
facet normal -0.000061 -0.091182 -0.247342
  outer loop
    vertex 0.000000 -0.228866 -0.779600
    vertex 2.400000 -0.323701 -0.745234
    vertex 0.000000 -0.331925 -0.741608
  endloop
endfacet
facet normal 0.000063 -0.122444 -0.236307
  outer loop
    vertex 0.000000 -0.331925 -0.741608
    vertex 2.400000 -0.323701 -0.745234
    vertex 2.400000 -0.422162 -0.694216
  endloop
endfacet
facet normal -0.000055 -0.123710 -0.232783
  outer loop
    vertex 0.000000 -0.331925 -0.741608
    vertex 2.400000 -0.422162 -0.694216
    vertex 0.000000 -0.428918 -0.690062
  endloop
endfacet
facet normal 0.000056 -0.153481 -0.217433
  outer loop
    vertex 0.000000 -0.428918 -0.690062
    vertex 2.400000 -0.422162 -0.694216
    vertex 2.400000 -0.512759 -0.630265
  endloop
endfacet
facet normal -0.000048 -0.153976 -0.213970
  outer loop
    vertex 0.000000 -0.428918 -0.690062
    vertex 2.400000 -0.512759 -0.630265
    vertex 0.000000 -0.518072 -0.625905
  endloop
endfacet
facet normal 0.000049 -0.181658 -0.194509
  outer loop
    vertex 0.000000 -0.518072 -0.625905
    vertex 2.400000 -0.512759 -0.630265
    vertex 2.400000 -0.593804 -0.554574
  endloop
endfacet
facet normal -0.000041 -0.181429 -0.191247
  outer loop
    vertex 0.000000 -0.518072 -0.625905
    vertex 2.400000 -0.593804 -0.554574
    vertex 0.000000 -0.597759 -0.550310
  endloop
endfacet
facet normal 0.000042 -0.206452 -0.167961
  outer loop
    vertex 0.000000 -0.597759 -0.550310
    vertex 2.400000 -0.593804 -0.554574
    vertex 2.400000 -0.663788 -0.468553
  endloop
endfacet
facet normal -0.000034 -0.205566 -0.165029
  outer loop
    vertex 0.000000 -0.597759 -0.550310
    vertex 2.400000 -0.663788 -0.468553
    vertex 0.000000 -0.666521 -0.464657
  endloop
endfacet
facet normal 0.000034 -0.227400 -0.138285
  outer loop
    vertex 0.000000 -0.666521 -0.464657
    vertex 2.400000 -0.663788 -0.468553
    vertex 2.400000 -0.721407 -0.373803
  endloop
endfacet
facet normal -0.000027 -0.225946 -0.135795
  outer loop
    vertex 0.000000 -0.666521 -0.464657
    vertex 2.400000 -0.721407 -0.373803
    vertex 0.000000 -0.723102 -0.370513
  endloop
endfacet
facet normal 0.000027 -0.244112 -0.106033
  outer loop
    vertex 0.000000 -0.723102 -0.370513
    vertex 2.400000 -0.721407 -0.373803
    vertex 2.400000 -0.765587 -0.272090
  endloop
endfacet
facet normal -0.000019 -0.242197 -0.104079
  outer loop
    vertex 0.000000 -0.723102 -0.370513
    vertex 2.400000 -0.765587 -0.272090
    vertex 0.000000 -0.766468 -0.269597
  endloop
endfacet
facet normal 0.000020 -0.256276 -0.071805
  outer loop
    vertex 0.000000 -0.766468 -0.269597
    vertex 2.400000 -0.765587 -0.272090
    vertex 2.400000 -0.795506 -0.165308
  endloop
endfacet
facet normal -0.000012 -0.254022 -0.070461
  outer loop
    vertex 0.000000 -0.766468 -0.269597
    vertex 2.400000 -0.795506 -0.165308
    vertex 0.000000 -0.795827 -0.163755
  endloop
endfacet
facet normal 0.000012 -0.264933 -0.036326
  outer loop
    vertex 0.000000 -0.795827 -0.163755
    vertex 2.400000 -0.795506 -0.165308
    vertex 2.400000 -0.810642 -0.054919
  endloop
endfacet
facet normal 0.000000 -0.261205 -0.035555
  outer loop
    vertex 0.000000 -0.795827 -0.163755
    vertex 2.400000 -0.810642 -0.054919
    vertex 0.000000 -0.810642 -0.054919
  endloop
endfacet
facet normal 0.000000 -0.263613 0.000000
  outer loop
    vertex 0.000000 -0.810642 -0.054919
    vertex 2.400000 -0.810642 -0.054919
    vertex 0.000000 -0.810642 0.054919
  endloop
endfacet
facet normal 0.000000 -0.263613 0.000000
  outer loop
    vertex 0.000000 -0.810642 0.054919
    vertex 2.400000 -0.810642 -0.054919
    vertex 2.400000 -0.810642 0.054919
  endloop
endfacet
facet normal 0.000000 -0.261205 0.035555
  outer loop
    vertex 0.000000 -0.810642 0.054919
    vertex 2.400000 -0.810642 0.054919
    vertex 0.000000 -0.795827 0.163755
  endloop
endfacet
facet normal 0.000012 -0.264933 0.036326
  outer loop
    vertex 0.000000 -0.795827 0.163755
    vertex 2.400000 -0.810642 0.054919
    vertex 2.400000 -0.795506 0.165308
  endloop
endfacet
facet normal -0.000012 -0.254022 0.070461
  outer loop
    vertex 0.000000 -0.795827 0.163755
    vertex 2.400000 -0.795506 0.165308
    vertex 0.000000 -0.766468 0.269597
  endloop
endfacet
facet normal 0.000020 -0.256276 0.071805
  outer loop
    vertex 0.000000 -0.766468 0.269597
    vertex 2.400000 -0.795506 0.165308
    vertex 2.400000 -0.765587 0.272090
  endloop
endfacet
facet normal -0.000019 -0.242197 0.104079
  outer loop
    vertex 0.000000 -0.766468 0.269597
    vertex 2.400000 -0.765587 0.272090
    vertex 0.000000 -0.723102 0.370513
  endloop
endfacet
facet normal 0.000027 -0.244112 0.106033
  outer loop
    vertex 0.000000 -0.723102 0.370513
    vertex 2.400000 -0.765587 0.272090
    vertex 2.400000 -0.721407 0.373803
  endloop
endfacet
facet normal -0.000027 -0.225946 0.135795
  outer loop
    vertex 0.000000 -0.723102 0.370513
    vertex 2.400000 -0.721407 0.373803
    vertex 0.000000 -0.666521 0.464657
  endloop
endfacet
facet normal 0.000034 -0.227400 0.138285
  outer loop
    vertex 0.000000 -0.666521 0.464657
    vertex 2.400000 -0.721407 0.373803
    vertex 2.400000 -0.663788 0.468553
  endloop
endfacet
facet normal -0.000034 -0.205566 0.165029
  outer loop
    vertex 0.000000 -0.666521 0.464657
    vertex 2.400000 -0.663788 0.468553
    vertex 0.000000 -0.597759 0.550310
  endloop
endfacet
facet normal 0.000042 -0.206452 0.167961
  outer loop
    vertex 0.000000 -0.597759 0.550310
    vertex 2.400000 -0.663788 0.468553
    vertex 2.400000 -0.593804 0.554574
  endloop
endfacet
facet normal -0.000041 -0.181429 0.191247
  outer loop
    vertex 0.000000 -0.597759 0.550310
    vertex 2.400000 -0.593804 0.554574
    vertex 0.000000 -0.518072 0.625905
  endloop
endfacet
facet normal 0.000049 -0.181658 0.194509
  outer loop
    vertex 0.000000 -0.518072 0.625905
    vertex 2.400000 -0.593804 0.554574
    vertex 2.400000 -0.512759 0.630265
  endloop
endfacet
facet normal -0.000048 -0.153976 0.213970
  outer loop
    vertex 0.000000 -0.518072 0.625905
    vertex 2.400000 -0.512759 0.630265
    vertex 0.000000 -0.428918 0.690062
  endloop
endfacet
facet normal 0.000056 -0.153481 0.217433
  outer loop
    vertex 0.000000 -0.428918 0.690062
    vertex 2.400000 -0.512759 0.630265
    vertex 2.400000 -0.422162 0.694216
  endloop
endfacet
facet normal -0.000055 -0.123710 0.232783
  outer loop
    vertex 0.000000 -0.428918 0.690062
    vertex 2.400000 -0.422162 0.694216
    vertex 0.000000 -0.331925 0.741608
  endloop
endfacet
facet normal 0.000063 -0.122444 0.236307
  outer loop
    vertex 0.000000 -0.331925 0.741608
    vertex 2.400000 -0.422162 0.694216
    vertex 2.400000 -0.323701 0.745234
  endloop
endfacet
facet normal -0.000061 -0.091182 0.247342
  outer loop
    vertex 0.000000 -0.331925 0.741608
    vertex 2.400000 -0.323701 0.745234
    vertex 0.000000 -0.228866 0.779600
  endloop
endfacet
facet normal 0.000069 -0.089127 0.250778
  outer loop
    vertex 0.000000 -0.228866 0.779600
    vertex 2.400000 -0.323701 0.745234
    vertex 2.400000 -0.219210 0.782370
  endloop
endfacet
facet normal -0.000068 -0.056988 0.257380
  outer loop
    vertex 0.000000 -0.228866 0.779600
    vertex 2.400000 -0.219210 0.782370
    vertex 0.000000 -0.121625 0.803345
  endloop
endfacet
facet normal 0.000076 -0.054149 0.260579
  outer loop
    vertex 0.000000 -0.121625 0.803345
    vertex 2.400000 -0.219210 0.782370
    vertex 2.400000 -0.110635 0.804932
  endloop
endfacet
facet normal -0.000074 -0.021753 0.262714
  outer loop
    vertex 0.000000 -0.121625 0.803345
    vertex 2.400000 -0.110635 0.804932
    vertex 0.000000 -0.012160 0.812409
  endloop
endfacet
facet normal 0.000082 -0.018162 0.265525
  outer loop
    vertex 0.000000 -0.012160 0.812409
    vertex 2.400000 -0.110635 0.804932
    vertex 2.400000 0.000000 0.812500
  endloop
endfacet
facet normal -0.000080 0.013880 0.263248
  outer loop
    vertex 0.000000 -0.012160 0.812409
    vertex 2.400000 0.000000 0.812500
    vertex 0.000000 0.097526 0.806626
  endloop
endfacet
facet normal 0.000088 0.018162 0.265525
  outer loop
    vertex 0.000000 0.097526 0.806626
    vertex 2.400000 0.000000 0.812500
    vertex 2.400000 0.110635 0.804932
  endloop
endfacet
facet normal -0.000086 0.049259 0.258970
  outer loop
    vertex 0.000000 0.097526 0.806626
    vertex 2.400000 0.110635 0.804932
    vertex 0.000000 0.205431 0.786101
  endloop
endfacet
facet normal 0.000094 0.054149 0.260579
  outer loop
    vertex 0.000000 0.205431 0.786101
    vertex 2.400000 0.110635 0.804932
    vertex 2.400000 0.219210 0.782370
  endloop
endfacet
facet normal -0.000092 0.083739 0.249960
  outer loop
    vertex 0.000000 0.205431 0.786101
    vertex 2.400000 0.219210 0.782370
    vertex 0.000000 0.309580 0.751210
  endloop
endfacet
facet normal 0.000100 0.089127 0.250778
  outer loop
    vertex 0.000000 0.309580 0.751210
    vertex 2.400000 0.219210 0.782370
    vertex 2.400000 0.323701 0.745234
  endloop
endfacet
facet normal -0.000098 0.116687 0.236381
  outer loop
    vertex 0.000000 0.309580 0.751210
    vertex 2.400000 0.323701 0.745234
    vertex 0.000000 0.408073 0.702590
  endloop
endfacet
facet normal 0.000106 0.122444 0.236307
  outer loop
    vertex 0.000000 0.408073 0.702590
    vertex 2.400000 0.323701 0.745234
    vertex 2.400000 0.422162 0.694216
  endloop
endfacet
facet normal -0.000104 0.147503 0.218483
  outer loop
    vertex 0.000000 0.408073 0.702590
    vertex 2.400000 0.422162 0.694216
    vertex 0.000000 0.499107 0.641130
  endloop
endfacet
facet normal 0.000111 0.153481 0.217433
  outer loop
    vertex 0.000000 0.499107 0.641130
    vertex 2.400000 0.422162 0.694216
    vertex 2.400000 0.512759 0.630265
  endloop
endfacet
facet normal -0.000109 0.175624 0.196592
  outer loop
    vertex 0.000000 0.499107 0.641130
    vertex 2.400000 0.512759 0.630265
    vertex 0.000000 0.581020 0.567954
  endloop
endfacet
facet normal 0.000117 0.181658 0.194509
  outer loop
    vertex 0.000000 0.581020 0.567954
    vertex 2.400000 0.512759 0.630265
    vertex 2.400000 0.593804 0.554574
  endloop
endfacet
facet normal -0.000114 0.200535 0.171108
  outer loop
    vertex 0.000000 0.581020 0.567954
    vertex 2.400000 0.593804 0.554574
    vertex 0.000000 0.652315 0.484398
  endloop
endfacet
facet normal 0.000122 0.206452 0.167961
  outer loop
    vertex 0.000000 0.652315 0.484398
    vertex 2.400000 0.593804 0.554574
    vertex 2.400000 0.663788 0.468553
  endloop
endfacet
facet normal -0.000119 0.221781 0.142497
  outer loop
    vertex 0.000000 0.652315 0.484398
    vertex 2.400000 0.663788 0.468553
    vertex 0.000000 0.711689 0.391989
  endloop
endfacet
facet normal 0.000127 0.227400 0.138285
  outer loop
    vertex 0.000000 0.711689 0.391989
    vertex 2.400000 0.663788 0.468553
    vertex 2.400000 0.721407 0.373803
  endloop
endfacet
facet normal -0.000124 0.238974 0.111281
  outer loop
    vertex 0.000000 0.711689 0.391989
    vertex 2.400000 0.721407 0.373803
    vertex 0.000000 0.758056 0.292416
  endloop
endfacet
facet normal 0.000132 0.244112 0.106033
  outer loop
    vertex 0.000000 0.758056 0.292416
    vertex 2.400000 0.721407 0.373803
    vertex 2.400000 0.765587 0.272090
  endloop
endfacet
facet normal -0.000124 0.238974 -0.111281
  outer loop
    vertex 0.000000 0.711689 -0.391989
    vertex 0.000000 0.758056 -0.292416
    vertex 2.400000 0.721407 -0.373803
  endloop
endfacet
facet normal 0.000132 0.244112 -0.106033
  outer loop
    vertex 2.400000 0.721407 -0.373803
    vertex 0.000000 0.758056 -0.292416
    vertex 2.400000 0.765587 -0.272090
  endloop
endfacet
facet normal 0.000000 0.244112 -0.106033
  outer loop
    vertex 2.400000 0.721407 -0.373803
    vertex 2.400000 0.765587 -0.272090
    vertex 4.800000 0.765587 -0.272090
  endloop
endfacet
facet normal 0.000000 0.203015 -0.059958
  outer loop
    vertex 4.800000 0.765587 -0.272090
    vertex 2.400000 0.765587 -0.272090
    vertex 0.000000 0.790569 -0.187500
  endloop
endfacet
facet normal 0.000000 1.015076 -0.299789
  outer loop
    vertex 4.800000 0.765587 -0.272090
    vertex 0.000000 0.790569 -0.187500
    vertex 12.000000 0.790569 -0.187500
  endloop
endfacet
facet normal -0.000129 0.251799 -0.078032
  outer loop
    vertex 0.000000 0.758056 -0.292416
    vertex 0.000000 0.790569 -0.187500
    vertex 2.400000 0.765587 -0.272090
  endloop
endfacet
facet normal 0.000124 0.238974 0.111281
  outer loop
    vertex 12.000000 0.711689 0.391989
    vertex 12.000000 0.758056 0.292416
    vertex 9.600000 0.721407 0.373803
  endloop
endfacet
facet normal -0.000132 0.244112 0.106032
  outer loop
    vertex 9.600000 0.721407 0.373803
    vertex 12.000000 0.758056 0.292416
    vertex 9.600000 0.765587 0.272090
  endloop
endfacet
facet normal 0.000000 0.244112 0.106033
  outer loop
    vertex 9.600000 0.721407 0.373803
    vertex 9.600000 0.765587 0.272090
    vertex 7.200000 0.765587 0.272090
  endloop
endfacet
facet normal -0.000000 0.203015 0.059958
  outer loop
    vertex 7.200000 0.765587 0.272090
    vertex 9.600000 0.765587 0.272090
    vertex 12.000000 0.790569 0.187500
  endloop
endfacet
facet normal 0.000000 1.015076 0.299789
  outer loop
    vertex 7.200000 0.765587 0.272090
    vertex 12.000000 0.790569 0.187500
    vertex 0.000000 0.790569 0.187500
  endloop
endfacet
facet normal 0.000129 0.251799 0.078032
  outer loop
    vertex 12.000000 0.758056 0.292416
    vertex 12.000000 0.790569 0.187500
    vertex 9.600000 0.765587 0.272090
  endloop
endfacet
facet normal -0.000000 0.018162 0.265525
  outer loop
    vertex 2.400000 0.000000 0.812500
    vertex 4.800000 0.000000 0.812500
    vertex 2.400000 0.110635 0.804932
  endloop
endfacet
facet normal -0.000000 0.018162 0.265525
  outer loop
    vertex 2.400000 0.110635 0.804932
    vertex 4.800000 0.000000 0.812500
    vertex 4.800000 0.110635 0.804932
  endloop
endfacet
facet normal -0.000000 0.054149 0.260579
  outer loop
    vertex 2.400000 0.110635 0.804932
    vertex 4.800000 0.110635 0.804932
    vertex 2.400000 0.219210 0.782370
  endloop
endfacet
facet normal -0.000000 0.054149 0.260579
  outer loop
    vertex 2.400000 0.219210 0.782370
    vertex 4.800000 0.110635 0.804932
    vertex 4.800000 0.219210 0.782370
  endloop
endfacet
facet normal -0.000000 0.089127 0.250778
  outer loop
    vertex 2.400000 0.219210 0.782370
    vertex 4.800000 0.219210 0.782370
    vertex 2.400000 0.323701 0.745234
  endloop
endfacet
facet normal -0.000000 0.089127 0.250778
  outer loop
    vertex 2.400000 0.323701 0.745234
    vertex 4.800000 0.219210 0.782370
    vertex 4.800000 0.323701 0.745234
  endloop
endfacet
facet normal -0.000000 0.122444 0.236307
  outer loop
    vertex 2.400000 0.323701 0.745234
    vertex 4.800000 0.323701 0.745234
    vertex 2.400000 0.422162 0.694216
  endloop
endfacet
facet normal -0.000000 0.122444 0.236307
  outer loop
    vertex 2.400000 0.422162 0.694216
    vertex 4.800000 0.323701 0.745234
    vertex 4.800000 0.422162 0.694216
  endloop
endfacet
facet normal -0.000000 0.153481 0.217433
  outer loop
    vertex 2.400000 0.422162 0.694216
    vertex 4.800000 0.422162 0.694216
    vertex 2.400000 0.512759 0.630265
  endloop
endfacet
facet normal -0.000000 0.153481 0.217433
  outer loop
    vertex 2.400000 0.512759 0.630265
    vertex 4.800000 0.422162 0.694216
    vertex 4.800000 0.512759 0.630265
  endloop
endfacet
facet normal -0.000000 0.181658 0.194509
  outer loop
    vertex 2.400000 0.512759 0.630265
    vertex 4.800000 0.512759 0.630265
    vertex 2.400000 0.593804 0.554574
  endloop
endfacet
facet normal -0.000000 0.181658 0.194509
  outer loop
    vertex 2.400000 0.593804 0.554574
    vertex 4.800000 0.512759 0.630265
    vertex 4.800000 0.593804 0.554574
  endloop
endfacet
facet normal -0.000000 0.206452 0.167961
  outer loop
    vertex 2.400000 0.593804 0.554574
    vertex 4.800000 0.593804 0.554574
    vertex 2.400000 0.663788 0.468553
  endloop
endfacet
facet normal -0.000000 0.206452 0.167961
  outer loop
    vertex 2.400000 0.663788 0.468553
    vertex 4.800000 0.593804 0.554574
    vertex 4.800000 0.663788 0.468553
  endloop
endfacet
facet normal -0.000000 0.227400 0.138285
  outer loop
    vertex 2.400000 0.663788 0.468553
    vertex 4.800000 0.663788 0.468553
    vertex 2.400000 0.721407 0.373803
  endloop
endfacet
facet normal -0.000000 0.227400 0.138285
  outer loop
    vertex 2.400000 0.721407 0.373803
    vertex 4.800000 0.663788 0.468553
    vertex 4.800000 0.721407 0.373803
  endloop
endfacet
facet normal -0.000000 0.244112 0.106033
  outer loop
    vertex 2.400000 0.721407 0.373803
    vertex 4.800000 0.721407 0.373803
    vertex 2.400000 0.765587 0.272090
  endloop
endfacet
facet normal -0.000000 0.244112 0.106033
  outer loop
    vertex 2.400000 0.765587 0.272090
    vertex 4.800000 0.721407 0.373803
    vertex 4.800000 0.765587 0.272090
  endloop
endfacet
facet normal -0.000000 0.018162 0.265525
  outer loop
    vertex 4.800000 0.000000 0.812500
    vertex 7.200000 0.000000 0.812500
    vertex 4.800000 0.110635 0.804932
  endloop
endfacet
facet normal -0.000000 0.018162 0.265525
  outer loop
    vertex 4.800000 0.110635 0.804932
    vertex 7.200000 0.000000 0.812500
    vertex 7.200000 0.110635 0.804932
  endloop
endfacet
facet normal -0.000000 0.054149 0.260579
  outer loop
    vertex 4.800000 0.110635 0.804932
    vertex 7.200000 0.110635 0.804932
    vertex 4.800000 0.219210 0.782370
  endloop
endfacet
facet normal -0.000000 0.054149 0.260579
  outer loop
    vertex 4.800000 0.219210 0.782370
    vertex 7.200000 0.110635 0.804932
    vertex 7.200000 0.219210 0.782370
  endloop
endfacet
facet normal -0.000000 0.089127 0.250778
  outer loop
    vertex 4.800000 0.219210 0.782370
    vertex 7.200000 0.219210 0.782370
    vertex 4.800000 0.323701 0.745234
  endloop
endfacet
facet normal -0.000000 0.089127 0.250778
  outer loop
    vertex 4.800000 0.323701 0.745234
    vertex 7.200000 0.219210 0.782370
    vertex 7.200000 0.323701 0.745234
  endloop
endfacet
facet normal -0.000000 0.122444 0.236307
  outer loop
    vertex 4.800000 0.323701 0.745234
    vertex 7.200000 0.323701 0.745234
    vertex 4.800000 0.422162 0.694216
  endloop
endfacet
facet normal -0.000000 0.122444 0.236307
  outer loop
    vertex 4.800000 0.422162 0.694216
    vertex 7.200000 0.323701 0.745234
    vertex 7.200000 0.422162 0.694216
  endloop
endfacet
facet normal -0.000000 0.153481 0.217433
  outer loop
    vertex 4.800000 0.422162 0.694216
    vertex 7.200000 0.422162 0.694216
    vertex 4.800000 0.512759 0.630265
  endloop
endfacet
facet normal -0.000000 0.153481 0.217433
  outer loop
    vertex 4.800000 0.512759 0.630265
    vertex 7.200000 0.422162 0.694216
    vertex 7.200000 0.512759 0.630265
  endloop
endfacet
facet normal -0.000000 0.181658 0.194509
  outer loop
    vertex 4.800000 0.512759 0.630265
    vertex 7.200000 0.512759 0.630265
    vertex 4.800000 0.593804 0.554574
  endloop
endfacet
facet normal -0.000000 0.181658 0.194509
  outer loop
    vertex 4.800000 0.593804 0.554574
    vertex 7.200000 0.512759 0.630265
    vertex 7.200000 0.593804 0.554574
  endloop
endfacet
facet normal -0.000000 0.206452 0.167961
  outer loop
    vertex 4.800000 0.593804 0.554574
    vertex 7.200000 0.593804 0.554574
    vertex 4.800000 0.663788 0.468553
  endloop
endfacet
facet normal -0.000000 0.206452 0.167961
  outer loop
    vertex 4.800000 0.663788 0.468553
    vertex 7.200000 0.593804 0.554574
    vertex 7.200000 0.663788 0.468553
  endloop
endfacet
facet normal -0.000000 0.227400 0.138285
  outer loop
    vertex 4.800000 0.663788 0.468553
    vertex 7.200000 0.663788 0.468553
    vertex 4.800000 0.721407 0.373803
  endloop
endfacet
facet normal -0.000000 0.227400 0.138285
  outer loop
    vertex 4.800000 0.721407 0.373803
    vertex 7.200000 0.663788 0.468553
    vertex 7.200000 0.721407 0.373803
  endloop
endfacet
facet normal -0.000000 0.244112 0.106032
  outer loop
    vertex 4.800000 0.721407 0.373803
    vertex 7.200000 0.721407 0.373803
    vertex 4.800000 0.765587 0.272090
  endloop
endfacet
facet normal 0.000000 -0.018162 0.265525
  outer loop
    vertex 4.800000 0.000000 0.812500
    vertex 2.400000 0.000000 0.812500
    vertex 4.800000 -0.110635 0.804932
  endloop
endfacet
facet normal 0.000000 -0.018162 0.265525
  outer loop
    vertex 4.800000 -0.110635 0.804932
    vertex 2.400000 0.000000 0.812500
    vertex 2.400000 -0.110635 0.804932
  endloop
endfacet
facet normal 0.000000 -0.054149 0.260579
  outer loop
    vertex 4.800000 -0.110635 0.804932
    vertex 2.400000 -0.110635 0.804932
    vertex 4.800000 -0.219210 0.782370
  endloop
endfacet
facet normal 0.000000 -0.054149 0.260579
  outer loop
    vertex 4.800000 -0.219210 0.782370
    vertex 2.400000 -0.110635 0.804932
    vertex 2.400000 -0.219210 0.782370
  endloop
endfacet
facet normal 0.000000 -0.089127 0.250778
  outer loop
    vertex 4.800000 -0.219210 0.782370
    vertex 2.400000 -0.219210 0.782370
    vertex 4.800000 -0.323701 0.745234
  endloop
endfacet
facet normal 0.000000 -0.089127 0.250778
  outer loop
    vertex 4.800000 -0.323701 0.745234
    vertex 2.400000 -0.219210 0.782370
    vertex 2.400000 -0.323701 0.745234
  endloop
endfacet
facet normal 0.000000 -0.122444 0.236307
  outer loop
    vertex 4.800000 -0.323701 0.745234
    vertex 2.400000 -0.323701 0.745234
    vertex 4.800000 -0.422162 0.694216
  endloop
endfacet
facet normal 0.000000 -0.122444 0.236307
  outer loop
    vertex 4.800000 -0.422162 0.694216
    vertex 2.400000 -0.323701 0.745234
    vertex 2.400000 -0.422162 0.694216
  endloop
endfacet
facet normal 0.000000 -0.153481 0.217433
  outer loop
    vertex 4.800000 -0.422162 0.694216
    vertex 2.400000 -0.422162 0.694216
    vertex 4.800000 -0.512759 0.630265
  endloop
endfacet
facet normal 0.000000 -0.153481 0.217433
  outer loop
    vertex 4.800000 -0.512759 0.630265
    vertex 2.400000 -0.422162 0.694216
    vertex 2.400000 -0.512759 0.630265
  endloop
endfacet
facet normal 0.000000 -0.181658 0.194509
  outer loop
    vertex 4.800000 -0.512759 0.630265
    vertex 2.400000 -0.512759 0.630265
    vertex 4.800000 -0.593804 0.554574
  endloop
endfacet
facet normal 0.000000 -0.181658 0.194509
  outer loop
    vertex 4.800000 -0.593804 0.554574
    vertex 2.400000 -0.512759 0.630265
    vertex 2.400000 -0.593804 0.554574
  endloop
endfacet
facet normal 0.000000 -0.206452 0.167961
  outer loop
    vertex 4.800000 -0.593804 0.554574
    vertex 2.400000 -0.593804 0.554574
    vertex 4.800000 -0.663788 0.468553
  endloop
endfacet
facet normal 0.000000 -0.206452 0.167961
  outer loop
    vertex 4.800000 -0.663788 0.468553
    vertex 2.400000 -0.593804 0.554574
    vertex 2.400000 -0.663788 0.468553
  endloop
endfacet
facet normal 0.000000 -0.227400 0.138285
  outer loop
    vertex 4.800000 -0.663788 0.468553
    vertex 2.400000 -0.663788 0.468553
    vertex 4.800000 -0.721407 0.373803
  endloop
endfacet
facet normal 0.000000 -0.227400 0.138285
  outer loop
    vertex 4.800000 -0.721407 0.373803
    vertex 2.400000 -0.663788 0.468553
    vertex 2.400000 -0.721407 0.373803
  endloop
endfacet
facet normal 0.000000 -0.244112 0.106033
  outer loop
    vertex 4.800000 -0.721407 0.373803
    vertex 2.400000 -0.721407 0.373803
    vertex 4.800000 -0.765587 0.272090
  endloop
endfacet
facet normal 0.000000 -0.244112 0.106033
  outer loop
    vertex 4.800000 -0.765587 0.272090
    vertex 2.400000 -0.721407 0.373803
    vertex 2.400000 -0.765587 0.272090
  endloop
endfacet
facet normal 0.000000 -0.256276 0.071805
  outer loop
    vertex 4.800000 -0.765587 0.272090
    vertex 2.400000 -0.765587 0.272090
    vertex 4.800000 -0.795506 0.165308
  endloop
endfacet
facet normal 0.000000 -0.256276 0.071805
  outer loop
    vertex 4.800000 -0.795506 0.165308
    vertex 2.400000 -0.765587 0.272090
    vertex 2.400000 -0.795506 0.165308
  endloop
endfacet
facet normal 0.000000 -0.264933 0.036326
  outer loop
    vertex 4.800000 -0.795506 0.165308
    vertex 2.400000 -0.795506 0.165308
    vertex 4.800000 -0.810642 0.054919
  endloop
endfacet
facet normal 0.000000 -0.264933 0.036326
  outer loop
    vertex 4.800000 -0.810642 0.054919
    vertex 2.400000 -0.795506 0.165308
    vertex 2.400000 -0.810642 0.054919
  endloop
endfacet
facet normal -0.000000 -0.263613 -0.000000
  outer loop
    vertex 4.800000 -0.810642 0.054919
    vertex 2.400000 -0.810642 0.054919
    vertex 4.800000 -0.810642 -0.054919
  endloop
endfacet
facet normal 0.000000 -0.263613 0.000000
  outer loop
    vertex 4.800000 -0.810642 -0.054919
    vertex 2.400000 -0.810642 0.054919
    vertex 2.400000 -0.810642 -0.054919
  endloop
endfacet
facet normal -0.000000 -0.264933 -0.036326
  outer loop
    vertex 4.800000 -0.810642 -0.054919
    vertex 2.400000 -0.810642 -0.054919
    vertex 4.800000 -0.795506 -0.165308
  endloop
endfacet
facet normal -0.000000 -0.264933 -0.036326
  outer loop
    vertex 4.800000 -0.795506 -0.165308
    vertex 2.400000 -0.810642 -0.054919
    vertex 2.400000 -0.795506 -0.165308
  endloop
endfacet
facet normal -0.000000 -0.256276 -0.071805
  outer loop
    vertex 4.800000 -0.795506 -0.165308
    vertex 2.400000 -0.795506 -0.165308
    vertex 4.800000 -0.765587 -0.272090
  endloop
endfacet
facet normal -0.000000 -0.256276 -0.071805
  outer loop
    vertex 4.800000 -0.765587 -0.272090
    vertex 2.400000 -0.795506 -0.165308
    vertex 2.400000 -0.765587 -0.272090
  endloop
endfacet
facet normal -0.000000 -0.244112 -0.106033
  outer loop
    vertex 4.800000 -0.765587 -0.272090
    vertex 2.400000 -0.765587 -0.272090
    vertex 4.800000 -0.721407 -0.373803
  endloop
endfacet
facet normal -0.000000 -0.244112 -0.106033
  outer loop
    vertex 4.800000 -0.721407 -0.373803
    vertex 2.400000 -0.765587 -0.272090
    vertex 2.400000 -0.721407 -0.373803
  endloop
endfacet
facet normal -0.000000 -0.227400 -0.138285
  outer loop
    vertex 4.800000 -0.721407 -0.373803
    vertex 2.400000 -0.721407 -0.373803
    vertex 4.800000 -0.663788 -0.468553
  endloop
endfacet
facet normal -0.000000 -0.227400 -0.138285
  outer loop
    vertex 4.800000 -0.663788 -0.468553
    vertex 2.400000 -0.721407 -0.373803
    vertex 2.400000 -0.663788 -0.468553
  endloop
endfacet
facet normal -0.000000 -0.206452 -0.167961
  outer loop
    vertex 4.800000 -0.663788 -0.468553
    vertex 2.400000 -0.663788 -0.468553
    vertex 4.800000 -0.593804 -0.554574
  endloop
endfacet
facet normal -0.000000 -0.206452 -0.167961
  outer loop
    vertex 4.800000 -0.593804 -0.554574
    vertex 2.400000 -0.663788 -0.468553
    vertex 2.400000 -0.593804 -0.554574
  endloop
endfacet
facet normal -0.000000 -0.181658 -0.194509
  outer loop
    vertex 4.800000 -0.593804 -0.554574
    vertex 2.400000 -0.593804 -0.554574
    vertex 4.800000 -0.512759 -0.630265
  endloop
endfacet
facet normal -0.000000 -0.181658 -0.194509
  outer loop
    vertex 4.800000 -0.512759 -0.630265
    vertex 2.400000 -0.593804 -0.554574
    vertex 2.400000 -0.512759 -0.630265
  endloop
endfacet
facet normal -0.000000 -0.153481 -0.217433
  outer loop
    vertex 4.800000 -0.512759 -0.630265
    vertex 2.400000 -0.512759 -0.630265
    vertex 4.800000 -0.422162 -0.694216
  endloop
endfacet
facet normal -0.000000 -0.153481 -0.217433
  outer loop
    vertex 4.800000 -0.422162 -0.694216
    vertex 2.400000 -0.512759 -0.630265
    vertex 2.400000 -0.422162 -0.694216
  endloop
endfacet
facet normal -0.000000 -0.122444 -0.236307
  outer loop
    vertex 4.800000 -0.422162 -0.694216
    vertex 2.400000 -0.422162 -0.694216
    vertex 4.800000 -0.323701 -0.745234
  endloop
endfacet
facet normal -0.000000 -0.122444 -0.236307
  outer loop
    vertex 4.800000 -0.323701 -0.745234
    vertex 2.400000 -0.422162 -0.694216
    vertex 2.400000 -0.323701 -0.745234
  endloop
endfacet
facet normal -0.000000 -0.089127 -0.250778
  outer loop
    vertex 4.800000 -0.323701 -0.745234
    vertex 2.400000 -0.323701 -0.745234
    vertex 4.800000 -0.219210 -0.782370
  endloop
endfacet
facet normal -0.000000 -0.089127 -0.250778
  outer loop
    vertex 4.800000 -0.219210 -0.782370
    vertex 2.400000 -0.323701 -0.745234
    vertex 2.400000 -0.219210 -0.782370
  endloop
endfacet
facet normal -0.000000 -0.054149 -0.260579
  outer loop
    vertex 4.800000 -0.219210 -0.782370
    vertex 2.400000 -0.219210 -0.782370
    vertex 4.800000 -0.110635 -0.804932
  endloop
endfacet
facet normal -0.000000 -0.054149 -0.260579
  outer loop
    vertex 4.800000 -0.110635 -0.804932
    vertex 2.400000 -0.219210 -0.782370
    vertex 2.400000 -0.110635 -0.804932
  endloop
endfacet
facet normal -0.000000 -0.018162 -0.265525
  outer loop
    vertex 4.800000 -0.110635 -0.804932
    vertex 2.400000 -0.110635 -0.804932
    vertex 4.800000 0.000000 -0.812500
  endloop
endfacet
facet normal -0.000000 -0.018162 -0.265525
  outer loop
    vertex 4.800000 0.000000 -0.812500
    vertex 2.400000 -0.110635 -0.804932
    vertex 2.400000 0.000000 -0.812500
  endloop
endfacet
facet normal 0.000000 0.018162 -0.265525
  outer loop
    vertex 4.800000 0.000000 -0.812500
    vertex 2.400000 0.000000 -0.812500
    vertex 4.800000 0.110635 -0.804932
  endloop
endfacet
facet normal 0.000000 0.018162 -0.265525
  outer loop
    vertex 4.800000 0.110635 -0.804932
    vertex 2.400000 0.000000 -0.812500
    vertex 2.400000 0.110635 -0.804932
  endloop
endfacet
facet normal 0.000000 0.054149 -0.260579
  outer loop
    vertex 4.800000 0.110635 -0.804932
    vertex 2.400000 0.110635 -0.804932
    vertex 4.800000 0.219210 -0.782370
  endloop
endfacet
facet normal 0.000000 0.054149 -0.260579
  outer loop
    vertex 4.800000 0.219210 -0.782370
    vertex 2.400000 0.110635 -0.804932
    vertex 2.400000 0.219210 -0.782370
  endloop
endfacet
facet normal 0.000000 0.089127 -0.250778
  outer loop
    vertex 4.800000 0.219210 -0.782370
    vertex 2.400000 0.219210 -0.782370
    vertex 4.800000 0.323701 -0.745234
  endloop
endfacet
facet normal 0.000000 0.089127 -0.250778
  outer loop
    vertex 4.800000 0.323701 -0.745234
    vertex 2.400000 0.219210 -0.782370
    vertex 2.400000 0.323701 -0.745234
  endloop
endfacet
facet normal 0.000000 0.122444 -0.236307
  outer loop
    vertex 4.800000 0.323701 -0.745234
    vertex 2.400000 0.323701 -0.745234
    vertex 4.800000 0.422162 -0.694216
  endloop
endfacet
facet normal 0.000000 0.122444 -0.236307
  outer loop
    vertex 4.800000 0.422162 -0.694216
    vertex 2.400000 0.323701 -0.745234
    vertex 2.400000 0.422162 -0.694216
  endloop
endfacet
facet normal 0.000000 0.153481 -0.217433
  outer loop
    vertex 4.800000 0.422162 -0.694216
    vertex 2.400000 0.422162 -0.694216
    vertex 4.800000 0.512759 -0.630265
  endloop
endfacet
facet normal 0.000000 0.153481 -0.217433
  outer loop
    vertex 4.800000 0.512759 -0.630265
    vertex 2.400000 0.422162 -0.694216
    vertex 2.400000 0.512759 -0.630265
  endloop
endfacet
facet normal 0.000000 0.181658 -0.194509
  outer loop
    vertex 4.800000 0.512759 -0.630265
    vertex 2.400000 0.512759 -0.630265
    vertex 4.800000 0.593804 -0.554574
  endloop
endfacet
facet normal 0.000000 0.181658 -0.194509
  outer loop
    vertex 4.800000 0.593804 -0.554574
    vertex 2.400000 0.512759 -0.630265
    vertex 2.400000 0.593804 -0.554574
  endloop
endfacet
facet normal 0.000000 0.206452 -0.167961
  outer loop
    vertex 4.800000 0.593804 -0.554574
    vertex 2.400000 0.593804 -0.554574
    vertex 4.800000 0.663788 -0.468553
  endloop
endfacet
facet normal 0.000000 0.206452 -0.167961
  outer loop
    vertex 4.800000 0.663788 -0.468553
    vertex 2.400000 0.593804 -0.554574
    vertex 2.400000 0.663788 -0.468553
  endloop
endfacet
facet normal 0.000000 0.227400 -0.138285
  outer loop
    vertex 4.800000 0.663788 -0.468553
    vertex 2.400000 0.663788 -0.468553
    vertex 4.800000 0.721407 -0.373803
  endloop
endfacet
facet normal 0.000000 0.018162 0.265525
  outer loop
    vertex 7.200000 0.000000 0.812500
    vertex 9.600000 -0.000000 0.812500
    vertex 7.200000 0.110635 0.804932
  endloop
endfacet
facet normal -0.000000 0.018162 0.265525
  outer loop
    vertex 7.200000 0.110635 0.804932
    vertex 9.600000 -0.000000 0.812500
    vertex 9.600000 0.110635 0.804932
  endloop
endfacet
facet normal -0.000000 0.054149 0.260579
  outer loop
    vertex 7.200000 0.110635 0.804932
    vertex 9.600000 0.110635 0.804932
    vertex 7.200000 0.219210 0.782370
  endloop
endfacet
facet normal -0.000000 0.054149 0.260579
  outer loop
    vertex 7.200000 0.219210 0.782370
    vertex 9.600000 0.110635 0.804932
    vertex 9.600000 0.219210 0.782370
  endloop
endfacet
facet normal -0.000000 0.089127 0.250778
  outer loop
    vertex 7.200000 0.219210 0.782370
    vertex 9.600000 0.219210 0.782370
    vertex 7.200000 0.323701 0.745234
  endloop
endfacet
facet normal -0.000000 0.089127 0.250778
  outer loop
    vertex 7.200000 0.323701 0.745234
    vertex 9.600000 0.219210 0.782370
    vertex 9.600000 0.323701 0.745234
  endloop
endfacet
facet normal -0.000000 0.122444 0.236307
  outer loop
    vertex 7.200000 0.323701 0.745234
    vertex 9.600000 0.323701 0.745234
    vertex 7.200000 0.422162 0.694216
  endloop
endfacet
facet normal -0.000000 0.122444 0.236307
  outer loop
    vertex 7.200000 0.422162 0.694216
    vertex 9.600000 0.323701 0.745234
    vertex 9.600000 0.422162 0.694216
  endloop
endfacet
facet normal -0.000000 0.153481 0.217433
  outer loop
    vertex 7.200000 0.422162 0.694216
    vertex 9.600000 0.422162 0.694216
    vertex 7.200000 0.512759 0.630265
  endloop
endfacet
facet normal -0.000000 0.153481 0.217433
  outer loop
    vertex 7.200000 0.512759 0.630265
    vertex 9.600000 0.422162 0.694216
    vertex 9.600000 0.512759 0.630265
  endloop
endfacet
facet normal -0.000000 0.181658 0.194509
  outer loop
    vertex 7.200000 0.512759 0.630265
    vertex 9.600000 0.512759 0.630265
    vertex 7.200000 0.593804 0.554574
  endloop
endfacet
facet normal -0.000000 0.181658 0.194509
  outer loop
    vertex 7.200000 0.593804 0.554574
    vertex 9.600000 0.512759 0.630265
    vertex 9.600000 0.593804 0.554574
  endloop
endfacet
facet normal -0.000000 0.206452 0.167961
  outer loop
    vertex 7.200000 0.593804 0.554574
    vertex 9.600000 0.593804 0.554574
    vertex 7.200000 0.663788 0.468553
  endloop
endfacet
facet normal -0.000000 0.206452 0.167961
  outer loop
    vertex 7.200000 0.663788 0.468553
    vertex 9.600000 0.593804 0.554574
    vertex 9.600000 0.663788 0.468553
  endloop
endfacet
facet normal -0.000000 0.227400 0.138285
  outer loop
    vertex 7.200000 0.663788 0.468553
    vertex 9.600000 0.663788 0.468553
    vertex 7.200000 0.721407 0.373803
  endloop
endfacet
facet normal 0.000000 -0.018162 0.265525
  outer loop
    vertex 7.200000 0.000000 0.812500
    vertex 4.800000 0.000000 0.812500
    vertex 7.200000 -0.110635 0.804932
  endloop
endfacet
facet normal 0.000000 -0.018162 0.265525
  outer loop
    vertex 7.200000 -0.110635 0.804932
    vertex 4.800000 0.000000 0.812500
    vertex 4.800000 -0.110635 0.804932
  endloop
endfacet
facet normal 0.000000 -0.054149 0.260579
  outer loop
    vertex 7.200000 -0.110635 0.804932
    vertex 4.800000 -0.110635 0.804932
    vertex 7.200000 -0.219210 0.782370
  endloop
endfacet
facet normal 0.000000 -0.054149 0.260579
  outer loop
    vertex 7.200000 -0.219210 0.782370
    vertex 4.800000 -0.110635 0.804932
    vertex 4.800000 -0.219210 0.782370
  endloop
endfacet
facet normal 0.000000 -0.089127 0.250778
  outer loop
    vertex 7.200000 -0.219210 0.782370
    vertex 4.800000 -0.219210 0.782370
    vertex 7.200000 -0.323701 0.745234
  endloop
endfacet
facet normal 0.000000 -0.089127 0.250778
  outer loop
    vertex 7.200000 -0.323701 0.745234
    vertex 4.800000 -0.219210 0.782370
    vertex 4.800000 -0.323701 0.745234
  endloop
endfacet
facet normal 0.000000 -0.122444 0.236307
  outer loop
    vertex 7.200000 -0.323701 0.745234
    vertex 4.800000 -0.323701 0.745234
    vertex 7.200000 -0.422162 0.694216
  endloop
endfacet
facet normal 0.000000 -0.122444 0.236307
  outer loop
    vertex 7.200000 -0.422162 0.694216
    vertex 4.800000 -0.323701 0.745234
    vertex 4.800000 -0.422162 0.694216
  endloop
endfacet
facet normal 0.000000 -0.153481 0.217433
  outer loop
    vertex 7.200000 -0.422162 0.694216
    vertex 4.800000 -0.422162 0.694216
    vertex 7.200000 -0.512759 0.630265
  endloop
endfacet
facet normal 0.000000 -0.153481 0.217433
  outer loop
    vertex 7.200000 -0.512759 0.630265
    vertex 4.800000 -0.422162 0.694216
    vertex 4.800000 -0.512759 0.630265
  endloop
endfacet
facet normal 0.000000 -0.181658 0.194509
  outer loop
    vertex 7.200000 -0.512759 0.630265
    vertex 4.800000 -0.512759 0.630265
    vertex 7.200000 -0.593804 0.554574
  endloop
endfacet
facet normal 0.000000 -0.181658 0.194509
  outer loop
    vertex 7.200000 -0.593804 0.554574
    vertex 4.800000 -0.512759 0.630265
    vertex 4.800000 -0.593804 0.554574
  endloop
endfacet
facet normal 0.000000 -0.206452 0.167961
  outer loop
    vertex 7.200000 -0.593804 0.554574
    vertex 4.800000 -0.593804 0.554574
    vertex 7.200000 -0.663788 0.468553
  endloop
endfacet
facet normal 0.000000 -0.206452 0.167961
  outer loop
    vertex 7.200000 -0.663788 0.468553
    vertex 4.800000 -0.593804 0.554574
    vertex 4.800000 -0.663788 0.468553
  endloop
endfacet
facet normal 0.000000 -0.227400 0.138285
  outer loop
    vertex 7.200000 -0.663788 0.468553
    vertex 4.800000 -0.663788 0.468553
    vertex 7.200000 -0.721407 0.373803
  endloop
endfacet
facet normal 0.000000 -0.227400 0.138285
  outer loop
    vertex 7.200000 -0.721407 0.373803
    vertex 4.800000 -0.663788 0.468553
    vertex 4.800000 -0.721407 0.373803
  endloop
endfacet
facet normal 0.000000 -0.244112 0.106032
  outer loop
    vertex 7.200000 -0.721407 0.373803
    vertex 4.800000 -0.721407 0.373803
    vertex 7.200000 -0.765587 0.272090
  endloop
endfacet
facet normal 0.000000 -0.244112 0.106032
  outer loop
    vertex 7.200000 -0.765587 0.272090
    vertex 4.800000 -0.721407 0.373803
    vertex 4.800000 -0.765587 0.272090
  endloop
endfacet
facet normal 0.000000 -0.256276 0.071805
  outer loop
    vertex 7.200000 -0.765587 0.272090
    vertex 4.800000 -0.765587 0.272090
    vertex 7.200000 -0.795506 0.165308
  endloop
endfacet
facet normal 0.000000 -0.256276 0.071805
  outer loop
    vertex 7.200000 -0.795506 0.165308
    vertex 4.800000 -0.765587 0.272090
    vertex 4.800000 -0.795506 0.165308
  endloop
endfacet
facet normal 0.000000 -0.264932 0.036326
  outer loop
    vertex 7.200000 -0.795506 0.165308
    vertex 4.800000 -0.795506 0.165308
    vertex 7.200000 -0.810642 0.054919
  endloop
endfacet
facet normal 0.000000 -0.264932 0.036326
  outer loop
    vertex 7.200000 -0.810642 0.054919
    vertex 4.800000 -0.795506 0.165308
    vertex 4.800000 -0.810642 0.054919
  endloop
endfacet
facet normal -0.000000 -0.263613 -0.000000
  outer loop
    vertex 7.200000 -0.810642 0.054919
    vertex 4.800000 -0.810642 0.054919
    vertex 7.200000 -0.810642 -0.054919
  endloop
endfacet
facet normal 0.000000 -0.263613 0.000000
  outer loop
    vertex 7.200000 -0.810642 -0.054919
    vertex 4.800000 -0.810642 0.054919
    vertex 4.800000 -0.810642 -0.054919
  endloop
endfacet
facet normal -0.000000 -0.264932 -0.036326
  outer loop
    vertex 7.200000 -0.810642 -0.054919
    vertex 4.800000 -0.810642 -0.054919
    vertex 7.200000 -0.795506 -0.165308
  endloop
endfacet
facet normal -0.000000 -0.264932 -0.036326
  outer loop
    vertex 7.200000 -0.795506 -0.165308
    vertex 4.800000 -0.810642 -0.054919
    vertex 4.800000 -0.795506 -0.165308
  endloop
endfacet
facet normal -0.000000 -0.256276 -0.071805
  outer loop
    vertex 7.200000 -0.795506 -0.165308
    vertex 4.800000 -0.795506 -0.165308
    vertex 7.200000 -0.765587 -0.272090
  endloop
endfacet
facet normal -0.000000 -0.256276 -0.071805
  outer loop
    vertex 7.200000 -0.765587 -0.272090
    vertex 4.800000 -0.795506 -0.165308
    vertex 4.800000 -0.765587 -0.272090
  endloop
endfacet
facet normal -0.000000 -0.244112 -0.106032
  outer loop
    vertex 7.200000 -0.765587 -0.272090
    vertex 4.800000 -0.765587 -0.272090
    vertex 7.200000 -0.721407 -0.373803
  endloop
endfacet
facet normal -0.000000 -0.244112 -0.106032
  outer loop
    vertex 7.200000 -0.721407 -0.373803
    vertex 4.800000 -0.765587 -0.272090
    vertex 4.800000 -0.721407 -0.373803
  endloop
endfacet
facet normal -0.000000 -0.227400 -0.138285
  outer loop
    vertex 7.200000 -0.721407 -0.373803
    vertex 4.800000 -0.721407 -0.373803
    vertex 7.200000 -0.663788 -0.468553
  endloop
endfacet
facet normal -0.000000 -0.227400 -0.138285
  outer loop
    vertex 7.200000 -0.663788 -0.468553
    vertex 4.800000 -0.721407 -0.373803
    vertex 4.800000 -0.663788 -0.468553
  endloop
endfacet
facet normal -0.000000 -0.206452 -0.167961
  outer loop
    vertex 7.200000 -0.663788 -0.468553
    vertex 4.800000 -0.663788 -0.468553
    vertex 7.200000 -0.593804 -0.554574
  endloop
endfacet
facet normal -0.000000 -0.206452 -0.167961
  outer loop
    vertex 7.200000 -0.593804 -0.554574
    vertex 4.800000 -0.663788 -0.468553
    vertex 4.800000 -0.593804 -0.554574
  endloop
endfacet
facet normal -0.000000 -0.181658 -0.194509
  outer loop
    vertex 7.200000 -0.593804 -0.554574
    vertex 4.800000 -0.593804 -0.554574
    vertex 7.200000 -0.512759 -0.630265
  endloop
endfacet
facet normal -0.000000 -0.181658 -0.194509
  outer loop
    vertex 7.200000 -0.512759 -0.630265
    vertex 4.800000 -0.593804 -0.554574
    vertex 4.800000 -0.512759 -0.630265
  endloop
endfacet
facet normal -0.000000 -0.153481 -0.217433
  outer loop
    vertex 7.200000 -0.512759 -0.630265
    vertex 4.800000 -0.512759 -0.630265
    vertex 7.200000 -0.422162 -0.694216
  endloop
endfacet
facet normal -0.000000 -0.153481 -0.217433
  outer loop
    vertex 7.200000 -0.422162 -0.694216
    vertex 4.800000 -0.512759 -0.630265
    vertex 4.800000 -0.422162 -0.694216
  endloop
endfacet
facet normal -0.000000 -0.122444 -0.236307
  outer loop
    vertex 7.200000 -0.422162 -0.694216
    vertex 4.800000 -0.422162 -0.694216
    vertex 7.200000 -0.323701 -0.745234
  endloop
endfacet
facet normal -0.000000 -0.122444 -0.236307
  outer loop
    vertex 7.200000 -0.323701 -0.745234
    vertex 4.800000 -0.422162 -0.694216
    vertex 4.800000 -0.323701 -0.745234
  endloop
endfacet
facet normal -0.000000 -0.089127 -0.250778
  outer loop
    vertex 7.200000 -0.323701 -0.745234
    vertex 4.800000 -0.323701 -0.745234
    vertex 7.200000 -0.219210 -0.782370
  endloop
endfacet
facet normal -0.000000 -0.089127 -0.250778
  outer loop
    vertex 7.200000 -0.219210 -0.782370
    vertex 4.800000 -0.323701 -0.745234
    vertex 4.800000 -0.219210 -0.782370
  endloop
endfacet
facet normal -0.000000 -0.054149 -0.260579
  outer loop
    vertex 7.200000 -0.219210 -0.782370
    vertex 4.800000 -0.219210 -0.782370
    vertex 7.200000 -0.110635 -0.804932
  endloop
endfacet
facet normal -0.000000 -0.054149 -0.260579
  outer loop
    vertex 7.200000 -0.110635 -0.804932
    vertex 4.800000 -0.219210 -0.782370
    vertex 4.800000 -0.110635 -0.804932
  endloop
endfacet
facet normal -0.000000 -0.018162 -0.265525
  outer loop
    vertex 7.200000 -0.110635 -0.804932
    vertex 4.800000 -0.110635 -0.804932
    vertex 7.200000 0.000000 -0.812500
  endloop
endfacet
facet normal -0.000000 -0.018162 -0.265525
  outer loop
    vertex 7.200000 0.000000 -0.812500
    vertex 4.800000 -0.110635 -0.804932
    vertex 4.800000 0.000000 -0.812500
  endloop
endfacet
facet normal 0.000000 0.018162 -0.265525
  outer loop
    vertex 7.200000 0.000000 -0.812500
    vertex 4.800000 0.000000 -0.812500
    vertex 7.200000 0.110635 -0.804932
  endloop
endfacet
facet normal 0.000000 0.018162 -0.265525
  outer loop
    vertex 7.200000 0.110635 -0.804932
    vertex 4.800000 0.000000 -0.812500
    vertex 4.800000 0.110635 -0.804932
  endloop
endfacet
facet normal 0.000000 0.054149 -0.260579
  outer loop
    vertex 7.200000 0.110635 -0.804932
    vertex 4.800000 0.110635 -0.804932
    vertex 7.200000 0.219210 -0.782370
  endloop
endfacet
facet normal 0.000000 0.054149 -0.260579
  outer loop
    vertex 7.200000 0.219210 -0.782370
    vertex 4.800000 0.110635 -0.804932
    vertex 4.800000 0.219210 -0.782370
  endloop
endfacet
facet normal 0.000000 0.089127 -0.250778
  outer loop
    vertex 7.200000 0.219210 -0.782370
    vertex 4.800000 0.219210 -0.782370
    vertex 7.200000 0.323701 -0.745234
  endloop
endfacet
facet normal 0.000000 0.089127 -0.250778
  outer loop
    vertex 7.200000 0.323701 -0.745234
    vertex 4.800000 0.219210 -0.782370
    vertex 4.800000 0.323701 -0.745234
  endloop
endfacet
facet normal 0.000000 0.122444 -0.236307
  outer loop
    vertex 7.200000 0.323701 -0.745234
    vertex 4.800000 0.323701 -0.745234
    vertex 7.200000 0.422162 -0.694216
  endloop
endfacet
facet normal 0.000000 0.122444 -0.236307
  outer loop
    vertex 7.200000 0.422162 -0.694216
    vertex 4.800000 0.323701 -0.745234
    vertex 4.800000 0.422162 -0.694216
  endloop
endfacet
facet normal 0.000000 0.153481 -0.217433
  outer loop
    vertex 7.200000 0.422162 -0.694216
    vertex 4.800000 0.422162 -0.694216
    vertex 7.200000 0.512759 -0.630265
  endloop
endfacet
facet normal 0.000000 0.153481 -0.217433
  outer loop
    vertex 7.200000 0.512759 -0.630265
    vertex 4.800000 0.422162 -0.694216
    vertex 4.800000 0.512759 -0.630265
  endloop
endfacet
facet normal 0.000000 0.181658 -0.194509
  outer loop
    vertex 7.200000 0.512759 -0.630265
    vertex 4.800000 0.512759 -0.630265
    vertex 7.200000 0.593804 -0.554574
  endloop
endfacet
facet normal 0.000000 0.181658 -0.194509
  outer loop
    vertex 7.200000 0.593804 -0.554574
    vertex 4.800000 0.512759 -0.630265
    vertex 4.800000 0.593804 -0.554574
  endloop
endfacet
facet normal 0.000000 0.206452 -0.167961
  outer loop
    vertex 7.200000 0.593804 -0.554574
    vertex 4.800000 0.593804 -0.554574
    vertex 7.200000 0.663788 -0.468553
  endloop
endfacet
facet normal 0.000000 0.206452 -0.167961
  outer loop
    vertex 7.200000 0.663788 -0.468553
    vertex 4.800000 0.593804 -0.554574
    vertex 4.800000 0.663788 -0.468553
  endloop
endfacet
facet normal 0.000000 0.227400 -0.138285
  outer loop
    vertex 7.200000 0.663788 -0.468553
    vertex 4.800000 0.663788 -0.468553
    vertex 7.200000 0.721407 -0.373803
  endloop
endfacet
facet normal 0.000000 0.227400 -0.138285
  outer loop
    vertex 7.200000 0.721407 -0.373803
    vertex 4.800000 0.663788 -0.468553
    vertex 4.800000 0.721407 -0.373803
  endloop
endfacet
facet normal 0.000000 0.244112 -0.106032
  outer loop
    vertex 7.200000 0.721407 -0.373803
    vertex 4.800000 0.721407 -0.373803
    vertex 7.200000 0.765587 -0.272090
  endloop
endfacet
facet normal -0.000000 -0.018162 0.265525
  outer loop
    vertex 9.600000 -0.000000 0.812500
    vertex 7.200000 0.000000 0.812500
    vertex 9.600000 -0.110635 0.804932
  endloop
endfacet
facet normal 0.000000 -0.018162 0.265525
  outer loop
    vertex 9.600000 -0.110635 0.804932
    vertex 7.200000 0.000000 0.812500
    vertex 7.200000 -0.110635 0.804932
  endloop
endfacet
facet normal 0.000000 -0.054149 0.260579
  outer loop
    vertex 9.600000 -0.110635 0.804932
    vertex 7.200000 -0.110635 0.804932
    vertex 9.600000 -0.219210 0.782370
  endloop
endfacet
facet normal 0.000000 -0.054149 0.260579
  outer loop
    vertex 9.600000 -0.219210 0.782370
    vertex 7.200000 -0.110635 0.804932
    vertex 7.200000 -0.219210 0.782370
  endloop
endfacet
facet normal 0.000000 -0.089127 0.250778
  outer loop
    vertex 9.600000 -0.219210 0.782370
    vertex 7.200000 -0.219210 0.782370
    vertex 9.600000 -0.323701 0.745234
  endloop
endfacet
facet normal 0.000000 -0.089127 0.250778
  outer loop
    vertex 9.600000 -0.323701 0.745234
    vertex 7.200000 -0.219210 0.782370
    vertex 7.200000 -0.323701 0.745234
  endloop
endfacet
facet normal 0.000000 -0.122444 0.236307
  outer loop
    vertex 9.600000 -0.323701 0.745234
    vertex 7.200000 -0.323701 0.745234
    vertex 9.600000 -0.422162 0.694216
  endloop
endfacet
facet normal 0.000000 -0.122444 0.236307
  outer loop
    vertex 9.600000 -0.422162 0.694216
    vertex 7.200000 -0.323701 0.745234
    vertex 7.200000 -0.422162 0.694216
  endloop
endfacet
facet normal 0.000000 -0.153481 0.217433
  outer loop
    vertex 9.600000 -0.422162 0.694216
    vertex 7.200000 -0.422162 0.694216
    vertex 9.600000 -0.512759 0.630265
  endloop
endfacet
facet normal 0.000000 -0.153481 0.217433
  outer loop
    vertex 9.600000 -0.512759 0.630265
    vertex 7.200000 -0.422162 0.694216
    vertex 7.200000 -0.512759 0.630265
  endloop
endfacet
facet normal 0.000000 -0.181658 0.194509
  outer loop
    vertex 9.600000 -0.512759 0.630265
    vertex 7.200000 -0.512759 0.630265
    vertex 9.600000 -0.593804 0.554574
  endloop
endfacet
facet normal 0.000000 -0.181658 0.194509
  outer loop
    vertex 9.600000 -0.593804 0.554574
    vertex 7.200000 -0.512759 0.630265
    vertex 7.200000 -0.593804 0.554574
  endloop
endfacet
facet normal 0.000000 -0.206452 0.167961
  outer loop
    vertex 9.600000 -0.593804 0.554574
    vertex 7.200000 -0.593804 0.554574
    vertex 9.600000 -0.663788 0.468553
  endloop
endfacet
facet normal 0.000000 -0.206452 0.167961
  outer loop
    vertex 9.600000 -0.663788 0.468553
    vertex 7.200000 -0.593804 0.554574
    vertex 7.200000 -0.663788 0.468553
  endloop
endfacet
facet normal 0.000000 -0.227400 0.138285
  outer loop
    vertex 9.600000 -0.663788 0.468553
    vertex 7.200000 -0.663788 0.468553
    vertex 9.600000 -0.721407 0.373803
  endloop
endfacet
facet normal 0.000000 -0.227400 0.138285
  outer loop
    vertex 9.600000 -0.721407 0.373803
    vertex 7.200000 -0.663788 0.468553
    vertex 7.200000 -0.721407 0.373803
  endloop
endfacet
facet normal 0.000000 -0.244112 0.106033
  outer loop
    vertex 9.600000 -0.721407 0.373803
    vertex 7.200000 -0.721407 0.373803
    vertex 9.600000 -0.765587 0.272090
  endloop
endfacet
facet normal 0.000000 -0.244112 0.106033
  outer loop
    vertex 9.600000 -0.765587 0.272090
    vertex 7.200000 -0.721407 0.373803
    vertex 7.200000 -0.765587 0.272090
  endloop
endfacet
facet normal 0.000000 -0.256276 0.071805
  outer loop
    vertex 9.600000 -0.765587 0.272090
    vertex 7.200000 -0.765587 0.272090
    vertex 9.600000 -0.795506 0.165308
  endloop
endfacet
facet normal 0.000000 -0.256276 0.071805
  outer loop
    vertex 9.600000 -0.795506 0.165308
    vertex 7.200000 -0.765587 0.272090
    vertex 7.200000 -0.795506 0.165308
  endloop
endfacet
facet normal 0.000000 -0.264933 0.036326
  outer loop
    vertex 9.600000 -0.795506 0.165308
    vertex 7.200000 -0.795506 0.165308
    vertex 9.600000 -0.810642 0.054919
  endloop
endfacet
facet normal 0.000000 -0.264933 0.036326
  outer loop
    vertex 9.600000 -0.810642 0.054919
    vertex 7.200000 -0.795506 0.165308
    vertex 7.200000 -0.810642 0.054919
  endloop
endfacet
facet normal -0.000000 -0.263613 -0.000000
  outer loop
    vertex 9.600000 -0.810642 0.054919
    vertex 7.200000 -0.810642 0.054919
    vertex 9.600000 -0.810642 -0.054919
  endloop
endfacet
facet normal 0.000000 -0.263613 0.000000
  outer loop
    vertex 9.600000 -0.810642 -0.054919
    vertex 7.200000 -0.810642 0.054919
    vertex 7.200000 -0.810642 -0.054919
  endloop
endfacet
facet normal -0.000000 -0.264933 -0.036326
  outer loop
    vertex 9.600000 -0.810642 -0.054919
    vertex 7.200000 -0.810642 -0.054919
    vertex 9.600000 -0.795506 -0.165308
  endloop
endfacet
facet normal -0.000000 -0.264933 -0.036326
  outer loop
    vertex 9.600000 -0.795506 -0.165308
    vertex 7.200000 -0.810642 -0.054919
    vertex 7.200000 -0.795506 -0.165308
  endloop
endfacet
facet normal -0.000000 -0.256276 -0.071805
  outer loop
    vertex 9.600000 -0.795506 -0.165308
    vertex 7.200000 -0.795506 -0.165308
    vertex 9.600000 -0.765587 -0.272090
  endloop
endfacet
facet normal -0.000000 -0.256276 -0.071805
  outer loop
    vertex 9.600000 -0.765587 -0.272090
    vertex 7.200000 -0.795506 -0.165308
    vertex 7.200000 -0.765587 -0.272090
  endloop
endfacet
facet normal -0.000000 -0.244112 -0.106033
  outer loop
    vertex 9.600000 -0.765587 -0.272090
    vertex 7.200000 -0.765587 -0.272090
    vertex 9.600000 -0.721407 -0.373803
  endloop
endfacet
facet normal -0.000000 -0.244112 -0.106033
  outer loop
    vertex 9.600000 -0.721407 -0.373803
    vertex 7.200000 -0.765587 -0.272090
    vertex 7.200000 -0.721407 -0.373803
  endloop
endfacet
facet normal -0.000000 -0.227400 -0.138285
  outer loop
    vertex 9.600000 -0.721407 -0.373803
    vertex 7.200000 -0.721407 -0.373803
    vertex 9.600000 -0.663788 -0.468553
  endloop
endfacet
facet normal -0.000000 -0.227400 -0.138285
  outer loop
    vertex 9.600000 -0.663788 -0.468553
    vertex 7.200000 -0.721407 -0.373803
    vertex 7.200000 -0.663788 -0.468553
  endloop
endfacet
facet normal -0.000000 -0.206452 -0.167961
  outer loop
    vertex 9.600000 -0.663788 -0.468553
    vertex 7.200000 -0.663788 -0.468553
    vertex 9.600000 -0.593804 -0.554574
  endloop
endfacet
facet normal -0.000000 -0.206452 -0.167961
  outer loop
    vertex 9.600000 -0.593804 -0.554574
    vertex 7.200000 -0.663788 -0.468553
    vertex 7.200000 -0.593804 -0.554574
  endloop
endfacet
facet normal -0.000000 -0.181658 -0.194509
  outer loop
    vertex 9.600000 -0.593804 -0.554574
    vertex 7.200000 -0.593804 -0.554574
    vertex 9.600000 -0.512759 -0.630265
  endloop
endfacet
facet normal -0.000000 -0.181658 -0.194509
  outer loop
    vertex 9.600000 -0.512759 -0.630265
    vertex 7.200000 -0.593804 -0.554574
    vertex 7.200000 -0.512759 -0.630265
  endloop
endfacet
facet normal -0.000000 -0.153481 -0.217433
  outer loop
    vertex 9.600000 -0.512759 -0.630265
    vertex 7.200000 -0.512759 -0.630265
    vertex 9.600000 -0.422162 -0.694216
  endloop
endfacet
facet normal -0.000000 -0.153481 -0.217433
  outer loop
    vertex 9.600000 -0.422162 -0.694216
    vertex 7.200000 -0.512759 -0.630265
    vertex 7.200000 -0.422162 -0.694216
  endloop
endfacet
facet normal -0.000000 -0.122444 -0.236307
  outer loop
    vertex 9.600000 -0.422162 -0.694216
    vertex 7.200000 -0.422162 -0.694216
    vertex 9.600000 -0.323701 -0.745234
  endloop
endfacet
facet normal -0.000000 -0.122444 -0.236307
  outer loop
    vertex 9.600000 -0.323701 -0.745234
    vertex 7.200000 -0.422162 -0.694216
    vertex 7.200000 -0.323701 -0.745234
  endloop
endfacet
facet normal -0.000000 -0.089127 -0.250778
  outer loop
    vertex 9.600000 -0.323701 -0.745234
    vertex 7.200000 -0.323701 -0.745234
    vertex 9.600000 -0.219210 -0.782370
  endloop
endfacet
facet normal -0.000000 -0.089127 -0.250778
  outer loop
    vertex 9.600000 -0.219210 -0.782370
    vertex 7.200000 -0.323701 -0.745234
    vertex 7.200000 -0.219210 -0.782370
  endloop
endfacet
facet normal -0.000000 -0.054149 -0.260579
  outer loop
    vertex 9.600000 -0.219210 -0.782370
    vertex 7.200000 -0.219210 -0.782370
    vertex 9.600000 -0.110635 -0.804932
  endloop
endfacet
facet normal -0.000000 -0.054149 -0.260579
  outer loop
    vertex 9.600000 -0.110635 -0.804932
    vertex 7.200000 -0.219210 -0.782370
    vertex 7.200000 -0.110635 -0.804932
  endloop
endfacet
facet normal -0.000000 -0.018162 -0.265525
  outer loop
    vertex 9.600000 -0.110635 -0.804932
    vertex 7.200000 -0.110635 -0.804932
    vertex 9.600000 0.000000 -0.812500
  endloop
endfacet
facet normal -0.000000 -0.018162 -0.265525
  outer loop
    vertex 9.600000 0.000000 -0.812500
    vertex 7.200000 -0.110635 -0.804932
    vertex 7.200000 0.000000 -0.812500
  endloop
endfacet
facet normal 0.000000 0.018162 -0.265525
  outer loop
    vertex 9.600000 0.000000 -0.812500
    vertex 7.200000 0.000000 -0.812500
    vertex 9.600000 0.110635 -0.804932
  endloop
endfacet
facet normal 0.000000 0.018162 -0.265525
  outer loop
    vertex 9.600000 0.110635 -0.804932
    vertex 7.200000 0.000000 -0.812500
    vertex 7.200000 0.110635 -0.804932
  endloop
endfacet
facet normal 0.000000 0.054149 -0.260579
  outer loop
    vertex 9.600000 0.110635 -0.804932
    vertex 7.200000 0.110635 -0.804932
    vertex 9.600000 0.219210 -0.782370
  endloop
endfacet
facet normal 0.000000 0.054149 -0.260579
  outer loop
    vertex 9.600000 0.219210 -0.782370
    vertex 7.200000 0.110635 -0.804932
    vertex 7.200000 0.219210 -0.782370
  endloop
endfacet
facet normal 0.000000 0.089127 -0.250778
  outer loop
    vertex 9.600000 0.219210 -0.782370
    vertex 7.200000 0.219210 -0.782370
    vertex 9.600000 0.323701 -0.745234
  endloop
endfacet
facet normal 0.000000 0.089127 -0.250778
  outer loop
    vertex 9.600000 0.323701 -0.745234
    vertex 7.200000 0.219210 -0.782370
    vertex 7.200000 0.323701 -0.745234
  endloop
endfacet
facet normal 0.000000 0.122444 -0.236307
  outer loop
    vertex 9.600000 0.323701 -0.745234
    vertex 7.200000 0.323701 -0.745234
    vertex 9.600000 0.422162 -0.694216
  endloop
endfacet
facet normal 0.000000 0.122444 -0.236307
  outer loop
    vertex 9.600000 0.422162 -0.694216
    vertex 7.200000 0.323701 -0.745234
    vertex 7.200000 0.422162 -0.694216
  endloop
endfacet
facet normal 0.000000 0.153481 -0.217433
  outer loop
    vertex 9.600000 0.422162 -0.694216
    vertex 7.200000 0.422162 -0.694216
    vertex 9.600000 0.512759 -0.630265
  endloop
endfacet
facet normal 0.000000 0.153481 -0.217433
  outer loop
    vertex 9.600000 0.512759 -0.630265
    vertex 7.200000 0.422162 -0.694216
    vertex 7.200000 0.512759 -0.630265
  endloop
endfacet
facet normal 0.000000 0.181658 -0.194509
  outer loop
    vertex 9.600000 0.512759 -0.630265
    vertex 7.200000 0.512759 -0.630265
    vertex 9.600000 0.593804 -0.554574
  endloop
endfacet
facet normal 0.000000 0.181658 -0.194509
  outer loop
    vertex 9.600000 0.593804 -0.554574
    vertex 7.200000 0.512759 -0.630265
    vertex 7.200000 0.593804 -0.554574
  endloop
endfacet
facet normal 0.000000 0.206452 -0.167961
  outer loop
    vertex 9.600000 0.593804 -0.554574
    vertex 7.200000 0.593804 -0.554574
    vertex 9.600000 0.663788 -0.468553
  endloop
endfacet
facet normal 0.000000 0.206452 -0.167961
  outer loop
    vertex 9.600000 0.663788 -0.468553
    vertex 7.200000 0.593804 -0.554574
    vertex 7.200000 0.663788 -0.468553
  endloop
endfacet
facet normal 0.000000 0.227400 -0.138285
  outer loop
    vertex 9.600000 0.663788 -0.468553
    vertex 7.200000 0.663788 -0.468553
    vertex 9.600000 0.721407 -0.373803
  endloop
endfacet
facet normal 0.000000 0.227400 -0.138285
  outer loop
    vertex 9.600000 0.721407 -0.373803
    vertex 7.200000 0.663788 -0.468553
    vertex 7.200000 0.721407 -0.373803
  endloop
endfacet
facet normal 0.000000 0.244112 -0.106033
  outer loop
    vertex 9.600000 0.721407 -0.373803
    vertex 7.200000 0.721407 -0.373803
    vertex 9.600000 0.765587 -0.272090
  endloop
endfacet
facet normal 0.000000 0.244112 -0.106033
  outer loop
    vertex 9.600000 0.765587 -0.272090
    vertex 7.200000 0.721407 -0.373803
    vertex 7.200000 0.765587 -0.272090
  endloop
endfacet
facet normal 0.000000 0.000000 -1.986833
  outer loop
    vertex 0.000000 0.790569 0.187500
    vertex 12.000000 0.790569 0.187500
    vertex 0.000000 0.625000 0.187500
  endloop
endfacet
facet normal 0.000000 0.000000 -1.986833
  outer loop
    vertex 0.000000 0.625000 0.187500
    vertex 12.000000 0.790569 0.187500
    vertex 12.000000 0.625000 0.187500
  endloop
endfacet
facet normal 0.017371 0.000000 0.000000
  outer loop
    vertex 12.000000 0.790569 0.187500
    vertex 12.000000 0.758056 0.292416
    vertex 12.000000 0.625000 0.187500
  endloop
endfacet
facet normal 0.018113 0.000000 0.000000
  outer loop
    vertex 12.000000 0.625000 0.187500
    vertex 12.000000 0.758056 0.292416
    vertex 12.000000 0.711689 0.391989
  endloop
endfacet
facet normal 0.020152 0.000000 0.000000
  outer loop
    vertex 12.000000 0.625000 0.187500
    vertex 12.000000 0.711689 0.391989
    vertex 12.000000 0.652315 0.484398
  endloop
endfacet
facet normal 0.023450 0.000000 0.000000
  outer loop
    vertex 12.000000 0.652315 0.484398
    vertex 12.000000 0.581020 0.567954
    vertex 12.000000 0.625000 0.187500
  endloop
endfacet
facet normal 0.027946 0.000000 0.000000
  outer loop
    vertex 12.000000 0.625000 0.187500
    vertex 12.000000 0.581020 0.567954
    vertex 12.000000 0.499107 0.641130
  endloop
endfacet
facet normal 0.033559 0.000000 0.000000
  outer loop
    vertex 12.000000 0.625000 0.187500
    vertex 12.000000 0.499107 0.641130
    vertex 12.000000 0.408073 0.702590
  endloop
endfacet
facet normal 0.040185 0.000000 0.000000
  outer loop
    vertex 12.000000 0.408073 0.702590
    vertex 12.000000 0.309580 0.751210
    vertex 12.000000 0.625000 0.187500
  endloop
endfacet
facet normal 0.047705 0.000000 0.000000
  outer loop
    vertex 12.000000 0.625000 0.187500
    vertex 12.000000 0.309580 0.751210
    vertex 12.000000 0.205431 0.786101
  endloop
endfacet
facet normal 0.055980 0.000000 0.000000
  outer loop
    vertex 12.000000 0.625000 0.187500
    vertex 12.000000 0.205431 0.786101
    vertex 12.000000 0.097526 0.806626
  endloop
endfacet
facet normal 0.064859 0.000000 0.000000
  outer loop
    vertex 12.000000 0.097526 0.806626
    vertex 12.000000 -0.012160 0.812409
    vertex 12.000000 0.625000 0.187500
  endloop
endfacet
facet normal 0.074180 0.000000 0.000000
  outer loop
    vertex 12.000000 0.625000 0.187500
    vertex 12.000000 -0.012160 0.812409
    vertex 12.000000 -0.121625 0.803345
  endloop
endfacet
facet normal 0.083773 0.000000 0.000000
  outer loop
    vertex 12.000000 0.625000 0.187500
    vertex 12.000000 -0.121625 0.803345
    vertex 12.000000 -0.228866 0.779600
  endloop
endfacet
facet normal 0.093462 0.000000 0.000000
  outer loop
    vertex 12.000000 -0.228866 0.779600
    vertex 12.000000 -0.331925 0.741608
    vertex 12.000000 0.625000 0.187500
  endloop
endfacet
facet normal 1.419326 0.000000 0.000000
  outer loop
    vertex 12.000000 0.625000 0.187500
    vertex 12.000000 -0.331925 0.741608
    vertex 12.000000 -0.331925 -0.741608
  endloop
endfacet
facet normal 0.358847 0.000000 0.000000
  outer loop
    vertex 12.000000 0.625000 0.187500
    vertex 12.000000 -0.331925 -0.741608
    vertex 12.000000 0.625000 -0.187500
  endloop
endfacet
facet normal 0.093462 0.000000 0.000000
  outer loop
    vertex 12.000000 0.625000 -0.187500
    vertex 12.000000 -0.331925 -0.741608
    vertex 12.000000 -0.228866 -0.779600
  endloop
endfacet
facet normal 0.083773 0.000000 0.000000
  outer loop
    vertex 12.000000 0.625000 -0.187500
    vertex 12.000000 -0.228866 -0.779600
    vertex 12.000000 -0.121625 -0.803345
  endloop
endfacet
facet normal 0.143861 0.000000 -0.000000
  outer loop
    vertex 12.000000 -0.331925 -0.741608
    vertex 12.000000 -0.331925 0.741608
    vertex 12.000000 -0.428918 -0.690062
  endloop
endfacet
facet normal 0.133862 0.000000 0.000000
  outer loop
    vertex 12.000000 -0.428918 -0.690062
    vertex 12.000000 -0.331925 0.741608
    vertex 12.000000 -0.428918 0.690062
  endloop
endfacet
facet normal 0.123044 0.000000 -0.000000
  outer loop
    vertex 12.000000 -0.428918 -0.690062
    vertex 12.000000 -0.428918 0.690062
    vertex 12.000000 -0.518072 -0.625905
  endloop
endfacet
facet normal 0.111604 0.000000 0.000000
  outer loop
    vertex 12.000000 -0.518072 -0.625905
    vertex 12.000000 -0.428918 0.690062
    vertex 12.000000 -0.518072 0.625905
  endloop
endfacet
facet normal 0.099752 0.000000 -0.000000
  outer loop
    vertex 12.000000 -0.518072 -0.625905
    vertex 12.000000 -0.518072 0.625905
    vertex 12.000000 -0.597759 -0.550310
  endloop
endfacet
facet normal 0.087704 0.000000 0.000000
  outer loop
    vertex 12.000000 -0.597759 -0.550310
    vertex 12.000000 -0.518072 0.625905
    vertex 12.000000 -0.597759 0.550310
  endloop
endfacet
facet normal 0.075681 0.000000 -0.000000
  outer loop
    vertex 12.000000 -0.597759 -0.550310
    vertex 12.000000 -0.597759 0.550310
    vertex 12.000000 -0.666521 -0.464657
  endloop
endfacet
facet normal 0.063902 0.000000 0.000000
  outer loop
    vertex 12.000000 -0.666521 -0.464657
    vertex 12.000000 -0.597759 0.550310
    vertex 12.000000 -0.666521 0.464657
  endloop
endfacet
facet normal 0.052582 0.000000 -0.000000
  outer loop
    vertex 12.000000 -0.666521 -0.464657
    vertex 12.000000 -0.666521 0.464657
    vertex 12.000000 -0.723102 -0.370513
  endloop
endfacet
facet normal 0.041928 0.000000 0.000000
  outer loop
    vertex 12.000000 -0.723102 -0.370513
    vertex 12.000000 -0.666521 0.464657
    vertex 12.000000 -0.723102 0.370513
  endloop
endfacet
facet normal 0.032136 0.000000 -0.000000
  outer loop
    vertex 12.000000 -0.723102 -0.370513
    vertex 12.000000 -0.723102 0.370513
    vertex 12.000000 -0.766468 -0.269597
  endloop
endfacet
facet normal 0.023383 0.000000 0.000000
  outer loop
    vertex 12.000000 -0.766468 -0.269597
    vertex 12.000000 -0.723102 0.370513
    vertex 12.000000 -0.766468 0.269597
  endloop
endfacet
facet normal 0.015830 0.000000 -0.000000
  outer loop
    vertex 12.000000 -0.766468 -0.269597
    vertex 12.000000 -0.766468 0.269597
    vertex 12.000000 -0.795827 -0.163755
  endloop
endfacet
facet normal 0.009615 0.000000 0.000000
  outer loop
    vertex 12.000000 -0.795827 -0.163755
    vertex 12.000000 -0.766468 0.269597
    vertex 12.000000 -0.795827 0.163755
  endloop
endfacet
facet normal 0.004852 0.000000 -0.000000
  outer loop
    vertex 12.000000 -0.795827 -0.163755
    vertex 12.000000 -0.795827 0.163755
    vertex 12.000000 -0.810642 -0.054919
  endloop
endfacet
facet normal 0.001627 0.000000 0.000000
  outer loop
    vertex 12.000000 -0.810642 -0.054919
    vertex 12.000000 -0.795827 0.163755
    vertex 12.000000 -0.810642 0.054919
  endloop
endfacet
facet normal 0.074180 -0.000000 0.000000
  outer loop
    vertex 12.000000 -0.121625 -0.803345
    vertex 12.000000 -0.012160 -0.812409
    vertex 12.000000 0.625000 -0.187500
  endloop
endfacet
facet normal 0.064859 0.000000 0.000000
  outer loop
    vertex 12.000000 0.625000 -0.187500
    vertex 12.000000 -0.012160 -0.812409
    vertex 12.000000 0.097526 -0.806626
  endloop
endfacet
facet normal 0.055980 0.000000 0.000000
  outer loop
    vertex 12.000000 0.625000 -0.187500
    vertex 12.000000 0.097526 -0.806626
    vertex 12.000000 0.205431 -0.786101
  endloop
endfacet
facet normal 0.047705 0.000000 0.000000
  outer loop
    vertex 12.000000 0.205431 -0.786101
    vertex 12.000000 0.309580 -0.751210
    vertex 12.000000 0.625000 -0.187500
  endloop
endfacet
facet normal 0.040185 0.000000 0.000000
  outer loop
    vertex 12.000000 0.625000 -0.187500
    vertex 12.000000 0.309580 -0.751210
    vertex 12.000000 0.408073 -0.702590
  endloop
endfacet
facet normal 0.033559 0.000000 0.000000
  outer loop
    vertex 12.000000 0.625000 -0.187500
    vertex 12.000000 0.408073 -0.702590
    vertex 12.000000 0.499107 -0.641130
  endloop
endfacet
facet normal 0.027946 0.000000 0.000000
  outer loop
    vertex 12.000000 0.499107 -0.641130
    vertex 12.000000 0.581020 -0.567954
    vertex 12.000000 0.625000 -0.187500
  endloop
endfacet
facet normal 0.023450 0.000000 0.000000
  outer loop
    vertex 12.000000 0.625000 -0.187500
    vertex 12.000000 0.581020 -0.567954
    vertex 12.000000 0.652315 -0.484398
  endloop
endfacet
facet normal 0.020152 0.000000 0.000000
  outer loop
    vertex 12.000000 0.625000 -0.187500
    vertex 12.000000 0.652315 -0.484398
    vertex 12.000000 0.711689 -0.391989
  endloop
endfacet
facet normal 0.018113 0.000000 -0.000000
  outer loop
    vertex 12.000000 0.711689 -0.391989
    vertex 12.000000 0.758056 -0.292416
    vertex 12.000000 0.625000 -0.187500
  endloop
endfacet
facet normal 0.017371 -0.000000 0.000000
  outer loop
    vertex 12.000000 0.625000 -0.187500
    vertex 12.000000 0.758056 -0.292416
    vertex 12.000000 0.790569 -0.187500
  endloop
endfacet
facet normal -0.017371 0.000000 0.000000
  outer loop
    vertex 0.000000 0.790569 0.187500
    vertex 0.000000 0.625000 0.187500
    vertex 0.000000 0.758056 0.292416
  endloop
endfacet
facet normal -0.018113 -0.000000 0.000000
  outer loop
    vertex 0.000000 0.758056 0.292416
    vertex 0.000000 0.625000 0.187500
    vertex 0.000000 0.711689 0.391989
  endloop
endfacet
facet normal -0.020152 -0.000000 0.000000
  outer loop
    vertex 0.000000 0.711689 0.391989
    vertex 0.000000 0.625000 0.187500
    vertex 0.000000 0.652315 0.484398
  endloop
endfacet
facet normal -0.023450 -0.000000 0.000000
  outer loop
    vertex 0.000000 0.652315 0.484398
    vertex 0.000000 0.625000 0.187500
    vertex 0.000000 0.581020 0.567954
  endloop
endfacet
facet normal -0.027946 -0.000000 -0.000000
  outer loop
    vertex 0.000000 0.581020 0.567954
    vertex 0.000000 0.625000 0.187500
    vertex 0.000000 0.499107 0.641130
  endloop
endfacet
facet normal -0.033559 -0.000000 -0.000000
  outer loop
    vertex 0.000000 0.499107 0.641130
    vertex 0.000000 0.625000 0.187500
    vertex 0.000000 0.408073 0.702590
  endloop
endfacet
facet normal -0.040185 -0.000000 -0.000000
  outer loop
    vertex 0.000000 0.408073 0.702590
    vertex 0.000000 0.625000 0.187500
    vertex 0.000000 0.309580 0.751210
  endloop
endfacet
facet normal -0.047705 -0.000000 -0.000000
  outer loop
    vertex 0.000000 0.309580 0.751210
    vertex 0.000000 0.625000 0.187500
    vertex 0.000000 0.205431 0.786101
  endloop
endfacet
facet normal -0.055980 -0.000000 -0.000000
  outer loop
    vertex 0.000000 0.205431 0.786101
    vertex 0.000000 0.625000 0.187500
    vertex 0.000000 0.097526 0.806626
  endloop
endfacet
facet normal -0.064859 -0.000000 -0.000000
  outer loop
    vertex 0.000000 0.097526 0.806626
    vertex 0.000000 0.625000 0.187500
    vertex 0.000000 -0.012160 0.812409
  endloop
endfacet
facet normal -0.074180 0.000000 -0.000000
  outer loop
    vertex 0.000000 -0.012160 0.812409
    vertex 0.000000 0.625000 0.187500
    vertex 0.000000 -0.121625 0.803345
  endloop
endfacet
facet normal -0.083773 0.000000 -0.000000
  outer loop
    vertex 0.000000 -0.121625 0.803345
    vertex 0.000000 0.625000 0.187500
    vertex 0.000000 -0.228866 0.779600
  endloop
endfacet
facet normal -0.093462 0.000000 -0.000000
  outer loop
    vertex 0.000000 -0.228866 0.779600
    vertex 0.000000 0.625000 0.187500
    vertex 0.000000 -0.331925 0.741608
  endloop
endfacet
facet normal -0.358847 0.000000 0.000000
  outer loop
    vertex 0.000000 -0.331925 0.741608
    vertex 0.000000 0.625000 0.187500
    vertex 0.000000 0.625000 -0.187500
  endloop
endfacet
facet normal -1.419326 0.000000 0.000000
  outer loop
    vertex 0.000000 -0.331925 0.741608
    vertex 0.000000 0.625000 -0.187500
    vertex 0.000000 -0.331925 -0.741608
  endloop
endfacet
facet normal -0.093462 0.000000 0.000000
  outer loop
    vertex 0.000000 -0.331925 -0.741608
    vertex 0.000000 0.625000 -0.187500
    vertex 0.000000 -0.228866 -0.779600
  endloop
endfacet
facet normal -0.083773 0.000000 0.000000
  outer loop
    vertex 0.000000 -0.228866 -0.779600
    vertex 0.000000 0.625000 -0.187500
    vertex 0.000000 -0.121625 -0.803345
  endloop
endfacet
facet normal -0.074180 0.000000 0.000000
  outer loop
    vertex 0.000000 -0.121625 -0.803345
    vertex 0.000000 0.625000 -0.187500
    vertex 0.000000 -0.012160 -0.812409
  endloop
endfacet
facet normal -0.064859 0.000000 0.000000
  outer loop
    vertex 0.000000 -0.012160 -0.812409
    vertex 0.000000 0.625000 -0.187500
    vertex 0.000000 0.097526 -0.806626
  endloop
endfacet
facet normal -0.055980 0.000000 0.000000
  outer loop
    vertex 0.000000 0.097526 -0.806626
    vertex 0.000000 0.625000 -0.187500
    vertex 0.000000 0.205431 -0.786101
  endloop
endfacet
facet normal -0.047705 0.000000 0.000000
  outer loop
    vertex 0.000000 0.205431 -0.786101
    vertex 0.000000 0.625000 -0.187500
    vertex 0.000000 0.309580 -0.751210
  endloop
endfacet
facet normal -0.040185 0.000000 0.000000
  outer loop
    vertex 0.000000 0.309580 -0.751210
    vertex 0.000000 0.625000 -0.187500
    vertex 0.000000 0.408073 -0.702590
  endloop
endfacet
facet normal -0.033559 0.000000 0.000000
  outer loop
    vertex 0.000000 0.408073 -0.702590
    vertex 0.000000 0.625000 -0.187500
    vertex 0.000000 0.499107 -0.641130
  endloop
endfacet
facet normal -0.027946 0.000000 0.000000
  outer loop
    vertex 0.000000 0.499107 -0.641130
    vertex 0.000000 0.625000 -0.187500
    vertex 0.000000 0.581020 -0.567954
  endloop
endfacet
facet normal -0.023450 0.000000 0.000000
  outer loop
    vertex 0.000000 0.581020 -0.567954
    vertex 0.000000 0.625000 -0.187500
    vertex 0.000000 0.652315 -0.484398
  endloop
endfacet
facet normal -0.020152 0.000000 0.000000
  outer loop
    vertex 0.000000 0.652315 -0.484398
    vertex 0.000000 0.625000 -0.187500
    vertex 0.000000 0.711689 -0.391989
  endloop
endfacet
facet normal -0.018113 0.000000 0.000000
  outer loop
    vertex 0.000000 0.711689 -0.391989
    vertex 0.000000 0.625000 -0.187500
    vertex 0.000000 0.758056 -0.292416
  endloop
endfacet
facet normal -0.017371 0.000000 0.000000
  outer loop
    vertex 0.000000 0.758056 -0.292416
    vertex 0.000000 0.625000 -0.187500
    vertex 0.000000 0.790569 -0.187500
  endloop
endfacet
facet normal -0.143861 0.000000 -0.000000
  outer loop
    vertex 0.000000 -0.331925 0.741608
    vertex 0.000000 -0.331925 -0.741608
    vertex 0.000000 -0.428918 0.690062
  endloop
endfacet
facet normal -0.133862 0.000000 0.000000
  outer loop
    vertex 0.000000 -0.428918 0.690062
    vertex 0.000000 -0.331925 -0.741608
    vertex 0.000000 -0.428918 -0.690062
  endloop
endfacet
facet normal -0.123044 0.000000 -0.000000
  outer loop
    vertex 0.000000 -0.428918 0.690062
    vertex 0.000000 -0.428918 -0.690062
    vertex 0.000000 -0.518072 0.625905
  endloop
endfacet
facet normal -0.111604 0.000000 0.000000
  outer loop
    vertex 0.000000 -0.518072 0.625905
    vertex 0.000000 -0.428918 -0.690062
    vertex 0.000000 -0.518072 -0.625905
  endloop
endfacet
facet normal -0.099752 0.000000 -0.000000
  outer loop
    vertex 0.000000 -0.518072 0.625905
    vertex 0.000000 -0.518072 -0.625905
    vertex 0.000000 -0.597759 0.550310
  endloop
endfacet
facet normal -0.087704 0.000000 0.000000
  outer loop
    vertex 0.000000 -0.597759 0.550310
    vertex 0.000000 -0.518072 -0.625905
    vertex 0.000000 -0.597759 -0.550310
  endloop
endfacet
facet normal -0.075681 0.000000 -0.000000
  outer loop
    vertex 0.000000 -0.597759 0.550310
    vertex 0.000000 -0.597759 -0.550310
    vertex 0.000000 -0.666521 0.464657
  endloop
endfacet
facet normal -0.063902 0.000000 0.000000
  outer loop
    vertex 0.000000 -0.666521 0.464657
    vertex 0.000000 -0.597759 -0.550310
    vertex 0.000000 -0.666521 -0.464657
  endloop
endfacet
facet normal -0.052582 0.000000 -0.000000
  outer loop
    vertex 0.000000 -0.666521 0.464657
    vertex 0.000000 -0.666521 -0.464657
    vertex 0.000000 -0.723102 0.370513
  endloop
endfacet
facet normal -0.041928 0.000000 0.000000
  outer loop
    vertex 0.000000 -0.723102 0.370513
    vertex 0.000000 -0.666521 -0.464657
    vertex 0.000000 -0.723102 -0.370513
  endloop
endfacet
facet normal -0.032136 0.000000 -0.000000
  outer loop
    vertex 0.000000 -0.723102 0.370513
    vertex 0.000000 -0.723102 -0.370513
    vertex 0.000000 -0.766468 0.269597
  endloop
endfacet
facet normal -0.023383 0.000000 0.000000
  outer loop
    vertex 0.000000 -0.766468 0.269597
    vertex 0.000000 -0.723102 -0.370513
    vertex 0.000000 -0.766468 -0.269597
  endloop
endfacet
facet normal -0.015830 0.000000 -0.000000
  outer loop
    vertex 0.000000 -0.766468 0.269597
    vertex 0.000000 -0.766468 -0.269597
    vertex 0.000000 -0.795827 0.163755
  endloop
endfacet
facet normal -0.009615 0.000000 0.000000
  outer loop
    vertex 0.000000 -0.795827 0.163755
    vertex 0.000000 -0.766468 -0.269597
    vertex 0.000000 -0.795827 -0.163755
  endloop
endfacet
facet normal -0.004852 0.000000 -0.000000
  outer loop
    vertex 0.000000 -0.795827 0.163755
    vertex 0.000000 -0.795827 -0.163755
    vertex 0.000000 -0.810642 0.054919
  endloop
endfacet
facet normal -0.001627 0.000000 0.000000
  outer loop
    vertex 0.000000 -0.810642 0.054919
    vertex 0.000000 -0.795827 -0.163755
    vertex 0.000000 -0.810642 -0.054919
  endloop
endfacet
endsolid dee7547d-a902-49fc-862a-52a746a12e8b-ascii.stl
