solid e01aa5f4-dd27-4784-8e13-c1e76ac69616-ascii.stl
facet normal -0.000000 6.000000 0.000000
  outer loop
    vertex 0.000000 0.437500 0.125000
    vertex 24.000000 0.437500 0.125000
    vertex 0.000000 0.437500 -0.125000
  endloop
endfacet
facet normal 0.000000 6.000000 0.000000
  outer loop
    vertex 0.000000 0.437500 -0.125000
    vertex 24.000000 0.437500 0.125000
    vertex 24.000000 0.437500 -0.125000
  endloop
endfacet
facet normal 0.000000 0.000000 2.662446
  outer loop
    vertex 0.000000 0.437500 -0.125000
    vertex 24.000000 0.437500 -0.125000
    vertex 0.000000 0.548435 -0.125000
  endloop
endfacet
facet normal -0.000000 0.000000 2.662446
  outer loop
    vertex 0.000000 0.548435 -0.125000
    vertex 24.000000 0.437500 -0.125000
    vertex 24.000000 0.548435 -0.125000
  endloop
endfacet
facet normal -0.000267 0.317110 0.110857
  outer loop
    vertex 0.000000 0.506864 0.243916
    vertex 2.666667 0.516497 0.222795
    vertex 0.000000 0.548435 0.125000
  endloop
endfacet
facet normal 0.000000 0.260786 0.085170
  outer loop
    vertex 0.000000 0.548435 0.125000
    vertex 2.666667 0.516497 0.222795
    vertex 5.333333 0.516497 0.222795
  endloop
endfacet
facet normal 0.000000 0.260786 0.085170
  outer loop
    vertex 0.000000 0.548435 0.125000
    vertex 5.333333 0.516497 0.222795
    vertex 8.000000 0.516497 0.222795
  endloop
endfacet
facet normal 0.000000 0.301618 0.174139
  outer loop
    vertex 8.000000 0.516497 0.222795
    vertex 5.333333 0.516497 0.222795
    vertex 8.000000 0.451194 0.335902
  endloop
endfacet
facet normal 0.000000 0.301618 0.174139
  outer loop
    vertex 8.000000 0.516497 0.222795
    vertex 8.000000 0.451194 0.335902
    vertex 10.666667 0.451194 0.335902
  endloop
endfacet
facet normal 0.000000 0.253329 0.239003
  outer loop
    vertex 10.666667 0.451194 0.335902
    vertex 8.000000 0.451194 0.335902
    vertex 10.666667 0.361568 0.430900
  endloop
endfacet
facet normal 0.000000 0.253329 0.239003
  outer loop
    vertex 10.666667 0.451194 0.335902
    vertex 10.666667 0.361568 0.430900
    vertex 13.333333 0.361568 0.430900
  endloop
endfacet
facet normal 0.000000 0.191382 0.290983
  outer loop
    vertex 13.333333 0.361568 0.430900
    vertex 10.666667 0.361568 0.430900
    vertex 13.333333 0.252450 0.502668
  endloop
endfacet
facet normal 0.000000 0.191382 0.290983
  outer loop
    vertex 13.333333 0.361568 0.430900
    vertex 13.333333 0.252450 0.502668
    vertex 16.000000 0.252450 0.502668
  endloop
endfacet
facet normal 0.000000 0.119118 0.327275
  outer loop
    vertex 16.000000 0.252450 0.502668
    vertex 13.333333 0.252450 0.502668
    vertex 16.000000 0.129721 0.547338
  endloop
endfacet
facet normal 0.000000 0.119118 0.327275
  outer loop
    vertex 16.000000 0.252450 0.502668
    vertex 16.000000 0.129721 0.547338
    vertex 18.666666 0.129721 0.547338
  endloop
endfacet
facet normal 0.000000 0.040433 0.345924
  outer loop
    vertex 18.666666 0.129721 0.547338
    vertex 16.000000 0.129721 0.547338
    vertex 18.666666 0.000000 0.562500
  endloop
endfacet
facet normal 0.000000 0.040433 0.345924
  outer loop
    vertex 18.666666 0.129721 0.547338
    vertex 18.666666 0.000000 0.562500
    vertex 21.333334 -0.000000 0.562500
  endloop
endfacet
facet normal -0.000000 -0.040433 0.345924
  outer loop
    vertex 21.333334 -0.000000 0.562500
    vertex 18.666666 0.000000 0.562500
    vertex 21.333334 -0.129721 0.547338
  endloop
endfacet
facet normal -0.000069 -0.040433 0.345924
  outer loop
    vertex 21.333334 -0.000000 0.562500
    vertex 21.333334 -0.129721 0.547338
    vertex 24.000000 -0.125090 0.548415
  endloop
endfacet
facet normal 0.000065 -0.110909 0.317092
  outer loop
    vertex 24.000000 -0.125090 0.548415
    vertex 21.333334 -0.129721 0.547338
    vertex 24.000000 -0.244000 0.506824
  endloop
endfacet
facet normal -0.000133 -0.119118 0.327275
  outer loop
    vertex 24.000000 -0.244000 0.506824
    vertex 21.333334 -0.129721 0.547338
    vertex 21.333334 -0.252450 0.502668
  endloop
endfacet
facet normal 0.000123 -0.178695 0.284458
  outer loop
    vertex 24.000000 -0.244000 0.506824
    vertex 21.333334 -0.252450 0.502668
    vertex 24.000000 -0.350672 0.439813
  endloop
endfacet
facet normal -0.000191 -0.191382 0.290983
  outer loop
    vertex 24.000000 -0.350672 0.439813
    vertex 21.333334 -0.252450 0.502668
    vertex 21.333334 -0.361568 0.430900
  endloop
endfacet
facet normal 0.000177 -0.237518 0.237557
  outer loop
    vertex 24.000000 -0.350672 0.439813
    vertex 21.333334 -0.361568 0.430900
    vertex 24.000000 -0.439755 0.350744
  endloop
endfacet
facet normal -0.000244 -0.253329 0.239003
  outer loop
    vertex 24.000000 -0.439755 0.350744
    vertex 21.333334 -0.361568 0.430900
    vertex 21.333334 -0.451194 0.335902
  endloop
endfacet
facet normal 0.000225 -0.284428 0.178741
  outer loop
    vertex 24.000000 -0.439755 0.350744
    vertex 21.333334 -0.451194 0.335902
    vertex 24.000000 -0.506783 0.244083
  endloop
endfacet
facet normal -0.000292 -0.301618 0.174139
  outer loop
    vertex 24.000000 -0.506783 0.244083
    vertex 21.333334 -0.451194 0.335902
    vertex 21.333334 -0.516497 0.222795
  endloop
endfacet
facet normal 0.000269 -0.317073 0.110961
  outer loop
    vertex 24.000000 -0.506783 0.244083
    vertex 21.333334 -0.516497 0.222795
    vertex 24.000000 -0.548394 0.125181
  endloop
endfacet
facet normal -0.000335 -0.333647 0.099888
  outer loop
    vertex 24.000000 -0.548394 0.125181
    vertex 21.333334 -0.516497 0.222795
    vertex 21.333334 -0.553954 0.097677
  endloop
endfacet
facet normal 0.000308 -0.333816 0.037616
  outer loop
    vertex 24.000000 -0.548394 0.125181
    vertex 21.333334 -0.553954 0.097677
    vertex 24.000000 -0.562500 0.000000
  endloop
endfacet
facet normal -0.000372 -0.347689 0.020251
  outer loop
    vertex 24.000000 -0.562500 0.000000
    vertex 21.333334 -0.553954 0.097677
    vertex 21.333334 -0.561548 -0.032706
  endloop
endfacet
facet normal 0.000342 -0.333816 -0.037616
  outer loop
    vertex 24.000000 -0.562500 0.000000
    vertex 21.333334 -0.561548 -0.032706
    vertex 24.000000 -0.548394 -0.125181
  endloop
endfacet
facet normal -0.000405 -0.342988 -0.060478
  outer loop
    vertex 24.000000 -0.548394 -0.125181
    vertex 21.333334 -0.561548 -0.032706
    vertex 21.333334 -0.538869 -0.161327
  endloop
endfacet
facet normal 0.000372 -0.317073 -0.110961
  outer loop
    vertex 24.000000 -0.548394 -0.125181
    vertex 21.333334 -0.538869 -0.161327
    vertex 24.000000 -0.506783 -0.244083
  endloop
endfacet
facet normal -0.000433 -0.319795 -0.137946
  outer loop
    vertex 24.000000 -0.506783 -0.244083
    vertex 21.333334 -0.538869 -0.161327
    vertex 21.333334 -0.487139 -0.281250
  endloop
endfacet
facet normal 0.000396 -0.284428 -0.178741
  outer loop
    vertex 24.000000 -0.506783 -0.244083
    vertex 21.333334 -0.487139 -0.281250
    vertex 24.000000 -0.439755 -0.350744
  endloop
endfacet
facet normal -0.000456 -0.279362 -0.207978
  outer loop
    vertex 24.000000 -0.439755 -0.350744
    vertex 21.333334 -0.487139 -0.281250
    vertex 21.333334 -0.409148 -0.386011
  endloop
endfacet
facet normal 0.000415 -0.237518 -0.237557
  outer loop
    vertex 24.000000 -0.439755 -0.350744
    vertex 21.333334 -0.409148 -0.386011
    vertex 24.000000 -0.350672 -0.439813
  endloop
endfacet
facet normal -0.000474 -0.223869 -0.266797
  outer loop
    vertex 24.000000 -0.350672 -0.439813
    vertex 21.333334 -0.409148 -0.386011
    vertex 21.333334 -0.309099 -0.469962
  endloop
endfacet
facet normal 0.000430 -0.178695 -0.284458
  outer loop
    vertex 24.000000 -0.350672 -0.439813
    vertex 21.333334 -0.309099 -0.469962
    vertex 24.000000 -0.244000 -0.506824
  endloop
endfacet
facet normal -0.000486 -0.156307 -0.311233
  outer loop
    vertex 24.000000 -0.244000 -0.506824
    vertex 21.333334 -0.309099 -0.469962
    vertex 21.333334 -0.192386 -0.528577
  endloop
endfacet
facet normal 0.000440 -0.110909 -0.317092
  outer loop
    vertex 24.000000 -0.244000 -0.506824
    vertex 21.333334 -0.192386 -0.528577
    vertex 24.000000 -0.125090 -0.548415
  endloop
endfacet
facet normal -0.000494 -0.080319 -0.338891
  outer loop
    vertex 24.000000 -0.125090 -0.548415
    vertex 21.333334 -0.192386 -0.528577
    vertex 21.333334 -0.065302 -0.558697
  endloop
endfacet
facet normal 0.000445 -0.037561 -0.333822
  outer loop
    vertex 24.000000 -0.125090 -0.548415
    vertex 21.333334 -0.065302 -0.558697
    vertex 24.000000 0.000093 -0.562500
  endloop
endfacet
facet normal -0.000497 0.000000 -0.348279
  outer loop
    vertex 24.000000 0.000093 -0.562500
    vertex 21.333334 -0.065302 -0.558697
    vertex 21.333334 0.065302 -0.558697
  endloop
endfacet
facet normal 0.000445 0.037671 -0.333810
  outer loop
    vertex 24.000000 0.000093 -0.562500
    vertex 21.333334 0.065302 -0.558697
    vertex 24.000000 0.125271 -0.548373
  endloop
endfacet
facet normal -0.000494 0.080319 -0.338891
  outer loop
    vertex 24.000000 0.125271 -0.548373
    vertex 21.333334 0.065302 -0.558697
    vertex 21.333334 0.192386 -0.528577
  endloop
endfacet
facet normal 0.000440 0.111014 -0.317055
  outer loop
    vertex 24.000000 0.125271 -0.548373
    vertex 21.333334 0.192386 -0.528577
    vertex 24.000000 0.244167 -0.506743
  endloop
endfacet
facet normal -0.000487 0.156307 -0.311233
  outer loop
    vertex 24.000000 0.244167 -0.506743
    vertex 21.333334 0.192386 -0.528577
    vertex 21.333334 0.309099 -0.469962
  endloop
endfacet
facet normal 0.000431 0.178788 -0.284399
  outer loop
    vertex 24.000000 0.244167 -0.506743
    vertex 21.333334 0.309099 -0.469962
    vertex 24.000000 0.350817 -0.439698
  endloop
endfacet
facet normal -0.000474 0.223869 -0.266797
  outer loop
    vertex 24.000000 0.350817 -0.439698
    vertex 21.333334 0.309099 -0.469962
    vertex 21.333334 0.409148 -0.386011
  endloop
endfacet
facet normal 0.000416 0.237596 -0.237479
  outer loop
    vertex 24.000000 0.350817 -0.439698
    vertex 21.333334 0.409148 -0.386011
    vertex 24.000000 0.439871 -0.350599
  endloop
endfacet
facet normal -0.000457 0.279362 -0.207978
  outer loop
    vertex 24.000000 0.439871 -0.350599
    vertex 21.333334 0.409148 -0.386011
    vertex 21.333334 0.487139 -0.281250
  endloop
endfacet
facet normal 0.000397 0.284487 -0.178648
  outer loop
    vertex 24.000000 0.439871 -0.350599
    vertex 21.333334 0.487139 -0.281250
    vertex 24.000000 0.506864 -0.243916
  endloop
endfacet
facet normal -0.000434 0.319795 -0.137946
  outer loop
    vertex 24.000000 0.506864 -0.243916
    vertex 21.333334 0.487139 -0.281250
    vertex 21.333334 0.538869 -0.161327
  endloop
endfacet
facet normal 0.000373 0.317110 -0.110857
  outer loop
    vertex 24.000000 0.506864 -0.243916
    vertex 21.333334 0.538869 -0.161327
    vertex 24.000000 0.548435 -0.125000
  endloop
endfacet
facet normal 0.000000 0.096872 -0.025510
  outer loop
    vertex 24.000000 0.548435 -0.125000
    vertex 21.333334 0.538869 -0.161327
    vertex 18.666666 0.538869 -0.161327
  endloop
endfacet
facet normal 0.000000 0.096872 -0.025510
  outer loop
    vertex 24.000000 0.548435 -0.125000
    vertex 18.666666 0.538869 -0.161327
    vertex 16.000000 0.538869 -0.161327
  endloop
endfacet
facet normal 0.000000 0.319795 -0.137946
  outer loop
    vertex 16.000000 0.538869 -0.161327
    vertex 18.666666 0.538869 -0.161327
    vertex 16.000000 0.487139 -0.281250
  endloop
endfacet
facet normal 0.000000 0.319795 -0.137946
  outer loop
    vertex 16.000000 0.538869 -0.161327
    vertex 16.000000 0.487139 -0.281250
    vertex 13.333333 0.487139 -0.281250
  endloop
endfacet
facet normal 0.000000 0.279362 -0.207978
  outer loop
    vertex 13.333333 0.487139 -0.281250
    vertex 16.000000 0.487139 -0.281250
    vertex 13.333333 0.409148 -0.386011
  endloop
endfacet
facet normal 0.000000 0.279362 -0.207978
  outer loop
    vertex 13.333333 0.487139 -0.281250
    vertex 13.333333 0.409148 -0.386011
    vertex 10.666667 0.409148 -0.386011
  endloop
endfacet
facet normal 0.000000 0.223869 -0.266797
  outer loop
    vertex 10.666667 0.409148 -0.386011
    vertex 13.333333 0.409148 -0.386011
    vertex 10.666667 0.309099 -0.469962
  endloop
endfacet
facet normal 0.000000 0.223869 -0.266797
  outer loop
    vertex 10.666667 0.409148 -0.386011
    vertex 10.666667 0.309099 -0.469962
    vertex 8.000000 0.309099 -0.469962
  endloop
endfacet
facet normal 0.000000 0.156307 -0.311233
  outer loop
    vertex 8.000000 0.309099 -0.469962
    vertex 10.666667 0.309099 -0.469962
    vertex 8.000000 0.192386 -0.528577
  endloop
endfacet
facet normal 0.000000 0.156307 -0.311233
  outer loop
    vertex 8.000000 0.309099 -0.469962
    vertex 8.000000 0.192386 -0.528577
    vertex 5.333333 0.192386 -0.528577
  endloop
endfacet
facet normal 0.000000 0.080319 -0.338891
  outer loop
    vertex 5.333333 0.192386 -0.528577
    vertex 8.000000 0.192386 -0.528577
    vertex 5.333333 0.065302 -0.558697
  endloop
endfacet
facet normal 0.000000 0.080319 -0.338891
  outer loop
    vertex 5.333333 0.192386 -0.528577
    vertex 5.333333 0.065302 -0.558697
    vertex 2.666667 0.065302 -0.558697
  endloop
endfacet
facet normal 0.000000 0.000000 -0.348279
  outer loop
    vertex 2.666667 0.065302 -0.558697
    vertex 5.333333 0.065302 -0.558697
    vertex 2.666667 -0.065302 -0.558697
  endloop
endfacet
facet normal 0.000497 0.000000 -0.348279
  outer loop
    vertex 2.666667 0.065302 -0.558697
    vertex 2.666667 -0.065302 -0.558697
    vertex 0.000000 0.000093 -0.562500
  endloop
endfacet
facet normal -0.000445 -0.037561 -0.333822
  outer loop
    vertex 0.000000 0.000093 -0.562500
    vertex 2.666667 -0.065302 -0.558697
    vertex 0.000000 -0.125090 -0.548415
  endloop
endfacet
facet normal 0.000494 -0.080319 -0.338891
  outer loop
    vertex 0.000000 -0.125090 -0.548415
    vertex 2.666667 -0.065302 -0.558697
    vertex 2.666667 -0.192386 -0.528577
  endloop
endfacet
facet normal -0.000440 -0.110909 -0.317092
  outer loop
    vertex 0.000000 -0.125090 -0.548415
    vertex 2.666667 -0.192386 -0.528577
    vertex 0.000000 -0.244000 -0.506824
  endloop
endfacet
facet normal 0.000486 -0.156307 -0.311233
  outer loop
    vertex 0.000000 -0.244000 -0.506824
    vertex 2.666667 -0.192386 -0.528577
    vertex 2.666667 -0.309099 -0.469962
  endloop
endfacet
facet normal -0.000430 -0.178695 -0.284458
  outer loop
    vertex 0.000000 -0.244000 -0.506824
    vertex 2.666667 -0.309099 -0.469962
    vertex 0.000000 -0.350672 -0.439813
  endloop
endfacet
facet normal 0.000474 -0.223869 -0.266797
  outer loop
    vertex 0.000000 -0.350672 -0.439813
    vertex 2.666667 -0.309099 -0.469962
    vertex 2.666667 -0.409148 -0.386011
  endloop
endfacet
facet normal -0.000415 -0.237518 -0.237557
  outer loop
    vertex 0.000000 -0.350672 -0.439813
    vertex 2.666667 -0.409148 -0.386011
    vertex 0.000000 -0.439755 -0.350744
  endloop
endfacet
facet normal 0.000456 -0.279362 -0.207978
  outer loop
    vertex 0.000000 -0.439755 -0.350744
    vertex 2.666667 -0.409148 -0.386011
    vertex 2.666667 -0.487139 -0.281250
  endloop
endfacet
facet normal -0.000396 -0.284428 -0.178742
  outer loop
    vertex 0.000000 -0.439755 -0.350744
    vertex 2.666667 -0.487139 -0.281250
    vertex 0.000000 -0.506783 -0.244083
  endloop
endfacet
facet normal 0.000433 -0.319795 -0.137946
  outer loop
    vertex 0.000000 -0.506783 -0.244083
    vertex 2.666667 -0.487139 -0.281250
    vertex 2.666667 -0.538869 -0.161327
  endloop
endfacet
facet normal -0.000372 -0.317073 -0.110961
  outer loop
    vertex 0.000000 -0.506783 -0.244083
    vertex 2.666667 -0.538869 -0.161327
    vertex 0.000000 -0.548394 -0.125181
  endloop
endfacet
facet normal 0.000405 -0.342988 -0.060478
  outer loop
    vertex 0.000000 -0.548394 -0.125181
    vertex 2.666667 -0.538869 -0.161327
    vertex 2.666667 -0.561548 -0.032706
  endloop
endfacet
facet normal -0.000342 -0.333816 -0.037616
  outer loop
    vertex 0.000000 -0.548394 -0.125181
    vertex 2.666667 -0.561548 -0.032706
    vertex 0.000000 -0.562500 0.000000
  endloop
endfacet
facet normal 0.000372 -0.347690 0.020251
  outer loop
    vertex 0.000000 -0.562500 0.000000
    vertex 2.666667 -0.561548 -0.032706
    vertex 2.666667 -0.553954 0.097677
  endloop
endfacet
facet normal -0.000308 -0.333816 0.037616
  outer loop
    vertex 0.000000 -0.562500 0.000000
    vertex 2.666667 -0.553954 0.097677
    vertex 0.000000 -0.548394 0.125181
  endloop
endfacet
facet normal 0.000335 -0.333647 0.099888
  outer loop
    vertex 0.000000 -0.548394 0.125181
    vertex 2.666667 -0.553954 0.097677
    vertex 2.666667 -0.516497 0.222795
  endloop
endfacet
facet normal -0.000269 -0.317073 0.110961
  outer loop
    vertex 0.000000 -0.548394 0.125181
    vertex 2.666667 -0.516497 0.222795
    vertex 0.000000 -0.506783 0.244083
  endloop
endfacet
facet normal 0.000292 -0.301618 0.174139
  outer loop
    vertex 0.000000 -0.506783 0.244083
    vertex 2.666667 -0.516497 0.222795
    vertex 2.666667 -0.451194 0.335902
  endloop
endfacet
facet normal -0.000225 -0.284428 0.178742
  outer loop
    vertex 0.000000 -0.506783 0.244083
    vertex 2.666667 -0.451194 0.335902
    vertex 0.000000 -0.439755 0.350744
  endloop
endfacet
facet normal 0.000244 -0.253329 0.239003
  outer loop
    vertex 0.000000 -0.439755 0.350744
    vertex 2.666667 -0.451194 0.335902
    vertex 2.666667 -0.361568 0.430900
  endloop
endfacet
facet normal -0.000177 -0.237518 0.237557
  outer loop
    vertex 0.000000 -0.439755 0.350744
    vertex 2.666667 -0.361568 0.430900
    vertex 0.000000 -0.350672 0.439813
  endloop
endfacet
facet normal 0.000191 -0.191382 0.290983
  outer loop
    vertex 0.000000 -0.350672 0.439813
    vertex 2.666667 -0.361568 0.430900
    vertex 2.666667 -0.252450 0.502668
  endloop
endfacet
facet normal -0.000123 -0.178695 0.284458
  outer loop
    vertex 0.000000 -0.350672 0.439813
    vertex 2.666667 -0.252450 0.502668
    vertex 0.000000 -0.244000 0.506824
  endloop
endfacet
facet normal 0.000133 -0.119118 0.327275
  outer loop
    vertex 0.000000 -0.244000 0.506824
    vertex 2.666667 -0.252450 0.502668
    vertex 2.666667 -0.129721 0.547338
  endloop
endfacet
facet normal -0.000065 -0.110909 0.317092
  outer loop
    vertex 0.000000 -0.244000 0.506824
    vertex 2.666667 -0.129721 0.547338
    vertex 0.000000 -0.125090 0.548415
  endloop
endfacet
facet normal 0.000069 -0.040433 0.345924
  outer loop
    vertex 0.000000 -0.125090 0.548415
    vertex 2.666667 -0.129721 0.547338
    vertex 2.666667 0.000000 0.562500
  endloop
endfacet
facet normal -0.000001 -0.037561 0.333822
  outer loop
    vertex 0.000000 -0.125090 0.548415
    vertex 2.666667 0.000000 0.562500
    vertex 0.000000 0.000093 0.562500
  endloop
endfacet
facet normal 0.000001 0.037671 0.333810
  outer loop
    vertex 0.000000 0.000093 0.562500
    vertex 2.666667 0.000000 0.562500
    vertex 0.000000 0.125271 0.548373
  endloop
endfacet
facet normal 0.000067 0.040433 0.345924
  outer loop
    vertex 0.000000 0.125271 0.548373
    vertex 2.666667 0.000000 0.562500
    vertex 2.666667 0.129721 0.547338
  endloop
endfacet
facet normal -0.000062 0.111014 0.317055
  outer loop
    vertex 0.000000 0.125271 0.548373
    vertex 2.666667 0.129721 0.547338
    vertex 0.000000 0.244167 0.506743
  endloop
endfacet
facet normal 0.000130 0.119118 0.327275
  outer loop
    vertex 0.000000 0.244167 0.506743
    vertex 2.666667 0.129721 0.547338
    vertex 2.666667 0.252450 0.502668
  endloop
endfacet
facet normal -0.000121 0.178788 0.284399
  outer loop
    vertex 0.000000 0.244167 0.506743
    vertex 2.666667 0.252450 0.502668
    vertex 0.000000 0.350817 0.439698
  endloop
endfacet
facet normal 0.000188 0.191382 0.290983
  outer loop
    vertex 0.000000 0.350817 0.439698
    vertex 2.666667 0.252450 0.502668
    vertex 2.666667 0.361568 0.430900
  endloop
endfacet
facet normal -0.000174 0.237596 0.237479
  outer loop
    vertex 0.000000 0.350817 0.439698
    vertex 2.666667 0.361568 0.430900
    vertex 0.000000 0.439871 0.350599
  endloop
endfacet
facet normal 0.000242 0.253329 0.239003
  outer loop
    vertex 0.000000 0.439871 0.350599
    vertex 2.666667 0.361568 0.430900
    vertex 2.666667 0.451194 0.335902
  endloop
endfacet
facet normal -0.000223 0.284487 0.178648
  outer loop
    vertex 0.000000 0.439871 0.350599
    vertex 2.666667 0.451194 0.335902
    vertex 0.000000 0.506864 0.243916
  endloop
endfacet
facet normal 0.000290 0.301618 0.174139
  outer loop
    vertex 0.000000 0.506864 0.243916
    vertex 2.666667 0.451194 0.335902
    vertex 2.666667 0.516497 0.222795
  endloop
endfacet
facet normal -0.000445 0.037671 -0.333810
  outer loop
    vertex 0.000000 0.000093 -0.562500
    vertex 0.000000 0.125271 -0.548373
    vertex 2.666667 0.065302 -0.558697
  endloop
endfacet
facet normal 0.000494 0.080319 -0.338891
  outer loop
    vertex 2.666667 0.065302 -0.558697
    vertex 0.000000 0.125271 -0.548373
    vertex 2.666667 0.192386 -0.528577
  endloop
endfacet
facet normal 0.000000 0.080319 -0.338891
  outer loop
    vertex 2.666667 0.065302 -0.558697
    vertex 2.666667 0.192386 -0.528577
    vertex 5.333333 0.192386 -0.528577
  endloop
endfacet
facet normal 0.000000 0.156307 -0.311233
  outer loop
    vertex 5.333333 0.192386 -0.528577
    vertex 2.666667 0.192386 -0.528577
    vertex 5.333333 0.309099 -0.469962
  endloop
endfacet
facet normal 0.000000 0.156307 -0.311233
  outer loop
    vertex 5.333333 0.192386 -0.528577
    vertex 5.333333 0.309099 -0.469962
    vertex 8.000000 0.309099 -0.469962
  endloop
endfacet
facet normal 0.000000 0.223869 -0.266797
  outer loop
    vertex 8.000000 0.309099 -0.469962
    vertex 5.333333 0.309099 -0.469962
    vertex 8.000000 0.409148 -0.386011
  endloop
endfacet
facet normal 0.000000 0.223869 -0.266797
  outer loop
    vertex 8.000000 0.309099 -0.469962
    vertex 8.000000 0.409148 -0.386011
    vertex 10.666667 0.409148 -0.386011
  endloop
endfacet
facet normal 0.000000 0.279362 -0.207978
  outer loop
    vertex 10.666667 0.409148 -0.386011
    vertex 8.000000 0.409148 -0.386011
    vertex 10.666667 0.487139 -0.281250
  endloop
endfacet
facet normal 0.000000 0.279362 -0.207978
  outer loop
    vertex 10.666667 0.409148 -0.386011
    vertex 10.666667 0.487139 -0.281250
    vertex 13.333333 0.487139 -0.281250
  endloop
endfacet
facet normal 0.000000 0.319795 -0.137946
  outer loop
    vertex 13.333333 0.487139 -0.281250
    vertex 10.666667 0.487139 -0.281250
    vertex 13.333333 0.538869 -0.161327
  endloop
endfacet
facet normal 0.000000 0.319795 -0.137946
  outer loop
    vertex 13.333333 0.487139 -0.281250
    vertex 13.333333 0.538869 -0.161327
    vertex 16.000000 0.538869 -0.161327
  endloop
endfacet
facet normal 0.000000 0.096872 -0.025510
  outer loop
    vertex 16.000000 0.538869 -0.161327
    vertex 13.333333 0.538869 -0.161327
    vertex 24.000000 0.548435 -0.125000
  endloop
endfacet
facet normal -0.000440 0.111014 -0.317055
  outer loop
    vertex 0.000000 0.125271 -0.548373
    vertex 0.000000 0.244167 -0.506743
    vertex 2.666667 0.192386 -0.528577
  endloop
endfacet
facet normal 0.000487 0.156307 -0.311233
  outer loop
    vertex 2.666667 0.192386 -0.528577
    vertex 0.000000 0.244167 -0.506743
    vertex 2.666667 0.309099 -0.469962
  endloop
endfacet
facet normal 0.000000 0.156307 -0.311233
  outer loop
    vertex 2.666667 0.192386 -0.528577
    vertex 2.666667 0.309099 -0.469962
    vertex 5.333333 0.309099 -0.469962
  endloop
endfacet
facet normal 0.000000 0.223869 -0.266797
  outer loop
    vertex 5.333333 0.309099 -0.469962
    vertex 2.666667 0.309099 -0.469962
    vertex 5.333333 0.409148 -0.386011
  endloop
endfacet
facet normal 0.000000 0.223869 -0.266797
  outer loop
    vertex 5.333333 0.309099 -0.469962
    vertex 5.333333 0.409148 -0.386011
    vertex 8.000000 0.409148 -0.386011
  endloop
endfacet
facet normal 0.000000 0.279362 -0.207978
  outer loop
    vertex 8.000000 0.409148 -0.386011
    vertex 5.333333 0.409148 -0.386011
    vertex 8.000000 0.487139 -0.281250
  endloop
endfacet
facet normal 0.000000 0.279362 -0.207978
  outer loop
    vertex 8.000000 0.409148 -0.386011
    vertex 8.000000 0.487139 -0.281250
    vertex 10.666667 0.487139 -0.281250
  endloop
endfacet
facet normal 0.000000 0.319795 -0.137946
  outer loop
    vertex 10.666667 0.487139 -0.281250
    vertex 8.000000 0.487139 -0.281250
    vertex 10.666667 0.538869 -0.161327
  endloop
endfacet
facet normal 0.000000 0.319795 -0.137946
  outer loop
    vertex 10.666667 0.487139 -0.281250
    vertex 10.666667 0.538869 -0.161327
    vertex 13.333333 0.538869 -0.161327
  endloop
endfacet
facet normal 0.000000 0.096872 -0.025510
  outer loop
    vertex 13.333333 0.538869 -0.161327
    vertex 10.666667 0.538869 -0.161327
    vertex 24.000000 0.548435 -0.125000
  endloop
endfacet
facet normal -0.000431 0.178788 -0.284399
  outer loop
    vertex 0.000000 0.244167 -0.506743
    vertex 0.000000 0.350817 -0.439698
    vertex 2.666667 0.309099 -0.469962
  endloop
endfacet
facet normal 0.000474 0.223869 -0.266797
  outer loop
    vertex 2.666667 0.309099 -0.469962
    vertex 0.000000 0.350817 -0.439698
    vertex 2.666667 0.409148 -0.386011
  endloop
endfacet
facet normal 0.000000 0.223869 -0.266797
  outer loop
    vertex 2.666667 0.309099 -0.469962
    vertex 2.666667 0.409148 -0.386011
    vertex 5.333333 0.409148 -0.386011
  endloop
endfacet
facet normal 0.000000 0.279362 -0.207978
  outer loop
    vertex 5.333333 0.409148 -0.386011
    vertex 2.666667 0.409148 -0.386011
    vertex 5.333333 0.487139 -0.281250
  endloop
endfacet
facet normal 0.000000 0.279362 -0.207978
  outer loop
    vertex 5.333333 0.409148 -0.386011
    vertex 5.333333 0.487139 -0.281250
    vertex 8.000000 0.487139 -0.281250
  endloop
endfacet
facet normal 0.000000 0.319795 -0.137946
  outer loop
    vertex 8.000000 0.487139 -0.281250
    vertex 5.333333 0.487139 -0.281250
    vertex 8.000000 0.538869 -0.161327
  endloop
endfacet
facet normal 0.000000 0.319795 -0.137946
  outer loop
    vertex 8.000000 0.487139 -0.281250
    vertex 8.000000 0.538869 -0.161327
    vertex 10.666667 0.538869 -0.161327
  endloop
endfacet
facet normal 0.000000 0.096872 -0.025510
  outer loop
    vertex 10.666667 0.538869 -0.161327
    vertex 8.000000 0.538869 -0.161327
    vertex 0.000000 0.548435 -0.125000
  endloop
endfacet
facet normal 0.000000 0.871844 -0.229589
  outer loop
    vertex 10.666667 0.538869 -0.161327
    vertex 0.000000 0.548435 -0.125000
    vertex 24.000000 0.548435 -0.125000
  endloop
endfacet
facet normal -0.000416 0.237596 -0.237479
  outer loop
    vertex 0.000000 0.350817 -0.439698
    vertex 0.000000 0.439871 -0.350599
    vertex 2.666667 0.409148 -0.386011
  endloop
endfacet
facet normal 0.000457 0.279362 -0.207978
  outer loop
    vertex 2.666667 0.409148 -0.386011
    vertex 0.000000 0.439871 -0.350599
    vertex 2.666667 0.487139 -0.281250
  endloop
endfacet
facet normal 0.000000 0.279362 -0.207978
  outer loop
    vertex 2.666667 0.409148 -0.386011
    vertex 2.666667 0.487139 -0.281250
    vertex 5.333333 0.487139 -0.281250
  endloop
endfacet
facet normal 0.000000 0.319795 -0.137946
  outer loop
    vertex 5.333333 0.487139 -0.281250
    vertex 2.666667 0.487139 -0.281250
    vertex 5.333333 0.538869 -0.161327
  endloop
endfacet
facet normal 0.000000 0.319795 -0.137946
  outer loop
    vertex 5.333333 0.487139 -0.281250
    vertex 5.333333 0.538869 -0.161327
    vertex 8.000000 0.538869 -0.161327
  endloop
endfacet
facet normal 0.000000 0.096872 -0.025510
  outer loop
    vertex 8.000000 0.538869 -0.161327
    vertex 5.333333 0.538869 -0.161327
    vertex 0.000000 0.548435 -0.125000
  endloop
endfacet
facet normal -0.000397 0.284487 -0.178648
  outer loop
    vertex 0.000000 0.439871 -0.350599
    vertex 0.000000 0.506864 -0.243916
    vertex 2.666667 0.487139 -0.281250
  endloop
endfacet
facet normal 0.000434 0.319795 -0.137946
  outer loop
    vertex 2.666667 0.487139 -0.281250
    vertex 0.000000 0.506864 -0.243916
    vertex 2.666667 0.538869 -0.161327
  endloop
endfacet
facet normal 0.000000 0.319795 -0.137946
  outer loop
    vertex 2.666667 0.487139 -0.281250
    vertex 2.666667 0.538869 -0.161327
    vertex 5.333333 0.538869 -0.161327
  endloop
endfacet
facet normal 0.000000 0.096872 -0.025510
  outer loop
    vertex 5.333333 0.538869 -0.161327
    vertex 2.666667 0.538869 -0.161327
    vertex 0.000000 0.548435 -0.125000
  endloop
endfacet
facet normal -0.000373 0.317110 -0.110857
  outer loop
    vertex 0.000000 0.506864 -0.243916
    vertex 0.000000 0.548435 -0.125000
    vertex 2.666667 0.538869 -0.161327
  endloop
endfacet
facet normal 0.000001 -0.037561 0.333822
  outer loop
    vertex 24.000000 -0.125090 0.548415
    vertex 24.000000 0.000093 0.562500
    vertex 21.333334 -0.000000 0.562500
  endloop
endfacet
facet normal -0.000001 0.037671 0.333810
  outer loop
    vertex 21.333334 -0.000000 0.562500
    vertex 24.000000 0.000093 0.562500
    vertex 24.000000 0.125271 0.548373
  endloop
endfacet
facet normal -0.000067 0.040433 0.345924
  outer loop
    vertex 21.333334 -0.000000 0.562500
    vertex 24.000000 0.125271 0.548373
    vertex 21.333334 0.129721 0.547338
  endloop
endfacet
facet normal 0.000062 0.111014 0.317055
  outer loop
    vertex 21.333334 0.129721 0.547338
    vertex 24.000000 0.125271 0.548373
    vertex 24.000000 0.244167 0.506743
  endloop
endfacet
facet normal -0.000130 0.119118 0.327275
  outer loop
    vertex 21.333334 0.129721 0.547338
    vertex 24.000000 0.244167 0.506743
    vertex 21.333334 0.252450 0.502668
  endloop
endfacet
facet normal 0.000121 0.178788 0.284399
  outer loop
    vertex 21.333334 0.252450 0.502668
    vertex 24.000000 0.244167 0.506743
    vertex 24.000000 0.350817 0.439698
  endloop
endfacet
facet normal -0.000188 0.191382 0.290983
  outer loop
    vertex 21.333334 0.252450 0.502668
    vertex 24.000000 0.350817 0.439698
    vertex 21.333334 0.361568 0.430900
  endloop
endfacet
facet normal 0.000174 0.237596 0.237479
  outer loop
    vertex 21.333334 0.361568 0.430900
    vertex 24.000000 0.350817 0.439698
    vertex 24.000000 0.439871 0.350599
  endloop
endfacet
facet normal -0.000242 0.253329 0.239003
  outer loop
    vertex 21.333334 0.361568 0.430900
    vertex 24.000000 0.439871 0.350599
    vertex 21.333334 0.451194 0.335902
  endloop
endfacet
facet normal 0.000223 0.284487 0.178648
  outer loop
    vertex 21.333334 0.451194 0.335902
    vertex 24.000000 0.439871 0.350599
    vertex 24.000000 0.506864 0.243916
  endloop
endfacet
facet normal -0.000290 0.301618 0.174139
  outer loop
    vertex 21.333334 0.451194 0.335902
    vertex 24.000000 0.506864 0.243916
    vertex 21.333334 0.516497 0.222795
  endloop
endfacet
facet normal 0.000267 0.317110 0.110857
  outer loop
    vertex 21.333334 0.516497 0.222795
    vertex 24.000000 0.506864 0.243916
    vertex 24.000000 0.548435 0.125000
  endloop
endfacet
facet normal 0.000000 0.260786 0.085170
  outer loop
    vertex 21.333334 0.516497 0.222795
    vertex 24.000000 0.548435 0.125000
    vertex 18.666666 0.516497 0.222795
  endloop
endfacet
facet normal 0.000000 0.260786 0.085170
  outer loop
    vertex 18.666666 0.516497 0.222795
    vertex 24.000000 0.548435 0.125000
    vertex 16.000000 0.516497 0.222795
  endloop
endfacet
facet normal 0.000000 0.301618 0.174139
  outer loop
    vertex 18.666666 0.516497 0.222795
    vertex 16.000000 0.516497 0.222795
    vertex 18.666666 0.451194 0.335902
  endloop
endfacet
facet normal 0.000000 0.301618 0.174139
  outer loop
    vertex 18.666666 0.451194 0.335902
    vertex 16.000000 0.516497 0.222795
    vertex 16.000000 0.451194 0.335902
  endloop
endfacet
facet normal 0.000000 0.253329 0.239003
  outer loop
    vertex 18.666666 0.451194 0.335902
    vertex 16.000000 0.451194 0.335902
    vertex 18.666666 0.361568 0.430900
  endloop
endfacet
facet normal 0.000000 0.253329 0.239003
  outer loop
    vertex 18.666666 0.361568 0.430900
    vertex 16.000000 0.451194 0.335902
    vertex 16.000000 0.361568 0.430900
  endloop
endfacet
facet normal 0.000000 0.191382 0.290983
  outer loop
    vertex 18.666666 0.361568 0.430900
    vertex 16.000000 0.361568 0.430900
    vertex 18.666666 0.252450 0.502668
  endloop
endfacet
facet normal 0.000000 0.191382 0.290983
  outer loop
    vertex 18.666666 0.252450 0.502668
    vertex 16.000000 0.361568 0.430900
    vertex 16.000000 0.252450 0.502668
  endloop
endfacet
facet normal 0.000000 0.119118 0.327275
  outer loop
    vertex 18.666666 0.252450 0.502668
    vertex 16.000000 0.252450 0.502668
    vertex 18.666666 0.129721 0.547338
  endloop
endfacet
facet normal 0.000000 0.260786 0.085170
  outer loop
    vertex 16.000000 0.516497 0.222795
    vertex 24.000000 0.548435 0.125000
    vertex 13.333333 0.516497 0.222795
  endloop
endfacet
facet normal 0.000000 2.347077 0.766530
  outer loop
    vertex 13.333333 0.516497 0.222795
    vertex 24.000000 0.548435 0.125000
    vertex 0.000000 0.548435 0.125000
  endloop
endfacet
facet normal 0.000000 0.260786 0.085170
  outer loop
    vertex 13.333333 0.516497 0.222795
    vertex 0.000000 0.548435 0.125000
    vertex 10.666667 0.516497 0.222795
  endloop
endfacet
facet normal 0.000000 0.260786 0.085170
  outer loop
    vertex 10.666667 0.516497 0.222795
    vertex 0.000000 0.548435 0.125000
    vertex 8.000000 0.516497 0.222795
  endloop
endfacet
facet normal 0.000000 0.301618 0.174139
  outer loop
    vertex 10.666667 0.516497 0.222795
    vertex 8.000000 0.516497 0.222795
    vertex 10.666667 0.451194 0.335902
  endloop
endfacet
facet normal -0.000000 0.040433 0.345924
  outer loop
    vertex 2.666667 0.000000 0.562500
    vertex 5.333333 0.000000 0.562500
    vertex 2.666667 0.129721 0.547338
  endloop
endfacet
facet normal -0.000000 0.040433 0.345924
  outer loop
    vertex 2.666667 0.129721 0.547338
    vertex 5.333333 0.000000 0.562500
    vertex 5.333333 0.129721 0.547338
  endloop
endfacet
facet normal -0.000000 0.119118 0.327275
  outer loop
    vertex 2.666667 0.129721 0.547338
    vertex 5.333333 0.129721 0.547338
    vertex 2.666667 0.252450 0.502668
  endloop
endfacet
facet normal -0.000000 0.119118 0.327275
  outer loop
    vertex 2.666667 0.252450 0.502668
    vertex 5.333333 0.129721 0.547338
    vertex 5.333333 0.252450 0.502668
  endloop
endfacet
facet normal -0.000000 0.191382 0.290983
  outer loop
    vertex 2.666667 0.252450 0.502668
    vertex 5.333333 0.252450 0.502668
    vertex 2.666667 0.361568 0.430900
  endloop
endfacet
facet normal -0.000000 0.191382 0.290983
  outer loop
    vertex 2.666667 0.361568 0.430900
    vertex 5.333333 0.252450 0.502668
    vertex 5.333333 0.361568 0.430900
  endloop
endfacet
facet normal -0.000000 0.253329 0.239003
  outer loop
    vertex 2.666667 0.361568 0.430900
    vertex 5.333333 0.361568 0.430900
    vertex 2.666667 0.451194 0.335902
  endloop
endfacet
facet normal -0.000000 0.253329 0.239003
  outer loop
    vertex 2.666667 0.451194 0.335902
    vertex 5.333333 0.361568 0.430900
    vertex 5.333333 0.451194 0.335902
  endloop
endfacet
facet normal -0.000000 0.301618 0.174139
  outer loop
    vertex 2.666667 0.451194 0.335902
    vertex 5.333333 0.451194 0.335902
    vertex 2.666667 0.516497 0.222795
  endloop
endfacet
facet normal -0.000000 0.301618 0.174139
  outer loop
    vertex 2.666667 0.516497 0.222795
    vertex 5.333333 0.451194 0.335902
    vertex 5.333333 0.516497 0.222795
  endloop
endfacet
facet normal -0.000000 0.040433 0.345924
  outer loop
    vertex 5.333333 0.000000 0.562500
    vertex 8.000000 0.000000 0.562500
    vertex 5.333333 0.129721 0.547338
  endloop
endfacet
facet normal -0.000000 0.040433 0.345924
  outer loop
    vertex 5.333333 0.129721 0.547338
    vertex 8.000000 0.000000 0.562500
    vertex 8.000000 0.129721 0.547338
  endloop
endfacet
facet normal -0.000000 0.119118 0.327275
  outer loop
    vertex 5.333333 0.129721 0.547338
    vertex 8.000000 0.129721 0.547338
    vertex 5.333333 0.252450 0.502668
  endloop
endfacet
facet normal -0.000000 0.119118 0.327275
  outer loop
    vertex 5.333333 0.252450 0.502668
    vertex 8.000000 0.129721 0.547338
    vertex 8.000000 0.252450 0.502668
  endloop
endfacet
facet normal -0.000000 0.191382 0.290983
  outer loop
    vertex 5.333333 0.252450 0.502668
    vertex 8.000000 0.252450 0.502668
    vertex 5.333333 0.361568 0.430900
  endloop
endfacet
facet normal -0.000000 0.191382 0.290983
  outer loop
    vertex 5.333333 0.361568 0.430900
    vertex 8.000000 0.252450 0.502668
    vertex 8.000000 0.361568 0.430900
  endloop
endfacet
facet normal -0.000000 0.253329 0.239003
  outer loop
    vertex 5.333333 0.361568 0.430900
    vertex 8.000000 0.361568 0.430900
    vertex 5.333333 0.451194 0.335902
  endloop
endfacet
facet normal -0.000000 0.253329 0.239003
  outer loop
    vertex 5.333333 0.451194 0.335902
    vertex 8.000000 0.361568 0.430900
    vertex 8.000000 0.451194 0.335902
  endloop
endfacet
facet normal -0.000000 0.301618 0.174139
  outer loop
    vertex 5.333333 0.451194 0.335902
    vertex 8.000000 0.451194 0.335902
    vertex 5.333333 0.516497 0.222795
  endloop
endfacet
facet normal 0.000000 -0.040433 0.345924
  outer loop
    vertex 5.333333 0.000000 0.562500
    vertex 2.666667 0.000000 0.562500
    vertex 5.333333 -0.129721 0.547338
  endloop
endfacet
facet normal 0.000000 -0.040433 0.345924
  outer loop
    vertex 5.333333 -0.129721 0.547338
    vertex 2.666667 0.000000 0.562500
    vertex 2.666667 -0.129721 0.547338
  endloop
endfacet
facet normal 0.000000 -0.119118 0.327275
  outer loop
    vertex 5.333333 -0.129721 0.547338
    vertex 2.666667 -0.129721 0.547338
    vertex 5.333333 -0.252450 0.502668
  endloop
endfacet
facet normal 0.000000 -0.119118 0.327275
  outer loop
    vertex 5.333333 -0.252450 0.502668
    vertex 2.666667 -0.129721 0.547338
    vertex 2.666667 -0.252450 0.502668
  endloop
endfacet
facet normal 0.000000 -0.191382 0.290983
  outer loop
    vertex 5.333333 -0.252450 0.502668
    vertex 2.666667 -0.252450 0.502668
    vertex 5.333333 -0.361568 0.430900
  endloop
endfacet
facet normal 0.000000 -0.191382 0.290983
  outer loop
    vertex 5.333333 -0.361568 0.430900
    vertex 2.666667 -0.252450 0.502668
    vertex 2.666667 -0.361568 0.430900
  endloop
endfacet
facet normal 0.000000 -0.253329 0.239003
  outer loop
    vertex 5.333333 -0.361568 0.430900
    vertex 2.666667 -0.361568 0.430900
    vertex 5.333333 -0.451194 0.335902
  endloop
endfacet
facet normal 0.000000 -0.253329 0.239003
  outer loop
    vertex 5.333333 -0.451194 0.335902
    vertex 2.666667 -0.361568 0.430900
    vertex 2.666667 -0.451194 0.335902
  endloop
endfacet
facet normal 0.000000 -0.301618 0.174139
  outer loop
    vertex 5.333333 -0.451194 0.335902
    vertex 2.666667 -0.451194 0.335902
    vertex 5.333333 -0.516497 0.222795
  endloop
endfacet
facet normal 0.000000 -0.301618 0.174139
  outer loop
    vertex 5.333333 -0.516497 0.222795
    vertex 2.666667 -0.451194 0.335902
    vertex 2.666667 -0.516497 0.222795
  endloop
endfacet
facet normal 0.000000 -0.333647 0.099888
  outer loop
    vertex 5.333333 -0.516497 0.222795
    vertex 2.666667 -0.516497 0.222795
    vertex 5.333333 -0.553954 0.097677
  endloop
endfacet
facet normal 0.000000 -0.333647 0.099888
  outer loop
    vertex 5.333333 -0.553954 0.097677
    vertex 2.666667 -0.516497 0.222795
    vertex 2.666667 -0.553954 0.097677
  endloop
endfacet
facet normal 0.000000 -0.347690 0.020251
  outer loop
    vertex 5.333333 -0.553954 0.097677
    vertex 2.666667 -0.553954 0.097677
    vertex 5.333333 -0.561548 -0.032706
  endloop
endfacet
facet normal 0.000000 -0.347690 0.020251
  outer loop
    vertex 5.333333 -0.561548 -0.032706
    vertex 2.666667 -0.553954 0.097677
    vertex 2.666667 -0.561548 -0.032706
  endloop
endfacet
facet normal -0.000000 -0.342988 -0.060478
  outer loop
    vertex 5.333333 -0.561548 -0.032706
    vertex 2.666667 -0.561548 -0.032706
    vertex 5.333333 -0.538869 -0.161327
  endloop
endfacet
facet normal -0.000000 -0.342988 -0.060478
  outer loop
    vertex 5.333333 -0.538869 -0.161327
    vertex 2.666667 -0.561548 -0.032706
    vertex 2.666667 -0.538869 -0.161327
  endloop
endfacet
facet normal -0.000000 -0.319795 -0.137946
  outer loop
    vertex 5.333333 -0.538869 -0.161327
    vertex 2.666667 -0.538869 -0.161327
    vertex 5.333333 -0.487139 -0.281250
  endloop
endfacet
facet normal -0.000000 -0.319795 -0.137946
  outer loop
    vertex 5.333333 -0.487139 -0.281250
    vertex 2.666667 -0.538869 -0.161327
    vertex 2.666667 -0.487139 -0.281250
  endloop
endfacet
facet normal -0.000000 -0.279362 -0.207978
  outer loop
    vertex 5.333333 -0.487139 -0.281250
    vertex 2.666667 -0.487139 -0.281250
    vertex 5.333333 -0.409148 -0.386011
  endloop
endfacet
facet normal -0.000000 -0.279362 -0.207978
  outer loop
    vertex 5.333333 -0.409148 -0.386011
    vertex 2.666667 -0.487139 -0.281250
    vertex 2.666667 -0.409148 -0.386011
  endloop
endfacet
facet normal -0.000000 -0.223869 -0.266797
  outer loop
    vertex 5.333333 -0.409148 -0.386011
    vertex 2.666667 -0.409148 -0.386011
    vertex 5.333333 -0.309099 -0.469962
  endloop
endfacet
facet normal -0.000000 -0.223869 -0.266797
  outer loop
    vertex 5.333333 -0.309099 -0.469962
    vertex 2.666667 -0.409148 -0.386011
    vertex 2.666667 -0.309099 -0.469962
  endloop
endfacet
facet normal -0.000000 -0.156307 -0.311233
  outer loop
    vertex 5.333333 -0.309099 -0.469962
    vertex 2.666667 -0.309099 -0.469962
    vertex 5.333333 -0.192386 -0.528577
  endloop
endfacet
facet normal -0.000000 -0.156307 -0.311233
  outer loop
    vertex 5.333333 -0.192386 -0.528577
    vertex 2.666667 -0.309099 -0.469962
    vertex 2.666667 -0.192386 -0.528577
  endloop
endfacet
facet normal -0.000000 -0.080319 -0.338891
  outer loop
    vertex 5.333333 -0.192386 -0.528577
    vertex 2.666667 -0.192386 -0.528577
    vertex 5.333333 -0.065302 -0.558697
  endloop
endfacet
facet normal -0.000000 -0.080319 -0.338891
  outer loop
    vertex 5.333333 -0.065302 -0.558697
    vertex 2.666667 -0.192386 -0.528577
    vertex 2.666667 -0.065302 -0.558697
  endloop
endfacet
facet normal 0.000000 0.000000 -0.348279
  outer loop
    vertex 5.333333 -0.065302 -0.558697
    vertex 2.666667 -0.065302 -0.558697
    vertex 5.333333 0.065302 -0.558697
  endloop
endfacet
facet normal -0.000000 0.040433 0.345924
  outer loop
    vertex 8.000000 0.000000 0.562500
    vertex 10.666667 0.000000 0.562500
    vertex 8.000000 0.129721 0.547338
  endloop
endfacet
facet normal -0.000000 0.040433 0.345924
  outer loop
    vertex 8.000000 0.129721 0.547338
    vertex 10.666667 0.000000 0.562500
    vertex 10.666667 0.129721 0.547338
  endloop
endfacet
facet normal -0.000000 0.119118 0.327275
  outer loop
    vertex 8.000000 0.129721 0.547338
    vertex 10.666667 0.129721 0.547338
    vertex 8.000000 0.252450 0.502668
  endloop
endfacet
facet normal -0.000000 0.119118 0.327275
  outer loop
    vertex 8.000000 0.252450 0.502668
    vertex 10.666667 0.129721 0.547338
    vertex 10.666667 0.252450 0.502668
  endloop
endfacet
facet normal -0.000000 0.191382 0.290983
  outer loop
    vertex 8.000000 0.252450 0.502668
    vertex 10.666667 0.252450 0.502668
    vertex 8.000000 0.361568 0.430900
  endloop
endfacet
facet normal -0.000000 0.191382 0.290983
  outer loop
    vertex 8.000000 0.361568 0.430900
    vertex 10.666667 0.252450 0.502668
    vertex 10.666667 0.361568 0.430900
  endloop
endfacet
facet normal -0.000000 0.253329 0.239003
  outer loop
    vertex 8.000000 0.361568 0.430900
    vertex 10.666667 0.361568 0.430900
    vertex 8.000000 0.451194 0.335902
  endloop
endfacet
facet normal 0.000000 -0.040433 0.345924
  outer loop
    vertex 8.000000 0.000000 0.562500
    vertex 5.333333 0.000000 0.562500
    vertex 8.000000 -0.129721 0.547338
  endloop
endfacet
facet normal 0.000000 -0.040433 0.345924
  outer loop
    vertex 8.000000 -0.129721 0.547338
    vertex 5.333333 0.000000 0.562500
    vertex 5.333333 -0.129721 0.547338
  endloop
endfacet
facet normal 0.000000 -0.119118 0.327275
  outer loop
    vertex 8.000000 -0.129721 0.547338
    vertex 5.333333 -0.129721 0.547338
    vertex 8.000000 -0.252450 0.502668
  endloop
endfacet
facet normal 0.000000 -0.119118 0.327275
  outer loop
    vertex 8.000000 -0.252450 0.502668
    vertex 5.333333 -0.129721 0.547338
    vertex 5.333333 -0.252450 0.502668
  endloop
endfacet
facet normal 0.000000 -0.191382 0.290983
  outer loop
    vertex 8.000000 -0.252450 0.502668
    vertex 5.333333 -0.252450 0.502668
    vertex 8.000000 -0.361568 0.430900
  endloop
endfacet
facet normal 0.000000 -0.191382 0.290983
  outer loop
    vertex 8.000000 -0.361568 0.430900
    vertex 5.333333 -0.252450 0.502668
    vertex 5.333333 -0.361568 0.430900
  endloop
endfacet
facet normal 0.000000 -0.253329 0.239003
  outer loop
    vertex 8.000000 -0.361568 0.430900
    vertex 5.333333 -0.361568 0.430900
    vertex 8.000000 -0.451194 0.335902
  endloop
endfacet
facet normal 0.000000 -0.253329 0.239003
  outer loop
    vertex 8.000000 -0.451194 0.335902
    vertex 5.333333 -0.361568 0.430900
    vertex 5.333333 -0.451194 0.335902
  endloop
endfacet
facet normal 0.000000 -0.301618 0.174139
  outer loop
    vertex 8.000000 -0.451194 0.335902
    vertex 5.333333 -0.451194 0.335902
    vertex 8.000000 -0.516497 0.222795
  endloop
endfacet
facet normal 0.000000 -0.301618 0.174139
  outer loop
    vertex 8.000000 -0.516497 0.222795
    vertex 5.333333 -0.451194 0.335902
    vertex 5.333333 -0.516497 0.222795
  endloop
endfacet
facet normal 0.000000 -0.333647 0.099888
  outer loop
    vertex 8.000000 -0.516497 0.222795
    vertex 5.333333 -0.516497 0.222795
    vertex 8.000000 -0.553954 0.097677
  endloop
endfacet
facet normal 0.000000 -0.333647 0.099888
  outer loop
    vertex 8.000000 -0.553954 0.097677
    vertex 5.333333 -0.516497 0.222795
    vertex 5.333333 -0.553954 0.097677
  endloop
endfacet
facet normal 0.000000 -0.347689 0.020251
  outer loop
    vertex 8.000000 -0.553954 0.097677
    vertex 5.333333 -0.553954 0.097677
    vertex 8.000000 -0.561548 -0.032706
  endloop
endfacet
facet normal 0.000000 -0.347689 0.020251
  outer loop
    vertex 8.000000 -0.561548 -0.032706
    vertex 5.333333 -0.553954 0.097677
    vertex 5.333333 -0.561548 -0.032706
  endloop
endfacet
facet normal -0.000000 -0.342988 -0.060478
  outer loop
    vertex 8.000000 -0.561548 -0.032706
    vertex 5.333333 -0.561548 -0.032706
    vertex 8.000000 -0.538869 -0.161327
  endloop
endfacet
facet normal -0.000000 -0.342988 -0.060478
  outer loop
    vertex 8.000000 -0.538869 -0.161327
    vertex 5.333333 -0.561548 -0.032706
    vertex 5.333333 -0.538869 -0.161327
  endloop
endfacet
facet normal -0.000000 -0.319795 -0.137946
  outer loop
    vertex 8.000000 -0.538869 -0.161327
    vertex 5.333333 -0.538869 -0.161327
    vertex 8.000000 -0.487139 -0.281250
  endloop
endfacet
facet normal -0.000000 -0.319795 -0.137946
  outer loop
    vertex 8.000000 -0.487139 -0.281250
    vertex 5.333333 -0.538869 -0.161327
    vertex 5.333333 -0.487139 -0.281250
  endloop
endfacet
facet normal -0.000000 -0.279362 -0.207978
  outer loop
    vertex 8.000000 -0.487139 -0.281250
    vertex 5.333333 -0.487139 -0.281250
    vertex 8.000000 -0.409148 -0.386011
  endloop
endfacet
facet normal -0.000000 -0.279362 -0.207978
  outer loop
    vertex 8.000000 -0.409148 -0.386011
    vertex 5.333333 -0.487139 -0.281250
    vertex 5.333333 -0.409148 -0.386011
  endloop
endfacet
facet normal -0.000000 -0.223869 -0.266797
  outer loop
    vertex 8.000000 -0.409148 -0.386011
    vertex 5.333333 -0.409148 -0.386011
    vertex 8.000000 -0.309099 -0.469962
  endloop
endfacet
facet normal -0.000000 -0.223869 -0.266797
  outer loop
    vertex 8.000000 -0.309099 -0.469962
    vertex 5.333333 -0.409148 -0.386011
    vertex 5.333333 -0.309099 -0.469962
  endloop
endfacet
facet normal -0.000000 -0.156307 -0.311233
  outer loop
    vertex 8.000000 -0.309099 -0.469962
    vertex 5.333333 -0.309099 -0.469962
    vertex 8.000000 -0.192386 -0.528577
  endloop
endfacet
facet normal -0.000000 -0.156307 -0.311233
  outer loop
    vertex 8.000000 -0.192386 -0.528577
    vertex 5.333333 -0.309099 -0.469962
    vertex 5.333333 -0.192386 -0.528577
  endloop
endfacet
facet normal -0.000000 -0.080319 -0.338891
  outer loop
    vertex 8.000000 -0.192386 -0.528577
    vertex 5.333333 -0.192386 -0.528577
    vertex 8.000000 -0.065302 -0.558697
  endloop
endfacet
facet normal -0.000000 -0.080319 -0.338891
  outer loop
    vertex 8.000000 -0.065302 -0.558697
    vertex 5.333333 -0.192386 -0.528577
    vertex 5.333333 -0.065302 -0.558697
  endloop
endfacet
facet normal 0.000000 0.000000 -0.348279
  outer loop
    vertex 8.000000 -0.065302 -0.558697
    vertex 5.333333 -0.065302 -0.558697
    vertex 8.000000 0.065302 -0.558697
  endloop
endfacet
facet normal -0.000000 0.000000 -0.348279
  outer loop
    vertex 8.000000 0.065302 -0.558697
    vertex 5.333333 -0.065302 -0.558697
    vertex 5.333333 0.065302 -0.558697
  endloop
endfacet
facet normal 0.000000 0.080319 -0.338891
  outer loop
    vertex 8.000000 0.065302 -0.558697
    vertex 5.333333 0.065302 -0.558697
    vertex 8.000000 0.192386 -0.528577
  endloop
endfacet
facet normal -0.000000 0.040433 0.345924
  outer loop
    vertex 10.666667 0.000000 0.562500
    vertex 13.333333 0.000000 0.562500
    vertex 10.666667 0.129721 0.547338
  endloop
endfacet
facet normal -0.000000 0.040433 0.345924
  outer loop
    vertex 10.666667 0.129721 0.547338
    vertex 13.333333 0.000000 0.562500
    vertex 13.333333 0.129721 0.547338
  endloop
endfacet
facet normal -0.000000 0.119118 0.327275
  outer loop
    vertex 10.666667 0.129721 0.547338
    vertex 13.333333 0.129721 0.547338
    vertex 10.666667 0.252450 0.502668
  endloop
endfacet
facet normal -0.000000 0.119118 0.327275
  outer loop
    vertex 10.666667 0.252450 0.502668
    vertex 13.333333 0.129721 0.547338
    vertex 13.333333 0.252450 0.502668
  endloop
endfacet
facet normal -0.000000 0.191382 0.290983
  outer loop
    vertex 10.666667 0.252450 0.502668
    vertex 13.333333 0.252450 0.502668
    vertex 10.666667 0.361568 0.430900
  endloop
endfacet
facet normal 0.000000 -0.040433 0.345924
  outer loop
    vertex 10.666667 0.000000 0.562500
    vertex 8.000000 0.000000 0.562500
    vertex 10.666667 -0.129721 0.547338
  endloop
endfacet
facet normal 0.000000 -0.040433 0.345924
  outer loop
    vertex 10.666667 -0.129721 0.547338
    vertex 8.000000 0.000000 0.562500
    vertex 8.000000 -0.129721 0.547338
  endloop
endfacet
facet normal 0.000000 -0.119118 0.327275
  outer loop
    vertex 10.666667 -0.129721 0.547338
    vertex 8.000000 -0.129721 0.547338
    vertex 10.666667 -0.252450 0.502668
  endloop
endfacet
facet normal 0.000000 -0.119118 0.327275
  outer loop
    vertex 10.666667 -0.252450 0.502668
    vertex 8.000000 -0.129721 0.547338
    vertex 8.000000 -0.252450 0.502668
  endloop
endfacet
facet normal 0.000000 -0.191382 0.290983
  outer loop
    vertex 10.666667 -0.252450 0.502668
    vertex 8.000000 -0.252450 0.502668
    vertex 10.666667 -0.361568 0.430900
  endloop
endfacet
facet normal 0.000000 -0.191382 0.290983
  outer loop
    vertex 10.666667 -0.361568 0.430900
    vertex 8.000000 -0.252450 0.502668
    vertex 8.000000 -0.361568 0.430900
  endloop
endfacet
facet normal 0.000000 -0.253329 0.239003
  outer loop
    vertex 10.666667 -0.361568 0.430900
    vertex 8.000000 -0.361568 0.430900
    vertex 10.666667 -0.451194 0.335902
  endloop
endfacet
facet normal 0.000000 -0.253329 0.239003
  outer loop
    vertex 10.666667 -0.451194 0.335902
    vertex 8.000000 -0.361568 0.430900
    vertex 8.000000 -0.451194 0.335902
  endloop
endfacet
facet normal 0.000000 -0.301618 0.174139
  outer loop
    vertex 10.666667 -0.451194 0.335902
    vertex 8.000000 -0.451194 0.335902
    vertex 10.666667 -0.516497 0.222795
  endloop
endfacet
facet normal 0.000000 -0.301618 0.174139
  outer loop
    vertex 10.666667 -0.516497 0.222795
    vertex 8.000000 -0.451194 0.335902
    vertex 8.000000 -0.516497 0.222795
  endloop
endfacet
facet normal 0.000000 -0.333647 0.099888
  outer loop
    vertex 10.666667 -0.516497 0.222795
    vertex 8.000000 -0.516497 0.222795
    vertex 10.666667 -0.553954 0.097677
  endloop
endfacet
facet normal 0.000000 -0.333647 0.099888
  outer loop
    vertex 10.666667 -0.553954 0.097677
    vertex 8.000000 -0.516497 0.222795
    vertex 8.000000 -0.553954 0.097677
  endloop
endfacet
facet normal 0.000000 -0.347690 0.020251
  outer loop
    vertex 10.666667 -0.553954 0.097677
    vertex 8.000000 -0.553954 0.097677
    vertex 10.666667 -0.561548 -0.032706
  endloop
endfacet
facet normal 0.000000 -0.347690 0.020251
  outer loop
    vertex 10.666667 -0.561548 -0.032706
    vertex 8.000000 -0.553954 0.097677
    vertex 8.000000 -0.561548 -0.032706
  endloop
endfacet
facet normal -0.000000 -0.342988 -0.060478
  outer loop
    vertex 10.666667 -0.561548 -0.032706
    vertex 8.000000 -0.561548 -0.032706
    vertex 10.666667 -0.538869 -0.161327
  endloop
endfacet
facet normal -0.000000 -0.342988 -0.060478
  outer loop
    vertex 10.666667 -0.538869 -0.161327
    vertex 8.000000 -0.561548 -0.032706
    vertex 8.000000 -0.538869 -0.161327
  endloop
endfacet
facet normal -0.000000 -0.319795 -0.137946
  outer loop
    vertex 10.666667 -0.538869 -0.161327
    vertex 8.000000 -0.538869 -0.161327
    vertex 10.666667 -0.487139 -0.281250
  endloop
endfacet
facet normal -0.000000 -0.319795 -0.137946
  outer loop
    vertex 10.666667 -0.487139 -0.281250
    vertex 8.000000 -0.538869 -0.161327
    vertex 8.000000 -0.487139 -0.281250
  endloop
endfacet
facet normal -0.000000 -0.279362 -0.207978
  outer loop
    vertex 10.666667 -0.487139 -0.281250
    vertex 8.000000 -0.487139 -0.281250
    vertex 10.666667 -0.409148 -0.386011
  endloop
endfacet
facet normal -0.000000 -0.279362 -0.207978
  outer loop
    vertex 10.666667 -0.409148 -0.386011
    vertex 8.000000 -0.487139 -0.281250
    vertex 8.000000 -0.409148 -0.386011
  endloop
endfacet
facet normal -0.000000 -0.223869 -0.266797
  outer loop
    vertex 10.666667 -0.409148 -0.386011
    vertex 8.000000 -0.409148 -0.386011
    vertex 10.666667 -0.309099 -0.469962
  endloop
endfacet
facet normal -0.000000 -0.223869 -0.266797
  outer loop
    vertex 10.666667 -0.309099 -0.469962
    vertex 8.000000 -0.409148 -0.386011
    vertex 8.000000 -0.309099 -0.469962
  endloop
endfacet
facet normal -0.000000 -0.156307 -0.311233
  outer loop
    vertex 10.666667 -0.309099 -0.469962
    vertex 8.000000 -0.309099 -0.469962
    vertex 10.666667 -0.192386 -0.528577
  endloop
endfacet
facet normal -0.000000 -0.156307 -0.311233
  outer loop
    vertex 10.666667 -0.192386 -0.528577
    vertex 8.000000 -0.309099 -0.469962
    vertex 8.000000 -0.192386 -0.528577
  endloop
endfacet
facet normal -0.000000 -0.080319 -0.338891
  outer loop
    vertex 10.666667 -0.192386 -0.528577
    vertex 8.000000 -0.192386 -0.528577
    vertex 10.666667 -0.065302 -0.558697
  endloop
endfacet
facet normal -0.000000 -0.080319 -0.338891
  outer loop
    vertex 10.666667 -0.065302 -0.558697
    vertex 8.000000 -0.192386 -0.528577
    vertex 8.000000 -0.065302 -0.558697
  endloop
endfacet
facet normal 0.000000 0.000000 -0.348279
  outer loop
    vertex 10.666667 -0.065302 -0.558697
    vertex 8.000000 -0.065302 -0.558697
    vertex 10.666667 0.065302 -0.558697
  endloop
endfacet
facet normal -0.000000 0.000000 -0.348279
  outer loop
    vertex 10.666667 0.065302 -0.558697
    vertex 8.000000 -0.065302 -0.558697
    vertex 8.000000 0.065302 -0.558697
  endloop
endfacet
facet normal 0.000000 0.080319 -0.338891
  outer loop
    vertex 10.666667 0.065302 -0.558697
    vertex 8.000000 0.065302 -0.558697
    vertex 10.666667 0.192386 -0.528577
  endloop
endfacet
facet normal 0.000000 0.080319 -0.338891
  outer loop
    vertex 10.666667 0.192386 -0.528577
    vertex 8.000000 0.065302 -0.558697
    vertex 8.000000 0.192386 -0.528577
  endloop
endfacet
facet normal 0.000000 0.156307 -0.311233
  outer loop
    vertex 10.666667 0.192386 -0.528577
    vertex 8.000000 0.192386 -0.528577
    vertex 10.666667 0.309099 -0.469962
  endloop
endfacet
facet normal -0.000000 0.040433 0.345924
  outer loop
    vertex 13.333333 0.000000 0.562500
    vertex 16.000000 0.000000 0.562500
    vertex 13.333333 0.129721 0.547338
  endloop
endfacet
facet normal -0.000000 0.040433 0.345924
  outer loop
    vertex 13.333333 0.129721 0.547338
    vertex 16.000000 0.000000 0.562500
    vertex 16.000000 0.129721 0.547338
  endloop
endfacet
facet normal -0.000000 0.119118 0.327275
  outer loop
    vertex 13.333333 0.129721 0.547338
    vertex 16.000000 0.129721 0.547338
    vertex 13.333333 0.252450 0.502668
  endloop
endfacet
facet normal 0.000000 -0.040433 0.345924
  outer loop
    vertex 13.333333 0.000000 0.562500
    vertex 10.666667 0.000000 0.562500
    vertex 13.333333 -0.129721 0.547338
  endloop
endfacet
facet normal 0.000000 -0.040433 0.345924
  outer loop
    vertex 13.333333 -0.129721 0.547338
    vertex 10.666667 0.000000 0.562500
    vertex 10.666667 -0.129721 0.547338
  endloop
endfacet
facet normal 0.000000 -0.119118 0.327275
  outer loop
    vertex 13.333333 -0.129721 0.547338
    vertex 10.666667 -0.129721 0.547338
    vertex 13.333333 -0.252450 0.502668
  endloop
endfacet
facet normal 0.000000 -0.119118 0.327275
  outer loop
    vertex 13.333333 -0.252450 0.502668
    vertex 10.666667 -0.129721 0.547338
    vertex 10.666667 -0.252450 0.502668
  endloop
endfacet
facet normal 0.000000 -0.191382 0.290983
  outer loop
    vertex 13.333333 -0.252450 0.502668
    vertex 10.666667 -0.252450 0.502668
    vertex 13.333333 -0.361568 0.430900
  endloop
endfacet
facet normal 0.000000 -0.191382 0.290983
  outer loop
    vertex 13.333333 -0.361568 0.430900
    vertex 10.666667 -0.252450 0.502668
    vertex 10.666667 -0.361568 0.430900
  endloop
endfacet
facet normal 0.000000 -0.253329 0.239003
  outer loop
    vertex 13.333333 -0.361568 0.430900
    vertex 10.666667 -0.361568 0.430900
    vertex 13.333333 -0.451194 0.335902
  endloop
endfacet
facet normal 0.000000 -0.253329 0.239003
  outer loop
    vertex 13.333333 -0.451194 0.335902
    vertex 10.666667 -0.361568 0.430900
    vertex 10.666667 -0.451194 0.335902
  endloop
endfacet
facet normal 0.000000 -0.301618 0.174139
  outer loop
    vertex 13.333333 -0.451194 0.335902
    vertex 10.666667 -0.451194 0.335902
    vertex 13.333333 -0.516497 0.222795
  endloop
endfacet
facet normal 0.000000 -0.301618 0.174139
  outer loop
    vertex 13.333333 -0.516497 0.222795
    vertex 10.666667 -0.451194 0.335902
    vertex 10.666667 -0.516497 0.222795
  endloop
endfacet
facet normal 0.000000 -0.333647 0.099888
  outer loop
    vertex 13.333333 -0.516497 0.222795
    vertex 10.666667 -0.516497 0.222795
    vertex 13.333333 -0.553954 0.097677
  endloop
endfacet
facet normal 0.000000 -0.333647 0.099888
  outer loop
    vertex 13.333333 -0.553954 0.097677
    vertex 10.666667 -0.516497 0.222795
    vertex 10.666667 -0.553954 0.097677
  endloop
endfacet
facet normal 0.000000 -0.347689 0.020251
  outer loop
    vertex 13.333333 -0.553954 0.097677
    vertex 10.666667 -0.553954 0.097677
    vertex 13.333333 -0.561548 -0.032706
  endloop
endfacet
facet normal 0.000000 -0.347689 0.020251
  outer loop
    vertex 13.333333 -0.561548 -0.032706
    vertex 10.666667 -0.553954 0.097677
    vertex 10.666667 -0.561548 -0.032706
  endloop
endfacet
facet normal -0.000000 -0.342988 -0.060478
  outer loop
    vertex 13.333333 -0.561548 -0.032706
    vertex 10.666667 -0.561548 -0.032706
    vertex 13.333333 -0.538869 -0.161327
  endloop
endfacet
facet normal -0.000000 -0.342988 -0.060478
  outer loop
    vertex 13.333333 -0.538869 -0.161327
    vertex 10.666667 -0.561548 -0.032706
    vertex 10.666667 -0.538869 -0.161327
  endloop
endfacet
facet normal -0.000000 -0.319795 -0.137946
  outer loop
    vertex 13.333333 -0.538869 -0.161327
    vertex 10.666667 -0.538869 -0.161327
    vertex 13.333333 -0.487139 -0.281250
  endloop
endfacet
facet normal -0.000000 -0.319795 -0.137946
  outer loop
    vertex 13.333333 -0.487139 -0.281250
    vertex 10.666667 -0.538869 -0.161327
    vertex 10.666667 -0.487139 -0.281250
  endloop
endfacet
facet normal -0.000000 -0.279362 -0.207978
  outer loop
    vertex 13.333333 -0.487139 -0.281250
    vertex 10.666667 -0.487139 -0.281250
    vertex 13.333333 -0.409148 -0.386011
  endloop
endfacet
facet normal -0.000000 -0.279362 -0.207978
  outer loop
    vertex 13.333333 -0.409148 -0.386011
    vertex 10.666667 -0.487139 -0.281250
    vertex 10.666667 -0.409148 -0.386011
  endloop
endfacet
facet normal -0.000000 -0.223869 -0.266797
  outer loop
    vertex 13.333333 -0.409148 -0.386011
    vertex 10.666667 -0.409148 -0.386011
    vertex 13.333333 -0.309099 -0.469962
  endloop
endfacet
facet normal -0.000000 -0.223869 -0.266797
  outer loop
    vertex 13.333333 -0.309099 -0.469962
    vertex 10.666667 -0.409148 -0.386011
    vertex 10.666667 -0.309099 -0.469962
  endloop
endfacet
facet normal -0.000000 -0.156307 -0.311233
  outer loop
    vertex 13.333333 -0.309099 -0.469962
    vertex 10.666667 -0.309099 -0.469962
    vertex 13.333333 -0.192386 -0.528577
  endloop
endfacet
facet normal -0.000000 -0.156307 -0.311233
  outer loop
    vertex 13.333333 -0.192386 -0.528577
    vertex 10.666667 -0.309099 -0.469962
    vertex 10.666667 -0.192386 -0.528577
  endloop
endfacet
facet normal -0.000000 -0.080319 -0.338891
  outer loop
    vertex 13.333333 -0.192386 -0.528577
    vertex 10.666667 -0.192386 -0.528577
    vertex 13.333333 -0.065302 -0.558697
  endloop
endfacet
facet normal -0.000000 -0.080319 -0.338891
  outer loop
    vertex 13.333333 -0.065302 -0.558697
    vertex 10.666667 -0.192386 -0.528577
    vertex 10.666667 -0.065302 -0.558697
  endloop
endfacet
facet normal 0.000000 0.000000 -0.348279
  outer loop
    vertex 13.333333 -0.065302 -0.558697
    vertex 10.666667 -0.065302 -0.558697
    vertex 13.333333 0.065302 -0.558697
  endloop
endfacet
facet normal -0.000000 0.000000 -0.348279
  outer loop
    vertex 13.333333 0.065302 -0.558697
    vertex 10.666667 -0.065302 -0.558697
    vertex 10.666667 0.065302 -0.558697
  endloop
endfacet
facet normal 0.000000 0.080319 -0.338891
  outer loop
    vertex 13.333333 0.065302 -0.558697
    vertex 10.666667 0.065302 -0.558697
    vertex 13.333333 0.192386 -0.528577
  endloop
endfacet
facet normal 0.000000 0.080319 -0.338891
  outer loop
    vertex 13.333333 0.192386 -0.528577
    vertex 10.666667 0.065302 -0.558697
    vertex 10.666667 0.192386 -0.528577
  endloop
endfacet
facet normal 0.000000 0.156307 -0.311233
  outer loop
    vertex 13.333333 0.192386 -0.528577
    vertex 10.666667 0.192386 -0.528577
    vertex 13.333333 0.309099 -0.469962
  endloop
endfacet
facet normal 0.000000 0.156307 -0.311233
  outer loop
    vertex 13.333333 0.309099 -0.469962
    vertex 10.666667 0.192386 -0.528577
    vertex 10.666667 0.309099 -0.469962
  endloop
endfacet
facet normal 0.000000 0.223869 -0.266797
  outer loop
    vertex 13.333333 0.309099 -0.469962
    vertex 10.666667 0.309099 -0.469962
    vertex 13.333333 0.409148 -0.386011
  endloop
endfacet
facet normal 0.000000 0.040433 0.345924
  outer loop
    vertex 16.000000 0.129721 0.547338
    vertex 16.000000 0.000000 0.562500
    vertex 18.666666 0.000000 0.562500
  endloop
endfacet
facet normal 0.000000 -0.040433 0.345924
  outer loop
    vertex 18.666666 0.000000 0.562500
    vertex 16.000000 0.000000 0.562500
    vertex 18.666666 -0.129721 0.547338
  endloop
endfacet
facet normal 0.000000 -0.040433 0.345924
  outer loop
    vertex 18.666666 0.000000 0.562500
    vertex 18.666666 -0.129721 0.547338
    vertex 21.333334 -0.129721 0.547338
  endloop
endfacet
facet normal 0.000000 -0.119118 0.327275
  outer loop
    vertex 21.333334 -0.129721 0.547338
    vertex 18.666666 -0.129721 0.547338
    vertex 21.333334 -0.252450 0.502668
  endloop
endfacet
facet normal 0.000000 -0.040433 0.345924
  outer loop
    vertex 16.000000 0.000000 0.562500
    vertex 13.333333 0.000000 0.562500
    vertex 16.000000 -0.129721 0.547338
  endloop
endfacet
facet normal 0.000000 -0.040433 0.345924
  outer loop
    vertex 16.000000 -0.129721 0.547338
    vertex 13.333333 0.000000 0.562500
    vertex 13.333333 -0.129721 0.547338
  endloop
endfacet
facet normal 0.000000 -0.119118 0.327275
  outer loop
    vertex 16.000000 -0.129721 0.547338
    vertex 13.333333 -0.129721 0.547338
    vertex 16.000000 -0.252450 0.502668
  endloop
endfacet
facet normal 0.000000 -0.119118 0.327275
  outer loop
    vertex 16.000000 -0.252450 0.502668
    vertex 13.333333 -0.129721 0.547338
    vertex 13.333333 -0.252450 0.502668
  endloop
endfacet
facet normal 0.000000 -0.191382 0.290983
  outer loop
    vertex 16.000000 -0.252450 0.502668
    vertex 13.333333 -0.252450 0.502668
    vertex 16.000000 -0.361568 0.430900
  endloop
endfacet
facet normal 0.000000 -0.191382 0.290983
  outer loop
    vertex 16.000000 -0.361568 0.430900
    vertex 13.333333 -0.252450 0.502668
    vertex 13.333333 -0.361568 0.430900
  endloop
endfacet
facet normal 0.000000 -0.253329 0.239003
  outer loop
    vertex 16.000000 -0.361568 0.430900
    vertex 13.333333 -0.361568 0.430900
    vertex 16.000000 -0.451194 0.335902
  endloop
endfacet
facet normal 0.000000 -0.253329 0.239003
  outer loop
    vertex 16.000000 -0.451194 0.335902
    vertex 13.333333 -0.361568 0.430900
    vertex 13.333333 -0.451194 0.335902
  endloop
endfacet
facet normal 0.000000 -0.301618 0.174139
  outer loop
    vertex 16.000000 -0.451194 0.335902
    vertex 13.333333 -0.451194 0.335902
    vertex 16.000000 -0.516497 0.222795
  endloop
endfacet
facet normal 0.000000 -0.301618 0.174139
  outer loop
    vertex 16.000000 -0.516497 0.222795
    vertex 13.333333 -0.451194 0.335902
    vertex 13.333333 -0.516497 0.222795
  endloop
endfacet
facet normal 0.000000 -0.333647 0.099888
  outer loop
    vertex 16.000000 -0.516497 0.222795
    vertex 13.333333 -0.516497 0.222795
    vertex 16.000000 -0.553954 0.097677
  endloop
endfacet
facet normal 0.000000 -0.333647 0.099888
  outer loop
    vertex 16.000000 -0.553954 0.097677
    vertex 13.333333 -0.516497 0.222795
    vertex 13.333333 -0.553954 0.097677
  endloop
endfacet
facet normal 0.000000 -0.347690 0.020251
  outer loop
    vertex 16.000000 -0.553954 0.097677
    vertex 13.333333 -0.553954 0.097677
    vertex 16.000000 -0.561548 -0.032706
  endloop
endfacet
facet normal 0.000000 -0.347690 0.020251
  outer loop
    vertex 16.000000 -0.561548 -0.032706
    vertex 13.333333 -0.553954 0.097677
    vertex 13.333333 -0.561548 -0.032706
  endloop
endfacet
facet normal -0.000000 -0.342988 -0.060478
  outer loop
    vertex 16.000000 -0.561548 -0.032706
    vertex 13.333333 -0.561548 -0.032706
    vertex 16.000000 -0.538869 -0.161327
  endloop
endfacet
facet normal -0.000000 -0.342988 -0.060478
  outer loop
    vertex 16.000000 -0.538869 -0.161327
    vertex 13.333333 -0.561548 -0.032706
    vertex 13.333333 -0.538869 -0.161327
  endloop
endfacet
facet normal -0.000000 -0.319795 -0.137946
  outer loop
    vertex 16.000000 -0.538869 -0.161327
    vertex 13.333333 -0.538869 -0.161327
    vertex 16.000000 -0.487139 -0.281250
  endloop
endfacet
facet normal -0.000000 -0.319795 -0.137946
  outer loop
    vertex 16.000000 -0.487139 -0.281250
    vertex 13.333333 -0.538869 -0.161327
    vertex 13.333333 -0.487139 -0.281250
  endloop
endfacet
facet normal -0.000000 -0.279362 -0.207978
  outer loop
    vertex 16.000000 -0.487139 -0.281250
    vertex 13.333333 -0.487139 -0.281250
    vertex 16.000000 -0.409148 -0.386011
  endloop
endfacet
facet normal -0.000000 -0.279362 -0.207978
  outer loop
    vertex 16.000000 -0.409148 -0.386011
    vertex 13.333333 -0.487139 -0.281250
    vertex 13.333333 -0.409148 -0.386011
  endloop
endfacet
facet normal -0.000000 -0.223869 -0.266797
  outer loop
    vertex 16.000000 -0.409148 -0.386011
    vertex 13.333333 -0.409148 -0.386011
    vertex 16.000000 -0.309099 -0.469962
  endloop
endfacet
facet normal -0.000000 -0.223869 -0.266797
  outer loop
    vertex 16.000000 -0.309099 -0.469962
    vertex 13.333333 -0.409148 -0.386011
    vertex 13.333333 -0.309099 -0.469962
  endloop
endfacet
facet normal -0.000000 -0.156307 -0.311233
  outer loop
    vertex 16.000000 -0.309099 -0.469962
    vertex 13.333333 -0.309099 -0.469962
    vertex 16.000000 -0.192386 -0.528577
  endloop
endfacet
facet normal -0.000000 -0.156307 -0.311233
  outer loop
    vertex 16.000000 -0.192386 -0.528577
    vertex 13.333333 -0.309099 -0.469962
    vertex 13.333333 -0.192386 -0.528577
  endloop
endfacet
facet normal -0.000000 -0.080319 -0.338891
  outer loop
    vertex 16.000000 -0.192386 -0.528577
    vertex 13.333333 -0.192386 -0.528577
    vertex 16.000000 -0.065302 -0.558697
  endloop
endfacet
facet normal -0.000000 -0.080319 -0.338891
  outer loop
    vertex 16.000000 -0.065302 -0.558697
    vertex 13.333333 -0.192386 -0.528577
    vertex 13.333333 -0.065302 -0.558697
  endloop
endfacet
facet normal 0.000000 0.000000 -0.348279
  outer loop
    vertex 16.000000 -0.065302 -0.558697
    vertex 13.333333 -0.065302 -0.558697
    vertex 16.000000 0.065302 -0.558697
  endloop
endfacet
facet normal -0.000000 0.000000 -0.348279
  outer loop
    vertex 16.000000 0.065302 -0.558697
    vertex 13.333333 -0.065302 -0.558697
    vertex 13.333333 0.065302 -0.558697
  endloop
endfacet
facet normal 0.000000 0.080319 -0.338891
  outer loop
    vertex 16.000000 0.065302 -0.558697
    vertex 13.333333 0.065302 -0.558697
    vertex 16.000000 0.192386 -0.528577
  endloop
endfacet
facet normal 0.000000 0.080319 -0.338891
  outer loop
    vertex 16.000000 0.192386 -0.528577
    vertex 13.333333 0.065302 -0.558697
    vertex 13.333333 0.192386 -0.528577
  endloop
endfacet
facet normal 0.000000 0.156307 -0.311233
  outer loop
    vertex 16.000000 0.192386 -0.528577
    vertex 13.333333 0.192386 -0.528577
    vertex 16.000000 0.309099 -0.469962
  endloop
endfacet
facet normal 0.000000 0.156307 -0.311233
  outer loop
    vertex 16.000000 0.309099 -0.469962
    vertex 13.333333 0.192386 -0.528577
    vertex 13.333333 0.309099 -0.469962
  endloop
endfacet
facet normal 0.000000 0.223869 -0.266797
  outer loop
    vertex 16.000000 0.309099 -0.469962
    vertex 13.333333 0.309099 -0.469962
    vertex 16.000000 0.409148 -0.386011
  endloop
endfacet
facet normal 0.000000 0.223869 -0.266797
  outer loop
    vertex 16.000000 0.409148 -0.386011
    vertex 13.333333 0.309099 -0.469962
    vertex 13.333333 0.409148 -0.386011
  endloop
endfacet
facet normal 0.000000 0.279362 -0.207978
  outer loop
    vertex 16.000000 0.409148 -0.386011
    vertex 13.333333 0.409148 -0.386011
    vertex 16.000000 0.487139 -0.281250
  endloop
endfacet
facet normal 0.000000 0.301618 0.174139
  outer loop
    vertex 16.000000 0.451194 0.335902
    vertex 16.000000 0.516497 0.222795
    vertex 13.333333 0.516497 0.222795
  endloop
endfacet
facet normal 0.000000 0.301618 0.174139
  outer loop
    vertex 13.333333 0.516497 0.222795
    vertex 10.666667 0.516497 0.222795
    vertex 13.333333 0.451194 0.335902
  endloop
endfacet
facet normal 0.000000 0.301618 0.174139
  outer loop
    vertex 13.333333 0.451194 0.335902
    vertex 10.666667 0.516497 0.222795
    vertex 10.666667 0.451194 0.335902
  endloop
endfacet
facet normal 0.000000 0.253329 0.239003
  outer loop
    vertex 13.333333 0.451194 0.335902
    vertex 10.666667 0.451194 0.335902
    vertex 13.333333 0.361568 0.430900
  endloop
endfacet
facet normal 0.000000 0.301618 0.174139
  outer loop
    vertex 21.333334 0.451194 0.335902
    vertex 21.333334 0.516497 0.222795
    vertex 18.666666 0.516497 0.222795
  endloop
endfacet
facet normal 0.000000 0.301618 0.174139
  outer loop
    vertex 21.333334 0.451194 0.335902
    vertex 18.666666 0.516497 0.222795
    vertex 18.666666 0.451194 0.335902
  endloop
endfacet
facet normal 0.000000 0.253329 0.239003
  outer loop
    vertex 16.000000 0.361568 0.430900
    vertex 16.000000 0.451194 0.335902
    vertex 13.333333 0.451194 0.335902
  endloop
endfacet
facet normal -0.000000 0.301618 0.174139
  outer loop
    vertex 13.333333 0.451194 0.335902
    vertex 16.000000 0.451194 0.335902
    vertex 13.333333 0.516497 0.222795
  endloop
endfacet
facet normal 0.000000 0.253329 0.239003
  outer loop
    vertex 16.000000 0.361568 0.430900
    vertex 13.333333 0.451194 0.335902
    vertex 13.333333 0.361568 0.430900
  endloop
endfacet
facet normal 0.000000 0.253329 0.239003
  outer loop
    vertex 21.333334 0.361568 0.430900
    vertex 21.333334 0.451194 0.335902
    vertex 18.666666 0.451194 0.335902
  endloop
endfacet
facet normal 0.000000 0.253329 0.239003
  outer loop
    vertex 21.333334 0.361568 0.430900
    vertex 18.666666 0.451194 0.335902
    vertex 18.666666 0.361568 0.430900
  endloop
endfacet
facet normal 0.000000 0.191382 0.290983
  outer loop
    vertex 16.000000 0.252450 0.502668
    vertex 16.000000 0.361568 0.430900
    vertex 13.333333 0.361568 0.430900
  endloop
endfacet
facet normal 0.000000 0.191382 0.290983
  outer loop
    vertex 21.333334 0.252450 0.502668
    vertex 21.333334 0.361568 0.430900
    vertex 18.666666 0.361568 0.430900
  endloop
endfacet
facet normal 0.000000 0.191382 0.290983
  outer loop
    vertex 21.333334 0.252450 0.502668
    vertex 18.666666 0.361568 0.430900
    vertex 18.666666 0.252450 0.502668
  endloop
endfacet
facet normal 0.000000 0.119118 0.327275
  outer loop
    vertex 21.333334 0.129721 0.547338
    vertex 21.333334 0.252450 0.502668
    vertex 18.666666 0.252450 0.502668
  endloop
endfacet
facet normal 0.000000 0.119118 0.327275
  outer loop
    vertex 21.333334 0.129721 0.547338
    vertex 18.666666 0.252450 0.502668
    vertex 18.666666 0.129721 0.547338
  endloop
endfacet
facet normal 0.000000 0.040433 0.345924
  outer loop
    vertex 21.333334 -0.000000 0.562500
    vertex 21.333334 0.129721 0.547338
    vertex 18.666666 0.129721 0.547338
  endloop
endfacet
facet normal 0.000000 -0.040433 0.345924
  outer loop
    vertex 16.000000 0.000000 0.562500
    vertex 16.000000 -0.129721 0.547338
    vertex 18.666666 -0.129721 0.547338
  endloop
endfacet
facet normal 0.000000 -0.119118 0.327275
  outer loop
    vertex 18.666666 -0.129721 0.547338
    vertex 16.000000 -0.129721 0.547338
    vertex 18.666666 -0.252450 0.502668
  endloop
endfacet
facet normal 0.000000 -0.119118 0.327275
  outer loop
    vertex 18.666666 -0.129721 0.547338
    vertex 18.666666 -0.252450 0.502668
    vertex 21.333334 -0.252450 0.502668
  endloop
endfacet
facet normal 0.000000 -0.191382 0.290983
  outer loop
    vertex 21.333334 -0.252450 0.502668
    vertex 18.666666 -0.252450 0.502668
    vertex 21.333334 -0.361568 0.430900
  endloop
endfacet
facet normal 0.000000 -0.119118 0.327275
  outer loop
    vertex 18.666666 -0.252450 0.502668
    vertex 16.000000 -0.129721 0.547338
    vertex 16.000000 -0.252450 0.502668
  endloop
endfacet
facet normal 0.000000 -0.191382 0.290983
  outer loop
    vertex 18.666666 -0.252450 0.502668
    vertex 16.000000 -0.252450 0.502668
    vertex 18.666666 -0.361568 0.430900
  endloop
endfacet
facet normal 0.000000 -0.191382 0.290983
  outer loop
    vertex 18.666666 -0.361568 0.430900
    vertex 16.000000 -0.252450 0.502668
    vertex 16.000000 -0.361568 0.430900
  endloop
endfacet
facet normal 0.000000 -0.253329 0.239003
  outer loop
    vertex 18.666666 -0.361568 0.430900
    vertex 16.000000 -0.361568 0.430900
    vertex 18.666666 -0.451194 0.335902
  endloop
endfacet
facet normal 0.000000 -0.253329 0.239003
  outer loop
    vertex 18.666666 -0.451194 0.335902
    vertex 16.000000 -0.361568 0.430900
    vertex 16.000000 -0.451194 0.335902
  endloop
endfacet
facet normal 0.000000 -0.301618 0.174139
  outer loop
    vertex 18.666666 -0.451194 0.335902
    vertex 16.000000 -0.451194 0.335902
    vertex 18.666666 -0.516497 0.222795
  endloop
endfacet
facet normal 0.000000 -0.301618 0.174139
  outer loop
    vertex 18.666666 -0.516497 0.222795
    vertex 16.000000 -0.451194 0.335902
    vertex 16.000000 -0.516497 0.222795
  endloop
endfacet
facet normal 0.000000 -0.333647 0.099888
  outer loop
    vertex 18.666666 -0.516497 0.222795
    vertex 16.000000 -0.516497 0.222795
    vertex 18.666666 -0.553954 0.097677
  endloop
endfacet
facet normal 0.000000 -0.333647 0.099888
  outer loop
    vertex 18.666666 -0.553954 0.097677
    vertex 16.000000 -0.516497 0.222795
    vertex 16.000000 -0.553954 0.097677
  endloop
endfacet
facet normal 0.000000 -0.347689 0.020251
  outer loop
    vertex 18.666666 -0.553954 0.097677
    vertex 16.000000 -0.553954 0.097677
    vertex 18.666666 -0.561548 -0.032706
  endloop
endfacet
facet normal 0.000000 -0.347689 0.020251
  outer loop
    vertex 18.666666 -0.561548 -0.032706
    vertex 16.000000 -0.553954 0.097677
    vertex 16.000000 -0.561548 -0.032706
  endloop
endfacet
facet normal -0.000000 -0.342988 -0.060478
  outer loop
    vertex 18.666666 -0.561548 -0.032706
    vertex 16.000000 -0.561548 -0.032706
    vertex 18.666666 -0.538869 -0.161327
  endloop
endfacet
facet normal -0.000000 -0.342988 -0.060478
  outer loop
    vertex 18.666666 -0.538869 -0.161327
    vertex 16.000000 -0.561548 -0.032706
    vertex 16.000000 -0.538869 -0.161327
  endloop
endfacet
facet normal -0.000000 -0.319795 -0.137946
  outer loop
    vertex 18.666666 -0.538869 -0.161327
    vertex 16.000000 -0.538869 -0.161327
    vertex 18.666666 -0.487139 -0.281250
  endloop
endfacet
facet normal -0.000000 -0.319795 -0.137946
  outer loop
    vertex 18.666666 -0.487139 -0.281250
    vertex 16.000000 -0.538869 -0.161327
    vertex 16.000000 -0.487139 -0.281250
  endloop
endfacet
facet normal -0.000000 -0.279362 -0.207978
  outer loop
    vertex 18.666666 -0.487139 -0.281250
    vertex 16.000000 -0.487139 -0.281250
    vertex 18.666666 -0.409148 -0.386011
  endloop
endfacet
facet normal -0.000000 -0.279362 -0.207978
  outer loop
    vertex 18.666666 -0.409148 -0.386011
    vertex 16.000000 -0.487139 -0.281250
    vertex 16.000000 -0.409148 -0.386011
  endloop
endfacet
facet normal -0.000000 -0.223869 -0.266797
  outer loop
    vertex 18.666666 -0.409148 -0.386011
    vertex 16.000000 -0.409148 -0.386011
    vertex 18.666666 -0.309099 -0.469962
  endloop
endfacet
facet normal -0.000000 -0.223869 -0.266797
  outer loop
    vertex 18.666666 -0.309099 -0.469962
    vertex 16.000000 -0.409148 -0.386011
    vertex 16.000000 -0.309099 -0.469962
  endloop
endfacet
facet normal -0.000000 -0.156307 -0.311233
  outer loop
    vertex 18.666666 -0.309099 -0.469962
    vertex 16.000000 -0.309099 -0.469962
    vertex 18.666666 -0.192386 -0.528577
  endloop
endfacet
facet normal -0.000000 -0.156307 -0.311233
  outer loop
    vertex 18.666666 -0.192386 -0.528577
    vertex 16.000000 -0.309099 -0.469962
    vertex 16.000000 -0.192386 -0.528577
  endloop
endfacet
facet normal -0.000000 -0.080319 -0.338891
  outer loop
    vertex 18.666666 -0.192386 -0.528577
    vertex 16.000000 -0.192386 -0.528577
    vertex 18.666666 -0.065302 -0.558697
  endloop
endfacet
facet normal -0.000000 -0.080319 -0.338891
  outer loop
    vertex 18.666666 -0.065302 -0.558697
    vertex 16.000000 -0.192386 -0.528577
    vertex 16.000000 -0.065302 -0.558697
  endloop
endfacet
facet normal 0.000000 0.000000 -0.348279
  outer loop
    vertex 18.666666 -0.065302 -0.558697
    vertex 16.000000 -0.065302 -0.558697
    vertex 18.666666 0.065302 -0.558697
  endloop
endfacet
facet normal -0.000000 0.000000 -0.348279
  outer loop
    vertex 18.666666 0.065302 -0.558697
    vertex 16.000000 -0.065302 -0.558697
    vertex 16.000000 0.065302 -0.558697
  endloop
endfacet
facet normal 0.000000 0.080319 -0.338891
  outer loop
    vertex 18.666666 0.065302 -0.558697
    vertex 16.000000 0.065302 -0.558697
    vertex 18.666666 0.192386 -0.528577
  endloop
endfacet
facet normal 0.000000 0.080319 -0.338891
  outer loop
    vertex 18.666666 0.192386 -0.528577
    vertex 16.000000 0.065302 -0.558697
    vertex 16.000000 0.192386 -0.528577
  endloop
endfacet
facet normal 0.000000 0.156307 -0.311233
  outer loop
    vertex 18.666666 0.192386 -0.528577
    vertex 16.000000 0.192386 -0.528577
    vertex 18.666666 0.309099 -0.469962
  endloop
endfacet
facet normal 0.000000 0.156307 -0.311233
  outer loop
    vertex 18.666666 0.309099 -0.469962
    vertex 16.000000 0.192386 -0.528577
    vertex 16.000000 0.309099 -0.469962
  endloop
endfacet
facet normal 0.000000 0.223869 -0.266797
  outer loop
    vertex 18.666666 0.309099 -0.469962
    vertex 16.000000 0.309099 -0.469962
    vertex 18.666666 0.409148 -0.386011
  endloop
endfacet
facet normal 0.000000 0.223869 -0.266797
  outer loop
    vertex 18.666666 0.409148 -0.386011
    vertex 16.000000 0.309099 -0.469962
    vertex 16.000000 0.409148 -0.386011
  endloop
endfacet
facet normal 0.000000 0.279362 -0.207978
  outer loop
    vertex 18.666666 0.409148 -0.386011
    vertex 16.000000 0.409148 -0.386011
    vertex 18.666666 0.487139 -0.281250
  endloop
endfacet
facet normal 0.000000 0.279362 -0.207978
  outer loop
    vertex 18.666666 0.487139 -0.281250
    vertex 16.000000 0.409148 -0.386011
    vertex 16.000000 0.487139 -0.281250
  endloop
endfacet
facet normal 0.000000 0.319795 -0.137946
  outer loop
    vertex 18.666666 0.487139 -0.281250
    vertex 16.000000 0.487139 -0.281250
    vertex 18.666666 0.538869 -0.161327
  endloop
endfacet
facet normal 0.000000 -0.253329 0.239003
  outer loop
    vertex 21.333334 -0.451194 0.335902
    vertex 21.333334 -0.361568 0.430900
    vertex 18.666666 -0.361568 0.430900
  endloop
endfacet
facet normal 0.000000 -0.191382 0.290983
  outer loop
    vertex 18.666666 -0.361568 0.430900
    vertex 21.333334 -0.361568 0.430900
    vertex 18.666666 -0.252450 0.502668
  endloop
endfacet
facet normal 0.000000 -0.253329 0.239003
  outer loop
    vertex 21.333334 -0.451194 0.335902
    vertex 18.666666 -0.361568 0.430900
    vertex 18.666666 -0.451194 0.335902
  endloop
endfacet
facet normal 0.000000 -0.301618 0.174139
  outer loop
    vertex 21.333334 -0.516497 0.222795
    vertex 21.333334 -0.451194 0.335902
    vertex 18.666666 -0.451194 0.335902
  endloop
endfacet
facet normal 0.000000 -0.301618 0.174139
  outer loop
    vertex 21.333334 -0.516497 0.222795
    vertex 18.666666 -0.451194 0.335902
    vertex 18.666666 -0.516497 0.222795
  endloop
endfacet
facet normal 0.000000 -0.333648 0.099888
  outer loop
    vertex 21.333334 -0.553954 0.097677
    vertex 21.333334 -0.516497 0.222795
    vertex 18.666666 -0.516497 0.222795
  endloop
endfacet
facet normal 0.000000 -0.333648 0.099888
  outer loop
    vertex 21.333334 -0.553954 0.097677
    vertex 18.666666 -0.516497 0.222795
    vertex 18.666666 -0.553954 0.097677
  endloop
endfacet
facet normal 0.000000 -0.347690 0.020251
  outer loop
    vertex 21.333334 -0.561548 -0.032706
    vertex 21.333334 -0.553954 0.097677
    vertex 18.666666 -0.553954 0.097677
  endloop
endfacet
facet normal 0.000000 -0.347690 0.020251
  outer loop
    vertex 21.333334 -0.561548 -0.032706
    vertex 18.666666 -0.553954 0.097677
    vertex 18.666666 -0.561548 -0.032706
  endloop
endfacet
facet normal 0.000000 -0.342988 -0.060478
  outer loop
    vertex 21.333334 -0.538869 -0.161327
    vertex 21.333334 -0.561548 -0.032706
    vertex 18.666666 -0.561548 -0.032706
  endloop
endfacet
facet normal -0.000000 -0.342988 -0.060478
  outer loop
    vertex 21.333334 -0.538869 -0.161327
    vertex 18.666666 -0.561548 -0.032706
    vertex 18.666666 -0.538869 -0.161327
  endloop
endfacet
facet normal 0.000000 -0.319795 -0.137946
  outer loop
    vertex 21.333334 -0.487139 -0.281250
    vertex 21.333334 -0.538869 -0.161327
    vertex 18.666666 -0.538869 -0.161327
  endloop
endfacet
facet normal -0.000000 -0.319795 -0.137946
  outer loop
    vertex 21.333334 -0.487139 -0.281250
    vertex 18.666666 -0.538869 -0.161327
    vertex 18.666666 -0.487139 -0.281250
  endloop
endfacet
facet normal 0.000000 -0.279363 -0.207978
  outer loop
    vertex 21.333334 -0.409148 -0.386011
    vertex 21.333334 -0.487139 -0.281250
    vertex 18.666666 -0.487139 -0.281250
  endloop
endfacet
facet normal -0.000000 -0.279363 -0.207978
  outer loop
    vertex 21.333334 -0.409148 -0.386011
    vertex 18.666666 -0.487139 -0.281250
    vertex 18.666666 -0.409148 -0.386011
  endloop
endfacet
facet normal 0.000000 -0.223869 -0.266797
  outer loop
    vertex 21.333334 -0.309099 -0.469962
    vertex 21.333334 -0.409148 -0.386011
    vertex 18.666666 -0.409148 -0.386011
  endloop
endfacet
facet normal -0.000000 -0.223869 -0.266797
  outer loop
    vertex 21.333334 -0.309099 -0.469962
    vertex 18.666666 -0.409148 -0.386011
    vertex 18.666666 -0.309099 -0.469962
  endloop
endfacet
facet normal 0.000000 -0.156307 -0.311233
  outer loop
    vertex 21.333334 -0.192386 -0.528577
    vertex 21.333334 -0.309099 -0.469962
    vertex 18.666666 -0.309099 -0.469962
  endloop
endfacet
facet normal -0.000000 -0.156307 -0.311233
  outer loop
    vertex 21.333334 -0.192386 -0.528577
    vertex 18.666666 -0.309099 -0.469962
    vertex 18.666666 -0.192386 -0.528577
  endloop
endfacet
facet normal 0.000000 -0.080319 -0.338891
  outer loop
    vertex 21.333334 -0.065302 -0.558697
    vertex 21.333334 -0.192386 -0.528577
    vertex 18.666666 -0.192386 -0.528577
  endloop
endfacet
facet normal -0.000000 -0.080319 -0.338891
  outer loop
    vertex 21.333334 -0.065302 -0.558697
    vertex 18.666666 -0.192386 -0.528577
    vertex 18.666666 -0.065302 -0.558697
  endloop
endfacet
facet normal 0.000000 -0.000000 -0.348279
  outer loop
    vertex 21.333334 0.065302 -0.558697
    vertex 21.333334 -0.065302 -0.558697
    vertex 18.666666 -0.065302 -0.558697
  endloop
endfacet
facet normal -0.000000 0.000000 -0.348279
  outer loop
    vertex 21.333334 0.065302 -0.558697
    vertex 18.666666 -0.065302 -0.558697
    vertex 18.666666 0.065302 -0.558697
  endloop
endfacet
facet normal 0.000000 0.080319 -0.338891
  outer loop
    vertex 21.333334 0.192386 -0.528577
    vertex 21.333334 0.065302 -0.558697
    vertex 18.666666 0.065302 -0.558697
  endloop
endfacet
facet normal 0.000000 0.080319 -0.338891
  outer loop
    vertex 21.333334 0.192386 -0.528577
    vertex 18.666666 0.065302 -0.558697
    vertex 18.666666 0.192386 -0.528577
  endloop
endfacet
facet normal 0.000000 0.156307 -0.311233
  outer loop
    vertex 21.333334 0.309099 -0.469962
    vertex 21.333334 0.192386 -0.528577
    vertex 18.666666 0.192386 -0.528577
  endloop
endfacet
facet normal 0.000000 0.156307 -0.311233
  outer loop
    vertex 21.333334 0.309099 -0.469962
    vertex 18.666666 0.192386 -0.528577
    vertex 18.666666 0.309099 -0.469962
  endloop
endfacet
facet normal 0.000000 0.223869 -0.266797
  outer loop
    vertex 21.333334 0.409148 -0.386011
    vertex 21.333334 0.309099 -0.469962
    vertex 18.666666 0.309099 -0.469962
  endloop
endfacet
facet normal 0.000000 0.223869 -0.266797
  outer loop
    vertex 21.333334 0.409148 -0.386011
    vertex 18.666666 0.309099 -0.469962
    vertex 18.666666 0.409148 -0.386011
  endloop
endfacet
facet normal 0.000000 0.279363 -0.207978
  outer loop
    vertex 21.333334 0.487139 -0.281250
    vertex 21.333334 0.409148 -0.386011
    vertex 18.666666 0.409148 -0.386011
  endloop
endfacet
facet normal 0.000000 0.279363 -0.207978
  outer loop
    vertex 21.333334 0.487139 -0.281250
    vertex 18.666666 0.409148 -0.386011
    vertex 18.666666 0.487139 -0.281250
  endloop
endfacet
facet normal 0.000000 0.319795 -0.137946
  outer loop
    vertex 21.333334 0.538869 -0.161327
    vertex 21.333334 0.487139 -0.281250
    vertex 18.666666 0.487139 -0.281250
  endloop
endfacet
facet normal 0.000000 0.319795 -0.137946
  outer loop
    vertex 21.333334 0.538869 -0.161327
    vertex 18.666666 0.487139 -0.281250
    vertex 18.666666 0.538869 -0.161327
  endloop
endfacet
facet normal 0.000000 0.000000 -2.662446
  outer loop
    vertex 0.000000 0.548435 0.125000
    vertex 24.000000 0.548435 0.125000
    vertex 0.000000 0.437500 0.125000
  endloop
endfacet
facet normal 0.000000 0.000000 -2.662446
  outer loop
    vertex 0.000000 0.437500 0.125000
    vertex 24.000000 0.548435 0.125000
    vertex 24.000000 0.437500 0.125000
  endloop
endfacet
facet normal 0.013192 0.000000 0.000000
  outer loop
    vertex 24.000000 0.548435 0.125000
    vertex 24.000000 0.506864 0.243916
    vertex 24.000000 0.437500 0.125000
  endloop
endfacet
facet normal 0.015366 0.000000 0.000000
  outer loop
    vertex 24.000000 0.437500 0.125000
    vertex 24.000000 0.506864 0.243916
    vertex 24.000000 0.439871 0.350599
  endloop
endfacet
facet normal 0.020302 0.000000 -0.000000
  outer loop
    vertex 24.000000 0.437500 0.125000
    vertex 24.000000 0.439871 0.350599
    vertex 24.000000 0.350817 0.439698
  endloop
endfacet
facet normal 0.027751 0.000000 0.000000
  outer loop
    vertex 24.000000 0.350817 0.439698
    vertex 24.000000 0.244167 0.506743
    vertex 24.000000 0.437500 0.125000
  endloop
endfacet
facet normal 0.037339 0.000000 0.000000
  outer loop
    vertex 24.000000 0.437500 0.125000
    vertex 24.000000 0.244167 0.506743
    vertex 24.000000 0.125271 0.548373
  endloop
endfacet
facet normal 0.048587 0.000000 0.000000
  outer loop
    vertex 24.000000 0.437500 0.125000
    vertex 24.000000 0.125271 0.548373
    vertex 24.000000 0.000093 0.562500
  endloop
endfacet
facet normal 0.060929 0.000000 0.000000
  outer loop
    vertex 24.000000 0.000093 0.562500
    vertex 24.000000 -0.125090 0.548415
    vertex 24.000000 0.437500 0.125000
  endloop
endfacet
facet normal 0.073747 0.000000 0.000000
  outer loop
    vertex 24.000000 0.437500 0.125000
    vertex 24.000000 -0.125090 0.548415
    vertex 24.000000 -0.244000 0.506824
  endloop
endfacet
facet normal 0.690801 0.000000 0.000000
  outer loop
    vertex 24.000000 0.437500 0.125000
    vertex 24.000000 -0.244000 0.506824
    vertex 24.000000 -0.244000 -0.506824
  endloop
endfacet
facet normal 0.108127 0.000000 -0.000000
  outer loop
    vertex 24.000000 -0.244000 -0.506824
    vertex 24.000000 -0.244000 0.506824
    vertex 24.000000 -0.350672 -0.439813
  endloop
endfacet
facet normal 0.093831 0.000000 0.000000
  outer loop
    vertex 24.000000 -0.350672 -0.439813
    vertex 24.000000 -0.244000 0.506824
    vertex 24.000000 -0.350672 0.439813
  endloop
endfacet
facet normal 0.078361 0.000000 -0.000000
  outer loop
    vertex 24.000000 -0.350672 -0.439813
    vertex 24.000000 -0.350672 0.439813
    vertex 24.000000 -0.439755 -0.350744
  endloop
endfacet
facet normal 0.062491 0.000000 0.000000
  outer loop
    vertex 24.000000 -0.439755 -0.350744
    vertex 24.000000 -0.350672 0.439813
    vertex 24.000000 -0.439755 0.350744
  endloop
endfacet
facet normal 0.047019 0.000000 -0.000000
  outer loop
    vertex 24.000000 -0.439755 -0.350744
    vertex 24.000000 -0.439755 0.350744
    vertex 24.000000 -0.506783 -0.244083
  endloop
endfacet
facet normal 0.032721 0.000000 0.000000
  outer loop
    vertex 24.000000 -0.506783 -0.244083
    vertex 24.000000 -0.439755 0.350744
    vertex 24.000000 -0.506783 0.244083
  endloop
endfacet
facet normal 0.020313 0.000000 -0.000000
  outer loop
    vertex 24.000000 -0.506783 -0.244083
    vertex 24.000000 -0.506783 0.244083
    vertex 24.000000 -0.548394 -0.125181
  endloop
endfacet
facet normal 0.010418 0.000000 0.000000
  outer loop
    vertex 24.000000 -0.548394 -0.125181
    vertex 24.000000 -0.506783 0.244083
    vertex 24.000000 -0.548394 0.125181
  endloop
endfacet
facet normal 0.003532 0.000000 -0.000000
  outer loop
    vertex 24.000000 -0.548394 -0.125181
    vertex 24.000000 -0.548394 0.125181
    vertex 24.000000 -0.562500 0.000000
  endloop
endfacet
facet normal 0.170375 0.000000 0.000000
  outer loop
    vertex 24.000000 0.437500 0.125000
    vertex 24.000000 -0.244000 -0.506824
    vertex 24.000000 0.437500 -0.125000
  endloop
endfacet
facet normal 0.073747 0.000000 0.000000
  outer loop
    vertex 24.000000 0.437500 -0.125000
    vertex 24.000000 -0.244000 -0.506824
    vertex 24.000000 -0.125090 -0.548415
  endloop
endfacet
facet normal 0.060929 0.000000 0.000000
  outer loop
    vertex 24.000000 0.437500 -0.125000
    vertex 24.000000 -0.125090 -0.548415
    vertex 24.000000 0.000093 -0.562500
  endloop
endfacet
facet normal 0.048587 0.000000 0.000000
  outer loop
    vertex 24.000000 0.000093 -0.562500
    vertex 24.000000 0.125271 -0.548373
    vertex 24.000000 0.437500 -0.125000
  endloop
endfacet
facet normal 0.037339 0.000000 0.000000
  outer loop
    vertex 24.000000 0.437500 -0.125000
    vertex 24.000000 0.125271 -0.548373
    vertex 24.000000 0.244167 -0.506743
  endloop
endfacet
facet normal 0.027751 0.000000 0.000000
  outer loop
    vertex 24.000000 0.437500 -0.125000
    vertex 24.000000 0.244167 -0.506743
    vertex 24.000000 0.350817 -0.439698
  endloop
endfacet
facet normal 0.020302 0.000000 0.000000
  outer loop
    vertex 24.000000 0.350817 -0.439698
    vertex 24.000000 0.439871 -0.350599
    vertex 24.000000 0.437500 -0.125000
  endloop
endfacet
facet normal 0.015366 0.000000 0.000000
  outer loop
    vertex 24.000000 0.437500 -0.125000
    vertex 24.000000 0.439871 -0.350599
    vertex 24.000000 0.506864 -0.243916
  endloop
endfacet
facet normal 0.013192 -0.000000 0.000000
  outer loop
    vertex 24.000000 0.437500 -0.125000
    vertex 24.000000 0.506864 -0.243916
    vertex 24.000000 0.548435 -0.125000
  endloop
endfacet
facet normal -0.013192 0.000000 0.000000
  outer loop
    vertex 0.000000 0.548435 0.125000
    vertex 0.000000 0.437500 0.125000
    vertex 0.000000 0.506864 0.243916
  endloop
endfacet
facet normal -0.015366 -0.000000 0.000000
  outer loop
    vertex 0.000000 0.506864 0.243916
    vertex 0.000000 0.437500 0.125000
    vertex 0.000000 0.439871 0.350599
  endloop
endfacet
facet normal -0.020302 -0.000000 0.000000
  outer loop
    vertex 0.000000 0.439871 0.350599
    vertex 0.000000 0.437500 0.125000
    vertex 0.000000 0.350817 0.439698
  endloop
endfacet
facet normal -0.027751 -0.000000 -0.000000
  outer loop
    vertex 0.000000 0.350817 0.439698
    vertex 0.000000 0.437500 0.125000
    vertex 0.000000 0.244167 0.506743
  endloop
endfacet
facet normal -0.037339 -0.000000 -0.000000
  outer loop
    vertex 0.000000 0.244167 0.506743
    vertex 0.000000 0.437500 0.125000
    vertex 0.000000 0.125271 0.548373
  endloop
endfacet
facet normal -0.048587 -0.000000 -0.000000
  outer loop
    vertex 0.000000 0.125271 0.548373
    vertex 0.000000 0.437500 0.125000
    vertex 0.000000 0.000093 0.562500
  endloop
endfacet
facet normal -0.060929 0.000000 -0.000000
  outer loop
    vertex 0.000000 0.000093 0.562500
    vertex 0.000000 0.437500 0.125000
    vertex 0.000000 -0.125090 0.548415
  endloop
endfacet
facet normal -0.073747 0.000000 -0.000000
  outer loop
    vertex 0.000000 -0.125090 0.548415
    vertex 0.000000 0.437500 0.125000
    vertex 0.000000 -0.244000 0.506824
  endloop
endfacet
facet normal -0.170375 0.000000 0.000000
  outer loop
    vertex 0.000000 -0.244000 0.506824
    vertex 0.000000 0.437500 0.125000
    vertex 0.000000 0.437500 -0.125000
  endloop
endfacet
facet normal -0.690801 0.000000 0.000000
  outer loop
    vertex 0.000000 -0.244000 0.506824
    vertex 0.000000 0.437500 -0.125000
    vertex 0.000000 -0.244000 -0.506824
  endloop
endfacet
facet normal -0.073747 0.000000 0.000000
  outer loop
    vertex 0.000000 -0.244000 -0.506824
    vertex 0.000000 0.437500 -0.125000
    vertex 0.000000 -0.125090 -0.548415
  endloop
endfacet
facet normal -0.060929 0.000000 0.000000
  outer loop
    vertex 0.000000 -0.125090 -0.548415
    vertex 0.000000 0.437500 -0.125000
    vertex 0.000000 0.000093 -0.562500
  endloop
endfacet
facet normal -0.048587 0.000000 0.000000
  outer loop
    vertex 0.000000 0.000093 -0.562500
    vertex 0.000000 0.437500 -0.125000
    vertex 0.000000 0.125271 -0.548373
  endloop
endfacet
facet normal -0.037339 0.000000 0.000000
  outer loop
    vertex 0.000000 0.125271 -0.548373
    vertex 0.000000 0.437500 -0.125000
    vertex 0.000000 0.244167 -0.506743
  endloop
endfacet
facet normal -0.027751 0.000000 0.000000
  outer loop
    vertex 0.000000 0.244167 -0.506743
    vertex 0.000000 0.437500 -0.125000
    vertex 0.000000 0.350817 -0.439698
  endloop
endfacet
facet normal -0.020302 0.000000 0.000000
  outer loop
    vertex 0.000000 0.350817 -0.439698
    vertex 0.000000 0.437500 -0.125000
    vertex 0.000000 0.439871 -0.350599
  endloop
endfacet
facet normal -0.015366 0.000000 0.000000
  outer loop
    vertex 0.000000 0.439871 -0.350599
    vertex 0.000000 0.437500 -0.125000
    vertex 0.000000 0.506864 -0.243916
  endloop
endfacet
facet normal -0.013192 0.000000 0.000000
  outer loop
    vertex 0.000000 0.506864 -0.243916
    vertex 0.000000 0.437500 -0.125000
    vertex 0.000000 0.548435 -0.125000
  endloop
endfacet
facet normal -0.108127 0.000000 -0.000000
  outer loop
    vertex 0.000000 -0.244000 0.506824
    vertex 0.000000 -0.244000 -0.506824
    vertex 0.000000 -0.350672 0.439813
  endloop
endfacet
facet normal -0.093831 0.000000 0.000000
  outer loop
    vertex 0.000000 -0.350672 0.439813
    vertex 0.000000 -0.244000 -0.506824
    vertex 0.000000 -0.350672 -0.439813
  endloop
endfacet
facet normal -0.078361 0.000000 -0.000000
  outer loop
    vertex 0.000000 -0.350672 0.439813
    vertex 0.000000 -0.350672 -0.439813
    vertex 0.000000 -0.439755 0.350744
  endloop
endfacet
facet normal -0.062491 0.000000 0.000000
  outer loop
    vertex 0.000000 -0.439755 0.350744
    vertex 0.000000 -0.350672 -0.439813
    vertex 0.000000 -0.439755 -0.350744
  endloop
endfacet
facet normal -0.047019 0.000000 -0.000000
  outer loop
    vertex 0.000000 -0.439755 0.350744
    vertex 0.000000 -0.439755 -0.350744
    vertex 0.000000 -0.506783 0.244083
  endloop
endfacet
facet normal -0.032721 0.000000 0.000000
  outer loop
    vertex 0.000000 -0.506783 0.244083
    vertex 0.000000 -0.439755 -0.350744
    vertex 0.000000 -0.506783 -0.244083
  endloop
endfacet
facet normal -0.020313 0.000000 -0.000000
  outer loop
    vertex 0.000000 -0.506783 0.244083
    vertex 0.000000 -0.506783 -0.244083
    vertex 0.000000 -0.548394 0.125181
  endloop
endfacet
facet normal -0.010418 0.000000 0.000000
  outer loop
    vertex 0.000000 -0.548394 0.125181
    vertex 0.000000 -0.506783 -0.244083
    vertex 0.000000 -0.548394 -0.125181
  endloop
endfacet
facet normal -0.003532 0.000000 -0.000000
  outer loop
    vertex 0.000000 -0.548394 0.125181
    vertex 0.000000 -0.548394 -0.125181
    vertex 0.000000 -0.562500 0.000000
  endloop
endfacet
endsolid e01aa5f4-dd27-4784-8e13-c1e76ac69616-ascii.stl
