solid f1be2a66-1e1d-4ddd-a868-c07514578dc5-ascii.stl
facet normal -0.000000 2.250000 0.000000
  outer loop
    vertex 0.000000 0.468750 0.125000
    vertex 9.000000 0.468750 0.125000
    vertex 0.000000 0.468750 -0.125000
  endloop
endfacet
facet normal 0.000000 2.250000 0.000000
  outer loop
    vertex 0.000000 0.468750 -0.125000
    vertex 9.000000 0.468750 0.125000
    vertex 9.000000 0.468750 -0.125000
  endloop
endfacet
facet normal 0.000000 0.000000 1.005237
  outer loop
    vertex 0.000000 0.468750 -0.125000
    vertex 9.000000 0.468750 -0.125000
    vertex 0.000000 0.580443 -0.125000
  endloop
endfacet
facet normal -0.000000 0.000000 1.005237
  outer loop
    vertex 0.000000 0.580443 -0.125000
    vertex 9.000000 0.468750 -0.125000
    vertex 9.000000 0.580443 -0.125000
  endloop
endfacet
facet normal -0.000094 0.143090 0.041435
  outer loop
    vertex 0.000000 0.557424 0.204495
    vertex 1.800000 0.564690 0.183479
    vertex 0.000000 0.580443 0.125000
  endloop
endfacet
facet normal 0.000000 0.105262 0.028356
  outer loop
    vertex 0.000000 0.580443 0.125000
    vertex 1.800000 0.564690 0.183479
    vertex 3.600000 0.564690 0.183479
  endloop
endfacet
facet normal 0.000000 0.105262 0.028356
  outer loop
    vertex 0.000000 0.580443 0.125000
    vertex 3.600000 0.564690 0.183479
    vertex 5.400000 0.564690 0.183479
  endloop
endfacet
facet normal 0.000000 0.138247 0.055856
  outer loop
    vertex 5.400000 0.564690 0.183479
    vertex 3.600000 0.564690 0.183479
    vertex 5.400000 0.533659 0.260283
  endloop
endfacet
facet normal 0.000000 0.138247 0.055855
  outer loop
    vertex 5.400000 0.564690 0.183479
    vertex 5.400000 0.533659 0.260283
    vertex 7.200000 0.533659 0.260283
  endloop
endfacet
facet normal 0.000000 0.129128 0.074552
  outer loop
    vertex 7.200000 0.533659 0.260283
    vertex 5.400000 0.533659 0.260283
    vertex 7.200000 0.492241 0.332021
  endloop
endfacet
facet normal -0.000094 0.129128 0.074552
  outer loop
    vertex 7.200000 0.533659 0.260283
    vertex 7.200000 0.492241 0.332021
    vertex 9.000000 0.523574 0.280016
  endloop
endfacet
facet normal 0.000093 0.126146 0.079239
  outer loop
    vertex 9.000000 0.523574 0.280016
    vertex 7.200000 0.492241 0.332021
    vertex 9.000000 0.479553 0.350097
  endloop
endfacet
facet normal -0.000094 0.117496 0.091798
  outer loop
    vertex 9.000000 0.479553 0.350097
    vertex 7.200000 0.492241 0.332021
    vertex 7.200000 0.441242 0.397296
  endloop
endfacet
facet normal 0.000093 0.113903 0.096009
  outer loop
    vertex 9.000000 0.479553 0.350097
    vertex 7.200000 0.441242 0.397296
    vertex 9.000000 0.426214 0.413377
  endloop
endfacet
facet normal -0.000093 0.103577 0.107257
  outer loop
    vertex 9.000000 0.426214 0.413377
    vertex 7.200000 0.441242 0.397296
    vertex 7.200000 0.381655 0.454839
  endloop
endfacet
facet normal 0.000093 0.099447 0.110915
  outer loop
    vertex 9.000000 0.426214 0.413377
    vertex 7.200000 0.381655 0.454839
    vertex 9.000000 0.364595 0.468625
  endloop
endfacet
facet normal -0.000093 0.087641 0.120628
  outer loop
    vertex 9.000000 0.364595 0.468625
    vertex 7.200000 0.381655 0.454839
    vertex 7.200000 0.314640 0.503529
  endloop
endfacet
facet normal 0.000093 0.083058 0.123665
  outer loop
    vertex 9.000000 0.364595 0.468625
    vertex 7.200000 0.314640 0.503529
    vertex 9.000000 0.295892 0.514769
  endloop
endfacet
facet normal -0.000093 0.070000 0.131651
  outer loop
    vertex 9.000000 0.295892 0.514769
    vertex 7.200000 0.314640 0.503529
    vertex 7.200000 0.241500 0.542418
  endloop
endfacet
facet normal 0.000093 0.065056 0.134013
  outer loop
    vertex 9.000000 0.295892 0.514769
    vertex 7.200000 0.241500 0.542418
    vertex 9.000000 0.221441 0.550911
  endloop
endfacet
facet normal -0.000093 0.050997 0.140112
  outer loop
    vertex 9.000000 0.221441 0.550911
    vertex 7.200000 0.241500 0.542418
    vertex 7.200000 0.163660 0.570749
  endloop
endfacet
facet normal 0.000092 0.045790 0.141757
  outer loop
    vertex 9.000000 0.221441 0.550911
    vertex 7.200000 0.163660 0.570749
    vertex 9.000000 0.142687 0.576350
  endloop
endfacet
facet normal -0.000093 0.031001 0.145846
  outer loop
    vertex 9.000000 0.142687 0.576350
    vertex 7.200000 0.163660 0.570749
    vertex 7.200000 0.082634 0.587972
  endloop
endfacet
facet normal 0.000092 0.025635 0.146747
  outer loop
    vertex 9.000000 0.142687 0.576350
    vertex 7.200000 0.082634 0.587972
    vertex 9.000000 0.061161 0.590591
  endloop
endfacet
facet normal -0.000092 0.010401 0.148741
  outer loop
    vertex 9.000000 0.061161 0.590591
    vertex 7.200000 0.082634 0.587972
    vertex 7.200000 -0.000000 0.593750
  endloop
endfacet
facet normal 0.000092 0.004981 0.148885
  outer loop
    vertex 9.000000 0.061161 0.590591
    vertex 7.200000 -0.000000 0.593750
    vertex 9.000000 -0.021553 0.593359
  endloop
endfacet
facet normal -0.000092 -0.010401 0.148741
  outer loop
    vertex 9.000000 -0.021553 0.593359
    vertex 7.200000 -0.000000 0.593750
    vertex 7.200000 -0.082634 0.587972
  endloop
endfacet
facet normal 0.000092 -0.015770 0.148132
  outer loop
    vertex 9.000000 -0.021553 0.593359
    vertex 7.200000 -0.082634 0.587972
    vertex 9.000000 -0.103848 0.584598
  endloop
endfacet
facet normal -0.000092 -0.031001 0.145846
  outer loop
    vertex 9.000000 -0.103848 0.584598
    vertex 7.200000 -0.082634 0.587972
    vertex 7.200000 -0.163660 0.570749
  endloop
endfacet
facet normal 0.000092 -0.036214 0.144500
  outer loop
    vertex 9.000000 -0.103848 0.584598
    vertex 7.200000 -0.163660 0.570749
    vertex 9.000000 -0.184126 0.564479
  endloop
endfacet
facet normal -0.000092 -0.050997 0.140112
  outer loop
    vertex 9.000000 -0.184126 0.564479
    vertex 7.200000 -0.163660 0.570749
    vertex 7.200000 -0.241500 0.542418
  endloop
endfacet
facet normal 0.000091 -0.055954 0.138061
  outer loop
    vertex 9.000000 -0.184126 0.564479
    vertex 7.200000 -0.241500 0.542418
    vertex 9.000000 -0.260826 0.533394
  endloop
endfacet
facet normal -0.000092 -0.070000 0.131651
  outer loop
    vertex 9.000000 -0.260826 0.533394
    vertex 7.200000 -0.241500 0.542418
    vertex 7.200000 -0.314640 0.503529
  endloop
endfacet
facet normal 0.000091 -0.074608 0.128939
  outer loop
    vertex 9.000000 -0.260826 0.533394
    vertex 7.200000 -0.314640 0.503529
    vertex 9.000000 -0.332459 0.491945
  endloop
endfacet
facet normal -0.000091 -0.087641 0.120628
  outer loop
    vertex 9.000000 -0.332459 0.491945
    vertex 7.200000 -0.314640 0.503529
    vertex 7.200000 -0.381655 0.454839
  endloop
endfacet
facet normal 0.000091 -0.091811 0.117313
  outer loop
    vertex 9.000000 -0.332459 0.491945
    vertex 7.200000 -0.381655 0.454839
    vertex 9.000000 -0.397633 0.440939
  endloop
endfacet
facet normal -0.000091 -0.103577 0.107257
  outer loop
    vertex 9.000000 -0.397633 0.440939
    vertex 7.200000 -0.381655 0.454839
    vertex 7.200000 -0.441242 0.397296
  endloop
endfacet
facet normal 0.000091 -0.107232 0.103407
  outer loop
    vertex 9.000000 -0.397633 0.440939
    vertex 7.200000 -0.441242 0.397296
    vertex 9.000000 -0.455082 0.381366
  endloop
endfacet
facet normal -0.000091 -0.117496 0.091798
  outer loop
    vertex 9.000000 -0.455082 0.381366
    vertex 7.200000 -0.441242 0.397296
    vertex 7.200000 -0.492241 0.332021
  endloop
endfacet
facet normal 0.000091 -0.120568 0.087493
  outer loop
    vertex 9.000000 -0.455082 0.381366
    vertex 7.200000 -0.492241 0.332021
    vertex 9.000000 -0.503689 0.314383
  endloop
endfacet
facet normal -0.000091 -0.129128 0.074552
  outer loop
    vertex 9.000000 -0.503689 0.314383
    vertex 7.200000 -0.492241 0.332021
    vertex 7.200000 -0.533659 0.260283
  endloop
endfacet
facet normal 0.000090 -0.131563 0.069878
  outer loop
    vertex 9.000000 -0.503689 0.314383
    vertex 7.200000 -0.533659 0.260283
    vertex 9.000000 -0.542510 0.241293
  endloop
endfacet
facet normal -0.000090 -0.138247 0.055856
  outer loop
    vertex 9.000000 -0.542510 0.241293
    vertex 7.200000 -0.533659 0.260283
    vertex 7.200000 -0.564690 0.183479
  endloop
endfacet
facet normal 0.000090 -0.140001 0.050906
  outer loop
    vertex 9.000000 -0.542510 0.241293
    vertex 7.200000 -0.564690 0.183479
    vertex 9.000000 -0.570791 0.163514
  endloop
endfacet
facet normal -0.000090 -0.144675 0.036072
  outer loop
    vertex 9.000000 -0.570791 0.163514
    vertex 7.200000 -0.564690 0.183479
    vertex 7.200000 -0.584730 0.103104
  endloop
endfacet
facet normal 0.000090 -0.145719 0.030945
  outer loop
    vertex 9.000000 -0.570791 0.163514
    vertex 7.200000 -0.584730 0.103104
    vertex 9.000000 -0.587982 0.082559
  endloop
endfacet
facet normal -0.000090 -0.148288 0.015586
  outer loop
    vertex 9.000000 -0.587982 0.082559
    vertex 7.200000 -0.584730 0.103104
    vertex 7.200000 -0.593388 0.020722
  endloop
endfacet
facet normal 0.000090 -0.148607 0.010382
  outer loop
    vertex 9.000000 -0.587982 0.082559
    vertex 7.200000 -0.593388 0.020722
    vertex 9.000000 -0.593750 0.000000
  endloop
endfacet
facet normal -0.000090 -0.149014 -0.005204
  outer loop
    vertex 9.000000 -0.593750 0.000000
    vertex 7.200000 -0.593388 0.020722
    vertex 7.200000 -0.590497 -0.062064
  endloop
endfacet
facet normal 0.000089 -0.148607 -0.010382
  outer loop
    vertex 9.000000 -0.593750 0.000000
    vertex 7.200000 -0.590497 -0.062064
    vertex 9.000000 -0.587982 -0.082559
  endloop
endfacet
facet normal -0.000090 -0.146839 -0.025892
  outer loop
    vertex 9.000000 -0.587982 -0.082559
    vertex 7.200000 -0.590497 -0.062064
    vertex 7.200000 -0.576113 -0.143641
  endloop
endfacet
facet normal 0.000089 -0.145719 -0.030945
  outer loop
    vertex 9.000000 -0.587982 -0.082559
    vertex 7.200000 -0.576113 -0.143641
    vertex 9.000000 -0.570791 -0.163514
  endloop
endfacet
facet normal -0.000089 -0.141807 -0.046076
  outer loop
    vertex 9.000000 -0.570791 -0.163514
    vertex 7.200000 -0.576113 -0.143641
    vertex 7.200000 -0.550515 -0.222423
  endloop
endfacet
facet normal 0.000089 -0.140001 -0.050906
  outer loop
    vertex 9.000000 -0.570791 -0.163514
    vertex 7.200000 -0.550515 -0.222423
    vertex 9.000000 -0.542510 -0.241293
  endloop
endfacet
facet normal -0.000089 -0.134014 -0.065363
  outer loop
    vertex 9.000000 -0.542510 -0.241293
    vertex 7.200000 -0.550515 -0.222423
    vertex 7.200000 -0.514203 -0.296875
  endloop
endfacet
facet normal 0.000089 -0.131563 -0.069878
  outer loop
    vertex 9.000000 -0.542510 -0.241293
    vertex 7.200000 -0.514203 -0.296875
    vertex 9.000000 -0.503689 -0.314383
  endloop
endfacet
facet normal -0.000089 -0.123613 -0.083378
  outer loop
    vertex 9.000000 -0.503689 -0.314383
    vertex 7.200000 -0.514203 -0.296875
    vertex 7.200000 -0.467881 -0.365549
  endloop
endfacet
facet normal 0.000089 -0.120568 -0.087493
  outer loop
    vertex 9.000000 -0.503689 -0.314383
    vertex 7.200000 -0.467881 -0.365549
    vertex 9.000000 -0.455082 -0.381366
  endloop
endfacet
facet normal -0.000089 -0.110806 -0.099770
  outer loop
    vertex 9.000000 -0.455082 -0.381366
    vertex 7.200000 -0.467881 -0.365549
    vertex 7.200000 -0.412453 -0.427108
  endloop
endfacet
facet normal 0.000088 -0.107232 -0.103407
  outer loop
    vertex 9.000000 -0.455082 -0.381366
    vertex 7.200000 -0.412453 -0.427108
    vertex 9.000000 -0.397633 -0.440939
  endloop
endfacet
facet normal -0.000089 -0.095842 -0.114221
  outer loop
    vertex 9.000000 -0.397633 -0.440939
    vertex 7.200000 -0.412453 -0.427108
    vertex 7.200000 -0.348998 -0.480354
  endloop
endfacet
facet normal 0.000088 -0.091811 -0.117313
  outer loop
    vertex 9.000000 -0.397633 -0.440939
    vertex 7.200000 -0.348998 -0.480354
    vertex 9.000000 -0.332459 -0.491945
  endloop
endfacet
facet normal -0.000088 -0.079013 -0.126448
  outer loop
    vertex 9.000000 -0.332459 -0.491945
    vertex 7.200000 -0.348998 -0.480354
    vertex 7.200000 -0.278749 -0.524250
  endloop
endfacet
facet normal 0.000088 -0.074608 -0.128939
  outer loop
    vertex 9.000000 -0.332459 -0.491945
    vertex 7.200000 -0.278749 -0.524250
    vertex 9.000000 -0.260826 -0.533394
  endloop
endfacet
facet normal -0.000088 -0.060646 -0.136214
  outer loop
    vertex 9.000000 -0.260826 -0.533394
    vertex 7.200000 -0.278749 -0.524250
    vertex 7.200000 -0.203074 -0.557943
  endloop
endfacet
facet normal 0.000088 -0.055954 -0.138061
  outer loop
    vertex 9.000000 -0.260826 -0.533394
    vertex 7.200000 -0.203074 -0.557943
    vertex 9.000000 -0.184126 -0.564479
  endloop
endfacet
facet normal -0.000088 -0.041099 -0.143328
  outer loop
    vertex 9.000000 -0.184126 -0.564479
    vertex 7.200000 -0.203074 -0.557943
    vertex 7.200000 -0.123448 -0.580775
  endloop
endfacet
facet normal 0.000087 -0.036214 -0.144500
  outer loop
    vertex 9.000000 -0.184126 -0.564479
    vertex 7.200000 -0.123448 -0.580775
    vertex 9.000000 -0.103848 -0.584598
  endloop
endfacet
facet normal -0.000088 -0.020751 -0.147653
  outer loop
    vertex 9.000000 -0.103848 -0.584598
    vertex 7.200000 -0.123448 -0.580775
    vertex 7.200000 -0.041418 -0.592304
  endloop
endfacet
facet normal 0.000087 -0.015770 -0.148132
  outer loop
    vertex 9.000000 -0.103848 -0.584598
    vertex 7.200000 -0.041418 -0.592304
    vertex 9.000000 -0.021553 -0.593359
  endloop
endfacet
facet normal -0.000087 0.000000 -0.149104
  outer loop
    vertex 9.000000 -0.021553 -0.593359
    vertex 7.200000 -0.041418 -0.592304
    vertex 7.200000 0.041418 -0.592304
  endloop
endfacet
facet normal 0.000087 0.004981 -0.148885
  outer loop
    vertex 9.000000 -0.021553 -0.593359
    vertex 7.200000 0.041418 -0.592304
    vertex 9.000000 0.061161 -0.590591
  endloop
endfacet
facet normal -0.000087 0.020751 -0.147653
  outer loop
    vertex 9.000000 0.061161 -0.590591
    vertex 7.200000 0.041418 -0.592304
    vertex 7.200000 0.123448 -0.580775
  endloop
endfacet
facet normal 0.000087 0.025635 -0.146747
  outer loop
    vertex 9.000000 0.061161 -0.590591
    vertex 7.200000 0.123448 -0.580775
    vertex 9.000000 0.142687 -0.576350
  endloop
endfacet
facet normal -0.000087 0.041099 -0.143328
  outer loop
    vertex 9.000000 0.142687 -0.576350
    vertex 7.200000 0.123448 -0.580775
    vertex 7.200000 0.203074 -0.557943
  endloop
endfacet
facet normal 0.000087 0.045790 -0.141757
  outer loop
    vertex 9.000000 0.142687 -0.576350
    vertex 7.200000 0.203074 -0.557943
    vertex 9.000000 0.221441 -0.550911
  endloop
endfacet
facet normal -0.000087 0.060646 -0.136214
  outer loop
    vertex 9.000000 0.221441 -0.550911
    vertex 7.200000 0.203074 -0.557943
    vertex 7.200000 0.278749 -0.524250
  endloop
endfacet
facet normal 0.000086 0.065056 -0.134013
  outer loop
    vertex 9.000000 0.221441 -0.550911
    vertex 7.200000 0.278749 -0.524250
    vertex 9.000000 0.295892 -0.514769
  endloop
endfacet
facet normal -0.000086 0.079013 -0.126448
  outer loop
    vertex 9.000000 0.295892 -0.514769
    vertex 7.200000 0.278749 -0.524250
    vertex 7.200000 0.348998 -0.480354
  endloop
endfacet
facet normal 0.000086 0.083058 -0.123665
  outer loop
    vertex 9.000000 0.295892 -0.514769
    vertex 7.200000 0.348998 -0.480354
    vertex 9.000000 0.364595 -0.468625
  endloop
endfacet
facet normal -0.000086 0.095842 -0.114221
  outer loop
    vertex 9.000000 0.364595 -0.468625
    vertex 7.200000 0.348998 -0.480354
    vertex 7.200000 0.412453 -0.427108
  endloop
endfacet
facet normal 0.000086 0.099447 -0.110915
  outer loop
    vertex 9.000000 0.364595 -0.468625
    vertex 7.200000 0.412453 -0.427108
    vertex 9.000000 0.426214 -0.413377
  endloop
endfacet
facet normal -0.000086 0.110806 -0.099770
  outer loop
    vertex 9.000000 0.426214 -0.413377
    vertex 7.200000 0.412453 -0.427108
    vertex 7.200000 0.467881 -0.365549
  endloop
endfacet
facet normal 0.000086 0.113903 -0.096009
  outer loop
    vertex 9.000000 0.426214 -0.413377
    vertex 7.200000 0.467881 -0.365549
    vertex 9.000000 0.479553 -0.350097
  endloop
endfacet
facet normal -0.000086 0.123613 -0.083378
  outer loop
    vertex 9.000000 0.479553 -0.350097
    vertex 7.200000 0.467881 -0.365549
    vertex 7.200000 0.514203 -0.296875
  endloop
endfacet
facet normal 0.000085 0.126146 -0.079239
  outer loop
    vertex 9.000000 0.479553 -0.350097
    vertex 7.200000 0.514203 -0.296875
    vertex 9.000000 0.523574 -0.280016
  endloop
endfacet
facet normal -0.000086 0.134014 -0.065363
  outer loop
    vertex 9.000000 0.523574 -0.280016
    vertex 7.200000 0.514203 -0.296875
    vertex 7.200000 0.550515 -0.222423
  endloop
endfacet
facet normal 0.000085 0.135939 -0.060929
  outer loop
    vertex 9.000000 0.523574 -0.280016
    vertex 7.200000 0.550515 -0.222423
    vertex 9.000000 0.557424 -0.204495
  endloop
endfacet
facet normal -0.000085 0.141807 -0.046076
  outer loop
    vertex 9.000000 0.557424 -0.204495
    vertex 7.200000 0.550515 -0.222423
    vertex 7.200000 0.576113 -0.143641
  endloop
endfacet
facet normal 0.000085 0.143090 -0.041435
  outer loop
    vertex 9.000000 0.557424 -0.204495
    vertex 7.200000 0.576113 -0.143641
    vertex 9.000000 0.580443 -0.125000
  endloop
endfacet
facet normal 0.000000 0.033554 -0.007794
  outer loop
    vertex 9.000000 0.580443 -0.125000
    vertex 7.200000 0.576113 -0.143641
    vertex 5.400000 0.576113 -0.143641
  endloop
endfacet
facet normal 0.000000 0.033554 -0.007794
  outer loop
    vertex 9.000000 0.580443 -0.125000
    vertex 5.400000 0.576113 -0.143641
    vertex 3.600000 0.576113 -0.143641
  endloop
endfacet
facet normal 0.000000 0.141807 -0.046076
  outer loop
    vertex 3.600000 0.576113 -0.143641
    vertex 5.400000 0.576113 -0.143641
    vertex 3.600000 0.550515 -0.222423
  endloop
endfacet
facet normal 0.000000 0.141807 -0.046076
  outer loop
    vertex 3.600000 0.576113 -0.143641
    vertex 3.600000 0.550515 -0.222423
    vertex 1.800000 0.550515 -0.222423
  endloop
endfacet
facet normal 0.000000 0.134014 -0.065363
  outer loop
    vertex 1.800000 0.550515 -0.222423
    vertex 3.600000 0.550515 -0.222423
    vertex 1.800000 0.514203 -0.296875
  endloop
endfacet
facet normal 0.000086 0.134014 -0.065363
  outer loop
    vertex 1.800000 0.550515 -0.222423
    vertex 1.800000 0.514203 -0.296875
    vertex 0.000000 0.523574 -0.280016
  endloop
endfacet
facet normal -0.000085 0.126146 -0.079239
  outer loop
    vertex 0.000000 0.523574 -0.280016
    vertex 1.800000 0.514203 -0.296875
    vertex 0.000000 0.479553 -0.350097
  endloop
endfacet
facet normal 0.000086 0.123613 -0.083378
  outer loop
    vertex 0.000000 0.479553 -0.350097
    vertex 1.800000 0.514203 -0.296875
    vertex 1.800000 0.467881 -0.365549
  endloop
endfacet
facet normal -0.000086 0.113903 -0.096009
  outer loop
    vertex 0.000000 0.479553 -0.350097
    vertex 1.800000 0.467881 -0.365549
    vertex 0.000000 0.426214 -0.413377
  endloop
endfacet
facet normal 0.000086 0.110806 -0.099770
  outer loop
    vertex 0.000000 0.426214 -0.413377
    vertex 1.800000 0.467881 -0.365549
    vertex 1.800000 0.412453 -0.427108
  endloop
endfacet
facet normal -0.000086 0.099447 -0.110914
  outer loop
    vertex 0.000000 0.426214 -0.413377
    vertex 1.800000 0.412453 -0.427108
    vertex 0.000000 0.364595 -0.468625
  endloop
endfacet
facet normal 0.000086 0.095842 -0.114221
  outer loop
    vertex 0.000000 0.364595 -0.468625
    vertex 1.800000 0.412453 -0.427108
    vertex 1.800000 0.348998 -0.480354
  endloop
endfacet
facet normal -0.000086 0.083058 -0.123665
  outer loop
    vertex 0.000000 0.364595 -0.468625
    vertex 1.800000 0.348998 -0.480354
    vertex 0.000000 0.295892 -0.514769
  endloop
endfacet
facet normal 0.000086 0.079013 -0.126448
  outer loop
    vertex 0.000000 0.295892 -0.514769
    vertex 1.800000 0.348998 -0.480354
    vertex 1.800000 0.278749 -0.524250
  endloop
endfacet
facet normal -0.000086 0.065056 -0.134013
  outer loop
    vertex 0.000000 0.295892 -0.514769
    vertex 1.800000 0.278749 -0.524250
    vertex 0.000000 0.221441 -0.550911
  endloop
endfacet
facet normal 0.000087 0.060646 -0.136214
  outer loop
    vertex 0.000000 0.221441 -0.550911
    vertex 1.800000 0.278749 -0.524250
    vertex 1.800000 0.203074 -0.557943
  endloop
endfacet
facet normal -0.000087 0.045790 -0.141757
  outer loop
    vertex 0.000000 0.221441 -0.550911
    vertex 1.800000 0.203074 -0.557943
    vertex 0.000000 0.142687 -0.576350
  endloop
endfacet
facet normal 0.000087 0.041099 -0.143328
  outer loop
    vertex 0.000000 0.142687 -0.576350
    vertex 1.800000 0.203074 -0.557943
    vertex 1.800000 0.123448 -0.580775
  endloop
endfacet
facet normal -0.000087 0.025635 -0.146747
  outer loop
    vertex 0.000000 0.142687 -0.576350
    vertex 1.800000 0.123448 -0.580775
    vertex 0.000000 0.061161 -0.590591
  endloop
endfacet
facet normal 0.000087 0.020751 -0.147653
  outer loop
    vertex 0.000000 0.061161 -0.590591
    vertex 1.800000 0.123448 -0.580775
    vertex 1.800000 0.041418 -0.592304
  endloop
endfacet
facet normal -0.000087 0.004981 -0.148885
  outer loop
    vertex 0.000000 0.061161 -0.590591
    vertex 1.800000 0.041418 -0.592304
    vertex 0.000000 -0.021553 -0.593359
  endloop
endfacet
facet normal 0.000087 0.000000 -0.149104
  outer loop
    vertex 0.000000 -0.021553 -0.593359
    vertex 1.800000 0.041418 -0.592304
    vertex 1.800000 -0.041418 -0.592304
  endloop
endfacet
facet normal -0.000087 -0.015770 -0.148132
  outer loop
    vertex 0.000000 -0.021553 -0.593359
    vertex 1.800000 -0.041418 -0.592304
    vertex 0.000000 -0.103848 -0.584598
  endloop
endfacet
facet normal 0.000088 -0.020751 -0.147653
  outer loop
    vertex 0.000000 -0.103848 -0.584598
    vertex 1.800000 -0.041418 -0.592304
    vertex 1.800000 -0.123448 -0.580775
  endloop
endfacet
facet normal -0.000087 -0.036214 -0.144500
  outer loop
    vertex 0.000000 -0.103848 -0.584598
    vertex 1.800000 -0.123448 -0.580775
    vertex 0.000000 -0.184126 -0.564479
  endloop
endfacet
facet normal 0.000088 -0.041099 -0.143328
  outer loop
    vertex 0.000000 -0.184126 -0.564479
    vertex 1.800000 -0.123448 -0.580775
    vertex 1.800000 -0.203074 -0.557943
  endloop
endfacet
facet normal -0.000088 -0.055954 -0.138061
  outer loop
    vertex 0.000000 -0.184126 -0.564479
    vertex 1.800000 -0.203074 -0.557943
    vertex 0.000000 -0.260826 -0.533394
  endloop
endfacet
facet normal 0.000088 -0.060646 -0.136214
  outer loop
    vertex 0.000000 -0.260826 -0.533394
    vertex 1.800000 -0.203074 -0.557943
    vertex 1.800000 -0.278749 -0.524250
  endloop
endfacet
facet normal -0.000088 -0.074608 -0.128939
  outer loop
    vertex 0.000000 -0.260826 -0.533394
    vertex 1.800000 -0.278749 -0.524250
    vertex 0.000000 -0.332459 -0.491945
  endloop
endfacet
facet normal 0.000088 -0.079013 -0.126448
  outer loop
    vertex 0.000000 -0.332459 -0.491945
    vertex 1.800000 -0.278749 -0.524250
    vertex 1.800000 -0.348998 -0.480354
  endloop
endfacet
facet normal -0.000088 -0.091811 -0.117313
  outer loop
    vertex 0.000000 -0.332459 -0.491945
    vertex 1.800000 -0.348998 -0.480354
    vertex 0.000000 -0.397633 -0.440939
  endloop
endfacet
facet normal 0.000089 -0.095842 -0.114221
  outer loop
    vertex 0.000000 -0.397633 -0.440939
    vertex 1.800000 -0.348998 -0.480354
    vertex 1.800000 -0.412453 -0.427108
  endloop
endfacet
facet normal -0.000088 -0.107232 -0.103407
  outer loop
    vertex 0.000000 -0.397633 -0.440939
    vertex 1.800000 -0.412453 -0.427108
    vertex 0.000000 -0.455082 -0.381366
  endloop
endfacet
facet normal 0.000089 -0.110806 -0.099770
  outer loop
    vertex 0.000000 -0.455082 -0.381366
    vertex 1.800000 -0.412453 -0.427108
    vertex 1.800000 -0.467881 -0.365549
  endloop
endfacet
facet normal -0.000089 -0.120568 -0.087493
  outer loop
    vertex 0.000000 -0.455082 -0.381366
    vertex 1.800000 -0.467881 -0.365549
    vertex 0.000000 -0.503689 -0.314383
  endloop
endfacet
facet normal 0.000089 -0.123613 -0.083378
  outer loop
    vertex 0.000000 -0.503689 -0.314383
    vertex 1.800000 -0.467881 -0.365549
    vertex 1.800000 -0.514203 -0.296875
  endloop
endfacet
facet normal -0.000089 -0.131563 -0.069878
  outer loop
    vertex 0.000000 -0.503689 -0.314383
    vertex 1.800000 -0.514203 -0.296875
    vertex 0.000000 -0.542510 -0.241293
  endloop
endfacet
facet normal 0.000089 -0.134014 -0.065363
  outer loop
    vertex 0.000000 -0.542510 -0.241293
    vertex 1.800000 -0.514203 -0.296875
    vertex 1.800000 -0.550515 -0.222423
  endloop
endfacet
facet normal -0.000089 -0.140001 -0.050906
  outer loop
    vertex 0.000000 -0.542510 -0.241293
    vertex 1.800000 -0.550515 -0.222423
    vertex 0.000000 -0.570791 -0.163514
  endloop
endfacet
facet normal 0.000089 -0.141807 -0.046076
  outer loop
    vertex 0.000000 -0.570791 -0.163514
    vertex 1.800000 -0.550515 -0.222423
    vertex 1.800000 -0.576113 -0.143641
  endloop
endfacet
facet normal -0.000089 -0.145719 -0.030945
  outer loop
    vertex 0.000000 -0.570791 -0.163514
    vertex 1.800000 -0.576113 -0.143641
    vertex 0.000000 -0.587982 -0.082559
  endloop
endfacet
facet normal 0.000090 -0.146839 -0.025892
  outer loop
    vertex 0.000000 -0.587982 -0.082559
    vertex 1.800000 -0.576113 -0.143641
    vertex 1.800000 -0.590497 -0.062064
  endloop
endfacet
facet normal -0.000089 -0.148606 -0.010382
  outer loop
    vertex 0.000000 -0.587982 -0.082559
    vertex 1.800000 -0.590497 -0.062064
    vertex 0.000000 -0.593750 0.000000
  endloop
endfacet
facet normal 0.000090 -0.149014 -0.005204
  outer loop
    vertex 0.000000 -0.593750 0.000000
    vertex 1.800000 -0.590497 -0.062064
    vertex 1.800000 -0.593388 0.020722
  endloop
endfacet
facet normal -0.000090 -0.148606 0.010382
  outer loop
    vertex 0.000000 -0.593750 0.000000
    vertex 1.800000 -0.593388 0.020722
    vertex 0.000000 -0.587982 0.082559
  endloop
endfacet
facet normal 0.000090 -0.148288 0.015586
  outer loop
    vertex 0.000000 -0.587982 0.082559
    vertex 1.800000 -0.593388 0.020722
    vertex 1.800000 -0.584730 0.103104
  endloop
endfacet
facet normal -0.000090 -0.145719 0.030945
  outer loop
    vertex 0.000000 -0.587982 0.082559
    vertex 1.800000 -0.584730 0.103104
    vertex 0.000000 -0.570791 0.163514
  endloop
endfacet
facet normal 0.000090 -0.144675 0.036072
  outer loop
    vertex 0.000000 -0.570791 0.163514
    vertex 1.800000 -0.584730 0.103104
    vertex 1.800000 -0.564690 0.183479
  endloop
endfacet
facet normal -0.000090 -0.140001 0.050906
  outer loop
    vertex 0.000000 -0.570791 0.163514
    vertex 1.800000 -0.564690 0.183479
    vertex 0.000000 -0.542510 0.241293
  endloop
endfacet
facet normal 0.000090 -0.138247 0.055855
  outer loop
    vertex 0.000000 -0.542510 0.241293
    vertex 1.800000 -0.564690 0.183479
    vertex 1.800000 -0.533659 0.260283
  endloop
endfacet
facet normal -0.000090 -0.131563 0.069878
  outer loop
    vertex 0.000000 -0.542510 0.241293
    vertex 1.800000 -0.533659 0.260283
    vertex 0.000000 -0.503689 0.314383
  endloop
endfacet
facet normal 0.000091 -0.129128 0.074552
  outer loop
    vertex 0.000000 -0.503689 0.314383
    vertex 1.800000 -0.533659 0.260283
    vertex 1.800000 -0.492241 0.332021
  endloop
endfacet
facet normal -0.000091 -0.120568 0.087493
  outer loop
    vertex 0.000000 -0.503689 0.314383
    vertex 1.800000 -0.492241 0.332021
    vertex 0.000000 -0.455082 0.381366
  endloop
endfacet
facet normal 0.000091 -0.117496 0.091798
  outer loop
    vertex 0.000000 -0.455082 0.381366
    vertex 1.800000 -0.492241 0.332021
    vertex 1.800000 -0.441242 0.397296
  endloop
endfacet
facet normal -0.000091 -0.107232 0.103407
  outer loop
    vertex 0.000000 -0.455082 0.381366
    vertex 1.800000 -0.441242 0.397296
    vertex 0.000000 -0.397633 0.440939
  endloop
endfacet
facet normal 0.000091 -0.103577 0.107257
  outer loop
    vertex 0.000000 -0.397633 0.440939
    vertex 1.800000 -0.441242 0.397296
    vertex 1.800000 -0.381655 0.454839
  endloop
endfacet
facet normal -0.000091 -0.091811 0.117313
  outer loop
    vertex 0.000000 -0.397633 0.440939
    vertex 1.800000 -0.381655 0.454839
    vertex 0.000000 -0.332459 0.491945
  endloop
endfacet
facet normal 0.000091 -0.087641 0.120628
  outer loop
    vertex 0.000000 -0.332459 0.491945
    vertex 1.800000 -0.381655 0.454839
    vertex 1.800000 -0.314640 0.503529
  endloop
endfacet
facet normal -0.000091 -0.074608 0.128939
  outer loop
    vertex 0.000000 -0.332459 0.491945
    vertex 1.800000 -0.314640 0.503529
    vertex 0.000000 -0.260826 0.533394
  endloop
endfacet
facet normal 0.000092 -0.070000 0.131651
  outer loop
    vertex 0.000000 -0.260826 0.533394
    vertex 1.800000 -0.314640 0.503529
    vertex 1.800000 -0.241500 0.542418
  endloop
endfacet
facet normal -0.000091 -0.055954 0.138061
  outer loop
    vertex 0.000000 -0.260826 0.533394
    vertex 1.800000 -0.241500 0.542418
    vertex 0.000000 -0.184126 0.564479
  endloop
endfacet
facet normal 0.000092 -0.050997 0.140112
  outer loop
    vertex 0.000000 -0.184126 0.564479
    vertex 1.800000 -0.241500 0.542418
    vertex 1.800000 -0.163660 0.570749
  endloop
endfacet
facet normal -0.000092 -0.036214 0.144500
  outer loop
    vertex 0.000000 -0.184126 0.564479
    vertex 1.800000 -0.163660 0.570749
    vertex 0.000000 -0.103848 0.584598
  endloop
endfacet
facet normal 0.000092 -0.031001 0.145846
  outer loop
    vertex 0.000000 -0.103848 0.584598
    vertex 1.800000 -0.163660 0.570749
    vertex 1.800000 -0.082634 0.587972
  endloop
endfacet
facet normal -0.000092 -0.015770 0.148132
  outer loop
    vertex 0.000000 -0.103848 0.584598
    vertex 1.800000 -0.082634 0.587972
    vertex 0.000000 -0.021553 0.593359
  endloop
endfacet
facet normal 0.000092 -0.010401 0.148741
  outer loop
    vertex 0.000000 -0.021553 0.593359
    vertex 1.800000 -0.082634 0.587972
    vertex 1.800000 0.000000 0.593750
  endloop
endfacet
facet normal -0.000092 0.004981 0.148885
  outer loop
    vertex 0.000000 -0.021553 0.593359
    vertex 1.800000 0.000000 0.593750
    vertex 0.000000 0.061161 0.590591
  endloop
endfacet
facet normal 0.000092 0.010401 0.148741
  outer loop
    vertex 0.000000 0.061161 0.590591
    vertex 1.800000 0.000000 0.593750
    vertex 1.800000 0.082634 0.587972
  endloop
endfacet
facet normal -0.000092 0.025635 0.146747
  outer loop
    vertex 0.000000 0.061161 0.590591
    vertex 1.800000 0.082634 0.587972
    vertex 0.000000 0.142687 0.576350
  endloop
endfacet
facet normal 0.000093 0.031001 0.145846
  outer loop
    vertex 0.000000 0.142687 0.576350
    vertex 1.800000 0.082634 0.587972
    vertex 1.800000 0.163660 0.570749
  endloop
endfacet
facet normal -0.000092 0.045790 0.141757
  outer loop
    vertex 0.000000 0.142687 0.576350
    vertex 1.800000 0.163660 0.570749
    vertex 0.000000 0.221441 0.550911
  endloop
endfacet
facet normal 0.000093 0.050997 0.140112
  outer loop
    vertex 0.000000 0.221441 0.550911
    vertex 1.800000 0.163660 0.570749
    vertex 1.800000 0.241500 0.542418
  endloop
endfacet
facet normal -0.000093 0.065056 0.134013
  outer loop
    vertex 0.000000 0.221441 0.550911
    vertex 1.800000 0.241500 0.542418
    vertex 0.000000 0.295892 0.514769
  endloop
endfacet
facet normal 0.000093 0.070000 0.131651
  outer loop
    vertex 0.000000 0.295892 0.514769
    vertex 1.800000 0.241500 0.542418
    vertex 1.800000 0.314640 0.503529
  endloop
endfacet
facet normal -0.000093 0.083058 0.123665
  outer loop
    vertex 0.000000 0.295892 0.514769
    vertex 1.800000 0.314640 0.503529
    vertex 0.000000 0.364595 0.468625
  endloop
endfacet
facet normal 0.000093 0.087641 0.120628
  outer loop
    vertex 0.000000 0.364595 0.468625
    vertex 1.800000 0.314640 0.503529
    vertex 1.800000 0.381655 0.454839
  endloop
endfacet
facet normal -0.000093 0.099447 0.110914
  outer loop
    vertex 0.000000 0.364595 0.468625
    vertex 1.800000 0.381655 0.454839
    vertex 0.000000 0.426214 0.413377
  endloop
endfacet
facet normal 0.000093 0.103577 0.107257
  outer loop
    vertex 0.000000 0.426214 0.413377
    vertex 1.800000 0.381655 0.454839
    vertex 1.800000 0.441242 0.397296
  endloop
endfacet
facet normal -0.000093 0.113903 0.096009
  outer loop
    vertex 0.000000 0.426214 0.413377
    vertex 1.800000 0.441242 0.397296
    vertex 0.000000 0.479553 0.350097
  endloop
endfacet
facet normal 0.000094 0.117496 0.091798
  outer loop
    vertex 0.000000 0.479553 0.350097
    vertex 1.800000 0.441242 0.397296
    vertex 1.800000 0.492241 0.332021
  endloop
endfacet
facet normal -0.000093 0.126146 0.079239
  outer loop
    vertex 0.000000 0.479553 0.350097
    vertex 1.800000 0.492241 0.332021
    vertex 0.000000 0.523574 0.280016
  endloop
endfacet
facet normal 0.000094 0.129128 0.074552
  outer loop
    vertex 0.000000 0.523574 0.280016
    vertex 1.800000 0.492241 0.332021
    vertex 1.800000 0.533659 0.260283
  endloop
endfacet
facet normal -0.000094 0.135939 0.060929
  outer loop
    vertex 0.000000 0.523574 0.280016
    vertex 1.800000 0.533659 0.260283
    vertex 0.000000 0.557424 0.204495
  endloop
endfacet
facet normal 0.000094 0.138247 0.055855
  outer loop
    vertex 0.000000 0.557424 0.204495
    vertex 1.800000 0.533659 0.260283
    vertex 1.800000 0.564690 0.183479
  endloop
endfacet
facet normal -0.000085 0.135939 -0.060929
  outer loop
    vertex 0.000000 0.523574 -0.280016
    vertex 0.000000 0.557424 -0.204495
    vertex 1.800000 0.550515 -0.222423
  endloop
endfacet
facet normal 0.000085 0.141807 -0.046076
  outer loop
    vertex 1.800000 0.550515 -0.222423
    vertex 0.000000 0.557424 -0.204495
    vertex 1.800000 0.576113 -0.143641
  endloop
endfacet
facet normal 0.000000 0.141807 -0.046076
  outer loop
    vertex 1.800000 0.550515 -0.222423
    vertex 1.800000 0.576113 -0.143641
    vertex 3.600000 0.576113 -0.143641
  endloop
endfacet
facet normal 0.000000 0.033554 -0.007794
  outer loop
    vertex 3.600000 0.576113 -0.143641
    vertex 1.800000 0.576113 -0.143641
    vertex 0.000000 0.580443 -0.125000
  endloop
endfacet
facet normal 0.000000 0.167770 -0.038969
  outer loop
    vertex 3.600000 0.576113 -0.143641
    vertex 0.000000 0.580443 -0.125000
    vertex 9.000000 0.580443 -0.125000
  endloop
endfacet
facet normal -0.000085 0.143090 -0.041435
  outer loop
    vertex 0.000000 0.557424 -0.204495
    vertex 0.000000 0.580443 -0.125000
    vertex 1.800000 0.576113 -0.143641
  endloop
endfacet
facet normal 0.000094 0.135939 0.060929
  outer loop
    vertex 9.000000 0.523574 0.280016
    vertex 9.000000 0.557424 0.204495
    vertex 7.200000 0.533659 0.260283
  endloop
endfacet
facet normal -0.000094 0.138247 0.055856
  outer loop
    vertex 7.200000 0.533659 0.260283
    vertex 9.000000 0.557424 0.204495
    vertex 7.200000 0.564690 0.183479
  endloop
endfacet
facet normal 0.000000 0.138247 0.055855
  outer loop
    vertex 7.200000 0.533659 0.260283
    vertex 7.200000 0.564690 0.183479
    vertex 5.400000 0.564690 0.183479
  endloop
endfacet
facet normal -0.000000 0.105262 0.028356
  outer loop
    vertex 5.400000 0.564690 0.183479
    vertex 7.200000 0.564690 0.183479
    vertex 9.000000 0.580443 0.125000
  endloop
endfacet
facet normal 0.000000 0.526310 0.141778
  outer loop
    vertex 5.400000 0.564690 0.183479
    vertex 9.000000 0.580443 0.125000
    vertex 0.000000 0.580443 0.125000
  endloop
endfacet
facet normal 0.000094 0.143090 0.041435
  outer loop
    vertex 9.000000 0.557424 0.204495
    vertex 9.000000 0.580443 0.125000
    vertex 7.200000 0.564690 0.183479
  endloop
endfacet
facet normal -0.000000 0.010401 0.148741
  outer loop
    vertex 1.800000 0.000000 0.593750
    vertex 3.600000 0.000000 0.593750
    vertex 1.800000 0.082634 0.587972
  endloop
endfacet
facet normal -0.000000 0.010401 0.148741
  outer loop
    vertex 1.800000 0.082634 0.587972
    vertex 3.600000 0.000000 0.593750
    vertex 3.600000 0.082634 0.587972
  endloop
endfacet
facet normal -0.000000 0.031001 0.145846
  outer loop
    vertex 1.800000 0.082634 0.587972
    vertex 3.600000 0.082634 0.587972
    vertex 1.800000 0.163660 0.570749
  endloop
endfacet
facet normal -0.000000 0.031001 0.145846
  outer loop
    vertex 1.800000 0.163660 0.570749
    vertex 3.600000 0.082634 0.587972
    vertex 3.600000 0.163660 0.570749
  endloop
endfacet
facet normal -0.000000 0.050997 0.140112
  outer loop
    vertex 1.800000 0.163660 0.570749
    vertex 3.600000 0.163660 0.570749
    vertex 1.800000 0.241500 0.542418
  endloop
endfacet
facet normal -0.000000 0.050997 0.140112
  outer loop
    vertex 1.800000 0.241500 0.542418
    vertex 3.600000 0.163660 0.570749
    vertex 3.600000 0.241500 0.542418
  endloop
endfacet
facet normal -0.000000 0.070000 0.131651
  outer loop
    vertex 1.800000 0.241500 0.542418
    vertex 3.600000 0.241500 0.542418
    vertex 1.800000 0.314640 0.503529
  endloop
endfacet
facet normal -0.000000 0.070000 0.131651
  outer loop
    vertex 1.800000 0.314640 0.503529
    vertex 3.600000 0.241500 0.542418
    vertex 3.600000 0.314640 0.503529
  endloop
endfacet
facet normal -0.000000 0.087641 0.120628
  outer loop
    vertex 1.800000 0.314640 0.503529
    vertex 3.600000 0.314640 0.503529
    vertex 1.800000 0.381655 0.454839
  endloop
endfacet
facet normal -0.000000 0.087641 0.120628
  outer loop
    vertex 1.800000 0.381655 0.454839
    vertex 3.600000 0.314640 0.503529
    vertex 3.600000 0.381655 0.454839
  endloop
endfacet
facet normal -0.000000 0.103577 0.107257
  outer loop
    vertex 1.800000 0.381655 0.454839
    vertex 3.600000 0.381655 0.454839
    vertex 1.800000 0.441242 0.397296
  endloop
endfacet
facet normal -0.000000 0.103577 0.107257
  outer loop
    vertex 1.800000 0.441242 0.397296
    vertex 3.600000 0.381655 0.454839
    vertex 3.600000 0.441242 0.397296
  endloop
endfacet
facet normal -0.000000 0.117496 0.091798
  outer loop
    vertex 1.800000 0.441242 0.397296
    vertex 3.600000 0.441242 0.397296
    vertex 1.800000 0.492241 0.332021
  endloop
endfacet
facet normal -0.000000 0.117496 0.091798
  outer loop
    vertex 1.800000 0.492241 0.332021
    vertex 3.600000 0.441242 0.397296
    vertex 3.600000 0.492241 0.332021
  endloop
endfacet
facet normal -0.000000 0.129128 0.074552
  outer loop
    vertex 1.800000 0.492241 0.332021
    vertex 3.600000 0.492241 0.332021
    vertex 1.800000 0.533659 0.260283
  endloop
endfacet
facet normal -0.000000 0.129128 0.074552
  outer loop
    vertex 1.800000 0.533659 0.260283
    vertex 3.600000 0.492241 0.332021
    vertex 3.600000 0.533659 0.260283
  endloop
endfacet
facet normal -0.000000 0.138247 0.055855
  outer loop
    vertex 1.800000 0.533659 0.260283
    vertex 3.600000 0.533659 0.260283
    vertex 1.800000 0.564690 0.183479
  endloop
endfacet
facet normal -0.000000 0.138247 0.055855
  outer loop
    vertex 1.800000 0.564690 0.183479
    vertex 3.600000 0.533659 0.260283
    vertex 3.600000 0.564690 0.183479
  endloop
endfacet
facet normal -0.000000 0.010401 0.148741
  outer loop
    vertex 3.600000 0.000000 0.593750
    vertex 5.400000 0.000000 0.593750
    vertex 3.600000 0.082634 0.587972
  endloop
endfacet
facet normal -0.000000 0.010401 0.148741
  outer loop
    vertex 3.600000 0.082634 0.587972
    vertex 5.400000 0.000000 0.593750
    vertex 5.400000 0.082634 0.587972
  endloop
endfacet
facet normal -0.000000 0.031001 0.145846
  outer loop
    vertex 3.600000 0.082634 0.587972
    vertex 5.400000 0.082634 0.587972
    vertex 3.600000 0.163660 0.570749
  endloop
endfacet
facet normal -0.000000 0.031001 0.145846
  outer loop
    vertex 3.600000 0.163660 0.570749
    vertex 5.400000 0.082634 0.587972
    vertex 5.400000 0.163660 0.570749
  endloop
endfacet
facet normal -0.000000 0.050997 0.140112
  outer loop
    vertex 3.600000 0.163660 0.570749
    vertex 5.400000 0.163660 0.570749
    vertex 3.600000 0.241500 0.542418
  endloop
endfacet
facet normal -0.000000 0.050997 0.140112
  outer loop
    vertex 3.600000 0.241500 0.542418
    vertex 5.400000 0.163660 0.570749
    vertex 5.400000 0.241500 0.542418
  endloop
endfacet
facet normal -0.000000 0.070000 0.131651
  outer loop
    vertex 3.600000 0.241500 0.542418
    vertex 5.400000 0.241500 0.542418
    vertex 3.600000 0.314640 0.503529
  endloop
endfacet
facet normal -0.000000 0.070000 0.131651
  outer loop
    vertex 3.600000 0.314640 0.503529
    vertex 5.400000 0.241500 0.542418
    vertex 5.400000 0.314640 0.503529
  endloop
endfacet
facet normal -0.000000 0.087641 0.120628
  outer loop
    vertex 3.600000 0.314640 0.503529
    vertex 5.400000 0.314640 0.503529
    vertex 3.600000 0.381655 0.454839
  endloop
endfacet
facet normal -0.000000 0.087641 0.120628
  outer loop
    vertex 3.600000 0.381655 0.454839
    vertex 5.400000 0.314640 0.503529
    vertex 5.400000 0.381655 0.454839
  endloop
endfacet
facet normal -0.000000 0.103577 0.107257
  outer loop
    vertex 3.600000 0.381655 0.454839
    vertex 5.400000 0.381655 0.454839
    vertex 3.600000 0.441242 0.397296
  endloop
endfacet
facet normal -0.000000 0.103577 0.107257
  outer loop
    vertex 3.600000 0.441242 0.397296
    vertex 5.400000 0.381655 0.454839
    vertex 5.400000 0.441242 0.397296
  endloop
endfacet
facet normal -0.000000 0.117496 0.091798
  outer loop
    vertex 3.600000 0.441242 0.397296
    vertex 5.400000 0.441242 0.397296
    vertex 3.600000 0.492241 0.332021
  endloop
endfacet
facet normal -0.000000 0.117496 0.091798
  outer loop
    vertex 3.600000 0.492241 0.332021
    vertex 5.400000 0.441242 0.397296
    vertex 5.400000 0.492241 0.332021
  endloop
endfacet
facet normal -0.000000 0.129128 0.074552
  outer loop
    vertex 3.600000 0.492241 0.332021
    vertex 5.400000 0.492241 0.332021
    vertex 3.600000 0.533659 0.260283
  endloop
endfacet
facet normal -0.000000 0.129128 0.074552
  outer loop
    vertex 3.600000 0.533659 0.260283
    vertex 5.400000 0.492241 0.332021
    vertex 5.400000 0.533659 0.260283
  endloop
endfacet
facet normal -0.000000 0.138247 0.055856
  outer loop
    vertex 3.600000 0.533659 0.260283
    vertex 5.400000 0.533659 0.260283
    vertex 3.600000 0.564690 0.183479
  endloop
endfacet
facet normal 0.000000 -0.010401 0.148741
  outer loop
    vertex 3.600000 0.000000 0.593750
    vertex 1.800000 0.000000 0.593750
    vertex 3.600000 -0.082634 0.587972
  endloop
endfacet
facet normal 0.000000 -0.010401 0.148741
  outer loop
    vertex 3.600000 -0.082634 0.587972
    vertex 1.800000 0.000000 0.593750
    vertex 1.800000 -0.082634 0.587972
  endloop
endfacet
facet normal 0.000000 -0.031001 0.145846
  outer loop
    vertex 3.600000 -0.082634 0.587972
    vertex 1.800000 -0.082634 0.587972
    vertex 3.600000 -0.163660 0.570749
  endloop
endfacet
facet normal 0.000000 -0.031001 0.145846
  outer loop
    vertex 3.600000 -0.163660 0.570749
    vertex 1.800000 -0.082634 0.587972
    vertex 1.800000 -0.163660 0.570749
  endloop
endfacet
facet normal 0.000000 -0.050997 0.140112
  outer loop
    vertex 3.600000 -0.163660 0.570749
    vertex 1.800000 -0.163660 0.570749
    vertex 3.600000 -0.241500 0.542418
  endloop
endfacet
facet normal 0.000000 -0.050997 0.140112
  outer loop
    vertex 3.600000 -0.241500 0.542418
    vertex 1.800000 -0.163660 0.570749
    vertex 1.800000 -0.241500 0.542418
  endloop
endfacet
facet normal 0.000000 -0.070000 0.131651
  outer loop
    vertex 3.600000 -0.241500 0.542418
    vertex 1.800000 -0.241500 0.542418
    vertex 3.600000 -0.314640 0.503529
  endloop
endfacet
facet normal 0.000000 -0.070000 0.131651
  outer loop
    vertex 3.600000 -0.314640 0.503529
    vertex 1.800000 -0.241500 0.542418
    vertex 1.800000 -0.314640 0.503529
  endloop
endfacet
facet normal 0.000000 -0.087641 0.120628
  outer loop
    vertex 3.600000 -0.314640 0.503529
    vertex 1.800000 -0.314640 0.503529
    vertex 3.600000 -0.381655 0.454839
  endloop
endfacet
facet normal 0.000000 -0.087641 0.120628
  outer loop
    vertex 3.600000 -0.381655 0.454839
    vertex 1.800000 -0.314640 0.503529
    vertex 1.800000 -0.381655 0.454839
  endloop
endfacet
facet normal 0.000000 -0.103577 0.107257
  outer loop
    vertex 3.600000 -0.381655 0.454839
    vertex 1.800000 -0.381655 0.454839
    vertex 3.600000 -0.441242 0.397296
  endloop
endfacet
facet normal 0.000000 -0.103577 0.107257
  outer loop
    vertex 3.600000 -0.441242 0.397296
    vertex 1.800000 -0.381655 0.454839
    vertex 1.800000 -0.441242 0.397296
  endloop
endfacet
facet normal 0.000000 -0.117496 0.091798
  outer loop
    vertex 3.600000 -0.441242 0.397296
    vertex 1.800000 -0.441242 0.397296
    vertex 3.600000 -0.492241 0.332021
  endloop
endfacet
facet normal 0.000000 -0.117496 0.091798
  outer loop
    vertex 3.600000 -0.492241 0.332021
    vertex 1.800000 -0.441242 0.397296
    vertex 1.800000 -0.492241 0.332021
  endloop
endfacet
facet normal 0.000000 -0.129128 0.074552
  outer loop
    vertex 3.600000 -0.492241 0.332021
    vertex 1.800000 -0.492241 0.332021
    vertex 3.600000 -0.533659 0.260283
  endloop
endfacet
facet normal 0.000000 -0.129128 0.074552
  outer loop
    vertex 3.600000 -0.533659 0.260283
    vertex 1.800000 -0.492241 0.332021
    vertex 1.800000 -0.533659 0.260283
  endloop
endfacet
facet normal 0.000000 -0.138247 0.055855
  outer loop
    vertex 3.600000 -0.533659 0.260283
    vertex 1.800000 -0.533659 0.260283
    vertex 3.600000 -0.564690 0.183479
  endloop
endfacet
facet normal 0.000000 -0.138247 0.055855
  outer loop
    vertex 3.600000 -0.564690 0.183479
    vertex 1.800000 -0.533659 0.260283
    vertex 1.800000 -0.564690 0.183479
  endloop
endfacet
facet normal 0.000000 -0.144675 0.036072
  outer loop
    vertex 3.600000 -0.564690 0.183479
    vertex 1.800000 -0.564690 0.183479
    vertex 3.600000 -0.584730 0.103104
  endloop
endfacet
facet normal 0.000000 -0.144675 0.036072
  outer loop
    vertex 3.600000 -0.584730 0.103104
    vertex 1.800000 -0.564690 0.183479
    vertex 1.800000 -0.584730 0.103104
  endloop
endfacet
facet normal 0.000000 -0.148288 0.015586
  outer loop
    vertex 3.600000 -0.584730 0.103104
    vertex 1.800000 -0.584730 0.103104
    vertex 3.600000 -0.593388 0.020722
  endloop
endfacet
facet normal 0.000000 -0.148288 0.015586
  outer loop
    vertex 3.600000 -0.593388 0.020722
    vertex 1.800000 -0.584730 0.103104
    vertex 1.800000 -0.593388 0.020722
  endloop
endfacet
facet normal -0.000000 -0.149014 -0.005204
  outer loop
    vertex 3.600000 -0.593388 0.020722
    vertex 1.800000 -0.593388 0.020722
    vertex 3.600000 -0.590497 -0.062064
  endloop
endfacet
facet normal -0.000000 -0.149014 -0.005204
  outer loop
    vertex 3.600000 -0.590497 -0.062064
    vertex 1.800000 -0.593388 0.020722
    vertex 1.800000 -0.590497 -0.062064
  endloop
endfacet
facet normal -0.000000 -0.146839 -0.025892
  outer loop
    vertex 3.600000 -0.590497 -0.062064
    vertex 1.800000 -0.590497 -0.062064
    vertex 3.600000 -0.576113 -0.143641
  endloop
endfacet
facet normal -0.000000 -0.146839 -0.025892
  outer loop
    vertex 3.600000 -0.576113 -0.143641
    vertex 1.800000 -0.590497 -0.062064
    vertex 1.800000 -0.576113 -0.143641
  endloop
endfacet
facet normal -0.000000 -0.141807 -0.046076
  outer loop
    vertex 3.600000 -0.576113 -0.143641
    vertex 1.800000 -0.576113 -0.143641
    vertex 3.600000 -0.550515 -0.222423
  endloop
endfacet
facet normal -0.000000 -0.141807 -0.046076
  outer loop
    vertex 3.600000 -0.550515 -0.222423
    vertex 1.800000 -0.576113 -0.143641
    vertex 1.800000 -0.550515 -0.222423
  endloop
endfacet
facet normal -0.000000 -0.134014 -0.065363
  outer loop
    vertex 3.600000 -0.550515 -0.222423
    vertex 1.800000 -0.550515 -0.222423
    vertex 3.600000 -0.514203 -0.296875
  endloop
endfacet
facet normal -0.000000 -0.134014 -0.065363
  outer loop
    vertex 3.600000 -0.514203 -0.296875
    vertex 1.800000 -0.550515 -0.222423
    vertex 1.800000 -0.514203 -0.296875
  endloop
endfacet
facet normal -0.000000 -0.123613 -0.083378
  outer loop
    vertex 3.600000 -0.514203 -0.296875
    vertex 1.800000 -0.514203 -0.296875
    vertex 3.600000 -0.467881 -0.365549
  endloop
endfacet
facet normal -0.000000 -0.123613 -0.083378
  outer loop
    vertex 3.600000 -0.467881 -0.365549
    vertex 1.800000 -0.514203 -0.296875
    vertex 1.800000 -0.467881 -0.365549
  endloop
endfacet
facet normal -0.000000 -0.110806 -0.099770
  outer loop
    vertex 3.600000 -0.467881 -0.365549
    vertex 1.800000 -0.467881 -0.365549
    vertex 3.600000 -0.412453 -0.427108
  endloop
endfacet
facet normal -0.000000 -0.110806 -0.099770
  outer loop
    vertex 3.600000 -0.412453 -0.427108
    vertex 1.800000 -0.467881 -0.365549
    vertex 1.800000 -0.412453 -0.427108
  endloop
endfacet
facet normal -0.000000 -0.095842 -0.114221
  outer loop
    vertex 3.600000 -0.412453 -0.427108
    vertex 1.800000 -0.412453 -0.427108
    vertex 3.600000 -0.348998 -0.480354
  endloop
endfacet
facet normal -0.000000 -0.095842 -0.114221
  outer loop
    vertex 3.600000 -0.348998 -0.480354
    vertex 1.800000 -0.412453 -0.427108
    vertex 1.800000 -0.348998 -0.480354
  endloop
endfacet
facet normal -0.000000 -0.079013 -0.126448
  outer loop
    vertex 3.600000 -0.348998 -0.480354
    vertex 1.800000 -0.348998 -0.480354
    vertex 3.600000 -0.278749 -0.524250
  endloop
endfacet
facet normal -0.000000 -0.079013 -0.126448
  outer loop
    vertex 3.600000 -0.278749 -0.524250
    vertex 1.800000 -0.348998 -0.480354
    vertex 1.800000 -0.278749 -0.524250
  endloop
endfacet
facet normal -0.000000 -0.060646 -0.136214
  outer loop
    vertex 3.600000 -0.278749 -0.524250
    vertex 1.800000 -0.278749 -0.524250
    vertex 3.600000 -0.203074 -0.557943
  endloop
endfacet
facet normal -0.000000 -0.060646 -0.136214
  outer loop
    vertex 3.600000 -0.203074 -0.557943
    vertex 1.800000 -0.278749 -0.524250
    vertex 1.800000 -0.203074 -0.557943
  endloop
endfacet
facet normal -0.000000 -0.041099 -0.143328
  outer loop
    vertex 3.600000 -0.203074 -0.557943
    vertex 1.800000 -0.203074 -0.557943
    vertex 3.600000 -0.123448 -0.580775
  endloop
endfacet
facet normal -0.000000 -0.041099 -0.143328
  outer loop
    vertex 3.600000 -0.123448 -0.580775
    vertex 1.800000 -0.203074 -0.557943
    vertex 1.800000 -0.123448 -0.580775
  endloop
endfacet
facet normal -0.000000 -0.020751 -0.147653
  outer loop
    vertex 3.600000 -0.123448 -0.580775
    vertex 1.800000 -0.123448 -0.580775
    vertex 3.600000 -0.041418 -0.592304
  endloop
endfacet
facet normal -0.000000 -0.020751 -0.147653
  outer loop
    vertex 3.600000 -0.041418 -0.592304
    vertex 1.800000 -0.123448 -0.580775
    vertex 1.800000 -0.041418 -0.592304
  endloop
endfacet
facet normal 0.000000 0.000000 -0.149104
  outer loop
    vertex 3.600000 -0.041418 -0.592304
    vertex 1.800000 -0.041418 -0.592304
    vertex 3.600000 0.041418 -0.592304
  endloop
endfacet
facet normal -0.000000 0.000000 -0.149104
  outer loop
    vertex 3.600000 0.041418 -0.592304
    vertex 1.800000 -0.041418 -0.592304
    vertex 1.800000 0.041418 -0.592304
  endloop
endfacet
facet normal 0.000000 0.020751 -0.147653
  outer loop
    vertex 3.600000 0.041418 -0.592304
    vertex 1.800000 0.041418 -0.592304
    vertex 3.600000 0.123448 -0.580775
  endloop
endfacet
facet normal 0.000000 0.020751 -0.147653
  outer loop
    vertex 3.600000 0.123448 -0.580775
    vertex 1.800000 0.041418 -0.592304
    vertex 1.800000 0.123448 -0.580775
  endloop
endfacet
facet normal 0.000000 0.041099 -0.143328
  outer loop
    vertex 3.600000 0.123448 -0.580775
    vertex 1.800000 0.123448 -0.580775
    vertex 3.600000 0.203074 -0.557943
  endloop
endfacet
facet normal 0.000000 0.041099 -0.143328
  outer loop
    vertex 3.600000 0.203074 -0.557943
    vertex 1.800000 0.123448 -0.580775
    vertex 1.800000 0.203074 -0.557943
  endloop
endfacet
facet normal 0.000000 0.060646 -0.136214
  outer loop
    vertex 3.600000 0.203074 -0.557943
    vertex 1.800000 0.203074 -0.557943
    vertex 3.600000 0.278749 -0.524250
  endloop
endfacet
facet normal 0.000000 0.060646 -0.136214
  outer loop
    vertex 3.600000 0.278749 -0.524250
    vertex 1.800000 0.203074 -0.557943
    vertex 1.800000 0.278749 -0.524250
  endloop
endfacet
facet normal 0.000000 0.079013 -0.126448
  outer loop
    vertex 3.600000 0.278749 -0.524250
    vertex 1.800000 0.278749 -0.524250
    vertex 3.600000 0.348998 -0.480354
  endloop
endfacet
facet normal 0.000000 0.079013 -0.126448
  outer loop
    vertex 3.600000 0.348998 -0.480354
    vertex 1.800000 0.278749 -0.524250
    vertex 1.800000 0.348998 -0.480354
  endloop
endfacet
facet normal 0.000000 0.095842 -0.114221
  outer loop
    vertex 3.600000 0.348998 -0.480354
    vertex 1.800000 0.348998 -0.480354
    vertex 3.600000 0.412453 -0.427108
  endloop
endfacet
facet normal 0.000000 0.095842 -0.114221
  outer loop
    vertex 3.600000 0.412453 -0.427108
    vertex 1.800000 0.348998 -0.480354
    vertex 1.800000 0.412453 -0.427108
  endloop
endfacet
facet normal 0.000000 0.110806 -0.099770
  outer loop
    vertex 3.600000 0.412453 -0.427108
    vertex 1.800000 0.412453 -0.427108
    vertex 3.600000 0.467881 -0.365549
  endloop
endfacet
facet normal 0.000000 0.110806 -0.099770
  outer loop
    vertex 3.600000 0.467881 -0.365549
    vertex 1.800000 0.412453 -0.427108
    vertex 1.800000 0.467881 -0.365549
  endloop
endfacet
facet normal 0.000000 0.123613 -0.083378
  outer loop
    vertex 3.600000 0.467881 -0.365549
    vertex 1.800000 0.467881 -0.365549
    vertex 3.600000 0.514203 -0.296875
  endloop
endfacet
facet normal 0.000000 0.123613 -0.083378
  outer loop
    vertex 3.600000 0.514203 -0.296875
    vertex 1.800000 0.467881 -0.365549
    vertex 1.800000 0.514203 -0.296875
  endloop
endfacet
facet normal 0.000000 0.134014 -0.065363
  outer loop
    vertex 3.600000 0.514203 -0.296875
    vertex 1.800000 0.514203 -0.296875
    vertex 3.600000 0.550515 -0.222423
  endloop
endfacet
facet normal 0.000000 0.010401 0.148741
  outer loop
    vertex 5.400000 0.000000 0.593750
    vertex 7.200000 -0.000000 0.593750
    vertex 5.400000 0.082634 0.587972
  endloop
endfacet
facet normal -0.000000 0.010401 0.148741
  outer loop
    vertex 5.400000 0.082634 0.587972
    vertex 7.200000 -0.000000 0.593750
    vertex 7.200000 0.082634 0.587972
  endloop
endfacet
facet normal -0.000000 0.031001 0.145846
  outer loop
    vertex 5.400000 0.082634 0.587972
    vertex 7.200000 0.082634 0.587972
    vertex 5.400000 0.163660 0.570749
  endloop
endfacet
facet normal -0.000000 0.031001 0.145846
  outer loop
    vertex 5.400000 0.163660 0.570749
    vertex 7.200000 0.082634 0.587972
    vertex 7.200000 0.163660 0.570749
  endloop
endfacet
facet normal -0.000000 0.050997 0.140112
  outer loop
    vertex 5.400000 0.163660 0.570749
    vertex 7.200000 0.163660 0.570749
    vertex 5.400000 0.241500 0.542418
  endloop
endfacet
facet normal -0.000000 0.050997 0.140112
  outer loop
    vertex 5.400000 0.241500 0.542418
    vertex 7.200000 0.163660 0.570749
    vertex 7.200000 0.241500 0.542418
  endloop
endfacet
facet normal -0.000000 0.070000 0.131651
  outer loop
    vertex 5.400000 0.241500 0.542418
    vertex 7.200000 0.241500 0.542418
    vertex 5.400000 0.314640 0.503529
  endloop
endfacet
facet normal -0.000000 0.070000 0.131651
  outer loop
    vertex 5.400000 0.314640 0.503529
    vertex 7.200000 0.241500 0.542418
    vertex 7.200000 0.314640 0.503529
  endloop
endfacet
facet normal -0.000000 0.087641 0.120628
  outer loop
    vertex 5.400000 0.314640 0.503529
    vertex 7.200000 0.314640 0.503529
    vertex 5.400000 0.381655 0.454839
  endloop
endfacet
facet normal -0.000000 0.087641 0.120628
  outer loop
    vertex 5.400000 0.381655 0.454839
    vertex 7.200000 0.314640 0.503529
    vertex 7.200000 0.381655 0.454839
  endloop
endfacet
facet normal -0.000000 0.103577 0.107257
  outer loop
    vertex 5.400000 0.381655 0.454839
    vertex 7.200000 0.381655 0.454839
    vertex 5.400000 0.441242 0.397296
  endloop
endfacet
facet normal -0.000000 0.103577 0.107257
  outer loop
    vertex 5.400000 0.441242 0.397296
    vertex 7.200000 0.381655 0.454839
    vertex 7.200000 0.441242 0.397296
  endloop
endfacet
facet normal -0.000000 0.117496 0.091798
  outer loop
    vertex 5.400000 0.441242 0.397296
    vertex 7.200000 0.441242 0.397296
    vertex 5.400000 0.492241 0.332021
  endloop
endfacet
facet normal -0.000000 0.117496 0.091798
  outer loop
    vertex 5.400000 0.492241 0.332021
    vertex 7.200000 0.441242 0.397296
    vertex 7.200000 0.492241 0.332021
  endloop
endfacet
facet normal -0.000000 0.129128 0.074552
  outer loop
    vertex 5.400000 0.492241 0.332021
    vertex 7.200000 0.492241 0.332021
    vertex 5.400000 0.533659 0.260283
  endloop
endfacet
facet normal 0.000000 -0.010401 0.148741
  outer loop
    vertex 5.400000 0.000000 0.593750
    vertex 3.600000 0.000000 0.593750
    vertex 5.400000 -0.082634 0.587972
  endloop
endfacet
facet normal 0.000000 -0.010401 0.148741
  outer loop
    vertex 5.400000 -0.082634 0.587972
    vertex 3.600000 0.000000 0.593750
    vertex 3.600000 -0.082634 0.587972
  endloop
endfacet
facet normal 0.000000 -0.031001 0.145846
  outer loop
    vertex 5.400000 -0.082634 0.587972
    vertex 3.600000 -0.082634 0.587972
    vertex 5.400000 -0.163660 0.570749
  endloop
endfacet
facet normal 0.000000 -0.031001 0.145846
  outer loop
    vertex 5.400000 -0.163660 0.570749
    vertex 3.600000 -0.082634 0.587972
    vertex 3.600000 -0.163660 0.570749
  endloop
endfacet
facet normal 0.000000 -0.050997 0.140112
  outer loop
    vertex 5.400000 -0.163660 0.570749
    vertex 3.600000 -0.163660 0.570749
    vertex 5.400000 -0.241500 0.542418
  endloop
endfacet
facet normal 0.000000 -0.050997 0.140112
  outer loop
    vertex 5.400000 -0.241500 0.542418
    vertex 3.600000 -0.163660 0.570749
    vertex 3.600000 -0.241500 0.542418
  endloop
endfacet
facet normal 0.000000 -0.070000 0.131651
  outer loop
    vertex 5.400000 -0.241500 0.542418
    vertex 3.600000 -0.241500 0.542418
    vertex 5.400000 -0.314640 0.503529
  endloop
endfacet
facet normal 0.000000 -0.070000 0.131651
  outer loop
    vertex 5.400000 -0.314640 0.503529
    vertex 3.600000 -0.241500 0.542418
    vertex 3.600000 -0.314640 0.503529
  endloop
endfacet
facet normal 0.000000 -0.087641 0.120628
  outer loop
    vertex 5.400000 -0.314640 0.503529
    vertex 3.600000 -0.314640 0.503529
    vertex 5.400000 -0.381655 0.454839
  endloop
endfacet
facet normal 0.000000 -0.087641 0.120628
  outer loop
    vertex 5.400000 -0.381655 0.454839
    vertex 3.600000 -0.314640 0.503529
    vertex 3.600000 -0.381655 0.454839
  endloop
endfacet
facet normal 0.000000 -0.103577 0.107257
  outer loop
    vertex 5.400000 -0.381655 0.454839
    vertex 3.600000 -0.381655 0.454839
    vertex 5.400000 -0.441242 0.397296
  endloop
endfacet
facet normal 0.000000 -0.103577 0.107257
  outer loop
    vertex 5.400000 -0.441242 0.397296
    vertex 3.600000 -0.381655 0.454839
    vertex 3.600000 -0.441242 0.397296
  endloop
endfacet
facet normal 0.000000 -0.117496 0.091798
  outer loop
    vertex 5.400000 -0.441242 0.397296
    vertex 3.600000 -0.441242 0.397296
    vertex 5.400000 -0.492241 0.332021
  endloop
endfacet
facet normal 0.000000 -0.117496 0.091798
  outer loop
    vertex 5.400000 -0.492241 0.332021
    vertex 3.600000 -0.441242 0.397296
    vertex 3.600000 -0.492241 0.332021
  endloop
endfacet
facet normal 0.000000 -0.129128 0.074552
  outer loop
    vertex 5.400000 -0.492241 0.332021
    vertex 3.600000 -0.492241 0.332021
    vertex 5.400000 -0.533659 0.260283
  endloop
endfacet
facet normal 0.000000 -0.129128 0.074552
  outer loop
    vertex 5.400000 -0.533659 0.260283
    vertex 3.600000 -0.492241 0.332021
    vertex 3.600000 -0.533659 0.260283
  endloop
endfacet
facet normal 0.000000 -0.138247 0.055856
  outer loop
    vertex 5.400000 -0.533659 0.260283
    vertex 3.600000 -0.533659 0.260283
    vertex 5.400000 -0.564690 0.183479
  endloop
endfacet
facet normal 0.000000 -0.138247 0.055856
  outer loop
    vertex 5.400000 -0.564690 0.183479
    vertex 3.600000 -0.533659 0.260283
    vertex 3.600000 -0.564690 0.183479
  endloop
endfacet
facet normal 0.000000 -0.144675 0.036072
  outer loop
    vertex 5.400000 -0.564690 0.183479
    vertex 3.600000 -0.564690 0.183479
    vertex 5.400000 -0.584730 0.103104
  endloop
endfacet
facet normal 0.000000 -0.144675 0.036072
  outer loop
    vertex 5.400000 -0.584730 0.103104
    vertex 3.600000 -0.564690 0.183479
    vertex 3.600000 -0.584730 0.103104
  endloop
endfacet
facet normal 0.000000 -0.148288 0.015586
  outer loop
    vertex 5.400000 -0.584730 0.103104
    vertex 3.600000 -0.584730 0.103104
    vertex 5.400000 -0.593388 0.020722
  endloop
endfacet
facet normal 0.000000 -0.148288 0.015586
  outer loop
    vertex 5.400000 -0.593388 0.020722
    vertex 3.600000 -0.584730 0.103104
    vertex 3.600000 -0.593388 0.020722
  endloop
endfacet
facet normal -0.000000 -0.149014 -0.005204
  outer loop
    vertex 5.400000 -0.593388 0.020722
    vertex 3.600000 -0.593388 0.020722
    vertex 5.400000 -0.590497 -0.062064
  endloop
endfacet
facet normal -0.000000 -0.149014 -0.005204
  outer loop
    vertex 5.400000 -0.590497 -0.062064
    vertex 3.600000 -0.593388 0.020722
    vertex 3.600000 -0.590497 -0.062064
  endloop
endfacet
facet normal -0.000000 -0.146839 -0.025892
  outer loop
    vertex 5.400000 -0.590497 -0.062064
    vertex 3.600000 -0.590497 -0.062064
    vertex 5.400000 -0.576113 -0.143641
  endloop
endfacet
facet normal -0.000000 -0.146839 -0.025892
  outer loop
    vertex 5.400000 -0.576113 -0.143641
    vertex 3.600000 -0.590497 -0.062064
    vertex 3.600000 -0.576113 -0.143641
  endloop
endfacet
facet normal -0.000000 -0.141807 -0.046076
  outer loop
    vertex 5.400000 -0.576113 -0.143641
    vertex 3.600000 -0.576113 -0.143641
    vertex 5.400000 -0.550515 -0.222423
  endloop
endfacet
facet normal -0.000000 -0.141807 -0.046076
  outer loop
    vertex 5.400000 -0.550515 -0.222423
    vertex 3.600000 -0.576113 -0.143641
    vertex 3.600000 -0.550515 -0.222423
  endloop
endfacet
facet normal -0.000000 -0.134014 -0.065363
  outer loop
    vertex 5.400000 -0.550515 -0.222423
    vertex 3.600000 -0.550515 -0.222423
    vertex 5.400000 -0.514203 -0.296875
  endloop
endfacet
facet normal -0.000000 -0.134014 -0.065363
  outer loop
    vertex 5.400000 -0.514203 -0.296875
    vertex 3.600000 -0.550515 -0.222423
    vertex 3.600000 -0.514203 -0.296875
  endloop
endfacet
facet normal -0.000000 -0.123613 -0.083378
  outer loop
    vertex 5.400000 -0.514203 -0.296875
    vertex 3.600000 -0.514203 -0.296875
    vertex 5.400000 -0.467881 -0.365549
  endloop
endfacet
facet normal -0.000000 -0.123613 -0.083378
  outer loop
    vertex 5.400000 -0.467881 -0.365549
    vertex 3.600000 -0.514203 -0.296875
    vertex 3.600000 -0.467881 -0.365549
  endloop
endfacet
facet normal -0.000000 -0.110806 -0.099770
  outer loop
    vertex 5.400000 -0.467881 -0.365549
    vertex 3.600000 -0.467881 -0.365549
    vertex 5.400000 -0.412453 -0.427108
  endloop
endfacet
facet normal -0.000000 -0.110806 -0.099770
  outer loop
    vertex 5.400000 -0.412453 -0.427108
    vertex 3.600000 -0.467881 -0.365549
    vertex 3.600000 -0.412453 -0.427108
  endloop
endfacet
facet normal -0.000000 -0.095842 -0.114221
  outer loop
    vertex 5.400000 -0.412453 -0.427108
    vertex 3.600000 -0.412453 -0.427108
    vertex 5.400000 -0.348998 -0.480354
  endloop
endfacet
facet normal -0.000000 -0.095842 -0.114221
  outer loop
    vertex 5.400000 -0.348998 -0.480354
    vertex 3.600000 -0.412453 -0.427108
    vertex 3.600000 -0.348998 -0.480354
  endloop
endfacet
facet normal -0.000000 -0.079013 -0.126448
  outer loop
    vertex 5.400000 -0.348998 -0.480354
    vertex 3.600000 -0.348998 -0.480354
    vertex 5.400000 -0.278749 -0.524250
  endloop
endfacet
facet normal -0.000000 -0.079013 -0.126448
  outer loop
    vertex 5.400000 -0.278749 -0.524250
    vertex 3.600000 -0.348998 -0.480354
    vertex 3.600000 -0.278749 -0.524250
  endloop
endfacet
facet normal -0.000000 -0.060646 -0.136214
  outer loop
    vertex 5.400000 -0.278749 -0.524250
    vertex 3.600000 -0.278749 -0.524250
    vertex 5.400000 -0.203074 -0.557943
  endloop
endfacet
facet normal -0.000000 -0.060646 -0.136214
  outer loop
    vertex 5.400000 -0.203074 -0.557943
    vertex 3.600000 -0.278749 -0.524250
    vertex 3.600000 -0.203074 -0.557943
  endloop
endfacet
facet normal -0.000000 -0.041099 -0.143328
  outer loop
    vertex 5.400000 -0.203074 -0.557943
    vertex 3.600000 -0.203074 -0.557943
    vertex 5.400000 -0.123448 -0.580775
  endloop
endfacet
facet normal -0.000000 -0.041099 -0.143328
  outer loop
    vertex 5.400000 -0.123448 -0.580775
    vertex 3.600000 -0.203074 -0.557943
    vertex 3.600000 -0.123448 -0.580775
  endloop
endfacet
facet normal -0.000000 -0.020751 -0.147653
  outer loop
    vertex 5.400000 -0.123448 -0.580775
    vertex 3.600000 -0.123448 -0.580775
    vertex 5.400000 -0.041418 -0.592304
  endloop
endfacet
facet normal -0.000000 -0.020751 -0.147653
  outer loop
    vertex 5.400000 -0.041418 -0.592304
    vertex 3.600000 -0.123448 -0.580775
    vertex 3.600000 -0.041418 -0.592304
  endloop
endfacet
facet normal 0.000000 0.000000 -0.149104
  outer loop
    vertex 5.400000 -0.041418 -0.592304
    vertex 3.600000 -0.041418 -0.592304
    vertex 5.400000 0.041418 -0.592304
  endloop
endfacet
facet normal -0.000000 0.000000 -0.149104
  outer loop
    vertex 5.400000 0.041418 -0.592304
    vertex 3.600000 -0.041418 -0.592304
    vertex 3.600000 0.041418 -0.592304
  endloop
endfacet
facet normal 0.000000 0.020751 -0.147653
  outer loop
    vertex 5.400000 0.041418 -0.592304
    vertex 3.600000 0.041418 -0.592304
    vertex 5.400000 0.123448 -0.580775
  endloop
endfacet
facet normal 0.000000 0.020751 -0.147653
  outer loop
    vertex 5.400000 0.123448 -0.580775
    vertex 3.600000 0.041418 -0.592304
    vertex 3.600000 0.123448 -0.580775
  endloop
endfacet
facet normal 0.000000 0.041099 -0.143328
  outer loop
    vertex 5.400000 0.123448 -0.580775
    vertex 3.600000 0.123448 -0.580775
    vertex 5.400000 0.203074 -0.557943
  endloop
endfacet
facet normal 0.000000 0.041099 -0.143328
  outer loop
    vertex 5.400000 0.203074 -0.557943
    vertex 3.600000 0.123448 -0.580775
    vertex 3.600000 0.203074 -0.557943
  endloop
endfacet
facet normal 0.000000 0.060646 -0.136214
  outer loop
    vertex 5.400000 0.203074 -0.557943
    vertex 3.600000 0.203074 -0.557943
    vertex 5.400000 0.278749 -0.524250
  endloop
endfacet
facet normal 0.000000 0.060646 -0.136214
  outer loop
    vertex 5.400000 0.278749 -0.524250
    vertex 3.600000 0.203074 -0.557943
    vertex 3.600000 0.278749 -0.524250
  endloop
endfacet
facet normal 0.000000 0.079013 -0.126448
  outer loop
    vertex 5.400000 0.278749 -0.524250
    vertex 3.600000 0.278749 -0.524250
    vertex 5.400000 0.348998 -0.480354
  endloop
endfacet
facet normal 0.000000 0.079013 -0.126448
  outer loop
    vertex 5.400000 0.348998 -0.480354
    vertex 3.600000 0.278749 -0.524250
    vertex 3.600000 0.348998 -0.480354
  endloop
endfacet
facet normal 0.000000 0.095842 -0.114221
  outer loop
    vertex 5.400000 0.348998 -0.480354
    vertex 3.600000 0.348998 -0.480354
    vertex 5.400000 0.412453 -0.427108
  endloop
endfacet
facet normal 0.000000 0.095842 -0.114221
  outer loop
    vertex 5.400000 0.412453 -0.427108
    vertex 3.600000 0.348998 -0.480354
    vertex 3.600000 0.412453 -0.427108
  endloop
endfacet
facet normal 0.000000 0.110806 -0.099770
  outer loop
    vertex 5.400000 0.412453 -0.427108
    vertex 3.600000 0.412453 -0.427108
    vertex 5.400000 0.467881 -0.365549
  endloop
endfacet
facet normal 0.000000 0.110806 -0.099770
  outer loop
    vertex 5.400000 0.467881 -0.365549
    vertex 3.600000 0.412453 -0.427108
    vertex 3.600000 0.467881 -0.365549
  endloop
endfacet
facet normal 0.000000 0.123613 -0.083378
  outer loop
    vertex 5.400000 0.467881 -0.365549
    vertex 3.600000 0.467881 -0.365549
    vertex 5.400000 0.514203 -0.296875
  endloop
endfacet
facet normal 0.000000 0.123613 -0.083378
  outer loop
    vertex 5.400000 0.514203 -0.296875
    vertex 3.600000 0.467881 -0.365549
    vertex 3.600000 0.514203 -0.296875
  endloop
endfacet
facet normal 0.000000 0.134014 -0.065363
  outer loop
    vertex 5.400000 0.514203 -0.296875
    vertex 3.600000 0.514203 -0.296875
    vertex 5.400000 0.550515 -0.222423
  endloop
endfacet
facet normal 0.000000 0.134014 -0.065363
  outer loop
    vertex 5.400000 0.550515 -0.222423
    vertex 3.600000 0.514203 -0.296875
    vertex 3.600000 0.550515 -0.222423
  endloop
endfacet
facet normal 0.000000 0.141807 -0.046076
  outer loop
    vertex 5.400000 0.550515 -0.222423
    vertex 3.600000 0.550515 -0.222423
    vertex 5.400000 0.576113 -0.143641
  endloop
endfacet
facet normal -0.000000 -0.010401 0.148741
  outer loop
    vertex 7.200000 -0.000000 0.593750
    vertex 5.400000 0.000000 0.593750
    vertex 7.200000 -0.082634 0.587972
  endloop
endfacet
facet normal 0.000000 -0.010401 0.148741
  outer loop
    vertex 7.200000 -0.082634 0.587972
    vertex 5.400000 0.000000 0.593750
    vertex 5.400000 -0.082634 0.587972
  endloop
endfacet
facet normal 0.000000 -0.031001 0.145846
  outer loop
    vertex 7.200000 -0.082634 0.587972
    vertex 5.400000 -0.082634 0.587972
    vertex 7.200000 -0.163660 0.570749
  endloop
endfacet
facet normal 0.000000 -0.031001 0.145846
  outer loop
    vertex 7.200000 -0.163660 0.570749
    vertex 5.400000 -0.082634 0.587972
    vertex 5.400000 -0.163660 0.570749
  endloop
endfacet
facet normal 0.000000 -0.050997 0.140112
  outer loop
    vertex 7.200000 -0.163660 0.570749
    vertex 5.400000 -0.163660 0.570749
    vertex 7.200000 -0.241500 0.542418
  endloop
endfacet
facet normal 0.000000 -0.050997 0.140112
  outer loop
    vertex 7.200000 -0.241500 0.542418
    vertex 5.400000 -0.163660 0.570749
    vertex 5.400000 -0.241500 0.542418
  endloop
endfacet
facet normal 0.000000 -0.070000 0.131651
  outer loop
    vertex 7.200000 -0.241500 0.542418
    vertex 5.400000 -0.241500 0.542418
    vertex 7.200000 -0.314640 0.503529
  endloop
endfacet
facet normal 0.000000 -0.070000 0.131651
  outer loop
    vertex 7.200000 -0.314640 0.503529
    vertex 5.400000 -0.241500 0.542418
    vertex 5.400000 -0.314640 0.503529
  endloop
endfacet
facet normal 0.000000 -0.087641 0.120628
  outer loop
    vertex 7.200000 -0.314640 0.503529
    vertex 5.400000 -0.314640 0.503529
    vertex 7.200000 -0.381655 0.454839
  endloop
endfacet
facet normal 0.000000 -0.087641 0.120628
  outer loop
    vertex 7.200000 -0.381655 0.454839
    vertex 5.400000 -0.314640 0.503529
    vertex 5.400000 -0.381655 0.454839
  endloop
endfacet
facet normal 0.000000 -0.103577 0.107257
  outer loop
    vertex 7.200000 -0.381655 0.454839
    vertex 5.400000 -0.381655 0.454839
    vertex 7.200000 -0.441242 0.397296
  endloop
endfacet
facet normal 0.000000 -0.103577 0.107257
  outer loop
    vertex 7.200000 -0.441242 0.397296
    vertex 5.400000 -0.381655 0.454839
    vertex 5.400000 -0.441242 0.397296
  endloop
endfacet
facet normal 0.000000 -0.117496 0.091798
  outer loop
    vertex 7.200000 -0.441242 0.397296
    vertex 5.400000 -0.441242 0.397296
    vertex 7.200000 -0.492241 0.332021
  endloop
endfacet
facet normal 0.000000 -0.117496 0.091798
  outer loop
    vertex 7.200000 -0.492241 0.332021
    vertex 5.400000 -0.441242 0.397296
    vertex 5.400000 -0.492241 0.332021
  endloop
endfacet
facet normal 0.000000 -0.129128 0.074552
  outer loop
    vertex 7.200000 -0.492241 0.332021
    vertex 5.400000 -0.492241 0.332021
    vertex 7.200000 -0.533659 0.260283
  endloop
endfacet
facet normal 0.000000 -0.129128 0.074552
  outer loop
    vertex 7.200000 -0.533659 0.260283
    vertex 5.400000 -0.492241 0.332021
    vertex 5.400000 -0.533659 0.260283
  endloop
endfacet
facet normal 0.000000 -0.138247 0.055855
  outer loop
    vertex 7.200000 -0.533659 0.260283
    vertex 5.400000 -0.533659 0.260283
    vertex 7.200000 -0.564690 0.183479
  endloop
endfacet
facet normal 0.000000 -0.138247 0.055855
  outer loop
    vertex 7.200000 -0.564690 0.183479
    vertex 5.400000 -0.533659 0.260283
    vertex 5.400000 -0.564690 0.183479
  endloop
endfacet
facet normal 0.000000 -0.144675 0.036072
  outer loop
    vertex 7.200000 -0.564690 0.183479
    vertex 5.400000 -0.564690 0.183479
    vertex 7.200000 -0.584730 0.103104
  endloop
endfacet
facet normal 0.000000 -0.144675 0.036072
  outer loop
    vertex 7.200000 -0.584730 0.103104
    vertex 5.400000 -0.564690 0.183479
    vertex 5.400000 -0.584730 0.103104
  endloop
endfacet
facet normal 0.000000 -0.148288 0.015586
  outer loop
    vertex 7.200000 -0.584730 0.103104
    vertex 5.400000 -0.584730 0.103104
    vertex 7.200000 -0.593388 0.020722
  endloop
endfacet
facet normal 0.000000 -0.148288 0.015586
  outer loop
    vertex 7.200000 -0.593388 0.020722
    vertex 5.400000 -0.584730 0.103104
    vertex 5.400000 -0.593388 0.020722
  endloop
endfacet
facet normal -0.000000 -0.149014 -0.005204
  outer loop
    vertex 7.200000 -0.593388 0.020722
    vertex 5.400000 -0.593388 0.020722
    vertex 7.200000 -0.590497 -0.062064
  endloop
endfacet
facet normal -0.000000 -0.149014 -0.005204
  outer loop
    vertex 7.200000 -0.590497 -0.062064
    vertex 5.400000 -0.593388 0.020722
    vertex 5.400000 -0.590497 -0.062064
  endloop
endfacet
facet normal -0.000000 -0.146839 -0.025892
  outer loop
    vertex 7.200000 -0.590497 -0.062064
    vertex 5.400000 -0.590497 -0.062064
    vertex 7.200000 -0.576113 -0.143641
  endloop
endfacet
facet normal -0.000000 -0.146839 -0.025892
  outer loop
    vertex 7.200000 -0.576113 -0.143641
    vertex 5.400000 -0.590497 -0.062064
    vertex 5.400000 -0.576113 -0.143641
  endloop
endfacet
facet normal -0.000000 -0.141807 -0.046076
  outer loop
    vertex 7.200000 -0.576113 -0.143641
    vertex 5.400000 -0.576113 -0.143641
    vertex 7.200000 -0.550515 -0.222423
  endloop
endfacet
facet normal -0.000000 -0.141807 -0.046076
  outer loop
    vertex 7.200000 -0.550515 -0.222423
    vertex 5.400000 -0.576113 -0.143641
    vertex 5.400000 -0.550515 -0.222423
  endloop
endfacet
facet normal -0.000000 -0.134014 -0.065363
  outer loop
    vertex 7.200000 -0.550515 -0.222423
    vertex 5.400000 -0.550515 -0.222423
    vertex 7.200000 -0.514203 -0.296875
  endloop
endfacet
facet normal -0.000000 -0.134014 -0.065363
  outer loop
    vertex 7.200000 -0.514203 -0.296875
    vertex 5.400000 -0.550515 -0.222423
    vertex 5.400000 -0.514203 -0.296875
  endloop
endfacet
facet normal -0.000000 -0.123613 -0.083378
  outer loop
    vertex 7.200000 -0.514203 -0.296875
    vertex 5.400000 -0.514203 -0.296875
    vertex 7.200000 -0.467881 -0.365549
  endloop
endfacet
facet normal -0.000000 -0.123613 -0.083378
  outer loop
    vertex 7.200000 -0.467881 -0.365549
    vertex 5.400000 -0.514203 -0.296875
    vertex 5.400000 -0.467881 -0.365549
  endloop
endfacet
facet normal -0.000000 -0.110806 -0.099770
  outer loop
    vertex 7.200000 -0.467881 -0.365549
    vertex 5.400000 -0.467881 -0.365549
    vertex 7.200000 -0.412453 -0.427108
  endloop
endfacet
facet normal -0.000000 -0.110806 -0.099770
  outer loop
    vertex 7.200000 -0.412453 -0.427108
    vertex 5.400000 -0.467881 -0.365549
    vertex 5.400000 -0.412453 -0.427108
  endloop
endfacet
facet normal -0.000000 -0.095842 -0.114221
  outer loop
    vertex 7.200000 -0.412453 -0.427108
    vertex 5.400000 -0.412453 -0.427108
    vertex 7.200000 -0.348998 -0.480354
  endloop
endfacet
facet normal -0.000000 -0.095842 -0.114221
  outer loop
    vertex 7.200000 -0.348998 -0.480354
    vertex 5.400000 -0.412453 -0.427108
    vertex 5.400000 -0.348998 -0.480354
  endloop
endfacet
facet normal -0.000000 -0.079013 -0.126448
  outer loop
    vertex 7.200000 -0.348998 -0.480354
    vertex 5.400000 -0.348998 -0.480354
    vertex 7.200000 -0.278749 -0.524250
  endloop
endfacet
facet normal -0.000000 -0.079013 -0.126448
  outer loop
    vertex 7.200000 -0.278749 -0.524250
    vertex 5.400000 -0.348998 -0.480354
    vertex 5.400000 -0.278749 -0.524250
  endloop
endfacet
facet normal -0.000000 -0.060646 -0.136214
  outer loop
    vertex 7.200000 -0.278749 -0.524250
    vertex 5.400000 -0.278749 -0.524250
    vertex 7.200000 -0.203074 -0.557943
  endloop
endfacet
facet normal -0.000000 -0.060646 -0.136214
  outer loop
    vertex 7.200000 -0.203074 -0.557943
    vertex 5.400000 -0.278749 -0.524250
    vertex 5.400000 -0.203074 -0.557943
  endloop
endfacet
facet normal -0.000000 -0.041099 -0.143328
  outer loop
    vertex 7.200000 -0.203074 -0.557943
    vertex 5.400000 -0.203074 -0.557943
    vertex 7.200000 -0.123448 -0.580775
  endloop
endfacet
facet normal -0.000000 -0.041099 -0.143328
  outer loop
    vertex 7.200000 -0.123448 -0.580775
    vertex 5.400000 -0.203074 -0.557943
    vertex 5.400000 -0.123448 -0.580775
  endloop
endfacet
facet normal -0.000000 -0.020751 -0.147653
  outer loop
    vertex 7.200000 -0.123448 -0.580775
    vertex 5.400000 -0.123448 -0.580775
    vertex 7.200000 -0.041418 -0.592304
  endloop
endfacet
facet normal -0.000000 -0.020751 -0.147653
  outer loop
    vertex 7.200000 -0.041418 -0.592304
    vertex 5.400000 -0.123448 -0.580775
    vertex 5.400000 -0.041418 -0.592304
  endloop
endfacet
facet normal 0.000000 0.000000 -0.149104
  outer loop
    vertex 7.200000 -0.041418 -0.592304
    vertex 5.400000 -0.041418 -0.592304
    vertex 7.200000 0.041418 -0.592304
  endloop
endfacet
facet normal -0.000000 0.000000 -0.149104
  outer loop
    vertex 7.200000 0.041418 -0.592304
    vertex 5.400000 -0.041418 -0.592304
    vertex 5.400000 0.041418 -0.592304
  endloop
endfacet
facet normal 0.000000 0.020751 -0.147653
  outer loop
    vertex 7.200000 0.041418 -0.592304
    vertex 5.400000 0.041418 -0.592304
    vertex 7.200000 0.123448 -0.580775
  endloop
endfacet
facet normal 0.000000 0.020751 -0.147653
  outer loop
    vertex 7.200000 0.123448 -0.580775
    vertex 5.400000 0.041418 -0.592304
    vertex 5.400000 0.123448 -0.580775
  endloop
endfacet
facet normal 0.000000 0.041099 -0.143328
  outer loop
    vertex 7.200000 0.123448 -0.580775
    vertex 5.400000 0.123448 -0.580775
    vertex 7.200000 0.203074 -0.557943
  endloop
endfacet
facet normal 0.000000 0.041099 -0.143328
  outer loop
    vertex 7.200000 0.203074 -0.557943
    vertex 5.400000 0.123448 -0.580775
    vertex 5.400000 0.203074 -0.557943
  endloop
endfacet
facet normal 0.000000 0.060646 -0.136214
  outer loop
    vertex 7.200000 0.203074 -0.557943
    vertex 5.400000 0.203074 -0.557943
    vertex 7.200000 0.278749 -0.524250
  endloop
endfacet
facet normal 0.000000 0.060646 -0.136214
  outer loop
    vertex 7.200000 0.278749 -0.524250
    vertex 5.400000 0.203074 -0.557943
    vertex 5.400000 0.278749 -0.524250
  endloop
endfacet
facet normal 0.000000 0.079013 -0.126448
  outer loop
    vertex 7.200000 0.278749 -0.524250
    vertex 5.400000 0.278749 -0.524250
    vertex 7.200000 0.348998 -0.480354
  endloop
endfacet
facet normal 0.000000 0.079013 -0.126448
  outer loop
    vertex 7.200000 0.348998 -0.480354
    vertex 5.400000 0.278749 -0.524250
    vertex 5.400000 0.348998 -0.480354
  endloop
endfacet
facet normal 0.000000 0.095842 -0.114221
  outer loop
    vertex 7.200000 0.348998 -0.480354
    vertex 5.400000 0.348998 -0.480354
    vertex 7.200000 0.412453 -0.427108
  endloop
endfacet
facet normal 0.000000 0.095842 -0.114221
  outer loop
    vertex 7.200000 0.412453 -0.427108
    vertex 5.400000 0.348998 -0.480354
    vertex 5.400000 0.412453 -0.427108
  endloop
endfacet
facet normal 0.000000 0.110806 -0.099770
  outer loop
    vertex 7.200000 0.412453 -0.427108
    vertex 5.400000 0.412453 -0.427108
    vertex 7.200000 0.467881 -0.365549
  endloop
endfacet
facet normal 0.000000 0.110806 -0.099770
  outer loop
    vertex 7.200000 0.467881 -0.365549
    vertex 5.400000 0.412453 -0.427108
    vertex 5.400000 0.467881 -0.365549
  endloop
endfacet
facet normal 0.000000 0.123613 -0.083378
  outer loop
    vertex 7.200000 0.467881 -0.365549
    vertex 5.400000 0.467881 -0.365549
    vertex 7.200000 0.514203 -0.296875
  endloop
endfacet
facet normal 0.000000 0.123613 -0.083378
  outer loop
    vertex 7.200000 0.514203 -0.296875
    vertex 5.400000 0.467881 -0.365549
    vertex 5.400000 0.514203 -0.296875
  endloop
endfacet
facet normal 0.000000 0.134014 -0.065363
  outer loop
    vertex 7.200000 0.514203 -0.296875
    vertex 5.400000 0.514203 -0.296875
    vertex 7.200000 0.550515 -0.222423
  endloop
endfacet
facet normal 0.000000 0.134014 -0.065363
  outer loop
    vertex 7.200000 0.550515 -0.222423
    vertex 5.400000 0.514203 -0.296875
    vertex 5.400000 0.550515 -0.222423
  endloop
endfacet
facet normal 0.000000 0.141807 -0.046076
  outer loop
    vertex 7.200000 0.550515 -0.222423
    vertex 5.400000 0.550515 -0.222423
    vertex 7.200000 0.576113 -0.143641
  endloop
endfacet
facet normal 0.000000 0.141807 -0.046076
  outer loop
    vertex 7.200000 0.576113 -0.143641
    vertex 5.400000 0.550515 -0.222423
    vertex 5.400000 0.576113 -0.143641
  endloop
endfacet
facet normal 0.000000 0.000000 -1.005237
  outer loop
    vertex 0.000000 0.580443 0.125000
    vertex 9.000000 0.580443 0.125000
    vertex 0.000000 0.468750 0.125000
  endloop
endfacet
facet normal 0.000000 0.000000 -1.005237
  outer loop
    vertex 0.000000 0.468750 0.125000
    vertex 9.000000 0.580443 0.125000
    vertex 9.000000 0.468750 0.125000
  endloop
endfacet
facet normal 0.008879 0.000000 0.000000
  outer loop
    vertex 9.000000 0.580443 0.125000
    vertex 9.000000 0.557424 0.204495
    vertex 9.000000 0.468750 0.125000
  endloop
endfacet
facet normal 0.009388 0.000000 0.000000
  outer loop
    vertex 9.000000 0.468750 0.125000
    vertex 9.000000 0.557424 0.204495
    vertex 9.000000 0.523574 0.280016
  endloop
endfacet
facet normal 0.010666 0.000000 0.000000
  outer loop
    vertex 9.000000 0.468750 0.125000
    vertex 9.000000 0.523574 0.280016
    vertex 9.000000 0.479553 0.350097
  endloop
endfacet
facet normal 0.012690 0.000000 0.000000
  outer loop
    vertex 9.000000 0.479553 0.350097
    vertex 9.000000 0.426214 0.413377
    vertex 9.000000 0.468750 0.125000
  endloop
endfacet
facet normal 0.015420 0.000000 0.000000
  outer loop
    vertex 9.000000 0.468750 0.125000
    vertex 9.000000 0.426214 0.413377
    vertex 9.000000 0.364595 0.468625
  endloop
endfacet
facet normal 0.018802 0.000000 0.000000
  outer loop
    vertex 9.000000 0.468750 0.125000
    vertex 9.000000 0.364595 0.468625
    vertex 9.000000 0.295892 0.514769
  endloop
endfacet
facet normal 0.022771 0.000000 0.000000
  outer loop
    vertex 9.000000 0.295892 0.514769
    vertex 9.000000 0.221441 0.550911
    vertex 9.000000 0.468750 0.125000
  endloop
endfacet
facet normal 0.027251 0.000000 0.000000
  outer loop
    vertex 9.000000 0.468750 0.125000
    vertex 9.000000 0.221441 0.550911
    vertex 9.000000 0.142687 0.576350
  endloop
endfacet
facet normal 0.032153 0.000000 0.000000
  outer loop
    vertex 9.000000 0.468750 0.125000
    vertex 9.000000 0.142687 0.576350
    vertex 9.000000 0.061161 0.590591
  endloop
endfacet
facet normal 0.037383 0.000000 0.000000
  outer loop
    vertex 9.000000 0.061161 0.590591
    vertex 9.000000 -0.021553 0.593359
    vertex 9.000000 0.468750 0.125000
  endloop
endfacet
facet normal 0.042839 0.000000 0.000000
  outer loop
    vertex 9.000000 0.468750 0.125000
    vertex 9.000000 -0.021553 0.593359
    vertex 9.000000 -0.103848 0.584598
  endloop
endfacet
facet normal 0.048415 0.000000 0.000000
  outer loop
    vertex 9.000000 0.468750 0.125000
    vertex 9.000000 -0.103848 0.584598
    vertex 9.000000 -0.184126 0.564479
  endloop
endfacet
facet normal 0.054003 0.000000 0.000000
  outer loop
    vertex 9.000000 -0.184126 0.564479
    vertex 9.000000 -0.260826 0.533394
    vertex 9.000000 0.468750 0.125000
  endloop
endfacet
facet normal 0.778303 0.000000 0.000000
  outer loop
    vertex 9.000000 0.468750 0.125000
    vertex 9.000000 -0.260826 0.533394
    vertex 9.000000 -0.260826 -0.533394
  endloop
endfacet
facet normal 0.182394 0.000000 0.000000
  outer loop
    vertex 9.000000 0.468750 0.125000
    vertex 9.000000 -0.260826 -0.533394
    vertex 9.000000 0.468750 -0.125000
  endloop
endfacet
facet normal 0.054003 0.000000 0.000000
  outer loop
    vertex 9.000000 0.468750 -0.125000
    vertex 9.000000 -0.260826 -0.533394
    vertex 9.000000 -0.184126 -0.564479
  endloop
endfacet
facet normal 0.048415 0.000000 0.000000
  outer loop
    vertex 9.000000 0.468750 -0.125000
    vertex 9.000000 -0.184126 -0.564479
    vertex 9.000000 -0.103848 -0.584598
  endloop
endfacet
facet normal 0.076417 0.000000 -0.000000
  outer loop
    vertex 9.000000 -0.260826 -0.533394
    vertex 9.000000 -0.260826 0.533394
    vertex 9.000000 -0.332459 -0.491945
  endloop
endfacet
facet normal 0.070479 0.000000 0.000000
  outer loop
    vertex 9.000000 -0.332459 -0.491945
    vertex 9.000000 -0.260826 0.533394
    vertex 9.000000 -0.332459 0.491945
  endloop
endfacet
facet normal 0.064124 0.000000 -0.000000
  outer loop
    vertex 9.000000 -0.332459 -0.491945
    vertex 9.000000 -0.332459 0.491945
    vertex 9.000000 -0.397633 -0.440939
  endloop
endfacet
facet normal 0.057475 0.000000 0.000000
  outer loop
    vertex 9.000000 -0.397633 -0.440939
    vertex 9.000000 -0.332459 0.491945
    vertex 9.000000 -0.397633 0.440939
  endloop
endfacet
facet normal 0.050663 0.000000 -0.000000
  outer loop
    vertex 9.000000 -0.397633 -0.440939
    vertex 9.000000 -0.397633 0.440939
    vertex 9.000000 -0.455082 -0.381366
  endloop
endfacet
facet normal 0.043818 0.000000 0.000000
  outer loop
    vertex 9.000000 -0.455082 -0.381366
    vertex 9.000000 -0.397633 0.440939
    vertex 9.000000 -0.455082 0.381366
  endloop
endfacet
facet normal 0.037074 0.000000 -0.000000
  outer loop
    vertex 9.000000 -0.455082 -0.381366
    vertex 9.000000 -0.455082 0.381366
    vertex 9.000000 -0.503689 -0.314383
  endloop
endfacet
facet normal 0.030562 0.000000 0.000000
  outer loop
    vertex 9.000000 -0.503689 -0.314383
    vertex 9.000000 -0.455082 0.381366
    vertex 9.000000 -0.503689 0.314383
  endloop
endfacet
facet normal 0.024409 0.000000 -0.000000
  outer loop
    vertex 9.000000 -0.503689 -0.314383
    vertex 9.000000 -0.503689 0.314383
    vertex 9.000000 -0.542510 -0.241293
  endloop
endfacet
facet normal 0.018734 0.000000 0.000000
  outer loop
    vertex 9.000000 -0.542510 -0.241293
    vertex 9.000000 -0.503689 0.314383
    vertex 9.000000 -0.542510 0.241293
  endloop
endfacet
facet normal 0.013648 0.000000 -0.000000
  outer loop
    vertex 9.000000 -0.542510 -0.241293
    vertex 9.000000 -0.542510 0.241293
    vertex 9.000000 -0.570791 -0.163514
  endloop
endfacet
facet normal 0.009249 0.000000 0.000000
  outer loop
    vertex 9.000000 -0.570791 -0.163514
    vertex 9.000000 -0.542510 0.241293
    vertex 9.000000 -0.570791 0.163514
  endloop
endfacet
facet normal 0.005622 0.000000 -0.000000
  outer loop
    vertex 9.000000 -0.570791 -0.163514
    vertex 9.000000 -0.570791 0.163514
    vertex 9.000000 -0.587982 -0.082559
  endloop
endfacet
facet normal 0.002839 0.000000 0.000000
  outer loop
    vertex 9.000000 -0.587982 -0.082559
    vertex 9.000000 -0.570791 0.163514
    vertex 9.000000 -0.587982 0.082559
  endloop
endfacet
facet normal 0.000952 0.000000 -0.000000
  outer loop
    vertex 9.000000 -0.587982 -0.082559
    vertex 9.000000 -0.587982 0.082559
    vertex 9.000000 -0.593750 0.000000
  endloop
endfacet
facet normal 0.042839 -0.000000 0.000000
  outer loop
    vertex 9.000000 -0.103848 -0.584598
    vertex 9.000000 -0.021553 -0.593359
    vertex 9.000000 0.468750 -0.125000
  endloop
endfacet
facet normal 0.037383 0.000000 0.000000
  outer loop
    vertex 9.000000 0.468750 -0.125000
    vertex 9.000000 -0.021553 -0.593359
    vertex 9.000000 0.061161 -0.590591
  endloop
endfacet
facet normal 0.032153 0.000000 0.000000
  outer loop
    vertex 9.000000 0.468750 -0.125000
    vertex 9.000000 0.061161 -0.590591
    vertex 9.000000 0.142687 -0.576350
  endloop
endfacet
facet normal 0.027251 0.000000 0.000000
  outer loop
    vertex 9.000000 0.142687 -0.576350
    vertex 9.000000 0.221441 -0.550911
    vertex 9.000000 0.468750 -0.125000
  endloop
endfacet
facet normal 0.022771 0.000000 0.000000
  outer loop
    vertex 9.000000 0.468750 -0.125000
    vertex 9.000000 0.221441 -0.550911
    vertex 9.000000 0.295892 -0.514769
  endloop
endfacet
facet normal 0.018802 0.000000 0.000000
  outer loop
    vertex 9.000000 0.468750 -0.125000
    vertex 9.000000 0.295892 -0.514769
    vertex 9.000000 0.364595 -0.468625
  endloop
endfacet
facet normal 0.015420 0.000000 0.000000
  outer loop
    vertex 9.000000 0.364595 -0.468625
    vertex 9.000000 0.426214 -0.413377
    vertex 9.000000 0.468750 -0.125000
  endloop
endfacet
facet normal 0.012690 0.000000 0.000000
  outer loop
    vertex 9.000000 0.468750 -0.125000
    vertex 9.000000 0.426214 -0.413377
    vertex 9.000000 0.479553 -0.350097
  endloop
endfacet
facet normal 0.010666 0.000000 0.000000
  outer loop
    vertex 9.000000 0.468750 -0.125000
    vertex 9.000000 0.479553 -0.350097
    vertex 9.000000 0.523574 -0.280016
  endloop
endfacet
facet normal 0.009388 0.000000 -0.000000
  outer loop
    vertex 9.000000 0.523574 -0.280016
    vertex 9.000000 0.557424 -0.204495
    vertex 9.000000 0.468750 -0.125000
  endloop
endfacet
facet normal 0.008879 -0.000000 0.000000
  outer loop
    vertex 9.000000 0.468750 -0.125000
    vertex 9.000000 0.557424 -0.204495
    vertex 9.000000 0.580443 -0.125000
  endloop
endfacet
facet normal -0.008879 0.000000 0.000000
  outer loop
    vertex 0.000000 0.580443 0.125000
    vertex 0.000000 0.468750 0.125000
    vertex 0.000000 0.557424 0.204495
  endloop
endfacet
facet normal -0.009388 -0.000000 0.000000
  outer loop
    vertex 0.000000 0.557424 0.204495
    vertex 0.000000 0.468750 0.125000
    vertex 0.000000 0.523574 0.280016
  endloop
endfacet
facet normal -0.010666 -0.000000 0.000000
  outer loop
    vertex 0.000000 0.523574 0.280016
    vertex 0.000000 0.468750 0.125000
    vertex 0.000000 0.479553 0.350097
  endloop
endfacet
facet normal -0.012690 -0.000000 0.000000
  outer loop
    vertex 0.000000 0.479553 0.350097
    vertex 0.000000 0.468750 0.125000
    vertex 0.000000 0.426214 0.413377
  endloop
endfacet
facet normal -0.015420 -0.000000 -0.000000
  outer loop
    vertex 0.000000 0.426214 0.413377
    vertex 0.000000 0.468750 0.125000
    vertex 0.000000 0.364595 0.468625
  endloop
endfacet
facet normal -0.018802 -0.000000 -0.000000
  outer loop
    vertex 0.000000 0.364595 0.468625
    vertex 0.000000 0.468750 0.125000
    vertex 0.000000 0.295892 0.514769
  endloop
endfacet
facet normal -0.022771 -0.000000 -0.000000
  outer loop
    vertex 0.000000 0.295892 0.514769
    vertex 0.000000 0.468750 0.125000
    vertex 0.000000 0.221441 0.550911
  endloop
endfacet
facet normal -0.027251 -0.000000 -0.000000
  outer loop
    vertex 0.000000 0.221441 0.550911
    vertex 0.000000 0.468750 0.125000
    vertex 0.000000 0.142687 0.576350
  endloop
endfacet
facet normal -0.032153 -0.000000 -0.000000
  outer loop
    vertex 0.000000 0.142687 0.576350
    vertex 0.000000 0.468750 0.125000
    vertex 0.000000 0.061161 0.590591
  endloop
endfacet
facet normal -0.037383 -0.000000 -0.000000
  outer loop
    vertex 0.000000 0.061161 0.590591
    vertex 0.000000 0.468750 0.125000
    vertex 0.000000 -0.021553 0.593359
  endloop
endfacet
facet normal -0.042839 0.000000 -0.000000
  outer loop
    vertex 0.000000 -0.021553 0.593359
    vertex 0.000000 0.468750 0.125000
    vertex 0.000000 -0.103848 0.584598
  endloop
endfacet
facet normal -0.048415 0.000000 -0.000000
  outer loop
    vertex 0.000000 -0.103848 0.584598
    vertex 0.000000 0.468750 0.125000
    vertex 0.000000 -0.184126 0.564479
  endloop
endfacet
facet normal -0.054003 0.000000 -0.000000
  outer loop
    vertex 0.000000 -0.184126 0.564479
    vertex 0.000000 0.468750 0.125000
    vertex 0.000000 -0.260826 0.533394
  endloop
endfacet
facet normal -0.182394 0.000000 0.000000
  outer loop
    vertex 0.000000 -0.260826 0.533394
    vertex 0.000000 0.468750 0.125000
    vertex 0.000000 0.468750 -0.125000
  endloop
endfacet
facet normal -0.778303 0.000000 0.000000
  outer loop
    vertex 0.000000 -0.260826 0.533394
    vertex 0.000000 0.468750 -0.125000
    vertex 0.000000 -0.260826 -0.533394
  endloop
endfacet
facet normal -0.054003 0.000000 0.000000
  outer loop
    vertex 0.000000 -0.260826 -0.533394
    vertex 0.000000 0.468750 -0.125000
    vertex 0.000000 -0.184126 -0.564479
  endloop
endfacet
facet normal -0.048415 0.000000 0.000000
  outer loop
    vertex 0.000000 -0.184126 -0.564479
    vertex 0.000000 0.468750 -0.125000
    vertex 0.000000 -0.103848 -0.584598
  endloop
endfacet
facet normal -0.042839 0.000000 0.000000
  outer loop
    vertex 0.000000 -0.103848 -0.584598
    vertex 0.000000 0.468750 -0.125000
    vertex 0.000000 -0.021553 -0.593359
  endloop
endfacet
facet normal -0.037383 0.000000 0.000000
  outer loop
    vertex 0.000000 -0.021553 -0.593359
    vertex 0.000000 0.468750 -0.125000
    vertex 0.000000 0.061161 -0.590591
  endloop
endfacet
facet normal -0.032153 0.000000 0.000000
  outer loop
    vertex 0.000000 0.061161 -0.590591
    vertex 0.000000 0.468750 -0.125000
    vertex 0.000000 0.142687 -0.576350
  endloop
endfacet
facet normal -0.027251 0.000000 0.000000
  outer loop
    vertex 0.000000 0.142687 -0.576350
    vertex 0.000000 0.468750 -0.125000
    vertex 0.000000 0.221441 -0.550911
  endloop
endfacet
facet normal -0.022771 0.000000 0.000000
  outer loop
    vertex 0.000000 0.221441 -0.550911
    vertex 0.000000 0.468750 -0.125000
    vertex 0.000000 0.295892 -0.514769
  endloop
endfacet
facet normal -0.018802 0.000000 0.000000
  outer loop
    vertex 0.000000 0.295892 -0.514769
    vertex 0.000000 0.468750 -0.125000
    vertex 0.000000 0.364595 -0.468625
  endloop
endfacet
facet normal -0.015420 0.000000 0.000000
  outer loop
    vertex 0.000000 0.364595 -0.468625
    vertex 0.000000 0.468750 -0.125000
    vertex 0.000000 0.426214 -0.413377
  endloop
endfacet
facet normal -0.012690 0.000000 0.000000
  outer loop
    vertex 0.000000 0.426214 -0.413377
    vertex 0.000000 0.468750 -0.125000
    vertex 0.000000 0.479553 -0.350097
  endloop
endfacet
facet normal -0.010666 0.000000 0.000000
  outer loop
    vertex 0.000000 0.479553 -0.350097
    vertex 0.000000 0.468750 -0.125000
    vertex 0.000000 0.523574 -0.280016
  endloop
endfacet
facet normal -0.009388 0.000000 0.000000
  outer loop
    vertex 0.000000 0.523574 -0.280016
    vertex 0.000000 0.468750 -0.125000
    vertex 0.000000 0.557424 -0.204495
  endloop
endfacet
facet normal -0.008879 0.000000 0.000000
  outer loop
    vertex 0.000000 0.557424 -0.204495
    vertex 0.000000 0.468750 -0.125000
    vertex 0.000000 0.580443 -0.125000
  endloop
endfacet
facet normal -0.076417 0.000000 -0.000000
  outer loop
    vertex 0.000000 -0.260826 0.533394
    vertex 0.000000 -0.260826 -0.533394
    vertex 0.000000 -0.332459 0.491945
  endloop
endfacet
facet normal -0.070479 0.000000 0.000000
  outer loop
    vertex 0.000000 -0.332459 0.491945
    vertex 0.000000 -0.260826 -0.533394
    vertex 0.000000 -0.332459 -0.491945
  endloop
endfacet
facet normal -0.064124 0.000000 -0.000000
  outer loop
    vertex 0.000000 -0.332459 0.491945
    vertex 0.000000 -0.332459 -0.491945
    vertex 0.000000 -0.397633 0.440939
  endloop
endfacet
facet normal -0.057475 0.000000 0.000000
  outer loop
    vertex 0.000000 -0.397633 0.440939
    vertex 0.000000 -0.332459 -0.491945
    vertex 0.000000 -0.397633 -0.440939
  endloop
endfacet
facet normal -0.050663 0.000000 -0.000000
  outer loop
    vertex 0.000000 -0.397633 0.440939
    vertex 0.000000 -0.397633 -0.440939
    vertex 0.000000 -0.455082 0.381366
  endloop
endfacet
facet normal -0.043818 0.000000 0.000000
  outer loop
    vertex 0.000000 -0.455082 0.381366
    vertex 0.000000 -0.397633 -0.440939
    vertex 0.000000 -0.455082 -0.381366
  endloop
endfacet
facet normal -0.037074 0.000000 -0.000000
  outer loop
    vertex 0.000000 -0.455082 0.381366
    vertex 0.000000 -0.455082 -0.381366
    vertex 0.000000 -0.503689 0.314383
  endloop
endfacet
facet normal -0.030562 0.000000 0.000000
  outer loop
    vertex 0.000000 -0.503689 0.314383
    vertex 0.000000 -0.455082 -0.381366
    vertex 0.000000 -0.503689 -0.314383
  endloop
endfacet
facet normal -0.024409 0.000000 -0.000000
  outer loop
    vertex 0.000000 -0.503689 0.314383
    vertex 0.000000 -0.503689 -0.314383
    vertex 0.000000 -0.542510 0.241293
  endloop
endfacet
facet normal -0.018734 0.000000 0.000000
  outer loop
    vertex 0.000000 -0.542510 0.241293
    vertex 0.000000 -0.503689 -0.314383
    vertex 0.000000 -0.542510 -0.241293
  endloop
endfacet
facet normal -0.013648 0.000000 -0.000000
  outer loop
    vertex 0.000000 -0.542510 0.241293
    vertex 0.000000 -0.542510 -0.241293
    vertex 0.000000 -0.570791 0.163514
  endloop
endfacet
facet normal -0.009249 0.000000 0.000000
  outer loop
    vertex 0.000000 -0.570791 0.163514
    vertex 0.000000 -0.542510 -0.241293
    vertex 0.000000 -0.570791 -0.163514
  endloop
endfacet
facet normal -0.005622 0.000000 -0.000000
  outer loop
    vertex 0.000000 -0.570791 0.163514
    vertex 0.000000 -0.570791 -0.163514
    vertex 0.000000 -0.587982 0.082559
  endloop
endfacet
facet normal -0.002839 0.000000 0.000000
  outer loop
    vertex 0.000000 -0.587982 0.082559
    vertex 0.000000 -0.570791 -0.163514
    vertex 0.000000 -0.587982 -0.082559
  endloop
endfacet
facet normal -0.000952 0.000000 -0.000000
  outer loop
    vertex 0.000000 -0.587982 0.082559
    vertex 0.000000 -0.587982 -0.082559
    vertex 0.000000 -0.593750 0.000000
  endloop
endfacet
endsolid f1be2a66-1e1d-4ddd-a868-c07514578dc5-ascii.stl
