solid ff925cff-fcc6-410c-9d94-185d24061ac8-ascii.stl
facet normal -0.000000 12.000000 0.000000
  outer loop
    vertex 0.000000 0.875000 0.250000
    vertex 24.000000 0.875000 0.250000
    vertex 0.000000 0.875000 -0.250000
  endloop
endfacet
facet normal 0.000000 12.000000 0.000000
  outer loop
    vertex 0.000000 0.875000 -0.250000
    vertex 24.000000 0.875000 0.250000
    vertex 24.000000 0.875000 -0.250000
  endloop
endfacet
facet normal 0.000000 0.000000 5.324893
  outer loop
    vertex 0.000000 0.875000 -0.250000
    vertex 24.000000 0.875000 -0.250000
    vertex 0.000000 1.096871 -0.250000
  endloop
endfacet
facet normal -0.000000 0.000000 5.324893
  outer loop
    vertex 0.000000 1.096871 -0.250000
    vertex 24.000000 0.875000 -0.250000
    vertex 24.000000 1.096871 -0.250000
  endloop
endfacet
facet normal -0.000338 0.694921 0.218880
  outer loop
    vertex 0.000000 1.042150 0.423730
    vertex 4.000000 1.090575 0.276171
    vertex 0.000000 1.096871 0.250000
  endloop
endfacet
facet normal 0.000000 0.104685 0.025181
  outer loop
    vertex 0.000000 1.096871 0.250000
    vertex 4.000000 1.090575 0.276171
    vertex 8.000000 1.090575 0.276171
  endloop
endfacet
facet normal 0.000000 0.104685 0.025181
  outer loop
    vertex 0.000000 1.096871 0.250000
    vertex 8.000000 1.090575 0.276171
    vertex 12.000000 1.090575 0.276171
  endloop
endfacet
facet normal 0.000000 0.702945 0.241322
  outer loop
    vertex 12.000000 1.090575 0.276171
    vertex 8.000000 1.090575 0.276171
    vertex 12.000000 1.030245 0.451907
  endloop
endfacet
facet normal 0.000000 0.702945 0.241322
  outer loop
    vertex 12.000000 1.090575 0.276171
    vertex 12.000000 1.030245 0.451907
    vertex 16.000000 1.030245 0.451907
  endloop
endfacet
facet normal 0.000000 0.653637 0.353731
  outer loop
    vertex 16.000000 1.030245 0.451907
    vertex 12.000000 1.030245 0.451907
    vertex 16.000000 0.941812 0.615317
  endloop
endfacet
facet normal 0.000000 0.653637 0.353731
  outer loop
    vertex 16.000000 1.030245 0.451907
    vertex 16.000000 0.941812 0.615317
    vertex 20.000000 0.941812 0.615317
  endloop
endfacet
facet normal 0.000000 0.586500 0.456491
  outer loop
    vertex 20.000000 0.941812 0.615317
    vertex 16.000000 0.941812 0.615317
    vertex 20.000000 0.827689 0.761942
  endloop
endfacet
facet normal -0.000464 0.586500 0.456491
  outer loop
    vertex 20.000000 0.941812 0.615317
    vertex 20.000000 0.827689 0.761942
    vertex 24.000000 0.852906 0.733606
  endloop
endfacet
facet normal 0.000443 0.512088 0.518256
  outer loop
    vertex 24.000000 0.852906 0.733606
    vertex 20.000000 0.827689 0.761942
    vertex 24.000000 0.723341 0.861628
  endloop
endfacet
facet normal -0.000496 0.503365 0.546800
  outer loop
    vertex 24.000000 0.723341 0.861628
    vertex 20.000000 0.827689 0.761942
    vertex 20.000000 0.690989 0.887783
  endloop
endfacet
facet normal 0.000474 0.421743 0.594102
  outer loop
    vertex 24.000000 0.723341 0.861628
    vertex 20.000000 0.690989 0.887783
    vertex 24.000000 0.574816 0.967063
  endloop
endfacet
facet normal -0.000526 0.406500 0.622194
  outer loop
    vertex 24.000000 0.574816 0.967063
    vertex 20.000000 0.690989 0.887783
    vertex 20.000000 0.535441 0.989408
  endloop
endfacet
facet normal 0.000502 0.320342 0.654374
  outer loop
    vertex 24.000000 0.574816 0.967063
    vertex 20.000000 0.535441 0.989408
    vertex 24.000000 0.411223 1.047149
  endloop
endfacet
facet normal -0.000554 0.298546 0.680616
  outer loop
    vertex 24.000000 0.411223 1.047149
    vertex 20.000000 0.535441 0.989408
    vertex 20.000000 0.365287 1.064044
  endloop
endfacet
facet normal 0.000528 0.210545 0.697492
  outer loop
    vertex 24.000000 0.411223 1.047149
    vertex 20.000000 0.365287 1.064044
    vertex 24.000000 0.236850 1.099785
  endloop
endfacet
facet normal -0.000579 0.182448 0.720472
  outer loop
    vertex 24.000000 0.236850 1.099785
    vertex 20.000000 0.365287 1.064044
    vertex 20.000000 0.185169 1.109656
  endloop
endfacet
facet normal 0.000552 0.095228 0.722327
  outer loop
    vertex 24.000000 0.236850 1.099785
    vertex 20.000000 0.185169 1.109656
    vertex 24.000000 0.056268 1.123592
  endloop
endfacet
facet normal -0.000603 0.061374 0.740676
  outer loop
    vertex 24.000000 0.056268 1.123592
    vertex 20.000000 0.185169 1.109656
    vertex 20.000000 -0.000000 1.125000
  endloop
endfacet
facet normal 0.000574 -0.022586 0.728227
  outer loop
    vertex 24.000000 0.056268 1.123592
    vertex 20.000000 -0.000000 1.125000
    vertex 24.000000 -0.125789 1.117946
  endloop
endfacet
facet normal -0.000624 -0.061374 0.740676
  outer loop
    vertex 24.000000 -0.125789 1.117946
    vertex 20.000000 -0.000000 1.125000
    vertex 20.000000 -0.185169 1.109656
  endloop
endfacet
facet normal 0.000594 -0.139807 0.715037
  outer loop
    vertex 24.000000 -0.125789 1.117946
    vertex 20.000000 -0.185169 1.109656
    vertex 24.000000 -0.304548 1.082994
  endloop
endfacet
facet normal -0.000643 -0.182448 0.720472
  outer loop
    vertex 24.000000 -0.304548 1.082994
    vertex 20.000000 -0.185169 1.109656
    vertex 20.000000 -0.365287 1.064044
  endloop
endfacet
facet normal 0.000611 -0.253364 0.683104
  outer loop
    vertex 24.000000 -0.304548 1.082994
    vertex 20.000000 -0.365287 1.064044
    vertex 24.000000 -0.475324 1.019653
  endloop
endfacet
facet normal -0.000659 -0.298546 0.680616
  outer loop
    vertex 24.000000 -0.475324 1.019653
    vertex 20.000000 -0.365287 1.064044
    vertex 20.000000 -0.535441 0.989408
  endloop
endfacet
facet normal 0.000626 -0.360278 0.633264
  outer loop
    vertex 24.000000 -0.475324 1.019653
    vertex 20.000000 -0.535441 0.989408
    vertex 24.000000 -0.633640 0.929583
  endloop
endfacet
facet normal -0.000674 -0.406500 0.622194
  outer loop
    vertex 24.000000 -0.633640 0.929583
    vertex 20.000000 -0.535441 0.989408
    vertex 20.000000 -0.690989 0.887783
  endloop
endfacet
facet normal 0.000640 -0.457749 0.566825
  outer loop
    vertex 24.000000 -0.633640 0.929583
    vertex 20.000000 -0.690989 0.887783
    vertex 24.000000 -0.775346 0.815146
  endloop
endfacet
facet normal -0.000686 -0.503365 0.546800
  outer loop
    vertex 24.000000 -0.775346 0.815146
    vertex 20.000000 -0.690989 0.887783
    vertex 20.000000 -0.827689 0.761942
  endloop
endfacet
facet normal 0.000650 -0.543220 0.485526
  outer loop
    vertex 24.000000 -0.775346 0.815146
    vertex 20.000000 -0.827689 0.761942
    vertex 24.000000 -0.896728 0.679341
  endloop
endfacet
facet normal -0.000696 -0.586500 0.456491
  outer loop
    vertex 24.000000 -0.896728 0.679341
    vertex 20.000000 -0.827689 0.761942
    vertex 20.000000 -0.941812 0.615317
  endloop
endfacet
facet normal 0.000659 -0.614452 0.391501
  outer loop
    vertex 24.000000 -0.896728 0.679341
    vertex 20.000000 -0.941812 0.615317
    vertex 24.000000 -0.994603 0.525728
  endloop
endfacet
facet normal -0.000704 -0.653637 0.353731
  outer loop
    vertex 24.000000 -0.994603 0.525728
    vertex 20.000000 -0.941812 0.615317
    vertex 20.000000 -1.030245 0.451907
  endloop
endfacet
facet normal 0.000666 -0.669577 0.287212
  outer loop
    vertex 24.000000 -0.994603 0.525728
    vertex 20.000000 -1.030245 0.451907
    vertex 24.000000 -1.066406 0.358334
  endloop
endfacet
facet normal -0.000709 -0.702945 0.241322
  outer loop
    vertex 24.000000 -1.066406 0.358334
    vertex 20.000000 -1.030245 0.451907
    vertex 20.000000 -1.090575 0.276171
  endloop
endfacet
facet normal 0.000670 -0.707150 0.175395
  outer loop
    vertex 24.000000 -1.066406 0.358334
    vertex 20.000000 -1.090575 0.276171
    vertex 24.000000 -1.110255 0.181546
  endloop
endfacet
facet normal -0.000713 -0.733078 0.122329
  outer loop
    vertex 24.000000 -1.110255 0.181546
    vertex 20.000000 -1.090575 0.276171
    vertex 20.000000 -1.121158 0.092902
  endloop
endfacet
facet normal 0.000672 -0.726186 0.058980
  outer loop
    vertex 24.000000 -1.110255 0.181546
    vertex 20.000000 -1.121158 0.092902
    vertex 24.000000 -1.125000 0.000000
  endloop
endfacet
facet normal -0.000714 -0.743214 0.000000
  outer loop
    vertex 24.000000 -1.125000 0.000000
    vertex 20.000000 -1.121158 0.092902
    vertex 20.000000 -1.121158 -0.092902
  endloop
endfacet
facet normal 0.000672 -0.726186 -0.058980
  outer loop
    vertex 24.000000 -1.125000 0.000000
    vertex 20.000000 -1.121158 -0.092902
    vertex 24.000000 -1.110255 -0.181546
  endloop
endfacet
facet normal -0.000713 -0.733078 -0.122329
  outer loop
    vertex 24.000000 -1.110255 -0.181546
    vertex 20.000000 -1.121158 -0.092902
    vertex 20.000000 -1.090575 -0.276171
  endloop
endfacet
facet normal 0.000670 -0.707150 -0.175395
  outer loop
    vertex 24.000000 -1.110255 -0.181546
    vertex 20.000000 -1.090575 -0.276171
    vertex 24.000000 -1.066406 -0.358334
  endloop
endfacet
facet normal -0.000709 -0.702945 -0.241322
  outer loop
    vertex 24.000000 -1.066406 -0.358334
    vertex 20.000000 -1.090575 -0.276171
    vertex 20.000000 -1.030245 -0.451907
  endloop
endfacet
facet normal 0.000666 -0.669577 -0.287212
  outer loop
    vertex 24.000000 -1.066406 -0.358334
    vertex 20.000000 -1.030245 -0.451907
    vertex 24.000000 -0.994603 -0.525728
  endloop
endfacet
facet normal -0.000704 -0.653637 -0.353731
  outer loop
    vertex 24.000000 -0.994603 -0.525728
    vertex 20.000000 -1.030245 -0.451907
    vertex 20.000000 -0.941812 -0.615317
  endloop
endfacet
facet normal 0.000659 -0.614452 -0.391501
  outer loop
    vertex 24.000000 -0.994603 -0.525728
    vertex 20.000000 -0.941812 -0.615317
    vertex 24.000000 -0.896728 -0.679341
  endloop
endfacet
facet normal -0.000696 -0.586500 -0.456491
  outer loop
    vertex 24.000000 -0.896728 -0.679341
    vertex 20.000000 -0.941812 -0.615317
    vertex 20.000000 -0.827689 -0.761942
  endloop
endfacet
facet normal 0.000650 -0.543220 -0.485526
  outer loop
    vertex 24.000000 -0.896728 -0.679341
    vertex 20.000000 -0.827689 -0.761942
    vertex 24.000000 -0.775346 -0.815146
  endloop
endfacet
facet normal -0.000686 -0.503365 -0.546800
  outer loop
    vertex 24.000000 -0.775346 -0.815146
    vertex 20.000000 -0.827689 -0.761942
    vertex 20.000000 -0.690989 -0.887783
  endloop
endfacet
facet normal 0.000640 -0.457749 -0.566825
  outer loop
    vertex 24.000000 -0.775346 -0.815146
    vertex 20.000000 -0.690989 -0.887783
    vertex 24.000000 -0.633640 -0.929583
  endloop
endfacet
facet normal -0.000674 -0.406500 -0.622194
  outer loop
    vertex 24.000000 -0.633640 -0.929583
    vertex 20.000000 -0.690989 -0.887783
    vertex 20.000000 -0.535441 -0.989408
  endloop
endfacet
facet normal 0.000626 -0.360278 -0.633264
  outer loop
    vertex 24.000000 -0.633640 -0.929583
    vertex 20.000000 -0.535441 -0.989408
    vertex 24.000000 -0.475324 -1.019653
  endloop
endfacet
facet normal -0.000659 -0.298546 -0.680616
  outer loop
    vertex 24.000000 -0.475324 -1.019653
    vertex 20.000000 -0.535441 -0.989408
    vertex 20.000000 -0.365287 -1.064044
  endloop
endfacet
facet normal 0.000611 -0.253364 -0.683104
  outer loop
    vertex 24.000000 -0.475324 -1.019653
    vertex 20.000000 -0.365287 -1.064044
    vertex 24.000000 -0.304548 -1.082994
  endloop
endfacet
facet normal -0.000643 -0.182448 -0.720472
  outer loop
    vertex 24.000000 -0.304548 -1.082994
    vertex 20.000000 -0.365287 -1.064044
    vertex 20.000000 -0.185169 -1.109656
  endloop
endfacet
facet normal 0.000594 -0.139807 -0.715037
  outer loop
    vertex 24.000000 -0.304548 -1.082994
    vertex 20.000000 -0.185169 -1.109656
    vertex 24.000000 -0.125789 -1.117946
  endloop
endfacet
facet normal -0.000624 -0.061374 -0.740676
  outer loop
    vertex 24.000000 -0.125789 -1.117946
    vertex 20.000000 -0.185169 -1.109656
    vertex 20.000000 0.000000 -1.125000
  endloop
endfacet
facet normal 0.000574 -0.022586 -0.728227
  outer loop
    vertex 24.000000 -0.125789 -1.117946
    vertex 20.000000 0.000000 -1.125000
    vertex 24.000000 0.056268 -1.123592
  endloop
endfacet
facet normal -0.000603 0.061374 -0.740676
  outer loop
    vertex 24.000000 0.056268 -1.123592
    vertex 20.000000 0.000000 -1.125000
    vertex 20.000000 0.185169 -1.109656
  endloop
endfacet
facet normal 0.000552 0.095228 -0.722327
  outer loop
    vertex 24.000000 0.056268 -1.123592
    vertex 20.000000 0.185169 -1.109656
    vertex 24.000000 0.236850 -1.099785
  endloop
endfacet
facet normal -0.000579 0.182448 -0.720472
  outer loop
    vertex 24.000000 0.236850 -1.099785
    vertex 20.000000 0.185169 -1.109656
    vertex 20.000000 0.365287 -1.064044
  endloop
endfacet
facet normal 0.000528 0.210545 -0.697492
  outer loop
    vertex 24.000000 0.236850 -1.099785
    vertex 20.000000 0.365287 -1.064044
    vertex 24.000000 0.411223 -1.047149
  endloop
endfacet
facet normal -0.000554 0.298546 -0.680616
  outer loop
    vertex 24.000000 0.411223 -1.047149
    vertex 20.000000 0.365287 -1.064044
    vertex 20.000000 0.535441 -0.989408
  endloop
endfacet
facet normal 0.000502 0.320342 -0.654374
  outer loop
    vertex 24.000000 0.411223 -1.047149
    vertex 20.000000 0.535441 -0.989408
    vertex 24.000000 0.574816 -0.967063
  endloop
endfacet
facet normal -0.000526 0.406500 -0.622194
  outer loop
    vertex 24.000000 0.574816 -0.967063
    vertex 20.000000 0.535441 -0.989408
    vertex 20.000000 0.690989 -0.887783
  endloop
endfacet
facet normal 0.000474 0.421743 -0.594102
  outer loop
    vertex 24.000000 0.574816 -0.967063
    vertex 20.000000 0.690989 -0.887783
    vertex 24.000000 0.723341 -0.861628
  endloop
endfacet
facet normal -0.000496 0.503365 -0.546800
  outer loop
    vertex 24.000000 0.723341 -0.861628
    vertex 20.000000 0.690989 -0.887783
    vertex 20.000000 0.827689 -0.761942
  endloop
endfacet
facet normal 0.000443 0.512088 -0.518256
  outer loop
    vertex 24.000000 0.723341 -0.861628
    vertex 20.000000 0.827689 -0.761942
    vertex 24.000000 0.852906 -0.733606
  endloop
endfacet
facet normal -0.000464 0.586500 -0.456491
  outer loop
    vertex 24.000000 0.852906 -0.733606
    vertex 20.000000 0.827689 -0.761942
    vertex 20.000000 0.941812 -0.615317
  endloop
endfacet
facet normal 0.000410 0.589010 -0.428826
  outer loop
    vertex 24.000000 0.852906 -0.733606
    vertex 20.000000 0.941812 -0.615317
    vertex 24.000000 0.960112 -0.586353
  endloop
endfacet
facet normal -0.000429 0.653637 -0.353731
  outer loop
    vertex 24.000000 0.960112 -0.586353
    vertex 20.000000 0.941812 -0.615317
    vertex 20.000000 1.030245 -0.451907
  endloop
endfacet
facet normal 0.000375 0.650491 -0.328154
  outer loop
    vertex 24.000000 0.960112 -0.586353
    vertex 20.000000 1.030245 -0.451907
    vertex 24.000000 1.042150 -0.423730
  endloop
endfacet
facet normal -0.000392 0.702945 -0.241322
  outer loop
    vertex 24.000000 1.042150 -0.423730
    vertex 20.000000 1.030245 -0.451907
    vertex 20.000000 1.090575 -0.276171
  endloop
endfacet
facet normal 0.000338 0.694921 -0.218880
  outer loop
    vertex 24.000000 1.042150 -0.423730
    vertex 20.000000 1.090575 -0.276171
    vertex 24.000000 1.096871 -0.250000
  endloop
endfacet
facet normal 0.000000 0.104685 -0.025181
  outer loop
    vertex 24.000000 1.096871 -0.250000
    vertex 20.000000 1.090575 -0.276171
    vertex 16.000000 1.090575 -0.276171
  endloop
endfacet
facet normal 0.000000 0.104685 -0.025181
  outer loop
    vertex 24.000000 1.096871 -0.250000
    vertex 16.000000 1.090575 -0.276171
    vertex 12.000000 1.090575 -0.276171
  endloop
endfacet
facet normal 0.000000 0.702945 -0.241322
  outer loop
    vertex 12.000000 1.090575 -0.276171
    vertex 16.000000 1.090575 -0.276171
    vertex 12.000000 1.030245 -0.451907
  endloop
endfacet
facet normal 0.000000 0.702945 -0.241322
  outer loop
    vertex 12.000000 1.090575 -0.276171
    vertex 12.000000 1.030245 -0.451907
    vertex 8.000000 1.030245 -0.451907
  endloop
endfacet
facet normal 0.000000 0.653637 -0.353731
  outer loop
    vertex 8.000000 1.030245 -0.451907
    vertex 12.000000 1.030245 -0.451907
    vertex 8.000000 0.941812 -0.615317
  endloop
endfacet
facet normal 0.000000 0.653637 -0.353731
  outer loop
    vertex 8.000000 1.030245 -0.451907
    vertex 8.000000 0.941812 -0.615317
    vertex 4.000000 0.941812 -0.615317
  endloop
endfacet
facet normal 0.000000 0.586500 -0.456491
  outer loop
    vertex 4.000000 0.941812 -0.615317
    vertex 8.000000 0.941812 -0.615317
    vertex 4.000000 0.827689 -0.761942
  endloop
endfacet
facet normal 0.000464 0.586500 -0.456491
  outer loop
    vertex 4.000000 0.941812 -0.615317
    vertex 4.000000 0.827689 -0.761942
    vertex 0.000000 0.852906 -0.733606
  endloop
endfacet
facet normal -0.000443 0.512088 -0.518256
  outer loop
    vertex 0.000000 0.852906 -0.733606
    vertex 4.000000 0.827689 -0.761942
    vertex 0.000000 0.723341 -0.861628
  endloop
endfacet
facet normal 0.000496 0.503365 -0.546800
  outer loop
    vertex 0.000000 0.723341 -0.861628
    vertex 4.000000 0.827689 -0.761942
    vertex 4.000000 0.690989 -0.887783
  endloop
endfacet
facet normal -0.000474 0.421743 -0.594102
  outer loop
    vertex 0.000000 0.723341 -0.861628
    vertex 4.000000 0.690989 -0.887783
    vertex 0.000000 0.574816 -0.967063
  endloop
endfacet
facet normal 0.000526 0.406500 -0.622194
  outer loop
    vertex 0.000000 0.574816 -0.967063
    vertex 4.000000 0.690989 -0.887783
    vertex 4.000000 0.535441 -0.989408
  endloop
endfacet
facet normal -0.000502 0.320342 -0.654374
  outer loop
    vertex 0.000000 0.574816 -0.967063
    vertex 4.000000 0.535441 -0.989408
    vertex 0.000000 0.411223 -1.047149
  endloop
endfacet
facet normal 0.000554 0.298546 -0.680616
  outer loop
    vertex 0.000000 0.411223 -1.047149
    vertex 4.000000 0.535441 -0.989408
    vertex 4.000000 0.365287 -1.064044
  endloop
endfacet
facet normal -0.000528 0.210545 -0.697492
  outer loop
    vertex 0.000000 0.411223 -1.047149
    vertex 4.000000 0.365287 -1.064044
    vertex 0.000000 0.236850 -1.099785
  endloop
endfacet
facet normal 0.000579 0.182448 -0.720472
  outer loop
    vertex 0.000000 0.236850 -1.099785
    vertex 4.000000 0.365287 -1.064044
    vertex 4.000000 0.185169 -1.109656
  endloop
endfacet
facet normal -0.000552 0.095228 -0.722327
  outer loop
    vertex 0.000000 0.236850 -1.099785
    vertex 4.000000 0.185169 -1.109656
    vertex 0.000000 0.056268 -1.123592
  endloop
endfacet
facet normal 0.000603 0.061374 -0.740676
  outer loop
    vertex 0.000000 0.056268 -1.123592
    vertex 4.000000 0.185169 -1.109656
    vertex 4.000000 0.000000 -1.125000
  endloop
endfacet
facet normal -0.000574 -0.022586 -0.728227
  outer loop
    vertex 0.000000 0.056268 -1.123592
    vertex 4.000000 0.000000 -1.125000
    vertex 0.000000 -0.125789 -1.117946
  endloop
endfacet
facet normal 0.000624 -0.061374 -0.740676
  outer loop
    vertex 0.000000 -0.125789 -1.117946
    vertex 4.000000 0.000000 -1.125000
    vertex 4.000000 -0.185169 -1.109656
  endloop
endfacet
facet normal -0.000594 -0.139807 -0.715037
  outer loop
    vertex 0.000000 -0.125789 -1.117946
    vertex 4.000000 -0.185169 -1.109656
    vertex 0.000000 -0.304548 -1.082994
  endloop
endfacet
facet normal 0.000643 -0.182448 -0.720472
  outer loop
    vertex 0.000000 -0.304548 -1.082994
    vertex 4.000000 -0.185169 -1.109656
    vertex 4.000000 -0.365287 -1.064044
  endloop
endfacet
facet normal -0.000611 -0.253364 -0.683104
  outer loop
    vertex 0.000000 -0.304548 -1.082994
    vertex 4.000000 -0.365287 -1.064044
    vertex 0.000000 -0.475324 -1.019653
  endloop
endfacet
facet normal 0.000659 -0.298546 -0.680616
  outer loop
    vertex 0.000000 -0.475324 -1.019653
    vertex 4.000000 -0.365287 -1.064044
    vertex 4.000000 -0.535441 -0.989408
  endloop
endfacet
facet normal -0.000626 -0.360278 -0.633264
  outer loop
    vertex 0.000000 -0.475324 -1.019653
    vertex 4.000000 -0.535441 -0.989408
    vertex 0.000000 -0.633640 -0.929583
  endloop
endfacet
facet normal 0.000674 -0.406500 -0.622194
  outer loop
    vertex 0.000000 -0.633640 -0.929583
    vertex 4.000000 -0.535441 -0.989408
    vertex 4.000000 -0.690989 -0.887783
  endloop
endfacet
facet normal -0.000640 -0.457749 -0.566825
  outer loop
    vertex 0.000000 -0.633640 -0.929583
    vertex 4.000000 -0.690989 -0.887783
    vertex 0.000000 -0.775346 -0.815146
  endloop
endfacet
facet normal 0.000686 -0.503365 -0.546800
  outer loop
    vertex 0.000000 -0.775346 -0.815146
    vertex 4.000000 -0.690989 -0.887783
    vertex 4.000000 -0.827689 -0.761942
  endloop
endfacet
facet normal -0.000650 -0.543220 -0.485526
  outer loop
    vertex 0.000000 -0.775346 -0.815146
    vertex 4.000000 -0.827689 -0.761942
    vertex 0.000000 -0.896728 -0.679341
  endloop
endfacet
facet normal 0.000696 -0.586500 -0.456491
  outer loop
    vertex 0.000000 -0.896728 -0.679341
    vertex 4.000000 -0.827689 -0.761942
    vertex 4.000000 -0.941812 -0.615317
  endloop
endfacet
facet normal -0.000659 -0.614452 -0.391501
  outer loop
    vertex 0.000000 -0.896728 -0.679341
    vertex 4.000000 -0.941812 -0.615317
    vertex 0.000000 -0.994603 -0.525728
  endloop
endfacet
facet normal 0.000704 -0.653637 -0.353731
  outer loop
    vertex 0.000000 -0.994603 -0.525728
    vertex 4.000000 -0.941812 -0.615317
    vertex 4.000000 -1.030245 -0.451907
  endloop
endfacet
facet normal -0.000666 -0.669577 -0.287212
  outer loop
    vertex 0.000000 -0.994603 -0.525728
    vertex 4.000000 -1.030245 -0.451907
    vertex 0.000000 -1.066406 -0.358334
  endloop
endfacet
facet normal 0.000709 -0.702945 -0.241322
  outer loop
    vertex 0.000000 -1.066406 -0.358334
    vertex 4.000000 -1.030245 -0.451907
    vertex 4.000000 -1.090575 -0.276171
  endloop
endfacet
facet normal -0.000670 -0.707150 -0.175395
  outer loop
    vertex 0.000000 -1.066406 -0.358334
    vertex 4.000000 -1.090575 -0.276171
    vertex 0.000000 -1.110255 -0.181546
  endloop
endfacet
facet normal 0.000713 -0.733078 -0.122329
  outer loop
    vertex 0.000000 -1.110255 -0.181546
    vertex 4.000000 -1.090575 -0.276171
    vertex 4.000000 -1.121158 -0.092902
  endloop
endfacet
facet normal -0.000672 -0.726186 -0.058980
  outer loop
    vertex 0.000000 -1.110255 -0.181546
    vertex 4.000000 -1.121158 -0.092902
    vertex 0.000000 -1.125000 0.000000
  endloop
endfacet
facet normal 0.000714 -0.743214 0.000000
  outer loop
    vertex 0.000000 -1.125000 0.000000
    vertex 4.000000 -1.121158 -0.092902
    vertex 4.000000 -1.121158 0.092902
  endloop
endfacet
facet normal -0.000672 -0.726186 0.058980
  outer loop
    vertex 0.000000 -1.125000 0.000000
    vertex 4.000000 -1.121158 0.092902
    vertex 0.000000 -1.110255 0.181546
  endloop
endfacet
facet normal 0.000713 -0.733078 0.122329
  outer loop
    vertex 0.000000 -1.110255 0.181546
    vertex 4.000000 -1.121158 0.092902
    vertex 4.000000 -1.090575 0.276171
  endloop
endfacet
facet normal -0.000670 -0.707150 0.175395
  outer loop
    vertex 0.000000 -1.110255 0.181546
    vertex 4.000000 -1.090575 0.276171
    vertex 0.000000 -1.066406 0.358334
  endloop
endfacet
facet normal 0.000709 -0.702945 0.241322
  outer loop
    vertex 0.000000 -1.066406 0.358334
    vertex 4.000000 -1.090575 0.276171
    vertex 4.000000 -1.030245 0.451907
  endloop
endfacet
facet normal -0.000666 -0.669577 0.287212
  outer loop
    vertex 0.000000 -1.066406 0.358334
    vertex 4.000000 -1.030245 0.451907
    vertex 0.000000 -0.994603 0.525728
  endloop
endfacet
facet normal 0.000704 -0.653637 0.353731
  outer loop
    vertex 0.000000 -0.994603 0.525728
    vertex 4.000000 -1.030245 0.451907
    vertex 4.000000 -0.941812 0.615317
  endloop
endfacet
facet normal -0.000659 -0.614452 0.391501
  outer loop
    vertex 0.000000 -0.994603 0.525728
    vertex 4.000000 -0.941812 0.615317
    vertex 0.000000 -0.896728 0.679341
  endloop
endfacet
facet normal 0.000696 -0.586500 0.456491
  outer loop
    vertex 0.000000 -0.896728 0.679341
    vertex 4.000000 -0.941812 0.615317
    vertex 4.000000 -0.827689 0.761942
  endloop
endfacet
facet normal -0.000650 -0.543220 0.485526
  outer loop
    vertex 0.000000 -0.896728 0.679341
    vertex 4.000000 -0.827689 0.761942
    vertex 0.000000 -0.775346 0.815146
  endloop
endfacet
facet normal 0.000686 -0.503365 0.546800
  outer loop
    vertex 0.000000 -0.775346 0.815146
    vertex 4.000000 -0.827689 0.761942
    vertex 4.000000 -0.690989 0.887783
  endloop
endfacet
facet normal -0.000640 -0.457749 0.566825
  outer loop
    vertex 0.000000 -0.775346 0.815146
    vertex 4.000000 -0.690989 0.887783
    vertex 0.000000 -0.633640 0.929583
  endloop
endfacet
facet normal 0.000674 -0.406500 0.622194
  outer loop
    vertex 0.000000 -0.633640 0.929583
    vertex 4.000000 -0.690989 0.887783
    vertex 4.000000 -0.535441 0.989408
  endloop
endfacet
facet normal -0.000626 -0.360278 0.633264
  outer loop
    vertex 0.000000 -0.633640 0.929583
    vertex 4.000000 -0.535441 0.989408
    vertex 0.000000 -0.475324 1.019653
  endloop
endfacet
facet normal 0.000659 -0.298546 0.680616
  outer loop
    vertex 0.000000 -0.475324 1.019653
    vertex 4.000000 -0.535441 0.989408
    vertex 4.000000 -0.365287 1.064044
  endloop
endfacet
facet normal -0.000611 -0.253364 0.683104
  outer loop
    vertex 0.000000 -0.475324 1.019653
    vertex 4.000000 -0.365287 1.064044
    vertex 0.000000 -0.304548 1.082994
  endloop
endfacet
facet normal 0.000643 -0.182448 0.720472
  outer loop
    vertex 0.000000 -0.304548 1.082994
    vertex 4.000000 -0.365287 1.064044
    vertex 4.000000 -0.185169 1.109656
  endloop
endfacet
facet normal -0.000594 -0.139807 0.715037
  outer loop
    vertex 0.000000 -0.304548 1.082994
    vertex 4.000000 -0.185169 1.109656
    vertex 0.000000 -0.125789 1.117946
  endloop
endfacet
facet normal 0.000624 -0.061374 0.740676
  outer loop
    vertex 0.000000 -0.125789 1.117946
    vertex 4.000000 -0.185169 1.109656
    vertex 4.000000 0.000000 1.125000
  endloop
endfacet
facet normal -0.000574 -0.022586 0.728227
  outer loop
    vertex 0.000000 -0.125789 1.117946
    vertex 4.000000 0.000000 1.125000
    vertex 0.000000 0.056268 1.123592
  endloop
endfacet
facet normal 0.000603 0.061374 0.740676
  outer loop
    vertex 0.000000 0.056268 1.123592
    vertex 4.000000 0.000000 1.125000
    vertex 4.000000 0.185169 1.109656
  endloop
endfacet
facet normal -0.000552 0.095228 0.722327
  outer loop
    vertex 0.000000 0.056268 1.123592
    vertex 4.000000 0.185169 1.109656
    vertex 0.000000 0.236850 1.099785
  endloop
endfacet
facet normal 0.000579 0.182448 0.720472
  outer loop
    vertex 0.000000 0.236850 1.099785
    vertex 4.000000 0.185169 1.109656
    vertex 4.000000 0.365287 1.064044
  endloop
endfacet
facet normal -0.000528 0.210545 0.697492
  outer loop
    vertex 0.000000 0.236850 1.099785
    vertex 4.000000 0.365287 1.064044
    vertex 0.000000 0.411223 1.047149
  endloop
endfacet
facet normal 0.000554 0.298546 0.680616
  outer loop
    vertex 0.000000 0.411223 1.047149
    vertex 4.000000 0.365287 1.064044
    vertex 4.000000 0.535441 0.989408
  endloop
endfacet
facet normal -0.000502 0.320342 0.654374
  outer loop
    vertex 0.000000 0.411223 1.047149
    vertex 4.000000 0.535441 0.989408
    vertex 0.000000 0.574816 0.967063
  endloop
endfacet
facet normal 0.000526 0.406500 0.622194
  outer loop
    vertex 0.000000 0.574816 0.967063
    vertex 4.000000 0.535441 0.989408
    vertex 4.000000 0.690989 0.887783
  endloop
endfacet
facet normal -0.000474 0.421743 0.594102
  outer loop
    vertex 0.000000 0.574816 0.967063
    vertex 4.000000 0.690989 0.887783
    vertex 0.000000 0.723341 0.861628
  endloop
endfacet
facet normal 0.000496 0.503365 0.546800
  outer loop
    vertex 0.000000 0.723341 0.861628
    vertex 4.000000 0.690989 0.887783
    vertex 4.000000 0.827689 0.761942
  endloop
endfacet
facet normal -0.000443 0.512088 0.518256
  outer loop
    vertex 0.000000 0.723341 0.861628
    vertex 4.000000 0.827689 0.761942
    vertex 0.000000 0.852906 0.733606
  endloop
endfacet
facet normal 0.000464 0.586500 0.456491
  outer loop
    vertex 0.000000 0.852906 0.733606
    vertex 4.000000 0.827689 0.761942
    vertex 4.000000 0.941812 0.615317
  endloop
endfacet
facet normal -0.000410 0.589010 0.428826
  outer loop
    vertex 0.000000 0.852906 0.733606
    vertex 4.000000 0.941812 0.615317
    vertex 0.000000 0.960112 0.586353
  endloop
endfacet
facet normal 0.000429 0.653637 0.353731
  outer loop
    vertex 0.000000 0.960112 0.586353
    vertex 4.000000 0.941812 0.615317
    vertex 4.000000 1.030245 0.451907
  endloop
endfacet
facet normal -0.000375 0.650491 0.328154
  outer loop
    vertex 0.000000 0.960112 0.586353
    vertex 4.000000 1.030245 0.451907
    vertex 0.000000 1.042150 0.423730
  endloop
endfacet
facet normal 0.000392 0.702945 0.241322
  outer loop
    vertex 0.000000 1.042150 0.423730
    vertex 4.000000 1.030245 0.451907
    vertex 4.000000 1.090575 0.276171
  endloop
endfacet
facet normal -0.000410 0.589010 -0.428826
  outer loop
    vertex 0.000000 0.852906 -0.733606
    vertex 0.000000 0.960112 -0.586353
    vertex 4.000000 0.941812 -0.615317
  endloop
endfacet
facet normal 0.000429 0.653637 -0.353731
  outer loop
    vertex 4.000000 0.941812 -0.615317
    vertex 0.000000 0.960112 -0.586353
    vertex 4.000000 1.030245 -0.451907
  endloop
endfacet
facet normal 0.000000 0.653637 -0.353731
  outer loop
    vertex 4.000000 0.941812 -0.615317
    vertex 4.000000 1.030245 -0.451907
    vertex 8.000000 1.030245 -0.451907
  endloop
endfacet
facet normal 0.000000 0.702945 -0.241322
  outer loop
    vertex 8.000000 1.030245 -0.451907
    vertex 4.000000 1.030245 -0.451907
    vertex 8.000000 1.090575 -0.276171
  endloop
endfacet
facet normal 0.000000 0.702945 -0.241322
  outer loop
    vertex 8.000000 1.030245 -0.451907
    vertex 8.000000 1.090575 -0.276171
    vertex 12.000000 1.090575 -0.276171
  endloop
endfacet
facet normal 0.000000 0.104685 -0.025181
  outer loop
    vertex 12.000000 1.090575 -0.276171
    vertex 8.000000 1.090575 -0.276171
    vertex 0.000000 1.096871 -0.250000
  endloop
endfacet
facet normal 0.000000 0.628108 -0.151085
  outer loop
    vertex 12.000000 1.090575 -0.276171
    vertex 0.000000 1.096871 -0.250000
    vertex 24.000000 1.096871 -0.250000
  endloop
endfacet
facet normal -0.000375 0.650491 -0.328154
  outer loop
    vertex 0.000000 0.960112 -0.586353
    vertex 0.000000 1.042150 -0.423730
    vertex 4.000000 1.030245 -0.451907
  endloop
endfacet
facet normal 0.000392 0.702945 -0.241322
  outer loop
    vertex 4.000000 1.030245 -0.451907
    vertex 0.000000 1.042150 -0.423730
    vertex 4.000000 1.090575 -0.276171
  endloop
endfacet
facet normal 0.000000 0.702945 -0.241322
  outer loop
    vertex 4.000000 1.030245 -0.451907
    vertex 4.000000 1.090575 -0.276171
    vertex 8.000000 1.090575 -0.276171
  endloop
endfacet
facet normal 0.000000 0.104685 -0.025181
  outer loop
    vertex 8.000000 1.090575 -0.276171
    vertex 4.000000 1.090575 -0.276171
    vertex 0.000000 1.096871 -0.250000
  endloop
endfacet
facet normal -0.000338 0.694921 -0.218880
  outer loop
    vertex 0.000000 1.042150 -0.423730
    vertex 0.000000 1.096871 -0.250000
    vertex 4.000000 1.090575 -0.276171
  endloop
endfacet
facet normal 0.000410 0.589010 0.428826
  outer loop
    vertex 24.000000 0.852906 0.733606
    vertex 24.000000 0.960112 0.586353
    vertex 20.000000 0.941812 0.615317
  endloop
endfacet
facet normal -0.000429 0.653637 0.353731
  outer loop
    vertex 20.000000 0.941812 0.615317
    vertex 24.000000 0.960112 0.586353
    vertex 20.000000 1.030245 0.451907
  endloop
endfacet
facet normal 0.000000 0.653637 0.353731
  outer loop
    vertex 20.000000 0.941812 0.615317
    vertex 20.000000 1.030245 0.451907
    vertex 16.000000 1.030245 0.451907
  endloop
endfacet
facet normal -0.000000 0.702945 0.241322
  outer loop
    vertex 16.000000 1.030245 0.451907
    vertex 20.000000 1.030245 0.451907
    vertex 16.000000 1.090575 0.276171
  endloop
endfacet
facet normal 0.000000 0.702945 0.241322
  outer loop
    vertex 16.000000 1.030245 0.451907
    vertex 16.000000 1.090575 0.276171
    vertex 12.000000 1.090575 0.276171
  endloop
endfacet
facet normal -0.000000 0.104685 0.025181
  outer loop
    vertex 12.000000 1.090575 0.276171
    vertex 16.000000 1.090575 0.276171
    vertex 24.000000 1.096871 0.250000
  endloop
endfacet
facet normal 0.000000 0.628108 0.151085
  outer loop
    vertex 12.000000 1.090575 0.276171
    vertex 24.000000 1.096871 0.250000
    vertex 0.000000 1.096871 0.250000
  endloop
endfacet
facet normal 0.000375 0.650491 0.328154
  outer loop
    vertex 24.000000 0.960112 0.586353
    vertex 24.000000 1.042150 0.423730
    vertex 20.000000 1.030245 0.451907
  endloop
endfacet
facet normal -0.000392 0.702945 0.241322
  outer loop
    vertex 20.000000 1.030245 0.451907
    vertex 24.000000 1.042150 0.423730
    vertex 20.000000 1.090575 0.276171
  endloop
endfacet
facet normal 0.000000 0.702945 0.241322
  outer loop
    vertex 20.000000 1.030245 0.451907
    vertex 20.000000 1.090575 0.276171
    vertex 16.000000 1.090575 0.276171
  endloop
endfacet
facet normal -0.000000 0.104685 0.025181
  outer loop
    vertex 16.000000 1.090575 0.276171
    vertex 20.000000 1.090575 0.276171
    vertex 24.000000 1.096871 0.250000
  endloop
endfacet
facet normal 0.000338 0.694921 0.218880
  outer loop
    vertex 24.000000 1.042150 0.423730
    vertex 24.000000 1.096871 0.250000
    vertex 20.000000 1.090575 0.276171
  endloop
endfacet
facet normal -0.000000 0.061374 0.740676
  outer loop
    vertex 4.000000 0.000000 1.125000
    vertex 8.000000 0.000000 1.125000
    vertex 4.000000 0.185169 1.109656
  endloop
endfacet
facet normal -0.000000 0.061374 0.740676
  outer loop
    vertex 4.000000 0.185169 1.109656
    vertex 8.000000 0.000000 1.125000
    vertex 8.000000 0.185169 1.109656
  endloop
endfacet
facet normal -0.000000 0.182448 0.720472
  outer loop
    vertex 4.000000 0.185169 1.109656
    vertex 8.000000 0.185169 1.109656
    vertex 4.000000 0.365287 1.064044
  endloop
endfacet
facet normal -0.000000 0.182448 0.720472
  outer loop
    vertex 4.000000 0.365287 1.064044
    vertex 8.000000 0.185169 1.109656
    vertex 8.000000 0.365287 1.064044
  endloop
endfacet
facet normal -0.000000 0.298546 0.680616
  outer loop
    vertex 4.000000 0.365287 1.064044
    vertex 8.000000 0.365287 1.064044
    vertex 4.000000 0.535441 0.989408
  endloop
endfacet
facet normal -0.000000 0.298546 0.680616
  outer loop
    vertex 4.000000 0.535441 0.989408
    vertex 8.000000 0.365287 1.064044
    vertex 8.000000 0.535441 0.989408
  endloop
endfacet
facet normal -0.000000 0.406500 0.622194
  outer loop
    vertex 4.000000 0.535441 0.989408
    vertex 8.000000 0.535441 0.989408
    vertex 4.000000 0.690989 0.887783
  endloop
endfacet
facet normal -0.000000 0.406500 0.622194
  outer loop
    vertex 4.000000 0.690989 0.887783
    vertex 8.000000 0.535441 0.989408
    vertex 8.000000 0.690989 0.887783
  endloop
endfacet
facet normal -0.000000 0.503365 0.546800
  outer loop
    vertex 4.000000 0.690989 0.887783
    vertex 8.000000 0.690989 0.887783
    vertex 4.000000 0.827689 0.761942
  endloop
endfacet
facet normal -0.000000 0.503365 0.546800
  outer loop
    vertex 4.000000 0.827689 0.761942
    vertex 8.000000 0.690989 0.887783
    vertex 8.000000 0.827689 0.761942
  endloop
endfacet
facet normal -0.000000 0.586500 0.456491
  outer loop
    vertex 4.000000 0.827689 0.761942
    vertex 8.000000 0.827689 0.761942
    vertex 4.000000 0.941812 0.615317
  endloop
endfacet
facet normal -0.000000 0.586500 0.456491
  outer loop
    vertex 4.000000 0.941812 0.615317
    vertex 8.000000 0.827689 0.761942
    vertex 8.000000 0.941812 0.615317
  endloop
endfacet
facet normal -0.000000 0.653637 0.353731
  outer loop
    vertex 4.000000 0.941812 0.615317
    vertex 8.000000 0.941812 0.615317
    vertex 4.000000 1.030245 0.451907
  endloop
endfacet
facet normal -0.000000 0.653637 0.353731
  outer loop
    vertex 4.000000 1.030245 0.451907
    vertex 8.000000 0.941812 0.615317
    vertex 8.000000 1.030245 0.451907
  endloop
endfacet
facet normal -0.000000 0.702945 0.241322
  outer loop
    vertex 4.000000 1.030245 0.451907
    vertex 8.000000 1.030245 0.451907
    vertex 4.000000 1.090575 0.276171
  endloop
endfacet
facet normal -0.000000 0.702945 0.241322
  outer loop
    vertex 4.000000 1.090575 0.276171
    vertex 8.000000 1.030245 0.451907
    vertex 8.000000 1.090575 0.276171
  endloop
endfacet
facet normal -0.000000 0.061374 0.740676
  outer loop
    vertex 8.000000 0.000000 1.125000
    vertex 12.000000 0.000000 1.125000
    vertex 8.000000 0.185169 1.109656
  endloop
endfacet
facet normal -0.000000 0.061374 0.740676
  outer loop
    vertex 8.000000 0.185169 1.109656
    vertex 12.000000 0.000000 1.125000
    vertex 12.000000 0.185169 1.109656
  endloop
endfacet
facet normal -0.000000 0.182448 0.720472
  outer loop
    vertex 8.000000 0.185169 1.109656
    vertex 12.000000 0.185169 1.109656
    vertex 8.000000 0.365287 1.064044
  endloop
endfacet
facet normal -0.000000 0.182448 0.720472
  outer loop
    vertex 8.000000 0.365287 1.064044
    vertex 12.000000 0.185169 1.109656
    vertex 12.000000 0.365287 1.064044
  endloop
endfacet
facet normal -0.000000 0.298546 0.680616
  outer loop
    vertex 8.000000 0.365287 1.064044
    vertex 12.000000 0.365287 1.064044
    vertex 8.000000 0.535441 0.989408
  endloop
endfacet
facet normal -0.000000 0.298546 0.680616
  outer loop
    vertex 8.000000 0.535441 0.989408
    vertex 12.000000 0.365287 1.064044
    vertex 12.000000 0.535441 0.989408
  endloop
endfacet
facet normal -0.000000 0.406500 0.622194
  outer loop
    vertex 8.000000 0.535441 0.989408
    vertex 12.000000 0.535441 0.989408
    vertex 8.000000 0.690989 0.887783
  endloop
endfacet
facet normal -0.000000 0.406500 0.622194
  outer loop
    vertex 8.000000 0.690989 0.887783
    vertex 12.000000 0.535441 0.989408
    vertex 12.000000 0.690989 0.887783
  endloop
endfacet
facet normal -0.000000 0.503365 0.546800
  outer loop
    vertex 8.000000 0.690989 0.887783
    vertex 12.000000 0.690989 0.887783
    vertex 8.000000 0.827689 0.761942
  endloop
endfacet
facet normal -0.000000 0.503365 0.546800
  outer loop
    vertex 8.000000 0.827689 0.761942
    vertex 12.000000 0.690989 0.887783
    vertex 12.000000 0.827689 0.761942
  endloop
endfacet
facet normal -0.000000 0.586500 0.456491
  outer loop
    vertex 8.000000 0.827689 0.761942
    vertex 12.000000 0.827689 0.761942
    vertex 8.000000 0.941812 0.615317
  endloop
endfacet
facet normal -0.000000 0.586500 0.456491
  outer loop
    vertex 8.000000 0.941812 0.615317
    vertex 12.000000 0.827689 0.761942
    vertex 12.000000 0.941812 0.615317
  endloop
endfacet
facet normal -0.000000 0.653637 0.353731
  outer loop
    vertex 8.000000 0.941812 0.615317
    vertex 12.000000 0.941812 0.615317
    vertex 8.000000 1.030245 0.451907
  endloop
endfacet
facet normal -0.000000 0.653637 0.353731
  outer loop
    vertex 8.000000 1.030245 0.451907
    vertex 12.000000 0.941812 0.615317
    vertex 12.000000 1.030245 0.451907
  endloop
endfacet
facet normal -0.000000 0.702945 0.241322
  outer loop
    vertex 8.000000 1.030245 0.451907
    vertex 12.000000 1.030245 0.451907
    vertex 8.000000 1.090575 0.276171
  endloop
endfacet
facet normal 0.000000 -0.061374 0.740676
  outer loop
    vertex 8.000000 0.000000 1.125000
    vertex 4.000000 0.000000 1.125000
    vertex 8.000000 -0.185169 1.109656
  endloop
endfacet
facet normal 0.000000 -0.061374 0.740676
  outer loop
    vertex 8.000000 -0.185169 1.109656
    vertex 4.000000 0.000000 1.125000
    vertex 4.000000 -0.185169 1.109656
  endloop
endfacet
facet normal 0.000000 -0.182448 0.720472
  outer loop
    vertex 8.000000 -0.185169 1.109656
    vertex 4.000000 -0.185169 1.109656
    vertex 8.000000 -0.365287 1.064044
  endloop
endfacet
facet normal 0.000000 -0.182448 0.720472
  outer loop
    vertex 8.000000 -0.365287 1.064044
    vertex 4.000000 -0.185169 1.109656
    vertex 4.000000 -0.365287 1.064044
  endloop
endfacet
facet normal 0.000000 -0.298546 0.680616
  outer loop
    vertex 8.000000 -0.365287 1.064044
    vertex 4.000000 -0.365287 1.064044
    vertex 8.000000 -0.535441 0.989408
  endloop
endfacet
facet normal 0.000000 -0.298546 0.680616
  outer loop
    vertex 8.000000 -0.535441 0.989408
    vertex 4.000000 -0.365287 1.064044
    vertex 4.000000 -0.535441 0.989408
  endloop
endfacet
facet normal 0.000000 -0.406500 0.622194
  outer loop
    vertex 8.000000 -0.535441 0.989408
    vertex 4.000000 -0.535441 0.989408
    vertex 8.000000 -0.690989 0.887783
  endloop
endfacet
facet normal 0.000000 -0.406500 0.622194
  outer loop
    vertex 8.000000 -0.690989 0.887783
    vertex 4.000000 -0.535441 0.989408
    vertex 4.000000 -0.690989 0.887783
  endloop
endfacet
facet normal 0.000000 -0.503365 0.546800
  outer loop
    vertex 8.000000 -0.690989 0.887783
    vertex 4.000000 -0.690989 0.887783
    vertex 8.000000 -0.827689 0.761942
  endloop
endfacet
facet normal 0.000000 -0.503365 0.546800
  outer loop
    vertex 8.000000 -0.827689 0.761942
    vertex 4.000000 -0.690989 0.887783
    vertex 4.000000 -0.827689 0.761942
  endloop
endfacet
facet normal 0.000000 -0.586500 0.456491
  outer loop
    vertex 8.000000 -0.827689 0.761942
    vertex 4.000000 -0.827689 0.761942
    vertex 8.000000 -0.941812 0.615317
  endloop
endfacet
facet normal 0.000000 -0.586500 0.456491
  outer loop
    vertex 8.000000 -0.941812 0.615317
    vertex 4.000000 -0.827689 0.761942
    vertex 4.000000 -0.941812 0.615317
  endloop
endfacet
facet normal 0.000000 -0.653637 0.353731
  outer loop
    vertex 8.000000 -0.941812 0.615317
    vertex 4.000000 -0.941812 0.615317
    vertex 8.000000 -1.030245 0.451907
  endloop
endfacet
facet normal 0.000000 -0.653637 0.353731
  outer loop
    vertex 8.000000 -1.030245 0.451907
    vertex 4.000000 -0.941812 0.615317
    vertex 4.000000 -1.030245 0.451907
  endloop
endfacet
facet normal 0.000000 -0.702945 0.241322
  outer loop
    vertex 8.000000 -1.030245 0.451907
    vertex 4.000000 -1.030245 0.451907
    vertex 8.000000 -1.090575 0.276171
  endloop
endfacet
facet normal 0.000000 -0.702945 0.241322
  outer loop
    vertex 8.000000 -1.090575 0.276171
    vertex 4.000000 -1.030245 0.451907
    vertex 4.000000 -1.090575 0.276171
  endloop
endfacet
facet normal 0.000000 -0.733078 0.122329
  outer loop
    vertex 8.000000 -1.090575 0.276171
    vertex 4.000000 -1.090575 0.276171
    vertex 8.000000 -1.121158 0.092902
  endloop
endfacet
facet normal 0.000000 -0.733078 0.122329
  outer loop
    vertex 8.000000 -1.121158 0.092902
    vertex 4.000000 -1.090575 0.276171
    vertex 4.000000 -1.121158 0.092902
  endloop
endfacet
facet normal -0.000000 -0.743214 -0.000000
  outer loop
    vertex 8.000000 -1.121158 0.092902
    vertex 4.000000 -1.121158 0.092902
    vertex 8.000000 -1.121158 -0.092902
  endloop
endfacet
facet normal 0.000000 -0.743214 0.000000
  outer loop
    vertex 8.000000 -1.121158 -0.092902
    vertex 4.000000 -1.121158 0.092902
    vertex 4.000000 -1.121158 -0.092902
  endloop
endfacet
facet normal -0.000000 -0.733078 -0.122329
  outer loop
    vertex 8.000000 -1.121158 -0.092902
    vertex 4.000000 -1.121158 -0.092902
    vertex 8.000000 -1.090575 -0.276171
  endloop
endfacet
facet normal -0.000000 -0.733078 -0.122329
  outer loop
    vertex 8.000000 -1.090575 -0.276171
    vertex 4.000000 -1.121158 -0.092902
    vertex 4.000000 -1.090575 -0.276171
  endloop
endfacet
facet normal -0.000000 -0.702945 -0.241322
  outer loop
    vertex 8.000000 -1.090575 -0.276171
    vertex 4.000000 -1.090575 -0.276171
    vertex 8.000000 -1.030245 -0.451907
  endloop
endfacet
facet normal -0.000000 -0.702945 -0.241322
  outer loop
    vertex 8.000000 -1.030245 -0.451907
    vertex 4.000000 -1.090575 -0.276171
    vertex 4.000000 -1.030245 -0.451907
  endloop
endfacet
facet normal -0.000000 -0.653637 -0.353731
  outer loop
    vertex 8.000000 -1.030245 -0.451907
    vertex 4.000000 -1.030245 -0.451907
    vertex 8.000000 -0.941812 -0.615317
  endloop
endfacet
facet normal -0.000000 -0.653637 -0.353731
  outer loop
    vertex 8.000000 -0.941812 -0.615317
    vertex 4.000000 -1.030245 -0.451907
    vertex 4.000000 -0.941812 -0.615317
  endloop
endfacet
facet normal -0.000000 -0.586500 -0.456491
  outer loop
    vertex 8.000000 -0.941812 -0.615317
    vertex 4.000000 -0.941812 -0.615317
    vertex 8.000000 -0.827689 -0.761942
  endloop
endfacet
facet normal -0.000000 -0.586500 -0.456491
  outer loop
    vertex 8.000000 -0.827689 -0.761942
    vertex 4.000000 -0.941812 -0.615317
    vertex 4.000000 -0.827689 -0.761942
  endloop
endfacet
facet normal -0.000000 -0.503365 -0.546800
  outer loop
    vertex 8.000000 -0.827689 -0.761942
    vertex 4.000000 -0.827689 -0.761942
    vertex 8.000000 -0.690989 -0.887783
  endloop
endfacet
facet normal -0.000000 -0.503365 -0.546800
  outer loop
    vertex 8.000000 -0.690989 -0.887783
    vertex 4.000000 -0.827689 -0.761942
    vertex 4.000000 -0.690989 -0.887783
  endloop
endfacet
facet normal -0.000000 -0.406500 -0.622194
  outer loop
    vertex 8.000000 -0.690989 -0.887783
    vertex 4.000000 -0.690989 -0.887783
    vertex 8.000000 -0.535441 -0.989408
  endloop
endfacet
facet normal -0.000000 -0.406500 -0.622194
  outer loop
    vertex 8.000000 -0.535441 -0.989408
    vertex 4.000000 -0.690989 -0.887783
    vertex 4.000000 -0.535441 -0.989408
  endloop
endfacet
facet normal -0.000000 -0.298546 -0.680616
  outer loop
    vertex 8.000000 -0.535441 -0.989408
    vertex 4.000000 -0.535441 -0.989408
    vertex 8.000000 -0.365287 -1.064044
  endloop
endfacet
facet normal -0.000000 -0.298546 -0.680616
  outer loop
    vertex 8.000000 -0.365287 -1.064044
    vertex 4.000000 -0.535441 -0.989408
    vertex 4.000000 -0.365287 -1.064044
  endloop
endfacet
facet normal -0.000000 -0.182448 -0.720472
  outer loop
    vertex 8.000000 -0.365287 -1.064044
    vertex 4.000000 -0.365287 -1.064044
    vertex 8.000000 -0.185169 -1.109656
  endloop
endfacet
facet normal -0.000000 -0.182448 -0.720472
  outer loop
    vertex 8.000000 -0.185169 -1.109656
    vertex 4.000000 -0.365287 -1.064044
    vertex 4.000000 -0.185169 -1.109656
  endloop
endfacet
facet normal -0.000000 -0.061374 -0.740676
  outer loop
    vertex 8.000000 -0.185169 -1.109656
    vertex 4.000000 -0.185169 -1.109656
    vertex 8.000000 0.000000 -1.125000
  endloop
endfacet
facet normal -0.000000 -0.061374 -0.740676
  outer loop
    vertex 8.000000 0.000000 -1.125000
    vertex 4.000000 -0.185169 -1.109656
    vertex 4.000000 0.000000 -1.125000
  endloop
endfacet
facet normal 0.000000 0.061374 -0.740676
  outer loop
    vertex 8.000000 0.000000 -1.125000
    vertex 4.000000 0.000000 -1.125000
    vertex 8.000000 0.185169 -1.109656
  endloop
endfacet
facet normal 0.000000 0.061374 -0.740676
  outer loop
    vertex 8.000000 0.185169 -1.109656
    vertex 4.000000 0.000000 -1.125000
    vertex 4.000000 0.185169 -1.109656
  endloop
endfacet
facet normal 0.000000 0.182448 -0.720472
  outer loop
    vertex 8.000000 0.185169 -1.109656
    vertex 4.000000 0.185169 -1.109656
    vertex 8.000000 0.365287 -1.064044
  endloop
endfacet
facet normal 0.000000 0.182448 -0.720472
  outer loop
    vertex 8.000000 0.365287 -1.064044
    vertex 4.000000 0.185169 -1.109656
    vertex 4.000000 0.365287 -1.064044
  endloop
endfacet
facet normal 0.000000 0.298546 -0.680616
  outer loop
    vertex 8.000000 0.365287 -1.064044
    vertex 4.000000 0.365287 -1.064044
    vertex 8.000000 0.535441 -0.989408
  endloop
endfacet
facet normal 0.000000 0.298546 -0.680616
  outer loop
    vertex 8.000000 0.535441 -0.989408
    vertex 4.000000 0.365287 -1.064044
    vertex 4.000000 0.535441 -0.989408
  endloop
endfacet
facet normal 0.000000 0.406500 -0.622194
  outer loop
    vertex 8.000000 0.535441 -0.989408
    vertex 4.000000 0.535441 -0.989408
    vertex 8.000000 0.690989 -0.887783
  endloop
endfacet
facet normal 0.000000 0.406500 -0.622194
  outer loop
    vertex 8.000000 0.690989 -0.887783
    vertex 4.000000 0.535441 -0.989408
    vertex 4.000000 0.690989 -0.887783
  endloop
endfacet
facet normal 0.000000 0.503365 -0.546800
  outer loop
    vertex 8.000000 0.690989 -0.887783
    vertex 4.000000 0.690989 -0.887783
    vertex 8.000000 0.827689 -0.761942
  endloop
endfacet
facet normal 0.000000 0.503365 -0.546800
  outer loop
    vertex 8.000000 0.827689 -0.761942
    vertex 4.000000 0.690989 -0.887783
    vertex 4.000000 0.827689 -0.761942
  endloop
endfacet
facet normal 0.000000 0.586500 -0.456491
  outer loop
    vertex 8.000000 0.827689 -0.761942
    vertex 4.000000 0.827689 -0.761942
    vertex 8.000000 0.941812 -0.615317
  endloop
endfacet
facet normal -0.000000 0.061374 0.740676
  outer loop
    vertex 12.000000 0.000000 1.125000
    vertex 16.000000 0.000000 1.125000
    vertex 12.000000 0.185169 1.109656
  endloop
endfacet
facet normal -0.000000 0.061374 0.740676
  outer loop
    vertex 12.000000 0.185169 1.109656
    vertex 16.000000 0.000000 1.125000
    vertex 16.000000 0.185169 1.109656
  endloop
endfacet
facet normal -0.000000 0.182448 0.720472
  outer loop
    vertex 12.000000 0.185169 1.109656
    vertex 16.000000 0.185169 1.109656
    vertex 12.000000 0.365287 1.064044
  endloop
endfacet
facet normal -0.000000 0.182448 0.720472
  outer loop
    vertex 12.000000 0.365287 1.064044
    vertex 16.000000 0.185169 1.109656
    vertex 16.000000 0.365287 1.064044
  endloop
endfacet
facet normal -0.000000 0.298546 0.680616
  outer loop
    vertex 12.000000 0.365287 1.064044
    vertex 16.000000 0.365287 1.064044
    vertex 12.000000 0.535441 0.989408
  endloop
endfacet
facet normal -0.000000 0.298546 0.680616
  outer loop
    vertex 12.000000 0.535441 0.989408
    vertex 16.000000 0.365287 1.064044
    vertex 16.000000 0.535441 0.989408
  endloop
endfacet
facet normal -0.000000 0.406500 0.622194
  outer loop
    vertex 12.000000 0.535441 0.989408
    vertex 16.000000 0.535441 0.989408
    vertex 12.000000 0.690989 0.887783
  endloop
endfacet
facet normal -0.000000 0.406500 0.622194
  outer loop
    vertex 12.000000 0.690989 0.887783
    vertex 16.000000 0.535441 0.989408
    vertex 16.000000 0.690989 0.887783
  endloop
endfacet
facet normal -0.000000 0.503365 0.546800
  outer loop
    vertex 12.000000 0.690989 0.887783
    vertex 16.000000 0.690989 0.887783
    vertex 12.000000 0.827689 0.761942
  endloop
endfacet
facet normal -0.000000 0.503365 0.546800
  outer loop
    vertex 12.000000 0.827689 0.761942
    vertex 16.000000 0.690989 0.887783
    vertex 16.000000 0.827689 0.761942
  endloop
endfacet
facet normal -0.000000 0.586500 0.456491
  outer loop
    vertex 12.000000 0.827689 0.761942
    vertex 16.000000 0.827689 0.761942
    vertex 12.000000 0.941812 0.615317
  endloop
endfacet
facet normal -0.000000 0.586500 0.456491
  outer loop
    vertex 12.000000 0.941812 0.615317
    vertex 16.000000 0.827689 0.761942
    vertex 16.000000 0.941812 0.615317
  endloop
endfacet
facet normal -0.000000 0.653637 0.353731
  outer loop
    vertex 12.000000 0.941812 0.615317
    vertex 16.000000 0.941812 0.615317
    vertex 12.000000 1.030245 0.451907
  endloop
endfacet
facet normal 0.000000 -0.061374 0.740676
  outer loop
    vertex 12.000000 0.000000 1.125000
    vertex 8.000000 0.000000 1.125000
    vertex 12.000000 -0.185169 1.109656
  endloop
endfacet
facet normal 0.000000 -0.061374 0.740676
  outer loop
    vertex 12.000000 -0.185169 1.109656
    vertex 8.000000 0.000000 1.125000
    vertex 8.000000 -0.185169 1.109656
  endloop
endfacet
facet normal 0.000000 -0.182448 0.720472
  outer loop
    vertex 12.000000 -0.185169 1.109656
    vertex 8.000000 -0.185169 1.109656
    vertex 12.000000 -0.365287 1.064044
  endloop
endfacet
facet normal 0.000000 -0.182448 0.720472
  outer loop
    vertex 12.000000 -0.365287 1.064044
    vertex 8.000000 -0.185169 1.109656
    vertex 8.000000 -0.365287 1.064044
  endloop
endfacet
facet normal 0.000000 -0.298546 0.680616
  outer loop
    vertex 12.000000 -0.365287 1.064044
    vertex 8.000000 -0.365287 1.064044
    vertex 12.000000 -0.535441 0.989408
  endloop
endfacet
facet normal 0.000000 -0.298546 0.680616
  outer loop
    vertex 12.000000 -0.535441 0.989408
    vertex 8.000000 -0.365287 1.064044
    vertex 8.000000 -0.535441 0.989408
  endloop
endfacet
facet normal 0.000000 -0.406500 0.622194
  outer loop
    vertex 12.000000 -0.535441 0.989408
    vertex 8.000000 -0.535441 0.989408
    vertex 12.000000 -0.690989 0.887783
  endloop
endfacet
facet normal 0.000000 -0.406500 0.622194
  outer loop
    vertex 12.000000 -0.690989 0.887783
    vertex 8.000000 -0.535441 0.989408
    vertex 8.000000 -0.690989 0.887783
  endloop
endfacet
facet normal 0.000000 -0.503365 0.546800
  outer loop
    vertex 12.000000 -0.690989 0.887783
    vertex 8.000000 -0.690989 0.887783
    vertex 12.000000 -0.827689 0.761942
  endloop
endfacet
facet normal 0.000000 -0.503365 0.546800
  outer loop
    vertex 12.000000 -0.827689 0.761942
    vertex 8.000000 -0.690989 0.887783
    vertex 8.000000 -0.827689 0.761942
  endloop
endfacet
facet normal 0.000000 -0.586500 0.456491
  outer loop
    vertex 12.000000 -0.827689 0.761942
    vertex 8.000000 -0.827689 0.761942
    vertex 12.000000 -0.941812 0.615317
  endloop
endfacet
facet normal 0.000000 -0.586500 0.456491
  outer loop
    vertex 12.000000 -0.941812 0.615317
    vertex 8.000000 -0.827689 0.761942
    vertex 8.000000 -0.941812 0.615317
  endloop
endfacet
facet normal 0.000000 -0.653637 0.353731
  outer loop
    vertex 12.000000 -0.941812 0.615317
    vertex 8.000000 -0.941812 0.615317
    vertex 12.000000 -1.030245 0.451907
  endloop
endfacet
facet normal 0.000000 -0.653637 0.353731
  outer loop
    vertex 12.000000 -1.030245 0.451907
    vertex 8.000000 -0.941812 0.615317
    vertex 8.000000 -1.030245 0.451907
  endloop
endfacet
facet normal 0.000000 -0.702945 0.241322
  outer loop
    vertex 12.000000 -1.030245 0.451907
    vertex 8.000000 -1.030245 0.451907
    vertex 12.000000 -1.090575 0.276171
  endloop
endfacet
facet normal 0.000000 -0.702945 0.241322
  outer loop
    vertex 12.000000 -1.090575 0.276171
    vertex 8.000000 -1.030245 0.451907
    vertex 8.000000 -1.090575 0.276171
  endloop
endfacet
facet normal 0.000000 -0.733078 0.122329
  outer loop
    vertex 12.000000 -1.090575 0.276171
    vertex 8.000000 -1.090575 0.276171
    vertex 12.000000 -1.121158 0.092902
  endloop
endfacet
facet normal 0.000000 -0.733078 0.122329
  outer loop
    vertex 12.000000 -1.121158 0.092902
    vertex 8.000000 -1.090575 0.276171
    vertex 8.000000 -1.121158 0.092902
  endloop
endfacet
facet normal -0.000000 -0.743214 -0.000000
  outer loop
    vertex 12.000000 -1.121158 0.092902
    vertex 8.000000 -1.121158 0.092902
    vertex 12.000000 -1.121158 -0.092902
  endloop
endfacet
facet normal 0.000000 -0.743214 0.000000
  outer loop
    vertex 12.000000 -1.121158 -0.092902
    vertex 8.000000 -1.121158 0.092902
    vertex 8.000000 -1.121158 -0.092902
  endloop
endfacet
facet normal -0.000000 -0.733078 -0.122329
  outer loop
    vertex 12.000000 -1.121158 -0.092902
    vertex 8.000000 -1.121158 -0.092902
    vertex 12.000000 -1.090575 -0.276171
  endloop
endfacet
facet normal -0.000000 -0.733078 -0.122329
  outer loop
    vertex 12.000000 -1.090575 -0.276171
    vertex 8.000000 -1.121158 -0.092902
    vertex 8.000000 -1.090575 -0.276171
  endloop
endfacet
facet normal -0.000000 -0.702945 -0.241322
  outer loop
    vertex 12.000000 -1.090575 -0.276171
    vertex 8.000000 -1.090575 -0.276171
    vertex 12.000000 -1.030245 -0.451907
  endloop
endfacet
facet normal -0.000000 -0.702945 -0.241322
  outer loop
    vertex 12.000000 -1.030245 -0.451907
    vertex 8.000000 -1.090575 -0.276171
    vertex 8.000000 -1.030245 -0.451907
  endloop
endfacet
facet normal -0.000000 -0.653637 -0.353731
  outer loop
    vertex 12.000000 -1.030245 -0.451907
    vertex 8.000000 -1.030245 -0.451907
    vertex 12.000000 -0.941812 -0.615317
  endloop
endfacet
facet normal -0.000000 -0.653637 -0.353731
  outer loop
    vertex 12.000000 -0.941812 -0.615317
    vertex 8.000000 -1.030245 -0.451907
    vertex 8.000000 -0.941812 -0.615317
  endloop
endfacet
facet normal -0.000000 -0.586500 -0.456491
  outer loop
    vertex 12.000000 -0.941812 -0.615317
    vertex 8.000000 -0.941812 -0.615317
    vertex 12.000000 -0.827689 -0.761942
  endloop
endfacet
facet normal -0.000000 -0.586500 -0.456491
  outer loop
    vertex 12.000000 -0.827689 -0.761942
    vertex 8.000000 -0.941812 -0.615317
    vertex 8.000000 -0.827689 -0.761942
  endloop
endfacet
facet normal -0.000000 -0.503365 -0.546800
  outer loop
    vertex 12.000000 -0.827689 -0.761942
    vertex 8.000000 -0.827689 -0.761942
    vertex 12.000000 -0.690989 -0.887783
  endloop
endfacet
facet normal -0.000000 -0.503365 -0.546800
  outer loop
    vertex 12.000000 -0.690989 -0.887783
    vertex 8.000000 -0.827689 -0.761942
    vertex 8.000000 -0.690989 -0.887783
  endloop
endfacet
facet normal -0.000000 -0.406500 -0.622194
  outer loop
    vertex 12.000000 -0.690989 -0.887783
    vertex 8.000000 -0.690989 -0.887783
    vertex 12.000000 -0.535441 -0.989408
  endloop
endfacet
facet normal -0.000000 -0.406500 -0.622194
  outer loop
    vertex 12.000000 -0.535441 -0.989408
    vertex 8.000000 -0.690989 -0.887783
    vertex 8.000000 -0.535441 -0.989408
  endloop
endfacet
facet normal -0.000000 -0.298546 -0.680616
  outer loop
    vertex 12.000000 -0.535441 -0.989408
    vertex 8.000000 -0.535441 -0.989408
    vertex 12.000000 -0.365287 -1.064044
  endloop
endfacet
facet normal -0.000000 -0.298546 -0.680616
  outer loop
    vertex 12.000000 -0.365287 -1.064044
    vertex 8.000000 -0.535441 -0.989408
    vertex 8.000000 -0.365287 -1.064044
  endloop
endfacet
facet normal -0.000000 -0.182448 -0.720472
  outer loop
    vertex 12.000000 -0.365287 -1.064044
    vertex 8.000000 -0.365287 -1.064044
    vertex 12.000000 -0.185169 -1.109656
  endloop
endfacet
facet normal -0.000000 -0.182448 -0.720472
  outer loop
    vertex 12.000000 -0.185169 -1.109656
    vertex 8.000000 -0.365287 -1.064044
    vertex 8.000000 -0.185169 -1.109656
  endloop
endfacet
facet normal -0.000000 -0.061374 -0.740676
  outer loop
    vertex 12.000000 -0.185169 -1.109656
    vertex 8.000000 -0.185169 -1.109656
    vertex 12.000000 0.000000 -1.125000
  endloop
endfacet
facet normal -0.000000 -0.061374 -0.740676
  outer loop
    vertex 12.000000 0.000000 -1.125000
    vertex 8.000000 -0.185169 -1.109656
    vertex 8.000000 0.000000 -1.125000
  endloop
endfacet
facet normal 0.000000 0.061374 -0.740676
  outer loop
    vertex 12.000000 0.000000 -1.125000
    vertex 8.000000 0.000000 -1.125000
    vertex 12.000000 0.185169 -1.109656
  endloop
endfacet
facet normal 0.000000 0.061374 -0.740676
  outer loop
    vertex 12.000000 0.185169 -1.109656
    vertex 8.000000 0.000000 -1.125000
    vertex 8.000000 0.185169 -1.109656
  endloop
endfacet
facet normal 0.000000 0.182448 -0.720472
  outer loop
    vertex 12.000000 0.185169 -1.109656
    vertex 8.000000 0.185169 -1.109656
    vertex 12.000000 0.365287 -1.064044
  endloop
endfacet
facet normal 0.000000 0.182448 -0.720472
  outer loop
    vertex 12.000000 0.365287 -1.064044
    vertex 8.000000 0.185169 -1.109656
    vertex 8.000000 0.365287 -1.064044
  endloop
endfacet
facet normal 0.000000 0.298546 -0.680616
  outer loop
    vertex 12.000000 0.365287 -1.064044
    vertex 8.000000 0.365287 -1.064044
    vertex 12.000000 0.535441 -0.989408
  endloop
endfacet
facet normal 0.000000 0.298546 -0.680616
  outer loop
    vertex 12.000000 0.535441 -0.989408
    vertex 8.000000 0.365287 -1.064044
    vertex 8.000000 0.535441 -0.989408
  endloop
endfacet
facet normal 0.000000 0.406500 -0.622194
  outer loop
    vertex 12.000000 0.535441 -0.989408
    vertex 8.000000 0.535441 -0.989408
    vertex 12.000000 0.690989 -0.887783
  endloop
endfacet
facet normal 0.000000 0.406500 -0.622194
  outer loop
    vertex 12.000000 0.690989 -0.887783
    vertex 8.000000 0.535441 -0.989408
    vertex 8.000000 0.690989 -0.887783
  endloop
endfacet
facet normal 0.000000 0.503365 -0.546800
  outer loop
    vertex 12.000000 0.690989 -0.887783
    vertex 8.000000 0.690989 -0.887783
    vertex 12.000000 0.827689 -0.761942
  endloop
endfacet
facet normal 0.000000 0.503365 -0.546800
  outer loop
    vertex 12.000000 0.827689 -0.761942
    vertex 8.000000 0.690989 -0.887783
    vertex 8.000000 0.827689 -0.761942
  endloop
endfacet
facet normal 0.000000 0.586500 -0.456491
  outer loop
    vertex 12.000000 0.827689 -0.761942
    vertex 8.000000 0.827689 -0.761942
    vertex 12.000000 0.941812 -0.615317
  endloop
endfacet
facet normal 0.000000 0.586500 -0.456491
  outer loop
    vertex 12.000000 0.941812 -0.615317
    vertex 8.000000 0.827689 -0.761942
    vertex 8.000000 0.941812 -0.615317
  endloop
endfacet
facet normal 0.000000 0.653637 -0.353731
  outer loop
    vertex 12.000000 0.941812 -0.615317
    vertex 8.000000 0.941812 -0.615317
    vertex 12.000000 1.030245 -0.451907
  endloop
endfacet
facet normal 0.000000 0.061374 0.740676
  outer loop
    vertex 16.000000 0.000000 1.125000
    vertex 20.000000 -0.000000 1.125000
    vertex 16.000000 0.185169 1.109656
  endloop
endfacet
facet normal -0.000000 0.061374 0.740676
  outer loop
    vertex 16.000000 0.185169 1.109656
    vertex 20.000000 -0.000000 1.125000
    vertex 20.000000 0.185169 1.109656
  endloop
endfacet
facet normal -0.000000 0.182448 0.720472
  outer loop
    vertex 16.000000 0.185169 1.109656
    vertex 20.000000 0.185169 1.109656
    vertex 16.000000 0.365287 1.064044
  endloop
endfacet
facet normal -0.000000 0.182448 0.720472
  outer loop
    vertex 16.000000 0.365287 1.064044
    vertex 20.000000 0.185169 1.109656
    vertex 20.000000 0.365287 1.064044
  endloop
endfacet
facet normal -0.000000 0.298546 0.680616
  outer loop
    vertex 16.000000 0.365287 1.064044
    vertex 20.000000 0.365287 1.064044
    vertex 16.000000 0.535441 0.989408
  endloop
endfacet
facet normal -0.000000 0.298546 0.680616
  outer loop
    vertex 16.000000 0.535441 0.989408
    vertex 20.000000 0.365287 1.064044
    vertex 20.000000 0.535441 0.989408
  endloop
endfacet
facet normal -0.000000 0.406500 0.622194
  outer loop
    vertex 16.000000 0.535441 0.989408
    vertex 20.000000 0.535441 0.989408
    vertex 16.000000 0.690989 0.887783
  endloop
endfacet
facet normal -0.000000 0.406500 0.622194
  outer loop
    vertex 16.000000 0.690989 0.887783
    vertex 20.000000 0.535441 0.989408
    vertex 20.000000 0.690989 0.887783
  endloop
endfacet
facet normal -0.000000 0.503365 0.546800
  outer loop
    vertex 16.000000 0.690989 0.887783
    vertex 20.000000 0.690989 0.887783
    vertex 16.000000 0.827689 0.761942
  endloop
endfacet
facet normal -0.000000 0.503365 0.546800
  outer loop
    vertex 16.000000 0.827689 0.761942
    vertex 20.000000 0.690989 0.887783
    vertex 20.000000 0.827689 0.761942
  endloop
endfacet
facet normal -0.000000 0.586500 0.456491
  outer loop
    vertex 16.000000 0.827689 0.761942
    vertex 20.000000 0.827689 0.761942
    vertex 16.000000 0.941812 0.615317
  endloop
endfacet
facet normal 0.000000 -0.061374 0.740676
  outer loop
    vertex 16.000000 0.000000 1.125000
    vertex 12.000000 0.000000 1.125000
    vertex 16.000000 -0.185169 1.109656
  endloop
endfacet
facet normal 0.000000 -0.061374 0.740676
  outer loop
    vertex 16.000000 -0.185169 1.109656
    vertex 12.000000 0.000000 1.125000
    vertex 12.000000 -0.185169 1.109656
  endloop
endfacet
facet normal 0.000000 -0.182448 0.720472
  outer loop
    vertex 16.000000 -0.185169 1.109656
    vertex 12.000000 -0.185169 1.109656
    vertex 16.000000 -0.365287 1.064044
  endloop
endfacet
facet normal 0.000000 -0.182448 0.720472
  outer loop
    vertex 16.000000 -0.365287 1.064044
    vertex 12.000000 -0.185169 1.109656
    vertex 12.000000 -0.365287 1.064044
  endloop
endfacet
facet normal 0.000000 -0.298546 0.680616
  outer loop
    vertex 16.000000 -0.365287 1.064044
    vertex 12.000000 -0.365287 1.064044
    vertex 16.000000 -0.535441 0.989408
  endloop
endfacet
facet normal 0.000000 -0.298546 0.680616
  outer loop
    vertex 16.000000 -0.535441 0.989408
    vertex 12.000000 -0.365287 1.064044
    vertex 12.000000 -0.535441 0.989408
  endloop
endfacet
facet normal 0.000000 -0.406500 0.622194
  outer loop
    vertex 16.000000 -0.535441 0.989408
    vertex 12.000000 -0.535441 0.989408
    vertex 16.000000 -0.690989 0.887783
  endloop
endfacet
facet normal 0.000000 -0.406500 0.622194
  outer loop
    vertex 16.000000 -0.690989 0.887783
    vertex 12.000000 -0.535441 0.989408
    vertex 12.000000 -0.690989 0.887783
  endloop
endfacet
facet normal 0.000000 -0.503365 0.546800
  outer loop
    vertex 16.000000 -0.690989 0.887783
    vertex 12.000000 -0.690989 0.887783
    vertex 16.000000 -0.827689 0.761942
  endloop
endfacet
facet normal 0.000000 -0.503365 0.546800
  outer loop
    vertex 16.000000 -0.827689 0.761942
    vertex 12.000000 -0.690989 0.887783
    vertex 12.000000 -0.827689 0.761942
  endloop
endfacet
facet normal 0.000000 -0.586500 0.456491
  outer loop
    vertex 16.000000 -0.827689 0.761942
    vertex 12.000000 -0.827689 0.761942
    vertex 16.000000 -0.941812 0.615317
  endloop
endfacet
facet normal 0.000000 -0.586500 0.456491
  outer loop
    vertex 16.000000 -0.941812 0.615317
    vertex 12.000000 -0.827689 0.761942
    vertex 12.000000 -0.941812 0.615317
  endloop
endfacet
facet normal 0.000000 -0.653637 0.353731
  outer loop
    vertex 16.000000 -0.941812 0.615317
    vertex 12.000000 -0.941812 0.615317
    vertex 16.000000 -1.030245 0.451907
  endloop
endfacet
facet normal 0.000000 -0.653637 0.353731
  outer loop
    vertex 16.000000 -1.030245 0.451907
    vertex 12.000000 -0.941812 0.615317
    vertex 12.000000 -1.030245 0.451907
  endloop
endfacet
facet normal 0.000000 -0.702945 0.241322
  outer loop
    vertex 16.000000 -1.030245 0.451907
    vertex 12.000000 -1.030245 0.451907
    vertex 16.000000 -1.090575 0.276171
  endloop
endfacet
facet normal 0.000000 -0.702945 0.241322
  outer loop
    vertex 16.000000 -1.090575 0.276171
    vertex 12.000000 -1.030245 0.451907
    vertex 12.000000 -1.090575 0.276171
  endloop
endfacet
facet normal 0.000000 -0.733078 0.122329
  outer loop
    vertex 16.000000 -1.090575 0.276171
    vertex 12.000000 -1.090575 0.276171
    vertex 16.000000 -1.121158 0.092902
  endloop
endfacet
facet normal 0.000000 -0.733078 0.122329
  outer loop
    vertex 16.000000 -1.121158 0.092902
    vertex 12.000000 -1.090575 0.276171
    vertex 12.000000 -1.121158 0.092902
  endloop
endfacet
facet normal -0.000000 -0.743214 -0.000000
  outer loop
    vertex 16.000000 -1.121158 0.092902
    vertex 12.000000 -1.121158 0.092902
    vertex 16.000000 -1.121158 -0.092902
  endloop
endfacet
facet normal 0.000000 -0.743214 0.000000
  outer loop
    vertex 16.000000 -1.121158 -0.092902
    vertex 12.000000 -1.121158 0.092902
    vertex 12.000000 -1.121158 -0.092902
  endloop
endfacet
facet normal -0.000000 -0.733078 -0.122329
  outer loop
    vertex 16.000000 -1.121158 -0.092902
    vertex 12.000000 -1.121158 -0.092902
    vertex 16.000000 -1.090575 -0.276171
  endloop
endfacet
facet normal -0.000000 -0.733078 -0.122329
  outer loop
    vertex 16.000000 -1.090575 -0.276171
    vertex 12.000000 -1.121158 -0.092902
    vertex 12.000000 -1.090575 -0.276171
  endloop
endfacet
facet normal -0.000000 -0.702945 -0.241322
  outer loop
    vertex 16.000000 -1.090575 -0.276171
    vertex 12.000000 -1.090575 -0.276171
    vertex 16.000000 -1.030245 -0.451907
  endloop
endfacet
facet normal -0.000000 -0.702945 -0.241322
  outer loop
    vertex 16.000000 -1.030245 -0.451907
    vertex 12.000000 -1.090575 -0.276171
    vertex 12.000000 -1.030245 -0.451907
  endloop
endfacet
facet normal -0.000000 -0.653637 -0.353731
  outer loop
    vertex 16.000000 -1.030245 -0.451907
    vertex 12.000000 -1.030245 -0.451907
    vertex 16.000000 -0.941812 -0.615317
  endloop
endfacet
facet normal -0.000000 -0.653637 -0.353731
  outer loop
    vertex 16.000000 -0.941812 -0.615317
    vertex 12.000000 -1.030245 -0.451907
    vertex 12.000000 -0.941812 -0.615317
  endloop
endfacet
facet normal -0.000000 -0.586500 -0.456491
  outer loop
    vertex 16.000000 -0.941812 -0.615317
    vertex 12.000000 -0.941812 -0.615317
    vertex 16.000000 -0.827689 -0.761942
  endloop
endfacet
facet normal -0.000000 -0.586500 -0.456491
  outer loop
    vertex 16.000000 -0.827689 -0.761942
    vertex 12.000000 -0.941812 -0.615317
    vertex 12.000000 -0.827689 -0.761942
  endloop
endfacet
facet normal -0.000000 -0.503365 -0.546800
  outer loop
    vertex 16.000000 -0.827689 -0.761942
    vertex 12.000000 -0.827689 -0.761942
    vertex 16.000000 -0.690989 -0.887783
  endloop
endfacet
facet normal -0.000000 -0.503365 -0.546800
  outer loop
    vertex 16.000000 -0.690989 -0.887783
    vertex 12.000000 -0.827689 -0.761942
    vertex 12.000000 -0.690989 -0.887783
  endloop
endfacet
facet normal -0.000000 -0.406500 -0.622194
  outer loop
    vertex 16.000000 -0.690989 -0.887783
    vertex 12.000000 -0.690989 -0.887783
    vertex 16.000000 -0.535441 -0.989408
  endloop
endfacet
facet normal -0.000000 -0.406500 -0.622194
  outer loop
    vertex 16.000000 -0.535441 -0.989408
    vertex 12.000000 -0.690989 -0.887783
    vertex 12.000000 -0.535441 -0.989408
  endloop
endfacet
facet normal -0.000000 -0.298546 -0.680616
  outer loop
    vertex 16.000000 -0.535441 -0.989408
    vertex 12.000000 -0.535441 -0.989408
    vertex 16.000000 -0.365287 -1.064044
  endloop
endfacet
facet normal -0.000000 -0.298546 -0.680616
  outer loop
    vertex 16.000000 -0.365287 -1.064044
    vertex 12.000000 -0.535441 -0.989408
    vertex 12.000000 -0.365287 -1.064044
  endloop
endfacet
facet normal -0.000000 -0.182448 -0.720472
  outer loop
    vertex 16.000000 -0.365287 -1.064044
    vertex 12.000000 -0.365287 -1.064044
    vertex 16.000000 -0.185169 -1.109656
  endloop
endfacet
facet normal -0.000000 -0.182448 -0.720472
  outer loop
    vertex 16.000000 -0.185169 -1.109656
    vertex 12.000000 -0.365287 -1.064044
    vertex 12.000000 -0.185169 -1.109656
  endloop
endfacet
facet normal -0.000000 -0.061374 -0.740676
  outer loop
    vertex 16.000000 -0.185169 -1.109656
    vertex 12.000000 -0.185169 -1.109656
    vertex 16.000000 0.000000 -1.125000
  endloop
endfacet
facet normal -0.000000 -0.061374 -0.740676
  outer loop
    vertex 16.000000 0.000000 -1.125000
    vertex 12.000000 -0.185169 -1.109656
    vertex 12.000000 0.000000 -1.125000
  endloop
endfacet
facet normal 0.000000 0.061374 -0.740676
  outer loop
    vertex 16.000000 0.000000 -1.125000
    vertex 12.000000 0.000000 -1.125000
    vertex 16.000000 0.185169 -1.109656
  endloop
endfacet
facet normal 0.000000 0.061374 -0.740676
  outer loop
    vertex 16.000000 0.185169 -1.109656
    vertex 12.000000 0.000000 -1.125000
    vertex 12.000000 0.185169 -1.109656
  endloop
endfacet
facet normal 0.000000 0.182448 -0.720472
  outer loop
    vertex 16.000000 0.185169 -1.109656
    vertex 12.000000 0.185169 -1.109656
    vertex 16.000000 0.365287 -1.064044
  endloop
endfacet
facet normal 0.000000 0.182448 -0.720472
  outer loop
    vertex 16.000000 0.365287 -1.064044
    vertex 12.000000 0.185169 -1.109656
    vertex 12.000000 0.365287 -1.064044
  endloop
endfacet
facet normal 0.000000 0.298546 -0.680616
  outer loop
    vertex 16.000000 0.365287 -1.064044
    vertex 12.000000 0.365287 -1.064044
    vertex 16.000000 0.535441 -0.989408
  endloop
endfacet
facet normal 0.000000 0.298546 -0.680616
  outer loop
    vertex 16.000000 0.535441 -0.989408
    vertex 12.000000 0.365287 -1.064044
    vertex 12.000000 0.535441 -0.989408
  endloop
endfacet
facet normal 0.000000 0.406500 -0.622194
  outer loop
    vertex 16.000000 0.535441 -0.989408
    vertex 12.000000 0.535441 -0.989408
    vertex 16.000000 0.690989 -0.887783
  endloop
endfacet
facet normal 0.000000 0.406500 -0.622194
  outer loop
    vertex 16.000000 0.690989 -0.887783
    vertex 12.000000 0.535441 -0.989408
    vertex 12.000000 0.690989 -0.887783
  endloop
endfacet
facet normal 0.000000 0.503365 -0.546800
  outer loop
    vertex 16.000000 0.690989 -0.887783
    vertex 12.000000 0.690989 -0.887783
    vertex 16.000000 0.827689 -0.761942
  endloop
endfacet
facet normal 0.000000 0.503365 -0.546800
  outer loop
    vertex 16.000000 0.827689 -0.761942
    vertex 12.000000 0.690989 -0.887783
    vertex 12.000000 0.827689 -0.761942
  endloop
endfacet
facet normal 0.000000 0.586500 -0.456491
  outer loop
    vertex 16.000000 0.827689 -0.761942
    vertex 12.000000 0.827689 -0.761942
    vertex 16.000000 0.941812 -0.615317
  endloop
endfacet
facet normal 0.000000 0.586500 -0.456491
  outer loop
    vertex 16.000000 0.941812 -0.615317
    vertex 12.000000 0.827689 -0.761942
    vertex 12.000000 0.941812 -0.615317
  endloop
endfacet
facet normal 0.000000 0.653637 -0.353731
  outer loop
    vertex 16.000000 0.941812 -0.615317
    vertex 12.000000 0.941812 -0.615317
    vertex 16.000000 1.030245 -0.451907
  endloop
endfacet
facet normal 0.000000 0.653637 -0.353731
  outer loop
    vertex 16.000000 1.030245 -0.451907
    vertex 12.000000 0.941812 -0.615317
    vertex 12.000000 1.030245 -0.451907
  endloop
endfacet
facet normal 0.000000 0.702945 -0.241322
  outer loop
    vertex 16.000000 1.030245 -0.451907
    vertex 12.000000 1.030245 -0.451907
    vertex 16.000000 1.090575 -0.276171
  endloop
endfacet
facet normal -0.000000 -0.061374 0.740676
  outer loop
    vertex 20.000000 -0.000000 1.125000
    vertex 16.000000 0.000000 1.125000
    vertex 20.000000 -0.185169 1.109656
  endloop
endfacet
facet normal 0.000000 -0.061374 0.740676
  outer loop
    vertex 20.000000 -0.185169 1.109656
    vertex 16.000000 0.000000 1.125000
    vertex 16.000000 -0.185169 1.109656
  endloop
endfacet
facet normal 0.000000 -0.182448 0.720472
  outer loop
    vertex 20.000000 -0.185169 1.109656
    vertex 16.000000 -0.185169 1.109656
    vertex 20.000000 -0.365287 1.064044
  endloop
endfacet
facet normal 0.000000 -0.182448 0.720472
  outer loop
    vertex 20.000000 -0.365287 1.064044
    vertex 16.000000 -0.185169 1.109656
    vertex 16.000000 -0.365287 1.064044
  endloop
endfacet
facet normal 0.000000 -0.298546 0.680616
  outer loop
    vertex 20.000000 -0.365287 1.064044
    vertex 16.000000 -0.365287 1.064044
    vertex 20.000000 -0.535441 0.989408
  endloop
endfacet
facet normal 0.000000 -0.298546 0.680616
  outer loop
    vertex 20.000000 -0.535441 0.989408
    vertex 16.000000 -0.365287 1.064044
    vertex 16.000000 -0.535441 0.989408
  endloop
endfacet
facet normal 0.000000 -0.406500 0.622194
  outer loop
    vertex 20.000000 -0.535441 0.989408
    vertex 16.000000 -0.535441 0.989408
    vertex 20.000000 -0.690989 0.887783
  endloop
endfacet
facet normal 0.000000 -0.406500 0.622194
  outer loop
    vertex 20.000000 -0.690989 0.887783
    vertex 16.000000 -0.535441 0.989408
    vertex 16.000000 -0.690989 0.887783
  endloop
endfacet
facet normal 0.000000 -0.503365 0.546800
  outer loop
    vertex 20.000000 -0.690989 0.887783
    vertex 16.000000 -0.690989 0.887783
    vertex 20.000000 -0.827689 0.761942
  endloop
endfacet
facet normal 0.000000 -0.503365 0.546800
  outer loop
    vertex 20.000000 -0.827689 0.761942
    vertex 16.000000 -0.690989 0.887783
    vertex 16.000000 -0.827689 0.761942
  endloop
endfacet
facet normal 0.000000 -0.586500 0.456491
  outer loop
    vertex 20.000000 -0.827689 0.761942
    vertex 16.000000 -0.827689 0.761942
    vertex 20.000000 -0.941812 0.615317
  endloop
endfacet
facet normal 0.000000 -0.586500 0.456491
  outer loop
    vertex 20.000000 -0.941812 0.615317
    vertex 16.000000 -0.827689 0.761942
    vertex 16.000000 -0.941812 0.615317
  endloop
endfacet
facet normal 0.000000 -0.653637 0.353731
  outer loop
    vertex 20.000000 -0.941812 0.615317
    vertex 16.000000 -0.941812 0.615317
    vertex 20.000000 -1.030245 0.451907
  endloop
endfacet
facet normal 0.000000 -0.653637 0.353731
  outer loop
    vertex 20.000000 -1.030245 0.451907
    vertex 16.000000 -0.941812 0.615317
    vertex 16.000000 -1.030245 0.451907
  endloop
endfacet
facet normal 0.000000 -0.702945 0.241322
  outer loop
    vertex 20.000000 -1.030245 0.451907
    vertex 16.000000 -1.030245 0.451907
    vertex 20.000000 -1.090575 0.276171
  endloop
endfacet
facet normal 0.000000 -0.702945 0.241322
  outer loop
    vertex 20.000000 -1.090575 0.276171
    vertex 16.000000 -1.030245 0.451907
    vertex 16.000000 -1.090575 0.276171
  endloop
endfacet
facet normal 0.000000 -0.733078 0.122329
  outer loop
    vertex 20.000000 -1.090575 0.276171
    vertex 16.000000 -1.090575 0.276171
    vertex 20.000000 -1.121158 0.092902
  endloop
endfacet
facet normal 0.000000 -0.733078 0.122329
  outer loop
    vertex 20.000000 -1.121158 0.092902
    vertex 16.000000 -1.090575 0.276171
    vertex 16.000000 -1.121158 0.092902
  endloop
endfacet
facet normal -0.000000 -0.743214 -0.000000
  outer loop
    vertex 20.000000 -1.121158 0.092902
    vertex 16.000000 -1.121158 0.092902
    vertex 20.000000 -1.121158 -0.092902
  endloop
endfacet
facet normal 0.000000 -0.743214 0.000000
  outer loop
    vertex 20.000000 -1.121158 -0.092902
    vertex 16.000000 -1.121158 0.092902
    vertex 16.000000 -1.121158 -0.092902
  endloop
endfacet
facet normal -0.000000 -0.733078 -0.122329
  outer loop
    vertex 20.000000 -1.121158 -0.092902
    vertex 16.000000 -1.121158 -0.092902
    vertex 20.000000 -1.090575 -0.276171
  endloop
endfacet
facet normal -0.000000 -0.733078 -0.122329
  outer loop
    vertex 20.000000 -1.090575 -0.276171
    vertex 16.000000 -1.121158 -0.092902
    vertex 16.000000 -1.090575 -0.276171
  endloop
endfacet
facet normal -0.000000 -0.702945 -0.241322
  outer loop
    vertex 20.000000 -1.090575 -0.276171
    vertex 16.000000 -1.090575 -0.276171
    vertex 20.000000 -1.030245 -0.451907
  endloop
endfacet
facet normal -0.000000 -0.702945 -0.241322
  outer loop
    vertex 20.000000 -1.030245 -0.451907
    vertex 16.000000 -1.090575 -0.276171
    vertex 16.000000 -1.030245 -0.451907
  endloop
endfacet
facet normal -0.000000 -0.653637 -0.353731
  outer loop
    vertex 20.000000 -1.030245 -0.451907
    vertex 16.000000 -1.030245 -0.451907
    vertex 20.000000 -0.941812 -0.615317
  endloop
endfacet
facet normal -0.000000 -0.653637 -0.353731
  outer loop
    vertex 20.000000 -0.941812 -0.615317
    vertex 16.000000 -1.030245 -0.451907
    vertex 16.000000 -0.941812 -0.615317
  endloop
endfacet
facet normal -0.000000 -0.586500 -0.456491
  outer loop
    vertex 20.000000 -0.941812 -0.615317
    vertex 16.000000 -0.941812 -0.615317
    vertex 20.000000 -0.827689 -0.761942
  endloop
endfacet
facet normal -0.000000 -0.586500 -0.456491
  outer loop
    vertex 20.000000 -0.827689 -0.761942
    vertex 16.000000 -0.941812 -0.615317
    vertex 16.000000 -0.827689 -0.761942
  endloop
endfacet
facet normal -0.000000 -0.503365 -0.546800
  outer loop
    vertex 20.000000 -0.827689 -0.761942
    vertex 16.000000 -0.827689 -0.761942
    vertex 20.000000 -0.690989 -0.887783
  endloop
endfacet
facet normal -0.000000 -0.503365 -0.546800
  outer loop
    vertex 20.000000 -0.690989 -0.887783
    vertex 16.000000 -0.827689 -0.761942
    vertex 16.000000 -0.690989 -0.887783
  endloop
endfacet
facet normal -0.000000 -0.406500 -0.622194
  outer loop
    vertex 20.000000 -0.690989 -0.887783
    vertex 16.000000 -0.690989 -0.887783
    vertex 20.000000 -0.535441 -0.989408
  endloop
endfacet
facet normal -0.000000 -0.406500 -0.622194
  outer loop
    vertex 20.000000 -0.535441 -0.989408
    vertex 16.000000 -0.690989 -0.887783
    vertex 16.000000 -0.535441 -0.989408
  endloop
endfacet
facet normal -0.000000 -0.298546 -0.680616
  outer loop
    vertex 20.000000 -0.535441 -0.989408
    vertex 16.000000 -0.535441 -0.989408
    vertex 20.000000 -0.365287 -1.064044
  endloop
endfacet
facet normal -0.000000 -0.298546 -0.680616
  outer loop
    vertex 20.000000 -0.365287 -1.064044
    vertex 16.000000 -0.535441 -0.989408
    vertex 16.000000 -0.365287 -1.064044
  endloop
endfacet
facet normal -0.000000 -0.182448 -0.720472
  outer loop
    vertex 20.000000 -0.365287 -1.064044
    vertex 16.000000 -0.365287 -1.064044
    vertex 20.000000 -0.185169 -1.109656
  endloop
endfacet
facet normal -0.000000 -0.182448 -0.720472
  outer loop
    vertex 20.000000 -0.185169 -1.109656
    vertex 16.000000 -0.365287 -1.064044
    vertex 16.000000 -0.185169 -1.109656
  endloop
endfacet
facet normal -0.000000 -0.061374 -0.740676
  outer loop
    vertex 20.000000 -0.185169 -1.109656
    vertex 16.000000 -0.185169 -1.109656
    vertex 20.000000 0.000000 -1.125000
  endloop
endfacet
facet normal -0.000000 -0.061374 -0.740676
  outer loop
    vertex 20.000000 0.000000 -1.125000
    vertex 16.000000 -0.185169 -1.109656
    vertex 16.000000 0.000000 -1.125000
  endloop
endfacet
facet normal 0.000000 0.061374 -0.740676
  outer loop
    vertex 20.000000 0.000000 -1.125000
    vertex 16.000000 0.000000 -1.125000
    vertex 20.000000 0.185169 -1.109656
  endloop
endfacet
facet normal 0.000000 0.061374 -0.740676
  outer loop
    vertex 20.000000 0.185169 -1.109656
    vertex 16.000000 0.000000 -1.125000
    vertex 16.000000 0.185169 -1.109656
  endloop
endfacet
facet normal 0.000000 0.182448 -0.720472
  outer loop
    vertex 20.000000 0.185169 -1.109656
    vertex 16.000000 0.185169 -1.109656
    vertex 20.000000 0.365287 -1.064044
  endloop
endfacet
facet normal 0.000000 0.182448 -0.720472
  outer loop
    vertex 20.000000 0.365287 -1.064044
    vertex 16.000000 0.185169 -1.109656
    vertex 16.000000 0.365287 -1.064044
  endloop
endfacet
facet normal 0.000000 0.298546 -0.680616
  outer loop
    vertex 20.000000 0.365287 -1.064044
    vertex 16.000000 0.365287 -1.064044
    vertex 20.000000 0.535441 -0.989408
  endloop
endfacet
facet normal 0.000000 0.298546 -0.680616
  outer loop
    vertex 20.000000 0.535441 -0.989408
    vertex 16.000000 0.365287 -1.064044
    vertex 16.000000 0.535441 -0.989408
  endloop
endfacet
facet normal 0.000000 0.406500 -0.622194
  outer loop
    vertex 20.000000 0.535441 -0.989408
    vertex 16.000000 0.535441 -0.989408
    vertex 20.000000 0.690989 -0.887783
  endloop
endfacet
facet normal 0.000000 0.406500 -0.622194
  outer loop
    vertex 20.000000 0.690989 -0.887783
    vertex 16.000000 0.535441 -0.989408
    vertex 16.000000 0.690989 -0.887783
  endloop
endfacet
facet normal 0.000000 0.503365 -0.546800
  outer loop
    vertex 20.000000 0.690989 -0.887783
    vertex 16.000000 0.690989 -0.887783
    vertex 20.000000 0.827689 -0.761942
  endloop
endfacet
facet normal 0.000000 0.503365 -0.546800
  outer loop
    vertex 20.000000 0.827689 -0.761942
    vertex 16.000000 0.690989 -0.887783
    vertex 16.000000 0.827689 -0.761942
  endloop
endfacet
facet normal 0.000000 0.586500 -0.456491
  outer loop
    vertex 20.000000 0.827689 -0.761942
    vertex 16.000000 0.827689 -0.761942
    vertex 20.000000 0.941812 -0.615317
  endloop
endfacet
facet normal 0.000000 0.586500 -0.456491
  outer loop
    vertex 20.000000 0.941812 -0.615317
    vertex 16.000000 0.827689 -0.761942
    vertex 16.000000 0.941812 -0.615317
  endloop
endfacet
facet normal 0.000000 0.653637 -0.353731
  outer loop
    vertex 20.000000 0.941812 -0.615317
    vertex 16.000000 0.941812 -0.615317
    vertex 20.000000 1.030245 -0.451907
  endloop
endfacet
facet normal 0.000000 0.653637 -0.353731
  outer loop
    vertex 20.000000 1.030245 -0.451907
    vertex 16.000000 0.941812 -0.615317
    vertex 16.000000 1.030245 -0.451907
  endloop
endfacet
facet normal 0.000000 0.702945 -0.241322
  outer loop
    vertex 20.000000 1.030245 -0.451907
    vertex 16.000000 1.030245 -0.451907
    vertex 20.000000 1.090575 -0.276171
  endloop
endfacet
facet normal 0.000000 0.702945 -0.241322
  outer loop
    vertex 20.000000 1.090575 -0.276171
    vertex 16.000000 1.030245 -0.451907
    vertex 16.000000 1.090575 -0.276171
  endloop
endfacet
facet normal 0.000000 0.000000 -5.324893
  outer loop
    vertex 0.000000 1.096871 0.250000
    vertex 24.000000 1.096871 0.250000
    vertex 0.000000 0.875000 0.250000
  endloop
endfacet
facet normal 0.000000 0.000000 -5.324893
  outer loop
    vertex 0.000000 0.875000 0.250000
    vertex 24.000000 1.096871 0.250000
    vertex 24.000000 0.875000 0.250000
  endloop
endfacet
facet normal 0.038546 0.000000 0.000000
  outer loop
    vertex 24.000000 1.096871 0.250000
    vertex 24.000000 1.042150 0.423730
    vertex 24.000000 0.875000 0.250000
  endloop
endfacet
facet normal 0.041435 0.000000 0.000000
  outer loop
    vertex 24.000000 0.875000 0.250000
    vertex 24.000000 1.042150 0.423730
    vertex 24.000000 0.960112 0.586353
  endloop
endfacet
facet normal 0.048592 0.000000 -0.000000
  outer loop
    vertex 24.000000 0.875000 0.250000
    vertex 24.000000 0.960112 0.586353
    vertex 24.000000 0.852906 0.733606
  endloop
endfacet
facet normal 0.059829 0.000000 0.000000
  outer loop
    vertex 24.000000 0.852906 0.733606
    vertex 24.000000 0.723341 0.861628
    vertex 24.000000 0.875000 0.250000
  endloop
endfacet
facet normal 0.074852 0.000000 0.000000
  outer loop
    vertex 24.000000 0.875000 0.250000
    vertex 24.000000 0.723341 0.861628
    vertex 24.000000 0.574816 0.967063
  endloop
endfacet
facet normal 0.093266 0.000000 0.000000
  outer loop
    vertex 24.000000 0.875000 0.250000
    vertex 24.000000 0.574816 0.967063
    vertex 24.000000 0.411223 1.047149
  endloop
endfacet
facet normal 0.114590 0.000000 0.000000
  outer loop
    vertex 24.000000 0.411223 1.047149
    vertex 24.000000 0.236850 1.099785
    vertex 24.000000 0.875000 0.250000
  endloop
endfacet
facet normal 0.138263 0.000000 0.000000
  outer loop
    vertex 24.000000 0.875000 0.250000
    vertex 24.000000 0.236850 1.099785
    vertex 24.000000 0.056268 1.123592
  endloop
endfacet
facet normal 0.163666 0.000000 0.000000
  outer loop
    vertex 24.000000 0.875000 0.250000
    vertex 24.000000 0.056268 1.123592
    vertex 24.000000 -0.125789 1.117946
  endloop
endfacet
facet normal 0.190133 0.000000 0.000000
  outer loop
    vertex 24.000000 -0.125789 1.117946
    vertex 24.000000 -0.304548 1.082994
    vertex 24.000000 0.875000 0.250000
  endloop
endfacet
facet normal 0.216969 0.000000 0.000000
  outer loop
    vertex 24.000000 0.875000 0.250000
    vertex 24.000000 -0.304548 1.082994
    vertex 24.000000 -0.475324 1.019653
  endloop
endfacet
facet normal 2.753724 0.000000 0.000000
  outer loop
    vertex 24.000000 0.875000 0.250000
    vertex 24.000000 -0.475324 1.019653
    vertex 24.000000 -0.475324 -1.019653
  endloop
endfacet
facet normal 0.322855 0.000000 -0.000000
  outer loop
    vertex 24.000000 -0.475324 -1.019653
    vertex 24.000000 -0.475324 1.019653
    vertex 24.000000 -0.633640 -0.929583
  endloop
endfacet
facet normal 0.294336 0.000000 0.000000
  outer loop
    vertex 24.000000 -0.633640 -0.929583
    vertex 24.000000 -0.475324 1.019653
    vertex 24.000000 -0.633640 0.929583
  endloop
endfacet
facet normal 0.263455 0.000000 -0.000000
  outer loop
    vertex 24.000000 -0.633640 -0.929583
    vertex 24.000000 -0.633640 0.929583
    vertex 24.000000 -0.775346 -0.815146
  endloop
endfacet
facet normal 0.231022 0.000000 0.000000
  outer loop
    vertex 24.000000 -0.775346 -0.815146
    vertex 24.000000 -0.633640 0.929583
    vertex 24.000000 -0.775346 0.815146
  endloop
endfacet
facet normal 0.197887 0.000000 -0.000000
  outer loop
    vertex 24.000000 -0.775346 -0.815146
    vertex 24.000000 -0.775346 0.815146
    vertex 24.000000 -0.896728 -0.679341
  endloop
endfacet
facet normal 0.164919 0.000000 0.000000
  outer loop
    vertex 24.000000 -0.896728 -0.679341
    vertex 24.000000 -0.775346 0.815146
    vertex 24.000000 -0.896728 0.679341
  endloop
endfacet
facet normal 0.132981 0.000000 -0.000000
  outer loop
    vertex 24.000000 -0.896728 -0.679341
    vertex 24.000000 -0.896728 0.679341
    vertex 24.000000 -0.994603 -0.525728
  endloop
endfacet
facet normal 0.102911 0.000000 0.000000
  outer loop
    vertex 24.000000 -0.994603 -0.525728
    vertex 24.000000 -0.896728 0.679341
    vertex 24.000000 -0.994603 0.525728
  endloop
endfacet
facet normal 0.075498 0.000000 -0.000000
  outer loop
    vertex 24.000000 -0.994603 -0.525728
    vertex 24.000000 -0.994603 0.525728
    vertex 24.000000 -1.066406 -0.358334
  endloop
endfacet
facet normal 0.051459 0.000000 0.000000
  outer loop
    vertex 24.000000 -1.066406 -0.358334
    vertex 24.000000 -0.994603 0.525728
    vertex 24.000000 -1.066406 0.358334
  endloop
endfacet
facet normal 0.031425 0.000000 -0.000000
  outer loop
    vertex 24.000000 -1.066406 -0.358334
    vertex 24.000000 -1.066406 0.358334
    vertex 24.000000 -1.110255 -0.181546
  endloop
endfacet
facet normal 0.015921 0.000000 0.000000
  outer loop
    vertex 24.000000 -1.110255 -0.181546
    vertex 24.000000 -1.066406 0.358334
    vertex 24.000000 -1.110255 0.181546
  endloop
endfacet
facet normal 0.005354 0.000000 -0.000000
  outer loop
    vertex 24.000000 -1.110255 -0.181546
    vertex 24.000000 -1.110255 0.181546
    vertex 24.000000 -1.125000 0.000000
  endloop
endfacet
facet normal 0.675162 0.000000 0.000000
  outer loop
    vertex 24.000000 0.875000 0.250000
    vertex 24.000000 -0.475324 -1.019653
    vertex 24.000000 0.875000 -0.250000
  endloop
endfacet
facet normal 0.216969 0.000000 0.000000
  outer loop
    vertex 24.000000 0.875000 -0.250000
    vertex 24.000000 -0.475324 -1.019653
    vertex 24.000000 -0.304548 -1.082994
  endloop
endfacet
facet normal 0.190133 0.000000 0.000000
  outer loop
    vertex 24.000000 0.875000 -0.250000
    vertex 24.000000 -0.304548 -1.082994
    vertex 24.000000 -0.125789 -1.117946
  endloop
endfacet
facet normal 0.163666 -0.000000 0.000000
  outer loop
    vertex 24.000000 -0.125789 -1.117946
    vertex 24.000000 0.056268 -1.123592
    vertex 24.000000 0.875000 -0.250000
  endloop
endfacet
facet normal 0.138263 0.000000 0.000000
  outer loop
    vertex 24.000000 0.875000 -0.250000
    vertex 24.000000 0.056268 -1.123592
    vertex 24.000000 0.236850 -1.099785
  endloop
endfacet
facet normal 0.114590 0.000000 0.000000
  outer loop
    vertex 24.000000 0.875000 -0.250000
    vertex 24.000000 0.236850 -1.099785
    vertex 24.000000 0.411223 -1.047149
  endloop
endfacet
facet normal 0.093266 0.000000 0.000000
  outer loop
    vertex 24.000000 0.411223 -1.047149
    vertex 24.000000 0.574816 -0.967063
    vertex 24.000000 0.875000 -0.250000
  endloop
endfacet
facet normal 0.074852 0.000000 0.000000
  outer loop
    vertex 24.000000 0.875000 -0.250000
    vertex 24.000000 0.574816 -0.967063
    vertex 24.000000 0.723341 -0.861628
  endloop
endfacet
facet normal 0.059829 0.000000 0.000000
  outer loop
    vertex 24.000000 0.875000 -0.250000
    vertex 24.000000 0.723341 -0.861628
    vertex 24.000000 0.852906 -0.733606
  endloop
endfacet
facet normal 0.048592 0.000000 0.000000
  outer loop
    vertex 24.000000 0.852906 -0.733606
    vertex 24.000000 0.960112 -0.586353
    vertex 24.000000 0.875000 -0.250000
  endloop
endfacet
facet normal 0.041435 0.000000 0.000000
  outer loop
    vertex 24.000000 0.875000 -0.250000
    vertex 24.000000 0.960112 -0.586353
    vertex 24.000000 1.042150 -0.423730
  endloop
endfacet
facet normal 0.038546 -0.000000 0.000000
  outer loop
    vertex 24.000000 0.875000 -0.250000
    vertex 24.000000 1.042150 -0.423730
    vertex 24.000000 1.096871 -0.250000
  endloop
endfacet
facet normal -0.038546 0.000000 0.000000
  outer loop
    vertex 0.000000 1.096871 0.250000
    vertex 0.000000 0.875000 0.250000
    vertex 0.000000 1.042150 0.423730
  endloop
endfacet
facet normal -0.041435 -0.000000 0.000000
  outer loop
    vertex 0.000000 1.042150 0.423730
    vertex 0.000000 0.875000 0.250000
    vertex 0.000000 0.960112 0.586353
  endloop
endfacet
facet normal -0.048592 -0.000000 0.000000
  outer loop
    vertex 0.000000 0.960112 0.586353
    vertex 0.000000 0.875000 0.250000
    vertex 0.000000 0.852906 0.733606
  endloop
endfacet
facet normal -0.059829 -0.000000 -0.000000
  outer loop
    vertex 0.000000 0.852906 0.733606
    vertex 0.000000 0.875000 0.250000
    vertex 0.000000 0.723341 0.861628
  endloop
endfacet
facet normal -0.074852 -0.000000 -0.000000
  outer loop
    vertex 0.000000 0.723341 0.861628
    vertex 0.000000 0.875000 0.250000
    vertex 0.000000 0.574816 0.967063
  endloop
endfacet
facet normal -0.093266 -0.000000 -0.000000
  outer loop
    vertex 0.000000 0.574816 0.967063
    vertex 0.000000 0.875000 0.250000
    vertex 0.000000 0.411223 1.047149
  endloop
endfacet
facet normal -0.114590 -0.000000 -0.000000
  outer loop
    vertex 0.000000 0.411223 1.047149
    vertex 0.000000 0.875000 0.250000
    vertex 0.000000 0.236850 1.099785
  endloop
endfacet
facet normal -0.138263 -0.000000 -0.000000
  outer loop
    vertex 0.000000 0.236850 1.099785
    vertex 0.000000 0.875000 0.250000
    vertex 0.000000 0.056268 1.123592
  endloop
endfacet
facet normal -0.163666 0.000000 -0.000000
  outer loop
    vertex 0.000000 0.056268 1.123592
    vertex 0.000000 0.875000 0.250000
    vertex 0.000000 -0.125789 1.117946
  endloop
endfacet
facet normal -0.190133 0.000000 -0.000000
  outer loop
    vertex 0.000000 -0.125789 1.117946
    vertex 0.000000 0.875000 0.250000
    vertex 0.000000 -0.304548 1.082994
  endloop
endfacet
facet normal -0.216969 0.000000 -0.000000
  outer loop
    vertex 0.000000 -0.304548 1.082994
    vertex 0.000000 0.875000 0.250000
    vertex 0.000000 -0.475324 1.019653
  endloop
endfacet
facet normal -0.675162 0.000000 0.000000
  outer loop
    vertex 0.000000 -0.475324 1.019653
    vertex 0.000000 0.875000 0.250000
    vertex 0.000000 0.875000 -0.250000
  endloop
endfacet
facet normal -2.753723 0.000000 0.000000
  outer loop
    vertex 0.000000 -0.475324 1.019653
    vertex 0.000000 0.875000 -0.250000
    vertex 0.000000 -0.475324 -1.019653
  endloop
endfacet
facet normal -0.216969 0.000000 0.000000
  outer loop
    vertex 0.000000 -0.475324 -1.019653
    vertex 0.000000 0.875000 -0.250000
    vertex 0.000000 -0.304548 -1.082994
  endloop
endfacet
facet normal -0.190133 0.000000 0.000000
  outer loop
    vertex 0.000000 -0.304548 -1.082994
    vertex 0.000000 0.875000 -0.250000
    vertex 0.000000 -0.125789 -1.117946
  endloop
endfacet
facet normal -0.163666 0.000000 0.000000
  outer loop
    vertex 0.000000 -0.125789 -1.117946
    vertex 0.000000 0.875000 -0.250000
    vertex 0.000000 0.056268 -1.123592
  endloop
endfacet
facet normal -0.138263 0.000000 0.000000
  outer loop
    vertex 0.000000 0.056268 -1.123592
    vertex 0.000000 0.875000 -0.250000
    vertex 0.000000 0.236850 -1.099785
  endloop
endfacet
facet normal -0.114590 0.000000 0.000000
  outer loop
    vertex 0.000000 0.236850 -1.099785
    vertex 0.000000 0.875000 -0.250000
    vertex 0.000000 0.411223 -1.047149
  endloop
endfacet
facet normal -0.093266 0.000000 0.000000
  outer loop
    vertex 0.000000 0.411223 -1.047149
    vertex 0.000000 0.875000 -0.250000
    vertex 0.000000 0.574816 -0.967063
  endloop
endfacet
facet normal -0.074852 0.000000 0.000000
  outer loop
    vertex 0.000000 0.574816 -0.967063
    vertex 0.000000 0.875000 -0.250000
    vertex 0.000000 0.723341 -0.861628
  endloop
endfacet
facet normal -0.059829 0.000000 0.000000
  outer loop
    vertex 0.000000 0.723341 -0.861628
    vertex 0.000000 0.875000 -0.250000
    vertex 0.000000 0.852906 -0.733606
  endloop
endfacet
facet normal -0.048592 0.000000 0.000000
  outer loop
    vertex 0.000000 0.852906 -0.733606
    vertex 0.000000 0.875000 -0.250000
    vertex 0.000000 0.960112 -0.586353
  endloop
endfacet
facet normal -0.041435 0.000000 0.000000
  outer loop
    vertex 0.000000 0.960112 -0.586353
    vertex 0.000000 0.875000 -0.250000
    vertex 0.000000 1.042150 -0.423730
  endloop
endfacet
facet normal -0.038546 0.000000 0.000000
  outer loop
    vertex 0.000000 1.042150 -0.423730
    vertex 0.000000 0.875000 -0.250000
    vertex 0.000000 1.096871 -0.250000
  endloop
endfacet
facet normal -0.322855 0.000000 -0.000000
  outer loop
    vertex 0.000000 -0.475324 1.019653
    vertex 0.000000 -0.475324 -1.019653
    vertex 0.000000 -0.633640 0.929583
  endloop
endfacet
facet normal -0.294336 0.000000 0.000000
  outer loop
    vertex 0.000000 -0.633640 0.929583
    vertex 0.000000 -0.475324 -1.019653
    vertex 0.000000 -0.633640 -0.929583
  endloop
endfacet
facet normal -0.263455 0.000000 -0.000000
  outer loop
    vertex 0.000000 -0.633640 0.929583
    vertex 0.000000 -0.633640 -0.929583
    vertex 0.000000 -0.775346 0.815146
  endloop
endfacet
facet normal -0.231022 0.000000 0.000000
  outer loop
    vertex 0.000000 -0.775346 0.815146
    vertex 0.000000 -0.633640 -0.929583
    vertex 0.000000 -0.775346 -0.815146
  endloop
endfacet
facet normal -0.197887 0.000000 -0.000000
  outer loop
    vertex 0.000000 -0.775346 0.815146
    vertex 0.000000 -0.775346 -0.815146
    vertex 0.000000 -0.896728 0.679341
  endloop
endfacet
facet normal -0.164919 0.000000 0.000000
  outer loop
    vertex 0.000000 -0.896728 0.679341
    vertex 0.000000 -0.775346 -0.815146
    vertex 0.000000 -0.896728 -0.679341
  endloop
endfacet
facet normal -0.132981 0.000000 -0.000000
  outer loop
    vertex 0.000000 -0.896728 0.679341
    vertex 0.000000 -0.896728 -0.679341
    vertex 0.000000 -0.994603 0.525728
  endloop
endfacet
facet normal -0.102911 0.000000 0.000000
  outer loop
    vertex 0.000000 -0.994603 0.525728
    vertex 0.000000 -0.896728 -0.679341
    vertex 0.000000 -0.994603 -0.525728
  endloop
endfacet
facet normal -0.075498 0.000000 -0.000000
  outer loop
    vertex 0.000000 -0.994603 0.525728
    vertex 0.000000 -0.994603 -0.525728
    vertex 0.000000 -1.066406 0.358334
  endloop
endfacet
facet normal -0.051459 0.000000 0.000000
  outer loop
    vertex 0.000000 -1.066406 0.358334
    vertex 0.000000 -0.994603 -0.525728
    vertex 0.000000 -1.066406 -0.358334
  endloop
endfacet
facet normal -0.031425 0.000000 -0.000000
  outer loop
    vertex 0.000000 -1.066406 0.358334
    vertex 0.000000 -1.066406 -0.358334
    vertex 0.000000 -1.110255 0.181546
  endloop
endfacet
facet normal -0.015921 0.000000 0.000000
  outer loop
    vertex 0.000000 -1.110255 0.181546
    vertex 0.000000 -1.066406 -0.358334
    vertex 0.000000 -1.110255 -0.181546
  endloop
endfacet
facet normal -0.005354 0.000000 -0.000000
  outer loop
    vertex 0.000000 -1.110255 0.181546
    vertex 0.000000 -1.110255 -0.181546
    vertex 0.000000 -1.125000 0.000000
  endloop
endfacet
endsolid ff925cff-fcc6-410c-9d94-185d24061ac8-ascii.stl
